<svg width="43.790126" height="63.590156" xmlns="http://www.w3.org/2000/svg" xmlns:svg="http://www.w3.org/2000/svg" xmlns:xlink="http://www.w3.org/1999/xlink" xmlns:slic3r="http://slic3r.org/namespaces/slic3r"><g xmlns="http://www.w3.org/2000/svg" slic3r:z="2.14549999999999e-005" id="layer64">
    <polygon style="fill: white" points="26.482744,3.839295 26.731872,3.80579 26.990087,4.29859 27.043348,4.383457 27.109908,4.340939 27.614334,4.091421 27.704328,4.39839 27.82185,5.04707 27.931712,5.067311 28.122284,4.982561 28.148107,4.988333 28.484694,4.814149 28.717804,4.728461 28.790516,5.131929 29.020666,5.183375 29.498463,5.157194 29.560798,5.318668 29.633086,5.398446 29.797348,5.317048 29.823803,5.419006 29.850275,5.638143 29.869416,5.659267 29.906935,5.84327 30.377615,6.173913 30.474734,6.098375 30.917144,5.804463 31.03459,6.149883 31.13746,6.6175 31.467759,6.728565 31.825018,6.420658 32.153464,6.15581 32.311613,6.564492 32.452439,7.009045 32.614616,7.045702 32.684274,6.992548 32.831637,7.041679 33.172318,6.772758 33.497848,6.522666 33.631623,6.928547 33.750164,7.325349 33.978513,7.395184 34.158364,7.292305 34.263297,7.357599 34.469999,7.235507 34.855448,7.014142 34.92734,7.40831 34.995682,7.796518 35.258073,7.950133 35.504868,7.875616 35.549001,7.929761 35.705296,7.8798 36.145828,7.752869 36.125028,8.169042 36.112323,8.510731 36.205768,8.554075 36.20645,8.716589 36.310525,8.839054 36.492328,8.822288 36.517725,8.869295 36.888439,8.829305 37.243731,8.799881 37.101695,9.290642 37.08123,9.36379 37.157648,9.413814 37.129176,9.53851 37.507307,9.880674 37.604024,9.959419 37.676796,9.960924 37.692635,9.978543 37.967012,9.981426 38.149368,9.986476 38.010736,10.290556 38.049184,10.321859 38.034452,10.358766 38.226776,10.5727 38.876017,11.197088 38.881692,11.197622 38.882489,11.198681 38.903056,11.200318 38.894861,11.21521 38.896391,11.216683 38.895744,11.217947 38.941492,11.270355 39.321176,12.204028 39.369583,12.321231 39.4918,12.334877 39.454323,12.40243 39.426146,12.45301 39.722088,13.116035 39.795018,13.2854 39.79792,13.285702 39.800343,13.292 40.0022,13.32187 39.939127,13.426066 39.890886,13.508028 39.908632,13.549239 39.902895,13.558595 40.092899,14.052532 40.179315,14.288072 40.190352,14.289992 40.191022,14.292791 40.464328,14.357463 40.367519,14.492468 40.293433,14.599123 40.317288,14.664143 40.289465,14.703745 40.37468,15.059477 40.464214,15.433302 40.869132,15.580041 40.704971,15.762778 40.578141,15.908959 40.608508,16.035749 40.513814,16.149244 40.557575,16.941722 40.62014,16.965164 40.674904,16.936612 40.751568,17.017424 40.849172,17.097828 40.830046,17.129735 41.192724,17.294494 40.857188,17.533096 40.62541,17.737361 41.109548,18.469138 41.426644,19.53599 41.305391,19.608706 41.103147,19.817234 41.158644,19.85132 41.056659,20.024767 41.31768,20.141408 40.839461,20.580489 40.851988,20.661745 40.734443,20.776752 40.891563,21.395861 40.965239,22.451474 40.611472,22.380383 40.252048,22.128367 40.299256,22.358211 40.350354,23.526931 40.524228,23.514002 40.355183,23.637345 40.3557,23.649181 40.343719,23.657602 40.357872,23.769178 40.38364,23.968432 40.383639,23.968432 40.196994,23.760726 40.113795,23.8192 39.896943,23.988945 39.900868,24.022496 39.875075,24.04578 39.935304,24.334878 40.072428,24.96622 39.8242,24.763179 39.76198,24.808134 40.005516,25.443226 39.727233,25.530787 40.184256,26.378814 40.169886,26.435552 40.201624,26.440989 40.187708,26.455013 40.17136,26.49255 40.096503,27.553196 40.060286,27.592526 40.313619,27.780353 40.866148,28.578394 40.883088,28.954596 40.821103,29.13052 40.88422,29.183916 40.884448,29.291359 41.160304,29.407618 41.025676,29.527894 40.885743,29.90155 40.886312,30.169626 40.798923,30.336101 40.921432,30.481697 40.855259,30.612846 41.336424,30.864814 41.8488,31.539032 41.848956,31.935092 41.778386,32.128868 41.8322,32.183529 41.81031,32.297742 42.13022,32.557438 41.953799,32.709028 41.604002,33.511052 41.787416,33.749808 41.726819,33.859672 42.185596,34.093684 42.528712,34.514519 42.38702,35.032716 42.163886,35.380412 42.247104,35.518308 42.136854,35.699207 42.167083,35.758739 42.790588,36.907644 42.598895,37.091584 42.713777,37.237503 42.77022,37.27078 42.816472,37.3165 42.322708,38.052055 41.921899,38.435567 41.85782,38.536351 41.798974,38.457649 41.054508,37.839412 40.812028,37.70584 41.188735,37.354738 41.158684,37.277972 41.234603,37.140855 41.009164,36.8789 40.722752,36.239155 40.852047,35.903496 40.99222,35.690611 40.919407,35.636492 40.992808,35.413829 40.612992,35.239052 40.829315,34.902328 41.231954,34.0911 41.096892,33.892096 41.157192,33.654509 40.691032,33.354506 40.096008,32.680485 40.109976,32.642959 40.10702,32.640915 40.114424,32.614168 40.073148,32.597884 40.095219,32.515286 40.346986,31.256258 40.279024,31.21005 40.309008,30.991654 40.3421,30.863353 40.201284,30.743452 40.212321,30.515205 39.808516,30.330316 39.210652,29.88891 39.242072,29.80258 39.275881,29.755641 39.24526,29.732424 39.289095,29.573544 39.055916,29.451514 39.1586,28.795769 39.246863,27.854922 39.003608,27.701572 39.013632,27.524865 38.796232,27.433628 38.37594,27.206622 38.496824,26.958915 38.561101,26.861622 38.484048,26.772692 38.607182,26.592472 37.934616,25.509294 38.155872,24.922349 38.012304,24.853256 38.029083,24.804113 37.974148,24.782812 37.810012,24.718658 38.181983,24.278566 38.227525,24.228192 38.177884,24.06715 38.287712,23.971477 37.86715,22.447901 37.72436,22.36753 37.821168,22.281324 37.820296,22.278163 37.865697,22.236534 37.778348,21.88746 38.164396,21.74924 38.360031,21.715288 38.355567,21.688238 38.471751,21.549263 38.188996,20.545518 38.593892,20.926806 38.876621,21.019135 39.012781,20.812753 38.692404,19.485758 38.692404,19.485757 39.195975,19.976451 39.52385,20.127949 39.442631,19.813379 39.130124,18.660134 39.697592,19.050738 39.814835,19.08374 39.372856,18.020114 39.885062,17.837074 39.458127,17.527932 39.290304,17.48754 39.415224,17.432281 39.698838,17.121334 39.263015,16.497709 39.026791,16.150969 39.023124,16.149659 39.016091,16.139891 38.979748,16.132613 38.999108,16.116304 38.95196,16.050822 38.793516,15.157561 38.690488,15.133102 38.58722,15.117006 38.735852,14.9047 38.658724,14.699897 38.522047,14.275862 38.326876,14.244484 38.147756,14.225215 38.369847,13.839628 38.228147,13.522676 38.159554,13.354651 37.873911,13.314517 37.629852,13.290432 37.804276,12.960569 37.92208,12.737409 37.719997,12.267935 37.359676,12.226313 37.028175,12.189449 37.135455,11.972874 37.388439,11.481995 37.219581,11.130482 36.785188,11.112909 36.358692,11.074773 36.398276,10.971228 36.59869,10.512753 35.848298,10.078234 35.637172,10.078935 35.643352,10.049296 35.681913,9.913199 35.282708,9.430248 35.068152,9.277172 34.881688,9.315619 34.880928,9.267514 34.890421,9.095007 34.662536,8.816927 34.39341,8.617302 33.99072,8.805205 33.956987,8.658238 33.88578,8.242632 33.47892,7.989337 33.212066,8.186425 32.884333,8.410559 32.800166,8.168488 32.614649,7.577393 32.378003,7.462202 31.900483,7.831497 31.609672,8.064871 31.499713,7.767488 31.271986,7.137635 31.170982,7.102918 31.03568,7.182653 30.954601,7.163988 30.571491,7.421182 30.248174,7.675733 30.167028,7.393228 30.028809,6.947056 29.53114,6.828095 29.39569,6.892109 29.295246,6.871613 28.926464,7.117657 28.901257,6.956575 28.863705,6.783554 27.94634,6.596359 27.829213,6.456449 27.784942,6.476572 27.754432,6.492061 27.74734,6.35865 27.72777,6.335272 27.71397,6.254372 27.30856,5.635947 27.026911,5.804016 26.790164,5.955976 26.731834,5.522917 26.67025,5.210088 26.511906,5.504448 26.564872,5.725259 26.360555,5.656802 26.53206,5.93316 26.194034,5.976858 26.036295,5.998852 26.285722,6.519575 25.898372,6.557101 25.738947,6.573109 25.703731,6.646435 25.721345,6.85014 25.75487,7.235016 25.324484,7.127089 25.126395,7.084971 25.104264,7.150583 25.061132,7.161105 25.041268,7.185126 25.015948,7.177361 24.94891,7.403349 24.87424,7.701867 24.474284,7.401189 24.418899,7.360833 24.401988,7.370827 24.357047,7.332866 24.23444,7.362776 24.190352,7.445417 24.130553,7.449224 24.023694,7.652912 23.908404,7.891897 23.579799,7.51567 23.548158,7.522908 23.519187,7.488151 23.23103,7.506499 23.216306,7.529517 23.162693,7.529392 23.038831,7.723729 22.902252,7.943474 22.619084,7.543746 22.572816,7.546528 22.559609,7.528002 22.169161,7.527101 22.041447,7.720094 21.895064,7.941973 21.618802,7.525057 21.231938,7.525939 21.217326,7.546525 21.166152,7.54327 21.034307,7.73095 20.887866,7.943473 20.620985,7.529224 20.573818,7.529514 20.557697,7.504561 20.272029,7.486389 20.241988,7.522888 20.20308,7.513433 20.051547,7.689131 19.881722,7.891893 19.640498,7.447864 19.599762,7.445409 19.550431,7.354831 19.438142,7.327544 19.388158,7.370812 19.377369,7.363923 19.173752,7.515146 18.915886,7.701866 18.752771,7.189647 18.727442,7.16014 18.685854,7.150561 18.667179,7.097292 18.418231,7.155968 18.035254,7.235011 18.07473,6.776625 18.086145,6.645442 18.051598,6.574686 17.993081,6.568937 17.50441,6.519569 17.677196,6.201198 17.772123,6.00561 17.258084,5.933178 17.422413,5.67142 17.225244,5.725258 17.268611,5.499705 17.216527,5.407731 17.183148,5.346253 17.112833,5.358139 17.073848,5.595961 16.99996,5.955982 16.54469,5.691346 16.42461,5.616272 16.176606,5.947943 16.105633,6.104756 16.06233,6.335317 16.048649,6.351029 16.040645,6.452145 16.035669,6.492087 15.956087,6.457342 15.924199,6.493968 15.843762,6.596383 15.116095,6.728427 14.945771,6.767062 14.863649,7.117665 14.704888,7.035099 14.453874,6.87864 14.394415,6.892127 14.237449,6.822429 14.207529,6.829093 13.770253,6.935483 13.66824,7.279815 13.541907,7.675743 13.28369,7.512206 12.81657,7.167517 12.754463,7.182628 12.605386,7.099283 12.520639,7.128402 12.298227,7.735373 12.180435,8.064869 11.930258,7.874153 11.413178,7.465839 11.167018,7.586177 11.005516,8.071208 10.905782,8.410574 10.71076,8.261777 10.35242,8.007489 9.87086,8.316422 9.851588,8.41173 9.799417,8.805194 9.679959,8.729562 9.488602,8.629408 9.083487,9.014986 8.89223,9.160927 8.908461,9.315588 8.865153,9.299008 8.782712,9.276492 8.198924,9.923329 8.117449,9.975256 8.15294,10.078962 8.121689,10.074977 8.014503,10.068736 7.497553,10.533793 7.228549,10.654062 7.431415,11.074783 7.307979,11.078288 6.578037,11.122082 6.40148,11.490366 6.600821,11.886298 6.761952,12.189459 6.484959,12.221681 6.055677,12.270521 5.860281,12.722184 6.039073,13.060489 6.160302,13.290415 5.730949,13.354165 5.601775,13.370149 5.461555,13.682161 5.412036,13.806839 5.551115,14.052929 5.64237,14.225252 5.237689,14.294737 5.150196,14.524998 5.046203,14.869447 5.143673,15.01525 5.202875,15.11701 4.974591,15.175303 4.938018,15.322516 4.838166,16.050822 4.792835,16.103713 4.810382,16.132613 4.800115,16.13954 4.750443,16.158344 4.276724,16.707068 4.071506,17.036978 4.341704,17.28114 4.499822,17.487535 4.308606,17.69583 4.114621,17.797136 4.214033,17.842482 4.417265,18.02013 4.053266,18.799667 4.001482,18.929986 4.390332,18.73912 4.660016,18.660186 4.433051,19.694974 4.391843,19.833947 4.449179,19.875384 4.772166,19.650857 5.097725,19.485764 4.946889,20.426249 4.809659,20.915375 5.205357,20.680295 5.601153,20.545579 5.478652,21.306775 5.368542,21.626137 5.434574,21.688238 5.425318,21.796649 5.477651,21.842927 6.01178,21.88746 5.986841,22.198324 5.95886,22.26846 5.969832,22.278163 5.967462,22.292331 6.065767,22.367524 5.946183,22.419531 5.771398,23.464395 5.60648,23.935948 5.69261,24.396769 5.734069,24.444081 5.980132,24.718646 5.768079,24.800559 5.777918,24.8532 5.732525,24.873855 5.828926,25.078201 5.855566,25.509039 5.470441,26.37241 5.240575,26.673606 5.306066,26.772684 5.224692,26.920819 5.414186,27.20663 5.019814,27.36819 4.964122,27.395164 4.885911,27.537541 4.792375,27.608577 4.786474,27.701618 4.637219,27.779786 4.768131,28.345834 4.734124,29.451794 4.619326,29.604656 4.514842,29.656431 4.544934,29.732456 4.49907,29.784179 4.579517,29.888812 4.425009,29.959863 4.252184,30.062603 3.955111,30.397628 3.59917,30.563734 3.588849,30.743444 3.434701,30.846471 3.485117,31.086125 3.616333,31.501514 3.717058,32.59764 3.680544,32.634646 3.683038,32.64086 3.671544,32.651621 3.694097,32.680608 3.655934,32.706062 3.113492,33.174099 3.082419,33.203192 3.076626,33.205909 2.647209,33.576426 2.693233,33.892112 2.575613,34.020589 2.907301,34.521968 3.177141,35.239016 3.031876,35.385624 2.812801,35.496822 2.870724,35.63644 2.756915,35.736426 3.067384,36.239088 2.501787,36.984097 2.631466,37.278035 2.615947,37.305967 2.818089,37.49682 2.9781,37.705884 2.542977,38.129156 1.958571,38.489181 1.932208,38.536632 1.47567,38.123232 1.298291,37.702888 1.035222,37.374056 0.973647,37.316408 1.106396,37.248146 1.092959,37.2163 1.129538,37.179736 1.051912,37.097687 0.999513,36.907811 1.3517,35.953035 1.590835,35.583369 1.543013,35.518288 1.678084,35.199166 1.656926,35.147539 1.261437,34.514404 1.674618,34.342943 2.079627,33.969418 2.002693,33.749808 2.13626,33.622953 1.810434,33.2502 1.659849,32.557632 1.833131,32.309866 1.966611,32.208293 1.958009,32.183549 2.080835,31.996541 1.941394,31.538758 2.29022,31.359407 2.950024,30.740645 2.868676,30.481704 2.97379,30.388492 2.701449,30.025818 2.629817,29.407639 2.784092,29.247312 2.901236,29.191103 3.040649,28.975994 2.92398,28.578396 3.493591,28.091063 3.900613,27.654212 3.820366,27.36921 3.8599,27.323749 3.65872,27.037458 3.588489,26.44104 3.619444,26.408828 3.605901,26.378714 4.073346,25.623661 3.784612,25.443196 4.009502,24.86804 3.954634,24.82198 3.7177,24.966206 3.914038,24.04324 3.786283,23.957342 3.573322,23.770813 3.498759,23.850554 3.406476,23.968508 3.446047,23.659336 3.434422,23.649154 3.435687,23.639927 3.410891,23.622322 3.265829,23.513926 3.454703,23.501339 3.681508,21.848314 3.270959,21.94132 2.824899,22.451601 3.117093,20.851146 2.938138,20.661746 2.96757,20.549515 2.919105,20.501896 2.472468,20.141432 2.774211,20.034846 2.631506,19.851337 2.658158,19.834707 2.363488,19.535926 2.633367,19.069121 3.192821,17.813423 3.002648,17.672318 2.5974,17.294493 2.953446,17.112875 2.940954,17.097828 3.115222,16.936612 3.224906,16.965439 3.267164,16.139462 3.181621,16.035748 3.210227,15.916326 2.920995,15.580038 3.166741,15.501546 3.322797,15.446367 3.388189,15.17337 3.500508,14.704439 3.472803,14.664142 3.495753,14.604066 3.325795,14.357473 3.491406,14.321237 3.598256,14.296339 3.599779,14.289978 3.616825,14.287147 3.797184,13.815034 3.889943,13.563252 3.881505,13.549221 3.898484,13.510973 3.787927,13.321843 3.90976,13.304593 3.989547,13.292887 3.992202,13.285681 3.998795,13.285001 4.288621,12.632106 4.365182,12.454835 4.298293,12.334906 4.373898,12.327073 4.419434,12.322053 4.848671,11.270311 4.894757,11.214264 4.887101,11.200288 4.907224,11.199104 4.908466,11.197593 4.911633,11.197308 4.9441,11.162156 5.747107,10.337161 5.740924,10.321741 5.777302,10.289465 5.700752,10.120431 5.640782,9.986418 6.086979,9.987984 6.11334,9.960901 6.148229,9.960353 6.654868,9.51083 6.632485,9.413785 6.705121,9.363583 6.62271,9.074861 6.546384,8.79989 7.001667,8.857824 7.265845,8.880675 7.297722,8.822319 7.467653,8.841204 7.583796,8.70405 7.584234,8.554222 7.674068,8.510276 7.657493,8.142415 7.644251,7.752899 7.997438,7.873114 8.229545,7.94148 8.285308,7.875629 8.500609,7.952345 8.799458,7.777971 8.862838,7.425933 8.93463,7.01417 9.254505,7.205624 9.518515,7.358412 9.631902,7.292252 9.788645,7.389615 10.052474,7.31008 10.179853,6.910507 10.292293,6.522664 10.609887,6.776048 10.949914,7.039534 11.105891,6.992512 11.159543,7.035179 11.359308,6.991418 11.524431,6.538579 11.636649,6.155808 11.940308,6.423702 12.287865,6.71014 12.698829,6.572144 12.800145,6.242666 12.87298,5.804449 13.113623,6.001621 13.288963,6.124346 13.982058,5.582681 13.992781,5.31705 14.058843,5.363553 14.116249,5.394624 14.291662,5.157186 15.05753,5.060005 15.080566,4.908324 15.072322,4.728437 15.513978,4.987804 15.540485,4.998722 15.667818,4.982565 15.77216,5.033766 16.004251,5.000406 16.135042,4.519995 16.175786,4.091415 16.35172,4.21517 16.697523,4.402697 17.058178,3.805828 17.363891,3.823418 17.38321,3.796595 17.387109,3.79904 17.47407,3.710493 17.50888,3.634039 17.796021,4.055598 18.127739,4.264011 18.533674,4.20982 18.742982,4.189566 18.67819,4.493229 18.623646,4.788902 18.74263,4.968649 18.996064,5.011005 19.17172,5.067104 18.986243,5.34908 19.014353,5.401165 19.094683,5.533119 19.223318,5.542974 19.354866,5.586953 19.243881,5.789373 19.366656,5.761347 19.42829,5.762934 19.442606,5.784855 19.414802,5.812987 19.397754,5.93876 19.600654,5.845449 19.65449,5.983769 19.74123,6.309947 19.937982,6.097278 20.129334,5.933961 20.258684,6.151818 20.416619,6.440564 20.551869,6.445999 20.793547,6.136126 20.935396,5.968882 21.08567,6.188917 21.279253,6.456905 21.51597,6.459446 21.754498,6.139913 21.895064,5.966219 22.045073,6.174283 22.261848,6.456082 22.504707,6.453465 22.724126,6.141586 22.854729,5.968897 23.014547,6.181057 23.217133,6.432926 23.393479,6.425893 23.567443,6.120592 23.660792,5.933961 23.80857,6.111339 24.070074,6.370263 24.159506,6.098008 24.189498,5.845425 24.295,5.94201 24.347574,5.78481 24.350334,5.784469 24.368544,5.762745 24.414905,5.782179 24.44512,5.748827 24.52421,5.683632 24.43526,5.587002 24.655314,5.584236 24.738755,5.430293 24.797743,5.330139 24.716976,5.208175 24.618392,5.067139 24.867667,5.032357 24.987392,5.008132 24.993255,4.998177 25.022842,4.992424 25.094295,4.879541 25.154465,4.788064 25.080504,4.425913 25.047126,4.189555 25.380359,4.235117 25.655207,4.269084 25.973584,4.068948 26.215301,3.722002 26.281256,3.634028" slic3r:type="contour"/>
    <polygon style="fill: black" points="39.823898,23.364581 39.835334,23.462336 39.854368,23.625029 39.964195,23.643318 40.064907,23.613736 39.940303,23.475071 40.033251,23.48612 39.889091,23.334078" slic3r:type="hole"/>
    <polygon style="fill: black" points="3.685582,23.485955 3.849919,23.475004 3.813716,23.513721 3.98156,23.502956 3.988776,23.462336 4.063683,23.040734 3.987243,23.011011" slic3r:type="hole"/>
    <polygon style="fill: white" points="41.871688,39.01574 41.907808,39.063791 41.848618,39.137809 42.499168,39.580384 42.828168,39.934416 42.526136,40.342575 42.024119,40.787282 42.087164,41.042108 42.042963,41.079734 42.492035,42.737774 42.65608,42.927364 42.624451,42.966916 42.566001,43.016006 42.633716,43.176204 42.55778,43.230264 41.505372,44.264003 41.177832,43.642508 41.10285,43.435158 40.724659,43.082996 40.615436,42.994372 40.949512,42.761242 40.821268,42.475047 40.700316,41.94932 41.026147,41.41818 41.360317,40.958981 41.3358,40.938184 41.459357,40.654967 41.383756,40.584455 40.80118,40.231892 41.084708,39.972323 41.842045,39.1372 41.812252,39.062816 41.850536,39.001132" slic3r:type="contour"/>
    <polygon style="fill: white" points="41.941003,45.869155 42.26712,46.156716 41.852424,46.557891 41.11737,47.052507 41.524172,47.649112 41.972724,48.129075 41.515728,48.339083 40.847435,48.631023 40.42012,48.00984 40.03328,47.430848 40.286956,47.294147 41.114585,47.069546 40.7012,46.614096 40.20784,46.258364 40.623008,45.893651 41.35268,45.27878" slic3r:type="contour"/>
    <polygon style="fill: white" points="41.14328,50.715944 41.342423,50.976672 40.673127,51.149508 40.267586,51.295886 40.304708,51.399264 40.198944,51.435524 40.185223,51.415291 40.161048,51.376048 40.180874,51.343714 39.67048,50.587904 39.4251,50.140596 39.885816,49.969335 40.5923,49.827076" slic3r:type="contour"/>
    <polygon style="fill: white" points="40.490539,53.065723 40.58312,53.21972 39.827723,53.258196 39.820364,53.422052 39.344197,53.514267 39.197315,53.980053 39.515039,54.993579 39.570432,55.129604 38.810836,55.027157 38.73794,55.187556 38.313644,55.192212 38.290583,55.130238 38.026306,55.435301 38.194547,56.592063 38.230044,56.764624 37.549216,56.54862 37.12487,56.475853 37.070103,56.539072 37.014332,56.594284 36.979852,56.5878 36.97922,56.584135 36.978164,56.57546 37.052036,56.486432 36.860052,55.582376 36.797672,55.165872 37.358104,55.2819 37.934214,55.423271 38.260567,55.029965 38.321901,54.930305 38.020124,54.175256 37.901056,53.777848 38.493944,53.778748 39.003636,53.82256 39.290347,53.356688 39.26538,53.303664 39.311163,53.21653 38.922748,52.53164 38.751816,52.137792 39.317292,52.027196 39.974416,51.985212" slic3r:type="contour"/>
    <polygon style="fill: white" points="35.873176,56.591136 36.519075,56.848624 36.516556,57.947367 36.525475,58.158792 35.886224,57.860167 35.383572,57.678744 35.351948,56.801516 35.348308,56.387936" slic3r:type="contour"/>
    <polygon style="fill: white" points="34.111711,57.714411 34.723288,58.040348 34.59762,59.076703 34.576832,59.324224 33.982592,58.968564 33.4904,58.713492 33.572795,57.862188 33.618432,57.452784" slic3r:type="contour"/>
    <polygon style="fill: white" points="32.164134,58.650876 32.745226,59.033383 32.531725,60.00264 32.479432,60.285752 31.932523,59.892043 31.45059,59.57692 31.613021,58.765772 31.702972,58.351916" slic3r:type="contour"/>
    <polygon style="fill: white" points="30.124638,59.401772 30.685142,59.839952 30.411501,60.738348 30.32571,61.060988 29.829912,60.646668 29.351166,60.276064 29.565618,59.517011 29.701184,59.08496" slic3r:type="contour"/>
    <polygon style="fill: white" points="28.087712,59.970204 28.643162,60.477799 28.328822,61.295183 28.199211,61.664884 27.76501,61.244672 27.281288,60.812436 27.529221,60.119116 27.719292,59.653308" slic3r:type="contour"/>
    <polygon style="fill: white" points="26.06888,60.363588 26.618101,60.949675 26.271213,61.686744 26.087536,62.097276 25.713665,61.676632 25.23408,61.176584 25.513762,60.550091 25.762992,60.05514" slic3r:type="contour"/>
    <polygon style="fill: white" points="24.073007,60.592771 24.605197,61.25482 24.229229,61.922664 23.987518,62.35588 23.665008,61.933228 23.206378,61.369184 23.520355,60.800264 23.824686,60.293044" slic3r:type="contour"/>
    <polygon style="fill: white" points="1.957565,39.023575 1.977941,39.062696 1.941597,39.130939 2.554173,39.692656 2.988943,40.231868 2.81687,40.417964 2.35388,40.72974 2.454259,40.938136 2.406614,40.980201 3.089829,41.94936 2.798188,42.715181 2.823903,42.745654 3.069992,42.917687 3.174714,42.99436 2.623366,43.528435 2.592662,43.554258 2.284782,44.26404 1.783837,43.900936 1.156412,43.176216 1.18509,43.100156 1.226647,43.004939 1.134045,42.927364 1.173816,42.895923 1.27373,42.791102 1.490631,41.853499 1.728759,41.062769 1.702868,41.042064 1.765375,40.727603 1.448749,40.361108 0.961959,39.9344 1.366083,39.682903 1.933155,39.146857 1.882452,39.063667 1.939692,39.001048" slic3r:type="contour"/>
    <polygon style="fill: white" points="3.107412,45.869563 3.582298,46.258352 3.376268,46.510508 2.67152,47.070177 3.152801,47.302644 3.756849,47.430808 3.523036,47.770848 2.942705,48.631023 2.281212,48.328839 1.817401,48.12908 2.067138,47.716431 2.67566,47.052863 2.054581,46.512584 1.523016,46.156732 1.965282,45.709704 2.437471,45.278764" slic3r:type="contour"/>
    <polygon style="fill: white" points="3.937512,50.076908 4.365028,50.140588 4.017634,50.651679 3.610875,51.342913 3.629077,51.376048 3.591183,51.435524 3.566746,51.427967 3.48542,51.399264 3.523024,51.303729 2.70092,51.073208 2.447705,50.976672 2.79679,50.35988 3.197775,49.827084" slic3r:type="contour"/>
    <polygon style="fill: white" points="4.670115,52.132208 5.038289,52.137728 4.707019,52.712807 4.476832,53.195674 4.524766,53.30376 4.500427,53.352678 4.800452,53.832967 5.519797,53.822151 5.889044,53.777828 5.644146,54.377932 5.466637,54.912171 5.525428,55.022407 5.859645,55.42552 6.604174,55.266988 6.99244,55.165868 6.862604,55.759951 6.739063,56.486222 6.800659,56.560515 6.812021,56.575436 6.81034,56.587736 6.806348,56.588836 6.775957,56.594204 6.677764,56.480185 5.728658,56.737707 5.56008,56.76464 5.657704,55.965811 5.76695,55.422567 5.501613,55.114463 5.476482,55.192224 5.416541,55.196644 5.052221,55.187579 5.013533,55.077519 4.354519,55.134924 4.219719,55.129648 4.442467,54.3244 4.605541,53.916857 4.464203,53.514779 4.340209,53.499812 3.96991,53.422123 3.9731,53.310167 3.358791,53.253652 3.207035,53.21978 3.528939,52.469916 3.815743,51.985268" slic3r:type="contour"/>
    <polygon style="fill: white" points="8.418866,56.978644 8.406584,57.6788 7.465195,58.088036 7.264673,58.158792 7.250628,57.383419 7.271096,56.848676 8.058918,56.542284 8.441836,56.387948" slic3r:type="contour"/>
    <polygon style="fill: white" points="10.226213,58.025856 10.29972,58.713448 9.43878,59.208803 9.213295,59.324224 9.114438,58.583828 9.066797,58.04038 9.803306,57.649487 10.171712,57.4528" slic3r:type="contour"/>
    <polygon style="fill: white" points="12.194799,58.895336 12.339503,59.576896 11.557811,60.125539 11.310725,60.285752 11.149231,59.586967 11.044867,59.033403 11.731549,58.587224 12.087141,58.351912" slic3r:type="contour"/>
    <polygon style="fill: white" points="14.228244,59.585216 14.43891,60.276076 13.735155,60.852863 13.464439,61.060992 13.259226,60.410892 13.104966,59.83996 13.740131,59.36174 14.088942,59.084964" slic3r:type="contour"/>
    <polygon style="fill: white" points="16.225503,60.094111 16.508839,60.812476 15.890211,61.399279 15.590914,61.664884 15.359013,61.076196 15.146993,60.47776 15.716538,59.983676 16.070823,59.653308" slic3r:type="contour"/>
    <polygon style="fill: white" points="18.194172,60.435728 18.556062,61.176552 18.02031,61.768087 17.70256,62.097276 17.451713,61.571363 17.17207,60.949743 17.667379,60.446296 18.027166,60.055144" slic3r:type="contour"/>
    <polygon style="fill: white" points="20.146088,60.624196 20.583732,61.369288 20.119779,61.967876 19.802608,62.355896 19.536203,61.883863 19.184942,61.254824 19.607517,60.742564 19.965442,60.293044" slic3r:type="contour"/>
    <polygon style="fill: white" points="22.098942,60.672868 22.597272,61.393924 22.187672,62.013359 21.895064,62.441344 21.609636,62.005532 21.192838,61.393935 21.551334,60.864883 21.895064,60.370952" slic3r:type="contour"/>
  </g></svg>