<svg width="43.790126" height="63.590156" xmlns="http://www.w3.org/2000/svg" xmlns:svg="http://www.w3.org/2000/svg" xmlns:xlink="http://www.w3.org/1999/xlink" xmlns:slic3r="http://slic3r.org/namespaces/slic3r"><g xmlns="http://www.w3.org/2000/svg" slic3r:z="1.7495e-005" id="layer52">
    <polygon style="fill: white" points="22.016645,1.587622 22.291737,1.987414 22.305189,1.986623 22.345272,2.042976 22.463015,2.04992 22.535972,1.973104 22.552058,1.977402 22.64576,1.873689 23.000146,1.485904 23.098914,1.67605 23.358234,2.180578 23.498993,2.213466 23.594473,2.137717 23.598489,2.139853 23.710776,2.044768 24.115002,1.71995 24.195113,1.937771 24.410155,2.54175 24.487824,2.577653 24.822446,2.359904 25.235928,2.121559 25.301802,2.399975 25.432167,3.002544 25.463679,3.009734 25.486066,3.101042 26.01784,2.834988 26.366074,2.693473 26.418673,3.09503 26.450256,3.42027 26.871055,3.565193 27.01558,3.60313 27.102996,3.576626 27.116331,3.581692 27.372594,3.489471 27.532248,3.446775 27.544501,3.744362 27.690736,3.79992 28.083286,3.897542 28.255133,4.2916 28.352894,4.446565 28.705626,4.383593 28.705984,4.592545 28.663006,5.049598 28.650906,5.253721 28.708387,5.377324 29.198818,5.52827 29.515085,5.528638 29.867592,5.474303 29.909298,5.472483 29.903093,5.539436 29.960042,5.531391 30.10149,6.334736 30.296421,6.802432 30.950896,6.708037 31.275356,6.702845 31.205576,7.166772 31.339907,7.073299 31.497012,6.973595 31.58554,7.771633 31.758345,8.403892 31.84833,8.414913 31.856989,8.459942 32.217234,8.515017 32.295657,8.448622 32.822296,8.025688 32.908647,8.439276 32.952607,8.666089 33.808996,8.810325 33.469941,9.192462 33.164407,9.576738 33.262688,10.0056 33.375643,10.020538 33.925888,9.365166 34.124492,9.147273 34.315144,9.883374 34.381499,10.174101 35.104927,10.255823 34.8043,10.566356 34.577293,10.817216 34.75023,11.444058 35.599408,11.524513 35.824752,11.21919 35.916588,11.488613 35.938502,11.56185 36.072843,11.571621 36.020759,11.63026 35.98543,11.673277 36.316008,12.456724 36.419127,12.744138 36.874384,12.756554 36.706444,12.953663 36.614266,13.077576 36.773416,13.348037 36.926473,13.666676 36.933152,13.666853 36.96991,13.722986 37.572052,13.7222 37.359356,13.977366 37.249428,14.149833 37.302452,14.230806 37.495887,14.590373 37.527056,14.591743 37.555758,14.641916 38.224568,14.661365 37.98672,14.938225 37.851322,15.15576 38.070187,15.608636 38.116184,15.613809 38.123576,15.632642 38.264715,15.651867 38.845424,15.719778 38.572876,16.017804 38.37981,16.291848 38.561865,16.827062 39.168387,16.974519 39.428252,17.03691 39.079735,17.38357 38.843271,17.654357 38.843959,17.65638 38.825657,17.674528 38.779056,17.727893 38.806858,17.88797 39.296172,17.784012 39.671319,17.795422 39.76538,18.527862 39.787307,18.695116 39.790516,18.696225 39.79072,18.701949 39.968732,18.77604 39.877507,18.848944 39.798359,18.916751 39.832051,19.864119 39.856901,20.524538 39.87042,20.530392 39.869528,20.577205 40.061835,20.679171 40.537688,20.927088 40.155612,21.175886 39.868364,21.399376 39.91622,21.421566 39.807738,21.506343 40.475007,21.553718 40.738376,21.71592 40.714487,22.697854 40.66445,23.167941 40.701756,23.192224 40.697866,23.270648 41.13872,23.584476 40.840055,23.742568 40.667724,23.878359 40.65366,24.161924 40.559178,24.656888 41.063959,24.813422 41.4863,25.386364 41.44594,26.013056 41.37352,26.308534 41.411444,26.341124 41.405241,26.409866 41.64978,26.603644 41.457372,26.729597 41.369413,26.80695 41.303108,27.541791 41.066124,28.319902 41.42616,28.693438 41.607375,29.210279 41.788571,29.371863 41.968512,29.50908 41.759444,29.643993 41.796692,29.750228 41.7003,29.833443 41.874455,30.084387 42.058484,30.717566 41.975104,31.641198 41.897724,31.904064 41.939988,31.9421 41.937588,31.97638 42.125732,32.09423 42.00528,32.183665 41.918071,32.255156 41.83842,33.392846 41.682976,34.028088 41.778384,34.115528 41.775896,34.175364 42.201312,34.442568 41.982396,34.590839 41.751209,34.769218 41.730724,35.261976 41.556797,36.174531 41.688228,36.299324 41.687456,36.364111 42.214744,36.704192 41.977231,36.853296 41.679057,37.068524 41.675084,37.401855 41.532907,38.447557 41.675472,38.590916 41.675588,38.64276 42.152288,38.966768 41.947403,39.087124 41.677002,39.268538 41.678871,40.096724 41.592734,40.957298 41.697448,41.071503 41.697326,41.101092 41.990132,41.314312 41.864903,41.381584 41.695734,41.485636 41.686432,43.732436 41.680985,43.79489 41.701896,43.812056 41.685881,43.819713 41.66982,43.998163 40.97698,45.864003 41.182008,46.155932 41.265664,46.247304 40.81162,46.309323 40.716932,46.56432 40.503802,46.661752 40.451055,47.564824 40.325393,48.096529 40.59276,48.557628 40.671428,48.661888 40.186442,48.684456 40.141615,48.874128 39.73225,49.016447 39.859116,49.70932 39.69248,50.543653 39.857832,50.905496 39.89204,50.963528 39.611848,50.947375 39.594012,51.03668 39.297188,51.094998 39.3403,51.488491 38.864012,52.973796 38.883667,53.033039 38.886812,53.040428 38.845244,53.032323 38.84168,53.04344 38.799135,53.044653 38.798176,53.0987 38.69606,53.312875 37.643995,54.71114 37.583684,54.782675 37.586556,54.796967 37.581881,54.801217 37.597988,54.869764 37.574452,54.862276 37.523463,54.85432 36.153619,56.09954 35.977327,56.246873 35.979012,56.269711 35.971488,56.274695 35.984784,56.44244 35.931251,56.418147 35.814823,56.378484 34.487732,57.257656 34.162305,57.459169 34.161288,57.484303 34.15167,57.489135 34.13902,57.7556 34.059396,57.709228 33.893079,57.625883 33.886088,57.630212 33.879036,57.626097 32.686519,58.225176 32.211911,58.450142 32.208179,58.475644 32.193745,58.481323 32.140846,58.82442 32.044758,58.75616 31.84245,58.625268 31.829488,58.631412 31.823376,58.627019 30.769893,59.04144 30.192824,59.256083 30.18647,59.281828 30.16353,59.2891 30.071626,59.662968 29.973668,59.580392 29.76385,59.415642 29.750568,59.420583 29.750076,59.420157 28.737958,59.740983 28.158527,59.914438 28.14885,59.942596 28.125042,59.948188 28.011276,60.283212 27.929509,60.201651 27.751074,60.03641 27.743623,60.03864 27.742939,60.037929 26.598678,60.306671 26.10412,60.415882 26.093908,60.439164 26.075832,60.441801 25.960544,60.704132 25.900686,60.63394 25.768849,60.489918 25.764671,60.49084 25.762033,60.487588 24.42462,60.682732 24.044659,60.734598 24.036332,60.750327 24.026253,60.750836 23.9218,60.942187 23.880646,60.885884 23.790253,60.769327 23.786702,60.769812 23.78208,60.763166 22.315597,60.837216 22.005869,60.851846 21.999632,60.862011 21.996129,60.861834 21.895064,61.015384 21.863477,60.965491 21.79537,60.861788 21.790481,60.862019 21.783853,60.851087 20.346184,60.778304 20.008711,60.762386 20.003412,60.769856 20.002548,60.769729 19.868328,60.942212 19.834046,60.880008 19.763486,60.75082 19.753824,60.750364 19.743942,60.731735 18.459444,60.543016 18.031287,60.484734 17.82955,60.704116 17.789395,60.617735 17.711559,60.441213 17.696186,60.43912 17.683196,60.40995 16.588552,60.151335 16.051978,60.0331 16.046521,60.038631 16.044837,60.038096 15.77885,60.283224 15.736454,60.170599 15.659921,59.946709 15.641234,59.942591 15.628178,59.905699 14.666842,59.600223 14.046744,59.41452 14.039558,59.420584 14.032335,59.41775 13.718501,59.662968 13.681435,59.533964 13.620068,59.286743 13.603656,59.281828 13.594362,59.245884 12.603846,58.8572 11.974144,58.622074 11.960654,58.631428 11.954392,58.628299 11.649257,58.824432 11.625818,58.70228 11.590973,58.479 11.581931,58.475624 11.576213,58.439335 10.421813,57.862519 9.918239,57.622342 9.903998,57.630183 9.90396,57.630158 9.651106,57.755596 9.642315,57.657256 9.633916,57.486735 9.628818,57.484303 9.62684,57.447958 8.286882,56.566967 7.989291,56.381083 7.805322,56.442436 7.806797,56.377888 7.814988,56.272207 7.81112,56.269791 7.81288,56.236723 6.381426,54.947408 6.275375,54.85772 6.192104,54.86976 6.196258,54.841956 6.206213,54.799229 6.203539,54.796968 6.207049,54.776092 5.093609,53.31226 5.033954,53.047447 4.948322,53.043448 4.948226,53.042514 4.903307,53.040447 4.935975,52.924344 4.753089,51.160211 4.196116,51.036679 4.195659,50.979746 3.95117,50.974687 3.898084,50.963532 4.189562,50.220373 4.180357,49.073875 3.64851,48.874144 3.635168,48.751299 3.221416,48.697944 3.118702,48.66192 3.516659,47.873796 3.536916,47.84666 3.415601,46.729684 3.073261,46.564348 3.018,46.380016 2.623387,46.293084 2.524493,46.247332 2.830814,45.755614 2.6898,45.285236 2.120309,43.998167 2.112986,43.860391 2.106367,43.822254 2.088232,43.812056 2.09349,43.806995 2.113725,43.790028 2.203404,42.210155 2.136908,41.52633 1.799994,41.31428 1.909603,41.216855 2.076326,41.091633 2.294392,40.822912 2.304544,40.583303 2.186532,39.345015 1.637831,38.966792 1.822684,38.811795 2.116057,38.605547 2.114664,38.590916 2.332166,38.342739 2.198573,37.157098 2.055784,37.063204 1.57538,36.704144 1.79256,36.529795 2.104431,36.321585 2.101913,36.299235 2.298843,36.086046 2.120648,34.863118 2.048981,34.812511 1.588808,34.442564 1.785586,34.289968 2.01541,34.140879 2.011716,34.115527 2.201362,33.917363 1.915339,32.308663 1.664418,32.09418 1.765745,32.01855 1.853728,31.962142 1.850156,31.942052 1.939124,31.850408 1.731662,30.717434 2.173001,29.909023 1.993405,29.750216 2.029873,29.686232 1.915151,29.60374 1.821608,29.509094 2.314875,29.006301 2.495519,28.869254 2.77888,28.372096 2.499937,26.956418 2.140365,26.603652 2.299197,26.449489 2.386627,26.381349 2.378702,26.341129 2.452758,26.26866 2.303845,25.386375 2.653741,25.3363 3.287856,24.762723 3.191084,24.000826 2.975267,23.862434 2.651396,23.584502 2.939643,23.34392 3.09406,23.236943 3.08838,23.19222 3.150182,23.148816 3.051748,21.71596 3.635095,21.751756 3.958226,21.614041 3.953696,21.486435 3.873909,21.42163 3.906059,21.410445 3.447319,21.081979 3.252464,20.927064 3.671297,20.696488 3.92107,20.567338 3.919761,20.530466 3.932266,20.525028 3.96302,19.682498 3.991236,18.922353 3.821417,18.77604 3.929507,18.731814 3.999389,18.702686 3.999629,18.696233 4.002456,18.69527 4.118822,17.79544 4.566783,17.925528 4.980839,17.945372 5.015318,17.750627 4.49667,17.191732 4.361872,17.03694 4.855745,16.914244 5.256018,16.818337 5.416164,16.356761 5.208673,16.094692 4.944701,15.719768 5.380792,15.646821 5.674715,15.613653 5.767702,15.596834 5.939437,15.248378 5.879998,15.166234 5.565553,14.661367 5.977878,14.613394 6.255161,14.607764 6.263063,14.591733 6.353858,14.579528 6.54443,14.233815 6.218077,13.722185 6.595558,13.686034 6.84452,13.689427 6.856964,13.666853 6.915515,13.660026 6.962933,13.576285 7.188003,13.122174 6.915763,12.756565 7.201774,12.727385 7.385038,12.724626 7.392885,12.708793 7.402953,12.707542 7.72566,11.902268 7.807593,11.68155 7.717249,11.571626 7.802043,11.562283 7.853094,11.558969 7.854046,11.556405 7.856603,11.556061 7.965426,11.219101 8.063938,11.390132 8.157084,11.515591 8.557025,11.461723 9.055693,11.428108 9.223306,10.843472 9.018515,10.624225 8.685246,10.255809 9.168424,10.182935 9.419932,10.157641 9.421608,10.151797 9.423431,10.151494 9.66563,9.147279 10.022756,9.606896 10.396252,10.016669 10.530969,10.001389 10.627301,9.591455 10.131058,9.000864 9.981128,8.810325 10.580923,8.679028 10.846086,8.641028 10.967831,8.025688 11.242182,8.264964 11.546388,8.51051 11.93303,8.456247 11.941793,8.414938 11.974473,8.412977 12.070187,7.935186 12.293114,6.973595 12.637532,7.220581 12.560501,6.835139 12.514767,6.702851 12.882652,6.839076 13.382484,6.844548 13.42096,6.728857 13.830079,5.531441 13.895028,5.521372 13.880865,5.472482 14.000002,5.5051 14.037556,5.499279 14.04012,5.499745 15.056828,5.300442 15.134716,5.106039 15.121113,4.947734 15.156267,4.884703 15.154699,4.831178 15.08453,4.383562 15.218157,4.431183 15.389087,4.467274 15.706871,3.897511 16.261256,3.716028 16.264352,3.582077 16.257903,3.446753 16.625078,3.596927 16.687151,3.576607 16.720577,3.587984 17.355763,3.380192 17.399179,3.01858 17.424038,2.693488 17.719699,2.853393 18.303457,3.112264 18.326442,3.009734 18.362775,3.000468 18.4676,2.545637 18.554168,2.121556 18.763855,2.263226 19.185667,2.519197 19.187048,2.518138 19.271155,2.569722 19.393482,2.512556 19.51358,2.183181 19.675124,1.719947 19.838987,1.860523 20.183224,2.143501 20.195644,2.137697 20.276183,2.202124 20.442551,2.163168 20.555923,1.944286 20.789976,1.485911 20.92907,1.64021 21.235687,1.977453 21.254147,1.973131 21.321829,2.044478 21.449157,2.036987 21.484938,1.986624 21.500387,1.98772 21.602009,1.841091 21.895064,1.412623" slic3r:type="contour"/>
    <polygon style="fill: black" points="21.158052,3.278826 21.045636,3.51047 20.76239,3.182138 20.482123,2.869524 20.279395,3.416089 20.191868,3.682168 19.88096,3.397962 19.555277,3.123038 19.49783,3.145695 19.373777,3.700425 19.317416,3.985789 18.959083,3.738346 18.725761,3.588942 18.457399,3.774595 18.420178,4.207733 18.398985,4.443042 17.980243,4.236176 17.738733,4.500635 17.420156,4.875163 17.420022,4.879172 17.406734,4.899456 17.410878,5.011921 17.411938,5.074711 17.313659,5.041525 17.270194,5.107871 17.174908,5.267659 16.600233,5.477542 16.365022,5.572532 16.388279,5.886062 16.194388,5.837082 15.898498,5.760935 15.858862,5.776942 15.80079,5.764821 15.371819,5.947256 15.239723,6.185575 15.249836,6.286116 15.21121,6.374308 15.268711,6.625349 15.322641,6.869342 15.012858,6.827183 14.90455,7.074469 14.580839,7.692657 14.353707,7.771307 14.12896,7.802406 14.218848,8.036583 14.074829,8.013401 13.293238,7.942359 13.173323,8.680578 12.920851,9.401383 12.943949,9.439413 12.99078,9.506679 12.879473,9.518843 12.864374,9.59422 12.829956,9.728414 12.570611,9.558353 11.786841,9.663803 11.646514,10.287594 11.513237,10.818171 11.586871,10.905598 11.690162,11.017021 11.45557,11.047741 11.455145,11.049432 11.447266,11.050448 11.413369,11.177659 11.322478,11.49342 10.990844,11.109264 10.357945,11.190825 10.354249,11.205842 10.313872,11.210687 10.122294,11.883197 10.113874,11.91128 10.319971,12.15756 10.587333,12.422815 9.939894,12.491498 9.935761,12.505282 9.900383,12.508877 9.775935,12.848596 9.492946,13.55801 9.5445,13.633862 9.619652,13.710814 9.427231,13.722744 9.423356,13.732459 9.40222,13.733953 9.352326,13.83001 8.967575,14.49826 8.771646,14.068658 8.68232,13.784829 8.2296,13.816823 8.212144,13.860898 8.086424,13.870408 8.362472,14.311974 8.749988,14.765625 8.600264,14.766857 7.642676,14.789987 7.605463,14.860653 7.525808,14.86419 7.47217,14.963977 7.669426,15.27633 7.984162,15.692409 7.586493,15.691698 7.063757,15.700423 7.019887,15.775606 6.990854,15.777148 6.871214,16.027607 7.038427,16.255623 7.3125,16.624896 6.765286,16.656513 6.563103,16.670799 6.36907,17.248675 6.355421,17.29104 6.49897,17.447707 6.724932,17.715044 6.217639,17.805149 6.136666,18.273065 6.030278,19.0277 6.101996,19.094072 6.203154,19.195346 6.00847,19.254235 5.99729,19.435072 5.977968,19.97077 5.49673,19.888176 5.184686,19.889921 5.177284,20.395128 5.171969,20.622109 5.373374,20.794794 5.666681,21.047728 5.151151,21.251804 5.180757,21.668882 5.219219,22.603074 4.963253,22.589946 4.382432,22.604713 4.394244,22.709484 4.504857,22.80642 4.366774,22.817355 4.663912,23.074175 5.033074,23.324148 4.520799,23.616488 4.452868,23.657735 4.455508,23.707088 4.400182,23.748114 4.492589,24.216076 4.589282,25.039154 4.262425,25.169806 3.663172,25.281396 3.72185,25.528754 3.80664,25.611928 3.748941,25.642959 3.763252,25.703285 3.774211,25.793979 4.030866,26.047339 4.35531,26.23473 3.869376,26.581551 3.883514,26.698556 3.812231,26.765312 3.932947,27.174944 4.055984,27.923078 3.734975,28.268893 3.203515,28.548494 3.404807,28.753168 3.317803,28.875267 3.540121,29.100992 3.900362,29.296191 3.509156,29.57079 3.293685,29.770708 3.315122,29.935648 3.220046,30.023047 3.388986,30.747521 3.506158,31.855604 3.608231,31.949599 3.686531,31.993244 3.532283,32.102668 3.537982,32.156562 3.514792,32.17629 3.553063,32.398879 3.627276,33.421708 3.502547,34.067887 3.405947,34.232237 3.452969,34.271124 3.451865,34.289389 3.59788,34.370884 3.543923,34.40802 3.439455,34.494654 3.352985,35.924984 3.192265,36.33499 3.295568,36.411288 3.297882,36.437207 3.588712,36.587968 3.502745,36.650076 3.329962,36.796335 3.465517,38.313835 3.40482,38.648002 3.480828,38.697919 3.483371,38.708605 3.654059,38.789276 3.612719,38.821191 3.528117,38.896664 3.718061,39.69496 3.687522,40.947564 3.764065,40.991936 3.816958,41.005388 3.683343,41.118994 3.681469,41.195852 3.666098,41.210593 3.675945,41.848764 3.650556,43.079675 3.908816,43.208068 4.095206,43.242596 3.638499,43.664255 3.632139,43.972587 3.623483,43.981685 3.758401,45.263418 4.203653,45.447572 4.507653,45.484296 4.052324,45.951804 3.84169,46.272227 3.861839,46.598088 3.855684,46.605928 4.120188,47.488977 4.704776,47.667984 5.055371,47.680084 4.658341,48.180856 4.423815,48.601751 4.470161,48.82062 4.423378,48.901973 4.783318,49.660535 5.389023,49.757336 5.755053,49.733352 5.40554,50.309659 5.230477,50.698035 5.292445,50.879263 5.260457,50.94817 5.679897,51.633624 6.256857,51.628512 6.632524,51.565988 6.349007,52.193472 6.217776,52.575728 6.291719,52.727972 6.28421,52.75012 6.814742,53.385658 7.366159,53.278492 7.73056,53.177052 7.532654,53.867788 7.458775,54.205829 8.282049,54.89697 8.794458,54.708136 9.112466,54.578224 9.018345,55.349552 9.004449,55.512702 10.031543,56.149843 10.473251,55.919515 10.73143,55.780148 10.742159,56.586236 11.81208,57.094032 11.945244,57.15821 12.313925,56.913708 12.517918,56.774984 12.60685,57.465714 13.591051,57.832808 13.908794,57.953743 14.225065,57.700172 14.393063,57.559268 14.537675,58.187781 15.510514,58.480996 15.815498,58.576381 16.113437,58.291283 16.271149,58.131908 16.478711,58.774406 17.54552,59.012828 17.685899,59.045961 17.986956,58.703327 18.145772,58.513712 18.435928,59.205852 19.552297,59.360939 19.85813,58.947891 20.018814,58.725968 20.380782,59.422796 20.399782,59.457615 21.442286,59.508032 21.73869,59.033751 21.895064,58.78962 22.30262,59.442916 22.345707,59.510764 23.378601,59.460892 23.634804,58.970275 23.771304,58.725968 24.247275,59.367817 25.337299,59.216822 25.536428,58.745392 25.644376,58.51372 26.11935,59.052512 27.095807,58.834704 27.297017,58.786953 27.439388,58.349807 27.518975,58.131895 27.988958,58.5798 28.91966,58.299299 29.243114,58.198017 29.340667,57.77688 29.397062,57.559272 29.891735,57.954499 30.902044,57.577283 31.175738,57.47328 31.234234,57.023044 31.272228,56.774972 31.852611,57.159109 33.037142,56.596206 33.044628,56.081131 33.058684,55.780128 33.715323,56.121503 33.772483,56.151982 34.771623,55.530228 34.70084,54.94172 34.67768,54.578211 35.306071,54.807623 35.533114,54.897117 36.316468,54.234265 36.135091,53.594719 36.059572,53.177063 36.660027,53.289015 37.013959,53.376856 37.511116,52.771075 37.49842,52.72796 37.56005,52.623753 37.28464,52.007995 37.157592,51.565996 37.739811,51.561432 38.160908,51.60779 38.535983,50.973595 38.49768,50.879264 38.551638,50.758512 38.202183,50.174043 38.035076,49.733352 38.600404,49.627088 39.059845,49.621207 39.37207,48.922483 39.319968,48.820631 39.365045,48.664592 38.932676,48.102496 38.734752,47.6801 39.283291,47.490184 39.719992,47.435911 39.952249,46.631928 39.928304,46.598084 39.956163,46.353916 39.482744,45.843356 39.282468,45.484292 39.85874,45.219212 40.091299,45.169528 40.219981,44.041695 40.158,43.972584 40.163629,43.77823 39.833048,43.45624 39.694916,43.24256 40.186955,42.972992 40.204788,42.357352 40.140746,41.228393 40.1087,41.195868 40.110119,41.147773 40.015544,41.063164 39.973192,41.005344 40.117029,40.913506 40.123036,40.709851 40.072119,39.69444 40.275044,39.349443 40.296463,38.940989 40.136084,38.789236 40.179856,38.761019 40.331332,38.68186 40.568861,38.509229 40.648112,38.078496 40.539123,36.894678 40.201423,36.587984 40.284667,36.527992 40.510842,36.397934 40.795392,36.163717 40.409286,34.568806 40.192232,34.370908 40.239531,34.331428 40.342458,34.266191 40.456093,34.160141 40.162812,33.421128 40.291044,32.195433 40.25208,32.156548 40.256944,32.129798 40.167047,32.063831 40.103584,31.993292 40.32529,31.753892 40.621851,30.122809 40.475004,29.935632 40.48949,29.866583 40.171128,29.635356 39.889764,29.29616 40.077192,29.052681 40.429237,28.800256 40.385336,28.753186 40.623971,28.467257 40.321248,28.21135 39.734144,27.923036 40.005505,26.830187 39.906612,26.698506 39.913503,26.660785 39.708896,26.51921 39.434804,26.234668 39.640028,25.986411 40.082492,25.65803 39.98348,25.611926 40.134983,25.44839 40.170866,25.251954 39.804855,25.130501 39.200844,25.03917 39.412683,23.779609 39.334619,23.707055 39.335528,23.696916 39.119476,23.57648 38.75706,23.324104 38.91566,23.177595 39.387544,22.81554 39.285255,22.806452 39.49187,22.623744 39.271415,22.63065 38.570936,22.60311 38.648084,21.262645 38.458435,21.187849 38.123424,21.047698 38.376279,20.83112 38.622018,20.619919 38.610436,19.941747 38.240556,19.98619 37.812135,19.970704 37.778223,19.25484 37.7159,19.236032 37.586988,19.19537 37.755639,19.040466 37.680408,18.592608 37.56143,17.809759 37.398772,17.781068 37.065208,17.715058 37.435424,17.313208 37.224902,16.68373 36.947275,16.668554 36.477652,16.624913 36.683496,16.344067 36.923232,16.018949 36.807899,15.778421 36.770188,15.775568 36.73948,15.71887 36.374864,15.722041 35.80596,15.692434 35.930116,15.495172 36.314919,14.934977 36.278279,14.867326 36.18466,14.86065 36.157633,14.805835 35.714555,14.8063 35.040172,14.765625 35.081072,14.700255 35.6811,13.870266 35.578,13.860871 35.563506,13.822324 35.007307,13.789822 34.968096,13.786312 34.869528,13.985114 34.822576,14.49826 34.394821,13.734976 34.366772,13.732464 34.363909,13.724788 34.291188,13.720649 34.17048,13.710819 34.292329,13.532906 34.178755,13.228455 33.901258,12.510453 33.854347,12.505325 33.850515,12.492051 33.613007,12.466967 33.202802,12.422816 33.625811,11.920265 33.671104,11.870556 33.480812,11.211369 33.435823,11.205858 33.43164,11.188312 32.967916,11.127038 32.775199,11.103415 32.607194,11.298188 32.46759,11.493357 32.345208,11.05071 32.334965,11.049455 32.334167,11.046041 32.260881,11.036101 32.099964,11.017045 32.277992,10.805568 32.009148,9.654735 31.954686,9.64666 31.954595,9.646236 31.621126,9.597761 31.214142,9.551371 31.045015,9.664701 30.960172,9.728414 30.914457,9.520521 30.799344,9.506676 30.875469,9.379003 30.526211,7.972647 30.275027,8.012337 29.571276,8.036583 29.599313,7.929262 29.656238,7.763936 29.209336,7.692714 28.79792,6.827724 28.68632,6.842648 28.467498,6.86936 28.575873,6.403709 28.582399,6.374594 28.540304,6.286091 28.550866,6.186477 28.416714,5.94449 27.994572,5.763694 27.931286,5.776911 27.88731,5.759894 27.401844,5.886034 27.421192,5.717767 27.432366,5.583852 26.615222,5.267656 26.472815,5.041946 26.430717,5.056319 26.378217,5.074735 26.386652,4.901855 26.010864,4.483817 25.799975,4.244977 25.58934,4.348032 25.391148,4.443043 25.350603,3.957221 25.333023,3.759338 25.082897,3.588272 24.714338,3.834205 24.47271,3.985786 24.368518,3.550379 24.27548,3.097759 23.816934,3.501101 23.598278,3.682164 23.433548,3.267376 23.301775,2.882262 22.920866,3.315489 22.744512,3.510459 22.527432,3.11409 22.359624,2.776553 22.032248,3.253229 21.895064,3.457905 21.636403,3.087167 21.423281,2.77165" slic3r:type="hole"/>
  </g></svg>