<svg width="43.790126" height="63.590156" xmlns="http://www.w3.org/2000/svg" xmlns:svg="http://www.w3.org/2000/svg" xmlns:xlink="http://www.w3.org/1999/xlink" xmlns:slic3r="http://slic3r.org/namespaces/slic3r"><g xmlns="http://www.w3.org/2000/svg" slic3r:z="2.93749999999999e-005" id="layer88">
    <polygon style="fill: white" points="32.551687,59.476215 33.204284,59.921704 33.042162,60.527739 32.91261,61.125188 32.607261,60.899447 31.891506,60.426284 32.03295,59.836475 32.203762,59.266736" slic3r:type="contour"/>
    <polygon style="fill: white" points="34.792512,58.652012 35.349256,58.971523 35.200464,59.744264 35.1368,60.19324 34.6893,59.913268 34.07492,59.573199 34.200176,58.810839 34.289832,58.396564" slic3r:type="contour"/>
    <polygon style="fill: white" points="41.129651,53.989651 41.447083,54.567916 41.193903,54.613816 40.470652,54.74673 40.247639,55.622979 40.296896,55.787795 40.290786,55.802835 40.451868,56.284448 40.363251,56.282368 40.096681,56.280639 39.787796,57.040983 39.010516,57.466709 39.03238,57.729412 39.045348,57.824088 38.58591,57.699271 38.473652,57.760756 38.3363,57.731164 37.287706,58.084311 37.226667,58.824052 37.217892,59.103992 36.597356,58.80966 36.102567,58.60772 36.153859,57.654296 36.177136,57.415204 36.867727,57.678039 37.098865,57.77794 37.536719,57.093668 37.775308,56.691826 37.739908,56.388416 37.73572,56.335008 37.926527,56.374069 37.985612,56.229663 38.085664,55.966252 38.64382,55.683847 38.981245,55.47444 38.863288,55.078208 38.986192,55.077892 39.558334,55.090121 40.114403,54.548957 39.989067,54.318027 39.657232,53.703044 39.94506,53.647907 40.8605,53.477504" slic3r:type="contour"/>
    <polygon style="fill: white" points="42.485356,50.883864 42.534476,50.950584 42.451476,51.00191 42.506004,51.091092 42.021129,51.320348 41.37097,51.84119 41.82,52.445516 42.09086,52.809672 41.706688,52.927407 40.936064,53.187944 40.483176,52.624108 40.186232,52.244148 40.633003,52.083168 41.268443,51.847009 41.126347,51.532914 40.640735,50.870327 40.549299,50.72264 40.685524,50.648668 40.635928,50.576944 40.591287,50.515912 41.175407,50.19186 41.713371,49.878152" slic3r:type="contour"/>
    <polygon style="fill: white" points="42.924824,47.60372 43.050484,47.756436 42.750432,47.957162 42.755339,47.964244 42.74613,47.970858 42.889692,48.162128 42.977172,48.280876 42.38454,48.757144 41.820552,49.237544 41.166915,48.310439 40.9959,48.06488 41.354716,47.780495 41.180239,47.566375 41.08348,47.4375 41.664507,47.029672 42.177204,46.69156" slic3r:type="contour"/>
    <polygon style="fill: white" points="43.401035,43.825555 43.47838,43.910112 43.287489,44.043513 43.303112,44.069408 43.292958,44.077509 43.390583,44.203243 43.4433,44.278215 42.797919,44.96776 42.316252,45.436504 41.566331,44.329295 41.451452,44.177128 41.704419,43.935838 41.699931,43.929912 41.708378,43.920005 41.566383,43.767547 41.4992,43.67646 42.118211,43.146984 42.564024,42.825511" slic3r:type="contour"/>
    <polygon style="fill: white" points="43.249116,38.232088 43.751676,39.198572 43.676911,39.353292 43.554981,39.523108 43.588312,39.559732 43.571089,39.585615 43.740807,39.745332 43.658851,39.804284 43.063705,40.348146 43.04514,40.376047 42.695472,40.77716 42.533394,40.53123 42.336084,40.353752 41.755056,39.625396 41.790932,39.59018 41.871592,39.527043 41.867672,39.521095 41.896769,39.490054 41.761424,39.30886 41.854707,39.171596 42.758828,37.598692" slic3r:type="contour"/>
    <polygon style="fill: white" points="42.571967,31.042185 42.609045,31.112226 43.117112,31.51302 43.281331,31.612548 42.999806,31.850391 43.069884,31.982772 43.015797,32.048251 43.259716,32.296747 43.427332,32.604504 43.194696,33.7225 42.792044,34.600074 42.973892,34.768316 42.914386,34.933827 43.087584,35.100048 43.682732,35.548 43.350616,35.807099 42.728696,36.489152 42.12698,36.048544 41.690776,35.555927 41.888764,35.311268 42.370835,34.896892 42.322908,34.83112 42.513565,34.556208 42.0752,33.959596 41.504556,33.369928 41.914401,32.31436 41.804664,32.204827 41.821426,32.116014 41.460908,31.90774 41.257264,31.713548 41.598943,31.153408 42.092122,30.68176 42.111856,30.577208" slic3r:type="contour"/>
    <polygon style="fill: white" points="21.220838,2.66765 21.265398,2.592307 21.339433,2.739139 21.448708,2.737416 21.794592,2.770986 21.865493,2.64562 21.895064,2.594014 22.004876,2.791394 22.027538,2.793595 22.030023,2.797575 22.153892,2.799418 22.428762,2.765869 22.503144,2.629702 22.524728,2.592327 22.60011,2.727226 22.696442,2.587174 23.058216,2.638833 23.092392,2.640974 23.12706,2.595532 23.150335,2.644606 23.163728,2.645446 23.181627,2.676004 23.462246,2.793152 23.581957,2.818045 23.74983,2.634019 23.816311,2.823043 23.84083,2.871876 23.942134,2.892941 24.01565,3.014737 24.317425,2.980704 24.553607,2.771586 24.590725,2.949884 24.679858,2.939832 24.817394,2.839486 24.809712,3.298323 24.962344,3.515093 25.025256,3.541178 25.087267,3.530811 25.440772,3.46007 25.394513,3.681264 25.511129,3.722713 25.664118,3.71517 25.326863,4.032787 25.378262,4.105784 25.296662,4.149152 25.278962,4.23379 25.261274,4.338798 25.704876,4.487482 25.94278,4.591895 25.998099,4.597498 26.041467,4.605834 26.05149,4.632839 26.021475,4.655094 25.97292,4.795568 25.908981,4.910913 25.721162,5.380152 25.974299,5.491746 26.409138,5.51221 26.319103,5.583884 26.261772,5.692817 26.495624,5.734917 26.357273,6.305235 26.529149,6.365401 26.85317,6.340021 26.70329,6.460177 26.552134,6.792219 27.044816,6.719204 27.013825,7.115749 27.154306,7.150798 27.410376,7.15998 27.125904,7.417629 26.971353,7.659216 26.96337,7.761352 26.965358,7.810377 27.323182,7.906467 27.81108,8.020347 27.839604,8.000342 27.841329,8.027329 27.86085,8.031215 27.843048,8.045287 27.921828,8.724365 28.029573,8.748443 28.230566,8.794061 27.967079,9.00929 28.012065,9.226296 28.175976,9.258882 28.527228,9.30142 28.264294,9.615321 28.580805,9.59815 28.658646,9.537292 28.730814,9.500032 28.74786,9.589067 28.859282,9.584696 28.827488,9.963464 28.89295,10.215595 29.04636,10.221808 29.41981,9.916895 29.619302,9.808167 29.769,10.170472 29.932872,10.179808 30.648296,10.179984 30.686211,10.151188 30.703846,10.140616 30.717994,10.17989 30.838619,10.193503 31.27735,10.648452 31.40008,10.778965 31.79144,10.531892 31.839231,10.689216 32.032203,11.389159 32.395507,11.12245 32.712628,10.891006 32.803824,11.179897 32.920037,11.55563 33.142397,11.341609 33.366306,11.113481 33.51709,11.45086 33.648552,11.176328 33.718172,11.25304 33.730972,11.131921 33.945977,11.225553 33.932596,10.920314 34.318845,10.984597 34.3175,10.854893 34.34128,10.467061 34.651927,10.533163 34.830832,10.593178 34.920828,10.410085 35.152616,10.000316 35.394856,10.180706 35.650575,10.43279 35.72002,10.383181 36.189771,10.112465 36.301244,10.430229 36.380223,10.733596 37.005728,10.620131 37.000128,10.91976 36.971704,11.259077 37.623916,11.307283 37.551644,11.561793 37.420898,11.935714 38.072736,12.137376 37.954708,12.343208 37.71081,12.727495 38.329588,13.041116 38.187427,13.204663 37.827918,13.581092 38.447816,13.981987 38.30654,14.109474 37.868576,14.466474 37.875464,14.493618 37.827166,14.537008 37.893484,14.581741 38.482248,14.951745 38.374863,15.038477 38.146083,15.211055 38.462607,15.832591 38.505742,15.919517 38.526355,15.928599 38.505639,15.968649 38.047528,16.767872 38.374516,16.961178 38.658088,17.082738 38.349144,17.354613 38.156628,17.580515 38.623344,17.838958 38.891844,18.012844 38.741187,18.311229 38.845948,18.366224 39.027484,18.437228 38.838204,18.774061 38.697137,19.104906 38.792007,19.139799 39.40488,19.324408 39.176836,19.815919 38.979579,20.189326 39.051944,20.217582 38.950994,20.415231 39.78972,20.762648 40.060468,20.840098 39.75275,21.243899 39.872964,21.362503 39.771125,21.564635 40.135328,21.889206 40.645586,22.646172 40.776024,22.71009 40.834996,22.730716 40.754911,22.808355 40.786356,22.855004 40.757174,22.907373 40.854384,22.984668 41.037692,23.283946 41.311572,24.5465 41.318065,24.856835 41.407971,24.908107 41.418748,24.994987 41.673452,25.09986 41.583252,25.184883 41.465592,25.372664 41.578904,26.286238 41.499167,27.271872 41.721732,27.415658 41.728425,27.651152 41.867204,27.74479 42.528336,28.082812 42.23216,28.34178 41.7253,29.074052 41.091815,28.7717 40.496051,28.268982 40.588488,28.095254 40.894586,27.786519 40.83062,27.722286 41.028569,27.334426 40.5396,26.825864 39.958203,26.416459 39.947776,25.603994 39.874404,25.549763 39.86975,25.512081 39.72524,25.456328 39.61844,25.377986 39.804031,24.97997 39.639164,23.645092 39.410904,23.501302 39.397293,23.422762 39.055063,23.308086 38.803596,23.138787 39.05788,22.536516 39.213961,22.36478 39.138002,21.926433 38.926316,21.818026 38.91765,21.735843 38.452356,21.590782 38.109436,21.39121 38.294316,20.90435 38.654082,20.448987 38.599588,20.429674 38.604492,20.406588 38.004543,20.181313 37.511988,19.963454 37.606047,19.692788 37.768633,19.441895 37.674224,19.396518 37.18264,19.173908 37.344036,18.735979 37.151788,18.61102 36.981532,18.541564 37.271812,18.00005 37.391296,17.815536 37.134487,17.684967 36.698072,17.415898 37.083244,16.917987 37.211764,16.786078 37.007315,16.555831 36.55224,16.192086 36.608572,16.109977 36.5365,16.061105 36.566476,16.030625 36.705893,15.932764 36.737357,15.876988 36.864824,15.598513 36.960612,15.311405 36.492852,15.008253 36.657744,14.866587 37.147209,14.512472 37.067004,14.463889 36.461472,14.124298 36.660924,13.957005 36.999822,13.673538 36.376384,13.422699 36.563355,13.232157 36.783699,12.998879 36.228,12.880474 36.37626,12.641856 36.494619,12.462021 36.00224,12.454496 36.103726,12.069232 35.736212,12.14599 35.722486,11.877961 35.588722,11.958986 35.60026,12.052378 35.221738,11.966246 35.273412,12.192492 35.318924,12.401549 34.864731,12.332219 34.852608,12.519163 34.799022,12.546717 34.789756,12.762584 34.783188,12.890195 34.415863,12.743734 34.367124,12.768794 34.132817,12.875651 34.067344,13.005843 34.050913,13.001305 33.983463,13.121024 33.934216,13.20957 33.777438,13.03772 33.769995,13.041115 33.620655,12.882483 33.462513,12.83881 33.326094,12.79375 33.291662,12.82746 33.27712,12.817429 33.095898,12.977653 32.96929,13.102365 32.797041,12.618998 32.72623,12.595608 32.632545,12.373094 32.292786,12.608549 32.060974,12.793227 31.96181,12.32464 31.844248,11.871094 31.45328,12.134901 31.098948,12.407965 31.030954,12.058677 30.955759,11.760693 30.517953,11.712375 30.484647,11.712504 30.098358,12.04301 30.049398,11.844427 30.009449,11.714354 29.403124,11.716713 29.168545,11.709622 29.165211,11.712511 29.130742,11.713376 29.067714,11.772911 29.050104,11.715397 28.858238,11.720211 28.282961,11.218197 28.183635,11.293954 28.003398,11.436055 27.86279,10.900056 27.848628,10.839179 27.812533,10.80768 27.594864,10.774406 27.400213,10.756291 27.004574,10.977813 26.970855,10.721986 26.966998,10.678432 26.490088,10.605532 26.486469,10.247981 26.232986,10.328132 26.147504,10.117329 26.13742,10.115951 26.135951,10.110991 26.048114,10.105871 26.082271,10.056668 26.106021,10.009919 25.961896,9.523207 25.938293,9.436603 25.911298,9.430296 25.910031,9.421972 25.679172,9.364167 25.783385,9.252125 25.861395,9.154455 25.853902,9.126961 25.863763,9.118104 25.832902,8.915419 25.801444,8.720359 25.422436,8.597051 25.596971,8.424941 25.730649,8.281389 25.72089,8.220874 25.775081,8.173656 25.764521,8.048171 25.16971,7.874371 25.459265,7.541555 25.64319,7.319666 25.206127,7.227368 24.960991,7.136886 24.821322,7.153189 24.840492,7.092407 24.79525,7.075708 24.815914,7.046346 24.842474,7.014983 24.845164,6.977265 24.991974,6.756889 25.057707,6.615921 25.087815,6.392149 24.995981,6.365727 24.435525,6.158583 24.685826,5.766874 24.533906,5.716489 24.256594,5.720488 24.414343,5.48193 24.440091,5.380251 24.081792,5.223011 24.313261,4.813155 24.21628,4.821963 24.193888,4.728709 24.145421,4.684535 24.063405,4.680115 23.950663,4.724814 23.926418,4.89831 23.824416,4.858432 23.807926,4.929821 23.807926,4.929822 23.768647,4.83663 23.701611,4.810421 23.628242,4.80092 23.347968,4.748093 23.311889,4.817997 23.235174,5.006361 23.064069,4.694583 23.023499,4.686936 22.843208,4.681109 22.758965,4.674952 22.68833,4.805313 22.5739,5.032556 22.355714,4.647548 22.147891,4.648399 22.109478,4.647833 22.021774,4.802768 21.895064,5.03301 21.672526,4.639745 21.46361,4.638893 21.460499,4.643603 21.447229,4.644011 21.353213,4.809841 21.216226,5.032574 21.012992,4.657377 20.876916,4.661565 20.820377,4.666174 20.809476,4.678871 20.769271,4.683712 20.688185,4.829083 20.554954,5.006364 20.411238,4.726836 20.372053,4.731557 20.128669,4.788005 20.114875,4.800157 20.071018,4.813802 20.044782,4.868739 19.982227,4.929829 19.945502,4.85513 19.863756,4.898323 19.894682,4.751763 19.861751,4.684784 19.766181,4.689829 19.765922,4.695672 19.760574,4.69084 19.573816,4.821963 19.540494,4.775762 19.525292,4.793348 19.517175,4.745383 19.335266,4.78828 19.422027,4.927501 19.708335,5.222992 19.490406,5.256923 19.405433,5.296377 19.533532,5.720472 19.121103,5.867422 19.183106,5.95877 19.354592,6.158589 18.923387,6.235448 18.763652,6.297556 18.91302,6.92991 18.944978,6.977321 18.951777,7.027489 18.994866,7.075713 18.959091,7.081458 18.968808,7.153153 18.862532,7.186492 18.6312,7.209277 18.584085,7.227337 18.167833,7.331595 18.326216,7.517326 18.620396,7.874387 18.233485,7.939427 18.056627,7.994388 18.04295,8.196982 18.069227,8.220874 18.062084,8.266989 18.36769,8.597052 18.139075,8.652309 17.994977,8.700266 17.970922,8.855573 17.92856,9.119858 17.936196,9.127012 17.932888,9.138435 18.110932,9.364183 17.959663,9.398268 17.88075,9.418126 17.878795,9.430321 17.846258,9.437599 17.707805,9.915718 17.689648,9.981694 17.689889,9.981999 17.686581,9.990629 17.741967,10.105926 17.653184,10.114195 17.652686,10.116006 17.637663,10.118172 17.557131,10.328142 17.249175,10.340038 17.238966,10.491268 17.300016,10.605559 16.805881,10.747394 16.78553,10.977852 16.55776,10.843955 16.435848,10.775075 15.957864,10.817071 15.930939,10.837083 15.856828,11.134948 15.78671,11.43604 15.457595,11.188884 15.235978,11.353594 14.93198,11.720159 14.789152,11.707303 14.746298,11.708653 14.722409,11.772885 14.688571,11.745933 14.6507,11.711662 14.624868,11.712475 14.606284,11.696788 14.089126,11.662738 13.807409,11.677439 13.691739,12.04303 13.497685,11.900764 13.261493,11.705926 13.147113,11.711895 13.134476,11.701829 12.860019,11.736002 12.828,11.883372 12.691208,12.407963 12.336283,12.178166 11.94933,11.891523 11.81808,12.459613 11.729133,12.793245 11.253842,12.478995 11.150294,12.399721 11.063896,12.595639 11.020216,12.607163 10.901397,12.915985 10.820817,13.102365 10.422505,12.76487 10.270075,12.805088 10.237802,12.816926 9.936082,13.132228 9.855909,13.209573 9.737373,13.000493 9.722761,13.005853 9.632624,12.844257 9.563595,12.80918 9.39875,12.732828 9.125128,12.842397 9.006908,12.890194 8.993668,12.545202 8.937439,12.519158 8.920442,12.318744 8.669897,12.360367 8.471179,12.401539 8.583222,11.922915 8.448442,11.95727 8.18987,12.052379 8.213046,11.93838 8.050679,11.747125 7.981145,11.78074 8.053938,12.145969 7.790463,12.013569 7.578879,11.962031 7.787875,12.454506 7.526629,12.420347 7.253342,12.418537 7.562116,12.88049 7.311933,12.927925 7.010021,12.991048 7.413739,13.422703 7.177362,13.532664 6.804937,13.686548 7.328653,14.124339 7.119691,14.253916 6.670032,14.510383 6.676581,14.573784 6.751449,14.635988 7.297277,15.008251 7.140446,15.110769 6.863704,15.290364 7.112092,15.977382 7.253626,16.061047 7.184019,16.099861 7.237888,16.191993 7.002058,16.442074 6.578304,16.858289 6.850823,17.200194 7.092058,17.415886 6.723714,17.580062 6.358724,17.80125 6.631564,18.27006 6.808602,18.541536 6.475376,18.750088 6.533329,18.905065 6.607453,19.173997 6.282595,19.340648 5.934855,19.49852 6.278138,19.96347 5.880156,20.112622 5.186185,20.398459 5.190624,20.429526 5.103133,20.453662 5.448572,21.154945 5.680695,21.39119 5.115627,21.551628 4.903532,21.651211 4.863791,21.818088 4.736496,21.868633 4.660592,22.616778 4.640908,22.678658 4.808599,22.986889 4.98653,23.138788 4.442151,23.303473 4.379221,23.501301 4.28764,23.546837 4.257443,24.144997 4.007604,25.172114 4.090383,25.31162 4.171673,25.378008 3.936742,25.463441 3.915745,25.549762 3.878945,25.571796 3.895,25.817721 3.831987,26.41625 3.319241,27.152375 2.804971,27.479901 2.959561,27.722238 2.84208,27.873613 3.294083,28.268984 3.079912,28.364335 2.064841,29.074052 1.564036,28.587056 1.26181,28.082724 1.609633,27.81836 2.079956,27.575359 2.068463,27.41564 2.342056,27.21054 2.370559,25.572277 2.11665,25.099918 2.23071,25.027692 2.381131,24.964611 2.382113,24.908158 2.544979,24.800324 2.752425,23.28396 3.058823,22.970344 3.003769,22.855004 3.028093,22.828221 2.976045,22.770328 2.955128,22.730718 3.294821,22.534541 4.060305,21.691709 3.917177,21.362533 4.008803,21.282745 3.819791,21.018132 3.729646,20.840108 4.331385,20.544762 4.82389,20.396685 4.738226,20.217384 4.823532,20.179441 4.579146,19.65824 4.385278,19.32434 4.711044,19.191364 5.049684,19.085918 4.992311,18.966136 4.762657,18.43721 5.080091,18.271586 4.993867,18.089752 4.898275,18.012876 5.358397,17.797196 5.615975,17.631771 5.476638,17.494024 5.13204,17.0827 5.700127,16.739567 5.774672,16.702586 5.612356,16.354274 5.267876,15.936608 5.274917,15.93147 5.269128,15.926264 5.272284,15.924148 5.287543,15.916353 5.576125,15.426779 5.672007,15.221419 5.307856,14.951742 5.43645,14.864173 5.955983,14.52996 5.914672,14.493594 5.925104,14.447778 5.879157,14.407358 5.342335,13.98193 5.515177,13.879352 5.984284,13.582504 5.917323,13.507352 5.460531,13.041144 5.665564,12.954217 6.105052,12.740418 6.053674,12.653311 5.717396,12.137345 5.949754,12.093974 6.401521,11.967027 6.363877,11.842366 6.166229,11.307285 6.42118,11.322352 6.845052,11.303662 6.838953,11.135287 6.784376,10.620141 7.049685,10.707128 7.425438,10.78793 7.503639,10.548939 7.600325,10.112464 7.842391,10.293541 8.146304,10.481736 8.402434,10.274844 8.637543,10.000311 8.770406,10.278112 8.963045,10.637964 9.160654,10.587744 9.448846,10.467067 9.440131,10.853689 9.445054,11.029067 9.594535,10.999754 9.857528,10.920321 9.812565,11.252886 10.059154,11.131927 10.067551,11.252365 10.141562,11.17631 10.269399,11.426298 10.423839,11.113477 10.650327,11.327427 10.874359,11.549033 10.965018,11.260112 11.077509,10.891003 11.282278,11.041642 11.762489,11.393075 11.877815,11.00194 11.998655,10.531918 12.112324,10.612402 12.384884,10.790781 12.951615,10.193471 13.074957,10.178555 13.086276,10.140626 13.131191,10.177445 13.215619,10.173527 14.060467,10.152036 14.135769,9.959449 14.17081,9.808188 14.392203,10.018873 14.564782,10.139207 14.573508,10.138985 14.627545,10.179285 14.944663,10.173121 14.962723,10.119019 14.93566,9.714262 14.930753,9.584728 15.067786,9.581512 15.059351,9.499979 15.147816,9.58072 15.326035,9.561855 15.475547,9.551969 15.262889,9.30141 15.80348,9.20653 15.836909,9.050861 15.841235,9.019573 15.715467,8.916649 15.559539,8.79414 15.876057,8.723139 15.889914,8.628481 15.947777,8.048536 15.92926,8.031275 15.949794,8.026753 15.950455,8.000475 15.975762,8.020574 16.826662,7.802408 16.529427,7.479844 16.379739,7.159964 16.804607,7.062787 16.745347,6.71912 17.098277,6.819334 16.936966,6.339991 17.493504,6.154794 17.294503,5.734912 17.487669,5.747855 17.380994,5.512204 17.638699,5.400976 18.065334,5.285993 17.817263,4.795694 17.790472,4.713185 17.748182,4.661546 17.738628,4.632842 17.761134,4.623404 17.751442,4.605281 17.807672,4.603888 18.085542,4.487359 18.372718,4.396468 18.187592,4.085708 18.12599,3.715189 18.373981,3.6333 18.349372,3.460049 18.624936,3.500656 18.640812,3.455571 18.972704,2.83949 19.196343,2.876032 19.236518,2.771586 19.386108,2.907039 19.797007,2.974178 19.848043,2.892928 19.915261,2.871822 20.040328,2.634028 20.167193,2.792723 20.54514,2.674055 20.619365,2.657083 20.626368,2.645486 20.633523,2.644594 20.663066,2.595553 20.690514,2.637485 21.093908,2.587168" slic3r:type="contour"/>
    <polygon style="fill: white" points="1.711089,30.694375 2.328314,31.537324 2.532869,31.713516 1.96573,32.027457 1.985409,32.204918 1.915527,32.264723 2.136427,32.783171 2.285566,33.370008 1.902341,34.006208 1.289122,34.612274 1.467214,34.831152 1.400582,34.940315 1.546314,35.100675 2.099356,35.55592 1.794853,35.769392 1.061456,36.48904 0.501144,36.031032 0.107396,35.547972 0.381333,35.257219 0.86864,34.88489 0.816203,34.768335 1.017647,34.556903 0.63035,33.269687 0.362759,32.604668 0.815311,32.112221 0.720257,31.982926 0.771699,31.907461 0.59079,31.739993 0.508773,31.612606 1.168339,31.025659 1.518585,30.811777 1.678174,30.577662" slic3r:type="contour"/>
    <polygon style="fill: white" points="1.511158,38.279047 2.028703,39.308924 1.984642,39.395147 1.902419,39.50167 1.922474,39.52112 1.915452,39.533168 2.035068,39.625364 1.989627,39.66508 1.547525,40.164459 1.42182,40.380144 1.094517,40.777384 0.945306,40.573863 0.699735,40.393039 0.049317,39.745412 0.104415,39.681275 0.21443,39.576963 0.201835,39.559783 0.248102,39.504031 0.038448,39.1985 0.189949,38.995256 1.031231,37.598632" slic3r:type="contour"/>
    <polygon style="fill: white" points="2.177966,43.595972 2.290928,43.676484 2.070515,43.910826 2.249553,44.080555 2.338681,44.177228 1.86587,44.918552 1.47378,45.436428 0.462355,44.391228 0.346825,44.278084 0.500073,44.080299 0.486965,44.069316 0.498213,44.052004 0.373379,43.963615 0.311749,43.91006 0.850336,43.236875 1.226084,42.825467" slic3r:type="contour"/>
    <polygon style="fill: white" points="2.529133,47.320995 2.706648,47.437576 2.433185,47.772359 2.655244,47.948183 2.794224,48.064936 2.386514,48.638311 1.969509,49.237404 1.027169,48.46262 0.812938,48.280835 1.044989,47.971683 1.034811,47.964227 1.037744,47.960099 0.846745,47.83202 0.739614,47.756308 1.218367,47.170848 1.612781,46.691496" slic3r:type="contour"/>
    <polygon style="fill: white" points="3.102365,50.459384 3.198837,50.515864 3.113279,50.639635 3.164679,50.66838 3.240838,50.722676 2.853921,51.168023 2.762741,51.317071 2.522065,51.846441 3.190726,52.088851 3.603899,52.244132 3.364457,52.53884 2.854009,53.18782 2.182815,52.975536 1.699267,52.809672 2.000709,52.40388 2.418471,51.842037 2.087111,51.581911 1.388467,51.16568 1.284131,51.091028 1.351745,51.008233 1.299267,50.975824 1.25565,50.950468 1.708915,50.376959 2.076819,49.878044" slic3r:type="contour"/>
    <polygon style="fill: white" points="3.526641,53.591212 4.132885,53.703012 4.011599,53.926048 3.682703,54.535063 4.282578,55.096316 4.926838,55.078172 4.893207,55.180899 4.811469,55.452254 5.704509,55.966288 5.868436,56.376845 6.007307,56.347244 6.054437,56.335036 6.011189,56.672977 6.702036,57.782303 7.413098,57.504415 7.613022,57.415212 7.639821,58.07202 7.687463,58.607796 6.858432,58.989808 6.572213,59.103972 6.504221,58.336611 6.493295,58.075597 5.612103,57.768643 5.479387,57.726508 5.316537,57.760788 5.219194,57.707433 4.848824,57.803068 4.744778,57.824096 4.772254,57.462458 4.542146,57.336332 4.002246,57.040896 3.839796,56.568099 3.72984,56.320517 3.720086,56.32094 3.712806,56.282997 3.338266,56.284468 3.36801,56.183715 3.495301,55.792421 3.493252,55.787808 3.564387,55.54175 3.386115,54.910673 3.384887,54.910483 3.384318,54.904312 3.341019,54.751036 3.06206,54.700315 2.343052,54.567932 2.484891,54.296731 2.929647,53.477507" slic3r:type="contour"/>
    <polygon style="fill: white" points="9.574704,58.894819 9.71519,59.573152 9.087125,59.95752 8.653342,60.19324 8.538846,59.615668 8.440871,58.971524 9.167513,58.593007 9.50027,58.396552" slic3r:type="contour"/>
    <polygon style="fill: white" points="11.665781,59.622411 11.898609,60.426244 11.430522,60.765843 10.877503,61.125168 10.766962,60.720108 10.585878,59.921704 11.142762,59.577907 11.586385,59.26674" slic3r:type="contour"/>
    <polygon style="fill: white" points="13.812858,60.25718 14.151891,61.229656 15.096384,61.317752 15.24925,61.199716 15.85716,60.673116 15.89941,60.800759 16.111473,61.324555 16.463925,61.341503 17.657768,61.418676 17.908396,61.172744 17.927502,61.218572 18.023004,61.416405 19.640921,61.450548 19.88624,61.524445 19.910913,61.496932 19.916376,61.490551 19.942029,61.537528 20.047947,61.548564 21.78778,61.745856 21.876049,61.621672 21.895064,61.5955 22.003058,61.748072 22.27744,61.719771 23.846796,61.53834 23.869223,61.498012 23.873752,61.490552 23.905287,61.525431 23.960561,61.510088 24.149206,61.450548 25.414666,61.43888 25.757907,61.424255 25.881732,61.172744 25.921751,61.208147 26.15364,61.432066 26.826119,61.415196 27.650693,61.352725 27.933012,60.673096 28.050834,60.76202 28.722029,61.330481 29.641127,61.231063 29.788568,60.728255 30.04118,60.025236 30.262652,60.174028 30.993696,60.732492 30.846707,61.194908 30.651954,61.92046 30.461377,61.763719 29.732526,61.224503 28.823921,61.704225 28.76535,61.85558 28.675436,61.894857 28.444678,62.598956 28.347472,62.51096 27.970882,62.202629 27.326123,62.48428 26.386084,62.87692 26.36517,62.922076 26.341848,62.928833 26.257962,63.130612 26.230821,63.102683 26.115927,62.994289 24.89426,63.34824 24.133721,63.367531 24.089682,63.446087 24.078176,63.46682 24.000008,63.370921 23.982756,63.371359 23.977232,63.365103 23.715841,63.367772 22.056237,63.37771 22.05488,63.379632 22.03473,63.379417 21.922977,63.542948 21.895064,63.582156 21.757566,63.379498 21.735248,63.379632 21.732832,63.376188 21.362316,63.372228 19.81369,63.364278 19.80737,63.371359 19.792253,63.370762 19.72797,63.448663 19.71195,63.46682 19.654969,63.365344 19.49866,63.359176 18.895866,63.34824 17.948762,63.061396 17.683051,62.990723 17.681141,62.992696 17.680641,62.992463 17.532164,63.130612 17.515389,63.093087 17.445757,62.927608 17.424955,62.922075 17.395696,62.859507 16.619184,62.497187 15.85366,62.189211 15.345454,62.598956 15.295941,62.46678 15.101125,61.886459 15.024735,61.855728 14.954451,61.677223 14.061707,61.226227 13.788712,61.447004 13.138149,61.920439 13.05524,61.663799 12.796452,60.732372 13.213936,60.444719 13.748937,60.025231" slic3r:type="contour"/>
  </g></svg>