<svg width="43.790126" height="63.590156" xmlns="http://www.w3.org/2000/svg" xmlns:svg="http://www.w3.org/2000/svg" xmlns:xlink="http://www.w3.org/1999/xlink" xmlns:slic3r="http://slic3r.org/namespaces/slic3r"><g xmlns="http://www.w3.org/2000/svg" slic3r:z="4.52149999999998e-005" id="layer136">
    <polygon style="fill: white" points="5.00666,44.044212 5.123758,44.125256 4.682047,44.60184 5.111631,44.747047 5.252802,44.775424 4.943413,45.592875 4.647098,46.177924 4.070285,46.214892 3.742365,46.42138 4.13164,44.876575 3.464274,44.276143 3.193535,44.073208 3.69723,43.643623 4.056503,43.362852" slic3r:type="contour"/>
    <polygon style="fill: white" points="4.18859,33.990564 4.283172,34.756238 4.645337,35.094764 4.719253,35.158708 4.352605,35.318325 4.361867,35.393307 4.600757,35.722032 4.716244,35.934584 4.340141,37.525623 3.947461,38.882103 4.039969,38.963764 4.0266,39.016311 4.714269,39.549004 4.451135,39.771252 3.735244,40.29068 3.376565,39.945816 2.657742,39.346472 2.720458,39.302867 2.970706,39.142117 2.958953,39.130184 3.111034,39.018902 2.640552,38.446359 3.389552,35.578311 3.346123,35.539443 3.360153,35.464765 2.881844,35.068223 2.654469,34.827032 3.215451,34.483083 3.578844,34.300677 3.896729,32.60858" slic3r:type="contour"/>
    <polygon style="fill: white" points="4.863787,30.910754 5.064134,31.096222 4.449796,31.333348 3.943549,31.589604 3.333436,31.03918 3.037414,30.699967 3.519846,30.44423 4.138793,30.178348" slic3r:type="contour"/>
    <polygon style="fill: white" points="6.95929,20.282108 6.945007,20.445025 7.419804,21.138766 7.301582,21.134196 6.876247,21.22932 6.697789,23.264878 6.253228,23.747235 6.402623,23.93482 6.457414,23.996467 5.913809,24.144921 4.950421,26.580435 5.505879,27.191959 5.66597,27.352858 5.026085,27.581642 4.521177,27.80365 3.92168,27.198559 3.677044,26.89564 4.241149,26.64106 4.78352,26.436245 5.126352,24.307687 5.066687,24.227202 5.081229,24.108207 4.651059,23.631032 4.507987,23.432596 5.194412,23.181998 5.309837,22.237436 5.377312,20.811092 5.521678,20.676376 5.654027,20.526093 5.549649,20.318442 5.583377,20.313423 5.879156,20.270458 5.946971,20.193454 6.664794,19.991039 6.76645,19.966072" slic3r:type="contour"/>
    <polygon style="fill: white" points="8.665944,16.808256 9.106045,16.945638 9.097865,17.040079 9.229402,17.626073 9.398597,18.169814 9.228338,18.180409 9.03648,18.209163 9.028362,18.528256 8.92553,18.53768 7.859819,18.379922 7.858388,18.275219 7.78653,18.257942 7.72562,18.23703 7.762908,17.933878 7.520251,17.379086 7.433621,17.1753 7.862552,17.12376 7.90041,16.815964 7.954491,16.558784" slic3r:type="contour"/>
    <polygon style="fill: white" points="13.349779,13.833627 13.637443,14.133816 13.644732,14.13375 13.693042,14.174394 13.988291,14.185846 13.929156,14.891439 13.86514,15.407407 13.488757,15.389461 13.230717,15.375555 13.226754,15.385191 13.210481,15.385065 13.096629,15.698852 12.999342,15.623349 12.710791,15.381237 12.460161,15.379316 11.384837,15.377303 11.365184,15.437183 11.325652,15.437768 11.203555,15.950774 10.954198,16.87724 10.474671,16.603647 9.895386,16.249537 10.055218,15.527564 10.370766,14.621292 10.518235,14.691826 11.3423,15.198155 11.329847,14.745778 11.233056,14.155498 12.467192,14.144369 12.660207,13.668948 12.816465,13.370008" slic3r:type="contour"/>
    <polygon style="fill: white" points="15.3132,12.797022 15.883701,13.466878 15.406909,14.513289 15.236089,14.89344 14.761041,14.357398 14.39229,13.949786 14.751713,13.158404 15.08106,12.554966" slic3r:type="contour"/>
    <polygon style="fill: white" points="22.335904,11.842765 22.423497,11.842401 22.733566,11.380407 22.892286,11.151327 23.254494,11.839576 23.58865,11.835658 23.85285,11.482301 23.974976,11.317339 24.224445,11.833045 24.228702,11.833032 24.229106,11.833821 24.543165,11.828049 25.057315,11.82713 25.181247,11.67268 25.233428,11.602236 25.337852,11.826627 25.34112,11.826621 25.341595,11.827572 25.492211,11.824027 26.056294,11.826106 26.104614,12.181161 26.131216,12.785135 26.207352,12.693143 26.208583,12.70331 26.768318,12.007742 26.817747,12.113094 27.447957,13.355095 26.996389,13.894571 26.628398,14.325502 26.418043,13.880554 26.060521,13.106514 25.982894,13.108514 25.960977,13.062285 25.775481,13.066622 25.576027,13.318309 25.08144,13.924446 24.941076,13.630398 24.687967,13.09205 24.655244,13.092815 24.644843,13.070215 24.280799,13.076051 23.840774,13.65904 23.742635,13.462191 23.557441,13.087646 23.54705,13.087813 23.542171,13.077408 23.102912,13.081071 22.813044,13.508849 22.736845,13.366674 22.585377,13.085386 22.583728,13.0854 22.581732,13.081452 22.514596,13.08143 22.122832,13.082392 21.895064,13.460873 21.823595,13.338654 21.670281,13.083801 21.565123,13.083874 21.20765,13.082941 21.206397,13.085381 21.205123,13.085381 20.977082,13.50885 20.892423,13.377131 20.695117,13.085539 20.246069,13.081356 20.243015,13.087804 20.231854,13.087764 19.949333,13.659025 19.826771,13.487859 19.520866,13.08147 19.143369,13.07443 19.13497,13.092763 19.100047,13.092525 18.708688,13.924456 18.516485,13.67951 18.019294,13.068545 17.828177,13.063127 17.807167,13.108525 17.727818,13.107978 17.501362,13.590957 17.161744,14.325502 16.859878,13.962612 16.34216,13.355124 16.598279,12.807053 17.021809,12.007743 17.076086,12.06981 17.673512,12.796609 17.724366,12.291698 17.733832,11.82612 18.444942,11.831921 18.511904,11.687454 18.556698,11.602261 18.74157,11.831128 19.142902,11.837282 19.555265,11.840518 19.716033,11.507792 19.815162,11.317337 20.206203,11.839975 20.52653,11.84341 20.76067,11.398665 20.897844,11.151337 21.361732,11.843574 21.445162,11.843909 21.733882,11.356116 21.895064,11.096994" slic3r:type="contour"/>
    <polygon style="fill: white" points="28.921479,13.018324 29.39777,13.949937 28.732238,14.696859 28.554056,14.893441 28.242663,14.216365 27.906394,13.466893 28.33768,13.009641 28.709044,12.554972" slic3r:type="contour"/>
    <polygon style="fill: white" points="31.287561,14.127828 31.31252,14.127278 31.314658,14.132409 31.794223,14.131853 32.556946,14.155435 32.560344,14.483708 32.467558,15.19234 32.773325,15.039038 33.419336,14.621286 33.480499,14.886999 33.894711,16.249507 33.221169,16.639145 32.835952,16.87726 32.721492,16.342775 32.472866,15.43894 32.425002,15.437184 32.405854,15.377266 31.065788,15.383001 30.6934,15.698797 30.65188,15.581924 30.580351,15.385078 30.563342,15.385151 30.55897,15.374572 29.924954,15.407379 29.897554,15.053751 29.80147,14.18583 30.096283,14.170888 30.134241,14.143825 30.145604,14.133762 30.164656,14.13374 30.789783,13.574462 30.973698,13.370022" slic3r:type="contour"/>
    <polygon style="fill: white" points="35.910251,17.121849 36.139095,17.14939 36.356556,17.175332 36.045487,17.882068 36.019072,17.94385 36.038888,18.093539 36.06452,18.236966 35.929792,18.271396 35.930316,18.379902 35.639107,18.356216 34.761768,18.528256 34.794796,18.484924 34.777755,18.223108 34.391532,18.169818 34.43516,17.963201 34.698068,17.024631 34.684076,16.945596 35.621028,16.624789 35.83572,16.558857" slic3r:type="contour"/>
    <polygon style="fill: white" points="37.843604,20.19362 37.915349,20.271379 38.240436,20.318342 38.218388,20.344224 38.130877,20.504974 38.412504,20.810208 38.630925,23.210988 39.072024,23.368744 39.282124,23.432546 38.78406,23.962771 38.708381,24.062354 38.723396,24.227388 38.682682,24.282827 39.014555,26.441373 39.786211,26.780049 40.113084,26.895652 39.691275,27.308018 39.26882,27.803618 38.330755,27.446137 38.124168,27.352894 38.5892,26.824511 38.849402,26.559169 38.142311,24.668511 37.923087,24.18311 37.417615,24.029429 37.332736,23.996526 37.550819,23.71353 37.29148,23.403374 37.092411,23.265104 37.072728,22.169344 36.958028,21.275249 36.370336,21.13885 36.445131,20.992534 36.844587,20.390972 36.830656,20.282372 36.970168,20.03792 37.0235,19.966278" slic3r:type="contour"/>
    <polygon style="fill: white" points="40.380215,30.551322 40.75272,30.699958 40.338299,31.062888 39.846576,31.589604 38.945139,31.211305 38.726,31.09621 39.19624,30.604063 39.651308,30.178424" slic3r:type="contour"/>
    <polygon style="fill: white" points="40.244352,34.33267 40.864444,34.698896 41.135648,34.827008 40.559459,35.294828 40.426347,35.425954 40.443984,35.539455 40.428721,35.553557 40.775012,36.755483 41.149556,38.446236 41.019188,38.700483 40.718827,39.051259 40.831176,39.130164 40.816421,39.14709 41.13236,39.346563 41.046956,39.427511 40.054879,40.29072 39.649575,39.952647 39.075848,39.548964 39.30422,39.364255 39.763014,39.008826 39.750312,38.963668 39.860739,38.861403 39.742112,38.410468 39.07388,35.934524 39.448758,35.403577 39.428508,35.391263 39.436596,35.342854 39.138524,35.2006 39.070876,35.158676 39.544033,34.699763 39.893396,32.60858" slic3r:type="contour"/>
    <polygon style="fill: white" points="40.345055,43.880015 40.596588,44.073212 39.728359,44.836456 39.670288,44.882642 39.885592,45.684215 40.047756,46.421464 39.647859,46.417956 39.142987,46.177856 38.646764,44.994076 38.537324,44.775403 39.115353,44.587718 38.738923,44.18578 38.666368,44.125232 39.351928,43.626799 39.733556,43.362836" slic3r:type="contour"/>
    <polygon style="fill: white" points="29.19898,54.84254 30.839974,54.904835 30.941185,54.968515 31.0869,55.128884 31.030729,55.32325 31.35,55.548736 31.475848,55.703768 30.920066,55.70617 30.860016,55.913959 30.845438,55.975596 30.447008,55.703763 28.919274,55.687092 28.616219,56.520172 28.543392,56.760408 27.831439,56.179855 27.609608,55.976636 28.117518,54.780023 28.122449,54.76608 28.227219,54.866121 28.292386,54.827251 28.281174,54.786284 28.263368,54.721172" slic3r:type="contour"/>
    <polygon style="fill: white" points="26.594108,55.903056 26.804984,56.148556 26.437938,56.960239 26.29889,57.322732 25.74243,56.77384 25.429797,56.432516 25.933913,55.411392 26.002582,55.250212" slic3r:type="contour"/>
    <polygon style="fill: white" points="24.442317,56.185011 24.690808,56.525424 24.294541,57.23604 24.089052,57.663456 23.63881,57.121568 23.29898,56.671939 23.81437,55.773936 23.935972,55.536423" slic3r:type="contour"/>
    <polygon style="fill: white" points="15.497547,54.828422 15.562899,54.86726 15.658629,54.775224 15.667735,54.766063 16.094695,55.734556 16.18046,55.976696 15.432308,56.585711 15.24668,56.760388 14.899103,55.793287 14.865618,55.687465 14.069998,55.696752 13.333398,55.70411 12.99473,55.935223 12.944688,55.975568 12.868069,55.706897 12.675896,55.706859 12.314288,55.703752 12.774713,55.379542 12.703229,55.128876 12.950124,54.904832 14.718383,54.77442 15.52692,54.721192" slic3r:type="contour"/>
    <polygon style="fill: white" points="18.209683,56.079607 18.360328,56.432512 17.753114,57.029507 17.491248,57.322732 17.142788,56.54418 16.985142,56.148556 17.6837,55.371399 17.78754,55.250212" slic3r:type="contour"/>
    <polygon style="fill: white" points="20.284353,56.268731 20.491174,56.671772 19.984632,57.278631 19.701122,57.663472 19.343179,57.016091 19.09933,56.5254 19.704348,55.742063 19.854124,55.536419" slic3r:type="contour"/>
    <polygon style="fill: white" points="22.350005,56.303199 22.593672,56.699776 22.154679,57.342784 21.895064,57.777076 21.508109,57.206483 21.196454,56.699812 21.742385,55.87828 21.895064,55.62926" slic3r:type="contour"/>
  </g></svg>