<svg width="43.790126" height="63.590156" xmlns="http://www.w3.org/2000/svg" xmlns:svg="http://www.w3.org/2000/svg" xmlns:xlink="http://www.w3.org/1999/xlink" xmlns:slic3r="http://slic3r.org/namespaces/slic3r"><g xmlns="http://www.w3.org/2000/svg" slic3r:z="4.45549999999998e-005" id="layer134">
    <polygon style="fill: white" points="4.396977,46.062071 4.415421,46.083604 4.842781,46.228056 5.407159,46.341496 5.269633,46.704863 4.913239,47.408527 4.982732,47.44854 4.936103,47.68714 4.917175,47.91916 3.925731,48.091848 3.92466,48.092307 3.924839,48.08824 3.922525,48.086856 3.925781,48.083306 4.389105,46.114167 4.392525,46.066743 4.393348,46.058391" slic3r:type="contour"/>
    <polygon style="fill: white" points="4.423115,43.418207 4.89126,43.742204 4.401676,44.270439 4.017162,44.607724 3.400222,44.052659 2.890448,43.670556 3.174747,43.428087 3.778702,42.956096" slic3r:type="contour"/>
    <polygon style="fill: white" points="3.953018,37.640244 4.518158,38.680376 4.461188,38.921372 4.401708,39.126838 4.415721,39.139208 4.413697,39.147165 4.517859,39.227852 4.478001,39.261515 4.363466,39.344618 4.049671,40.578095 3.699613,41.686228 2.951954,40.927136 2.554125,40.646715 2.911411,39.436406 2.872933,39.404324 2.883072,39.364383 2.591649,39.13518 2.429646,38.974584 3.033153,38.532987 3.105091,38.489824 3.484453,36.995472" slic3r:type="contour"/>
    <polygon style="fill: white" points="4.171169,34.570692 4.532882,34.883604 4.040912,35.09778 3.4483,35.44842 2.896687,34.991103 2.468899,34.53732 2.771925,34.351528 3.529744,33.971136" slic3r:type="contour"/>
    <polygon style="fill: white" points="4.01989,29.960638 4.014912,29.985824 4.002303,30.037408 4.460173,30.499959 4.907974,30.914504 4.532841,31.0593 3.789602,31.435518 3.364172,31.05171 2.883586,30.501002 3.097906,30.387391 3.99581,30.001676 3.991365,29.961364 4.007947,29.953078 4.011762,29.951636" slic3r:type="contour"/>
    <polygon style="fill: white" points="5.157992,26.876996 5.533417,27.254318 5.129365,27.398784 4.386168,27.725566 3.962688,27.298135 3.547275,26.783754 3.837669,26.652697 4.669078,26.338736" slic3r:type="contour"/>
    <polygon style="fill: white" points="6.094261,23.686266 6.331705,23.953428 5.814854,24.094574 5.165159,24.338898 4.677991,23.798496 4.382473,23.388624 4.858768,23.214739 5.544672,22.996188" slic3r:type="contour"/>
    <polygon style="fill: white" points="7.345865,20.704527 7.338259,20.94362 7.222456,20.994013 7.257635,21.051665 7.276725,21.076 6.977497,21.10594 5.891686,22.123108 5.984726,21.361727 5.939769,21.371782 5.916135,21.343263 5.819287,21.150593 5.833098,20.903639 5.506803,20.507706 5.39462,20.322826 5.873124,20.187896 5.897165,19.758009 5.911841,19.22494 6.486852,19.071864 7.307107,18.781208" slic3r:type="contour"/>
    <polygon style="fill: white" points="8.726576,15.962143 9.45769,16.190369 9.350742,17.42514 9.277973,17.88466 8.649791,17.73362 8.811429,18.1868 8.892228,18.344362 8.33548,18.352842 7.515744,18.493558 7.238704,17.860155 7.02317,17.353142 7.669034,17.275536 8.090319,17.22512 8.184537,16.459115 8.319089,15.819258" slic3r:type="contour"/>
    <polygon style="fill: white" points="11.312186,14.391976 11.320711,14.391605 11.363153,14.417683 12.449433,14.402678 12.454468,14.391514 12.522635,14.394159 12.511237,14.486023 12.492331,14.470158 12.527343,15.306954 12.533787,15.619327 11.938739,15.614768 11.439517,15.613833 11.430393,15.641632 11.419488,15.641793 11.239592,16.310183 11.016971,16.183167 10.19729,15.682103 10.223309,15.564569 10.211049,15.555117 10.255955,15.417102 10.266263,15.370541 10.150849,14.684781 10.087412,14.445246 10.579135,14.423859 10.657108,14.184221 10.737302,14.005912" slic3r:type="contour"/>
    <polygon style="fill: white" points="13.406401,13.064746 14.001071,13.685305 13.515895,14.864835 13.378784,15.200436 12.831799,14.665322 12.525865,14.368124 12.476492,14.320161 12.828593,13.452894 13.148618,12.840649" slic3r:type="contour"/>
    <polygon style="fill: white" points="22.100942,11.011785 22.351703,11.422151 22.514097,11.180187 22.83731,10.713693 23.054405,11.126209 23.315858,11.607083 23.572668,11.263609 23.865736,10.867745 24.130059,11.414157 24.413014,11.973756 24.846061,11.434079 25.069332,11.132662 25.423274,11.893226 25.523074,12.09278 25.530124,12.092767 25.532154,12.096837 26.110297,12.083225 26.425297,11.702622 26.54812,11.524822 26.808699,12.083992 26.824475,12.08405 26.827334,12.089684 27.245302,12.078884 28.430934,12.089293 28.435338,12.08257 28.438437,12.089256 28.455148,12.089621 28.457113,12.125147 29.1537,13.487654 28.711392,13.984052 28.30726,14.429914 28.117808,14.017977 27.824603,13.364488 27.743608,13.365907 27.715682,13.30748 26.907024,13.328317 26.425824,13.891815 26.331852,13.693042 26.172135,13.347252 26.137456,13.348146 26.123659,13.319044 25.652444,13.326938 25.059316,13.340807 24.923408,13.507367 24.896157,13.450282 24.847021,13.34577 24.840668,13.345919 24.838109,13.340358 24.175806,13.346561 24.051685,12.796447 23.766642,13.196016 23.732236,13.244722 23.361699,12.454509 23.280084,12.284834 22.843902,12.959775 22.758336,13.092022 22.398957,12.381297 22.341082,12.271494 21.99738,12.869211 21.895064,13.043738 21.514745,12.374884 21.454744,12.272573 21.116358,12.931377 21.03179,13.092027 20.603365,12.428672 20.511783,12.287103 20.091111,13.175502 20.057866,13.244702 19.743623,12.806164 19.675107,13.105054 19.614266,13.346564 19.072486,13.344603 18.951113,13.34234 18.949482,13.345899 18.942701,13.345853 18.866712,13.507385 18.829392,13.459826 18.735495,13.344442 18.0921,13.340063 17.662027,13.32787 17.652641,13.348151 17.615791,13.347897 17.36431,13.891815 17.229456,13.7297 16.897472,13.340152 16.070979,13.312554 16.0464,13.365838 15.962088,13.366294 15.870312,13.567715 15.48289,14.429899 15.193877,14.103779 14.636357,13.487504 14.875219,12.961573 15.336636,12.11615 15.336616,12.097079 15.335044,12.089576 15.350559,12.0896 15.354742,12.082563 15.360872,12.089465 15.394224,12.089977 16.953751,12.102293 17.118374,11.745336 17.242018,11.524825 17.722732,12.096891 18.247042,12.105784 18.529133,11.497194 18.720796,11.132668 19.108498,11.612632 19.377119,11.965146 19.686543,11.324759 19.924408,10.867754 20.214788,11.255855 20.471377,11.601259 20.673492,11.217342 20.95282,10.713704 21.182915,11.057064 21.431841,11.420344 21.580244,11.169619 21.895064,10.663499" slic3r:type="contour"/>
    <polygon style="fill: white" points="30.860683,13.369769 31.313514,14.320339 31.265328,14.367382 30.555718,15.060169 30.411252,15.200386 30.108047,14.466734 29.789124,13.685004 30.26487,13.259371 30.641542,12.84066" slic3r:type="contour"/>
    <polygon style="fill: white" points="33.192714,14.420167 33.418877,14.429101 33.702604,14.445181 33.601952,15.142981 33.533043,15.427737 33.558567,15.503303 33.579063,15.554713 33.558807,15.570248 33.592812,15.682106 33.185329,15.917832 32.550572,16.310195 32.497434,16.062065 32.382013,15.642468 32.359792,15.641653 32.351448,15.61554 31.256368,15.619331 31.283187,15.031614 31.298636,14.469351 31.278507,14.486421 31.268172,14.393072 31.335476,14.391585 31.339855,14.402093 32.32205,14.400956 32.44902,14.404883 32.469563,14.391598 32.529774,14.393977 32.93689,14.109138 33.052785,14.0059" slic3r:type="contour"/>
    <polygon style="fill: white" points="35.587451,16.698297 35.681226,17.22305 36.225916,17.288602 36.766979,17.35315 36.594055,17.74602 36.274456,18.493518 35.244167,18.402613 34.897908,18.344376 35.105407,17.714252 34.680007,17.822962 34.512144,17.884652 34.501816,17.147049 34.332428,16.190319 34.936919,15.983346 35.471084,15.8193" slic3r:type="contour"/>
    <polygon style="fill: white" points="37.272876,19.013414 37.878128,19.224634 37.925162,20.20077 38.205559,20.278499 38.395463,20.322752 37.955255,20.825358 37.970932,21.15069 37.831526,21.406765 37.898404,22.122656 37.279623,21.382623 36.973856,21.170241 36.941411,21.155372 36.550811,21.088059 36.513415,21.07609 36.566284,20.983455 36.496563,20.951504 36.45194,20.943832 36.565247,19.996372 36.48286,18.78141" slic3r:type="contour"/>
    <polygon style="fill: white" points="38.973748,23.256846 39.407635,23.388604 39.088892,23.727931 38.624659,24.3388 37.82632,24.096076 37.458444,23.953469 37.818675,23.48601 38.245248,22.9963" slic3r:type="contour"/>
    <polygon style="fill: white" points="39.687804,26.587482 40.242848,26.78378 40.025695,26.99607 39.403876,27.725552 38.741236,27.473032 38.256716,27.254344 38.550359,26.920696 39.121048,26.338736" slic3r:type="contour"/>
    <polygon style="fill: white" points="39.798824,29.961302 39.798068,30.001995 40.301803,30.259695 40.906543,30.500998 40.722439,30.66223 40.000524,31.435518 39.371955,31.171731 38.882156,30.914484 39.1693,30.613966 39.787596,30.035653 39.7703,29.960575 39.775735,29.954278 39.778428,29.951574" slic3r:type="contour"/>
    <polygon style="fill: white" points="40.810991,34.296271 41.321224,34.537292 41.009984,34.789992 40.341712,35.448299 39.58828,35.088728 39.257244,34.883576 39.656987,34.495868 40.26038,33.971084" slic3r:type="contour"/>
    <polygon style="fill: white" points="40.642744,38.165432 40.729171,38.555585 41.178304,38.87102 41.360464,38.974648 40.901356,39.332874 40.9172,39.404392 40.896305,39.422573 41.088643,40.025643 41.236008,40.646528 40.713876,41.245488 40.090836,41.686152 39.430753,39.339329 39.272256,39.227808 39.306856,39.199823 39.376367,39.145973 39.374443,39.139132 39.391546,39.123294 39.27196,38.680204 39.422251,38.467336 40.30574,36.99574" slic3r:type="contour"/>
    <polygon style="fill: white" points="40.426084,43.306812 40.899672,43.670567 40.409599,44.101384 39.77288,44.607776 39.188939,43.984267 38.898876,43.742204 39.369824,43.399799 40.01136,42.956056" slic3r:type="contour"/>
    <polygon style="fill: white" points="39.39742,46.067272 39.40166,46.110588 39.560996,46.703792 39.864475,48.083485 39.867631,48.086856 39.865209,48.088654 39.8655,48.092308 39.015856,47.972928 38.872883,47.919252 38.807324,47.448576 38.896789,47.397734 38.820495,47.215731 38.382964,46.341504 38.81424,46.201472 39.375419,46.080565 39.393348,46.0624 39.39678,46.058392" slic3r:type="contour"/>
    <polygon style="fill: white" points="31.340429,54.436248 32.644663,54.474876 32.867352,54.632148 33.251963,55.105955 33.246936,55.12738 33.338737,55.186384 33.384367,55.225716 33.218003,55.250681 33.203176,55.313863 33.200408,55.33122 33.068126,55.25889 31.135113,55.26775 30.893636,56.103327 30.834914,56.351604 30.094228,55.846264 29.84352,55.650116 30.283725,54.440788 30.293021,54.408992 30.55481,54.626486 30.616114,54.587756 30.572251,54.415503 30.54041,54.308376" slic3r:type="contour"/>
    <polygon style="fill: white" points="28.685916,55.667668 28.951696,55.934384 28.665312,56.721632 28.537056,57.144716 27.996717,56.704103 27.59674,56.337687 28.013163,55.356616 28.10076,55.10892" slic3r:type="contour"/>
    <polygon style="fill: white" points="26.456693,56.121719 26.799736,56.521084 26.503387,57.176428 26.295652,57.71798 25.900177,57.327883 25.420166,56.80382 25.822192,55.989487 25.986798,55.603116" slic3r:type="contour"/>
    <polygon style="fill: white" points="24.32066,56.4018 24.689392,56.906935 24.377089,57.466984 24.087888,58.06852 23.786401,57.705667 23.292736,57.0525 23.695787,56.350228 23.92733,55.897976" slic3r:type="contour"/>
    <polygon style="fill: white" points="13.179508,54.585639 13.240978,54.624261 13.476203,54.427416 13.497105,54.408992 13.868152,55.382187 13.946601,55.650084 13.156785,56.189071 12.955206,56.35158 12.676011,55.372564 12.650379,55.26933 11.872482,55.26918 10.717514,55.259261 10.604229,55.321272 10.589657,55.331204 10.571285,55.250935 10.517326,55.2432 10.405791,55.225752 10.545153,55.136761 10.538124,55.106051 11.145415,54.47492 12.708244,54.340435 13.249702,54.308375" slic3r:type="contour"/>
    <polygon style="fill: white" points="16.038692,55.901167 16.193326,56.337748 15.579935,56.837064 15.253021,57.144692 14.989227,56.410708 14.83847,55.934288 15.52757,55.271783 15.689425,55.108908" slic3r:type="contour"/>
    <polygon style="fill: white" points="18.13866,56.261968 18.36996,56.803812 17.885714,57.279911 17.49449,57.717979 17.246841,57.164667 16.99039,56.521084 17.554396,55.893623 17.803318,55.603112" slic3r:type="contour"/>
    <polygon style="fill: white" points="20.196968,56.466828 20.49742,57.052332 20.101283,57.526916 19.70228,58.068536 19.462595,57.635039 19.100748,56.9069 19.577573,56.289536 19.862766,55.897968" slic3r:type="contour"/>
    <polygon style="fill: white" points="22.245441,56.513871 22.596276,57.084867 22.254569,57.58538 21.895064,58.186764 21.642559,57.814431 21.193836,57.08492 21.61878,56.445455 21.895064,55.994832" slic3r:type="contour"/>
  </g></svg>