<svg width="43.790126" height="63.590156" xmlns="http://www.w3.org/2000/svg" xmlns:svg="http://www.w3.org/2000/svg" xmlns:xlink="http://www.w3.org/1999/xlink" xmlns:slic3r="http://slic3r.org/namespaces/slic3r"><g xmlns="http://www.w3.org/2000/svg" slic3r:z="9.90499999999999e-006" id="layer29">
    <polygon style="fill: white" points="37.30644,24.697628 37.658916,24.862558 37.191891,25.450708 37.494875,25.54144 37.895011,25.549462 37.755983,25.839358 37.711572,26.059619 38.180796,26.27592 37.972632,26.559109 37.520977,27.004893 37.500667,27.10562 37.378953,27.280248 37.201957,27.204089 36.413668,27.13722 36.156372,27.050878 36.21847,26.780906 36.141192,26.747654 36.047756,26.72805 36.281378,26.507415 36.336231,26.26894 36.427416,26.155234 36.548608,25.720063 36.066604,25.488982 35.55762,25.29577 35.843604,25.071842 36.418,24.434292" slic3r:type="contour"/>
    <polygon style="fill: white" points="36.770124,23.133504 37.391544,23.530025 37.066995,23.76365 36.405108,24.31045 36.366706,24.342174 36.357359,24.349896 35.98094,24.201324 35.295628,23.718068 35.471023,23.61671 36.278568,22.974882" slic3r:type="contour"/>
    <polygon style="fill: white" points="22.099377,0.508983 22.44602,0.99762 22.449676,0.997429 22.490579,1.055025 22.860733,0.645486 23.187032,0.294612 23.352539,0.606215 23.627631,1.117222 23.632271,1.117464 23.678207,1.202209 24.101066,0.843492 24.474158,0.543785 24.597932,0.873779 24.797426,1.407735 24.809074,1.40985 24.850588,1.516567 25.334716,1.21145 25.738532,0.980412 25.819076,1.336389 25.940908,1.908692 25.965914,1.917272 25.990847,2.0183 26.557803,1.768768 26.960044,1.619749 26.992511,2.01888 27.026046,2.65446 27.060596,2.682481 27.071558,2.6885 27.071906,2.691654 27.110622,2.723053 27.759932,2.54339 28.110388,2.47131 28.08539,2.941292 28.030123,3.468782 28.158559,3.572946 28.39387,3.557397 28.45776,3.623303 28.928276,3.55405 29.192236,3.534303 29.096304,4.090167 29.059165,4.243686 29.488068,4.686124 29.573259,4.764682 29.748793,4.770944 29.782708,4.814902 30.057188,4.801706 30.221214,4.806236 30.105067,5.232716 30.370953,5.577335 30.958218,6.246473 31.032872,6.25523 31.045356,6.275483 31.149503,6.278156 31.218766,6.285743 31.158283,6.458691 31.276203,6.649996 32.138777,7.855033 32.188017,7.968256 32.206154,7.97143 32.196509,7.991587 33.076932,9.682625 33.128309,9.761894 33.178791,9.772678 33.159506,9.810027 33.161755,9.813499 33.15428,9.83153 33.322382,10.0407 33.907813,11.56696 33.996748,11.588486 34.000516,11.611129 34.079871,11.626625 34.171083,11.653121 34.056342,11.946558 34.289413,13.346972 34.562132,13.423685 34.561326,13.493719 34.852444,13.573634 35.244504,13.715774 35.134416,14.063303 34.966327,14.375884 35.041936,14.441043 35.019768,14.502946 35.868324,14.989612 35.633112,15.81998 35.621094,15.913001 35.761626,15.980019 36.0937,16.104126 36.37848,16.24287 36.217484,16.696969 36.004908,17.087283 36.113296,17.180656 36.881036,17.78766 36.539224,18.306988 36.375794,18.68924 36.866955,18.929281 37.17422,19.094856 36.911659,19.492774 36.65988,19.826118 36.757047,19.952593 37.402592,20.850556 36.922345,21.348844 37.24116,21.552114 37.41652,21.675668 36.840351,22.098502 36.32908,22.487984 35.7076,22.113828 35.368704,21.818742 35.912872,21.337067 36.011117,21.268386 35.746299,20.941845 35.358644,20.525418 35.572076,20.389564 35.875828,19.969022 35.803659,19.931091 35.231524,19.591966 35.549008,19.157137 35.85209,18.787086 35.33482,18.419878 34.90246,18.104316 35.069908,17.830023 35.279705,17.37141 35.302792,17.286672 35.024719,17.170301 34.534668,16.992434 34.801366,16.466752 34.862757,16.268633 34.432492,16.052466 34.055516,15.805611 34.130008,15.313911 34.227513,14.856036 34.207896,14.8496 34.1874,14.703011 33.76984,14.565613 33.409854,14.500515 33.651506,14.013914 33.592436,13.984775 33.656748,13.784539 33.245366,13.555857 32.652278,13.045681 32.557812,12.663012 32.541729,12.510662 32.526903,12.506624 32.501348,12.448909 32.30264,12.430084 32.368212,12.346773 32.411606,12.246236 31.925419,11.14823 31.801445,10.727777 31.769652,10.720818 31.715658,10.631025 31.33557,10.606327 31.441738,10.465339 31.51799,10.302295 30.955371,9.366642 30.76599,8.960258 30.743586,8.956644 30.705471,8.906004 30.427126,8.896703 30.490521,8.800752 30.541431,8.688056 29.539512,7.35689 29.524798,7.320398 29.518156,7.320575 29.521495,7.313945 28.924634,5.968387 28.745238,5.967163 28.615188,5.980448 28.765319,5.609233 28.738158,5.548 28.744991,5.526337 28.288348,4.789914 27.965135,4.82175 27.718466,4.87193 27.858679,4.389418 27.916435,4.089194 27.873604,4.00857 27.67571,3.75814 27.165862,3.876728 26.821028,3.991202 26.881538,3.602793 26.928143,2.917253 26.873069,2.896803 26.322893,3.118185 25.909156,3.318735 25.908692,3.011861 25.868324,2.446825 25.679992,2.359497 25.388584,2.535366 24.956068,2.82332 24.911787,2.567286 24.801215,2.059232 24.551204,1.975025 24.376177,2.121043 23.96349,2.482901 23.885288,2.255322 23.707051,1.770437 23.446668,1.716562 23.309007,1.86877 22.940032,2.286177 22.830399,2.074346 22.583401,1.603124 22.336271,1.585226 22.209575,1.767137 21.895064,2.223932 21.756886,2.02617 21.45046,1.583031 21.210006,1.600423 21.110663,1.791615 20.850094,2.286181 20.688969,2.109178 20.33268,1.709538 20.094605,1.758705 20.02426,1.958983 19.82666,2.482901 19.637099,2.327027 19.215279,1.963948 19.007156,2.034093 18.958668,2.29251 18.834058,2.823319 18.598837,2.685481 18.076811,2.350304 17.939179,2.414797 17.928744,2.820057 17.88097,3.31874 17.568275,3.200125 16.86578,2.881834 16.953014,3.5839 16.969098,3.991206 16.538369,3.90302 16.070203,3.765476 15.904411,3.969116 15.912864,4.015387 15.888989,4.052488 16.026373,4.592381 16.07166,4.871909 15.507934,4.833751 15.39786,4.81569 15.04591,5.362612 15.017514,5.426412 15.051988,5.548008 15.039763,5.570158 15.138047,5.840402 15.174937,5.980444 14.804853,5.995822 14.618078,6.33426 14.26763,7.30863 14.271904,7.32058 14.261764,7.32194 14.25059,7.356881 13.431972,8.337991 13.254542,8.622766 13.362975,8.896705 13.229105,8.933159 13.050779,8.949808 13.046518,8.956646 12.956224,8.976366 12.547453,9.626342 12.285637,10.170125 12.454563,10.606341 12.252928,10.680148 12.025622,10.710168 12.020485,10.720838 11.913998,10.752376 11.56658,11.602943 11.391779,12.123659 11.487481,12.430088 11.37332,12.482341 11.265521,12.499766 11.263217,12.50663 11.224527,12.521087 11.137874,13.04564 10.231048,13.607222 10.145371,13.66689 10.197692,13.984742 10.183065,13.990782 10.307862,14.258768 10.380277,14.500502 9.987457,14.676537 9.588861,14.763227 9.582187,14.849633 9.542019,14.865237 9.734575,15.805678 8.928767,16.219549 8.978895,16.434999 9.120517,16.714524 9.255469,16.992412 8.918468,17.148322 8.512164,17.299653 8.887651,18.104356 8.278611,18.537469 7.921672,18.79481 8.290834,19.299343 8.558603,19.591952 8.316918,19.709277 7.966021,19.912776 8.431489,20.525394 7.874136,21.201153 7.767264,21.323783 8.138998,21.648846 8.421418,21.81873 8.044883,22.014922 7.461179,22.487978 6.57807,21.831644 6.373599,21.67566 6.833068,21.389723 6.589177,21.132214 6.38753,20.850584 6.761996,20.412421 7.159419,19.836015 6.93753,19.518728 6.615909,19.094852 7.132217,18.846081 7.362322,18.726356 7.056449,18.246598 6.909108,17.787598 7.292997,17.42769 7.805643,17.032677 7.635144,16.640473 7.411649,16.24283 7.966399,16.03983 7.960794,16.012291 8.065257,15.968948 7.9253,15.507904 7.921786,14.989631 8.349992,14.626829 8.803922,14.382404 8.867535,14.315384 8.797316,14.140092 8.545618,13.715804 9.091012,13.567431 9.213786,13.528071 9.228005,13.423688 9.420701,13.371193 9.475029,12.660705 9.719457,11.83753 9.674574,11.739101 9.619036,11.653156 9.783235,11.622739 9.793397,11.588516 9.84889,11.576142 9.913362,11.345448 10.467794,10.04063 10.598567,9.852743 10.638886,9.813279 10.611363,9.772647 10.653168,9.766425 11.591578,7.98397 11.583965,7.971434 11.597525,7.970136 11.65112,7.855415 12.634057,6.433428 12.601205,6.347111 12.571362,6.285715 12.736298,6.285518 12.757249,6.255209 12.80986,6.250388 13.041086,5.955012 13.69413,5.181957 13.626122,4.954245 13.568945,4.806207 13.985891,4.836577 14.041343,4.770935 14.167953,4.769113 14.742231,4.185441 14.66333,3.780783 14.597889,3.534292 15.132165,3.626691 15.305988,3.643673 15.396235,3.557387 15.606257,3.575127 15.765761,3.447408 15.72131,2.815886 15.679738,2.471297 16.114211,2.603274 16.665631,2.728465 16.767628,2.651083 16.811142,2.042346 16.830084,1.61975 17.183754,1.785308 17.798408,2.025308 17.824298,1.917392 17.851757,1.907572 17.956119,1.436274 18.051594,0.980406 18.352921,1.177394 18.937625,1.521564 18.981027,1.409713 18.99311,1.407441 19.14723,0.995875 19.315984,0.543792 19.581119,0.773564 20.110162,1.205266 20.15793,1.117514 20.161334,1.11733 20.373537,0.719697 20.603094,0.294611 20.838245,0.557764 21.298232,1.05646 21.340361,0.997384 21.342667,0.997509 21.618003,0.605674 21.895064,0.216664" slic3r:type="contour"/>
    <polygon style="fill: white" points="7.909587,23.216656 8.494497,23.718068 8.333833,23.77292 7.432789,24.349896 6.946909,23.98501 6.398574,23.530038 6.709399,23.473594 7.511577,22.974872" slic3r:type="contour"/>
    <polygon style="fill: white" points="7.850731,24.836545 8.232508,25.295784 7.753493,25.525255 7.222511,25.744771 7.289842,26.049293 7.453886,26.268922 7.487868,26.439218 7.672135,26.627618 7.742355,26.728098 7.560789,26.804636 7.577918,26.89047 7.633723,27.050954 7.088804,27.023262 6.911892,27.078173 6.49388,27.254384 6.418092,27.277212 6.289412,27.10559 6.247893,26.941724 5.96734,26.594153 5.609346,26.27589 5.867663,26.201783 6.039817,26.120497 5.895129,25.549446 6.422113,25.37791 6.580592,25.358854 6.321038,25.048603 6.131216,24.86255 6.669322,24.765626 7.372278,24.434364" slic3r:type="contour"/>
    <polygon style="fill: white" points="6.45515,27.498926 6.480201,27.522129 6.512048,27.662964 6.93789,28.081263 7.161513,28.319322 6.711604,28.545422 6.782121,28.857256 6.887961,29.378208 6.57606,29.419554 5.711775,29.614524 5.730895,29.688521 6.234892,30.0647 6.646073,30.274121 5.965689,30.764493 5.969249,30.785444 5.873455,30.869681 6.024935,31.643552 6.07369,32.413641 6.192064,32.48208 6.368296,32.53237 6.095098,32.751771 6.098512,32.805697 6.043599,32.862781 6.114667,33.308455 6.159766,34.809016 6.223932,34.840135 6.347509,34.86408 6.166072,35.01886 6.16795,35.0813 6.122758,35.133909 6.186614,35.54426 6.256279,37.161792 6.343043,37.198496 6.518608,37.226516 6.268788,37.452227 6.273522,37.562132 6.210278,37.642443 6.338501,38.308236 6.445082,39.500387 6.582902,39.550019 6.837759,39.5862 6.483875,39.934305 6.498895,40.102304 6.429035,40.198888 6.681602,41.092312 6.80514,41.801034 6.995078,41.853348 7.294122,41.878964 6.89799,42.333705 6.928798,42.510448 6.871883,42.599139 7.244077,43.554587 7.368292,44.004376 7.592691,44.041424 7.910288,44.041112 7.526451,44.577077 7.572327,44.743196 7.536058,44.810087 8.009437,45.713828 8.14429,46.04777 8.383053,46.054375 8.700196,46.017488 8.371199,46.60967 8.428919,46.752604 8.412598,46.790857 8.966921,47.577972 9.134864,47.869661 9.370136,47.836211 9.672586,47.756508 9.429537,48.381462 9.49364,48.492799 9.491112,48.501373 10.107321,49.137628 10.340551,49.417633 10.571935,49.3425 10.846434,49.223704 10.703139,49.852939 10.761067,49.922485 11.408256,50.421552 11.738253,50.708778 11.953894,50.599588 12.195196,50.452196 12.141093,51.059406 12.175605,51.089446 12.84664,51.481291 13.271377,51.756997 13.467659,51.621284 13.679978,51.451112 13.699382,52.038432 14.410781,52.353764 14.879255,52.583622 15.061487,52.422571 15.255973,52.226452 15.339748,52.81168 16.096351,53.064488 16.504312,53.215335 16.682602,53.020099 16.876018,52.784792 17.027008,53.406131 17.876882,53.603176 18.149238,53.673245 18.329715,53.433016 18.527866,53.150584 18.755555,53.819589 19.700176,53.947632 19.821433,53.965922 20.00263,53.676407 20.203188,53.34966 20.507855,54.049843 21.525873,54.094888 21.700508,53.762623 21.895064,53.407372 22.240998,54.064564 22.25946,54.098954 23.212821,54.056836 23.265322,54.05425 23.416397,53.705668 23.586954,53.34966 23.978634,53.975949 24.856101,53.857308 25.010319,53.833845 25.126684,53.489372 25.262246,53.150588 25.662777,53.684977 26.457234,53.501039 26.713491,53.434492 26.716176,53.425967 26.739579,53.418137 26.815984,53.099443 26.914106,52.784791 27.315402,53.22545 28.047315,52.980532 28.401666,52.848704 28.405369,52.83166 28.428822,52.821205 28.470317,52.523492 28.534156,52.226452 28.945593,52.590817 29.668089,52.268712 30.039271,52.086617 30.041542,52.066768 30.067925,52.051219 30.076566,51.752103 30.11011,51.451128 30.5593,51.761629 31.30491,51.322207 31.592549,51.136296 31.592728,51.1084 31.624108,51.083878 31.594878,50.771224 31.594908,50.452188 32.103892,50.708951 32.880944,50.101727 33.029059,49.973697 33.024128,49.9284 33.060586,49.890023 32.98497,49.564296 32.943712,49.223704 33.518505,49.408 34.314455,48.570153 34.296484,48.492776 34.335307,48.436075 34.207375,48.110579 34.117544,47.756504 34.742895,47.840794 35.403917,46.875377 35.361224,46.752636 35.398151,46.679503 35.225444,46.370344 35.089932,46.017516 35.745636,45.991347 36.291839,44.909649 36.217796,44.743171 36.249702,44.65759 36.049444,44.378516 35.87984,44.041112 36.523274,43.923774 36.971494,42.721493 36.861312,42.510512 36.886062,42.418716 36.681912,42.18446 36.495992,41.879024 37.078313,41.705661 37.389104,40.552951 37.424315,40.332425 37.291236,40.102316 37.307507,40.014226 37.128959,39.838887 36.952363,39.586196 37.419958,39.405423 37.58376,38.518604 37.633221,37.748159 37.516596,37.562112 37.524791,37.504146 37.403823,37.395959 37.271532,37.226536 37.584087,37.084733 37.673856,36.449779 37.706399,35.203104 37.622176,35.081256 37.626412,35.048436 37.542884,34.978544 37.44262,34.864056 37.665144,34.748361 37.740724,34.162796 37.79401,32.933388 37.691568,32.805626 37.695885,32.776976 37.576691,32.683337 37.421824,32.532348 37.764801,32.319617 37.973478,30.934747 37.820843,30.785441 37.823834,30.771943 37.538375,30.567239 37.144052,30.274152 37.409295,30.063548 38.134626,29.623624 37.43992,29.508128 36.902152,29.378212 37.090538,28.520776 36.876455,28.409897 36.62858,28.319304 37.030691,27.932248 37.275664,27.678177 37.309943,27.52215 37.327715,27.505474 37.37794,27.310042 38.026871,27.415779 38.626168,27.489028 38.542828,27.734403 38.491654,27.952082 38.887148,28.186508 38.675955,28.381982 38.276283,28.734654 38.08607,29.558732 38.72696,29.640326 39.332951,29.858528 39.266544,30.190898 39.21879,30.372964 39.22694,30.379237 39.219011,30.471255 39.527579,30.703216 39.344816,30.791109 39.181344,30.908385 39.121688,31.600695 38.990702,32.329302 39.075308,32.408974 39.066556,32.678019 39.326215,32.951389 39.779916,33.338358 39.329383,33.421662 39.012933,33.601131 38.879776,34.596353 39.013212,34.741875 39.002623,35.03786 39.383952,35.501355 39.72614,35.825576 39.258268,35.84016 38.946907,35.985464 38.79768,37.143509 38.925436,37.299612 38.902061,37.588013 39.027304,37.75864 39.4734,38.223548 39.103559,38.208444 38.843338,38.312599 38.814352,38.670243 38.624556,39.803849 38.71882,39.932136 38.683581,40.135731 39.081424,40.599512 38.821776,40.581328 38.592897,40.659665 38.441276,41.535671 38.231043,42.341677 38.29718,42.444268 38.257801,42.581791 38.557648,42.979644 38.349287,42.961224 38.13238,43.019792 37.843768,44.027699 37.595646,44.694865 37.648492,44.793304 37.603456,44.898791 37.858416,45.30464 37.660244,45.27638 37.425047,45.316669 37.048336,46.199027 36.727141,46.828154 36.772164,46.936808 36.718523,47.024301 36.951316,47.502552 36.734347,47.452528 36.44803,47.465508 36.068375,48.084768 35.633684,48.709877 35.668824,48.836312 35.608344,48.905318 35.806108,49.504348 35.554268,49.415068 35.19671,49.374986 34.909591,49.702584 34.320702,50.313797 34.339024,50.440415 34.275763,50.493328 34.409264,51.220956 34.121155,51.078215 33.717082,50.960615 33.588019,51.068564 32.83475,51.649994 32.837686,51.770456 32.776063,51.809122 32.776882,51.853596 32.820624,52.647668 32.505743,52.444371 32.07923,52.244296 31.219859,52.745131 31.210362,52.855612 31.154183,52.882308 31.135373,53.092644 31.09337,53.79724 30.768423,53.533547 30.346969,53.259482 29.516055,53.626419 29.497666,53.723724 29.443899,53.743012 29.386888,54.040427 29.281362,54.68178 28.968123,54.368863 28.582999,54.04536 27.754918,54.321049 27.730505,54.406132 27.685977,54.417285 27.610701,54.677128 27.440946,55.311596 27.162556,54.974332 26.829844,54.628104 25.946218,54.83242 25.920804,54.899372 25.891432,54.903711 25.830974,55.061643 25.589134,55.718295 25.350919,55.377115 25.071541,55.024082 24.111658,55.154046 24.089033,55.202612 24.079184,55.20309 24.05518,55.254227 23.73788,55.93554 23.534471,55.599131 23.297577,55.241002 23.251676,55.243227 22.291915,55.28572 22.276587,55.31372 21.895064,55.997148 21.713823,55.658991 21.503319,55.282637 21.431424,55.27914 20.509698,55.238385 20.46441,55.310015 20.052248,55.935524 19.880047,55.571643 19.70848,55.202958 19.701102,55.202632 19.673019,55.14306 18.745341,55.017715 18.622275,55.183396 18.20096,55.718268 18.040087,55.313851 17.888993,54.902007 17.869404,54.89936 17.836411,54.81652 16.992476,54.621597 16.772903,54.868711 16.349152,55.311584 16.21027,54.867003 16.089874,54.413122 16.059539,54.406116 16.026763,54.301783 15.242806,54.04048 14.949214,54.310767 14.508749,54.681756 14.406281,54.214291 14.328975,53.735887 14.29246,53.723716 14.265904,53.603487 13.487707,53.258325 13.19404,53.473716 12.69677,53.797252 12.642232,53.340508 12.615881,52.871635 12.579766,52.855616 12.562952,52.71546 11.772536,52.251659 11.548868,52.377216 10.96951,52.647692 10.962062,52.225244 10.987803,51.791193 10.952449,51.770448 10.950037,51.608209 10.154333,50.98827 10.046609,51.031276 9.380857,51.220919 9.413823,50.847371 9.485608,50.467261 9.451049,50.440336 9.468331,50.261186 9.353363,50.131384 8.68983,49.433919 7.98402,49.504351 8.0479,49.185995 8.154054,48.870745 8.121278,48.836292 8.16197,48.648208 7.913075,48.24742 7.430803,47.541317 6.838822,47.502536 6.922051,47.23322 7.047273,46.979779 7.017958,46.93686 7.077467,46.759279 6.798851,46.113316 6.447414,45.407483 5.931695,45.304624 6.029588,45.060192 6.166911,44.844114 6.14162,44.79332 6.219561,44.615755 6.011758,43.885088 5.741642,43.134989 5.232487,42.979648 5.355232,42.720919 5.516318,42.509273 5.492922,42.444304 5.601582,42.237586 5.514253,41.695816 5.295225,40.823696 4.708701,40.599532 4.882893,40.270575 5.094979,40.026353 5.071314,39.932124 5.23983,39.647099 5.237491,39.606056 5.053087,38.465184 4.753288,38.41798 4.316727,38.223532 4.587363,37.757316 4.888773,37.448607 4.86469,37.299612 5.045128,37.020835 4.937048,36.102498 4.346015,35.97224 4.063986,35.825544 4.43117,35.26326 4.798476,34.92509 4.776915,34.741888 4.946126,34.50815 4.858251,33.710722 4.297243,33.520402 4.010195,33.338362 4.389264,32.842639 4.731666,32.562015 4.714801,32.408973 4.839879,32.262525 4.655912,31.010487 4.262541,30.703194 4.430361,30.525919 4.569944,30.425409 4.563158,30.379228 4.579838,30.364063 4.457153,29.858568 4.733752,29.839328 5.583606,29.592673 5.593662,29.586092 5.597194,29.588728 5.703794,29.55779 5.510586,28.723735 5.284582,28.517963 4.902968,28.18645 5.13273,28.041096 5.282996,27.952791 5.163954,27.48895 5.476606,27.435649 6.412182,27.309928" slic3r:type="contour"/>
  </g></svg>