<svg width="43.790126" height="63.590156" xmlns="http://www.w3.org/2000/svg" xmlns:svg="http://www.w3.org/2000/svg" xmlns:xlink="http://www.w3.org/1999/xlink" xmlns:slic3r="http://slic3r.org/namespaces/slic3r"><g xmlns="http://www.w3.org/2000/svg" slic3r:z="2.70649999999999e-005" id="layer81">
    <polygon style="fill: white" points="2.848333,50.427635 3.42965,50.921388 3.394016,50.978146 3.4454,50.998936 3.420454,51.035523 3.345053,51.128768 3.212303,51.794572 3.11125,52.278549 3.223121,52.315675 3.809105,52.49468 3.668835,52.676248 3.184861,53.260384 3.33149,53.764409 3.698297,53.829011 4.341017,53.916016 4.239833,54.096007 3.923808,54.670051 4.417126,55.285622 5.135574,55.24566 5.097768,55.35724 4.994408,55.694561 6.129702,56.416503 6.223655,56.479723 6.250595,56.472744 6.248434,56.489628 6.302722,56.51042 7.371056,57.695536 7.675709,57.574327 7.783423,57.527408 7.803608,58.159051 8.748893,58.958368 9.43237,58.59518 9.638088,58.47666 9.739411,59.151008 9.834453,59.654728 8.999747,60.16376 8.785553,60.279328 8.62966,59.490592 8.606245,59.331135 7.603755,59.071892 7.351261,59.021338 7.223027,59.072488 7.14871,59.04379 6.817063,59.1972 6.73294,59.229968 6.702847,58.871625 6.394862,58.7527 5.726336,58.533863 5.356938,58.092032 5.187186,57.914297 5.175503,57.917471 5.170361,57.908315 4.932805,57.956324 4.938071,57.887 4.964007,57.680626 4.95445,57.670619 4.964576,57.541898 4.679442,57.034192 4.311958,56.479456 4.311432,56.479488 4.310524,56.477292 4.280138,56.431422 3.541737,56.43234 3.601322,56.226231 3.788573,55.689378 3.774745,55.668504 3.836236,55.448364 3.591441,54.956135 3.213278,54.89752 2.547216,54.781432 2.693123,54.501723 3.127928,53.754494 2.965205,53.390545 2.446506,53.230096 1.904526,53.08424 2.10488,52.818276 2.455884,52.374649 1.971192,51.638776 1.51192,51.482304 1.596959,51.356692 1.662269,51.279308 1.426151,51.059763 1.598868,50.788948 2.221697,49.865104" slic3r:type="contour"/>
    <polygon style="fill: white" points="2.142692,45.085427 2.607987,45.383304 2.16325,45.923103 1.845731,46.345448 2.468994,46.935559 2.846456,47.312224 2.611416,47.659124 2.183618,48.233162 2.479787,48.401359 3.04241,48.704276 2.724291,49.120259 2.205588,49.78364 1.467433,49.348803 1.089576,49.142404 1.357043,48.808071 1.793594,48.273534 1.440587,47.926415 0.835807,47.342416 1.327644,46.697428 1.524382,46.439545 1.475938,46.405308 1.512677,46.354802 0.928985,45.971092 0.639751,45.757608 0.981283,45.31424 1.526593,44.65224" slic3r:type="contour"/>
    <polygon style="fill: white" points="1.857746,41.094216 2.260318,41.381136 1.743338,41.931211 1.546232,42.187216 1.612387,42.285543 1.604373,42.295577 2.104612,42.820224 2.396416,43.178944 2.078469,43.670792 1.501682,44.341032 0.799498,43.530828 0.384886,43.100664 0.988266,42.384235 0.921284,42.326028 0.983228,42.235318 0.512426,41.898059 0.276751,41.669428 0.656584,41.156204 1.218146,40.544704" slic3r:type="contour"/>
    <polygon style="fill: white" points="1.898088,36.950128 2.196671,37.19024 1.605452,37.688041 1.676815,37.866292 1.644264,37.903028 1.970485,38.341771 2.174831,38.707852 1.788765,39.32098 1.185577,39.911804 0.432286,38.70124 0.172425,38.368808 0.605743,37.909364 0.530018,37.82642 0.586411,37.744545 0.323906,37.52902 0.187172,37.348776 0.669074,36.737435 1.241037,36.230952" slic3r:type="contour"/>
    <polygon style="fill: white" points="2.159643,32.32744 2.19959,32.604623 2.478876,32.990853 2.623749,33.117526 2.302109,33.315986 2.318244,33.427944 2.276556,33.466562 2.400248,33.7318 2.480736,34.018648 1.933129,34.763096 1.300243,35.245228 0.643053,33.241046 0.568523,33.133137 0.597645,33.10257 0.597434,33.101928 0.609734,33.089407 0.588645,33.011234 0.627188,32.98275 1.895815,31.471018" slic3r:type="contour"/>
    <polygon style="fill: white" points="3.92911,24.914614 3.936682,25.260793 4.321714,25.874144 4.620071,26.12801 3.94514,26.41392 3.866646,26.460125 3.83103,26.696286 3.684962,26.790617 3.758229,27.523672 3.671048,28.873483 3.536885,29.016976 3.349919,29.102943 3.406568,29.193418 3.353508,29.251128 3.514274,29.389298 3.415052,29.440525 2.714627,29.946008 2.699541,29.962416 2.670806,29.977632 2.212197,30.308602 1.723585,29.83363 1.430135,29.302332 1.737357,29.039244 2.097179,28.838151 2.087703,28.726542 2.343655,28.519767 2.349543,27.597189 2.324123,26.37784 2.600535,26.259683 2.532591,26.135798 2.559061,26.112238 2.484134,26.03772 2.45848,25.986571 3.20814,25.439189 3.424892,25.341655 3.928644,24.89332" slic3r:type="contour"/>
    <polygon style="fill: white" points="4.015889,24.858752 4.012769,24.86197 3.989373,24.871688 4.012198,24.85543 4.013466,24.854898" slic3r:type="contour"/>
    <polygon style="fill: white" points="4.190052,24.295384 4.169544,24.385747 4.091423,24.431938 4.064828,24.40592 4.013671,24.312036 4.195503,24.14305" slic3r:type="contour"/>
    <polygon style="fill: white" points="19.265356,3.979813 19.261716,4.065525 19.547708,3.960564 19.630215,4.288062 19.74285,4.067312 19.765141,4.13325 19.815912,4.09795 19.838896,4.178164 19.838363,4.213337 19.891073,4.250015 19.937757,4.270345 20.052146,4.135346 20.070026,4.232865 20.094654,4.315488 20.320079,4.344099 20.413731,4.356065 20.53559,4.182124 20.574253,4.282841 20.61532,4.365386 20.960922,4.372076 21.060402,4.377116 21.172488,4.199925 21.223162,4.295576 21.271843,4.380155 21.683254,4.38032 21.784511,4.381361 21.895064,4.199759 21.95311,4.294757 22.00714,4.383494 22.413285,4.383328 22.512173,4.38232 22.617664,4.199925 22.681293,4.293545 22.738467,4.383626 23.065831,4.377465 23.158445,4.372807 23.254532,4.182136 23.332687,4.277328 23.387405,4.354871 23.598192,4.328107 23.681559,4.317461 23.738003,4.13535 23.853097,4.24375 23.928507,4.200777 23.983719,4.176358 23.974214,4.09795 24.012939,4.122857 24.047283,4.067311 24.162712,4.160944 24.289351,4.331486 24.305108,4.120292 24.242442,3.960555 24.495808,4.227843 24.622801,4.272307 24.595862,4.199391 24.73862,4.162612 24.798591,4.099975 24.719012,3.732609 24.757165,3.876595 24.937299,3.955101 25.104208,3.780773 25.153101,4.055829 25.526682,3.959584 25.47055,4.147751 25.550022,4.222139 25.756092,4.311949 26.275609,4.309027 26.325103,4.313059 26.325103,4.31306 26.326272,4.313155 26.328495,4.313336 26.328496,4.313336 26.324983,4.317093 26.30118,5.120454 26.495587,5.181493 26.554895,5.172464 26.888558,5.032684 26.866387,5.051036 26.897431,5.120315 26.942236,5.113494 26.923032,5.330885 26.835256,5.871112 26.908383,5.885172 27.173952,5.771101 27.29954,5.783415 27.451366,5.701191 27.604686,5.638931 27.624569,5.815287 27.715291,5.824182 27.8872,5.78039 27.739544,6.129977 27.828206,6.492465 27.906303,6.500072 28.122772,6.343522 28.464808,6.126418 28.550498,6.562816 28.822049,6.589265 29.501136,6.550685 29.524945,6.682258 29.63648,7.314849 30.165992,7.408862 30.285507,7.431179 30.2917,7.421841 30.397393,7.447608 30.468853,7.38217 30.680984,7.171716 30.742241,7.516463 30.753562,7.518577 30.755129,7.534821 31.046152,7.605769 31.821483,7.83519 31.88471,7.771386 31.897119,7.85757 31.901667,7.858916 31.901982,7.864762 31.987869,7.89273 32.778082,8.188571 31.920337,8.205802 31.932323,8.428489 31.941439,8.623979 31.950552,8.627265 31.951874,8.657986 32.454472,8.830682 32.625496,8.902109 32.679947,8.835056 33.029964,8.333154 33.033046,9.072319 33.044208,9.076981 33.044274,9.111333 33.624358,9.33799 33.668276,9.291015 34.005462,8.888774 33.877064,8.792249 33.475004,8.476369 34.111054,8.756375 34.142612,8.733412 34.147163,8.772271 34.152044,8.77442 34.152116,8.78434 34.3857,8.931289 35.068245,9.333422 35.193675,9.241004 35.414792,9.142342 35.461717,9.565243 35.750204,9.73521 35.749931,9.791235 36.105255,9.90505 36.431432,9.814756 36.55274,9.792259 36.533796,10.042316 36.54204,10.044957 36.550468,10.16015 36.649516,10.253431 37.024672,10.59277 37.231564,10.584208 37.327052,10.586615 37.249918,10.866788 37.324487,10.975724 37.63504,11.419189 37.814419,11.442418 37.893908,11.458444 37.786295,11.695279 37.830108,11.795416 38.058441,12.303027 38.226067,12.349121 38.298807,12.373382 38.161067,12.589674 38.186068,12.691311 38.312864,13.192956 38.494011,13.269809 38.574456,13.306201 38.379969,13.536911 38.391911,13.669356 38.435552,14.113982 38.637,14.231771 38.73052,14.287083 38.459528,14.533765 38.453288,14.736763 38.449234,15.078751 38.666963,15.238462 38.772644,15.319637 38.42084,15.581705 38.374688,15.995151 38.36175,16.246302 38.620884,16.415707 38.726544,16.514959 38.489009,16.675905 38.528879,16.73199 38.678684,16.948556 38.360524,17.195485 38.109394,17.515443 38.384867,17.690051 38.791036,17.964292 38.453332,18.391845 38.206078,18.661983 38.521912,18.938388 39.006359,19.331906 39.059192,19.3644 39.070158,19.370634 39.064495,20.382908 39.032746,20.720225 39.111672,20.767924 39.128999,20.900716 39.593972,21.092128 39.405448,21.254372 39.210855,21.528066 39.22784,21.658227 39.213972,22.474796 39.383124,22.573008 39.420548,22.784237 39.769892,22.984374 40.327548,23.226202 39.97052,23.491701 39.585976,24.061358 39.529271,24.145359 38.844916,23.86821 38.156992,23.383334 38.212064,23.276976 38.382035,23.108014 38.323223,23.060022 38.533842,22.704296 38.419347,22.589285 37.752276,22.160996 37.675698,21.420247 37.618564,21.380686 37.618594,21.365063 37.554248,21.333868 37.48328,21.284872 37.619144,21.083255 37.620764,20.252134 37.604856,19.985824 37.438563,19.878543 37.441267,19.861187 37.266439,19.766778 37.073424,19.630708 37.466804,19.090415 37.576957,18.990303 37.621002,18.707614 37.199611,18.439807 36.833676,18.200098 37.105576,17.856052 37.3361,17.642724 36.703348,16.556625 36.676279,16.545027 36.683018,16.536973 36.674828,16.531704 36.679459,16.527108 36.694073,16.51924 36.873599,15.649771 36.891902,15.403915 36.724552,15.290243 36.790128,15.238057 36.892659,15.166359 36.89312,14.769676 36.895539,14.535499 36.700108,14.429949 36.771376,14.373723 36.861868,14.300558 36.805387,13.974119 36.783317,13.771079 36.593331,13.699741 36.651471,13.642343 36.723305,13.567325 36.615927,13.240894 36.575113,13.078142 36.40256,13.040339 36.443708,12.981847 36.503379,12.898078 36.363291,12.577924 36.302802,12.430012 36.127304,12.418107 36.156316,12.347873 36.210688,12.237086 36.08814,12.0094 35.990738,11.851218 35.773539,11.875613 35.788631,11.770852 35.835686,11.599411 35.832232,11.593801 35.846973,11.544043 35.669638,11.350947 35.383728,11.46635 35.349252,11.281811 35.354873,11.008208 35.344132,10.996513 35.344808,10.932557 35.244689,10.866716 35.059352,11.225151 35.034652,11.196649 34.967521,11.225676 34.982708,11.373782 34.796224,11.308244 34.700293,11.439418 34.700867,11.440627 34.627442,11.538673 34.671848,11.717767 34.523331,11.677694 34.281412,12.000735 34.001395,11.657531 33.958422,11.492879 33.791295,11.438692 33.890536,11.830448 33.987064,12.111763 33.460239,11.846398 33.402036,11.821697 33.122694,12.199426 32.957477,11.77436 32.925788,11.619587 32.677115,11.514054 32.675359,11.506919 32.559256,11.467707 32.402637,11.639471 32.113454,11.966349 32.000595,11.423776 31.978551,11.271587 31.842115,11.225509 31.839243,11.197793 31.434854,11.080742 31.054528,11.47156 30.987103,11.051993 30.973009,10.947061 30.905291,10.92746 30.903985,10.911822 30.587115,10.833203 30.098828,10.718766 29.949384,10.878276 29.918244,10.712822 29.912073,10.675321 29.39608,10.587323 29.643077,10.381276 29.839234,10.232709 29.826248,10.15379 29.837084,10.147616 29.830564,10.087697 29.813675,9.883434 29.767361,9.870026 29.766983,9.865034 29.020818,9.694095 28.803984,10.035682 28.76158,9.697181 28.753972,9.632963 28.745186,9.63095 28.745076,9.629772 28.397438,9.557427 28.603139,9.439056 28.720883,9.370299 28.69858,9.131088 28.68051,8.934036 27.92207,8.781047 28.367517,8.523442 28.535214,8.421652 28.520237,8.352181 28.052258,8.295344 27.71053,8.250146 27.595234,8.383828 27.590521,8.241721 27.498258,8.230203 27.541011,8.182521 27.572895,8.143561 27.569046,8.117129 27.586995,8.099424 27.585204,7.936207 27.547203,7.760453 26.862696,7.729722 27.004144,7.292346 26.69299,7.415559 26.53578,7.537019 26.564268,7.226864 26.536175,7.055436 25.9678,7.014435 26.07571,6.55035 25.782492,6.578734 25.578366,6.70282 25.687606,6.395976 25.682262,6.208933 25.196252,6.147112 25.28296,5.893843 25.20785,5.853893 24.954403,6.188802 24.92453,6.14979 24.914516,6.208965 24.880833,6.189765 24.414756,5.869944 24.233602,6.366593 24.042583,6.181787 23.765536,5.888055 23.717698,5.979892 23.496814,6.436495 23.315156,6.189006 23.057842,5.840449 22.951406,6.021347 22.706176,6.458102 22.529912,6.186666 22.288493,5.819618 22.160233,6.027914 21.895064,6.458181 21.726724,6.184786 21.503517,5.82245 21.363866,6.037272 21.083928,6.45811 20.92573,6.189954 20.729088,5.847565 20.593802,6.031806 20.293298,6.436492 20.160724,6.183195 20.000524,5.863904 19.883005,5.977019 19.556538,6.366624 19.475455,6.166972 19.341155,5.817453 19.094965,5.998288 18.875626,6.20895 18.866953,6.165772 18.835665,6.188753 18.559578,5.854098 18.4856,5.899558 18.593862,6.147127 18.225496,6.163947 18.211711,6.702849 17.732341,6.700435 17.822324,7.014431 17.391401,7.012775 17.331469,7.018704 17.327628,7.0654 17.254356,7.537023 16.827399,7.425884 16.927458,7.729715 16.41263,7.721733 16.28973,7.731211 16.218117,8.140036 16.291868,8.230233 16.209446,8.235684 16.194893,8.383846 16.107556,8.308499 16.053533,8.246182 15.446785,8.295961 15.138741,8.342423 15.868038,8.781065 15.305927,8.885938 15.109678,8.92747 15.103295,8.996352 15.069003,9.369073 15.392627,9.557483 15.131376,9.614209 15.035059,9.633698 14.986115,10.035702 14.812864,9.779292 14.763681,9.700327 14.345149,9.803498 13.966116,9.888063 13.943366,10.142415 13.963858,10.153799 13.948063,10.24673 14.394035,10.587338 13.997404,10.659604 13.874577,10.679093 13.840719,10.878298 13.717311,10.75803 13.687078,10.725607 13.165671,10.862414 12.896756,10.923588 12.808098,10.952286 12.735604,11.47156 12.417471,11.173291 12.347874,11.101255 12.303407,11.115648 11.948471,11.21695 11.948093,11.225492 11.784548,11.286282 11.759866,11.429662 11.676627,11.966378 11.289225,11.561451 11.226101,11.489258 10.990979,11.569727 10.782922,11.664654 10.667423,12.199447 10.399361,11.839656 9.803018,12.11174 9.891922,11.471173 9.622781,11.55696 9.508699,12.00072 9.284321,11.702932 9.261426,11.67214 9.118273,11.71777 9.146799,11.605475 9.163069,11.539866 9.089265,11.440611 9.118402,11.369884 9.034454,11.260531 8.807423,11.373783 8.845852,11.176749 8.756271,11.152434 8.730754,11.225156 8.636641,10.963413 8.38563,11.133773 8.406372,11.466367 8.29,11.391387 8.203098,11.354356 8.125306,11.46895 7.950719,11.660238 8.016588,11.87561 7.933566,11.85463 7.822291,11.840023 7.675989,12.105715 7.581732,12.259093 7.662793,12.418107 7.595398,12.419063 7.483134,12.425745 7.347087,12.736761 7.282816,12.893665 7.387594,13.040339 7.320491,13.057173 7.205258,13.083005 7.196515,13.104349 7.186535,13.10708 7.10074,13.361618 7.05346,13.548269 7.196796,13.699741 7.121821,13.734196 6.993766,13.783926 6.987713,13.807822 6.98256,13.81002 6.937609,14.06332 6.912837,14.285973 7.090016,14.429952 7.01388,14.476307 6.892286,14.54314 6.893061,14.957304 6.895229,15.174716 7.065573,15.290246 7.004784,15.330523 6.917173,15.389846 7.102344,16.526543 7.115296,16.53174 7.106132,16.537345 7.113847,16.545033 7.102855,16.553702 7.074916,16.569663 6.708494,17.102215 6.408588,17.674509 6.575175,17.863715 6.956454,18.200106 6.433458,18.532308 6.204267,18.680733 6.340337,19.246524 6.53827,19.48448 6.716715,19.630648 6.35051,19.824152 6.351538,19.878526 6.304944,19.904153 6.335081,20.257766 6.201128,21.177545 6.245777,21.235022 6.306858,21.284882 6.176488,21.346727 6.171538,21.38072 6.148884,21.393649 6.151419,21.529717 6.037788,22.161215 5.644475,22.785232 5.378943,22.933269 5.466948,23.060094 5.368717,23.173555 5.633126,23.383338 5.478123,23.445086 4.260759,24.145394 4.197551,24.0858 3.654637,23.573927 3.462575,23.226209 3.912553,22.91843 4.397192,22.70885 4.407003,22.573048 4.62306,22.419686 4.645555,21.747699 4.503093,21.603769 4.196175,21.092098 4.422859,20.947658 4.675878,20.841909 4.678353,20.767978 4.789743,20.689476 4.71898,19.371765 4.786144,19.328014 5.595526,18.639736 5.210197,18.160506 4.999086,17.964282 5.249757,17.812218 5.62353,17.564385 5.111445,16.948544 5.31223,16.664674 5.170698,16.572268 5.063585,16.514959 5.399294,16.32948 5.364347,16.040881 5.340137,15.542959 5.123115,15.385931 5.017481,15.319631 5.332131,15.090975 5.326389,14.913079 5.322486,14.514381 5.143359,14.354851 5.059592,14.28708 5.351278,14.116881 5.36477,13.96648 5.408733,13.522551 5.276002,13.369091 5.215669,13.306201 5.473969,13.198045 5.505929,13.06796 5.630691,12.575356 5.535534,12.431345 5.491316,12.373382 5.695383,12.319927 5.696006,12.317467 5.726707,12.307597 5.776525,12.193648 6.008102,11.678693 5.933443,11.522426 5.89622,11.458451 6.104729,11.435174 6.144354,11.42965 6.218774,11.320879 6.544851,10.854645 6.527655,10.785895 6.492768,10.666332 6.463052,10.586637 6.745205,10.602953 6.843963,10.509839 7.244149,10.146442 7.248066,10.044934 7.265956,10.036409 7.253831,9.895405 7.237375,9.792261 7.570676,9.891215 7.70529,9.827072 8.121148,9.678838 8.370086,9.506282 8.389212,9.324436 8.375364,9.142346 8.624868,9.329673 8.84901,9.174304 9.638708,8.778974 9.638137,8.774366 9.649024,8.769742 9.647543,8.733425 9.679409,8.756836 9.719524,8.739797 10.314678,8.476559 9.787805,8.882817 9.882037,8.987013 10.205454,9.349915 10.746619,9.141845 10.745884,9.077019 10.78016,9.065013 10.784068,8.942721 10.760132,8.333181 11.206937,8.915526 11.836374,8.695054 11.839554,8.627282 11.864842,8.619601 11.874291,8.47364 11.88082,8.19046 11.642208,8.178517 11.01202,8.188599 11.888238,7.868702 11.888463,7.858941 11.894389,7.857435 11.905416,7.77141 11.977228,7.836212 11.988212,7.832202 11.989075,7.833397 12.20982,7.777352 13.034432,7.549849 13.036478,7.518552 13.051005,7.515941 13.060261,7.464725 13.109143,7.171701 13.408065,7.446767 13.498401,7.421844 13.507057,7.433989 14.161176,7.316445 14.162753,7.296526 14.169632,7.295591 14.190783,7.183928 14.287938,6.553739 15.283257,6.512085 15.298055,6.441168 15.325301,6.126445 15.682376,6.390654 15.809535,6.476069 15.792285,6.235645 15.902923,5.780402 16.196931,5.776565 16.185466,5.638919 16.415048,5.77372 16.616235,5.771094 16.679606,5.800986 16.948567,5.789249 16.921984,5.361323 16.84789,5.113492 16.907818,5.133272 16.90157,5.032684 17.100181,4.978764 17.47474,4.95709 17.464044,4.330839 17.45907,4.315509 17.460342,4.311958 17.464448,4.311736 17.46493,4.309933 17.471076,4.311377 17.514504,4.309027 17.801625,4.31172 17.854412,4.120176 18.200932,3.750051 18.642132,3.864403 18.68586,3.78076 18.807106,3.871284 19.071066,3.732589" slic3r:type="contour"/>
    <polygon style="fill: white" points="25.54612,3.954575 25.526682,3.959583 25.58919,3.750046" slic3r:type="contour"/>
    <polygon style="fill: white" points="39.694992,24.198896 39.776528,24.312102 39.698792,24.431996 39.666824,24.419662 39.620671,24.385805 39.594719,24.143118" slic3r:type="contour"/>
    <polygon style="fill: white" points="39.793297,24.864432 40.509972,25.170426 40.990886,25.791464 41.253279,25.951019 41.331644,25.986572 41.213913,26.079474 41.257528,26.135796 41.226469,26.183312 41.36092,26.243016 41.466016,26.377883 41.63428,27.90025 41.55533,28.627526 41.702456,28.726556 41.706459,28.935293 42.359976,29.302248 42.101592,29.518691 41.578064,30.308595 40.945624,29.976921 40.275824,29.38921 40.311611,29.32334 40.415025,29.220587 40.383476,29.193432 40.463345,29.031257 40.119124,28.87364 40.1833,27.217379 40.189612,26.878228 39.95908,26.696272 39.952316,26.5714 39.544999,26.398659 39.170064,26.128023 39.382211,25.707216 39.877743,25.1948 39.863261,24.927437 39.774208,24.858752 39.77564,24.856006 39.776628,24.854898" slic3r:type="contour"/>
    <polygon style="fill: white" points="42.463564,31.877514 43.201552,33.011612 43.197244,33.061932 43.185763,33.095921 43.192787,33.102021 43.19075,33.11093 43.221611,33.133132 43.207979,33.144262 43.173151,33.187889 42.873768,34.497027 42.489772,35.24546 41.56402,34.21176 41.309367,34.01834 41.534493,33.49665 41.471836,33.427982 41.484316,33.370205 41.30242,33.256738 41.166432,33.117709 41.5275,32.502872 41.709972,32.32549 41.894508,31.471144" slic3r:type="contour"/>
    <polygon style="fill: white" points="43.366355,37.138759 43.602972,37.34892 43.175345,37.679229 43.260204,37.826392 43.213579,37.872382 43.478196,38.149932 43.617712,38.36862 43.160896,39.225075 42.604628,39.911599 41.958755,39.040691 41.615288,38.707652 42.170287,37.939482 42.113236,37.866252 42.15818,37.770419 41.805544,37.469544 41.593452,37.190356 41.957815,36.730856 42.549208,36.23114" slic3r:type="contour"/>
    <polygon style="fill: white" points="43.189807,41.316495 43.513372,41.669372 42.891891,42.10296 42.787794,42.195076 42.869012,42.326028 42.820072,42.366033 43.207695,42.825355 43.405232,43.100744 42.941183,43.672796 42.28842,44.341044 41.777568,43.622927 41.39372,43.17882 42.082067,42.449152 42.198823,42.313924 42.177876,42.285524 42.226411,42.219661 41.769952,41.73062 41.529811,41.381215 41.910035,41.026852 42.571904,40.544752" slic3r:type="contour"/>
    <polygon style="fill: white" points="42.799775,45.331879 43.15038,45.757656 42.541559,46.154668 42.272767,46.346092 42.314308,46.405176 42.265385,46.439159 42.705427,47.016231 42.954316,47.342464 42.561791,47.733668 41.997357,48.277051 42.291832,48.642388 42.700552,49.1424 42.194488,49.441899 41.58468,49.78362 41.062787,49.101719 40.74772,48.704312 41.035903,48.536972 41.611184,48.224541 41.417868,47.948844 40.943672,47.312247 41.511376,46.772859 41.940421,46.353711 41.444207,45.750227 41.18214,45.383268 41.556643,45.109372 42.263604,44.65228" slic3r:type="contour"/>
    <polygon style="fill: white" points="41.9996,50.54332 42.363972,51.059792 42.228892,51.179651 42.109807,51.291195 42.278204,51.482304 42.097676,51.584079 41.780025,51.718434 41.662651,51.90466 41.337006,52.38759 41.514347,52.620119 41.885599,53.084232 41.581155,53.181844 40.834662,53.390478 40.665789,53.763269 40.916372,54.233176 41.242908,54.781452 40.95494,54.824592 40.22256,54.949556 39.961192,55.487124 40.015408,55.6684 39.987894,55.713755 40.248392,56.432332 40.055556,56.421864 39.560734,56.417941 39.340583,56.780864 38.827706,57.583796 38.835668,57.670572 38.820502,57.687533 38.857324,57.95632 38.797519,57.940075 38.626808,57.904159 38.063704,58.533927 37.077924,58.888673 37.058844,59.147444 37.057188,59.229964 36.661087,59.038676 36.567144,59.072484 36.479291,59.036629 35.168627,59.350694 35.03534,60.056995 35.004604,60.279304 34.383548,59.889636 33.955692,59.654884 34.104308,58.718255 34.151988,58.476688 34.804496,58.818644 35.052006,58.958367 35.865707,58.28054 35.976291,58.183344 35.997587,57.648712 36.006728,57.527376 36.432237,57.6941 36.7423,57.358707 37.487136,56.510584 37.541157,56.493393 37.539536,56.472708 37.544164,56.473656 37.571172,56.480316 38.357799,56.052668 38.801401,55.736596 38.654531,55.245655 38.786731,55.246067 39.436679,55.273913 39.881154,54.701385 39.774803,54.511127 39.449112,53.915996 39.671436,53.875175 40.470438,53.757295 40.616905,53.266874 40.356623,52.936199 39.981024,52.494688 40.209859,52.417432 40.680097,52.26987 40.440169,51.100687 40.344724,50.998984 40.390923,50.973054 40.360464,50.921488 40.419484,50.868744 41.56844,49.865172" slic3r:type="contour"/>
    <polygon style="fill: white" points="32.62512,59.63718 33.11716,59.970583 32.885698,60.825663 32.809346,61.170976 32.306319,60.798055 31.80509,60.465664 31.998958,59.662939 32.100619,59.310764" slic3r:type="contour"/>
    <polygon style="fill: white" points="30.389667,60.319383 30.940246,60.743312 30.700353,61.471728 30.573948,61.923932 30.16802,61.58718 29.603648,61.163639 29.80885,60.480499 29.97112,60.028483" slic3r:type="contour"/>
    <polygon style="fill: white" points="28.212332,60.882376 28.810238,61.399536 28.572458,62.013975 28.385648,62.55582 28.064672,62.259956 27.452414,61.748399 27.659189,61.170568 27.889128,60.630492" slic3r:type="contour"/>
    <polygon style="fill: white" points="26.098036,61.304472 26.719149,61.919364 26.479711,62.43634 26.216438,63.041623 25.966333,62.778951 25.33776,62.174764 25.553637,61.685672 25.857878,61.08612" slic3r:type="contour"/>
    <polygon style="fill: white" points="24.041045,61.569775 24.654492,62.279208 24.406832,62.720983 24.055945,63.353187 23.858367,63.110795 23.25248,62.417964 23.48781,61.994799 23.86433,61.37432" slic3r:type="contour"/>
    <polygon style="fill: white" points="11.817933,59.865975 11.985003,60.465663 11.298409,60.963312 10.980779,61.170956 10.797953,60.515376 10.672967,59.970564 11.401806,59.510007 11.68954,59.310772" slic3r:type="contour"/>
    <polygon style="fill: white" points="13.948422,60.477887 14.186493,61.16364 13.617507,61.626608 13.216162,61.923916 13.034941,61.386244 12.84996,60.743228 13.46417,60.308623 13.819006,60.028499" slic3r:type="contour"/>
    <polygon style="fill: white" points="16.023175,60.985839 16.337771,61.748364 15.870075,62.171715 15.404479,62.55582 15.234666,62.124539 14.979877,61.399615 15.490889,60.994028 15.901041,60.630504" slic3r:type="contour"/>
    <polygon style="fill: white" points="18.0508,61.363284 18.452354,62.174876 18.070667,62.56932 17.573688,63.041624 17.413285,62.698627 17.070996,61.919328 17.487236,61.535168 17.932248,61.08612" slic3r:type="contour"/>
    <polygon style="fill: white" points="20.0465,61.595356 20.537646,62.417924 20.222716,62.799571 19.734179,63.353188 19.57749,63.07414 19.135653,62.279168 19.471446,61.904743 19.925796,61.37432" slic3r:type="contour"/>
    <polygon style="fill: white" points="22.031362,61.669276 22.60126,62.457156 22.332052,62.851099 21.895064,63.464888 21.729373,63.220675 21.188848,62.457196 21.461657,62.073388 21.895064,61.476716" slic3r:type="contour"/>
  </g></svg>