<svg width="43.790126" height="63.590156" xmlns="http://www.w3.org/2000/svg" xmlns:svg="http://www.w3.org/2000/svg" xmlns:xlink="http://www.w3.org/1999/xlink" xmlns:slic3r="http://slic3r.org/namespaces/slic3r"><g xmlns="http://www.w3.org/2000/svg" slic3r:z="2.64049999999999e-005" id="layer79">
    <polygon style="fill: white" points="13.914722,60.247784 14.22251,61.134356 13.818453,61.463128 13.240432,61.891316 13.127744,61.556979 12.885311,60.714252 13.328627,60.400567 13.842005,59.995284" slic3r:type="contour"/>
    <polygon style="fill: white" points="11.805199,59.618271 12.031502,60.430576 11.523889,60.798495 11.01388,61.131899 10.890776,60.690475 10.717896,59.936896 11.263876,59.591887 11.725224,59.27244" slic3r:type="contour"/>
    <polygon style="fill: white" points="9.755467,58.878248 9.893609,59.610396 9.257374,59.998395 8.829314,60.229355 8.718265,59.667515 8.622217,59.013412 9.290027,58.658551 9.688006,58.42926" slic3r:type="contour"/>
    <polygon style="fill: white" points="7.86518,58.02716 7.908023,58.670076 7.113063,59.037796 6.788183,59.164343 6.730143,58.4732 6.714312,57.9295 7.525555,57.606739 7.847266,57.466608" slic3r:type="contour"/>
    <polygon style="fill: white" points="3.182081,50.571207 3.464136,50.681424 2.947583,51.390168 3.31931,52.027467 3.505558,52.310018 3.789449,52.404632 3.862077,52.422604 3.717894,52.632148 3.72167,52.637876 3.717428,52.642996 3.854348,53.007836 4.178088,53.854674 4.341275,53.8824 4.405601,53.888312 4.281747,54.108797 4.532749,54.67354 4.767886,55.22017 5.074066,55.21482 5.206157,55.204208 5.012386,55.745213 5.527926,56.580383 6.09238,56.456548 6.324525,56.39548 6.225671,57.064303 6.176477,57.530843 6.258586,57.620819 6.244804,57.615498 6.198948,57.670089 6.213995,57.695079 6.209566,57.746372 6.199469,57.748979 6.141607,57.760672 5.971582,57.655304 5.190333,57.867547 4.995735,57.904791 5.059809,57.090259 4.536227,56.765784 4.004823,56.457663 3.887924,56.457808 3.855583,56.422419 3.654068,56.434668 3.603805,56.43422 3.665269,56.214172 3.548756,56.086679 3.070103,55.564284 2.819279,54.957027 2.748117,54.813933 2.607833,54.789484 2.62736,54.752047 2.691171,54.642387 2.151885,53.278112 2.069038,53.092814 1.957777,53.062872 1.979005,53.034692 2.017042,52.986618 1.892157,52.796296 2.131721,51.485108 1.692292,51.26466 1.524182,51.196656 1.947743,50.642084 2.342213,50.180112" slic3r:type="contour"/>
    <polygon style="fill: white" points="2.355653,47.515964 3.021225,48.180132 2.99464,48.219375 3.029382,48.23808 3.016139,48.255399 2.812,48.516475 2.543367,48.966635 2.221866,49.452696 1.965277,49.180538 1.723837,49.038311 1.077865,48.685456 1.15167,48.593199 1.272919,48.444735 1.00784,48.188764 1.143558,48.010787 1.871071,47.05716" slic3r:type="contour"/>
    <polygon style="fill: white" points="1.976306,43.454908 2.540193,44.148104 2.449211,44.288848 2.234437,44.538421 2.284719,44.57658 2.600735,44.778888 2.473472,44.933355 1.72489,45.929076 1.185471,45.574471 0.634077,45.167492 0.777561,44.98122 1.015244,44.692675 1.006479,44.683536 1.059926,44.604164 0.527003,44.051252 0.789268,43.739847 1.434678,42.886856" slic3r:type="contour"/>
    <polygon style="fill: white" points="1.779787,39.075903 2.253212,39.92404 2.144906,40.096043 1.895114,40.340714 1.960417,40.405412 1.940921,40.434329 2.277194,40.673996 2.132162,40.828311 1.344898,41.850824 0.80164,41.46166 0.294155,40.96934 0.451765,40.756383 0.704328,40.481361 0.680674,40.451304 0.787298,40.286014 0.250865,39.599772 0.580468,39.250296 1.238502,38.347912" slic3r:type="contour"/>
    <polygon style="fill: white" points="3.336107,27.49313 3.270754,27.559538 3.170374,27.605257 3.188222,27.783833 3.614187,28.464155 3.903792,28.72175 3.215022,29.043733 3.199662,29.281544 3.069999,29.375118 3.202879,30.003457 3.23947,30.917694 2.91505,31.270549 2.398069,31.544314 2.551149,31.781714 2.412273,31.945647 2.888823,32.362328 2.564363,32.562527 1.76292,33.234891 1.797042,33.471662 1.648066,33.609665 2.0901,34.55754 2.377737,35.582644 2.235224,35.776387 1.96041,35.985741 2.041934,36.088128 1.992995,36.158099 2.30381,36.408048 2.133523,36.551428 1.244259,37.539424 0.702715,37.094796 0.294855,36.557152 0.498956,36.298231 0.784951,36.044977 0.747943,35.9719 0.927302,35.739921 0.461559,34.727608 0.950746,34.3351 1.545357,33.594274 1.409737,33.39792 1.552244,33.228106 1.064725,32.763225 0.833675,32.355956 1.213988,31.968791 1.658766,31.674149 1.628931,31.537116 1.870488,31.306885 1.721728,29.55455 1.644146,29.050606 1.923105,28.90835 1.860862,28.795658 1.889208,28.769329 1.806221,28.683882 1.774134,28.616566 2.490274,28.038021 2.893916,27.836158 3.224856,27.528781 3.223912,27.446006 3.256376,27.421599 3.285612,27.408562" slic3r:type="contour"/>
    <polygon style="fill: white" points="18.391524,3.999177 18.525727,4.178834 18.976072,4.049802 19.151831,4.401613 19.231863,4.372242 19.319312,4.288026 19.340184,4.332486 19.377084,4.318944 19.38845,4.364061 19.378884,4.404797 19.387744,4.421049 19.409894,4.573486 19.611628,4.443578 19.682172,4.730158 19.904104,4.494407 20.012582,4.760895 20.094007,5.008483 20.438544,4.542437 20.5621,4.802621 20.690648,5.056952 20.792583,5.063968 20.821064,5.022254 21.125404,4.560481 21.273832,4.819853 21.431277,5.083125 21.56116,5.084414 21.603088,5.018641 21.895064,4.560378 22.058337,4.816382 22.230577,5.086706 22.350271,5.08552 22.39133,5.015443 22.66475,4.560479 22.842027,4.81176 23.011803,5.067852 23.08761,5.062657 23.115751,5.005373 23.351596,4.542445 23.54459,4.777665 23.722058,5.015727 23.886044,4.494405 24.084588,4.69115 24.197091,4.810062 24.178498,4.443578 24.317145,4.545118 24.369991,4.453563 24.414289,4.397874 24.431157,4.365082 24.413046,4.318916 24.440181,4.347541 24.470808,4.288003 24.540764,4.351414 24.582346,4.390561 24.836099,4.479405 24.903081,4.270038 24.814002,4.049823 24.968536,4.356995 25.215678,4.425277 25.571068,4.242887 25.609338,4.061158 25.600881,4.053242 25.63531,3.937832 25.609339,4.061158 25.721183,4.165846 25.848892,4.100306 25.843555,4.280392 26.099511,4.519973 26.269339,4.533812 26.196989,4.611214 26.50091,4.895693 26.483392,4.912806 26.532332,4.98228 26.822464,4.840826 26.816623,5.250433 27.083743,5.292614 27.371513,5.189879 27.271421,5.353969 27.295486,5.492892 27.595642,5.371004 27.639926,5.763789 27.649964,6.06742 27.923806,6.094273 28.127373,5.96506 28.19748,5.970466 28.317398,5.886246 28.450339,5.810595 28.494106,5.993342 28.604074,6.001822 28.85858,5.965644 28.83354,6.304483 29.002807,6.620458 29.112375,6.531183 29.487174,6.246437 29.62826,6.797376 30.056644,6.851912 30.380913,6.873579 30.415389,6.839375 30.475705,6.851169 30.54389,6.794077 30.673524,6.686463 30.730153,6.900925 30.931875,6.940369 31.828808,7.119485 31.821228,7.307266 31.950108,7.177215 31.966712,7.292526 32.053214,7.908845 32.094204,7.920974 32.096877,7.970641 32.738353,8.179533 32.830217,8.102459 33.207616,7.746892 33.273056,8.33131 33.277604,8.377114 33.326422,8.395391 33.327264,8.464228 33.872711,8.696564 33.977371,8.619509 34.441348,8.281872 34.491887,8.71339 34.507317,8.97139 34.610368,9.016756 34.611662,9.194546 34.825093,9.328816 35.053203,9.160743 35.666243,8.887201 35.694964,9.146044 35.707213,9.884669 36.20292,9.747445 36.70932,9.65353 36.687912,9.93611 36.615645,10.524308 37.006727,10.508124 37.482072,10.520107 37.404627,10.801411 37.233782,11.311181 37.611515,11.360092 38.0552,11.449547 37.927339,11.730941 37.697723,12.160386 38.054183,12.258409 38.468808,12.396696 38.30052,12.660949 38.040189,13.023782 38.365171,13.161657 38.764931,13.342504 38.573048,13.570126 38.250453,13.921642 38.551227,14.097507 38.943504,14.329515 38.73726,14.517259 38.32819,14.862407 38.60518,15.065588 38.99538,15.365303 38.77594,15.528769 38.205329,15.910488 38.557107,16.140457 38.9289,16.489698 38.664768,16.668663 38.066593,17.018775 38.187299,17.188572 38.683619,17.597719 38.779628,17.69058 38.585252,17.849766 38.62422,17.915526 38.7594,18.11031 38.523207,18.434312 38.413895,18.666759 38.447636,18.693452 38.432644,18.749539 38.887536,19.00818 38.68508,19.214007 38.175955,19.785718 38.2231,19.824013 38.181344,19.883381 38.270904,19.946526 38.268213,20.06531 38.993672,20.503732 39.257764,20.632568 38.847366,20.966389 38.950172,21.082786 38.804799,21.287252 39.211847,21.520698 39.741543,22.209834 39.781224,22.513922 39.779738,22.601405 39.79786,22.611927 39.802869,22.640204 39.899039,22.681908 39.860791,22.710352 39.824757,22.763733 40.062964,24.108198 40.058598,24.784796 40.192616,24.86143 40.225076,25.06853 40.893804,25.37191 40.635264,25.575921 40.325077,26.074443 40.291584,26.73999 38.756844,25.556948 38.746452,25.552638 38.746127,25.533896 38.73732,25.528258 38.742802,25.51775 38.727863,25.290083 38.588331,23.433167 38.358968,23.271504 38.354044,23.183745 38.077224,23.064938 37.772528,22.86633 38.048756,22.399796 38.295785,22.14529 38.263324,21.566696 38.071756,21.434046 38.071954,21.332632 37.654267,21.130137 37.193615,20.812102 37.386007,20.526594 37.698916,20.232797 37.612524,20.10767 37.719684,19.986741 37.534051,19.618184 37.457703,19.576955 36.891136,19.177538 37.005219,19.02085 37.161602,18.878722 37.134116,18.824152 37.177863,18.784004 36.75884,17.791626 36.767164,17.768979 36.759032,17.761708 36.774014,17.750345 36.776832,17.742679 36.792415,17.728258 37.450362,16.830885 37.172432,16.662769 36.8732,16.425387 37.391208,16.161727 37.815813,15.920778 37.183403,15.510159 36.906912,15.330233 37.433016,15.004453 37.621423,14.882056 37.154679,14.631316 36.87306,14.495609 37.351348,14.144795 37.489891,14.031784 37.056872,13.859878 36.754095,13.759693 37.165559,13.367465 37.286211,13.237831 36.871572,13.132473 36.544892,13.064062 36.882627,12.627757 37.009673,12.452382 36.589899,12.412923 36.247648,12.381986 36.508044,11.896735 36.615175,11.703083 36.192612,11.74537 35.860112,11.766547 36.021612,11.22143 36.085198,11.047637 35.667995,11.195994 35.398628,11.268893 35.405344,10.633632 35.437781,10.433692 34.877611,10.920155 34.852684,10.933637 34.84357,10.909943 34.817308,10.919328 34.40634,10.367889 34.201534,10.234252 34.169079,10.290686 34.154379,10.313423 34.422324,10.975507 33.919919,10.683266 33.753174,10.938734 33.924416,11.276897 33.656776,11.161553 33.617505,11.146593 33.391134,11.493415 33.302884,11.134766 33.301372,11.026173 33.240266,11.002897 33.233884,10.97354 32.836817,10.805142 32.629126,10.729096 32.305152,11.231451 32.237555,11.336089 32.242774,11.335279 32.230346,11.349328 32.256132,11.372096 32.221796,11.358993 32.217858,11.363444 32.21652,11.35702 32.174033,11.343615 32.213783,11.34048 32.148306,10.708588 32.145192,10.551904 32.085374,10.530002 32.083388,10.500434 31.765817,10.385498 31.401015,10.263181 31.096122,10.718809 31.056864,10.248735 31.052253,10.146242 31.020046,10.135443 31.019263,10.121447 29.975836,9.805499 30.719584,9.683791 30.996205,9.625236 30.996254,9.434663 30.97948,9.428635 30.979096,9.424214 30.687598,9.335262 30.230173,9.197423 29.93447,9.761307 29.892493,9.206327 29.887319,9.098831 29.320362,8.965926 29.683106,8.831606 29.857109,8.760613 29.839228,8.586302 28.751831,8.407892 28.724876,8.131981 28.69145,7.995362 28.000292,7.964955 28.07803,7.489985 27.750126,7.685157 27.620734,7.801888 27.598602,7.496279 27.553646,7.323791 26.793542,7.312557 26.77725,7.069852 26.633211,7.125258 26.552786,7.188032 26.582953,6.74902 26.535004,6.476466 25.948819,6.469017 25.651386,6.461044 25.65133,6.454508 25.60572,6.429815 25.650359,6.340646 25.648707,6.146931 25.174546,5.997721 25.157841,6.097564 25.092338,6.472272 24.546921,6.189857 24.459938,6.401863 24.36073,6.661499 23.93891,6.267064 23.818279,6.290658 23.798907,6.330702 23.794058,6.331051 23.682472,6.536067 23.578504,6.741411 23.307221,6.39655 23.299224,6.398229 23.277096,6.368256 22.979168,6.389697 22.974731,6.397598 22.96813,6.39767 22.855527,6.580734 22.746736,6.766302 22.510926,6.418821 22.494693,6.41984 22.483586,6.402953 22.193879,6.406112 22.138213,6.40643 22.136494,6.40922 22.123577,6.409079 22.010916,6.585418 21.895064,6.76671 21.666619,6.409125 21.653632,6.409199 21.650375,6.403913 21.357319,6.400712 21.308305,6.40043 21.295396,6.419835 21.280473,6.418764 21.1657,6.587747 21.04337,6.766304 20.815464,6.397586 20.815418,6.397586 20.808123,6.38488 20.516415,6.363954 20.490948,6.398249 20.479167,6.395936 20.350255,6.560078 20.211602,6.741414 19.966991,6.29537 19.818399,6.266194 19.606202,6.465215 19.429406,6.661521 19.208604,6.127221 18.955179,6.255566 18.69781,6.472283 18.614487,5.971922 18.600014,5.887508 18.526688,5.909047 18.177442,6.126926 18.196066,6.385973 18.184378,6.429815 18.133676,6.42814 18.138713,6.461044 17.505519,6.426948 17.314189,6.436865 17.270691,7.010988 17.237366,7.188006 16.991796,7.119332 16.996596,7.312537 16.428223,7.28252 16.293142,7.289383 16.254687,7.481192 16.169368,7.801884 15.71897,7.599757 15.737028,7.70463 15.789829,7.96495 15.261767,7.963336 15.132727,7.973642 15.050046,8.353951 15.037261,8.408475 14.170157,8.529688 13.959463,8.569808 13.941284,8.755746 14.469832,8.965867 14.029436,9.067115 13.897317,9.098652 13.855682,9.761197 13.627286,9.311176 13.566839,9.197846 13.13762,9.330413 12.813797,9.4274 12.777163,9.441536 12.775503,9.604268 13.814215,9.805497 12.945885,10.080525 12.770139,10.130175 12.770085,10.135442 12.728514,10.150786 12.693984,10.718809 12.440889,10.351244 12.390751,10.275447 11.976758,10.428242 11.704486,10.518503 11.704745,10.530028 11.613854,10.567238 11.575117,11.33536 11.576811,11.334192 11.576117,11.338669 11.616311,11.343543 11.573196,11.357498 11.572271,11.363471 11.568314,11.359337 11.533797,11.372167 11.556391,11.345644 11.547227,11.335164 11.552738,11.335832 11.231867,10.826891 11.178677,10.745397 10.744929,10.92297 10.549737,10.995794 10.54983,11.002947 10.430128,11.050887 10.398965,11.493438 10.398964,11.493438 10.208417,11.188974 10.182321,11.150132 9.865735,11.276925 9.972635,11.017437 10.025838,10.917231 9.881748,10.702775 9.367785,10.975526 9.469961,10.592406 9.408202,10.553159 8.964902,10.92596 8.937414,10.933654 8.859822,10.810208 8.334391,10.861079 8.345313,11.022178 8.391473,11.268914 7.932384,11.078098 7.667594,11.002608 7.817695,11.470096 7.930024,11.766547 7.420811,11.705942 7.161732,11.687503 7.379614,12.089259 7.542458,12.381987 7.012228,12.432745 6.793645,12.452683 7.051541,12.793471 7.245253,13.064062 6.700639,13.213107 6.542735,13.247569 6.819102,13.522155 7.036026,13.759694 6.484535,13.994967 6.343658,14.043218 6.676113,14.296271 6.917067,14.495618 6.379365,14.798322 6.19328,14.889579 6.608859,15.151093 6.883212,15.330235 6.375412,15.659609 5.981288,15.916002 6.567135,16.225567 6.916919,16.425414 6.434219,16.685439 6.32196,16.771194 6.621907,17.133596 7.006857,17.737031 7.013302,17.742716 7.01909,17.754548 7.031097,17.761738 7.026196,17.76525 7.031291,17.791646 6.77827,18.622007 6.633708,18.899198 6.619136,18.948265 6.898989,19.1775 6.689503,19.288194 6.478047,19.423334 6.430526,19.583344 6.118433,20.046769 6.177544,20.107708 6.076399,20.329262 6.200112,20.488516 6.596523,20.812112 6.201843,20.999344 5.741032,21.278044 5.718305,21.434098 5.571286,21.518005 5.587396,22.382753 5.770593,22.646767 6.017585,22.86635 5.461613,23.101998 5.431105,23.271548 5.310586,23.340879 5.319213,23.925655 5.047885,25.523469 5.052823,25.528234 5.046402,25.53081 5.043639,25.552754 4.158158,26.46614 3.498555,26.739964 3.524768,26.242281 3.141896,25.861504 2.896323,25.37191 3.234932,25.124664 3.592095,24.963948 3.597496,24.861429 3.842281,24.687249 3.976044,22.835661 3.891093,22.681864 3.939268,22.648914 3.991156,22.626475 3.992206,22.611936 4.024394,22.589088 4.048452,22.21022 4.433057,21.965452 5.042606,21.42065 4.840011,21.082899 4.892765,21.034564 4.638135,20.791776 4.532378,20.632535 4.977352,20.31894 5.527039,20.039843 5.519143,19.946545 5.604169,19.881719 5.567063,19.824022 5.608981,19.788375 5.159969,19.317703 4.902597,19.00815 5.08712,18.887948 5.357547,18.730992 5.030728,18.110273 5.206653,17.825979 5.094987,17.737388 5.010501,17.690542 5.383705,17.410556 5.572563,17.239238 5.731371,17.013393 5.23813,16.691355 4.861226,16.489698 5.058704,16.380592 5.611862,15.919109 5.18476,15.610076 4.794734,15.36528 5.019205,15.202157 5.474007,14.859611 5.197924,14.613732 4.846601,14.329499 5.106576,14.177801 5.551009,13.91631 5.325029,13.65504 5.025193,13.342504 5.322346,13.218081 5.768212,13.02196 5.573372,12.727091 5.32132,12.396696 5.634569,12.314641 6.114701,12.166698 5.942695,11.806673 5.734923,11.449587 6.035026,11.416085 6.574719,11.323725 6.455984,10.916813 6.30806,10.520095 6.580063,10.535824 7.188522,10.537541 7.149533,10.084144 7.080828,9.653515 7.307777,9.720894 8.108818,9.900464 8.16229,9.392062 8.123898,8.887211 8.290758,9.012488 8.899174,9.348688 9.195596,9.143216 9.179932,9.016705 9.345529,8.94637 9.368782,8.772844 9.34877,8.281892 9.745346,8.573261 9.921066,8.701918 10.466543,8.470233 10.463605,8.395432 10.534952,8.37185 10.549449,8.252923 10.582506,7.746923 10.946129,8.057309 11.093514,8.187226 11.694406,7.98861 11.695966,7.920964 11.743953,7.90878 11.760978,7.793865 11.840015,7.177189 11.939398,7.266871 11.961186,7.119522 13.064297,6.900882 13.080912,6.838118 13.116571,6.68646 13.313502,6.851489 13.374697,6.83936 13.395391,6.859002 14.197789,6.767656 14.231395,6.63867 14.302982,6.246436 14.567145,6.463845 14.661123,6.537585 14.931577,5.965655 15.329095,5.965329 15.339757,5.810634 15.547999,5.965149 15.662685,5.965056 15.703251,5.992304 16.209725,5.986503 16.231246,5.812266 16.194491,5.371002 16.371785,5.475101 16.418612,5.189879 16.963947,5.143914 16.963104,5.089292 16.967664,4.840822 17.236914,4.9411 17.194572,4.810609 17.356728,4.358301 17.782719,4.335247 17.916615,4.19223 17.941182,4.10032 17.991577,4.112161 18.154798,3.937821" slic3r:type="contour"/>
    <polygon style="fill: black" points="25.501079,5.92099 25.640881,5.952058 25.640843,5.854009 25.545882,5.796297" slic3r:type="hole"/>
    <polygon style="fill: white" points="26.348334,4.540248 26.26934,4.533811 26.433398,4.358301" slic3r:type="contour"/>
    <polygon style="fill: white" points="40.566191,27.445947 40.573312,27.520292 40.567926,27.557516 41.174027,27.826663 41.566955,28.330898 41.917104,28.566582 42.015968,28.616476 41.878873,28.731176 41.929172,28.795722 41.899621,28.84031 42.045492,28.916306 42.146072,29.050896 42.174248,30.52018 41.973441,31.388795 42.161128,31.536954 42.136856,31.754973 42.410492,31.992616 42.956444,32.355912 42.591956,32.662973 42.23739,33.178081 42.380511,33.398022 42.245463,33.56719 42.927835,34.106856 43.328584,34.727751 43.186428,35.349371 42.92963,35.849886 43.042156,35.971936 42.987837,36.10658 43.49528,36.557288 43.2262,36.765132 42.545792,37.539724 41.977768,37.055076 41.486328,36.40816 41.58118,36.288539 41.777674,36.122506 41.748272,36.088108 41.857436,35.920445 41.412371,35.582404 41.635235,35.065956 42.147529,33.622699 42.10242,33.59142 41.99322,33.471742 42.037837,33.265175 41.387527,32.859509 40.90134,32.362456 41.026296,32.149677 41.323293,31.860963 41.23902,31.781596 41.423635,31.411204 41.324132,31.325562 40.550652,30.917666 40.787952,29.454795 40.590483,29.281528 40.59272,29.161355 40.225251,28.989731 39.886308,28.721714 40.099372,28.289081 40.61915,27.741188 40.621319,27.624593 40.454064,27.493044 40.481636,27.434859 40.504528,27.40853" slic3r:type="contour"/>
    <polygon style="fill: white" points="43.123,38.9472 43.539264,39.599676 43.349712,39.955055 43.032353,40.346725 43.109436,40.451299 43.071279,40.506136 43.495972,40.9693 43.238091,41.149216 42.445156,41.850884 41.977016,41.349324 41.512936,40.674088 41.61962,40.574655 41.837793,40.41574 41.829736,40.405439 41.92372,40.298978 41.536916,39.92392 41.753664,39.623923 42.551668,38.347944" slic3r:type="contour"/>
    <polygon style="fill: white" points="42.837788,43.458364 43.26312,44.05132 43.068163,44.291652 42.742096,44.625455 42.783648,44.683568 42.769952,44.698663 43.156052,45.167544 42.900271,45.33434 42.065212,45.92904 41.651504,45.425896 41.189392,44.778832 41.296555,44.700456 41.572952,44.52175 41.249936,44.148024 41.446908,43.939227 42.355507,42.886876" slic3r:type="contour"/>
    <polygon style="fill: white" points="42.307812,47.566848 42.78228,48.188763 42.673979,48.2967 42.517599,48.447249 42.712264,48.685392 42.572632,48.768027 41.826315,49.186242 41.568244,49.452728 41.001121,48.541305 40.760752,48.23812 40.79654,48.217334 40.7689,48.180228 40.792507,48.1578 41.919144,47.057148" slic3r:type="contour"/>
    <polygon style="fill: white" points="42.108739,51.014531 42.265935,51.196664 41.623275,51.525852 41.704579,52.074431 41.897972,52.796296 41.808727,52.937888 41.773804,52.98968 41.832352,53.062872 41.800092,53.073211 41.726359,53.09382 41.172852,54.503655 41.105093,54.653233 41.113696,54.669908 41.112576,54.672453 41.182292,54.789512 41.14376,54.795283 41.051588,54.811011 40.720032,55.564276 40.118863,56.22117 40.169356,56.389996 40.186324,56.434216 39.942119,56.414297 39.902296,56.457812 39.801326,56.457012 38.711277,57.118446 38.766956,57.725308 38.7944,57.904792 38.089016,57.696184 37.839814,57.645876 37.64876,57.760756 37.580656,57.746428 37.579399,57.735643 37.576212,57.695015 37.591472,57.670732 37.546563,57.615262 37.531568,57.620759 37.611742,57.534036 37.489188,56.646492 37.465596,56.39546 38.180459,56.547259 38.281572,56.572576 38.718383,55.877476 38.776978,55.776207 38.624448,55.338784 38.583948,55.204212 39.039333,55.207589 39.230275,54.78226 39.509612,54.117898 39.415383,53.948135 39.384531,53.888288 39.613126,53.846303 39.716824,53.569939 40.071607,52.641572 40.068476,52.637892 40.072876,52.630601 39.97084,52.482776 39.928048,52.422592 40.271346,52.301745 40.84059,51.358542 40.496511,50.888479 40.325992,50.681456 40.859639,50.420812 41.447904,50.180111" slic3r:type="contour"/>
    <polygon style="fill: white" points="36.506423,57.687395 37.075892,57.929628 37.008348,58.845647 37.001944,59.16434 36.436047,58.891056 35.882072,58.669988 35.915572,57.828975 35.94288,57.466588" slic3r:type="contour"/>
    <polygon style="fill: white" points="34.536524,58.656968 35.167892,59.01338 35.022268,59.785063 34.960844,60.22934 34.518447,59.951763 33.896552,59.610552 34.009832,58.896623 34.102079,58.429288" slic3r:type="contour"/>
    <polygon style="fill: white" points="32.391641,59.475747 33.072231,59.936912 32.898839,60.57746 32.776244,61.131916 32.437539,60.880815 31.7586,60.430576 31.901931,59.837104 32.064934,59.272423" slic3r:type="contour"/>
    <polygon style="fill: white" points="30.183294,60.158712 30.90488,60.714308 30.731733,61.240056 30.549684,61.891324 30.297269,61.681923 29.567627,61.134356 29.713347,60.649236 29.94812,59.99526" slic3r:type="contour"/>
    <polygon style="fill: white" points="28.028119,60.717647 28.783632,61.371128 28.620558,61.792523 28.367894,62.52538 28.190622,62.361972 27.554341,61.830344 26.663511,62.12689 26.604866,62.251044 26.526877,62.269252 26.204378,63.010704 26.0876,62.88806 25.653046,62.470364 24.408372,62.742171 24.364064,62.820388 24.325434,62.823729 24.049594,63.320724 23.973839,63.227787 23.686937,62.899714 23.677789,62.901711 23.661529,62.881173 23.190144,62.921959 22.213615,63.000133 22.180915,63.048512 22.168426,63.04742 21.895064,63.431384 21.838241,63.347631 21.625549,63.047209 21.609178,63.04852 21.573588,62.995407 21.046601,62.949327 20.132465,62.876596 20.112292,62.901715 20.110633,62.901317 19.740532,63.320724 19.680457,63.213735 19.463497,62.823369 19.426114,62.820395 19.371239,62.723712 19.260796,62.697184 18.163788,62.461367 17.58575,63.010704 17.510855,62.850551 17.254016,62.265799 17.1853,62.251028 17.118913,62.112137 16.248024,61.828395 16.05196,62.005871 15.422233,62.52538 15.328446,62.287183 15.006495,61.371176 15.356958,61.093012 15.914639,60.598732 15.972304,60.7665 16.31928,61.607507 17.328366,61.667973 17.356584,61.641931 17.939278,61.053956 17.98099,61.151476 18.225027,61.644705 18.546474,61.646164 19.644049,61.673172 19.928488,61.341112 19.955404,61.3904 20.11804,61.66278 21.237425,61.655412 21.739428,61.657044 21.895064,61.44278 21.916365,61.472875 22.052198,61.660663 23.114578,61.670084 23.663419,61.667762 23.861638,61.341112 23.901043,61.384695 24.164702,61.689609 24.685207,61.695172 25.539013,61.668471 25.850848,61.053956 25.935348,61.13078 26.498972,61.688759 27.460405,61.61942 27.562877,61.33306 27.875524,60.598724" slic3r:type="contour"/>
  </g></svg>