<svg width="43.790126" height="63.590156" xmlns="http://www.w3.org/2000/svg" xmlns:svg="http://www.w3.org/2000/svg" xmlns:xlink="http://www.w3.org/1999/xlink" xmlns:slic3r="http://slic3r.org/namespaces/slic3r"><g xmlns="http://www.w3.org/2000/svg" slic3r:z="2.31049999999999e-005" id="layer69">
    <polygon style="fill: white" points="26.646822,4.382468 26.993907,4.84109 27.352953,4.598684 27.59587,4.47074 27.735174,4.943097 27.912588,4.969398 28.55677,4.963321 28.56931,4.998048 28.597344,4.984258 28.601174,5.000122 28.606786,5.046666 28.613429,5.056219 28.646342,5.203539 28.771908,5.530503 29.050112,5.827363 29.195009,5.724336 29.637208,5.473245 29.748188,5.845632 29.828519,6.293086 30.12994,6.333897 30.243158,6.249734 30.293731,6.257192 30.559657,6.037059 30.77404,5.883608 30.946238,6.353417 31.385652,6.418217 31.777404,6.438744 31.835734,6.390372 31.85751,6.394841 31.970849,6.294785 32.067588,6.214097 32.164786,6.457905 32.421692,6.510631 33.355548,6.669188 33.374015,6.654531 33.381886,6.656971 33.431236,6.61727 33.478084,6.579702 33.519377,6.699602 33.644908,6.738525 34.868081,7.099567 34.874232,7.095614 34.876266,7.096592 34.913672,7.073172 34.922821,7.115724 34.924944,7.116351 34.925705,7.120361 34.964979,7.139242 35.506579,7.387617 36.132151,7.797457 36.190861,7.839511 36.214908,7.831015 36.219169,7.836209 36.28686,7.809898 36.287128,7.849101 36.286959,7.908344 36.293592,7.913095 36.293694,7.927048 36.916856,8.68662 37.074717,8.880873 37.142468,8.8718 37.154467,8.893547 37.420811,8.852993 37.388307,9.008798 37.342971,9.210969 37.365216,9.238341 37.359327,9.264823 37.54646,9.603971 37.763371,9.984247 37.818683,9.984349 37.832811,10.017134 38.29998,10.01995 38.201971,10.275979 38.089403,10.555827 38.127756,10.623066 38.113226,10.660008 38.314528,11.098868 38.322076,11.099463 38.335526,11.134037 38.518428,11.152253 38.983348,11.200505 38.818324,11.521319 38.65153,11.833569 38.70676,11.953977 38.686166,11.994778 38.735039,12.111463 38.791644,12.123021 38.824205,12.204286 39.108003,12.246568 39.520968,12.30573 39.30722,12.663268 39.126939,12.959839 39.162036,13.047434 39.298439,13.083865 39.325037,13.172522 39.584484,13.226055 39.977888,13.300755 39.731096,13.662256 39.551424,13.927112 39.57002,13.98909 39.718747,14.046256 39.738457,14.1545 39.984024,14.230306 40.363332,14.340652 40.061915,14.692482 39.876413,14.912163 39.900948,15.046912 40.081904,15.152694 40.079075,15.264614 40.30686,15.37882 40.6515,15.537109 40.256812,15.863433 40.059684,16.031697 40.055301,16.205079 40.188324,16.33357 40.133473,16.498312 40.453824,16.835992 40.745496,17.076268 40.225008,17.282237 39.870323,17.38734 39.815712,17.511875 40.116156,18.040926 40.366464,18.647041 40.167104,18.648403 39.393062,18.547561 39.644108,19.000718 39.825248,19.72178 39.781043,19.718717 38.962171,19.522136 39.253448,19.946612 39.415788,20.579122 39.318768,20.589762 38.94248,20.545452 38.997808,20.940404 39.102972,21.039996 39.204712,21.237206 39.07639,21.295942 39.166208,21.499074 38.794627,21.40497 38.620343,21.455836 38.568664,21.515993 38.761376,21.920804 39.269506,22.780747 39.282071,22.787843 39.289652,22.792054 39.280011,22.800996 39.296136,22.824455 39.116824,23.883001 38.980742,24.579564 39.260064,24.807448 39.567435,25.186373 39.892592,25.357608 40.042364,25.41281 39.880014,25.571718 39.924923,25.627081 39.889856,25.686371 40.069312,25.796359 40.241695,25.99643 40.342128,27.189464 40.274081,27.855096 40.431675,27.947161 40.44561,28.12576 40.638003,28.241802 41.150136,28.465506 40.838024,28.748786 40.675383,29.045715 40.817608,29.208158 40.707348,29.405985 41.288436,29.665328 41.752756,30.216704 41.793288,30.929065 41.71504,31.324101 41.818156,31.402274 41.804678,31.579612 42.262612,31.89872 42.027376,32.09802 41.626026,32.810093 41.792868,33.023926 41.659744,33.233055 42.307784,33.590304 42.729948,34.16834 42.628628,34.742676 42.435164,35.1229 42.537508,35.252768 42.467232,35.440339 42.978376,36.026468 42.616403,36.308044 42.346762,36.713757 42.525568,36.97174 42.452651,37.062338 42.866856,37.348352 43.08336,37.63638 42.740364,38.355271 42.196067,38.981026 42.337404,39.278544 42.244097,39.404636 42.9798,40.901415 43.076292,41.035255 43.057925,41.066747 43.073812,41.090856 43.059804,41.100712 42.925901,41.23261 42.395468,41.895911 41.980672,42.244276 41.175684,41.392968 41.035464,41.298796 41.338769,41.012278 41.323952,40.981528 41.37286,40.910909 41.217611,40.689199 41.07908,40.343316 41.434796,39.816459 41.918411,39.357028 41.815096,39.260668 41.946664,38.995424 42.012876,38.916934 41.591296,38.49462 41.084988,38.21178 41.561063,37.594556 41.814984,37.185417 41.725104,37.030575 41.813659,36.818836 41.373096,36.404232 40.918224,35.639692 40.969927,35.543416 41.050785,35.463734 41.020796,35.437236 41.071706,35.319394 40.862788,35.221476 40.964124,34.986588 41.516188,33.316648 41.453748,33.273348 41.33738,33.134639 41.37443,32.899139 40.815108,32.565784 40.269323,31.996566 40.196204,31.938704 40.1843,31.93343 40.190957,31.913886 40.175204,31.900474 40.19161,31.86043 40.376662,29.672951 40.322984,29.647545 40.124024,29.485594 40.1231,29.338734 39.657759,29.144527 39.085536,28.744736 39.14334,28.613859 39.249763,28.484429 39.202724,28.44736 39.302987,28.228216 38.780968,27.91531 38.819163,26.285494 38.603732,26.15276 38.603729,26.087094 38.382387,25.998663 38.069532,25.824877 38.276267,25.456294 38.494427,25.183161 38.40532,25.08311 38.552956,24.861687 37.496436,23.266038 37.345948,23.187454 37.372012,23.149703 37.39862,23.118309 37.391795,23.108002 37.400065,23.098628 37.279484,22.774648 37.637096,21.362993 37.576243,21.304463 37.57713,21.297296 37.373704,21.169316 37.117148,20.991058 37.53616,20.698447 37.66832,20.609129 37.816306,19.931241 37.720126,19.76936 37.31934,19.363176 37.683232,19.230293 37.808702,19.183961 37.883028,18.984085 38.080404,18.586831 37.720484,18.1314 38.060376,18.075373 38.206136,18.048859 38.284056,17.877343 38.48169,17.553178 38.150203,17.167968 38.455047,17.133332 38.592311,17.111333 38.636811,16.94796 38.759811,16.65536 38.439679,16.413239 38.670524,16.360826 38.766905,16.326147 38.72758,15.995109 38.731903,15.76473 38.482912,15.642693 38.610592,15.581646 38.675742,15.535859 38.475139,14.96574 38.450954,14.85856 38.338175,14.822024 38.382332,14.789173 38.409213,14.760832 38.10772,14.111445 38.1019,14.009502 38.070124,14.004356 38.101549,13.968382 38.082396,13.923215 37.916242,13.172712 37.759188,13.137249 37.680516,13.127268 37.852824,12.886259 37.847644,12.862861 37.864883,12.835191 37.726031,12.489079 37.64643,12.196655 37.358711,12.152145 37.204948,12.135811 37.385032,11.822556 37.500226,11.576018 37.322466,11.167934 36.867451,11.152044 36.631568,11.144114 36.745259,10.857896 36.876294,10.5007 36.553074,10.158191 36.256679,10.198077 35.940692,10.232047 35.993188,9.975565 36.055951,9.683061 35.57866,9.322946 35.497331,9.35267 35.12168,9.48163 35.123,9.258371 35.12511,9.042816 34.932464,8.95276 34.439262,8.724482 34.097832,8.933277 34.068652,8.756426 34.034831,8.579751 33.492993,8.435672 33.103887,8.322892 32.88196,8.503691 32.851034,8.388225 32.81255,8.268246 31.769249,8.109158 31.650984,8.086743 31.62182,8.083847 31.552762,8.147893 31.541446,8.112051 31.527143,8.074445 31.113873,8.033406 30.366479,7.65137 30.244188,7.740239 30.179742,7.795449 30.095501,7.512857 30.070768,7.500215 30.023826,7.370435 29.474391,6.94346 29.091399,7.180135 28.876784,7.340382 28.796274,6.918259 28.683297,6.489413 28.461671,6.453528 28.353478,6.508214 28.190167,6.494971 28.12898,6.527434 27.713988,6.814047 27.69466,6.604299 27.662717,6.452198 26.895786,6.390006 26.834865,6.291506 26.779558,6.330138 26.76758,6.182538 26.667054,6.071767 26.600821,6.101785 26.609597,6.178367 26.614156,6.187906 26.239016,6.207445 26.274032,6.364235 26.23217,6.424484 26.282167,6.55776 26.327976,6.684132 26.046172,6.692179 26.021337,6.72792 25.725578,7.138013 25.719878,7.20966 25.707688,7.21592 25.706211,7.260842 25.70624,7.304342 25.598751,7.272022 24.949742,7.599476 24.817042,7.624426 24.816502,7.625866 24.814763,7.62597 24.804598,7.653318 24.781482,7.63332 24.778682,7.63399 24.771809,7.62853 23.991641,7.675029 23.930123,7.681009 23.927975,7.684815 23.919042,7.68504 23.865,7.785369 23.84001,7.755181 23.790649,7.694571 23.78345,7.695271 23.777719,7.688604 23.068711,7.706483 22.969646,7.710011 22.967345,7.713511 22.957605,7.71356 22.886664,7.82611 22.860458,7.789111 22.808505,7.715753 22.802641,7.715962 22.801482,7.714353 22.083669,7.717994 21.973899,7.719045 21.972879,7.720546 21.966795,7.720516 21.895064,7.827319 21.870738,7.791168 21.823237,7.720488 21.817247,7.720545 21.816719,7.719771 21.095948,7.716194 20.988064,7.715157 20.987444,7.71602 20.981541,7.715869 20.903458,7.826118 20.878734,7.788508 20.830868,7.713648 20.822814,7.713571 20.821623,7.711774 20.097205,7.69322 20.01103,7.690164 20.006636,7.69532 19.998274,7.694773 19.925126,7.785379 19.905919,7.752282 19.869485,7.686342 19.015816,7.630456 19.011444,7.63399 19.006734,7.63304 18.985528,7.653319 18.974321,7.6265 18.840384,7.599477 18.188031,7.269275 18.125587,7.28888 18.083888,7.304342 18.080092,7.21464 18.07025,7.209658 18.063194,7.131867 18.03002,7.084415 17.746624,6.687264 17.592375,6.683784 17.462153,6.684129 17.560176,6.425974 17.51612,6.364234 17.551525,6.212831 17.428391,6.20598 17.17597,6.187906 17.185524,6.168036 17.198521,5.951023 17.109034,5.936907 17.061926,6.119047 17.040915,6.148298 17.020728,6.287734 17.010568,6.33014 16.928291,6.285075 16.894344,6.390006 16.345318,6.373363 16.171642,6.399126 16.076138,6.814049 15.841005,6.700877 15.515676,6.496431 15.436504,6.508175 15.280467,6.434576 15.126351,6.46261 14.996628,7.043681 14.913339,7.340371 14.487071,7.096108 14.268794,6.944077 13.939288,7.189742 13.786427,7.322501 13.719385,7.500181 13.706466,7.506228 13.641503,7.709565 13.610405,7.795423 13.39755,7.6508 13.249358,7.720154 12.676232,8.033419 12.334781,8.059315 12.268821,8.068852 12.237336,8.147922 12.202017,8.122541 12.151361,8.078663 11.233478,8.20534 10.992611,8.252135 10.908197,8.503685 10.795941,8.427629 10.659122,8.321408 10.122812,8.460975 9.765511,8.565301 9.692294,8.933269 9.522583,8.836804 9.34404,8.729669 9.058498,8.863334 8.663606,9.045929 8.668416,9.481631 8.451544,9.39915 8.245315,9.326287 8.103967,9.443684 7.738507,9.716362 7.77816,9.904936 7.849465,10.232029 7.583723,10.191573 7.270312,10.153815 6.925759,10.515738 7.074207,10.906815 7.158537,11.144114 6.833746,11.155704 6.421412,11.169857 6.273333,11.500469 6.518555,11.980115 6.58518,12.135819 6.192463,12.207917 6.052513,12.22626 5.896316,12.606557 5.876459,12.712698 6.073444,13.045739 6.10963,13.127212 5.793182,13.217459 5.716356,13.400033 5.67487,13.935152 5.714368,13.992851 5.720001,14.004367 5.656652,14.027454 5.682174,14.112111 5.395461,14.681897 5.375884,14.738132 5.451959,14.821971 5.393981,14.851373 5.31112,14.880135 5.124569,15.336711 5.090826,15.485921 5.307212,15.642702 5.171287,15.737652 4.994435,15.827636 4.969105,15.969835 4.972781,16.275081 5.350459,16.413252 5.162413,16.598965 4.990522,16.730682 5.135126,17.08716 5.639914,17.167992 5.4401,17.409827 5.265572,17.61251 5.515139,18.030557 6.069652,18.131396 5.85443,18.375393 5.735608,18.526212 5.671461,18.66523 5.913895,19.157488 5.94872,19.170274 6.470789,19.36316 6.211776,19.584104 6.134944,19.661696 5.956166,19.982886 5.924036,20.034535 5.976679,20.265176 6.110165,20.458104 6.151889,20.636296 6.412216,20.815344 6.672981,20.991062 6.291727,21.213093 6.434944,21.571084 6.510599,22.7748 6.429177,23.022383 6.39455,23.104071 6.398332,23.108027 6.389468,23.125448 6.444157,23.18744 6.393917,23.207718 6.332669,23.237092 5.790393,24.302954 5.266472,24.922039 5.384744,25.083162 5.296071,25.222845 5.291061,25.265323 5.454077,25.515576 5.720586,25.824914 5.201519,26.024512 5.18639,26.152782 5.079431,26.207227 5.139105,26.775308 5.009175,27.915266 4.778109,28.200231 4.525396,28.34079 4.587379,28.447366 4.505462,28.536128 4.704576,28.74478 4.489668,28.833266 3.955366,29.132187 3.950707,29.137235 3.931342,29.145628 3.688119,29.281703 3.666037,29.485641 3.45137,29.623948 3.629813,30.495198 3.603267,31.88857 3.614885,31.900608 3.602018,31.907066 3.605849,31.933351 2.891785,32.68606 2.437928,32.901122 2.452708,33.13464 2.282698,33.293354 2.67426,34.119071 2.927301,35.221643 2.856461,35.304648 2.728808,35.370772 2.769369,35.4373 2.717572,35.495782 2.871895,35.639636 2.705349,35.8048 1.968616,36.736535 2.065007,37.030628 1.995603,37.124942 2.41303,37.651072 2.70514,38.211864 2.429164,38.554911 1.782419,38.961012 1.975117,39.260712 1.854074,39.391619 2.352388,40.00096 2.711052,40.343208 2.384525,40.847417 2.46615,40.981507 2.45924,40.993456 2.639978,41.162895 2.75468,41.29882 2.244268,41.9223 1.809435,42.244236 1.57555,41.98867 1.353952,41.827072 0.716317,41.090828 0.733758,41.056485 0.713837,41.035228 0.724594,41.0264 0.763571,40.979877 1.137259,40.034336 1.536159,39.375048 1.452813,39.278576 1.539947,39.0353 1.591684,38.948593 1.034191,38.021452 0.706766,37.636244 1.31046,37.250468 1.388048,37.16559 1.264542,36.9717 1.395756,36.821751 1.035946,36.498831 0.811765,36.0264 1.066748,35.573867 1.292859,35.33223 1.25262,35.25274 1.423602,34.969898 1.060196,34.168324 1.478739,33.958716 2.123944,33.287832 1.997216,33.023934 2.153664,32.872241 1.741622,32.439738 1.527515,31.898769 1.77604,31.619785 1.987077,31.477749 1.971941,31.402334 2.158327,31.220961 2.03729,30.216961 2.564539,29.993786 3.100921,29.519748 2.972536,29.208304 3.057831,29.135377 2.770176,28.801922 2.639998,28.465459 3.022701,28.172664 3.361699,28.022225 3.358426,27.94716 3.607722,27.748592 3.60565,27.507911 3.548438,25.99636 3.919751,25.75015 3.86518,25.627028 3.876924,25.614983 3.793276,25.515043 3.747751,25.412808 4.198989,25.108152 4.485848,24.990458 4.828385,24.639145 4.510579,22.912455 4.493993,22.824429 4.509786,22.803443 4.500476,22.792024 4.518678,22.781628 4.984317,21.876178 4.623911,21.49913 4.707923,21.218856 4.58539,21.237196 4.736912,21.122146 4.753883,21.065527 4.733037,20.661174 4.743275,20.374574 4.374306,20.579121 4.437093,20.486748 4.76327,19.814853 4.766899,19.713271 4.686931,19.453359 4.440654,19.47117 3.96488,19.721782 3.993722,19.666488 4.441118,18.586678 4.401485,18.496304 3.96819,18.495408 3.423669,18.647012 3.594698,18.334839 3.987368,17.545732 3.90422,17.350982 3.467325,17.182614 3.04463,17.076268 3.648196,16.450871 3.601855,16.333532 3.762223,16.179196 3.759203,16.064163 3.455223,15.811462 3.138622,15.537094 3.716295,15.246666 3.708173,15.15265 3.886868,15.045784 3.910983,14.913431 3.698925,14.665127 3.42678,14.340713 3.936092,14.182369 4.052304,14.1477 4.071359,14.046249 4.210472,13.991547 4.232097,13.919418 4.049982,13.652196 3.812246,13.300743 4.285416,13.201902 4.464827,13.166652 4.4917,13.083837 4.614295,13.050739 4.656967,12.944213 4.493341,12.671774 4.269137,12.305759 4.702269,12.240712 4.96365,12.202661 4.99853,12.12302 5.046024,12.11359 5.099356,11.985435 5.083358,11.953877 5.140432,11.823734 5.027011,11.605483 4.806776,11.200475 5.160636,11.165597 5.446892,11.136365 5.670839,10.64446 5.66234,10.62296 5.705703,10.5452 5.686971,10.496907 5.490141,10.019945 5.745398,10.019891 5.95559,10.018998 5.971352,9.984376 6.01827,9.984701 6.148052,9.751973 6.429074,9.256797 6.424915,9.238256 6.451634,9.205592 6.36932,8.852983 6.511246,8.873976 6.635681,8.892743 6.647565,8.871803 6.716614,8.881643 7.399331,8.04699 7.496404,7.927737 7.496498,7.913023 7.504099,7.907948 7.503234,7.80989 7.537222,7.822161 7.571702,7.835235 7.57515,7.830998 7.603955,7.841276 8.283034,7.38787 8.864591,7.119316 8.865142,7.116381 8.867727,7.115583 8.876425,7.073171 8.914239,7.09639 8.915895,7.095625 8.921297,7.099022 8.978848,7.08123 10.272054,6.697285 10.272214,6.696749 10.273956,6.696397 10.294441,6.635769 10.312042,6.579702 10.407957,6.656937 10.416111,6.654516 10.429376,6.664982 10.616185,6.627221 11.640354,6.445961 11.686112,6.326639 11.722508,6.214123 11.924576,6.395659 11.954352,6.390389 11.980171,6.412228 12.495964,6.342345 12.897432,6.306971 12.967394,6.102401 13.016079,5.883621 13.425289,6.238187 13.451678,6.258133 13.546941,6.24974 13.595884,6.288194 14.010807,6.244495 14.112911,5.869121 14.152929,5.473247 14.389047,5.653777 14.616859,5.794294 15.175533,5.061929 15.176613,5.056487 15.191287,5.032427 15.192758,4.984271 15.212436,4.997747 15.233465,4.963266 16.117149,4.886699 16.168469,4.697927 16.194248,4.470746 16.593712,4.763715 16.717017,4.834724 16.798359,4.827676 17.092746,4.41842 17.321358,4.127097 17.51044,4.389587 17.695889,4.619955 17.977962,4.502655 18.314346,4.466456 18.391124,4.872218 18.396388,5.046194 18.626476,5.045787 18.82339,5.0931 18.7498,5.462454 18.935262,5.464347 19.006446,5.460819 19.011207,5.461543 19.022428,5.463252 19.021349,5.469012 19.033392,5.477882 19.012919,5.514025 18.984824,5.664047 19.156991,5.598675 19.18173,5.735044 19.182693,5.924273 19.474686,5.675645 19.564971,5.87258 19.664825,6.146533 19.76655,6.166896 20.115486,5.752852 20.238562,5.961318 20.403647,6.253549 20.602321,6.264848 20.648762,6.201807 20.953334,5.784105 21.08828,5.988454 21.286432,6.284447 21.54166,6.28469 21.596421,6.206664 21.895064,5.784764 22.033671,5.983261 22.246864,6.285273 22.500732,6.285031 22.551375,6.208832 22.836794,5.78411 22.982712,5.981002 23.188218,6.2619 23.396287,6.250059 23.426392,6.198055 23.674632,5.752849 23.824041,5.933129 24.007173,6.151146 24.168252,6.118698 24.315452,5.675647 24.452243,5.809741 24.559997,5.904109 24.653925,5.85225 24.633158,5.598675 24.709985,5.645605 24.761174,5.461955 24.798582,5.469375 24.826451,5.463711 24.894168,5.426285 25.076177,5.342543 25.04119,5.21284 24.966736,5.0931 25.326752,5.157492 25.438518,5.140874 25.493698,4.721027 25.47578,4.466456 25.686721,4.610438 26.025012,4.683293 26.232371,4.407319 26.468766,4.127094" slic3r:type="contour"/>
    <polygon style="fill: white" points="2.475403,43.957664 3.044912,44.600564 2.949164,44.730707 2.663819,44.977393 3.116171,45.244768 2.962918,45.468324 2.269849,46.574388 1.637853,46.192008 1.160734,45.846104 1.346874,45.540623 1.707135,45.014412 1.00192,44.41046 1.308069,44.100596 1.919839,43.406408" slic3r:type="contour"/>
    <polygon style="fill: white" points="2.970816,48.088571 3.445803,48.658865 3.610688,48.738508 3.636493,48.743984 3.582317,48.822772 3.58486,48.825824 3.579269,48.833528 3.629729,48.910151 3.70026,49.038552 3.460122,49.928047 3.043907,50.789592 3.55566,50.963184 4.160151,51.079716 3.976597,51.348971 3.41814,52.225459 2.714202,52.007843 2.253246,51.845148 2.490856,51.45314 2.983459,50.811044 2.91758,50.693076 2.923422,50.682755 2.926573,50.678568 2.929109,50.679424 2.972598,50.622975 2.329601,49.649461 1.694374,49.364064 1.77661,49.246936 1.937423,49.055694 1.913362,49.019266 1.581644,48.670968 1.781965,48.397483 2.427958,47.487768" slic3r:type="contour"/>
    <polygon style="fill: white" points="4.261641,52.89488 4.798878,52.922648 4.605823,53.265823 4.187897,54.105788 3.38526,54.008923 2.983067,53.924544 3.218138,53.40956 3.592826,52.781236" slic3r:type="contour"/>
    <polygon style="fill: white" points="5.502534,54.784531 5.213602,55.678516 4.43067,55.736212 3.992164,55.725304 4.142898,55.178063 4.399499,54.51366 5.080742,54.50108 5.631892,54.445484" slic3r:type="contour"/>
    <polygon style="fill: white" points="6.684534,56.047724 6.552927,57.011059 5.86688,57.200176 5.351693,57.291148 5.400735,56.780875 5.526008,56.042499 6.143703,55.906828 6.738027,55.750948" slic3r:type="contour"/>
    <polygon style="fill: white" points="8.213685,57.164448 8.240317,58.150308 7.655165,58.415263 7.088568,58.626752 7.062537,58.174035 7.06287,57.377692 7.60329,57.162871 8.212965,56.907412" slic3r:type="contour"/>
    <polygon style="fill: white" points="10.011662,58.140848 10.162345,59.137488 9.668921,59.431719 9.071153,59.74758 9.003911,59.359923 8.900338,58.517256 9.369642,58.26604 9.983551,57.925716" slic3r:type="contour"/>
    <polygon style="fill: white" points="42.381587,43.926943 42.788216,44.410468 42.539067,44.703568 42.104178,45.073287 42.629424,45.846003 42.265135,46.063128 41.520288,46.574312 41.083276,45.941108 40.673988,45.244684 40.800844,45.15494 41.162045,44.938557 40.745224,44.600612 40.945051,44.400596 41.87026,43.406424" slic3r:type="contour"/>
    <polygon style="fill: white" points="41.793099,48.075459 42.208484,48.670992 42.047051,48.86252 41.84554,49.069716 42.095744,49.364096 41.946984,49.435519 41.50073,49.639452 41.3977,49.809719 40.77122,50.697118 40.863456,50.678552 40.872472,50.693095 40.863343,50.711656 40.804083,50.812987 41.175895,51.383455 41.536884,51.845156 41.087931,51.980008 40.371972,52.22546 39.976732,51.642616 39.629976,51.079728 39.876,50.988972 40.741178,50.787116 40.184715,49.244371 40.089868,49.03854 40.21376,48.837518 40.205272,48.825831 40.207598,48.823141 40.17016,48.76872 40.153632,48.743984 40.382846,48.620463 41.362192,47.487836" slic3r:type="contour"/>
    <polygon style="fill: white" points="40.574387,53.543139 40.807072,53.924536 40.27708,53.975087 39.602264,54.105768 39.242747,53.456819 38.991247,52.922688 39.341664,52.856375 40.197268,52.7812" slic3r:type="contour"/>
    <polygon style="fill: white" points="38.51284,54.447924 39.390808,54.513816 39.634543,55.314071 39.797972,55.725304 39.287704,55.670752 38.576472,55.678556 38.330304,55.016964 38.1582,54.445496" slic3r:type="contour"/>
    <polygon style="fill: white" points="37.349988,55.814592 38.264124,56.042543 38.350435,56.794579 38.438448,57.291124 37.998683,57.154291 37.237236,57.011116 37.128931,56.383439 37.052072,55.750956" slic3r:type="contour"/>
    <polygon style="fill: white" points="35.820044,57.003192 36.727295,57.377688 36.697584,58.05564 36.701576,58.626751 36.329671,58.448335 35.549848,58.150292 35.553984,57.571163 35.577183,56.907396" slic3r:type="contour"/>
    <polygon style="fill: white" points="34.003007,58.030275 34.889788,58.51718 34.792971,59.114064 34.718988,59.74758 34.410723,59.557347 33.627792,59.137572 33.697504,58.61862 33.806592,57.925696" slic3r:type="contour"/>
    <polygon style="fill: white" points="31.998509,58.895375 32.864852,59.474216 32.733566,59.992943 32.589712,60.681723 32.338971,60.497703 31.590251,60.003055 30.801425,60.32747 30.776038,60.410819 30.702389,60.438509 30.615748,60.705831 30.409408,61.447836 30.211509,61.282795 29.615005,60.827748 28.647419,61.171459 28.613116,61.260656 28.537048,61.283159 28.262504,62.06218 28.117258,61.925068 27.666864,61.536574 26.467573,61.870154 26.433408,61.942748 26.381833,61.952737 26.131402,62.514668 26.03162,62.40644 25.707623,62.083323 25.274319,62.167248 24.287444,62.345744 24.259834,62.394788 24.233154,62.396677 24.010764,62.793072 23.943313,62.707875 23.722834,62.447864 23.71744,62.44884 23.706111,62.433993 22.890328,62.491755 22.146062,62.540747 22.125124,62.572412 22.117348,62.571858 21.895064,62.88826 21.843086,62.810692 21.675941,62.571692 21.665004,62.572412 21.642464,62.537997 20.819309,62.479303 20.088271,62.431373 19.779364,62.793072 19.724595,62.696579 19.556027,62.396476 19.530286,62.394788 19.496714,62.335303 18.988776,62.235168 18.102114,62.076327 17.658698,62.514668 17.592748,62.376692 17.401472,61.950811 17.356732,61.942796 17.311287,61.84752 16.152071,61.528743 15.527622,62.06218 15.449417,61.86682 15.238592,61.277541 15.177032,61.260612 15.136256,61.157102 14.191556,60.824893 14.023954,60.961911 13.380741,61.44784 13.293821,61.187623 13.079371,60.433786 13.01405,60.410816 12.986761,60.324371 12.201923,60.003622 11.821006,60.276371 11.200433,60.681723 11.115355,60.358456 10.925291,59.474268 11.330248,59.213431 11.944693,58.797476 11.98264,58.968168 12.238644,59.994428 13.094002,60.215299 13.375548,60.009467 13.990199,59.522783 14.025272,59.644039 14.254814,60.339018 15.53707,60.52913 15.565274,60.504663 16.007015,60.103112 16.02979,60.167952 16.179315,60.534695 17.545556,60.59284 17.902279,60.617407 17.990242,60.525328 17.995718,60.537888 18.032795,60.612629 18.624484,60.608652 19.877973,60.860274 19.931648,60.795207 19.949638,60.772616 20.008728,60.880936 20.225878,60.895748 21.786841,61.012348 21.867842,60.892811 21.895064,60.853692 22.003223,61.013864 22.293378,60.994167 23.778842,60.882093 23.825191,60.798108 23.84049,60.772616 23.914586,60.862051 24.071059,60.83322 25.165665,60.608652 25.625822,60.619876 25.753282,60.616701 25.799918,60.525328 25.810461,60.535391 25.897057,60.624271 26.998043,60.607736 27.590505,60.559934 27.783086,60.103112 27.839908,60.149584 28.298324,60.556857 28.413342,60.545575 29.514586,60.370044 29.538318,60.290028 29.799926,59.522776 29.907946,59.600876 30.705851,60.21994 31.55162,59.99548 31.658707,59.524152 31.84544,58.797476" slic3r:type="contour"/>
  </g></svg>