<svg width="43.790126" height="63.590156" xmlns="http://www.w3.org/2000/svg" xmlns:svg="http://www.w3.org/2000/svg" xmlns:xlink="http://www.w3.org/1999/xlink" xmlns:slic3r="http://slic3r.org/namespaces/slic3r"><g xmlns="http://www.w3.org/2000/svg" slic3r:z="3.10249999999999e-005" id="layer93">
    <polygon style="fill: white" points="22.148236,2.710993 22.207539,2.804837 22.276569,2.704292 22.563314,2.312191 22.794598,2.725082 22.823725,2.774031 22.92358,2.77841 23.001948,2.690726 23.307364,2.384088 23.47733,2.811747 23.612468,2.750282 23.906012,2.78591 23.961075,2.746488 24.141452,2.632048 24.177307,2.818839 24.241944,2.826684 24.507054,2.855839 24.408014,3.25303 24.419625,3.391313 24.976408,3.375894 24.906445,3.951191 24.981232,3.977981 25.330352,4.072533 25.099385,4.332755 25.012887,4.477384 25.589604,4.665413 25.467449,5.120435 25.541237,5.151819 25.77759,5.202719 25.457444,5.503557 25.303147,5.732452 25.25603,5.907961 25.328573,5.938697 25.926359,6.07563 26.090414,6.137284 26.057261,6.255909 26.139118,6.265889 26.030112,6.353057 25.992996,6.485868 25.966899,6.522092 25.88033,7.008195 26.103714,7.094866 26.448704,7.185473 26.256595,7.351587 25.973232,7.729334 26.184073,7.791042 26.670606,7.978652 26.609808,8.055795 26.335371,8.406133 26.866724,8.59824 26.832632,8.672809 26.685027,8.903397 27.056829,8.962696 27.014885,9.229252 27.291666,9.191433 27.328547,9.488804 27.401554,9.50922 27.782516,9.416555 27.790672,9.441239 28.245639,9.773907 28.370089,9.839291 28.615216,9.668336 28.659882,9.788331 28.736967,10.03204 28.749541,10.038646 28.767289,10.081557 28.918595,10.162117 29.187238,10.293558 29.247144,10.246123 29.661634,9.94398 29.740763,10.156536 29.908188,10.646301 29.936288,10.66005 29.983496,10.773507 30.046291,10.809064 30.46611,10.506038 30.80994,10.280746 30.917756,10.605785 31.100467,11.214816 31.661303,10.833916 31.893494,10.696429 32.040262,11.181949 32.072944,11.31397 32.345655,11.330981 32.384413,11.328208 32.470371,11.277221 32.498124,11.275331 32.704886,11.119094 32.785036,11.06904 32.849208,11.251427 32.909638,11.247314 33.104437,11.182944 33.263904,11.378747 33.39813,11.273713 33.4673,11.376125 33.523998,11.517923 33.640984,11.312272 33.645313,11.316768 33.67514,11.306756 33.769117,11.444476 33.870666,11.180338 33.870032,11.177918 33.872429,11.176427 33.872632,11.175754 33.873573,11.175716 34.023495,11.169692 34.238749,11.161619 34.244528,10.952186 34.222072,10.804445 34.638931,10.955335 34.690795,10.965665 34.811551,10.653402 34.902964,10.336611 35.197191,10.545722 35.401959,10.672078 35.489923,10.581636 35.861067,10.229433 36.014588,10.493611 36.159396,10.752195 36.726032,10.530228 36.765135,10.758657 36.813565,11.136425 37.430148,11.103044 37.406531,11.264633 37.317601,11.72861 37.949292,11.890064 37.901315,11.988125 37.768064,12.234511 37.771624,12.238442 37.735799,12.300915 37.810444,12.463291 37.879021,12.612185 38.224916,12.782332 38.178416,12.838254 38.047333,12.977624 38.055031,12.994338 38.028899,13.024402 38.161403,13.487651 38.19682,13.604373 38.345768,13.695135 38.320536,13.718677 38.24978,13.777161 38.374859,14.16724 38.314155,14.576158 38.374684,14.616986 38.399971,14.63288 38.292894,14.719364 38.292635,14.72111 38.274689,14.735422 38.140075,15.193724 38.080916,15.382909 38.322883,15.539826 38.454436,15.597787 37.897508,16.046167 37.864351,16.07545 37.826059,16.197899 37.759486,16.259132 38.225892,16.518121 38.579172,16.632348 38.271811,16.883636 37.989042,17.202261 38.601352,17.618293 38.651235,17.640413 38.742607,17.704247 38.813636,17.721234 38.793216,17.739604 38.827688,17.763685 38.795387,17.868734 38.407592,18.783517 38.815291,18.909329 39.282924,18.986344 39.195487,19.094606 39.138271,19.198536 39.431047,19.2972 39.255041,20.178218 39.625812,20.28086 39.949364,20.331838 39.634499,20.882651 39.765296,21.044368 39.712992,21.150974 40.084044,21.623198 40.130955,21.699652 40.45946,21.81252 40.661588,21.850807 40.425353,22.179452 40.521732,22.336527 40.458451,22.467029 40.775844,22.88441 41.222439,23.740352 41.389868,23.814148 41.494652,23.844158 41.357284,23.998791 41.41016,24.100134 41.367203,24.180575 41.543588,24.395334 42.00136,25.303402 42.157812,26.059117 42.155124,26.244421 42.217136,26.279128 42.219582,26.325944 42.349092,26.374132 42.307156,26.417675 42.230736,26.539417 42.298148,27.8295 42.143736,28.759052 42.38104,28.919168 42.363745,29.149174 43.052788,29.499948 42.807396,29.722711 42.214915,30.525537 41.636955,30.245665 41.08126,29.764538 41.205884,29.556857 41.571496,29.185613 41.528232,29.126676 41.708207,28.788433 40.74946,27.431814 40.481852,27.113192 40.497037,26.86288 40.475328,26.847508 40.474023,26.835706 40.424451,26.817523 40.39664,26.796968 40.455131,26.664831 40.397551,26.144057 40.170453,24.759936 39.99984,24.665426 39.986334,24.604409 39.7264,24.534304 39.581812,24.443222 39.811947,23.816507 39.620919,22.953422 39.372212,22.848438 39.352139,22.769009 39.007179,22.697233 38.814864,22.598746 39.031372,21.929669 39.11118,21.815509 39.038313,21.527173 38.859212,21.471756 38.824846,21.343049 38.396903,21.269405 38.154028,21.183332 38.319571,20.6379 38.419502,20.468524 38.028011,20.248505 37.642539,20.156062 37.684251,19.882432 37.701642,19.836356 37.457871,19.76586 37.567139,19.565228 37.95641,18.893732 37.531132,18.581846 36.917244,18.313751 36.933391,18.273028 36.897992,18.255852 36.910648,18.237425 36.96161,18.181575 36.98966,18.093277 37.418981,17.396658 37.071043,17.239995 36.616524,16.960058 36.963168,16.536338 37.266974,16.27576 37.178564,16.21842 37.162788,16.187728 36.602012,15.857398 36.472659,15.769682 36.784802,15.452328 36.713188,15.312999 36.418588,14.84342 36.454059,14.760609 36.410412,14.733002 36.423595,14.720967 36.471108,14.683403 36.570343,14.157481 36.596493,13.988931 36.356704,13.855657 36.423688,13.796762 36.603037,13.640052 36.601344,13.557222 36.601358,13.310111 36.271428,13.17724 36.348684,13.094533 36.543585,12.878833 36.527435,12.786948 36.140871,12.71938 36.204583,12.59604 36.32126,12.391306 35.947252,12.424812 35.97508,12.151632 35.733476,12.246294 35.693541,12.088797 35.566552,12.204527 35.566292,12.20533 35.463506,12.141676 35.480284,12.330233 35.167046,12.261837 35.092263,12.400585 35.125272,12.58217 35.141316,12.692264 34.953727,12.659234 34.771368,12.969758 34.556051,12.975038 34.533992,13.111401 34.437408,13.060676 34.298487,12.980006 34.212656,12.981718 34.177835,12.967405 34.051391,12.972335 33.930974,12.969097 33.802584,13.297471 33.571543,13.098923 33.483446,13.008063 33.353703,13.02484 33.229163,13.046363 33.171348,13.09383 33.105665,13.101249 32.99497,13.22411 32.981689,13.166751 32.960505,13.117648 32.722724,13.144507 32.302895,12.800341 32.207927,12.862397 32.110946,12.937004 32.056754,12.59856 31.944893,12.50686 31.923958,12.436405 31.643791,12.214481 31.401678,12.369358 31.166028,12.543906 31.090738,12.065708 30.992393,11.680349 30.899893,11.599552 30.512399,11.88066 30.168608,12.160865 30.095566,11.822147 29.978813,11.435522 29.744982,11.422286 29.719872,11.443091 29.576273,11.442148 29.528333,11.480729 29.115812,11.857647 29.055876,11.64613 28.981477,11.438241 28.792766,11.437003 28.321509,11.408258 28.287474,11.435052 28.219858,11.430114 28.054152,11.583366 28.028196,11.494849 27.999585,11.41403 27.3317,11.36526 27.10578,11.234095 27.051024,11.271497 27.03505,11.193031 27.022872,11.18596 27.014795,11.156728 26.929915,11.094528 26.422571,10.708247 26.304259,10.747534 26.132484,10.807315 26.140135,10.493206 26.064028,10.43526 26.042605,10.186583 26.00086,10.128874 25.75054,10.136021 25.42621,10.142207 25.607625,9.666104 25.623559,9.613415 25.527256,9.483523 25.366183,9.453666 24.970085,9.366342 25.246967,8.972586 25.367363,8.780738 25.043807,8.69093 24.675868,8.559153 25.018058,8.163091 25.1773,7.971226 24.580785,7.809338 24.432262,7.752839 24.558098,7.596173 24.482366,7.551829 24.358516,7.537658 24.512454,7.132713 24.526915,7.005585 24.163384,6.853696 24.3238,6.58203 24.61311,6.24782 24.627737,6.119233 24.210563,5.954648 23.851764,5.945836 23.906442,5.834665 23.781442,5.785349 23.830217,5.670318 23.9551,5.509525 23.957756,5.49484 24.229061,5.046268 24.243628,4.983474 24.177999,4.961403 24.136008,4.963766 23.988889,4.929341 23.478262,5.044236 23.524834,4.882687 23.530678,4.822123 23.274826,4.762257 23.323879,4.5536 23.186756,4.644781 23.239554,4.318221 23.209694,4.125868 22.887574,4.47019 22.854579,4.266478 22.80118,4.125595 22.72659,4.130006 22.64382,4.128669 22.461222,4.392009 22.403538,4.252094 22.338386,4.134019 22.095057,4.141304 22.052226,4.140981 21.895064,4.390031 21.828618,4.262153 21.747494,4.131006 21.530472,4.124121 21.478806,4.124511 21.328894,4.391992 21.247198,4.258407 21.138053,4.098897 21.105838,4.095981 21.041367,4.097269 20.902582,4.470181 20.733622,4.302023 20.657425,4.221542 20.603348,4.644755 20.4601,4.584649 20.41383,4.649874 20.515246,4.762273 20.353619,4.74822 20.275864,4.772179 20.311848,5.044222 20.065329,5.032984 19.596055,4.952693 19.723638,5.333838 19.832392,5.494888 19.869073,5.650979 20.008674,5.78538 19.901479,5.788883 19.938368,5.945858 19.751667,6.009383 19.165942,6.106364 19.223692,6.41751 19.284808,6.508797 19.62676,6.853698 19.429327,6.866698 19.315865,6.914135 19.431594,7.537674 19.253103,7.634137 19.357848,7.752837 18.895932,7.827165 18.801807,7.878033 18.664037,8.022389 18.920052,8.323662 19.114288,8.559154 18.649573,8.658087 18.416241,8.740689 18.640296,9.074158 18.82006,9.366313 18.35961,9.441235 18.283385,9.457687 18.188553,9.59015 18.284065,9.863991 18.363912,10.142226 17.867914,10.125385 17.806298,10.124094 17.742708,10.212917 17.726074,10.435296 17.659792,10.483307 17.661268,10.630175 17.657614,10.807319 17.350247,10.707519 17.254233,10.777064 16.777711,11.149945 16.767241,11.186005 16.756628,11.19132 16.74856,11.229645 16.739104,11.271502 16.674645,11.232369 16.634347,11.252548 16.45854,11.365226 15.928206,11.366697 15.810306,11.385635 15.735975,11.583366 15.658816,11.52362 15.549084,11.427594 15.502654,11.435052 15.404766,11.361349 15.206045,11.347638 14.857022,11.376965 14.674293,11.857653 14.48022,11.706247 14.168906,11.434784 14.070222,11.443076 14.002536,11.389163 13.846606,11.401692 13.782877,11.661679 13.621488,12.160878 13.289487,11.926691 12.876793,11.603818 12.826376,11.640761 12.717825,12.205316 12.624129,12.543886 12.12297,12.234369 12.068567,12.196058 11.912068,12.310736 11.845244,12.506872 11.769333,12.561556 11.721028,12.798441 11.679177,12.93701 11.448822,12.792441 11.372266,12.847588 11.067425,13.144507 10.889184,13.111912 10.852324,13.109446 10.795185,13.224112 10.732893,13.172172 10.656808,13.096372 10.618805,13.093831 10.588134,13.069757 10.245171,13.035129 10.204517,13.027439 9.987547,13.29748 9.826968,13.121534 9.722749,12.945912 9.665798,12.944952 9.577501,12.981677 9.466362,12.979297 9.256099,13.111373 9.247214,13.045186 9.236251,12.974369 9.018668,12.969709 8.842268,12.653566 8.74398,12.671364 8.64878,12.692265 8.704822,12.407235 8.612799,12.242311 8.532794,12.260489 8.309864,12.330232 8.33716,12.194765 8.273987,12.159178 8.219023,12.209728 8.127585,12.040309 8.05141,12.060698 8.056633,12.246293 7.895118,12.112459 7.73019,12.041275 7.842847,12.424831 7.701034,12.380367 7.432036,12.348852 7.649229,12.719432 7.53216,12.732078 7.263786,12.776348 7.246708,12.873422 7.51869,13.177251 7.419849,13.222325 7.181235,13.320475 7.180396,13.372 7.179976,13.634647 7.433421,13.855716 7.362055,13.900146 7.20137,13.991162 7.308542,14.603703 7.3223,14.689831 7.379714,14.732996 7.340949,14.757317 7.371537,14.843477 7.005099,15.506412 7.217031,15.710191 7.317489,15.769576 6.709667,16.108506 6.650759,16.147456 6.611548,16.218394 6.48799,16.296329 6.874645,16.743185 7.173619,16.960013 6.806595,17.09933 6.347453,17.370628 6.372406,17.414853 6.800251,18.092875 6.835945,18.201557 6.89214,18.255868 6.856691,18.264731 6.872842,18.313908 6.773995,18.380881 5.847752,18.928974 6.073929,19.337494 6.332281,19.765858 6.171606,19.793585 6.020357,19.835425 6.147598,20.156082 5.324985,20.567401 5.480701,20.956677 5.636125,21.183288 5.060836,21.261918 4.993959,21.280367 4.930908,21.471742 4.845363,21.490662 4.726803,22.067932 4.707786,22.115998 4.854758,22.456873 4.975285,22.598698 4.488469,22.670309 4.418011,22.848388 4.323287,22.879623 4.231735,23.45977 3.995249,24.105669 4.110742,24.344586 4.208303,24.443266 3.844223,24.518157 3.790296,24.665446 3.7252,24.694449 3.710864,25.147618 3.343146,26.725948 3.372194,26.777366 3.393471,26.796992 3.32125,26.81993 3.308037,26.876644 3.316018,26.934142 3.308301,27.113063 2.660771,28.347802 2.113,28.899417 2.261941,29.126686 2.178919,29.269933 2.708871,29.764464 2.481701,29.862626 1.575333,30.525318 1.117765,30.0828 0.737337,29.499852 0.999055,29.296232 1.434575,29.067135 1.409072,28.919196 1.702011,28.696549 1.592851,26.651312 1.441037,26.374158 1.492222,26.34243 1.574635,26.310013 1.572988,26.27916 1.68406,26.208825 1.788767,25.303405 2.453869,24.260442 2.379955,24.100107 2.423161,24.036063 2.334579,23.926058 2.295471,23.844128 2.68812,23.64332 3.26325,22.790814 3.376692,22.596536 3.268397,22.336514 3.345851,22.231725 3.197975,22.010599 3.128511,21.850838 3.820421,21.567021 3.840315,21.562762 4.095788,21.217131 4.024805,21.04437 4.138649,20.896922 3.947221,20.554698 3.840749,20.331844 4.380927,20.153098 4.614823,20.110201 4.550261,19.607589 4.359063,19.297214 4.612403,19.185582 4.507216,18.986304 4.734385,18.91138 5.434659,18.747032 5.29982,18.190665 5.283121,18.166419 4.96245,17.763653 4.996542,17.750353 4.976488,17.721238 4.995703,17.71224 5.07584,17.687128 5.138856,17.640432 5.617136,17.419572 5.799687,17.262501 5.575544,17.058155 5.210954,16.632349 5.695754,16.350843 5.974974,16.238087 5.93943,16.106907 5.474223,15.722376 5.335688,15.597826 5.729888,15.333557 5.669214,15.109628 5.533104,14.749007 5.49746,14.721082 5.496715,14.716085 5.415976,14.651994 5.390158,14.632874 5.475622,14.574675 5.467503,14.520251 5.415254,14.167505 5.518941,13.84266 5.541479,13.772854 5.444364,13.695093 5.476678,13.677157 5.586878,13.611582 5.719301,13.136461 5.755758,13.017586 5.735121,12.994423 5.746604,12.969425 5.565181,12.782351 5.635929,12.754957 5.9021,12.630926 5.98715,12.445782 6.054542,12.299493 6.018517,12.238416 6.027745,12.228154 5.840865,11.890031 5.95192,11.877454 6.44193,11.768218 6.484914,11.720823 6.360034,11.102991 6.522767,11.133718 6.988466,11.173188 7.064083,10.530205 7.272628,10.640282 7.617699,10.786651 7.690213,10.660322 7.929058,10.229432 8.156494,10.467397 8.36062,10.666504 8.582872,10.517231 8.887177,10.336625 9.065672,10.774894 9.110442,10.911552 9.383147,10.834239 9.568054,10.804413 9.592553,11.204069 9.919569,11.175601 9.920502,11.179758 9.920024,11.188375 9.923147,11.398591 10.136536,11.296427 10.328942,11.538936 10.392003,11.273684 10.419397,11.332241 10.466649,11.37556 10.685704,11.182928 10.962673,11.224119 10.98726,11.148019 11.00512,11.06904 11.240799,11.265482 11.319783,11.277229 11.329201,11.283404 11.749014,11.268231 11.845569,10.926475 11.896642,10.69643 12.24657,10.950534 12.689878,11.226027 12.878568,10.635113 12.980188,10.280746 13.231827,10.471253 13.735817,10.812861 13.810456,10.770554 13.853841,10.660073 13.891148,10.640867 13.982563,10.386506 14.128522,9.94398 14.297768,10.083748 14.573365,10.290819 15.031423,10.063789 15.040591,10.038684 15.071909,10.019058 15.174936,9.668332 15.270406,9.748896 15.377727,9.827417 16.003073,9.435542 16.005458,9.420651 16.544416,9.375579 16.498504,9.191405 16.776305,9.344919 16.809721,9.353391 16.920222,9.34415 16.896284,9.246126 16.733295,8.962697 16.866066,8.996615 17.005203,8.992499 17.110999,8.845307 17.094959,8.822901 17.098619,8.816058 16.923406,8.59827 16.987503,8.596198 17.250128,8.532783 17.296407,8.446254 17.400173,8.33811 17.119499,7.978655 17.218518,7.952249 17.770127,7.76633 17.604456,7.595025 17.341446,7.185454 17.691988,7.043222 17.966977,6.952641 17.943946,6.76994 17.906659,6.654786 17.797133,6.485869 17.788015,6.44446 17.693532,6.345158 17.65101,6.265886 17.74394,6.225738 17.699712,6.137286 18.023582,6.104925 18.531248,5.885601 18.212419,5.529855 18.012554,5.202708 18.36398,5.054902 18.339298,4.944069 18.200538,4.665399 18.509787,4.672837 18.75149,4.599967 18.459762,4.072559 18.921301,3.912243 18.907564,3.77734 18.813706,3.375933 19.096375,3.445927 19.245849,3.455059 19.283114,2.855806 19.596531,2.818826 19.648644,2.632055 19.858116,2.787963 20.17764,2.750263 20.283075,2.804576 20.307354,2.744812 20.482776,2.384077 20.826961,2.779136 20.947395,2.774245 20.978995,2.718413 21.226798,2.312203 21.484599,2.691661 21.574827,2.81751 21.63964,2.715017 21.895064,2.310683" slic3r:type="contour"/>
    <polygon style="fill: white" points="43.288187,32.946763 43.569072,33.12307 42.998736,33.598677 43.09786,33.832508 42.996762,33.947183 43.417288,34.517143 43.721484,35.182319 43.506508,35.849823 43.16786,36.445649 43.2978,36.570356 43.240472,36.688993 43.784732,37.112852 43.560588,37.28302 42.7878,38.069424 42.292892,37.69762 41.796068,37.136712 41.954436,36.956988 42.329883,36.644381 42.302211,36.598164 42.465059,36.39693 41.73844,35.352896 42.292171,34.27206 42.394962,34.028346 42.26858,33.902908 42.300245,33.786856 41.8016,33.484848 41.583684,33.267338 41.962168,32.727647 42.463996,32.262708" slic3r:type="contour"/>
    <polygon style="fill: white" points="43.07708,40.517575 43.184824,40.743326 43.618108,41.21612 43.6926,41.28622 43.507482,41.419374 43.526712,41.459664 43.514808,41.470183 43.612455,41.601099 43.667068,41.691612 43.043335,42.47754 42.568672,42.97244 41.768508,41.667748 41.68304,41.54846 41.858095,41.368704 41.850328,41.35902 41.860525,41.343868 41.751184,41.245516 41.705764,41.188579 42.333615,40.572268 42.431219,40.49587 42.748023,40.025128" slic3r:type="contour"/>
    <polygon style="fill: white" points="43.144276,45.197236 43.343743,45.419095 42.858432,45.764761 42.887228,45.814132 42.871016,45.827229 43.10744,46.14442 43.240668,46.336716 42.686219,46.830092 42.111616,47.328776 41.469299,46.364007 41.268456,46.077076 41.757658,45.681076 41.48692,45.387284 41.364124,45.225132 41.913155,44.767312 42.443367,44.376644" slic3r:type="contour"/>
    <polygon style="fill: white" points="42.702172,49.109032 42.838076,49.28874 42.557299,49.483662 42.683284,49.64756 42.760144,49.756 42.128899,50.123508 41.609432,50.48364 40.90454,49.507876 40.809988,49.367488 41.043034,49.230021 40.938088,49.093284 40.87108,48.999688 41.449807,48.58244 41.99142,48.195752" slic3r:type="contour"/>
    <polygon style="fill: white" points="41.892772,51.54102 42.254096,52.10638 42.028788,52.199803 41.496817,52.44294 41.530884,52.513956 41.466067,52.533821 41.552256,52.989804 41.690876,53.804596 41.508345,53.971496 41.558191,54.066343 41.57956,54.105268 41.308252,54.154457 41.253124,54.204864 41.224375,54.211001 40.283151,54.92225 40.478947,55.578983 40.566572,55.84096 39.893956,55.825168 39.349676,55.821636 39.034344,54.834652 38.975252,54.636144 39.706051,54.634276 39.688064,54.120507 39.681336,53.42288 39.769915,53.356336 39.833634,53.303878 39.789648,53.216811 39.821928,53.209623 39.986345,53.172131 40.358516,52.817355 40.856275,52.292051 40.805304,52.215008 40.352816,51.505231 40.679899,51.372488 41.525628,50.998008" slic3r:type="contour"/>
    <polygon style="fill: white" points="38.4002,56.040812 39.021912,56.190312 39.087319,56.956159 39.151172,57.442924 38.692567,57.330291 37.961456,57.172788 37.868552,56.374299 37.83226,55.927736" slic3r:type="contour"/>
    <polygon style="fill: white" points="36.605928,57.232748 37.374484,57.567544 37.33244,58.129903 37.315516,58.832531 37.072223,58.720687 36.178528,58.352872 36.201848,57.794603 36.265088,57.10472" slic3r:type="contour"/>
    <polygon style="fill: white" points="34.510367,58.250099 35.210603,58.657077 36.080023,58.43816 35.375337,59.294492 35.33974,59.479356 35.282799,59.535083 35.221892,60.019484 35.16386,59.983596 34.947329,59.863395 34.41096,60.38832 33.077137,60.58618 33.00189,60.867463 32.978338,60.97608 32.555592,60.663546 32.431541,60.681948 32.372533,60.642913 30.991553,60.80099 30.767278,61.506543 30.698538,61.762632 30.12009,61.286888 29.734536,61.001644 30.012422,60.053975 30.077998,59.871475 30.738257,60.315055 30.945483,60.47336 31.648715,59.888844 32.199219,59.362647 32.206616,59.336632 32.211472,59.331922 32.256674,59.143435 32.263459,59.1208 32.365709,59.182361 32.437604,59.112647 32.529022,59.012064 33.618584,58.893924 34.241206,58.784258 34.366204,58.177016" slic3r:type="contour"/>
    <polygon style="fill: white" points="28.481064,60.912068 28.895528,61.263095 28.600342,62.060775 28.47736,62.436028 28.01376,62.016372 27.543893,61.631672 27.824879,60.825324 27.954066,60.51434" slic3r:type="contour"/>
    <polygon style="fill: white" points="26.305872,61.376688 26.771922,61.82672 26.470555,62.505524 26.2794,62.965324 25.909962,62.585192 25.397002,62.101248 25.695776,61.409999 25.892302,61.010816" slic3r:type="contour"/>
    <polygon style="fill: white" points="24.201395,61.682791 24.679038,62.225092 24.359244,62.811743 24.089368,63.312748 23.790785,62.951127 23.283084,62.376052 23.616508,61.770915 23.877786,61.331103" slic3r:type="contour"/>
    <polygon style="fill: white" points="1.966557,33.058632 2.206464,33.267274 1.573852,33.625164 1.484253,33.701843 1.521536,33.902755 1.438963,33.974659 1.81049,34.649103 2.051704,35.3528 1.784678,35.92884 1.377498,36.476603 1.487944,36.598136 1.441613,36.688803 1.994061,37.136684 1.782302,37.287723 1.002314,38.069432 0.519597,37.691152 0.005394,37.112823 0.175773,36.931836 0.535072,36.646367 0.492327,36.57036 0.684925,36.365939 0.06864,35.182404 0.748918,34.18892 0.841774,34.021577 0.692182,33.832404 0.768781,33.688269 0.39258,33.356456 0.221044,33.123127 0.763255,32.624038 1.326023,32.262632" slic3r:type="contour"/>
    <polygon style="fill: white" points="1.410909,40.469764 1.558826,40.718475 2.015161,41.135183 2.084361,41.18852 1.914148,41.337297 2.047089,41.47232 2.107092,41.548484 1.620208,42.4226 1.221445,42.972424 0.240752,41.815988 0.123063,41.691696 0.281432,41.476915 0.263438,41.459716 0.277527,41.433759 0.155204,41.343687 0.097527,41.286256 0.678822,40.609643 0.773633,40.519746 1.042101,40.025128" slic3r:type="contour"/>
    <polygon style="fill: white" points="2.209994,45.0668 2.42602,45.225144 2.023574,45.656847 2.358423,45.927596 2.521706,46.077256 2.113211,46.70926 1.678493,47.328908 0.840382,46.58948 0.54946,46.336696 0.924668,45.832477 0.903023,45.814076 0.923556,45.781042 0.611634,45.557428 0.446382,45.418968 0.903046,44.870975 1.346786,44.376652" slic3r:type="contour"/>
    <polygon style="fill: white" points="2.774842,48.896803 2.919078,48.999776 2.747529,49.222764 2.891835,49.308551 2.98016,49.367524 2.536941,49.954388 2.180735,50.483584 1.205185,49.877076 1.029987,49.755988 1.235266,49.489744 1.067063,49.372927 0.952041,49.288672 1.397353,48.72634 1.798772,48.1957" slic3r:type="contour"/>
    <polygon style="fill: white" points="2.885518,51.253463 3.43731,51.50522 3.279484,51.739283 2.93566,52.277158 3.815633,53.174316 4.000446,53.216736 3.98751,53.241964 3.957275,53.301762 4.108893,53.42306 4.095722,53.854452 4.076537,54.642336 4.63864,54.641084 4.814872,54.636124 4.598263,55.297776 4.440472,55.821612 3.527398,55.839792 3.223578,55.840984 3.449384,55.076088 3.497727,54.927484 3.017531,54.574856 2.550469,54.207773 2.536961,54.204908 2.480334,54.154478 2.258981,54.114231 2.210597,54.10532 2.278769,53.974972 2.215908,53.918991 2.099302,53.804704 2.2734,53.097596 2.354248,52.543837 2.259114,52.513748 2.291712,52.45403 1.536033,52.10636 1.727454,51.823988 2.264495,50.998064" slic3r:type="contour"/>
    <polygon style="fill: white" points="5.892278,56.435656 5.828671,57.172864 5.161398,57.332952 4.638955,57.442928 4.684899,56.885356 4.768222,56.19036 5.593679,56.019156 5.957878,55.927748" slic3r:type="contour"/>
    <polygon style="fill: white" points="7.532764,57.427443 7.611557,58.352908 7.176865,58.549192 6.474579,58.832512 6.450172,58.518696 6.415672,57.567524 6.993471,57.343504 7.525069,57.104728" slic3r:type="contour"/>
    <polygon style="fill: white" points="9.441889,58.32028 9.528497,58.756507 11.261107,59.012064 11.429922,59.182011 11.509044,59.133164 11.526669,59.1208 11.572338,59.325382 11.583513,59.336632 11.585927,59.345362 12.864618,60.468603 13.573224,59.980367 13.712101,59.871476 13.90266,60.562935 14.055592,61.001604 13.3212,61.595524 13.091581,61.762624 12.839933,60.983656 12.786655,60.791902 11.554318,60.632688 11.448202,60.623811 11.358523,60.681972 11.252246,60.664108 10.91228,60.910755 10.811757,60.976072 10.701352,60.571513 10.231843,60.492596 9.379244,60.388332 9.114421,60.089748 8.863264,59.858874 8.568232,60.019456 8.55387,59.941443 8.495539,59.520844 8.450386,59.479336 8.397187,59.210975 7.710073,58.438136 8.62346,58.645357 8.745943,58.581448 9.423929,58.17702" slic3r:type="contour"/>
    <polygon style="fill: white" points="16.025044,61.085268 16.246232,61.631604 15.63868,62.173292 15.312804,62.436032 15.076674,61.805652 14.894574,61.263216 15.603255,60.716008 15.83606,60.51434" slic3r:type="contour"/>
    <polygon style="fill: white" points="18.095279,61.484415 18.39311,62.101372 17.891461,62.61106 17.510711,62.965324 17.282404,62.454572 17.018206,61.82672 17.602396,61.300727 17.897842,61.010816" slic3r:type="contour"/>
    <polygon style="fill: white" points="20.130047,61.733971 20.507042,62.376052 20.088936,62.877795 19.700758,63.312748 19.469529,62.889043 19.111088,62.224968 19.589659,61.7002 19.912342,61.331104" slic3r:type="contour"/>
    <polygon style="fill: white" points="22.152152,61.808968 22.598016,62.424664 22.241741,62.949424 21.895064,63.440403 21.643451,63.068059 21.192126,62.42478 21.584246,61.875419 21.895064,61.447416" slic3r:type="contour"/>
  </g></svg>