<svg width="43.790126" height="63.590156" xmlns="http://www.w3.org/2000/svg" xmlns:svg="http://www.w3.org/2000/svg" xmlns:xlink="http://www.w3.org/1999/xlink" xmlns:slic3r="http://slic3r.org/namespaces/slic3r"><g xmlns="http://www.w3.org/2000/svg" slic3r:z="1.4195e-005" id="layer42">
    <polygon style="fill: white" points="22.03231,0.610688 22.037319,0.610308 22.052119,0.632362 22.266035,0.648125 22.926617,0.698171 22.943681,0.678938 22.952097,0.680774 23.03021,0.595999 23.118624,0.497371 23.228624,0.721052 23.233686,0.721436 23.24474,0.744616 23.456501,0.790814 24.115934,0.938335 24.134073,0.923249 24.142932,0.926452 24.234974,0.852342 24.33719,0.768206 24.412206,1.004613 24.415263,1.005297 24.421964,1.027343 24.618762,1.098501 25.315992,1.353708 25.332302,1.343944 25.339712,1.347674 25.432705,1.293465 25.532238,1.235161 25.565718,1.445113 25.565919,1.445187 25.568557,1.462911 25.72376,1.541065 26.548452,1.954157 26.557916,1.950322 26.561716,1.952762 26.622583,1.928495 26.684014,1.904887 26.685912,2.032525 26.76383,2.082566 27.421714,2.493942 27.586203,2.742041 27.64048,2.810172 27.656116,2.80638 27.656643,2.807658 27.776556,2.77895 27.77193,2.828115 27.747982,3.029071 27.964105,3.552971 28.157689,3.915594 28.202384,3.910774 28.202874,3.91265 28.336974,3.896473 28.798076,3.854543 28.741206,4.110293 28.600445,4.680156 29.019007,5.051706 29.067213,5.093392 29.147504,5.09806 29.156985,5.108538 29.473838,5.114127 29.731942,5.126845 29.57159,5.566719 29.773752,5.790131 30.488274,6.601568 30.49511,6.603094 30.495831,6.604139 30.532809,6.610984 30.519358,6.636203 30.57322,6.724698 30.507723,7.651725 30.475116,7.964309 30.595793,8.121425 30.935032,8.226058 31.126832,8.289004 30.946071,8.562388 31.04623,8.708337 31.369814,9.255039 31.318201,9.620807 31.295365,9.77665 31.395864,9.812967 31.555039,9.877689 31.431497,10.073115 31.499456,10.130607 31.706378,10.359796 31.698158,10.905431 31.692099,11.071762 32.063162,11.188688 32.072913,11.294008 32.130516,11.305621 32.10495,11.335867 32.090995,11.359725 32.313234,12.112302 32.341838,12.446481 32.893028,12.525935 32.95337,12.526795 32.860639,12.628441 32.985428,12.613438 33.149918,12.724565 33.636207,13.301552 33.670242,13.375463 33.698364,13.399648 33.818952,13.380067 33.757622,13.450613 34.430759,14.029532 34.490424,14.13247 34.503088,14.132095 34.572797,14.201982 34.759448,14.143596 34.700067,14.210367 34.703393,14.332913 35.186344,14.817101 35.27732,14.994384 35.35608,14.998144 35.436991,15.141958 35.82734,15.05313 35.721472,15.168004 35.712607,15.631851 35.749924,15.698179 35.841637,16.01681 36.061028,16.076824 36.077107,16.153752 36.557328,16.303814 36.89678,16.327959 36.673404,16.547019 36.531381,17.138521 36.6237,17.215269 36.569651,17.336167 36.967208,17.50127 37.383572,17.878093 37.673728,18.028474 37.713652,18.042856 37.628954,18.116379 37.707355,18.152644 37.759748,18.194188 37.79812,19.303749 37.761338,19.672567 38.318739,19.970004 38.09404,20.152075 37.666681,20.621696 37.666244,20.626082 37.652363,20.63743 37.609597,20.684426 37.484706,21.099716 38.123484,21.306504 38.652136,21.45177 38.612368,21.801699 38.589321,21.955485 38.816268,22.067164 38.704415,22.171574 38.533244,22.329667 38.52948,22.354784 38.502814,22.378482 38.401523,22.784036 38.261912,23.494857 38.617684,23.545604 39.261492,23.574347 39.226104,23.790939 39.209951,23.93863 39.41306,24.038288 39.299471,24.141016 39.123827,24.306159 39.110076,24.32128 39.02924,24.636085 38.947129,25.120612 39.402696,25.161278 39.901296,25.251909 39.833059,25.648338 39.76347,26.026364 40.272168,26.355574 39.97412,26.599175 39.570971,26.994319 39.635071,27.024374 39.586136,27.071921 40.289267,27.242509 40.601928,27.418448 40.480423,28.07459 40.323404,28.560683 40.354484,28.583866 40.327073,28.714608 40.986323,29.225936 40.624668,29.481649 40.139906,29.951857 40.2641,30.07756 40.101816,30.228848 40.047531,30.188061 39.99556,30.132464 40.034386,29.999145 39.40906,29.538394 39.005872,29.150245 38.876552,29.086182 38.84266,29.075106 38.863364,29.011861 38.818748,28.977974 38.89142,28.892699 39.373263,27.239073 38.552188,27.15082 38.250172,27.099001 38.388344,26.589256 38.219459,26.505647 37.970564,26.397582 38.246347,26.108474 38.553127,25.745535 38.5774,25.629582 38.267723,25.633463 37.628811,25.536302 37.818989,24.601172 37.583491,24.496789 37.158476,24.327302 37.367575,24.145746 37.653531,23.845933 36.9396,23.582668 37.170499,22.476535 36.947427,22.347351 36.628864,22.138568 36.984968,21.858805 37.358502,21.531878 37.399959,21.194119 36.48162,20.654694 36.26368,20.558554 36.351595,20.198403 36.263488,20.152186 36.174468,20.096962 36.367049,19.893719 36.408407,18.854454 36.372856,18.661849 36.040111,18.553311 35.652964,18.392346 35.889964,18.065673 36.187791,17.655047 36.101624,17.601886 36.135219,17.530291 36.028705,17.297896 35.624107,17.262424 35.0304,17.16844 35.1181,16.981215 35.205442,16.793892 35.143644,16.758316 35.190905,16.548863 34.579617,16.313786 34.26384,16.331386 34.281136,16.259464 34.294845,16.204274 34.264548,16.192623 34.265801,16.087178 33.842684,15.995399 33.550375,15.539282 33.464952,15.549573 33.435722,15.501319 33.383362,15.515377 33.290828,15.535278 33.27644,15.238371 32.988504,14.763037 32.932791,14.675573 32.712258,14.689305 32.651166,14.564509 32.494078,14.582599 32.154282,14.617074 32.180312,14.248218 32.199635,14.110488 32.073232,14.090317 32.050402,13.771168 31.478573,13.674881 31.145662,13.63876 31.103225,13.489535 31.074481,13.487549 31.070771,13.464372 30.988668,13.451067 31.03934,13.268081 30.871857,12.222128 30.80915,12.210807 30.800373,12.129471 30.635244,12.091099 30.597098,12.056153 30.196036,11.969327 30.275131,11.848101 30.304913,11.799092 30.26107,11.774574 30.272354,11.758654 29.999162,11.508382 30.032345,10.588468 29.969865,10.569366 29.684902,10.491808 29.918849,10.194994 29.97325,10.12312 29.226048,9.014165 29.235469,8.954725 29.209936,8.948728 29.243309,8.908524 29.308921,7.648155 29.25602,7.569443 29.132095,7.5495 28.724218,7.499191 28.863519,7.274469 28.926606,7.165417 28.2925,6.465566 28.130459,6.279145 28.049686,6.280334 28.07321,6.221911 27.848798,6.016092 27.594179,5.192471 27.416268,5.216534 27.270912,5.236015 27.395864,4.751566 27.405436,4.713877 27.118859,4.170198 26.700766,4.288607 26.421806,4.364049 26.471727,3.959888 26.510807,3.644318 26.147656,3.401743 25.892318,3.51404 25.534108,3.666804 25.534642,3.321535 25.533191,3.050763 25.12781,2.841274 25.019124,2.908518 24.635432,3.143503 24.594761,2.837913 24.560668,2.598677 24.13582,2.442897 24.094067,2.477989 23.729032,2.784492 23.648933,2.505328 23.584206,2.285662 23.156143,2.191815 23.134063,2.216732 22.81553,2.577115 22.695942,2.318072 22.600117,2.11162 22.176418,2.080484 22.156007,2.111578 21.895064,2.510958 21.73772,2.272123 21.610981,2.078415 21.191902,2.109207 21.179161,2.136734 20.974582,2.577105 20.785119,2.36371 20.629894,2.188224 20.210215,2.280238 20.200529,2.313523 20.061076,2.784495 19.837633,2.596487 19.650556,2.439348 19.23363,2.592295 19.222682,2.671626 19.154676,3.143508 18.890113,2.978576 18.662117,2.838512 18.259182,3.046861 18.258788,3.241241 18.25602,3.666798 17.93591,3.523026 17.648069,3.399096 17.279358,3.645311 17.328149,4.039794 17.368322,4.364049 16.965405,4.246629 16.684123,4.169373 16.417709,4.68659 16.391104,4.733684 16.476817,5.068572 16.519241,5.236016 16.193803,5.191766 16.112623,5.451021 15.941337,6.016092 15.764723,6.176363 15.717404,6.220472 15.74044,6.280334 15.694664,6.280383 15.652322,6.279942 15.134783,6.814076 14.859833,7.138826 15.065909,7.499195 14.742083,7.55613 14.475124,7.593214 14.464531,7.605726 14.446919,7.608977 14.421642,7.648858 14.418243,8.227701 14.535425,8.880236 14.544908,8.893208 14.545966,8.903662 14.564424,8.927234 14.580191,8.948727 14.546396,8.959157 14.564078,9.014174 14.063673,9.630217 13.7945,10.080448 13.859277,10.164235 14.105225,10.491803 13.747096,10.604087 13.753663,10.904534 13.790993,11.508328 13.61427,11.642013 13.509337,11.744601 13.529087,11.77456 13.492052,11.798361 13.594118,11.969307 13.298165,12.050753 13.161145,12.085014 13.154901,12.091118 12.989036,12.132008 12.980987,12.210821 12.916213,12.223274 12.850175,12.632031 12.749387,13.272971 12.763941,13.323915 12.80146,13.451066 12.71956,13.462646 12.715644,13.487549 12.689875,13.489761 12.679982,13.5267 12.644464,13.63876 11.994409,13.814899 11.727192,13.837382 11.716864,14.090304 11.562525,14.133344 11.635846,14.617075 11.142963,14.560534 11.07787,14.689292 10.906246,14.676861 10.757583,14.935171 10.502052,15.298295 10.499936,15.370015 10.499308,15.535289 10.361668,15.497788 10.325221,15.549581 10.280838,15.543238 10.235943,15.633367 9.947618,15.995243 9.628605,16.134418 9.524502,16.146684 9.525548,16.192553 9.496562,16.212715 9.526254,16.331373 9.401756,16.317309 9.352056,16.313236 8.965446,16.582167 8.624354,16.666591 8.646484,16.758316 8.5924,16.809172 8.759729,17.16844 8.420658,17.197615 7.829979,17.271925 7.779739,17.291303 7.701813,17.473406 7.659683,17.542412 7.688566,17.601882 7.610267,17.665957 7.843198,17.987016 8.137169,18.392353 7.478309,18.606928 7.440243,18.621169 7.391654,18.816668 7.421588,19.42645 7.430407,19.893068 7.529223,19.999343 7.615662,20.096966 7.434821,20.192142 7.476731,20.369009 7.526448,20.55856 7.012725,20.911742 6.389002,21.20068 6.421761,21.509491 6.832111,21.841884 7.161271,22.13859 6.599004,22.466144 6.695834,22.978725 6.850526,23.5827 6.558527,23.672153 6.159681,23.817624 6.264383,23.913717 6.631658,24.327282 6.116587,24.554083 5.961665,24.619601 6.034436,24.993844 6.161324,25.536254 5.825085,25.514509 5.206281,25.591547 5.234362,25.723758 5.593504,26.118595 5.819552,26.397582 5.408059,26.598327 5.468945,26.819907 5.539974,27.09897 4.958377,27.14875 4.422669,27.233778 4.687221,28.040746 4.908078,28.912363 4.948575,28.95674 4.971359,28.978002 4.930688,29.005778 4.947467,29.075051 4.644885,29.24911 3.758191,29.993743 3.770561,30.02948 3.794497,30.132458 3.688212,30.228864 3.632859,30.189973 3.525917,30.077558 3.660753,29.974012 3.085483,29.526548 2.803811,29.225919 3.152199,28.876108 3.454247,28.648657 3.435682,28.58382 3.510042,28.523272 3.188232,27.41836 3.724351,27.322259 4.221831,27.096243 4.155069,27.024359 4.209411,27.004902 3.783446,26.630913 3.517963,26.355596 3.83882,26.131385 4.02665,26.011903 3.888845,25.251914 4.264513,25.226947 4.828834,25.139634 4.657411,24.304359 4.377042,24.03834 4.507231,23.982338 4.575949,23.947923 4.528608,23.574388 4.755026,23.53871 5.51456,23.481572 5.272063,22.365184 5.26062,22.354754 5.256981,22.327946 4.973869,22.06714 5.099764,22.013564 5.207075,21.960366 5.138015,21.451696 5.494283,21.335377 6.310036,21.096263 6.219256,20.740985 5.736672,20.287198 5.471401,19.970004 5.73029,19.806089 6.0851,19.617272 6.030355,18.194216 6.134377,18.144532 6.126422,18.131622 6.133513,18.127138 6.087077,18.070334 6.076447,18.042883 6.703958,17.62301 7.236301,17.42505 7.166406,17.215233 7.223939,17.185592 6.915494,16.617558 6.893331,16.327955 7.330665,16.107022 7.786017,16.050486 8.005156,15.949083 7.873597,15.537854 7.9628,15.053124 8.226706,14.963897 8.470721,14.988282 8.773421,14.906811 8.893718,14.725343 8.890725,14.713667 9.030667,14.143585 9.186046,14.104863 9.310386,14.126979 9.502077,14.085166 9.820993,13.783875 9.961335,13.593481 9.971207,13.380055 10.070446,13.357999 10.140563,13.366266 10.180462,13.355255 10.640162,12.724616 10.956607,12.870647 10.882333,12.664838 10.837161,12.561086 10.836758,12.526793 11.267195,12.38346 11.551237,12.366913 11.702791,11.393747 11.659612,11.30562 11.719007,11.288604 11.726964,11.188688 11.831051,11.167388 12.104519,11.096046 12.083791,10.359742 12.383263,10.083631 12.311625,9.977173 12.235102,9.877696 12.363448,9.837164 12.497241,9.787004 12.420351,9.254917 12.861018,8.565655 12.770468,8.432336 12.663299,8.289011 12.946121,8.204722 13.212075,8.120578 13.332407,7.971919 13.325745,7.898572 13.216968,6.724528 13.272513,6.638047 13.257325,6.610961 13.293292,6.605695 13.29497,6.603083 13.302395,6.60157 13.369704,6.526668 14.227254,5.564213 14.144675,5.341415 14.058186,5.126835 14.47774,5.124242 14.623702,5.119266 14.642609,5.098046 14.710428,5.095426 15.194011,4.668502 15.098944,4.2535 14.992051,3.854551 15.200573,3.881753 15.584102,3.921952 15.587744,3.910774 15.58945,3.910974 15.789606,3.491199 16.039597,2.994125 16.034607,2.954552 16.037649,2.950353 16.01357,2.778947 16.053002,2.78961 16.132434,2.809534 16.134021,2.806379 16.140759,2.808061 16.368344,2.493988 17.105825,2.029872 17.105767,2.022242 17.106854,2.021696 17.107396,1.967178 17.106132,1.904855 17.227168,1.953507 17.232257,1.950304 17.241302,1.954014 17.361607,1.89345 18.221813,1.462241 18.224199,1.445184 18.227093,1.444138 18.242292,1.347038 18.257884,1.235161 18.450738,1.347484 18.457814,1.343937 18.475371,1.35434 18.668997,1.284309 19.367854,1.028711 19.374831,1.005344 19.379608,1.004302 19.414195,0.894724 19.452962,0.768191 19.64941,0.925735 19.656126,0.923279 19.676137,0.939594 19.890727,0.892767 20.544647,0.746497 20.55641,0.721499 20.562834,0.721026 20.613597,0.617479 20.6715,0.497383 20.840834,0.680245 20.846512,0.678975 20.864514,0.698799 21.079337,0.682971 21.737875,0.633022 21.752806,0.610309 21.760106,0.610847 21.823099,0.518918 21.895064,0.411291" slic3r:type="contour"/>
    <polygon style="fill: white" points="40.823612,30.722754 41.298252,31.333204 41.235844,31.674439 41.170638,31.845346 41.191688,31.865456 41.182008,31.92814 41.373592,32.072806 41.278131,32.1273 41.131552,32.254904 41.004512,33.077627 40.760825,33.771072 40.871176,33.888152 40.846883,34.182769 40.933676,34.274188 41.50066,34.691764 41.179459,34.84456 40.642579,35.265849 40.503014,35.814674 40.729148,36.086944 40.709512,36.457101 40.987959,36.778163 41.461104,37.150216 41.071644,37.283776 40.48184,37.688191 40.394766,38.126243 40.654008,38.47886 40.626146,38.875942 40.783967,39.077487 41.281932,39.513216 40.921147,39.595356 40.47907,39.852939 40.317158,40.68957 40.521272,41.001148 40.478962,41.34071 40.965212,41.828672 40.685456,41.86226 40.396626,42.001514 40.359467,42.299728 40.113956,43.337914 40.234948,43.543204 40.192143,43.742188 40.509404,44.115436 40.316944,44.121908 40.091711,44.209057 39.879016,45.197796 39.66671,45.84973 39.734872,45.979651 39.694775,46.10121 39.91382,46.405992 39.768595,46.40134 39.577705,46.456112 39.177032,47.670787 38.960878,48.168763 39.00546,48.269064 38.965497,48.352628 39.139408,48.652984 39.007387,48.63684 38.814291,48.668804 38.273456,49.799703 38.002703,50.269284 38.036024,50.365164 37.993567,50.427145 38.149396,50.785804 38.004252,50.75266 37.766794,50.758204 37.174908,51.622279 36.789152,52.117358 36.813028,52.220708 36.770939,52.263051 36.902732,52.73634 36.724235,52.674515 36.406798,52.629391 35.887604,53.151719 35.317179,53.67429 35.328092,53.772024 35.288401,53.801051 35.372032,54.419824 35.14892,54.314948 34.757424,54.18936 34.4496,54.414475 33.659078,54.950398 33.659164,55.041096 33.621579,55.061628 33.62998,55.827384 33.364934,55.668404 32.914684,55.448548 31.878446,55.978579 31.869626,56.0632 31.831508,56.078986 31.819715,56.176956 31.74049,56.969152 31.446959,56.751363 30.959217,56.433141 30.032023,56.793775 30.015658,56.873116 29.971398,56.887068 29.913842,57.145559 29.770812,57.8538 29.471256,57.583128 28.988682,57.187132 28.160254,57.432549 28.136194,57.511364 28.091473,57.521255 27.99731,57.813931 27.792534,58.487439 27.514625,58.183671 27.06921,57.739083 26.258157,57.907006 26.230536,57.976088 26.192372,57.981062 26.085886,58.236247 25.81627,58.900576 25.570299,58.581211 25.191917,58.127763 25.191122,58.127928 25.176853,58.108539 24.335151,58.21077 24.308358,58.265712 24.282588,58.266806 24.183662,58.462107 23.849264,59.123731 23.6343,58.798488 23.308522,58.33546 23.302571,58.336183 23.284606,58.307794 22.408782,58.3425 22.386243,58.38232 22.37689,58.381922 22.285239,58.538096 21.895078,59.187968 21.702718,58.85562 21.41825,58.381751 21.403882,58.38232 21.380833,58.340911 20.510374,58.306448 20.366536,58.518927 19.940879,59.123736 19.761408,58.769864 19.507086,58.266727 19.481764,58.265724 19.452497,58.205792 18.627357,58.105678 18.426145,58.358964 17.973856,58.900592 17.811352,58.517492 17.593271,57.980212 17.559578,57.976124 17.528385,57.899633 16.736466,57.735591 16.477014,58.009496 15.997606,58.487443 15.861948,58.079867 15.691442,57.519118 15.653944,57.511352 15.625856,57.423124 14.819842,57.183678 14.540911,57.426696 14.019313,57.853792 13.921912,57.440868 13.809463,56.883521 13.774478,56.873128 13.753887,56.780609 12.85971,56.430713 12.652864,56.57698 12.04965,56.969152 11.998188,56.584455 11.947293,56.07368 11.920501,56.063196 11.907623,55.957543 10.926857,55.451633 10.870523,55.482963 10.160154,55.827412 10.149322,55.492295 10.154531,55.053243 10.130999,55.041104 10.128246,54.91573 10.086488,54.885535 9.095724,54.206397 8.418122,54.419836 8.437646,54.143864 8.486205,53.788589 8.462066,53.772043 8.472995,53.633368 8.123062,53.285899 7.452063,52.662192 6.887397,52.736332 6.926282,52.51778 7.00303,52.244809 6.977099,52.220704 7.005296,52.066769 6.515916,51.362151 6.090046,50.804789 5.640735,50.785744 5.689853,50.609679 5.781339,50.400765 5.7541,50.365116 5.798241,50.20768 5.342976,49.263767 5.042849,48.729054 4.650718,48.652988 4.708753,48.495692 4.812082,48.317915 4.78466,48.26906 4.850346,48.087097 4.544866,47.146855 4.290546,46.540568 3.876294,46.40596 3.952906,46.2365 4.08545,46.051629 4.055245,45.979624 4.167732,45.716785 4.054545,45.135847 3.806156,44.343629 3.280709,44.11536 3.396517,43.893712 3.592178,43.661164 3.555178,43.543156 3.757257,43.124202 3.540612,42.182388 3.437034,42.158632 2.824914,41.82868 3.010178,41.513472 3.314911,41.201194 3.268894,41.001143 3.474443,40.617468 3.516352,40.571843 3.405524,39.96184 2.987883,39.824863 2.508201,39.513184 2.768651,39.1192 3.184378,38.744647 3.136096,38.4789 3.268053,38.260771 3.404105,38.129989 3.335498,37.721474 2.737609,37.462612 2.329007,37.150232 2.632368,36.736915 3.105587,36.352489 3.060982,36.086896 3.173994,35.922852 3.294867,35.819213 3.199986,35.331851 2.719423,35.066831 2.28947,34.691724 2.556474,34.360395 2.952441,34.060339 2.918937,33.888244 3.074835,33.690899 2.732682,32.379764 2.416522,32.0728 2.500181,31.976782 2.60644,31.896013 2.598458,31.86542 2.643831,31.8151 2.491868,31.333174 2.760476,31.18053 3.648663,30.310748 3.998539,31.283542 4.006705,31.320519 4.34624,31.640579 4.527011,31.74657 4.165411,32.039295 4.184652,32.126436 4.127884,32.181627 4.245274,32.549544 4.388194,33.480202 4.217391,33.80196 3.970914,33.988586 4.041272,34.045004 4.02599,34.178316 4.346195,34.292092 4.246269,34.373727 3.969215,34.673601 3.901682,35.262732 3.337459,35.909327 3.701997,36.154324 3.754871,36.463216 3.78723,36.485296 4.371189,36.614536 4.20997,36.751115 3.874183,37.160252 3.918221,37.417524 3.514133,38.250641 4.040811,38.54398 4.126929,38.776444 4.531545,38.826736 4.43867,38.910619 4.264568,39.147982 4.75386,40.468763 4.77762,40.974043 4.826116,40.971748 4.779785,41.020079 4.781504,41.056627 4.770106,41.073965 4.801744,41.220152 4.987945,43.043 5.115162,43.089068 5.262863,43.081304 5.020373,43.360468 5.0394,43.546724 4.993731,43.623729 5.208689,44.31292 5.372498,45.175829 5.587166,45.231304 5.82137,45.213568 5.468823,45.683246 5.513488,45.918531 5.465973,46.008942 5.860964,46.934675 5.965585,47.284919 6.242183,47.322196 6.529761,47.286436 6.148675,47.897861 6.215133,48.120344 6.182221,48.194228 6.733699,49.155039 6.793997,49.291225 7.103651,49.287691 7.412388,49.225856 7.074099,49.923865 7.152152,50.100156 7.13899,50.137579 7.807217,50.99728 7.882946,51.114178 8.193633,51.056636 8.491721,50.964256 8.252705,51.684948 8.321381,51.790959 9.055175,52.465736 9.259745,52.676922 9.552104,52.570955 9.806667,52.457132 9.688102,53.125649 10.438905,53.637331 10.888618,53.967983 11.127569,53.841548 11.322914,53.725832 11.29856,54.264127 11.93123,54.589955 12.672862,54.993816 12.848332,54.872008 12.987225,54.767552 13.01662,55.175079 13.52233,55.373396 14.511476,55.782048 14.63862,55.672112 14.737956,55.579372 14.794659,55.895156 15.21445,56.020583 16.316106,56.368952 16.423649,56.255531 16.508736,56.1596 16.589959,56.450653 17.002639,56.536851 18.103564,56.782065 18.208897,56.648444 18.292762,56.5368 18.408216,56.842779 18.861288,56.898328 19.894685,57.034244 20.002329,56.871948 20.088202,56.740112 20.244094,57.06955 20.739642,57.08938 21.705409,57.13071 21.810777,56.944056 21.895064,56.79812 22.083414,57.131839 22.579985,57.111976 23.540983,57.070771 23.629666,56.883444 23.701926,56.740112 23.898917,57.037059 24.357221,56.980916 25.374867,56.846627 25.441355,56.670456 25.497368,56.536828 25.693168,56.785062 26.109776,56.698011 27.192751,56.45628 27.239743,56.287772 27.281394,56.159571 27.4823,56.371258 27.890167,56.249128 28.988025,55.902458 29.020711,55.719852 29.052176,55.579376 29.28891,55.783714 29.772012,55.593443 30.763776,55.185904 30.78046,54.951728 30.802926,54.76756 31.132359,54.995634 31.781615,54.659216 32.477033,54.283534 32.462526,53.972743 32.467215,53.725832 32.929852,53.969402 33.763683,53.395588 34.04592,53.190409 34.044967,53.178036 34.078402,53.146794 34.010696,52.76932 33.98344,52.457152 34.585755,52.672715 35.470967,51.845558 35.462504,51.800592 35.50837,51.740036 35.369848,51.325324 35.29842,50.964247 36.001876,51.088484 36.668772,50.208012 36.63798,50.1002 36.687083,50.011467 36.488596,49.603216 36.377748,49.22584 37.052548,49.222524 37.119082,49.230814 37.637689,48.293657 37.575004,48.120336 37.619294,48.011829 37.39136,47.645312 37.260352,47.286436 37.961895,47.172494 38.377223,46.154988 38.276632,45.91854 38.310236,45.805929 38.093815,45.514571 37.968755,45.21358 38.538009,45.042634 38.795388,44.180123 38.857469,43.769995 38.750712,43.546712 38.769197,43.458892 38.615603,43.278239 38.527256,43.081328 38.879883,42.93304 38.978656,42.463791 39.035804,41.107605 39.008624,41.056628 39.011311,41.039684 38.98136,41.00762 38.964012,40.971744 39.027424,40.938106 39.041164,40.851488 39.03626,40.468824 39.61636,40.600812 39.6853,39.534933 39.258584,38.826755 39.353803,38.76302 39.742203,38.655165 39.749396,38.543948 40.277544,38.198779 40.320307,38.189736 40.25559,37.622442 39.888972,37.30136 39.418936,36.614564 39.5629,36.501995 40.105063,36.302967 40.088112,36.154376 40.448862,35.869367 40.163008,35.124271 39.975283,34.96824 39.443912,34.292096 39.51886,34.225083 39.771317,34.103303 39.74892,34.044924 39.939509,33.866764 39.401912,33.480102 39.703459,32.237328 39.605492,32.126444 39.619672,32.078408 39.419364,31.91831 39.263124,31.74657 39.714196,31.263039 39.897945,31.135764 40.141508,30.310702" slic3r:type="contour"/>
  </g></svg>