<svg width="43.790126" height="63.590156" xmlns="http://www.w3.org/2000/svg" xmlns:svg="http://www.w3.org/2000/svg" xmlns:xlink="http://www.w3.org/1999/xlink" xmlns:slic3r="http://slic3r.org/namespaces/slic3r"><g xmlns="http://www.w3.org/2000/svg" slic3r:z="5.21449999999998e-005" id="layer157">
    <polygon style="fill: white" points="29.531887,17.431521 29.554628,17.478259 30.145087,17.34507 31.091286,17.15413 30.994715,17.29036 30.517078,18.013902 29.232228,18.480047 29.047164,18.541808 29.078525,18.335704 29.013497,18.303247 28.86537,18.454521 28.844232,18.477876 28.354235,17.577775 28.200388,17.256858 28.837502,16.643896 29.028814,16.433952" slic3r:type="contour"/>
    <polygon style="fill: white" points="27.292217,16.549265 27.570344,17.090024 26.960615,17.775712 26.7895,17.98406 26.393573,17.278795 26.14285,16.781224 26.609834,16.262457 26.924894,15.878054" slic3r:type="contour"/>
    <polygon style="fill: white" points="25.392629,16.027438 25.77441,16.722343 25.263694,17.357915 25.017721,17.691164 24.666426,17.096408 24.35862,16.520656 24.736039,16.04237 25.10169,15.540493" slic3r:type="contour"/>
    <polygon style="fill: white" points="23.706324,15.757692 24.147258,16.509611 23.690182,17.136149 23.418256,17.544872 23.077129,17.006393 22.73947,16.415417 23.081058,15.938522 23.45349,15.366149" slic3r:type="contour"/>
    <polygon style="fill: white" points="22.135342,15.672161 22.598064,16.422263 22.164366,17.065663 21.895064,17.5071 21.540834,16.992508 21.192048,16.422268 21.535616,15.920732 21.895064,15.318774" slic3r:type="contour"/>
    <polygon style="fill: white" points="20.58019,15.707446 21.05066,16.415368 20.631353,17.09031 20.371844,17.544887 19.997571,17.040767 19.642876,16.509408 19.994664,15.969618 20.336678,15.366144" slic3r:type="contour"/>
    <polygon style="fill: white" points="18.975829,15.905279 19.431486,16.520727 18.998015,17.269452 18.772422,17.691174 18.349063,17.171849 18.01574,16.722417 18.386906,16.106951 18.68846,15.54048" slic3r:type="contour"/>
    <polygon style="fill: white" points="17.253625,16.309402 17.647278,16.781228 17.153708,17.680889 17.000622,17.984076 16.481655,17.407005 16.219772,17.090024 16.630383,16.346039 16.865234,15.878055" slic3r:type="contour"/>
    <polygon style="fill: white" points="15.336229,16.985238 15.589742,17.256853 14.96475,18.438711 14.945896,18.477874 14.771682,18.301608 14.706857,18.334222 14.725188,18.453299 14.742959,18.541808 14.075947,18.27381 13.273088,18.013915 13.013303,17.645473 12.698838,17.154106 13.830929,17.397919 14.23655,17.48364 14.628979,16.710084 14.761304,16.433958" slic3r:type="contour"/>
  </g></svg>