<svg width="43.790126" height="63.590156" xmlns="http://www.w3.org/2000/svg" xmlns:svg="http://www.w3.org/2000/svg" xmlns:xlink="http://www.w3.org/1999/xlink" xmlns:slic3r="http://slic3r.org/namespaces/slic3r"><g xmlns="http://www.w3.org/2000/svg" slic3r:z="3.49849999999999e-005" id="layer105">
    <polygon style="fill: white" points="11.50335,58.239543 11.689609,58.984511 13.277994,59.176756 13.303565,59.15882 13.311541,59.159617 13.66281,58.8756 13.682504,58.96002 13.757122,59.204143 14.911696,59.319516 15.436883,59.906174 15.754014,59.654528 15.804673,59.610872 16.053006,60.415155 16.172757,60.72818 16.212974,60.773104 16.21718,60.784872 16.279814,60.840872 16.276223,60.849149 16.245103,60.878172 16.227298,60.892944 16.076785,60.87579 15.45751,61.431727 15.261714,61.59046 14.961495,60.748677 13.953026,60.633739 13.427917,60.591625 13.386068,60.622268 13.324183,60.614043 13.090486,60.803779 13.017049,60.857168 12.926628,60.561209 12.584248,60.515708 11.951098,60.457684 11.686136,60.01906 11.307301,59.562711 10.707704,59.9491 10.675966,59.817604 10.452169,58.667852 10.86977,58.4013 11.456645,57.975524" slic3r:type="contour"/>
    <polygon style="fill: white" points="9.378699,57.409663 9.51812,58.229727 9.035929,58.514128 8.432631,58.836784 8.3665,58.422508 8.258532,57.5325 8.920374,57.185932 9.329762,56.936168" slic3r:type="contour"/>
    <polygon style="fill: white" points="7.413184,56.438396 7.447528,57.048168 6.724193,57.356423 6.311655,57.519496 6.280863,56.802603 6.271065,56.19874 7.207396,55.842019 7.419468,55.74564" slic3r:type="contour"/>
    <polygon style="fill: white" points="4.006252,52.730448 4.682136,52.745992 4.579488,53.005592 4.367504,53.679376 5.754215,54.41891 5.842169,54.399824 5.828867,54.451813 5.947257,54.497344 5.957286,54.609815 6.015972,55.922472 5.638939,55.77308 5.631015,55.827044 5.609568,55.831319 5.497801,55.850019 5.330775,55.760862 4.645573,55.914448 4.462863,55.952828 4.531441,55.33418 4.187059,55.150352 3.574148,54.823728 3.641971,54.494768 3.70292,54.117556 3.655985,54.117556 3.670068,54.080725 3.032911,54.053648 3.083749,53.892512 3.464868,52.689728" slic3r:type="contour"/>
    <polygon style="fill: white" points="2.528346,47.734075 3.120805,48.114176 2.989859,48.39054 2.726397,48.870953 3.42487,49.42616 3.133448,49.836463 2.750533,50.428691 3.532785,50.650767 3.789871,50.721468 3.491537,51.339683 3.168543,52.021948 2.453022,51.817179 1.976793,51.69606 2.3138,50.952459 2.550257,50.429864 1.968322,49.998944 1.351098,49.488972 1.44449,49.364236 1.580478,49.173231 1.549614,49.157348 1.59331,49.1006 1.213281,48.896679 1.318167,48.704524 1.961501,47.432788" slic3r:type="contour"/>
    <polygon style="fill: white" points="1.925702,43.803052 2.598896,44.59044 2.562371,44.683719 2.497032,44.807835 2.509991,44.819552 2.505502,44.828221 2.63871,44.940408 2.581524,44.993584 2.15664,45.501875 2.066901,45.675163 1.780804,46.143084 0.725104,45.261439 0.650973,45.204744 0.747805,45.055516 0.739062,45.047096 0.745949,45.032163 0.666191,44.973068 0.620266,44.929344 0.983466,44.517105 1.481013,43.438176" slic3r:type="contour"/>
    <polygon style="fill: white" points="1.963783,36.504347 2.208948,36.713892 1.611989,37.049256 1.403605,37.230841 1.457284,37.402888 1.376536,37.472409 1.922292,38.158383 2.226138,38.766708 1.999586,39.447216 1.665345,40.094909 1.750589,40.179692 1.719438,40.25498 2.293425,40.723312 2.076229,40.876676 1.347432,41.613572 0.870314,41.246223 0.28002,40.630076 0.390714,40.515831 0.653375,40.302056 0.613977,40.25166 0.755307,40.103145 0.238493,39.424232 0.662445,38.539184 1.065836,37.572806 0.933951,37.422288 1.000123,37.243805 0.467843,36.801948 0.214624,36.4989 0.670479,36.079436 1.237141,35.705348" slic3r:type="contour"/>
    <polygon style="fill: white" points="5.749457,20.48424 6.056416,20.901136 5.723799,20.9401 5.066831,21.132196 4.894303,21.951823 5.022495,22.2088 4.992306,22.309287 5.272788,22.70761 5.119301,22.721562 4.846808,22.793582 4.468883,24.051518 4.293558,24.500356 4.324672,24.562906 4.313835,24.594693 4.410411,24.725884 4.357643,24.731376 4.256831,24.761887 3.577432,26.75461 3.490273,26.937371 3.505981,26.966215 3.499927,26.984096 3.560104,27.058702 3.529443,27.063666 3.464316,27.089279 2.840105,28.932914 2.59332,29.411572 2.642732,29.488374 2.624048,29.546873 2.846484,29.785732 2.745477,29.813519 2.495858,29.948234 2.201253,30.870646 1.60117,32.00212 1.751473,32.200274 1.707525,32.330168 1.859818,32.517014 2.400868,33.022554 2.114008,33.143034 1.332045,33.702452 0.886507,33.291686 0.420396,32.657756 0.61127,32.511392 1.089203,32.26433 1.047774,32.14543 1.357308,31.903896 1.391905,31.885832 0.903821,29.226294 0.901301,29.222215 1.873922,26.699285 1.820335,26.5964 1.845633,26.536559 1.738173,26.396594 1.694331,26.303628 2.0026,26.16527 2.230338,25.62658 2.703517,24.167227 2.668802,24.093415 2.684364,24.051387 2.611731,23.94725 2.583807,23.881486 2.771073,23.81723 2.846983,23.612232 3.000735,22.916479 3.407925,22.49514 3.579444,22.13577 3.453378,21.86547 3.526657,21.84263 3.734854,21.810155 3.746429,21.785902 4.246095,21.643101 4.724324,20.998762 4.514627,20.729985 4.211523,20.144542 4.549336,20.036296 5.386372,19.876815" slic3r:type="contour"/>
    <polygon style="fill: white" points="22.829322,6.102211 22.90121,6.239679 23.141837,5.96269 23.363896,5.734866 23.633618,6.362881 23.740761,6.3722 23.837596,6.373869 24.161643,6.182433 24.297328,6.11658 24.373885,6.427758 24.445782,6.441782 24.638564,6.42326 24.603598,6.990616 24.643513,7.125155 24.837323,7.070774 24.842884,7.066547 25.43836,6.790551 25.553168,7.096326 25.551254,7.373059 26.60238,7.367427 26.712085,7.345424 26.77921,7.476313 26.850492,7.429975 26.908078,7.727596 26.955757,7.820567 26.962938,7.846485 27.287731,8.338232 27.814991,8.38983 27.877729,8.33537 28.252178,8.033033 28.327816,8.318563 28.364287,8.443583 28.367392,8.443887 28.385011,8.504965 28.883307,8.620082 29.418855,8.726464 29.641356,8.535239 29.689683,8.703802 29.713098,8.784912 29.71767,8.78582 29.731831,8.83218 30.366691,9.072656 30.724029,9.182198 30.986898,8.95706 31.052285,9.181622 31.081638,9.291824 31.090024,9.294395 31.12557,9.403108 31.330839,9.526584 31.773045,9.717502 31.999057,9.498522 32.222324,9.298745 32.294377,9.537767 32.383206,9.446486 32.4254,9.32933 32.826638,9.685154 33.106986,9.837404 33.443999,9.551797 33.568308,9.931214 33.752359,9.755435 33.874752,9.578667 34.13084,9.889093 34.451028,10.140336 34.664556,9.998636 34.985804,9.792382 35.011322,9.859875 35.087384,9.803832 35.385812,10.394289 35.715844,10.285429 36.1087,10.187745 36.179875,10.56513 36.228164,10.806962 36.287787,10.807539 36.995872,10.921394 36.957876,11.087507 36.856844,11.426471 36.919988,11.437454 36.871022,11.569163 37.479864,11.834743 37.457088,11.868782 37.389531,11.945069 37.411132,11.961133 37.380139,12.001908 37.60098,12.313376 37.621384,12.690197 37.632348,12.696122 37.632168,12.699213 37.664232,12.715156 37.687392,12.728642 37.626748,12.789292 37.627016,12.794217 37.626615,12.794554 37.619052,12.924419 37.607043,13.54339 37.745172,13.616422 37.824932,13.660754 37.600583,13.876392 37.599888,13.912204 37.589004,13.921891 37.52375,14.478805 37.804624,14.615665 37.9982,14.699895 37.492476,15.219785 37.431801,15.279371 37.408248,15.493922 37.367837,15.538636 37.857196,15.745995 38.266088,15.886386 37.970211,16.196294 37.530649,16.717694 37.577755,16.758009 37.940023,16.913109 38.109864,17.073266 38.611484,17.213528 38.540192,17.288211 38.456708,17.400334 38.752804,17.679548 38.588157,18.505653 38.815984,18.586112 39.024596,18.627582 38.622404,19.034439 38.421053,19.344089 38.342291,19.739268 38.341548,19.742454 38.122145,19.524047 37.353468,19.338558 37.134108,19.250922 37.407648,18.812796 37.244592,18.650482 36.892332,18.411474 37.013543,18.094262 37.043862,17.898895 36.685644,17.728784 36.78138,17.583963 37.157489,17.166699 37.176047,17.047108 37.350349,16.796776 36.729472,16.556326 36.322564,16.33688 36.655752,15.865008 36.980766,15.536583 36.088244,15.090766 36.029496,15.056548 36.163713,14.892087 36.115232,14.850127 35.975212,14.729747 36.08878,14.238019 36.114489,14.055145 35.758899,13.879201 35.866091,13.761685 36.172427,13.444377 36.185366,13.254161 36.183869,13.218256 35.542708,12.917623 35.736996,12.73801 35.988126,12.47829 35.364824,12.262819 35.59694,12.003506 35.22648,11.976292 35.283161,11.811323 35.059628,11.876692 35.013837,11.612114 34.761684,11.790198 34.607522,11.512668 34.401216,11.684119 34.369135,11.740269 34.35028,11.765518 34.327889,11.741656 34.309736,11.771738 34.294691,11.706277 34.248515,11.657067 33.879167,11.306155 33.70062,11.740153 33.18826,11.383099 33.119542,11.548385 32.965128,11.707361 32.96106,11.753531 32.950188,11.80298 32.899343,11.773936 32.872132,11.808944 32.85784,11.750226 32.829851,11.734236 32.826121,11.725155 32.697235,11.65318 31.960589,11.230909 31.883454,11.301262 31.60289,11.594042 31.565596,11.386515 31.472068,11.021133 30.853518,11.363546 30.445407,11.156553 30.387846,11.20721 30.370377,11.115503 30.267421,11.083433 29.166729,10.696311 29.142851,10.71745 29.087006,10.767785 29.060992,10.659162 28.969524,10.641099 28.361378,10.498647 28.200784,10.195739 28.133191,9.906036 27.966177,10.051328 27.965103,10.038079 27.722798,10.254332 27.667108,10.052869 27.538346,9.623962 27.17063,9.58279 26.256885,9.486751 26.236414,9.500789 26.210028,9.519558 26.198685,9.482663 26.158398,9.483197 26.165724,9.387856 25.948488,8.65399 25.505989,8.634245 25.180653,8.772021 25.131226,8.314773 25.102117,8.184775 24.471918,8.481141 24.318716,8.122775 24.331631,7.806088 24.137899,7.757476 23.65369,8.13046 23.493824,7.799128 23.428466,7.582204 23.078754,8.015488 22.91808,7.737396 22.81844,7.527346 22.52675,7.999048 22.357548,7.744515 22.255776,7.579627 22.173208,7.578393 21.895064,8.023493 21.73964,7.768476 21.62098,7.578431 21.521477,7.579738 21.263356,7.999051 21.124978,7.744313 21.023332,7.579188 20.91524,7.582146 20.711392,8.015498 20.557977,7.772076 20.449694,7.635781 20.273113,7.656179 20.136391,8.130482 19.953205,7.902528 19.850282,7.8185 19.291934,7.893233 19.214344,8.12292 19.31818,8.481162 19.130404,8.303007 18.756723,8.102556 18.609496,8.772012 17.820098,8.741991 17.733681,9.04177 17.621715,9.401122 17.627014,9.454075 17.631682,9.483243 17.595426,9.482997 17.58012,9.519557 17.532155,9.48723 17.398468,9.501937 16.270752,9.6244 16.21267,9.835191 16.067312,10.254353 15.982645,10.181765 15.824085,10.042819 15.8239,10.051273 15.578469,9.837944 15.428607,10.498711 14.73581,10.654323 14.725885,10.695155 14.703098,10.767799 14.618594,10.69316 14.503837,10.729012 13.438005,11.105282 13.436534,11.109997 13.426303,11.114575 13.41984,11.147103 13.40237,11.207178 13.33917,11.153565 13.28272,11.178826 12.936721,11.36351 12.708076,11.015208 12.432459,10.884137 12.384993,10.909941 12.336609,11.15827 12.187323,11.594017 11.978138,11.403061 11.796929,11.229638 11.624099,11.323596 10.968982,11.718742 10.960179,11.734266 10.945621,11.742328 10.938471,11.767921 10.917933,11.808923 10.885806,11.775088 10.83992,11.802964 10.834775,11.721343 10.67073,11.548579 10.665532,11.533841 10.546772,11.409187 10.474086,11.45882 10.089508,11.740154 10.00154,11.396115 9.946057,11.250207 9.595212,11.599842 9.524661,11.724219 9.480327,11.771729 9.453455,11.748192 9.439872,11.765523 9.414337,11.713927 9.375408,11.679831 9.150562,11.526989 9.110991,11.597754 9.02847,11.790193 8.765737,11.515074 8.7305,11.876692 8.497822,11.76911 8.563638,11.976302 8.223867,11.985186 8.425291,12.262819 8.115036,12.386584 7.838738,12.482798 8.24741,12.917603 8.010413,13.045951 7.613892,13.233691 7.631146,13.472086 8.031251,13.879173 7.902498,13.9436 7.693352,14.047172 7.81492,14.72976 7.615421,14.902203 7.723612,15.026424 7.76063,15.056578 7.135049,15.343039 6.78633,15.541048 7.233024,16.13026 7.467568,16.336872 7.071784,16.459329 6.425499,16.79305 6.614044,17.047063 6.665329,17.293689 7.104482,17.728786 6.980481,17.758069 6.780597,17.848002 6.89778,18.41152 6.382588,18.884658 6.531814,19.109358 6.65602,19.250904 6.072466,19.353346 5.736246,19.47824 5.450674,19.740501 5.448611,19.742262 5.407122,19.442231 4.915613,18.874499 4.76551,18.627604 5.268177,18.437437 5.226239,18.134158 5.037335,17.679444 5.22106,17.578463 5.345551,17.446768 5.178636,17.213505 5.300023,17.16599 5.740984,17.028452 5.850011,16.913116 6.260467,16.728379 5.866623,16.301536 5.524052,15.886326 6.019947,15.672718 6.387223,15.536873 6.352897,15.262489 5.964319,14.867338 5.791966,14.699826 6.254155,14.473183 6.21325,14.146203 6.191564,13.913294 6.190231,13.912206 6.186269,13.858277 6.038411,13.720065 5.9652,13.660778 6.158565,13.558873 6.158531,13.558513 6.164061,13.555863 6.153192,13.407858 6.157236,12.777851 6.123297,12.745032 6.102741,12.728604 6.157725,12.701616 6.15776,12.696101 6.162939,12.693543 6.162889,12.660387 6.189124,12.313471 6.363117,12.029137 6.398219,11.985494 6.378995,11.961132 6.412094,11.939787 6.310264,11.834743 6.363956,11.819218 6.933642,11.602503 6.870142,11.437453 6.952135,11.429206 6.794263,10.921394 7.043578,10.919879 7.546234,10.867094 7.571222,10.737675 7.681401,10.187767 8.229682,10.371717 8.359479,10.407996 8.665349,9.863888 8.702758,9.803842 8.774005,9.853628 8.804386,9.792386 9.201071,10.095409 9.260906,10.132201 9.915327,9.578679 10.240215,9.876948 10.346142,9.551795 10.567681,9.784397 10.612018,9.820687 11.364802,9.329309 11.522,9.48134 11.567801,9.298737 11.82942,9.612557 11.927745,9.698364 12.168289,9.57053 12.687982,9.337353 12.700161,9.294385 12.715148,9.288833 12.803261,8.957025 12.943904,9.111531 13.019253,9.176187 13.758729,8.902272 14.065815,8.808611 14.072448,8.78584 14.076733,8.784785 14.14878,8.535227 14.26666,8.656032 14.340039,8.719932 14.985062,8.56106 15.407642,8.481241 15.537933,8.033026 15.76248,8.240163 15.921821,8.37117 16.02812,8.355679 16.516489,8.31688 16.704979,8.031495 16.827325,7.846259 16.83435,7.820608 16.849861,7.790113 16.905116,7.560664 16.939598,7.430007 17.008266,7.478674 17.046688,7.403132 17.078011,7.345452 17.908602,7.208765 18.397385,7.294046 18.44318,7.137033 18.351784,6.790552 18.526546,6.946557 18.755104,7.070505 18.765856,7.018276 18.917399,7.127172 18.989349,7.117986 18.996096,7.053271 19.151574,6.423265 19.441445,6.394872 19.442918,6.382675 19.442972,6.382671 19.47909,6.234841 19.492822,6.116572 19.86247,6.349148 19.928354,6.343883 20.206144,6.33188 20.344262,6.009396 20.4262,5.734879 20.750291,6.113779 20.895572,6.271662 21.077513,5.948092 21.230108,5.625014 21.489534,6.046595 21.58386,6.19559 21.716072,5.964282 21.895064,5.634513 22.159871,6.097199 22.20628,6.180247 22.354868,5.939516 22.560013,5.624999" slic3r:type="contour"/>
    <polygon style="fill: white" points="39.065776,20.070544 39.57862,20.144601 39.393036,20.353529 39.083873,20.896503 39.839592,21.735691 40.043596,21.785898 40.078114,21.838233 40.336772,21.865502 40.295792,21.916181 40.222004,22.056396 40.789636,22.917025 41.052282,23.848454 41.142963,23.875277 41.20632,23.881474 41.100851,24.020696 41.121336,24.09334 41.103812,24.126001 41.25492,24.469601 41.844544,26.223717 42.003268,26.286374 42.0958,26.30365 41.936766,26.498074 41.969812,26.596386 41.937238,26.651413 42.117972,27.026402 42.888793,29.222826 42.886713,29.224977 42.751972,30.995843 42.439817,31.931419 42.742392,32.145528 42.695156,32.333453 43.369728,32.6578 43.166648,32.839259 42.458164,33.702452 41.897815,33.432076 41.389284,33.02262 41.591547,32.745404 42.073582,32.280845 42.038664,32.200398 42.198893,31.959956 41.389495,30.057281 40.943668,29.78578 41.006951,29.686244 41.159516,29.516661 41.147464,29.48833 41.235507,29.330908 40.605367,27.682455 40.349586,27.112104 40.230023,27.058746 40.246887,27.028342 40.288156,26.975125 40.284163,26.966222 40.311731,26.90745 39.75752,25.21312 39.567706,24.790619 39.379684,24.725876 39.406564,24.673966 39.472942,24.579688 39.465412,24.562926 39.519162,24.438302 39.312408,23.572889 39.027476,22.85942 38.51734,22.707654 38.595907,22.557316 38.790926,22.2671 38.767668,22.208861 38.934647,21.838711 38.764845,21.162418 38.290151,21.080001 37.733707,20.901118 37.922639,20.565586 38.40384,19.876844" slic3r:type="contour"/>
    <polygon style="fill: white" points="43.237223,36.285143 43.5755,36.49888 43.01168,36.954943 42.787721,37.196671 42.856175,37.42228 42.740545,37.541879 43.200792,38.431028 43.551632,39.424199 43.376524,39.766867 43.07184,40.149641 43.176152,40.25164 43.124635,40.324298 43.510108,40.630039 43.342687,40.7576 42.442692,41.613572 41.967464,41.252832 41.4967,40.723311 41.680924,40.527203 42.057429,40.217414 42.039536,40.179692 42.167833,40.040162 41.563988,38.766724 42.12598,38.030647 42.438996,37.504464 42.332843,37.402896 42.383164,37.280616 41.778372,36.906968 41.581176,36.713923 42.038111,36.1564 42.552892,35.705359" slic3r:type="contour"/>
    <polygon style="fill: white" points="42.622016,44.007435 42.869376,44.606842 43.11506,44.87492 43.169864,44.929284 43.041474,45.023874 43.065151,45.081249 43.105348,45.142524 43.139148,45.204755 42.422571,45.827316 42.009332,46.143084 41.784032,45.734155 41.66262,45.615896 41.151412,44.940411 41.201779,44.891488 41.282492,44.823835 41.280132,44.819551 41.298495,44.801878 41.191228,44.59044 41.277127,44.52 42.309112,43.438188" slic3r:type="contour"/>
    <polygon style="fill: white" points="42.15902,48.0326 42.576816,48.896819 42.474307,48.964892 42.204837,49.111062 42.240584,49.157392 42.213397,49.171598 42.439044,49.488912 42.144115,49.71012 41.237699,50.424992 41.621456,51.271676 41.813332,51.696052 41.313608,51.843115 40.621572,52.021908 40.175276,51.091152 40.000252,50.721464 40.766584,50.503179 41.034219,50.428994 40.60522,49.817112 40.365256,49.42612 40.654708,49.199627 41.076762,48.863591 40.669288,48.114252 40.969007,47.956864 41.82846,47.432808" slic3r:type="contour"/>
    <polygon style="fill: white" points="40.47952,53.178664 40.75722,54.053668 40.640564,54.057587 40.120228,54.079107 40.134124,54.117587 40.100093,54.117572 40.215987,54.82374 39.254004,55.33696 39.302528,55.772444 39.32724,55.952863 38.516715,55.769371 38.464344,55.758244 38.292311,55.850024 38.159108,55.827044 38.14809,55.777495 37.774092,55.922492 37.840652,55.205012 37.842904,54.49734 37.908252,54.475763 37.956213,54.456013 37.947988,54.399824 37.96418,54.402072 38.045002,54.418765 38.709567,54.100616 39.409529,53.704572 39.107968,52.745988 39.428091,52.719568 40.325256,52.689728" slic3r:type="contour"/>
    <polygon style="fill: white" points="37.087324,56.008168 37.51902,56.198667 37.481516,57.089719 37.478424,57.519524 36.933868,57.285192 36.342552,57.04812 36.352892,56.044663 36.370668,55.745624" slic3r:type="contour"/>
    <polygon style="fill: white" points="34.925787,57.171635 35.531596,57.5325 35.427976,58.186996 35.357496,58.836776 35.05664,58.657344 34.272056,58.229796 34.358372,57.525027 34.460363,56.93618" slic3r:type="contour"/>
    <polygon style="fill: white" points="32.581415,58.129208 33.337967,58.667912 33.235678,59.094595 33.082389,59.949103 32.991224,59.881636 32.529434,59.576839 31.839016,60.457684 30.855036,60.570542 30.793408,60.774467 30.773078,60.857168 30.477488,60.613846 30.404058,60.622268 30.376803,60.601801 28.808811,60.76469 28.597586,61.362287 28.52845,61.590464 27.924643,61.042039 27.724965,60.877213 27.562616,60.893048 27.514918,60.852571 27.510156,60.840815 27.570745,60.791141 27.576831,60.774264 27.612149,60.736625 27.958301,59.680632 27.985482,59.610888 28.380139,59.918144 28.644218,59.636703 28.878358,59.319552 29.662379,59.257568 30.022472,59.214442 30.127285,58.8756 30.202756,58.929596 30.511816,59.176151 30.534385,59.191606 31.001489,59.151952 32.082931,59.002972 32.118354,58.823612 32.33346,57.97552" slic3r:type="contour"/>
    <polygon style="fill: white" points="26.482947,60.676779 26.80286,60.987932 26.441961,61.833748 26.31269,62.166684 25.825128,61.661312 25.43272,61.285076 25.822,60.336751 25.909594,60.147852" slic3r:type="contour"/>
    <polygon style="fill: white" points="24.345676,61.019556 24.693395,61.420603 24.304479,62.157312 24.106334,62.546431 23.706416,62.055744 23.301776,61.584515 23.742645,60.746136 23.885182,60.494624" slic3r:type="contour"/>
    <polygon style="fill: white" points="18.152558,60.837636 18.357328,61.28528 17.748115,61.91102 17.477406,62.166672 17.177109,61.466947 16.987268,60.987928 17.744084,60.281559 17.880538,60.14786" slic3r:type="contour"/>
    <polygon style="fill: white" points="20.21573,61.099216 20.48832,61.584484 19.976672,62.208939 19.683794,62.546436 19.373998,61.961028 19.096784,61.420467 19.724636,60.702847 19.904944,60.494624" slic3r:type="contour"/>
    <polygon style="fill: white" points="22.266959,61.169995 22.595681,61.63768 22.158197,62.297116 21.895064,62.686408 21.554826,62.172776 21.194432,61.637792 21.714691,60.87606 21.895064,60.62046" slic3r:type="contour"/>
  </g></svg>