<svg width="43.790126" height="63.590156" xmlns="http://www.w3.org/2000/svg" xmlns:svg="http://www.w3.org/2000/svg" xmlns:xlink="http://www.w3.org/1999/xlink" xmlns:slic3r="http://slic3r.org/namespaces/slic3r"><g xmlns="http://www.w3.org/2000/svg" slic3r:z="7.595e-006" id="layer22">
    <polygon style="fill: white" points="8.833933,23.335673 9.374159,23.680578 9.154072,23.803835 8.428348,24.36054 8.817831,24.681248 9.209192,25.141314 8.810033,25.331602 8.088973,25.629266 8.564537,26.158817 8.740555,26.432884 8.149296,26.660566 8.181065,26.922355 8.341754,27.482874 8.23756,27.487896 8.12684,27.53452 8.262568,27.699894 8.149842,27.751716 7.008638,28.1698 6.518752,27.587004 6.195017,27.277274 6.524337,27.14558 6.874054,26.989219 6.766916,26.344621 6.695754,25.89315 6.744526,25.873612 6.716365,25.838534 6.956527,25.78869 7.813448,25.445428 7.367598,24.973948 7.113857,24.724202 7.638146,24.604684 8.267036,24.336706 7.696633,24.007444 7.244409,23.72327 7.661535,23.509709 8.335862,23.024179" slic3r:type="contour"/>
    <polygon style="fill: white" points="8.647906,19.855539 8.793824,20.103012 8.721458,20.230432 8.764551,20.259663 8.799658,20.272938 8.640557,20.377019 8.091055,21.537967 8.685186,21.891407 9.075972,22.028246 8.769872,22.234342 8.216766,22.826855 7.319319,22.440029 7.018521,22.296052 7.510432,21.869468 7.704338,21.683611 7.304292,21.274331 6.812193,20.770626 6.900556,20.5665 6.954368,20.409728 6.792463,20.272192 6.880812,20.218083 7.057423,20.10949 7.079095,20.046352 7.348949,19.812973 7.427977,19.669953 7.855942,18.853723" slic3r:type="contour"/>
    <polygon style="fill: white" points="22.180073,0.905648 22.577126,0.936291 22.849133,0.956356 23.106917,0.679317 23.19205,0.589553 23.441848,1.040001 23.857764,1.130637 24.071429,1.175517 24.382161,0.916793 24.486056,0.83448 24.687089,1.334886 25.087257,1.475121 25.290784,1.542455 25.363825,1.500567 25.368416,1.502757 25.64661,1.327518 25.761445,1.262512 25.889053,1.751179 26.217026,1.907672 26.562097,2.058341 26.653603,2.023999 26.664922,2.030801 26.898052,1.92447 26.999956,1.886926 27.047903,2.26093 27.258414,2.387424 27.962299,2.766424 28.021519,2.753851 28.027539,2.758621 28.131256,2.727581 28.18002,2.717506 28.180084,2.879477 28.26794,2.949084 28.906078,3.39509 29.191464,3.736668 29.23013,3.778809 29.312423,3.772146 29.308607,3.799664 29.297098,3.851794 29.300798,3.855826 29.297311,3.884229 29.936415,4.843946 30.098161,5.058895 30.416312,5.06598 30.391364,5.169611 30.326652,5.362545 30.340202,5.380552 30.317728,5.478772 30.689972,6.10311 31.007386,6.567351 31.516832,6.621105 31.466299,6.779711 31.345617,7.062039 31.365788,7.09154 31.323027,7.229265 31.549958,7.608411 32.065178,8.363486 32.651072,8.46741 32.588164,8.639794 32.446649,8.922546 32.470305,8.957217 32.422775,9.088562 32.796872,9.629224 33.411936,10.436631 33.797171,10.531137 33.758215,10.632889 33.675623,10.782778 33.691284,10.803338 33.668577,10.861088 34.366863,11.649536 34.640828,12.706112 34.724203,12.732371 34.849663,12.760228 34.947088,12.790978 34.756529,13.245885 34.83887,14.847164 35.582931,15.088407 36.033236,15.262181 35.91396,15.518518 35.703036,15.841622 36.437252,16.520022 36.160695,17.521799 36.556732,17.721826 36.789268,17.838789 36.413847,18.277476 35.941228,18.770656 35.142524,18.391092 34.838836,18.211635 35.242904,17.743311 34.900492,17.428146 34.558332,17.161872 34.716804,16.775158 34.845039,16.127262 34.711107,16.082766 34.150476,15.912501 34.393884,15.51794 34.615504,15.168575 34.610935,15.165205 34.736929,14.907092 33.941052,14.310813 33.202243,13.613675 33.142803,13.598684 33.11855,13.594118 33.121912,13.588491 33.145046,13.540043 33.101079,13.499124 33.01621,13.39298 32.597554,12.035943 32.491364,11.540058 32.468406,11.535733 32.425369,11.448445 32.006976,11.412181 32.111392,11.231054 32.211322,11.014295 31.900615,10.384095 31.580709,9.562582 31.550678,9.558782 31.483119,9.457169 30.911132,9.438746 31.029831,9.218627 31.145147,8.948836 30.903246,8.585001 30.443793,7.764097 30.42368,7.762945 30.357749,7.68631 29.844698,7.700839 29.93058,7.518927 30.01601,7.289088 29.581294,6.783795 29.21254,6.286468 29.205571,6.28666 29.15839,6.245095 28.839884,6.279912 28.881312,6.171036 28.920588,6.035594 27.967958,5.196342 27.912077,5.139313 27.873394,5.147631 27.880673,5.120695 27.757543,5.040211 27.113104,4.208514 27.017074,4.234909 26.9295,4.264556 26.961511,4.009239 26.630051,3.739419 26.31449,3.44135 26.141696,3.518379 25.982266,3.596741 25.971946,3.136884 25.407188,2.835251 25.184738,2.978475 25.00116,3.102576 24.901096,2.560127 24.405338,2.396593 24.16378,2.607198 23.98877,2.763601 23.79981,2.219439 23.326151,2.137845 23.102333,2.393068 22.951152,2.568074 22.690033,2.059362 22.213756,2.036302 22.020465,2.319444 21.895064,2.50628 21.572176,2.035383 21.100513,2.058234 20.943943,2.363329 20.838974,2.568054 20.455535,2.132587 19.997944,2.211535 19.881656,2.542998 19.801354,2.763604 19.363697,2.384626 18.904517,2.536243 18.837662,2.883022 18.788966,3.102577 18.336726,2.81546 17.866792,3.06555 17.866113,3.072533 17.835185,3.097324 17.823412,3.412703 17.80786,3.596741 17.42105,3.42929 17.069763,3.710875 16.851331,3.937292 16.852911,3.981476 16.837493,3.998095 16.855532,4.166742 16.860624,4.264556 16.642322,4.208477 16.47522,4.388599 16.032609,5.04021 15.938039,5.093195 15.911458,5.114243 15.916761,5.147629 15.902657,5.146293 15.876907,5.141603 15.874187,5.143758 15.865266,5.142733 15.109797,5.7398 14.873123,5.986217 14.950241,6.279915 14.82329,6.281986 14.605125,6.265246 14.584572,6.286645 14.517702,6.286442 14.197509,6.635309 13.776839,7.206084 13.94543,7.700835 13.731689,7.723547 13.394435,7.724936 13.366423,7.762945 13.265919,7.771604 13.20226,7.865061 12.642068,8.850517 12.675522,8.917405 12.878993,9.438736 12.625543,9.485439 12.267812,9.508884 12.239448,9.558782 12.135284,9.575549 12.101587,9.646568 11.576944,10.917454 11.783157,11.412143 11.587833,11.461754 11.340084,11.491218 11.321706,11.535737 11.261455,11.549373 10.773909,13.392995 10.642486,13.53253 10.659189,13.57135 10.662668,13.577298 10.671575,13.594119 10.567939,13.623886 9.050551,14.899473 9.107091,15.00736 9.179184,15.165207 9.171346,15.170763 9.42743,15.583727 9.63964,15.912502 9.329314,16.020925 8.991964,16.125318 9.231773,17.161902 8.532912,17.790932 8.782115,18.070964 8.951272,18.211632 8.515129,18.393647 7.848946,18.770629 7.199423,18.04141 7.000862,17.83879 7.560249,17.556049 7.431491,17.143434 7.352877,16.520023 7.717594,16.153822 8.116631,15.79303 8.067566,15.701213 7.756904,15.262183 8.094179,15.155494 8.938069,14.852519 8.895107,13.859671 9.006855,13.096599 8.901872,12.879116 8.84304,12.790955 9.05812,12.746534 9.05992,12.734243 9.114629,12.719714 9.164281,12.445891 9.42325,11.649537 9.905334,11.027561 10.108991,10.826104 10.098838,10.803384 10.130784,10.754906 9.992931,10.531163 10.112282,10.517483 10.313794,10.477199 10.930645,9.541157 11.346593,9.023462 11.319822,8.957217 11.366989,8.87886 11.139054,8.467417 11.328032,8.457243 11.647443,8.412944 12.015438,7.801599 12.451661,7.170952 12.424339,7.09154 12.463819,7.027182 12.273293,6.621105 12.437535,6.622794 12.724729,6.601854 13.170504,5.875161 13.465703,5.441495 13.449923,5.380552 13.476203,5.34237 13.373822,5.065951 13.475987,5.07506 13.659375,5.076243 14.411636,3.9833 14.492217,3.875042 14.489333,3.855877 14.496491,3.847521 14.477705,3.772142 14.503619,3.777201 14.552233,3.782453 14.884216,3.394931 15.616951,2.86378 15.614606,2.764305 15.610105,2.717506 15.752752,2.76534 15.768609,2.753845 15.81247,2.764296 15.993493,2.656586 16.755481,2.234878 16.782888,1.991579 16.790197,1.8869 17.104647,2.041639 17.136544,2.023986 17.205167,2.051405 17.542877,1.89072 17.913029,1.72725 17.998632,1.39021 18.02868,1.262512 18.405749,1.509651 18.42629,1.500579 18.485924,1.535906 18.874783,1.399531 19.108462,1.322146 19.254296,0.958839 19.304072,0.834476 19.662637,1.138624 19.667606,1.136978 19.711168,1.17245 20.104852,1.086552 20.348236,1.035534 20.536268,0.698566 20.598076,0.589549 20.935573,0.954793 21.318089,0.925245 21.609673,0.903784 21.82513,0.607899 21.895064,0.512799" slic3r:type="contour"/>
    <polygon style="fill: white" points="36.456852,19.82528 36.711028,20.046372 36.734571,20.110259 36.99766,20.27222 36.924771,20.335722 36.843239,20.405143 36.977932,20.770648 36.69916,21.055903 36.094422,21.674805 36.545776,22.076614 36.771604,22.296044 36.172707,22.54253 35.573384,22.826868 35.05926,22.434044 34.714132,22.028246 35.204715,21.7276 35.716221,21.506891 35.466875,20.872259 35.227484,20.475966 35.192124,20.447856 35.184446,20.432777 35.027276,20.313332 34.990475,20.27294 35.073364,20.214601 35.043711,20.156364 34.996307,20.103058 35.479531,19.738244 35.934228,18.853742" slic3r:type="contour"/>
    <polygon style="fill: white" points="36.100068,23.397322 36.545712,23.72327 36.102292,23.969666 35.529374,24.32753 36.269947,24.549541 36.67628,24.724222 36.23632,25.199977 35.981944,25.452936 36.735637,25.754243 37.054908,25.832666 37.07376,25.838534 37.044791,25.881087 37.094372,25.89315 36.922192,26.589815 36.876797,26.958125 36.988308,27.00504 37.595139,27.27731 37.331924,27.609476 36.7813,28.169863 36.165875,27.882407 35.52754,27.6999 35.5789,27.649413 35.649955,27.566971 35.448339,27.482838 35.593288,26.592002 35.312016,26.483558 35.049568,26.432894 35.449364,26.020417 35.719367,25.633507 35.102087,25.342017 34.580936,25.141314 34.844963,24.938268 35.367879,24.373004 34.952944,24.125366 34.415956,23.680556 34.659443,23.52869 35.454196,23.024178" slic3r:type="contour"/>
    <polygon style="fill: white" points="36.847428,28.4051 37.590951,28.845891 37.62024,28.8663 38.013652,29.098312 38.021912,29.102602 37.99921,29.12405 38.02844,29.159339 37.887831,30.508962 37.831597,30.979986 37.840932,30.986873 37.83728,31.108784 38.344688,31.448912 38.098828,31.555642 37.817859,31.757075 37.804604,32.199516 37.726828,33.179335 37.787264,33.231055 37.783291,33.383752 38.05094,33.641908 38.446904,33.935584 38.113892,34.026524 37.760749,34.250017 37.758356,34.342039 37.65394,35.627015 37.747144,35.717524 37.735319,35.877133 37.97384,36.135668 38.36658,36.461688 38.038692,36.525251 37.672286,36.727905 37.663304,36.849136 37.496167,38.154052 37.598216,38.268056 37.571943,38.416907 37.686768,38.557439 38.11944,38.9758 37.816412,39.018611 37.434593,39.195056 37.405551,39.359588 37.132744,40.539054 37.227516,40.664924 37.187663,40.799865 37.276776,40.926708 37.693528,41.40762 37.379188,41.434216 36.956102,41.583911 36.947668,41.612468 36.55546,42.732476 36.645472,42.881088 36.593004,43.00108 36.710063,43.204627 37.069188,43.718624 36.721415,43.71662 36.218489,43.832598 35.782744,44.716243 35.863716,44.894076 35.800864,44.995734 35.956164,45.350247 36.229372,45.865624 35.837123,45.816087 35.236494,45.869497 34.825488,46.47756 34.887604,46.683916 34.820285,46.761799 34.983036,47.319264 35.15612,47.801832 34.72172,47.680676 34.035662,47.627599 33.678909,48.011901 33.710756,48.216828 33.643328,48.274801 33.757948,49.028799 33.844648,49.456664 33.38428,49.250596 32.675902,49.06576 32.359735,49.32042 32.36471,49.510868 32.299309,49.553531 32.323794,50.45778 32.348912,50.82806 31.88408,50.538128 31.199299,50.233257 30.896556,50.418346 30.881452,50.586788 30.818823,50.618142 30.734336,51.598747 30.717608,51.929831 30.271081,51.567051 29.645469,51.171492 29.320567,51.323244 29.292938,51.46524 29.23335,51.488188 29.05026,52.448995 28.999012,52.777356 28.592564,52.363824 28.049289,51.916335 27.657693,52.056236 27.622525,52.176724 27.574716,52.189874 27.338096,53.010468 27.24093,53.386796 26.892088,52.954704 26.432411,52.485181 25.927136,52.613015 25.890974,52.707132 25.861823,52.711987 25.621614,53.342471 25.462312,53.785751 25.168778,53.35742 24.785104,52.881591 24.158798,52.976641 24.126153,53.045836 24.121028,53.046126 23.90609,53.505563 23.677012,54.003295 23.426805,53.584891 23.101831,53.101191 22.411415,53.136591 22.182725,53.554168 21.895064,54.067224 21.67015,53.64636 21.382143,53.133775 20.702015,53.098965 20.41847,53.546615 20.113116,54.003296 19.896489,53.547687 19.665894,53.045933 19.663971,53.045835 19.626725,52.968415 19.023755,52.877213 18.617493,53.424328 18.327814,53.78574 18.121642,53.2736 17.920272,52.710305 17.899158,52.707112 17.85676,52.602842 17.374905,52.481288 16.805685,53.123384 16.549226,53.386792 16.36654,52.812923 16.206522,52.186548 16.167607,52.176731 16.125739,52.046483 15.752953,51.913422 15.021364,52.587107 14.79111,52.777359 14.651722,52.156307 14.548935,51.483668 14.497272,51.465228 14.472799,51.357299 14.466337,51.315673 14.153055,51.169079 13.311393,51.778867 13.072518,51.929832 12.99593,51.29606 12.963673,50.612531 12.908684,50.5868 12.895758,50.480467 12.892226,50.411033 12.599382,50.231318 11.71822,50.705728 11.441214,50.82806 11.434115,50.210343 11.481521,49.545298 11.425418,49.510868 11.424405,49.383924 11.429417,49.310324 11.128156,49.066313 10.27885,49.372352 9.945477,49.456692 10.006793,48.879716 10.134196,48.261236 10.079374,48.216832 10.098436,48.053167 10.110312,47.995061 9.779847,47.636319 9.027712,47.776939 8.634006,47.801831 8.755536,47.285792 8.95313,46.738856 8.902522,46.683916 8.955718,46.475031 8.965346,46.448388 8.596801,45.897015 8.007786,45.914928 7.560771,45.865648 7.72403,45.420279 7.969142,44.957988 7.926422,44.894075 8.014462,44.673013 7.632261,43.885599 7.199039,43.842868 6.720947,43.718596 6.907396,43.335676 7.176872,42.947406 7.144661,42.881044 7.253064,42.678988 6.904724,41.662896 6.576488,41.59586 6.096611,41.407632 6.299372,41.066071 6.585377,40.731366 6.562607,40.664948 6.688407,40.476732 6.422028,39.291851 6.116064,39.203976 5.670659,38.975807 5.896605,38.64398 6.207343,38.336912 6.191872,38.268096 6.334748,38.087041 6.179627,36.82711 5.786881,36.685916 5.423556,36.461676 5.694261,36.102472 6.052658,35.795824 6.043016,35.717508 6.175777,35.569273 6.0854,34.347149 5.662948,34.162151 5.343207,33.935584 5.638167,33.585755 6.008203,33.303257 6.002864,33.231056 6.096857,33.138354 6.00875,31.854734 5.840884,31.761204 5.445443,31.448934 5.676607,31.217298 5.952089,31.029252 5.94918,30.986868 5.9636,30.97481 5.761688,29.159336 5.800834,29.131288 5.768213,29.102602 6.394775,28.701852 6.812267,28.480903 6.966287,28.389214 6.976686,28.397675 6.994268,28.409926 7.007629,28.501381 7.562724,28.996294 7.863218,29.257206 7.173854,29.639161 7.292873,30.453827 7.348829,31.057096 7.499,31.170533 7.62826,31.25542 7.381458,31.408881 7.383114,31.42674 7.336124,31.461101 7.392615,31.931878 7.434686,33.483876 7.479794,33.51376 7.53066,33.541188 7.43794,33.603947 7.438415,33.62148 7.417968,33.638527 7.444714,33.86284 7.494658,35.908007 7.530904,35.928779 7.575406,35.948616 7.497082,36.00725 7.497577,36.027516 7.482015,36.042105 7.515111,36.249903 7.652927,38.289165 7.709328,38.315552 7.777882,38.339704 7.663012,38.438393 7.66527,38.471812 7.650384,38.487772 7.721918,38.767416 8.007068,40.545645 8.076528,40.569904 8.155492,40.588608 8.034233,40.715055 8.039857,40.75012 8.029315,40.763556 8.132307,41.042948 8.559757,42.641471 8.631195,42.657016 8.709897,42.665384 8.603302,42.804311 8.611915,42.83652 8.606349,42.845296 8.727878,43.085328 9.301366,44.534282 9.367778,44.538788 9.440689,44.535768 9.357985,44.677332 9.374786,44.719785 9.497832,44.899483 10.22038,46.185886 10.279904,46.179536 10.346088,46.165576 10.286368,46.312755 10.439354,46.476555 11.316291,47.574689 11.373414,47.557984 11.434716,47.533779 11.399036,47.682635 11.56195,47.813576 12.567833,48.736786 12.625592,48.70914 12.685199,48.674224 12.669813,48.832781 12.853024,48.944807 13.939288,49.694146 14.003348,49.651416 14.067245,49.60128 14.072335,49.787926 14.301446,49.895015 15.392704,50.468335 15.470742,50.401428 15.546508,50.326471 15.579687,50.569288 15.898907,50.683175 16.890151,51.080156 16.989051,50.975164 17.08485,50.861632 17.161772,51.190256 17.619232,51.305508 18.430013,51.535154 18.549478,51.380923 18.664298,51.22244 18.801419,51.63681 19.395005,51.726195 20.013487,51.831141 20.14564,51.625027 20.271544,51.426132 20.473302,51.89646 21.144409,51.930447 21.640136,51.95865 21.77078,51.711499 21.895064,51.488691 22.145774,51.962275 22.798661,51.929276 23.304386,51.900348 23.413706,51.644615 23.518582,51.426132 23.783765,51.839885 24.354126,51.754367 24.941715,51.653338 24.97351,51.645357 25.049282,51.414868 25.125826,51.22244 25.374911,51.54462 25.837055,51.428636 26.595353,51.210332 26.59822,51.20106 26.616012,51.194718 26.657469,51.015484 26.705278,50.861668 26.91732,51.08734 27.270851,50.961348 28.186297,50.589344 28.18872,50.578 28.201179,50.572156 28.218624,50.441551 28.243644,50.326452 28.413633,50.472505 28.680134,50.347503 29.699577,49.807229 29.700614,49.797775 29.710088,49.791939 29.712517,49.691632 29.722882,49.60128 29.865359,49.696286 30.075127,49.56706 31.105418,48.853435 31.105374,48.844095 31.113456,48.837522 31.104986,48.752468 31.104926,48.674224 31.236921,48.737114 31.417078,48.5906 32.378324,47.707605 32.376822,47.69618 32.38433,47.687999 32.36516,47.6085 32.355404,47.53376 32.490239,47.572596 32.658449,47.389308 33.493626,46.344901 33.489314,46.329087 33.496337,46.318559 33.464746,46.240572 33.44404,46.165576 33.588802,46.179963 33.749703,45.938784 34.431775,44.729495 34.42138,44.70458 34.427907,44.691237 34.382392,44.612759 34.34944,44.535796 34.510113,44.523179 34.663319,44.209972 35.196679,42.869653 35.178216,42.836548 35.183971,42.820236 35.125296,42.742836 35.080232,42.665412 35.252669,42.625552 35.388232,42.241371 35.777316,40.789088 35.750272,40.750175 35.754748,40.731669 35.688303,40.661263 35.634632,40.588664 35.804324,40.526709 35.906147,40.105736 36.15749,38.511302 36.124848,38.471804 36.127581,38.453312 36.065468,38.3989 36.012244,38.339704 36.154585,38.270564 36.211248,37.887108 36.321918,36.058275 36.292551,36.027515 36.293766,36.015758 36.252856,35.984608 36.21472,35.94862 36.306325,35.894241 36.33604,35.606716 36.387998,33.654591 36.351712,33.62148 36.352749,33.610831 36.30622,33.579 36.259468,33.541188 36.366659,33.467924 36.410152,33.021161 36.485311,31.48682 36.407016,31.426748 36.408542,31.414962 36.28822,31.339974 36.161864,31.255425 36.458936,31.025737 36.640056,29.626833 36.243784,29.406732 35.926904,29.25722 36.308923,28.91489 36.785431,28.497411 36.795832,28.409925 36.823811,28.389214" slic3r:type="contour"/>
  </g></svg>