<svg width="43.790126" height="63.590156" xmlns="http://www.w3.org/2000/svg" xmlns:svg="http://www.w3.org/2000/svg" xmlns:xlink="http://www.w3.org/1999/xlink" xmlns:slic3r="http://slic3r.org/namespaces/slic3r"><g xmlns="http://www.w3.org/2000/svg" slic3r:z="6.605e-006" id="layer19">
    <polygon style="fill: white" points="23.516152,50.668156 24.273746,51.858172 23.719022,53.034011 23.651966,53.179424 23.290267,52.586103 22.873272,51.975724 23.138651,51.354916 23.488798,50.625476" slic3r:type="contour"/>
    <polygon style="fill: white" points="25.137143,50.510563 25.93608,51.580588 25.438908,52.874539 25.408878,52.95826 24.995984,52.36682 24.55352,51.82738 24.777083,51.14732 25.06665,50.41938" slic3r:type="contour"/>
    <polygon style="fill: white" points="26.748135,50.202667 27.571704,51.131348 27.156678,52.553319 27.154848,52.560404 26.676134,51.97748 26.221238,51.519259 26.393867,50.772928 26.61511,50.061091" slic3r:type="contour"/>
    <polygon style="fill: white" points="31.179228,48.089816 31.981149,48.521365 32.04874,48.466396 33.102876,48.88 33.076528,49.212608 32.179473,49.983904 32.140743,50.015102 32.140924,50.022011 32.13727,50.024394 32.14035,50.069796 32.103201,50.046619 30.635472,51.004047 30.562156,51.048872 30.561253,51.05894 30.555368,51.061887 30.551462,51.139208 30.524773,51.117527 30.48918,51.095023 28.954955,51.863108 28.890776,51.893084 28.889452,51.899887 28.884909,51.901637 28.875374,51.962732 28.855905,51.942923 28.830991,51.922402 27.358096,52.489648 27.358096,52.489647 27.831731,51.797384 28.388938,51.558289 27.786824,51.062336 27.7878,51.055043 27.789604,51.046596 27.864311,51.011555 27.96891,50.228451 28.11894,49.53832 28.318555,49.709827 29.163102,50.493515 29.139678,50.613891 29.580855,50.520709 29.384884,50.3968 29.38581,50.357504 29.390928,50.310844 29.461787,50.267191 29.479966,49.516911 29.557484,48.841088 29.807463,49.007779 30.584379,49.575637 30.741033,49.479132 30.901172,49.485308 30.900772,49.399992 30.969504,49.344095 30.897472,48.620752 30.896972,47.955336" slic3r:type="contour"/>
    <polygon style="fill: white" points="32.404829,46.952203 33.370678,47.29088 33.43504,47.705049 33.531953,47.796868 33.486674,48.03731 33.592276,48.71686 33.5965,48.737708 33.372111,48.645643 33.36599,48.678148 32.316864,48.4044 32.304389,48.352571 32.295633,48.285984 32.361238,48.214501 32.193737,47.519871 32.10849,46.866848" slic3r:type="contour"/>
    <polygon style="fill: white" points="33.46081,45.587612 34.453328,45.753788 34.83936,47.036244 34.873884,47.131872 34.229551,46.983423 34.161106,46.978561 34.143052,47.077572 33.580492,47.034048 33.563744,46.992599 33.548442,46.936496 33.607647,46.847754 33.341384,46.19046 33.166862,45.558396" slic3r:type="contour"/>
    <polygon style="fill: white" points="35.835083,45.087319 35.923276,45.251884 35.318787,45.212816 34.909949,45.252525 34.893492,45.345115 34.642395,45.367444 34.628712,45.343692 34.614648,45.309983 34.665493,45.206039 34.31098,44.59478 34.054311,43.995304 34.331387,43.973544 35.3268,43.971012" slic3r:type="contour"/>
    <polygon style="fill: white" points="36.599548,42.952616 36.746724,43.159044 36.194736,43.200555 35.559067,43.35603 35.54686,43.433076 35.493828,43.445304 35.489524,43.439543 35.484792,43.431052 35.526446,43.313009 35.101848,42.752912 34.775736,42.192632 35.031815,42.13344 36.014372,41.986476" slic3r:type="contour"/>
    <polygon style="fill: white" points="36.565168,39.73126 36.547752,39.786091 36.530639,39.833968 37.161864,40.67232 37.35758,40.890788 36.856191,40.987656 36.214036,41.229972 35.70786,40.693628 35.326304,40.177516 35.566119,40.08996 36.437723,39.846497 36.448008,39.735524 36.523172,39.707687 36.542268,39.702088" slic3r:type="contour"/>
    <polygon style="fill: white" points="36.896376,37.42128 36.875527,37.527021 37.544871,38.274779 37.766272,38.478072 37.303208,38.612004 36.673004,38.92726 36.122204,38.444748 35.70208,37.977472 35.936823,37.863444 36.693728,37.564434 36.69914,37.443484 36.815956,37.385095 36.848788,37.371284" slic3r:type="contour"/>
    <polygon style="fill: white" points="37.021284,34.941211 37.011319,35.049052 37.766028,35.781944 37.981428,35.948364 37.531548,36.121224 36.948496,36.475029 36.948531,36.48674 36.828988,36.552856 36.810184,36.537568 36.788908,36.515287 36.802775,36.381114 36.335995,36.025687 35.900832,35.61506 36.144911,35.470168 36.862195,35.117042 36.862296,34.969892 36.950328,34.915419 36.976728,34.901303" slic3r:type="contour"/>
    <polygon style="fill: white" points="35.685423,21.563212 35.846196,21.749864 35.841974,21.825847 35.886428,21.86542 36.447148,22.410254 36.210059,22.507832 35.795959,22.704295 35.758708,23.459218 36.161376,23.753732 36.032203,23.82551 35.738224,24.009139 35.727708,24.445899 36.268552,24.678408 36.108547,24.851428 35.708364,25.249381 35.708104,25.260164 35.684113,25.284224 35.689376,25.432421 36.038875,25.518267 36.661955,25.712232 36.395404,26.103787 35.975739,26.641419 37.019331,26.990471 37.181283,27.045632 36.897471,27.437164 37.08272,27.551824 37.36588,27.738038 37.274416,28.297573 37.238252,28.582426 37.638056,28.79007 37.481671,28.937828 37.148113,29.235913 37.133136,29.441611 37.06472,30.331523 37.06874,30.334161 37.066509,30.413628 37.539471,30.762595 37.914143,30.988158 37.578975,31.208294 37.007264,31.658141 36.960791,32.453254 37.042976,32.516966 37.039293,32.614253 37.78592,33.253204 38.025696,33.415512 37.60466,33.623487 37.0244,34.028692 36.997608,34.010363 36.937771,34.048235 36.918952,34.303155 36.893751,34.06148 36.85372,34.024948 36.864035,33.918986 36.400991,33.602215 35.93572,33.225916 36.153588,33.077003 36.75453,32.726327 36.740216,32.58905 36.793516,32.550756 36.45027,31.379207 36.374467,31.331966 35.817744,30.959434 35.930619,30.87216 36.20945,30.679394 35.677908,29.904993 35.748125,29.099191 35.643172,29.047352 35.565988,29.016042 35.772596,28.818372 35.774152,28.80053 35.776882,28.798137 35.922612,27.818074 35.517908,27.656548 35.17212,27.577244 35.483511,27.241188 35.887596,26.707346 35.297044,26.47966 34.6573,26.356162 34.761107,26.249062 35.072491,25.80285 34.865815,25.722263 34.322468,25.477272 34.327516,25.16284 34.228092,25.119034 34.17098,25.096794 34.33095,24.948939 34.331572,24.910172 34.347822,24.892606 34.353487,24.676258 34.373128,23.916389 34.120228,23.726362 34.021632,23.63815 34.383211,23.432479 34.381107,23.199821 34.354096,22.27964 34.458567,22.200798 34.511061,22.137876 34.410288,22.019388 34.438624,22.002021 35.316568,21.623198 35.676012,21.248259" slic3r:type="contour"/>
    <polygon style="fill: white" points="21.95451,0.667217 22.108232,0.876951 22.70305,0.901803 22.962906,0.912432 23.200904,0.661485 23.245953,0.74272 23.365415,0.954553 24.038859,1.062028 24.264057,1.097384 24.505934,0.905752 24.536072,0.980773 24.618552,1.186664 25.33817,1.419277 25.534406,1.481055 25.79479,1.333656 25.81463,1.409629 25.868945,1.63437 26.498099,1.97993 26.701164,2.086923 27.049052,1.958752 27.061843,2.058533 27.08465,2.327323 27.091444,2.37968 27.460245,2.699519 27.707249,2.902071 28.246538,2.790644 28.246602,2.951517 28.220761,3.32317 28.229024,3.329946 28.228377,3.493371 28.257009,3.527985 28.623785,3.93438 28.853531,3.896009 29.398924,3.853385 29.369474,4.093246 29.257248,4.636269 29.277056,4.658216 29.253033,4.842525 29.516139,5.191886 30.059898,5.157929 30.52818,5.168451 30.457064,5.479251 30.240455,6.153659 30.268922,6.19146 30.228647,6.360803 30.43056,6.648395 30.542266,6.660182 30.56921,6.708735 31.254236,6.72037 31.66682,6.763237 31.557944,7.113903 31.261553,7.832002 31.296146,7.881274 31.268234,7.9684 31.504138,8.393506 31.56699,8.481133 31.680287,8.490058 31.834558,8.517423 31.850962,8.558734 32.453068,8.608714 32.857642,8.680299 32.734896,9.01949 32.418169,9.667825 32.458006,9.723365 32.408576,9.854583 33.035302,10.642459 33.579895,10.722682 34.061592,10.841956 33.9666,11.083549 33.7294,11.515031 33.76206,11.556089 33.722277,11.649284 35.119612,13.177155 35.238984,13.214833 35.22972,13.236947 35.206987,13.274896 35.302684,13.364641 35.333211,14.050975 35.411744,15.378651 35.965876,15.58228 36.271248,15.696251 36.022804,16.100066 35.573833,16.68193 36.628228,18.080512 36.735688,18.153184 36.745821,18.172233 36.848524,18.223892 36.828019,18.247852 36.801029,18.276015 36.860164,18.387179 36.770768,18.533759 36.039331,19.822383 36.514179,20.235419 36.815919,20.503958 36.349192,20.756293 35.701968,21.113356 35.208096,20.73803 34.813144,20.304544 35.226039,20.013944 35.743954,19.759516 35.384492,19.0535 34.875732,18.48143 34.90307,18.460798 34.872512,18.44274 34.882424,18.431249 34.941558,18.37518 35.247187,17.80189 35.477692,16.660008 34.656099,16.378672 34.356844,16.268675 34.746944,15.728541 34.267464,15.313631 33.759576,14.840839 33.746592,14.419661 33.726426,14.064957 33.714062,14.02239 33.38377,13.960186 33.479218,13.800447 33.590762,13.597845 33.415596,12.994719 33.161751,11.955493 33.150376,11.953517 33.090061,11.826705 32.73452,11.759728 32.259226,11.707323 32.464547,11.348556 32.686408,10.901464 32.271256,9.872775 32.253978,9.870854 32.179442,9.754069 31.48687,9.666423 31.112724,9.64966 31.330759,9.233553 31.509508,8.830667 31.462998,8.75767 31.529107,8.603 31.352094,8.286379 31.063526,7.87461 30.382353,7.835596 29.992902,7.843794 30.174137,7.444285 30.379196,6.906771 30.010632,6.401383 29.923512,6.319493 29.403951,6.333782 28.949754,6.380245 29.076655,6.031763 29.210065,5.585874 28.779346,5.13451 28.704416,5.08154 28.493986,5.110201 27.956376,5.221787 28.026422,4.947468 28.088808,4.625329 27.539718,4.187745 27.491031,4.161903 26.990812,4.331234 27.015114,4.137422 27.03008,3.917238 26.847318,3.820232 26.33869,3.510966 26.02759,3.663874 26.024746,3.537138 26.013275,3.374962 25.562431,3.186096 25.239735,3.031684 25.03376,3.170925 25.016548,3.077622 24.988137,2.944267 24.451375,2.776758 24.178795,2.68249 24.010472,2.832916 23.981581,2.749719 23.935046,2.620425 23.402753,2.51541 23.119749,2.455659 22.96232,2.637895 22.919306,2.554093 22.84973,2.418428 22.348407,2.383801 22.039459,2.361225 21.895064,2.576359 21.838655,2.494092 21.748284,2.360152 21.254737,2.394324 20.940944,2.417234 20.827806,2.637894 20.765892,2.56758 20.666068,2.452552 20.151176,2.554338 19.858613,2.615999 19.779654,2.832917 19.712873,2.77509 19.601414,2.676221 19.101083,2.831534 18.809292,2.932295 18.756368,3.170925 18.674362,3.118861 18.535987,3.026674 18.517786,3.032959 18.510842,3.028449 18.130168,3.182957 17.789351,3.346523 17.762534,3.663876 17.639463,3.610598 17.438771,3.514774 17.4086,3.529254 17.37166,3.512789 17.214636,3.590317 16.774849,3.86132 16.799314,4.331234 16.594626,4.278653 16.26693,4.174306 16.211869,4.208235 16.165499,4.195822 15.712307,4.562871 15.732922,4.650585 15.833761,5.221786 15.529553,5.186834 15.051201,5.098311 14.977173,5.158268 14.953529,5.15529 14.583438,5.547611 14.712556,5.924883 14.840372,6.380246 14.445155,6.379049 13.844045,6.331412 13.766684,6.413421 13.758323,6.413289 13.412547,6.888336 13.664998,7.476725 13.797231,7.843792 13.341648,7.883044 12.702204,7.884402 12.468629,8.225958 12.261922,8.590623 12.327128,8.757694 12.286164,8.810691 12.540516,9.322435 12.677403,9.649673 12.21166,9.724642 11.595623,9.766078 11.536198,9.870914 11.512075,9.874279 11.097476,10.862534 11.354927,11.331999 11.530896,11.707328 11.151593,11.793179 10.681482,11.854111 10.639795,11.95348 10.608584,11.959743 10.194046,13.559197 10.406355,13.960187 10.255374,14.003553 10.06941,14.041199 10.03055,14.840839 9.020138,15.729693 9.294224,16.101427 9.433284,16.268677 8.939847,16.431013 8.32058,16.65531 8.877299,18.409214 8.917614,18.44274 8.896723,18.451459 8.914393,18.481428 8.874951,18.550876 8.064164,19.798403 8.600338,20.162098 8.976988,20.30451 8.72528,20.469174 8.088233,21.113356 7.337765,20.705004 6.974205,20.503952 7.381734,20.151508 7.741784,19.832742 7.390282,19.275772 6.929965,18.387178 6.96493,18.323899 6.990958,18.274256 6.941603,18.223892 6.973097,18.207974 7.044594,18.17196 7.054442,18.153179 7.148559,18.089385 7.646064,17.398735 8.215055,16.678703 7.731558,15.953775 7.518878,15.696253 8.036733,15.506443 8.312781,15.404056 8.307057,14.715681 8.487484,13.364533 8.539609,13.309371 8.586416,13.267714 8.551134,13.214845 8.578707,13.20915 8.650621,13.189406 9.511621,12.134404 10.046723,11.595603 10.028062,11.556046 10.084152,11.477209 9.99025,11.267079 9.728529,10.84196 10.012908,10.805928 10.690284,10.667445 11.380127,9.839473 11.332225,9.72346 11.376291,9.655666 11.126733,9.038139 10.932484,8.680299 11.308115,8.657821 11.929622,8.571857 11.955567,8.517447 12.21597,8.481332 12.287317,8.38334 12.520453,7.957125 12.493957,7.881195 12.529861,7.825145 12.291109,7.131185 12.123305,6.763225 12.488826,6.766117 13.213147,6.715326 13.247834,6.660209 13.344051,6.653193 13.561336,6.343116 13.521229,6.191436 13.556255,6.141074 13.413452,5.589542 13.261947,5.168438 13.567281,5.195875 14.241653,5.201883 14.536248,4.806858 14.51307,4.658217 14.550823,4.613679 14.511855,4.354773 14.391203,3.853384 14.614106,3.8977 15.115541,3.952624 15.564423,3.450426 15.561099,3.330008 15.592824,3.302836 15.543564,2.790644 15.686374,2.838533 16.037328,2.922122 16.376584,2.631551 16.702169,2.363171 16.71081,2.286161 16.718511,2.281947 16.741079,1.958748 16.827133,2.001095 17.061485,2.094292 17.700054,1.744907 17.926694,1.625365 17.995338,1.333654 18.05978,1.375891 18.241836,1.482863 18.9624,1.249806 19.173011,1.183537 19.284191,0.90575 19.345888,0.958083 19.519002,1.0976 20.191886,0.990097 20.423515,0.953753 20.589222,0.661484 20.652716,0.730199 20.824229,0.912215 21.421781,0.887229 21.680807,0.876639 21.895064,0.585277" slic3r:type="contour"/>
    <polygon style="fill: white" points="8.928201,21.841911 9.082936,21.902836 9.100501,21.921583 9.379812,22.019388 9.362132,22.031292 9.291538,22.106916 9.292174,22.107379 9.283047,22.11641 9.436011,22.279664 9.412451,23.441646 9.658843,23.580703 9.768487,23.638182 9.416679,23.895882 9.422848,24.130678 9.442396,24.891173 9.458557,24.910172 9.458535,24.936632 9.576753,25.049118 9.619147,25.096794 9.458345,25.168167 9.458294,25.229954 9.46766,25.477261 8.998592,25.623264 8.739655,25.743956 9.132826,26.356136 8.906936,26.443122 7.912583,26.708072 8.36055,27.216625 8.617998,27.577228 7.943563,27.846989 7.845615,27.87633 7.909992,28.426961 7.987458,28.775754 8.015967,28.800508 8.017096,28.813089 8.156701,28.947924 8.224135,29.016014 8.043407,29.105917 8.063002,29.324023 8.112218,29.90496 7.831429,30.280377 7.559221,30.68808 7.972382,30.959406 7.816898,31.056086 7.401872,31.325611 7.37921,31.424213 7.008819,32.560208 7.049984,32.589049 7.048118,32.754138 7.348196,32.952939 7.854405,33.225916 7.597182,33.40002 6.929861,33.904581 6.934105,33.939951 6.936409,34.024948 6.905667,34.050577 6.871168,34.302888 6.854113,34.057123 6.789071,34.011032 6.765709,34.028696 5.970005,33.568712 5.764433,33.415502 6.153539,33.031738 6.753467,32.606842 6.74723,32.516964 6.801696,32.471165 6.832415,32.450078 6.791333,31.667967 6.16182,31.222507 5.875988,30.988151 6.209787,30.70904 6.724076,30.387508 6.721279,30.334254 6.726888,30.330288 6.644254,29.238736 6.633792,29.227815 6.631662,29.212672 6.614883,29.197111 6.152067,28.79007 6.324059,28.680062 6.540622,28.565451 6.42424,27.738081 6.908994,27.436506 6.696536,27.151587 6.608855,27.045628 7.250731,26.833132 7.81917,26.63986 7.438227,26.098444 7.128168,25.712248 7.514348,25.632099 8.090821,25.454499 8.094479,25.272734 8.082053,25.260202 8.080245,25.228269 7.521578,24.678399 7.712249,24.634934 8.046428,24.492536 8.032626,24.007524 7.628751,23.753732 7.750262,23.691522 8.027315,23.492038 8.020136,23.37448 7.989401,22.71969 7.342977,22.410276 7.537713,22.241401 7.948471,21.847694 7.943882,21.749917 8.079577,21.597884 8.10469,21.566187 8.114111,21.248144" slic3r:type="contour"/>
    <polygon style="fill: white" points="6.927701,34.969883 6.946981,35.139646 7.381523,35.388688 7.889294,35.615036 7.634241,35.805971 6.991522,36.363488 6.999087,36.426932 7.001244,36.515287 6.961165,36.552856 6.931418,36.54216 6.841621,36.48674 6.843566,36.477509 6.012963,36.081548 5.808699,35.948372 6.191003,35.521512 6.781937,35.045916 6.768804,34.941224 6.794131,34.916599 6.813327,34.901344" slic3r:type="contour"/>
    <polygon style="fill: white" points="7.090933,37.443512 7.117517,37.585955 7.546897,37.786835 8.088046,37.977472 7.86943,38.165288 7.117128,38.9273 6.256399,38.603172 6.023838,38.478096 6.375324,38.032679 6.91673,37.521073 6.893693,37.421312 6.920444,37.390967 6.941279,37.371316" slic3r:type="contour"/>
    <polygon style="fill: white" points="7.342251,39.735568 7.37687,39.860953 7.902478,40.04452 8.463831,40.177468 8.266509,40.383231 7.576092,41.229972 6.663653,40.984768 6.432554,40.890803 6.760048,40.400824 7.26029,39.831469 7.224977,39.731304 7.237624,39.713892 7.2479,39.702104" slic3r:type="contour"/>
    <polygon style="fill: white" points="8.444856,42.132072 9.014391,42.192628 8.833084,42.428927 8.262332,43.307883 8.298998,43.407348 8.305336,43.431052 8.296298,43.445304 8.286662,43.444352 8.243264,43.433072 8.247273,43.358383 7.245017,43.212959 7.043404,43.15902 7.342619,42.6013 7.775732,41.986468" slic3r:type="contour"/>
    <polygon style="fill: white" points="9.167906,44.01882 9.735815,43.995296 9.574919,44.270704 9.124929,45.192895 9.144511,45.231572 9.17553,45.309944 9.147803,45.367368 9.109657,45.368528 8.896817,45.345064 8.901064,45.271904 8.015724,45.268936 7.866873,45.251884 8.121927,44.611452 8.463326,43.971012" slic3r:type="contour"/>
    <polygon style="fill: white" points="10.495238,45.873924 10.181389,46.829145 10.241684,46.936496 10.209635,47.034048 10.145334,47.046072 9.647073,47.077572 9.652634,47.021311 8.997174,47.127107 8.91624,47.131871 9.101041,46.40622 9.336829,45.753787 10.065454,45.676064 10.623266,45.558396" slic3r:type="contour"/>
    <polygon style="fill: white" points="11.599261,47.210551 11.424491,48.198366 11.494461,48.285984 11.473231,48.4044 11.395315,48.432476 10.42413,48.678172 10.427865,48.659433 10.210372,48.733596 10.193626,48.73774 10.2862,47.942875 10.419477,47.290823 11.145903,47.078396 11.68164,46.86686" slic3r:type="contour"/>
    <polygon style="fill: white" points="12.859095,48.306168 12.814845,49.331608 12.889352,49.399992 12.879639,49.60472 13.049094,49.479132 13.21148,49.578425 13.754703,49.216088 14.232642,48.841088 14.241651,49.171391 14.323444,50.258587 14.399199,50.310843 14.405242,50.396804 14.349603,50.437112 13.898303,50.722327 14.031035,50.80092 14.673213,50.790734 14.627061,50.49348 15.216865,49.987807 15.671214,49.53832 15.709191,49.816259 15.924562,51.010194 15.984445,51.038183 16.000535,51.04664 16.003309,51.06234 15.993356,51.071504 15.288775,51.653676 16.431128,52.489328 15.021924,51.943212 14.96357,51.922383 14.914727,51.96274 14.908055,51.933012 14.903134,51.90081 14.900662,51.899928 14.898594,51.890811 13.384195,51.13162 13.307476,51.095721 13.238667,51.139208 13.234089,51.101332 13.23216,51.060477 13.228875,51.05894 13.227265,51.0457 11.740462,50.078016 11.694723,50.049947 11.649776,50.069796 11.649228,50.022027 11.649202,50.022011 11.64913,50.012988 10.713599,49.212632 11.335387,49.327328 11.741204,48.466256 11.815083,48.525635 12.386222,48.252259 12.893141,47.955323" slic3r:type="contour"/>
    <polygon style="fill: black" points="12.283477,49.789938 12.502144,49.884496 12.816352,49.651625 12.771453,49.574436" slic3r:type="hole"/>
    <polygon style="fill: white" points="17.220738,50.256384 17.568866,51.519208 16.640226,52.555435 16.635312,52.560408 16.384058,51.778783 16.218409,51.131348 16.731645,50.586503 17.175018,50.06106" slic3r:type="contour"/>
    <polygon style="fill: white" points="18.760047,50.529895 19.236605,51.827396 18.436573,52.89046 18.38125,52.958236 18.091002,52.24442 17.854064,51.580572 18.289084,51.018955 18.723478,50.41938" slic3r:type="contour"/>
    <polygon style="fill: white" points="20.321303,50.672043 20.916856,51.975724 20.228272,53.047015 20.13816,53.179424 19.825286,52.529104 19.51638,51.858172 19.880972,51.289527 20.301328,50.625476" slic3r:type="contour"/>
    <polygon style="fill: white" points="21.905842,50.710856 22.598283,51.981624 21.990416,53.078231 21.895064,53.246404 21.565564,52.639728 21.191842,51.981623 21.499067,51.40042 21.895064,50.690495" slic3r:type="contour"/>
  </g></svg>