<svg width="43.790126" height="63.590156" xmlns="http://www.w3.org/2000/svg" xmlns:svg="http://www.w3.org/2000/svg" xmlns:xlink="http://www.w3.org/1999/xlink" xmlns:slic3r="http://slic3r.org/namespaces/slic3r"><g xmlns="http://www.w3.org/2000/svg" slic3r:z="4.55449999999998e-005" id="layer137">
    <polygon style="fill: white" points="4.224881,43.560952 4.239122,43.582577 4.377861,43.646756 5.202352,43.96134 5.165978,44.038364 5.070084,44.193465 5.093236,44.210067 4.780303,45.036884 4.58489,45.422708 3.834793,45.470788 3.651631,45.58612 3.869063,44.72326 3.496301,44.387883 3.345078,44.274536 3.958472,43.751391 4.216668,43.549611" slic3r:type="contour"/>
    <polygon style="fill: white" points="3.852092,38.876044 3.835043,38.943061 4.203917,39.238168 4.812476,39.70958 4.437703,40.026119 3.846233,40.455272 3.399333,40.025587 2.787585,39.51552 2.963123,39.393472 3.663562,38.943535 3.630662,38.910132 3.742763,38.828108 3.775522,38.808452" slic3r:type="contour"/>
    <polygon style="fill: white" points="7.050196,20.528981 7.491514,21.173804 7.30624,21.166644 6.61441,21.321369 6.387116,23.846032 6.405697,23.869362 6.403055,23.887857 6.517999,24.016942 6.477002,24.033745 6.376967,24.070512 6.165579,25.550511 5.505243,27.157238 5.679824,27.34944 5.732246,27.402128 5.348158,27.539455 5.327182,27.590494 5.305897,27.600164 5.098479,29.026303 4.778841,30.826467 5.065593,31.116151 5.142214,31.187082 4.683362,31.364191 4.667671,31.452563 4.633545,31.470913 4.807372,32.293989 4.953384,33.47601 4.740051,34.700031 4.648226,35.137891 4.673495,35.161511 4.671424,35.170272 4.80842,35.284396 4.756727,35.320696 4.615095,35.408565 4.279617,36.827751 3.792231,38.511388 3.261909,37.631912 2.73947,36.996144 3.158379,35.392069 3.13409,35.370332 3.141936,35.328566 2.874422,35.106783 2.747255,34.971888 3.269045,34.651968 3.843712,31.593029 3.785908,31.537382 3.797026,31.465015 3.318067,31.032916 3.114328,30.79945 3.730818,30.472649 3.96495,30.372073 4.376037,27.696487 4.306147,27.621412 4.314998,27.566455 3.901176,27.148771 3.741928,26.951584 4.466713,26.624488 4.71927,25.056432 4.864662,23.870196 4.831793,23.825856 4.838587,23.770256 4.637594,23.5473 4.570743,23.454582 4.891471,23.337492 4.945403,22.896151 4.97693,22.229699 5.5296,21.713976 6.036267,21.138653 5.63668,20.343718 5.765799,20.324508 6.857281,20.165954" slic3r:type="contour"/>
    <polygon style="fill: white" points="9.645355,17.667059 9.759749,18.034686 9.379087,18.058377 8.950133,18.122663 8.931983,18.836086 8.702074,18.857158 7.74153,18.714968 7.736148,18.32114 7.74274,17.712368 7.691408,17.538607 7.723145,17.28058 7.661024,17.13855 7.638846,17.08638 7.748655,17.073186 7.758347,16.994387 7.772192,16.928548 8.073397,17.034165 8.618364,16.968684 8.746797,16.976969 9.470931,16.890006" slic3r:type="contour"/>
    <polygon style="fill: white" points="10.484801,15.067927 11.221396,15.520512 10.980092,16.534379 10.811499,17.16077 10.203522,16.813887 9.744436,16.533253 9.935836,15.668682 10.193518,14.928604" slic3r:type="contour"/>
    <polygon style="fill: white" points="15.293488,13.154999 15.759964,13.702714 15.175208,14.986075 15.112688,15.12521 14.675623,14.632028 14.634352,15.124478 14.610922,15.313321 13.80171,15.274736 13.246932,15.24484 13.238411,15.265557 13.203426,15.265289 12.958647,15.939919 12.749484,15.77759 12.1332,15.260491 11.969512,15.260183 11.942793,14.289522 11.896722,14.008563 12.484142,14.003266 12.576014,13.776975 12.65039,13.634686 13.091897,14.018499 14.322353,14.066223 14.689961,13.256818 14.944271,12.790865" slic3r:type="contour"/>
    <polygon style="fill: white" points="17.072974,12.408166 17.700014,13.170992 17.304146,14.01529 17.060462,14.542344 16.675089,14.079067 16.242887,13.571923 16.556819,12.900136 16.913892,12.226251" slic3r:type="contour"/>
    <polygon style="fill: white" points="22.125799,11.704075 22.37651,11.70303 22.694255,11.702589 22.8433,11.480517 22.919774,11.370143 23.094291,11.701753 23.290883,11.699448 23.913788,11.697513 23.992942,11.591647 24.029598,11.542136 24.104598,11.697177 24.200134,11.69542 24.697426,11.694532 24.749102,12.036252 24.800612,12.462267 25.314958,11.826904 25.34924,11.899241 25.964582,13.1326 25.55469,13.649835 25.160456,14.132985 24.963533,13.720456 24.591767,12.929731 24.367541,13.238393 23.895884,13.86329 23.740308,13.55123 23.446722,12.957469 23.430247,12.957733 23.424579,12.945646 23.36018,12.946183 22.84175,13.711264 22.705467,13.456985 22.434567,12.953901 22.431618,12.953926 22.428946,12.948645 22.32478,12.9489 21.895064,13.662958 21.760227,13.432376 21.469927,12.949812 21.360749,12.949527 21.358507,12.953891 21.356227,12.953891 20.948375,13.711265 20.796965,13.475685 20.440032,12.948189 20.364647,12.947486 20.359806,12.95771 20.342232,12.957646 20.31936,13.003649 19.894226,13.863278 19.699924,13.591927 19.199192,12.926713 18.982114,13.383798 18.629676,14.132989 18.360031,13.789352 17.825522,13.132527 18.061427,12.634171 18.475166,11.826934 18.51365,11.87361 18.996638,12.467435 19.038835,12.162585 19.09257,11.694573 19.682511,11.699203 19.730778,11.599308 19.76054,11.542128 19.877942,11.69904 20.056601,11.700955 20.691067,11.704336 20.804259,11.489328 20.870356,11.370154 21.093877,11.703703 21.361176,11.704778 21.659238,11.705264 21.810702,11.449364 21.895064,11.31374" slic3r:type="contour"/>
    <polygon style="fill: white" points="27.021114,12.535032 27.54723,13.571886 26.993729,14.233141 26.729684,14.542345 26.461139,13.97431 26.090088,13.17098 26.447109,12.759509 26.876234,12.226246" slic3r:type="contour"/>
    <polygon style="fill: white" points="29.165423,13.487919 29.456124,14.056522 29.457896,14.056439 29.460452,14.061763 30.369307,14.0157 30.73501,14.007624 30.745638,13.99821 30.754709,13.9982 31.052242,13.732007 31.139776,13.634703 31.289162,13.995387 31.301041,13.995125 31.302058,13.997566 31.530311,13.997302 31.893336,14.008526 31.900044,14.656878 31.821066,15.260062 31.648482,15.260801 31.415197,15.444784 30.831394,15.939869 30.74212,15.688577 30.588326,15.265338 30.551755,15.265495 30.542354,15.242747 29.179148,15.313286 29.12569,14.623389 28.74266,15.053263 28.677452,15.125204 28.305091,14.315559 28.030138,13.702747 28.559092,13.14195 28.845846,12.790868" slic3r:type="contour"/>
    <polygon style="fill: white" points="33.717392,15.453395 34.04566,16.533207 33.23909,16.999801 32.978642,17.160791 32.83352,16.48313 32.568744,15.520578 33.069044,15.269743 33.596588,14.928599" slic3r:type="contour"/>
    <polygon style="fill: white" points="35.049043,16.97391 35.172132,16.968638 35.707402,17.033056 35.963084,16.945511 36.018036,16.928635 36.037112,17.072735 36.095683,17.079783 36.151344,17.086424 36.064918,17.28278 36.098784,17.538595 36.043893,17.736469 36.048608,18.714952 35.643807,18.682028 34.858148,18.836088 34.931992,18.739212 34.893892,18.153845 34.030375,18.0347 34.127919,17.57275 34.319176,16.889982" slic3r:type="contour"/>
    <polygon style="fill: white" points="37.2713,20.216198 38.153412,20.343628 38.068924,20.442827 37.733523,21.058927 38.81288,22.228768 38.914976,23.350954 39.12116,23.424694 39.219363,23.454516 38.950444,23.740802 38.9582,23.826046 38.939171,23.851957 39.21676,25.657454 39.353895,26.664997 39.835415,26.876333 40.048204,26.951588 39.524068,27.463992 39.471102,27.526128 39.484068,27.62139 39.445149,27.664394 39.85088,30.299595 39.864989,30.413496 40.41942,30.697134 40.675808,30.799436 40.146232,31.263215 39.990861,31.429644 40.004208,31.537394 39.973416,31.568091 40.361131,33.472767 40.551795,34.699776 40.891167,34.900207 41.042864,34.971864 40.644352,35.295422 40.655996,35.370356 40.647459,35.378243 40.841148,36.050512 41.05064,36.996192 40.685832,37.707664 39.99782,38.511152 39.180814,35.405446 38.981708,35.284368 39.0241,35.248927 39.118869,35.169977 39.116631,35.161468 39.146547,35.132453 38.836756,33.476126 39.185749,31.485744 39.122496,31.452582 39.113545,31.391323 38.731736,31.231092 38.64792,31.187071 39.0259,30.791486 38.786127,29.150499 38.505236,27.609186 38.462855,27.590434 38.450125,27.556395 38.125515,27.432692 38.057892,27.40217 38.292678,27.1354 38.063832,26.5235 37.624727,25.551249 37.480652,24.444948 37.417969,24.07001 37.272152,24.017002 37.297836,23.980247 37.385958,23.878535 37.384432,23.869409 37.417988,23.825865 37.399359,22.788795 37.21961,21.387638 36.298624,21.17388 36.415836,20.944585 36.93292,20.165884" slic3r:type="contour"/>
    <polygon style="fill: white" points="40.159712,38.910052 40.126463,38.948192 40.366828,39.114252 41.002524,39.515608 40.763536,39.742127 39.943884,40.455308 39.438887,40.034079 38.977643,39.709539 39.302899,39.446468 39.956335,38.940253 39.938244,38.875935 39.985967,38.83174 40.014856,38.808316" slic3r:type="contour"/>
    <polygon style="fill: white" points="40.304539,44.166615 40.445044,44.274536 39.928211,44.728874 40.047888,45.174432 40.138472,45.586252 39.53814,45.580984 39.205188,45.422643 38.696884,44.21004 38.72618,44.18874 38.587772,43.961312 38.670499,43.923684 39.550835,43.580988 39.569296,43.555515 39.573825,43.548609" slic3r:type="contour"/>
    <polygon style="fill: white" points="27.472056,54.987548 28.586924,55.027816 28.685428,55.121875 29.549324,55.154668 30.031868,55.458272 30.452448,55.92116 28.779476,55.903182 28.591672,56.419439 28.54656,56.568256 27.748801,55.917731 27.715791,55.887491 27.035065,55.875564 27.036958,55.880995 27.022386,55.881863 27.003256,55.883044 27.029601,55.859888 26.822283,55.265079 26.707648,54.914764" slic3r:type="contour"/>
    <polygon style="fill: white" points="26.662816,55.79372 26.80761,55.962288 26.405212,56.852147 26.300508,57.125108 25.663553,56.496815 25.434612,56.246864 25.989775,55.122344 26.010472,55.07376" slic3r:type="contour"/>
    <polygon style="fill: white" points="24.503148,56.07662 24.691514,56.334668 24.253266,57.120567 24.089634,57.460924 23.565011,56.829515 23.302104,56.481664 23.873661,55.485788 23.940292,55.355648" slic3r:type="contour"/>
    <polygon style="fill: white" points="16.879784,55.491803 16.760362,55.858882 16.78687,55.883044 16.772448,55.882183 16.753168,55.880995 16.754938,55.875555 16.061995,55.887367 15.358494,56.460035 15.243509,56.568236 15.004663,55.903664 14.514632,55.909384 13.337686,55.921136 13.539164,55.791227 14.240659,55.15466 15.140261,55.088312 15.203224,55.02778 17.082548,54.914772" slic3r:type="contour"/>
    <polygon style="fill: white" points="18.245194,55.988428 18.355514,56.246859 17.686816,56.904307 17.489626,57.125108 17.090761,56.233939 16.982516,55.962288 17.748351,55.110288 17.779652,55.07376" slic3r:type="contour"/>
    <polygon style="fill: white" points="20.328048,56.169684 20.488052,56.481492 19.926306,57.154487 19.700544,57.46094 19.283469,56.706619 19.09862,56.334648 19.767736,55.468323 19.849804,55.355644" slic3r:type="contour"/>
    <polygon style="fill: white" points="22.402285,56.197859 22.59237,56.507227 22.104735,57.221488 21.895064,57.572228 21.440883,56.902507 21.197762,56.507256 21.804187,55.594696 21.895064,55.446476" slic3r:type="contour"/>
  </g></svg>