<svg width="43.790126" height="63.590156" xmlns="http://www.w3.org/2000/svg" xmlns:svg="http://www.w3.org/2000/svg" xmlns:xlink="http://www.w3.org/1999/xlink" xmlns:slic3r="http://slic3r.org/namespaces/slic3r"><g xmlns="http://www.w3.org/2000/svg" slic3r:z="7.265e-006" id="layer21">
    <polygon style="fill: white" points="8.677394,21.850261 9.177252,22.025294 8.967292,22.166657 8.313461,22.867074 7.576162,22.549276 7.126674,22.334128 7.519526,21.993445 8.055123,21.480081" slic3r:type="contour"/>
    <polygon style="fill: white" points="22.167551,0.912549 22.495895,1.360532 22.981948,0.838174 23.195002,0.613531 23.414782,1.00985 23.697134,1.510524 24.242231,1.056662 24.492682,0.858237 24.657738,1.26909 24.882147,1.829272 25.493067,1.444443 25.77256,1.286227 25.885252,1.717776 26.026446,2.302 26.056836,2.290595 26.088195,2.309438 26.73402,2.014875 27.016322,1.910868 27.076975,2.383999 27.12343,2.931502 27.188021,2.970314 27.430922,2.918742 27.460214,2.941949 27.964902,2.790913 28.202191,2.741886 28.20241,3.291666 28.186706,3.517533 28.625835,3.865445 28.837106,3.848338 28.854668,3.866725 29.176856,3.812917 29.340242,3.800148 29.27769,4.309625 29.578679,4.624756 30.092558,5.098227 30.196962,5.100552 30.204358,5.110714 30.363005,5.100806 30.450246,5.102767 30.390048,5.36585 30.570378,5.613619 31.435915,6.659869 31.471625,6.663636 31.473801,6.667557 31.529112,6.668497 31.562426,6.671958 31.531507,6.771544 31.6143,6.920739 32.631217,8.528836 32.680521,8.537582 32.692066,8.538541 32.715992,8.542774 32.688967,8.617454 32.765839,8.811058 33.562487,10.566682 33.656475,10.589738 33.657926,10.59587 33.787616,10.614975 33.88442,10.638946 33.749389,10.982365 34.152568,12.686103 34.376737,12.756707 34.752576,12.84016 35.044388,12.932263 34.864212,13.362383 34.452903,14.049026 35.74275,15.300632 36.121304,15.446717 36.095195,15.502821 36.049032,15.573537 36.209731,15.722021 36.137147,15.984935 35.830337,17.473675 36.413135,17.768031 36.80902,17.967158 36.551907,18.267602 36.210628,18.623723 36.601707,19.350725 36.95496,20.014804 36.809978,20.252534 36.896388,20.327696 36.947472,20.373156 36.632593,20.543396 36.467104,20.814752 36.017203,21.19782 35.965,21.167196 35.919831,21.131285 35.838216,21.214812 35.732105,20.94474 35.087552,20.454898 34.931364,20.283474 35.283138,20.03589 35.157304,19.788741 34.956116,19.562514 35.28156,19.316818 35.597789,18.701668 35.348423,18.583163 34.85006,18.28867 35.176451,17.910376 35.551145,17.555101 34.951244,17.002936 34.389744,16.565974 34.453623,16.410085 34.505604,16.147459 34.225332,16.06234 34.323452,15.903288 34.501641,15.622392 34.493084,15.344891 34.421829,14.091491 34.24775,13.96107 33.481729,13.767888 33.206958,13.71614 33.464151,13.285704 33.43381,13.257075 33.507122,13.103528 33.009017,12.639955 32.118704,11.526467 32.091753,11.523498 32.105061,11.500245 32.080474,11.4708 31.936131,11.244259 31.180686,9.712007 31.122582,9.5628 31.09437,9.520368 30.976114,9.516559 31.000653,9.47105 31.024495,9.415271 29.958825,7.812431 29.926431,7.754554 29.890741,7.755565 29.902719,7.730195 29.731481,7.531157 29.038365,6.308785 28.944844,6.311357 28.874142,6.318589 28.940539,6.13626 28.92729,6.112894 28.932171,6.096058 28.695325,5.777495 28.274954,5.109922 28.071437,5.137642 27.900794,5.17306 28.020211,4.705377 27.9818,4.644378 27.984476,4.62989 27.516932,4.114201 27.212815,4.197794 26.949937,4.286782 27.019144,3.734819 27.034365,3.510894 26.741503,3.272492 26.323366,3.458891 25.997374,3.619117 25.986391,3.129736 25.953646,2.666752 25.819101,2.594893 25.348804,2.897694 25.012026,3.12536 24.927641,2.6679 24.801825,2.077336 24.30803,2.507858 23.996004,2.786705 23.843927,2.348759 23.645932,1.798654 23.225221,2.278399 22.954874,2.591347 22.739102,2.17098 22.4804,1.666547 22.121064,2.192921 21.895064,2.52964 21.624608,2.135207 21.309119,1.66762 21.022948,2.225263 20.835252,2.591334 20.524636,2.238572 20.145057,1.801177 19.937279,2.393418 19.79412,2.786708 19.442594,2.482313 18.990984,2.081715 18.867431,2.722585 18.7781,3.12536 18.376029,2.870093 17.95964,2.592688 17.846575,2.652858 17.824552,3.242812 17.792752,3.619119 17.317477,3.413371 17.012826,3.26791 16.816614,3.425192 16.817038,3.437046 16.770757,3.486935 16.824902,3.993171 16.840188,4.286782 16.257252,4.137033 16.188088,4.11501 15.792076,4.541881 15.808354,4.644355 15.783421,4.6772 15.85735,4.991752 15.889358,5.173059 15.445704,5.122085 15.119484,5.551823 14.845687,6.047578 14.862828,6.112859 14.854227,6.1254 14.89608,6.247693 14.915981,6.318592 14.72211,6.318004 14.562,6.551422 14.058798,7.530942 13.915622,7.68694 13.888531,7.723699 13.899388,7.75556 13.86213,7.759519 13.862101,7.759559 13.855628,7.760117 12.880847,9.191203 12.765928,9.39336 12.814011,9.516557 12.761611,9.526212 12.687652,9.531059 12.681788,9.541375 12.660253,9.544841 11.853706,11.244756 11.68476,11.494409 11.698381,11.52346 11.663374,11.531384 10.430292,12.830805 10.253619,13.018384 10.356319,13.257066 10.335461,13.2746 10.482271,13.525577 10.583168,13.716142 10.04797,13.869866 9.493938,13.982023 9.369311,14.08679 9.296549,15.646757 9.564791,16.062342 9.439696,16.106047 9.303707,16.14813 9.400377,16.565987 8.984263,16.940519 8.233651,17.575972 8.662454,18.057824 8.940053,18.288668 8.646316,18.411252 8.27808,18.619632 8.834014,19.562484 8.526972,20.103117 8.709814,20.227142 8.858768,20.283462 8.394469,20.587198 8.115407,20.869386 7.951931,21.214768 7.866763,21.127634 7.772892,21.19782 7.711661,21.144897 7.323006,20.814738 7.150299,20.541076 6.9042,20.407166 6.842652,20.37313 6.973107,20.260309 6.913091,20.16521 6.835163,20.01478 7.273628,19.221269 7.590555,18.616815 7.319149,18.312106 6.981109,17.967158 7.376054,17.767532 7.9337,17.486641 7.714234,16.783346 7.580397,15.722021 7.660222,15.641872 7.749683,15.560986 7.668827,15.446719 7.742646,15.423368 7.990171,15.3345 8.521429,14.772291 9.322579,14.059273 9.321009,14.022994 8.921964,13.196327 8.745738,12.932252 9.282481,12.821398 9.391092,12.79158 9.395369,12.762379 9.559242,12.718858 9.707967,11.898667 10.03442,10.894793 9.958279,10.724407 9.90568,10.638971 10.126719,10.610964 10.133615,10.589759 10.195013,10.577485 10.318062,10.245604 11.101372,8.602904 11.085622,8.563934 11.074136,8.542774 11.131687,8.53933 11.134637,8.533143 11.151172,8.53085 11.20293,8.436226 12.260094,6.75644 12.24125,6.701666 12.227702,6.671957 12.312838,6.672631 12.318497,6.663639 12.342928,6.661857 12.438414,6.531084 13.406949,5.331191 13.368106,5.181173 13.339886,5.102737 13.574347,5.123805 13.593133,5.100532 13.665514,5.100999 13.968613,4.787114 14.53122,4.250587 14.486029,3.950337 14.449886,3.800144 14.908044,3.89123 14.953023,3.848335 15.103294,3.864566 15.621374,3.459421 15.609826,2.969609 15.587925,2.741886 16.075978,2.905544 16.302845,2.959578 16.35922,2.918713 16.572653,2.969566 16.673757,2.90941 16.753575,2.200841 16.773824,1.910849 17.181872,2.111647 17.690898,2.314079 17.733295,2.290615 17.765049,2.303302 17.944432,1.597019 18.017566,1.286226 18.383553,1.526101 18.90639,1.833309 19.177438,1.158072 19.297446,0.858235 19.635317,1.144828 20.091194,1.512231 20.440427,0.886378 20.595124,0.613528 20.90489,0.948761 21.293291,1.360947 21.714791,0.782102 21.895064,0.536958" slic3r:type="contour"/>
    <polygon style="fill: white" points="36.325995,22.006215 36.663452,22.334113 36.185159,22.530964 35.476692,22.867084 35.054311,22.544356 34.612848,22.025294 34.949352,21.819073 35.734984,21.480082" slic3r:type="contour"/>
    <polygon style="fill: white" points="35.836827,23.308644 36.417599,23.733424 36.078928,23.921613 35.458798,24.308969 35.958244,24.458694 36.540372,24.70895 36.193728,25.083796 35.777838,25.497367 36.716232,25.727866 36.936492,25.796434 36.618347,26.263779 36.840851,26.352729 37.177324,26.434596 37.082856,26.816838 37.058148,27.017298 37.45208,27.194046 37.307664,27.376295 36.971763,27.718152 36.960228,27.811736 36.847885,27.966719 36.796876,28.36851 37.651264,28.872378 37.89396,28.998424 37.462028,29.406531 37.102475,29.727847 37.590792,30.068116 38.085728,30.665678 38.04988,31.009761 38.035542,31.129847 38.037923,31.131604 38.036993,31.162685 38.166356,31.2494 38.103671,31.276612 38.032041,31.327966 37.984504,32.914717 37.947867,33.376263 37.976336,33.400626 37.973747,33.500117 38.28706,33.732496 38.130196,33.775332 37.963847,33.880609 37.92862,35.234492 37.877811,35.859774 37.923164,35.903816 37.915354,36.009232 38.224583,36.265932 38.065031,36.296864 37.886737,36.395475 37.781983,37.809324 37.705103,38.409573 37.752044,38.462012 37.737912,38.542075 37.991804,38.787568 37.852411,38.80726 37.67678,38.888421 37.438155,40.240352 37.30795,40.803283 37.353184,40.863359 37.331639,40.936311 37.5756,41.217828 37.425571,41.230524 37.223644,41.301968 36.895136,42.414275 36.689189,43.002388 36.736452,43.08042 36.703818,43.155054 36.958944,43.520204 36.776331,43.519152 36.518628,43.57858 36.176139,44.361844 35.867495,44.987746 35.914456,45.090884 35.867814,45.166323 36.126524,45.654352 35.899031,45.62562 35.565505,45.655279 35.289987,46.100904 34.854578,46.745069 34.893544,46.87452 34.834823,46.942455 35.061992,47.575808 34.789483,47.499803 34.38043,47.468159 34.23508,47.636319 33.652648,48.263728 33.673652,48.398884 33.607743,48.455552 33.76196,49.216599 33.458329,49.080691 33.015358,48.965107 32.286737,49.55198 32.290114,49.681248 32.225254,49.723557 32.227671,49.812855 32.279392,50.575304 31.963882,50.378512 31.518413,50.180185 30.78509,50.628521 30.77472,50.744172 30.712849,50.775145 30.699308,50.932311 30.662226,51.666292 30.355645,51.417212 29.942318,51.155873 29.177302,51.513191 29.158442,51.61012 29.098878,51.633058 29.071987,51.774172 28.9578,52.505816 28.680343,52.223523 28.323136,51.929295 27.489137,52.227249 27.465772,52.307304 27.416305,52.320908 27.212238,53.111276 26.980466,52.824192 26.684719,52.522112 26.606836,52.543531 25.740359,52.762746 25.71734,52.822656 25.689552,52.827284 25.444488,53.509216 25.25765,53.236576 25.017827,52.93915 24.741238,52.985211 23.961345,53.103572 23.941512,53.145611 23.936224,53.14591 23.668634,53.727324 23.516619,53.473119 23.320209,53.180776 22.901541,53.204472 22.204409,53.240214 21.895064,53.79194 21.761765,53.542507 21.590227,53.237207 21.156551,53.212556 20.488545,53.178365 20.121492,53.727323 19.989881,53.450515 19.84978,53.145671 19.848613,53.145611 19.82315,53.092685 19.509188,53.039908 18.806921,52.933687 18.345638,53.5092 18.214408,53.18322 18.086235,52.82468 18.072796,52.822647 18.040524,52.743281 17.920784,52.710036 17.152598,52.51625 17.105282,52.569623 16.57792,53.111272 16.456545,52.729999 16.35023,52.313842 16.324376,52.30732 16.290595,52.202231 15.515235,51.925479 15.34536,52.081908 14.832315,52.50582 14.737166,52.081875 14.667002,51.622715 14.631735,51.610128 14.60393,51.487493 13.89815,51.157238 13.657462,51.331616 13.127901,51.666292 13.075317,51.231151 13.053169,50.761847 13.015413,50.74418 12.997951,50.600516 12.328971,50.18997 12.081118,50.323411 11.510735,50.575304 11.505916,50.156023 11.538093,49.704617 11.500013,49.681248 11.498714,49.51847 10.845148,48.989102 10.651006,49.059059 10.028167,49.216631 10.068606,48.836096 10.152633,48.428186 10.116477,48.3989 10.137165,48.221266 9.488283,47.516857 9.400252,47.533315 8.728136,47.575808 8.804374,47.252087 8.928329,46.908985 8.896581,46.87452 8.940651,46.701472 8.772323,46.432312 8.299159,45.724423 7.663626,45.654363 7.75831,45.396064 7.900468,45.12795 7.875692,45.090884 7.933272,44.946304 7.655621,44.320511 7.330095,43.649861 6.831186,43.520176 6.92909,43.319103 7.07059,43.115226 7.053676,43.080379 7.115331,42.965459 6.820053,41.980932 6.611878,41.373694 6.214539,41.217844 6.311306,41.054832 6.447804,40.895093 6.436937,40.863396 6.499554,40.769711 6.281556,39.545248 6.151949,38.968743 5.798301,38.78758 5.902227,38.634951 6.045155,38.493712 6.038039,38.462059 6.106301,38.375556 6.015958,37.113856 5.940018,36.49705 5.565544,36.265928 5.697272,36.091132 5.871672,35.941914 5.86698,35.903807 5.936894,35.825744 5.903672,34.616023 5.856874,33.983206 5.50306,33.732496 5.642002,33.567707 5.816306,33.434637 5.813792,33.400626 5.858652,33.35638 5.790665,31.691989 5.76811,31.363385 5.623773,31.249406 5.682708,31.19035 5.752942,31.142408 5.7522,31.131603 5.755877,31.128529 5.7044,30.665676 6.030618,30.431944 6.727652,29.761985 6.054017,29.137255 5.896164,28.998424 6.371204,28.694587 6.987981,28.368174 6.928706,27.944228 6.829856,27.811664 6.802546,27.638407 6.338069,27.194022 6.518751,27.121767 6.707789,27.037248 6.6128,26.434618 7.161544,26.214803 6.963239,25.93296 6.853632,25.796438 7.502581,25.661753 8.024044,25.501102 7.613288,25.066734 7.249764,24.708934 7.662846,24.614767 8.344171,24.324447 7.961872,24.103765 7.372522,23.733424 7.69111,23.570314 8.465863,23.012476 8.861191,23.259715 9.502487,23.669146 9.390892,23.731642 8.596277,24.341194 8.866504,24.563704 9.345131,25.126356 9.103231,25.241675 8.246015,25.595546 8.610945,26.001902 8.871312,26.4073 8.216036,26.659636 7.993661,26.718889 8.043712,27.131332 8.071599,27.228613 8.164185,27.34142 8.169552,27.387326 8.3277,27.566864 8.387341,27.650402 8.208665,27.721869 8.223324,27.847252 8.274224,28.076432 7.847821,28.207162 7.316745,28.580763 7.553219,28.791598 7.988732,29.169744 7.591758,29.389696 6.985944,29.698145 7.13604,30.725519 7.466951,30.975486 7.742968,31.156748 7.215955,31.484444 7.219492,31.522582 7.119149,31.595954 7.239778,32.601236 7.256219,33.207763 7.435927,33.326819 7.638575,33.436098 7.269186,33.686125 7.27108,33.755968 7.189615,33.823882 7.296171,34.717536 7.319087,35.655891 7.481111,35.748748 7.680035,35.837424 7.32992,36.099526 7.332133,36.190104 7.262563,36.255317 7.410515,37.184224 7.46918,38.052291 7.655185,38.139312 7.881271,38.21896 7.502438,38.544426 7.509887,38.654644 7.460794,38.707278 7.696702,39.629504 7.807607,40.321119 8.018511,40.394775 8.258272,40.45156 7.89009,40.835493 7.907163,40.94196 7.875157,40.982755 8.18787,41.83108 8.349139,42.434175 8.569081,42.482036 8.811395,42.507796 8.483205,42.935531 8.509722,43.034696 8.492585,43.061716 8.866755,43.800743 9.084449,44.350759 9.301154,44.365464 9.539064,44.355608 9.269198,44.81754 9.304348,44.906347 9.298408,44.918648 9.725526,45.542424 10.001514,46.033784 10.20842,46.011712 10.438481,45.963184 10.238579,46.455846 10.27687,46.524017 10.762683,47.044167 11.093093,47.457918 11.297577,47.39812 11.517024,47.311472 11.39216,47.83242 11.423874,47.872134 11.972495,48.313084 12.343557,48.653648 12.545801,48.556844 12.754513,48.434592 12.701389,48.982069 12.728039,49.006529 13.342147,49.382032 13.718035,49.64133 13.920467,49.506304 14.122378,49.347884 14.138289,49.931232 14.166879,49.950954 14.862447,50.276072 15.178092,50.441904 15.386116,50.263552 15.588077,50.063752 15.675452,50.703206 15.719447,50.726319 16.527431,51.014588 16.684733,51.077585 16.90325,50.845611 17.114906,50.594776 17.28486,51.320844 18.231101,51.55924 18.462679,51.260268 18.684026,50.954752 18.948358,51.753553 19.819227,51.884693 20.057417,51.513196 20.281472,51.159247 20.576851,51.847823 20.644743,51.996439 21.453136,52.037379 21.68021,51.607807 21.895064,51.222628 22.230354,51.855975 22.331277,52.041189 23.128437,52.000898 23.322019,51.548048 23.508654,51.159248 23.913122,51.79032 23.980149,51.895604 24.812206,51.770847 24.95855,51.325684 25.1061,50.954756 25.586247,51.575802 26.43292,51.363314 26.438701,51.34462 26.478011,51.330611 26.569602,50.934631 26.675221,50.594808 27.143679,51.093378 27.924736,50.815023 28.049223,50.764437 28.05568,50.7342 28.08889,50.718623 28.135385,50.370516 28.202076,50.06374 28.655152,50.453019 29.365466,50.119847 29.594108,49.998673 29.597386,49.968796 29.627321,49.950354 29.635,49.633392 29.667748,49.347884 30.117971,49.648099 30.780835,49.239752 31.037327,49.062093 31.037174,49.029396 31.065471,49.006383 31.035813,48.708563 31.035608,48.434592 31.497785,48.654799 32.128591,48.141788 32.355138,47.933684 32.34976,47.89278 32.376632,47.8635 32.308018,47.578956 32.273098,47.311455 32.755699,47.450458 33.357757,46.79444 33.524016,46.58653 33.509024,46.531556 33.533441,46.494958 33.423626,46.223867 33.351648,45.963184 33.854851,46.013194 34.414164,45.174839 34.519723,44.987687 34.485804,44.906383 34.507102,44.86284 34.358587,44.606767 34.251064,44.355632 34.775342,44.314463 35.275251,43.292468 35.337258,43.136649 35.280408,43.034716 35.29813,42.984493 35.11748,42.746195 34.978732,42.50782 35.509635,42.385098 35.927012,41.202267 35.965087,41.060153 35.882976,40.942008 35.896567,40.885819 35.694824,40.672052 35.531856,40.451616 36.047092,40.263503 36.356263,38.985296 36.387858,38.784873 36.280212,38.654616 36.289224,38.593628 36.08438,38.41418 35.908856,38.21896 36.378282,37.990944 36.565148,36.72636 36.589278,36.327607 36.458004,36.190104 36.463436,36.137541 36.280571,35.998299 36.110092,35.837432 36.519573,35.594355 36.652404,34.309076 36.663615,33.887891 36.519048,33.755968 36.523177,33.713552 36.337807,33.586739 36.151551,33.436098 36.578601,33.144215 36.724937,31.64098 36.570648,31.522598 36.573906,31.497433 36.316967,31.337303 36.04716,31.156762 36.51262,30.796877 36.679551,30.681472 36.807868,29.690394 36.260648,29.386454 35.801392,29.169764 36.027075,28.96753 36.43063,28.613964 35.976036,28.385334 35.515876,28.076398 35.571587,27.704189 35.482864,27.668778 35.402768,27.650408 35.613712,27.422757 35.62588,27.341463 35.652955,27.310048 35.766778,26.659516 35.307024,26.482258 34.918812,26.407316 35.219943,26.096632 35.56628,25.600332 35.082351,25.371813 34.444996,25.126356 34.605004,25.003306 35.199343,24.360833 34.925075,24.197147 34.287628,23.669118 34.411083,23.592118 35.324192,23.012474" slic3r:type="contour"/>
  </g></svg>