<svg width="43.790126" height="63.590156" xmlns="http://www.w3.org/2000/svg" xmlns:svg="http://www.w3.org/2000/svg" xmlns:xlink="http://www.w3.org/1999/xlink" xmlns:slic3r="http://slic3r.org/namespaces/slic3r"><g xmlns="http://www.w3.org/2000/svg" slic3r:z="6.275e-006" id="layer18">
    <polygon style="fill: white" points="36.323072,20.189282 36.750144,20.569358 36.417072,20.749435 35.934375,21.015732 35.964746,22.032159 36.043736,22.123862 36.041756,22.159507 36.338995,22.448325 36.222512,22.496267 36.017649,22.593462 35.968355,23.480776 35.957135,23.708205 36.033263,23.763885 36.008843,23.777456 35.952468,23.81267 35.912416,24.351029 35.907235,24.566232 36.132644,24.663136 36.06596,24.735245 35.899172,24.901104 35.899064,24.905596 35.874888,24.929841 35.868948,25.090081 35.88245,25.470204 36.524692,25.670132 36.348823,25.928474 35.918317,26.479992 35.922707,26.603568 36.689315,26.859977 37.05776,26.985466 36.70798,27.467999 36.389931,27.862486 36.833523,28.137047 37.477712,28.560684 37.461383,28.660588 37.510104,28.685892 37.491492,28.703477 37.451794,28.738953 37.359799,30.002412 37.321341,30.502649 37.3236,30.504131 37.32135,30.584309 37.79882,30.871754 37.610416,30.995497 37.303025,31.237366 37.291647,31.64282 37.231488,32.672097 37.284504,32.713196 37.280151,32.828142 37.462523,32.984213 37.918424,33.29282 37.646827,33.426976 37.246017,33.70687 37.145491,35.068573 37.238832,35.152179 37.227541,35.274383 37.458115,35.498291 37.878236,35.822888 37.578639,35.938004 37.135501,36.206909 36.96668,37.518874 37.079348,37.637248 37.056793,37.751629 37.250311,37.967819 37.66454,38.348168 37.353032,38.438264 36.863747,38.683022 36.599103,39.808875 36.709232,39.949168 36.674937,40.057148 36.880284,40.329876 37.256059,40.749336 36.910063,40.816184 36.349488,41.027713 36.03758,41.900393 36.143452,42.070636 36.096854,42.171774 36.33398,42.563271 36.645719,43.00052 36.25218,43.030116 35.600501,43.189505 35.300776,43.78465 35.395028,43.988716 35.337091,44.078989 35.593767,44.642711 35.824384,45.073036 35.379556,45.044288 34.633083,45.116787 34.398608,45.457225 34.469284,45.69036 34.404752,45.76328 34.636716,46.533904 34.78024,46.931436 34.293515,46.819299 33.54008,46.765768 33.518592,46.712721 33.249399,46.999123 33.341034,47.031552 33.359584,47.151047 33.292375,47.207823 33.441061,48.164623 33.512524,48.517248 33.005777,48.309336 32.2901,48.126912 32.266271,48.028095 31.970208,48.264145 32.043417,48.299295 32.08608,48.322444 32.08768,48.387816 32.020309,48.431148 32.048713,49.518247 32.069218,49.830112 31.566827,49.530519 30.893764,49.234228 30.882417,49.120283 30.635954,49.269552 30.828267,48.529789 30.827654,47.715704 30.835484,47.719436 31.013961,47.815481 31.016377,47.806187 31.828186,48.195958 32.114799,47.323357 32.026186,46.644543 32.048985,46.651111 32.306002,46.741235 32.310752,46.726772 32.875192,46.891005 33.195515,45.794389 33.07447,45.356004 33.103617,45.3589 33.312505,45.393874 33.316629,45.379755 33.780822,45.427391 34.070693,44.08317 33.955936,43.81514 33.983675,43.81296 34.129041,43.81259 34.131663,43.800432 34.342685,43.784617 34.655028,42.972643 34.769907,42.199409 34.674236,42.03504 34.697755,42.029604 34.797348,42.014707 34.798876,42.00442 34.896061,41.982002 35.26862,40.636239 35.312666,40.16104 35.223528,40.040468 35.245787,40.03234 35.326688,40.009742 35.327643,39.99944 35.389334,39.976596 35.693844,38.453468 35.714762,37.985825 35.598688,37.856723 35.628083,37.842448 35.722851,37.805011 35.723528,37.789867 35.785601,37.758842 35.981976,36.295507 35.982397,35.679568 35.796204,35.503872 35.843524,35.475784 35.982583,35.407323 35.982604,35.378792 36.045697,35.339752 36.007436,33.703168 35.957666,33.225853 35.827804,33.120824 35.857551,33.100492 35.939602,33.052611 35.937648,33.033868 35.952464,33.023223 35.790452,32.430008 35.846054,30.95647 35.807525,30.930688 35.763935,30.905089 35.713083,30.87406 35.840094,30.770344 35.907844,30.004441 35.978011,29.199242 35.68444,29.054242 35.468552,28.966666 35.931604,28.523643 36.046882,28.408903 36.050808,28.36385 36.058453,28.357151 36.12835,27.887079 35.535427,27.650432 35.056796,27.540662 35.257487,27.324074 35.719955,26.713101 35.090616,26.49239 34.747467,26.394119 34.66646,26.357594 34.526544,26.330584 34.550874,26.305477 34.509948,26.287023 34.525928,25.291665 34.211208,25.153 34.030411,25.082604 34.536798,24.614569 34.538768,24.49184 34.590208,24.436234 34.596841,24.18291 34.083771,23.797389 33.883692,23.618382 34.526876,23.252527 34.617478,23.203859 34.613183,22.728869 34.602026,22.348768 34.371351,22.104265 34.300448,22.002342 34.575748,21.890574 34.563092,21.700141 34.49684,21.387642 34.910972,21.216568 35.251633,20.861222 34.754036,20.31508 34.992572,20.147194 35.811936,19.744678" slic3r:type="contour"/>
    <polygon style="fill: white" points="35.861151,15.631038 36.344087,15.811282 36.200704,16.044333 35.931862,16.392751 36.697868,17.386851 36.528214,18.095587 36.72498,18.228654 36.848192,18.31111 36.386876,18.68603 36.336992,18.894422 36.04648,19.19757 35.947174,19.150376 35.835104,19.347818 35.635325,18.955432 35.020391,18.588996 34.867428,18.467882 35.132151,18.227389 34.964807,17.993201 34.764264,17.816874 35.006764,17.361998 35.157648,16.614543 34.943127,16.541085 34.41796,16.348048 34.686392,15.976372 35.092706,15.463741 35.163348,15.374616" slic3r:type="contour"/>
    <polygon style="fill: white" points="22.073412,0.830383 22.304958,0.84784 22.987507,0.898012 23.14557,0.729545 23.206219,0.664033 23.371226,0.953066 23.62701,1.00838 24.2354,1.137498 24.438699,0.969792 24.517982,0.905115 24.662022,1.252491 24.93048,1.347028 25.483701,1.534577 25.721555,1.386949 25.814088,1.332887 25.911475,1.695307 26.14874,1.810492 26.769515,2.091712 26.80249,2.079563 26.990558,1.995968 27.073694,1.964392 27.110593,2.24874 27.268618,2.34626 28.147639,2.840039 28.179103,2.833538 28.239323,2.816218 28.271944,2.809221 28.271541,2.910887 28.327481,2.956376 28.788052,3.291593 29.22744,3.822777 29.288916,3.890894 29.428264,3.880004 29.423086,3.922187 29.403349,4.017689 29.406832,4.021548 29.401743,4.060594 29.995944,4.939906 30.186351,5.192736 30.567148,5.201294 30.541293,5.314288 30.462543,5.559476 30.472892,5.573217 30.45178,5.661988 30.819029,6.245929 31.17455,6.752308 31.719016,6.808877 31.671462,6.962038 31.542006,7.275686 31.557116,7.297207 31.522964,7.403817 31.85083,7.904647 32.387897,8.653413 32.928468,8.749061 32.877995,8.888534 32.74776,9.155125 32.76414,9.177962 32.731482,9.264661 33.637664,10.474475 33.976518,10.900462 34.15018,10.943462 34.134907,10.982294 34.096782,11.051648 34.102032,11.058247 34.095363,11.073868 34.358536,11.363802 34.843376,13.186392 35.169568,13.264716 35.336592,13.312623 35.062496,13.869458 35.003795,13.960597 35.088212,15.387748 34.261103,14.672025 33.665143,14.117247 33.52365,14.082884 33.472284,14.071921 33.526258,13.987958 33.523458,13.985351 33.538308,13.958379 33.433854,13.860086 33.263613,13.656941 32.906198,12.42629 32.787925,11.942088 32.740848,11.843105 32.342962,11.799236 32.442968,11.624489 32.541976,11.424968 32.21374,10.734839 31.854253,9.84408 31.84422,9.842965 31.779339,9.741307 31.181526,9.714524 31.308134,9.472901 31.431117,9.195705 31.260637,8.928594 30.732761,7.984385 30.643461,7.874915 30.04416,7.887532 30.147586,7.65954 30.249611,7.392105 30.057083,7.15609 29.521525,6.421711 29.458908,6.362855 28.98756,6.411073 29.051434,6.235672 29.111175,6.035999 28.643166,5.596091 28.27936,5.214847 28.24659,5.191682 27.984168,5.24615 28.009292,5.147754 28.030384,5.038842 27.112502,4.389979 27.050152,4.340291 27.01125,4.35346 27.015137,4.32246 26.80367,4.210217 26.163035,3.620512 26.101314,3.648506 26.04711,3.674321 26.043962,3.517378 25.840642,3.412061 25.23305,3.052975 25.131214,3.119652 25.051052,3.173394 25.007213,2.934755 24.705159,2.839946 24.210337,2.66675 24.100676,2.76382 24.023004,2.833403 23.938166,2.589352 23.624372,2.539179 23.129536,2.453695 23.032581,2.565552 22.96877,2.639676 22.856971,2.42193 22.559756,2.409144 22.026805,2.385244 21.946148,2.50385 21.895064,2.57951 21.762328,2.384769 21.462964,2.397657 20.934235,2.421317 20.866206,2.553408 20.821351,2.639674 20.65703,2.450529 20.330524,2.502858 19.85632,2.5846 19.802958,2.735945 19.767122,2.833402 19.569643,2.65931 19.239263,2.763239 18.790052,2.921322 18.759742,3.078705 18.73908,3.173391 18.539081,3.043512 18.27091,3.182104 17.782503,3.479884 17.751037,3.504726 17.747358,3.613203 17.743014,3.674319 17.610841,3.615407 17.476428,3.721522 16.986405,4.210252 16.810456,4.297122 16.777016,4.31773 16.778876,4.35346 16.763312,4.349461 16.738396,4.341527 16.734209,4.344108 16.728919,4.342692 15.975051,4.837574 15.764009,5.008501 15.805963,5.24615 15.696846,5.233613 15.525269,5.201861 15.498715,5.223367 15.465532,5.219187 15.068323,5.57318 14.682254,5.982438 14.802567,6.411074 14.603644,6.410471 14.301092,6.386495 14.262154,6.427772 14.208871,6.42693 14.088092,6.570624 13.541893,7.321023 13.745973,7.88753 13.485975,7.909931 13.112663,7.910723 13.073016,7.965191 13.00778,7.969751 12.354647,9.12198 12.393012,9.199169 12.608599,9.714544 12.338156,9.758077 11.980442,9.782136 11.945935,9.843013 11.888317,9.851051 11.800952,10.041346 11.244658,11.367352 11.447154,11.799262 11.262425,11.841074 11.03347,11.870749 11.013166,11.919144 10.992095,11.923372 10.526541,13.656884 10.246345,13.946972 10.280967,14.012364 10.296615,14.03699 10.317841,14.071921 10.110098,14.125667 8.662507,15.42303 9.128127,16.054539 9.372169,16.34805 9.045847,16.455406 8.703479,16.579412 9.025864,17.816874 8.667315,18.2776 8.811914,18.402896 8.922697,18.467882 8.42114,18.724311 8.303411,18.811745 7.955008,19.34782 7.829527,19.148989 7.74368,19.197568 7.678329,19.1242 7.453155,18.894424 7.388147,18.661378 7.058397,18.398679 6.941934,18.311114 7.235025,18.11245 7.167022,17.868668 7.09226,17.386851 7.51944,16.79383 7.870109,16.350074 7.782384,16.218545 7.446038,15.811283 7.744906,15.701738 8.626824,15.374634 8.63282,15.382766 8.701653,15.359816 8.692513,14.260546 8.751539,13.818526 8.553916,13.454279 8.453527,13.312623 8.903021,13.208225 9.001234,12.730454 9.431532,11.363926 9.605074,11.15128 9.69112,11.06464 9.688119,11.058279 9.700196,11.041306 9.639954,10.943454 9.685681,10.937661 9.788959,10.916547 10.677605,9.667533 11.045725,9.225704 11.026029,9.178001 11.063342,9.120597 10.861658,8.749061 11.016115,8.739818 11.339962,8.695026 11.800618,7.986324 12.255481,7.361589 12.232988,7.297127 12.268496,7.241694 12.071107,6.808859 12.230747,6.810121 12.55973,6.787053 12.984103,6.124568 13.331823,5.628354 13.317242,5.573209 13.343305,5.535734 13.222978,5.201289 13.333985,5.211264 13.567521,5.213344 14.251544,4.229818 14.38737,4.047689 14.383294,4.021547 14.393129,4.009945 14.361861,3.880004 14.401062,3.887797 14.488547,3.897381 15.002057,3.291593 15.523214,2.901315 15.521528,2.840231 15.518153,2.809222 15.608429,2.8375 15.613131,2.833979 15.634591,2.839091 15.735784,2.777058 16.691394,2.229335 16.711578,2.04947 16.716433,1.964392 16.957178,2.076998 16.966372,2.071728 17.007489,2.08808 17.242396,1.974178 17.889817,1.679015 17.952518,1.436287 17.976046,1.332887 18.293413,1.533819 18.566507,1.437573 19.134145,1.24529 19.234178,1.001131 19.272144,0.90511 19.551655,1.136526 19.806115,1.081464 20.421269,0.951076 20.539634,0.74287 20.583902,0.664033 20.803678,0.897261 21.034115,0.879885 21.719264,0.829573 21.847098,0.65621 21.895064,0.589965" slic3r:type="contour"/>
    <polygon style="fill: white" points="8.545602,20.129576 9.036097,20.315034 8.890684,20.410161 8.573739,20.730657 9.293263,21.387592 9.233458,21.91743 9.388107,21.97832 9.489656,22.002342 9.195794,22.29315 9.183647,23.219423 9.683922,23.501763 9.906436,23.618414 9.362336,24.016966 9.192979,24.160858 9.200092,24.43157 9.25136,24.49184 9.251291,24.5756 9.625518,24.93168 9.759718,25.082604 9.250689,25.308538 9.250527,25.504127 9.280178,26.286994 9.243033,26.298558 9.263582,26.330554 9.252387,26.334866 9.059468,26.386269 9.04267,26.394099 8.15293,26.652183 8.070401,26.693469 8.376975,27.041507 8.733325,27.540642 8.298651,27.714504 7.658558,27.906239 7.70898,28.337518 7.739297,28.363842 7.742459,28.399033 8.132949,28.776183 8.321572,28.966638 7.816049,29.21811 7.87086,29.828185 7.951077,30.775028 8.027704,30.836774 8.077043,30.874034 7.965018,30.939578 7.965246,30.942275 7.95218,30.95076 7.969311,31.159925 7.999673,32.429996 7.897439,32.874825 7.852735,33.011931 7.852177,33.061429 7.96232,33.120824 7.9272,33.144595 7.850582,33.202527 7.830233,35.002999 7.781023,35.3629 7.807496,35.378764 7.812517,35.422978 7.993923,35.503844 7.944474,35.54086 7.836538,35.634488 8.049989,37.513967 8.041916,37.77797 8.066587,37.789872 8.071155,37.814354 8.191432,37.856724 8.164061,37.880243 8.096268,37.948911 8.444379,39.814176 8.442261,39.992229 8.462589,39.99944 8.467418,40.016928 8.566609,40.04042 8.548308,40.059504 8.496662,40.122844 8.966245,41.8236 8.965353,41.998798 8.991251,42.004419 8.99846,42.022553 9.11589,42.03504 9.099237,42.056744 9.045161,42.140022 9.621851,43.590592 9.617854,43.797825 9.658465,43.800424 9.670791,43.821909 9.834191,43.81514 9.818082,43.842708 9.755869,43.970208 10.425329,45.137139 10.406255,45.387174 10.473496,45.379752 10.493466,45.402874 10.715658,45.356004 10.702962,45.387288 10.641519,45.574297 11.422356,46.478388 11.349015,46.76533 11.479709,46.726672 11.506392,46.746248 11.763948,46.644552 11.757617,46.670968 11.716967,46.900726 12.746906,47.656296 12.630696,47.785862 12.67998,47.851416 12.774871,47.805624 12.7977,47.812199 12.962454,47.715692 12.961516,47.725364 12.955804,47.857737 13.351366,47.971668 14.269578,48.602268 14.287822,48.587847 14.288745,48.615541 14.321458,48.630787 15.655354,49.328855 15.684766,49.303684 15.712959,49.275839 15.725574,49.366303 15.839523,49.407007 17.099799,49.911784 17.153967,49.854788 17.205396,49.794484 17.246585,49.970953 17.481428,50.0306 18.594686,50.347995 18.671581,50.250004 18.743572,50.152116 18.82897,50.412261 19.185798,50.466924 20.136375,50.630714 20.227359,50.490496 20.311496,50.359268 20.446378,50.675205 20.88084,50.697876 21.720028,50.746981 21.811033,50.575508 21.895064,50.425264 22.067354,50.749482 22.502558,50.726815 23.33568,50.677829 23.409707,50.503916 23.478624,50.359268 23.658494,50.636539 24.031004,50.579679 24.951379,50.419198 24.99961,50.271423 25.046554,50.152119 25.204606,50.353841 25.484821,50.282908 26.526896,49.981353 26.528346,49.976688 26.536965,49.973612 26.55943,49.876351 26.584731,49.794512 26.699558,49.915593 26.880776,49.850927 28.056078,49.373552 28.056928,49.369644 28.061053,49.367716 28.067781,49.318516 28.077194,49.275848 28.140848,49.33042 28.23378,49.286983 29.498559,48.618458 29.502302,48.587848 29.523493,48.602042 29.552258,48.584395 30.436958,47.972852 29.761943,48.761764 30.61876,49.335687 30.656561,49.361007 30.681898,49.379624 30.678242,49.419771 30.612704,49.452264 30.510424,50.592887 30.494832,50.884732 30.019783,50.508363 29.386642,50.111052 29.388872,50.01898 29.101973,50.151993 29.16883,50.213892 29.15875,50.266004 29.096403,50.289977 28.881552,51.394151 28.83341,51.698884 28.405039,51.270547 27.779225,50.759812 27.587533,50.828188 27.54974,50.959588 27.499092,50.973628 27.218134,51.936255 27.125934,52.29324 26.757829,51.845003 26.218564,51.301797 25.9134,51.379519 25.873806,51.484252 25.841759,51.489685 25.541913,52.270068 25.391202,52.690224 25.078585,52.242427 24.618641,51.681673 24.197102,51.74673 24.159775,51.826732 24.15076,51.827258 23.859228,52.445211 23.643786,52.912424 23.374036,52.469936 22.978465,51.890913 22.490722,51.916678 22.165369,52.50362 21.895064,52.98036 21.651137,52.531243 21.301109,51.91486 20.819928,51.889484 20.435867,52.487 20.146342,52.912424 19.913006,52.427424 19.636598,51.827078 19.630336,51.826748 19.589977,51.741789 19.181631,51.678954 18.676495,52.350164 18.398926,52.690204 18.179169,52.149751 17.943112,51.488374 17.916322,51.484252 17.87251,51.374206 17.577921,51.29937 16.910815,52.043764 16.66422,52.293236 16.471022,51.692216 16.286577,50.971322 16.240389,50.959588 16.221292,50.898772 16.2027,50.825911 16.010915,50.757565 15.173845,51.521291 14.956689,51.698892 14.809662,51.050431 14.691169,50.287257 14.631386,50.265952 14.625032,50.237272 14.6213,50.213804 14.692003,50.153295 14.396396,50.01606 14.403539,50.111004 13.510263,50.749992 13.295297,50.884728 13.214615,50.220988 13.175351,49.449188 13.111913,49.419736 13.109317,49.397732 13.108257,49.379588 13.216259,49.307199 12.901506,49.116027 12.896408,49.234176 11.960217,49.725635 11.72091,49.830112 11.715721,49.179407 11.766964,48.426935 11.702485,48.387772 11.702356,48.351855 11.704087,48.322364 11.822344,48.265295 11.518569,48.02209 11.500022,48.12692 10.560876,48.447159 10.27761,48.517272 10.348789,47.906111 10.49292,47.200948 10.430577,47.151036 10.438781,47.084875 10.449129,47.031508 10.547229,47.002491 10.269798,46.705656 10.250048,46.765768 9.346338,46.911632 9.009884,46.93144 9.149483,46.383283 9.377865,45.751342 9.320844,45.690332 9.34928,45.583847 9.395249,45.452261 9.16844,45.120348 8.354981,45.11762 7.96575,45.073036 8.15344,44.601755 8.442946,44.058661 8.395117,43.988668 8.457782,43.83906 8.493584,43.770147 8.2134,43.207897 7.571458,43.114755 7.144407,43.000504 7.357732,42.602879 7.682302,42.14213 7.646675,42.070636 7.759341,41.873533 7.473582,41.062994 6.977763,40.929752 6.53407,40.749348 6.760068,40.411219 7.105275,40.01832 7.080905,39.9492 7.205115,39.778191 6.964012,38.734084 6.560666,38.582196 6.125574,38.348192 6.362023,38.048556 6.726237,37.704385 6.71074,37.637276 6.844058,37.486036 6.69075,36.264023 6.310292,36.082651 5.91189,35.822904 6.166483,35.538636 6.560012,35.221918 6.551266,35.1522 6.66711,35.039569 6.57879,33.766904 6.262568,33.584099 5.871707,33.292798 6.122703,33.04525 6.509689,32.771168 6.505666,32.713192 6.579236,32.651328 6.507656,31.288574 6.449564,31.247466 5.991316,30.871748 6.178945,30.714858 6.468028,30.534123 6.466456,30.50419 6.470251,30.501507 6.357768,28.992545 6.338443,28.737277 6.280018,28.685892 6.325895,28.65655 6.312411,28.560688 6.420019,28.493744 7.406567,27.863141 6.931842,27.226503 6.732378,26.985464 7.230075,26.820698 7.868055,26.603782 7.86904,26.45594 7.675721,26.181186 7.265435,25.670152 7.520232,25.617271 7.884293,25.505112 7.896254,24.910834 7.891075,24.905611 7.890322,24.892302 7.657485,24.663132 7.736951,24.645016 7.87304,24.587027 7.837327,23.956156 7.833221,23.811867 7.756866,23.763886 7.779838,23.752125 7.832217,23.714412 7.78383,22.922082 7.768729,22.60037 7.451128,22.44835 7.546806,22.365379 7.748619,22.171943 7.746365,22.123904 7.825569,22.035162 7.833396,21.777821 7.855907,21.017902 7.554547,20.853922 7.039981,20.569362 7.330811,20.317845 7.978191,19.744694" slic3r:type="contour"/>
  </g></svg>