<svg width="43.790126" height="63.590156" xmlns="http://www.w3.org/2000/svg" xmlns:svg="http://www.w3.org/2000/svg" xmlns:xlink="http://www.w3.org/1999/xlink" xmlns:slic3r="http://slic3r.org/namespaces/slic3r"><g xmlns="http://www.w3.org/2000/svg" slic3r:z="3.66349999999999e-005" id="layer110">
    <polygon style="fill: white" points="15.918383,59.370299 16.213303,60.195467 15.853736,60.53084 15.253839,61.028548 15.150082,60.730952 14.860019,59.778579 15.360105,59.358128 15.798406,58.964888" slic3r:type="contour"/>
    <polygon style="fill: white" points="13.78347,58.776104 13.993903,59.464564 13.4957,59.880399 13.004519,60.24006 12.854777,59.732564 12.665646,58.967536 13.343697,58.470847 13.653771,58.220139" slic3r:type="contour"/>
    <polygon style="fill: white" points="7.408289,55.26824 7.414442,56.015502 9.023645,56.442511 9.31025,56.26838 9.316451,56.3358 9.337557,56.496785 9.939411,56.596336 10.139114,57.103347 10.413569,57.99747 11.300104,57.4316 11.440333,57.329864 11.572589,58.077488 11.699898,58.58668 11.014621,59.087039 10.682995,59.300748 10.496893,58.529696 10.397339,58.018241 9.199406,57.799053 9.059322,57.872004 8.968257,57.846364 8.528254,58.105884 8.391692,58.17892 8.308977,57.660737 7.861745,57.534816 7.036995,57.325032 6.986821,56.998976 6.886027,56.576603 6.267352,56.803452 6.2696,56.694256 6.294364,55.437184 6.750647,55.270035 7.421914,54.98366" slic3r:type="contour"/>
    <polygon style="fill: white" points="5.753426,53.979648 5.623128,54.86684 5.106759,54.969824 4.437548,55.0818 4.512318,54.649268 4.666349,53.717664 5.409199,53.605884 5.874914,53.504824" slic3r:type="contour"/>
    <polygon style="fill: white" points="3.241204,48.993364 3.735636,49.164896 3.552618,49.590579 3.205108,50.382799 3.901615,50.801532 4.432629,51.14136 4.125922,51.667913 4.557429,51.700368 4.676278,51.703104 4.374895,52.465311 4.204904,53.005624 3.33209,52.975136 2.999101,52.960988 3.291716,52.033544 3.312181,51.968959 2.847878,51.69002 2.287892,51.327992 2.464981,51.07778 2.732463,50.656216 2.726703,50.654568 2.771312,50.594989 2.805443,50.541198 2.720609,50.507448 1.905852,50.24904 2.066143,49.870392 2.542757,48.737472" slic3r:type="contour"/>
    <polygon style="fill: white" points="2.36464,45.390896 3.042886,45.965464 2.976536,46.141484 2.85165,46.400633 3.15839,46.63958 3.042655,46.757091 2.329527,47.621716 2.292835,47.59507 2.287841,47.604176 1.199041,46.918216 1.129839,46.881084 1.199688,46.753117 1.22006,46.704314 1.14125,46.643588 1.085416,46.589819 1.434492,46.190578 1.894034,45.089615" slic3r:type="contour"/>
    <polygon style="fill: white" points="2.043642,40.403771 2.55085,41.217344 2.44673,41.551844 2.290255,41.891652 2.329181,41.929608 2.316044,41.963158 2.615688,42.211016 2.492895,42.299971 1.981506,42.818229 1.703067,43.347144 0.607008,42.191784 0.580902,42.168908 0.610821,42.112459 0.606241,42.107791 0.606763,42.106415 0.573193,42.071372 0.650105,41.991995 1.473333,39.818731" slic3r:type="contour"/>
    <polygon style="fill: white" points="2.011456,37.711131 2.43752,38.072284 2.001316,38.316008 1.439101,38.80006 0.832097,38.30256 0.421079,37.833468 0.711011,37.574251 1.42989,37.101744" slic3r:type="contour"/>
    <polygon style="fill: white" points="5.672129,20.253188 5.650495,20.413117 5.713461,20.509619 6.131711,21.033176 5.928018,21.068218 5.544872,21.193939 5.343633,22.681597 5.28593,23.045019 5.297064,23.064766 5.295224,23.072255 5.319818,23.104155 5.286047,23.109611 5.228132,23.345364 4.223226,25.01988 4.367405,25.272582 4.445709,25.378952 3.978556,25.427584 3.873862,25.60204 3.733625,25.648956 3.421873,26.914409 3.243459,27.39856 3.495992,27.807459 3.605795,27.94359 3.006878,28.040554 2.924789,28.26331 2.782193,28.321617 2.84614,29.386489 2.689197,30.576798 2.857268,30.813448 2.916477,30.87703 2.639567,30.953208 2.626587,31.051654 2.579518,31.077006 2.706308,31.436917 2.772629,32.033932 2.420813,33.323318 2.187828,33.859314 2.247144,33.932087 2.229722,33.992561 2.530529,34.266352 2.408793,34.31856 2.066402,34.559443 1.90423,35.12234 1.4524,36.08992 0.530826,33.930808 0.523222,33.917416 0.529873,33.900793 0.528648,33.899243 0.528749,33.898958 0.524411,33.893056 0.533224,33.886298 0.620193,33.640212 1.482954,31.149424 1.357129,30.965759 1.402602,30.83982 1.103058,30.519323 0.972668,30.308256 1.625204,29.918008 1.752324,29.871235 2.303224,28.345474 2.194753,28.163726 2.253953,27.991927 1.867631,27.515221 1.713107,27.21854 2.328433,26.943112 2.641409,26.867521 3.082989,25.586043 2.997025,25.429422 3.040348,25.279738 2.711248,24.837957 2.592189,24.584812 3.275736,24.342072 3.313631,24.335526 3.579769,23.415998 3.686608,22.743893 3.637846,22.65348 3.648527,22.594266 3.51819,22.415528 3.47481,22.322516 3.710819,22.248959 3.750308,22.030062 3.748762,21.643928 4.222721,21.306378 4.551383,20.836369 4.262726,20.333634 4.441312,20.274061 5.039418,20.138446 5.076281,20.08573 5.407656,19.979548 5.498244,19.962288" slic3r:type="contour"/>
    <polygon style="fill: white" points="23.362994,6.648133 23.643609,7.045794 23.786166,6.865125 24.12048,6.527563 24.297016,6.779567 24.548919,7.227425 24.641208,7.242549 24.904142,6.969524 25.225749,6.661182 25.393454,6.983599 25.568267,7.370067 25.942615,7.419576 26.010345,7.364966 26.135891,7.383686 26.203903,7.321515 26.614192,6.966243 26.719037,7.233456 26.815987,7.485095 26.95502,7.505827 27.817368,7.616042 27.846971,7.590774 27.873088,7.597548 28.126862,7.391715 28.179041,7.549444 28.228588,7.68975 29.043148,7.901015 29.453613,7.994778 29.465069,7.98467 29.472828,7.987931 29.658026,7.842891 29.696547,7.972203 29.737238,8.099083 30.392449,8.374518 30.85605,8.539214 30.873206,8.524388 30.878063,8.527739 31.180006,8.30639 31.245635,8.548235 31.286494,8.692132 31.298168,8.696279 31.342099,8.847891 31.383845,8.876692 31.805361,9.097322 32.050683,9.07047 32.359659,9.016728 32.547844,8.875773 32.691754,8.776142 32.728344,8.920273 32.823097,8.887704 32.92796,8.840589 33.336045,9.324565 33.640379,9.597893 33.676612,9.592303 34.028362,9.558646 34.12652,9.503952 34.371504,9.375953 34.402322,9.513911 34.508664,9.485176 34.612228,9.464279 34.82742,10.072222 34.854733,10.140626 35.174448,10.142033 35.81236,10.250911 35.789564,10.506118 35.719421,10.87584 36.526352,11.205834 36.49018,11.267273 36.496904,11.267762 36.466137,11.313744 36.57908,11.333222 36.666071,12.003194 36.693559,12.016613 36.693977,12.026482 36.765388,12.056273 36.834984,12.09388 36.703016,12.239929 36.717232,12.575655 36.746954,12.865563 36.800919,12.889817 36.800975,12.895003 36.956343,12.961531 37.100904,13.035264 36.806142,13.369471 36.811824,13.891376 37.158379,14.022311 37.443436,14.135606 37.045324,14.655208 36.82282,14.901412 36.825104,15.111241 37.380576,15.291951 37.92258,15.463627 37.739747,15.711253 37.470806,16.078518 37.986164,16.434213 38.363656,16.729049 38.321568,16.945568 38.382548,16.968714 38.433692,16.983014 38.283758,17.14008 38.254812,17.28899 38.222141,17.337042 38.056261,18.324284 38.563111,18.498273 38.922828,18.581148 38.609291,18.914482 38.175764,19.555632 37.410076,19.356108 37.028724,19.20008 37.34378,18.706304 37.577256,18.423732 37.184672,18.084488 36.569324,17.697458 36.589475,17.636048 36.594804,17.587297 36.520772,17.556928 36.539408,17.525094 36.616875,17.426232 36.724314,17.263709 36.847623,16.950582 36.94573,16.397708 36.504732,16.254981 35.981536,16.026727 36.23842,15.58857 36.621325,15.111333 35.456411,14.632757 35.436366,14.62335 35.502284,13.87371 35.510777,13.620126 35.486332,13.607953 35.485941,13.55803 34.870564,13.328237 35.061876,13.106458 35.412992,12.675818 35.02408,12.513615 34.424072,12.286244 34.765716,11.987522 34.891625,11.847042 34.497563,11.720472 34.0949,11.601317 34.331707,11.357794 33.894032,11.326945 33.953262,11.125175 33.737191,11.18887 33.655104,11.210014 33.635388,11.148951 33.575216,11.18441 33.512108,10.9991 33.432571,10.786627 32.956069,10.973491 32.399299,10.403891 32.254487,10.502914 31.983222,10.710013 31.968018,10.64435 31.929852,10.527954 31.64266,10.602794 30.77324,10.101461 30.69058,10.166764 30.549668,10.288043 30.466515,9.935814 29.969131,9.745724 29.451301,9.548919 29.291115,9.678926 29.083668,9.848836 28.979403,9.496577 28.939937,9.376634 28.447941,9.258584 27.858868,9.140941 27.7056,9.263325 27.562672,9.365413 27.465997,9.079063 27.229995,9.048555 26.603796,9.044519 26.395666,8.838473 26.281574,8.756013 26.090946,8.898075 26.05053,8.811143 25.945299,8.512969 25.940988,8.509853 25.926938,8.473897 25.814568,8.368568 25.389252,8.12055 25.232786,8.287891 24.846606,8.611509 24.663614,8.302377 24.493458,7.846655 24.24186,8.187939 23.954382,8.505219 23.679776,8.125164 23.602022,7.972311 23.4878,8.166411 23.254594,8.499249 22.896793,8.06328 22.805234,8.228986 22.606632,8.558268 22.299065,8.187805 22.237569,8.107353 22.100924,8.309102 21.895064,8.608745 21.635657,8.222725 21.544889,8.090207 21.4021,8.26785 21.183476,8.55827 20.973811,8.158953 20.880033,8.000607 20.736792,8.187876 20.535532,8.499265 20.334946,8.122799 20.172952,7.882136 19.983232,8.17529 19.835716,8.505231 19.618852,8.180259 19.339863,7.854233 19.230083,7.883725 19.044367,8.241473 18.94349,8.61151 18.754758,8.387263 18.500696,8.155936 17.778863,8.618598 17.699186,8.898075 17.642106,8.842123 17.539662,8.759555 17.186479,9.044479 16.310285,9.102684 16.270328,9.223204 16.227455,9.365412 15.965942,9.147431 15.531773,9.250347 14.860813,9.390312 14.795464,9.602061 14.706441,9.848842 14.442682,9.635352 14.338378,9.550371 13.95894,9.695473 13.360877,9.922495 13.313998,10.096352 13.240511,10.288042 13.005829,10.106094 12.855525,10.192041 12.147522,10.602786 11.98347,10.54474 11.878884,10.52045 11.806845,10.710039 11.71852,10.651165 11.384189,10.414267 11.226766,10.576002 10.833922,10.973535 10.596615,10.858714 10.367989,10.771677 10.25127,11.08905 10.214909,11.18441 10.153487,11.153872 10.135023,11.210014 9.849838,11.112292 9.874171,11.204181 9.896093,11.326947 9.510262,11.349099 9.586217,11.438195 9.695218,11.601317 9.08704,11.818029 8.963528,11.853873 9.1531,12.037496 9.366023,12.286262 8.899897,12.502736 8.397181,12.690617 8.60162,12.932485 8.919567,13.328228 8.649817,13.441806 8.304243,13.570291 8.303804,13.607948 8.296863,13.611421 8.353042,14.624815 7.690106,14.869785 7.161481,15.114228 7.577966,15.773173 7.808605,16.026717 7.46015,16.112578 6.880682,16.358553 7.139042,17.378436 7.178502,17.434238 7.182158,17.457028 7.269334,17.55695 7.243551,17.56226 7.201685,17.578772 7.220743,17.697594 7.015197,17.865759 6.213119,18.468866 6.544857,18.957883 6.761401,19.20005 6.306624,19.289764 5.614313,19.555654 5.121449,18.979434 4.867284,18.581177 5.404871,18.387638 5.754148,18.294867 5.68219,17.670602 5.618559,17.414853 5.535357,17.289108 5.515655,17.173022 5.396198,17.038564 5.356431,16.982992 5.475493,16.936384 5.463201,16.863963 5.426503,16.7289 5.917766,16.470787 6.345041,16.115868 6.253633,15.99181 5.867541,15.463631 6.25263,15.338182 6.967945,15.10936 6.963357,14.867429 6.563572,14.364852 6.346699,14.135562 6.945196,13.909467 6.937014,13.477944 6.95362,13.290812 6.806009,13.130635 6.689225,13.035292 6.987666,12.907161 6.989203,12.889833 6.995512,12.887324 6.998399,12.686363 7.069926,12.198412 7.011433,12.136432 6.955128,12.093887 7.093772,12.035734 7.096576,12.016608 7.106622,12.012393 7.110757,11.943544 7.211054,11.333203 7.302271,11.280553 7.293218,11.267758 7.328263,11.266927 7.263775,11.205834 7.29917,11.196851 7.96659,10.976664 7.962178,10.958958 7.995913,10.966991 8.117168,10.926987 7.977788,10.250915 8.544142,10.239475 8.895682,10.205335 9.104311,9.649428 9.177896,9.464309 9.374484,9.516791 9.418617,9.375978 9.734028,9.567283 10.064962,9.609071 10.862249,8.840548 11.061708,8.911462 11.098361,8.776127 11.359769,8.991836 11.933286,9.068542 12.470633,8.771264 12.491927,8.696263 12.498979,8.693413 12.610052,8.306401 12.782142,8.450763 12.896369,8.535739 12.916839,8.524407 12.916951,8.524514 13.672631,8.219148 14.054276,8.082002 14.132101,7.842865 14.229659,7.928026 14.308313,7.99071 14.325092,7.984681 14.328127,7.987551 15.213664,7.754405 15.56149,7.676394 15.663264,7.391711 15.783131,7.500013 15.903505,7.599685 15.94318,7.590788 15.958266,7.604464 16.504261,7.514968 16.987279,7.458171 17.175953,6.966241 17.375107,7.152658 17.635398,7.381958 17.779813,7.364975 17.815987,7.397553 18.251285,7.344931 18.407983,7.029728 18.56441,6.661182 18.787157,6.899361 19.130962,7.238588 19.274153,7.221277 19.506622,6.866806 19.669676,6.527563 19.821068,6.736256 20.147057,7.09678 20.342201,6.857034 20.564954,6.48896 20.654674,6.643222 20.939131,7.020281 21.0243,6.919984 21.311626,6.527374 21.379906,6.651537 21.596251,6.989979 21.895064,6.565388 21.973773,6.680697 22.17317,6.967414 22.478504,6.527381 22.57983,6.642811 22.834812,6.965947 22.877919,6.898833 23.225148,6.488954" slic3r:type="contour"/>
    <polygon style="fill: white" points="38.713848,20.085682 38.799233,20.185918 38.875363,20.209729 39.527396,20.333666 39.423975,20.448338 39.254776,20.720695 40.041488,21.644244 40.111367,22.280381 40.23104,22.31363 40.31532,22.322514 40.139835,22.539537 40.152336,22.65334 40.136942,22.679269 40.423232,23.738492 40.575468,24.434315 40.962268,24.556412 41.197936,24.584794 40.777428,25.107414 40.738575,25.179827 40.793156,25.4293 40.73534,25.52402 41.23368,26.939839 41.79072,27.16369 42.07704,27.21864 41.635424,27.73449 41.527424,27.916932 41.59536,28.1637 41.505133,28.299345 42.076112,29.75243 42.146179,29.990609 42.603427,30.238946 42.817484,30.308372 42.373896,30.764665 42.433044,30.965724 42.350351,31.074361 42.689599,31.898407 43.258825,33.889793 43.265712,33.8931 43.260886,33.897412 43.266888,33.917183 42.799608,35.35072 42.337744,36.090048 41.82925,34.709293 41.259612,34.266388 41.351464,34.151511 41.554435,33.963068 41.543032,33.932104 41.638654,33.801047 41.017451,32.03343 41.266702,31.112837 41.163408,31.051648 41.162062,30.993126 40.940812,30.918004 40.873676,30.877118 41.149416,30.443419 41.101704,28.36931 40.865164,28.263258 40.827657,28.121034 40.333944,28.01034 40.184332,27.943572 40.569299,27.249552 40.590591,27.222097 40.189663,25.70181 39.916144,25.601986 39.857005,25.484013 39.466783,25.421136 39.344412,25.379 39.578104,24.927648 39.312176,24.397164 38.562124,23.345703 38.529524,23.17901 38.509852,23.117297 38.470336,23.10422 38.477187,23.09293 38.494608,23.069474 38.493116,23.064793 38.510694,23.03116 38.45798,21.962466 38.319528,21.266201 37.658408,21.03319 37.783628,20.830517 38.139734,20.362032 38.118084,20.253158 38.239923,20.036776 38.292,19.962236" slic3r:type="contour"/>
    <polygon style="fill: white" points="42.851259,37.509499 43.369047,37.833416 42.989467,38.139712 42.351024,38.80006 41.676572,38.382224 41.352612,38.072256 41.705808,37.664715 42.360236,37.101744" slic3r:type="contour"/>
    <polygon style="fill: white" points="42.733388,40.722864 43.152614,42.011698 43.201911,42.059395 43.21694,42.071316 43.176245,42.10232 43.198256,42.142364 43.209224,42.16894 42.487288,42.999212 42.08704,43.34712 41.922872,42.975437 41.701167,42.802064 41.174436,42.21102 41.281228,42.101444 41.468444,41.946598 41.460936,41.9296 41.517231,41.869672 41.239276,41.217376 41.503092,40.941232 42.31682,39.81872" slic3r:type="contour"/>
    <polygon style="fill: white" points="42.174684,45.672152 42.398243,46.254954 42.6399,46.522868 42.704736,46.589728 42.564074,46.698853 42.629664,46.817864 42.66028,46.881195 41.880203,47.39924 41.502192,47.604283 41.496467,47.592828 41.460616,47.621704 41.079876,47.220984 40.631712,46.639663 40.744143,46.549008 40.946734,46.391488 40.747212,45.965532 40.909844,45.862507 41.8961,45.089635" slic3r:type="contour"/>
    <polygon style="fill: white" points="41.553888,49.460896 41.884272,50.24906 41.680392,50.334584 41.007883,50.553818 41.086859,50.669123 41.502236,51.327992 40.824668,51.739623 40.474369,51.959156 40.688704,52.638504 40.791044,52.960964 40.119608,52.983523 39.585219,53.005624 39.167499,51.873655 39.113844,51.703088 39.663491,51.657729 39.46876,51.324828 39.35748,51.14138 39.871007,50.860252 40.589946,50.390796 40.453539,50.075743 40.054488,49.164924 40.536999,48.987416 41.247372,48.737472" slic3r:type="contour"/>
    <polygon style="fill: white" points="38.457416,53.580044 39.123764,53.717668 39.239731,54.388787 39.35256,55.081828 39.019596,55.013944 38.166996,54.86684 38.013747,54.177787 37.915224,53.504824" slic3r:type="contour"/>
    <polygon style="fill: white" points="36.648344,55.082936 37.495712,55.437204 37.504591,55.869027 37.522712,56.803484 37.437176,56.772348 36.92465,56.584615 36.753088,57.325051 35.471449,57.671684 35.414435,58.031808 35.39848,58.178884 34.836149,57.843507 34.730872,57.87198 34.615488,57.81157 33.39228,58.018622 33.173008,58.933279 33.107084,59.300763 32.572528,58.905168 32.09017,58.586796 32.298394,57.532491 32.34979,57.329856 33.051924,57.765056 33.378767,57.997787 33.715604,57.168228 33.850668,56.596368 34.211519,56.550208 34.448591,56.50542 34.479848,56.268408 34.543331,56.300163 34.782347,56.442367 34.787192,56.441452 34.801359,56.448619 35.366728,56.323875 36.361568,56.036274 36.359396,55.968364 36.368224,54.983644" slic3r:type="contour"/>
    <polygon style="fill: white" points="30.633348,58.575732 31.124446,58.967508 30.915694,59.679587 30.785608,60.240068 30.442762,59.9501 29.79618,59.464564 29.998163,58.666776 30.136324,58.22014" slic3r:type="contour"/>
    <polygon style="fill: white" points="28.333201,59.247383 28.930132,59.778636 28.743618,60.316167 28.53631,61.028552 28.337526,60.841152 27.576866,60.195683 27.764196,59.595923 27.991738,58.964884" slic3r:type="contour"/>
    <polygon style="fill: white" points="26.141756,59.760624 26.79262,60.427836 26.624377,60.829036 26.317748,61.646092 26.223911,61.544507 25.522848,60.845874 25.506963,60.859824 25.468907,60.820376 24.486898,61.359865 24.381688,61.55916 24.348135,61.566011 24.108926,62.052948 24.078781,62.014335 23.835069,61.717962 23.824514,61.72376 23.788997,61.680182 22.478471,61.94778 22.008376,62.038138 21.982745,62.076772 21.977403,62.075634 21.895064,62.202667 21.886617,62.189459 21.81307,62.075678 21.807381,62.076771 21.778578,62.033288 20.606282,61.783612 20.008345,61.671587 19.96557,61.723791 19.958814,61.719599 19.681202,62.05296 19.657326,62.006724 19.437711,61.564677 19.408479,61.5592 19.271429,61.30022 18.325936,60.816044 18.282764,60.860387 18.272054,60.849521 18.119885,61.01302 17.472352,61.646072 17.412562,61.504016 16.997506,60.427844 17.358829,60.067608 17.875954,59.535627 17.98685,59.826464 18.378158,60.73579 19.180674,60.784906 19.362116,60.563175 19.90234,59.90302 20.008822,60.118744 20.377743,60.814986 21.363343,60.837485 21.390789,60.79494 21.895064,60.03558 22.011426,60.217608 22.423455,60.839589 23.405057,60.81689 23.46599,60.69574 23.887778,59.90302 24.041954,60.091412 24.611759,60.787664 25.411572,60.736486 25.589928,60.284163 25.914172,59.535624" slic3r:type="contour"/>
  </g></svg>