<svg width="43.790126" height="63.590156" xmlns="http://www.w3.org/2000/svg" xmlns:svg="http://www.w3.org/2000/svg" xmlns:xlink="http://www.w3.org/1999/xlink" xmlns:slic3r="http://slic3r.org/namespaces/slic3r"><g xmlns="http://www.w3.org/2000/svg" slic3r:z="1.5515e-005" id="layer46">
    <polygon style="fill: white" points="21.998785,1.017627 22.353456,1.533294 22.515924,1.542769 22.575946,1.4781 22.579026,1.478814 22.749358,1.29982 23.06052,0.957009 23.137704,1.111388 23.41331,1.67206 23.607572,1.71705 23.692468,1.64917 23.693394,1.649627 23.864253,1.515888 24.224166,1.223739 24.278083,1.388458 24.485647,2.035779 24.636064,2.107929 24.987607,1.903455 25.373263,1.677305 25.410238,1.877965 25.541334,2.641279 25.62718,2.680606 26.131159,2.466345 26.496806,2.318303 26.51583,2.608164 26.537509,3.125341 26.920024,3.331438 27.331369,3.215439 27.599648,3.148904 27.578814,3.608433 27.572585,3.689202 27.825869,3.849887 28.438698,4.206302 28.576489,4.18767 28.65655,4.1799 28.631149,4.328226 28.694582,4.376192 28.942132,4.550071 29.106714,5.165648 29.177736,5.37813 29.259674,5.37778 29.652044,5.403007 29.589579,5.644805 29.466532,6.042006 29.727132,6.213713 30.347263,6.555818 30.370614,6.742199 30.384787,6.804557 30.544138,6.837578 30.509183,6.93818 30.396632,7.185206 30.38983,7.706346 30.39396,7.77124 30.539213,7.819717 31.053638,7.902096 31.066876,8.215521 31.087234,8.344432 31.37137,8.404388 31.279986,8.597252 31.108993,8.882265 31.11321,9.164923 31.125144,9.296557 31.373194,9.222006 31.73969,9.077757 31.793523,9.631881 31.842644,9.915611 32.429348,10.010414 32.19449,10.333566 31.971933,10.635201 32.030991,10.960925 32.46446,10.544607 32.67752,10.367351 32.874873,11.134661 32.952416,11.456448 33.577816,11.523462 33.322358,11.794942 33.166311,11.98651 33.210646,12.091263 33.41455,12.707762 34.264485,12.766667 34.404272,12.615877 34.463015,12.750752 34.4758,12.787162 34.535783,12.788297 34.502376,12.823009 35.102967,13.634968 35.162442,13.743727 35.1918,13.775369 35.403492,13.76536 35.326348,13.845883 35.302245,13.894403 35.898987,14.537559 35.97988,14.657085 35.993887,14.657765 36.023637,14.692457 36.252396,14.680782 36.171088,14.761332 36.142456,14.83101 36.740808,15.528745 36.823079,15.656975 36.850999,15.66074 36.866647,15.687185 37.101724,15.694846 37.018596,15.773013 36.974401,15.869279 37.452236,16.676792 37.5394,16.874826 37.587935,16.88908 37.590947,16.899471 37.903128,16.959782 37.784108,17.067778 37.684936,17.223679 37.901683,17.971333 37.975583,18.38027 38.552168,18.581164 38.325176,18.77909 38.095678,19.044836 38.0963,19.048278 38.087893,19.055035 38.102856,19.256812 38.098375,19.982001 38.195739,20.026576 38.330688,20.034764 39.009964,20.146094 39.026964,20.349539 39.029752,20.403772 39.095635,20.430902 39.062748,20.459259 39.033971,20.48582 39.034015,20.486684 39.0286,20.491406 38.976572,21.514479 38.949874,22.091783 39.472339,22.327913 39.671688,22.420352 39.462223,22.598398 39.653163,22.607955 39.737364,22.620996 39.64248,23.580533 39.580136,24.244967 39.581544,24.245635 39.577878,24.266933 40.298975,24.694005 40.396328,24.751152 40.344872,24.787391 40.421092,24.823122 40.294736,25.88628 40.109046,26.668688 40.147056,26.693854 40.128052,26.796482 41.0204,27.527964 41.123628,27.60622 41.017888,27.678534 41.042168,27.699752 41.024936,27.716026 41.11652,27.753544 41.164144,27.801748 40.979547,28.970772 40.739168,29.648844 40.8077,29.70924 40.78015,29.859881 41.098372,30.160302 41.55842,30.518022 41.134052,30.780193 40.816306,31.076403 40.924964,31.269036 40.684324,31.47845 41.286364,32.077404 41.788941,33.23168 41.779552,33.237029 41.597172,34.927812 41.481281,35.318446 41.543504,35.383983 41.537094,35.495799 41.831732,35.698424 41.693755,35.768308 41.513714,35.903602 41.45636,36.904036 41.316051,37.545286 41.425615,37.671619 41.419776,37.820941 41.766728,38.071996 41.603116,38.142675 41.401843,38.279482 41.359188,39.370124 41.251047,39.987056 41.34784,40.110664 41.341225,40.225126 41.586448,40.419516 41.466844,40.46172 41.322551,40.54826 41.216152,42.389328 41.175666,42.623888 41.207624,42.669676 41.20331,42.705287 41.27746,42.773008 41.239956,42.782476 41.190905,42.807692 41.054276,43.935547 40.693412,44.887744 40.783147,45.032515 40.82732,45.08448 40.616163,45.091578 40.567248,45.220648 40.282553,45.340772 40.29188,45.904688 39.954391,46.898361 40.160255,47.280375 40.234244,47.383324 39.794464,47.369236 39.722319,47.581652 39.117088,47.772687 39.279652,48.577715 39.153829,48.971658 39.398416,49.523468 39.45954,49.629032 38.963251,49.568341 38.902812,49.757572 38.11831,49.901234 38.394604,50.651463 38.240985,51.096541 38.43252,51.663752 38.463912,51.736 38.052687,51.642089 38.010948,51.76302 37.400307,51.779698 37.640376,52.304656 37.192042,53.607529 37.200679,53.647203 37.2015,53.650144 37.174563,53.640814 37.153348,53.701344 35.750779,55.039572 35.627626,55.147048 35.629424,55.165632 35.622648,55.170333 35.6366,55.296388 35.593327,55.276667 35.509158,55.249079 34.158644,56.186135 33.866231,56.374925 33.865812,56.40296 33.854921,56.408635 33.851008,56.671624 33.765076,56.62148 33.605695,56.543132 33.605139,56.543491 33.600932,56.540969 32.45436,57.138363 31.98223,57.369578 31.978368,57.401664 31.962344,57.408073 31.915078,57.787552 31.797578,57.703108 31.583638,57.564779 31.577192,57.567936 31.572109,57.564164 30.652139,57.932144 30.034396,58.165034 30.026882,58.198779 30.002036,58.206522 29.90194,58.655244 29.771506,58.542228 29.535462,58.353133 29.526551,58.356492 29.525092,58.355174 28.752827,58.595868 28.069485,58.796623 28.057846,58.8328 28.030839,58.838842 27.887384,59.2835 27.767368,59.158612 27.549796,58.949298 27.543789,58.951063 27.541329,58.948375 26.754496,59.124435 26.08365,59.265363 26.07035,59.297236 26.04769,59.300294 25.878398,59.699184 25.778228,59.575724 25.596674,59.367665 25.59205,59.368636 25.587267,59.362426 24.703432,59.481695 24.08809,59.559276 24.075755,59.583628 24.061246,59.584283 23.880254,59.927668 23.79934,59.811312 23.653793,59.614029 23.648351,59.614715 23.640782,59.603262 22.671738,59.647003 22.104003,59.670983 22.093903,59.688192 22.088311,59.687939 21.89509,59.995152 21.826087,59.881347 21.704508,59.687855 21.696256,59.688204 21.685563,59.669729 20.723129,59.626211 20.150302,59.602052 20.14172,59.614731 20.14125,59.614667 19.909876,59.927688 19.842292,59.80028 19.728409,59.584259 19.714392,59.583668 19.699769,59.554834 18.835154,59.437652 18.209436,59.358886 17.911722,59.699208 17.845035,59.549447 17.738861,59.299649 17.719813,59.297251 17.702958,59.257515 16.95012,59.08852 16.257683,58.943112 15.902762,59.283504 15.842625,59.113576 15.753175,58.837167 15.732243,58.832771 15.716687,58.786034 15.004849,58.564288 14.272511,58.348688 14.263569,58.356479 14.262827,58.356184 13.888185,58.655232 13.842968,58.480368 13.781063,58.204006 13.763214,58.198752 13.752448,58.153111 12.912759,57.819007 12.229025,57.559832 11.875069,57.787556 11.851308,57.636771 11.822391,57.405694 11.811779,57.401672 11.805875,57.357535 10.689551,56.780616 10.205615,56.541776 9.939143,56.67164 9.933334,56.564915 9.930916,56.406201 9.924341,56.402956 9.92307,56.363644 8.512009,55.394808 8.292686,55.251703 8.153544,55.296424 8.156343,55.243836 8.164713,55.168202 8.160713,55.165592 8.162587,55.139112 6.636751,53.701287 6.66357,53.640193 6.611755,53.647227 6.611749,53.647084 6.588625,53.650115 6.607961,53.541441 6.545449,51.798378 5.779023,51.763024 5.77546,51.686811 5.387661,51.73862 5.326208,51.736016 5.566833,50.873488 5.720977,50.521492 5.689692,49.852352 5.689693,49.852352 5.95236,50.296595 6.618008,50.289472 7.080117,50.201931 6.848129,50.697211 6.597345,51.410288 6.676558,51.58184 6.661922,51.624472 7.088957,52.153178 7.720566,52.033367 8.170903,51.899532 7.997165,52.458159 7.843851,53.109608 7.885341,53.170236 8.541703,53.74602 9.116187,53.536267 9.515326,53.365096 9.415132,54.018628 9.365568,54.47933 10.256647,55.057588 10.744336,54.801616 11.074504,54.615011 11.059511,55.364919 11.061534,55.577778 12.127203,56.102606 12.525823,55.832144 12.789216,55.64396 12.868624,56.46381 13.939037,56.870183 14.047573,56.912785 14.377567,56.637495 14.591201,56.448452 14.738304,57.174758 15.762045,57.478047 15.921528,57.527413 16.215295,57.231235 16.406574,57.02684 16.617969,57.730921 17.68181,57.956776 17.765246,57.975519 18.045895,57.636896 18.228872,57.405756 18.51599,58.126504 19.604852,58.265617 19.879171,57.872764 20.057702,57.61204 20.403248,58.308268 20.425393,58.351103 21.461959,58.395577 21.723992,57.953771 21.895064,57.671852 22.282279,58.325283 22.325961,58.397921 23.354072,58.353841 23.581505,57.896724 23.732406,57.612016 24.193429,58.271698 25.257807,58.135944 25.438227,57.684708 25.561254,57.405768 26.039667,57.981969 27.046859,57.768216 27.156038,57.743621 27.288939,57.302764 27.383552,57.026827 27.885597,57.531663 28.902583,57.230028 29.038347,57.188032 29.129892,56.737643 29.198924,56.44846 29.759617,56.914792 30.907375,56.478001 30.955947,55.978708 31.000922,55.643964 31.604673,56.052375 31.679163,56.104521 32.714945,55.59263 32.703596,55.016803 32.715613,54.615012 33.282073,54.910895 33.551642,55.058996 34.412032,54.497098 34.31136,53.839976 34.274788,53.365112 34.791456,53.55148 35.268704,53.744339 35.900187,53.183445 35.937838,53.13576 35.71982,52.434008 35.619224,51.899532 36.09208,51.985168 36.719465,52.145806 37.127224,51.629367 37.113572,51.581876 37.190085,51.447783 36.870003,50.762043 36.71002,50.201891 37.158743,50.199072 37.854279,50.283772 38.14886,49.767512 38.110472,49.666276 38.181436,49.496466 37.792596,48.856004 37.593456,48.305376 38.043816,48.226771 38.708408,48.235468 38.940341,47.680478 38.876844,47.544964 38.937742,47.338809 38.512051,46.765039 38.297448,46.2606 38.77822,46.105676 39.314126,46.06465 39.506129,45.414669 39.407168,45.237248 39.449278,45.014571 39.046435,44.552175 38.847572,44.136248 39.397052,43.88938 39.669611,43.84945 39.835063,42.974533 39.68278,42.73896 39.703767,42.575833 39.41508,42.278891 39.270732,42.008156 39.816086,41.702807 39.911956,40.957635 39.899497,40.368533 39.78288,40.209328 39.791848,40.131354 39.642792,39.990916 39.565988,39.863452 39.844074,39.677315 39.895784,39.22776 39.876059,37.860664 39.829704,37.80336 39.833534,37.77567 39.772567,37.722275 39.739756,37.674332 39.860622,37.579823 39.899572,37.298223 39.984062,35.624109 39.925696,35.557472 39.932224,35.524847 39.844776,35.452164 39.793864,35.387376 39.995866,35.206771 40.209979,34.136648 40.296416,33.610967 40.150043,33.451366 40.171981,33.361064 39.894152,33.142572 39.708368,32.932296 40.159376,32.478791 40.427308,32.31005 40.621727,31.50975 40.541624,31.450968 40.448828,31.347822 40.492133,31.17781 39.918943,30.747149 39.452604,30.248268 39.554872,30.134549 39.791153,29.960615 39.75586,29.92996 39.858443,29.810832 39.359504,29.592654 39.700508,28.511653 39.796902,28.180656 39.670564,28.047466 39.687752,27.976522 39.320336,27.728154 38.88964,27.3505 38.989755,27.232614 39.203687,27.036772 39.168192,27.024838 39.22698,26.958165 38.76946,26.86393 38.949908,26.131111 39.12859,25.364112 39.057872,25.306908 38.869214,25.210146 38.374535,25.196819 38.19172,25.170788 38.253771,24.876497 38.174131,24.841181 38.034784,24.781924 38.295002,24.538563 38.42782,23.433494 37.913992,23.39981 37.560584,23.331353 37.63551,22.780222 37.537503,22.736095 37.360331,22.651888 37.681062,22.385471 37.744008,21.088177 37.421728,20.9556 36.83712,20.68916 36.879312,20.653365 36.820712,20.63576 36.7816,19.112765 36.601216,19.052636 36.333312,18.946302 36.677509,18.581177 36.511434,17.804784 36.482439,17.741126 36.203696,17.703068 35.745804,17.615864 35.938143,17.338016 36.15856,17.009964 36.062884,16.954804 36.113007,16.847805 36.013264,16.841026 35.896795,16.657211 35.584288,16.666554 35.020748,16.654979 35.113231,16.453768 35.216947,16.234846 35.114524,16.1944 35.203789,15.823169 35.168073,15.769674 35.025647,15.742637 34.784516,15.764221 34.127188,15.788095 34.159535,15.69969 34.208311,15.587483 34.148872,15.5762 34.213038,15.174124 33.69066,15.394574 33.293048,14.860569 33.244676,14.860729 33.23234,14.83832 33.18693,14.841965 33.0978,14.847515 33.140142,14.67083 33.012748,14.439402 32.643162,13.792014 32.524188,13.784724 32.510444,13.744495 32.347886,13.734051 32.00186,13.719626 32.207826,13.275714 32.297191,13.120309 32.085183,12.499768 31.993026,12.490078 31.984143,12.454195 31.731562,12.418891 31.354152,12.552696 31.189982,12.643247 31.103558,12.342824 31.092334,12.341485 31.090526,12.332321 30.968408,12.310273 31.058782,12.171343 30.856956,11.147894 30.808718,10.906024 30.80314,10.905273 30.801227,10.894478 30.627035,10.858881 30.098535,10.758068 30.176929,10.650455 30.246055,10.559937 29.941424,10.467241 29.818581,9.273466 29.747986,9.257528 29.421104,9.186518 29.639921,8.874893 29.724854,8.753792 28.849574,7.976048 28.835852,7.768104 28.76658,7.759028 28.826938,7.654553 28.554963,6.562834 28.405226,6.566596 28.048163,6.57618 28.163439,6.260935 28.224369,6.091029 27.510001,5.525522 27.2143,5.577805 27.242459,5.441723 27.260056,5.353427 26.384751,4.777592 26.339315,4.747678 26.31626,4.755048 26.31777,4.735195 26.179534,4.657997 25.587134,4.0003 25.483988,4.047746 25.399886,4.085078 25.396834,3.816951 25.061141,3.570297 24.809123,3.386582 24.627047,3.50166 24.501544,3.579318 24.443721,3.168584 23.986167,2.963139 23.957261,2.950776 23.74712,3.129799 23.622589,3.234527 23.497755,2.805374 23.04932,2.70292 22.859028,2.920367 22.756754,3.03668 22.578181,2.649787 22.159409,2.624664 22.121725,2.622965 21.973454,2.851722 21.895064,2.973818 21.670687,2.629825 21.247507,2.655147 21.205963,2.657065 21.097041,2.895371 21.033368,3.036686 20.752612,2.714857 20.286273,2.821456 20.213007,3.075266 20.16753,3.234529 19.844353,2.9568 19.44891,3.134853 19.345307,3.17898 19.310316,3.42639 19.288558,3.579317 18.986137,3.385537 18.707059,3.590878 18.394409,3.818033 18.392035,3.985452 18.390246,4.085051 18.205845,3.998408 18.080808,4.13801 17.610396,4.658128 17.472549,4.735276 17.473868,4.755043 17.450862,4.747655 16.72874,5.222375 16.531286,5.352424 16.575828,5.577806 16.419444,5.550062 16.275237,5.524542 15.989927,5.745005 15.565493,6.083118 15.597083,6.170301 15.741962,6.576183 15.338019,6.566266 15.222591,6.563256 15.09936,7.040242 14.961595,7.649564 14.988977,7.697484 15.023518,7.759056 14.94987,7.76985 14.942721,7.845805 14.940526,7.976073 14.447813,8.372369 14.052924,8.735792 14.145014,8.867008 14.369007,9.186533 13.966641,9.277554 13.924478,9.664301 13.848699,10.467242 13.72152,10.504335 13.535707,10.560899 13.691591,10.758064 13.403238,10.816492 12.989985,10.898684 12.889019,11.424274 12.730974,12.182304 12.732304,12.183864 12.731505,12.186683 12.760225,12.229778 12.821724,12.310277 12.699263,12.334402 12.697785,12.341489 12.687256,12.342882 12.665373,12.420125 12.600145,12.643247 11.997448,12.465526 11.946472,12.440885 11.805255,12.459568 11.797106,12.490048 11.7147,12.499326 11.507791,13.117815 11.479782,13.195054 11.590635,13.424933 11.788267,13.719611 11.278399,13.750401 11.265956,13.784715 11.163506,13.790864 11.016241,14.063217 10.641647,14.697739 10.656351,14.75325 10.692348,14.847488 10.5594,14.837059 10.54544,14.860706 10.510359,14.859749 10.459387,14.93655 10.099417,15.394615 9.788481,15.44302 9.607084,15.381502 9.64125,15.576206 9.577542,15.610023 9.662943,15.788093 9.474538,15.77218 9.29427,15.760393 9.04593,15.89222 8.600966,15.887423 8.675606,16.1944 8.583076,16.267773 8.769379,16.654987 8.369446,16.644009 7.924475,16.641367 7.776831,16.841012 7.735002,16.842614 7.705563,16.908454 7.727242,16.954804 7.65065,17.027938 7.767334,17.197781 8.044317,17.615862 7.466518,17.695566 7.330368,17.717698 7.279144,17.816251 7.117743,18.574923 7.24532,18.711463 7.456828,18.946302 7.003119,19.098128 6.985177,19.594198 6.969398,20.635897 6.92261,20.661036 6.953024,20.689184 6.931009,20.698278 6.034092,21.084669 6.065581,21.939476 6.096414,22.356641 6.269883,22.503547 6.429799,22.651894 6.148159,22.779052 6.174682,22.995799 6.229552,23.331334 5.653118,23.342976 5.356387,23.395068 5.42075,23.937921 5.490446,24.506659 5.6305,24.643225 5.755349,24.781886 5.537391,24.878185 5.563188,24.999639 5.598411,25.170748 4.983745,25.164905 4.743561,25.292974 4.744074,25.29738 4.6755,25.344696 4.842975,25.98807 5.020664,26.86391 4.878237,26.89257 4.561204,26.957675 4.621947,27.02486 4.54614,27.052159 4.900473,27.350534 4.568445,27.580269 4.098319,27.936743 4.119531,28.047524 4.023289,28.130703 4.228856,28.724634 4.430622,29.59267 4.262577,29.71896 3.964497,29.857181 4.034296,29.929922 3.96252,30.007751 4.337532,30.24819 4.129118,30.405231 3.30578,31.152039 3.3413,31.347816 3.171078,31.504578 3.458821,32.460179 3.858886,32.814213 4.081758,32.932352 3.614948,33.296916 3.640091,33.451364 3.556143,33.530222 3.708562,34.139256 3.834785,35.287184 3.935106,35.365604 3.996272,35.38734 3.858202,35.500138 3.864494,35.557355 3.834206,35.587528 3.877674,35.844263 3.952989,37.626752 4.009612,37.665388 4.050353,37.674404 3.958298,37.75239 3.960451,37.803356 3.938909,37.826614 3.969,38.062507 3.999569,39.778875 4.122562,39.850824 4.224136,39.863448 4.004607,40.061731 4.007236,40.209348 3.956678,40.269388 4.048744,40.981944 4.078817,41.883418 4.310586,41.99688 4.519392,42.008148 4.096848,42.423955 4.107355,42.738936 4.023814,42.850357 4.238961,43.981682 4.620771,44.1316 4.942553,44.136252 4.50155,44.624043 4.349464,44.880483 4.382993,45.237164 4.300059,45.363326 4.532517,46.117692 5.096333,46.275336 5.492675,46.260584 5.140871,46.724919 4.858082,47.263005 4.913327,47.545028 4.847419,47.663308 5.107849,48.258315 5.754632,48.352472 6.196672,48.305376 5.910128,48.773008 5.610592,49.445435 5.679703,49.666288 5.611438,49.817732 5.581284,49.884628 5.482103,49.882576 4.887331,49.757572 4.879944,49.638127 4.42351,49.64708 4.330579,49.629052 4.63951,48.791731 4.809524,48.499223 4.766455,47.802695 4.658273,47.788747 4.06793,47.581692 4.052614,47.444631 3.651618,47.414472 3.555902,47.383368 3.929494,46.557023 3.950206,46.528136 3.835789,45.504182 3.2227,45.220552 3.207703,45.135296 3.014387,45.1069 2.962841,45.084508 3.139345,44.746693 3.073779,44.373964 2.73601,43.936331 2.65816,43.010368 2.61858,42.832115 2.512662,42.773056 2.539358,42.736452 2.587308,42.691276 2.582516,42.669692 2.643234,42.566387 2.625563,41.220412 2.528041,40.629973 2.20368,40.419499 2.29575,40.30604 2.45303,40.17582 2.44227,40.110676 2.633384,39.821577 2.627185,39.404612 2.475845,38.406001 2.023384,38.07204 2.156536,37.920107 2.376838,37.752708 2.364544,37.671584 2.580883,37.37683 2.576532,37.31992 2.355777,36.02441 1.958394,35.698364 2.075281,35.571824 2.256419,35.44131 2.246635,35.383896 2.374888,35.224746 2.020423,33.279411 2.011612,33.239225 2.006728,33.234836 2.011079,33.230288 2.007778,33.216598 2.017048,33.206497 3.112998,31.492309 3.052932,31.451181 2.865179,31.269046 2.980646,31.128214 2.472766,30.771387 2.231695,30.517978 2.617763,30.095401 3.006935,29.79652 2.982385,29.709234 3.093223,29.597944 2.716335,28.107527 2.625943,27.801962 2.791823,27.747063 2.74805,27.699857 2.762396,27.690796 2.699819,27.642085 2.666506,27.606216 3.252633,27.065913 3.661506,26.766481 3.643157,26.693866 3.703294,26.651842 3.396651,24.957421 3.36904,24.823032 3.466429,24.819581 3.393778,24.751144 3.927165,24.426572 4.209622,24.262034 4.05276,22.620944 4.338573,22.613665 4.189613,22.483989 4.118435,22.420296 4.567011,22.230439 4.83882,22.103264 4.790409,21.101755 4.761354,20.493181 4.694487,20.430924 4.761923,20.404369 4.780155,20.146118 4.938932,20.138772 5.499477,20.068241 5.71917,19.968481 5.735276,19.137929 5.488185,18.883642 5.237935,18.581178 5.54173,18.451837 5.880479,18.334101 5.981638,17.947126 6.109465,17.333887 5.886991,16.9598 6.075285,16.896462 6.267888,16.859556 6.316392,16.837767 6.700561,16.168432 6.798504,15.95998 6.688419,15.694821 6.839195,15.658234 6.957097,15.654977 7.03528,15.630024 7.529028,15.052122 7.624193,14.911687 7.53774,14.680805 7.694232,14.652955 7.790345,14.659146 7.87459,14.639792 8.374624,14.095972 8.476505,13.954046 8.386611,13.765415 8.53281,13.743869 8.604502,13.748937 8.661056,13.738469 9.252227,12.89531 9.287267,12.835119 9.25435,12.788267 9.320303,12.778559 9.385774,12.615967 9.415169,12.707034 9.458879,12.756605 10.010008,12.660729 10.422818,12.661762 10.64193,12.043146 10.505469,11.885945 10.212326,11.52345 10.626245,11.454013 10.847696,11.433588 11.112613,10.36732 11.504843,10.783699 11.75233,10.993312 11.817558,10.631993 11.480537,10.172287 11.360784,10.010391 11.733934,9.957078 11.927979,9.925072 12.05038,9.077847 12.631532,9.23942 12.661534,8.791575 12.601517,8.681459 12.418751,8.404371 12.570639,8.397908 12.682156,8.374718 12.73648,7.902087 13.35576,7.707225 13.378329,7.112966 13.349391,7.050579 13.352259,7.035394 13.245997,6.837547 13.315827,6.837713 13.392078,6.824553 13.442822,6.555875 14.327724,6.004692 14.238644,5.687321 14.138114,5.403006 14.316518,5.412551 14.585394,5.404065 14.847981,4.550095 15.162749,4.320963 15.149337,4.247479 15.13355,4.17993 15.317934,4.207997 15.318739,4.207411 15.333885,4.209364 15.594233,4.046806 16.231055,3.663002 16.216123,3.394321 16.190478,3.1489 16.543893,3.25309 16.837038,3.330725 17.260776,3.104501 17.285056,2.686187 17.293318,2.318297 17.523099,2.417451 18.153264,2.679046 18.252364,2.63377 18.347479,2.106137 18.416864,1.677311 18.580254,1.772146 19.149649,2.104607 19.308572,2.028235 19.427062,1.663929 19.565984,1.223715 19.699237,1.327154 20.186915,1.715614 20.379648,1.670966 20.52659,1.375535 20.729606,0.957014 20.849035,1.08127 21.278384,1.542548 21.441857,1.533017 21.476589,1.482265 21.477576,1.482322 21.638462,1.253211 21.895064,0.871229" slic3r:type="contour"/>
    <polygon style="fill: black" points="9.358543,13.381661 9.719043,13.665369 9.880818,13.679944 9.436297,13.047239" slic3r:type="hole"/>
  </g></svg>