<svg width="43.790126" height="63.590156" xmlns="http://www.w3.org/2000/svg" xmlns:svg="http://www.w3.org/2000/svg" xmlns:xlink="http://www.w3.org/1999/xlink" xmlns:slic3r="http://slic3r.org/namespaces/slic3r"><g xmlns="http://www.w3.org/2000/svg" slic3r:z="2.97049999999999e-005" id="layer89">
    <polygon style="fill: white" points="13.830818,60.318328 14.116018,61.136392 13.695211,61.476707 13.128835,61.888875 13.012178,61.527771 12.781919,60.699024 13.285794,60.351851 13.74157,59.99448" slic3r:type="contour"/>
    <polygon style="fill: white" points="11.675382,59.689736 11.879367,60.393987 11.326874,60.794823 10.864353,61.095347 10.723919,60.580751 10.567148,59.889544 11.216019,59.488959 11.574442,59.237552" slic3r:type="contour"/>
    <polygon style="fill: white" points="9.572653,58.970423 9.691223,59.54294 8.970192,59.984207 8.635654,60.165992 8.498244,59.472835 8.417399,58.941308 9.243438,58.511007 9.482902,58.369631" slic3r:type="contour"/>
    <polygon style="fill: white" points="4.834219,55.204275 4.658243,55.788477 5.649872,56.371608 6.032006,56.2757 6.023583,56.340912 6.008614,56.514407 6.633532,56.730452 7.156451,57.566145 7.49347,57.434435 7.589952,57.391388 7.621222,58.157784 7.632071,58.279792 8.070579,58.819436 7.670543,58.725427 7.496417,58.795672 7.322573,58.735116 6.725471,59.010256 6.549768,59.08034 6.493595,58.446353 5.960382,58.260616 4.881788,57.918168 4.835492,57.83496 4.800419,57.782827 4.797672,57.783536 4.79587,57.778291 4.718982,57.794476 4.720702,57.773604 4.731822,57.680863 4.727817,57.674911 4.733708,57.59737 4.478066,56.853336 4.223145,56.279347 4.200529,56.280328 4.183459,56.191356 4.120391,56.192612 3.315329,56.195772 3.384284,55.962192 3.694189,55.009544 4.245627,55.008316 4.904444,54.989764" slic3r:type="contour"/>
    <polygon style="fill: white" points="3.626853,53.521015 4.106135,53.609404 3.924343,53.943707 3.518456,54.695284 2.901444,54.583099 2.316561,54.475408 2.526132,54.0747 2.901708,53.382908" slic3r:type="contour"/>
    <polygon style="fill: white" points="2.525204,50.027796 3.183317,50.467188 3.126109,50.542936 3.019581,50.7012 3.27963,50.925995 3.097223,51.328832 2.849885,51.872856 3.29482,52.034159 3.570323,52.137699 3.244968,52.538152 2.819101,53.079596 1.999304,52.820312 1.66647,52.706143 2.066459,52.167688 2.161393,52.040013 1.828128,51.778392 1.3464,51.384699 1.438015,51.216864 1.51586,51.032106 1.229717,50.834336 1.33073,50.703323 2.034956,49.736352" slic3r:type="contour"/>
    <polygon style="fill: white" points="2.013872,47.045008 2.723934,47.695816 2.711437,47.715152 2.72819,47.727112 2.720866,47.736628 2.048107,48.651439 1.897028,48.868487 1.798384,48.787383 1.451184,48.546256 0.764136,48.04296 0.783512,48.018491 0.814073,47.978091 0.810249,47.974948 0.812708,47.971941 0.746619,47.914516 0.776273,47.874667 1.602213,46.712152" slic3r:type="contour"/>
    <polygon style="fill: white" points="1.656124,42.898415 2.282035,43.69292 2.242656,43.763619 2.162089,43.874707 2.171939,43.88268 2.168462,43.888132 2.30783,43.990288 2.255437,44.046488 1.421385,45.077652 0.997218,44.773571 0.331149,44.215492 0.383,44.153272 0.48136,44.0437 0.471059,44.033055 0.494582,44.003653 0.294437,43.792276 0.39634,43.654075 1.192971,42.428012" slic3r:type="contour"/>
    <polygon style="fill: white" points="1.670543,35.549712 2.068376,35.877195 1.590382,36.212292 1.062796,36.729983 1.11922,36.894588 1.03834,36.975646 1.645253,37.836096 2.017552,38.57694 1.828038,38.947804 1.47439,39.405969 1.560645,39.489628 1.530443,39.541448 2.044926,39.937996 1.849485,40.108823 1.098562,40.957032 0.590829,40.583167 0.058959,40.05358 0.219297,39.866951 0.539445,39.563397 0.50279,39.5134 0.637426,39.35116 0.02733,38.46206 0.468205,37.870608 0.981606,37.018305 0.947099,36.991264 0.854272,36.886864 0.957058,36.701622 0.356231,36.210499 0.07634,35.86712 0.471761,35.447427 1.124416,34.948764" slic3r:type="contour"/>
    <polygon style="fill: white" points="2.135134,30.789736 2.250743,31.832256 2.371157,31.996708 2.421287,32.039888 2.282298,32.116825 2.287121,32.160315 2.269995,32.174971 2.324131,32.302028 2.36068,32.445842 1.759109,33.44452 1.153028,34.043532 0.588646,32.167755 0.413423,31.929412 0.444354,31.90094 0.498001,31.866489 0.493278,31.85079 0.532654,31.815748 0.470881,31.552498 0.645934,31.354772 1.812044,29.644087" slic3r:type="contour"/>
    <polygon style="fill: white" points="2.482848,27.46924 2.368885,27.616082 2.777954,28.240282 3.157993,28.572706 2.725745,28.765149 1.973166,29.291336 1.96469,29.487866 1.801612,29.607099 1.806833,29.625613 1.745897,29.566681 1.641503,29.406714 1.803641,29.169036 1.33331,28.711673 1.130074,28.372528 1.634059,27.989475 2.315542,27.637375 2.298889,27.405946 2.360406,27.359828 2.400569,27.34026" slic3r:type="contour"/>
    <polygon style="fill: white" points="22.005242,2.649393 22.04667,2.715745 22.088637,2.715928 22.092649,2.723138 22.146889,2.72414 22.341206,2.723304 22.345297,2.715814 22.365648,2.71872 22.531636,2.472028 22.6367,2.657502 22.676974,2.72186 22.721034,2.72167 22.748414,2.770667 22.938141,2.782559 23.164902,2.485318 23.28092,2.729919 23.326299,2.806888 23.404754,2.811805 23.476939,2.935044 23.841696,2.535192 23.972287,2.906504 24.126494,2.875102 24.545758,2.662678 24.588727,2.747736 24.617166,2.773659 24.693671,2.748468 24.690864,2.840832 24.754458,2.898797 24.873777,3.47197 25.409777,3.576724 25.547881,3.595226 25.540152,3.620675 25.531569,3.644621 25.518572,3.739151 25.379074,4.406187 25.489025,4.456044 25.924107,4.533135 25.790576,4.648422 25.728482,4.760436 26.042102,4.865552 25.866739,5.39 25.998994,5.448303 26.283124,5.461674 26.05216,5.645543 25.891224,5.951326 26.08826,5.957969 26.504988,6.032992 26.435924,6.317696 26.521726,6.34773 26.683478,6.335062 26.370928,6.585623 26.272488,6.991423 26.581017,7.100347 26.7414,7.122248 26.844142,7.10839 26.987769,7.144224 27.03365,7.132911 27.083026,7.125595 27.07953,7.170318 27.12136,7.171817 27.073678,7.215003 27.077233,7.302615 27.083858,7.910209 27.265813,7.959072 27.550588,8.025541 27.226917,8.325553 27.117547,8.438368 27.141216,8.578826 27.426375,8.640693 27.834717,8.760018 27.693842,8.914437 27.470314,9.142006 27.611111,9.156432 27.980442,9.221788 27.999531,9.205259 28.03333,9.1733 28.043399,9.232838 28.07066,9.23614 28.047351,9.263966 28.064087,9.366292 28.075162,9.46392 28.291038,9.452208 28.215215,9.896502 28.472617,9.705036 28.691948,9.618358 28.803236,9.914846 28.917647,9.919479 29.518544,9.868364 29.570777,9.925687 29.617798,9.893024 29.62657,9.91411 29.658958,10.005572 29.661704,10.008121 29.667321,10.021715 30.059395,10.386913 30.215648,10.533572 30.313971,10.460437 30.724184,10.188622 30.799059,10.396526 31.028588,11.107757 31.528385,10.764824 31.8114,10.586152 31.932321,10.984211 32.028168,11.331864 32.184891,11.354434 32.217409,11.334125 32.57392,11.072404 32.73258,10.95661 32.869744,11.391123 33.082555,11.416019 33.161717,11.420539 33.316271,11.271782 33.394296,11.192288 33.490729,11.408057 33.61323,11.407878 33.645896,11.34307 33.683488,11.264562 33.743968,11.331202 33.755372,11.223296 33.968089,11.315931 33.948008,11.148172 33.942304,11.018088 34.323416,11.081516 34.320228,10.77408 34.332688,10.570898 34.804708,10.671339 34.964411,10.346428 35.110964,10.087346 35.510571,10.384924 35.604527,10.477545 35.811128,10.329952 36.133872,10.143957 36.307819,10.639822 36.335003,10.744234 36.53966,10.683298 36.957991,10.607415 36.949203,11.077715 36.935407,11.242423 37.127652,11.236238 37.590356,11.270436 37.4748,11.677383 37.39476,11.906292 37.583212,11.945878 38.05094,12.090581 37.857507,12.427906 37.691885,12.688861 37.855407,12.760467 38.310152,12.990948 38.068699,13.268725 37.813966,13.535449 37.976316,13.633107 38.427996,13.925214 38.17406,14.154362 37.798962,14.460117 37.989724,14.58879 38.465791,14.887972 38.242191,15.06857 37.714676,15.466496 37.929508,15.605817 38.507688,15.860549 38.394443,15.951722 38.277407,16.055082 38.5684,16.362584 38.340514,16.80321 38.49196,16.89274 38.638684,16.955636 38.210539,17.33241 37.919469,17.673956 38.701221,18.106849 38.940264,18.16951 38.895954,18.214336 38.971292,18.250036 38.930335,18.370228 38.516742,19.190719 39.192152,19.439136 39.52602,19.539704 39.305406,20.015198 39.333752,20.026266 39.25241,20.185528 39.57768,20.449364 40.180154,21.043774 40.200384,21.052154 40.206436,21.053886 40.198934,21.063729 40.228652,21.10782 40.555008,22.430557 40.569269,22.719477 40.671772,22.769706 40.69466,22.875217 40.974536,22.95537 40.881524,23.060071 40.775883,23.249653 40.944404,24.026511 40.96,24.771885 41.175948,24.895038 41.20183,25.103709 41.813588,25.355598 41.596944,25.55981 41.257558,26.101453 41.207676,26.718036 40.812169,26.30668 40.520904,26.199846 39.796664,25.664548 39.833676,25.58094 39.969881,25.43064 39.94282,25.402494 40.095388,25.075296 39.30976,24.27947 39.176239,23.520328 39.124859,23.487961 39.121871,23.470719 39.046736,23.445542 38.991528,23.408374 39.076283,23.207634 39.003495,22.787587 38.775405,21.908302 38.618204,21.827798 38.614543,21.793078 38.417972,21.731796 38.273104,21.647484 38.528321,20.975389 38.485748,20.571641 38.306252,20.508028 38.309191,20.494194 37.949648,20.35919 37.654464,20.22863 37.828024,19.729203 38.114767,19.286712 37.45808,18.971081 37.075508,18.848118 37.086853,18.812189 37.0568,18.799511 37.071475,18.775694 37.175433,18.628569 37.582717,17.768759 36.899219,17.421248 36.677112,17.28431 36.931345,16.955664 36.834496,16.846594 36.602896,16.661473 36.81134,16.357648 36.87654,16.242064 36.523732,16.002821 36.67448,15.849553 37.242548,15.450809 36.987287,15.284315 36.47664,14.953369 36.762615,14.707672 37.110543,14.455954 36.910331,14.334678 36.441952,14.072006 36.758907,13.806157 36.970901,13.628838 36.834628,13.567517 36.357492,13.375542 36.650663,13.076769 36.755326,12.965963 36.213152,12.85044 36.456132,12.459375 35.994356,12.452318 36.086342,12.103123 35.741396,12.175168 35.729858,11.949866 35.614671,12.01964 35.628112,12.128441 35.45556,12.089177 35.430128,12.148678 35.40136,12.416103 35.338584,12.442276 35.343788,12.477986 35.323188,12.474358 35.294833,12.468493 35.290379,12.470974 35.286018,12.470308 34.857144,12.700446 34.829133,12.715186 34.828347,12.733494 34.787164,12.746509 34.773732,12.953668 34.664679,12.908842 34.553449,12.860266 34.543824,12.865331 34.485178,12.841948 34.153506,12.946767 34.118916,13.008163 34.049257,13.011614 33.926332,13.256047 33.830895,13.159792 33.751986,13.075974 33.750035,13.076602 33.706247,13.028604 33.183802,13.054484 33.109558,13.059497 33.088857,13.077799 33.060682,13.076252 32.972394,13.162688 32.956982,13.117347 32.937515,13.071113 32.934405,13.071323 32.933677,13.069279 32.62766,13.05248 32.220539,12.741058 32.133485,12.801386 32.065986,12.855159 32.007324,12.577962 31.963554,12.54448 31.948653,12.490674 31.537856,12.153247 31.3069,12.309085 31.110396,12.460518 31.009171,11.94051 30.929221,11.623683 30.814883,11.521596 30.431156,11.813158 30.113508,12.084935 30.022072,11.714064 29.935515,11.432241 29.680012,11.424516 29.660152,11.441722 29.45488,11.446869 29.079542,11.801409 29.014232,11.588091 28.967519,11.459093 28.397805,11.473382 28.152175,11.471785 28.136444,11.483784 28.094337,11.481618 28.033764,11.536444 28.016317,11.477605 27.836216,11.468341 27.336649,10.938449 27.251818,10.987457 27.033942,11.109449 26.965686,10.591595 26.772607,10.562965 26.313684,10.613051 26.34999,10.427268 26.365044,10.256549 26.338838,10.191924 26.325876,10.155153 26.278046,10.148612 26.271382,10.126106 25.872752,10.102869 26.02777,9.879571 26.136506,9.66554 26.098585,9.526403 26.035286,9.511614 26.032314,9.492093 25.490952,9.35654 25.735332,9.093805 25.918262,8.864771 25.899654,8.796497 25.857671,8.784382 25.226072,8.578894 25.547762,8.261671 25.755865,8.038197 25.252828,7.915279 24.96437,7.830993 25.153019,7.614159 25.012808,7.573344 24.849134,7.592449 24.956928,7.250654 24.965245,7.134066 24.656546,7.020122 24.809177,6.803237 25.00537,6.571565 25.026272,6.278556 24.385098,6.094083 24.286972,6.057815 24.336732,5.979943 24.255643,5.981113 24.531374,5.564141 24.579299,5.374876 24.4567,5.3339 23.950108,5.111579 24.141754,4.772237 23.861164,4.842559 24.020641,4.671887 23.87193,4.570161 23.748658,4.544941 23.730282,4.692051 23.680945,4.439513 23.416294,4.258473 23.332056,4.388849 23.201592,4.756579 23.172281,4.692217 22.863158,4.217359 22.712511,4.495386 22.752022,4.586993 22.702508,4.774512 22.566438,4.764567 22.558528,4.780277 22.54905,4.763553 21.909743,4.754132 21.895064,4.780805 21.879508,4.753316 21.242216,4.763046 21.2316,4.780308 21.222522,4.763551 21.08769,4.77454 21.153149,4.641958 20.954496,4.297308 20.909307,4.382968 20.588538,4.756582 20.529764,4.669073 20.358452,4.35569 20.308552,4.472966 20.05987,4.692047 19.975437,4.577756 19.927232,4.534204 19.868609,4.592145 19.928948,4.842595 19.654457,4.920074 19.84001,5.11158 19.459106,5.170884 19.275053,5.256343 19.4678,5.76032 19.534484,5.981089 19.460049,6.007611 19.503144,6.057823 19.13492,6.123456 18.760015,6.257037 18.815133,6.663737 19.133574,7.020128 18.939805,7.051247 18.871213,7.077541 18.940994,7.592439 18.693239,7.670162 18.825752,7.830998 18.246492,7.928371 18.015475,8.000163 18.263908,8.254727 18.564056,8.578896 18.142688,8.680742 17.900738,8.761264 17.879564,8.834389 17.965827,8.933889 18.299167,9.356539 17.944444,9.436467 17.759392,9.483035 17.754809,9.51163 17.682936,9.527705 17.666209,9.588491 17.686518,9.622403 17.917342,10.102904 17.62806,10.129847 17.51544,10.136333 17.512047,10.148661 17.43955,10.159107 17.476414,10.613075 17.302164,10.561914 17.206492,10.550571 16.841501,10.655337 16.798432,10.65912 16.78607,10.770967 16.756173,11.109483 16.414972,10.908902 16.23858,11.070171 15.953978,11.468299 15.779228,11.469744 15.756362,11.536414 15.721557,11.510207 15.687316,11.480668 15.653639,11.483742 15.617889,11.456894 15.10789,11.410991 14.852784,11.419021 14.710573,11.80139 14.509146,11.640952 14.283696,11.436935 14.129921,11.441775 14.071894,11.392794 13.883484,11.402624 13.831222,11.596205 13.676588,12.084949 13.314161,11.819246 12.965455,11.531592 12.880103,11.596659 12.755622,12.169583 12.679759,12.460515 12.175331,12.133923 11.883293,12.356549 11.826528,12.544499 11.794581,12.565133 11.750012,12.758042 11.724112,12.855186 11.537025,12.731489 11.449336,12.788127 11.162436,13.052491 10.903934,13.061731 10.860715,13.065159 10.817706,13.162688 10.772446,13.127163 10.717528,13.076514 10.701251,13.077806 10.685044,13.064074 10.122317,13.040168 10.07803,13.037024 10.040148,13.076612 10.03229,13.074125 9.863795,13.256049 9.781728,13.14535 9.7066,13.010659 9.671192,13.008147 9.63782,12.949281 9.337506,12.854237 9.302257,12.842912 9.246286,12.865325 9.231647,12.857523 9.016361,12.953667 8.999904,12.854153 8.990455,12.742734 8.961721,12.733502 8.960943,12.71324 8.52757,12.482254 8.504617,12.470145 8.499623,12.470975 8.493035,12.467719 8.4463,12.477979 8.452278,12.447568 8.388831,12.416202 8.288017,12.087809 8.23738,12.100716 8.162017,12.128436 8.180553,12.03726 8.171301,11.981379 8.060302,11.850631 7.990768,11.884246 8.048747,12.175151 7.57766,11.938422 7.795754,12.452334 7.400528,12.400656 7.275747,12.39983 7.576957,12.850468 7.186583,12.924482 7.039519,12.95523 7.432631,13.375547 7.061989,13.547968 6.834196,13.642092 6.956759,13.744858 7.348172,14.072053 7.016106,14.277966 6.664313,14.478614 6.87933,14.657262 7.31349,14.953365 7.041493,15.131167 6.513424,15.473864 6.739619,15.691357 7.266399,16.002752 7.121844,16.083359 6.92525,16.213348 7.187234,16.661424 6.858838,17.009666 6.990244,17.17453 7.113016,17.284304 6.601985,17.512078 6.190977,17.761153 6.620816,18.653362 6.733326,18.799522 6.696136,18.809702 6.714631,18.848094 6.658282,18.876809 5.644993,19.30864 5.930423,19.950638 6.135664,20.228622 5.47913,20.474671 5.483884,20.507942 5.37527,20.537905 5.352812,21.068006 5.297368,21.300827 5.418947,21.547648 5.517025,21.647466 5.192903,21.739491 5.171864,21.82784 5.118079,21.849196 5.086006,22.165306 4.722716,23.307355 4.759532,23.375025 4.798596,23.408374 4.67908,23.44453 4.665264,23.487961 4.645158,23.497958 4.638529,23.629282 4.4804,24.279369 4.014821,25.112685 3.780053,25.289214 3.847257,25.402472 3.793296,25.479941 3.99345,25.664574 3.902142,25.693574 3.46016,25.958211 3.208769,26.319121 2.582405,26.718036 2.59031,26.263671 2.299149,25.955854 1.976519,25.35565 2.250476,25.18217 2.611761,25.030661 2.614121,24.89507 2.933446,24.683644 3.052471,23.451635 2.815588,22.955366 2.943945,22.889721 3.111653,22.839051 3.118351,22.769706 3.304522,22.662191 3.561552,21.107604 3.591537,21.074028 3.582943,21.054264 3.623844,21.03419 4.551916,20.226013 4.456423,20.02614 4.502896,20.005469 4.369758,19.721529 4.264144,19.53963 4.78297,19.327848 5.310495,19.163587 5.209779,18.83248 5.081805,18.565299 4.818826,18.25009 4.88441,18.223804 4.849866,18.16953 4.905011,18.144066 5.41679,17.968432 5.465134,17.945772 5.859717,17.692359 5.329734,17.168426 5.151443,16.955612 5.482419,16.755697 5.399953,16.578733 5.221724,16.362639 5.44526,16.199459 5.540761,16.09282 5.28244,15.860576 5.435626,15.757882 6.054501,15.441709 5.810503,15.24802 5.324315,14.887968 5.59208,14.705628 5.996023,14.445773 5.786502,14.261455 5.362151,13.92516 5.672821,13.740785 5.997318,13.535445 5.835601,13.353946 5.479963,12.990976 5.828199,12.843336 6.12306,12.699894 5.996593,12.485479 5.7392,12.090548 6.119999,12.01947 6.426866,11.93324 6.347287,11.669706 6.1998,11.270422 6.607453,11.294512 6.882453,11.282386 6.871452,10.978697 6.832117,10.607414 7.248556,10.743951 7.475622,10.792778 7.589801,10.443833 7.656229,10.143958 8.033968,10.426525 8.199012,10.528727 8.530541,10.260931 8.679193,10.087351 8.898365,10.545613 8.988939,10.714806 9.306469,10.634111 9.45744,10.570896 9.445339,11.107704 9.746952,11.048556 9.847819,11.01809 9.805793,11.328933 9.961095,11.259436 10.034751,11.223306 10.042237,11.330683 10.106609,11.264536 10.182075,11.41211 10.29161,11.412207 10.34362,11.298055 10.395838,11.192287 10.619899,11.403945 10.929636,11.369626 11.001287,11.14128 11.057568,10.956609 11.446183,11.242496 11.583717,11.343148 11.774215,11.31709 11.903568,10.878384 11.978694,10.58617 12.266299,10.789809 12.763824,11.115419 12.943996,10.596608 13.065941,10.188625 13.217054,10.306504 13.562431,10.546888 14.123031,10.021935 14.128421,10.00815 14.139688,9.997148 14.172331,9.893024 14.211268,9.927259 14.27159,9.868363 15.050297,9.884947 15.096351,9.746995 15.098221,9.618355 15.277944,9.795632 15.442695,9.893304 15.535598,9.895282 15.517144,9.751152 15.499045,9.452227 15.766563,9.434539 15.778478,9.373447 15.758771,9.282909 15.731842,9.250787 15.719435,9.23617 15.748777,9.23102 15.756752,9.173362 15.816193,9.224327 16.36521,9.156608 16.255961,9.038697 15.955384,8.760062 16.298758,8.684263 16.654497,8.598089 16.674764,8.479561 16.449651,8.265523 16.239522,8.025574 16.732145,7.894328 16.738871,7.77533 16.72105,7.245084 16.684464,7.205381 16.668744,7.171788 16.713362,7.161582 16.707139,7.125492 16.780313,7.14627 16.892042,7.120715 17.481406,6.962493 17.20553,6.628845 17.106654,6.335031 17.384479,6.24258 17.285138,6.032973 17.687088,6.059905 17.802189,6.042103 17.73535,5.966071 17.50701,5.461659 17.971716,5.261086 17.953328,5.196896 17.748024,4.865534 17.943338,4.860362 18.019392,4.83629 17.86601,4.533139 18.245295,4.366425 18.391216,4.31893 18.271427,3.738503 18.253377,3.621319 18.241326,3.596227 18.264156,3.590663 18.887445,3.463163 19.035658,2.898753 19.093919,2.832836 19.096434,2.748459 19.150599,2.76871 19.244299,2.662697 19.803934,2.809983 19.948454,2.535201 20.218242,2.872677 20.250623,2.907947 20.339509,2.887621 20.385294,2.811807 20.432068,2.805973 20.625224,2.485332 20.770576,2.707376 20.808838,2.757657 21.057783,2.741284 21.069092,2.721686 21.101228,2.721117 21.258481,2.47202 21.368916,2.652688 21.411007,2.715626 21.530424,2.713511 21.742863,2.714431 21.895064,2.470936" slic3r:type="contour"/>
    <polygon style="fill: white" points="41.49136,27.405972 41.494988,27.533629 41.473303,27.644548 42.215512,28.14534 42.660072,28.372634 42.230932,28.747859 41.981071,29.108842 42.011087,29.140723 42.148664,29.40672 41.979386,29.636096 41.984831,29.607249 41.936155,29.583677 41.825508,29.487878 41.834765,29.305473 41.06526,28.9382 40.632144,28.572728 40.818724,28.222068 41.436559,27.598909 41.307448,27.469256 41.355984,27.37415 41.38972,27.340312" slic3r:type="contour"/>
    <polygon style="fill: white" points="42.689412,30.362584 43.319187,31.552262 43.306108,31.726266 43.273495,31.83233 43.296784,31.850702 43.291539,31.87591 43.376676,31.92935 43.343888,31.956691 43.251441,32.068611 43.009332,33.23213 42.637043,34.04352 41.569256,32.590262 41.429436,32.445781 41.529856,32.187149 41.502967,32.160312 41.507074,32.138551 41.418744,32.087522 41.368848,32.03994 41.595957,31.667626 41.977968,29.643614" slic3r:type="contour"/>
    <polygon style="fill: white" points="43.290744,35.548736 43.713788,35.867152 43.234396,36.241147 42.833189,36.681143 42.855948,36.711988 42.935892,36.886796 42.814005,37.010829 43.405564,37.77506 43.762796,38.46206 43.545184,38.912404 43.190276,39.406688 43.287288,39.513284 43.23716,39.58862 43.731168,40.053508 43.492612,40.225099 42.691588,40.957104 42.219104,40.532103 41.7452,39.938032 41.899472,39.786595 42.246318,39.515108 42.22946,39.489528 42.354571,39.356056 41.772576,38.576904 42.1737,37.986667 42.750078,36.983945 42.67088,36.894532 42.734597,36.743459 42.03554,36.231576 41.721752,35.877208 42.032544,35.493155 42.665724,34.948891" slic3r:type="contour"/>
    <polygon style="fill: white" points="42.992036,42.957596 43.495688,43.792392 43.424875,43.881616 43.30065,44.011138 43.319076,44.033152 43.306786,44.046283 43.45898,44.215564 43.368296,44.280155 42.368596,45.077724 42.016379,44.695511 41.4823,43.990252 41.526716,43.953215 41.591492,43.905488 41.634263,43.868903 41.5081,43.692815 41.592788,43.605852 42.597088,42.428088" slic3r:type="contour"/>
    <polygon style="fill: white" points="42.506427,47.139379 43.043488,47.914536 43.01934,47.936023 42.977541,47.9723 42.979783,47.975036 42.976482,47.977688 43.025952,48.043104 42.984639,48.071784 41.988938,48.786924 41.892996,48.868648 41.789066,48.721237 41.561167,48.424299 41.061939,47.72702 41.07929,47.714508 41.079227,47.714419 41.079261,47.714395 41.066192,47.695724 41.075423,47.688252 42.187852,46.711972" slic3r:type="contour"/>
    <polygon style="fill: white" points="42.101271,50.186583 42.560415,50.834392 42.464119,50.890456 42.283023,51.016006 42.44372,51.384812 42.0399,51.703235 41.625148,52.035495 41.93722,52.455496 42.123656,52.706152 41.613896,52.862383 40.970968,53.079744 40.417804,52.391068 40.219808,52.13772 40.826876,51.918975 40.942764,51.875905 40.758023,51.467547 40.51048,50.926088 40.636764,50.830859 40.771893,50.712234 40.606824,50.46714 40.724324,50.397827 41.75516,49.736312" slic3r:type="contour"/>
    <polygon style="fill: white" points="41.21536,54.004988 41.47358,54.475388 41.0995,54.543207 40.271795,54.695316 39.946319,54.095639 39.683975,53.60944 40.115388,53.526799 40.888432,53.382904" slic3r:type="contour"/>
    <polygon style="fill: white" points="40.095932,55.00952 40.242636,55.501584 40.474808,56.195752 40.269392,56.190928 39.642297,56.186861 39.057953,57.622631 39.0623,57.674859 39.056629,57.683821 39.071143,57.794468 39.053979,57.790251 38.997042,57.777986 38.908336,57.918164 37.282415,58.463791 37.24572,58.908512 37.240332,59.08036 36.521316,58.739316 36.494269,58.728278 36.293608,58.795616 36.131457,58.728882 35.71962,58.81942 36.14542,58.316333 36.188975,57.50676 36.200208,57.39138 36.647967,57.561796 36.8563,57.236215 37.156591,56.730456 37.54114,56.620563 37.778752,56.529195 37.758148,56.275676 37.831067,56.290191 38.187513,56.375903 38.427371,56.254544 39.13356,55.816279 39.106575,55.731815 38.88568,54.989796 39.142339,54.98914" slic3r:type="contour"/>
    <polygon style="fill: white" points="34.913315,58.677651 35.372728,58.941308 35.20358,59.819747 35.154484,60.166004 34.617427,59.829999 34.098892,59.54298 34.242687,58.667772 34.307208,58.369644" slic3r:type="contour"/>
    <polygon style="fill: white" points="32.658033,59.503867 33.223008,59.889544 33.034108,60.595683 32.925753,61.095368 32.537831,60.808579 31.910746,60.394032 32.077694,59.697867 32.215702,59.237547" slic3r:type="contour"/>
    <polygon style="fill: white" points="30.357773,60.202231 31.008226,60.699132 30.830821,61.257236 30.661272,61.888896 30.39312,61.668356 29.67411,61.136412 29.833337,60.5934 30.048544,59.994484" slic3r:type="contour"/>
    <polygon style="fill: white" points="28.136879,60.792027 28.852345,61.397988 28.693101,61.828312 28.451214,62.566368 28.280727,62.412043 27.583008,61.840787 26.713549,62.203945 26.639882,62.363 26.557733,62.386801 26.26225,63.097552 26.16665,62.999188 25.761935,62.617366 25.64107,62.652383 24.349907,63.004667 24.308462,63.078596 24.276314,63.082058 24.080602,63.445384 24.032788,63.387472 23.821993,63.148704 23.811218,63.151644 23.796616,63.13373 22.710959,63.250672 22.089527,63.312547 22.06475,63.348804 22.054092,63.347637 21.895064,63.57286 21.866001,63.529851 21.73809,63.347538 21.725378,63.348804 21.69815,63.308673 20.639968,63.192836 19.997227,63.129444 19.978908,63.151643 19.973213,63.149918 19.709524,63.445384 19.672495,63.377531 19.512799,63.081667 19.481664,63.078596 19.429196,62.985155 18.995314,62.853748 18.059366,62.604807 18.052637,62.61176 18.050871,62.610936 17.527872,63.097552 17.468793,62.965383 17.223513,62.382488 17.150244,62.362999 17.066647,62.18424 16.213722,61.841101 15.979856,62.049611 15.338924,62.566372 15.252089,62.334552 14.93774,61.398175 15.320051,61.102976 15.85294,60.641364 15.924537,60.85766 16.301223,61.788081 17.17609,61.844636 17.327417,61.708384 17.906284,61.14036 17.961055,61.271739 18.235833,61.840944 19.541849,61.889461 19.915532,61.462024 19.956053,61.537011 20.161195,61.886398 20.920039,61.889264 21.663424,61.897645 21.895064,61.578672 21.932363,61.631127 22.128247,61.901623 22.902066,61.899951 23.619553,61.891339 23.874596,61.462024 23.93483,61.527488 24.268101,61.905871 24.544861,61.90332 25.528865,61.861389 25.883846,61.14036 25.998575,61.241855 26.634065,61.855507 27.489049,61.790734 27.641523,61.353184 27.937222,60.641344" slic3r:type="contour"/>
  </g></svg>