<svg width="43.790126" height="63.590156" xmlns="http://www.w3.org/2000/svg" xmlns:svg="http://www.w3.org/2000/svg" xmlns:xlink="http://www.w3.org/1999/xlink" xmlns:slic3r="http://slic3r.org/namespaces/slic3r"><g xmlns="http://www.w3.org/2000/svg" slic3r:z="3.72949999999999e-005" id="layer112">
    <polygon style="fill: white" points="24.168963,59.959987 24.692968,60.600272 24.445692,61.080059 24.107484,61.768512 23.937237,61.550439 23.293688,60.767836 23.583116,60.192375 23.88887,59.617736" slic3r:type="contour"/>
    <polygon style="fill: white" points="26.285965,59.623299 26.79954,60.149772 26.554843,60.733288 26.316268,61.369 26.071848,61.104404 25.422506,60.457312 25.691214,59.775855 25.915814,59.257348" slic3r:type="contour"/>
    <polygon style="fill: white" points="28.492096,59.107196 28.941636,59.507276 28.689757,60.233192 28.536486,60.759884 28.178808,60.422688 27.59123,59.924092 27.852654,59.087115 27.994002,58.695116" slic3r:type="contour"/>
    <polygon style="fill: white" points="30.805583,58.434183 31.140993,58.701764 30.875476,59.607483 30.789426,59.978232 30.280107,59.547463 29.814764,59.198024 30.078165,58.157656 30.13994,57.957952" slic3r:type="contour"/>
    <polygon style="fill: white" points="34.735767,56.079203 35.546356,56.561468 35.493252,56.975219 35.412967,57.899776 35.358591,57.870607 35.05096,57.709542 34.87918,58.178284 33.247706,58.452591 33.147937,58.868752 33.116962,59.041432 32.492797,58.579517 32.35934,58.601956 32.268166,58.54197 31.30372,58.653368 31.688153,57.898656 31.890088,57.25718 32.162212,57.234355 32.320412,57.212878 32.355494,57.05958 32.39435,57.084164 32.530692,57.184329 32.536858,57.183492 32.554837,57.194636 33.398836,57.086671 34.354042,56.90622 34.479976,55.951248" slic3r:type="contour"/>
    <polygon style="fill: white" points="36.834295,54.819851 37.501743,55.0989 37.514668,55.727464 37.528864,56.459532 37.238632,56.35388 36.375176,56.037608 36.353276,55.352884 36.359564,54.651579" slic3r:type="contour"/>
    <polygon style="fill: white" points="38.654707,53.251232 39.126704,53.348716 39.276535,54.215791 39.356039,54.704148 38.820616,54.594988 38.170152,54.48276 37.958148,53.529532 37.90212,53.146824" slic3r:type="contour"/>
    <polygon style="fill: white" points="40.897632,51.802904 41.028304,52.010172 40.704394,52.206953 40.77238,52.42244 40.804575,52.52388 40.146308,52.545997 39.820012,52.744227 39.649219,52.767544 39.268512,52.968696 39.032676,52.311044 38.793508,51.792752 38.996708,51.704275 39.232549,51.572846 39.11868,51.203492 39.25704,51.171595 40.147322,51.055841 40.312204,50.948176" slic3r:type="contour"/>
    <polygon style="fill: white" points="42.364391,44.985775 42.680012,45.808572 42.432327,46.028356 41.786012,46.431166 41.925088,46.585352 41.862899,46.626652 41.917763,46.685943 42.436016,47.230004 41.99442,47.554211 41.310486,48.105072 41.701595,49.028147 41.909004,49.522936 41.439003,49.720088 40.722176,49.953772 40.26094,48.888484 40.073052,48.459628 40.883012,48.161655 41.077402,48.093261 40.555847,47.544335 40.344832,47.270624 40.752004,46.942315 41.461492,46.390665 41.202064,45.766344 40.763124,44.829256 41.352083,44.456152 41.904192,44.023496" slic3r:type="contour"/>
    <polygon style="fill: white" points="43.007816,38.201444 43.258448,38.358232 42.660716,38.840559 42.710284,39.021051 42.642506,39.087787 42.95076,39.756844 43.182544,40.469408 42.842336,41.003844 42.163206,41.695599 42.383224,41.908475 42.282909,42.023845 42.500167,42.230619 43.039368,42.660996 42.659311,42.958364 41.925248,43.641968 41.274592,43.133152 40.99218,42.816264 41.353064,42.445959 41.985735,41.922682 41.960364,41.86524 42.090142,41.727091 41.492436,40.118148 41.2113,39.458392 41.661267,38.987403 41.593404,38.924236 41.619551,38.872688 41.329367,38.692911 41.241899,38.609224 41.808679,37.95524 42.25204,37.573836" slic3r:type="contour"/>
    <polygon style="fill: white" points="42.31124,33.687203 42.25604,33.856549 42.568371,34.071631 43.166776,34.357312 42.900108,34.590744 42.215884,35.373696 41.578915,35.060955 41.160412,34.73556 41.447056,34.377063 42.080476,33.78898 42.044892,33.692356 42.109304,33.604075 42.144504,33.570151" slic3r:type="contour"/>
    <polygon style="fill: white" points="39.38896,22.219282 39.449515,22.313333 39.653564,22.376768 40.288132,22.4786 40.167895,22.618878 39.917641,23.040401 40.592604,24.088718 40.980278,24.791701 41.064164,24.81818 41.072359,24.838943 41.186272,24.858546 41.168088,24.879588 41.119696,24.958869 41.650059,26.302529 41.995922,27.558828 42.0383,27.575858 42.061228,27.580258 42.016277,27.632764 42.022656,27.655936 42.015432,27.666797 42.061156,27.783158 42.284516,28.542414 42.494332,30.161479 42.446913,30.544797 42.579904,30.617025 42.573667,30.665932 42.778168,30.734732 42.731628,30.780457 42.524336,31.052788 42.394903,32.067798 42.01962,32.980574 41.56308,31.707123 41.464528,31.671358 40.802491,31.279182 40.934447,31.096836 41.232435,30.784838 41.214212,30.734008 41.361133,30.502924 40.592523,28.475112 40.14104,28.27269 40.217032,28.156357 40.392538,27.947494 40.379412,27.912864 40.485083,27.722359 40.304408,27.077404 39.827935,25.800789 39.30574,25.610206 39.39338,25.468131 39.60267,25.197233 39.58466,25.14898 39.737066,24.854625 39.30042,23.484868 39.071035,23.438005 38.425964,23.22454 38.579387,22.971716 38.969433,22.446562 38.935996,22.341672 39.017211,22.186272 39.057004,22.127054" slic3r:type="contour"/>
    <polygon style="fill: white" points="37.724304,16.679344 38.302488,16.838934 38.14854,17.034103 37.940167,17.340572 38.704612,18.000842 38.63274,18.484848 38.768216,18.531354 38.874659,18.555878 38.574863,18.874605 38.534168,19.148657 38.500592,19.198948 38.440946,20.108006 39.092288,20.311728 39.492748,20.387846 39.211288,20.69993 38.785792,21.38484 38.026535,21.216643 37.618584,21.07286 37.89862,20.619611 38.266477,20.135668 37.714212,19.552694 37.509218,19.387399 37.37202,19.334238 37.296052,19.268592 37.037295,19.201163 36.981987,19.178534 37.056568,19.061646 37.004604,19.016742 36.91536,18.96061 37.132612,18.298579 37.192279,17.752686 37.025412,17.705464 36.39194,17.445608 36.59284,17.102407 37.08192,16.478262" slic3r:type="contour"/>
    <polygon style="fill: white" points="19.797645,6.670503 19.800756,6.670458 19.802548,6.673085 19.890232,6.679511 20.504523,6.768634 20.584515,6.670358 20.626262,6.601376 20.742992,6.802081 20.882612,6.820105 21.186851,6.879633 21.280459,6.769398 21.346616,6.678999 21.481474,6.924231 21.641532,6.93679 21.739987,6.948454 21.821796,6.829321 21.895064,6.725212 22.056014,6.961003 22.211469,6.948808 22.280261,6.940497 22.372438,6.781462 22.443534,6.679002 22.634138,6.896136 22.763753,6.879422 23.001061,6.830318 23.098794,6.678156 23.163856,6.601356 23.321967,6.783935 23.433966,6.775785 23.962944,6.690015 24.032265,6.60216 24.068988,6.565082 24.150616,6.681607 24.253501,6.68875 25.134537,6.696629 25.177869,6.651634 25.199464,6.630931 25.234099,6.697519 25.237277,6.697547 25.247916,6.716211 25.360948,6.745399 26.448839,7.007026 26.534993,6.928272 26.593186,6.877883 26.664177,7.058812 26.678605,7.062282 26.691624,7.091297 27.005806,7.190126 27.877911,7.463911 28.008317,7.350446 28.12033,7.259594 28.22385,7.572514 28.245093,7.579182 28.24653,7.583046 28.648318,7.67849 29.474918,7.880764 29.588738,7.785574 29.694324,7.702883 29.763336,7.934545 29.99812,7.955745 30.745514,8.016976 31.108024,8.197721 31.204341,8.240184 31.209826,8.23586 31.215065,8.240151 31.285187,8.19185 31.299387,8.251427 31.308975,8.286315 31.31146,8.28741 31.322518,8.328157 31.863916,8.771571 32.353109,9.094431 32.388398,9.068001 32.402944,9.085252 32.440856,9.086421 32.588481,8.99114 32.927098,8.785269 32.993759,9.094187 33.244232,9.055544 33.572047,9.024177 33.805668,9.448859 33.971995,9.711178 34.01122,9.712209 34.49997,9.806291 34.788428,9.696707 34.822244,9.868326 34.857971,9.875204 34.860143,9.886985 34.97344,9.887485 35.119575,9.912426 35.065483,10.517993 35.078701,10.600698 35.426583,10.681369 35.8777,10.865854 35.608311,11.323417 35.517243,11.425509 35.727496,11.49547 36.295135,11.772568 36.024935,12.100733 35.733746,12.345404 36.006323,12.435463 36.674672,12.735845 36.514463,12.952274 36.003452,13.445704 36.326678,13.596048 37.16726,13.883231 37.129526,13.948184 37.218336,13.981574 37.18596,14.667529 37.168537,15.07369 37.467736,15.171027 37.716664,15.249873 37.332835,15.769722 37.126599,16.051358 37.12268,16.142725 37.055119,16.119429 37.050344,16.17717 37.038517,16.171643 36.968024,16.267909 35.87994,15.915756 35.801024,15.881328 35.895792,15.719686 35.827296,15.696068 35.719144,15.667128 35.828436,15.055472 35.857175,14.695289 35.848976,14.691921 35.851292,14.665583 35.784307,14.644407 35.046796,14.400131 35.252212,14.037859 35.585013,13.541376 34.498148,13.111255 34.372635,13.064386 34.551818,12.856668 34.654227,12.706543 34.609204,12.64907 34.446079,12.709894 34.227904,12.755256 34.162588,12.251855 34.15062,12.135994 34.13072,12.127694 34.120526,12.083639 33.732192,11.964334 33.875504,11.857711 34.028287,11.675189 34.005089,11.514261 33.962067,11.424393 33.238568,11.233899 33.520528,10.990571 32.944968,10.930633 33.003925,10.687739 32.553056,10.748898 32.415752,10.486454 32.325382,10.540826 32.19274,10.621845 32.139194,10.456761 32.068893,10.243871 31.354638,10.328744 30.838416,9.951356 30.753355,10.013474 30.632842,10.105998 30.545571,9.77067 29.915862,9.463488 29.567461,9.296111 29.350576,9.464851 29.113936,9.648965 29.028631,9.386699 28.909406,9.041915 28.116279,8.79596 27.832144,9.029317 27.590596,9.209109 27.452958,8.856421 27.380049,8.648334 26.805538,8.546548 26.524462,8.519254 26.297024,8.724471 26.154792,8.830467 26.000075,8.497685 25.707866,8.474036 25.047558,8.505885 24.981993,8.576007 24.947728,8.604722 24.895011,8.515666 24.823376,8.514527 24.46374,8.577494 24.160615,8.50004 24.094767,8.49221 24.047084,8.558444 24.022977,8.530011 23.989335,8.481663 23.541705,8.446969 23.41085,8.449371 23.410006,8.450804 23.40692,8.450978 23.318124,8.605626 23.260224,8.545512 23.190273,8.463195 22.88826,8.480225 22.753113,8.492334 22.748244,8.501147 22.743794,8.501402 22.636246,8.696052 22.565511,8.619993 22.474554,8.51683 22.172089,8.534162 22.049881,8.541879 22.03718,8.560631 22.036456,8.560589 21.895064,8.757648 21.832285,8.669162 21.754508,8.560534 21.752956,8.560632 21.741519,8.543613 21.432774,8.525843 21.308653,8.518006 21.153856,8.696051 21.107132,8.606967 21.04952,8.501645 21.041874,8.501162 21.041505,8.50046 20.705042,8.47997 20.58364,8.469061 20.472,8.60563 20.436785,8.536086 20.396508,8.464122 19.854807,8.493101 19.785939,8.491755 19.743012,8.558445 19.725377,8.52954 19.704391,8.499259 19.326254,8.577498 18.873124,8.529882 18.85132,8.571886 18.842368,8.604722 18.77131,8.520293 18.590768,8.533043 17.742077,8.53503 17.673545,8.696444 17.635336,8.830466 17.342188,8.54311 16.723324,8.649304 16.380845,8.690658 16.279942,8.960661 16.199532,9.209113 15.942158,8.988625 15.711841,8.808859 15.065719,9.010167 14.879695,9.062076 14.777209,9.368009 14.67619,9.648964 14.452968,9.475299 14.228197,9.300427 13.822713,9.499346 13.271091,9.761628 13.216949,9.944482 13.157325,10.106011 12.94935,9.956521 12.829425,10.045408 12.435143,10.32887 12.005101,10.257692 11.726976,10.230113 11.671582,10.398635 11.597408,10.621843 11.380754,10.49235 11.330365,10.590104 11.237094,10.748898 10.838714,10.67977 10.845156,10.930633 10.393534,10.979764 10.551558,11.2339 10.129601,11.371955 9.807212,11.450788 9.797569,11.48808 9.757686,11.502292 9.747173,11.569169 10.057906,11.964363 9.842606,12.05145 9.663332,12.102533 9.659372,12.127722 9.634136,12.139442 9.562272,12.75521 9.1231,12.547185 9.073421,12.603683 9.20951,12.815701 9.375515,13.0121 9.417527,13.064393 8.774785,13.335017 8.200044,13.548707 8.521717,14.088579 8.743328,14.400157 8.41235,14.499715 7.963216,14.648569 8.070973,15.667176 7.883757,15.731426 7.954332,15.843087 7.989111,15.881321 7.378181,16.03186 6.822118,16.267899 6.751885,16.172578 6.739804,16.177254 6.735328,16.122035 6.667418,16.142696 6.661442,16.049827 6.250768,15.492458 6.073451,15.249886 6.598951,15.078697 6.576468,14.729308 6.571785,13.981553 6.673092,13.943675 6.622866,13.883201 6.666693,13.870888 6.967294,13.776574 7.154659,13.657669 7.817082,13.424388 7.580227,13.121388 7.115449,12.735882 7.544461,12.588787 8.155498,12.345763 7.905756,12.056138 7.494977,11.772583 8.191173,11.527836 8.393318,11.443037 8.197539,11.135958 7.912428,10.865854 8.687089,10.669258 8.721898,10.535261 8.757973,10.525201 8.70132,10.061663 8.670555,9.912439 8.925265,9.907294 8.932181,9.875208 8.953771,9.872889 9.001736,9.696704 9.30728,9.834935 9.743528,9.788096 10.218082,9.024188 10.778316,9.104628 10.795511,9.029353 10.863022,8.785269 11.196787,9.012027 11.351775,9.107265 11.389656,9.079919 11.401669,9.068034 11.403745,9.069748 11.87077,8.732602 12.469515,8.313461 12.504895,8.191879 12.57213,8.241626 12.58029,8.235915 12.582567,8.237826 13.044945,8.01688 14.0227,7.933147 14.055575,7.826476 14.095802,7.702873 14.304736,7.885258 14.775476,7.773228 15.542383,7.586115 15.545061,7.579155 15.560248,7.574377 15.619639,7.399893 15.669796,7.259594 15.899917,7.467514 16.270395,7.35096 17.098239,7.091149 17.111516,7.062247 17.127122,7.058172 17.169429,6.949614 17.196944,6.877877 17.332321,7.004598 17.505247,6.95945 18.543763,6.713593 18.552872,6.697518 18.559597,6.697039 18.580167,6.655661 18.590666,6.630929 18.646689,6.690834 18.709132,6.686384 19.649503,6.672665 19.656632,6.662391 19.663546,6.662898 19.703251,6.602354 19.721168,6.565078" slic3r:type="contour"/>
    <polygon style="fill: white" points="7.101949,17.106133 7.398159,17.445644 7.120431,17.502844 6.65905,17.68481 6.730168,18.059315 6.874739,18.960658 6.731999,19.07744 6.776739,19.143391 6.808137,19.178504 6.545028,19.230408 6.418154,19.33421 6.381555,19.347715 5.526809,20.151388 5.934341,20.775963 6.171526,21.072868 5.716008,21.151232 5.004251,21.38478 4.550113,20.828002 4.297375,20.387828 4.783475,20.225675 5.359565,20.095052 5.349503,19.295424 5.25599,19.148726 5.234038,18.958279 4.990672,18.673755 4.915463,18.555908 5.176812,18.461818 5.156599,18.286462 5.085528,18.00081 5.509354,17.762221 5.87243,17.420459 5.487639,16.838914 5.78871,16.743785 6.708279,16.478321" slic3r:type="contour"/>
    <polygon style="fill: white" points="4.854157,22.341589 4.819946,22.480849 4.966287,22.708401 5.364186,23.2245 5.09476,23.268049 4.571119,23.428092 4.103536,24.970303 4.205489,25.148996 4.181646,25.230528 4.484382,25.610164 4.330844,25.636596 4.033838,25.73596 3.69918,26.880333 3.343165,27.803493 3.410778,27.912972 3.392453,27.975327 3.649084,28.27272 3.524284,28.299508 3.266168,28.40505 2.934858,29.532432 2.482535,30.602475 2.575991,30.734066 2.54961,30.830754 2.987648,31.279114 2.793787,31.338054 2.345276,31.57963 2.287277,31.792191 1.770524,32.981017 1.770524,32.981018 1.770523,32.981018 1.770524,32.981017 1.35749,31.23896 1.011971,30.734616 1.062969,30.70456 1.216851,30.645791 1.210039,30.617058 1.442883,30.477806 1.50521,28.544128 1.779715,27.676296 1.767553,27.655917 1.772299,27.642141 1.741318,27.603911 1.728927,27.580118 1.80548,27.545851 1.855922,27.399466 2.140539,26.301044 2.586128,25.371546 2.680454,24.998136 2.603849,24.858566 2.632152,24.847872 2.723484,24.827797 2.725905,24.818213 2.939302,24.742433 3.392127,24.274158 3.91199,23.215551 3.872065,23.164813 3.501987,22.478622 3.706208,22.409701 4.374738,22.273248 4.401251,22.219262 4.661076,22.138281 4.733186,22.127034" slic3r:type="contour"/>
    <polygon style="fill: white" points="1.745229,33.692256 1.713973,33.800748 2.162029,34.309859 2.629715,34.73554 2.249762,34.898491 1.574259,35.373728 1.068417,34.920964 0.623346,34.357272 0.863253,34.178799 1.539619,33.829198 1.478972,33.687111 1.60242,33.592448 1.645658,33.570096" slic3r:type="contour"/>
    <polygon style="fill: white" points="2.433221,38.511795 2.548237,38.609288 2.157292,38.827725 2.196773,38.924272 2.16318,38.952736 2.441911,39.238667 2.57883,39.458288 2.226972,40.588679 1.698192,41.737004 1.829735,41.865268 1.803002,41.93354 2.309314,42.412067 2.797938,42.816248 2.38298,43.116848 1.864916,43.641876 1.214049,43.133211 0.750769,42.661052 0.977544,42.432604 1.498633,42.005214 1.406888,41.908504 1.572111,41.737984 1.635622,41.686294 1.184324,41.0713 0.607585,40.469376 1.181028,39.13048 1.079847,39.021128 1.1186,38.903341 0.730626,38.585356 0.531681,38.358304 1.051059,37.893952 1.538085,37.573836" slic3r:type="contour"/>
    <polygon style="fill: white" points="2.663336,44.521184 3.026987,44.829244 2.7867,45.466699 2.337254,46.399339 2.907582,46.851688 3.445282,47.270552 3.026146,47.696124 2.700048,48.091499 3.484274,48.378815 3.717075,48.459579 3.409853,49.174148 3.067874,49.953756 2.392593,49.685107 1.881121,49.522888 2.250638,48.649996 2.47661,48.112861 1.866209,47.66958 1.354145,47.230072 1.550117,47.015959 1.923718,46.622291 1.86499,46.585292 2.024821,46.40249 1.863468,46.271996 1.110112,45.808452 1.414323,45.153347 1.885927,44.023488" slic3r:type="contour"/>
    <polygon style="fill: white" points="3.705963,51.085276 3.844769,51.116199 4.671444,51.203516 4.628732,51.313759 4.554916,51.556878 4.996592,51.792732 4.88992,52.095404 4.521618,52.968696 4.13646,52.76608 3.970372,52.744284 3.64312,52.547681 3.090339,52.528372 2.985579,52.52392 3.084052,52.211809 2.938002,52.124067 2.761829,52.010176 3.170071,51.433359 3.477919,50.948176" slic3r:type="contour"/>
    <polygon style="fill: white" points="5.71938,53.805904 5.619973,54.48276 4.905636,54.625224 4.434071,54.704128 4.554305,54.0086 4.66341,53.348715 5.623163,53.204296 5.888013,53.146824" slic3r:type="contour"/>
    <polygon style="fill: white" points="7.40749,55.133884 7.414933,56.037628 6.93473,56.212539 6.261201,56.4595 6.268832,56.088999 6.288336,55.098856 6.952514,54.855544 7.430581,54.651596" slic3r:type="contour"/>
    <polygon style="fill: white" points="9.335115,56.222883 9.421456,56.881433 11.246869,57.187571 11.253273,57.183484 11.2667,57.185014 11.434638,57.059596 11.441736,57.102123 11.465758,57.207692 11.899963,57.25716 12.076568,57.615376 12.486447,58.65336 11.541639,58.530868 11.430793,58.601964 11.320812,58.581841 10.828937,58.940988 10.673111,59.041408 10.527139,58.436623 9.940927,58.329364 8.910908,58.178276 8.864139,57.975507 8.759906,57.700526 8.377214,57.89982 8.367723,57.826127 8.243672,56.561624 8.66488,56.343268 9.310133,55.951232" slic3r:type="contour"/>
    <polygon style="fill: white" points="13.823856,58.702535 13.975307,59.198028 13.325612,59.740308 13.000701,59.97822 12.77825,59.224299 12.649079,58.701804 13.511517,58.070047 13.650156,57.957952" slic3r:type="contour"/>
    <polygon style="fill: white" points="15.971146,59.286504 16.198956,59.923903 15.69719,60.391908 15.253657,60.759888 15.066965,60.224415 14.848524,59.5072 15.523867,58.9394 15.796133,58.695124" slic3r:type="contour"/>
    <polygon style="fill: white" points="18.054681,59.730379 18.367574,60.457484 17.977651,60.87644 17.473836,61.368988 17.318092,60.998952 16.990588,60.149783 17.516107,59.625848 17.874314,59.257352" slic3r:type="contour"/>
    <polygon style="fill: white" points="20.094687,60.009643 20.496438,60.767843 20.183711,61.166832 19.682642,61.768524 19.547769,61.507351 19.09716,60.600348 19.509633,60.09628 19.901242,59.617735" slic3r:type="contour"/>
    <polygon style="fill: white" points="22.118006,60.095908 22.599526,60.822792 22.333006,61.239159 21.895063,61.914812 21.760122,61.703864 21.1906,60.822779 21.52464,60.304963 21.895064,59.74716" slic3r:type="contour"/>
  </g></svg>