<svg width="43.790126" height="63.590156" xmlns="http://www.w3.org/2000/svg" xmlns:svg="http://www.w3.org/2000/svg" xmlns:xlink="http://www.w3.org/1999/xlink" xmlns:slic3r="http://slic3r.org/namespaces/slic3r"><g xmlns="http://www.w3.org/2000/svg" slic3r:z="6.65e-007" id="layer1">
    <polygon style="fill: white" points="22.117319,0.58951 22.615401,0.614079 23.059251,0.637996 23.070956,0.608406 23.331247,0.652653 23.499984,0.661746 23.502377,0.681743 24.002601,0.766775 24.438732,0.844869 24.45667,0.812923 24.704198,0.892403 24.874016,0.922811 24.873652,0.946814 25.364428,1.104401 25.789237,1.244081 25.812966,1.213446 26.020648,1.32017 26.210456,1.38258 26.204969,1.414889 26.676621,1.657262 27.085498,1.867768 27.114088,1.841047 27.278689,1.96723 27.481912,2.071857 27.467787,2.112192 27.904356,2.446865 28.29055,2.739171 28.319702,2.719345 28.47333,2.877516 28.65334,3.013764 28.636224,3.045227 29.06808,3.489854 29.449633,3.881565 29.48082,3.866003 29.692903,4.131311 29.776866,4.217508 29.769684,4.22736 30.238343,4.813635 30.62713,5.317116 30.664796,5.3033 31.491342,6.456941 31.895139,7.072494 31.94315,7.059524 32.902688,8.47137 33.331378,9.191919 33.39882,9.18028 34.316584,10.779425 34.693249,11.542325 34.770628,11.538006 35.443935,13.227035 35.708843,13.997987 35.787208,14.00623 35.835289,14.365976 35.855416,14.424549 35.843846,14.430001 36.013311,15.697942 36.103438,16.448821 36.166816,16.471859 36.125247,16.630522 36.154196,16.871704 36.058045,16.887029 35.750568,18.060643 35.606864,18.704151 35.522444,19.082188 35.404696,19.075688 34.838764,20.115735 34.451568,20.973836 34.343555,20.960276 33.784939,21.802156 33.389968,22.559635 33.317159,22.554345 33.053863,23.054162 32.850597,23.601372 32.911414,23.992546 32.953122,24.377341 33.365608,25.007854 33.493795,25.273432 33.504301,25.271607 34.178487,26.180273 34.362884,26.479684 34.400356,26.473136 35.04218,27.628901 35.243448,28.019743 35.282336,28.017562 35.321758,28.171812 35.415092,28.353055 35.375446,28.381878 35.659807,29.494515 35.798584,30.007591 35.806156,30.008217 35.808919,30.0458 35.894879,30.363608 35.834483,30.39348 35.92526,31.628069 35.991888,32.230278 36.03246,32.596976 35.970987,32.617672 35.903344,33.871443 35.894037,34.522864 35.900052,34.524992 35.893399,34.567557 35.888599,34.903492 35.839297,34.91371 35.65728,36.078279 35.574395,36.727042 35.591412,36.735683 35.555474,36.87514 35.523936,37.122004 35.491142,37.124784 35.239452,38.101483 35.094627,38.686868 35.122508,38.706376 35.031105,38.943625 34.994672,39.090888 34.974711,39.090002 34.666567,39.889832 34.462028,40.410748 34.497427,40.444572 34.328288,40.751354 34.302176,40.817856 34.292648,40.815996 33.946619,41.443616 33.683357,41.901946 33.720872,41.951232 33.465676,42.280922 33.452677,42.303552 33.449186,42.302225 33.090018,42.766239 32.768011,43.164836 32.801095,43.225816 32.476509,43.525673 32.4592,43.5471 32.455655,43.544938 32.110055,43.864208 31.729963,44.204358 31.75313,44.264556 31.381329,44.516356 31.344257,44.549532 31.339084,44.544966 31.021088,44.760327 30.5843,45.050291 30.598184,45.101552 30.552428,45.124817 30.590279,45.445191 30.618648,45.689592 29.35845,46.356079 29.319666,46.376068 29.319778,46.380224 29.279847,46.39659 29.278795,46.397132 29.278721,46.397051 28.002758,46.920023 27.950917,46.940584 27.950748,46.944436 27.894978,46.96277 26.568748,47.398767 26.51323,47.416138 26.512825,47.41968 26.462591,47.431982 26.45962,47.432911 26.459507,47.432737 25.067568,47.773619 25.015796,47.785507 25.015233,47.788456 24.977711,47.794253 24.96716,47.796676 24.966764,47.795944 23.52234,48.019103 23.476649,48.025641 23.476002,48.027988 23.450397,48.029397 23.434416,48.031683 23.433804,48.03031 21.957853,48.111556 21.915047,48.113718 21.914312,48.1157 21.895893,48.114685 21.875815,48.1157 21.875053,48.113538 20.402658,48.03246 20.356441,48.030125 20.355712,48.031684 20.340385,48.029314 20.314126,48.027988 20.313371,48.025138 18.877095,47.803083 18.823667,47.795437 18.822966,47.796676 18.809821,47.793455 18.774892,47.788456 18.774209,47.784729 17.390003,47.445567 17.331095,47.432036 17.330508,47.432912 17.320306,47.429558 17.277301,47.41968 17.276827,47.415264 15.949285,46.978836 15.891972,46.960897 15.891603,46.961364 15.885579,46.958896 15.83938,46.944436 15.839219,46.939903 14.556697,46.414479 14.511803,46.396668 14.511348,46.39714 14.506396,46.394523 14.470335,46.380216 14.470532,46.37557 13.209726,45.709311 13.171478,45.689592 13.238969,45.194084 13.246102,45.12876 13.191947,45.101516 13.209388,45.046863 12.909712,44.84404 12.454815,44.541987 12.445869,44.549532 12.393745,44.501437 12.036997,44.264556 12.066456,44.199446 11.739003,43.897304 11.341154,43.54109 11.330925,43.5471 11.292472,43.497504 10.989029,43.225816 11.03074,43.159926 10.685712,42.714916 10.349933,42.298956 10.337442,42.303564 10.302381,42.24005 10.069259,41.95126 10.114348,41.899417 9.776495,41.287375 9.50517,40.814688 9.487972,40.817856 9.449096,40.717 9.292721,40.444572 9.331344,40.41151 9.024657,39.61586 8.818347,39.090327 8.795457,39.090892 8.751397,38.919783 8.667615,38.706364 8.692326,38.690379 8.436899,37.698411 8.295145,37.125444 8.26619,37.122003 8.218437,36.815394 8.198713,36.735672 8.205501,36.732335 8.017506,35.525251 7.939575,34.913486 7.901525,34.903496 7.811517,33.220581 7.803416,32.615991 7.757672,32.596976 7.877538,30.963493 7.941333,30.390876 7.895243,30.363628 7.982371,30.02253 7.983968,30.008199 7.986076,30.008026 8.269378,28.898933 8.409289,28.381687 8.375037,28.353052 8.457089,28.204975 8.507788,28.017544 8.557577,28.023626 9.025601,27.179 9.38977,26.473122 9.457771,26.489694 9.910653,25.875944 10.285823,25.271597 10.34595,25.283414 10.594159,24.906184 10.850043,24.381806 10.899947,24.061769 10.943344,23.662151 10.54624,22.904135 10.419461,22.558374 10.40016,22.559636 9.60704,21.37054 9.401516,20.969799 9.338563,20.973856 8.577926,19.58906 8.353618,19.085909 8.267688,19.082202 7.857399,17.526001 7.716949,16.893437 7.635934,16.871688 7.664558,16.657475 7.623341,16.47184 7.691753,16.453956 7.862931,15.172925 7.951746,14.432623 7.934698,14.424533 7.96047,14.359899 8.002903,14.006207 8.10154,14.006125 8.59839,12.760127 9.019532,11.537988 9.123519,11.55491 9.779062,10.414789 10.391266,9.180298 10.4848,9.205583 11.140099,8.243139 11.846899,7.059582 11.91286,7.082086 12.436384,6.351662 12.852243,5.71887 13.125349,5.3033 13.169512,5.321844 13.624209,4.752843 14.025059,4.233936 14.013264,4.217474 14.133002,4.094203 14.309301,3.865982 14.339061,3.882064 14.767241,3.441248 15.152717,3.045504 15.136771,3.01381 15.321529,2.872196 15.470418,2.719342 15.496366,2.738186 15.932674,2.403762 16.320043,2.110544 16.308214,2.071878 16.504193,1.971152 16.676048,1.841067 16.70342,1.868758 17.176302,1.625716 17.584382,1.41562 17.57975,1.382513 17.76296,1.32368 17.97714,1.213412 18.001094,1.24721 18.490145,1.090167 18.915985,0.950156 18.916109,0.922806 19.08809,0.893571 19.333378,0.812924 19.351627,0.848772 19.848919,0.764238 20.28689,0.685818 20.290156,0.661745 20.471238,0.652811 20.719164,0.60842 20.730471,0.640021 21.22845,0.615453 21.671853,0.591562 21.677978,0.567838 21.904644,0.579019 22.112156,0.567838" slic3r:type="contour"/>
  </g></svg>