<svg width="43.790126" height="63.590156" xmlns="http://www.w3.org/2000/svg" xmlns:svg="http://www.w3.org/2000/svg" xmlns:xlink="http://www.w3.org/1999/xlink" xmlns:slic3r="http://slic3r.org/namespaces/slic3r"><g xmlns="http://www.w3.org/2000/svg" slic3r:z="2.27749999999999e-005" id="layer68">
    <polygon style="fill: white" points="26.52226,4.158272 26.820616,4.552505 26.885106,4.536298 27.05015,4.715312 27.179907,4.627707 27.607648,4.402416 27.720332,4.784509 27.801848,5.226597 27.949901,5.248545 28.125317,5.162252 28.168209,5.170009 28.432668,5.01432 28.622144,4.930059 28.697122,5.265662 28.884811,5.299606 29.346868,5.27583 29.410998,5.442816 29.489118,5.526176 29.665592,5.42597 29.698244,5.535536 29.745721,5.799984 29.76953,5.82539 29.814161,5.9974 30.227173,6.28169 30.409526,6.130738 30.799216,5.851805 30.930255,6.209322 31.064062,6.69869 31.359288,6.742226 31.457004,6.661192 31.515689,6.673236 31.821143,6.403581 32.081856,6.186124 32.266478,6.649223 32.333123,6.841002 32.917929,6.961024 32.999118,6.896584 33.035572,6.907887 33.264148,6.724001 33.481146,6.549992 33.659507,7.067893 33.671522,7.105072 34.253836,7.285627 34.406596,7.330717 34.47402,7.287387 34.494712,7.297335 34.692103,7.175522 34.906328,7.041396 35.006612,7.507822 35.029892,7.514694 35.038226,7.55863 35.468768,7.765615 35.817243,7.925425 35.8895,7.897338 35.901235,7.90624 36.071567,7.846064 36.27488,7.776035 36.277504,8.1365 36.309924,8.151367 36.30974,8.216118 36.574647,8.417068 37.160355,8.836126 37.202872,8.829652 37.211779,8.839234 37.308535,8.826277 37.42726,8.812621 37.386115,8.997651 37.405712,9.011672 37.399177,9.040815 37.526691,9.177981 38.331098,9.977869 38.333112,9.977881 38.333547,9.978503 38.342348,9.978685 38.339416,9.986139 38.340164,9.986883 38.339712,9.988005 38.378388,10.037826 38.794855,11.004255 38.861738,11.150065 38.8637,11.15022 38.867118,11.159006 39.035724,11.176505 38.992795,11.259961 38.949405,11.341191 38.963772,11.372513 38.956098,11.387716 39.184803,11.975569 39.300721,12.252321 39.58386,12.292884 39.503115,12.427945 39.426838,12.553425 39.454672,12.619875 39.44642,12.63475 39.56268,12.903166 39.700641,13.221829 40.054728,13.289064 39.952164,13.439304 39.856102,13.580911 39.893372,13.666998 39.864515,13.714669 39.913384,13.849017 40.043203,14.213192 40.46112,14.33477 40.32756,14.490668 40.197163,14.645091 40.240176,14.765751 40.1671,14.86766 40.25926,15.310061 40.779736,15.549109 40.586111,15.709195 40.3792,15.885808 40.423856,16.100169 40.176486,16.375534 40.165047,16.50511 40.513372,16.872278 40.938832,17.222768 40.646475,17.33846 39.896687,17.560642 40.210223,18.112746 40.28245,18.287639 40.403636,18.318214 40.680532,18.359044 40.453509,18.701854 40.463792,18.726754 40.429521,18.775838 40.489204,18.939593 40.526268,19.179996 40.169387,19.150328 39.867578,19.604235 39.875656,19.636392 39.82916,19.714395 39.911736,19.965308 39.942752,20.400592 39.527098,20.223479 39.424236,20.456459 39.442188,20.526404 39.403056,20.627265 39.478088,20.822144 39.5178,21.253021 39.212614,21.166643 39.244472,21.500258 39.317992,21.83384 39.064564,21.855707 39.271952,22.324734 39.1396,22.291214 38.966011,22.493279 39.306076,22.682121 39.177912,22.801005 38.932915,23.056485 39.194099,23.391237 39.552188,23.912216 39.466311,24.41917 39.383354,24.84381 39.47166,24.892028 39.471,24.990182 39.909568,25.151822 39.70986,25.347298 39.465969,25.738461 39.465436,25.817657 39.457775,25.850658 39.498808,25.901244 39.411929,26.048132 39.395184,26.120265 40.003824,26.493304 40.606743,27.193056 40.644508,27.641664 40.61892,27.891957 40.67818,27.926576 40.684391,28.006192 40.948336,28.121486 40.830976,28.228005 40.717815,28.4346 40.772212,29.131837 40.598464,30.031757 41.19944,30.299978 42.042504,31.301104 42.046571,31.372555 42.045677,31.384323 42.073636,31.403806 42.059272,31.415976 42.040777,31.448789 41.945584,32.701289 41.63302,33.502967 41.844648,33.72844 41.802036,33.884286 42.14492,34.073312 42.811144,34.985512 42.790104,35.104788 42.749927,35.183751 42.77118,35.21072 42.756585,35.249676 42.862736,35.3714 42.787564,35.429875 42.561795,35.769578 42.393464,36.218867 41.999792,36.734008 41.063324,35.906564 40.88004,35.8189 41.096817,35.51348 41.050492,35.435616 41.073915,35.364764 40.9391,35.255784 40.776816,35.016671 41.025039,34.442116 41.406087,34.008142 41.20784,33.854376 41.3171,33.56084 41.416737,33.428217 40.748131,32.899123 40.311368,32.70567 40.546881,32.014223 40.42252,31.884522 40.428828,31.809961 40.228047,31.709622 39.977676,31.49644 40.169435,31.028394 40.501098,30.635719 40.31936,30.504622 40.407924,30.261268 40.539707,30.078306 39.409612,29.187722 39.129308,29.068164 39.170926,28.619749 39.100995,28.570892 39.100778,28.538996 39.021171,28.506099 38.906568,28.433852 39.097235,28.017109 39.08649,26.434154 38.663533,25.959253 38.485783,25.888237 37.948256,25.589656 38.028364,25.446832 38.1129,25.340994 38.078372,25.302225 38.163028,25.175259 37.636308,24.439932 37.797425,23.270157 37.67142,23.204358 37.672615,23.198993 37.567412,23.150936 37.35438,23.03659 37.701008,22.643677 37.829727,22.52127 37.80944,22.475833 37.839727,22.448862 37.898662,22.184322 37.729422,21.361707 37.468166,21.110424 37.218976,20.937284 37.436515,20.78537 37.501701,20.741315 37.607556,19.885735 37.669712,19.601004 37.632799,19.538876 37.478972,19.382978 37.618635,19.331976 37.666794,19.314192 37.969652,18.49975 38.037993,18.362203 37.913372,18.204512 38.03106,18.185113 38.081526,18.175934 38.399704,17.475573 38.458852,17.378557 38.359644,17.26327 38.450876,17.252903 38.491957,17.24632 38.675883,16.571093 38.68966,16.538323 38.653804,16.511204 38.690619,16.502845 38.664084,16.279448 38.918837,15.857982 38.750664,15.756298 38.671,15.727611 39.029967,15.541455 39.240808,15.321061 39.229963,15.150228 38.675259,14.926797 38.480504,14.879748 38.712843,14.686116 38.936272,14.370631 38.856858,14.203629 38.453696,14.088173 38.176932,14.043339 38.335036,13.862353 38.492937,13.587231 38.297909,13.234915 38.108424,13.19213 37.767812,13.148915 37.875883,12.997754 37.996586,12.761931 37.809116,12.472899 37.61741,12.162478 37.272132,12.125796 37.334827,12.016736 37.406266,11.863845 36.963828,11.260938 36.848644,11.104575 36.679988,11.098905 36.703936,11.038618 36.732232,10.961485 36.042643,10.189022 36.010781,10.155258 35.973316,10.159286 35.980167,10.125807 35.579343,9.797209 35.190258,9.389628 35.1428,9.402749 35.140709,9.351061 35.086007,9.315426 34.241284,8.797045 34.163431,8.84338 34.116964,8.869173 34.083345,8.718437 33.894803,8.634609 33.131765,8.281768 32.984052,8.39314 32.899998,8.458163 32.793733,8.130781 32.301637,7.936902 31.959618,7.790205 31.707115,7.99284 31.568596,8.11574 31.409608,7.664587 31.35824,7.532263 31.350642,7.529004 31.31989,7.448152 30.876521,7.234654 30.423365,7.563965 30.194478,7.760045 30.083216,7.386805 29.916679,6.906524 29.655488,6.860618 29.517884,6.937237 29.398462,6.920464 29.274866,6.996843 28.887822,7.285834 28.843374,7.052788 28.785847,6.834426 28.064497,6.733115 27.829888,6.695128 27.815094,6.702606 27.791026,6.700654 27.727644,6.744429 27.723104,6.695146 27.615756,6.686441 27.194133,6.004742 26.983746,6.127405 26.791344,6.261795 26.75356,5.796174 26.705858,5.579983 26.596045,5.760148 26.632366,6.077092 26.606942,6.102406 26.628506,6.147536 26.162704,6.171795 26.2231,6.33279 26.34349,6.664907 25.813627,6.680037 25.80642,6.770622 25.73693,6.806309 25.728518,7.062372 25.72868,7.310336 25.154331,7.137641 25.117175,7.124591 25.045883,7.161204 24.997814,7.290517 24.958858,7.29823 24.885107,7.494679 24.821794,7.682382 24.462088,7.396582 24.235821,7.441378 24.096343,7.46828 24.075669,7.50666 24.050896,7.508162 23.957775,7.673104 23.875804,7.826756 23.642872,7.555746 23.637715,7.556741 23.619455,7.534319 23.336169,7.551494 23.110603,7.563365 23.104656,7.572802 23.084133,7.572871 22.982833,7.726935 22.89121,7.870168 22.686187,7.585701 22.670212,7.586542 22.661547,7.574307 22.3541,7.575351 22.096029,7.575016 21.99234,7.727484 21.895064,7.870978 21.693258,7.574491 21.672433,7.574464 21.671412,7.572946 21.363988,7.5719 21.130115,7.572203 21.119948,7.586558 21.102239,7.585486 20.997512,7.731257 20.898914,7.870171 20.70193,7.572759 20.685452,7.57278 20.677129,7.559764 20.385302,7.542108 20.17327,7.53091 20.152428,7.556727 20.142219,7.554708 20.024853,7.692466 19.914322,7.826762 19.731459,7.50758 19.714432,7.506681 19.691744,7.46562 19.417787,7.41144 19.316934,7.391941 19.119378,7.551633 18.968332,7.682382 18.819147,7.295694 18.792306,7.290504 18.739877,7.154975 18.653805,7.110848 18.299152,7.222196 18.061448,7.310337 18.039812,6.799007 17.983706,6.770607 17.974415,6.668175 17.788879,6.66399 17.44664,6.664898 17.630339,6.181098 17.161621,6.147538 17.223235,6.019403 17.162174,6.038395 17.167581,5.948115 17.077161,5.934681 16.998782,6.261798 16.488341,5.982218 16.331638,6.200371 16.17437,6.686443 16.07651,6.683476 16.062481,6.744431 16.030326,6.728953 15.985839,6.700997 15.975011,6.702603 15.947095,6.689436 15.28161,6.753652 15.0393,6.79773 14.902275,7.28584 14.66695,7.150992 14.341897,6.924589 14.272264,6.937255 14.103802,6.849643 13.886727,6.889695 13.706088,7.455103 13.595638,7.760033 13.240609,7.518811 12.878807,7.228088 12.486869,7.411515 12.293151,7.937082 12.221508,8.115762 11.811075,7.800452 11.788377,7.781136 11.363481,7.94565 11.007608,8.106235 10.92489,8.356543 10.890159,8.458163 10.649726,8.279103 10.3861,8.395807 9.704948,8.715346 9.683139,8.817879 9.673168,8.869169 9.557243,8.797653 9.439315,8.87497 8.645719,9.355643 8.647298,9.402748 8.605637,9.38659 8.574714,9.421556 8.210217,9.797704 7.81041,10.129763 7.816838,10.159245 7.782365,10.153995 7.134225,10.889869 7.062582,10.965123 7.110121,11.098895 7.041765,11.101335 6.941978,11.104759 6.505136,11.700695 6.398178,11.845816 6.51799,12.125817 6.381277,12.150917 6.148261,12.181457 5.934737,12.50518 5.811874,12.705211 5.865703,12.79622 6.022338,13.148873 5.814217,13.208227 5.417938,13.278506 5.297003,13.498731 5.471407,13.7535 5.613196,14.043359 5.338383,14.143516 4.822925,14.25869 5.18581,14.674637 5.309641,14.879691 4.960676,15.05787 4.502913,15.20303 5.049208,15.643524 5.119128,15.727613 4.672363,16.075375 4.633213,16.093415 4.663745,16.338301 4.75549,16.371865 5.126052,16.279319 5.087904,16.493476 5.136341,16.511197 5.093607,16.553399 5.21235,17.073703 5.279445,17.239106 5.430473,17.26329 5.370691,17.335643 5.313667,17.401867 5.565584,17.969966 5.684759,18.169595 5.876757,18.20451 5.802238,18.288994 5.761096,18.341214 5.735968,18.395669 5.981992,19.069666 6.097395,19.303993 6.311156,19.38297 6.211744,19.467769 6.182257,19.497548 6.086433,19.669704 6.142004,20.264079 6.245587,20.717902 6.571158,20.937288 6.370111,21.054371 6.32881,21.082526 6.332802,21.100016 6.083122,21.28508 6.035434,21.529857 5.950567,21.932779 6.055238,22.194418 6.086729,22.695482 6.223895,22.838963 6.435725,23.03657 6.116677,23.171949 6.118712,23.20433 6.087569,23.219265 6.175924,23.58206 6.153772,24.440098 5.868922,24.999982 5.665927,25.239849 5.711752,25.302278 5.661912,25.380789 5.841876,25.589674 5.632832,25.670057 5.409856,25.777844 5.143621,26.197232 4.763572,26.468125 4.842822,27.222561 4.72871,28.223743 4.781914,28.315222 4.883553,28.433896 4.696108,28.509783 4.68914,28.570922 4.651323,28.592079 4.678483,28.761011 4.660846,29.068086 4.023631,29.758544 3.257746,30.090457 3.470758,30.504628 3.336504,30.640705 3.386649,30.885538 3.38584,30.927984 3.56631,31.241528 3.812421,31.496528 3.370786,31.718211 3.367615,31.884588 3.294731,31.94331 3.411457,32.243694 3.478793,32.705555 3.034013,33.174408 2.383694,33.482563 2.582315,33.854308 2.359766,34.078912 2.773272,34.757155 3.01331,35.016652 2.704158,35.281341 2.739578,35.435672 2.711555,35.471112 2.824916,35.62604 2.910065,35.819044 2.391031,36.405064 1.790171,36.73412 1.684035,36.524456 1.319259,36.197083 0.927417,35.371332 0.98037,35.277356 1.027325,35.227175 1.01897,35.210668 1.054477,35.151931 0.979009,34.985468 1.065927,34.94194 1.376872,34.618619 1.531072,34.363539 2.015763,33.899824 1.945496,33.728363 2.11062,33.492262 2.161167,33.453798 1.783892,31.57417 1.716489,31.403866 1.742625,31.374527 1.755006,31.36248 1.747616,31.301176 1.779809,31.287548 2.348381,30.785063 2.392897,30.741744 2.404825,30.735179 3.203608,30.029242 3.150704,28.816388 3.078126,28.732255 2.841796,28.12143 2.985673,28.011352 3.113121,27.954794 3.11189,27.926574 3.208181,27.849876 3.183326,27.193166 3.676949,26.865855 4.419569,26.190538 4.291324,25.901202 4.332408,25.859066 4.0398,25.509467 3.880544,25.151838 4.096637,25.005942 4.320839,24.913955 4.318367,24.892082 4.409625,24.823548 4.237912,23.912288 4.858748,23.087323 4.636755,22.869398 4.484051,22.682114 4.583768,22.625162 4.727976,22.544244 4.51817,22.324748 4.686682,21.762571 4.472117,21.833822 4.559975,21.280854 4.463475,21.038507 4.272306,21.253022 4.272305,21.253022 4.411585,20.783486 4.350328,20.53611 4.232383,20.344125 4.137637,20.133202 4.041224,20.169672 3.847377,20.40058 3.99489,19.815422 3.914469,19.636391 3.921041,19.620526 3.804978,19.455755 3.552532,19.071269 3.404669,19.085963 3.26387,19.179948 3.377674,18.804952 3.326341,18.72677 3.349762,18.679703 3.300824,18.589401 3.10962,18.35909 3.568296,18.240536 3.912327,17.549175 3.467876,17.377893 2.851293,17.222768 3.222397,16.838239 3.661487,16.432035 3.366284,16.10017 3.409777,15.895213 3.010389,15.549102 3.301342,15.402823 3.53744,15.290212 3.624886,14.871339 3.549949,14.765785 3.592412,14.648834 3.329,14.334831 3.554681,14.264667 3.753423,14.205376 3.784143,14.120766 3.927686,13.718578 3.896756,13.666998 3.933564,13.582009 3.735402,13.289059 3.932052,13.247981 4.091824,13.216589 4.200659,12.96529 4.343731,12.634818 4.335458,12.619929 4.36335,12.5494 4.206238,12.292914 4.369853,12.268343 4.480892,12.252178 4.730475,11.621068 4.830513,11.380679 4.826353,11.37247 4.841811,11.337221 4.754401,11.176475 4.846455,11.167402 4.919556,11.159936 5.411395,10.038396 5.450078,9.987185 5.449988,9.986968 5.450771,9.986132 5.447786,9.978684 5.456454,9.978744 5.457113,9.977872 5.458033,9.977868 6.388991,9.031327 6.384413,9.011718 6.404736,8.996395 6.386342,8.914386 6.362871,8.81262 6.574444,8.84277 6.587356,8.829643 6.619466,8.834486 6.873352,8.643051 7.48063,8.202185 7.480181,8.151335 7.513585,8.135331 7.514641,7.970165 7.515208,7.776042 7.885579,7.908203 7.900563,7.897325 7.961854,7.920566 8.414688,7.703614 8.754147,7.546858 8.760183,7.514725 8.786588,7.506562 8.834962,7.279358 8.883757,7.041403 9.297961,7.295733 9.316093,7.28736 9.375272,7.324568 10.005662,7.12968 10.123762,7.094617 10.124505,7.092136 10.132576,7.090505 10.227463,6.80968 10.30898,6.549991 10.714054,6.876174 10.753331,6.907703 10.791011,6.896516 10.852453,6.944992 11.48442,6.81725 11.610152,6.489379 11.70824,6.186141 12.050681,6.493787 12.261914,6.673779 12.333068,6.661185 12.402652,6.720045 12.757961,6.671905 12.902421,6.249497 12.99092,5.851803 13.235835,6.064013 13.464544,6.236883 14.063048,5.770238 14.093802,5.730254 14.124562,5.425973 14.194043,5.479096 14.25708,5.517978 14.443362,5.275794 15.14266,5.21078 15.166876,5.088746 15.167964,4.93006 15.544519,5.173418 15.664676,5.162247 15.753118,5.209939 16.034824,5.178558 16.137069,4.802469 16.182463,4.40242 16.424058,4.579606 16.716609,4.748084 16.904988,4.536335 16.949587,4.557515 16.985428,4.507688 17.33353,4.064096 17.40327,4.160911 17.714395,4.547396 17.786211,4.517531 18.35709,4.456098 18.387179,4.615118 18.39913,5.010086 18.849221,5.118232 18.779877,5.466284 19.049722,5.507368 19.014174,5.697181 19.166136,5.662952 19.189484,5.888694 19.277106,5.90684 19.457429,5.754678 19.463184,5.750708 19.470955,5.768486 19.550392,5.76258 20.005254,5.881381 20.051769,5.890692 20.102334,5.830692 20.120169,5.8609 20.14421,5.903457 20.8085,5.945645 20.881888,5.949819 20.945026,5.863228 20.969329,5.900032 21.004995,5.953307 21.755911,5.953144 21.831853,5.953216 21.895064,5.863916 21.919824,5.899373 21.957929,5.953354 22.709479,5.953495 22.784496,5.953424 22.845104,5.863235 22.871375,5.898684 22.908219,5.949045 23.588302,5.906106 23.647622,5.902731 23.687792,5.830688 23.709443,5.856812 23.735014,5.887254 24.239736,5.76258 24.323042,5.764973 24.326944,5.750708 24.34142,5.764339 24.362559,5.760693 24.644462,5.782302 24.624014,5.662952 24.80433,5.756136 24.855933,5.701328 24.740406,5.507366 25.052634,5.569293 25.157146,5.561629 25.111585,5.392737 24.940904,5.118232 25.132353,5.152474 25.434611,5.107534 25.463446,4.888132 25.433036,4.456098 25.515706,4.512526 26.001667,4.617184 26.096639,4.490785 26.456594,4.064091" slic3r:type="contour"/>
    <polygon style="fill: white" points="38.305683,54.33884 39.367819,54.418552 39.38576,54.395212 39.399883,54.395232 39.402548,54.395464 39.404632,54.402104 39.397443,54.411424 39.352372,54.464656 39.533351,55.058863 39.753799,55.613576 39.365411,55.572052 38.523908,55.581288 38.3232,55.04188 38.111068,54.337504" slic3r:type="contour"/>
    <polygon style="fill: white" points="40.260723,52.68396 40.204642,52.782899 40.445739,53.270015 40.763992,53.791671 40.365404,53.829688 39.555392,53.986548 39.260423,53.454111 38.947768,52.7901 39.14004,52.753712 40.017811,52.676589 40.032391,52.6331 40.085421,52.622727 40.187303,52.6028 40.220928,52.600652" slic3r:type="contour"/>
    <polygon style="fill: white" points="42.070351,49.154291 42.073468,49.157628 42.059759,49.163927 42.060479,49.16496 42.056927,49.166583 42.066027,49.191904 41.406464,50.281895 41.013738,50.838189 41.045368,50.889216 40.986369,51.009199 41.034832,51.083556 41.502151,51.681256 41.193499,51.773968 40.417681,52.039936 40.085364,52.608207 40.081753,51.690533 40.018428,51.597152 39.596228,50.911792 39.694559,50.875516 40.096083,50.781836 39.78004,50.095959 40.459158,48.994052 40.412632,48.929992 40.425367,48.915263 40.220151,48.616943 40.129563,48.481359 40.883915,48.074848 41.263996,47.971704" slic3r:type="contour"/>
    <polygon style="fill: white" points="41.850663,43.86725 42.174204,44.196608 42.69442,44.815192 42.576312,44.954136 42.370157,45.129396 42.619144,45.495692 42.446459,45.59862 41.508688,46.242204 41.171008,45.752932 40.854742,45.214787 40.667095,45.008048 40.648651,44.994748 40.70867,44.942023 40.684915,44.896951 40.666796,44.846844 41.302579,44.196652 41.801704,43.746408" slic3r:type="contour"/>
    <polygon style="fill: white" points="42.667824,37.681828 43.046232,38.185252 42.830292,38.637848 42.487616,39.031809 42.5766,39.21912 42.477057,39.353637 43.040888,40.367224 42.471203,40.801818 42.646724,41.04528 42.618581,41.073002 42.875707,41.283995 42.993255,41.419852 42.441264,42.110111 41.903108,42.562084 41.250428,41.871844 40.9516,41.671151 41.597987,41.060543 41.566412,40.995012 41.670639,40.844516 41.33978,40.372016 41.044552,39.634891 41.194884,39.412227 41.399274,39.218059 41.355612,39.177336 41.460837,38.9652 41.047048,38.734044 41.248252,38.473188 42.017908,37.233052" slic3r:type="contour"/>
    <polygon style="fill: white" points="42.030727,36.965032 42.071304,37.02358 42.015492,37.092928 41.991459,37.068103 41.96994,37.031032 42.004832,36.947604" slic3r:type="contour"/>
    <polygon style="fill: white" points="1.803474,36.980084 1.820184,37.031064 1.774636,37.09296 1.75031,37.073039 1.718819,37.023604 1.785295,36.947636" slic3r:type="contour"/>
    <polygon style="fill: white" points="2.321937,37.925572 2.74308,38.734083 2.626444,38.879064 2.353114,39.050691 2.434553,39.177352 2.355612,39.262727 2.745578,39.634844 2.369258,40.215939 2.080055,40.758999 2.223717,40.994995 2.208989,41.020461 2.594126,41.381519 2.838544,41.671164 2.451154,42.144368 1.887001,42.562052 0.988916,41.580711 0.79687,41.419828 1.195162,41.104982 1.143442,41.045263 1.241595,40.928112 0.945918,40.689888 0.749237,40.36718 1.014921,39.694924 1.266057,39.279853 1.213585,39.219116 1.332846,38.886137 1.316194,38.858444 0.743894,38.185144 1.123963,37.942272 1.772395,37.232924" slic3r:type="contour"/>
    <polygon style="fill: white" points="3.064625,44.793595 3.123366,44.846984 3.077335,44.939265 3.123754,44.9802 3.141488,44.99472 2.805547,45.405872 2.281448,46.24228 1.793108,45.946816 1.171013,45.495804 1.259259,45.35098 1.430055,45.101508 1.095722,44.815184 1.240862,44.66828 1.924966,43.892012 1.988469,43.74652" slic3r:type="contour"/>
    <polygon style="fill: white" points="2.563976,47.989985 2.564357,47.989448 2.565512,47.990726 3.51911,48.451336 3.660565,48.481348 3.363601,48.91323 3.377538,48.929964 3.346891,48.972194 3.623488,49.392211 4.010103,50.096024 3.914132,50.451512 3.734556,50.823227 4.1939,50.911776 4.120541,51.019384 3.819778,51.491424 3.83293,51.581276 3.704807,52.608431 3.392267,52.048775 2.884711,51.891867 2.287976,51.681252 2.451333,51.411744 2.789998,50.970308 2.744705,50.889204 2.791659,50.806241 1.835599,49.358743 1.724096,49.191879 1.734629,49.167171 1.729644,49.164932 1.730589,49.1636 1.716656,49.1576 2.256271,48.265972 2.526129,47.971704" slic3r:type="contour"/>
    <polygon style="fill: white" points="3.702899,52.623727 3.757811,52.633172 3.788027,52.689863 4.174481,52.755528 4.842349,52.790047 4.73643,52.978328 4.234776,53.986576 3.57625,53.907099 3.026151,53.791692 3.202939,53.404388 3.582745,52.767482 3.529365,52.684068 3.554491,52.62554 3.569173,52.600728" slic3r:type="contour"/>
    <polygon style="fill: white" points="5.60803,54.523531 5.266178,55.58126 4.627844,55.628296 4.036339,55.613584 4.15107,55.197052 4.435265,54.461204 4.385441,54.402204 4.386723,54.397567 4.38751,54.3956 4.404205,54.395348 4.425461,54.416618 4.999681,54.406016 5.679012,54.337488" slic3r:type="contour"/>
    <polygon style="fill: white" points="6.757147,55.808399 6.644375,56.633861 7.347529,57.205373 7.5308,57.13252 8.253504,56.829704 8.253831,56.946375 8.271764,57.610232 9.374153,58.2136 10.016149,57.857704 10.027362,57.943516 10.102054,58.437537 10.648439,58.6312 11.591422,58.991383 11.968664,58.736003 11.98014,58.787627 12.0538,59.082908 13.697453,59.464979 13.930232,59.525086 14.006163,59.464964 14.009189,59.475427 14.028625,59.534271 14.407824,59.580876 15.898282,60.137829 15.987425,60.060496 16.018079,60.031912 16.078794,60.204933 16.458362,60.312595 17.742382,60.698881 17.93293,60.505203 17.99741,60.435103 18.165225,60.817528 18.985898,60.970276 19.61032,61.09562 19.866821,60.78468 19.9528,60.6767 20.235191,61.194366 21.272934,61.265148 21.535177,61.284737 21.804539,60.887224 21.895064,60.757144 22.254737,61.289776 23.219612,61.224275 23.542723,61.199898 23.764225,60.79854 23.837328,60.6767 24.191435,61.104113 24.939211,60.966336 25.612162,60.828273 25.748084,60.523807 25.79275,60.435104 26.05978,60.704368 26.544153,60.568424 27.703569,60.211649 27.70531,60.207519 27.707462,60.206753 27.755573,60.072216 27.77202,60.031912 27.896923,60.139345 28.107122,60.064559 29.382584,59.580788 29.664407,59.553148 29.759036,59.538064 29.783962,59.46496 29.793275,59.471691 29.865658,59.527851 31.22056,59.23428 31.728034,59.099601 31.821466,58.736008 31.867768,58.765624 32.220602,59.001368 32.816388,58.796547 33.6787,58.463024 33.774004,57.85768 33.852348,57.899392 34.45616,58.230926 35.508906,57.650263 35.509148,57.616508 35.536652,56.829684 35.646895,56.873167 36.476147,57.215465 37.142085,56.673328 37.098992,56.42358 37.006188,55.6599 37.155284,55.691744 38.115986,55.931306 38.224551,55.953783 38.253155,55.9608 38.264127,56.036256 38.229054,56.067312 38.285132,56.555919 38.3984,57.194968 38.069452,57.092616 37.191829,56.927593 36.709161,57.32592 36.708828,57.470644 36.678576,57.490603 36.66332,57.838671 36.668252,58.544524 36.397748,58.414748 35.708833,58.151451 35.670328,58.183228 35.618522,58.159027 34.857229,58.632927 34.846376,58.722436 34.809739,58.74156 34.78118,58.917627 34.69254,59.676652 34.476988,59.543628 33.895275,59.23174 33.85034,59.259712 33.821995,59.242748 32.796354,59.750642 32.782381,59.814072 32.733203,59.835405 32.569584,60.618828 32.404073,60.497359 31.92864,60.183262 31.893737,60.197616 31.889601,60.199664 31.889294,60.199443 30.629679,60.717478 30.614446,60.767488 30.562008,60.787202 30.39445,61.389748 30.275703,61.290715 29.928088,61.025535 29.38856,61.228379 28.442019,61.564612 28.425034,61.60878 28.387369,61.619922 28.251422,62.005672 28.179499,61.937779 27.95819,61.746887 26.694273,62.120792 26.232652,62.249192 26.221592,62.272692 26.204897,62.275926 26.123836,62.457815 26.091538,62.422784 25.986662,62.318194 24.117687,62.680188 24.031064,62.695855 24.028642,62.700159 24.026303,62.700325 24.006782,62.73512 24.00086,62.727644 23.981505,62.704818 23.981035,62.704903 23.980041,62.703601 22.724825,62.79248 21.924468,62.782976 21.899551,62.820656 21.895064,62.82722 21.865742,62.782449 21.78676,62.782723 21.065301,62.79248 19.874625,62.707579 19.81046,62.703371 19.783346,62.735119 19.778539,62.726651 19.763743,62.700308 19.761484,62.70016 19.758538,62.694942 18.096791,62.367343 17.809791,62.31593 17.666262,62.457816 17.644914,62.413152 17.583001,62.275301 17.568519,62.272707 17.553903,62.242063 16.41255,61.896803 15.847913,61.741531 15.538705,62.005672 15.49998,61.908936 15.395586,61.617143 15.365103,61.60876 15.34098,61.547524 14.766258,61.326816 13.887877,61.017929 13.395701,61.389752 13.343543,61.233603 13.214861,60.78126 13.175664,60.767476 13.151844,60.692015 13.099238,60.668836 11.919154,60.186557 11.900468,60.199672 11.879354,60.188511 11.220565,60.618828 11.164405,60.405443 11.040133,59.827317 11.007723,59.814072 10.988537,59.731052 9.98274,59.234935 9.939734,59.259679 9.9108,59.240366 9.81379,59.298212 9.097598,59.676648 9.050579,59.405579 8.96809,58.734448 8.943688,58.722412 8.929853,58.618798 8.183872,58.155491 8.119978,58.183268 8.094043,58.160031 7.822158,58.28314 7.121891,58.54452 7.102959,58.21524 7.103264,57.484357 7.081391,57.470772 7.079375,57.35944 7.080922,57.319018 6.604852,56.926274 6.054775,57.077907 5.391738,57.194987 5.428422,56.8133 5.556051,56.061043 5.525942,56.036203 5.532444,55.982996 5.536902,55.960827 5.723712,55.921051 5.726237,55.922795 6.066308,55.8481 6.783915,55.659888" slic3r:type="contour"/>
  </g></svg>