<svg width="43.790126" height="63.590156" xmlns="http://www.w3.org/2000/svg" xmlns:svg="http://www.w3.org/2000/svg" xmlns:xlink="http://www.w3.org/1999/xlink" xmlns:slic3r="http://slic3r.org/namespaces/slic3r"><g xmlns="http://www.w3.org/2000/svg" slic3r:z="2.47549999999999e-005" id="layer74">
    <polygon style="fill: white" points="3.344199,49.743584 3.530003,49.80806 3.17249,50.301307 3.460652,50.741016 3.888158,51.442288 3.831332,51.658656 3.763272,51.837078 3.994356,51.89426 3.951537,51.956487 3.793796,52.180701 3.905699,52.801768 3.920277,53.469969 4.587768,53.531336 4.519671,53.65256 4.293508,54.080922 4.34669,54.16042 4.771435,54.996644 5.401877,54.945988 5.368415,55.039415 5.262913,55.374917 6.024229,55.96198 6.342917,56.241038 6.510158,56.197044 6.506736,56.220192 6.49722,56.310445 6.978764,56.54532 7.859393,57.356895 7.965733,57.314624 8.010269,57.295964 8.010819,57.492779 8.450192,57.793992 9.431679,58.475904 9.716928,58.323212 9.820558,58.265764 9.88954,58.793683 11.188378,59.519897 11.669171,59.210216 11.824833,59.10484 11.995132,59.870855 12.026327,59.995907 12.055753,60.012632 12.058823,60.023651 13.012331,60.480651 13.709073,59.971279 13.910376,59.811888 14.105686,60.487099 14.26369,60.96548 13.469968,61.614371 13.305941,61.738288 13.045209,60.957711 12.993973,60.777605 11.801943,60.57319 11.694338,60.643532 11.623894,60.626744 11.192428,60.935688 11.099775,60.996208 10.960959,60.468758 10.314979,60.314812 8.982439,60.080828 8.975041,60.084819 8.971027,60.083477 8.944567,60.099255 8.938931,60.102235 8.933501,60.070932 8.899589,60.059595 8.820554,60.0391 7.59206,59.125955 7.238101,58.886654 7.223433,58.893296 7.217032,58.887032 6.926289,59.00028 6.918621,58.908959 6.911543,58.665879 6.900114,58.658152 6.895163,58.572049 6.399194,58.086692 5.811429,57.567825 5.775477,57.577736 5.772913,57.574062 5.161816,57.691015 5.176655,57.502367 5.239316,57.062775 5.221165,57.046752 5.241648,56.833636 4.708527,56.158637 4.544933,56.16858 3.787258,56.161776 3.861973,55.894287 4.065154,55.344043 4.039211,55.311196 4.098347,55.096499 3.810231,54.624567 3.445107,54.574124 2.784547,54.450988 2.920964,54.172895 3.22376,53.663932 3.204339,53.63212 3.271155,53.485743 2.900244,52.828329 2.741327,52.774211 2.092173,52.567612 2.221226,52.376715 2.467715,52.061701 2.456789,52.042336 2.481957,52.000813 1.686602,50.8572 1.80322,50.498817 1.758296,50.480644 1.76309,50.47337 1.634522,50.412071 1.583381,50.389092 2.088641,49.669463 2.402865,49.295784" slic3r:type="contour"/>
    <polygon style="fill: white" points="2.425123,45.753231 2.998861,46.379912 2.909119,46.509556 2.696383,46.747846 3.068812,46.939648 2.95062,47.09458 2.217191,48.079724 1.658851,47.754792 1.111527,47.433568 1.27004,47.224032 1.535109,46.898843 1.569295,46.842741 0.965449,46.265008 1.254997,45.92222 1.854553,45.18192" slic3r:type="contour"/>
    <polygon style="fill: white" points="2.024474,41.71594 2.587617,42.50434 2.515308,42.611592 2.319532,42.792367 2.39646,42.864687 2.626229,43.014356 2.512848,43.157844 1.740001,44.287776 1.169049,43.908088 0.655786,43.469568 0.807077,43.244887 1.010782,42.985916 1.101445,42.80745 0.56401,42.254964 0.831551,41.978771 1.504375,41.128552" slic3r:type="contour"/>
    <polygon style="fill: white" points="1.878134,37.681788 2.057239,38.091386 2.335568,38.419259 2.434264,38.501068 2.299242,38.644826 2.322111,38.697127 2.314929,38.706949 2.385838,38.790844 2.431766,38.866292 1.86463,39.643164 1.446552,39.954044 1.376393,39.85329 0.981091,39.55212 0.423891,38.880564 0.486539,38.783443 0.567948,38.692286 0.556142,38.675331 0.599746,38.600151 0.431625,38.35464 0.551834,38.254328 1.486524,37.079468" slic3r:type="contour"/>
    <polygon style="fill: white" points="2.119768,32.875582 2.083912,32.917595 2.314938,33.550946 2.332134,33.654579 2.60453,34.046339 2.7966,34.21812 2.464469,34.452097 2.487676,34.591952 2.448967,34.632222 2.580938,34.867759 2.669047,35.136583 2.142517,35.816503 1.52838,36.196187 0.949467,34.740055 0.724357,34.368948 0.749908,34.3359 0.7791,34.311534 0.775438,34.302324 0.797591,34.274751 0.758813,34.1595 0.814364,34.126316 1.964002,32.87677 1.951979,32.836128 1.997921,32.784555 2.044121,32.753462" slic3r:type="contour"/>
    <polygon style="fill: white" points="25.707053,4.491734 26.217705,4.689821 26.365726,4.557715 26.557889,4.362859 26.50337,4.706785 26.618829,4.917464 26.67351,4.951034 26.939273,4.944272 27.32613,4.956385 27.387068,4.928595 27.430239,4.933838 27.51773,4.881447 27.575998,4.85017 27.599568,4.954402 27.64566,4.960001 27.764252,4.946194 27.790816,5.382062 27.941303,5.63042 28.032134,5.569495 28.494668,5.327882 28.598242,5.740902 28.640513,6.036456 28.993949,6.068717 29.159452,5.956131 29.205688,5.961008 29.369266,5.836079 29.518406,5.743845 29.600827,6.002683 29.78896,6.022527 30.319196,5.995869 30.418537,6.157585 30.524822,6.242661 30.685428,6.118053 30.722817,6.23145 30.787645,6.453039 30.817324,6.476795 30.845528,6.554124 30.992683,6.664758 31.480012,6.941497 31.663405,6.789601 32.013286,6.502355 32.116632,6.832324 32.228424,7.205829 32.808677,7.348171 32.867638,7.30209 32.921069,7.321289 33.129422,7.167292 33.41134,6.95093 33.529278,7.416844 33.562255,7.55167 34.164084,7.767911 34.277821,7.809499 34.314092,7.78694 34.333754,7.797059 34.539415,7.67568 34.795304,7.516342 34.870658,8.026277 34.874456,8.027666 34.879136,8.077714 35.329928,8.309693 35.599709,8.449089 35.640499,8.43298 35.642794,8.43475 35.853011,8.356372 36.088064,8.264235 36.081718,8.698142 36.08304,8.698825 36.080155,8.772121 36.370275,8.995916 36.75275,9.285796 36.797072,9.278719 36.797257,9.278927 36.965159,9.251765 37.14366,9.223415 37.067939,9.583066 37.238924,9.775185 37.697877,10.270927 37.735467,10.272227 37.737077,10.274798 37.842051,10.274794 37.953203,10.276442 37.871311,10.489 37.957331,10.626266 38.422224,11.328895 38.444956,11.332973 38.446677,11.336745 38.503696,11.343444 38.56522,11.351819 38.505009,11.464585 38.542835,11.547485 38.940815,12.365349 38.954243,12.369039 38.955545,12.372824 38.989428,12.379339 39.02738,12.387089 38.983594,12.454341 39.001272,12.505717 39.30269,13.332371 39.318031,13.337884 39.319101,13.342584 39.356475,13.352788 39.39968,13.364329 39.34113,13.439351 39.353639,13.494309 39.540903,14.305444 39.558704,14.313981 39.55944,14.320937 39.611308,14.341813 39.670452,14.364546 39.574039,14.458866 39.581347,14.527925 39.653688,15.334212 39.667991,15.343682 39.667693,15.353239 39.734388,15.394033 39.800924,15.432929 39.662284,15.526394 39.660339,15.588682 39.608536,16.438601 39.613171,16.443022 39.612319,16.447849 39.665696,16.499043 39.709412,16.541269 39.587453,16.588797 39.581736,16.621201 39.453816,17.269402 39.247208,17.201188 39.165845,17.296374 39.183984,17.319436 39.183507,17.320146 39.364696,17.550132 39.325408,17.567865 38.440967,17.890177 38.785848,18.231678 39.02862,18.546887 38.737547,18.705178 38.451204,18.830229 38.529648,19.10452 38.69559,19.564939 38.804371,19.653288 38.859255,19.708624 38.7571,19.781542 38.791696,19.848104 38.872368,20.00533 38.655084,20.636177 38.549547,21.056671 38.6059,21.092043 38.597441,21.205369 39.090888,21.439636 38.874856,21.627117 38.521924,22.063013 38.458704,22.589953 39.049843,22.990717 39.720224,23.825257 39.801316,23.869326 39.830804,23.88097 39.793091,23.915969 39.830499,23.962535 39.836948,23.965892 39.87756,24.01255 40.087704,25.531877 40.063769,26.259901 40.215056,26.34238 40.241214,26.554782 40.385079,26.642079 40.97684,26.905462 40.679347,27.162534 40.367116,27.711039 40.512356,27.881458 40.342166,28.164775 41.186723,28.526763 41.817484,29.294492 41.865664,29.797554 41.826703,30.066856 41.88782,30.109476 41.886647,30.203974 42.154368,30.364108 42.036636,30.465649 41.880174,30.725339 41.872044,31.380228 41.625576,32.217602 40.512916,31.286386 40.273508,31.171954 40.373219,30.724673 40.300072,30.656946 40.301792,30.615106 40.186908,30.560732 40.060144,30.457546 40.333492,29.844454 40.40093,28.204932 40.240804,28.130146 40.130568,28.042978 40.124338,27.852465 40.087432,27.822144 39.5257,27.587522 38.86922,27.131092 38.910567,27.043828 39.00622,26.933822 38.964248,26.899338 39.041633,26.744356 38.625296,26.488778 38.575451,24.707829 38.336756,24.55498 38.334579,24.479089 38.110555,24.389649 37.819084,24.219232 38.069708,23.784239 38.306466,23.498895 38.28672,22.810439 37.866532,22.158088 37.646015,22.054959 37.106344,21.71349 37.221916,21.548822 37.371414,21.389405 37.33246,21.328928 37.425309,21.22778 37.124968,20.303118 36.951677,19.835315 36.86476,19.770876 36.886747,19.746066 36.910859,19.725127 36.907419,19.715844 36.917229,19.708303 36.88126,19.299376 37.177744,18.468854 37.034195,18.345739 36.969528,18.28051 37.300432,18.101352 37.317757,18.076644 37.356967,17.966806 37.431763,17.91405 37.687046,17.549971 37.401675,17.289435 37.234696,17.115142 37.822948,16.878345 38.168437,16.757101 37.757103,16.438127 37.472148,16.210876 37.975332,16.012081 38.321528,15.8658 37.908316,15.614114 37.54548,15.412039 37.969852,15.189426 38.287129,14.987469 37.897808,14.803662 37.487772,14.641183 37.840608,14.386336 38.125759,14.134247 37.769951,14.010366 37.317724,13.887396 37.601131,13.61696 37.82274,13.359676 37.782511,13.250468 37.530176,13.188836 37.040404,13.098974 37.264195,12.823065 37.447148,12.561393 37.337613,12.327628 37.210091,12.311741 36.676272,12.261658 36.844656,11.985467 36.982533,11.74435 36.787292,11.431814 36.211884,11.452013 36.320144,11.17552 36.415086,10.945131 36.124913,10.609471 35.625932,10.712433 35.672219,10.434236 35.723034,10.210967 35.309004,9.877881 34.88166,10.057943 34.866948,9.782991 34.873434,9.589598 34.63872,9.466958 34.229951,9.251231 33.870736,9.476533 33.830203,9.235866 33.810244,9.07576 33.223971,8.883616 32.898709,8.767567 32.667986,8.944976 32.638535,8.792342 32.617883,8.698833 31.393493,8.466414 31.387076,8.441099 31.38633,8.440354 31.384714,8.434665 30.672349,7.605692 30.272366,7.901847 30.08908,8.074219 30.007529,7.770931 29.917118,7.517918 29.787124,7.510274 29.15044,7.455935 29.108947,7.483323 29.036587,7.48063 28.832028,7.663415 28.807342,7.551801 28.781445,7.471135 28.31754,7.45387 28.005665,6.975779 27.790022,7.094918 27.660612,7.192996 27.607566,6.724975 27.519462,6.356825 27.332398,6.345576 27.243628,6.386721 26.982372,6.401232 26.628806,6.665637 26.638884,6.508993 26.621456,6.421278 26.288322,6.439783 26.251388,6.344804 26.173455,6.355381 26.160554,6.482573 26.064508,6.456499 26.075598,6.571513 26.010072,6.558828 25.860412,6.512949 25.707368,6.553888 25.528918,6.540297 25.461514,7.015195 25.270584,6.927001 24.855258,6.681576 24.818906,6.769129 24.627952,7.262322 24.397614,7.053725 24.085477,6.74698 23.982006,6.930862 23.75441,7.361573 23.533933,7.089556 23.246991,6.728776 23.082086,6.987634 22.834214,7.392585 22.630688,7.100151 22.351389,6.699967 22.157774,6.994206 21.895063,7.393343 21.702402,7.100569 21.43902,6.70038 21.22889,7.002137 20.955892,7.392586 20.768753,7.100453 20.537782,6.729538 20.334475,6.981153 20.035736,7.361573 19.874402,7.07745 19.688686,6.735434 19.515946,6.893363 19.16217,7.262332 19.056393,7.010033 18.906872,6.635115 18.788727,6.690487 18.328612,7.015208 18.302748,6.839767 18.259429,6.538705 18.08276,6.553888 17.848215,6.516985 17.714532,6.571517 17.727734,6.498028 17.629572,6.482583 17.584038,6.344375 17.498633,6.359833 17.501822,6.439777 17.327256,6.36976 17.227661,6.371922 17.161322,6.665638 16.933288,6.595106 16.571709,6.386172 16.546496,6.38672 16.306753,6.287762 16.184165,6.981382 16.129539,7.192996 15.727738,6.997483 15.646617,7.114882 15.472643,7.453839 15.12273,7.448022 15.028304,7.455556 14.958093,7.663401 14.833347,7.589436 14.698955,7.481834 14.681112,7.483259 14.59732,7.433111 14.279192,7.43975 13.908366,7.477463 13.811191,7.780932 13.701049,8.074204 13.373521,7.86363 13.041016,7.581088 12.750763,7.87216 12.411923,8.417103 12.399069,8.458674 12.395988,8.46705 11.373959,8.635968 11.181175,8.682119 11.122147,8.944982 10.984882,8.854696 10.865789,8.765556 10.324384,8.938504 9.968215,9.066427 9.919393,9.476521 9.732557,9.350963 9.566199,9.245652 9.313496,9.377524 8.887941,9.602223 8.908462,10.057953 8.701002,9.942683 8.518522,9.862926 8.429742,9.937831 8.052459,10.240528 8.164189,10.712435 7.914825,10.645779 7.682968,10.596028 7.371957,10.95547 7.578254,11.451996 7.288695,11.441454 6.988787,11.430877 6.807007,11.722441 6.846984,11.789862 7.113867,12.261623 6.784008,12.308745 6.41821,12.345665 6.338565,12.515848 6.465295,12.682451 6.749715,13.098974 6.381003,13.202399 5.941375,13.288608 6.164885,13.521119 6.472395,13.887397 6.069366,14.046956 5.72322,14.145649 5.960121,14.333071 6.302354,14.6412 5.87784,14.862792 5.558934,14.992472 5.867389,15.169442 6.244644,15.412053 5.813558,15.689741 5.494231,15.869379 5.945684,16.053275 6.317982,16.210906 5.885998,16.539944 5.606373,16.762344 6.301193,17.026297 6.55543,17.115194 6.165174,17.443932 6.389941,17.685516 6.598995,18.174115 6.72765,18.238847 6.820582,18.28049 6.686174,18.386183 6.754352,18.4992 6.908853,19.299265 6.891114,19.668314 6.882029,19.71532 6.882712,19.715818 6.87867,19.732348 6.925369,19.770848 6.893712,19.788319 6.859258,19.811732 6.574298,20.977007 6.428576,21.298755 6.457641,21.328866 6.40544,21.435679 6.683765,21.713508 6.460597,21.814142 6.128984,22.001359 6.019692,22.224988 5.538024,22.809972 5.595399,23.608619 5.578464,23.721493 5.736295,23.960917 5.971036,24.219274 5.474962,24.411351 5.453413,24.554978 5.326145,24.622773 5.360863,25.199024 5.164911,26.488569 4.978581,26.710742 4.779622,26.822731 4.825885,26.899258 4.758274,26.971356 4.920918,27.13106 4.773786,27.192545 4.300607,27.459389 4.093111,27.680652 3.679203,27.886855 3.659551,28.042978 3.43336,28.187874 3.390969,28.208597 3.552156,29.364152 3.513429,30.171803 3.61671,30.346517 3.729989,30.457578 3.494361,30.569451 3.490169,30.656891 3.444467,30.690769 3.498711,30.887176 3.516717,31.171668 2.871304,31.866271 2.164664,32.217554 2.030264,31.137722 1.967333,31.072716 1.635747,30.364168 1.77197,30.234332 1.90784,30.154115 1.902292,30.109538 2.016572,30.011037 1.972595,29.294628 2.313907,29.157084 3.431551,28.151665 3.38247,28.101128 3.277763,27.881456 3.412392,27.768126 2.979687,27.291913 2.81327,26.905476 3.199691,26.614945 3.572725,26.44859 3.575114,26.342379 3.82127,26.172358 3.867969,25.177261 3.912568,24.012608 4.017545,23.954702 3.969012,23.900006 3.95932,23.881028 4.227302,23.698139 5.342622,22.63014 5.29233,22.141777 4.91134,21.75927 4.699251,21.43962 4.912766,21.285784 5.189687,21.145053 5.184228,21.092038 5.218302,21.071542 4.917748,20.005438 5.037436,19.774096 4.975387,19.731918 4.930868,19.70862 5.069601,19.612012 5.289347,18.888244 5.323746,18.778971 5.031311,18.628756 4.761478,18.546878 4.908761,18.419415 5.381809,17.885357 4.909068,17.679983 4.425395,17.550098 4.445289,17.530929 4.553065,17.407398 4.336152,17.268962 4.203363,16.580167 4.137564,16.554948 4.080705,16.541234 4.177889,16.448034 4.176921,16.443015 4.184928,16.435753 4.182413,16.358454 4.132819,15.523292 4.056136,15.472119 3.98922,15.432894 4.1226,15.35119 4.122152,15.343651 4.139249,15.332373 4.14888,15.241276 4.218554,14.458599 4.167242,14.408695 4.119656,14.364551 4.230923,14.319651 4.231429,14.31397 4.248755,14.305515 4.265648,14.231321 4.449211,13.436838 4.419724,13.399392 4.390462,13.364303 4.471067,13.342243 4.472077,13.337873 4.485013,13.333282 4.505089,13.274894 4.806287,12.450195 4.785353,12.418519 4.762762,12.387089 4.834318,12.373445 4.835931,12.369029 4.846415,12.366331 4.873835,12.306268 5.285275,11.456787 5.256238,11.403457 5.224894,11.351866 5.342611,11.338406 5.345229,11.333001 5.362965,11.330207 5.426571,11.228906 5.92035,10.476801 5.914267,10.463177 5.915209,10.462121 5.880188,10.37311 5.836899,10.276467 6.05148,10.277066 6.054641,10.272252 6.084951,10.271825 6.238517,10.099664 6.723649,9.571807 6.713396,9.53127 6.719298,9.526722 6.689618,9.389319 6.646481,9.223391 6.992277,9.27952 6.993023,9.278709 7.032287,9.285576 7.337185,9.050663 7.711771,8.765868 7.707097,8.698816 7.717942,8.693234 7.714591,8.509118 7.702062,8.264237 8.196234,8.447039 8.679398,8.198334 8.912259,8.078077 8.915686,8.027672 8.926399,8.023817 8.956773,7.815362 8.994809,7.516352 9.465726,7.792245 9.476022,7.786928 9.516086,7.811654 10.232409,7.553926 10.235919,7.531677 10.237417,7.531309 10.295983,7.298447 10.378772,6.950947 10.757155,7.229128 10.876311,7.318959 10.922515,7.302104 10.98376,7.348139 11.567827,7.204794 11.655205,6.923492 11.7768,6.502373 12.024402,6.707792 12.269702,6.90996 12.96962,6.485943 12.972845,6.476704 13.023449,6.427848 13.104694,6.118045 13.180451,6.183402 13.232868,6.225656 13.470853,5.995886 14.224776,5.970028 14.251885,5.8796 14.271691,5.743845 14.5364,5.959339 14.630611,5.956108 14.674317,5.987867 15.218213,5.965999 15.277007,5.718992 15.295431,5.327898 15.525873,5.494653 15.698041,5.593487 16.025882,4.946189 16.206292,4.937775 16.214129,4.85017 16.345112,4.931301 16.403083,4.928599 16.478901,4.965332 16.985831,4.967964 17.026356,4.66067 17.232236,4.362857 17.595991,4.676758 17.847186,4.569752 18.095628,4.353694 18.145628,4.341452 18.207456,4.431792 18.25838,4.423741 18.492421,4.756301 18.83252,4.731535 18.892178,4.976266 18.876161,5.040109 19.105524,5.009513 19.116541,5.211227 19.270662,5.133393 19.343188,5.463126 19.47383,5.334844 19.6072,5.207656 19.849577,5.740166 20.153545,5.366196 20.228626,5.271936 20.502728,5.753043 20.703244,5.734297 20.960919,5.377276 21.017608,5.296696 21.289203,5.723301 21.608663,5.71698 21.841319,5.375701 21.895064,5.297074 22.183021,5.720166 22.496277,5.726329 22.720107,5.377422 22.77252,5.296676 23.098851,5.74121 23.289086,5.758771 23.507226,5.370683 23.561498,5.271942 23.96171,5.757514 24.130024,5.35704 24.182914,5.207649 24.500129,5.525729 24.52469,5.364274 24.519462,5.133407 24.715042,5.267251 24.772879,5.220121 24.684616,5.009508 24.92259,5.13469 25.118389,5.167735 25.145986,5.087606 24.957644,4.731512 25.045692,4.820585 25.302845,4.85065 25.531756,4.423734 25.597364,4.449184 25.642354,4.372574 25.644498,4.341451" slic3r:type="contour"/>
    <polygon style="fill: white" points="41.838168,32.836182 41.836276,32.846903 42.290755,33.124255 43.031288,34.159364 43.022736,34.236204 43.001542,34.289105 43.014644,34.302352 43.009295,34.321106 43.065788,34.36906 43.035336,34.393495 42.959774,34.494728 42.655628,35.561095 42.261715,36.196215 41.34654,35.265508 41.121076,35.136459 41.364666,34.672024 41.302416,34.591944 41.319341,34.524088 41.154084,34.409488 40.993528,34.218104 41.297915,33.646592 41.617585,33.328398 41.71955,32.919615 41.670316,32.875652 41.705195,32.798154 41.746,32.75349" slic3r:type="contour"/>
    <polygon style="fill: white" points="42.782388,37.481696 43.3585,38.354748 43.300268,38.499103 43.20384,38.632572 43.234004,38.675392 43.214835,38.708259 43.366236,38.880576 43.263407,38.955232 42.776401,39.459973 42.714196,39.566627 42.343535,39.954024 41.426483,38.912855 41.358344,38.866204 41.480699,38.717826 41.46796,38.697124 41.481694,38.670538 41.412936,38.599504 41.355848,38.501156 41.815796,37.835955 41.992066,37.68258 42.303732,37.079268" slic3r:type="contour"/>
    <polygon style="fill: white" points="42.789515,41.649967 43.226116,42.254956 43.036452,42.527535 42.707638,42.859332 42.76762,42.9628 42.752157,42.980991 43.13434,43.469588 42.857375,43.649936 42.050124,44.287776 41.611547,43.734607 41.163896,43.014348 41.250816,42.943863 41.441071,42.817804 41.49299,42.762731 41.202504,42.5044 41.351979,42.332652 42.285712,41.128507" slic3r:type="contour"/>
    <polygon style="fill: white" points="42.425259,45.761879 42.824692,46.265032 42.591339,46.522216 42.231888,46.862371 42.253767,46.896707 42.247044,46.904683 42.67862,47.433504 42.392835,47.599712 41.57286,48.079712 41.178135,47.562199 40.72134,46.939604 40.828871,46.874236 41.106311,46.728423 40.791284,46.379908 40.998167,46.171376 41.935568,45.181896" slic3r:type="contour"/>
    <polygon style="fill: white" points="42.157687,50.331451 42.20672,50.389144 42.028024,50.474943 42.031863,50.480656 41.986437,50.50037 42.042731,50.674275 42.103527,50.857135 41.600503,51.642332 41.322097,52.025096 41.333328,52.042327 41.312401,52.084213 41.697951,52.56762 41.465647,52.647772 40.935969,52.819301 40.52796,53.515338 40.585764,53.632128 40.556093,53.686799 40.650796,53.870368 41.00558,54.451016 40.711967,54.487712 40.015421,54.611064 39.696092,55.130969 39.751008,55.311268 39.709319,55.368947 39.747024,55.495016 40.002872,56.161792 39.749372,56.141116 39.136814,56.140143 38.551033,56.890578 38.568956,57.046744 38.534765,57.079094 38.628336,57.690996 38.464272,57.642475 38.032199,57.55525 38.014644,57.577739 38.009448,57.576122 37.502204,58.056052 36.892506,58.601707 36.890032,58.658156 36.870432,58.672249 36.863839,59.000284 36.789064,58.964176 36.580495,58.880945 36.566712,58.89328 36.564517,58.892226 34.9696,60.039099 34.854635,60.07313 34.851224,60.102236 34.820455,60.083248 34.81512,60.084828 34.810709,60.082408 34.63922,60.120515 32.812357,60.496181 32.71183,60.893367 32.690354,60.996208 32.184854,60.625217 32.095788,60.643532 32.028111,60.598652 30.781422,60.79434 30.536807,61.549068 30.48419,61.738288 29.890541,61.243203 29.526456,60.96546 29.794069,60.063144 29.87975,59.811864 30.4813,60.246788 30.784805,60.482266 31.727916,60.035027 31.734383,60.012624 31.756355,60.000414 31.918009,59.288912 31.965316,59.104816 32.617455,59.521902 33.482133,59.0414 33.877998,58.813884 33.878939,58.809116 33.895371,58.7979 33.951135,58.382752 33.969548,58.265796 34.365796,58.476774 34.837392,58.154847 35.777076,57.496708 35.778164,57.344448 35.77986,57.295968 35.934953,57.357145 36.089671,57.218468 36.811428,56.545252 37.154575,56.398648 37.291652,56.321717 37.279936,56.197039 37.304663,56.202291 37.484096,56.247218 38.069351,55.864052 38.536234,55.437722 38.388248,54.945992 38.493119,54.946768 39.118823,54.985024 39.537511,54.181361 39.202392,53.531316 39.33796,53.506415 39.938114,53.43704 40.030317,52.224137 39.795772,51.89426 39.856771,51.872784 40.03986,51.82292 39.901968,51.442287 40.624533,50.310472 40.373031,49.963511 40.260128,49.80806 40.91832,49.472347 41.387472,49.295836" slic3r:type="contour"/>
    <polygon style="fill: white" points="28.346193,60.808163 28.764093,61.17944 28.412029,62.077672 28.317922,62.344708 27.806047,61.861503 27.405136,61.515692 27.697625,60.706272 27.831964,60.387604" slic3r:type="contour"/>
    <polygon style="fill: white" points="26.253375,61.219527 26.693278,61.671035 26.315071,62.471704 26.169236,62.79894 25.732034,62.324731 25.313524,61.907356 25.637086,61.182843 25.826344,60.81204" slic3r:type="contour"/>
    <polygon style="fill: white" points="24.20013,61.474916 24.64089,62.002172 24.23284,62.722507 24.030682,63.082844 23.655574,62.60904 23.245825,62.125828 23.610263,61.470648 23.851426,61.073796" slic3r:type="contour"/>
    <polygon style="fill: white" points="16.164275,60.97438 16.384976,61.5157 15.69581,62.153692 15.472206,62.344708 15.196602,61.656244 15.02601,61.179415 15.714995,60.608656 15.958171,60.387604" slic3r:type="contour"/>
    <polygon style="fill: white" points="18.18555,61.32062 18.4766,61.907332 17.883029,62.539792 17.620882,62.798939 17.331915,62.194379 17.096867,61.67104 17.690551,61.098072 17.963796,60.81204" slic3r:type="contour"/>
    <polygon style="fill: white" points="20.184069,61.521583 20.544256,62.125824 20.032018,62.763683 19.759446,63.08284 19.454877,62.546219 19.149253,62.002116 19.652487,61.419644 19.938702,61.073796" slic3r:type="contour"/>
    <polygon style="fill: white" points="22.179755,61.574199 22.595534,62.159484 22.146873,62.82328 21.895064,63.181712 21.56593,62.690532 21.194576,62.159536 21.617057,61.553292 21.895064,61.1641" slic3r:type="contour"/>
  </g></svg>