<svg width="43.790126" height="63.590156" xmlns="http://www.w3.org/2000/svg" xmlns:svg="http://www.w3.org/2000/svg" xmlns:xlink="http://www.w3.org/1999/xlink" xmlns:slic3r="http://slic3r.org/namespaces/slic3r"><g xmlns="http://www.w3.org/2000/svg" slic3r:z="2.315e-006" id="layer6">
    <polygon style="fill: white" points="22.114081,0.378866 22.283042,0.62502 22.294752,0.624354 22.328869,0.672973 22.361555,0.674881 22.376285,0.674222 22.377341,0.675802 22.780296,0.699307 22.791733,0.685622 22.828997,0.691485 22.866341,0.648969 22.884363,0.652331 23.090124,0.41686 23.328644,0.136718 23.508846,0.461776 23.664293,0.750037 23.675462,0.750672 23.688753,0.774933 23.73968,0.77721 23.759864,0.815663 24.129436,0.88461 24.172556,0.844916 24.203669,0.854612 24.225706,0.835458 24.245174,0.841949 24.484939,0.63058 24.765402,0.377935 24.899261,0.714354 25.023606,1.039807 25.086754,1.049851 25.117544,1.132802 25.339775,1.206895 25.458179,1.243496 25.533616,1.192893 25.562042,1.207684 25.566816,1.204681 25.586493,1.214631 25.860438,1.038077 26.181884,0.827867 26.264302,1.177622 26.337625,1.515348 26.397868,1.53397 26.419039,1.635593 26.758805,1.807389 26.843306,1.769623 26.870763,1.79179 26.88642,1.785309 26.904834,1.798366 27.200615,1.670739 27.547734,1.520801 27.573416,1.891899 27.58862,2.219336 27.594128,2.222042 27.595429,2.245157 27.643906,2.269767 27.645927,2.323879 28.089495,2.638416 28.182156,2.616156 28.197102,2.630216 28.478039,2.557807 28.815482,2.471927 28.779814,2.879227 28.755222,3.096175 28.758354,3.098315 28.75286,3.153042 29.300605,3.668328 29.386971,3.745956 29.467666,3.736803 29.479554,3.750898 29.719979,3.718938 30.021232,3.679837 29.926045,4.120989 29.904411,4.211045 29.907258,4.213603 29.89927,4.248488 30.408151,4.851788 30.688826,5.168638 30.757196,5.16698 30.767227,5.181318 30.964383,5.171358 31.225614,5.158593 31.084141,5.614902 31.087242,5.618403 31.082716,5.632243 31.580235,6.343342 32.002665,6.919438 32.069018,6.921914 32.078388,6.937486 32.250598,6.93737 32.492433,6.937287 32.33428,7.362774 32.886199,8.280054 33.354807,9.024843 33.443748,9.033556 33.45112,9.048806 33.633703,9.059323 33.89828,9.073483 33.719219,9.495405 33.693986,9.551122 34.30558,10.816079 34.577203,11.347199 34.689763,11.367431 34.692304,11.375104 34.925536,11.411585 35.251408,11.459572 35.065124,11.8168 34.934701,12.046238 34.936923,12.050582 34.923607,12.07372 35.23973,13.028521 35.545179,13.684004 35.697216,13.733748 35.708497,13.787325 35.920099,13.856481 36.32994,13.983899 36.135976,14.257267 35.933185,14.516653 35.962332,14.579202 35.893198,14.664536 35.901032,14.701736 36.235516,16.066147 36.450276,16.219911 36.440928,16.285931 36.863812,16.564693 36.659956,16.739444 36.441677,16.907112 36.447212,16.929688 36.339198,17.00439 36.274875,17.458654 36.189384,18.50358 36.27468,18.609764 36.261115,18.645548 36.518552,18.95635 36.33586,19.032503 36.077346,19.130336 35.720536,20.071606 35.519398,20.703846 35.534024,20.727258 35.528837,20.737903 35.67008,20.97177 35.554167,20.997188 35.418116,21.022205 35.417815,21.023152 35.38775,21.027437 34.821751,22.188974 34.704307,22.468263 34.778964,22.582776 34.721283,22.594604 34.646105,22.606671 34.644904,22.609526 34.636993,22.610736 34.259703,23.514472 34.216071,23.646913 34.272476,23.691806 34.210376,23.718756 34.264356,24.276017 34.270255,24.390319 34.358404,24.41623 34.325672,24.448343 34.30067,24.474264 34.604152,25.092893 34.660844,25.255377 34.83538,25.271982 34.791864,25.342189 34.747887,25.422491 35.132976,26.130178 35.243988,26.385586 35.260636,26.387178 35.272668,26.417083 35.596836,26.457724 35.516048,26.592099 35.417164,26.776229 35.680168,27.429928 35.830496,27.87138 35.880828,27.885304 35.889023,27.930849 36.346532,28.071828 36.198024,28.255185 36.033545,28.467655 36.036948,28.477646 35.996347,28.527282 36.086844,29.030206 36.21388,29.820831 36.260736,29.84355 36.263334,29.90198 36.773768,30.162914 36.556484,30.351423 36.331136,30.550589 36.332544,30.559349 36.294033,30.592191 36.309572,30.94157 36.352443,32.038695 36.405664,32.073206 36.401909,32.138997 36.488736,32.199878 36.922036,32.48751 36.654451,32.667848 36.384327,32.854682 36.384351,32.855288 36.360127,32.871042 36.346987,33.101264 36.273067,34.37123 36.339208,34.424068 36.328552,34.494989 36.454816,34.601704 36.840572,34.911983 36.531351,35.074928 36.214896,35.251494 36.198924,35.357803 36.000103,36.651441 36.078388,36.727476 36.05979,36.79962 36.210572,36.95296 36.554368,37.28668 36.205475,37.422644 35.859881,37.57311 35.557262,38.703608 35.641048,38.804908 35.612113,38.879796 35.792628,39.107052 36.081904,39.453168 35.687407,39.5521 35.303546,39.669296 34.956862,40.529733 35.039932,40.659572 34.998941,40.734809 35.205915,41.070219 35.42912,41.412424 34.986068,41.457363 34.558703,41.528058 34.212913,42.137147 34.28604,42.293668 34.233207,42.364372 34.449759,42.845303 34.600624,43.160632 34.112564,43.130764 33.643109,43.136601 33.334875,43.533698 33.388632,43.708496 33.326981,43.769128 33.518341,44.424615 33.600768,44.687976 33.080785,44.562776 32.582004,44.484128 32.326598,44.726595 32.355008,44.897332 32.28746,44.946958 32.409079,45.770835 32.441972,45.971651 31.911823,45.742467 31.414299,45.571573 31.189093,45.731311 31.196216,45.882668 31.125782,45.921912 31.146992,46.878732 31.15216,47.024676 30.633287,46.697807 30.159523,46.444002 29.932251,46.565857 29.925798,46.690296 29.854539,46.721022 29.76648,47.755103 29.758086,47.870784 29.267831,47.463343 28.831026,47.14531 28.571469,47.251958 28.558624,47.34894 28.487395,47.373325 28.304247,48.418016 28.284826,48.538724 27.834484,48.075348 27.438198,47.714439 27.122805,47.81575 27.104912,47.901604 27.040091,47.917987 26.785462,48.903935 26.746776,49.062612 26.343512,48.568532 25.977031,48.170983 25.608031,48.257354 25.586218,48.332924 25.532587,48.34141 25.226037,49.2365 25.157922,49.442352 24.800063,48.930415 24.48123,48.521104 24.481196,48.521112 24.467079,48.499366 24.048659,48.560049 24.023864,48.62598 23.985312,48.628137 23.637675,49.434408 23.53537,49.674452 23.218131,49.148403 22.938912,48.720992 22.927724,48.722615 22.906718,48.684522 22.466519,48.706933 22.439598,48.763748 22.419393,48.762617 22.02619,49.508463 21.895064,49.753908 21.61237,49.208192 21.373644,48.76257 21.350528,48.763747 21.323531,48.705257 20.885255,48.682946 20.862403,48.722616 20.858206,48.721951 20.393345,49.46098 20.254758,49.674452 20.001341,49.095515 19.802524,48.627826 19.766262,48.62598 19.739795,48.55568 19.337069,48.497271 18.757654,49.279995 18.632206,49.442351 18.411421,48.825807 18.251939,48.33989 18.203909,48.332924 18.179815,48.251553 17.826184,48.168753 17.143958,48.952539 17.043326,49.06264 16.862445,48.412399 16.742933,47.915119 16.685214,47.901604 16.665114,47.809738 16.364629,47.713154 15.584441,48.46606 15.505276,48.5387 15.374258,47.868411 15.295739,47.369586 15.231505,47.34894 15.216949,47.24655 14.971235,47.145502 14.111021,47.812932 14.032046,47.870792 13.963467,47.204024 13.929522,46.717107 13.864326,46.690296 13.85682,46.560516 13.643285,46.445905 12.742454,46.968504 12.637996,47.024676 12.640576,46.381736 12.658188,45.917168 12.59391,45.882668 12.598689,45.766679 12.600774,45.725272 12.390245,45.575739 11.500308,45.919492 11.348158,45.971648 11.424095,45.372736 11.495833,44.94046 11.435118,44.897335 11.455307,44.769396 11.463952,44.718929 11.224956,44.491632 10.402694,44.65512 10.189359,44.687976 10.332711,44.15148 10.455756,43.760079 10.401517,43.708496 10.44326,43.566855 10.456798,43.523885 10.165813,43.14815 9.467013,43.165744 9.18948,43.160612 9.38428,42.697852 9.549515,42.352348 9.504086,42.293688 9.579998,42.12511 9.250565,41.543227 8.691709,41.469584 8.361005,41.412399 8.588902,41.022679 8.784982,40.720861 8.75024,40.659496 8.837824,40.51881 8.503267,39.686275 8.075918,39.568368 7.708223,39.453168 7.955109,39.128591 8.173481,38.865616 8.149079,38.804892 8.237627,38.695977 7.941942,37.589167 7.623326,37.458452 7.235757,37.28668 7.492481,37.016208 7.72745,36.786283 7.71174,36.727476 7.792475,36.648439 7.57957,35.261737 7.342326,35.133479 6.949571,34.912 7.210894,34.683459 7.459735,34.481223 7.450962,34.42408 7.517956,34.370334 7.50998,34.230775 7.431188,32.876799 7.267577,32.76528 6.868094,32.487524 7.128069,32.298797 7.387408,32.124467 7.384424,32.073194 7.441918,32.035765 7.45246,31.7967 7.499786,30.595397 7.457592,30.559361 7.45843,30.554652 7.426112,30.526393 7.016353,30.162916 7.266348,30.019628 7.52782,29.883762 7.529405,29.843539 7.590265,29.813721 7.651734,29.468246 7.802729,28.540257 7.753179,28.47763 7.753808,28.476022 7.443594,28.071808 7.664797,27.9879 7.904977,27.911859 7.909301,27.885286 7.99433,27.860823 8.174687,27.399508 8.380212,26.813111 8.19329,26.457724 8.346824,26.427766 8.523418,26.404521 8.529493,26.387188 8.582821,26.38072 8.912833,25.746234 9.04843,25.446367 8.954748,25.271982 9.036126,25.258886 9.137764,25.248808 9.142751,25.23778 9.162492,25.235567 9.443824,24.633325 9.4978,24.485107 9.431724,24.41623 9.475236,24.401788 9.525008,24.387076 9.578095,23.822757 9.58361,23.718703 9.517648,23.691806 9.568734,23.653447 9.185356,22.756749 9.13576,22.602393 9.011162,22.582778 9.045336,22.538028 9.081653,22.483156 8.491598,21.310224 8.375802,21.023569 8.372314,21.023152 8.369732,21.01659 8.12005,20.971766 8.184997,20.880149 8.264997,20.750454 7.808169,19.589631 7.664859,19.109911 7.650009,19.105626 7.648551,19.095868 7.271576,18.95635 7.395152,18.82042 7.530381,18.659759 7.515441,18.60975 7.566801,18.54886 7.430026,17.633677 7.387052,16.959921 7.342913,16.929688 7.353172,16.880137 6.926316,16.564692 7.13732,16.423917 7.344142,16.287187 7.339851,16.219911 7.515552,16.095849 7.603402,15.671538 7.867116,14.627538 7.827764,14.579156 7.864103,14.498555 7.724513,14.308682 7.460184,13.983883 7.783632,13.876623 8.080596,13.782402 8.092878,13.733778 8.229412,13.688015 8.447511,13.221978 8.676269,12.508146 8.856938,12.022159 8.711535,11.75244 8.538715,11.459601 8.964656,11.391883 9.098798,11.371573 9.100332,11.367447 9.186538,11.352762 9.663036,10.355222 10.09439,9.520923 10.009561,9.326127 9.891861,9.073471 10.339339,9.047154 10.346363,9.033569 10.417618,9.027496 10.895461,8.229784 11.455327,7.342914 11.389628,7.169247 11.297695,6.937287 11.711195,6.9376 11.721097,6.921914 11.771006,6.920693 12.225331,6.270653 12.712121,5.605408 12.648726,5.405903 12.564543,5.158595 13.02196,5.181984 13.032919,5.167007 13.082536,5.16878 13.581556,4.577749 13.887188,4.230846 13.88287,4.213624 13.894416,4.20278 13.841691,3.968022 13.768892,3.679835 14.200266,3.737662 14.309121,3.75194 14.322468,3.73679 14.382577,3.744281 14.957789,3.204023 15.035961,3.13335 15.031722,3.098311 15.044385,3.089341 15.017313,2.8089 14.974656,2.471924 15.354922,2.570346 15.591682,2.630932 15.608019,2.616163 15.685005,2.635528 16.144724,2.309866 16.146233,2.269731 16.195105,2.244323 16.196007,2.222072 16.209674,2.215162 16.229347,1.89405 16.242417,1.520793 16.577823,1.665475 16.884959,1.798087 16.903697,1.785235 16.918614,1.791547 16.946878,1.769734 17.023011,1.803934 17.372725,1.627116 17.392246,1.534022 17.459158,1.513164 17.529799,1.204959 17.608246,0.827867 17.912951,1.02342 18.205436,1.21349 18.223332,1.204688 18.227773,1.207497 18.256528,1.1929 18.331116,1.242966 18.674006,1.128602 18.70339,1.049834 18.771697,1.039089 18.890995,0.734965 19.02474,0.377919 19.302253,0.620973 19.54856,0.840765 19.564534,0.83555 19.586432,0.854527 19.617567,0.844904 19.658955,0.882964 20.031367,0.813466 20.050453,0.777195 20.10147,0.775031 20.114666,0.750672 20.130536,0.749746 20.287168,0.464409 20.461482,0.136715 20.710999,0.420029 20.910242,0.651373 20.923734,0.648901 20.961429,0.691487 20.998379,0.685609 21.009152,0.698481 21.413393,0.674894 21.413842,0.674222 21.420249,0.674494 21.462241,0.672044 21.495376,0.624355 21.511916,0.62532 21.690772,0.368853 21.895064,0.067534" slic3r:type="contour"/>
    <polygon style="fill: black" points="21.257855,1.796248 20.861146,1.812877 20.752642,2.009898 20.68061,2.134211 20.437931,1.855548 19.986526,1.922328 19.644671,1.977352 19.560161,2.195173 19.502978,2.331486 19.220358,2.082116 18.771008,2.217018 18.462082,2.316327 18.411397,2.546515 18.375696,2.688708 18.06875,2.490615 17.665406,2.69541 17.328504,2.875634 17.317918,3.094052 17.307558,3.228443 17.010407,3.099816 16.697822,3.346112 16.263391,3.703273 16.282371,3.881753 16.29119,3.988987 16.042853,3.926243 15.8122,4.170241 15.214238,4.826396 15.242039,4.948124 15.256975,5.021377 15.078916,5.000318 14.911645,5.210785 14.124076,6.251796 14.146657,6.323082 14.158854,6.365979 14.049354,6.363648 13.931208,6.523971 12.933062,7.989339 12.948406,8.030174 12.956219,8.054086 12.891806,8.057142 12.802411,8.179746 11.58585,10.023561 11.606544,10.070005 11.616357,10.096256 11.541767,10.104219 11.406229,10.297564 10.22789,12.102751 10.308713,12.247429 10.348577,12.329388 10.096263,12.375057 9.499016,13.327934 9.010743,14.106416 9.229363,14.395368 9.365633,14.582978 9.045633,14.676254 8.732024,14.779849 8.702677,14.84282 8.686692,15.157888 8.573854,16.389964 8.904999,16.633119 8.773807,16.702982 8.639205,16.791876 9.086543,17.798852 9.091429,18.377244 9.142215,18.39305 9.221863,18.418792 9.121285,18.54011 9.239381,18.943818 9.524029,20.027832 9.775156,20.063175 10.07602,20.124876 9.946247,20.34956 9.760798,20.655519 10.124177,21.563486 10.196866,21.577216 10.197538,21.579369 10.629439,21.646132 11.08318,21.75355 11.021442,21.856642 10.51929,22.610366 10.602481,22.876938 10.665585,22.830928 11.344526,23.164978 11.780175,23.372109 11.792845,23.349594 11.805536,23.383225 11.809627,23.38629 11.806452,23.388922 11.801527,23.459371 11.790056,23.40254 10.947726,24.147373 11.31825,24.588067 11.653954,24.898516 11.58604,24.921918 10.529089,25.322665 10.498309,25.41408 10.736075,25.878846 10.940081,26.182808 10.666062,26.207579 10.206248,26.273469 10.197916,26.297808 10.124016,26.310461 9.912121,26.805994 9.862986,26.914963 9.980204,27.134331 10.114743,27.357778 9.644782,27.398873 9.623309,27.446492 9.483003,27.866933 9.280203,28.459529 9.344221,28.540708 9.433412,28.658514 9.20356,28.717444 9.152928,29.050623 8.968326,30.308598 9.004904,30.34096 9.054325,30.387836 8.95323,30.43611 8.947494,30.617027 8.866316,32.428236 8.916567,32.463568 8.864924,32.496546 8.871438,32.602806 8.93978,34.64364 9.003442,34.6758 8.944225,34.721884 8.96371,34.849768 9.183591,36.7886 9.220755,36.803708 9.286572,36.8255 9.199831,36.906534 9.24691,37.08604 9.589535,38.702035 9.636519,38.714615 9.729727,38.729884 9.624219,38.851042 9.708289,39.065076 10.140868,40.383448 10.195244,40.3899 10.316491,40.388716 10.201251,40.558134 10.331599,40.794228 10.82148,41.837899 10.881842,41.835179 11.030958,41.806456 10.917074,42.034104 11.103021,42.280564 11.619045,43.074079 11.685244,43.059003 11.859551,42.991484 11.761777,43.285327 12.009517,43.526915 12.528938,44.105293 12.604535,44.073247 12.797652,43.95944 12.731427,44.321727 13.040821,44.546528 13.556549,44.968746 13.642916,44.914823 13.847562,44.753288 13.823695,45.178066 14.190294,45.378591 14.701013,45.690105 14.797428,45.610996 15.007642,45.404844 15.030672,45.883225 15.449619,46.057931 15.954727,46.291016 16.05949,46.186215 16.271037,45.941656 16.3403,46.464363 16.810797,46.616831 17.301172,46.791687 17.407723,46.66536 17.618304,46.388507 17.731604,46.939222 18.248147,47.060623 18.708318,47.179278 18.813395,47.031464 19.01855,46.726256 19.179429,47.290659 19.729424,47.370444 20.157026,47.438353 20.25645,47.269671 20.450766,46.940223 20.634271,47.431075 20.661367,47.501413 21.225546,47.530052 21.629572,47.552403 21.717951,47.365188 21.895064,47.016272 22.108825,47.465523 22.152151,47.55524 22.707051,47.527072 23.110738,47.504725 23.185427,47.301404 23.33936,46.940224 23.593874,47.372 23.636853,47.444902 24.163753,47.368452 24.584734,47.301456 24.642888,47.0909 24.771576,46.726232 25.097119,47.186779 25.584089,47.072244 26.028161,46.957385 26.068962,46.748159 26.171815,46.388508 26.51386,46.798112 26.954303,46.655168 27.417416,46.489413 27.441695,46.288376 27.51909,45.941656 27.867958,46.29516 28.259987,46.131232 28.724967,45.915648 28.731556,45.732091 28.78248,45.404824 29.126948,45.691081 29.470818,45.502223 29.932061,45.219211 29.920894,45.05422 29.942568,44.753296 30.276224,44.963753 30.569275,44.7496 31.028662,44.370643 31.000914,44.225616 30.992476,43.959452 31.305237,44.092249 31.547236,43.854419 32.006936,43.337552 31.965648,43.214399 31.930559,42.991484 32.210852,43.053656 32.402617,42.796932 32.861799,42.082877 32.811926,41.981803 32.759156,41.806436 32.999289,41.814386 33.142831,41.551396 33.585451,40.597402 33.533599,40.519047 33.473658,40.3887 33.669612,40.362374 33.769456,40.105063 34.166963,38.878916 34.118619,38.821423 34.060392,38.729912 34.212447,38.686657 34.274207,38.448136 34.592952,36.923635 34.552732,36.884632 34.503539,36.825504 34.612542,36.779609 34.64304,36.576551 34.848267,34.730184 34.820547,34.707863 34.786683,34.6758 34.852731,34.639584 34.861067,34.499976 34.927007,32.500886 34.90324,32.485322 34.87356,32.463568 34.924664,32.428739 34.920752,32.308764 34.838687,30.440465 34.794448,30.418954 34.735796,30.38783 34.821871,30.312994 34.787975,30.089223 34.586642,28.726112 34.495035,28.701917 34.356692,28.658524 34.512853,28.46255 34.359696,28.005038 34.16399,27.428705 33.944728,27.407486 33.675384,27.357763 33.826203,27.066962 33.925973,26.888736 33.67688,26.310642 33.250168,26.269002 32.850046,26.182802 32.934005,26.008798 33.287019,25.393528 33.264825,25.327771 32.599959,25.096844 32.136172,24.898544 32.171124,24.855657 32.83792,24.140293 32.370794,23.705368 32.003456,23.404214 31.9886,23.459374 31.983576,23.387864 31.9805,23.38629 31.984111,23.3846 31.997282,23.349593 32.005414,23.37405 33.124542,22.830928 33.191302,22.880494 33.276658,22.607809 32.964967,22.102939 32.70695,21.75355 32.866964,21.729568 33.588017,21.59468 33.593276,21.577216 33.681005,21.558557 34.007808,20.748613 34.041074,20.660708 33.876196,20.38062 33.714104,20.124876 34.072319,20.077086 34.27446,20.043996 34.281616,20.025088 34.291479,20.023037 34.479592,19.399643 34.674426,18.559358 34.621739,18.493299 34.568268,18.418784 34.708902,18.375357 34.721668,18.178371 34.703584,17.798852 35.043599,17.297296 35.187638,16.849948 34.885128,16.63312 35.031256,16.511049 35.25244,16.339931 35.24828,15.956004 35.131358,14.812358 34.675452,14.669979 34.424492,14.582964 34.655875,14.282523 34.782959,14.111284 34.291583,13.326968 33.692167,12.372048 33.537657,12.345142 33.441558,12.329418 33.55097,12.147108 33.547584,12.141714 33.558304,12.121941 33.321395,11.792366 32.242521,10.101785 32.202295,10.098132 32.173742,10.096255 32.202099,10.038445 32.200785,10.036386 32.203332,10.03062 32.125987,9.926066 30.893354,8.055855 30.859229,8.054605 30.833907,8.054117 30.856143,7.999399 30.855673,7.998685 30.85723,7.994586 30.791883,7.906128 29.735569,6.363654 29.676296,6.364949 29.631276,6.365976 29.667465,6.258502 29.551209,6.112012 28.707208,5.002464 28.6081,5.013628 28.533156,5.021375 28.578585,4.834861 28.376517,4.620721 27.744261,3.930242 27.604098,3.964566 27.49894,3.988976 27.532088,3.715829 27.226658,3.474782 26.775242,3.105527 26.6073,3.176956 26.482576,3.228455 26.472221,2.890809 26.080082,2.691701 25.715647,2.497449 25.538756,2.610503 25.41443,2.688711 25.342221,2.329955 24.916125,2.20224 24.565272,2.089571 24.399428,2.234648 24.28717,2.331497 24.159427,1.985536 23.730465,1.922232 23.352098,1.861217 23.205839,2.027123 23.109516,2.134215 22.938957,1.814777 22.515921,1.798467 22.105937,1.781237 21.977597,1.963009 21.895064,2.076251 21.689591,1.779582" slic3r:type="hole"/>
  </g></svg>