<svg width="43.790126" height="63.590156" xmlns="http://www.w3.org/2000/svg" xmlns:svg="http://www.w3.org/2000/svg" xmlns:xlink="http://www.w3.org/1999/xlink" xmlns:slic3r="http://slic3r.org/namespaces/slic3r"><g xmlns="http://www.w3.org/2000/svg" slic3r:z="4.15849999999998e-005" id="layer125">
    <polygon style="fill: white" points="24.37176,58.135104 24.694884,58.555236 24.308608,59.308855 24.09352,59.753228 23.725013,59.256363 23.301164,58.715664 23.773165,57.752228 23.896104,57.513196" slic3r:type="contour"/>
    <polygon style="fill: white" points="26.516066,57.811988 26.808636,58.132368 26.438516,59.004207 26.297184,59.382015 25.839605,58.857227 25.434272,58.433128 25.858874,57.340275 25.925,57.183428" slic3r:type="contour"/>
    <polygon style="fill: white" points="30.293875,56.015439 30.760084,56.424866 30.806116,56.420208 30.870518,56.468558 31.955118,56.332668 31.802372,57.142915 31.641316,57.667056 30.867591,57.745449 30.810383,57.93968 30.79235,58.019608 30.520949,57.780571 30.467844,57.785952 30.440341,57.764435 28.824578,57.895491 28.596218,58.542751 28.522464,58.797512 27.933612,58.211424 27.679555,57.986971 27.574234,57.99484 27.514512,57.940129 27.4145,57.946148 27.72876,57.427606 27.965564,56.758 27.981004,56.723861 28.002839,56.652812 28.004364,56.648442 29.333938,56.569175 30.001183,56.501658 30.172742,55.9148" slic3r:type="contour"/>
    <polygon style="fill: white" points="32.727577,55.191999 33.39744,55.69706 33.296508,56.127175 33.15702,57.00174 33.013052,56.92302 32.101592,56.325356 32.23625,55.852271 32.41772,54.987" slic3r:type="contour"/>
    <polygon style="fill: white" points="35.060356,54.093444 35.585204,54.394988 35.477495,55.047796 35.442696,55.715312 35.060835,55.561963 34.35114,55.202676 34.450751,54.46194 34.499508,53.859" slic3r:type="contour"/>
    <polygon style="fill: white" points="37.017767,52.632019 37.452028,52.78646 37.398648,53.623207 37.442716,54.154076 36.899535,54.023343 36.329076,53.856504 36.2521,52.997536 36.225256,52.539636" slic3r:type="contour"/>
    <polygon style="fill: white" points="38.767587,50.873252 38.819995,50.8802 39.0462,51.74352 39.162764,52.199816 38.603672,51.950572 38.074959,51.908852 37.66832,51.285236 37.577912,50.877952 38.410507,50.825916" slic3r:type="contour"/>
    <polygon style="fill: white" points="39.775604,49.756968 40.141044,50.28894 39.583839,50.494072 38.805552,50.778492 38.354804,50.072372 38.121596,49.783064 38.602292,49.734323 39.375392,49.39594" slic3r:type="contour"/>
    <polygon style="fill: white" points="41.188391,46.021779 41.42092,46.22606 40.767419,46.64546 40.952784,47.27044 41.066612,47.64712 40.413752,47.951343 39.82994,48.132152 39.291284,46.261096 39.287439,46.246751 40.02014,45.720127 40.525543,45.371416" slic3r:type="contour"/>
    <polygon style="fill: white" points="41.534235,40.453075 41.772723,41.391102 42.007576,41.581544 42.099484,41.641248 41.879793,41.812233 41.89048,41.854268 41.879809,41.863347 41.966635,42.101707 42.026495,42.314356 41.313931,42.990208 40.856875,43.257652 40.574135,42.378108 39.995168,41.861612 40.120468,41.752459 40.323731,41.599155 40.318936,41.58424 40.371073,41.53368 40.07786,40.622904 40.397607,40.318432 41.174348,39.392672" slic3r:type="contour"/>
    <polygon style="fill: white" points="41.724892,36.916184 42.273444,37.20336 41.972268,37.448515 41.246104,38.163544 40.54072,37.78042 40.204348,37.531675 40.577715,37.1533 41.242444,36.587996" slic3r:type="contour"/>
    <polygon style="fill: white" points="41.281656,36.485587 41.271383,36.503944 41.265036,36.510432 41.256624,36.483608 41.262156,36.477379 41.26534,36.474552" slic3r:type="contour"/>
    <polygon style="fill: white" points="38.862012,22.807698 38.88878,22.854392 39.258835,22.987713 39.903404,23.16642 39.77418,23.303775 39.421549,23.783732 40.71572,26.041232 40.733274,26.186456 40.759188,26.19265 40.736894,26.216395 40.739977,26.241907 40.758172,26.32603 41.293233,29.405318 41.443024,29.47199 41.517556,29.49298 41.339582,29.672059 41.349696,29.730262 41.336578,29.7457 41.470896,30.241658 42.080318,33.152724 42.081343,33.153104 41.63158,34.754883 41.172987,35.5074 40.739453,33.99465 40.699359,33.977055 40.040536,33.582452 40.190283,33.421958 40.495074,33.141935 40.4851,33.107128 40.602537,32.965117 40.409792,32.172488 39.873143,30.19005 39.530039,30.020398 39.602787,29.936136 39.761302,29.776902 39.755644,29.755996 39.827621,29.661358 39.558031,28.236047 39.250796,26.944154 38.803076,26.752444 38.896999,26.635828 39.119828,26.393451 39.11242,26.3623 39.230572,26.197511 39.186308,25.794368 38.88025,24.081839 38.615604,24.004224 37.974216,23.757078 38.161315,23.502734 38.66976,22.904053 38.657512,22.835522 38.696759,22.778136 38.713724,22.757048" slic3r:type="contour"/>
    <polygon style="fill: white" points="37.878959,17.889326 38.039039,17.93276 38.04254,17.935022 38.057912,17.93769 38.057864,17.966246 38.027904,20.125846 38.628855,20.314185 39.015132,20.414098 38.695583,20.77485 38.278556,21.38706 37.449088,21.184868 37.113439,21.065342 37.451695,20.536092 37.663473,20.26408 37.049508,19.828368 36.55808,19.621838 36.607188,19.237607 36.598759,18.832031 36.160128,18.723894 36.240976,18.541423 36.688756,17.808287 36.688084,17.529269" slic3r:type="contour"/>
    <polygon style="fill: white" points="36.073804,15.488565 36.372167,15.534729 36.670804,15.584624 36.402704,16.154911 36.137351,16.715424 35.320626,16.601632 34.892152,16.640681 34.895952,16.602894 34.891368,16.544121 34.800428,16.533997 34.812504,16.485913 34.883667,16.281283 34.866763,15.735708 34.753856,14.827333 35.514328,14.706667 35.956252,14.62535" slic3r:type="contour"/>
    <polygon style="fill: white" points="33.88592,13.313961 33.945396,13.31832 33.947678,13.326304 34.259555,13.353331 34.703875,13.413178 34.57662,13.932031 34.331156,14.605068 33.821608,14.550532 33.805971,14.557723 33.12594,14.899238 33.091796,14.707779 33.034498,14.46629 33.015768,14.464285 33.009809,14.443523 32.36974,14.419128 32.440056,14.1005 32.566197,13.248245 32.677492,13.251682 32.633386,13.088345 33.338611,12.706988 33.623168,12.469083" slic3r:type="contour"/>
    <polygon style="fill: white" points="21.237843,8.392398 21.881561,8.414803 21.895064,8.391008 21.907181,8.414373 22.552739,8.392132 22.558342,8.379525 22.565132,8.391028 22.749326,8.382426 22.612431,8.471143 22.63799,8.514436 22.634151,8.516223 22.975225,9.137504 23.075626,8.961961 23.349614,8.397197 23.384746,8.468203 23.859358,9.394986 24.096256,9.001973 24.32189,8.50427 24.467721,8.82502 24.767236,9.459598 25.187213,9.468615 25.378396,9.155036 25.536378,8.750158 25.865843,9.515396 25.875455,9.51612 25.884348,9.534169 26.369072,9.56222 26.905184,9.625543 27.013056,9.448969 27.10111,9.179445 27.308344,9.673162 27.335978,9.676426 27.345724,9.695813 27.641886,9.720494 28.983876,9.929481 28.991593,9.901307 29.004593,9.932706 29.007359,9.933137 29.00741,9.933241 29.08082,9.947459 29.035973,9.991626 29.654336,11.255617 29.692799,11.259211 29.718653,11.309637 30.457762,11.349526 30.87634,11.399802 31.097474,11.177731 31.196698,10.949357 31.408233,11.463689 31.459786,11.469881 31.469249,11.490523 31.687698,11.508919 32.150232,11.580295 31.949199,12.20871 31.864004,12.351662 32.051412,12.760482 31.456466,13.351093 31.128794,13.652241 30.92089,13.125396 30.752452,12.655944 30.643008,12.644116 30.601295,12.542409 29.365503,12.460494 29.10052,12.758745 29.027794,12.59816 28.960208,12.433628 28.92026,12.430981 28.903077,12.392605 27.801138,12.333237 28.059001,11.893089 28.213576,11.182223 28.400489,11.188615 28.332132,11.011914 28.749663,10.498543 28.82859,10.305927 28.7675,10.256028 28.802968,10.201508 28.74799,10.144362 27.842805,10.68464 27.950928,10.899726 27.299476,11.970103 27.208076,12.110125 26.877443,11.383893 26.654709,10.837897 26.49838,10.823881 26.466133,10.748829 26.130753,10.729878 25.853043,11.167356 25.567394,11.612398 25.34507,11.105816 25.165217,10.675318 25.05998,10.669371 25.049154,10.642617 24.705416,10.637754 24.30055,11.27709 24.159073,10.938216 24.023869,10.631101 23.600624,10.641803 23.334017,11.080998 23.242128,10.863316 23.146422,10.664178 23.029471,10.672759 22.750861,10.68597 22.750547,10.686536 22.742489,10.686897 22.56792,10.988216 22.501992,10.845688 22.425647,10.701391 22.416477,10.701826 22.416338,10.701511 22.207614,10.710862 22.035079,10.716104 21.895064,10.964724 21.833006,10.84937 21.76248,10.724386 21.759962,10.724462 21.75315,10.71147 21.542639,10.701592 21.376294,10.696606 21.373637,10.701794 21.372472,10.701696 21.22218,10.988214 21.136651,10.850603 21.041729,10.686577 21.039506,10.68651 21.031355,10.672961 20.907908,10.662563 20.675081,10.652087 20.674198,10.654003 20.659364,10.653258 20.456128,11.080994 20.320409,10.87994 20.168357,10.629439 19.826215,10.621738 19.823898,10.627288 19.773466,10.62812 19.489503,11.277098 19.284915,10.974764 19.072346,10.638938 18.740231,10.643533 18.72999,10.669389 18.616258,10.679014 18.569534,10.788061 18.222732,11.612398 17.942708,11.167646 17.666163,10.736894 17.318822,10.754476 17.291694,10.823803 17.12137,10.847917 16.706998,11.8098 16.582057,12.110124 16.220829,11.482655 15.83923,10.899819 15.968679,10.598172 15.588248,10.264804 14.972225,10.051125 14.928224,10.106594 15.022915,10.256482 15.009773,10.266716 15.458023,11.01162 15.38316,11.192262 15.576044,11.182223 15.948009,12.052282 15.988974,12.333245 15.169807,12.40079 14.879691,12.407115 14.869795,12.430993 14.823613,12.436584 14.689552,12.758773 14.588531,12.632865 14.454697,12.481259 13.980216,12.538715 13.174589,12.570321 13.146997,12.644161 13.020936,12.665348 12.661314,13.652227 12.297861,13.279524 11.73861,12.760361 11.954752,12.177767 11.826334,11.825651 11.639913,11.580301 12.310696,11.505794 12.330274,11.46989 12.336445,11.46941 12.411515,11.262241 12.593359,10.949425 13.04347,11.366121 13.075351,11.411968 14.051927,11.336048 14.111916,11.234421 14.34537,10.658231 14.76088,9.969419 14.709311,9.947457 14.7793,9.936403 14.798534,9.901307 14.816483,9.929719 14.863775,9.924924 16.429334,9.718311 16.445331,9.69127 16.52255,9.492323 16.688913,9.17948 16.962607,9.640876 17.558783,9.599268 17.872745,9.567294 18.020301,9.210432 18.253704,8.750171 18.521091,9.198028 18.672771,9.493039 18.997029,9.483189 19.188336,9.053894 19.468236,8.504244 19.587015,8.703289 19.938493,9.359366 20.118532,8.991568 20.440482,8.397197 20.471113,8.45097 20.818698,9.104116 20.880051,8.987236 21.153038,8.515011 21.151944,8.514743 21.186858,8.455238 21.040396,8.382411 21.223962,8.391505 21.231786,8.379499" slic3r:type="contour"/>
    <polygon style="fill: black" points="22.226406,8.705982 22.092312,8.751046 22.233961,9.011495 22.391955,8.703264 22.342542,8.651933" slic3r:type="hole"/>
    <polygon style="fill: black" points="21.553932,8.991913 21.728374,8.683833 21.625583,8.630956 21.325533,8.557336" slic3r:type="hole"/>
    <polygon style="fill: white" points="10.548398,12.653837 11.15674,13.088345 11.110709,13.253981 11.223924,13.248224 11.361051,13.93562 11.420422,14.419099 11.068491,14.439825 10.778614,14.448973 10.774359,14.464284 10.76358,14.465458 10.664177,14.899244 10.47154,14.812375 9.946493,14.553593 9.458967,14.605068 9.234769,13.785037 9.086272,13.41316 9.837213,13.34094 9.844709,13.318355 9.850468,13.318062 9.960836,12.925506 10.166944,12.469097" slic3r:type="contour"/>
    <polygon style="fill: white" points="8.298969,14.694921 9.036244,14.82724 8.914715,16.340155 8.989638,16.534037 8.951586,16.535217 8.903324,16.5409 8.898113,16.64049 8.83987,16.646256 8.110222,16.621193 7.652697,16.715372 7.256799,15.87448 7.119361,15.584545 7.693114,15.495539 7.742106,15.095635 7.833845,14.625353" slic3r:type="contour"/>
    <polygon style="fill: white" points="7.124196,17.861414 7.208493,18.007049 7.209282,18.061213 7.260108,18.16706 7.630022,18.723848 7.488817,18.73115 7.219977,18.795509 7.232014,19.621902 6.440636,20.151456 6.13982,20.315608 6.492805,20.839938 6.676689,21.065322 6.174655,21.161524 5.511608,21.387074 5.024513,20.801848 4.77499,20.414116 5.31983,20.239662 5.775025,20.11438 5.792482,19.153178 5.731923,17.937798 5.73742,17.936768 5.747618,17.934953 5.750758,17.932855 6.670224,17.680943 7.102103,17.529332" slic3r:type="contour"/>
    <polygon style="fill: white" points="5.132684,22.835676 5.12137,22.916166 5.401369,23.281833 5.815919,23.757076 5.539246,23.828492 4.946624,24.047772 4.588772,26.244409 4.67777,26.362368 4.668029,26.411964 4.987054,26.752468 4.850735,26.793401 4.570483,26.908621 4.23439,28.61983 3.979756,29.688199 4.034388,29.755871 4.026861,29.789337 4.260079,30.020398 4.1591,30.053949 3.944619,30.154975 3.595959,31.705065 3.217713,33.008694 3.304976,33.107114 3.291245,33.165108 3.749609,33.582448 3.556189,33.658384 3.115393,33.907855 3.044692,34.206475 2.616909,35.507368 1.709349,33.154332 1.709634,33.15322 1.70941,33.15293 1.709814,33.152692 2.465926,29.762695 2.440455,29.730298 2.447742,29.69675 2.32351,29.566601 2.272589,29.492988 2.517214,29.376918 2.643231,28.79676 3.055565,26.22908 3.052362,26.22472 3.053114,26.22008 3.036933,26.20185 3.030953,26.192586 3.059431,26.18109 3.066785,26.135699 3.074639,26.0404 3.848992,25.049343 4.406084,23.892011 4.325128,23.801206 3.886706,23.166405 4.087605,23.091666 4.910788,22.843508 4.927964,22.807826 5.048873,22.764322 5.076423,22.757128" slic3r:type="contour"/>
    <polygon style="fill: white" points="2.533694,36.483596 2.529834,36.498208 2.525313,36.51032 2.508744,36.485572 2.521179,36.476596 2.525006,36.474572" slic3r:type="contour"/>
    <polygon style="fill: white" points="3.161398,37.17274 3.585794,37.53172 3.134578,37.754216 2.544132,38.163672 1.979912,37.699351 1.516682,37.203388 1.765527,37.025135 2.547594,36.587956" slic3r:type="contour"/>
    <polygon style="fill: white" points="3.192696,39.936391 3.712264,40.622952 3.591438,41.079739 3.430332,41.547175 3.471163,41.584187 3.463363,41.6109 3.794952,41.86156 3.6593,41.952108 3.26691,42.283708 3.181003,42.577916 2.933054,43.257552 1.922299,42.405096 1.763596,42.314128 1.91708,41.870369 1.899597,41.854244 1.907051,41.828626 1.772547,41.723796 1.69064,41.641308 2.051344,41.332713 2.615876,39.392499" slic3r:type="contour"/>
    <polygon style="fill: white" points="4.494174,46.240744 4.502944,46.246806 4.162386,47.361436 3.960157,48.132176 3.066913,47.74928 2.723513,47.64714 3.012519,46.675452 2.621157,46.425508 2.369205,46.226072 2.82736,45.763676 3.26453,45.371436" slic3r:type="contour"/>
    <polygon style="fill: white" points="5.062726,49.5265 5.668528,49.783064 5.306814,50.362676 4.984589,50.77846 4.274712,50.516968 3.649063,50.288936 3.97136,50.009871 4.414777,49.395951" slic3r:type="contour"/>
    <polygon style="fill: white" points="5.841257,51.322335 5.715186,51.908851 5.068017,52.180928 4.627343,52.199804 4.828291,51.432688 4.970128,50.8802 4.971074,50.88024 5.022772,50.882432 5.931031,50.920948 6.212214,50.877952" slic3r:type="contour"/>
    <polygon style="fill: white" points="7.496085,53.258704 7.46105,53.856504 6.835088,54.006836 6.347379,54.154064 6.307164,53.418892 6.338111,52.786468 7.240685,52.663795 7.564878,52.53964" slic3r:type="contour"/>
    <polygon style="fill: white" points="9.378032,54.457052 9.438881,55.202784 8.92149,55.410615 8.347389,55.715284 8.270053,55.220928 8.204974,54.39498 8.875537,54.104676 9.290652,53.859016" slic3r:type="contour"/>
    <polygon style="fill: white" points="11.485653,55.361296 11.688531,56.325532 11.367645,56.501184 10.63302,57.001708 10.590537,56.816095 10.392681,55.697056 10.800332,55.423119 11.372455,54.987028" slic3r:type="contour"/>
    <polygon style="fill: white" points="13.677672,56.07286 13.79884,56.486639 15.786091,56.648741 15.804834,56.712946 15.82387,56.755904 15.832101,56.779145 16.37604,57.946172 16.279221,57.939677 16.24426,57.968144 16.215829,57.9949 16.118728,57.985874 15.478365,58.61652 15.267637,58.797496 14.941988,57.876495 13.994441,57.78842 13.361924,57.753907 13.322169,57.785956 13.282106,57.781204 13.067021,57.968068 12.997747,58.0196 12.914476,57.737598 12.639547,57.704987 12.148892,57.667096 12.079189,57.112631 11.83507,56.332588 12.943553,56.451181 12.983907,56.420164 13.038976,56.424656 13.61741,55.914804" slic3r:type="contour"/>
    <polygon style="fill: white" points="18.165021,57.978839 18.355974,58.432952 17.784923,59.083472 17.49296,59.382012 17.183526,58.654724 16.98147,58.132316 17.761492,57.297091 17.8651,57.183416" slic3r:type="contour"/>
    <polygon style="fill: white" points="20.232461,58.215987 20.488962,58.715672 20.009888,59.359547 19.696622,59.753235 19.393527,59.162751 19.09526,58.555304 19.738598,57.715175 19.893992,57.513183" slic3r:type="contour"/>
    <polygon style="fill: white" points="22.28866,58.272824 22.595666,58.758864 22.176309,59.435168 21.895064,59.88408 21.576408,59.369992 21.194424,58.758808 21.736532,57.877472 21.895064,57.626856" slic3r:type="contour"/>
  </g></svg>