<svg width="43.790126" height="63.590156" xmlns="http://www.w3.org/2000/svg" xmlns:svg="http://www.w3.org/2000/svg" xmlns:xlink="http://www.w3.org/1999/xlink" xmlns:slic3r="http://slic3r.org/namespaces/slic3r"><g xmlns="http://www.w3.org/2000/svg" slic3r:z="1.6175e-005" id="layer48">
    <polygon style="fill: white" points="21.93347,1.153099 21.972836,1.156161 22.986122,1.234041 23.013588,1.205179 23.03411,1.182571 23.066102,1.246558 23.108629,1.25597 24.126116,1.481198 24.153449,1.459804 24.17395,1.443163 24.192821,1.500814 24.227681,1.513028 25.304093,1.885348 25.30473,1.888433 26.037431,2.509198 26.156202,2.60195 26.423942,2.498475 26.432686,2.585603 26.460867,2.941315 26.642426,3.18789 26.876455,3.471594 27.135516,3.390405 27.548816,3.289969 27.548876,3.551921 27.529873,4.102145 27.942474,4.308682 28.074116,4.363521 28.46945,4.297697 28.648829,4.280373 28.610984,4.602692 28.747268,4.680713 29.1435,4.866164 29.266717,5.303249 29.328808,5.456852 29.699094,5.467673 29.659064,5.686137 29.506747,6.247129 29.843512,6.376165 30.404418,6.471592 30.440992,6.714212 30.470591,6.808895 30.717039,6.83565 30.674321,6.999339 30.528681,7.368994 30.540576,7.650635 30.579899,7.899639 30.795744,7.882892 31.286617,7.759849 31.328322,8.14455 31.378793,8.350287 31.85244,8.415161 31.704132,8.7055 31.477955,9.106008 31.54732,9.506671 31.939363,9.184515 32.241116,8.949524 32.370776,9.623815 32.447338,9.967315 32.448546,9.967507 32.451763,9.980016 33.267694,10.093042 32.938542,10.465092 32.659485,10.801359 32.794712,11.362524 33.317554,10.657394 33.521158,10.419665 33.758104,11.210985 33.836614,11.510006 34.426624,11.563548 34.187051,11.807053 34.034937,11.98096 34.117719,12.171039 34.325609,12.763055 35.03832,12.804889 35.358036,12.810932 34.967476,13.2167 34.777232,13.485686 34.888529,13.689213 34.962142,13.768552 35.866894,13.792206 36.009292,13.599121 36.144305,13.803185 36.175243,13.802385 36.157428,13.822057 36.836568,14.689702 36.862457,14.732099 36.867032,14.732296 36.873118,14.740872 36.953436,14.73991 36.907632,14.789512 37.553548,15.699765 37.589277,15.762738 37.599024,15.763895 37.602015,15.76991 37.710364,15.777621 37.670615,15.81915 37.646409,15.859177 38.152864,16.877556 38.205409,17.00889 38.414744,17.052144 38.337395,17.128838 38.27432,17.210871 38.525163,18.211143 38.587343,18.536741 39.008752,18.67506 38.823676,18.844511 38.675395,18.997824 38.676844,19.005412 38.655595,19.023939 38.697459,19.524929 38.732358,20.203661 39.54704,20.534472 39.552644,20.53678 39.522808,21.748233 39.5114,22.335733 39.517048,22.338286 39.515939,22.349502 39.779187,22.485693 40.170624,22.68642 39.807872,22.935134 39.828437,23.004708 40.150131,23.013145 40.290132,23.070908 40.228427,24.086642 40.145984,24.71836 40.173631,24.734735 40.163945,24.81623 40.325448,24.937896 40.87058,25.331306 40.439571,25.579738 40.383332,25.62862 40.487692,25.710274 40.412114,25.776193 40.85886,25.880096 41.050424,26.047498 40.954932,27.025404 40.792898,27.594065 40.844756,27.636575 40.823485,27.771285 40.868888,27.812622 41.45492,28.279714 41.07672,28.507994 40.773722,28.794154 40.890872,28.97289 40.674183,29.167864 41.306943,29.595342 41.722728,30.33246 41.670452,30.755637 41.610409,30.933468 41.633632,30.955392 41.627472,31.001748 41.793372,31.1219 41.698743,31.180076 41.591353,31.273532 41.46248,32.243284 41.223243,32.954611 41.324352,33.054344 41.305657,33.227658 41.400867,33.314917 41.934468,33.688024 41.618716,33.867379 41.083299,34.304315 40.956776,34.730792 40.73484,34.270063 40.388671,34.009715 39.895972,33.472492 39.993968,33.381036 40.236259,33.235036 40.219392,33.20002 40.415059,33.003268 39.838183,32.453126 40.110479,31.314812 40.0249,31.21969 40.038814,31.165066 39.854648,31.026695 39.704816,30.866404 40.130644,30.392903 40.259691,30.297906 40.525948,29.25259 40.435327,29.186773 40.347788,29.081242 40.380599,28.940413 39.844856,28.554016 39.623658,28.320821 39.376099,28.162333 39.31716,28.13656 39.350031,28.032353 39.324038,28.00495 39.314256,27.998338 39.282328,27.970341 39.380843,27.85434 39.806105,26.099099 39.766216,26.071498 39.66268,25.964014 39.673386,25.897897 38.954256,25.752314 38.722708,25.704624 38.824325,25.291936 38.697531,25.226903 38.520328,25.12586 38.848535,24.797144 38.868782,24.777452 38.987547,23.937023 38.647127,23.941718 38.135296,23.881861 38.238848,23.01866 38.084752,22.95403 37.789888,22.828204 38.099844,22.561547 38.268191,22.407746 38.287787,21.834784 37.916695,21.780662 37.457148,21.68237 37.495874,20.951983 37.404183,20.914263 37.233348,20.836403 37.495932,20.613594 37.42684,19.537812 37.416788,19.344907 37.174987,19.26874 36.715576,19.105607 36.894056,18.935981 37.17938,18.653151 37.168451,18.64841 37.295521,18.513614 37.239418,18.240449 36.283028,17.865156 36.191108,17.851174 36.166833,17.73939 36.143632,17.734974 36.156196,17.716823 36.141716,17.68503 35.667877,16.74172 35.648724,16.740418 35.627013,16.706153 35.568759,16.707894 35.463712,16.705737 35.532255,16.556608 35.422724,16.383743 35.023593,15.827935 34.955704,15.826482 34.924197,15.779289 34.826103,15.78807 34.64624,15.794603 34.748269,15.515779 34.569671,15.248271 34.31109,14.897769 34.193016,14.893099 34.163967,14.840544 33.999428,14.847892 33.699928,14.848881 33.901431,14.365547 33.615589,13.848385 33.467076,13.836293 33.450991,13.792288 33.171388,13.775713 32.654736,13.744055 32.827593,13.45432 33.158898,12.993177 33.005845,12.574457 32.908862,12.564018 32.899545,12.52982 32.621053,12.497275 32.330242,12.763752 32.113604,13.050589 31.892609,12.418749 31.86891,12.416257 31.866798,12.407727 31.793613,12.397497 31.618368,12.376587 31.796995,12.12576 31.518125,10.999272 31.481453,10.994929 31.479608,10.986544 31.233867,10.949797 30.669183,10.873784 30.658984,10.876703 30.651745,10.875224 30.617338,10.888538 30.601214,10.896214 30.594741,10.863762 30.594637,10.863748 30.594593,10.863501 30.581416,10.860987 30.591443,10.847223 30.591059,10.845302 30.591311,10.844985 30.53004,10.499301 30.330907,9.385607 30.189852,9.365761 29.7133,9.289183 29.840088,9.089321 29.939236,8.939772 29.356825,8.700939 29.219671,7.89091 29.168872,7.886251 28.950303,7.864352 29.150031,7.477991 28.977195,6.968251 28.59179,6.688781 28.557712,6.66816 28.129198,6.692938 28.175099,6.543325 28.202487,6.453212 27.549034,6.057806 27.386195,5.675993 27.332961,5.685429 27.245438,5.700904 27.294181,5.465365 26.817637,4.719294 26.596919,4.790067 26.322322,4.877851 26.355602,4.439826 26.377572,4.117928 26.029884,3.924717 25.770804,4.044706 25.380284,4.223027 25.364833,3.873296 25.351407,3.586888 24.985911,3.415186 24.901623,3.468199 24.473682,3.731946 24.419079,3.42423 24.375734,3.159983 24.033487,3.037534 24.003731,3.062628 23.599202,3.397531 23.503303,3.107222 23.426205,2.853032 23.121508,2.784282 23.089738,2.819949 22.744348,3.205751 22.604387,2.925436 22.491559,2.683725 22.211817,2.661562 22.169904,2.724084 21.895064,3.14502 21.715968,2.881952 21.573028,2.664602 21.285652,2.687375 21.25977,2.74077 21.045778,3.205757 20.841894,2.976165 20.674968,2.789448 20.350946,2.862546 20.340662,2.894859 20.190924,3.397535 19.961836,3.202227 19.767441,3.040481 19.40784,3.168972 19.398588,3.222969 19.316428,3.731946 19.050062,3.56254 18.812832,3.415459 18.439489,3.590568 18.431507,3.766414 18.40986,4.223009 18.076668,4.067576 17.763652,3.924022 17.414576,4.117818 17.446469,4.558174 17.467804,4.877865 17.009864,4.730795 16.958794,4.714452 16.71151,5.094626 16.505919,5.436351 16.496055,5.45885 16.524719,5.599862 16.54469,5.700907 16.401098,5.675433 16.349504,5.793109 16.241118,6.057781 15.794752,6.321035 15.587037,6.449105 15.660925,6.69294 15.4683,6.678736 15.238432,6.664042 15.197887,6.689041 15.179693,6.688593 15.104158,6.740789 14.828042,6.945134 14.715864,7.283045 14.643937,7.485633 14.722408,7.637381 14.839813,7.864363 14.567357,7.889033 14.519884,8.159087 14.433282,8.700958 14.165636,8.81572 13.843591,8.947174 14.076797,9.289214 13.667039,9.347393 13.473912,9.376246 13.389801,9.881692 13.198571,10.848136 13.208708,10.860958 13.195708,10.863591 13.188914,10.896179 13.133811,10.876134 13.131144,10.876674 13.12242,10.874245 12.309588,10.991353 12.308671,10.994928 12.283954,10.998132 12.145172,11.57854 11.992057,12.151189 12.058176,12.243258 12.17176,12.376564 11.922775,12.410301 11.92119,12.41623 11.901598,12.418436 11.852404,12.565482 11.676485,13.050609 11.260915,12.683719 11.104366,12.508191 10.890331,12.532286 10.881197,12.564019 10.793495,12.573346 10.622754,13.050735 10.82124,13.381454 11.135401,13.744024 10.340643,13.791422 10.323045,13.836295 10.206087,13.844069 9.984007,14.253326 9.86748,14.446018 9.937109,14.607502 10.090248,14.848851 9.634465,14.831344 9.597133,14.893078 9.517708,14.893344 9.34994,15.149421 9.038083,15.559013 9.06505,15.630147 9.143912,15.79458 8.875956,15.771949 8.834455,15.826457 8.796199,15.825808 8.682047,16.009364 8.263935,16.574742 8.278176,16.605504 8.326415,16.705763 8.170211,16.701476 8.141397,16.74044 8.1336,16.740739 8.075984,16.869593 7.635114,17.717805 7.646484,17.734968 7.623816,17.738094 7.598943,17.851326 7.027983,18.21757 6.526904,18.314584 6.487102,18.504399 6.626185,18.653255 6.7132,18.736713 7.074549,19.105608 6.688185,19.227875 6.355831,19.338327 6.302224,20.074634 6.284155,20.592123 6.406997,20.697783 6.556792,20.836416 6.288112,20.947397 6.297483,21.201749 6.333002,21.682316 5.865434,21.737015 5.496544,21.812418 5.508697,22.214543 5.515915,22.38463 5.737335,22.578437 6.000225,22.828232 5.550128,23.01721 5.588056,23.337104 5.654815,23.881877 5.205538,23.857804 4.813528,23.89512 4.878258,24.300084 4.936612,24.801468 5.095371,24.958604 5.269785,25.12588 4.991186,25.270382 4.992022,25.277569 4.973329,25.290468 5.018982,25.46585 5.06742,25.704602 4.404294,25.838046 4.119571,25.896516 4.127499,25.963996 3.996448,26.071757 4.23389,26.893884 4.424518,27.889457 4.472076,27.94019 4.507819,27.970288 4.447928,28.011727 4.449893,28.021987 4.442754,28.028157 4.458003,28.072212 4.472969,28.1366 3.773188,28.662506 3.634247,28.726934 3.415234,28.916222 3.442357,29.081144 3.270213,29.240865 3.589224,30.249586 3.632114,30.485984 3.904421,30.75038 4.085314,30.86636 3.747331,31.121035 3.765226,31.219668 3.710534,31.270034 3.816911,31.623317 3.951961,32.452886 3.741375,32.875454 3.477084,33.117171 3.570663,33.199984 3.545072,33.296255 3.894161,33.47254 3.759852,33.570056 3.376584,33.930087 3.32476,34.12504 2.833442,34.730788 2.752021,34.359528 2.246274,34.039152 1.855642,33.688012 2.128789,33.402593 2.48569,33.145099 2.465787,33.054346 2.620306,32.877002 2.257735,31.375035 1.996742,31.12185 2.078411,31.037723 2.161562,30.976635 2.156436,30.9554 2.208722,30.89817 2.067368,30.332602 2.369436,30.137232 3.13148,29.207779 2.899222,28.972776 3.015723,28.853835 2.580576,28.544295 2.335207,28.279674 2.688829,27.906796 2.960477,27.696443 2.945351,27.636622 3.069847,27.52186 2.739692,26.047554 3.352655,25.991645 3.495449,25.901456 3.302463,25.710259 3.361244,25.678711 3.07265,25.477452 2.91954,25.331304 3.36434,24.963002 3.624832,24.780627 3.616527,24.734734 3.670653,24.701797 3.499999,23.070844 4.054603,23.119958 4.081713,23.049981 3.744879,22.793438 3.619482,22.686443 4.045424,22.46053 4.273647,22.344129 4.273089,22.3383 4.276789,22.336733 4.237493,20.53668 4.729511,20.34295 5.074959,20.200323 5.14355,19.053143 4.781347,18.675076 5.023733,18.593792 5.226254,18.527352 5.450054,17.58062 5.518987,17.24106 5.375363,17.052196 5.49112,17.022642 5.605941,16.999198 6.100445,15.98274 6.142174,15.88202 6.079739,15.777617 6.146991,15.765454 6.214953,15.761157 6.845053,14.865668 6.875997,14.812775 6.836716,14.739911 6.88841,14.732962 6.915284,14.733686 6.94099,14.729111 7.632483,13.832124 7.614882,13.802414 7.65522,13.79771 7.780838,13.599143 7.748831,13.784871 8.394617,13.689696 8.875693,13.723705 8.896414,13.694839 8.949953,13.684929 9.024996,13.55602 8.523954,12.941674 8.432096,12.810929 9.108985,12.711296 9.515433,12.713766 9.769877,12.028061 9.363495,11.563549 9.748849,11.504849 9.969047,11.488549 10.268947,10.419665 10.583741,10.910831 10.99249,11.387504 11.13356,10.813647 10.649722,10.247152 10.522408,10.093037 11.053771,10.007136 11.333272,9.970405 11.549012,8.949514 11.964976,9.301703 12.217413,9.499498 12.285653,9.039712 12.090966,8.678747 11.937686,8.415161 12.203876,8.399184 12.382371,8.372776 12.503488,7.759871 13.038974,7.798569 13.166508,7.823119 13.236915,7.236707 13.208091,7.165224 13.21505,7.138042 13.073091,6.835636 13.180626,6.850152 13.291409,6.839796 13.385671,6.47162 14.284021,6.168019 14.261482,6.066132 14.242445,5.998307 14.244935,5.991332 14.20194,5.796982 14.091057,5.467662 14.238316,5.48926 14.423854,5.490153 14.646589,4.866239 15.190056,4.578292 15.169395,4.424166 15.141266,4.280428 15.535265,4.36182 15.586221,4.36839 15.614645,4.35333 15.655546,4.35992 16.268588,4.06545 16.263581,3.655025 16.241312,3.28997 16.437878,3.358081 16.873891,3.478233 17.340495,2.8984 17.366182,2.498478 17.433637,2.530598 17.614426,2.605898 18.48548,1.8881 18.486018,1.885388 19.597809,1.50039 19.608267,1.468238 19.61618,1.443165 19.664922,1.481002 19.700854,1.473048 20.724571,1.246494 20.742617,1.210211 20.756016,1.18259 20.805355,1.233923 20.845876,1.230772 21.85782,1.15295 21.879255,1.122424 21.895063,1.098891" slic3r:type="contour"/>
    <polygon style="fill: black" points="35.679574,14.629668 35.725433,14.683143 35.85746,14.688829 35.903649,14.41194 35.825873,14.383484" slic3r:type="hole"/>
    <polygon style="fill: black" points="7.38207,14.533551 7.467338,14.635439 7.603497,14.611207 8.113494,14.644061 7.704231,13.953234" slic3r:type="hole"/>
    <polygon style="fill: white" points="41.086176,35.136004 41.073796,35.351861 41.573723,35.826535 41.96714,36.097096 41.545411,36.310692 40.944052,36.762596 40.34726,36.294236 39.937672,35.826611 40.170771,35.634744 40.859993,35.283347 40.832276,35.163036 40.948932,35.058735 40.992748,35.0376" slic3r:type="contour"/>
    <polygon style="fill: white" points="41.519303,38.155688 41.898644,38.43018 41.464464,38.617739 40.842144,39.040732 40.281372,38.574468 39.87536,38.072556 40.129244,37.88804 40.915975,37.549" slic3r:type="contour"/>
    <polygon style="fill: white" points="40.993428,37.367692 40.9925,37.391352 40.972916,37.503092 40.967312,37.36978 40.980643,37.35936 40.98486,37.357812" slic3r:type="contour"/>
    <polygon style="fill: white" points="2.957738,35.162876 2.956904,35.324131 3.368808,35.62836 3.852467,35.826564 3.576909,36.034316 2.845969,36.762484 2.150137,36.365456 1.822985,36.097036 2.18025,35.710268 2.733898,35.311352 2.703994,35.135864 2.761137,35.064956 2.797359,35.037508" slic3r:type="contour"/>
    <polygon style="fill: white" points="2.822747,37.369728 2.833238,37.423647 2.817164,37.502543 2.817163,37.502543 2.796719,37.367644 2.802009,37.360436 2.80526,37.357796" slic3r:type="contour"/>
    <polygon style="fill: white" points="3.428291,37.91298 3.914759,38.072624 3.649926,38.282772 2.947822,39.040796 2.240504,38.687856 1.891469,38.430232 2.24478,38.027096 2.795561,37.608576 2.874013,37.548964" slic3r:type="contour"/>
    <polygon style="fill: white" points="3.17922,39.785264 3.247767,39.981705 3.525406,40.142648 4.083139,40.284472 3.906226,40.434892 3.552493,40.854978 3.579328,40.93188 3.611827,42.128379 4.024118,42.330216 4.070503,42.437651 4.370643,42.493248 4.315282,42.544364 4.189187,42.712539 4.589626,43.640012 4.68229,44.625807 4.738791,44.647992 4.790036,44.648732 4.694389,44.754526 4.700925,44.824055 4.687717,44.844147 4.768979,45.107855 5.087975,46.736287 5.222123,46.773796 5.33853,46.769464 5.144611,47.025411 5.168373,47.146712 5.149016,47.181451 5.360747,47.665195 5.714112,48.794414 5.888935,48.819864 6.040685,48.803696 5.826433,49.15335 5.863214,49.270888 5.848361,49.30384 6.161701,49.833783 6.566543,50.710559 6.757813,50.708512 6.922858,50.677248 6.735679,51.076862 6.778725,51.170087 6.773497,51.185314 7.160738,51.664752 7.684439,52.430017 7.866157,52.395548 8.01693,52.35074 7.896087,52.739291 7.921324,52.77617 8.337348,53.14112 9.12386,53.89952 9.267269,53.847159 9.374037,53.801372 9.328852,54.0961 9.672197,54.318911 10.828699,55.110378 10.902199,55.0718 10.953102,55.043032 10.950144,55.190989 11.131737,55.280423 12.68625,56.072264 12.691985,56.068171 12.692673,56.075284 12.835196,56.131228 13.639618,56.854752 13.971734,57.323252 14.51992,56.863464 14.529931,56.906972 14.691375,57.555897 14.816124,57.6006 15.692152,58.10634 15.802124,58.001108 16.35725,57.440124 16.372094,57.486075 16.591386,58.111326 16.776926,58.123324 17.794392,58.304383 18.198022,57.822472 18.208874,57.84836 18.373038,58.212948 19.859943,58.090796 20.003283,58.088409 20.042928,58.033656 20.044251,58.036203 20.067154,58.078173 20.435666,58.04692 21.883405,58.113353 21.895064,58.094139 21.906498,58.113435 21.936604,58.112143 23.354563,58.046888 23.657259,58.07748 23.721056,58.080357 23.747168,58.03362 23.748899,58.035955 23.794788,58.098833 24.843792,58.26204 25.388449,58.259552 25.592108,57.822476 25.610798,57.843676 26.09697,58.414107 27.147873,58.220464 27.432876,57.440124 27.467332,57.47296 28.153752,58.15288 29.058021,57.686072 29.066392,57.649939 29.270204,56.86348 29.303306,56.889928 29.89628,57.379152 30.477,56.708795 30.954869,56.131252 31.097138,56.075607 31.098139,56.068171 31.104273,56.072321 32.836917,55.194347 32.835156,55.104956 32.837008,55.04304 32.966799,55.110835 33.208816,54.952779 34.45347,54.10853 34.425872,53.928387 34.416092,53.801375 34.686372,53.89887 35.118607,53.514952 35.858872,52.810039 35.856103,52.794724 35.879868,52.764626 35.806876,52.52968 35.773196,52.35074 36.152428,52.41942 36.627507,51.817716 37.030017,51.234836 37.011404,51.17008 37.038731,51.122188 36.924411,50.877272 36.867272,50.677212 37.294168,50.674528 37.69948,49.964208 37.967598,49.378134 37.926928,49.27088 37.951289,49.212587 37.817804,48.992724 37.749444,48.803696 38.15149,48.733526 38.434379,48.056604 38.673472,47.257064 38.621764,47.146711 38.63965,47.086162 38.514624,46.917644 38.451592,46.769488 38.76282,46.669199 38.906747,46.181964 39.123176,44.884961 39.08922,44.824083 39.095927,44.788613 39.031759,44.714959 39.000084,44.648712 39.133739,44.588664 39.168044,44.407255 39.200544,43.639755 39.568196,43.554984 39.675645,42.889533 39.419475,42.49326 39.484699,42.457528 39.757981,42.379606 39.765952,42.330244 40.394526,41.978302 40.473281,41.180113 40.153479,40.894008 39.706992,40.284464 39.89644,40.163504 40.598457,39.911444 40.610908,39.785264 40.804368,39.655767 40.857492,39.641016 40.9561,39.76694 40.940516,40.036537 41.283096,40.410168 41.721532,40.75772 41.337848,40.893104 40.738311,41.252676 40.618187,41.948644 40.869576,42.308824 40.837128,42.576677 40.881535,42.630867 41.418899,43.12164 41.123896,43.196112 40.722875,43.402275 40.451545,44.593841 40.611648,44.852136 40.569018,45.038876 40.974752,45.482032 40.75652,45.511844 40.429551,45.649804 40.317427,46.140952 40.008586,47.054966 40.110672,47.244404 40.058706,47.391749 40.382648,47.82106 40.184327,47.830288 39.868927,47.929841 39.662564,48.514963 39.304716,49.297362 39.379092,49.46516 39.316559,49.58938 39.606328,50.08098 39.393136,50.068688 39.043002,50.132809 38.818379,50.579024 38.366303,51.331145 38.420344,51.491184 38.354438,51.582808 38.606496,52.174808 38.373276,52.129332 37.953065,52.140812 37.777975,52.384228 37.170981,53.130635 37.204568,53.284899 37.147844,53.339021 37.334308,54.05874 37.073655,53.973143 36.562011,53.897982 36.537395,53.921468 35.692492,54.658806 35.70482,54.786296 35.659967,54.817417 35.663479,54.865035 35.754056,55.683388 35.45718,55.548096 34.867705,55.354878 34.007086,55.910517 34.005488,56.017388 33.971028,56.035343 33.959948,56.309236 33.949052,57.041544 33.621488,56.850396 33.013923,56.551731 33.011802,56.5531 32.979191,56.53354 32.189337,56.920351 32.178022,57.01436 32.141671,57.028901 32.073997,57.491352 31.992578,58.14504 31.648295,57.897611 31.021435,57.4923 31.00255,57.501548 30.968559,57.476327 30.305895,57.726152 30.286296,57.814168 30.236147,57.829799 30.094392,58.404147 29.960416,59.004744 29.620209,58.709963 28.982709,58.19926 28.400845,58.370202 28.370744,58.463756 28.313737,58.476511 28.11946,59.041795 27.92991,59.629332 27.619532,59.306352 27.056869,58.765042 27.041328,58.769608 27.021797,58.748279 26.464148,58.865428 26.428006,58.952036 26.373858,58.959343 26.157592,59.452403 25.90639,60.044292 25.63419,59.708808 25.140833,59.143424 25.128268,59.146064 25.107877,59.119587 24.502214,59.195944 24.466138,59.267168 24.424681,59.269039 24.208431,59.677492 23.894314,60.273448 23.657655,59.933115 23.23195,59.356089 23.216032,59.358096 23.191878,59.32155 22.534572,59.349312 22.503655,59.401996 22.481214,59.400981 22.26364,59.755607 21.89508,60.3416 21.683866,59.993244 21.311709,59.40096 21.286446,59.402027 21.255558,59.348661 20.599076,59.320973 20.573964,59.358068 20.562461,59.356509 20.296909,59.730832 19.895814,60.273468 19.698129,59.900791 19.365018,59.268925 19.324018,59.267196 19.287061,59.194322 18.683973,59.118406 18.661977,59.146092 18.65316,59.144113 18.305176,59.562527 17.88372,60.044299 17.702503,59.637343 17.41398,58.958539 17.362224,58.952024 17.341779,58.903831 17.325662,58.864122 16.76993,58.747421 16.748875,58.769651 16.735986,58.765634 16.298037,59.209451 15.860227,59.62934 15.704718,59.18992 15.473411,58.475158 15.41928,58.463792 15.408215,58.430544 15.38961,58.369366 14.809939,58.19871 14.29348,58.634547 13.829709,59.004736 13.711777,58.548668 13.550321,57.827877 13.503767,57.814172 13.491907,57.763888 13.483834,57.72388 12.825867,57.474472 12.78763,57.501512 12.77373,57.494328 12.320494,57.8086 11.797548,58.145048 11.727929,57.703243 11.643199,57.026173 11.612109,57.014388 11.598495,56.912618 10.831904,56.534275 10.447905,56.745823 9.84109,57.041552 9.818953,56.634755 9.809734,56.029793 9.78467,56.017423 9.780632,55.892475 8.968977,55.362886 8.733905,55.459116 8.036075,55.683404 8.055272,55.322788 8.112664,54.804156 8.085229,54.786255 8.096835,54.622207 7.315229,53.930566 7.224451,53.95438 6.455807,54.05872 6.508323,53.7464 6.620166,53.315509 6.585523,53.284852 6.624859,53.06377 5.943366,52.209875 5.183624,52.174831 5.260493,51.90164 5.41252,51.544737 5.369795,51.491204 5.440917,51.236265 5.398191,51.152543 4.853685,50.221789 4.183795,50.080996 4.277616,49.841784 4.454844,49.540027 4.411041,49.465152 4.517894,49.17554 4.469992,49.040615 4.029267,48.039183 3.407496,47.821108 3.515632,47.606952 3.719092,47.334396 3.679483,47.244392 3.838283,46.893145 3.481842,45.790366 2.815411,45.482056 2.955017,45.257955 3.215891,44.967548 3.178555,44.852035 3.39378,44.44011 3.190436,43.524311 2.955912,43.447684 2.371225,43.121667 2.581161,42.833824 2.95824,42.47857 2.920555,42.308848 3.083321,42.031916 3.190062,41.922535 3.084977,41.286303 2.508539,41.043168 2.068595,40.757696 2.363973,40.393703 2.868546,39.975936 2.834027,39.766944 2.894658,39.675228 2.932632,39.641012" slic3r:type="contour"/>
  </g></svg>