<svg width="43.790126" height="63.590156" xmlns="http://www.w3.org/2000/svg" xmlns:svg="http://www.w3.org/2000/svg" xmlns:xlink="http://www.w3.org/1999/xlink" xmlns:slic3r="http://slic3r.org/namespaces/slic3r"><g xmlns="http://www.w3.org/2000/svg" slic3r:z="4.48849999999998e-005" id="layer135">
    <polygon style="fill: white" points="4.314485,45.247167 4.334224,45.270214 4.977207,45.487552 5.329981,45.55846 5.106523,46.148871 4.709306,46.933136 4.305777,46.959 3.8331,47.256636 4.060135,46.355667 4.308124,45.301711 4.311311,45.257495 4.312526,45.24518" slic3r:type="contour"/>
    <polygon style="fill: white" points="4.714887,43.731211 5.007509,43.933728 4.406372,44.582328 4.148335,44.808668 3.432248,44.164403 3.041991,43.871884 3.435988,43.535856 3.917603,43.159472" slic3r:type="contour"/>
    <polygon style="fill: white" points="3.569807,35.687135 3.572935,35.712456 4.276888,36.681135 4.617201,37.307479 4.400665,38.223495 4.174586,39.004469 4.227844,39.051483 4.220147,39.081737 4.616065,39.388428 4.464568,39.516383 4.029218,39.832258 3.974163,40.048672 3.731564,40.816636 2.698243,39.767516 2.575896,39.681276 2.685775,39.309061 2.673942,39.299195 2.67706,39.286913 2.587436,39.216424 2.537614,39.167032 2.746249,39.014371 3.580416,35.728471 3.558157,35.708556 3.565772,35.66802" slic3r:type="contour"/>
    <polygon style="fill: white" points="4.408252,34.832727 4.626068,35.021156 4.012397,35.288312 3.635552,35.511284 3.539061,35.568375 2.889266,35.029664 2.561684,34.682176 2.993687,34.417308 3.624871,34.10048" slic3r:type="contour"/>
    <polygon style="fill: white" points="4.661981,30.705358 4.986054,31.005364 4.491318,31.196324 3.866576,31.512562 3.348803,31.045443 2.9605,30.600484 3.308876,30.415811 4.057171,30.094364" slic3r:type="contour"/>
    <polygon style="fill: white" points="5.331935,27.034477 5.599693,27.303588 5.077725,27.490214 4.453672,27.764608 3.942185,27.248348 3.612159,26.839698 4.039409,26.646879 4.739676,26.38244" slic3r:type="contour"/>
    <polygon style="fill: white" points="7.091314,20.63878 7.14878,20.732958 7.142597,20.80347 7.348093,21.103726 7.296926,21.101748 7.112838,21.142919 7.035599,22.023922 5.994705,23.153311 5.840249,23.298004 6.248442,23.810542 6.39456,23.974948 5.767316,24.146241 5.234225,24.346716 4.664524,23.714763 4.44523,23.41061 5.055509,23.18781 5.494742,23.047857 5.674271,21.578721 5.711649,20.788591 5.636825,20.639736 5.642247,20.542776 5.514135,20.387323 5.470091,20.314736 5.657963,20.261759 5.667402,20.092976 5.673164,19.88368 6.477856,19.669459 7.06757,19.460496" slic3r:type="contour"/>
    <polygon style="fill: white" points="8.696259,16.385199 9.281868,16.568004 9.14551,18.142322 9.133851,18.21595 9.020267,18.188639 9.072043,18.289608 8.383,18.300102 7.726406,18.412814 7.379478,17.61962 7.228395,17.26422 7.976449,17.174337 8.042474,16.637539 8.13679,16.189021" slic3r:type="contour"/>
    <polygon style="fill: white" points="13.37809,13.449186 13.855654,13.947541 13.251143,15.41719 13.235326,15.455907 13.134817,15.357579 13.137841,15.504232 12.199449,15.497042 11.412177,15.495568 11.397789,15.539408 11.380591,15.539663 11.096895,16.593712 10.745822,16.393408 10.046338,15.96582 10.174601,15.386444 10.55198,14.302589 10.632227,14.301867 12.4538,14.276706 12.7444,13.56092 12.982542,13.105328" slic3r:type="contour"/>
    <polygon style="fill: white" points="15.332913,12.439045 16.007437,13.231041 15.638611,14.040501 15.359489,14.661669 14.977459,14.230589 14.514324,13.718645 14.813466,13.059989 15.21785,12.319067" slic3r:type="contour"/>
    <polygon style="fill: white" points="22.212381,11.417054 22.364724,11.66636 22.623831,11.280297 22.864798,10.93251 23.190912,11.552176 23.354203,11.852509 23.712758,11.372955 23.920356,11.092542 24.294591,11.866163 24.346672,11.969164 24.351651,11.969149 24.352338,11.970492 24.683848,11.964398 25.013655,11.55338 25.15138,11.367449 25.426998,11.95971 25.435622,11.959695 25.436874,11.962205 25.834414,11.952845 26.517046,11.95536 26.619028,11.832139 26.658982,11.774303 26.743745,11.956195 26.748877,11.956214 26.749807,11.958047 26.885768,11.954534 27.280308,11.957997 27.348776,12.523581 27.321341,13.084412 27.348686,13.138302 27.316843,13.176342 27.315884,13.195975 27.300069,13.196382 26.999052,13.556 26.52711,14.108658 26.374947,13.786797 26.116327,13.226883 26.060176,13.22833 26.041586,13.189121 25.420412,13.203644 25.002424,13.715907 24.918617,13.54034 24.767494,13.21891 24.747956,13.219367 24.740084,13.202263 24.497045,13.204539 23.968144,13.213018 23.785662,13.454789 23.744962,13.373154 23.668159,13.217826 23.663851,13.217895 23.661628,13.213155 22.975766,13.214873 22.845644,13.215959 22.784338,13.306434 22.768221,13.276363 22.736186,13.216871 22.735837,13.216874 22.735415,13.216039 21.965293,13.215774 21.920884,13.215883 21.895064,13.258788 21.886961,13.244932 21.869581,13.216041 21.130158,13.216553 21.054553,13.216356 21.054288,13.216872 21.054019,13.216872 21.005788,13.306436 20.987884,13.278577 20.946133,13.216876 20.307603,13.216903 20.127491,13.215225 20.126225,13.217898 20.121597,13.217881 20.004442,13.454771 19.953617,13.383792 19.827931,13.21682 19.420479,13.215346 19.047241,13.208385 19.042226,13.219331 19.021374,13.219189 18.7877,13.715921 18.67294,13.569669 18.383167,13.213588 17.745104,13.195498 17.729906,13.228338 17.670233,13.227927 17.263026,14.108659 17.044665,13.846155 16.491043,13.196535 16.47409,13.195969 16.475262,13.178019 16.441433,13.138324 16.483769,13.047729 16.536795,12.235575 16.509846,11.957984 17.037378,11.962149 17.09093,11.846033 17.13115,11.774304 17.287522,11.960392 17.812686,11.969299 18.343777,11.973632 18.520517,11.592324 18.638748,11.367464 19.126699,11.971538 19.43074,11.9762 19.701288,11.416275 19.869786,11.092545 20.280903,11.642019 20.433263,11.847115 20.717081,11.308004 20.925332,10.932521 21.270977,11.44831 21.419236,11.664676 21.657061,11.262869 21.895064,10.880246" slic3r:type="contour"/>
    <polygon style="fill: white" points="28.677533,12.54873 29.275734,13.718796 28.721816,14.340456 28.430658,14.661678 28.180236,14.117171 27.78265,13.231038 28.116269,12.877334 28.572244,12.319074" slic3r:type="contour"/>
    <polygon style="fill: white" points="31.14389,13.917248 31.307077,14.259806 31.323998,14.259432 31.327257,14.267252 32.058135,14.266406 33.239543,14.30293 33.24361,14.320605 33.74376,15.965806 33.20325,16.278487 32.693262,16.593726 32.609463,16.202419 32.42744,15.540703 32.392398,15.539418 32.378871,15.497088 30.972052,15.503109 30.652266,15.504216 30.659098,15.354512 30.554696,15.455848 30.190676,14.575049 29.934554,13.94725 30.527327,13.416917 30.80762,13.105342" slic3r:type="contour"/>
    <polygon style="fill: white" points="35.783387,17.170963 36.182508,17.218996 36.561767,17.264242 36.319771,17.814044 36.063776,18.412774 34.773567,18.298937 34.718088,18.289606 34.754195,18.179954 34.656276,18.215946 34.643928,17.33428 34.508252,16.567957 35.278975,16.304068 35.6534,16.189078" slic3r:type="contour"/>
    <polygon style="fill: white" points="37.879008,19.800314 38.116764,19.883286 38.13524,20.266736 38.245388,20.29727 38.319988,20.314654 38.147062,20.512091 38.15322,20.639888 38.098457,20.74048 38.315114,23.059664 39.022883,23.312795 39.34488,23.410576 38.936476,23.845351 38.555552,24.346593 37.621967,24.062753 37.395591,23.974998 37.83276,23.407697 37.98646,23.23125 37.285552,22.392998 36.754616,22.024216 36.746096,21.549892 36.696444,21.162862 36.442047,21.103818 36.474423,21.040482 36.647338,20.78008 36.641307,20.733072 36.758429,20.527852 36.781596,20.334128 36.722363,19.460644" slic3r:type="contour"/>
    <polygon style="fill: white" points="39.737007,26.683765 40.177964,26.839716 39.858488,27.152043 39.336348,27.764584 38.535996,27.459584 38.19044,27.303618 38.569779,26.872604 39.050448,26.38244" slic3r:type="contour"/>
    <polygon style="fill: white" points="40.341007,30.405509 40.829632,30.600478 40.530368,30.862557 39.923548,31.512562 39.158548,31.19152 38.804076,31.005346 39.182771,30.609014 39.732936,30.094428" slic3r:type="contour"/>
    <polygon style="fill: white" points="40.837715,34.497583 41.228436,34.682148 40.78472,35.042412 40.250935,35.568236 39.363399,35.144663 39.16406,35.021124 39.662688,34.537511 40.165248,34.100424" slic3r:type="contour"/>
    <polygon style="fill: white" points="40.229916,35.695343 40.231968,35.708556 40.209988,35.728883 40.708875,37.460459 41.058402,39.038279 41.196488,39.13526 41.252492,39.16712 41.111341,39.277255 41.116212,39.299244 41.10979,39.304832 41.168924,39.490244 41.214228,39.681131 40.490651,40.51118 40.058864,40.816572 39.77636,39.81218 39.174052,39.388388 39.30554,39.282039 39.56969,39.077403 39.562376,39.051399 39.627371,38.991208 39.17292,37.307363 39.744072,36.498431 40.217312,35.710167 40.224356,35.66802" slic3r:type="contour"/>
    <polygon style="fill: white" points="40.385572,43.593412 40.748128,43.871892 40.06898,44.468919 39.641712,44.808732 38.963932,44.085024 38.782624,43.933716 39.360875,43.5133 39.87246,43.159448" slic3r:type="contour"/>
    <polygon style="fill: white" points="39.477948,45.249976 39.48269,45.29824 39.723291,46.194003 39.95704,47.25668 39.757584,47.254932 39.080783,46.933064 38.733628,46.104904 38.460144,45.558456 39.160891,45.330924 39.456655,45.267201 39.47254,45.251091 39.477604,45.245179" slic3r:type="contour"/>
    <polygon style="fill: white" points="29.830725,54.567695 30.740362,54.602228 30.876063,54.714967 31.607714,54.736636 32.108675,55.090439 32.425066,55.480208 31.027797,55.486244 30.876825,56.008644 30.840176,56.1636 30.0088,55.596384 29.860593,55.480432 29.751657,55.479243 29.681969,55.485604 29.673106,55.486428 29.692488,55.462493 29.600679,55.127055 29.433646,54.516188" slic3r:type="contour"/>
    <polygon style="fill: white" points="28.761843,55.558395 28.956296,55.753532 28.640766,56.620899 28.540224,56.952564 27.91408,56.44198 27.603173,56.157159 28.065341,55.06832 28.111604,54.9375" slic3r:type="contour"/>
    <polygon style="fill: white" points="26.525402,56.012388 26.80236,56.334819 26.470661,57.068336 26.29727,57.520356 25.821304,57.05086 25.424982,56.618167 25.878053,55.70044 25.99469,55.426664" slic3r:type="contour"/>
    <polygon style="fill: white" points="24.38149,56.293408 24.6901,56.71618 24.335815,57.351512 24.08847,57.865988 23.712605,57.413615 23.295858,56.86222 23.755078,56.062084 23.931649,55.7172" slic3r:type="contour"/>
    <polygon style="fill: white" points="14.257725,54.876972 14.097649,55.46243 14.114785,55.483599 14.117021,55.486428 14.100562,55.484923 14.03975,55.479283 13.927958,55.480588 13.075758,56.062147 12.949947,56.163576 12.757319,55.488112 12.274188,55.48802 11.365081,55.480212 11.68092,55.257811 12.182384,54.736663 12.970121,54.668877 13.049765,54.602228 14.356548,54.516195" slic3r:type="contour"/>
    <polygon style="fill: white" points="16.066694,55.81786 16.186893,56.157223 15.506121,56.711388 15.24985,56.95254 14.944166,56.101995 14.833868,55.753436 15.593099,55.023504 15.67858,54.937484" slic3r:type="contour"/>
    <polygon style="fill: white" points="18.174172,56.170788 18.365144,56.61816 17.819414,57.154707 17.49287,57.520356 17.194815,56.854423 16.987766,56.33482 17.619047,55.632512 17.79543,55.42666" slic3r:type="contour"/>
    <polygon style="fill: white" points="20.24066,56.36778 20.494298,56.862052 20.042957,57.402776 19.701702,57.866004 19.402888,57.325568 19.10004,56.716147 19.640961,56.0158 19.858446,55.717192" slic3r:type="contour"/>
    <polygon style="fill: white" points="22.297723,56.408535 22.594974,56.89232 22.204624,57.464083 21.895064,57.98192 21.575336,57.510456 21.195146,56.892368 21.680584,56.161867 21.895064,55.812048" slic3r:type="contour"/>
  </g></svg>