<svg width="43.790126" height="63.590156" xmlns="http://www.w3.org/2000/svg" xmlns:svg="http://www.w3.org/2000/svg" xmlns:xlink="http://www.w3.org/1999/xlink" xmlns:slic3r="http://slic3r.org/namespaces/slic3r"><g xmlns="http://www.w3.org/2000/svg" slic3r:z="3.89449999999998e-005" id="layer117">
    <polygon style="fill: white" points="11.517569,56.811212 11.696231,57.5964 11.227559,57.936884 10.656338,58.30326 10.554835,57.865711 10.393353,56.984355 11.059873,56.549264 11.42796,56.274372" slic3r:type="contour"/>
    <polygon style="fill: white" points="9.381777,55.940591 9.456309,56.509064 8.735097,56.894932 8.353932,57.093432 8.256085,56.333652 8.198798,55.7497 9.137499,55.263076 9.309842,55.158368" slic3r:type="contour"/>
    <polygon style="fill: white" points="5.890684,52.366404 5.751434,53.01423 7.430785,53.830134 7.452745,53.821724 7.451089,53.839013 7.502719,53.85828 7.511898,53.905116 7.725065,55.318464 7.372775,55.183292 7.367491,55.273472 7.364702,55.27414 7.349286,55.278796 7.254422,55.231744 6.453847,55.523351 6.245822,55.599628 6.263523,54.740267 5.674014,54.447875 4.593783,53.933904 4.603846,53.848115 4.615527,53.750692 4.431365,53.75858 4.436938,53.737303 4.783853,52.385984 5.097565,52.399288 5.975268,52.265076" slic3r:type="contour"/>
    <polygon style="fill: white" points="3.307005,45.986091 3.669924,46.176016 3.44037,46.83422 3.042176,47.851501 3.659561,48.205211 4.271085,48.594868 3.888059,49.070464 3.536824,49.499163 4.407253,49.693079 4.652241,49.718956 4.38068,50.4199 4.140415,51.211232 3.446738,51.090995 2.92655,51.022732 3.191534,50.114336 3.379718,49.49822 2.739359,49.112083 2.137748,48.714476 2.324104,48.527628 2.861189,47.916615 2.577101,47.74952 1.817096,47.4299 2.065804,46.776567 2.491702,45.589616" slic3r:type="contour"/>
    <polygon style="fill: white" points="2.691145,39.697784 2.944905,39.910204 2.365772,40.241936 2.149456,40.425223 2.221137,40.551976 2.166562,40.597641 2.786797,41.101108 3.045078,41.405479 2.763263,42.317252 2.314042,43.374342 2.425288,43.479484 2.413098,43.511822 2.770105,43.81392 3.345335,44.26576 2.960691,44.562743 2.428911,45.09546 1.800379,44.628279 1.25079,44.117244 1.418384,43.953231 1.815852,43.621137 1.760164,43.5761 1.970456,43.364257 1.844906,43.230924 1.098243,42.664276 1.509933,41.618308 1.835901,40.694762 1.756956,40.615256 1.801593,40.470001 1.225477,40.004168 0.895681,39.647744 1.274936,39.319871 1.892723,38.912596" slic3r:type="contour"/>
    <polygon style="fill: white" points="5.965042,20.698195 6.309142,21.116659 6.013508,21.178672 5.409677,21.388646 5.21943,23.111345 5.297876,23.233324 5.290235,23.272593 5.485482,23.50786 5.398632,23.527213 5.229357,23.585458 4.888929,25.33498 4.523386,25.99471 4.591912,26.098429 4.622803,26.137166 4.425647,26.171109 4.38974,26.235914 4.346089,26.252217 4.193264,26.875466 3.595437,28.722345 3.762668,28.958835 3.823741,29.029608 3.471502,29.105219 3.433696,29.222014 3.364424,29.25231 3.414896,29.908331 3.252539,31.984322 3.198575,32.194918 3.183713,32.237396 3.20194,32.254934 3.181946,32.261865 2.69136,34.248432 2.326854,35.230357 2.421189,35.337548 2.399629,35.418727 2.919268,35.875032 2.705584,35.972024 2.123047,36.376121 1.884157,36.96124 1.502211,36.233947 0.881063,35.510852 0.927158,35.477584 1.066338,35.403967 1.054459,35.381348 1.196501,35.275681 0.94638,34.678211 1.643022,32.338328 1.563908,32.235652 1.59045,32.147142 1.335485,31.888524 1.222829,31.724082 1.823477,31.370074 2.447576,29.288906 2.354405,29.154212 2.389149,29.028222 2.032072,28.619092 1.889202,28.379705 2.55728,28.074104 2.66006,28.045838 3.120161,26.377406 3.158669,26.191386 3.084828,26.076988 3.107439,25.974495 2.825294,25.625737 2.724081,25.441334 3.270613,25.234844 3.442744,24.454594 3.630502,22.905889 3.62417,22.895756 3.62547,22.885318 3.599958,22.852895 3.591713,22.837608 3.633159,22.82362 3.638608,22.779887 3.638546,22.705792 4.354922,22.103991 4.936116,21.245097 4.7898,21.068685 4.416923,20.471052 4.703926,20.375096 5.584567,20.141566" slic3r:type="contour"/>
    <polygon style="fill: white" points="7.528301,16.745525 7.804104,17.13781 7.555959,17.174742 7.160568,17.295683 7.265306,18.367598 6.778369,18.673444 6.930586,18.906723 7.028079,19.021871 6.450088,19.13776 5.8806,19.347908 5.816081,19.266973 5.794002,19.279108 5.791244,19.235817 5.308289,18.629983 5.140804,18.367242 5.7239,18.178701 5.695727,17.736448 5.618348,17.063141 5.848073,16.949476 6.099931,16.780268 5.896333,16.427272 6.085306,16.382259 7.02853,16.156396 7.042559,16.146971 7.043306,16.152858 7.203516,16.114494" slic3r:type="contour"/>
    <polygon style="fill: white" points="19.923458,7.040866 20.126988,7.392282 20.207287,7.390718 20.35327,7.228385 20.680924,6.858169 20.81193,7.143661 20.965285,7.465334 21.053662,7.363326 21.385192,6.982241 21.505689,7.248823 21.611243,7.467999 21.895064,7.041193 22.04543,7.284392 22.163173,7.466243 22.404956,6.98224 22.598768,7.206084 22.819529,7.460309 22.890733,7.306352 23.109202,6.85818 23.32248,7.094829 23.586383,7.390982 23.664018,7.392003 23.791141,7.173073 24.036788,6.748059 24.245896,7.022951 24.506008,7.366153 24.601634,7.35427 24.61997,7.321739 24.644178,7.323884 24.663672,7.300454 24.785369,7.313811 24.91494,7.14515 25.205906,6.749307 25.386504,7.064561 25.556747,7.357314 25.65071,7.357164 25.679217,7.415598 26.01142,7.445034 26.084892,7.372411 26.208246,7.400859 26.284547,7.31978 26.629348,6.943809 26.766717,7.273708 26.882892,7.536809 27.000983,7.552832 27.015747,7.590756 27.285912,7.656125 27.614168,7.698948 27.647754,7.669571 27.762803,7.715944 27.841396,7.643439 28.207333,7.303544 28.329596,7.677579 28.385139,7.833316 28.49384,7.855511 28.518933,7.93102 29.266797,8.029645 29.549977,8.095397 29.583138,8.068469 29.895324,7.817446 29.996746,8.199135 30.073602,8.216981 30.09084,8.275799 30.553413,8.324738 31.581411,8.564598 31.678016,8.498944 31.69868,8.591961 31.716146,8.596036 31.719503,8.609016 31.811786,8.614835 32.026454,8.66106 32.183279,9.303139 32.193654,9.408837 32.528653,9.464748 33.621408,9.826366 33.653424,9.806902 33.660641,9.839349 33.664415,9.840598 33.664433,9.840673 33.7071,9.856534 33.680084,9.907176 33.695536,9.972839 33.861873,10.584155 33.931028,10.608639 33.940406,10.645591 34.127464,10.694646 34.433472,10.823782 34.094417,11.25246 34.153515,11.485333 34.248552,11.514489 34.2612,11.562905 34.600312,11.64803 35.120048,11.844563 34.826479,12.298954 34.531983,12.599491 34.560446,12.708455 34.582504,12.713194 34.590506,12.747615 35.180424,12.862688 35.988491,13.087044 35.931451,13.217539 35.756323,13.490151 36.295596,13.482703 36.376202,14.475879 36.68774,14.547754 36.96624,14.622026 36.662468,15.182695 36.470763,15.504674 36.474584,15.543823 36.437634,15.543253 36.442828,15.668631 36.380058,15.657022 36.342204,15.7206 35.642596,15.548342 35.120708,15.516492 35.125447,15.468109 35.124492,15.420409 35.039144,15.403785 35.054567,15.360057 35.125685,15.19432 35.132636,14.681692 35.110516,14.149902 35.05156,14.131265 35.046983,14.052642 34.015108,13.808972 33.712128,13.741507 33.950287,13.259634 33.998988,13.121036 33.654943,13.305679 33.453707,13.39811 33.328618,12.772608 33.282237,12.517282 33.21488,12.496494 33.188008,12.390523 32.165122,12.163424 32.509513,11.846398 32.761972,11.424233 31.843492,11.173888 31.531894,11.524934 31.399813,11.158442 31.368989,11.044555 31.337454,11.03596 31.313543,10.980726 30.489497,10.785396 30.88875,10.657203 31.104791,10.431999 31.081215,10.344684 31.052556,10.337533 30.994458,10.247632 30.385757,10.098623 29.748062,9.955968 29.596162,10.170456 29.499526,9.966128 29.482975,9.912029 29.458963,9.875576 28.586575,9.681628 29.067282,9.572221 29.226952,9.420001 28.295949,9.229379 28.081301,9.187281 28.050034,9.225806 27.856408,9.391147 27.748955,9.218613 27.708473,9.109717 26.525355,8.892443 26.442862,8.877838 26.347684,8.978454 26.30557,8.903933 26.28334,8.851644 25.173746,8.729631 25.131439,8.724785 25.092218,8.778041 25.064271,8.722063 24.312597,8.759219 24.16529,8.723791 24.142782,8.760616 24.10709,8.718418 24.071558,8.716278 23.492633,8.637387 23.397472,8.810485 23.37146,8.863955 23.133846,8.609383 22.957492,8.616687 22.865415,8.614706 22.700116,8.910811 22.657726,8.994758 22.366953,8.677095 22.26515,8.569266 21.955016,8.989413 21.895064,9.071842 21.634981,8.72391 21.525562,8.574268 21.197421,8.926417 21.1324,8.994757 20.896151,8.603124 20.882666,8.577424 20.742229,8.570935 20.690839,8.573692 20.459522,8.820545 20.418666,8.863953 20.26547,8.610228 20.156723,8.615656 19.688172,8.709679 19.65264,8.753686 19.647346,8.76059 19.620535,8.72235 19.478071,8.759198 18.761261,8.721119 18.728256,8.720442 18.697928,8.778033 18.664233,8.723813 17.595519,8.840956 17.494815,8.852504 17.44243,8.978461 17.411238,8.912094 17.37798,8.873346 16.272156,9.077649 16.07151,9.113037 16.069892,9.116469 16.033083,9.124151 15.933739,9.39117 15.886163,9.243218 15.814485,9.16977 14.953543,9.349441 14.839274,9.371588 15.203762,9.681576 14.467939,9.858254 14.322657,9.884678 14.318996,9.894007 14.291798,9.901682 14.193938,10.170481 14.145261,9.997304 14.112369,9.952318 13.268558,10.190439 12.810462,10.282005 13.300432,10.78552 12.693904,10.968431 12.460787,11.009482 12.452721,11.035987 12.402748,11.053895 12.258284,11.524908 12.104681,11.252948 12.042326,11.183057 11.663533,11.318802 11.101288,11.44294 11.483098,11.897686 11.624978,12.163471 11.00664,12.361123 10.587202,12.439193 10.575308,12.496519 10.500608,12.523762 10.336418,13.39809 9.786837,13.082811 9.845075,13.268764 10.02879,13.641148 10.077996,13.741484 9.442562,13.904527 8.743792,14.057696 8.738558,14.131265 8.694051,14.144653 8.671435,15.231242 8.750981,15.403815 8.714818,15.409049 8.669122,15.41808 8.669414,15.516523 8.585257,15.532185 7.768855,15.622158 7.447865,15.720576 7.414874,15.661168 7.347273,15.668619 7.3499,15.544282 7.315452,15.543854 7.31833,15.487321 6.983657,14.884678 6.82391,14.622005 7.368802,14.495864 7.387431,14.129928 7.494489,13.482749 7.677944,13.463874 8.076442,13.462517 7.801629,13.087031 8.129219,13.01866 9.191229,12.765098 9.207623,12.713195 9.222579,12.710611 9.2621,12.505042 8.986511,12.103216 8.670056,11.84461 9.502361,11.613565 9.541625,11.514503 9.564978,11.508813 9.636335,11.148302 9.666095,11.076206 9.558695,10.945542 9.35664,10.823782 9.828709,10.68229 9.859122,10.608616 9.882222,10.602325 9.90862,10.470991 10.111918,9.880648 10.083024,9.856534 10.123505,9.847003 10.13509,9.813365 10.136701,9.806903 10.171001,9.829958 11.6323,9.486646 11.743325,8.884895 11.763721,8.661033 12.065936,8.624527 12.073956,8.596025 12.084742,8.594448 12.11207,8.498954 12.218873,8.574848 13.042602,8.454476 13.678107,8.341833 13.716525,8.216981 13.770887,8.208633 13.783489,8.161778 13.894804,7.817445 14.242218,8.100248 14.279698,8.130505 15.253346,7.981 15.296267,7.855549 15.383588,7.843352 15.413704,7.752288 15.582832,7.303542 15.835659,7.536482 16.029053,7.715636 16.142373,7.669633 16.208633,7.728125 16.267711,7.719873 16.771233,7.59818 16.789163,7.552832 16.891754,7.543453 16.949646,7.405647 17.160778,6.943808 17.390258,7.18672 17.588513,7.400654 17.705366,7.372413 17.79315,7.459395 18.107877,7.421869 18.13939,7.357242 18.228805,7.35901 18.333471,7.176713 18.584202,6.749308 18.798926,7.027225 19.013539,7.313884 19.12642,7.300425 19.146737,7.324999 19.170123,7.321846 19.190287,7.354654 19.285427,7.36564 19.456543,7.140526 19.75331,6.74805" slic3r:type="contour"/>
    <polygon style="fill: white" points="36.747397,16.152772 36.747747,16.14695 36.765125,16.156998 37.191183,16.258543 37.893816,16.4273 37.818156,16.548129 37.696732,16.755775 38.171832,17.063246 38.083725,18.203886 38.402883,18.304701 38.649336,18.367248 38.258308,18.825781 38.002167,19.209432 37.996144,19.279133 37.967967,19.260656 37.909711,19.347912 36.95102,19.095126 36.762048,19.021902 37.003765,18.628394 36.787712,18.48672 36.524808,18.367596 36.645996,17.838097 36.675178,17.353083 35.985984,17.137746 36.139696,16.817205 36.586668,16.114464" slic3r:type="contour"/>
    <polygon style="fill: white" points="38.807335,20.335334 39.373204,20.471052 39.205244,20.658214 38.888603,21.134175 39.330884,21.672316 40.151588,22.705843 40.161101,22.831568 40.198384,22.837554 40.164543,22.877037 40.167304,22.913527 40.213196,23.141587 40.575381,25.30182 40.891647,25.411302 41.06604,25.441314 40.674683,25.894101 40.705328,26.076882 40.673358,26.122349 41.120476,27.732104 41.209769,28.134711 41.667216,28.326748 41.900912,28.379724 41.388396,28.940109 41.435844,29.154041 41.378328,29.229979 41.830136,30.631776 42.037313,31.470756 42.400044,31.667844 42.567304,31.724116 42.191147,32.093715 42.226204,32.235682 42.175166,32.296083 42.426695,33.017029 42.843772,34.678464 42.772152,35.056348 42.641678,35.316652 42.735712,35.381408 42.720185,35.418409 42.909072,35.510888 42.855631,35.556164 42.507211,35.925933 42.272396,36.485503 41.905968,36.961239 41.739942,36.459309 41.447564,36.309616 40.870852,35.87504 41.040308,35.684439 41.382963,35.380089 41.3689,35.337572 41.51003,35.161064 40.920895,33.251703 40.611967,32.268957 40.588192,32.254948 40.606864,32.232373 40.537672,31.984766 40.495256,29.286797 40.356363,29.221923 40.336592,29.142708 40.04462,29.064696 39.96638,29.029618 40.213819,28.650821 39.977831,27.705333 39.482104,26.268309 39.400288,26.23587 39.377561,26.189699 39.212604,26.153708 39.16732,26.13718 39.269871,25.970929 39.160555,25.748855 38.901212,25.33503 38.708524,24.104056 38.585804,23.610063 38.304648,23.507856 38.359479,23.427682 38.497788,23.255756 38.49222,23.233344 38.609064,23.040806 38.598988,22.620627 38.422911,21.424486 38.082108,21.337002 37.480968,21.116642 37.676044,20.816617 38.20564,20.141459" slic3r:type="contour"/>
    <polygon style="fill: white" points="42.500283,39.401027 42.894444,39.6477 42.364724,40.073103 41.988113,40.443926 42.03316,40.615032 41.965578,40.677423 42.388468,41.68874 42.691892,42.664155 42.449467,42.957364 41.854905,43.40952 42.029919,43.576088 41.95583,43.641833 42.53934,44.117192 42.237911,44.34256 41.361088,45.095412 40.740575,44.585615 40.444792,44.265776 40.800944,43.947947 41.373333,43.499978 41.364816,43.47948 41.486272,43.354854 41.173363,42.474547 40.745047,41.405492 41.464232,40.821719 41.650459,40.625359 41.568772,40.551772 41.629226,40.459805 41.023459,40.076039 40.845232,39.91014 41.3316,39.389063 41.8974,38.912563" slic3r:type="contour"/>
    <polygon style="fill: white" points="41.680344,46.57568 41.973012,47.43006 41.718976,47.593 40.949122,47.92735 41.15852,48.144128 41.6524,48.714468 41.229712,48.970919 40.409062,49.495283 40.694363,50.481415 40.863588,51.022688 40.358659,51.11444 39.649804,51.2112 39.277664,50.172348 39.137884,49.718944 40.0175,49.516172 40.2439,49.486737 39.739787,48.862863 39.51904,48.594888 39.953396,48.371124 40.752675,47.854489 40.485895,47.123415 40.1202,46.176088 40.756595,45.867744 41.29834,45.589696" slic3r:type="contour"/>
    <polygon style="fill: white" points="39.006272,52.385984 39.080119,52.667839 39.358756,53.75858 39.343252,53.751668 39.172886,53.738225 39.196336,53.933908 37.52701,54.748664 37.53986,55.373552 37.544244,55.599656 36.742271,55.307715 36.536221,55.232243 36.44084,55.278796 36.422632,55.273472 36.422292,55.269648 36.417264,55.183882 36.065032,55.318388 36.199408,54.649128 36.287516,53.858208 36.338498,53.840234 36.337411,53.821704 36.342435,53.822292 36.362796,53.829532 37.289744,53.422103 37.992005,53.063144 37.814856,52.265076 38.0047,52.253212" slic3r:type="contour"/>
    <polygon style="fill: white" points="35.216856,55.526796 35.591188,55.749508 35.472836,56.671563 35.436204,57.093432 34.875691,56.792723 34.333872,56.509048 34.446247,55.416592 34.480304,55.158352" slic3r:type="contour"/>
    <polygon style="fill: white" points="32.852578,56.58458 33.396879,56.984456 33.239779,57.662812 33.13372,58.303292 32.838126,58.086008 32.093818,57.596304 32.234817,56.831044 32.36222,56.274348" slic3r:type="contour"/>
    <polygon style="fill: white" points="30.426618,57.417012 31.119542,57.997188 30.987597,58.445168 30.796342,59.292816 30.704406,59.211843 30.030167,58.694224 29.839071,59.076092 29.39869,59.79526 28.609977,59.867601 28.555106,60.02574 28.536926,60.088216 28.330138,59.893268 28.292288,59.89674 28.278035,59.884148 27.147455,59.971308 26.583716,60.010526 26.381004,60.493923 26.31257,60.676276 25.751093,60.068451 25.666034,60.074367 25.637298,60.044301 24.616813,60.095741 24.613249,60.103104 24.589459,60.103532 24.227007,60.806796 24.103882,61.057428 23.583378,60.390696 23.391101,60.156874 23.318602,60.160048 23.292586,60.126858 22.575042,60.139764 22.571426,60.16416 22.557301,60.163902 22.064801,60.933304 21.895064,61.195172 21.443884,60.489864 21.233184,60.163899 21.2187,60.16416 21.215143,60.139404 20.498372,60.126322 20.471548,60.160032 20.403182,60.156425 19.868659,60.838388 19.686244,61.057432 19.273882,60.258916 19.196616,60.103394 19.176878,60.103104 19.171139,60.091415 18.159593,60.038042 18.124129,60.074304 18.056085,60.068649 17.622067,60.534988 17.47755,60.676272 17.191567,59.996806 16.379896,59.929356 15.519112,59.878526 15.497914,59.896732 15.467826,59.893477 15.305824,60.04458 15.253202,60.088236 15.174224,59.861709 14.924113,59.834648 14.391251,59.795204 14.189606,59.290524 13.799712,58.684387 13.72849,58.746263 12.993782,59.2928 12.951634,59.150067 12.670524,57.997188 13.096955,57.669428 13.644952,57.205712 13.717731,57.531152 13.975777,58.411918 15.167479,58.536432 15.195264,58.513071 15.217772,58.514792 15.791442,57.969392 15.839261,58.133211 15.992929,58.574055 16.925822,58.645376 17.718416,58.712936 17.870294,58.5463 17.88767,58.592384 17.94154,58.720494 19.179762,58.782412 19.673102,59.179968 19.878429,58.929048 19.898496,58.904528 20.186753,59.488516 21.378017,59.826034 21.859263,59.080016 21.895064,59.026108 22.384456,59.79166 22.414245,59.836631 23.459365,59.550312 23.585747,59.510938 23.875934,58.933971 23.8916,58.904528 24.129467,59.19518 24.372647,59.00898 24.610356,58.782412 25.613698,58.736767 25.845393,58.722875 25.919832,58.546304 25.954074,58.582716 26.076699,58.716997 27.072227,58.65234 27.782405,58.587404 27.998694,57.969376 28.1308,58.086068 28.583568,58.514148 28.594861,58.513115 28.641603,58.551786 29.808426,58.416752 29.902406,58.030019 30.145166,57.205707" slic3r:type="contour"/>
  </g></svg>