<svg width="43.790126" height="63.590156" xmlns="http://www.w3.org/2000/svg" xmlns:svg="http://www.w3.org/2000/svg" xmlns:xlink="http://www.w3.org/1999/xlink" xmlns:slic3r="http://slic3r.org/namespaces/slic3r"><g xmlns="http://www.w3.org/2000/svg" slic3r:z="2.73949999999999e-005" id="layer82">
    <polygon style="fill: white" points="5.026583,55.461839 4.793338,56.223042 5.434879,56.654725 5.487052,56.643604 6.222573,56.453072 6.207171,56.573412 6.17458,56.950862 7.751405,57.55478 7.751636,57.562006 7.769945,57.577488 9.145846,58.753571 9.503544,58.563495 9.613129,58.50036 9.725639,59.249161 9.754423,59.273765 10.713536,59.947569 11.47077,59.469067 11.671698,59.32994 11.824301,59.989828 11.961754,60.483208 11.18567,61.045719 10.964228,61.19048 10.751541,60.427823 10.69021,60.160486 9.516434,59.945378 9.389252,60.014488 9.292373,59.989435 8.870934,60.246444 8.763673,60.304316 8.669607,59.828387 8.171871,59.699672 7.181971,59.501479 6.956306,59.293435 6.838895,59.198341 6.835692,59.199823 6.832288,59.195753 6.706878,59.245776 6.703629,59.209099 6.698415,59.084562 6.689765,59.077556 6.684885,59.019443 6.099564,58.319347 5.621836,57.819161 5.58896,57.828092 5.57449,57.802327 4.905944,57.937436 4.920766,57.742336 4.993754,57.161554 4.966857,57.133392 4.988761,56.85495 4.68582,56.397643 4.203575,56.418568 3.511924,56.419424 3.607737,56.088003 3.892183,55.272488 4.483996,55.266 5.104632,55.231476" slic3r:type="contour"/>
    <polygon style="fill: white" points="3.796027,53.841347 4.310087,53.910936 4.14167,54.210532 3.721196,54.974296 3.047204,54.869832 2.516908,54.777404 2.726004,54.376559 3.107954,53.720168" slic3r:type="contour"/>
    <polygon style="fill: white" points="2.661094,48.728564 3.048925,48.937372 2.578368,49.552691 2.454177,49.71152 2.915143,50.125332 3.315859,50.465684 3.170401,50.697376 3.023866,50.946316 3.44836,51.11806 3.238491,51.425863 2.657703,52.144092 3.335714,52.369099 3.782609,52.50562 3.54692,52.8107 3.029709,53.434952 2.282362,53.203772 1.8779,53.094928 2.167816,52.710068 2.628829,52.127404 1.910753,51.735075 1.513936,51.59988 1.713561,51.305011 1.86687,51.123357 1.312595,50.607992 1.718043,49.972263 1.836293,49.796861 1.339231,49.504051 1.095432,49.370879 1.459729,48.915508 1.944681,48.321704" slic3r:type="contour"/>
    <polygon style="fill: white" points="2.323895,45.501315 2.611613,45.685508 2.12969,46.270443 2.525667,46.645356 2.759072,46.878268 2.411405,47.391399 1.914282,48.05846 1.080486,47.238572 0.749792,46.919243 1.126273,46.425531 1.099815,46.406832 1.119905,46.379214 0.80074,46.169399 0.642588,46.052668 1.083145,45.480747 1.527472,44.94134" slic3r:type="contour"/>
    <polygon style="fill: white" points="2.036988,41.581547 2.251879,41.734704 1.861019,42.150586 1.928514,42.250907 2.168764,42.502879 2.324528,42.694364 1.893098,43.361764 1.433049,43.896352 0.489349,42.807475 0.313827,42.625372 0.569262,42.322077 0.540907,42.297436 0.567131,42.259035 0.367821,42.116259 0.268049,42.019468 0.758994,41.356112 1.2069,40.868375" slic3r:type="contour"/>
    <polygon style="fill: white" points="1.564038,36.809456 1.683534,37.107936 2.041103,37.499315 2.143101,37.581339 1.941138,37.751389 1.965516,37.812279 1.954396,37.824829 2.065834,37.974703 2.13564,38.09976 1.610696,38.933448 1.149257,39.385424 0.135431,37.756176 0.133204,37.753328 0.136948,37.749357 0.133331,37.744587 0.17893,37.686741 1.206826,36.194396" slic3r:type="contour"/>
    <polygon style="fill: white" points="19.385326,3.890919 19.498868,3.731826 19.551617,3.822958 19.653391,3.774687 19.706291,3.928193 19.672704,4.080361 19.94169,3.893336 19.996589,4.084927 20.12903,3.928623 20.1845,4.231174 20.250512,4.452635 20.584487,3.975921 20.697352,4.269921 20.838508,4.553648 20.918412,4.431427 21.195578,3.993271 21.346504,4.278153 21.492793,4.532313 21.566175,4.533068 21.628197,4.431358 21.895064,3.992986 22.067693,4.27551 22.255957,4.584707 22.342267,4.429494 22.594562,3.99327 22.784072,4.272109 22.93935,4.516758 22.993222,4.397436 23.205638,3.975926 23.433749,4.253766 23.526926,4.385811 23.56329,4.244242 23.66112,3.928612 23.87741,4.132326 23.848438,3.893336 24.096842,4.053111 24.186192,3.905477 24.136762,3.774684 24.202842,3.877964 24.291292,3.731816 24.383998,3.875503 24.427328,3.93751 24.52677,3.976132 24.7359,3.922254 24.65903,3.567393 24.735914,3.857536 24.829237,3.898208 25.336557,3.767507 25.435232,3.664446 25.448429,3.738685 25.549258,3.712709 25.56613,3.656153 25.554506,3.711357 25.549259,3.712709 25.483184,3.934204 25.531164,4.204124 25.775878,4.310776 25.764936,4.391487 25.897457,4.432232 26.251496,4.248663 26.136183,4.342722 26.141997,4.490847 26.374658,4.489539 26.252276,5.012884 26.504062,5.09194 26.75843,4.985377 26.75843,4.985378 26.588752,5.12584 26.56996,5.337328 26.953432,5.278946 26.90708,5.803658 27.149904,5.850347 27.526103,5.717781 27.482212,5.768671 27.529145,5.832716 27.612396,5.796957 27.633932,6.079583 27.649591,6.499841 28.018555,6.544569 28.048274,6.539844 28.181236,6.436979 28.269116,6.445538 28.349787,6.387197 28.477254,6.306289 28.509188,6.468921 28.610388,6.478778 28.852098,6.465047 28.665702,6.87479 28.674159,7.173004 28.95696,7.215441 28.977405,7.186765 29.157432,7.218727 29.258682,7.128305 29.530372,6.875776 29.606867,7.298523 29.906819,7.351777 30.647595,7.490102 30.648185,7.489212 30.658673,7.491769 30.685263,7.46539 30.691098,7.498226 30.692176,7.498427 30.692181,7.498486 30.83515,7.540791 30.702477,7.605167 30.710779,7.691202 30.76293,8.282024 30.764786,8.282524 30.766749,8.306078 31.131284,8.411962 31.627553,8.59093 31.661145,8.546513 31.816472,8.307 31.833167,8.665078 31.836641,8.666331 31.837145,8.678042 32.028729,8.743871 32.759878,9.049231 32.857889,8.90869 32.858648,9.090482 32.861391,9.091628 32.861407,9.100076 33.025688,9.164265 33.645094,9.436035 33.857288,9.182905 33.86246,9.531407 33.874356,9.536626 33.874255,9.555569 34.504138,9.825202 34.579731,9.764086 34.907734,9.543569 35.115815,9.390254 35.128371,9.29522 35.127075,9.219432 35.245642,9.289286 35.289064,9.269913 35.294401,9.318012 35.350959,9.351334 35.58982,9.427845 35.483231,9.691379 35.655695,10.021483 35.772189,10.062535 36.150092,9.957923 36.153294,9.961831 36.486156,9.853736 36.496992,9.935412 36.532814,10.424988 36.576004,10.477697 36.737685,10.628084 37.267264,10.607437 37.251095,10.700402 37.155873,11.121548 37.201043,11.197193 37.314752,11.358837 37.838124,11.449841 37.801971,11.543268 37.622672,11.936403 37.647996,11.994577 37.736539,12.17038 38.244772,12.350326 38.193039,12.433839 37.958671,12.777111 37.989147,12.864261 38.058718,13.045493 38.509908,13.279018 38.454867,13.34235 38.226191,13.588199 38.198309,13.621275 38.250803,13.837021 38.299893,14.020959 38.649884,14.257687 38.602795,14.299994 38.408069,14.462454 38.370119,14.497 38.424223,14.937486 38.44972,15.10728 38.680632,15.288597 38.646871,15.315615 38.47523,15.436922 38.474596,16.210011 38.483803,16.418224 38.642043,16.505096 38.599145,16.540102 38.649748,16.575543 38.59434,16.655212 37.82717,17.483165 38.65716,18.009256 38.82678,18.12378 38.590865,18.42246 38.714391,18.530565 38.942312,18.715708 38.819824,19.092173 38.766223,19.296471 38.802208,19.318602 38.801683,19.412417 39.202543,19.57426 39.046039,19.76038 38.787773,20.127578 38.739588,20.639502 38.88556,20.727718 38.911778,20.928649 39.246028,21.10851 39.777548,21.327316 39.428884,21.627378 39.078658,22.119971 39.161512,22.17706 39.275932,22.312428 39.139315,22.532392 39.175752,22.553547 39.20686,22.729111 39.20663,22.764702 40.31726,23.400976 40.5418,23.498348 40.192238,23.758297 40.319932,23.935589 40.208464,24.107512 40.615255,24.281197 41.012084,24.793649 41.165684,25.691234 41.157069,26.014864 41.22484,26.056073 41.235059,26.148524 41.526656,26.291188 41.416579,26.381146 41.283308,26.585043 41.375772,27.421592 41.250601,28.57464 41.483856,28.731642 41.488225,28.959539 42.069003,29.387583 42.526308,29.644364 42.11666,29.987519 41.889545,30.330192 42.045888,30.566158 41.903346,30.7581 42.590856,31.24906 43.050712,31.955737 42.996279,32.591232 42.851305,33.020463 42.940028,33.097516 42.914301,33.210017 43.304032,33.49039 43.131896,33.630951 42.603627,34.292683 42.449512,34.593064 42.338025,34.468577 41.909443,34.171392 41.28772,33.490024 41.31384,33.452364 41.37673,33.395187 41.365291,33.382414 41.403072,33.31808 41.240712,33.201118 41.318435,32.90937 41.761802,30.856737 41.713887,30.829055 41.574908,30.696528 41.593305,30.503341 40.931079,30.156045 40.441235,29.72624 40.583232,29.464908 40.993509,29.057244 40.868344,28.949514 41.02316,28.63516 41.105474,28.548394 40.319936,27.90989 39.819544,27.680762 39.854726,26.772778 39.746528,26.687377 39.743442,26.630408 39.557611,26.551598 39.386552,26.428124 39.698921,25.808533 39.62991,24.534559 39.403912,24.368778 39.387917,24.21919 38.858192,24.004662 38.374256,23.663564 38.53968,23.344085 39.05024,22.836559 38.873576,22.692396 38.970524,22.528658 39.02981,22.467576 39.009945,22.272419 38.302172,21.984262 37.658924,21.538856 37.731744,21.400341 37.937188,21.196067 37.883552,21.14219 38.041777,20.907389 37.30618,20.05421 37.186,19.940032 37.181744,19.868769 37.171231,19.861988 37.164568,19.857292 37.181168,19.834492 37.353327,18.729533 37.062712,18.544838 36.872104,18.419978 37.281228,17.902301 37.513824,17.687056 37.537071,17.534709 37.548091,17.52107 37.567198,17.530239 37.576462,17.520203 37.635406,17.574544 37.746482,17.471752 37.656744,17.398527 37.60814,17.460452 37.495331,17.266818 37.226376,17.047358 36.693456,16.819002 36.825184,16.661586 36.878552,16.608108 36.654808,16.464147 36.77822,16.34174 37.141781,16.146001 37.183155,15.59024 36.687372,15.253484 36.881643,15.098886 37.189308,14.883738 37.19146,14.675352 36.661356,14.389046 36.854667,14.236533 37.124944,14.018006 37.108793,13.869426 36.558272,13.662711 36.726748,13.496391 36.958928,13.253918 36.930842,13.141918 36.374167,13.019963 36.506915,12.831266 36.706326,12.551323 36.670817,12.464496 36.105584,12.426154 36.199019,12.199952 36.370447,11.850659 35.763036,11.918884 35.803584,11.637372 35.879955,11.359114 35.39964,11.552985 35.332591,11.194094 35.262115,11.183712 35.132459,11.434466 35.138576,11.49412 34.708397,11.342938 34.830764,11.836448 34.511308,11.750254 34.431738,11.724455 34.372506,11.80391 34.381648,11.839997 34.224709,12.002024 34.244576,12.272787 34.1021,12.204662 34.051602,12.180746 33.832448,12.407007 33.573852,12.014989 33.51778,11.850426 33.410671,12.101449 33.382828,12.453319 33.092576,12.387895 33.041564,12.446925 33.020419,12.389163 33.008943,12.354805 32.956527,12.334777 32.955083,12.331061 32.285825,12.124874 32.185583,12.095339 32.080856,12.189066 32.058642,12.101419 32.0481,12.05483 31.986933,12.036806 31.163083,11.838222 31.125336,11.723387 31.112754,11.733699 31.109873,11.711964 31.04248,11.781216 30.945045,11.174901 30.857007,10.90707 30.798036,10.890001 30.796914,10.876569 30.367167,10.775851 29.969924,11.199852 29.887152,10.760053 29.870748,10.660371 29.4269,10.584676 28.953146,10.506809 28.852132,10.614845 28.825549,10.485405 28.585268,10.449931 28.69457,10.335653 28.782374,10.25819 28.771156,10.199561 28.782618,10.19 28.74135,9.86057 28.72121,9.690564 28.697953,9.685236 28.697662,9.68212 27.777362,9.490602 28.321917,9.177241 28.650233,8.98552 27.914494,8.835393 27.649444,9.281458 27.607399,8.849288 27.598912,8.77691 27.388452,8.732774 27.503796,8.646492 27.576858,8.588847 27.573488,8.560111 27.590001,8.550561 27.585518,8.415358 27.559457,8.236379 27.030313,8.170317 27.284881,7.88641 27.468291,7.662295 26.843631,7.632449 26.764515,7.663778 26.673525,7.653738 26.528262,7.768366 26.541008,7.639118 26.406882,7.62432 26.455599,7.528963 26.502177,7.434779 26.47387,7.23623 26.542442,7.024193 26.526283,6.92558 25.769135,6.881038 25.560052,6.865955 25.665111,6.570859 25.732615,6.280556 25.726822,6.077798 25.46631,6.052959 24.97965,5.991055 25.06637,5.737748 24.961582,5.722538 24.834712,5.812643 24.795148,6.046406 24.321215,5.776249 24.278868,5.880999 24.164324,6.195034 23.709698,5.755195 23.586894,5.990944 23.454236,6.26517 23.121498,5.811853 23.076594,5.818799 23.055983,5.788995 22.975413,5.793016 22.974296,5.795097 22.967293,5.795167 22.832004,6.025105 22.685148,6.286658 22.379932,5.816642 22.346794,5.817756 22.336621,5.801465 22.210597,5.802723 22.208712,5.805932 22.191396,5.80576 22.053624,6.029504 21.895064,6.286787 21.598953,5.805886 21.581413,5.805932 21.577724,5.799647 21.455809,5.798431 21.443406,5.817751 21.414541,5.816313 21.272609,6.034643 21.104964,6.286669 20.809722,5.786211 20.739963,5.782739 20.713462,5.818738 20.669737,5.813253 20.516367,6.022122 20.335896,6.26516 20.055423,5.729285 20.00467,5.794405 19.997253,5.791143 19.826766,5.955243 19.625814,6.195059 19.425263,5.701243 19.267971,5.784232 18.995008,6.046395 18.946893,5.806833 18.74908,5.850686 18.810472,5.991077 18.242042,6.017034 18.134463,6.032247 18.22379,6.806445 18.222786,6.845691 18.187608,6.845514 18.19421,6.868556 17.487552,6.86584 17.313371,6.883073 17.290776,7.157716 17.316268,7.23615 17.294985,7.444346 17.38327,7.624312 17.276206,7.628044 17.261858,7.768396 17.124856,7.735317 16.99873,7.656796 16.823315,7.611134 16.574573,7.607278 16.315715,7.627241 16.759799,8.170348 16.371121,8.196062 16.264708,8.212493 16.216429,8.587461 16.401645,8.732814 16.25272,8.759407 16.194304,8.772416 16.14077,9.281248 15.938764,8.96649 15.860995,8.83261 15.501019,8.899771 15.130542,8.978171 15.734471,9.328673 16.012691,9.490649 15.321091,9.640819 15.066115,9.692412 15.04118,9.897211 15.006068,10.189486 15.018924,10.199638 15.004809,10.272058 15.204807,10.449963 15.02437,10.479534 14.962739,10.487914 14.937999,10.614848 14.858852,10.535829 14.834454,10.509675 14.236644,10.618595 13.910181,10.670397 13.820191,11.199864 13.492187,10.880207 13.410747,10.792865 13.01165,10.883653 12.932647,10.909227 12.82991,11.212393 12.758319,11.704973 12.747676,11.781215 12.677451,11.715375 12.677494,11.733768 12.65276,11.713806 12.627241,11.838141 11.858289,12.027078 11.739584,12.054252 11.709215,12.189075 11.630043,12.128522 11.597282,12.099621 10.883533,12.318627 10.834069,12.333233 10.833633,12.334758 10.780919,12.349417 10.748565,12.446938 10.680722,12.377279 10.407241,12.453328 10.178915,11.972474 10.09736,12.01114 10.031385,12.143308 9.957672,12.407 9.712525,12.193587 9.545518,12.272763 9.55726,12.126246 9.564851,12.023267 9.408614,11.840209 9.4138,11.802836 9.346933,11.712909 8.959357,11.836447 9.036586,11.532417 9.080636,11.35478 9.040122,11.300297 8.651557,11.494128 8.657634,11.462971 8.462896,10.921374 8.438432,10.872439 8.365455,10.884915 8.354322,10.97355 8.390458,11.552995 8.155203,11.401417 7.895261,11.29065 7.850099,11.340135 8.0271,11.918874 7.804008,11.862499 7.481151,11.82012 7.423448,11.914017 7.684519,12.426154 7.467458,12.429233 7.117574,12.450059 7.077956,12.54678 7.415978,13.019962 7.1995,13.074271 6.833613,13.156292 6.816513,13.223794 7.231853,13.662711 7.014605,13.762547 6.659058,13.900623 6.648168,13.998508 7.128771,14.389055 6.922249,14.514798 6.595878,14.694182 6.598041,14.911188 7.102752,15.253487 6.922641,15.372826 6.664661,15.547505 6.72494,16.299492 7.135314,16.464169 7.02594,16.531081 6.893023,16.616095 7.096672,16.819 6.803237,17.050438 6.223306,17.381741 6.181995,17.460574 6.147678,17.424946 6.047837,17.481982 6.145933,17.593397 6.220487,17.528937 6.221967,17.530487 6.242132,17.52108 6.244466,17.525014 6.253091,17.534644 6.312799,17.78292 6.71942,18.24475 6.918025,18.419972 6.525907,18.669043 6.596679,18.963317 6.613371,19.847222 6.625577,19.857222 6.613678,19.863509 6.613855,19.872938 6.60403,19.940403 6.104077,20.8873 5.8544,21.075065 5.9066,21.142262 5.813664,21.289711 6.131215,21.538862 5.947723,21.611106 4.796819,22.267962 4.795998,22.300929 4.756386,22.461536 4.91664,22.692482 4.740383,22.896064 5.040783,23.365976 5.415866,23.663568 4.950212,23.849068 4.43724,24.144163 4.386276,24.368736 4.211263,24.472215 4.232341,25.435815 4.132565,26.097416 4.267457,26.312297 4.403576,26.42812 4.060792,26.573328 4.043591,26.687383 3.97695,26.73042 4.010376,27.064864 3.970602,27.680689 3.438541,28.249754 2.697067,28.590681 2.921726,28.94949 2.756738,29.12894 2.898956,29.339636 3.348868,29.726312 2.955372,29.92948 2.211014,30.466667 2.215162,30.696506 2.038654,30.837766 2.358196,31.875042 2.549359,33.201492 2.491434,33.276144 2.396624,33.343183 2.425001,33.382427 2.405988,33.408275 2.502444,33.489839 2.450917,33.524591 2.041329,33.904017 1.782082,34.256452 1.340503,34.592848 1.296292,34.45802 0.933853,34.138664 0.4861,33.490388 0.644981,33.323625 0.870776,33.16036 0.850135,33.097412 1.005004,32.939753 0.739465,31.955476 1.224771,31.596812 1.894162,30.799147 1.744131,30.566126 1.887645,30.404177 1.446651,29.975493 1.263802,29.64444 1.750852,29.227358 2.32129,28.908558 2.30627,28.73162 2.495873,28.578446 2.549358,28.551698 2.56033,26.832445 2.263472,26.29118 2.402763,26.18676 2.564954,26.10774 2.565284,26.056068 2.695468,25.96101 2.778104,24.79348 3.454851,24.505172 3.674203,24.30995 3.470179,23.93552 3.556108,23.855661 3.325637,23.638368 3.248316,23.498382 3.899195,23.053188 4.600211,22.750036 4.614402,22.553604 4.653544,22.525819 4.588913,22.45393 4.514189,22.312422 4.700012,22.147884 4.204523,21.647292 4.012583,21.327306 4.431887,21.060133 4.899898,20.86453 4.904477,20.727778 5.074612,20.607874 5.050048,20.242594 4.885934,20.038124 4.5876,19.574224 4.770647,19.470983 4.991984,19.379147 4.987911,19.31858 5.011471,19.303233 4.847808,18.715724 5.209872,18.402692 5.051495,18.205721 4.963342,18.123784 5.385016,17.867983 5.969229,17.480619 5.562655,16.872501 5.140383,16.575541 5.19774,16.536351 5.148086,16.505097 5.179379,16.482525 5.296559,16.411309 5.292848,15.608652 5.3018,15.425448 5.293527,15.419463 5.294279,15.413015 5.109495,15.288596 5.1479,15.260358 5.328271,15.121514 5.381238,14.667289 5.409036,14.486322 5.3742,14.455297 5.375778,14.448672 5.140237,14.257687 5.197236,14.223291 5.472319,14.043376 5.529031,13.805283 5.582106,13.608362 5.535842,13.554874 5.537838,13.549097 5.280215,13.279021 5.359885,13.244399 5.701258,13.076118 5.743177,12.95479 5.823279,12.747578 5.77829,12.679491 5.54535,12.350322 5.640576,12.327713 5.999988,12.212166 6.059434,12.075924 6.159723,11.878124 5.952006,11.449845 6.047548,11.445549 6.40732,11.395388 6.525402,11.200502 6.633097,11.048289 6.522835,10.607467 6.608713,10.621171 6.919592,10.643366 6.920638,10.641888 6.957213,10.644003 7.201024,10.360233 7.287452,10.28103 7.303942,9.85374 7.365301,9.882933 7.619846,9.97642 7.640016,9.957936 7.672393,9.967548 8.20038,9.427819 8.472182,9.330933 8.504058,9.308838 8.501096,9.269913 8.525552,9.288274 8.663052,9.219441 8.692338,9.413497 9.27003,9.847224 9.811352,9.626234 9.917806,9.572698 9.915711,9.536623 9.961936,9.51885 9.966424,9.45424 9.932832,9.182934 10.163227,9.441457 10.373052,9.360782 10.92889,9.10734 10.928712,9.091682 10.939257,9.087988 10.932217,8.908703 11.042128,9.051956 11.199874,8.996702 11.952265,8.69242 11.95349,8.666335 11.96313,8.663407 11.966731,8.607763 11.973667,8.306981 12.182379,8.596808 12.688401,8.443098 13.02196,8.332323 13.025393,8.282492 13.041539,8.278589 13.055481,8.148663 13.090883,7.606794 13.030474,7.577492 12.954882,7.54083 13.097768,7.501409 13.097963,7.498425 13.099417,7.498164 13.10489,7.465362 13.133384,7.491582 13.141996,7.489206 13.142821,7.490364 13.287324,7.464397 14.189197,7.300267 14.190186,7.287777 14.194105,7.287244 14.206155,7.223626 14.259786,6.875764 14.642476,7.217776 14.812894,7.186762 14.823823,7.201656 14.993709,7.178566 14.906075,6.839753 14.938042,6.465048 15.300435,6.449881 15.312866,6.306301 15.49586,6.441703 15.60888,6.436973 15.632328,6.455218 16.196906,6.429334 16.208901,6.308047 16.177759,5.796938 16.25975,5.843965 16.264026,5.717784 16.760544,5.659251 16.947952,5.651071 16.836696,5.278941 17.054403,5.350797 17.031704,4.98538 17.534429,4.848896 17.41548,4.489533 17.533531,4.497793 17.538622,4.248672 17.889088,4.151247 18.019799,4.157736 18.130503,3.75603 18.223998,3.656166 18.34304,3.68702 18.354838,3.664452 18.407412,3.703704 18.71828,3.784276 19.131064,3.567382" slic3r:type="contour"/>
    <polygon style="fill: black" points="10.574218,9.643457 10.392642,9.781414 10.519955,9.960357 10.891392,9.830205 10.933244,9.810643 10.934354,9.589212 10.932137,9.393667" slic3r:type="hole"/>
    <polygon style="fill: black" points="32.862296,9.561229 32.861668,9.771613 33.327897,9.938999 33.409785,9.827489 33.0697,9.596209 32.862035,9.426166" slic3r:type="hole"/>
    <polygon style="fill: black" points="11.647966,9.123859 11.152782,9.240447 11.292598,9.469509 11.367096,9.602556 11.797577,9.4545 11.920038,9.405106 11.933387,9.088952" slic3r:type="hole"/>
    <polygon style="fill: black" points="31.866921,9.369894 32.251216,9.499309 32.477247,9.593765 32.544444,9.489531 32.651555,9.263483 32.196008,9.19959 31.856675,9.131813" slic3r:type="hole"/>
    <polygon style="fill: black" points="24.85367,5.70063 24.917692,5.734296 25.003687,5.650871 24.873897,5.581122" slic3r:type="hole"/>
    <polygon style="fill: white" points="43.021556,36.651844 43.643421,37.730293 43.654876,37.743016 43.659919,37.747498 43.066488,38.860088 42.640944,39.385276 41.771744,38.213228 41.654472,38.099516 41.843969,37.837234 41.824491,37.812232 41.839837,37.779511 41.719432,37.67678 41.647016,37.581456 42.146136,36.952012 42.281603,36.837544 42.583288,36.194268" slic3r:type="contour"/>
    <polygon style="fill: white" points="43.385075,41.869999 43.522076,42.019408 43.211291,42.236233 43.249252,42.297436 43.228529,42.314375 43.392652,42.508855 43.476288,42.625451 42.877691,43.363368 42.357048,43.896364 41.670483,42.931251 41.465612,42.69422 41.897857,42.236027 41.884144,42.217436 41.910047,42.182286 41.66642,41.921268 41.538248,41.73478 42.055243,41.252948 42.583152,40.868424" slic3r:type="contour"/>
    <polygon style="fill: white" points="42.955823,45.819887 43.147544,46.052708 42.663389,46.368429 42.690359,46.406788 42.663608,46.425371 42.904232,46.740928 43.040332,46.919316 42.505696,47.452151 41.875844,48.058512 41.324276,47.271892 41.031056,46.878256 41.645688,46.294281 41.643596,46.291495 41.64829,46.286649 41.34056,45.912392 41.178512,45.685484 41.686683,45.313828 42.262732,44.941384" slic3r:type="contour"/>
    <polygon style="fill: white" points="42.430979,49.048283 42.694696,49.3709 42.005415,49.778836 41.947662,49.8112 42.242424,50.274812 42.477528,50.608056 42.160427,50.88942 41.880883,51.15126 42.276188,51.59988 41.852408,51.8388 41.163543,52.130163 41.635171,52.748559 41.912227,53.094908 41.471691,53.23616 40.76042,53.434952 40.293964,52.84234 40.00752,52.505632 40.392032,52.375815 41.131995,52.143618 40.657683,51.454739 40.341764,51.118108 40.560552,50.995315 40.740098,50.915852 40.474256,50.465788 40.971083,50.021804 41.335232,49.703732 40.958391,49.211355 40.741204,48.937408 41.167488,48.689879 41.845356,48.321732" slic3r:type="contour"/>
    <polygon style="fill: white" points="41.01324,54.340903 41.273216,54.77742 40.860532,54.839243 40.06888,54.97432 39.740535,54.386923 39.480043,53.910928 39.850084,53.842988 40.682248,53.720212" slic3r:type="contour"/>
    <polygon style="fill: white" points="38.958379,55.232328 39.897992,55.272584 40.064808,55.830768 40.278204,56.41942 39.968131,56.402592 39.115963,56.395837 38.800843,56.889172 38.823248,57.133348 38.78057,57.181079 38.884184,57.937432 38.715896,57.891712 38.235531,57.790645 37.641767,58.454704 37.103252,59.038483 37.100372,59.077552 37.088193,59.088041 37.083248,59.245776 37.053588,59.231708 36.963888,59.195099 36.608152,59.501475 35.10651,59.850461 35.041875,60.192964 35.026483,60.304287 34.520308,59.986695 34.400772,60.014476 34.315186,59.967103 33.090223,60.169925 32.879126,60.949764 32.825896,61.190503 32.240709,60.756675 31.828334,60.483212 32.047472,59.575859 32.118462,59.329936 32.74186,59.717896 33.083036,59.949075 34.024864,59.300739 34.029536,59.279152 34.051266,59.26105 34.151544,58.629071 34.176944,58.500388 34.660313,58.753703 35.089839,58.3959 36.0383,57.562262 36.03895,57.554054 37.065899,57.227212 37.60971,56.990718 37.567564,56.453036 37.701679,56.480491 38.412167,56.655695 38.99783,56.238403 38.879191,55.879015 38.685476,55.23148" slic3r:type="contour"/>
    <polygon style="fill: white" points="30.492855,60.399719 30.957928,60.757812 30.684661,61.587564 30.58608,61.940236 30.103393,61.539803 29.62166,61.178284 29.8566,60.396131 29.98262,60.045096" slic3r:type="contour"/>
    <polygon style="fill: white" points="28.304437,60.964739 28.823539,61.413736 28.548406,62.124703 28.394524,62.571044 28.001698,62.208944 27.46666,61.761912 27.707346,61.089319 27.89593,60.646375" slic3r:type="contour"/>
    <polygon style="fill: white" points="26.179379,61.391315 26.72796,61.934404 26.445873,62.54346 26.22247,63.057084 25.905699,62.724399 25.34836,62.18868 25.604218,61.609007 25.861394,61.102203" slic3r:type="contour"/>
    <polygon style="fill: white" points="24.111045,61.662315 24.658294,62.295192 24.361524,62.824567 24.059122,63.369424 23.800631,63.052299 23.259102,62.43306 23.542297,61.923832 23.865676,61.390924" slic3r:type="contour"/>
    <polygon style="fill: white" points="13.965273,60.592936 14.168486,61.178284 13.517036,61.708347 13.204026,61.94022 12.988538,61.300875 12.832285,60.75772 13.531941,60.262652 13.807506,60.045108" slic3r:type="contour"/>
    <polygon style="fill: white" points="16.048611,61.095511 16.323528,61.76186 15.779131,62.25464 15.395602,62.571044 15.187776,62.043215 14.966568,61.413836 15.557856,60.944535 15.894242,60.646388" slic3r:type="contour"/>
    <polygon style="fill: white" points="18.085705,61.469191 18.441753,62.188808 17.989377,62.656304 17.567658,63.057084 17.364502,62.622664 17.062182,61.934368 17.552561,61.481788 17.928732,61.102204" slic3r:type="contour"/>
    <polygon style="fill: white" points="20.092048,61.697836 20.531024,62.433023 20.152037,62.8923 19.731004,63.36942 19.526006,63.004344 19.13185,62.295155 19.534226,61.846483 19.92445,61.390924" slic3r:type="contour"/>
    <polygon style="fill: white" points="22.088857,61.767475 22.599366,62.473248 22.273612,62.949935 21.895064,63.481639 21.67494,63.1572 21.190744,62.473284 21.520857,62.008856 21.895064,61.493684" slic3r:type="contour"/>
  </g></svg>