<svg width="43.790126" height="63.590156" xmlns="http://www.w3.org/2000/svg" xmlns:svg="http://www.w3.org/2000/svg" xmlns:xlink="http://www.w3.org/1999/xlink" xmlns:slic3r="http://slic3r.org/namespaces/slic3r"><g xmlns="http://www.w3.org/2000/svg" slic3r:z="4.05949999999998e-005" id="layer122">
    <polygon style="fill: white" points="24.185468,58.418768 24.692552,59.078088 24.4439,59.563207 24.098366,60.277084 23.945037,60.070343 23.292346,59.23772 23.590632,58.628863 23.894414,58.038224" slic3r:type="contour"/>
    <polygon style="fill: white" points="26.305317,58.101011 26.800636,58.643416 26.549222,59.235635 26.304146,59.890772 26.075782,59.628868 25.420494,58.94324 25.701151,58.220876 25.923062,57.694508" slic3r:type="contour"/>
    <polygon style="fill: white" points="28.517624,57.601664 28.946588,58.00724 28.684028,58.751436 28.52841,59.288964 28.180656,58.942844 27.592553,58.423272 27.867141,57.529824 28.00154,57.145796" slic3r:type="contour"/>
    <polygon style="fill: white" points="34.778748,54.470252 35.567172,54.923231 35.502723,55.313864 35.452956,56.268492 35.372251,56.236083 34.804534,55.948673 34.658264,56.714012 33.258236,56.989127 33.170851,57.366456 33.146118,57.515819 32.604392,57.117611 32.519956,57.134204 32.424919,57.071886 31.149299,57.204178 30.876839,58.129236 30.793846,58.497064 30.280896,58.04528 29.826714,57.6966 30.099857,56.572588 30.148568,56.407188 30.846051,56.930831 31.072452,57.120395 31.344186,56.349332 31.411264,55.883504 31.960749,55.844168 32.312941,55.800039 32.379714,55.481655 32.454313,55.531011 32.740136,55.746514 32.769904,55.742784 32.787585,55.75397 33.213249,55.685384 34.396821,55.435546 34.410884,55.330968 34.49024,54.349652" slic3r:type="contour"/>
    <polygon style="fill: white" points="36.76452,53.078372 37.468316,53.328667 37.432008,53.897848 37.49912,54.706312 37.238572,54.6436 36.36416,54.387868 36.315919,53.849579 36.267316,53.020412" slic3r:type="contour"/>
    <polygon style="fill: white" points="38.889852,51.444868 39.05892,52.09014 39.23626,52.784352 38.881015,52.625984 38.113387,52.565412 37.829096,52.129428 37.666764,51.398124 38.258332,51.361152" slic3r:type="contour"/>
    <polygon style="fill: white" points="40.653399,48.235027 40.952808,49.225835 40.791855,49.300836 40.409982,49.419103 40.724628,49.877128 40.587255,49.9277 39.337872,50.38428 39.061715,49.951667 38.642979,49.432196 38.879012,49.408264 39.592753,49.095858 39.561516,48.987356 39.216448,47.69956 39.776775,47.499236 40.3905,47.348632" slic3r:type="contour"/>
    <polygon style="fill: white" points="41.702976,43.405768 42.028232,44.561196 41.859411,44.72132 41.3784,45.00278 41.495011,45.112252 41.473107,45.126301 41.88476,45.487952 41.684599,45.616408 40.640124,46.384252 40.091663,45.903843 39.748756,45.542784 40.086115,45.300308 40.686185,44.88628 40.74093,44.837427 40.615316,44.446672 40.132268,43.067088 40.76288,42.656871 41.281716,42.249292" slic3r:type="contour"/>
    <polygon style="fill: white" points="41.925436,40.579424 42.42482,40.903816 42.03074,41.210528 41.323584,41.86336 40.592755,41.377799 40.339172,41.14936 40.766184,40.735272 41.442052,40.187448" slic3r:type="contour"/>
    <polygon style="fill: white" points="41.501232,40.079176 41.491216,40.091295 41.486324,40.095012 41.479816,40.076704 41.484928,40.071224 41.488112,40.068544" slic3r:type="contour"/>
    <polygon style="fill: white" points="41.90434,32.491664 42.27426,32.628542 41.822168,33.045769 41.41044,33.533027 41.44624,33.704035 41.368947,33.786907 41.889096,35.44684 42.088617,36.30747 42.401423,36.519063 42.535804,36.584856 42.215781,36.855993 42.23574,36.942083 42.208147,36.969252 42.370848,37.418828 42.522659,37.995472 42.08276,38.781755 41.460744,39.417027 40.742631,37.127276 40.487464,36.938584 40.540451,36.884884 40.640048,36.800183 40.636804,36.789839 40.671263,36.75108 40.440444,35.943704 40.77226,35.222651 41.319619,33.750315 41.220192,33.690764 41.229436,33.525938 40.454223,33.216685 40.262376,33.103642 40.726652,32.542213 41.183327,32.095794" slic3r:type="contour"/>
    <polygon style="fill: white" points="41.237551,28.970625 41.675064,29.093838 41.340092,29.43089 40.851804,30.075556 40.006583,29.80578 39.705132,29.664978 40.076523,29.17666 40.548032,28.663718" slic3r:type="contour"/>
    <polygon style="fill: white" points="38.401535,20.20107 38.735792,20.308772 38.767874,20.348251 39.184588,20.456036 39.135859,20.511046 39.02838,20.66883 39.40526,21.132616 39.492202,22.898771 39.830532,23.014334 40.028344,23.059258 39.576611,23.55659 39.528124,23.628514 39.538204,23.833262 39.509662,23.872109 39.748721,25.546507 40.511983,25.836688 40.883448,25.925436 40.534548,26.297059 40.114968,26.893766 39.220456,26.644982 38.950688,26.538024 39.323776,26.017669 39.66613,25.614536 38.941992,24.149072 38.826998,23.959969 38.715476,23.916996 38.650963,23.831212 38.220064,23.718994 38.118636,23.682124 38.318766,23.389486 38.112968,23.115832 37.842731,22.829007 37.844888,21.922422 37.782808,21.272324 37.276904,21.092167 37.380332,20.930337 37.709746,20.50723 37.706772,20.476072 37.885174,20.201687 37.885768,19.787525" slic3r:type="contour"/>
    <polygon style="fill: white" points="36.435679,15.782401 37.244952,15.917611 37.213535,15.984442 37.155743,16.106519 37.407468,16.194001 37.407124,16.694448 37.400788,17.877404 37.896916,18.012014 38.300548,18.108398 38.0168,18.478797 37.610028,19.126834 36.766584,18.946115 36.421308,18.831824 36.735639,18.251684 36.822462,18.128575 36.361144,17.942576 35.977256,17.867308 36.046528,17.419641 36.045318,16.916147 35.326976,16.768793 35.456652,16.407371 35.810836,15.685725" slic3r:type="contour"/>
    <polygon style="fill: white" points="35.379904,13.814869 35.575928,13.844662 35.775092,13.884813 35.525844,14.546651 35.56306,14.733264 35.556408,14.751502 35.642376,15.286361 34.960024,15.365159 34.382336,15.48601 34.373764,15.209384 34.334553,14.893922 34.315663,14.89066 34.313051,14.872313 33.667152,14.803819 33.75752,14.464996 33.979324,13.664589 34.132318,13.677848 34.118592,13.591187 35.018083,13.38126 35.273,13.278816" slic3r:type="contour"/>
    <polygon style="fill: white" points="19.698255,7.591252 19.709434,7.590879 19.7137,7.599711 19.794016,7.606628 20.505279,7.650103 20.531196,7.614265 20.587312,7.541247 20.641452,7.658427 20.659568,7.659534 20.664102,7.669515 20.747207,7.679628 21.237436,7.735123 21.263416,7.699157 21.324958,7.620738 21.384244,7.752871 21.48563,7.760105 21.824076,7.785105 21.843236,7.750899 21.895064,7.66603 21.961902,7.785829 22.055725,7.779141 22.36975,7.755921 22.407366,7.751329 22.426375,7.708941 22.465144,7.620728 22.547001,7.734284 22.636623,7.723344 23.127072,7.668012 23.1305,7.659569 23.153366,7.657556 23.169868,7.621869 23.202786,7.541261 23.278935,7.646499 23.367266,7.638722 24.078427,7.596423 24.080674,7.590911 24.099482,7.590718 24.14037,7.502603 24.193909,7.589553 24.19672,7.589386 24.196887,7.58972 24.274939,7.588919 25.280196,7.626212 25.305504,7.581312 25.328284,7.627995 25.330679,7.628084 25.33179,7.630667 25.381317,7.634538 26.452988,7.784275 25.501532,8.025354 25.735298,8.568913 26.400159,8.618691 26.53186,8.395415 26.757096,7.845417 26.80265,7.965611 27.091737,8.713914 27.128204,8.719027 27.148196,8.764326 27.733721,8.83016 28.212923,8.92275 28.294288,8.79236 28.456365,8.393233 28.678032,9.012617 28.726094,9.021903 28.744219,9.064356 29.103174,9.1155 30.36175,9.417134 30.397169,9.333927 30.431407,9.433828 30.441035,9.436136 30.444052,9.443717 30.489237,9.451486 30.628054,9.491485 30.504014,9.594372 30.812565,10.369633 30.912268,10.388943 30.937359,10.444847 31.335965,10.50178 32.383168,10.751226 32.239004,10.937282 31.346329,11.685214 31.513226,11.705261 31.552557,11.791059 31.944594,11.824071 32.55473,11.417536 32.78898,11.021406 33.124722,11.970014 33.222202,11.985057 33.233952,12.017549 33.521786,12.056118 34.016856,12.162475 33.833296,12.685891 33.613076,13.065966 33.64426,13.152198 33.512678,13.239244 33.476384,13.301885 33.429981,13.293953 33.035153,13.555148 32.579504,13.840059 32.462238,13.431457 32.376479,13.113866 32.309352,13.102391 32.281074,13.015829 30.96363,12.879513 31.260964,12.355425 31.32268,12.121669 31.258652,12.08304 31.191452,12.1448 31.244454,11.921557 31.170444,11.887291 30.719589,12.50034 30.60275,12.639368 30.306344,11.916639 30.168874,11.521122 30.044348,11.499535 29.99311,11.377549 28.957132,11.247137 28.644858,11.690714 28.506205,11.38106 28.428661,11.180611 28.366748,11.172817 28.340516,11.112814 27.244612,10.984578 26.925216,10.955939 26.855082,11.063384 26.824326,10.995826 26.803605,10.945035 26.789064,10.943731 26.784943,10.934139 26.225184,10.892944 26.48485,10.727492 26.629053,10.571304 26.504385,10.281139 26.341444,9.838026 26.238436,9.824897 26.217021,9.776511 25.795327,9.742735 25.466164,10.354211 25.320806,10.622421 25.085198,10.04017 24.943098,9.676206 24.510268,9.673157 24.467722,9.748263 24.156208,10.334963 24.004785,9.939098 23.899511,9.701436 23.514446,9.724924 23.273626,10.196427 23.17252,9.938092 23.090179,9.77783 22.971251,9.795662 22.738667,9.817821 22.73656,9.821764 22.727715,9.822486 22.55737,10.154242 22.480922,9.980858 22.406261,9.84949 22.405357,9.849576 22.405012,9.848822 22.19615,9.865867 22.051896,9.87413 21.895064,10.154831 21.81877,10.009317 21.738475,9.866159 21.540301,9.849431 21.406849,9.841845 21.232748,10.154239 21.126551,9.977712 21.030643,9.789735 20.937124,9.773933 20.736603,9.755412 20.516548,10.196427 20.354273,9.940402 20.228615,9.692294 19.920083,9.674817 19.633884,10.334944 19.404915,9.959004 19.24841,9.661923 18.920697,9.665016 18.919211,9.668695 18.842501,9.676005 18.690173,10.060614 18.469363,10.622407 18.183845,10.087032 18.000315,9.748866 17.567608,9.782563 17.55151,9.824832 17.430705,9.84583 17.177463,10.493004 17.564534,10.893061 17.097464,10.932586 17.003591,10.937339 17.001069,10.943785 16.983831,10.946226 16.935094,11.063376 16.901509,11.005038 16.873253,10.961881 15.846419,11.10726 15.436612,11.137881 15.423307,11.172896 15.346122,11.188084 15.145244,11.69074 14.997107,11.434098 14.887189,11.278392 14.578333,11.339167 13.77455,11.417692 13.745639,11.499568 13.591396,11.539203 13.437102,11.952115 13.187324,12.639371 12.820888,12.084694 12.625022,11.850863 12.555852,11.882492 12.598251,12.144396 12.550115,12.170164 12.797277,12.728393 12.826464,12.879509 11.99871,13.018637 11.49486,13.054769 11.480772,13.102399 11.407755,13.118668 11.210615,13.840075 10.866481,13.607919 10.370537,13.294305 10.313765,13.301925 10.291052,13.244043 10.145866,13.152233 10.191433,12.990163 9.988806,12.473772 9.773234,12.162483 10.541825,12.042813 10.567904,11.985065 10.580562,11.983625 10.677198,11.650185 11.001116,11.021406 11.141027,11.097968 11.862694,11.837759 12.234617,11.795445 12.249707,11.754772 12.276719,11.705232 12.461819,11.690842 11.99833,11.091454 11.406938,10.751222 12.820215,10.488057 12.877863,10.38889 12.89657,10.386346 12.998272,10.079749 13.295288,9.534845 13.162057,9.491518 13.341492,9.45008 13.357114,9.421423 13.359695,9.412817 13.392954,9.333959 13.451169,9.418915 13.638529,9.387268 15.018802,9.104402 15.064004,9.021916 15.082615,9.01952 15.135237,8.8597 15.333734,8.39323 15.631563,8.890989 15.660685,8.945086 16.48654,8.838746 16.609612,8.817402 16.661897,8.719078 16.674237,8.718032 16.764511,8.468654 17.03302,7.845459 17.057162,7.888059 17.453128,8.651979 18.031781,8.602907 18.186253,8.232008 18.326772,7.921418 18.319544,7.919744 18.322877,7.912914 18.173564,7.842512 17.337726,7.784184 18.456705,7.634229 18.459499,7.628051 18.461868,7.628065 18.48468,7.58128 18.514384,7.626499 18.518602,7.625934 18.519861,7.628421 18.573999,7.628752 19.590568,7.594844 19.593428,7.589353 19.59462,7.589456 19.649752,7.502588" slic3r:type="contour"/>
    <polygon style="fill: black" points="13.947604,10.14339 13.895085,10.096358 13.829171,10.148597 13.885558,10.251834 13.940174,10.244406 13.944013,10.243884 14.044551,10.23021 14.52014,10.165527 14.618709,10.002123 14.186054,9.722038 13.58084,9.608153" slic3r:type="hole"/>
    <polygon style="fill: black" points="29.257846,10.062705 29.268799,10.139348 29.803994,10.198063 30.002826,10.219876 30.201988,9.960037 30.137721,9.898197 29.843465,10.142272 30.088153,9.796414 30.041293,9.737763" slic3r:type="hole"/>
    <polygon style="fill: black" points="18.872877,8.172242 18.870197,8.170978 18.820527,8.22207 18.994826,8.566213 19.194025,8.242095 18.923176,8.059551 18.776542,8.025588" slic3r:type="hole"/>
    <polygon style="fill: black" points="24.655827,8.33972 24.754175,8.499439 24.860151,8.500761 25.011519,8.237001 24.959986,8.183073" slic3r:type="hole"/>
    <polygon style="fill: white" points="9.028458,13.369989 9.671552,13.591082 9.657817,13.681672 9.810934,13.664591 10.001025,14.369648 10.122966,14.803834 9.808533,14.838071 9.477186,14.873057 9.474522,14.890631 9.472748,14.890888 9.4079,15.485902 9.037993,15.446934 8.147885,15.286441 8.23289,14.592567 8.259414,14.456602 8.103205,14.064683 8.015067,13.884745 8.377887,13.827736 8.415997,13.598941 8.517119,13.278791" slic3r:type="contour"/>
    <polygon style="fill: white" points="8.245316,16.369275 8.463112,16.768848 8.190179,16.789558 7.785492,16.872861 7.812848,17.867342 6.964444,18.197695 7.214137,18.629079 7.368825,18.831788 6.890435,18.901092 6.180125,19.126864 5.736536,18.518186 5.489577,18.108394 6.054405,17.953642 6.393885,17.868922 6.396766,17.149144 6.382674,16.193978 6.482239,16.166885 6.637568,16.112358 6.545219,15.91754 6.659072,15.899877 7.744138,15.723893 7.747769,15.722618 7.747814,15.723296 7.979314,15.68575" slic3r:type="contour"/>
    <polygon style="fill: white" points="5.930803,20.252759 6.083469,20.476106 6.078645,20.559503 6.513227,21.092162 6.35971,21.12158 6.039844,21.230389 5.947383,22.82904 5.47411,23.418942 5.606702,23.604058 5.671489,23.682124 5.174027,23.792974 5.07456,23.916954 5.024741,23.935388 4.126582,25.627408 4.645343,26.314978 4.839437,26.538042 4.25154,26.6785 3.675183,26.893758 3.149271,26.301244 2.906683,25.925412 3.422803,25.717072 4.04844,25.542715 4.311427,23.91952 4.251839,23.83324 4.262868,23.70431 3.88955,23.263781 3.761764,23.059262 4.335713,22.852742 4.393907,22.172469 4.384916,21.132436 4.585346,20.950009 4.765195,20.704138 4.605532,20.45604 4.6886,20.429442 5.036085,20.333804 5.054358,20.308824 5.514976,20.154821 5.904409,19.78771" slic3r:type="contour"/>
    <polygon style="fill: white" points="3.835676,29.398968 4.084985,29.664976 3.529166,29.81741 2.938678,30.075656 2.413902,29.525886 2.115062,29.093858 2.544698,28.890003 3.242034,28.663628" slic3r:type="contour"/>
    <polygon style="fill: white" points="3.339454,32.922424 3.527773,33.103626 2.891354,33.324098 2.572488,33.498692 2.569929,33.690767 2.474839,33.744584 3.024386,34.826224 3.349699,35.943815 3.225904,36.466684 3.128238,36.763693 3.153392,36.789816 3.148546,36.808165 3.302689,36.938548 3.238659,36.97012 3.075982,37.082932 2.774073,38.226108 2.329659,39.416676 1.640231,38.3869 1.267472,37.996008 1.598263,36.989076 1.554518,36.94224 1.569345,36.888482 1.361256,36.709348 1.254325,36.584864 1.752209,36.225535 2.424444,33.788423 2.391059,33.758907 2.34388,33.704036 2.383701,33.546526 1.788325,32.982183 1.515861,32.628572 1.993881,32.348534 2.606609,32.095882" slic3r:type="contour"/>
    <polygon style="fill: white" points="2.310325,40.0768 2.306917,40.087824 2.303797,40.095164 2.288842,40.079284 2.298521,40.070916 2.302007,40.06862" slic3r:type="contour"/>
    <polygon style="fill: white" points="3.056905,40.829911 3.450953,41.149344 2.96282,41.448188 2.466504,41.86348 1.810492,41.352196 1.365295,40.903848 1.631683,40.675939 2.348098,40.187412" slic3r:type="contour"/>
    <polygon style="fill: white" points="3.308188,42.772772 3.65786,43.067068 3.431025,43.843927 3.062599,44.853789 3.124056,44.905794 3.318769,45.043448 4.041383,45.542788 3.711731,45.819668 3.150033,46.38422 2.568086,46.012559 1.905363,45.48798 2.013941,45.378395 2.304541,45.117661 2.295167,45.112148 2.45341,44.95729 1.76184,44.560888 1.991778,43.896083 2.508452,42.249164" slic3r:type="contour"/>
    <polygon style="fill: white" points="4.15444,47.61224 4.573678,47.699548 4.407595,48.243127 4.200766,49.031393 5.147144,49.432199 4.969535,49.716803 4.452268,50.384256 4.017351,50.224048 3.065478,49.877116 3.144929,49.808323 3.436822,49.404192 2.837318,49.22588 2.954528,48.831796 3.39963,47.348624" slic3r:type="contour"/>
    <polygon style="fill: white" points="5.859792,51.713863 5.676751,52.565412 5.2243,52.755628 4.553851,52.784344 4.681533,52.29692 4.900275,51.444868 5.61848,51.475324 6.123359,51.398124" slic3r:type="contour"/>
    <polygon style="fill: white" points="7.479669,53.471547 7.425965,54.387868 7.033694,54.482075 6.29096,54.706288 6.27167,54.353648 6.321826,53.328684 6.935782,53.245236 7.522828,53.020424" slic3r:type="contour"/>
    <polygon style="fill: white" points="9.344867,54.6573 9.407902,55.429823 11.028973,55.743625 11.062318,55.747079 11.410494,55.481688 11.437743,55.571779 11.483817,55.79076 12.378914,55.88352 12.594038,56.502036 12.729718,57.116593 13.531641,56.500227 13.641583,56.407192 13.821938,57.213688 13.963424,57.696608 13.315072,58.259891 12.996259,58.497052 12.761086,57.700623 12.639597,57.202376 11.388099,57.053931 11.27023,57.13424 11.203647,57.120492 10.777122,57.430355 10.643924,57.515788 10.51945,56.979214 10.033503,56.878872 9.132007,56.714084 9.102195,56.404936 9.006794,55.913084 8.337141,56.26846 8.320794,56.16396 8.223033,54.92322 8.6243,54.749499 9.299919,54.349676" slic3r:type="contour"/>
    <polygon style="fill: white" points="15.975435,57.785751 16.197651,58.423252 15.706327,58.90712 15.261702,59.288968 15.068265,58.741892 14.8436,58.007048 15.533035,57.388799 15.788628,57.1458" slic3r:type="contour"/>
    <polygon style="fill: white" points="18.061015,58.208919 18.369732,58.943092 17.992274,59.373079 17.48599,59.890772 17.33156,59.527804 16.989476,58.643359 17.519325,58.076012 17.867048,57.694496" slic3r:type="contour"/>
    <polygon style="fill: white" points="20.102791,58.468259 20.497779,59.237728 20.195025,59.644632 19.691766,60.277083 19.565654,60.031396 19.097586,59.078132 19.511711,58.537328 19.895682,58.038216" slic3r:type="contour"/>
    <polygon style="fill: white" points="22.130483,58.544543 22.599224,59.286636 22.337205,59.709196 21.895064,60.414924 21.774099,60.219771 21.190878,59.2866 21.529594,58.735935 21.895064,58.158175" slic3r:type="contour"/>
  </g></svg>