<svg width="43.790126" height="63.590156" xmlns="http://www.w3.org/2000/svg" xmlns:svg="http://www.w3.org/2000/svg" xmlns:xlink="http://www.w3.org/1999/xlink" xmlns:slic3r="http://slic3r.org/namespaces/slic3r"><g xmlns="http://www.w3.org/2000/svg" slic3r:z="2.645e-006" id="layer7">
    <polygon style="fill: white" points="22.025827,0.302297 22.028382,0.302152 22.039761,0.318369 22.291508,0.333054 23.14303,0.381499 23.159147,0.363149 23.165386,0.364313 23.236601,0.282814 23.319156,0.185852 23.436883,0.398217 23.439193,0.398348 23.449595,0.417334 23.712925,0.46646 24.524898,0.615384 24.548568,0.594811 24.555715,0.597193 24.643732,0.519601 24.746688,0.426858 24.845065,0.674105 24.846535,0.674375 24.855343,0.697091 25.127799,0.787929 25.890932,1.037143 25.922388,1.017351 25.929827,1.021112 26.033379,0.954375 26.154889,0.874913 26.218312,1.144053 26.21858,1.144141 26.224369,1.170042 26.484627,1.301637 27.240485,1.673025 27.275944,1.65835 27.282585,1.663058 27.389253,1.617032 27.514438,1.562959 27.533687,1.841118 27.750221,1.994664 28.568938,2.554059 28.596666,2.547398 28.600991,2.551467 28.682306,2.530508 28.779976,2.505652 28.762646,2.703542 28.92039,2.851938 29.880285,3.714716 29.893758,3.713188 29.895743,3.715541 29.93588,3.710205 29.986172,3.703678 29.966977,3.792638 29.967143,3.792787 29.965811,3.79861 30.050765,3.899327 31.179189,5.173186 31.19053,5.172634 31.187463,5.182525 31.18753,5.182601 31.187272,5.18339 31.588933,5.731165 32.383618,6.895125 32.41699,6.941366 32.451983,6.942671 32.440707,6.974229 32.441263,6.975001 32.440148,6.978003 33.041796,7.841932 33.812929,9.067548 33.840057,9.070206 33.846419,9.070547 33.833883,9.100087 33.87152,9.177932 35.016956,11.417671 35.046124,11.422914 35.046782,11.424902 35.107219,11.434354 35.191663,11.446791 35.107479,11.608228 35.269359,12.097167 35.898725,13.837766 36.102012,13.904205 36.281344,13.959958 36.057154,14.275923 36.059288,14.281824 36.008557,14.350289 36.153024,15.700413 36.209625,16.102557 36.586871,16.353433 36.855764,16.530687 36.480075,16.852744 36.331298,16.967024 36.340588,17.033026 36.038896,17.307226 35.998506,17.287869 35.968529,17.3989 35.917572,18.021708 36.088292,18.23423 36.057084,18.316558 36.263263,18.549873 36.576391,18.927914 36.210739,19.08033 35.732359,19.261367 35.405071,20.290139 35.44156,20.34855 35.428617,20.375109 35.78098,20.95855 35.491808,21.021963 35.152396,21.084375 35.151644,21.086738 35.078054,21.097227 34.637638,22.144557 34.922876,22.58207 34.702499,22.627262 34.415267,22.673365 34.41068,22.684274 34.380463,22.688895 34.360411,22.736924 34.122881,23.457924 34.42996,23.70233 34.246688,23.781861 34.089473,23.846193 34.113909,24.319643 34.51544,24.437674 34.366344,24.583963 34.252455,24.702038 34.276748,24.751556 34.44981,25.247567 34.982627,25.29826 34.849788,25.512583 34.715536,25.757724 34.7306,25.785406 34.967869,26.331295 35.003448,26.334698 35.027468,26.394399 35.119508,26.409942 35.722024,26.485478 35.549348,26.772685 35.334004,27.173667 35.338732,27.184546 35.333688,27.192925 35.519837,27.739569 35.609924,27.764492 35.621026,27.826187 36.044164,27.975298 36.443508,28.098352 36.177688,28.426549 35.883282,28.806856 35.889372,28.82474 35.826652,28.901415 35.806892,28.927211 35.917414,29.615048 35.995876,29.653092 35.999215,29.728143 36.584467,30.049601 36.854995,30.187896 36.49114,30.503569 36.113771,30.83709 36.116128,30.851762 36.100327,30.865236 36.339128,32.031554 36.343761,32.063068 36.802935,32.385021 37.001656,32.516938 36.569351,32.808288 36.464018,32.881142 36.465695,32.89255 36.343992,32.97929 36.421404,34.088964 36.432793,34.540773 36.773195,34.828475 36.927832,34.952856 36.449534,35.204895 36.4503,35.235288 36.313411,35.316487 36.299312,36.275012 36.258834,36.950872 36.535584,37.232316 36.6526,37.345904 36.225201,37.51246 36.222808,37.552424 36.080282,37.620056 36.039428,38.317783 35.930382,39.21621 36.119908,39.454808 36.189048,39.537532 35.882037,39.614521 35.878028,39.647552 35.748533,39.692199 35.711444,40.10776 35.473743,41.416483 35.526947,41.502703 35.542588,41.526684 35.452059,41.535866 35.450091,41.5467 35.398636,41.557308 35.389499,41.66138 35.2978,42.05272 34.723867,43.156048 34.683618,43.229891 34.689175,43.242231 34.684777,43.248406 34.71468,43.308284 34.683191,43.307028 34.641396,43.309324 33.768935,44.534428 33.66278,44.677266 33.671464,44.707012 33.660209,44.718656 33.709772,44.868648 33.636684,44.852828 33.541002,44.841978 32.683312,45.729287 32.511011,45.900388 32.5169,45.940284 32.500042,45.953367 32.540506,46.181804 32.438387,46.140411 32.308612,46.101938 31.475357,46.748632 31.243186,46.921312 31.244114,46.963156 31.223893,46.975097 31.236478,47.259772 31.120282,47.190044 30.977188,47.12079 30.150684,47.608883 29.87257,47.765491 29.869378,47.802972 29.847821,47.812817 29.82607,48.12586 29.709859,48.032839 29.570785,47.939346 28.715431,48.330004 28.413898,48.459984 28.408704,48.489616 28.387375,48.497282 28.33607,48.808356 28.231297,48.703327 28.107757,48.597777 27.173532,48.933543 26.877365,49.03271 26.871211,49.05654 26.854187,49.06102 26.782948,49.340552 26.697263,49.237239 26.593052,49.129737 25.546546,49.405123 25.279142,49.469931 25.273026,49.487788 25.262314,49.489539 25.180808,49.724032 25.114392,49.63034 25.030795,49.52739 23.876234,49.716147 23.642475,49.751022 23.636874,49.764012 23.632518,49.764262 23.546302,49.957068 23.494958,49.873568 23.428699,49.775948 22.208666,49.845907 21.994988,49.857023 21.895064,50.036279 21.851886,49.955788 21.802324,49.867045 21.80226,49.867048 21.796568,49.856057 20.587016,49.786564 20.366788,49.775114 20.243826,49.957072 20.201256,49.864992 20.156249,49.764167 20.153253,49.764011 20.146098,49.747667 19.01734,49.56236 18.76969,49.52544 18.60932,49.724031 18.565671,49.610423 18.523626,49.488756 18.517102,49.487783 18.508597,49.464033 17.491402,49.195252 17.212418,49.127669 17.007155,49.340572 16.965528,49.202604 16.929342,49.059094 16.918892,49.056563 16.910031,49.024709 16.001096,48.697172 15.700873,48.596619 15.454033,48.80834 15.420712,48.652308 15.395072,48.4942 15.381421,48.489628 15.373924,48.451274 14.536223,48.068599 14.239344,47.940488 13.964062,48.125876 13.945913,47.96732 13.935302,47.809286 13.92077,47.803015 13.916027,47.756902 13.097856,47.274387 12.832935,47.124969 12.553675,47.259768 12.553356,47.114644 12.559978,46.971018 12.546036,46.963155 12.546237,46.913122 11.709666,46.265563 11.499349,46.108812 11.249622,46.181808 11.264159,46.064919 11.284851,45.948945 11.273228,45.940283 11.279183,45.89331 10.400419,44.987536 10.261692,44.849417 10.080354,44.868644 10.100895,44.791899 10.126404,44.71472 10.118661,44.707011 10.127955,44.672228 9.210136,43.38964 9.153626,43.313351 9.075417,43.308256 9.088291,43.277724 9.103933,43.246266 9.100924,43.242203 9.107,43.227766 8.492321,42.052692 8.409815,41.561927 8.340037,41.546676 8.339236,41.539693 8.270716,41.530664 8.24754,41.526656 8.322941,41.397714 8.280039,41.023907 8.081664,39.708414 7.912057,39.647536 7.910511,39.62619 7.688963,39.565064 7.601083,39.537532 7.877753,39.173799 7.803988,38.155096 7.749468,37.641723 7.567365,37.552436 7.566779,37.526354 7.269439,37.404367 7.137525,37.345904 7.530218,36.93218 7.552924,36.909962 7.523246,35.589523 7.510107,35.338914 7.339841,35.235308 7.341073,35.21537 7.019761,35.041664 6.86232,34.95288 7.272803,34.593891 7.385156,34.502581 7.477848,33.003773 7.324516,32.892583 7.325827,32.885731 6.971685,32.644346 6.788472,32.51696 7.208486,32.212055 7.491124,32.022062 7.70933,30.881939 7.674002,30.851764 7.676319,30.838741 7.152626,30.380829 6.935128,30.187896 7.353754,29.947956 7.7916,29.720443 7.794253,29.65309 7.879718,29.611214 7.989448,28.936834 7.900756,28.824734 7.905657,28.812199 7.589856,28.41528 7.346622,28.09834 7.742559,27.948154 8.172464,27.812047 8.180203,27.764482 8.297386,27.730768 8.472722,27.230503 8.32954,26.982537 8.068105,26.485478 8.396259,26.421448 8.773698,26.371765 8.786683,26.334718 8.870111,26.324601 9.093487,25.830611 8.807502,25.29826 9.055928,25.258282 9.366196,25.22752 9.381422,25.19385 9.415972,25.189976 9.575676,24.751423 9.274687,24.437674 9.472898,24.371883 9.695009,24.306235 9.719259,23.848757 9.360165,23.70233 9.516135,23.585217 9.636616,23.48963 9.532777,23.246759 9.343288,22.657019 8.86725,22.58208 8.997817,22.411108 9.136565,22.201466 8.936068,21.80291 8.647186,21.087779 8.638484,21.086738 8.63204,21.070364 8.009147,20.95854 8.171171,20.729982 8.370753,20.406421 8.28771,20.195405 8.000879,19.235263 7.971156,19.226683 7.969997,19.218929 7.628577,19.081446 7.213734,18.927914 7.46107,18.655853 7.731725,18.334297 7.701823,18.234202 7.782843,18.138147 7.835158,18.069474 7.795756,17.451715 7.750526,17.306505 7.647694,17.204433 7.449581,17.03305 7.457507,16.942141 7.1681,16.703419 6.93436,16.530687 7.323229,16.271248 7.527786,16.136016 7.594252,15.37362 7.761322,14.320479 7.730821,14.281811 7.738641,14.257408 7.624441,14.102071 7.508781,13.959951 7.87263,13.839294 8.040899,13.314217 8.680922,11.592598 8.643244,11.522706 8.59846,11.446821 8.743701,11.423729 8.743994,11.42294 8.766334,11.419134 8.889811,11.160636 9.956374,9.097748 9.943702,9.070546 9.971278,9.068923 9.971711,9.068086 9.9761,9.067713 10.005547,9.018555 10.748334,7.841923 11.313782,7.026991 11.349691,6.977193 11.348861,6.974998 11.35062,6.972431 11.338141,6.942671 11.371065,6.942598 12.201209,5.731173 12.602894,5.182229 12.599629,5.172635 12.610109,5.173171 13.823707,3.795698 13.822986,3.792821 13.824913,3.79101 13.816109,3.751805 13.803951,3.703676 13.894132,3.715765 13.896402,3.713188 13.90644,3.714439 14.002506,3.624211 15.02792,2.697153 15.026694,2.687008 15.03036,2.684411 15.022521,2.603213 15.010171,2.505648 15.188649,2.551842 15.193551,2.54741 15.215841,2.553017 15.401595,2.421429 16.258245,1.833913 16.258974,1.815912 16.263904,1.81342 16.270999,1.69759 16.275714,1.562951 16.507528,1.662947 16.514247,1.658339 16.544938,1.671326 16.790132,1.547353 17.567067,1.165234 17.571541,1.144204 17.576948,1.142401 17.605586,1.017454 17.63524,0.874911 17.861767,1.020291 17.867745,1.017352 17.896791,1.035723 18.162297,0.947169 18.93588,0.694612 18.943608,0.674285 18.949097,0.673261 18.994353,0.557889 19.043446,0.426833 19.236958,0.596317 19.241579,0.594808 19.264244,0.61445 19.526674,0.565477 20.341255,0.416211 20.350932,0.398349 20.356427,0.398028 20.410637,0.299271 20.47097,0.185852 20.627633,0.363735 20.63096,0.363125 20.646855,0.381083 20.899211,0.366358 21.750779,0.317937 21.761745,0.302152 21.76726,0.302474 21.82692,0.216926 21.895064,0.11642" slic3r:type="contour"/>
    <polygon style="fill: black" points="22.290947,48.135808 22.556687,48.638162 22.787625,48.626253 23.00253,48.097113" slic3r:type="hole"/>
    <polygon style="fill: black" points="21.000508,48.625842 21.232509,48.637813 21.48351,48.149641 20.779337,48.11142" slic3r:type="hole"/>
    <polygon style="fill: black" points="23.833805,47.91314 23.748256,47.931515 24.094732,48.476107 24.340748,48.439558 24.535271,47.813101" slic3r:type="hole"/>
    <polygon style="fill: black" points="19.445579,48.437574 19.696188,48.474835 20.013004,47.976737 19.251215,47.867929" slic3r:type="hole"/>
    <polygon style="fill: black" points="25.529121,47.447092 25.157634,47.572629 25.598027,48.159873 25.864482,48.095213 26.003822,47.471271 26.044593,47.336874" slic3r:type="hole"/>
    <polygon style="fill: black" points="17.919081,48.09018 18.195988,48.157398 18.599124,47.631663 17.889212,47.477772 17.746606,47.425207" slic3r:type="hole"/>
    <polygon style="fill: black" points="27.166117,46.789992 26.510249,47.089206 27.053384,47.707231 27.333827,47.61259 27.419264,47.006528 27.488796,46.704203" slic3r:type="hole"/>
    <polygon style="fill: black" points="16.446818,47.60306 16.745323,47.703714 17.123088,47.29112 17.184208,47.217905 17.177433,47.215408 17.234052,47.148282 16.658428,46.988832 16.302322,46.804605" slic3r:type="hole"/>
    <polygon style="fill: black" points="21.059809,1.978241 20.800258,1.992995 20.693814,2.191805 20.62397,2.111081 20.546283,2.020338 19.856118,2.139149 19.604576,2.185204 19.527592,2.388258 19.449953,2.31931 19.364223,2.241924 18.69983,2.450926 18.454845,2.531621 18.40891,2.743511 18.320487,2.685848 18.223717,2.621562 17.606412,2.92251 17.358044,3.047424 17.3462,3.279753 17.240164,3.2329 17.125415,3.181205 16.569451,3.572728 16.304852,3.760499 16.333008,4.033755 16.198899,3.998776 16.051628,3.958623 15.532103,4.446682 15.230129,4.730419 15.303339,5.055312 15.138247,5.03506 14.950422,5.008605 14.450249,5.592227 14.095742,6.009106 14.212936,6.384853 14.020557,6.380887 13.793014,6.369506 13.286522,7.061416 12.871896,7.643621 13.022435,8.055315 12.813693,8.066611 12.569162,8.06871 12.564386,8.075416 12.554799,8.075871 11.998187,8.927642 11.530193,9.683019 11.698274,10.082355 11.493539,10.106059 11.258941,10.120841 11.240536,10.150544 10.643468,11.295506 10.280291,12.022828 10.430407,12.309983 10.284191,12.336728 10.123329,12.360018 9.429644,14.449237 9.395836,14.549888 9.415683,14.577507 9.387889,14.584967 9.380558,14.708032 8.554092,16.368189 8.737757,16.517121 8.914647,16.64701 8.581265,16.824544 8.386255,16.953332 8.29821,17.398122 8.621855,18.258305 8.698435,18.292137 9.158062,18.441508 9.062982,18.532324 8.882171,18.745544 9.645133,19.569927 9.787819,20.113312 9.849616,20.12201 9.923654,20.137194 9.846962,20.269974 9.950613,20.528962 10.390036,21.664314 10.427391,21.67137 10.427747,21.672509 10.656564,21.707879 10.896954,21.76479 10.652154,22.173566 10.60582,22.243113 10.760539,22.73888 10.848812,23.029575 11.321687,23.262235 11.609793,23.399216 11.318404,23.673099 10.964753,23.985817 10.952032,24.273329 10.947883,24.365936 11.258871,24.73582 11.455065,24.917254 10.914841,25.103409 10.914487,25.111294 10.800713,25.156087 10.704065,25.443112 10.561212,25.860357 10.664711,26.062669 10.754005,26.195714 10.436569,26.224409 10.429161,26.246048 10.396815,26.251586 10.304069,26.46848 9.926018,27.306882 9.939898,27.332857 9.955829,27.359316 9.8995,27.364241 9.881025,27.419604 9.793086,27.676567 9.312286,28.117972 9.087034,28.363838 9.319982,28.65731 9.201867,28.696734 8.862308,28.808896 8.739783,29.125792 8.433706,29.935507 8.589349,30.071149 8.964996,30.401884 8.774855,30.499777 8.265223,30.775152 8.094983,31.989377 8.461261,32.246954 8.832535,32.496338 8.624862,32.63072 8.072524,33.019496 8.067211,33.493346 8.123419,34.299779 8.520506,34.527499 8.911313,34.728592 8.719934,34.876227 8.178681,35.341114 8.182864,35.403307 8.354301,36.566361 8.754727,36.744892 9.181203,36.903455 9.019592,37.052147 8.502002,37.590452 8.509986,37.669292 8.750367,38.610775 9.157013,38.737255 9.61518,38.840488 9.481187,38.991796 8.995358,39.620142 9.307265,40.43678 9.712884,40.504495 10.197676,40.53816 10.093428,40.687732 9.66532,41.403803 10.007584,42.043778 10.408452,42.04754 10.91327,41.998152 10.841504,42.136431 10.487142,42.952704 10.838147,43.434737 11.232191,43.369204 11.748105,43.225448 11.708576,43.338264 11.44836,44.267682 11.789088,44.612738 12.182922,44.473343 12.696409,44.23226 12.682249,44.30454 12.537105,45.357997 12.864985,45.606401 13.258019,45.392272 13.758287,45.06012 13.756878,45.082767 13.740927,46.256252 14.058951,46.438318 14.449746,46.151787 14.777459,45.871206 14.773463,45.868207 14.799873,45.846538 14.543017,45.757632 14.285899,45.366152 14.2859,45.366152 14.91702,45.751106 14.931693,45.736719 14.932785,45.759415 16.172771,46.331606 16.209488,46.289164 16.217792,46.351833 16.274201,46.370111 17.518131,46.81367 17.57158,46.7434 17.591184,46.838689 17.680559,46.859695 18.920919,47.179521 18.943349,47.147968 18.987144,47.082812 19.021488,47.2033 19.138896,47.220332 20.364571,47.414984 20.388375,47.374596 20.434898,47.29572 20.485126,47.430073 20.620398,47.43694 21.829107,47.503809 21.851064,47.457295 21.895064,47.370616 21.958778,47.504522 22.096784,47.497515 23.300489,47.430876 23.318372,47.382195 23.355228,47.29572 23.426453,47.416552 23.552603,47.398248 24.763096,47.205605 24.77551,47.160656 24.802982,47.082808 24.872476,47.181122 24.976432,47.156671 26.193664,46.841831 26.200724,46.805632 26.21852,46.7434 26.277704,46.814273 26.353912,46.789539 27.565763,46.3558 27.58064,46.289163 27.622466,46.331545 27.66947,46.311891 28.85442,45.762499 28.858432,45.736716 28.876208,45.751488 29.503599,45.366532 29.5036,45.366532 28.951448,45.813367 29.750937,46.441335 30.034655,46.278143 29.999508,45.741196 30.031848,45.060144 30.050074,45.07006 30.951227,45.607016 31.239072,45.387415 31.140227,44.884559 31.093717,44.232288 31.1566,44.254284 32.033507,44.608846 32.331591,44.303996 32.16885,43.834571 32.04202,43.225448 32.148895,43.242387 32.989814,43.424533 33.29967,42.993291 33.074464,42.550748 32.876852,41.99812 33.019711,41.995144 33.821628,42.027272 34.12862,41.443853 33.846944,41.029051 33.592472,40.538128 33.760784,40.507687 34.519663,40.41613 34.804387,39.656592 34.472436,39.270364 34.174944,38.840515 34.359903,38.78022 35.072604,38.588243 35.311441,37.63245 34.936191,37.275927 34.608899,36.903463 34.805371,36.812924 35.464841,36.543126 35.632698,35.372782 35.222004,35.046056 34.878816,34.7286 35.084948,34.607647 35.687827,34.279787 35.753165,33.291484 35.751946,33.053286 35.325316,32.770342 34.957592,32.496338 35.151804,32.358285 35.704933,31.978263 35.542019,30.791741 35.252559,30.640779 34.825132,30.401884 34.971224,30.274891 35.353659,29.939809 34.923218,28.805772 34.470116,28.65731 34.535735,28.580662 34.694589,28.385806 33.997031,27.676546 33.892976,27.370118 33.834296,27.359288 33.863573,27.302836 33.827071,27.218123 33.398836,26.251727 33.211254,26.233422 33.03612,26.195691 33.217269,25.820262 33.11008,25.502668 32.996259,25.168671 32.606112,25.033162 32.335062,24.91727 32.603113,24.588366 32.841181,24.332958 32.825241,23.97278 32.422045,23.597375 32.180334,23.399216 32.56757,23.208351 32.950763,23.022385 33.086082,22.590079 33.197241,22.220974 33.029884,21.949894 32.893188,21.76479 33.35549,21.695505 33.362758,21.67137 33.409237,21.661485 33.582375,21.232382 33.946934,20.269054 33.90636,20.200128 33.866472,20.137194 34.003767,20.118877 34.006127,20.112638 34.008556,20.112133 34.054848,19.958725 34.144996,19.569928 34.634947,19.21245 34.931499,18.825592 34.632068,18.441508 34.79996,18.363329 35.334845,18.158822 35.556031,17.471869 35.493274,17.040632 35.096024,16.805088 34.87548,16.64701 35.264961,16.32165 34.978803,15.651298 34.409568,14.708033 34.408944,14.631646 34.404082,14.585862 34.37444,14.577507 34.394492,14.549821 33.837324,12.860762 33.665641,12.351471 33.359718,12.310013 33.439246,12.177537 33.51181,12.043686 32.873025,10.827236 32.513947,10.102947 32.091824,10.082354 32.183993,9.90034 32.265724,9.715227 31.651547,8.775673 31.205583,8.053176 30.767692,8.055336 30.847407,7.867428 30.924747,7.66372 30.405186,6.953116 29.983485,6.360899 29.577194,6.38485 29.638894,6.207488 29.699636,6.01787 29.207209,5.442971 28.834256,5.004492 28.486792,5.055309 28.526038,4.898162 28.563889,4.73415 28.05242,4.253649 27.736398,3.956716 27.457122,4.033755 27.47385,3.899898 27.488466,3.764183 26.929922,3.370672 26.662379,3.18085 26.443936,3.279766 26.44107,3.166351 26.435883,3.053051 25.805555,2.745324 25.561965,2.62283 25.381216,2.743515 25.361344,2.641031 25.339178,2.536471 24.661904,2.323312 24.421592,2.244118 24.262558,2.388272 24.227423,2.290905 24.189031,2.188552 23.48944,2.068224 23.240729,2.022644 23.096312,2.19181 23.046589,2.097243 22.991773,1.994472 22.283564,1.957971 22.02541,1.943284 21.895064,2.133915 21.833088,2.043604 21.763503,1.941918" slic3r:type="hole"/>
    <polygon style="fill: black" points="28.707564,45.953616 27.789259,46.499522 28.447084,47.133308 28.729086,47.009838 28.755894,46.438356 28.832623,45.919059" slic3r:type="hole"/>
    <polygon style="fill: black" points="15.048356,46.994739 15.357173,47.129575 15.746004,46.77574 15.91273,46.603054 15.904112,46.598596 15.947917,46.554775 15.501532,46.414436 14.956835,46.00578" slic3r:type="hole"/>
  </g></svg>