<svg width="43.790126" height="63.590156" xmlns="http://www.w3.org/2000/svg" xmlns:svg="http://www.w3.org/2000/svg" xmlns:xlink="http://www.w3.org/1999/xlink" xmlns:slic3r="http://slic3r.org/namespaces/slic3r"><g xmlns="http://www.w3.org/2000/svg" slic3r:z="2.04649999999999e-005" id="layer61">
    <polygon style="fill: white" points="22.110523,3.793951 22.162592,3.792456 22.163201,3.801461 22.546005,3.807896 22.659943,3.811177 22.688416,3.708309 22.89058,2.907522 23.077951,3.823212 23.129152,3.824686 23.129735,3.834821 23.564379,3.848333 23.591096,3.768535 23.845136,2.986955 23.41172,2.918067 23.857204,2.952831 23.862138,2.946373 23.864959,2.953436 23.867055,2.9536 23.867357,2.955125 24.794332,3.064682 24.841462,3.023162 24.859673,3.072405 24.880994,3.074925 24.88459,3.094027 25.107719,3.166313 25.881384,3.316021 25.96258,3.232786 26.06168,3.181768 26.107333,3.357654 26.193521,3.364943 26.409608,3.3461 26.393408,3.751889 26.677703,4.13681 26.587836,4.328528 26.879849,4.188685 27.162077,4.031197 27.586318,3.854234 27.697372,4.34382 27.735528,4.608655 28.110712,4.685656 28.535246,4.693212 28.628953,4.658766 28.633246,4.659873 28.721106,4.622045 28.777566,4.604904 28.788382,4.699871 28.8448,4.714417 28.930216,4.707006 29.102292,5.266953 29.326838,5.561061 29.369049,5.537643 29.900168,5.323087 29.975536,5.692709 30.001122,6.287946 30.04919,6.326736 30.181403,6.357176 30.28378,6.289163 30.352619,6.308723 30.761939,6.024131 31.024328,5.871149 31.206633,6.486005 31.215246,6.553847 31.629814,6.67165 31.711574,6.605722 31.765427,6.626801 32.04898,6.39721 32.234416,6.260126 32.456525,6.897315 32.891765,7.06768 32.901988,7.059826 32.964355,7.091799 33.299352,6.83617 33.531352,6.672956 33.683508,7.211418 33.717506,7.359893 33.740156,7.367129 33.783332,7.511656 33.856151,7.548988 33.947308,7.489456 34.094556,7.580056 34.436891,7.384233 34.795708,7.202803 34.85056,7.652255 34.887884,8.016597 35.100262,8.130892 35.333668,8.068706 35.343337,8.081119 35.4452,8.050362 35.931436,7.928749 35.873323,8.334564 35.835728,8.717349 36.043416,8.988409 36.5218,8.944291 36.909908,8.914504 36.726864,9.369077 36.640039,9.620738 36.744588,9.678445 36.705479,9.81822 37.114859,10.028914 37.178928,10.058405 37.676983,10.069192 37.78118,10.072117 37.663236,10.281331 37.695539,10.296201 37.682373,10.325539 37.810991,10.390764 38.043392,10.487945 38.33892,11.170037 38.38547,11.278611 38.391879,11.279033 38.393155,11.282142 38.521044,11.292324 38.480452,11.366103 38.450239,11.421216 38.753156,12.159232 38.85094,12.405475 39.139312,12.42862 39.047795,12.586928 38.983946,12.697552 39.150828,13.058949 39.275527,13.349019 39.284556,13.349718 39.289002,13.360381 39.679744,13.401591 39.5551,13.604845 39.459233,13.768668 39.537704,13.956874 39.676298,14.315784 39.69996,14.319027 39.70072,14.32168 40.179084,14.410366 40.010924,14.649722 39.880666,14.845033 39.905496,14.909332 39.878949,14.944707 40.008045,15.418068 40.090724,15.439906 40.642072,15.602348 40.396864,15.896248 40.203501,16.134746 40.230168,16.232527 40.156988,16.317284 40.208386,16.716224 40.399224,16.802918 40.490042,16.95399 40.792883,17.067451 41.08576,17.18535 40.800374,17.470209 41.023055,17.840627 41.328515,18.344286 41.237927,18.941782 41.189961,19.312295 41.212248,19.323894 41.195672,19.416288 41.459332,19.572896 41.198371,19.789612 41.119464,19.856845 41.116148,19.88246 41.100988,19.894633 41.135344,20.010218 41.079987,20.0611 41.043792,20.262848 41.013103,20.383133 41.353335,21.102675 41.666236,22.564846 41.657333,22.572308 41.175347,23.68246 41.020439,23.801302 41.103583,24.279519 41.24015,25.658854 41.308227,25.68432 41.247552,25.733617 41.249528,25.753577 41.239448,25.759401 41.2536,25.876112 41.293908,26.091484 40.821372,26.001091 40.672588,26.085513 40.67862,26.132158 40.656476,26.142524 40.722083,26.950387 41.06808,28.055592 41.026805,28.078971 41.065576,28.120728 40.996612,28.160772 40.691811,28.288115 40.717378,28.737106 41.074401,29.366002 41.151259,29.423708 41.316896,29.640528 41.093948,30.046826 41.036564,30.09018 41.012116,30.474516 41.273192,30.863285 41.453652,30.98458 41.778624,31.401164 41.70034,31.766001 41.53552,31.987493 41.585636,32.071484 41.468507,32.236365 41.643763,32.508587 42.230596,33.30527 42.144227,33.520433 42.231081,33.626913 42.26682,33.646384 42.301752,33.676496 42.086673,34.042595 41.684344,35.166013 41.878972,35.404728 41.865303,35.432259 42.276584,35.652208 42.582296,35.934748 42.34102,36.330632 41.982849,36.710728 42.037648,36.904752 42.004069,36.935306 42.253743,37.930535 42.682448,38.354296 42.585147,38.49924 42.43295,38.64487 42.453528,38.726896 42.432739,38.745335 42.661688,39.70694 42.063411,40.393489 42.24168,40.585322 42.525107,40.781091 42.621028,40.858156 42.055739,41.339372 41.622375,41.6505 41.550376,41.75104 41.513071,41.667789 40.839664,41.09654 40.589184,40.910204 41.182139,40.513488 41.247798,40.4667 41.290591,40.419513 41.012952,39.809839 40.769644,38.698093 40.708899,38.651071 40.674076,38.626872 40.764433,38.564188 40.725896,38.48578 40.670888,38.265188 40.960776,37.398491 41.132675,36.90151 41.096236,36.875531 41.173561,36.607842 40.605907,36.306968 40.878987,36.042964 41.288184,35.561228 41.247776,35.470972 41.39611,35.172111 40.915208,34.737664 40.590847,34.210293 40.451056,34.116568 40.34966,34.063968 40.443217,33.970265 40.434219,33.955636 40.465027,33.889129 40.388644,33.838072 40.2909,33.721384 40.4736,32.921324 40.581588,32.505128 40.42546,32.407091 40.463901,31.98426 40.160283,31.777825 39.747092,31.560802 39.923505,31.337032 39.84262,31.263498 39.886666,31.094383 39.765472,31.054618 39.572384,30.906342 39.666812,30.218586 39.726244,29.988175 39.57306,29.886052 39.558413,29.360269 38.976572,28.955224 39.213574,28.733102 39.059468,28.626284 39.096657,28.491172 39.040248,28.478258 38.839596,28.377828 38.944444,27.922723 38.960229,27.855959 38.933339,27.840424 38.569448,26.536344 38.541915,26.422176 38.41046,26.388596 38.482423,26.283264 38.501706,26.253388 38.286756,25.49674 38.561992,25.54846 38.889268,25.207533 38.718509,24.071841 38.336392,23.98294 38.619328,23.736471 38.662659,23.700392 38.65584,23.655038 38.697219,23.621773 38.571272,22.81582 38.822079,23.122134 39.119331,23.292514 39.221213,23.224733 39.218228,23.196317 39.300635,23.102118 39.112164,21.577688 39.502463,22.229277 39.791506,22.474454 39.515984,20.760252 39.713568,21.006372 39.787092,20.965713 39.630952,20.515524 39.962312,20.368186 39.599151,19.919943 39.522516,19.834679 39.545787,19.730966 39.49782,19.701346 39.555534,19.6369 39.637884,19.039621 39.795711,17.898739 39.437596,17.725136 39.0418,17.598282 39.092583,17.553198 39.234606,17.397055 38.917707,17.172842 38.824773,16.301685 38.730424,16.277238 38.607236,16.251044 38.783571,16.048306 38.705047,15.762874 38.594938,15.312845 38.397411,15.281455 38.160728,15.249186 38.4502,14.838094 38.286024,14.423682 37.990276,14.393754 37.670668,14.362689 37.885555,14.005884 38.026347,13.776171 37.899772,13.49322 37.500032,13.453293 37.100792,13.415335 37.238096,13.17845 37.553812,12.659148 37.437827,12.38099 36.962367,12.337851 36.444672,12.28104 36.472463,12.232763 36.763087,11.755663 36.702171,11.700249 36.281288,12.014685 35.920376,11.156858 35.832003,11.153035 35.712684,11.141469 35.824487,10.958398 35.724444,10.763836 35.40772,10.172241 35.241679,10.183735 34.982472,10.172362 35.145644,9.812155 34.98802,9.620188 34.875981,9.496396 34.779384,9.528526 34.4332,9.586228 34.471859,9.375066 34.504591,9.210214 34.339375,9.116879 34.024909,8.980931 33.932124,9.034219 33.816636,9.091997 33.800761,8.903914 33.697116,8.874848 33.342533,8.817909 33.270546,8.515954 33.218139,8.364089 32.828634,8.589639 32.782504,8.439936 32.587337,7.659107 32.415725,7.619964 31.897657,7.987679 31.622572,8.174724 31.495335,7.798301 31.3555,7.330364 31.345598,7.302976 31.081172,7.215996 30.516898,7.548527 30.27857,7.715152 30.169268,7.274521 30.078206,6.899786 30.040842,6.888846 29.971924,6.666376 29.790687,6.622393 29.304392,6.852215 28.934678,7.060873 28.901895,6.745234 28.852605,6.394488 28.038923,6.196756 27.985343,6.216839 27.933597,6.206106 27.725758,6.311614 27.721418,6.229951 27.713634,6.160483 27.358016,6.086723 27.010694,5.505733 26.851664,5.589159 26.696524,5.673036 26.62522,5.157685 26.566358,4.760731 26.518647,4.699989 26.42441,4.677172 26.251734,5.045547 26.155719,5.230571 26.224234,5.402377 25.95482,5.332753 25.915797,5.393523 26.171994,5.709041 25.801083,5.753634 25.749494,5.759794 25.735126,5.803977 25.728051,5.80418 25.686012,5.967698 25.952118,6.333801 25.580442,6.378321 25.577896,6.388223 25.528791,6.392295 25.517377,6.437112 25.600114,6.923429 25.353102,6.847677 25.255174,6.840464 25.03825,6.924198 24.985411,6.932842 24.98315,6.954338 24.950492,6.959867 24.892162,7.429816 24.525878,7.119084 24.451276,7.063552 24.207081,7.192058 24.109526,7.394284 24.040954,7.401994 24.004269,7.495731 23.9245,7.714102 23.722136,7.453953 23.672832,7.480717 23.644051,7.44662 23.384424,7.475812 23.104821,7.512394 23.080944,7.550811 23.024215,7.54994 22.982436,7.630024 22.90269,7.784706 22.768317,7.556421 22.714696,7.563437 22.701923,7.544989 22.428504,7.540789 22.028668,7.533182 21.984591,7.614057 21.895064,7.777673 21.761726,7.531922 21.430869,7.536978 21.089129,7.543524 21.075408,7.563437 21.020322,7.557196 20.97313,7.637743 20.88741,7.784706 20.763272,7.549766 20.70916,7.550803 20.689738,7.519747 20.425352,7.489797 20.140293,7.453216 20.117308,7.480659 20.06847,7.45481 19.989464,7.556026 19.865626,7.714085 19.733378,7.400998 19.68057,7.394221 19.584108,7.198441 19.357894,7.078708 19.172461,7.225968 18.897966,7.429832 18.787685,6.87415 18.190002,6.923454 18.261796,6.662951 18.280757,6.540555 18.243518,6.429055 18.234141,6.390935 18.212211,6.388239 18.207714,6.369583 17.838002,6.333817 18.038644,6.08614 18.113923,5.982542 18.068154,5.804975 18.055034,5.803951 18.055651,5.761306 17.61817,5.709045 17.86854,5.396416 17.829795,5.336078 17.565899,5.402369 17.633927,5.21103 17.470483,4.846304 17.3992,4.705059 17.228976,4.737645 17.125698,5.458854 17.093604,5.673035 16.750047,5.494899 16.61084,5.712249 16.432082,6.086731 16.167185,6.137109 16.083851,6.155446 16.064393,6.311585 15.980169,6.274813 15.843652,6.208297 15.80487,6.216831 15.749334,6.196723 15.30046,6.305062 14.94993,6.390493 14.922524,6.622691 14.855448,7.060875 14.553738,6.926906 13.983396,6.626056 13.820521,6.665752 13.749317,6.888907 13.710249,6.901798 13.575531,7.448563 13.511539,7.715151 13.134247,7.504218 12.71311,7.230812 12.437378,7.321791 12.40485,7.41278 12.399487,7.413976 12.239104,7.906616 12.167539,8.174725 11.891485,7.975971 11.402235,7.636431 11.186485,7.684556 11.032772,8.218255 10.961484,8.589644 10.86136,8.51537 10.604574,8.352025 10.447538,8.817927 9.98217,8.917478 9.976315,8.988277 9.973499,9.091972 9.802287,8.989543 9.673642,9.061193 9.281383,9.247873 9.356929,9.586201 9.186356,9.522655 8.973402,9.464023 8.802921,9.673323 8.631696,9.862101 8.678643,9.96177 8.807658,10.172375 8.405012,10.145206 8.268832,10.412562 7.96363,10.973249 8.010307,11.048595 8.077445,11.141449 7.873628,11.151007 7.82009,11.280781 7.508779,12.014767 7.340738,11.98438 7.191965,11.903256 7.139169,11.959989 7.345444,12.281042 7.272209,12.287627 6.351251,12.378088 6.231872,12.663887 6.473145,13.075449 6.689328,13.415331 6.332837,13.450998 5.880886,13.495267 5.756915,13.771436 5.947297,14.086242 6.119443,14.362753 5.585285,14.416923 5.486772,14.426727 5.344286,14.784193 5.334003,14.812445 5.491898,15.039097 5.629371,15.249214 5.176217,15.321883 5.096322,15.607572 5.00092,16.022749 5.100802,16.140628 5.182892,16.251035 4.956569,16.310392 4.934125,16.476019 4.872417,17.17282 4.681756,17.276648 4.560626,17.366335 4.748323,17.598256 4.660629,17.643991 3.995411,17.923615 4.070403,18.474334 4.236095,19.649251 4.269508,19.682853 4.292293,19.701352 4.245929,19.725932 4.255586,19.763451 4.267618,19.834588 3.951603,20.270355 4.159167,20.515596 4.056017,20.876505 4.274142,20.760268 4.135389,22.096837 4.677964,21.57771 4.615655,22.650674 4.526847,23.161677 4.589222,23.20962 5.218864,22.815802 5.168751,23.402772 5.116638,23.642759 5.134278,23.655014 5.12927,23.708353 5.453731,23.982942 5.097701,24.044546 5.018683,24.886095 5.199848,24.925232 5.503366,25.496769 5.364081,26.048209 5.294182,26.25724 5.379666,26.388628 5.233301,26.435509 4.985398,27.295809 4.856725,27.840458 4.82952,27.860729 4.950514,28.377818 4.718392,28.415802 4.730613,28.626292 4.65338,28.668851 4.744466,28.767586 4.813523,28.955314 4.395385,29.489342 4.214376,29.595236 4.217046,29.886031 4.031323,30.055347 4.217731,30.906397 3.91459,30.998851 3.947531,31.263512 3.898593,31.297883 3.970419,31.392786 4.043041,31.5608 3.626206,31.958158 3.349035,32.098058 3.364606,32.4071 3.201198,32.529838 3.499241,33.721224 3.318903,33.848049 3.35993,33.967303 3.394674,34.003251 3.440462,34.063908 2.976573,34.436647 2.935574,34.459431 2.384114,35.120554 2.445305,35.213052 2.542343,35.470908 2.509947,35.521516 2.865156,35.87332 3.184216,36.306936 2.996142,36.472167 2.647097,36.675116 2.693871,36.875584 2.654347,36.904528 3.11923,38.265372 3.008829,38.550202 3.085686,38.604039 3.116044,38.626884 2.998425,38.721238 2.44476,40.332706 2.538321,40.448742 2.971581,40.741032 3.200943,40.910192 2.781736,41.280303 2.26318,41.681292 2.239732,41.751016 1.854149,41.411 1.838919,41.381917 1.294814,40.946803 1.169102,40.858164 1.509136,40.633078 1.581667,40.564515 1.335644,40.302004 1.128437,39.706772 1.267511,39.007115 1.343439,38.732559 1.336574,38.72684 1.362954,38.593238 1.107681,38.354252 1.25008,38.281027 1.459652,38.103527 1.551727,37.637227 1.754582,36.906545 1.752501,36.904751 1.810905,36.633104 1.57043,36.30584 1.20783,35.9347 1.603376,35.756476 1.937147,35.498977 1.911124,35.404676 2.083805,35.245418 1.708055,34.757671 1.577165,33.787865 1.523851,33.712947 1.488407,33.676436 1.557605,33.642936 1.55595,33.630675 1.570635,33.617465 1.542949,33.561212 1.559528,33.305384 1.962048,32.281482 2.215541,32.025829 2.295261,31.698811 2.277436,31.655625 2.011501,31.401134 2.439308,31.107918 2.493675,30.884902 2.530383,30.857043 2.530561,30.842982 2.598796,30.77133 2.48683,30.45876 2.642532,29.699561 2.615528,29.666482 2.473232,29.640472 2.690319,29.466554 2.708276,29.379002 2.750933,29.328016 2.727616,29.127164 3.027866,28.101529 2.724521,28.120752 2.714998,28.093596 3.094239,26.05385 2.983615,25.988377 2.943141,25.966928 2.612696,26.03485 2.496242,26.091788 2.547814,25.757414 2.540656,25.75362 2.544297,25.72881 2.481911,25.684314 2.554727,25.657769 2.763684,24.234364 2.844645,23.654032 2.135725,22.574041 2.122782,22.564282 2.132778,22.538442 2.828946,20.463967 2.745103,20.083116 2.654778,20.010218 2.701502,19.905347 2.674108,19.882586 2.672167,19.868529 2.330815,19.572908 2.525052,19.451709 2.596683,19.408939 2.577947,19.323829 2.595644,19.314404 2.461646,18.344104 2.987447,17.472055 2.888319,17.37249 2.704365,17.18535 3.204748,17.008137 3.286998,16.975246 3.390903,16.802918 3.581813,16.714234 3.632613,16.319518 3.559933,16.232496 3.585749,16.141437 3.473687,16.005572 3.148065,15.602346 3.504135,15.515774 3.745084,15.445621 3.745981,15.438652 3.785123,15.430129 3.916016,14.953316 3.884661,14.909317 3.906458,14.85637 3.611053,14.410345 3.895614,14.363083 4.087745,14.32774 4.090139,14.31902 4.130547,14.313367 4.317774,13.832298 4.311239,13.822177 4.330491,13.779954 4.110404,13.401538 4.345096,13.377327 4.501234,13.360907 4.505586,13.349725 4.527548,13.347771 4.643022,13.094514 4.811083,12.706385 4.650804,12.428627 4.827895,12.414543 4.94139,12.405444 4.945872,12.395094 4.946962,12.395012 5.250835,11.648664 5.340774,11.42316 5.269078,11.292318 5.348786,11.287626 5.396316,11.283896 5.398256,11.279032 5.405203,11.27859 5.746788,10.487858 6.103176,10.315284 6.094616,10.296156 6.123172,10.281982 6.043249,10.136556 6.008974,10.072089 6.561132,10.064585 7.080974,9.806546 7.045474,9.678656 7.13721,9.626465 6.972813,9.187224 6.880205,8.914549 7.345485,8.966261 7.580624,8.984149 7.750083,8.989249 7.945133,8.73506 7.900036,8.364024 7.858675,7.928782 8.216277,8.056204 8.42542,8.109147 8.456441,8.068721 8.613707,8.132678 8.911804,7.976639 8.9532,7.611183 8.9944,7.202812 9.351343,7.424533 9.660649,7.58466 9.84279,7.489319 9.916013,7.543771 10.013476,7.493177 10.049988,7.367235 10.093416,7.349791 10.192471,6.969866 10.258797,6.672953 10.671154,7.000875 10.7756,7.075776 11.38579,6.830679 11.390912,6.813207 11.407005,6.808708 11.508215,6.481239 11.555712,6.260126 11.997368,6.63133 12.078531,6.605781 12.092293,6.617123 12.664848,6.457055 12.748944,6.118501 12.765792,5.871135 13.20045,6.192859 13.389394,6.30865 13.506362,6.289211 13.569796,6.333609 13.742669,6.301897 13.826965,6.227329 13.907276,5.739407 13.889959,5.323089 14.130695,5.472952 14.325746,5.559827 14.859859,4.707037 15.019129,4.681533 15.012561,4.604901 15.130467,4.663706 15.161222,4.65878 15.189056,4.670245 16.105176,4.528058 16.178138,4.18636 16.203809,3.854234 16.475149,4.023707 16.888943,4.214527 16.905295,4.16332 17.380482,3.346112 17.650349,3.340365 17.706088,3.317521 17.720268,3.260944 17.728446,3.181761 17.809029,3.275332 17.950134,3.217502 18.90906,3.078519 18.909132,3.074924 18.940448,3.069971 18.948664,3.023162 18.986033,3.062761 19.051202,3.052451 19.92299,2.954231 19.92307,2.953599 19.925878,2.953374 19.927988,2.946373 19.932708,2.952803 20.378408,2.918067 19.945371,2.987291 20.231033,3.853726 20.660321,3.840639 20.660975,3.824686 20.727851,3.823562 20.753403,3.711916 20.899548,2.907522 21.1397,3.816644 21.574332,3.809343 21.626774,3.807837 21.627534,3.792456 21.687496,3.793463 21.716318,3.675846 21.895064,2.869522" slic3r:type="contour"/>
    <polygon style="fill: black" points="3.060635,25.393849 3.104459,25.457365 3.202145,25.421755 3.214588,25.324229 3.146871,25.294014" slic3r:type="hole"/>
    <polygon style="fill: black" points="20.357679,4.556861 20.377011,4.707979 20.604344,4.710203 20.604438,4.707646 20.61889,4.707477 20.629566,4.526226" slic3r:type="hole"/>
    <polygon style="fill: black" points="23.179667,4.703631 23.42487,4.701466 23.442654,4.564563 23.169923,4.534068" slic3r:type="hole"/>
    <polygon style="fill: black" points="21.234341,4.458901 21.253577,4.700036 21.564064,4.696396 21.564508,4.682611 21.576875,4.682756 21.592743,4.45341" slic3r:type="hole"/>
    <polygon style="fill: black" points="22.222827,4.682644 22.225582,4.682578 22.226095,4.690353 22.552294,4.69417 22.571285,4.463007 22.207587,4.457425" slic3r:type="hole"/>
    <polygon style="fill: black" points="24.031602,3.867408 24.098294,3.870163 24.09888,3.888645 24.394181,3.897751 24.418426,3.846582 24.567244,3.543147 24.456322,3.431284 24.549848,3.33022 24.428922,3.250062 23.878409,3.009981" slic3r:type="hole"/>
    <polygon style="fill: black" points="19.762013,3.109732 19.278684,3.372875 19.333804,3.431283 19.327605,3.770287 19.38431,3.887769 19.691938,3.876847 19.691832,3.870163 19.796452,3.866974 19.821402,3.757183 19.915148,3.016212" slic3r:type="hole"/>
    <polygon style="fill: white" points="2.95495,43.178683 3.428817,43.525624 3.234282,43.714063 2.685045,44.175982 2.733941,44.229464 3.71673,45.748184 3.529706,46.658102 3.77017,46.752195 3.874271,46.779968 3.555873,47.06446 3.832088,47.599627 4.452353,49.344272 4.44825,49.452995 4.422824,49.535992 4.498785,49.547308 4.490321,49.559759 4.457959,49.614753 4.778491,51.081788 4.701324,51.525822 4.791431,51.541144 4.820846,51.602998 5.192466,51.608572 5.153136,51.676848 5.004373,51.988914 5.331747,52.677312 5.376158,53.330254 5.512981,53.3289 5.549343,53.37679 6.053627,53.316252 6.02142,53.395172 5.881969,53.81487 6.162207,54.183951 6.452543,54.916174 6.58305,54.889768 6.600233,54.907343 7.15509,54.762836 7.13812,54.840483 7.04872,55.36605 7.211539,55.53258 7.790268,56.348663 7.8821,56.314067 7.883282,56.315008 8.588235,56.030876 8.584574,56.125024 8.571311,56.880993 9.381916,57.614597 9.592477,57.502843 10.292138,57.129308 10.302848,57.241931 10.401199,58.161907 11.232821,58.673269 11.523352,58.484491 12.178058,58.051244 12.201754,58.170856 12.400594,59.107402 13.292632,59.468841 13.534625,59.286643 14.15137,58.797268 14.18136,58.904968 14.419703,59.686594 15.514967,59.924579 16.11038,59.369356 16.13629,59.443195 16.337085,59.952289 16.824761,59.979792 17.777119,60.066284 18.049484,59.770176 18.064438,59.804256 18.183967,60.048945 19.906876,60.023168 19.96008,60.023947 19.974924,60.005304 19.984425,60.022728 20.243428,60.01594 21.869548,60.115903 21.887464,60.088515 21.895064,60.077204 21.920483,60.116168 21.988487,60.112328 23.546699,60.015936 23.804184,60.023665 23.815204,60.0053 23.816662,60.00706 23.831256,60.025215 25.187824,60.073056 25.592777,60.063881 25.740674,59.770167 25.768058,59.797779 26.042647,60.090801 26.599172,60.074715 27.426127,59.990907 27.679746,59.369356 27.741458,59.42244 28.315787,59.947291 29.355653,59.714823 29.399059,59.561184 29.638758,58.797268 29.729921,58.865472 30.508327,59.473997 31.385027,59.119845 31.446426,58.813231 31.612044,58.051243 31.713547,58.117047 32.562888,58.676133 33.385327,58.17541 33.411321,57.906828 33.497992,57.129304 33.594936,57.18072 34.423392,57.622243 35.212265,56.927134 35.20898,56.836016 35.201896,56.030872 35.285552,56.06326 36.018055,56.355272 36.059428,56.370764 36.743615,55.487856 36.635027,54.762824 36.708268,54.777988 37.200172,54.898694 37.207092,54.889764 37.471857,54.94158 37.941626,54.000902 37.736504,53.316268 37.814488,53.316388 38.264169,53.355038 38.277212,53.32892 38.590579,53.32729 38.850284,52.190752 38.597636,51.608623 38.664783,51.595491 38.991066,51.574646 38.99872,51.541156 39.316821,51.478725 39.349254,49.652876 39.291343,49.547308 39.302567,49.543136 39.351378,49.533307 39.351503,49.52626 39.377524,49.516851 39.33778,49.344255 40.256906,47.138562 39.991912,46.887496 39.91586,46.780008 40.225128,46.652947 40.15486,46.360959 40.073392,45.748268 40.524232,45.501008 41.186856,44.23514 40.855531,43.926619 40.361316,43.525628 40.671611,43.309092 41.455792,42.74488 42.061859,43.230263 42.39796,43.520767 42.0327,43.820824 41.40733,44.255346 41.681753,46.878799 41.935276,47.102348 41.881596,47.154279 41.774465,47.226368 41.897168,47.357664 41.838012,47.384847 41.667232,47.459452 41.173604,48.633671 40.744762,49.535673 40.837012,49.686996 40.771073,49.837098 41.203552,50.403332 40.946184,50.469795 40.384059,50.672689 39.931467,51.520045 40.032436,51.73536 39.956248,51.872659 40.04744,52.063568 40.427336,52.695484 40.091523,52.712588 39.347687,52.862129 39.034168,53.348368 39.112624,53.590195 39.045849,53.676335 39.153588,54.020016 39.413276,54.657752 39.061543,54.610311 38.246327,54.628579 37.896731,55.035233 37.934688,55.249748 37.891976,55.287352 37.947472,55.66892 38.08618,56.34324 37.753515,56.237696 36.918566,56.094521 36.396974,56.519251 36.402704,56.660724 36.376084,56.677923 36.375123,57.096675 36.404136,57.784172 36.088563,57.636755 35.351376,57.37068 35.328868,57.389008 35.321204,57.385528 35.317364,57.38422 35.313017,57.330457 34.623454,57.748655 34.615944,57.846428 34.590945,57.858883 34.537752,58.297539 34.479736,58.988384 34.184455,58.811655 33.419028,58.414985 32.678658,58.764031 32.664546,58.841976 32.627256,58.856928 32.533517,59.282484 32.404996,59.97828 32.133851,59.783087 31.420608,59.316714 30.649131,59.609655 30.629076,59.682344 30.568041,59.70284 30.458896,60.061175 30.27014,60.771024 30.029174,60.569656 29.40118,60.08352 29.358399,60.099764 29.348407,60.091343 28.600296,60.328753 28.568176,60.416392 28.49714,60.434669 28.416534,60.644272 28.158136,61.381328 27.957573,61.187227 27.41706,60.704246 27.396083,60.710904 27.391296,60.706129 26.521243,60.916669 26.483214,60.999688 26.42006,61.010093 26.399856,61.053023 26.059696,61.813304 25.899116,61.632636 25.458984,61.173723 25.448238,61.176323 25.439836,61.166471 24.427918,61.32241 24.391143,61.389296 24.35077,61.391671 23.97301,62.068728 23.844464,61.900268 23.49189,61.466655 23.481375,61.468275 23.463022,61.443166 22.349715,61.504376 22.31883,61.552655 22.305332,61.551857 21.895064,62.15194 21.785578,61.984768 21.490393,61.551622 21.471222,61.552676 21.438608,61.501161 20.329538,61.440331 20.308732,61.468311 20.30802,61.468192 19.817118,62.068756 19.710933,61.880611 19.437764,61.39142 19.39903,61.389296 19.357559,61.314051 18.35768,61.160794 18.318851,61.203664 17.7304,61.813304 17.622659,61.587423 17.362086,61.008194 17.306906,60.999736 17.264284,60.908046 16.404195,60.700995 16.394043,60.710904 16.381654,60.706708 16.228688,60.851803 15.631991,61.381328 15.524873,61.109407 15.284697,60.431497 15.221951,60.416392 15.186912,60.323312 14.445204,60.088641 14.431728,60.099764 14.394295,60.084705 14.11562,60.3131 13.519998,60.771024 13.420261,60.455068 13.216194,59.699791 13.161051,59.682344 13.139446,59.607153 12.374361,59.316456 11.992417,59.584527 11.385161,59.978276 11.305097,59.63184 11.158542,58.8545 11.125582,58.841976 11.116641,58.795384 11.111507,58.762485 10.376472,58.414954 9.939728,58.666244 9.310394,58.988384 9.261272,58.62048 9.194254,57.855992 9.174185,57.846504 9.167813,57.775231 9.166327,57.745026 8.476115,57.324318 8.47276,57.384263 8.461292,57.389032 8.446883,57.376375 8.038055,57.5541 7.386001,57.784172 7.379068,57.401404 7.406962,56.672634 7.387423,56.660724 7.38994,56.55056 7.392975,56.511401 6.886586,56.095867 6.362753,56.238 5.703949,56.34324 5.751648,55.952928 5.887734,55.276225 5.855491,55.249768 5.877593,55.101827 5.895876,55.023362 5.564947,54.634084 5.008921,54.682515 4.376877,54.657779 4.484277,54.269519 4.730955,53.653043 4.677505,53.590168 4.725568,53.419032 4.761893,53.331405 4.477738,52.879803 3.985541,52.834519 3.362817,52.695536 3.509775,52.3532 3.818325,51.831805 3.757655,51.735384 3.854333,51.500796 3.866952,51.479482 3.48087,50.722185 3.261809,50.66076 2.586574,50.403332 2.720811,50.166152 3.004931,49.788636 2.953114,49.686996 3.05821,49.495764 2.899476,49.139648 2.134742,47.461826 1.89296,47.357692 1.925288,47.304276 2.013214,47.208394 1.854853,47.10238 1.912103,47.044512 2.184463,46.795945 2.324517,46.183295 2.40543,44.263713 1.875615,43.852852 1.392168,43.520768 1.780328,43.214383 2.334352,42.74484" slic3r:type="contour"/>
  </g></svg>