<svg width="43.790126" height="63.590156" xmlns="http://www.w3.org/2000/svg" xmlns:svg="http://www.w3.org/2000/svg" xmlns:xlink="http://www.w3.org/1999/xlink" xmlns:slic3r="http://slic3r.org/namespaces/slic3r"><g xmlns="http://www.w3.org/2000/svg" slic3r:z="4.98349999999998e-005" id="layer150">
    <polygon style="fill: white" points="33.578131,18.041047 33.685512,18.347412 33.664165,18.357956 33.676786,18.43136 34.332964,18.509322 35.373928,18.687128 35.335632,18.739025 35.075735,18.94703 35.081952,18.956447 34.778647,19.338864 34.704844,19.39076 34.503281,19.308249 33.683076,19.330269 33.22788,19.363228 33.428307,18.671658 33.520367,18.428987 32.686478,18.840896 32.600476,18.904184 32.304348,17.997062 32.16813,17.518902 32.882892,17.141271 33.153434,16.945698" slic3r:type="contour"/>
    <polygon style="fill: white" points="30.786531,16.115246 31.209689,17.066924 30.675643,17.503828 30.314044,17.854612 30.060604,17.33915 29.711426,16.496281 30.079367,16.215284 30.600766,15.719602" slic3r:type="contour"/>
    <polygon style="fill: white" points="25.127119,14.924046 25.291146,15.233765 25.74973,15.213223 26.21349,14.644485 26.363364,14.465705 26.703576,15.165508 27.261972,15.123919 28.17976,15.058742 28.250259,14.978643 28.271094,14.955144 28.314509,15.047231 28.38615,15.040165 28.507186,15.029044 28.626536,15.68588 28.91407,16.276859 28.6532,16.54327 28.081532,17.174823 27.955121,16.942613 27.686312,16.381896 27.684433,16.382083 27.67587,16.363467 26.435865,16.449911 26.431126,16.455854 26.431082,16.455855 26.210728,16.724152 26.171542,16.65435 26.077403,16.467527 24.970664,16.504045 24.822657,16.170313 24.648554,16.414638 24.629748,16.439425 24.180247,15.580475 23.968344,15.168236 24.512914,14.434552 24.730382,14.151026" slic3r:type="contour"/>
    <polygon style="fill: white" points="22.255568,14.515128 22.566089,15.017259 23.030193,14.325254 23.270026,13.977033 23.632215,14.628961 23.940976,15.171362 23.28275,16.195374 23.22441,16.281242 22.780141,15.490903 22.569368,15.111134 21.960739,16.127934 21.895064,16.235797 21.446325,15.48118 21.220795,15.11062 20.620468,16.182548 20.56569,16.281251 20.101205,15.543112 19.849202,15.171239 20.306815,14.348111 20.520118,13.977032 20.89783,14.540992 21.223617,15.017381 21.661308,14.300758 21.895064,13.924598" slic3r:type="contour"/>
    <polygon style="fill: white" points="19.489123,14.730927 19.821786,15.168214 19.177296,16.406511 19.160378,16.439424 18.975497,16.174316 18.892117,16.361163 18.819494,16.504041 17.962358,16.479516 17.710551,16.469652 17.708151,16.474579 17.705507,16.474398 17.57939,16.724169 17.52802,16.667048 17.34867,16.449964 16.857666,16.416344 16.113979,16.364103 16.105644,16.382065 16.090982,16.380518 15.708603,17.17481 15.530841,16.994955 14.876057,16.276881 15.037723,15.958205 15.175484,15.670735 15.267199,15.137264 15.282975,15.029038 15.474414,15.047453 15.503678,14.985261 15.518994,14.955163 15.610377,15.059061 16.438963,15.119874 17.080004,15.166611 17.315061,14.682795 17.426756,14.46571 17.953253,15.113133 18.037528,15.214335 18.452123,15.232528 18.496607,15.233335 18.886299,14.474229 19.05977,14.151017" slic3r:type="contour"/>
    <polygon style="fill: white" points="13.418139,15.892665 14.078745,16.496237 13.770459,17.149563 13.4761,17.854602 13.033633,17.498036 12.58043,17.066949 12.869267,16.458743 13.189381,15.719596" slic3r:type="contour"/>
    <polygon style="fill: white" points="11.250407,17.264296 11.621987,17.518942 11.238504,18.733851 11.189618,18.904186 10.27762,18.463104 10.465411,19.118048 10.56221,19.363236 10.059576,19.371468 9.27679,19.313422 9.198709,19.349868 9.085251,19.390794 8.708162,18.956462 8.748636,18.891719 8.416201,18.687128 8.836845,18.628074 10.211083,18.421713 10.104615,18.347404 10.511942,17.322324 10.636686,16.945706" slic3r:type="contour"/>
  </g></svg>