<svg width="43.790126" height="63.590156" xmlns="http://www.w3.org/2000/svg" xmlns:svg="http://www.w3.org/2000/svg" xmlns:xlink="http://www.w3.org/1999/xlink" xmlns:slic3r="http://slic3r.org/namespaces/slic3r"><g xmlns="http://www.w3.org/2000/svg" slic3r:z="1.7165e-005" id="layer51">
    <polygon style="fill: white" points="21.957683,1.421497 22.030358,1.426619 22.934472,1.487627 22.977809,1.441998 23.008112,1.410248 23.051632,1.495533 23.051757,1.495541 23.056813,1.505376 23.127312,1.519229 24.069957,1.699616 24.104708,1.672045 24.128562,1.653712 24.151813,1.721304 24.196607,1.734918 24.872442,1.930841 25.163262,2.085571 25.196661,2.101009 25.250062,2.070228 25.254618,2.089486 25.268088,2.151746 25.862556,2.67189 26.027753,2.795604 26.375092,2.654453 26.393014,2.791264 26.438796,3.262752 26.474796,3.310836 26.776203,3.649812 27.129437,3.522695 27.531266,3.415234 27.545886,3.770264 27.541034,4.156219 27.930164,4.304057 28.394432,4.419514 28.454283,4.408829 28.608858,4.375359 28.686288,4.365546 28.678627,4.494762 28.733755,4.516934 28.85465,4.543064 29.036468,5.223847 29.182068,5.53694 29.445024,5.496409 29.850058,5.478734 29.80904,5.921359 29.782792,6.045243 30.023349,6.095969 30.342868,6.050836 30.4267,6.526956 30.521639,6.754741 31.12242,6.745125 31.067319,7.11145 30.810974,8.005655 31.284636,7.676064 31.679436,7.425512 31.740476,7.975768 31.859627,8.411718 31.921672,8.419317 31.929202,8.458478 32.750926,8.584103 32.931744,8.438891 32.957397,8.561762 32.970458,8.629147 33.224882,8.671998 33.124154,8.785525 33.034489,8.8983 33.183102,9.503878 33.306928,10.044218 34.06271,10.144164 34.329376,9.851598 34.393659,10.09979 34.416034,10.197816 34.659952,10.22537 34.558588,10.330072 34.482379,10.414289 34.686416,11.060503 34.809738,11.507508 35.678616,11.577948 35.330623,11.937551 35.089963,12.2117 35.269161,12.71344 36.388124,12.774537 36.455244,12.674126 36.501142,12.7829 36.529615,12.783677 36.512307,12.803995 37.0038,13.639243 37.04509,13.725203 37.063903,13.753931 37.248088,13.753692 37.183028,13.831743 37.149403,13.884498 37.569556,14.526109 37.644217,14.664894 37.656248,14.665423 37.667327,14.684789 37.925476,14.692296 37.833672,14.799159 37.781085,14.883645 38.134488,15.501407 38.227916,15.69473 38.248368,15.69703 38.252153,15.706673 38.572659,15.744154 38.451456,15.876684 38.366319,15.997531 38.613071,16.626177 38.718632,16.93651 39.177704,17.046726 38.992892,17.230553 38.867496,17.37415 38.86786,17.375221 38.858171,17.384829 38.835625,17.410648 38.929659,17.899753 39.03335,18.496742 39.359452,18.609412 39.728436,18.737812 39.395532,19.027595 39.163448,19.245773 39.1636,19.246649 39.105404,19.299931 39.116695,19.475979 39.609335,19.438434 39.942712,19.494292 39.972003,20.317953 39.983206,20.61563 39.9893,20.618269 39.988882,20.640162 40.290064,20.797076 40.117848,20.909219 39.981737,21.015119 39.969704,21.646586 39.933183,22.480026 40.120396,22.493318 40.833312,22.932388 40.828355,23.136124 40.817975,23.233658 40.825716,23.238698 40.824909,23.254971 40.91638,23.320086 40.854408,23.352886 40.818655,23.381057 40.760195,24.55966 40.598896,25.404664 40.674543,25.461652 40.665257,25.556757 40.778184,25.591776 40.968608,25.850102 41.346143,26.174535 41.497492,26.29471 41.353125,26.371729 41.38914,26.420586 41.340494,26.463365 41.481864,26.525022 41.55668,26.63917 41.43622,27.97418 41.252872,28.576186 41.329032,28.645526 41.310013,28.799474 41.856256,29.216028 41.488639,29.453252 41.250093,29.667893 41.343823,29.93522 41.056348,30.183395 41.575743,30.931801 41.79183,31.675279 41.963211,31.829513 42.063884,31.902426 41.889081,32.009889 41.912532,32.090574 41.843908,32.146828 41.953667,32.392899 42.117964,33.211885 42.058675,34.058708 42.018692,34.22211 42.043236,34.244604 42.042596,34.259997 42.152024,34.328728 42.095712,34.366867 42.036245,34.412751 41.968368,36.045367 41.899144,36.408574 41.951456,36.458244 41.951149,36.484028 42.161016,36.619384 42.066484,36.678727 41.947806,36.764392 41.928704,38.366744 41.879753,38.726787 41.92884,38.776148 41.92888,38.794001 42.093011,38.90556 42.022468,38.946995 41.929366,39.009458 41.93416,41.132067 41.908163,41.252342 41.92416,41.265024 41.903875,41.272182 41.901467,41.28332 41.889662,41.290582 41.814891,41.51156 41.213354,43.174509 41.501903,43.526631 41.631056,43.644588 40.984247,43.807874 40.835776,44.218324 40.556633,44.372256 40.366323,44.950032 40.978772,45.822063 41.192936,46.055984 40.591192,46.13818 40.037264,46.371904 39.49528,45.7874 39.212464,45.280351 39.629591,45.088476 40.343219,44.936015 40.416678,44.292182 40.396259,44.269416 40.405623,43.946163 39.855796,43.410628 39.626056,43.055236 40.15746,42.764099 40.442214,42.682907 40.474146,41.580514 40.365432,41.470172 40.370235,41.307339 40.050027,41.020871 39.906644,40.825124 40.393628,40.514192 40.413964,39.824683 40.372655,39.000879 40.312776,38.94422 40.316626,38.870081 40.150828,38.732224 40.0722,38.63502 40.338906,38.441182 40.363016,37.977068 40.342479,36.671627 40.301172,36.634112 40.305283,36.590674 40.196471,36.505279 40.140816,36.441736 40.334461,36.282342 40.378992,35.811783 40.435083,34.507381 40.371828,34.449708 40.379852,34.392679 40.21828,34.271164 40.12356,34.167884 40.455004,33.858558 40.64194,32.529967 40.65423,32.41249 40.520748,32.279282 40.537408,32.18765 40.229476,31.961688 40.01208,31.72005 40.353772,31.351096 40.736447,31.092945 40.901267,30.186438 40.832692,30.138266 40.739863,30.019942 40.746851,29.986634 40.477258,29.69758 40.237179,29.523209 39.764268,28.953101 39.79014,28.848921 40.235358,26.937987 40.079276,26.730157 40.091685,26.662232 39.723223,26.407281 39.284087,25.951397 39.249748,25.935408 39.237596,25.931726 39.243529,25.908971 39.228704,25.896978 39.246197,25.878095 39.574384,23.851577 39.45824,23.743629 39.459736,23.726932 39.200058,23.582176 38.786059,23.54539 38.626568,23.526378 38.669833,23.22752 38.607459,23.199035 38.507712,23.149006 38.67153,23.004145 38.771261,21.352054 38.500341,21.245207 38.094632,21.26659 37.961036,21.255676 37.969317,21.024571 37.884832,20.991324 37.967502,20.920705 37.948736,20.583594 37.890652,19.357505 37.717163,19.305145 37.358328,19.191958 37.651188,18.922967 37.826722,18.754407 37.6847,17.90894 37.398016,17.858372 36.823432,17.744668 36.868336,17.695927 37.031968,17.5105 37.022383,17.509862 37.38047,17.083352 36.995984,17.146968 36.610376,17.366214 36.320607,16.670147 36.278963,16.669508 36.213467,16.665056 36.266431,16.58035 36.213844,16.487477 35.763444,15.75435 35.736436,15.752944 35.722443,15.730065 35.64284,15.733714 35.506604,15.730799 35.606708,15.540851 35.504032,15.372984 35.14197,14.831576 35.078884,14.827771 35.064116,14.799769 34.92664,14.802806 34.695984,14.793683 34.882391,14.455181 34.704479,14.117824 34.529383,13.805381 34.435775,13.796999 34.426219,13.771384 34.183535,13.757569 33.780716,13.724769 34.144415,13.193736 34.18973,13.137436 33.978403,12.570938 33.904067,12.562812 33.897472,12.539968 33.488718,12.4968 32.766969,12.419114 32.396355,11.078634 32.365986,11.074912 32.363621,11.06479 32.146325,11.035318 31.669208,10.978814 31.958031,10.635725 32.199414,10.361875 32.07229,9.817698 31.571473,10.153292 31.19145,10.438667 30.986247,9.505501 30.845328,9.490498 30.47108,9.44548 30.722323,9.024107 30.81439,8.883027 30.714336,8.480141 30.061624,8.477799 29.705972,8.508066 29.570419,8.003677 29.530738,8.003353 29.380742,7.997098 29.496688,7.726875 29.039319,6.746532 28.821382,6.775675 28.365772,6.83129 28.41544,6.617885 28.452461,6.452685 27.581664,6.079504 27.455851,5.822249 27.417013,5.830361 27.35417,5.843511 27.382851,5.672979 27.366289,5.639115 27.366771,5.633333 26.868619,4.853894 26.641863,4.931315 26.360062,5.030168 26.379686,4.627962 26.387896,4.274122 26.019964,4.105278 26.010275,4.109766 25.989059,4.100912 25.804863,4.191032 25.382316,4.393595 25.358888,4.112863 25.333622,3.828477 24.902769,3.651107 24.465308,3.925539 24.410201,3.695254 24.359418,3.448193 23.950384,3.314632 23.59179,3.611571 23.506476,3.396754 23.426882,3.164134 23.055721,3.085736 22.740898,3.433794 22.626301,3.224552 22.516574,3.003841 22.164366,2.977187 21.895064,3.378976 21.75628,3.180057 21.622596,2.982144 21.254917,3.009985 21.04924,3.4338 20.899716,3.260475 20.751467,3.095116 20.339648,3.182037 20.198348,3.611578 20.037321,3.464381 19.86562,3.31944 19.415595,3.465935 19.324818,3.925541 19.135297,3.794669 18.90513,3.647284 18.458249,3.830941 18.45301,3.891912 18.407828,4.393592 18.142051,4.262294 17.804849,4.09947 17.779892,4.109727 17.76317,4.101926 17.408646,4.265807 17.424392,4.693133 17.430084,5.03016 16.998673,4.884484 16.903059,4.851293 16.669273,5.20815 16.422569,5.621848 16.423847,5.639075 16.409397,5.668788 16.425479,5.770023 16.43596,5.843535 16.334696,5.822399 16.297374,5.899144 16.208384,6.079607 15.649714,6.322468 15.34093,6.453791 15.424366,6.831279 15.15044,6.794001 14.778036,6.74639 14.55378,7.258413 14.297908,7.747049 14.342282,7.849114 14.409384,7.997098 14.226568,7.998286 14.184241,8.165219 14.08417,8.508045 13.634065,8.536463 13.102419,8.499848 13.042384,8.869441 13.005807,8.973865 13.109268,9.144206 13.319028,9.4455 12.820472,9.499985 12.752839,9.837604 12.598677,10.438667 12.315276,10.252832 11.719829,9.825285 11.593677,10.38606 11.814662,10.648434 12.120917,10.978804 11.425359,11.069888 11.4241,11.074901 11.400735,11.077912 11.300232,11.455094 11.022719,12.419188 10.934149,12.428583 9.893101,12.539299 9.886074,12.562736 9.825189,12.568922 9.611019,13.153571 9.586588,13.214816 9.758636,13.467947 10.009432,13.724752 9.367289,13.764567 9.354356,13.796987 9.283821,13.801971 9.117318,14.122529 8.895424,14.507924 8.96529,14.634165 9.094185,14.793675 8.733376,14.789373 8.711269,14.827771 8.66974,14.828774 8.552959,15.02211 8.181043,15.566497 8.212956,15.62635 8.283527,15.730769 8.074216,15.722863 8.053683,15.752919 8.037826,15.753184 7.963629,15.885374 7.525384,16.587166 7.57668,16.665034 7.471709,16.66708 7.434503,16.758717 7.179713,17.366286 6.951019,17.37159 6.656443,17.260313 6.611839,17.323022 6.731287,17.466151 6.966697,17.744666 6.867958,17.762203 6.091799,17.905968 5.950092,18.724831 6.150247,18.910065 6.431808,19.191948 5.88993,19.355857 5.858813,19.859194 5.820722,20.915316 5.856836,20.946483 5.905264,20.991352 5.820091,21.023543 5.82229,21.096296 5.829056,21.25571 5.357034,21.211256 5.033377,21.341706 5.083219,22.043866 5.123096,23.012488 5.188902,23.070156 5.282415,23.14905 5.123262,23.222354 5.141461,23.336213 5.163588,23.526338 4.543715,23.575429 4.329835,23.705293 4.331888,23.743661 4.240778,23.811225 4.392951,24.581844 4.546087,25.88537 4.561402,25.897036 4.547584,25.905842 4.552534,25.931694 4.455225,25.98403 3.696114,26.608233 3.710852,26.7302 3.582486,26.850414 3.799871,27.58808 4.025073,28.957437 4.01076,28.967486 3.971185,29.004206 3.386289,29.825034 2.894609,30.171499 3.14181,31.231588 3.509908,31.570553 3.778036,31.720008 3.249827,32.094722 3.269343,32.279278 3.189933,32.346833 3.320987,33.109071 3.383473,33.970274 3.553133,34.110584 3.666556,34.167859 3.411259,34.353223 3.418261,34.449724 3.381866,34.479905 3.433329,34.944344 3.479165,36.337636 3.583579,36.414756 3.649324,36.441696 3.486624,36.56436 3.48892,36.634164 3.466354,36.653266 3.488442,37.050112 3.479953,38.509737 3.623746,38.604172 3.717939,38.635084 3.478117,38.825387 3.477426,38.94422 3.446967,38.971392 3.46586,39.782388 3.44521,40.629367 3.7044,40.779616 3.883503,40.82516 3.431057,41.209852 3.424711,41.470108 3.372664,41.520023 3.391922,42.768084 3.854052,42.997832 4.164065,43.05526 3.713088,43.471628 3.401762,43.886846 3.393871,44.269415 3.379476,44.284544 3.448364,44.938987 4.14836,45.228499 4.577656,45.280356 4.248069,45.618759 3.752939,46.371968 2.850401,46.173139 2.597222,46.056012 2.982121,45.438156 3.425594,44.944479 3.258409,44.386798 3.217354,44.366207 2.954351,44.218324 2.86098,43.906371 2.299595,43.722947 2.15907,43.644596 2.601188,43.038403 2.432291,42.474115 1.906176,41.294314 1.888652,41.283284 1.888075,41.27933 1.865967,41.264991 1.882937,41.244079 1.879256,41.218831 1.855969,41.132084 1.926715,39.462304 1.886073,39.035851 1.697106,38.905596 1.760767,38.852215 1.849049,38.790151 1.957994,38.665842 1.955929,37.498787 1.877777,36.805185 1.62911,36.619328 1.71555,36.549935 1.839678,36.467065 1.838676,36.458172 1.945032,36.343034 1.856116,34.994239 1.775205,34.43895 1.638101,34.328728 1.688719,34.289475 1.728868,34.26343 1.798012,34.191181 1.672177,33.211857 1.99521,32.191036 1.877613,32.090516 1.901248,32.040195 1.789405,31.963614 1.726268,31.902365 2.190655,31.424006 2.761504,30.208589 2.653723,30.118637 2.446291,29.935214 2.555064,29.744371 2.21288,29.498322 1.933867,29.216014 2.245241,28.898627 2.478714,28.7215 2.461113,28.645464 2.623239,28.474509 2.520019,27.950657 2.233477,26.639164 2.531228,26.548337 2.401017,26.42059 2.424567,26.399287 2.345065,26.346623 2.292666,26.294709 2.817669,25.780954 3.130765,25.540958 3.115601,25.461652 3.234288,25.363377 2.987124,23.417419 2.87373,23.32011 2.933554,23.270177 2.965601,23.247975 2.964422,23.238694 2.977249,23.229685 2.956819,22.932308 3.077889,22.939738 3.833369,22.617761 3.830564,22.590245 3.870124,22.569263 3.816133,21.048296 3.50009,20.797032 3.688874,20.693102 3.801458,20.634889 3.800868,20.618269 3.806503,20.615818 3.847443,19.494267 4.380553,19.570026 4.669631,19.543561 4.6846,19.311171 4.253053,18.91846 4.061709,18.737814 4.480458,18.595163 4.767179,18.495256 4.809748,18.26776 4.956058,17.441368 4.612421,17.046756 4.874305,16.981693 5.09372,16.929121 5.305211,16.378781 5.423752,16.037121 5.217467,15.744133 5.411394,15.711694 5.542098,15.696944 5.58932,15.688403 5.910804,15.117989 6.007536,14.921719 5.864648,14.6923 6.023783,14.673785 6.130799,14.671612 6.133848,14.665425 6.1729,14.660175 6.565933,14.047933 6.641867,13.910185 6.542042,13.753688 6.657506,13.742629 6.733658,13.743668 6.737464,13.736763 6.755374,13.734675 7.263613,12.837105 7.278283,12.807507 7.26054,12.783678 7.292312,12.780436 7.334926,12.6741 7.354877,12.735056 7.378444,12.769777 8.058478,12.685276 8.551116,12.684679 8.714477,12.246825 8.376539,11.879359 8.111475,11.577949 8.669738,11.502758 9.0004,11.480469 9.006104,11.465179 9.009708,11.46463 9.11105,11.12302 9.311088,10.42529 9.130216,10.225343 9.29311,10.200774 9.378597,10.192176 9.460733,9.851623 9.581131,10.006574 9.699916,10.136896 10.021197,10.083544 10.492606,10.030076 10.755059,8.913229 10.565243,8.671998 10.743435,8.63299 10.822212,8.621701 10.858381,8.438891 10.939888,8.509978 11.027261,8.580503 11.420921,8.509778 11.86241,8.447817 11.868452,8.419333 11.88046,8.418612 12.110692,7.425512 12.532183,7.727769 12.927793,7.982239 12.945503,7.892569 12.782626,7.077578 12.667698,6.745139 12.885739,6.825879 13.181365,6.829115 13.447269,6.050857 14.041534,5.958735 14.007559,5.711586 13.940093,5.478721 14.210831,5.552845 14.525779,5.57554 14.935494,4.543042 15.119256,4.47966 15.114418,4.423375 15.103862,4.365525 15.295483,4.418876 15.328481,4.407494 15.345554,4.411099 16.267263,4.095152 16.275106,3.755817 16.258873,3.415222 16.51205,3.51877 16.964202,3.65598 17.367864,3.184679 17.377244,3.083908 17.382505,3.079575 17.415008,2.654475 17.515729,2.708948 17.721637,2.80026 18.454125,2.19697 18.525295,2.142428 18.540034,2.070223 18.582273,2.098763 18.583758,2.097623 18.588079,2.100272 18.9172,1.931007 19.638456,1.720364 19.651844,1.681548 19.661566,1.653708 19.718819,1.699507 19.770007,1.689452 20.73338,1.504785 20.761909,1.44904 20.782016,1.410256 20.85509,1.487289 20.925075,1.482357 21.832926,1.421112 21.869566,1.369538 21.895064,1.333459" slic3r:type="contour"/>
    <polygon style="fill: black" points="35.84304,13.704762 36.088523,13.711256 36.205497,13.35811 36.130093,13.318881" slic3r:type="hole"/>
    <polygon style="fill: black" points="7.386619,13.065712 7.379024,13.395934 7.540973,13.663652 7.92912,13.681561 7.454451,13.044093" slic3r:type="hole"/>
    <polygon style="fill: black" points="10.185632,11.532142 10.547293,11.964316 10.672596,12.088631 10.742655,12.02628 10.23077,11.373691" slic3r:type="hole"/>
    <polygon style="fill: black" points="33.173136,11.812398 33.04243,11.995128 33.115587,12.054278 33.602878,11.519465 33.558478,11.365661" slic3r:type="hole"/>
    <polygon style="fill: white" points="4.64275,47.442836 5.124511,47.45946 4.852794,47.802176 4.372591,48.66398 3.460893,48.546411 3.1909,48.451716 3.516403,47.807083 3.947283,47.22988" slic3r:type="contour"/>
    <polygon style="fill: white" points="5.319942,49.539904 5.82413,49.506863 5.592916,49.888111 5.176136,50.812732 4.206327,50.792668 3.969512,50.742895 4.245702,50.038715 4.605703,49.42576" slic3r:type="contour"/>
    <polygon style="fill: white" points="6.517408,51.760027 6.189641,52.71476 5.176713,52.833424 4.973386,52.824044 5.184626,52.0733 5.453355,51.442428 6.184918,51.435944 6.702782,51.349756" slic3r:type="contour"/>
    <polygon style="fill: white" points="7.668547,53.436852 7.463441,54.37534 6.420002,54.649067 6.256715,54.671232 6.388436,53.887872 6.550805,53.262328 7.293177,53.118048 7.800339,52.976872" slic3r:type="contour"/>
    <polygon style="fill: white" points="40.392443,48.177627 40.599236,48.45168 40.002243,48.47946 39.417636,48.663988 38.93758,48.0399 38.665612,47.459479 39.04102,47.329503 39.842875,47.229851" slic3r:type="contour"/>
    <polygon style="fill: white" points="39.668012,50.484 39.820611,50.742892 39.193003,50.706712 38.61402,50.81274 38.196184,50.113896 37.966,49.506864 38.33998,49.436568 39.184423,49.42576" slic3r:type="contour"/>
    <polygon style="fill: white" points="38.336748,51.4424 38.718924,52.594304 38.816732,52.824024 38.175808,52.699048 37.60048,52.714764 37.26248,51.959063 37.08734,51.349748 37.468015,51.346764" slic3r:type="contour"/>
    <polygon style="fill: white" points="36.389655,53.051432 37.239376,53.26232 37.484744,54.483496 37.533384,54.67124 36.879611,54.456547 36.326644,54.375312 36.0949,53.558164 35.989792,52.97688" slic3r:type="contour"/>
    <polygon style="fill: white" points="35.049664,54.548596 35.821508,54.852832 35.91634,56.138304 35.93024,56.263884 35.252956,55.95524 34.976593,55.864653 34.92506,55.944788 34.672331,55.858695 34.195904,56.713939 34.127106,56.791212 34.09704,57.534375 34.096116,57.596424 33.644726,57.333015 33.614912,57.366504 33.549036,57.333492 33.165957,57.720324 32.133907,58.523965 32.133123,58.529047 32.130586,58.53058 32.110512,58.667759 32.108828,58.681272 32.016813,58.615144 32.010418,58.620124 31.996841,58.61134 31.87099,58.687331 30.764286,59.234559 30.051785,59.514845 30.051688,59.51524 30.050939,59.515478 30.047942,59.527668 30.038229,59.519482 30.037471,59.519763 30.037456,59.519751 29.246257,59.770548 28.023989,60.059326 27.99697,60.137943 27.9937,60.14808 27.929796,60.081582 27.921576,60.083524 27.903243,60.066547 27.675032,60.09188 26.106241,60.200658 25.96667,60.518863 25.94838,60.561952 25.679258,60.230264 25.638014,60.233124 25.571702,60.160683 24.493271,60.166392 24.249758,60.160259 23.954009,60.718876 23.915406,60.792116 23.462238,60.14043 23.394488,60.138724 23.338329,60.06631 22.397661,60.044236 21.948756,60.775915 21.895066,60.861276 21.470529,60.161087 21.391109,60.03469 20.461012,60.054672 20.395854,60.138404 20.341027,60.137621 19.924026,60.725435 19.874722,60.792136 19.521329,60.125922 18.623874,60.113112 18.24647,60.130521 18.151874,60.233392 18.119708,60.229504 17.872388,60.526879 17.841713,60.561944 17.669446,60.17508 17.155236,60.112928 15.895476,60.058723 15.868433,60.083644 15.862243,60.081807 15.803967,60.140864 15.796425,60.148096 15.762488,60.052201 15.619845,60.009867 14.544713,59.770808 13.753204,59.519298 13.752654,59.519764 13.752418,59.519672 13.742185,59.527667 13.73863,59.515297 13.73844,59.51524 13.738137,59.514067 13.025157,59.234291 11.803569,58.604783 11.779503,58.620252 11.775452,58.61652 11.692059,58.674344 11.681267,58.681288 11.657336,58.529426 11.657004,58.529255 11.653027,58.503769 11.035611,57.935139 10.303985,57.30257 10.174904,57.366604 10.15895,57.343549 9.745427,57.571363 9.694011,57.596419 9.64738,56.739516 9.64599,56.648275 9.64355,56.598738 9.127447,55.852913 9.074329,55.875015 8.86511,55.944788 8.835657,55.87385 7.966985,56.229452 7.859869,56.26388 7.903662,55.441219 7.968784,54.85274 8.720525,54.575707 9.176686,54.389356 9.111352,54.924779 9.041729,55.742199 9.719184,56.162448 10.397458,55.808764 10.786318,55.598848 10.794403,56.206319 10.815501,56.81913 11.64399,57.212339 12.236375,56.819479 12.561412,56.59844 12.645945,57.255 12.710426,57.701762 13.619829,58.040957 14.146989,57.618307 14.424777,57.385316 14.578335,58.052715 14.671415,58.426846 15.543455,58.689679 16.035608,58.21874 16.292674,57.958964 16.496272,58.589184 16.643513,59.009011 17.429632,59.184703 17.909968,58.638031 18.158836,58.3409 18.400232,58.916736 18.630366,59.427835 19.312355,59.522577 19.781841,58.888504 20.024842,58.552888 20.296649,59.076147 20.615281,59.660042 21.218849,59.689232 21.662259,58.97972 21.895064,58.616264 22.199319,59.103975 22.571241,59.689626 23.173349,59.660554 23.558839,58.922356 23.765269,58.55288 24.120704,59.032188 24.479846,59.524285 25.155158,59.430738 25.462148,58.703947 25.63131,58.340908 26.047116,58.812584 26.366448,59.187261 27.139528,59.014818 27.36773,58.314131 27.497452,57.958956 27.970024,58.409324 28.25497,58.691574 29.112749,58.433053 29.272099,57.745144 29.365348,57.385324 29.873331,57.791183 30.176562,58.04136 31.075691,57.705657 31.168192,56.993695 31.228728,56.598432 31.732566,56.931904 32.149097,57.212583 32.97144,56.821797 32.982623,56.052184 33.003794,55.598836 33.479824,55.846316 34.072936,56.162573 34.746803,55.743233 34.646675,54.910767 34.613456,54.389344" slic3r:type="contour"/>
  </g></svg>