<svg width="43.790126" height="63.590156" xmlns="http://www.w3.org/2000/svg" xmlns:svg="http://www.w3.org/2000/svg" xmlns:xlink="http://www.w3.org/1999/xlink" xmlns:slic3r="http://slic3r.org/namespaces/slic3r"><g xmlns="http://www.w3.org/2000/svg" slic3r:z="8.915e-006" id="layer26">
    <polygon style="fill: white" points="8.078713,21.651776 8.677493,22.011956 8.631525,22.035908 8.481547,22.157455 8.488536,22.16281 8.478491,22.169573 8.707216,22.441928 8.436745,23.459297 8.724901,23.63951 8.860853,23.726308 8.396774,23.986208 8.420222,24.315043 8.467844,24.94805 8.476232,24.958139 8.489749,25.041586 8.623137,25.151419 8.665436,25.201144 8.526337,25.267455 8.534272,25.31643 8.572894,25.466698 7.997448,25.553586 7.66774,25.676769 7.637243,25.691307 7.51297,25.74261 7.816894,26.053351 8.185245,26.580438 7.699087,26.785374 7.222261,26.928996 7.322672,27.432172 7.358361,27.534809 7.452452,27.634974 7.468629,27.719046 7.633472,27.887796 7.706091,27.976276 7.533402,28.055665 7.55701,28.178346 7.610017,28.392308 7.120924,28.476549 6.452783,28.791752 6.409095,28.593987 6.286778,28.44847 6.275401,28.40268 5.867254,27.974712 5.539719,27.691908 5.823851,27.554083 6.036809,27.442339 5.874104,26.787448 6.438644,26.623808 6.570663,26.596729 6.291617,26.22456 6.119865,26.055512 6.649323,25.934732 7.293248,25.670899 7.268887,25.53767 7.137695,25.398935 7.134338,25.371296 7.084481,25.3117 6.558959,24.796608 6.752767,24.761699 7.043663,24.624617 7.034193,24.546636 6.977187,23.854944 6.741618,23.659484 6.800569,23.64878 7.014428,23.515822 7.096519,23.067831 7.202375,22.439478 6.63046,22.003186 6.880641,21.847494 7.35761,21.518016 7.366187,21.467104 7.474059,21.373555 7.510489,21.338638 7.56787,21.372773 7.675015,21.29876" slic3r:type="contour"/>
    <polygon style="fill: white" points="22.237836,0.831561 22.314207,0.937907 22.314546,0.937884 22.343523,0.978731 22.361049,1.003136 22.632356,1.023135 22.689565,0.961615 22.694938,0.962744 23.050625,0.573182 23.18794,0.426516 23.466691,0.940762 23.580841,1.148841 23.81988,1.199056 23.901308,1.133645 23.917512,1.139185 24.316633,0.801508 24.47626,0.673645 24.686936,1.2152 24.770143,1.430705 25.019711,1.516034 25.136665,1.44912 25.165313,1.462659 25.572443,1.203056 25.743312,1.105067 25.884969,1.679069 25.916605,1.817719 26.276788,1.987942 26.427926,1.93195 26.463553,1.953521 26.814402,1.793118 26.970531,1.734525 27.032722,2.298128 27.355736,2.493699 27.669975,2.66472 27.798636,2.638258 27.821291,2.656261 28.032853,2.593462 28.13351,2.572091 28.127439,2.899546 28.306441,3.041792 29.148214,3.633485 29.174767,3.631499 29.178538,3.635404 29.217379,3.629012 29.237158,3.62741 29.228829,3.687485 29.263525,3.723417 29.481836,3.921586 30.01332,4.77012 30.109093,4.902438 30.298896,4.907679 30.280866,4.973881 30.241301,5.085091 30.251102,5.098632 30.233761,5.170667 30.683618,5.999363 30.924277,6.372985 31.342278,6.41877 31.29311,6.559363 31.191047,6.787142 31.211068,6.818223 31.163902,6.966264 31.38294,7.381871 31.817137,8.069683 32.395688,8.171091 32.320947,8.3589 32.17551,8.637383 32.204572,8.683419 32.139158,8.862666 32.224456,9.000506 32.910219,9.956595 33.450296,10.082144 33.383748,10.242643 33.26502,10.451257 33.293874,10.491485 33.246421,10.615431 34.518428,12.111329 34.525547,12.134773 34.527702,12.1354 34.531568,12.136618 34.528401,12.14503 34.698183,14.096963 34.957716,14.191058 34.955876,14.205303 35.291963,14.303554 35.637572,14.439067 35.49976,14.823919 35.253907,15.24939 35.47332,15.428772 36.264316,16.008308 36.014252,16.814769 36.407387,16.979415 36.627187,17.082296 36.354839,17.564024 36.02058,18.036976 36.685868,18.775232 37.090808,19.231649 36.866415,19.593175 37.048455,19.704759 37.155532,19.770676 36.590508,20.262955 36.349036,20.468557 36.32338,20.520659 36.307823,20.503647 36.153832,20.634764 35.395523,20.189949 35.162431,20.004642 35.527347,19.65017 35.319355,19.422723 35.071308,19.210042 35.372275,18.894818 35.729422,18.111814 35.084792,17.83348 34.726924,17.669018 35.083261,17.138304 34.706963,16.883639 34.381108,16.643279 34.514932,16.152077 34.653709,15.547832 34.646166,15.441685 34.217692,15.301124 33.799172,15.201376 34.095203,14.645345 34.060899,14.622883 34.140808,14.413149 33.619915,14.069491 32.96875,13.468851 32.930052,13.192067 32.925706,13.034312 32.913419,13.031132 32.895703,12.982116 32.708124,12.960781 32.764303,12.867855 32.81332,12.754196 32.445512,11.736621 32.302916,11.122469 32.25899,11.11369 32.195792,10.996672 32.166096,10.990173 31.652256,10.955541 31.791098,10.732081 31.909502,10.466566 31.715304,10.106983 31.362771,9.256587 31.316922,9.250141 31.248776,9.153993 31.154582,9.138799 30.645148,9.126123 30.771254,8.908501 30.885289,8.641142 30.618876,8.265253 30.190384,7.537278 30.162326,7.535271 30.10438,7.4707 29.659546,7.482585 29.735245,7.332306 29.807556,7.139943 29.137347,6.393114 28.920961,6.110073 28.913916,6.110166 28.889328,6.089009 28.7112,6.107205 28.734674,6.049163 28.756675,5.974866 28.220109,5.513171 27.901694,4.970132 27.837061,4.977943 27.784676,4.989207 27.825115,4.839532 27.805894,4.80675 27.628954,4.600886 27.197694,4.013368 27.021052,4.058981 26.86698,4.112279 26.931234,3.647475 26.430153,3.220345 26.166509,3.333484 25.939074,3.446437 25.931304,2.877194 25.922632,2.763845 25.570531,2.566409 25.226709,2.782657 24.973234,2.95386 24.878274,2.423696 24.824967,2.178507 24.574233,2.091232 24.21682,2.397932 23.972218,2.614799 23.799033,2.111362 23.699042,1.835972 23.490675,1.797682 23.159906,2.170948 22.943486,2.418504 22.698055,1.939777 22.563813,1.679838 22.364422,1.669307 22.077174,2.087948 21.895063,2.356209 21.587285,1.908796 21.423634,1.668614 21.227783,1.678964 20.997593,2.127108 20.84664,2.418499 20.490036,2.01748 20.293957,1.794235 20.098549,1.830174 19.932466,2.305477 19.817928,2.614803 19.409022,2.266827 19.200663,2.084148 18.980419,2.160786 18.888027,2.646042 18.816892,2.95386 18.342623,2.661318 18.183006,2.556086 17.89255,2.718087 17.877312,3.17637 17.851052,3.44644 17.281007,3.211863 16.899716,3.531419 16.902088,3.5915 16.880899,3.61552 16.916742,3.933448 16.923144,4.112279 16.525315,4.018638 16.260576,4.318766 15.97077,4.774715 15.977762,4.817871 15.971137,4.827171 15.996231,4.931123 16.005456,4.989198 15.865183,4.975914 15.77786,5.0985 15.570228,5.512914 15.155413,5.821188 15.036111,5.944652 15.07893,6.107201 15.008886,6.110112 14.883793,6.102281 14.876171,6.110169 14.826184,6.110984 14.306431,6.634659 13.987297,7.05817 14.130574,7.482584 13.944795,7.507521 13.645355,7.511945 13.627787,7.535259 13.505674,7.548235 13.390948,7.700722 12.902447,8.525445 12.959378,8.635308 13.144967,9.126104 12.876043,9.184837 12.495858,9.211877 12.473202,9.250128 12.337016,9.275223 11.872439,10.335038 11.963847,10.501005 12.137871,10.955532 11.874217,11.033616 11.549711,11.071261 11.531119,11.113673 11.410035,11.144427 11.283639,11.551709 10.977679,12.664032 11.082005,12.960755 10.986205,12.99655 10.881605,13.013307 10.876709,13.031108 10.849039,13.04 10.821362,13.46885 10.105971,13.980924 9.644845,14.341179 9.729241,14.622909 9.711266,14.633393 9.868871,14.934125 9.990929,15.201368 9.599953,15.353256 9.132201,15.473954 9.154239,15.561707 9.408996,16.643294 8.68141,17.140269 8.915813,17.485539 9.063196,17.668984 8.645789,17.841852 8.102874,18.088541 8.324418,18.416584 8.718807,19.210058 8.253839,19.704379 8.466208,19.905859 8.627697,20.004644 8.175274,20.23177 7.63628,20.634764 7.484494,20.503576 7.466776,20.520688 7.421624,20.449237 6.746868,19.866046 6.634596,19.770672 6.892863,19.612499 6.786709,19.444515 6.69932,19.23165 7.226618,18.658756 7.778991,18.030883 7.346457,17.334373 7.162935,17.08231 7.698955,16.861145 7.566975,16.468836 7.525839,16.008273 7.99958,15.571114 8.552387,15.184902 8.384794,14.806023 8.152571,14.439085 8.678851,14.290096 8.832736,14.236725 8.832427,14.191091 9.014777,14.132631 9.000302,13.425158 9.261416,12.141011 9.258562,12.136588 9.262652,12.135827 9.271702,12.111299 10.204612,10.844967 10.516892,10.538396 10.496263,10.4915 10.545905,10.408925 10.339838,10.082137 10.537071,10.058549 10.785134,10.010979 11.179969,9.354194 11.620876,8.769726 11.585556,8.683438 11.635286,8.591949 11.394438,8.171116 11.605162,8.157851 11.893118,8.117609 12.231262,7.495514 12.608433,6.901293 12.579048,6.818215 12.612981,6.758488 12.447848,6.418765 12.595553,6.418588 12.816012,6.401121 13.368546,5.428574 13.550945,5.142466 13.539054,5.098638 13.555372,5.073668 13.491261,4.907675 13.557566,4.912504 13.660833,4.912293 14.308125,3.921815 14.56334,3.680715 14.55757,3.645915 14.552965,3.627441 14.608298,3.638243 14.615404,3.63153 14.634625,3.633408 14.714752,3.570656 15.674899,2.869427 15.66682,2.670599 15.656617,2.572064 15.949445,2.668915 15.991458,2.638232 16.088888,2.660352 16.484429,2.423452 16.774513,2.261033 16.809601,1.897724 16.819602,1.734522 17.29613,1.968977 17.362236,1.931965 17.482604,1.978964 17.885893,1.789237 18.003915,1.297278 18.046814,1.105073 18.52934,1.425942 18.604762,1.470622 18.653644,1.449297 18.755566,1.509291 19.026021,1.416847 19.239603,0.866438 19.31389,0.673643 19.75072,1.051491 19.862096,1.142184 19.888832,1.133646 19.963655,1.194703 20.211321,1.142617 20.504277,0.604439 20.602188,0.426513 20.994965,0.860923 21.090378,0.963592 21.100497,0.961583 21.155217,1.020908 21.429093,1.000698 21.779684,0.509088 21.895064,0.348897" slic3r:type="contour"/>
    <polygon style="fill: white" points="36.218841,21.364868 36.279624,21.338642 36.42396,21.467131 36.429593,21.49924 36.585419,21.598591 37.159663,22.00319 36.930792,22.171151 36.591835,22.429366 36.773457,23.483983 37.0485,23.659486 36.986951,23.70379 36.781421,23.873583 36.736071,24.124198 36.708028,24.551839 37.231176,24.79663 37.064596,25.006415 36.500518,25.579221 36.490663,25.657861 37.312336,25.909014 37.67028,26.055534 37.257122,26.648307 37.529816,26.724186 37.916052,26.787474 37.777792,27.156894 37.722744,27.41582 38.250424,27.69197 38.003768,27.966897 37.508648,28.422873 37.503192,28.448538 37.428971,28.5422 37.377065,28.595027 37.337304,28.791767 36.480279,28.536875 36.180088,28.39231 36.253422,28.03979 36.170208,28.000922 36.084008,27.976276 36.313577,27.750625 36.337636,27.634972 36.370503,27.600883 36.554844,26.881103 36.095056,26.683262 35.604872,26.580417 35.824376,26.373116 36.287587,25.762259 35.478528,25.564684 35.217236,25.466697 35.256792,25.258616 35.181019,25.222835 35.124692,25.201144 35.292207,25.07232 35.313912,24.958144 35.32121,24.950044 35.3486,24.570795 35.3884,24.031605 35.064408,23.838242 34.929272,23.726302 35.357665,23.459106 35.285423,23.181163 35.082892,22.441994 35.22754,22.325872 35.326035,22.197783 35.112616,22.011952 35.179059,21.953138 36.115128,21.298744" slic3r:type="contour"/>
    <polygon style="fill: white" points="38.019211,28.981623 38.637844,29.18329 38.573599,29.459202 38.524491,29.67196 38.822588,29.87221 38.661271,29.964984 38.484336,30.097347 38.420432,30.780023 38.31271,31.508614 38.3627,31.55027 38.357794,31.738337 38.805363,32.159805 39.143752,32.419136 38.690104,32.534102 38.303529,32.774214 38.204265,33.726196 38.314392,33.832416 38.309429,34.038167 38.98284,34.772572 39.1674,34.929216 38.662711,34.979644 38.332806,35.155238 38.364568,35.331128 38.215123,35.40087 38.132538,36.212249 38.263124,36.353792 38.248381,36.563717 38.721652,37.142 38.988843,37.391932 38.547939,37.4079 38.153521,37.591437 37.979503,38.803209 38.101336,38.95232 38.068891,39.145469 38.280928,39.434036 38.660212,39.836684 38.296367,39.840024 37.929049,39.985661 37.618009,41.271684 37.720284,41.417259 37.671698,41.58808 37.777928,41.752864 38.182072,42.251376 37.840884,42.245168 37.450429,42.366028 37.436407,42.415324 37.029892,43.554479 37.120508,43.712044 37.058486,43.857737 37.152584,44.03302 37.518636,44.5828 37.16696,44.552956 36.718001,44.642967 36.229822,45.624669 36.308248,45.803692 36.236994,45.920738 36.3573,46.211068 36.643156,46.770436 36.260532,46.699184 35.720476,46.735695 35.227738,47.459834 35.287044,47.662976 35.214245,47.747405 35.348432,48.230207 35.530376,48.754663 35.110535,48.618879 34.479601,48.559585 34.020882,49.048049 34.05096,49.245896 33.981348,49.305453 34.081592,49.998248 34.170583,50.453764 33.721275,50.238995 33.057373,50.056002 32.636601,50.390149 32.641552,50.573 32.576323,50.615096 32.597647,51.490079 32.621506,51.864152 32.159592,51.567744 31.505705,51.268695 31.112168,51.505356 31.098132,51.668256 31.036344,51.698652 30.950834,52.693416 30.934696,52.99902 30.481049,52.627335 29.873497,52.237062 29.484151,52.415244 29.45751,52.555052 29.397899,52.577384 29.205148,53.597339 29.161754,53.871548 28.73943,53.442284 28.205321,52.996543 27.780016,53.144282 27.74531,53.264643 27.696915,53.277441 27.43415,54.193259 27.35564,54.494012 26.986252,54.037568 26.531577,53.566593 26.014402,53.692531 25.978356,53.78714 25.947806,53.791967 25.663155,54.541852 25.53461,54.896996 25.218924,54.436859 24.837913,53.957208 24.213971,54.047222 24.181524,54.116579 24.173491,54.117003 23.89829,54.707735 23.71148,55.11322 23.43977,54.658016 23.11634,54.169966 22.429273,54.202904 22.130121,54.752492 21.895064,55.17506 21.650777,54.715311 21.363791,54.200589 20.684634,54.168082 20.324466,54.740483 20.078648,55.11322 19.845999,54.619707 19.614607,54.116867 19.608604,54.11658 19.572361,54.040352 18.967224,53.953317 18.484508,54.606935 18.255518,54.896971 18.037803,54.350331 17.836245,53.790652 17.811768,53.787132 17.770193,53.683855 17.272631,53.562967 16.636407,54.283619 16.434467,54.494008 16.245234,53.891644 16.085893,53.274633 16.044731,53.264632 16.003597,53.135418 15.59543,52.993654 14.817393,53.713203 14.628372,53.871523 14.486695,53.230136 14.384985,52.573241 14.332617,52.555052 14.309946,52.45404 14.302865,52.407712 13.925972,52.234701 13.072025,52.859839 12.855452,52.999044 12.778107,52.354287 12.745669,51.692886 12.691985,51.668244 12.678384,51.555703 12.675576,51.496204 12.297376,51.267551 11.442917,51.739483 11.168634,51.864191 11.159405,51.243064 11.20278,50.605779 11.148581,50.573012 11.14691,50.427619 11.150638,50.375315 10.755618,50.059234 9.966004,50.360675 9.619535,50.453748 9.675204,49.876684 9.792938,49.288929 9.739166,49.245904 9.759538,49.054207 9.766144,49.022135 9.350602,48.574973 8.674952,48.72128 8.259753,48.754684 8.372074,48.235528 8.55429,47.718066 8.503106,47.662988 8.56155,47.41482 8.133132,46.775566 7.61423,46.812016 7.146985,46.77044 7.300794,46.31146 7.527461,45.871832 7.48184,45.80376 7.570238,45.56261 7.156579,44.712626 6.758766,44.694896 6.271485,44.582776 6.453756,44.167532 6.706919,43.788662 6.669635,43.712052 6.783901,43.477382 6.431436,42.460569 6.075377,42.413712 5.608064,42.251384 5.820054,41.848096 6.099583,41.503216 6.069806,41.417316 6.20856,41.18358 5.954591,40.093404 5.525502,40.011724 5.129893,39.836696 5.38952,39.397568 5.712503,39.054223 5.688762,38.952311 5.850782,38.714364 5.708794,37.679292 5.051944,37.522444 4.801285,37.391924 5.146667,36.858311 5.545068,36.48575 5.526971,36.353824 5.686399,36.142274 5.621719,35.433184 5.425777,35.331264 5.499871,35.236713 4.769422,35.016999 4.622724,34.929236 5.04546,34.345292 5.488548,33.973215 5.475707,33.83244 5.610036,33.673126 5.539077,32.848055 4.855405,32.564668 4.646376,32.419152 5.050465,31.946017 5.436617,31.656732 5.427463,31.550278 5.502027,31.475562 5.331807,30.162844 4.967521,29.872222 5.12376,29.730169 5.258467,29.642002 5.152283,29.183214 5.423845,29.138656 6.40987,28.859889 6.470127,29.126348 6.919784,29.492177 7.253017,29.724402 6.591977,30.134953 6.717258,30.854549 6.782754,31.736206 6.871895,31.795314 6.985018,31.850962 6.800822,31.979425 6.802541,32.002569 6.764247,32.035988 6.810159,32.35861 6.857804,34.152169 6.913026,34.17376 6.859444,34.213943 6.859812,34.227747 6.84638,34.240929 6.863595,34.365344 6.933802,36.553788 7.011801,36.579188 6.936572,36.640131 6.937395,36.665775 6.919227,36.68544 6.954071,36.884291 7.109803,38.924563 7.169408,38.949391 7.266412,38.97522 7.12354,39.104535 7.127636,39.158199 7.10263,39.188332 7.197056,39.540904 7.473756,41.217858 7.558416,41.244547 7.679022,41.265728 7.511482,41.446494 7.521496,41.507184 7.50085,41.535995 7.649028,41.92902 8.038919,43.377811 8.13526,43.39654 8.261801,43.404556 8.103048,43.616105 8.118593,43.673867 8.106041,43.69507 8.292408,44.058931 8.804501,45.350532 8.900598,45.355388 9.021768,45.34674 8.892167,45.571644 8.911706,45.620923 8.906531,45.632217 9.11609,45.93568 9.764315,47.084859 9.852687,47.074064 9.962607,47.04848 9.871554,47.274974 9.896457,47.319122 10.115112,47.550327 10.920425,48.545707 11.002442,48.520532 11.098476,48.48096 11.044543,48.708127 11.292871,48.904836 12.246638,49.764393 12.321395,49.727631 12.404557,49.677808 12.383936,49.892135 12.630721,50.04058 13.696577,50.760269 13.768181,50.711596 13.84515,50.650264 13.851086,50.866852 14.115614,50.988099 15.221793,51.555119 15.298612,51.488044 15.379615,51.406496 15.413906,51.655759 15.739859,51.769075 16.776327,52.171671 16.86758,52.072823 16.964628,51.955232 17.040167,52.274461 17.481872,52.381912 18.363475,52.62203 18.470925,52.480372 18.585582,52.31806 18.717813,52.714255 19.282009,52.795372 19.988038,52.909307 20.106095,52.721812 20.232048,52.517968 20.425355,52.967651 21.063553,52.998051 21.65229,53.029437 21.769617,52.80556 21.895064,52.577124 22.134133,53.032534 22.759143,53.002816 23.353187,52.970992 23.451732,52.740787 23.558077,52.517968 23.809032,52.916799 24.359313,52.837976 25.057181,52.724024 25.12683,52.513704 25.20452,52.31806 25.440667,52.630136 25.892531,52.520536 26.720603,52.291877 26.722846,52.284684 26.737858,52.279465 26.77663,52.113271 26.8255,51.95524 27.030308,52.177795 27.38654,52.053951 28.35302,51.674375 28.355166,51.664388 28.36682,51.659021 28.384006,51.530627 28.410516,51.406492 28.584483,51.558781 28.87234,51.426215 29.918633,50.887417 29.919722,50.877643 29.930356,50.871192 29.932982,50.759611 29.944976,50.650264 30.109799,50.762319 30.366936,50.606307 31.385846,49.918376 31.385847,49.906476 31.397081,49.897463 31.38608,49.787431 31.385564,49.677788 31.562704,49.764568 31.818468,49.559343 32.724634,48.745235 32.722504,48.727648 32.73494,48.714246 32.707138,48.598727 32.691652,48.480956 32.894436,48.54236 33.159479,48.256728 33.904069,47.340799 33.897048,47.313123 33.910093,47.293699 33.861799,47.174183 33.82752,47.04848 34.057062,47.074867 34.319344,46.684335 34.896344,45.667623 34.878415,45.620944 34.89101,45.595437 34.822472,45.47648 34.76836,45.346772 35.021515,45.331147 35.263707,44.840672 35.703155,43.736787 35.671528,43.673868 35.682565,43.643236 35.59918,43.5316 35.528328,43.404564 35.788152,43.350208 35.98806,42.795412 36.312999,41.580097 36.268624,41.507196 36.277048,41.473998 36.190296,41.3797 36.111116,41.265776 36.3501,41.186116 36.487628,40.644148 36.711405,39.228189 36.662484,39.158187 36.667496,39.127775 36.5954,39.06196 36.523728,38.975232 36.705747,38.895653 36.775464,38.472583 36.885599,36.707872 36.852716,36.665759 36.854572,36.650578 36.818408,36.62118 36.778336,36.579204 36.869101,36.531723 36.898079,36.294688 36.954183,34.255001 36.930315,34.227747 36.931292,34.219184 36.906851,34.200907 36.8771,34.17376 36.94082,34.135639 36.96596,33.915199 37.054466,32.067793 36.987592,32.002594 36.989818,31.986815 36.909372,31.930984 36.805108,31.850986 37.030957,31.695148 37.248112,30.155579 37.195453,30.116439 36.869704,29.912298 36.537108,29.724416 36.900456,29.420668 37.327123,29.10481 37.380316,28.859885" slic3r:type="contour"/>
  </g></svg>