<svg width="43.790126" height="63.590156" xmlns="http://www.w3.org/2000/svg" xmlns:svg="http://www.w3.org/2000/svg" xmlns:xlink="http://www.w3.org/1999/xlink" xmlns:slic3r="http://slic3r.org/namespaces/slic3r"><g xmlns="http://www.w3.org/2000/svg" slic3r:z="2.24449999999999e-005" id="layer67">
    <polygon style="fill: white" points="26.593296,4.157284 26.966314,4.146174 27.294626,4.463131 27.319319,4.492157 27.619426,4.334092 27.658477,4.46651 27.758371,5.008261 27.857567,5.124866 27.897633,5.26153 28.25682,5.050073 28.647082,4.876521 28.760954,5.386225 28.777713,5.563454 29.188094,5.637672 29.242853,5.634854 29.400912,5.545104 29.425694,5.549533 29.582535,5.448435 29.69694,5.391743 29.753064,5.608045 29.91309,5.636647 30.30706,5.622496 30.480508,5.85436 30.631342,5.958185 30.824392,5.820004 30.867518,5.937664 30.929186,6.163201 30.94725,6.175636 30.955835,6.200888 31.154022,6.30935 31.674487,6.509834 32.096126,6.15815 32.190355,6.394517 32.31635,6.75708 32.340578,6.766413 32.34439,6.776265 32.880611,6.934963 32.914142,6.908495 32.973126,6.930438 33.097061,6.830733 33.484208,6.520284 33.582803,6.806571 33.702952,7.178339 33.720856,7.183638 33.730171,7.211901 34.172596,7.376233 34.3146,7.292356 34.3799,7.333628 34.49008,7.265634 34.898988,7.00962 34.968151,7.331304 35.044931,7.700248 35.056404,7.704509 35.068166,7.769002 35.388863,7.972115 35.637784,7.892549 35.683637,7.947522 35.819188,7.899633 36.256968,7.748844 36.259768,8.133736 36.261404,8.524453 36.332428,8.557025 36.33203,8.69645 36.518625,8.837994 36.648687,8.823965 36.666065,8.854863 36.680752,8.852627 36.709216,8.883247 37.018424,8.84184 37.397843,8.798198 37.291115,9.27816 37.265783,9.389109 37.328976,9.434322 37.308091,9.527454 37.683889,9.931698 37.792836,9.932355 37.819817,9.97091 38.033759,9.971304 38.304184,9.976897 38.141835,10.389648 38.183424,10.431005 38.16823,10.468777 38.431452,10.844909 38.633617,11.105336 38.715916,11.113877 38.734968,11.148112 38.860224,11.15799 39.02764,11.173708 38.893303,11.439859 38.915968,11.469056 38.914797,11.471248 39.064487,11.740229 39.381853,12.242089 39.431868,12.249254 39.443054,12.272944 39.510075,12.280035 39.606956,12.290852 39.522983,12.44222 39.610603,12.627784 39.943246,13.241614 39.980907,13.248765 39.988292,13.268041 40.031963,13.274298 40.099964,13.284361 40.035407,13.391013 40.08668,13.524841 40.428384,14.290917 40.458356,14.299636 40.462576,14.314894 40.534172,14.331835 40.485888,14.39917 40.512507,14.49541 40.884193,15.550188 40.891624,15.553602 40.89203,15.556995 40.902808,15.560901 40.892063,15.57286 40.936152,15.775623 40.97284,17.091053 40.960745,17.228049 41.132168,17.369266 41.067947,17.39468 40.942759,17.431777 40.928159,17.597148 41.075428,17.618864 40.456587,18.553341 40.484616,18.621213 40.391197,18.755014 40.553888,19.2014 40.654916,19.856716 40.111516,19.811544 39.826623,19.695425 39.991824,20.197402 40.056204,21.100972 39.705108,20.951366 39.519332,20.821428 39.461159,20.866949 39.526219,21.03593 39.612259,21.969394 39.453044,21.92433 39.227905,21.798211 39.377819,22.478443 39.459688,22.401006 39.383546,22.504433 39.391164,22.538993 39.40452,22.583252 39.308334,22.589078 39.17973,22.702663 39.192528,22.731607 39.188559,22.735746 39.26686,22.905816 39.429136,23.22219 39.101159,23.702148 39.009172,23.853411 39.1015,23.971744 39.709062,24.855681 39.755032,24.880782 39.781716,24.88846 39.751627,24.917608 39.759652,24.929284 39.759319,24.929817 39.814696,25.008172 39.806112,26.284864 39.638574,27.006522 39.938331,27.190245 40.180394,27.471185 40.581451,27.705479 40.750024,27.766852 40.574597,27.928701 40.65286,28.019534 40.623174,28.07373 40.79428,28.162756 40.960088,28.359814 41.051664,29.533559 40.933716,30.144468 41.101416,30.267502 41.101489,30.455197 41.421376,30.697702 41.859484,30.940552 41.49272,31.251897 41.449596,31.337363 41.630184,31.551808 41.56284,31.671288 41.924304,31.843024 42.20882,32.213388 42.144948,33.053796 41.955724,33.539119 42.083844,33.67562 42.017999,33.916421 42.202796,34.150916 42.708484,34.6784 42.309102,35.004106 42.491804,35.254264 42.452714,35.313081 42.689235,35.449855 42.831704,35.630812 42.5106,36.487863 42.016698,37.13416 42.171544,37.439104 42.07016,37.590135 42.176142,37.813228 42.468788,38.015304 43.009104,38.734128 42.92022,38.920428 42.779165,39.082593 42.815792,39.159692 42.774817,39.215064 43.006908,39.632284 42.7641,39.817512 41.994681,40.779699 42.055475,40.831035 42.196412,41.026528 42.138544,41.083529 42.667252,41.51738 42.908964,41.796728 42.487059,42.324312 41.825547,42.879888 41.325172,42.35072 40.86774,42.043508 41.351916,41.586127 41.834684,41.062066 41.808872,41.008492 41.968418,40.778121 41.461952,40.054836 41.185046,39.363467 41.049168,39.236736 41.001388,39.207824 41.090158,39.126555 41.084308,39.111947 41.100646,39.085621 41.052496,39.021224 40.999448,38.885712 41.379684,38.119139 41.834383,37.580117 41.675416,37.448104 41.775364,37.188636 41.867431,37.048809 41.323459,36.568163 40.874752,36.353548 41.405453,35.605838 41.292044,35.41522 41.349386,35.241764 41.019347,34.974971 40.622056,34.3896 40.71998,34.162935 40.870302,33.991733 40.792092,33.931072 40.886843,33.676521 40.438436,33.47791 40.662244,32.820828 40.854517,32.063247 40.657712,31.857994 40.670155,31.710904 40.274068,31.512962 39.780148,31.092405 39.858764,30.900518 39.994741,30.739527 39.920232,30.68578 40.040202,30.356139 39.432332,30.09686 39.561252,28.70781 39.344636,28.556466 39.343965,28.457673 39.097356,28.355766 38.742348,28.131961 38.897855,27.792064 39.065624,27.575948 38.963248,27.483678 39.125883,27.150418 39.158431,27.101153 38.393924,26.242756 38.010367,25.929274 38.054169,25.48063 37.993264,25.4468 37.995415,25.425875 37.946591,25.405473 37.85732,25.362512 38.02828,25.106105 38.160952,23.815287 37.910795,23.255004 37.823056,23.21216 37.804907,23.122268 37.379716,22.894046 37.56148,22.68801 37.628981,22.623819 37.618344,22.599994 37.687097,22.538768 37.397207,21.102973 37.358506,20.914859 37.339206,20.896296 37.320804,20.88351 37.341699,20.868918 37.372472,20.620194 37.904888,20.140349 37.990952,20.058176 37.868472,19.85203 37.651359,19.496522 38.222307,19.595808 38.481432,19.589863 38.566322,19.50881 38.525056,19.325432 38.552622,19.272562 38.327155,18.814727 38.111216,18.389564 38.692223,18.557231 39.054951,18.598786 39.122265,18.523764 38.778931,17.873353 38.563816,17.49448 39.131648,17.631952 39.527644,17.644822 39.621675,17.516643 39.046364,16.890224 38.856312,16.777016 39.31982,16.759266 39.538765,16.645115 39.374355,16.090332 39.168899,15.966105 38.826452,15.842793 39.008696,15.748284 39.137175,15.613983 38.975043,15.293795 38.864069,15.004511 38.609496,14.943012 38.682096,14.882507 38.745393,14.793131 38.368187,14.144577 38.343162,14.091949 38.28374,14.082323 38.315395,14.046085 38.130703,13.755247 37.938528,13.190092 37.874255,13.177329 37.833996,13.173494 37.897658,13.056881 37.847852,12.93957 37.563648,12.163694 37.399419,12.139028 37.288568,12.12755 37.436053,11.815341 37.271203,11.466988 37.106577,11.102544 36.843203,11.08934 36.656504,11.076923 36.762251,10.760347 36.835433,10.563179 36.535724,10.07018 36.180083,10.108441 35.927472,10.120422 35.973292,9.83295 36.059263,9.449549 35.785076,9.142616 35.389451,9.280123 35.103212,9.359245 35.091628,9.072879 35.095806,8.644176 34.742928,8.460711 34.377403,8.678254 34.100448,8.831977 34.035104,8.539001 33.946292,8.101697 33.526864,7.951879 33.180355,8.21314 32.903258,8.427495 32.811061,8.143457 32.668105,7.719222 32.177258,7.593663 32.150645,7.614244 32.14078,7.612621 31.890707,7.813307 31.58223,8.086997 31.493303,7.834654 31.356283,7.481689 30.739044,7.361419 30.664943,7.411165 30.589107,7.3992 30.209216,7.72464 30.155046,7.542926 30.077204,7.318433 29.283206,7.19316 29.043689,7.151064 29.017728,7.16552 28.991815,7.16188 28.89886,7.231287 28.890473,7.187319 28.87962,7.146123 28.647786,7.113563 28.113523,6.474035 27.88415,6.58997 27.735794,6.680431 27.6935,6.155681 27.653969,5.923935 27.503498,5.743818 27.160806,5.943621 26.80313,6.193452 26.779168,5.89816 26.73273,5.687702 26.628111,5.739999 26.655462,5.978666 26.655432,5.978651 26.605301,6.028567 26.642856,6.107165 26.428756,6.118315 26.242275,6.130712 26.192162,6.185416 26.359004,6.645683 26.056993,6.654307 25.757653,6.656042 25.750824,6.863905 25.751118,7.316332 25.391049,7.208065 25.056216,7.090456 24.967672,7.326309 24.838359,7.70968 24.504346,7.444293 24.237429,7.218833 24.064325,7.525445 23.885032,7.861527 23.589023,7.517131 23.381098,7.267682 23.364262,7.270929 23.332566,7.23201 23.098674,7.587731 22.894794,7.906459 22.625999,7.533509 22.440538,7.273351 22.403022,7.275325 22.362722,7.218421 22.110621,7.589117 21.895064,7.907087 21.638057,7.529503 21.427209,7.218834 21.387148,7.275399 21.347743,7.273015 21.114718,7.597366 20.895332,7.906461 20.641189,7.522747 20.455098,7.234721 20.425872,7.270924 20.403544,7.266508 20.146848,7.567804 19.905094,7.861533 19.679492,7.467751 19.541849,7.215022 19.260267,7.442636 18.951766,7.709681 18.798235,7.311729 18.716623,7.078937 18.472715,7.155515 18.039008,7.316332 18.023196,6.942625 18.02012,6.644104 17.431126,6.645666 17.530402,6.384207 17.603271,6.185196 17.580172,6.138166 17.147272,6.10717 17.222166,5.951417 17.13464,5.978641 17.135484,5.964536 17.045064,5.951102 16.986996,6.193456 16.651592,6.009749 16.273605,5.761381 16.164659,5.882125 16.093473,6.47201 16.054327,6.680438 15.626456,6.478621 15.478252,6.642876 15.142209,7.113621 14.962753,7.130938 14.917053,7.139251 14.891211,7.231307 14.846828,7.205875 14.785525,7.163176 14.772391,7.165566 14.736343,7.146818 13.993059,7.251091 13.735163,7.298674 13.580872,7.724643 13.408057,7.607225 13.156856,7.405373 13.125291,7.411197 13.013387,7.340326 12.454959,7.451629 12.367431,7.689098 12.207882,8.087009 11.978315,7.910646 11.597594,7.586665 11.128859,7.706782 11.001398,8.092489 10.886899,8.427496 10.633156,8.238524 10.268561,7.959613 9.836888,8.113722 9.749136,8.526277 9.689708,8.831962 9.427358,8.670114 9.09236,8.477871 8.682354,8.68901 8.677224,9.069729 8.686927,9.35923 8.418787,9.255234 8.070415,9.146325 7.947662,9.234846 7.723789,9.488 7.800252,9.880393 7.862679,10.120401 7.570955,10.079992 7.275308,10.056098 6.998834,10.513321 6.952804,10.586029 7.063968,10.899734 7.133618,11.076942 6.783192,11.091866 6.673552,11.098104 6.510585,11.440335 6.351526,11.799039 6.452843,12.018011 6.501557,12.127582 6.200541,12.17882 6.118298,12.370367 5.889317,13.036533 5.937765,13.131811 5.956162,13.173463 5.834253,13.202979 5.807531,13.263778 5.659435,13.755256 5.479146,14.026655 5.506391,14.082352 5.481424,14.091451 5.432826,14.10231 5.081904,14.656444 5.049393,14.72559 5.180656,14.942952 5.071616,14.998627 4.841416,15.071625 4.688654,15.324455 4.637767,15.460891 4.663132,15.481345 4.963685,15.8428 4.736878,16.019347 4.245982,16.245542 4.180472,16.490822 4.6923,16.625343 4.933829,16.776996 4.545679,17.330784 4.285609,17.516256 4.314338,17.588877 4.94705,17.50363 5.226306,17.494536 4.917401,18.148386 4.670637,18.569516 5.422129,18.421094 5.67891,18.389564 5.391899,19.011567 5.242995,19.298715 5.265071,19.325432 5.238191,19.493031 5.292272,19.53802 5.949187,19.492028 6.13877,19.49653 5.855079,20.006211 5.925516,20.064806 6.417614,20.61995 6.437601,20.833739 6.44526,20.867295 6.469333,20.883516 6.462846,20.887293 6.433248,20.909231 6.200493,22.103926 6.10704,22.547619 6.171785,22.599972 6.153974,22.654811 6.410401,22.89402 6.158425,23.000938 6.018381,23.072303 5.869132,23.531836 5.745468,23.75722 5.831344,24.109832 5.803187,25.200471 5.841848,25.25314 5.932808,25.362516 5.797588,25.417319 5.796826,25.446846 5.771545,25.459067 5.799949,25.610408 5.779715,25.929456 5.197188,26.84709 4.675808,27.218722 4.826878,27.483728 4.68195,27.676709 4.732901,27.764316 5.047788,28.131978 4.493668,28.356312 4.466682,28.370445 4.445477,28.556498 4.328319,28.622044 4.412462,29.145409 4.357822,30.096756 4.096556,30.379852 3.782534,30.515939 3.869871,30.685754 3.742269,30.815091 4.009957,31.092446 3.673523,31.261322 3.136929,31.619968 3.132393,31.858056 2.988597,31.973913 3.218889,32.566545 3.351737,33.477762 3.176242,33.662756 2.919649,33.784343 2.998017,33.93102 2.866561,34.06369 3.168073,34.389644 2.747694,34.749564 2.425935,35.101025 2.498056,35.41528 2.429463,35.502027 2.70694,35.881248 2.915359,36.353664 2.580707,36.731504 1.929774,37.087982 2.114742,37.448076 1.943078,37.615064 2.645237,38.707116 2.790681,38.885716 2.677058,39.056715 2.714126,39.12788 2.753081,39.1636 2.788737,39.207824 2.472787,39.549524 1.820522,40.774334 1.885652,40.851392 1.981283,41.008488 1.95874,41.047468 2.548276,41.600144 2.922409,42.043504 2.658042,42.366435 1.964568,42.879864 1.276056,42.127523 0.881164,41.796712 1.411683,41.377344 1.666293,41.110227 1.593796,41.02652 1.795617,40.785631 1.187641,40.295784 0.783221,39.632224 0.892581,39.355508 0.995955,39.184656 0.974356,39.159656 1.024288,39.020248 0.781021,38.734048 0.937467,38.634075 1.33265,38.201767 1.715478,37.560179 1.618572,37.439048 1.70743,37.198151 1.766499,37.106841 1.148515,35.88606 0.958446,35.63074 1.377588,35.421211 1.298357,35.25424 1.375333,35.1742 1.19074,34.989708 1.081671,34.678364 1.455424,34.060099 1.748856,33.779366 1.706316,33.675564 1.92141,33.368012 1.863393,33.078964 1.581324,32.213386 2.195356,31.959672 2.286906,31.872723 2.159916,31.551868 2.236733,31.483979 2.027357,31.248496 1.930636,30.940618 2.351026,30.531536 2.699339,30.33984 2.688723,30.267536 2.956238,29.989524 2.919319,29.143143 2.829968,28.359964 3.192553,28.162403 3.137293,28.019579 3.159566,27.999325 3.076261,27.895206 3.040106,27.766796 3.518013,27.386138 3.943715,27.210994 3.940462,27.182672 4.131988,26.983378 4.205317,26.953755 4.004673,25.178615 3.975373,25.00834 4.041042,24.941291 4.017174,24.912615 4.008392,24.888496 4.125245,24.80074 4.784809,23.905489 4.708929,23.787989 4.360995,23.222182 4.594308,22.737148 4.504023,22.662456 4.449543,22.585296 4.41804,22.583559 4.385605,22.583249 4.402503,22.52404 4.330438,22.401006 4.431174,22.323251 4.533712,21.677893 4.466176,21.645872 4.177863,21.969393 4.330712,21.454109 4.474083,20.882993 4.443369,20.80586 4.375358,20.531204 4.136314,20.621621 3.733925,21.100946 4.011272,20.000759 4.036544,19.878275 3.894974,19.563115 3.519062,19.600474 3.135217,19.856689 3.445469,18.834377 3.305526,18.62124 3.369376,18.492928 3.235964,18.24675 2.714701,17.618874 2.86266,17.580632 2.86189,17.420574 2.657956,17.369266 2.739474,17.284799 2.860696,17.172656 2.853973,15.775624 2.895197,15.570064 2.886118,15.559507 2.902714,15.551591 3.299371,14.394201 3.283149,14.37135 3.255954,14.331893 3.325977,14.316572 3.331766,14.299681 3.352988,14.293349 3.384164,14.212137 3.749325,13.384531 3.725351,13.344551 3.690166,13.284359 3.800409,13.268751 3.809228,13.248763 3.833782,13.243939 3.892191,13.120477 4.261091,12.430862 4.229755,12.374465 4.183137,12.290882 4.344937,12.274121 4.35823,12.249272 4.390192,12.244618 4.516396,12.019464 4.887007,11.41774 4.83412,11.313405 4.762489,11.173678 5.050113,11.152919 5.074164,11.113871 5.129092,11.108262 5.418362,10.698917 5.611651,10.443031 5.606726,10.431096 5.648972,10.386052 5.575774,10.200873 5.485957,9.976879 5.961285,9.980167 5.997418,9.932332 6.074823,9.932003 6.477148,9.503034 6.461125,9.434396 6.526062,9.385433 6.467285,9.123382 6.392284,8.798198 6.82051,8.859221 7.073175,8.889634 7.109604,8.852595 7.123662,8.854715 7.141384,8.823945 7.252051,8.838027 7.458799,8.682136 7.457694,8.556917 7.529616,8.522459 7.531892,8.166835 7.533111,7.748862 7.853836,7.863308 8.103379,7.949957 8.152336,7.892536 8.396455,7.975627 8.721949,7.769553 8.733649,7.704567 8.747819,7.699296 8.797954,7.463821 8.89109,7.009635 9.151386,7.169463 9.41273,7.332211 9.475656,7.292372 9.616158,7.376466 10.060401,7.211451 10.069276,7.183614 10.095846,7.174891 10.160483,6.983591 10.305918,6.52028 10.529828,6.700581 10.81641,6.930629 10.875993,6.908497 10.890778,6.920293 11.50082,6.739146 11.534192,6.65212 11.693973,6.158161 11.868772,6.315199 12.05902,6.47731 12.348398,6.340061 12.898944,6.120238 12.96576,5.819985 13.046383,5.889841 13.114272,5.941155 13.483245,5.622426 14.070273,5.572295 14.0893,5.488744 14.093215,5.391745 14.319468,5.551013 14.389181,5.54506 14.419464,5.563739 15.087118,5.473861 15.140791,5.203389 15.143033,4.876511 15.458509,5.080395 15.887408,5.290859 15.932612,5.124816 16.094902,4.94661 16.105668,4.907009 16.170677,4.334093 16.254404,4.395498 16.479002,4.524842 16.823864,4.146159 17.219134,4.150101 17.313731,4.043767 17.357415,3.983114 17.465644,4.152558 17.473526,4.152637 17.567492,4.269364 18.109731,4.476959 18.168583,4.470625 18.338449,4.433884 18.411074,4.425297 18.400211,4.642737 18.74206,4.954051 18.779756,5.120465 18.875056,5.143363 18.867308,5.182259 18.733437,5.499175 19.077016,5.551484 19.040742,5.745178 19.195432,5.710336 19.222231,5.969449 19.480586,5.791239 19.658379,6.197987 19.700608,6.32567 19.963634,6.024121 20.101194,5.875845 20.338352,6.272037 20.423602,6.42285 20.54932,6.42544 20.827316,6.058827 20.940776,5.910707 21.196949,6.287711 21.30125,6.438009 21.509642,6.439303 21.782895,6.062409 21.895064,5.911043 22.156158,6.275369 22.27513,6.437425 22.486704,6.436109 22.742858,6.062887 22.849352,5.910718 23.123654,6.274385 23.233128,6.417925 23.379948,6.414961 23.5977,6.041565 23.688934,5.875844 23.973746,6.213183 24.110273,6.3643 24.252434,6.000174 24.30954,5.79124 24.583665,6.049366 24.64697,6.015392 24.594708,5.710336 24.780744,5.806477 24.832348,5.751669 24.713114,5.551482 24.840974,5.576842 24.963754,5.567838 24.963976,5.407625 24.977085,5.281353 24.970432,5.266566 24.976497,5.242153 24.91507,5.143362 24.937956,5.147457 25.002401,5.137874 25.048066,4.954052 25.393907,4.642106 25.385428,4.495635 25.37905,4.425299 25.578547,4.475562 25.58802,4.467018 25.667405,4.484115 26.212977,4.275446 26.286276,4.188557 26.378354,4.05208 26.432708,3.983103" slic3r:type="contour"/>
    <polygon style="fill: white" points="2.679491,43.813348 3.11678,44.210788 2.774097,44.897792 3.119667,45.202539 3.25169,45.310628 2.740666,45.93606 2.368357,46.231728 1.208085,45.2224 1.19118,45.211084 1.228724,45.173135 1.179521,45.1163 1.562073,44.101696 1.983495,43.13616" slic3r:type="contour"/>
    <polygon style="fill: white" points="42.569247,45.018211 42.61064,45.116132 42.5446,45.163146 42.598959,45.21108 41.823251,45.961504 41.421788,46.231648 40.675624,45.40956 40.538448,45.310652 40.984803,44.918545 40.808143,44.583339 40.67338,44.210676 41.107256,43.766967 41.80668,43.13604" slic3r:type="contour"/>
    <polygon style="fill: white" points="41.933804,48.777996 42.04828,48.900488 41.544833,49.131842 41.571311,49.169803 41.409415,49.243789 41.614524,49.712628 41.774988,50.159535 41.415227,50.754072 41.201015,51.057502 41.218268,51.085336 41.184048,51.154925 41.467419,51.517356 41.299063,51.567928 40.916464,51.699092 40.74928,52.039083 40.317356,52.777682 40.383556,52.916272 40.327858,53.014538 40.720912,53.658803 40.453723,53.684288 39.864098,53.798472 39.41329,54.489543 39.470032,54.670548 39.413817,54.743439 39.432156,54.803652 39.709628,55.501844 39.44312,55.473356 38.828561,55.4801 38.245749,56.168435 38.269316,56.330464 38.22856,56.366552 38.358348,57.098808 38.140224,57.03094 37.601274,56.929598 37.593747,56.938487 37.586597,56.936218 36.660506,57.700483 36.6603,57.79096 36.63038,57.810698 36.634931,58.462292 36.465827,58.381163 36.035151,58.216562 36.01108,58.236427 35.995859,58.229317 35.667192,58.446151 34.759945,59.010913 34.75376,59.06192 34.728031,59.07535 34.666092,59.60572 34.543252,59.529912 34.211741,59.352171 34.186132,59.368111 34.177305,59.362828 33.417756,59.759312 32.659449,60.134823 32.652672,60.165588 32.628819,60.175935 32.549456,60.555932 32.469177,60.497011 32.239078,60.344996 30.908026,60.922375 30.457933,61.107483 30.452854,61.12416 30.435367,61.130734 30.379494,61.331655 30.339898,61.298636 30.223982,61.210208 28.319065,61.926392 28.244939,61.935176 28.240288,61.94844 28.228586,61.937115 28.226516,61.93736 28.224343,61.935486 28.169787,61.939104 26.280055,62.028339 26.142571,62.320464 26.115376,62.381252 25.820975,62.050017 25.763984,62.052708 25.7165,62.005353 24.49132,62.026459 24.348568,62.02657 24.057985,62.54274 24.002028,62.643036 23.532107,62.027199 23.44775,62.027264 23.40473,61.976531 22.399177,61.972181 21.971582,62.618831 21.895064,62.730751 21.433693,62.026295 21.393522,61.967349 20.390589,61.97081 20.342256,62.027404 20.270342,62.02576 19.861529,62.553208 19.7881,62.64304 19.428865,62.00652 18.497131,61.985216 18.090193,61.98936 18.02616,62.05266 17.978509,62.049034 17.721767,62.332508 17.67472,62.381252 17.498859,62.012548 17.004826,61.974968 15.566731,61.934692 15.563606,61.93736 15.562505,61.937194 15.549838,61.94844 15.543926,61.933433 15.471075,61.926396 13.867737,61.310671 13.574801,61.207661 13.410661,61.331664 13.393266,61.279587 13.35035,61.128733 13.337278,61.124136 13.329334,61.098969 12.151933,60.580187 11.579542,60.346262 11.570478,60.352624 11.560237,60.34721 11.240697,60.555932 11.213457,60.452432 11.153179,60.172016 11.137459,60.165592 11.126438,60.117904 10.418151,59.743504 9.628477,59.35399 9.603967,59.368092 9.590619,59.359182 9.124042,59.60572 9.097247,59.45124 9.050237,59.068768 9.03633,59.061908 9.025668,58.982055 8.73283,58.786576 7.819111,58.219091 7.779167,58.236456 7.773605,58.231472 7.155216,58.462292 7.14338,58.256444 7.143569,57.799531 7.129897,57.79104 7.127449,57.655878 6.269635,56.948206 6.242668,56.955639 5.431783,57.098828 5.456109,56.845723 5.540742,56.346891 5.520775,56.330419 5.54618,56.122547 5.025214,55.505631 4.825018,55.520384 4.080516,55.501868 4.159244,55.216044 4.354258,54.711103 4.320068,54.670616 4.383181,54.442461 3.992838,53.832505 3.76724,53.80528 3.069235,53.658839 3.187742,53.399215 3.442337,52.972283 3.406554,52.916368 3.488182,52.726217 2.933478,51.732924 2.322707,51.517355 2.41181,51.370351 2.596535,51.129569 2.571831,51.085332 2.600242,51.035133 2.015138,50.15952 2.402015,49.252035 2.218865,49.169748 2.248063,49.128629 1.860212,48.951452 1.741843,48.900472 2.208988,48.128587 2.560443,47.74534 3.427532,48.164163 3.684636,48.218712 3.144886,49.003687 3.170216,49.0341 3.114512,49.110855 3.617249,49.874267 4.062592,50.684994 4.188407,50.727484 4.231271,50.733868 4.152831,50.849269 4.157483,50.857736 4.149833,50.869742 4.236286,51.026208 4.629094,51.911951 4.706834,52.443112 4.681416,52.646883 4.88582,52.657448 4.867038,52.690832 4.799012,52.827556 5.407451,53.969048 5.477714,54.240102 5.499737,54.239771 5.511141,54.251182 5.726131,54.229496 5.713526,54.262535 5.666841,54.406983 6.828325,55.569215 6.830447,55.568658 8.232973,56.769601 8.275044,56.753239 8.295437,56.745019 8.292547,56.81935 8.415775,56.895707 9.926583,57.842599 10.014135,57.796132 10.051286,57.776296 10.065761,57.928498 10.343935,58.065452 11.792239,58.785802 11.939748,58.689955 11.996224,58.652583 12.04788,58.913329 12.564862,59.125675 13.716457,59.609389 13.945637,59.436836 14.026515,59.37266 14.142236,59.788232 14.153702,59.793048 14.155383,59.798138 15.036985,60.114115 15.595272,60.322736 15.919703,60.041292 16.031265,59.93726 16.252234,60.566963 17.455507,60.908265 17.866541,60.490476 18.004848,60.340116 18.323907,61.067199 18.369896,61.161342 19.334493,61.340876 19.801996,60.774151 19.95596,60.580788 20.316191,61.241139 20.473282,61.508589 21.279156,61.563555 21.741238,60.881639 21.895064,60.660596 22.310509,61.275819 22.510635,61.56539 23.310241,61.511109 23.703257,60.798972 23.834168,60.580784 24.329355,61.178487 24.464686,61.346838 25.402119,61.174118 25.689504,60.530379 25.78531,60.340112 26.358076,60.917672 27.397034,60.626079 27.509714,60.591406 27.51605,60.576376 27.523885,60.573588 27.698986,60.083939 27.758837,59.93726 28.213418,60.328263 28.978428,60.056083 29.631141,59.808515 29.636415,59.793047 29.642402,59.790596 29.732175,59.47284 29.76361,59.372656 30.081734,59.610662 30.617974,59.391039 31.734543,58.919502 31.735358,58.916331 31.740468,58.913818 31.779618,58.718312 31.793902,58.652592 31.999973,58.786182 32.337381,58.620228 33.723405,57.929785 33.734267,57.817552 33.738868,57.776268 33.864668,57.84299 34.052235,57.726844 35.496836,56.820289 35.494916,56.767015 35.49472,56.745 35.558999,56.769886 35.640263,56.702664 36.959509,55.568668 36.963253,55.569482 37.903132,54.743695 38.129931,54.448634 38.06394,54.229516 38.098528,54.229752 38.287285,54.243918 38.290472,54.239772 38.413812,54.239959 38.799668,53.515943 39.011283,52.884743 38.904288,52.657508 38.938415,52.651052 39.094218,52.637363 39.096807,52.62964 39.165319,52.616241 39.16126,51.9113 39.647346,50.881616 39.632628,50.857724 39.634616,50.854482 39.583456,50.778723 39.55886,50.733884 39.752757,50.661808 40.690905,49.131799 40.619988,49.034156 40.643138,49.007383 40.270144,48.465168 40.105492,48.218732 40.734676,47.879675 41.229684,47.74534" slic3r:type="contour"/>
  </g></svg>