<svg width="43.790126" height="63.590156" xmlns="http://www.w3.org/2000/svg" xmlns:svg="http://www.w3.org/2000/svg" xmlns:xlink="http://www.w3.org/1999/xlink" xmlns:slic3r="http://slic3r.org/namespaces/slic3r"><g xmlns="http://www.w3.org/2000/svg" slic3r:z="2.5e-007" id="layer0">
    <polygon style="fill: white" points="22.048751,1.157834 22.751048,1.193668 23.059974,1.210865 23.064045,1.18915 23.251821,1.221544 23.36703,1.227958 23.36668,1.241359 24.059264,1.360843 24.364004,1.416604 24.372012,1.392848 24.552336,1.451065 24.665812,1.471829 24.664346,1.487227 25.336284,1.704161 25.632327,1.802679 25.64412,1.779524 25.794744,1.856728 25.922658,1.899296 25.918024,1.919917 26.560638,2.249298 26.843832,2.395627 26.858925,2.374757 26.978484,2.465203 27.115074,2.535781 27.101166,2.558013 27.710632,3.019078 27.973463,3.217547 27.98958,3.20123 28.100049,3.313134 28.218962,3.402928 28.202277,3.41669 28.822509,4.044981 29.076148,4.304682 29.094426,4.290836 29.248789,4.481449 29.293754,4.527489 29.288579,4.530583 29.958985,5.358426 30.21329,5.688128 30.237184,5.674458 31.186975,6.992823 31.451311,7.398555 31.48424,7.384152 32.569924,8.987658 32.858966,9.478644 32.907032,9.463546 33.922044,11.242652 34.183412,11.781148 34.239304,11.770539 34.968448,13.613013 35.153765,14.168643 35.20916,14.166324 35.244942,14.442015 35.2506,14.458976 35.247201,14.459419 35.442048,15.960626 35.501589,16.508035 35.544532,16.515008 35.514347,16.625334 35.532784,16.794836 35.468456,16.79307 35.094107,18.16134 34.985918,18.618554 34.915276,18.917094 34.826285,18.902854 34.146872,20.112863 33.8396,20.786717 33.748184,20.768796 33.070127,21.783968 32.755352,22.398224 32.695369,22.391302 32.33152,23.14269 32.175529,23.585352 32.267166,24.20015 32.307565,24.505869 32.796049,25.276007 32.916764,25.51276 32.926897,25.508563 33.666559,26.483083 33.842924,26.753904 33.867975,26.743128 34.558328,27.93558 34.741411,28.266099 34.76346,28.25867 34.787592,28.34947 34.8764,28.509794 34.834952,28.527665 35.166119,29.773707 35.287462,30.176976 35.368028,30.444728 35.307186,30.457218 35.416664,31.87626 35.471484,32.279468 35.516104,32.607648 35.453839,32.619887 35.378072,34.081624 35.381307,34.52196 35.383648,34.840576 35.331123,34.848094 35.118068,36.232687 35.067855,36.697593 35.071576,36.698264 35.064941,36.724574 35.03712,36.98216 35.001522,36.976049 34.698756,38.176623 34.604663,38.592755 34.618756,38.597728 34.580723,38.698635 34.541224,38.873324 34.519192,38.861885 34.133471,39.885268 33.99756,40.250917 34.019768,40.263504 33.933882,40.422234 33.896572,40.522612 33.883667,40.515039 33.424908,41.362899 33.249697,41.676964 33.275608,41.69886 33.134909,41.882723 33.10679,41.933128 33.099605,41.928858 32.576095,42.612976 32.365604,42.875582 32.389352,42.904392 32.209244,43.070654 32.179384,43.107907 32.174262,43.102947 31.59417,43.638447 31.354639,43.850947 31.37132,43.878408 31.350485,43.892363 31.515803,44.286279 31.536787,44.340808 30.398794,45.111511 30.358637,45.138171 30.359913,45.142884 30.324136,45.161076 30.317357,45.165576 30.316735,45.164839 29.155997,45.755044 29.10001,45.783208 29.100852,45.787719 29.055546,45.805576 29.043238,45.811768 29.042529,45.810706 27.838404,46.285287 27.771739,46.311289 27.77218,46.314928 27.71857,46.332026 27.705849,46.336988 27.705427,46.336218 26.451237,46.73624 26.377944,46.75904 26.378136,46.762775 26.325172,46.775457 26.308306,46.780703 26.307812,46.779613 25.004177,47.091744 24.928595,47.109121 24.928498,47.11286 24.880814,47.120107 24.85844,47.125251 24.857843,47.123599 23.515931,47.327564 23.440181,47.338468 23.439775,47.342124 23.399564,47.344315 23.370854,47.348447 23.37017,47.345916 22.005886,47.420255 21.929911,47.42413 21.929192,47.427648 21.896195,47.425849 21.860936,47.427647 21.860271,47.423892 20.496734,47.349588 20.42009,47.34568 20.419272,47.348448 20.391459,47.34422 20.35035,47.342124 20.34998,47.337914 19.010276,47.13426 18.932528,47.123069 18.931685,47.125256 18.90752,47.119469 18.861628,47.112864 18.861604,47.108475 17.559553,46.796703 17.482622,46.779015 17.481819,46.780703 17.460773,46.773992 17.41199,46.762776 17.412292,46.758531 16.157009,46.358228 16.084932,46.335804 16.084241,46.337015 16.06707,46.330247 16.017917,46.314956 16.018467,46.31109 14.810147,45.834828 14.747788,45.810503 14.746922,45.811744 14.733584,45.804963 14.689306,45.787692 14.69034,45.782979 13.51991,45.187963 13.473584,45.164657 13.472798,45.165544 13.465419,45.16055 13.430239,45.142852 13.431843,45.137826 12.300267,44.371968 12.253339,44.340808 12.452561,43.900507 12.418777,43.878416 12.435411,43.842779 11.86312,43.314567 11.620418,43.099238 11.610744,43.107884 11.569644,43.054191 11.400775,42.904368 11.431041,42.87312 10.907484,42.189143 10.696031,41.925323 10.683339,41.933128 10.643956,41.860351 10.51452,41.69886 10.545281,41.678008 10.086133,40.829536 9.91109,40.515777 9.893555,40.522612 9.849099,40.404659 9.770353,40.263508 9.790686,40.249673 9.406972,39.231568 9.272036,38.868546 9.248906,38.873324 9.196392,38.665039 9.171372,38.597728 9.178353,38.593495 8.875224,37.391204 8.782398,36.980651 8.753007,36.982159 8.494655,35.301948 8.445257,34.844533 8.406488,34.840583 8.315693,33.088244 8.319149,32.619217 8.274023,32.607648 8.404267,30.914768 8.465727,30.462771 8.422101,30.444728 8.821773,28.939662 8.945502,28.528431 8.913727,28.509794 8.991575,28.375297 9.026666,28.25867 9.053258,28.268731 9.607611,27.310999 9.783971,26.992598 9.922151,26.743128 9.960118,26.771032 10.534054,26.014126 10.863233,25.50857 10.895727,25.529948 11.276127,24.929958 11.4842,24.521749 11.573486,23.922471 11.61346,23.619909 11.160926,22.686477 11.057547,22.393265 11.034773,22.398224 10.186824,21.13062 10.00475,20.775439 9.950527,20.786694 9.130073,19.328854 8.939091,18.910087 8.874872,18.917118 8.428278,17.286983 8.312802,16.798981 8.257343,16.794788 8.276632,16.646125 8.245595,16.51496 8.293937,16.512757 8.490921,14.994629 8.548931,14.460946 8.539543,14.458999 8.552779,14.425537 8.580953,14.166345 8.652393,14.173725 9.270367,12.61155 9.550792,11.770548 9.627882,11.786112 10.485128,10.283452 10.883062,9.463575 10.952432,9.482876 11.855608,8.149042 12.305918,7.384172 12.355387,7.401155 13.113215,6.349361 13.38229,5.936409 13.552979,5.674452 13.586039,5.688696 14.247878,4.871478 14.506194,4.536586 14.496397,4.527513 14.573241,4.449663 14.695737,4.290854 14.717758,4.303256 15.328507,3.684522 15.585494,3.421395 15.571141,3.402928 15.695162,3.309107 15.800523,3.20123 15.818708,3.215646 16.422323,2.759021 16.687453,2.558815 16.67504,2.535793 16.808601,2.467333 16.931199,2.374757 16.945282,2.397275 17.592313,2.065629 17.874793,1.919665 17.867483,1.899322 17.991904,1.859151 18.146006,1.779524 18.152826,1.807196 18.832813,1.587656 19.127999,1.489421 19.124314,1.471827 19.241762,1.451561 19.418128,1.392869 19.421534,1.420543 20.120628,1.299917 20.424351,1.244343 20.423122,1.227935 20.549157,1.221507 20.726112,1.189128 20.727487,1.212411 21.433274,1.176411 21.740778,1.159293 21.741657,1.142165 21.901742,1.150333 22.048469,1.142165" slic3r:type="contour"/>
  </g></svg>