<svg width="43.790126" height="63.590156" xmlns="http://www.w3.org/2000/svg" xmlns:svg="http://www.w3.org/2000/svg" xmlns:xlink="http://www.w3.org/1999/xlink" xmlns:slic3r="http://slic3r.org/namespaces/slic3r"><g xmlns="http://www.w3.org/2000/svg" slic3r:z="3.36649999999999e-005" id="layer101">
    <polygon style="fill: white" points="24.085309,61.104907 24.68548,61.79712 24.475381,62.1951 24.103794,62.924824 23.970647,62.761459 23.284658,61.962584 23.517192,61.520383 23.883212,60.874527" slic3r:type="contour"/>
    <polygon style="fill: white" points="26.185728,60.778436 26.7827,61.35906 26.573342,61.849719 26.306316,62.53744 26.108083,62.331967 25.405546,61.65838 25.623812,61.126659 25.905263,60.519704" slic3r:type="contour"/>
    <polygon style="fill: white" points="28.370173,60.278703 28.91423,60.74124 28.696064,61.358487 28.516216,61.95204 28.21958,61.682616 27.563082,61.140696 27.780132,60.478551 27.977231,59.972779" slic3r:type="contour"/>
    <polygon style="fill: white" points="30.651727,59.634851 31.098582,59.97794 30.864508,60.752463 30.751886,61.210627 30.326499,60.860459 29.76978,60.447904 29.995432,59.617407 30.114128,59.266727" slic3r:type="contour"/>
    <polygon style="fill: white" points="36.647316,56.389448 37.464476,56.750052 37.444416,57.226608 37.438352,58.06926 37.304604,58.011704 36.69607,57.767734 36.67196,57.822403 36.173712,58.845872 35.369886,59.026957 35.332128,59.235735 35.321032,59.323988 34.982019,59.114336 34.895868,59.133744 34.834548,59.100328 33.288625,59.342172 33.108272,60.053891 33.051884,60.34176 32.463243,59.908083 32.045521,59.631752 32.273611,58.588528 32.31633,58.438284 33.051277,58.884255 33.40284,58.347992 33.658952,57.838012 34.112979,57.786024 34.393807,57.735974 34.442443,57.455168 34.515324,57.49204 34.836918,57.683604 35.280655,57.605748 36.298349,57.350486 36.300476,57.144095 36.351764,56.281176" slic3r:type="contour"/>
    <polygon style="fill: white" points="38.474143,55.072467 39.1198,55.224644 39.198943,55.934927 39.281432,56.537164 38.904168,56.451756 38.095247,56.279876 37.982652,55.527868 37.923576,54.971584" slic3r:type="contour"/>
    <polygon style="fill: white" points="41.340155,51.809563 41.753364,52.723448 41.712218,52.735557 41.713815,52.738824 41.711371,52.739373 41.726148,52.78366 41.635228,52.845559 40.391223,53.703192 40.606339,54.427191 40.705859,54.747824 40.065772,54.747552 39.495572,54.748648 39.151024,53.711504 39.08766,53.502412 39.834103,53.48296 39.681552,52.992796 39.558732,52.593184 39.863616,52.393559 40.160403,52.178218 39.947872,51.729308 40.12104,51.679979 41.151908,51.394228" slic3r:type="contour"/>
    <polygon style="fill: white" points="42.639499,46.230099 43.040748,46.96886 42.867191,47.119644 42.496548,47.402867 42.544048,47.459736 42.49073,47.497401 42.88346,48.004556 42.51258,48.292603 41.754259,48.933022 42.244004,49.730332 42.485828,50.157992 42.064204,50.378299 41.324288,50.74398 40.862659,49.949723 40.583632,49.483292 41.233195,49.185424 41.665605,48.963586 41.149608,48.32702 40.872484,47.909652 41.143932,47.664171 41.548789,47.325191 41.540568,47.312488 41.585506,47.274083 41.091856,46.458224 41.432703,46.224104 42.212088,45.578556" slic3r:type="contour"/>
    <polygon style="fill: white" points="42.702544,40.470488 42.72688,40.539376 42.619698,40.641324 43.166799,41.553003 43.513812,42.333688 43.295751,42.641232 42.893408,43.068123 42.98836,43.171168 42.932868,43.230035 43.405364,43.698752 43.146692,43.889323 42.304075,44.629876 41.80326,44.169172 41.403304,43.662976 41.6241,43.450468 42.049498,43.106166 42.037251,43.085172 42.147237,42.980302 41.5435,41.89492 42.021443,41.400864 42.663792,40.584275 42.617044,40.531692 42.679704,40.42636" slic3r:type="contour"/>
    <polygon style="fill: white" points="43.244108,39.142076 43.663284,39.473443 43.159183,39.853548 42.64343,40.356278 42.659616,40.387549 41.931871,39.837047 41.666912,39.538148 42.064879,39.105336 42.68532,38.595676" slic3r:type="contour"/>
    <polygon style="fill: white" points="43.010371,31.461045 43.366111,31.63666 42.867772,32.08833 42.648675,32.370752 42.739576,32.639692 42.591896,32.819621 43.131924,33.80658 43.68086,35.368252 43.671527,35.405374 43.683388,35.412868 43.679368,35.416119 43.65809,35.439086 43.144419,36.67358 42.705392,37.326124 42.082228,35.987681 41.688664,35.602396 41.732884,35.548439 41.835755,35.458306 41.828787,35.44334 41.875892,35.382107 41.6501,34.920724 41.881532,34.387264 42.428198,32.785131 42.28738,32.671748 42.314259,32.508005 41.64408,32.184744 41.403448,31.983855 41.777399,31.4227 42.267212,30.935172" slic3r:type="contour"/>
    <polygon style="fill: white" points="41.837836,27.654584 41.833182,27.890031 42.214624,28.098322 42.799692,28.295198 42.530244,28.579236 42.019376,29.366742 41.33946,29.140632 40.8775,28.84261 41.089568,28.463439 41.651151,27.811872 41.597276,27.709915 41.647912,27.606768 41.681107,27.568017" slic3r:type="contour"/>
    <polygon style="fill: white" points="39.305304,21.209574 39.362335,21.31254 39.772172,21.413402 40.308776,21.455116 40.135552,21.68162 39.768242,22.441085 39.892461,22.848843 40.346452,22.985042 40.416467,23.170745 40.48174,23.190054 41.122192,23.25268 40.977836,23.443234 40.668789,24.068487 40.784446,24.960651 41.252603,25.150736 41.293065,25.373183 41.328492,25.387168 41.997932,25.51215 41.833027,25.713754 41.33297,26.631742 41.330612,26.671272 41.320177,26.651779 40.708764,26.527136 40.134964,26.254404 40.277543,25.950426 40.663857,25.425718 40.621264,25.34615 40.730092,25.074192 40.749944,25.047312 40.384752,24.376188 39.885008,24.312942 39.307428,24.107938 39.439392,23.801974 39.786378,23.276537 39.747588,23.20525 39.837708,22.955515 39.869729,22.906554 39.676039,22.546189 39.015283,22.482245 38.512595,22.33863 38.676203,21.975956 39.044687,21.371539 39.019552,21.324775 39.057716,21.219828 39.05679,21.218888 39.092076,21.158858" slic3r:type="contour"/>
    <polygon style="fill: white" points="21.91694,4.321136 22.560927,4.314213 22.582314,4.276334 22.598573,4.314888 22.794988,4.319502 22.636539,4.402122 22.889823,4.982015 23.385466,4.43693 23.446815,4.634731 23.641812,5.304884 23.866818,5.130347 24.26354,4.945116 24.363945,5.660918 24.938906,5.719103 24.833452,5.930323 25.195749,5.952462 25.191144,6.120061 25.202761,6.852509 25.735832,6.978865 25.568586,7.451774 25.470718,7.627762 25.470288,7.689923 25.455897,7.701345 25.480545,7.768955 25.721969,7.762136 26.24426,7.653589 26.236095,7.74761 26.267709,7.746718 26.268934,7.755919 26.415398,7.757115 26.415429,7.874666 26.434356,8.463909 27.179608,8.449099 27.31054,8.357941 27.334163,8.446027 27.337734,8.445957 27.341118,8.456142 27.565736,8.479251 27.565622,8.664486 27.616861,9.125464 28.086214,9.180806 28.153531,9.122259 28.462758,8.878923 28.533795,9.09933 28.578096,9.238803 28.581129,9.239161 28.591437,9.271238 29.244677,9.426287 29.492634,9.483056 29.687814,9.329781 29.729033,9.453615 29.763853,9.573237 30.499876,9.856472 30.690597,9.922941 30.927476,9.749679 30.985516,9.910391 31.023691,10.057207 31.043674,10.113457 31.375973,10.319156 31.604817,10.435088 31.744312,10.310397 32.007812,10.117992 32.156142,10.461264 32.186902,10.587251 32.284427,10.463094 32.318254,10.200428 32.599578,10.455616 32.707288,10.513352 32.90109,10.302245 33.030982,10.55095 33.108957,10.781309 33.201948,10.546527 33.193816,10.277797 33.380166,10.489807 33.579122,10.581808 33.851092,10.224703 33.942453,10.366375 33.995888,10.252502 34.009788,10.167618 34.285663,10.462511 34.566677,10.604207 34.679987,10.468656 34.932112,10.068195 35.033408,10.202085 35.21369,10.363626 35.60456,10.156554 35.710097,10.321599 35.842959,10.231939 35.916496,10.185555 36.113699,10.744872 36.481044,10.637982 36.783788,10.581175 36.791904,11.11566 36.791622,11.204538 37.009639,11.216302 37.476128,11.30796 37.329443,11.702511 37.23503,11.927288 37.320936,11.956894 37.836244,12.19891 37.61466,12.490435 37.385091,12.744549 37.464532,12.784048 37.99734,13.0943 37.76918,13.322486 37.394921,13.637398 37.522764,13.704992 38.106928,14.029677 37.932844,14.197003 37.568141,14.503547 37.779664,14.834388 37.796564,14.852565 38.244536,15.047491 38.185595,15.108082 38.106417,15.185838 38.319004,15.414493 38.126185,16.023949 38.297043,16.110744 38.431704,16.156847 37.949798,16.581468 37.840352,16.927402 37.755546,17.027996 38.283723,17.254131 38.692944,17.362692 38.423279,17.612892 38.099016,18.042315 38.710363,18.504406 38.834043,18.54563 38.896839,18.601147 39.074528,18.63647 39.0477,18.663607 39.01842,18.708636 39.144692,18.820272 39.072632,19.889235 39.30976,19.950288 39.611312,19.986906 39.322332,20.327783 39.001687,20.941465 38.984292,21.145324 38.811298,20.969786 38.083011,20.875096 37.78782,20.792154 38.080307,20.228047 37.850392,19.994752 37.334348,19.65563 37.369724,19.457917 37.369792,19.355582 37.192528,19.284762 37.234167,19.218074 37.369998,19.049969 37.370052,18.969512 37.685589,18.438581 37.723662,18.261387 37.259815,18.109491 36.766651,17.862188 37.046447,17.460344 37.440483,17.046294 37.28778,16.963942 37.194144,16.862682 36.592543,16.603503 36.478336,16.534954 36.668687,16.294442 36.604551,16.225084 36.405156,16.051184 36.58086,15.694207 36.633038,15.531189 36.255787,15.311466 36.375959,15.164218 36.905467,14.678655 36.616408,14.508543 36.098904,14.20518 36.349827,13.95394 36.67233,13.668006 36.406656,13.512544 35.986476,13.290607 36.294792,13.005263 36.444166,12.864463 36.276231,12.793461 35.872424,12.63918 36.124372,12.352262 35.753704,12.30973 35.828626,12.127487 35.60352,12.176964 35.595909,11.984063 35.396028,12.104658 35.323805,11.928146 35.203891,12.029385 35.169736,12.089583 35.141429,12.124569 35.121764,12.124068 35.117939,12.074159 34.906538,11.823111 34.803331,12.153273 34.415861,11.891422 34.377603,12.316194 33.947674,12.117298 33.915566,12.158291 33.81128,12.425575 33.723026,12.528976 33.721372,12.557413 33.715356,12.591403 33.682644,12.576032 33.66186,12.604179 33.640829,12.556385 33.576136,12.525987 33.545419,12.48733 32.964019,12.143986 32.810426,12.265007 32.619641,12.359242 32.442754,12.546477 32.422664,12.456535 32.309684,12.512339 31.599414,12.022292 31.548637,12.058956 31.378166,12.191387 31.326362,11.833902 31.201145,11.747509 31.195803,11.725438 30.68037,11.469742 30.572984,11.552253 30.286574,11.78065 30.20525,11.338752 30.164074,11.17378 30.096569,11.135283 29.597262,10.96987 29.425663,11.112176 29.106182,11.385615 29.015033,11.008501 28.934062,10.727738 28.368309,10.609829 28.207545,10.744469 27.92201,10.98719 27.798029,10.514979 27.786053,10.475174 27.479477,10.449316 27.060077,10.39307 26.97859,10.457849 26.83506,10.564171 26.784138,10.370998 26.723102,10.376447 26.490708,10.393759 26.497344,10.000012 26.498009,9.679762 26.238807,9.691299 26.144732,9.692778 25.840924,9.782434 25.588254,9.842637 25.543554,9.715476 25.444092,9.717033 25.474485,9.560929 25.315922,9.054863 25.154884,9.063694 24.823112,9.007209 24.96361,8.393347 24.992331,8.32653 24.960465,8.234259 24.701574,8.333018 24.24073,8.199929 24.349128,7.670989 24.03281,7.753328 24.082996,7.324679 24.058271,6.850718 23.98256,6.914557 23.424708,7.324829 23.35443,6.922598 23.313839,6.707162 22.966108,7.154631 22.860896,6.857241 22.804729,6.692342 22.713354,6.687625 22.48089,7.098929 22.358378,6.846127 22.277289,6.679167 22.142755,6.679203 22.142692,6.679337 22.123813,6.679137 21.895064,7.111145 21.769629,6.863935 21.671552,6.679331 21.647496,6.679338 21.645651,6.675366 21.514923,6.675345 21.309244,7.098903 21.182574,6.855003 21.085167,6.683726 20.983308,6.689039 20.82405,7.15463 20.655497,6.908414 20.48378,6.688109 20.365376,7.324842 20.0889,7.074397 19.780991,6.844839 19.757249,7.753397 19.279665,7.577077 19.387714,7.956471 19.549392,8.199927 19.380253,7.966488 18.932671,8.07345 18.878512,8.530615 18.806961,8.633455 18.840667,8.751 18.966994,9.007257 18.582741,8.975376 18.535476,9.180722 18.316127,9.613916 18.325365,9.654556 18.345932,9.717099 18.272363,9.708457 18.20183,9.842649 17.784737,9.686583 17.296016,9.670403 17.299922,10.085796 17.299398,10.39377 17.015966,10.369674 17.004391,10.413393 16.955036,10.564189 16.731932,10.381887 16.103632,10.442162 16.036327,10.449724 15.986319,10.636322 15.86811,10.987196 15.578858,10.745805 15.392314,10.588354 14.934665,10.687068 14.933023,10.692302 14.883505,10.708725 14.817891,10.97022 14.683994,11.385594 14.403942,11.15463 14.15978,10.948758 13.749349,11.084882 13.742883,11.107117 13.66416,11.145025 13.613282,11.399993 13.503581,11.780629 13.122665,11.48953 13.05647,11.437644 12.619312,11.648146 12.588926,11.747556 12.505472,11.797114 12.478544,11.955969 12.411972,12.191395 12.15343,12.006167 12.006566,12.093379 11.480481,12.512334 11.397615,12.430261 11.347403,12.546474 11.280963,12.483802 11.122159,12.32726 10.97998,12.265176 10.793936,12.119597 10.717736,12.161697 10.293191,12.444474 10.213862,12.526037 10.167451,12.547194 10.156799,12.567551 10.128193,12.604166 10.104306,12.575613 10.074733,12.591398 10.07335,12.538609 9.978884,12.42569 9.957402,12.362467 9.791426,12.129575 9.735352,12.155124 9.412502,12.316175 9.426228,11.825868 8.986775,12.153273 8.948802,11.923243 8.830564,12.025225 8.668305,12.124047 8.64591,12.101729 8.639393,12.11308 8.623982,12.079876 8.573125,12.029193 8.425694,11.938691 8.394071,12.104652 8.225948,11.92796 8.160822,11.958543 8.186609,12.176953 7.917944,12.055219 8.036422,12.30973 7.661872,12.326608 7.917705,12.639176 7.513642,12.818781 7.364528,12.876944 7.509703,13.012079 7.803656,13.290588 7.458689,13.502558 7.114231,13.688376 7.333637,13.900814 7.691233,14.205172 7.423638,14.362959 6.885681,14.678515 6.911857,14.750485 7.073614,14.936211 7.534338,15.311496 7.40104,15.372534 7.183116,15.496276 7.384965,16.051236 7.11401,16.331394 7.237596,16.477942 7.311795,16.534938 6.708414,16.750766 6.502192,16.963993 6.331215,17.05228 6.728447,17.587446 7.023475,17.862188 6.670039,17.951067 6.090029,18.225668 6.209155,18.631524 6.42006,18.969542 6.426314,19.089589 6.5976,19.284788 6.53556,19.295677 6.438921,19.331575 6.455802,19.655614 5.723535,20.318394 5.859189,20.567266 6.002294,20.792202 5.486394,20.823875 5.043206,20.934163 4.898115,21.065486 4.805809,21.145376 4.808371,20.983038 4.344044,20.337988 4.178843,19.98685 4.748577,19.823207 4.826885,19.810089 4.833346,19.400735 4.645428,18.820302 4.724273,18.784261 4.774204,18.732863 4.715602,18.636472 4.762894,18.61858 4.92424,18.578419 4.956119,18.545604 5.403378,18.384574 5.692592,18.102662 5.443699,17.843882 5.097179,17.362682 5.546032,17.160666 6.017991,17.010155 5.949811,16.927517 5.882832,16.681409 5.485374,16.304319 5.35844,16.156761 5.692248,15.981109 5.643203,15.800894 5.471169,15.414286 5.617344,15.303198 5.704524,15.20189 5.545612,15.047443 5.638264,15.002009 6.028582,14.825313 6.081253,14.764104 6.249807,14.488555 5.6832,14.029706 5.929432,13.89994 6.426754,13.627932 6.265918,13.472407 5.792789,13.094287 6.115798,12.935744 6.451675,12.74938 6.336576,12.603518 5.953864,12.19891 6.340069,12.070215 6.586628,11.964082 6.505741,11.753842 6.314003,11.30796 6.786008,11.291328 7.005299,11.257688 7.00837,10.917436 7.006329,10.581195 7.594257,10.762453 7.657932,10.776441 7.837109,10.281661 7.873641,10.185561 8.05267,10.307928 8.185633,10.156543 8.5257,10.368718 8.857987,10.068183 9.036534,10.27143 9.212219,10.517423 9.576487,10.273868 9.780389,10.167619 9.873064,10.334238 9.93909,10.224703 10.132018,10.542178 10.596361,10.277797 10.788313,10.632347 10.88908,10.302233 10.979225,10.473764 11.013892,10.508711 11.471894,10.200408 11.699421,10.455605 11.735953,10.339388 11.782254,10.117995 11.939164,10.33623 12.087537,10.447431 12.426801,10.251124 12.761229,10.07788 12.773808,10.03647 12.793471,10.028965 12.862641,9.749678 12.958475,9.856745 13.054172,9.929456 13.814352,9.639295 14.028594,9.564594 14.035476,9.543037 14.041225,9.541656 14.10229,9.329775 14.188923,9.417881 14.27282,9.486036 14.9027,9.334764 15.200024,9.267116 15.208957,9.23918 15.213037,9.238774 15.327366,8.87893 15.498991,9.044785 15.679925,9.192358 15.748045,9.185586 16.122326,9.139899 16.126954,8.992746 16.224477,8.4792 16.388232,8.459888 16.446918,8.454642 16.479557,8.357949 16.537687,8.403941 16.608816,8.454962 16.928757,8.473452 17.295337,8.475675 17.345916,8.313247 17.346715,8.22785 17.374814,7.757082 17.450481,7.759217 17.520191,7.758285 17.54577,7.653669 17.686711,7.666835 18.299095,7.761539 18.324362,7.674896 18.319756,7.657439 18.4046,7.646511 18.278619,7.338089 18.0543,6.978855 18.254643,7.122817 18.573344,7.082127 18.56349,6.560512 18.594438,5.952386 18.686434,5.98776 18.975749,5.977613 18.851232,5.719067 19.457139,5.650763 19.50648,5.329566 19.52657,4.945119 19.84455,5.213062 20.142671,5.383592 20.248037,5.052195 20.40463,4.436933 20.480484,4.5327 20.894772,5.020004 20.929776,4.942508 21.138748,4.441756 21.13804,4.441717 21.151981,4.408879 20.99544,4.319443 21.192054,4.314021 21.192167,4.31375 21.192688,4.313747 21.207784,4.276345 21.22751,4.313042 21.228573,4.313013 21.228773,4.313366 21.874206,4.320201 21.895064,4.274988" slic3r:type="contour"/>
    <polygon style="fill: black" points="21.579962,4.936605 21.799002,4.476988 21.72109,4.473886 21.30633,4.451003" slic3r:type="hole"/>
    <polygon style="fill: black" points="21.991101,4.474407 22.208439,4.923031 22.483377,4.448019" slic3r:type="hole"/>
    <polygon style="fill: white" points="4.723335,21.216755 4.770545,21.324771 4.743625,21.394199 5.005127,21.918412 5.277526,22.338618 4.926163,22.34761 4.135423,22.535451 3.916295,22.922641 4.042548,23.20541 3.991837,23.332621 4.129748,23.609876 4.482688,24.107954 4.190865,24.124184 3.481067,24.333117 3.032994,25.071153 3.16885,25.346156 3.114113,25.485442 3.256231,25.746406 3.655168,26.254374 3.363881,26.292692 2.473099,26.650189 2.459496,26.671272 2.460967,26.642604 2.109348,26.184627 1.792198,25.51211 2.026846,25.406793 2.530319,25.290538 2.53749,25.150726 2.855956,25.001752 3.022063,24.960047 3.175606,24.240578 2.950155,23.917343 2.667937,23.252672 2.905886,23.171025 3.42014,23.09474 3.443532,22.985124 3.76058,22.872215 3.908448,22.849024 4.034428,22.490664 3.721982,22.030481 3.481361,21.455096 3.80073,21.363821 4.460227,21.27944 4.484788,21.209574 4.633438,21.166193 4.698029,21.158856" slic3r:type="contour"/>
    <polygon style="fill: white" points="2.19288,27.709994 2.146219,27.827899 2.526413,28.418841 2.912643,28.84258 2.536513,28.942154 1.770751,29.366742 1.307959,28.852806 0.990451,28.295142 1.308202,28.101767 1.977157,27.852911 1.952251,27.654644 2.062243,27.586464 2.109022,27.568064" slic3r:type="contour"/>
    <polygon style="fill: white" points="2.143409,31.753327 2.3867,31.98379 1.800931,32.231624 1.490102,32.457279 1.502746,32.671866 1.375394,32.762974 1.844129,33.718023 2.140027,34.920736 2.040849,35.213871 1.931472,35.408711 1.961329,35.443304 1.950051,35.47295 2.101463,35.602364 2.043692,35.634816 1.811497,35.837151 1.5198,36.603903 1.084687,37.326128 0.14511,35.458795 0.106735,35.412868 0.117169,35.403264 0.116946,35.402819 0.122575,35.397578 0.109264,35.368256 0.137995,35.308624 1.210797,32.841985 1.175002,32.808984 1.050629,32.63983 1.140526,32.427301 0.64683,31.959624 0.424019,31.636624 0.918503,31.250768 1.522862,30.935222" slic3r:type="contour"/>
    <polygon style="fill: white" points="1.745792,39.233195 2.123212,39.538136 1.632481,39.887156 1.118791,40.40631 1.140667,40.353904 0.458378,39.82868 0.12684,39.473452 0.485015,39.097072 1.104808,38.595676" slic3r:type="contour"/>
    <polygon style="fill: white" points="1.13742,40.460292 1.173082,40.531692 1.118167,40.587216 1.134274,40.603613 1.098085,40.575747 1.063244,40.53938 1.110422,40.42636" slic3r:type="contour"/>
    <polygon style="fill: white" points="1.859437,41.341835 2.246642,41.894992 2.041985,42.38964 1.677987,43.018187 1.752881,43.085248 1.728247,43.13082 2.386838,43.663 2.13202,43.887796 1.486051,44.629876 0.930068,44.217928 0.384761,43.698764 0.535171,43.528047 0.846732,43.216765 0.801716,43.17122 0.922879,43.033316 0.276314,42.333696 0.633792,41.715656 1.170725,40.64072" slic3r:type="contour"/>
    <polygon style="fill: white" points="2.182707,45.997807 2.698269,46.4582 2.537657,46.76834 2.219865,47.2881 2.249436,47.312456 2.234656,47.335536 2.917645,47.909704 2.605274,48.28878 2.124872,48.959813 2.896494,49.318107 3.206471,49.483252 2.907868,50.00532 2.465782,50.744004 1.836115,50.419955 1.304285,50.157948 1.690985,49.527507 2.034023,48.936837 1.412548,48.458195 0.906672,48.00462 1.059068,47.806699 1.298764,47.497175 1.246,47.459724 1.30214,47.391603 0.749374,46.968848 0.958513,46.646547 1.578004,45.578583" slic3r:type="contour"/>
    <polygon style="fill: white" points="3.084248,51.520856 3.842254,51.729316 3.774836,51.869023 3.633155,52.168297 4.231398,52.593228 4.03528,53.223439 3.952592,53.490845 4.535393,53.503356 4.70244,53.502404 4.462253,54.199288 4.294481,54.748572 3.434911,54.748564 3.084277,54.747812 3.322592,53.945004 3.395333,53.70787 2.881419,53.362608 2.063918,52.783531 2.080643,52.739783 2.076225,52.738803 2.078635,52.734116 2.036768,52.723468 2.043251,52.709159 2.638216,51.394232" slic3r:type="contour"/>
    <polygon style="fill: white" points="5.783683,55.466076 5.694823,56.279868 5.118594,56.409032 4.508685,56.537148 4.562085,56.055415 4.670309,55.22466 5.451156,55.073844 5.866566,54.971584" slic3r:type="contour"/>
    <polygon style="fill: white" points="7.43579,56.566876 7.47881,57.330702 8.98467,57.66962 8.994714,57.66438 9.002782,57.665613 9.34771,57.455175 9.355373,57.529316 9.388565,57.724548 10.131123,57.837988 10.696954,58.735243 10.780197,58.879693 11.363576,58.516031 11.47377,58.438284 11.620672,59.183691 11.744606,59.631752 11.001478,60.171016 10.738211,60.341756 10.529359,59.528471 10.488066,59.330815 9.404229,59.144872 8.97728,59.089303 8.894235,59.133716 8.819918,59.115887 8.55287,59.278367 8.469066,59.32398 8.412773,59.018212 8.127088,58.949675 7.616482,58.845916 7.415545,58.321808 7.13034,57.761464 6.351742,58.069239 6.344179,57.893156 6.325631,56.7501 6.826405,56.559315 7.438381,56.281188" slic3r:type="contour"/>
    <polygon style="fill: white" points="13.820741,59.844508 14.02033,60.447815 13.445072,60.914864 13.038242,61.210628 12.855668,60.613043 12.691542,59.977976 13.42034,59.466779 13.675968,59.266724" slic3r:type="contour"/>
    <polygon style="fill: white" points="15.94958,60.415444 16.227055,61.140752 15.783301,61.53912 15.273961,61.952048 15.124062,61.531747 14.875896,60.74136 15.445594,60.289299 15.812896,59.972768" slic3r:type="contour"/>
    <polygon style="fill: white" points="18.017944,60.85712 18.384536,61.658519 18.042955,62.009368 17.48378,62.537436 17.361685,62.252943 17.007426,61.35906 17.446458,60.949295 17.884882,60.519708" slic3r:type="contour"/>
    <polygon style="fill: white" points="20.043311,61.139863 20.505438,61.962548 20.235571,62.291916 19.686334,62.924824 19.583192,62.729924 19.104718,61.796908 19.443899,61.409232 19.906914,60.87452" slic3r:type="contour"/>
    <polygon style="fill: white" points="22.050449,61.233515 22.601244,62.017144 22.374482,62.358947 21.895064,63.068224 21.792722,62.913724 21.188862,62.017332 21.45852,61.622515 21.895064,61.003907" slic3r:type="contour"/>
  </g></svg>