<svg width="43.790126" height="63.590156" xmlns="http://www.w3.org/2000/svg" xmlns:svg="http://www.w3.org/2000/svg" xmlns:xlink="http://www.w3.org/1999/xlink" xmlns:slic3r="http://slic3r.org/namespaces/slic3r"><g xmlns="http://www.w3.org/2000/svg" slic3r:z="1.3535e-005" id="layer40">
    <polygon style="fill: white" points="21.995227,0.373528 22.154538,0.609145 22.180632,0.607541 22.205525,0.643396 22.367971,0.653125 22.782402,0.678591 22.810708,0.647745 22.838109,0.65373 23.144178,0.312304 23.219833,0.46615 23.33967,0.712834 23.36741,0.714539 23.398718,0.77618 23.554334,0.81017 23.965959,0.899085 23.99853,0.872615 24.021725,0.88279 24.388026,0.581277 24.440752,0.747434 24.525375,1.019924 24.554394,1.026192 24.590039,1.132079 24.647922,1.157469 25.074197,1.335924 25.116626,1.311107 25.135987,1.325872 25.60567,1.050738 25.637528,1.250507 25.687953,1.592866 25.718626,1.605707 25.74954,1.78223 26.044939,1.987147 26.103068,1.964407 26.119549,1.98553 26.303865,1.912047 26.773702,1.731486 26.777768,2.004884 26.774797,2.493447 26.806176,2.515214 26.810569,2.722054 26.947011,2.80968 27.00878,2.794893 27.033359,2.814344 27.465355,2.709582 27.869166,2.622629 27.821474,3.021366 27.766718,3.394693 28.211497,3.746672 28.27254,3.741122 28.294015,3.761855 28.609945,3.72779 28.886174,3.707144 28.76069,4.212401 29.035682,4.477889 29.541123,4.958113 29.573844,4.959726 29.585652,4.973847 29.710041,4.975165 29.81719,4.980189 29.746733,5.16648 29.844171,5.283004 30.294426,5.834143 30.351826,6.243671 30.382463,6.408563 30.636674,6.455612 30.579843,6.562161 30.460921,6.779242 30.35088,6.990482 30.350912,7.21271 30.349222,7.436097 30.558794,7.740214 30.682025,7.942694 30.743982,7.963027 30.760162,7.992951 31.020786,8.058908 31.270104,8.124325 31.023688,8.480341 31.173471,8.757365 31.613146,9.702424 31.619495,9.704596 31.622247,9.710628 31.664495,9.721907 31.713353,9.73568 31.662993,9.799925 31.687511,9.853661 31.8586,10.258503 31.735,10.710888 31.699757,10.940577 31.867571,10.986731 32.081496,11.054298 31.975826,11.202811 31.925139,11.26522 32.231064,11.81134 32.284997,11.836079 32.400536,11.898071 32.271674,12.136822 32.361032,12.17456 32.775968,12.515326 32.816948,12.665835 32.870212,12.62439 32.859108,12.698172 32.91584,13.077349 33.046848,13.175249 33.253658,13.2195 33.879963,13.558837 33.920404,13.516995 33.927726,13.584716 33.964171,13.604462 33.984772,13.609068 34.084112,13.649824 34.458292,14.254463 34.472823,14.457728 34.594132,14.454168 34.633909,14.601199 34.82284,14.610218 35.154732,14.454772 35.0798,14.663179 35.178989,15.286937 35.332548,15.381949 35.330516,15.488249 35.655643,15.609183 35.706028,15.639977 36.283588,15.797966 36.401232,15.79392 36.288129,15.995732 36.390068,16.058033 36.380943,16.096032 36.467368,16.137221 36.6798,16.299168 36.841432,17.072448 36.846309,17.292689 36.931032,17.336082 36.929603,17.384404 37.33426,17.53018 37.196239,17.64999 36.873488,18.269483 36.777155,18.741915 37.741439,19.417495 37.978128,19.558146 37.536959,19.918833 37.911795,20.097879 38.105992,20.206714 37.948132,20.984891 37.833939,21.364611 38.467112,21.78104 38.173824,22.041681 37.621859,22.562802 38.314292,22.775894 38.685804,22.80948 38.561688,23.306439 38.503863,23.600847 38.988528,23.834732 38.739767,24.108256 38.299046,24.520809 38.927607,24.59705 39.2913,24.605244 39.172832,25.066596 39.100346,25.494322 39.160111,25.525345 39.788868,25.858636 39.452978,26.197348 39.800108,26.244026 39.95714,26.284112 39.787212,27.036477 39.6147,27.694884 39.616552,27.696009 39.597123,27.779884 40.595576,28.524658 40.65038,28.56344 40.605439,28.600371 40.633235,28.616012 40.669736,28.642714 40.443168,29.723363 40.192696,30.407043 40.257632,30.461974 40.22208,30.666034 40.697496,31.120226 41.118256,31.448798 40.635935,31.753888 40.378194,31.984076 40.499952,32.140674 40.232646,32.373373 40.841872,32.90367 41.308948,33.835403 41.281636,34.01228 41.260117,34.073515 41.26986,34.083852 41.267526,34.112157 41.325448,34.154816 41.297084,34.168308 41.260531,34.19699 41.11766,35.929664 41.030913,36.270783 41.094244,36.347036 41.087289,36.478154 41.299236,36.644816 41.190164,36.68222 41.072173,36.763124 40.98874,38.336063 40.916269,38.700646 40.97716,38.783468 40.969631,38.890771 41.124648,39.026416 41.039908,39.045708 40.9553,39.095007 40.800864,41.295903 40.79531,41.324608 40.799287,41.330679 40.798462,41.337297 40.807936,41.346804 40.797117,41.348098 40.779664,41.488164 40.050015,43.167123 40.23344,43.478343 40.341096,43.612856 39.865667,43.591321 39.731663,43.899668 39.145156,44.1266 39.090459,44.063815 39.017792,43.911836 39.073535,43.647009 38.610355,43.102235 38.343935,42.50842 38.710404,42.354307 39.360307,42.284593 39.480785,41.712214 39.316868,41.404784 39.349525,41.198892 38.985612,40.809319 38.7748,40.373412 39.290116,40.100064 39.529344,40.065228 39.661484,39.232147 39.46032,38.898292 39.478884,38.769143 39.223647,38.51772 39.072168,38.236272 39.605599,37.887652 39.735339,36.9851 39.73581,36.78207 39.546524,36.505492 39.560931,36.421796 39.356436,36.233975 39.228628,36.02828 39.691636,35.662484 39.886524,34.530304 39.690888,34.281367 39.712553,34.194723 39.420367,33.940771 39.220588,33.67484 39.688092,33.237828 39.98722,33.096333 40.163561,32.391144 40.099184,32.340516 39.994444,32.221966 40.036127,32.080764 39.447303,31.610143 38.988028,31.1053 39.116564,30.967513 39.50629,30.69757 39.450876,30.655687 39.535907,30.56224 38.868212,30.344046 39.232679,29.230692 39.276636,29.084695 39.175092,28.986938 39.182861,28.960275 38.822396,28.717446 38.386191,28.386126 38.484419,28.270868 38.693358,28.064526 38.266728,27.991328 38.388643,27.541554 38.645111,26.574083 38.308152,26.422937 37.810923,26.429654 37.642232,26.404624 37.702922,26.151455 37.628816,26.118214 37.503992,26.078224 37.785911,25.805275 37.828439,25.627867 38.004252,24.799303 37.251139,24.730921 36.948288,24.652606 37.048086,24.241193 36.927904,24.177986 36.784952,24.107032 37.148601,23.82683 37.201384,23.609234 37.245582,23.562894 37.469404,22.526942 36.967715,22.236405 36.694292,22.057207 36.631631,22.029565 36.609116,22.012992 36.337895,21.875591 36.313768,21.86625 36.337375,21.814245 36.305424,21.787952 36.361219,21.742211 36.753534,20.151832 36.32194,19.925438 35.89084,19.658 36.111695,19.424916 36.409043,19.092419 36.368656,19.067584 36.511903,18.854038 35.498332,18.228708 35.387908,18.178324 35.404859,18.056729 35.33586,18.029196 35.384123,17.92634 35.297992,17.13772 35.279608,16.99446 35.192476,16.980668 35.137191,16.835247 34.931352,16.831662 34.685744,16.80619 34.814279,16.236552 34.852615,16.091556 34.685776,16.100855 34.555861,15.871426 34.288215,15.932266 33.90672,15.991717 33.911616,15.579729 33.920501,15.339523 33.799816,15.301376 33.768145,15.135048 33.57039,15.096122 33.458367,15.126201 32.915604,15.242925 32.906306,15.05108 32.905809,14.96531 32.840876,14.952529 32.807518,14.809353 32.213146,14.724866 32.107394,14.368282 31.991344,14.380056 31.967847,14.297577 31.906818,14.30726 31.749728,14.317844 31.71089,13.77492 31.709177,13.666519 31.634544,13.649688 31.571352,13.400958 31.467242,13.393764 31.447643,13.271369 31.021267,13.117236 31.011484,13.11625 31.00699,13.113862 30.686752,13.061967 30.703279,13.002285 30.69372,12.998829 30.706635,12.954369 30.59626,12.895757 30.657752,12.240331 30.660628,12.207529 30.536306,12.019714 30.451124,11.822776 30.145568,11.767835 30.2684,11.594543 30.291069,11.557982 29.845946,10.860053 29.932728,10.41752 29.863502,10.396544 29.714084,10.357621 30.008227,10.032521 30.045777,9.841036 30.046653,9.83988 30.054401,9.795579 29.935918,9.592901 29.556629,8.878313 29.317694,8.822196 29.398879,8.724391 29.42897,8.683952 29.108558,8.234675 29.210385,7.418241 29.036956,7.391331 28.804372,7.368787 29.011137,7.040781 29.125369,6.83662 28.542694,6.119483 28.127586,6.125214 28.202754,5.945912 28.252952,5.81883 27.608757,5.188856 27.456049,5.035074 27.342588,5.050279 27.356276,4.997213 27.366566,4.956699 26.854658,4.534416 26.637572,4.124473 26.547548,4.146545 26.498562,4.158749 26.528462,3.952124 26.255323,3.608118 26.003645,3.297494 25.742449,3.402975 25.619386,3.453007 25.624952,2.961148 25.624287,2.914155 25.248743,2.612156 24.877464,2.830418 24.716882,2.926437 24.656761,2.485211 24.610928,2.207237 24.373208,2.093242 23.960751,2.427028 23.793036,2.565268 23.672702,2.163747 23.554292,1.800122 23.396195,1.761643 23.005195,2.186939 22.851012,2.356685 22.673401,1.988311 22.490444,1.621118 22.360423,1.612348 22.025772,2.099865 21.895064,2.290324 21.663476,1.953007 21.428349,1.610426 21.303714,1.618836 21.04371,2.148618 20.939114,2.356683 20.657814,2.05332 20.387918,1.757511 20.243342,1.792662 20.068181,2.351283 19.997082,2.56527 19.661881,2.297506 19.409039,2.090513 19.187839,2.196271 19.10693,2.729993 19.07321,2.926451 18.67618,2.695737 18.537615,2.613388 18.174515,2.905103 18.173592,3.30768 18.17072,3.453005 17.794542,3.301743 17.599199,3.550053 17.264787,3.954677 17.28471,4.102494 17.291564,4.158747 17.154443,4.125448 17.104063,4.222701 16.935552,4.534333 16.495281,4.896905 16.423708,4.956207 16.447544,5.050285 16.389475,5.04239 16.33013,5.03441 15.771321,5.56904 15.537869,5.806202 15.662521,6.125214 15.441916,6.129842 15.195427,6.128602 15.071257,6.260958 14.654422,6.78862 14.834957,7.094303 14.98576,7.368781 14.51322,7.455989 14.535651,7.836073 14.681634,8.234512 14.458782,8.50239 14.356379,8.663964 14.472442,8.822182 14.316781,8.870221 14.20802,8.898052 14.204799,8.903136 14.167932,8.914555 13.926759,9.257354 13.680345,9.755735 13.744289,9.8409 13.767634,9.983786 13.939409,10.186242 14.076037,10.357625 13.84119,10.434001 13.866592,10.589486 13.944129,10.860217 13.619689,11.270189 13.490842,11.516304 13.644569,11.767818 13.344582,11.841771 13.184243,11.874462 13.185921,11.901606 13.152885,11.909866 13.127276,11.97097 13.15166,12.202344 13.193846,12.895804 13.125545,12.939698 13.089405,12.958095 13.096418,12.99884 13.086341,13.004188 13.103386,13.061951 12.982402,13.079057 12.930553,13.086873 12.451002,13.34139 12.326198,13.372698 12.322885,13.393764 12.198521,13.404439 12.15558,13.649662 12.05754,13.68534 12.0515,13.833236 12.040404,14.317841 11.829744,14.282396 11.798792,14.380049 11.71886,14.371366 11.695329,14.465208 11.576967,14.724868 11.120465,14.85217 10.96605,14.866305 10.949219,14.952529 10.875504,14.979376 10.874504,15.242928 10.568405,15.159528 10.455192,15.132457 10.418321,15.145885 10.007016,15.195323 9.990291,15.301384 9.860187,15.375187 9.883382,15.991726 9.300739,15.854336 9.10432,16.100862 9.009326,16.093076 8.961628,16.252782 9.008705,16.447922 9.104381,16.80619 8.706525,16.810464 8.587686,16.996227 8.570322,17.307063 8.417107,17.955353 8.433357,17.988812 8.454253,18.029218 8.387316,18.048409 8.396818,18.106152 8.402235,18.178266 7.872939,18.611412 7.296158,18.878784 7.421473,19.067574 7.390752,19.088531 7.480696,19.185265 7.899289,19.658018 7.375608,19.933629 7.027173,20.134308 7.226491,20.975458 7.424427,21.730115 7.463389,21.76495 7.484704,21.787984 7.444624,21.817669 7.476358,21.86628 6.751966,22.266874 6.699762,22.288282 6.319738,22.52288 6.507736,23.51807 6.588749,23.609296 6.632712,23.802239 6.877227,23.994812 7.005174,24.107032 6.734528,24.249087 6.773366,24.419542 6.841836,24.652594 6.213513,24.671436 5.77585,24.775508 5.897638,25.401839 5.945443,25.60619 5.961162,25.62559 5.986971,25.736363 6.182019,25.940419 6.286109,26.078234 6.086837,26.164987 6.109959,26.264231 6.147892,26.404606 5.618014,26.369088 5.279606,26.516413 5.150548,26.577326 5.326148,27.216387 5.523398,27.991368 5.401196,28.001827 5.200884,28.033621 5.061568,28.066702 5.403924,28.38618 5.024811,28.6451 4.603952,28.943077 4.615058,28.986906 4.545622,29.045217 4.740223,29.593829 4.921936,30.344029 4.71347,30.463948 4.296161,30.613845 4.339279,30.655702 4.227978,30.768659 4.802123,31.1053 4.539455,31.317936 3.759389,32.057354 3.795731,32.221942 3.62886,32.38418 3.90867,33.261155 4.333631,33.601916 4.569531,33.674852 4.072809,34.109541 4.099206,34.281432 3.991543,34.397962 4.158765,35.148764 4.204285,35.876847 4.401906,36.009664 4.561507,36.02824 4.232449,36.327317 4.243588,36.505487 4.159807,36.60757 4.282441,37.325792 4.306376,38.120602 4.512453,38.23538 4.717964,38.236232 4.321361,38.618213 4.329795,38.8983 4.223226,39.04359 4.415856,40.183831 4.419505,40.261437 4.69905,40.388416 5.015338,40.373428 4.548432,40.860496 4.454728,41.010481 4.47327,41.404808 4.334784,41.615472 4.493326,42.348048 5.000786,42.531808 5.446168,42.508392 5.140887,42.859844 4.736304,43.559164 4.77233,43.911835 4.644962,44.1266 4.548242,44.112392 4.058488,43.899627 4.031341,43.705016 3.572987,43.661272 3.449003,43.612747 3.839247,42.803683 3.895803,42.733344 3.760948,41.766558 3.363407,41.55227 3.010402,41.487824 2.999431,41.356075 2.982194,41.346784 2.982301,41.346602 2.998518,41.316335 2.946169,39.516815 2.882706,39.167516 2.665489,39.026376 2.72665,38.933855 2.824273,38.845901 2.812936,38.783495 2.93128,38.58787 2.886332,37.481332 2.783403,36.86845 2.490876,36.644812 2.57582,36.529076 2.708329,36.421431 2.695839,36.34706 2.814852,36.174307 2.611658,34.553404 2.548246,34.227688 2.464686,34.154788 2.488253,34.125544 2.523204,34.099058 2.520247,34.083867 2.539649,34.059305 2.481179,33.835496 2.622822,33.707179 3.566431,32.388889 3.505282,32.349468 3.290199,32.14064 3.408528,32.024763 2.893726,31.666174 2.671858,31.448818 3.108735,30.964298 3.571679,30.609782 3.532521,30.462002 3.621092,30.37655 3.15457,28.747356 3.120423,28.642624 3.191079,28.621049 3.176145,28.605111 3.178862,28.603877 3.139761,28.563438 3.762082,28.056711 4.191288,27.761062 4.173562,27.695978 4.182736,27.690314 3.976663,26.847791 3.833014,26.284095 4.368391,26.226931 4.138895,25.996175 4.001262,25.858668 4.446591,25.640393 4.670869,25.519747 4.498819,24.605246 5.056051,24.52702 5.491632,24.504648 5.097206,24.0996 4.801586,23.834766 5.085974,23.742996 5.281628,23.645409 5.10435,22.80941 5.691824,22.618619 6.146951,22.54456 5.570446,22.019109 5.323025,21.781006 5.621745,21.59362 5.99479,21.347559 5.684158,20.206698 6.17544,19.972948 5.896562,19.695446 5.812026,19.55815 6.311801,19.151528 7.031001,18.727636 7.000129,18.477701 6.663133,18.065465 6.455858,17.530188 6.656567,17.395891 6.91218,17.300838 7.018515,17.230212 7.110325,16.299168 7.40629,16.139558 7.400051,16.058033 7.423393,16.04717 7.375359,15.908456 7.388895,15.79392 8.047894,15.488978 8.441514,15.469181 8.457554,15.382019 8.505497,15.363555 8.455489,14.898577 8.635396,14.454772 8.930734,14.375281 9.251108,14.443278 9.522854,14.389543 9.51587,14.197965 9.663717,13.917895 9.694595,13.813777 9.705867,13.649938 9.831598,13.611395 9.836508,13.570853 9.869834,13.516902 10.405313,13.417067 10.66459,13.319759 10.710355,13.203983 10.708797,13.015938 10.919869,12.624387 10.971635,12.602467 11.013284,12.608486 11.03876,12.527531 11.014227,12.515185 11.534698,12.227701 11.545583,12.184051 11.512315,12.05655 11.517271,12.010113 11.482544,11.960866 11.389579,11.898064 11.564695,11.81594 11.762545,11.556143 11.925953,11.29422 11.854312,11.200065 11.70864,11.054287 11.86232,11.014093 12.066439,10.955912 11.931656,10.258116 12.1304,9.797703 12.11063,9.772897 12.0768,9.735693 12.16752,9.711713 12.170579,9.704627 12.182834,9.70058 12.300783,9.474475 12.78539,8.491716 12.669389,8.3258 12.520022,8.124324 12.904476,8.028037 13.029943,7.995774 13.046062,7.963086 13.143975,7.932107 13.444414,7.480839 13.442098,6.993643 13.336295,6.792911 13.337737,6.784241 13.153455,6.455609 13.253215,6.441002 13.398947,6.416153 13.495743,5.834059 14.047431,5.164593 14.011315,5.070844 13.972939,4.980172 14.199355,4.980233 14.216264,4.959716 14.245704,4.958711 14.569238,4.647288 15.0392,4.198201 14.975291,3.948003 14.903951,3.707151 15.391304,3.764416 15.484485,3.772694 15.517561,3.741088 15.565079,3.746069 16.028499,3.381077 16.021447,3.330874 16.024775,3.328743 15.982884,2.996629 15.920959,2.622642 16.261615,2.707666 16.750678,2.818636 16.781345,2.794891 16.836718,2.80878 16.980769,2.716531 16.98392,2.515102 17.023306,2.485768 17.02607,2.208036 17.016408,1.731497 17.249232,1.825084 17.665928,1.987819 17.687044,1.964418 17.721022,1.977934 18.046647,1.749909 18.071486,1.605704 18.109395,1.589159 18.184432,1.050737 18.353759,1.149357 18.653805,1.324736 18.67339,1.311022 18.704616,1.329384 18.750412,1.309397 19.204683,1.118829 19.235734,1.026299 19.267944,1.019266 19.40213,0.581273 19.538431,0.690582 19.771918,0.880872 19.79161,0.872611 19.822932,0.898088 19.980137,0.863763 20.392071,0.774786 20.422724,0.71443 20.452952,0.712618 20.64595,0.312315 20.763925,0.439716 20.957264,0.652709 20.979564,0.647892 21.00845,0.679328 21.173994,0.669407 21.584146,0.6442 21.609448,0.607693 21.639969,0.609521 21.895064,0.228005" slic3r:type="contour"/>
    <polygon style="fill: white" points="39.577399,45.661435 39.741499,45.896656 39.147816,45.840552 38.721358,45.951531 38.731892,45.997579 38.608239,46.28942 38.511684,46.317124 38.50434,46.307227 38.495236,46.285827 38.572412,46.027204 38.075368,45.358059 37.788152,44.666776 38.052303,44.587448 38.987296,44.536656" slic3r:type="contour"/>
    <polygon style="fill: white" points="38.309268,46.753316 38.802896,47.863896 38.968272,48.149264 38.398856,48.056604 37.755316,48.154956 37.3535,47.50884 37.081652,46.764148 37.287387,46.730732" slic3r:type="contour"/>
    <polygon style="fill: white" points="37.455627,48.856528 37.858316,50.015268 37.983948,50.296948 37.408896,50.15316 36.757596,50.167615 36.425867,49.485319 36.202456,48.724708 36.390207,48.723787" slic3r:type="contour"/>
    <polygon style="fill: white" points="35.336211,50.514527 36.392632,50.788456 36.683048,52.04554 36.748444,52.267008 36.148095,52.048991 35.525804,51.963752 35.277847,51.221415 35.13084,50.478256" slic3r:type="contour"/>
    <polygon style="fill: white" points="34.004544,53.588144 33.968072,53.576444 33.967812,53.574736 33.967616,53.572196 34.012299,53.53044" slic3r:type="contour"/>
    <polygon style="fill: white" points="34.082012,52.0676 35.064271,52.47242 35.21856,53.854244 35.23624,53.969288 34.599771,53.658344 34.037684,53.481548 33.89182,52.668324 33.831548,51.97796" slic3r:type="contour"/>
    <polygon style="fill: white" points="5.464086,44.707484 6.001973,44.666756 5.801299,44.9341 5.222851,46.030026 5.282809,46.22226 5.294873,46.285812 5.278407,46.317144 5.263717,46.316036 5.181755,46.289404 5.151856,45.992838 4.257445,45.958708 4.04861,45.896624 4.362489,45.163203 4.802922,44.536628" slic3r:type="contour"/>
    <polygon style="fill: white" points="6.111702,46.838348 6.708448,46.764148 6.57167,46.983595 6.034798,48.154956 5.06621,48.193464 4.821855,48.149264 5.076629,47.443487 5.480822,46.753324" slic3r:type="contour"/>
    <polygon style="fill: white" points="7.484947,48.936664 7.032477,50.167628 6.039372,50.306459 5.806183,50.296875 6.006759,49.581491 6.334512,48.856528 6.965387,48.849332 7.587677,48.7247" slic3r:type="contour"/>
    <polygon style="fill: white" points="8.577194,50.725887 8.264416,51.963751 7.219162,52.244628 7.041685,52.267008 7.179359,51.515404 7.397471,50.788484 8.045802,50.668407 8.659313,50.47828" slic3r:type="contour"/>
    <polygon style="fill: white" points="9.901185,52.30152 9.75244,53.48156 8.643683,53.941548 8.553914,53.969292 8.617389,53.163832 8.725876,52.472424 9.395603,52.229679 9.958572,51.977952" slic3r:type="contour"/>
    <polygon style="fill: white" points="9.818993,53.568563 9.822547,53.572232 9.822098,53.576408 9.819935,53.577296 9.786246,53.587908 9.79555,53.547004" slic3r:type="contour"/>
    <polygon style="fill: white" points="11.433834,53.666819 11.424891,54.617484 12.128659,54.97993 12.675112,54.600591 13.091544,54.287408 13.127909,54.791572 13.200262,55.517348 13.996583,55.829628 14.461754,55.427419 14.816209,55.096504 14.91497,55.646499 15.033559,56.227784 15.834985,56.467244 16.245771,56.034007 16.563932,55.675295 16.713027,56.209559 16.882729,56.766761 17.652241,56.927492 18.031415,56.446488 18.327696,56.052072 18.512392,56.541556 18.750168,57.134822 19.468534,57.222897 19.824699,56.685908 20.105056,56.255488 20.313454,56.695884 20.625337,57.331492 21.299269,57.35846 21.630916,56.770967 21.895064,56.313612 22.125299,56.721539 22.489984,57.359284 23.160838,57.33245 23.449151,56.723436 23.685072,56.255488 23.953559,56.660207 24.324668,57.225402 25.032652,57.138669 25.264568,56.524171 25.46245,56.052084 25.778974,56.453372 26.145405,56.930882 26.897841,56.773662 27.070471,56.154636 27.226212,55.675268 27.586556,56.054948 27.965873,56.470291 28.74737,56.236284 28.861666,55.597764 28.973934,55.096504 29.354468,55.424964 29.804353,55.83128 30.582419,55.524838 30.63124,54.839611 30.698598,54.287428 31.05592,54.534812 31.668734,54.98036 32.360728,54.621797 32.325546,53.868171 32.337335,53.247692 32.645401,53.409879 33.515788,53.902352 33.516096,54.229143 33.68952,54.416552 33.645512,55.288348 33.517183,55.382197 33.517184,55.382879 33.516652,55.383169 33.516771,55.393975 33.507289,55.388286 31.831667,56.303704 31.671535,56.385609 31.670144,56.398956 31.663804,56.401582 31.649774,56.541872 31.603468,56.507516 31.527574,56.458 30.046611,57.071328 29.763272,57.181534 29.759436,57.200132 29.747721,57.203825 29.702052,57.429968 29.631846,57.366532 29.520759,57.275375 28.172142,57.700531 27.835243,57.800336 27.829198,57.82014 27.816567,57.822934 27.742852,58.06538 27.673028,57.989056 27.562823,57.879055 26.217247,58.17666 25.88811,58.244804 25.881598,58.261092 25.871874,58.262359 25.783946,58.479012 25.725963,58.403731 25.636769,58.296842 25.636584,58.29688 25.633995,58.293362 24.223396,58.477207 23.934235,58.51233 23.928668,58.523747 23.923266,58.523976 23.833268,58.702044 23.788597,58.634459 23.720901,58.538241 23.719664,58.538391 23.716105,58.532768 22.251696,58.594911 21.992831,58.60517 21.988541,58.612748 21.987151,58.612689 21.895066,58.766072 21.858458,58.702823 21.804318,58.612639 21.801585,58.612747 21.797055,58.604607 20.351181,58.543135 20.076383,58.532256 19.956888,58.702043 19.919591,58.628511 19.866742,58.523955 19.861481,58.523747 19.854864,58.510196 18.478956,58.330308 18.16243,58.291905 18.006182,58.479016 17.967876,58.388712 17.91647,58.262064 17.908527,58.2611 17.90023,58.240754 16.587572,57.94994 16.236099,57.877135 16.047278,58.06538 16.013194,57.962975 15.970353,57.822087 15.960933,57.820136 15.952831,57.794686 14.620571,57.375371 14.278763,57.273827 14.088075,57.429968 14.065246,57.333191 14.038892,57.202568 14.030694,57.200132 14.025183,57.175369 12.50201,56.548444 12.26993,56.457631 12.140356,56.541872 12.132237,56.481183 12.12421,56.400609 12.119983,56.398955 12.117786,56.380934 10.284681,55.388515 10.273353,55.394008 10.272994,55.382939 10.27294,55.382911 10.272901,55.381141 10.144603,55.288368 10.198254,55.255979 10.263907,54.971491 10.254298,54.533843 10.274359,53.902259 10.961923,53.538452 11.452797,53.247676" slic3r:type="contour"/>
  </g></svg>