<svg width="43.790126" height="63.590156" xmlns="http://www.w3.org/2000/svg" xmlns:svg="http://www.w3.org/2000/svg" xmlns:xlink="http://www.w3.org/1999/xlink" xmlns:slic3r="http://slic3r.org/namespaces/slic3r"><g xmlns="http://www.w3.org/2000/svg" slic3r:z="2.83849999999999e-005" id="layer85">
    <polygon style="fill: white" points="9.580861,58.668004 9.728103,59.37897 11.212823,59.639982 11.234063,59.62656 11.622215,59.354299 11.63698,59.420444 11.709976,59.672461 12.891354,59.80416 13.582454,60.232857 13.735255,60.124736 13.773006,60.094936 13.862808,60.406763 13.878472,60.416479 13.882926,60.429256 15.271951,61.182427 15.758752,60.796055 15.873844,60.694048 16.12492,61.424527 16.248306,61.723592 16.272118,61.736832 16.273848,61.741106 16.829202,61.981304 16.29955,61.943255 16.204084,62.020224 16.05706,62.004874 15.506305,62.503411 15.368971,62.616708 15.088244,61.903726 14.166834,61.807528 13.504074,61.769167 13.45559,61.804452 13.407004,61.797843 13.215618,61.953567 13.167623,61.989124 13.088551,61.754522 12.789225,61.713803 12.18271,61.66418 11.546796,61.241016 11.190956,61.036591 10.91695,61.214628 10.896089,61.138184 10.825418,60.826597 10.791293,60.806992 10.760432,60.696329 10.449985,60.458512 9.540634,59.850422 9.540007,59.850804 9.516661,59.82928 9.437928,59.877463 8.706405,60.274972 8.660648,60.044155 8.528206,59.173403 8.517301,59.166112 8.524405,59.148414 8.511289,59.062184 8.939738,58.838995 9.552372,58.477308" slic3r:type="contour"/>
    <polygon style="fill: white" points="7.695617,57.814727 7.773502,58.690608 7.257316,58.928463 6.639546,59.174875 6.603924,58.772855 6.569469,57.949824 7.171981,57.714355 7.682232,57.486692" slic3r:type="contour"/>
    <polygon style="fill: white" points="6.078489,56.863019 6.014834,57.600208 5.299039,57.78504 4.825361,57.880764 4.868852,57.308343 4.949649,56.66542 5.74718,56.495423 6.138505,56.394056" slic3r:type="contour"/>
    <polygon style="fill: white" points="2.432986,48.684619 3.007772,49.167472 2.923539,49.285932 2.780298,49.49172 3.091364,49.673827 2.945205,49.885268 2.362177,50.702031 2.805559,50.949987 3.442803,51.404308 3.418012,51.432843 3.378984,51.49664 3.574862,51.985952 3.603439,52.506131 3.673493,52.529379 3.703119,52.538432 3.625024,52.63952 3.684508,53.190376 3.75891,53.820195 4.08922,53.878368 4.217298,53.895708 3.894816,54.469369 4.065577,55.21066 4.757614,55.203072 5.011807,55.188932 4.813023,55.775647 4.639994,56.340332 3.718269,56.38032 3.422489,56.380688 3.626982,55.673328 3.722553,55.399323 3.236529,54.995371 3.131954,54.976116 3.041272,54.863067 2.548976,54.786763 2.425984,54.765328 2.637544,54.35976 2.456279,54.133787 1.836128,53.226112 1.827302,53.130427 1.79766,53.12026 1.80346,53.112451 1.82475,53.083819 1.788281,52.206351 1.738162,51.944971 1.481939,51.761635 1.58046,51.640996 2.189321,50.73968 1.65922,50.412291 1.148339,50.11528 1.276401,49.953244 1.447596,49.721088 1.023258,49.36102 1.222932,49.095 1.862379,48.23282" slic3r:type="contour"/>
    <polygon style="fill: white" points="2.02791,45.001527 2.529656,45.545748 2.380706,45.779287 2.070705,46.188739 2.078381,46.194136 2.075463,46.198444 2.645576,46.572856 2.432222,46.834052 1.784819,47.671136 1.181046,47.26626 0.681032,46.912884 0.860156,46.693836 1.166324,46.321738 1.143205,46.299004 1.18314,46.247161 0.534071,45.611515 0.848498,45.205704 1.417775,44.423112" slic3r:type="contour"/>
    <polygon style="fill: white" points="1.132184,37.682392 1.087666,37.753094 1.616476,38.265988 2.075429,38.621048 1.636386,38.999168 1.104579,39.599358 1.17161,39.732744 1.13929,39.769251 1.780351,40.517184 2.156585,41.076388 1.928757,41.467295 1.436062,42.065272 1.525891,42.142448 1.504277,42.175884 1.624901,42.273524 2.260829,42.726776 1.970001,43.035983 1.353329,43.808024 0.723992,43.36242 0.283214,42.97938 0.514963,42.689712 0.937045,42.22757 0.89825,42.182808 1.009654,42.032282 0.786615,41.728063 0.157792,40.990032 0.642124,40.392391 1.029273,39.825459 0.940622,39.737188 1.035574,39.579556 0.392626,39.090104 0.084396,38.752488 0.42905,38.337176 1.0293,37.788622 0.960401,37.677896 1.00931,37.615848 1.043626,37.58546" slic3r:type="contour"/>
    <polygon style="fill: white" points="2.042392,34.370876 2.255995,34.5515 1.743693,34.897012 1.783521,35.053728 1.734827,35.101509 1.980795,35.525024 2.140893,35.924923 1.720542,36.613583 1.059025,37.27682 0.388454,35.786312 0.168538,35.410504 0.541062,35.008257 0.467487,34.917992 0.511588,34.852949 0.32791,34.691104 0.238832,34.562136 0.836502,33.934819 1.372341,33.547368" slic3r:type="contour"/>
    <polygon style="fill: white" points="3.501799,27.089351 3.811239,27.347406 3.200865,27.616733 2.953839,27.776264 2.929217,28.010138 2.789777,28.107631 2.937875,28.943125 2.962721,30.319924 2.865567,30.445108 2.732794,30.531202 2.772814,30.59049 2.743861,30.627804 2.867616,30.734398 2.805027,30.769044 2.354501,31.129599 2.096808,31.461708 1.608398,31.807062 1.564899,31.570695 1.246709,31.276145 0.840081,30.644589 1.044433,30.462738 1.329023,30.288949 1.312911,30.201398 1.528093,30.017128 1.34873,28.44811 2.088783,27.933806 1.918663,27.649922 1.998855,27.561741 1.781756,27.351065 1.700283,27.202512 2.38461,26.689504 3.042317,26.369066" slic3r:type="contour"/>
    <polygon style="fill: white" points="19.625873,3.238914 19.69827,3.125511 19.842428,3.41903 19.94785,3.376412 20.166493,3.307329 20.185332,3.284091 20.191826,3.282743 20.238262,3.211573 20.260535,3.268485 20.440444,3.231152 20.518106,3.522217 20.592003,3.412716 20.688054,3.264243 20.831944,3.696199 20.912415,3.853036 21.099263,3.540403 21.250766,3.285906 21.444416,3.691562 21.553231,3.887755 21.743462,3.550969 21.895064,3.286075 22.118641,3.68942 22.223877,3.873307 22.394382,3.54754 22.53936,3.285893 22.780947,3.687806 22.850348,3.804394 23.009608,3.446764 23.10207,3.264248 23.374128,3.644426 23.384582,3.494356 23.431208,3.415539 23.34965,3.23116 23.510665,3.281222 23.551868,3.211571 23.582195,3.261818 23.596231,3.283411 23.604796,3.284094 23.78974,3.482719 23.857657,3.499627 24.091896,3.125515 24.270051,3.432024 24.3272,3.35029 24.313366,3.067986 24.440987,3.372428 24.666978,3.493642 24.712049,3.489783 24.996032,3.245476 25.020835,3.463346 25.206766,3.447429 25.318396,3.30028 25.195041,3.739034 25.240866,3.801461 25.436348,3.906312 25.822607,4.025071 25.945006,3.992971 25.92001,4.106276 26.015354,4.056843 25.912387,4.140831 25.773301,4.771301 25.97229,4.858635 26.38399,4.828624 26.2772,4.907804 26.236384,5.016394 26.479224,5.054158 26.324636,5.622067 26.521004,5.68968 26.852233,5.61539 26.737834,5.706745 26.690301,5.877564 26.986824,5.838982 26.932206,6.383144 27.153206,6.430635 27.55742,6.347256 27.49362,6.411255 27.446839,6.586671 27.664964,6.475354 27.694998,7.097924 27.975692,7.146305 28.570924,7.169594 28.651521,7.98069 28.879171,8.028846 29.3974,8.13994 28.968534,8.404843 28.706309,8.570166 28.722266,8.698265 29.072246,8.774187 29.422586,8.846154 29.472194,8.757942 29.609454,8.482112 29.648015,8.895184 29.73258,8.915021 30.000209,8.981267 30.00021,8.981268 29.675388,9.113372 29.721652,9.419488 29.726791,9.460121 29.904622,9.49181 30.660568,9.602439 30.702906,9.76357 30.785154,10.083942 30.940291,10.112187 31.688219,10.236982 31.712923,10.215866 31.732142,10.194291 31.744296,10.245842 32.006222,10.322321 32.117292,10.728186 32.097317,11.025386 32.387362,10.802732 32.634778,10.568493 32.663395,10.66576 32.848838,11.180324 33.046102,10.840724 33.177806,10.735405 33.208486,10.747832 33.226802,10.746854 33.229841,10.755825 33.485078,10.84625 33.524876,10.811411 33.536002,10.769402 33.543214,10.735285 33.542076,10.729766 33.542418,10.725086 33.547177,10.727447 33.549586,10.72243 33.553705,10.731785 33.764043,10.854804 33.79728,10.51478 34.075688,10.570001 34.167685,10.601035 34.167308,10.404368 34.27718,10.057101 34.744863,10.181989 34.815754,10.216044 35.069864,9.852659 35.23568,9.670775 35.79835,10.218492 36.148012,10.062231 36.346224,9.997863 36.415181,10.517792 36.46932,10.522804 36.514517,10.696405 36.931424,10.640385 37.14164,10.632189 37.035078,11.244917 37.08296,11.280885 37.079262,11.325035 37.512931,11.356209 37.728544,11.3937 37.499931,11.984541 37.466622,12.057575 37.938608,12.180455 38.151476,12.255822 37.82958,12.775456 37.767238,12.866767 38.197628,13.060159 38.409764,13.169955 38.021919,13.616216 37.91462,13.731574 38.320204,13.981194 38.537868,14.128417 38.112976,14.510142 37.946334,14.649172 38.325564,14.930541 38.572368,15.124338 38.144695,15.466593 37.799588,15.710496 38.272312,16.045633 38.581452,16.215345 38.211323,16.517355 37.876326,16.741817 38.611548,17.24906 38.701356,17.311958 38.600783,17.456574 38.647448,17.490626 38.730224,17.537444 38.402399,17.915226 38.185171,18.276796 38.69894,18.52349 39.073408,18.697188 38.695522,19.351126 39.017216,19.567562 39.518716,19.94184 39.507552,20.072776 39.499282,20.129516 39.51352,20.136572 39.51812,20.16886 39.622556,20.198736 39.586843,20.245596 39.540544,20.326251 39.666564,21.210768 39.663891,21.621804 39.78742,21.688275 39.820665,21.857684 40.314756,22.030506 40.131671,22.207998 39.947577,22.504407 39.969376,22.615492 39.987943,23.521362 40.212956,23.650272 40.254403,23.892476 40.500447,24.032794 41.133632,24.304874 40.804308,24.573324 40.355852,25.264996 39.700203,25.012042 39.015768,24.509972 39.075428,24.382023 39.297266,24.154358 39.2344,24.101858 39.441854,23.701206 38.789024,23.056014 38.41448,22.823156 38.348639,22.40331 38.31814,22.382778 38.317208,22.373623 38.276131,22.356899 38.2388,22.331052 38.300859,22.213004 38.265968,21.870218 38.100907,20.903175 37.956728,20.819266 37.957144,20.798389 37.784047,20.725057 37.6258,20.622968 37.956048,19.973325 37.973994,19.953856 37.981069,19.599227 37.479807,19.349925 37.13418,19.167118 37.338267,18.754826 37.572209,18.465272 36.992796,18.064354 36.781204,17.917774 36.884272,17.7293 36.810227,17.668881 36.744984,17.640924 37.25706,17.028994 37.279573,17.006435 37.40698,16.773451 36.955272,16.493439 36.594752,16.261475 37.074503,15.785634 37.329242,15.648484 36.807784,15.300758 36.57584,15.143211 37.202233,14.644731 36.742684,14.373058 36.545088,14.266339 37.104737,13.824805 36.652052,13.626325 36.4531,13.55162 36.906647,13.103879 36.496555,13.004305 36.289,12.958835 36.629529,12.474775 36.232967,12.463354 36.04042,12.450292 36.24519,11.954567 35.868216,12.033342 35.73152,12.048695 35.779206,11.717636 35.691464,11.681608 35.511429,11.781532 35.516699,11.824188 35.454465,11.810027 35.447379,11.812887 35.446506,11.808216 35.379952,11.793071 35.327229,11.77494 35.227471,11.877315 35.22912,11.883875 35.172076,11.93811 35.22154,12.165337 35.087495,12.144876 34.977654,12.122954 34.789787,12.301566 34.723968,12.367067 34.727856,12.417506 34.685645,12.437352 34.675444,12.635508 34.572336,12.594396 34.453594,12.546454 34.020888,12.749896 33.967068,12.778025 33.943664,12.825846 33.938883,12.826023 33.876028,12.939035 33.83054,12.889171 33.772126,12.832211 32.980169,12.861599 32.97796,12.863987 32.97668,12.863757 32.961174,12.879031 32.954905,12.861437 32.951676,12.861463 32.950812,12.859103 32.811722,12.834077 32.22677,12.463364 32.210402,12.476404 32.196725,12.46383 32.111043,12.533107 32.050204,12.587556 31.978914,12.306286 31.962957,12.296173 31.94687,12.234107 31.50929,11.831786 31.26542,12.015415 31.067242,12.177847 30.949304,11.633769 30.897882,11.38932 30.538142,11.331279 30.405682,11.440179 30.03751,11.764926 29.940348,11.389291 29.909821,11.268871 29.417258,11.231132 29.204936,11.220938 28.976098,11.430905 28.922223,11.25216 28.909032,11.206729 28.192262,11.172316 28.11116,10.783888 27.884514,10.985541 27.79553,10.425909 27.783115,10.351661 27.77395,10.35034 27.772028,10.334041 26.947508,10.200509 27.251883,9.798915 27.24409,9.790052 27.392312,9.613651 27.147267,9.555323 27.100995,9.596571 26.772428,9.929195 26.712827,9.509047 26.702787,9.452228 26.694572,9.450445 26.694236,9.447488 26.499386,9.401108 26.59844,9.312137 26.666331,9.245926 26.660776,9.214494 26.667198,9.209715 26.635344,8.929588 26.61164,8.756476 26.212348,8.654143 26.41662,8.476153 26.555249,8.34463 26.546224,8.278715 26.582281,8.251743 26.567393,8.132647 25.902654,8.01055 26.228166,7.640616 26.332842,7.507899 26.198732,7.520615 25.900265,7.447884 25.570492,7.601821 25.604238,7.44227 25.602093,7.375223 25.434618,7.334413 25.515359,7.213212 25.593295,7.100177 25.586162,6.877209 25.713422,6.628124 25.282358,6.553394 24.919624,6.476449 25.011629,6.293622 24.91804,6.276741 24.804196,6.304135 25.026166,5.934367 25.053195,5.766527 24.494492,5.584941 24.49717,5.579951 24.661155,5.274488 24.475619,5.176625 24.443721,5.270182 24.406004,5.526013 24.073504,5.329295 23.973674,5.62777 23.694765,5.242514 23.546391,5.249109 23.466882,5.409172 23.33543,5.697219 23.031059,5.229869 22.893295,5.226628 22.783593,5.42414 22.625394,5.718754 22.319186,5.215395 22.266564,5.214672 22.263522,5.209495 22.194277,5.209011 22.066774,5.426499 21.895063,5.718743 21.596368,5.209234 21.527074,5.208961 21.523562,5.214672 21.481375,5.214172 21.347954,5.43338 21.164732,5.718764 20.891729,5.227502 20.783384,5.227005 20.645912,5.437483 20.454714,5.697207 20.232525,5.250339 20.097877,5.254996 19.973525,5.426225 19.816438,5.627776 19.679168,5.291518 19.529282,5.362265 19.384152,5.526014 19.289212,5.23633 19.145171,5.244794 19.062445,5.289634 19.295644,5.584928 18.925056,5.634378 18.83181,5.666524 18.913387,5.929447 18.98593,6.304144 18.795665,6.348265 18.870496,6.476452 18.2688,6.53965 18.110036,6.576637 18.121527,6.713976 18.203955,6.877185 18.209289,7.124131 18.35548,7.334414 18.214231,7.353036 18.219604,7.601822 17.931805,7.607477 17.608984,7.515924 17.5124,7.54145 17.62883,7.680527 17.887424,8.010585 17.419253,8.057822 17.255245,8.092191 17.235991,8.272769 17.243774,8.278765 17.237304,8.33186 17.577756,8.654179 17.311273,8.708695 17.187327,8.741973 17.156611,8.994025 17.127289,9.212965 17.129319,9.214489 17.125352,9.239886 17.290734,9.401113 17.156111,9.431223 17.096122,9.445666 17.095479,9.450465 17.092357,9.451139 17.017682,9.929228 16.693588,9.687052 16.578686,9.570246 16.395867,9.614261 16.546011,9.790067 16.508611,9.833658 16.723626,10.082106 16.842618,10.200511 16.225636,10.31505 16.01667,10.346676 16.016181,10.350326 16.010061,10.351329 15.905563,10.985565 15.626785,10.754944 15.577851,10.995178 15.597896,11.172293 15.044953,11.194381 14.880082,11.203415 14.814024,11.430885 14.655317,11.296919 14.570866,11.220359 14.389069,11.23032 14.37768,11.218948 14.318251,11.222144 13.880993,11.258478 13.752601,11.764936 13.412059,11.493675 13.228478,11.333965 12.890521,11.388801 12.790019,11.858667 12.722913,12.177842 12.229382,11.82095 12.2077,11.851247 12.195209,11.841994 11.916986,12.080279 11.870033,12.135409 11.827202,12.296062 11.806005,12.307326 11.760805,12.494814 11.739916,12.587546 11.585525,12.469466 11.579666,12.476346 11.542075,12.447568 11.435041,12.504442 10.978391,12.834088 10.8396,12.858267 10.838483,12.861461 10.836616,12.861378 10.828984,12.879032 10.816748,12.868664 10.808444,12.860126 10.069265,12.827251 10.030233,12.827 9.914092,12.939044 9.878864,12.876907 9.850396,12.825849 9.846427,12.825824 9.83475,12.793163 9.344727,12.567046 9.31841,12.553112 9.11465,12.635492 9.110735,12.533479 9.106088,12.440685 9.06222,12.417457 9.06554,12.376023 8.8419,12.164656 8.795528,12.118307 8.56856,12.165332 8.594802,12.053227 8.619202,11.942066 8.560994,11.883887 8.5691,11.851974 8.470932,11.751563 8.341855,11.79904 8.342718,11.812877 8.328733,11.803866 8.27343,11.824209 8.286817,11.75836 8.135311,11.814553 8.006104,11.838397 8.023032,11.932257 8.058635,12.048668 7.654275,11.946487 7.55487,12.029312 7.668057,12.290141 7.749698,12.450292 7.146762,12.458846 7.380389,12.789814 7.50113,12.958834 6.903255,13.108827 7.191104,13.397415 7.337025,13.55162 6.711132,13.83925 7.075669,14.128731 7.245037,14.266363 6.64736,14.630268 6.576448,14.669243 7.004816,15.001143 7.214288,15.143211 6.676211,15.499735 6.40601,15.68269 6.9015,16.143532 7.195369,16.261457 6.770166,16.521585 6.38331,16.769018 6.58466,17.135939 6.961903,17.557961 7.045144,17.640897 6.917154,17.741846 6.954723,17.810308 7.008924,17.917756 6.576273,18.216713 6.16484,18.501726 6.370407,18.848315 6.655949,19.167128 6.01264,19.487375 5.862486,19.564684 5.917021,20.114594 5.897506,20.279039 6.04327,20.51416 6.164345,20.622932 5.840861,20.756355 5.833398,20.819244 5.78664,20.841198 5.779286,21.136851 5.49927,22.272148 5.522787,22.308662 5.551325,22.331052 5.477581,22.360086 5.471984,22.382778 5.459737,22.389348 5.457049,22.464465 5.375648,22.823152 4.804462,23.716674 4.434715,23.912531 4.555745,24.101855 4.440906,24.237649 4.774356,24.509978 4.610494,24.569566 3.434295,25.265012 2.888866,24.731418 2.656475,24.30493 3.078838,24.025283 3.566865,23.815593 3.577236,23.650272 3.85383,23.461083 3.912941,22.757239 3.782479,22.612128 3.475358,22.030522 3.715381,21.891904 3.993964,21.792485 4.002716,21.688274 4.205966,21.558768 4.23363,21.161941 4.265867,20.392829 4.167571,20.19871 4.216807,20.174543 4.275759,20.15682 4.276609,20.136544 4.294981,20.126182 4.271416,19.941804 4.727841,19.62898 5.13473,19.343373 5.020893,19.147311 5.022411,19.146603 4.857545,18.866414 4.716729,18.697157 5.133394,18.492336 5.56875,18.289224 5.208638,17.778252 5.059907,17.537364 5.198969,17.436681 5.139335,17.347484 5.08877,17.311924 5.586296,16.972001 5.932965,16.730019 5.534201,16.420257 5.20868,16.215356 5.69582,15.86398 5.981006,15.690658 5.464292,15.290344 5.217741,15.124337 5.70423,14.766637 5.858391,14.647967 5.453503,14.291539 5.252278,14.128378 5.76669,13.817961 5.892926,13.735398 5.54283,13.3403 5.38036,13.169976 5.941744,12.926021 6.045445,12.874902 5.762013,12.430128 5.638648,12.2558 6.231159,12.11512 6.352725,12.076039 6.1476,11.571074 6.061585,11.393722 6.715946,11.364301 6.707119,11.280977 6.771421,11.227392 6.693183,10.811042 6.648456,10.632219 7.274424,10.732107 7.320789,10.522804 7.39737,10.50283 7.437191,10.17103 7.443872,9.997864 8.002613,10.263699 8.04886,10.280683 8.207518,10.095421 8.253367,10.117747 8.544097,9.816325 8.554481,9.670765 8.868126,10.13907 9.005869,10.306821 9.372182,10.196237 9.512928,10.057134 9.490146,10.456982 9.530612,10.71164 9.791426,10.652701 9.992809,10.514765 9.939644,10.730556 9.922899,10.992328 10.016646,10.946772 10.053069,10.889644 10.233541,10.733377 10.236228,10.727814 10.241468,10.721209 10.247806,10.725131 10.246552,10.730397 10.345424,10.84748 10.387813,10.836532 10.553817,10.76063 10.563357,10.746857 10.569141,10.754249 10.612526,10.735367 10.614098,10.816874 10.907279,11.200094 10.989435,10.937512 11.155347,10.568474 11.225785,10.62037 11.779781,11.076961 11.822605,10.540557 11.784123,10.32223 12.0418,10.249038 12.057956,10.194318 12.107426,10.235291 12.15656,10.226467 13.0196,10.077392 13.071603,9.883893 13.128453,9.60319 14.086732,9.448075 14.117605,9.258079 14.129808,9.112433 14.011919,9.062848 13.78985,8.981305 14.146671,8.89541 14.154704,8.827174 14.18072,8.482037 14.375821,8.842537 15.086353,8.690497 15.099278,8.592587 14.794484,8.406201 14.392737,8.139932 15.15693,7.977545 15.172428,7.860221 15.216922,7.173643 15.619493,7.116481 16.128543,7.049176 16.133093,6.987766 16.125161,6.475354 16.264275,6.555654 16.232707,6.347251 16.697338,6.273286 16.920482,6.253358 16.803314,5.838951 16.997115,5.901234 16.937884,5.615393 17.412416,5.46843 17.532892,5.450933 17.310928,5.054145 17.486872,5.071134 17.40615,4.82863 17.722718,4.695872 17.971979,4.643084 17.9338,4.464528 17.772634,4.159813 17.774738,4.056877 17.848397,4.036401 17.845104,3.992993 17.961908,4.004846 18.176298,3.945249 18.215542,3.746279 18.471758,3.300262 18.766271,3.33603 18.794132,3.24545 18.955177,3.358974 19.040335,3.369317 19.476764,3.067976" slic3r:type="contour"/>
    <polygon style="fill: black" points="30.010406,10.037728 30.16438,10.052553 30.217087,10.006411 30.158018,9.931926" slic3r:type="hole"/>
    <polygon style="fill: black" points="13.485431,9.932379 13.59301,10.02606 13.765446,10.011367 13.54334,9.857857" slic3r:type="hole"/>
    <polygon style="fill: white" points="41.876223,27.098029 42.089872,27.202558 41.757001,27.474578 41.871516,27.64989 41.78757,27.771169 42.149083,28.006839 42.441372,28.447994 42.472296,29.535911 42.359216,30.114415 42.477148,30.201332 42.464397,30.350202 42.950032,30.644528 42.758036,30.80673 42.319917,31.39669 42.18144,31.80668 41.977812,31.593943 41.587395,31.368397 40.922512,30.734372 40.951496,30.686858 41.034022,30.607934 41.017287,30.59045 41.073817,30.486412 40.827416,30.319928 40.936279,29.434632 41.056238,28.174948 40.86094,28.010152 40.859191,27.87182 40.353328,27.642934 39.978883,27.34739 40.195264,26.92342 40.747888,26.369091" slic3r:type="contour"/>
    <polygon style="fill: white" points="43.386508,34.443612 43.5513,34.562164 43.258907,34.800923 43.322664,34.917984 43.279209,34.965639 43.495107,35.191047 43.621584,35.410384 43.245799,36.455604 42.730948,37.276336 42.026332,36.309368 41.649224,35.924752 42.08268,35.139636 42.006592,35.053708 42.033407,34.971136 41.716472,34.751368 41.534148,34.551556 41.91106,34.008095 42.417808,33.547392" slic3r:type="contour"/>
    <polygon style="fill: white" points="42.829772,37.677924 42.783263,37.76512 42.758792,37.795324 43.266916,38.353644 43.705732,38.7525 43.22022,39.108624 42.753392,39.569094 42.779767,39.603167 42.849468,39.737212 42.765617,39.81384 43.327663,40.498915 43.632324,40.99012 43.320504,41.458751 42.794873,42.061713 42.891848,42.182832 42.843321,42.242653 42.953848,42.374708 43.506911,42.979368 43.120147,43.249652 42.436984,43.808088 41.907563,43.239651 41.529295,42.726804 41.765831,42.52448 42.274873,42.157418 42.264232,42.142459 42.377762,42.036652 42.209311,41.781051 41.633552,41.076252 42.116016,40.502719 42.652227,39.775072 42.618484,39.732772 42.690372,39.607707 42.0286,39.024052 41.714684,38.621116 42.02258,38.292644 42.706649,37.747996 42.658016,37.682416 42.711088,37.615484 42.746568,37.585508" slic3r:type="contour"/>
    <polygon style="fill: white" points="42.879112,45.075512 43.256052,45.611632 43.014596,45.869611 42.614983,46.258501 42.646988,46.299067 42.623337,46.322638 43.109088,46.912956 42.776112,47.135707 42.005348,47.671099 41.544732,47.105824 41.144548,46.572828 41.327595,46.444344 41.735723,46.175191 41.260476,45.545667 41.584471,45.236628 42.372468,44.422996" slic3r:type="contour"/>
    <polygon style="fill: white" points="42.358487,48.806775 42.76686,49.36112 42.599431,49.495672 42.345069,49.712335 42.641792,50.11536 42.3482,50.296915 41.609708,50.736718 41.927159,51.138475 42.308188,51.761648 42.216388,51.805051 42.080497,51.905247 41.976135,53.065388 41.971312,53.091787 41.992468,53.120228 41.967267,53.127946 41.954,53.226083 41.130306,54.33866 41.303843,54.664087 41.364144,54.765332 40.745844,54.857959 40.658372,54.976108 40.526585,55.000327 40.058083,55.398494 40.276391,56.128963 40.367644,56.380684 39.705852,56.344771 39.150196,56.340364 38.857652,55.454168 38.778312,55.188952 39.473324,55.191104 39.725616,55.201915 39.89279,54.470604 39.637731,54.014311 39.572832,53.895724 40.014715,53.814594 40.048736,53.465315 40.162749,52.632877 40.105988,52.560764 40.087011,52.538464 40.174239,52.509015 40.173408,52.458008 40.215184,51.986343 40.379004,51.620424 40.413565,51.511304 40.347328,51.404316 40.402564,51.374323 41.433941,50.707555 41.072427,50.184735 40.698764,49.673868 40.819432,49.606924 41.010684,49.495398 40.782348,49.167536 40.975932,49.014107 41.927776,48.232928" slic3r:type="contour"/>
    <polygon style="fill: white" points="38.174224,56.501004 38.840432,56.665288 38.90572,57.449736 38.964768,57.880759 38.471028,57.746624 37.7754,57.600264 37.686404,56.837492 37.65164,56.394024" slic3r:type="contour"/>
    <polygon style="fill: white" points="36.452835,57.617939 37.220736,57.949844 37.169512,58.570667 37.150568,59.174884 36.825472,59.020684 36.016576,58.690548 36.048512,58.096904 36.107924,57.486668" slic3r:type="contour"/>
    <polygon style="fill: white" points="34.430096,58.575096 35.278836,59.062184 35.263262,59.143064 35.272971,59.166004 35.256659,59.177357 35.191103,59.517812 35.083748,60.274956 34.904912,60.163068 34.311964,59.834862 33.018253,60.735281 32.998834,60.80702 32.95582,60.833518 32.873172,61.214656 32.815548,61.172056 32.618132,61.04155 31.607393,61.664212 30.693632,61.7649 30.63759,61.935071 30.622474,61.989148 30.392201,61.798116 30.334516,61.804472 30.303378,61.781436 28.680168,61.929958 28.476256,62.456884 28.421154,62.616708 27.812772,62.055916 27.753859,62.006692 27.58596,62.020296 27.496776,61.947276 26.960742,61.981079 27.51262,61.749956 27.517975,61.737064 27.536225,61.727487 27.851814,60.84558 27.916336,60.694028 28.555821,61.1924 29.304973,60.799244 29.900397,60.447811 29.911637,60.416528 29.919015,60.412146 29.999852,60.143028 30.017118,60.094932 30.217984,60.234538 30.436581,60.104676 30.898816,59.804148 31.685302,59.742727 32.067761,59.688452 32.167944,59.354296 32.232654,59.393256 32.620493,59.658013 32.999815,59.609752 34.045438,59.405634 34.072643,59.240048 34.237708,58.477328" slic3r:type="contour"/>
    <polygon style="fill: white" points="26.423409,61.651851 26.754392,61.979516 26.34436,62.864819 26.240562,63.103463 25.723799,62.560739 25.380155,62.230427 25.755955,61.379016 25.871938,61.150456" slic3r:type="contour"/>
    <polygon style="fill: white" points="24.321047,61.939935 24.669702,62.343144 24.225604,63.135327 24.068648,63.41812 23.627422,62.876812 23.278972,62.478355 23.705759,61.710924 23.869714,61.44074" slic3r:type="contour"/>
    <polygon style="fill: white" points="18.190419,61.786903 18.40995,62.230604 17.745507,62.917252 17.549566,63.103464 17.218146,62.394772 17.035746,61.979495 17.748541,61.32164 17.918188,61.150456" slic3r:type="contour"/>
    <polygon style="fill: white" points="20.228692,62.005272 20.511154,62.478336 19.940003,63.170484 19.721478,63.41812 19.371554,62.794948 19.120436,62.343123 19.722569,61.671708 19.920414,61.44074" slic3r:type="contour"/>
    <polygon style="fill: white" points="22.26135,62.062076 22.593684,62.521524 22.098293,63.24644 21.895064,63.531896 21.511635,62.966763 21.196432,62.521544 21.698453,61.815264 21.895064,61.544592" slic3r:type="contour"/>
  </g></svg>