<svg width="43.790126" height="63.590156" xmlns="http://www.w3.org/2000/svg" xmlns:svg="http://www.w3.org/2000/svg" xmlns:xlink="http://www.w3.org/1999/xlink" xmlns:slic3r="http://slic3r.org/namespaces/slic3r"><g xmlns="http://www.w3.org/2000/svg" slic3r:z="3.16849999999999e-005" id="layer95">
    <polygon style="fill: white" points="11.546397,59.130624 11.698163,59.679309 12.543034,59.769444 13.578852,59.88924 13.698269,59.795784 13.703993,59.818631 13.729345,59.895261 14.087754,59.92702 15.311108,60.857444 15.744857,60.522524 15.82762,60.450832 16.075297,61.199072 16.215445,61.54524 16.23102,61.557084 16.232259,61.560324 16.458058,61.69504 16.292965,61.681381 16.271989,61.700211 16.221384,61.741236 16.043657,61.721961 15.468093,62.235128 15.299744,62.370864 15.014882,61.610386 14.032124,61.503804 13.452531,61.462744 13.408851,61.4945 13.343079,61.486003 13.134196,61.654931 13.072953,61.6995 12.989213,61.440284 12.662946,61.398132 12.045208,61.346451 11.604002,60.918356 11.197832,60.600557 10.789544,60.865348 10.762586,60.760372 10.637626,60.162236 10.563895,60.104548 10.488879,59.829667 10.176596,59.542604 10.563582,59.602529 10.881914,59.404091 11.512596,58.959112" slic3r:type="contour"/>
    <polygon style="fill: white" points="9.446864,58.347831 9.622285,59.231388 9.201358,59.487491 8.543441,59.845588 8.483429,59.51962 8.354361,58.588952 8.912697,58.297619 9.403843,58.004644" slic3r:type="contour"/>
    <polygon style="fill: white" points="7.509507,57.465447 7.5697,58.17244 6.934369,58.459323 6.441796,58.65804 6.397134,58.083812 6.371915,57.388519 7.169942,57.079112 7.496793,56.9323" slic3r:type="contour"/>
    <polygon style="fill: white" points="3.346533,52.726964 3.958615,52.867456 3.830744,53.116848 3.525898,53.719748 4.409475,54.42622 4.775587,54.424136 4.755779,54.481603 4.711836,54.625472 5.123186,54.855415 5.254649,55.750151 5.274891,55.893771 5.782445,55.7885 5.920814,55.753772 5.826627,56.483028 5.782736,56.991704 4.890062,57.205872 4.598941,57.267156 4.666997,56.441231 4.682341,56.313252 4.10059,55.999096 3.5403,55.693589 3.484215,55.693467 3.437643,55.659266 3.230903,55.663384 3.177703,55.663592 3.225064,55.503162 3.141622,55.441887 2.969057,55.306264 3.024513,54.588276 3.028634,54.078143 2.963697,54.066336 2.990174,53.958796 2.165679,53.783952 2.286518,53.538383 2.748368,52.593208" slic3r:type="contour"/>
    <polygon style="fill: white" points="2.322834,48.286955 2.898394,48.719004 2.7729,48.914975 2.519342,49.299438 3.090261,49.777476 2.7969,50.240268 2.510808,50.718901 3.090501,50.957299 3.371449,51.085484 3.055704,51.553748 2.639063,52.205536 1.914007,51.895728 1.471279,51.692036 1.87639,51.094447 2.068493,50.799011 1.586896,50.430855 1.111616,50.032184 1.25505,49.813796 1.43645,49.513514 1.386012,49.482156 1.403343,49.46027 0.947593,49.133712 1.118177,48.897351 1.767238,47.933284" slic3r:type="contour"/>
    <polygon style="fill: white" points="1.833222,44.547424 2.432499,45.195172 2.349935,45.347916 2.186454,45.594101 2.201846,45.606408 2.195472,45.616269 2.506273,45.85716 2.381246,45.994736 1.644466,46.928512 1.151331,46.567472 0.521729,46.032224 0.593992,45.944539 0.72494,45.791576 0.707651,45.776324 0.736022,45.742278 0.46092,45.487588 0.585756,45.306976 1.328963,44.111263" slic3r:type="contour"/>
    <polygon style="fill: white" points="1.635123,37.446843 2.00115,37.743592 1.49462,38.10488 1.030667,38.569856 1.090098,38.71238 1.026325,38.776833 1.682061,39.567392 2.057432,40.198547 1.854233,40.649984 1.486692,41.213397 1.56779,41.287452 1.541107,41.335357 2.140848,41.804512 1.918736,41.999736 1.219049,42.793156 0.695949,42.409843 0.151742,41.889688 0.307645,41.712244 0.635955,41.392312 0.595843,41.345012 0.723484,41.19644 0.073008,40.373376 0.487152,39.729875 0.973365,38.834091 0.933759,38.803599 0.85422,38.71838 0.939637,38.537764 0.305847,38.041092 0.012391,37.711044 0.403796,37.295264 1.015918,36.808924" slic3r:type="contour"/>
    <polygon style="fill: white" points="2.316978,30.092661 2.579151,30.337314 2.012172,30.58231 1.679329,30.82567 1.681857,31.04123 1.556393,31.132314 1.930971,32.084759 2.170618,33.376166 2.085961,33.574288 1.98842,33.710121 2.015271,33.743488 2.003445,33.769 2.123035,33.87236 2.075824,33.899136 1.853295,34.092908 1.500304,34.854399 1.033613,35.48222 0.491421,34.159106 0.139888,33.714556 0.181369,33.675928 0.269636,33.617881 0.260364,33.595256 0.322393,33.538159 0.192572,33.168031 0.496917,32.676123 1.286062,31.191195 1.125445,30.958356 1.231989,30.755062 0.8037,30.340858 0.611731,30.046693 1.142304,29.633902 1.763973,29.306885" slic3r:type="contour"/>
    <polygon style="fill: white" points="2.668285,26.402664 2.602961,26.527226 2.817792,26.890831 3.230701,27.32567 2.926316,27.409776 2.058632,27.917944 1.596063,27.40225 1.29966,26.861132 1.634726,26.65344 2.174212,26.441229 2.163432,26.239262 2.369071,26.109046 2.476869,26.063838" slic3r:type="contour"/>
    <polygon style="fill: white" points="21.907579,2.455714 21.913973,2.455757 21.914223,2.456238 22.562523,2.451628 22.562862,2.451079 22.568802,2.451183 22.579852,2.436074 22.588461,2.451443 22.593293,2.451409 22.593458,2.451766 22.733964,2.451413 23.041903,2.726161 23.141461,2.780781 23.188221,2.728462 23.191326,2.745689 23.367326,2.567925 23.416367,2.727757 23.489139,2.971525 23.573484,3.017799 23.678031,3.280855 23.756724,3.230073 24.21292,3.022577 24.277318,3.658065 24.347331,3.673266 24.90782,3.790409 24.827554,3.908415 25.008822,3.920783 24.976918,4.244989 24.89067,4.87777 24.973414,4.903192 25.4921,5.030515 25.388291,5.157217 25.344225,5.221755 25.627394,5.326114 25.473985,6.068699 25.581758,6.108733 25.926929,6.191913 25.679385,6.428663 25.387522,6.8338 25.762882,7.002732 26.149628,7.152787 26.153415,7.157558 26.212782,7.176954 26.189085,7.202495 26.235609,7.261106 26.279972,7.879854 26.354618,7.901701 26.43355,7.932137 26.320984,8.074963 26.354893,8.141911 26.565995,8.480792 26.599882,8.485285 26.622816,8.493576 26.605926,8.530519 26.649694,8.545949 26.53842,8.766958 26.569956,8.842843 26.859984,8.847974 26.850794,9.034566 26.807256,9.224133 26.963386,9.156562 27.194454,9.09079 27.264628,9.509865 27.267183,9.636358 27.64348,9.381957 27.752128,9.322446 27.858783,9.64508 28.086151,9.732033 28.335071,9.799986 28.53144,9.645145 28.60807,9.591704 28.703881,9.849095 28.895221,9.89656 29.525601,10.027207 29.643224,9.93407 29.68628,9.902685 29.740174,10.047452 29.83493,10.063281 30.434343,10.139547 30.763724,10.288823 30.797818,10.304113 30.853706,10.268741 30.861861,10.293418 30.874386,10.338454 30.875768,10.339074 30.88237,10.358976 31.474653,10.768677 31.615244,10.858758 31.932116,10.680014 31.98463,10.835373 32.055274,11.140696 32.06636,11.147799 32.115354,11.309874 32.237859,11.402121 32.43719,11.239146 32.79522,11.026777 32.949912,11.378493 32.999969,11.568746 33.08901,11.498804 33.28468,11.256737 33.344586,11.20986 33.379919,11.262172 33.412976,11.218321 33.484507,11.355498 33.585431,11.233529 33.585737,11.233733 33.586464,11.23349 33.587386,11.234841 33.825283,11.394606 33.752848,11.118193 33.953068,11.291076 34.177377,11.343011 34.193948,11.213106 34.109052,10.819385 34.233284,10.902315 34.542858,10.965864 34.649548,10.751813 34.675077,10.700987 34.760252,10.480736 34.772847,10.470244 34.7808,10.420069 34.806851,10.441918 34.846116,10.409211 35.316982,10.626482 35.57532,10.360867 35.694744,10.247538 35.97786,10.734726 36.286359,10.579888 36.572752,10.4677 36.672639,11.051237 36.898876,11.014067 37.314015,10.991592 37.245819,11.45818 37.215838,11.614605 37.389648,11.63842 37.866468,11.760291 37.688287,12.124482 37.55784,12.365681 37.672608,12.411811 38.155104,12.649153 37.916456,12.936143 37.67546,13.192377 37.792816,13.258294 38.280172,13.555266 38.032504,13.786366 37.666483,14.088897 37.814992,14.180126 38.343764,14.490812 38.140947,14.664822 37.711401,15.007371 37.7907,15.153382 37.835957,15.205111 38.417636,15.464633 38.327539,15.543185 38.219043,15.642976 38.485672,15.947733 38.296917,16.389004 38.438664,16.467714 38.552732,16.504597 38.083309,16.888384 37.94342,17.215418 37.86606,17.302356 38.357908,17.51948 38.785392,17.621712 38.570016,17.815434 38.411626,18.035331 38.57898,18.133128 39.067628,18.47451 38.982913,18.75004 39.064376,18.77518 39.187103,18.795392 38.887768,19.166028 38.813582,19.300779 38.777512,19.418095 38.773507,19.424682 38.765232,19.490322 39.531058,19.791803 39.673407,19.8215 39.656151,19.84283 39.635675,19.885573 39.809748,20.476708 39.80749,20.602648 39.846568,20.613466 39.864785,20.666726 40.114596,20.682942 40.05234,20.765883 39.961813,20.950395 40.171396,21.563126 40.207038,21.980794 40.376796,22.039119 40.421213,22.177097 40.830632,22.224978 40.724784,22.371577 40.579964,22.670232 40.700532,23.044762 40.762826,23.802181 41.058984,23.932718 41.103515,24.147814 41.661072,24.270588 41.500684,24.467086 41.235955,24.962836 41.221211,25.979085 40.813723,25.366862 40.430663,25.283282 39.786676,24.926554 39.869531,24.719502 40.139524,24.353924 40.109564,24.308912 40.226805,23.989633 39.77297,23.322878 39.685175,23.310822 39.010072,23.025848 39.071692,22.855082 39.259297,22.56821 39.242304,22.543246 39.321585,22.298249 38.884944,21.74517 38.333612,21.574575 38.381839,21.441946 38.50124,21.238814 38.535719,21.125216 38.172119,20.780893 37.890876,20.705906 37.930944,20.625545 38.015885,20.44012 38.09634,19.912333 38.152127,19.764519 37.951876,19.694032 37.901842,19.657338 37.502028,19.56914 37.337404,19.521534 37.445647,19.32278 37.353868,19.255472 37.21592,19.195228 37.433816,18.64572 37.499193,18.439918 37.4506,18.424088 36.865068,18.139984 37.09574,17.804173 37.498774,17.362483 37.369664,17.284986 37.267408,17.159988 36.722143,16.914477 36.590296,16.83327 36.795217,16.582784 36.732672,16.506331 36.527724,16.316458 36.719264,16.006446 36.775679,15.876397 36.435216,15.655584 36.557427,15.523903 37.112152,15.087472 36.885283,14.944802 36.353508,14.608441 36.602315,14.381302 36.953994,14.103255 36.759883,13.985931 36.293148,13.726522 36.589151,13.46628 36.785317,13.294876 36.674052,13.245756 36.205648,13.057118 36.527987,12.71204 36.081248,12.633953 36.222969,12.359598 35.9047,12.38811 35.927339,12.165841 35.710088,12.250961 35.677666,12.123098 35.514539,12.27176 35.505468,12.299701 35.482084,12.310293 35.427769,12.199577 35.344891,12.20324 35.347276,12.403313 35.183084,12.352094 34.917747,12.260217 34.91864,12.743612 34.475159,12.610774 34.340745,12.566838 34.303476,12.830177 34.257952,13.11159 33.934236,12.941577 33.80957,13.048667 33.695104,13.184215 33.678476,13.226743 33.408088,12.994382 33.292235,12.916821 33.208736,12.989006 33.041172,13.174985 32.936011,12.720808 32.910247,12.661088 32.790369,12.580832 32.68377,12.510616 32.538054,12.609747 32.155774,12.912914 32.119363,12.653547 32.043991,12.399898 31.480559,12.380387 31.443088,12.404357 31.390724,12.401607 31.199128,12.541305 31.189302,12.467794 31.170257,12.390028 30.737015,12.367275 30.312584,12.055547 30.255245,12.097143 30.193098,12.147797 30.147994,11.938635 29.833594,11.798246 29.398484,11.571583 29.258543,11.684206 29.119663,11.811098 28.992476,11.362234 28.459013,11.182714 28.430684,11.17115 28.236034,11.327504 28.042022,11.506937 27.892377,10.996605 27.873669,10.943756 27.827734,10.925005 27.823534,10.91217 27.55003,10.830084 27.300044,10.997679 27.052308,11.196178 26.943316,10.746918 26.899309,10.587646 26.850554,10.603837 26.719041,10.525212 26.521502,10.606986 26.154494,10.789603 26.113444,10.424601 26.09025,10.155371 25.794956,10.163803 25.762349,10.122577 25.396474,10.175025 25.432354,9.943888 25.469571,9.752402 25.38603,9.646776 25.246246,9.462543 25.086404,9.432915 24.864528,9.405148 24.924968,9.261939 24.989693,9.124411 24.980292,9.11202 24.997353,9.087758 24.928482,8.869454 24.868198,8.705578 24.528702,8.596498 24.615298,8.456276 24.719767,8.302075 24.708766,8.27217 24.799238,8.167455 24.784197,7.992524 24.287458,7.792049 24.45259,7.520873 24.715446,7.192916 24.701637,7.032318 24.126603,6.887452 23.97672,6.824827 24.072075,6.663342 23.92001,6.659608 24.15092,6.190115 24.202321,5.905914 23.555871,5.71408 23.552368,5.714367 23.536787,5.710849 23.507749,5.717651 23.510596,5.704936 23.493679,5.701117 23.498751,5.682202 23.524157,5.642631 23.534796,5.617537 23.6809,5.110727 23.692832,4.987054 23.535259,5.089169 23.196546,5.319147 23.196652,4.908238 23.179498,4.737617 22.874384,5.123428 22.811394,4.839807 22.766133,4.68263 22.658555,4.676991 22.455362,5.046285 22.368541,4.825371 22.302153,4.672865 22.216255,4.674191 22.079008,4.673059 21.895064,5.049464 21.795773,4.838073 21.710651,4.664637 21.640712,4.663539 21.498746,4.664718 21.334756,5.046277 21.224435,4.836393 21.124988,4.656465 21.043326,4.661004 20.915774,5.123425 20.737276,4.893456 20.637263,4.767073 20.593572,5.319131 20.176109,5.057581 20.273161,5.662796 20.278679,5.672773 20.279492,5.682818 20.296389,5.701145 20.280863,5.699743 20.282316,5.717683 20.269449,5.716207 20.247089,5.711653 20.237706,5.714395 20.080618,5.707234 19.894186,5.713327 19.661198,5.809763 19.714672,5.997977 19.870146,6.659585 19.70523,6.715698 19.813428,6.824829 19.325368,6.856966 19.012798,6.987647 19.084809,7.074666 19.082909,7.279756 19.156098,7.388676 19.50266,7.792037 19.28498,7.788365 19.066118,7.872545 19.042495,8.226301 19.081286,8.271951 19.067173,8.315882 19.261426,8.596522 19.124626,8.603746 18.959388,8.651412 18.876539,8.909315 18.804758,9.104531 18.809774,9.111996 18.793443,9.132424 18.925596,9.405137 18.776952,9.406449 18.690559,9.415104 18.68257,9.436831 18.530277,9.461612 18.436633,9.578747 18.305598,9.752394 18.393664,10.175038 18.156874,10.136251 18.030206,10.117341 17.995142,10.163808 17.689328,10.153423 17.667545,10.362588 17.635602,10.789604 17.281997,10.649456 17.038525,10.537012 16.939547,10.603834 16.903372,10.592087 16.836203,10.857352 16.737835,11.19616 16.338064,10.940491 16.187591,10.828554 16.17646,10.835237 16.157,10.819567 15.981143,10.872756 15.962366,10.925026 15.946023,10.930477 15.853669,11.226121 15.748105,11.506936 15.287341,11.150161 14.865571,11.29083 14.850868,11.332397 14.829625,11.341616 14.747923,11.607326 14.670452,11.81112 14.340657,11.553829 14.00529,11.699378 13.683884,11.885819 13.67668,11.909311 13.660004,11.91957 13.626175,12.057581 13.596999,12.147824 13.453504,12.046604 13.338882,12.117116 13.053109,12.367273 12.753196,12.354933 12.639151,12.368812 12.591024,12.54128 12.514891,12.49303 12.381479,12.400171 12.347087,12.404357 12.222656,12.327508 12.113167,12.316051 11.83086,12.336091 11.634333,12.912924 11.352623,12.725985 11.096133,12.534557 10.967811,12.625284 10.880173,12.911697 10.748964,13.175002 10.488591,12.957898 10.25471,13.092352 10.141735,13.189372 10.111687,13.226771 9.838638,12.927591 9.756686,12.970572 9.532206,13.111579 9.46525,12.612766 9.454917,12.54602 9.351497,12.576919 8.871468,12.743612 8.905008,12.44522 8.909025,12.26485 8.791238,12.27376 8.442879,12.403312 8.456711,12.29906 8.308057,12.310303 8.284356,12.253957 8.254934,12.281017 8.15224,12.090742 8.076065,12.11113 8.08,12.250961 7.866878,12.074363 7.80519,12.114979 7.885413,12.388107 7.492567,12.264935 7.708864,12.633984 7.250058,12.683548 7.584477,13.057122 7.221816,13.222504 7.016589,13.30692 7.12862,13.405254 7.496978,13.726556 7.181593,13.922911 6.825966,14.124348 7.014762,14.291283 7.436617,14.608439 7.189441,14.763533 6.679577,15.085662 6.728392,15.188729 6.838325,15.300587 7.354934,15.655493 7.230789,15.719804 7.037628,15.84164 7.26244,16.316301 6.990752,16.628868 7.113123,16.77029 7.199859,16.833196 6.622729,17.052265 6.420371,17.28507 6.268663,17.372024 6.594183,17.820222 6.925061,18.139996 6.636787,18.212097 6.294559,18.370002 6.414235,18.708502 6.574142,19.195408 6.351068,19.346551 6.394685,19.425331 6.452718,19.521554 5.969776,19.604896 5.838224,19.694028 5.586693,19.776543 5.723237,20.309368 5.899243,20.70591 5.825423,20.707166 5.709483,20.73347 5.419386,21.133944 5.308774,21.225721 5.271472,21.292992 5.456543,21.574542 5.336902,21.570564 5.086893,21.62586 4.812904,22.11997 4.50735,22.449257 4.54784,22.543164 4.499084,22.646607 4.780081,23.025804 4.622554,23.03478 4.259743,23.154417 4.071818,23.553138 3.59239,24.126553 3.680544,24.308914 3.611573,24.456508 4.003448,24.926588 3.809942,24.95332 3.25679,25.199786 2.568911,25.979086 2.56891,25.979085 2.631018,25.195658 2.438711,24.942252 2.129056,24.270552 2.356408,24.164199 2.720025,24.072907 2.73114,23.932701 3.132786,23.727293 3.262746,22.945257 3.253989,22.932154 2.959471,22.225 3.129803,22.16434 3.399555,22.122029 3.413336,22.039102 3.726856,21.910499 3.857793,21.12666 3.675497,20.682978 3.784896,20.651052 3.940188,20.633407 3.943514,20.613496 4.106052,20.559712 4.140088,20.321905 4.164943,19.935332 4.116719,19.821498 4.15359,19.812546 4.251265,19.791149 4.839401,19.531994 5.027578,19.467313 4.704481,18.987548 4.603043,18.795372 4.842567,18.716372 4.810798,18.585285 4.722539,18.474431 5.152072,18.30685 5.366962,18.147613 5.004734,17.621714 5.391048,17.4408 5.902686,17.280472 5.846864,17.21558 5.777494,17.027168 5.35513,16.642107 5.237394,16.504603 5.523851,16.338268 5.47299,16.200127 5.304467,15.947654 5.505001,15.7949 5.60015,15.676233 5.372488,15.464664 5.498398,15.389389 6.041074,15.122917 6.098782,15.009696 5.969146,14.900402 5.446366,14.490816 5.702912,14.332395 6.135634,14.074537 5.963827,13.918656 5.509957,13.555238 5.826905,13.379314 6.142989,13.191223 6.008732,13.034545 5.634994,12.649165 5.997959,12.508622 6.259822,12.386599 6.158406,12.184961 5.923681,11.760271 6.336096,11.713562 6.598724,11.655014 6.555692,11.385067 6.476155,10.991561 6.946019,11.080281 7.129924,11.095867 7.183203,10.758044 7.21735,10.467691 7.719799,10.732901 7.800002,10.766921 8.018556,10.386177 8.095406,10.247537 8.417716,10.584769 8.943937,10.409196 8.974902,10.435747 9.009336,10.420068 9.016209,10.435423 9.024151,10.46667 9.201561,10.902274 9.681068,10.819356 9.740479,11.100148 9.736379,11.176528 10.037279,11.118203 10.084151,11.327236 10.202139,11.232744 10.203975,11.233293 10.204661,11.233499 10.20466,11.2335 10.204157,11.23466 10.242558,11.322255 10.377127,11.218309 10.432728,11.263828 10.445565,11.209833 10.494472,11.314377 10.730587,11.507681 10.851217,11.57269 10.939237,11.331238 10.994936,11.026763 11.168746,11.214621 11.47404,11.41477 11.698311,11.238038 11.723806,11.1478 11.775157,11.113359 11.858056,10.680007 11.960772,10.762895 12.138211,10.869855 12.804169,10.423192 12.909307,10.354895 12.914359,10.339073 12.918516,10.337194 12.936421,10.268742 12.955247,10.283303 12.988835,10.30541 13.3558,10.139545 14.055353,10.041477 14.088715,9.948651 14.103877,9.902685 14.24051,10.01552 14.244414,10.014973 14.253514,10.021692 14.419864,9.980756 15.102023,9.834868 15.158871,9.67064 15.18206,9.591702 15.395775,9.772046 15.402758,9.770552 15.409736,9.775775 15.600736,9.701877 15.973762,9.596733 16.022409,9.41964 16.037973,9.322447 16.282019,9.509843 16.293461,9.506618 16.352595,9.545991 16.58943,9.47163 16.610631,9.253553 16.595694,9.090778 16.887138,9.251878 16.998943,9.291319 17.054883,9.20662 17.045912,9.138802 16.930144,8.847985 17.041189,8.889127 17.095433,8.892987 17.140459,8.545933 17.183889,8.514193 17.167322,8.493603 17.213153,8.492121 17.234638,8.449863 17.459623,8.063734 17.411623,8.002682 17.356559,7.932161 17.521141,7.88827 17.532314,7.801108 17.55453,7.261149 17.595915,7.204104 17.577376,7.176953 17.587802,7.174011 17.634975,7.159329 17.640549,7.152777 18.364296,6.85912 18.130072,6.603514 17.863192,6.191915 18.378058,5.996912 18.34615,5.798105 18.162762,5.326079 18.311096,5.324342 18.454865,5.272997 18.298042,5.030521 18.650552,4.924525 18.949511,4.841116 18.926864,4.492362 18.781276,3.920842 18.847955,3.942342 18.958687,3.941181 18.882276,3.790466 19.536432,3.650023 19.557994,3.45607 19.577174,3.022615 19.901566,3.244353 20.086017,3.33937 20.216572,3.018003 20.312001,2.953601 20.422828,2.567946 20.491663,2.650872 20.590834,2.758488 20.60197,2.72849 20.618112,2.747018 21.056097,2.451437 21.201081,2.45117 21.210276,2.436099 21.220491,2.451135 21.229736,2.451117 21.882669,2.455545 21.895064,2.435925" slic3r:type="contour"/>
    <polygon style="fill: white" points="41.626671,26.23923 41.640482,26.503526 41.869843,26.630209 42.490472,26.861132 42.215944,27.14618 41.731492,27.917944 41.079108,27.69364 40.559424,27.325662 40.708672,27.021652 41.174768,26.477585 41.121808,26.402648 41.232252,26.153139 41.31322,26.063794" slic3r:type="contour"/>
    <polygon style="fill: white" points="42.8302,29.869494 43.178399,30.046752 42.680976,30.498312 42.549064,30.677058 42.66478,30.958128 42.522504,31.141527 43.069587,31.922593 43.59756,33.168058 43.55712,33.401645 43.49018,33.562374 43.529784,33.595244 43.518332,33.630802 43.650236,33.714504 43.602243,33.753748 43.407647,33.974478 43.138628,34.809783 42.756488,35.482132 42.077674,34.279913 41.66712,33.872428 41.700027,33.829652 41.781922,33.75612 41.774848,33.743592 41.816396,33.684348 41.619548,33.376361 41.791151,32.868746 42.256143,31.164553 42.108224,31.041062 42.125816,30.885831 41.487352,30.576662 41.210972,30.337368 41.522004,29.819048 42.026208,29.307074" slic3r:type="contour"/>
    <polygon style="fill: white" points="43.381059,37.402151 43.777736,37.711068 43.262852,38.101963 42.849578,38.522521 42.875472,38.565491 42.935904,38.718348 42.822481,38.828911 43.373883,39.654111 43.71712,40.373272 43.487584,40.761063 43.097548,41.239512 43.19422,41.344999 43.142594,41.410052 43.63838,41.889664 43.392216,42.067475 42.571076,42.793156 42.094827,42.360147 41.649284,41.804548 41.835835,41.626676 42.236516,41.31071 42.222272,41.287484 42.342219,41.169741 41.732696,40.1985 42.19406,39.627123 42.762363,38.78268 42.70002,38.712352 42.766474,38.580659 42.060827,38.050531 41.788976,37.74362 42.167804,37.313707 42.774152,36.808847" slic3r:type="contour"/>
    <polygon style="fill: white" points="42.856624,44.677348 43.329212,45.487596 43.235884,45.5866 43.05918,45.749148 43.08242,45.776355 43.063465,45.793221 43.268392,46.032344 43.12838,46.134755 42.145796,46.928512 41.743027,46.479035 41.283868,45.857152 41.391524,45.765155 41.591075,45.610373 41.588368,45.606307 41.613659,45.585218 41.357668,45.194963 41.533831,45.04218 42.461368,44.111224" slic3r:type="contour"/>
    <polygon style="fill: white" points="42.415219,48.476415 42.842536,49.133712 42.688044,49.242843 42.386163,49.459145 42.40412,49.48222 42.360422,49.50766 42.6785,50.03226 42.238987,50.370672 41.720164,50.788854 42.111968,51.368336 42.318852,51.692044 41.842027,51.889756 41.151008,52.205588 40.649072,51.4469 40.418676,51.085496 41.073019,50.819932 41.276116,50.730002 40.947831,50.211283 40.6999,49.777372 40.942632,49.575019 41.273668,49.297753 41.263791,49.284079 41.264011,49.283921 40.891752,48.718988 41.147455,48.557588 42.022836,47.933344" slic3r:type="contour"/>
    <polygon style="fill: white" points="41.298624,53.115196 41.624472,53.783916 41.426707,53.828284 40.806469,53.960686 40.826444,54.066356 40.785307,54.073813 40.800388,54.4504 40.821144,55.306148 40.562232,55.500721 40.597103,55.617683 40.612452,55.663564 40.35363,55.657486 40.305724,55.693488 40.247888,55.693599 39.097637,56.317147 39.155604,56.995912 39.191188,57.267152 38.511863,57.100311 38.007392,56.991636 37.883103,55.923427 37.869316,55.753767 38.524198,55.884155 38.596532,55.402875 38.667024,54.855328 38.910931,54.731804 39.078061,54.633791 39.014536,54.424164 39.083715,54.42236 39.404821,54.422223 39.636204,54.248399 40.26732,53.728824 40.199295,53.595559 39.831487,52.867504 40.150992,52.796375 41.041876,52.593216" slic3r:type="contour"/>
    <polygon style="fill: white" points="36.856439,57.143799 37.41824,57.388532 37.360168,58.165239 37.3483,58.658056 36.903124,58.453404 36.220396,58.172416 36.25448,57.356463 36.293363,56.932291" slic3r:type="contour"/>
    <polygon style="fill: white" points="34.73164,58.179716 35.435764,58.588951 35.333783,59.152828 35.24668,59.845612 35.004175,59.695643 34.167839,59.231376 34.250875,58.662512 34.386296,58.004644" slic3r:type="contour"/>
    <polygon style="fill: white" points="32.443185,59.059635 33.238981,59.608623 33.613436,59.542667 33.613436,59.542668 33.290155,59.865546 33.226204,60.104608 33.134508,60.181484 33.000548,60.865364 32.924582,60.809396 32.623289,60.610084 31.745028,61.346412 30.793174,61.449778 30.735505,61.6312 30.717172,61.699504 30.457819,61.486198 30.38122,61.494516 30.352734,61.473407 28.756811,61.628851 28.553961,62.177012 28.490432,62.370856 27.880273,61.818535 27.764239,61.723532 27.568838,61.741112 27.497724,61.682411 27.33218,61.694972 27.554372,61.568949 27.559164,61.556652 27.573289,61.546472 27.916559,60.561396 27.962486,60.450836 28.514972,60.8678 29.004057,60.515316 29.702492,59.92698 29.946108,59.911592 30.056863,59.899088 30.091826,59.795792 30.113078,59.810344 30.222608,59.894441 31.266886,59.817336 32.063773,59.710913 32.277526,58.959112" slic3r:type="contour"/>
    <polygon style="fill: white" points="26.45952,61.444104 26.78599,61.759352 26.40644,62.614259 26.287974,62.899212 25.781617,62.378195 25.414672,62.032004 25.794266,61.15376 25.89653,60.946048" slic3r:type="contour"/>
    <polygon style="fill: white" points="24.334678,61.760448 24.684886,62.15806 24.273722,62.912331 24.093752,63.246432 23.669785,62.732951 23.294168,62.307488 23.725369,61.524888 23.87938,61.265644" slic3r:type="contour"/>
    <polygon style="fill: white" points="18.162392,61.590751 18.375444,62.032091 17.738093,62.679664 17.50213,62.899212 17.18921,62.199164 17.004138,61.759352 17.739886,61.096903 17.893621,60.946048" slic3r:type="contour"/>
    <polygon style="fill: white" points="20.217044,61.832456 20.49596,62.307488 19.955238,62.956375 19.696376,63.246432 19.368048,62.644796 19.10524,62.157904 19.720543,61.483204 19.910746,61.26564" slic3r:type="contour"/>
    <polygon style="fill: white" points="22.262044,61.897888 22.594634,62.357164 22.131322,63.039579 21.895064,63.374176 21.532178,62.837164 21.195512,62.357312 21.70544,61.642903 21.895064,61.381784" slic3r:type="contour"/>
  </g></svg>