<svg width="43.790126" height="63.590156" xmlns="http://www.w3.org/2000/svg" xmlns:svg="http://www.w3.org/2000/svg" xmlns:xlink="http://www.w3.org/1999/xlink" xmlns:slic3r="http://slic3r.org/namespaces/slic3r"><g xmlns="http://www.w3.org/2000/svg" slic3r:z="3.00349999999999e-005" id="layer90">
    <polygon style="fill: white" points="17.994612,61.324908 18.419606,62.205288 18.121518,62.508155 17.523582,63.064495 17.422195,62.837683 17.03931,61.927771 17.396161,61.606468 17.904174,61.107972" slic3r:type="contour"/>
    <polygon style="fill: white" points="15.949664,60.914564 16.281899,61.735187 15.894562,62.080532 15.332394,62.533784 15.208235,62.202328 14.926948,61.364436 15.390852,61.006232 15.84872,60.609608" slic3r:type="contour"/>
    <polygon style="fill: white" points="13.848779,60.37948 14.100911,61.102695 13.601707,61.506412 13.119522,61.857316 12.969118,61.391744 12.767387,60.665679 13.35765,60.25898 13.734203,59.963728" slic3r:type="contour"/>
    <polygon style="fill: white" points="11.684983,59.75706 11.860125,60.361736 11.223225,60.823808 10.851205,61.065528 10.680876,60.441391 10.548419,59.85738 11.289275,59.400011 11.562499,59.208364" slic3r:type="contour"/>
    <polygon style="fill: white" points="5.990758,56.364599 5.950383,56.832537 7.092885,57.227519 7.52728,57.381421 7.567482,57.363364 7.56813,57.390512 7.645427,57.407516 7.935162,57.760432 8.728536,58.736783 9.319362,58.429012 9.465535,58.342716 9.570602,59.046031 9.667256,59.512732 8.853257,60.010892 8.617966,60.138748 8.457644,59.330004 8.444612,59.244329 7.525905,59.028432 6.958447,58.918854 6.878535,58.951092 6.814039,58.928625 6.592511,59.030703 6.527324,59.056704 6.506484,58.821493 6.308658,58.752583 5.908496,58.625532 5.564543,58.007363 5.303978,57.62006 5.283577,57.625328 5.270184,57.586348 4.698976,57.706588 4.711752,57.551544 4.794354,56.862558 4.7646,56.818332 4.782325,56.58502 4.787296,56.545472 4.847249,56.532693 4.748057,56.309348 4.964848,56.436833 5.310531,56.365135 6.013474,56.188712" slic3r:type="contour"/>
    <polygon style="fill: white" points="4.77523,55.227651 4.514382,56.093607 3.972143,56.104408 3.29239,56.107072 3.400559,55.740664 3.668176,54.918012 4.343881,54.916508 4.882051,54.901352" slic3r:type="contour"/>
    <polygon style="fill: white" points="3.727068,53.450824 4.079384,53.515796 3.837087,53.961363 3.490967,54.602272 2.740828,54.465879 2.29007,54.382888 2.567374,53.852671 2.873769,53.288308" slic3r:type="contour"/>
    <polygon style="fill: white" points="2.616861,49.847983 3.132528,50.192272 2.978817,50.395796 2.691626,50.822461 2.745125,50.866472 3.391315,51.42506 3.176745,51.898925 3.398914,51.979467 3.536747,52.031268 3.125479,52.53746 2.927056,52.789736 2.864906,53.114912 2.659408,52.931905 1.815793,52.665084 1.633672,52.602616 1.904456,52.238094 1.722129,52.094964 1.458536,51.879544 1.677403,51.478592 1.863372,51.037217 1.179785,50.564748 1.421101,50.251763 1.987604,49.4739" slic3r:type="contour"/>
    <polygon style="fill: white" points="2.100009,46.765655 2.673376,47.291176 2.567972,47.454252 2.361097,47.749135 2.775912,48.04528 2.599469,48.274627 1.945972,49.163244 1.355153,48.752923 0.811113,48.354388 0.936973,48.195455 1.135488,47.933037 1.11065,47.912616 1.126625,47.89308 0.697329,47.52006 0.889945,47.261216 1.555079,46.32504" slic3r:type="contour"/>
    <polygon style="fill: white" points="1.753865,42.541891 2.238299,43.156812 2.087043,43.428364 1.777583,43.855056 1.815421,43.885684 1.802066,43.906623 2.337378,44.299004 2.13614,44.514868 1.449963,45.363208 0.900823,44.969536 0.359957,44.51636 0.513011,44.332696 0.803344,44.009269 0.772938,43.977848 0.842371,43.891061 0.251593,43.267132 0.552387,42.859196 1.15425,41.932887" slic3r:type="contour"/>
    <polygon style="fill: white" points="1.79477,35.998744 2.037397,36.198468 1.399207,36.645869 1.458535,36.818944 1.409208,36.868377 1.779346,37.39314 2.0064,37.84496 1.671437,38.500463 1.046362,39.31027 1.198817,39.458136 1.164428,39.51714 1.496101,39.820011 2.054785,40.250628 1.709342,40.552567 1.106667,41.233324 0.481922,40.773299 0.068601,40.361748 0.334177,40.052624 0.86446,39.549825 0.803745,39.467012 0.924119,39.321963 0.969472,39.280516 0.453001,38.362151 0.016212,37.725616 0.618808,36.91721 0.506763,36.791192 0.567736,36.681306 0.211319,36.389968 0.045286,36.186272 0.562189,35.637639 1.09597,35.2298" slic3r:type="contour"/>
    <polygon style="fill: white" points="2.202052,27.879748 2.250907,27.854506 2.784577,28.668836 3.021903,28.876425 2.371577,29.165962 2.2863,29.225587 2.276711,29.447924 2.174873,29.522383 2.38315,30.260914 2.503635,31.347422 2.299704,31.69929 2.043139,31.949605 2.117144,32.050673 2.078891,32.114177 2.352245,32.351908 2.235999,32.417671 1.262537,33.250772 1.252529,33.241943 1.213342,33.280674 1.183324,33.180905 0.849595,32.886552 0.365328,32.227842 0.52408,32.081713 0.799402,31.904903 0.775162,31.824338 0.977249,31.644501 0.66022,30.29343 1.419358,29.43597 1.260664,29.192796 1.343829,29.070885 1.102583,28.836291 0.998338,28.662334 1.658485,28.16059 2.131539,27.916178 2.194333,27.82413" slic3r:type="contour"/>
    <polygon style="fill: white" points="21.480378,2.735734 21.573683,2.87525 21.645653,2.759227 21.895064,2.360215 22.128642,2.738546 22.205552,2.861728 22.269527,2.761103 22.539308,2.360152 22.757738,2.745751 22.812836,2.833796 22.86691,2.824213 22.944998,2.712957 23.202744,2.375104 23.375584,2.739503 23.599504,2.597436 23.829319,2.550636 23.93356,2.436365 23.967358,2.532465 24.098194,2.466176 24.297655,2.860994 24.429663,2.981319 24.78477,2.86439 24.771743,3.293123 24.815141,3.33268 24.93422,3.363648 25.3392,3.417904 25.19366,3.637465 25.175075,3.772634 25.557826,3.847438 25.411031,4.330812 25.522502,4.381359 25.794896,4.429623 25.513072,4.672944 25.356401,4.955573 25.678302,5.008658 26.04393,5.131207 25.961581,5.377481 26.023686,5.404859 26.15711,5.411138 25.875316,5.635472 25.703639,6.148898 26.499809,6.328328 26.514717,6.330146 26.38671,7.062539 26.584481,7.13236 26.924436,7.178783 26.755822,7.31964 26.446219,7.772915 26.683379,7.848324 26.961685,7.936632 27.06674,7.911806 27.183401,7.89607 27.184601,8.006109 27.245782,8.02039 27.188791,8.073215 27.196559,8.119315 27.279396,8.662718 27.37774,8.684055 27.520236,8.725694 27.347275,8.91528 27.375804,9.000396 27.423067,9.120287 27.562814,9.134605 27.738898,9.165764 27.654834,9.313114 27.844372,9.307629 27.82786,9.443962 27.985612,9.410607 28.053347,9.685829 28.115212,9.692125 28.505479,9.626308 28.556153,9.736066 28.658318,9.675018 28.680091,9.727665 28.742207,9.937017 28.751268,9.947356 28.763781,9.980692 28.92422,10.156765 29.0924,10.312886 29.273052,10.165239 29.628236,9.918507 29.733484,10.171456 29.955659,10.798871 30.511695,10.385282 30.745082,10.230636 30.902489,10.667702 30.963519,10.856811 31.284149,10.896329 31.42525,10.909672 31.46049,10.888805 31.720543,10.710371 31.83136,10.640411 31.920233,10.932973 32.062555,10.953469 32.751826,11.022727 32.753107,11.021792 33.125768,11.348621 33.213394,11.408097 33.409238,11.242406 33.46603,11.356171 33.553295,11.565273 33.690888,11.306609 33.747538,11.36955 33.752492,11.27375 33.863052,11.334396 34.004268,11.399785 33.93962,11.090052 33.995683,11.111386 34.124031,11.134505 34.244504,10.767856 34.323298,10.725865 34.32296,10.693266 34.324096,10.674734 34.428656,10.696983 34.467052,10.688327 34.860339,10.583171 35.007996,10.282769 35.069312,10.174376 35.41803,10.434057 35.452019,10.424969 35.58224,10.505324 35.902236,10.276725 36.077968,10.175451 36.280373,10.752429 36.654015,10.64118 36.91026,10.594699 36.898525,11.222376 37.251452,11.211022 37.556796,11.233589 37.397952,11.792973 37.369937,11.873095 37.704756,11.943427 38.02914,12.043784 37.760308,12.512603 37.674149,12.648358 37.965308,12.775854 38.290716,12.940782 37.949975,13.332786 37.801342,13.488415 38.076203,13.65375 38.408176,13.86844 38.04158,14.19925 37.795449,14.399881 38.085964,14.595839 38.449336,14.824199 38.109524,15.098661 37.722011,15.390977 38.027852,15.589319 38.494376,15.794859 38.270208,15.975333 38.01028,16.204885 38.553251,16.723851 38.614552,16.788628 38.598515,16.819634 38.61928,16.828536 38.572719,16.869509 38.561852,16.890521 38.51247,16.946164 38.023034,17.74452 38.460052,17.938306 38.908136,18.055764 38.774543,18.190916 38.689555,18.320861 39.081904,18.506782 38.852515,19.179954 38.730717,19.421583 39.592292,19.738472 39.647156,19.754998 39.610903,19.833134 39.61556,19.834952 39.602194,19.861122 39.655644,19.904476 39.76124,20.008658 39.844416,20.768833 39.833844,21.019726 39.919371,21.055154 39.950994,21.18332 40.32078,21.253368 40.208851,21.409078 40.07315,21.678425 40.147696,21.980565 40.180224,22.639538 40.414016,22.754102 40.46622,22.994753 41.104564,23.177568 40.892423,23.416372 40.586825,23.964793 40.601935,24.686934 40.94392,24.881968 40.977066,25.149202 41.3826,25.376178 41.953728,25.611334 41.610636,25.934736 41.188736,26.608066 40.496791,26.354266 39.946659,25.947652 40.066771,25.676308 40.50883,25.188509 40.421,25.097159 40.555171,24.809408 40.628995,24.733646 40.172856,24.194498 39.838375,24.104287 39.148259,23.669554 39.200451,23.527428 39.399285,23.280152 39.364688,23.239258 39.499372,22.920266 38.782716,22.079605 38.427496,21.897692 38.445279,21.842728 38.506332,21.755395 38.497184,21.744665 38.522436,21.678164 38.208228,21.409811 38.092962,20.614752 38.012912,20.586382 38.013886,20.581798 37.894752,20.537064 37.796944,20.493804 38.05,19.76562 38.165888,19.586784 37.65904,19.315766 37.213156,19.172454 37.298816,18.901219 37.346516,18.800522 37.016403,18.661265 37.170771,18.410788 37.628236,17.763368 37.564694,17.709985 36.693936,17.173686 36.692458,17.172021 36.663952,17.157528 36.656156,17.15272 36.66561,17.140498 36.653547,17.13086 37.028987,16.583631 37.149982,16.369138 37.052055,16.311453 36.510964,15.944537 36.782484,15.668482 37.197135,15.377425 36.839736,15.144313 36.460424,14.898484 36.867487,14.548757 37.073879,14.399438 36.753659,14.205469 36.422432,14.019714 36.856892,13.655307 36.941962,13.584152 36.668947,13.461298 36.3386,13.328384 36.729202,12.930319 36.54474,12.894222 36.198308,12.820407 36.431973,12.444333 36.311083,12.455102 35.986471,12.45014 36.068956,12.137015 35.746584,12.204346 35.737845,12.033714 35.640578,12.115966 35.640268,12.116921 35.60521,12.095251 35.613436,12.187695 35.482264,12.159053 35.228405,12.087117 35.293172,12.531556 35.0472,12.488246 34.757102,12.428247 34.720264,12.996357 34.396363,12.863222 34.172651,12.765522 34.117428,12.845852 33.901456,13.275309 33.651152,13.022859 33.444197,12.803029 33.439082,12.804674 33.405369,12.767722 33.365724,12.80027 32.976678,13.181153 32.900167,12.956074 32.803535,12.726559 32.788096,12.727601 32.784167,12.716576 32.413586,12.689711 32.384407,12.709933 32.316177,12.70439 32.075088,12.88986 32.058808,12.788178 32.029145,12.681076 31.401736,12.630114 31.204232,12.453774 31.160517,12.48327 31.121846,12.513072 31.090543,12.352267 31.06769,12.331862 31.066329,12.326529 30.715937,12.065623 30.461446,11.858025 30.295491,11.98412 30.12866,12.126861 29.994747,11.583701 29.955183,11.454881 29.686449,11.304844 29.367488,11.569091 29.09137,11.829907 28.971717,11.439091 28.870295,11.159011 28.764844,11.158327 28.66857,11.231757 28.410868,11.218502 28.040168,11.554029 27.971786,11.323405 27.92834,11.193682 27.497566,11.171525 27.216974,11.151188 27.173714,11.17618 27.132345,11.163795 27.056324,11.215718 27.046241,11.16619 27.039553,11.136015 26.773831,11.056462 26.497375,10.676249 26.239778,10.704362 26.298676,10.402977 26.210236,10.281344 26.208441,10.132523 26.034668,10.119527 25.697389,10.099866 25.973268,9.702472 26.002322,9.645285 25.914471,9.498203 25.585253,9.419654 25.302732,9.348914 25.687277,8.935484 25.739897,8.869603 25.660274,8.748217 25.179981,8.609628 25.029708,8.560738 25.229581,8.363641 25.10284,8.296849 24.928124,8.270509 24.94985,7.924345 24.946768,7.856914 24.800758,7.801371 24.865375,7.720921 24.936798,7.63874 24.93439,7.586054 25.064752,7.436215 25.077942,7.394393 25.09345,7.177001 24.517842,6.964535 24.802444,6.560127 24.917061,6.424783 24.663875,6.319497 24.266716,6.30785 24.355752,6.144079 24.369684,6.075442 24.158334,5.981987 24.265798,5.804305 24.473558,5.563763 24.512592,5.371479 24.58683,5.255301 23.932529,5.036614 23.871433,5.022812 23.847141,5.012877 23.822633,5.012856 23.82713,5.004691 23.817743,5.000852 23.821784,4.991354 23.832966,4.976359 23.833738,4.973032 24.084126,4.529677 23.639085,4.438634 23.612022,4.463678 23.590086,4.391069 23.527796,4.472559 23.210957,4.350455 23.151356,4.518456 23.043339,4.281278 22.873972,4.265277 22.706929,4.239701 22.640484,4.348485 22.54093,4.542037 22.339189,4.195529 22.1925,4.195477 22.103063,4.192818 22.011251,4.342056 21.895064,4.544116 21.670538,4.181324 21.5427,4.181374 21.474574,4.183511 21.376867,4.348708 21.249198,4.542051 21.048957,4.219763 20.976823,4.226367 20.821795,4.253336 20.75073,4.388043 20.638776,4.518443 20.52148,4.343803 20.262402,4.472544 20.25081,4.400864 20.178124,4.463658 20.099883,4.429623 19.758774,4.452031 19.944848,4.954549 19.956324,4.972964 19.960911,4.989417 19.980487,5.008993 19.95433,5.016866 19.922687,5.021043 19.918511,5.022899 19.182026,5.230783 19.277547,5.371514 19.369743,5.722595 19.631786,5.981999 19.504222,6.001395 19.449521,6.026391 19.523422,6.307808 19.109836,6.480011 18.903779,6.525381 19.026112,6.689037 19.272282,6.964543 18.910964,7.022571 18.750601,7.084043 18.808616,7.53079 18.855757,7.586071 18.856347,7.650629 18.989366,7.80137 18.907342,7.814568 18.858016,7.833627 18.862002,8.270516 18.604735,8.39726 18.689008,8.483612 18.760422,8.560739 18.156909,8.706611 18.060272,8.841657 18.360165,9.187568 18.487402,9.348894 17.929223,9.474668 17.871965,9.489076 17.807833,9.585289 17.998296,9.903331 18.092716,10.099881 17.582624,10.14739 17.57986,10.281402 17.516009,10.358973 17.531793,10.476193 17.550322,10.704376 17.293716,10.629035 17.240024,10.694266 17.016322,11.056461 16.783289,11.117972 16.753546,11.128352 16.733803,11.215746 16.689483,11.18884 16.651829,11.16385 16.616412,11.17621 16.555895,11.140634 16.076608,11.144599 15.884359,11.162147 15.749957,11.554008 15.537035,11.393689 15.327552,11.21297 15.121527,11.231775 14.954795,11.106564 14.859463,11.397739 14.698737,11.829895 14.32972,11.535971 14.061201,11.292979 13.921338,11.366603 13.917858,11.377366 13.866001,11.413276 13.742653,11.870173 13.661436,12.126868 13.260245,11.832746 12.960194,12.040523 12.741149,12.264307 12.722477,12.33178 12.707749,12.343007 12.683244,12.455793 12.66831,12.513068 12.569006,12.448774 12.511431,12.492664 12.388328,12.630151 11.915574,12.643687 11.784215,12.660753 11.715012,12.889887 11.60619,12.821592 11.445605,12.704744 11.405707,12.709927 11.354328,12.675956 11.241492,12.679989 11.026944,12.697004 10.813438,13.181153 10.588761,13.004802 10.382538,12.814612 10.334861,12.799524 10.229686,12.907115 9.888669,13.27531 9.673432,12.984979 9.558136,12.778278 9.069825,12.996349 9.020949,12.700788 8.997279,12.421707 8.49692,12.53155 8.534,12.342956 8.562963,12.154618 8.47042,12.104313 8.442269,12.104605 8.17669,12.187691 8.177142,12.185444 8.153952,12.172378 8.149753,12.115883 8.084234,12.0551 8.020873,12.090525 8.043556,12.204333 7.638712,12.000893 7.695094,12.194402 7.803633,12.450162 7.306952,12.385218 7.407738,12.545072 7.591799,12.820445 7.064341,12.920452 7.213863,13.074284 7.451524,13.328391 6.946617,13.563272 6.86342,13.59765 7.090891,13.788379 7.367692,14.019766 6.91252,14.302018 6.699959,14.423254 7.00721,14.678535 7.329704,14.89848 6.942539,15.151567 6.554552,15.403356 6.858971,15.696066 7.279172,15.944459 7.0188,16.089645 6.649535,16.333806 7.112116,17.089015 7.13658,17.130856 7.1242,17.143982 7.133974,17.152722 7.102897,17.166573 7.096186,17.173689 6.952884,17.258364 6.171106,17.795689 6.460709,18.254634 6.773726,18.661272 6.587718,18.712188 6.393518,18.791627 6.576985,19.172446 5.983937,19.474663 5.588043,19.64338 5.925159,20.40163 5.99319,20.493772 5.775569,20.57533 5.777145,20.58636 5.741143,20.596291 5.733699,20.772003 5.581721,21.41018 5.370619,21.674652 5.307201,21.718962 5.269225,21.787772 5.362627,21.897678 5.308602,21.905624 5.174884,21.958719 4.679126,22.857024 4.36044,23.119791 4.425436,23.239258 4.349974,23.374324 4.641863,23.669562 4.500942,23.698549 4.041079,23.9272 3.912803,24.156792 3.150978,24.729627 3.369055,25.09715 3.254345,25.261833 3.422362,25.559239 3.843455,25.947678 3.547161,26.041786 2.60139,26.608066 2.070368,26.046666 1.836388,25.61138 2.270243,25.336649 2.842393,25.09671 2.846129,24.88198 3.024899,24.763618 3.18877,24.693207 3.245286,24.108219 2.961675,23.75602 2.685559,23.177556 2.978319,23.027834 3.360828,22.912261 3.376108,22.754102 3.694613,22.570162 3.768748,21.932513 3.756931,21.914844 3.469328,21.25339 3.639334,21.183655 3.861338,21.136123 3.870752,21.055154 4.013379,20.98515 4.028888,20.008664 4.190593,19.868328 4.174619,19.834893 4.186401,19.829652 4.143012,19.75492 4.854898,19.464331 5.120736,19.381555 4.938695,18.783086 4.708209,18.506824 4.952224,18.409017 5.071077,18.352863 4.881993,18.055782 5.190737,17.91321 5.798458,17.704654 5.683358,17.422009 5.228207,16.890438 5.225828,16.885333 5.182829,16.842825 5.170847,16.828524 5.19594,16.813366 5.175569,16.788668 5.618036,16.465672 5.807071,16.25459 5.295752,15.79489 5.598969,15.591616 6.045222,15.363632 5.711871,15.099014 5.340777,14.824195 5.747711,14.547082 5.999938,14.384826 5.693847,14.115552 5.381968,13.86839 5.830467,13.602217 6.010352,13.488387 5.753877,13.200537 5.499395,12.940808 5.990836,12.732455 6.14107,12.65937 5.939514,12.317647 5.761003,12.043751 6.290242,11.944966 6.452211,11.899453 6.330697,11.497045 6.23337,11.233558 6.793725,11.266672 6.919855,11.261111 6.903953,10.822109 6.879858,10.594686 7.447428,10.780774 7.525806,10.797628 7.675963,10.338727 7.712132,10.175451 8.175072,10.521755 8.338093,10.425002 8.418404,10.441077 8.658647,10.247017 8.720845,10.174391 8.897453,10.543658 9.380283,10.694411 9.401539,10.690982 9.404635,10.692589 9.452286,10.680479 9.466033,10.674723 9.464928,10.723758 9.545464,10.767657 9.628164,11.119239 9.850515,11.090037 9.852058,11.193867 9.83297,11.361806 10.037634,11.273753 10.054434,11.358486 10.099205,11.306585 10.199207,11.469397 10.258753,11.574892 10.380889,11.242401 10.448102,11.31133 10.545481,11.398315 11.037142,11.02186 11.038266,11.022687 11.880186,10.921473 11.929321,10.754829 11.958734,10.640421 12.286657,10.872608 12.299646,10.871046 12.347568,10.900827 12.843822,10.842402 12.975665,10.462755 13.045044,10.230638 13.362704,10.478436 13.838686,10.809721 14.056033,10.25622 14.161902,9.918508 14.341537,10.07644 14.658632,10.312925 15.048749,9.934557 15.087824,9.883511 15.131839,9.675017 15.199898,9.737103 15.284727,9.626287 15.83296,9.629597 15.849812,9.535137 15.804501,9.410607 15.980687,9.570702 15.945749,9.307624 16.139087,9.273837 16.051236,9.16577 16.347003,9.133974 16.392458,8.996401 16.435876,8.88889 16.374772,8.822941 16.269884,8.725709 16.513372,8.67196 16.530536,8.571573 16.601912,8.080399 16.571906,8.051869 16.544344,8.020395 16.610356,8.002807 16.606766,7.89598 16.792931,7.947819 17.26942,7.796411 17.103771,7.623349 16.865694,7.178753 17.279538,7.030473 17.455707,6.983179 17.444722,6.889915 17.275306,6.330405 17.275225,6.330137 18.075013,6.098106 18.04555,5.995253 17.740246,5.647966 17.633026,5.411113 17.859156,5.313512 17.746198,5.131195 18.158434,5.120279 18.37,5.05332 18.228813,4.891299 17.995226,4.429625 18.413659,4.245702 18.400005,4.196608 18.232302,3.847422 18.517351,3.849161 18.450922,3.417909 18.960434,3.293758 18.993667,3.256159 19.00534,2.864388 19.256829,2.958417 19.691886,2.466194 19.822777,2.500643 19.856578,2.436375 19.930653,2.529034 20.190767,2.597492 20.282674,2.657385 20.40203,2.682799 20.587382,2.375111 20.855399,2.784542 20.967867,2.81183 21.000585,2.756498 21.2508,2.360147" slic3r:type="contour"/>
    <polygon style="fill: white" points="41.772893,28.012225 42.56382,28.54589 42.791808,28.662454 42.422334,28.98551 42.529536,29.192776 42.440783,29.313037 42.806855,29.682981 43.129828,30.293096 43.062707,31.185834 42.895386,31.730005 43.01488,31.82427 42.987968,31.9536 43.424776,32.22778 43.25656,32.368058 42.669136,33.079208 42.576708,33.280656 42.541885,33.233262 42.527664,33.250478 42.045516,32.95846 41.437888,32.351966 41.507444,32.252784 41.694283,32.079679 41.672976,32.05068 41.78167,31.872491 41.286472,31.347354 41.619744,29.898601 41.677921,29.590357 41.513448,29.447954 41.519229,29.334048 41.0387,29.104698 40.768232,28.876474 41.048956,28.348881 41.539124,27.854494 41.592486,27.890499 41.595852,27.824187" slic3r:type="contour"/>
    <polygon style="fill: white" points="43.493904,35.997424 43.744844,36.1863 43.200884,36.61067 43.283412,36.791132 43.21111,36.864708 43.562012,37.318032 43.773916,37.725543 43.413451,38.471516 42.825572,39.290264 42.986268,39.466836 42.919695,39.566887 43.187647,39.859275 43.721524,40.361688 43.326372,40.645919 42.683496,41.2334 42.102123,40.710455 41.73534,40.250668 42.008007,39.983016 42.621043,39.503173 42.591248,39.457964 42.743064,39.296 42.240004,38.455792 41.783728,37.844948 42.416138,36.914391 42.331575,36.818924 42.370436,36.726787 41.9441,36.414604 41.752732,36.198488 42.176324,35.675043 42.694175,35.229911" slic3r:type="contour"/>
    <polygon style="fill: white" points="43.147139,42.618471 43.538532,43.267196 43.329492,43.530596 42.962766,43.912959 43.01716,43.977948 42.980875,44.016714 43.430172,44.516448 43.162452,44.707127 42.340011,45.363284 41.884012,44.868456 41.452756,44.298972 41.623323,44.15674 41.980178,43.893806 41.974684,43.885695 42.036341,43.832957 41.551832,43.156724 41.877063,42.82276 42.635828,41.932948" slic3r:type="contour"/>
    <polygon style="fill: white" points="42.656679,46.890639 43.092784,47.52008 42.936059,47.65954 42.664789,47.894969 42.679351,47.912736 42.657923,47.929957 42.978984,48.354516 42.710867,48.540648 41.84412,49.163172 41.4054,48.591548 41.014224,48.045188 41.163552,47.937523 41.43328,47.74495 41.430872,47.741536 41.431679,47.740969 41.11676,47.29106 41.339143,47.111044 42.234968,46.32486" slic3r:type="contour"/>
    <polygon style="fill: white" points="42.246776,50.051828 42.610348,50.564796 42.380315,50.69872 41.947721,50.998625 42.331588,51.879624 41.882344,52.233864 42.05444,52.46548 42.156456,52.602636 41.521099,52.797356 41.12133,52.932509 40.925164,53.114812 40.857253,52.786517 40.352435,52.158031 40.253384,52.031288 40.615314,51.900875 40.522639,51.696023 40.3988,51.425144 40.738043,51.169332 41.101057,50.850653 40.657616,50.192228 40.973271,50.006028 41.802516,49.47388" slic3r:type="contour"/>
    <polygon style="fill: white" points="41.301068,54.020328 41.500072,54.382856 41.005092,54.472595 40.299268,54.602308 39.903575,53.873247 39.710724,53.51584 40.285715,53.405696 40.916364,53.288304" slic3r:type="contour"/>
    <polygon style="fill: white" points="40.121952,54.917984 40.301711,55.520931 40.497748,56.107052 40.175532,56.099488 39.27578,56.093652 39.08852,55.507524 38.908072,54.90138 39.298488,54.900384" slic3r:type="contour"/>
    <polygon style="fill: white" points="37.973352,56.227848 38.838359,56.435849 39.042252,56.309312 38.95137,56.532614 39.002752,56.545287 39.025448,56.818 38.983319,56.884573 39.091152,57.70658 38.963628,57.67526 38.540628,57.584134 37.881608,58.625548 37.278386,58.827978 37.264771,58.992972 37.262772,59.056732 36.986795,58.925831 36.911532,58.951088 36.851374,58.926329 35.328814,59.261049 35.206699,59.895232 35.172168,60.138764 34.545555,59.746731 34.122859,59.512764 34.285195,58.5247 34.32458,58.34272 35.03412,58.703292 35.087835,58.734119 35.546364,58.192359 36.144628,57.407564 36.219816,57.394551 36.222675,57.363356 36.230163,57.366167 36.26818,57.382728 37.191376,57.118911 37.832247,56.872476 37.776675,56.188692" slic3r:type="contour"/>
    <polygon style="fill: white" points="32.764377,59.531519 33.241732,59.857384 33.026054,60.663631 32.9389,61.065544 32.468404,60.717712 31.929986,60.36178 32.122439,59.55926 32.227642,59.208364" slic3r:type="contour"/>
    <polygon style="fill: white" points="30.452893,60.230435 31.022756,60.665771 30.814935,61.319564 30.670588,61.857332 30.324861,61.572987 29.689216,61.10272 29.87811,60.458543 30.055908,59.963732" slic3r:type="contour"/>
    <polygon style="fill: white" points="28.222925,60.822035 28.863142,61.364264 28.669912,61.886427 28.457752,62.533784 28.213985,62.313123 27.508225,61.735288 27.687363,61.221216 27.941434,60.609596" slic3r:type="contour"/>
    <polygon style="fill: white" points="26.075399,61.275563 26.750817,61.927772 26.566727,62.34242 26.266536,63.064496 26.102478,62.895688 25.370498,62.205115 25.548038,61.794355 25.88596,61.107972" slic3r:type="contour"/>
    <polygon style="fill: white" points="24.001471,61.566311 24.67002,62.325357 25.008368,62.31094 24.705207,62.393654 24.609418,62.56452 24.535719,62.572459 24.487525,62.660868 24.082794,63.412224 23.972287,63.278387 23.485103,62.72655 23.460204,62.733344 23.421259,62.685566 22.461809,62.781097 22.389598,62.886768 22.358526,62.883366 21.895064,63.539744 21.810364,63.414404 21.437586,62.883078 21.40053,62.886768 21.325406,62.776042 20.372259,62.682037 20.329922,62.733344 20.315316,62.72892 20.289484,62.759919 19.707333,63.412224 19.621756,63.255408 19.252669,62.571617 19.18071,62.56452 19.114136,62.44596 19.083737,62.39126 18.781758,62.31094 19.121686,62.323568 19.393329,62.0257 19.914734,61.429296 19.999551,61.586251 20.433129,62.324695 21.323552,62.334736 21.402453,62.224196 21.895064,61.54586 21.987309,61.675587 22.467291,62.338396 23.349707,62.327805 23.453212,62.139955 23.875392,61.429296" slic3r:type="contour"/>
  </g></svg>