<svg width="43.790126" height="63.590156" xmlns="http://www.w3.org/2000/svg" xmlns:svg="http://www.w3.org/2000/svg" xmlns:xlink="http://www.w3.org/1999/xlink" xmlns:slic3r="http://slic3r.org/namespaces/slic3r"><g xmlns="http://www.w3.org/2000/svg" slic3r:z="5.08249999999998e-005" id="layer153">
    <polygon style="fill: white" points="33.522046,17.700009 33.356937,17.90798 32.991092,18.403793 32.914897,18.464776 32.912463,18.467842 32.910334,18.468428 32.89873,18.477716 32.874193,18.478375 32.138694,18.680793 31.530988,18.835528 31.650014,18.225378 31.749877,17.884974 31.741244,17.865264 31.746392,17.865656 31.782957,17.867669 32.427797,17.78216 33.532768,17.68471" slic3r:type="contour"/>
    <polygon style="fill: white" points="31.428557,17.316579 31.599284,17.700541 30.806123,18.349426 30.703004,18.449462 30.29435,17.618311 30.097278,17.142608 30.720027,16.667016 30.999032,16.401773" slic3r:type="contour"/>
    <polygon style="fill: white" points="28.79989,15.992827 29.226534,16.869724 28.74413,17.362379 28.408402,17.733273 28.126171,17.214825 27.761838,16.454855 28.115698,16.114409 28.595612,15.587755" slic3r:type="contour"/>
    <polygon style="fill: white" points="26.676661,15.194193 27.25707,16.322675 26.928571,16.6921 26.458774,17.264112 26.266699,16.921969 25.807654,16.010974 26.026049,15.768363 26.604588,15.062491" slic3r:type="contour"/>
    <polygon style="fill: white" points="22.072642,14.800321 22.380015,14.799726 23.189874,14.798502 23.306354,14.624823 23.351172,14.559751 23.483567,14.798058 23.490891,14.798047 23.491364,14.798853 23.705398,14.794863 24.859451,14.777399 24.883791,14.744605 24.892492,14.733263 24.914727,14.776587 24.951156,14.774954 25.08393,14.769542 25.338374,15.408018 25.507889,15.853359 25.56663,15.960277 25.554387,15.975514 25.573656,16.026137 25.511876,16.028417 25.329932,16.254841 24.796252,16.977881 24.652049,16.733744 24.289533,16.055654 23.820042,16.061173 23.817724,16.064778 23.8168,16.064774 23.308457,16.828846 23.183375,16.6314 22.858472,16.062749 22.3374,16.062434 21.895064,16.787504 21.769286,16.604784 21.438592,16.064126 20.925799,16.064352 20.921309,16.072369 20.913517,16.072355 20.481642,16.82886 20.344409,16.644016 19.95744,16.064308 19.493651,16.05816 19.485931,16.072993 19.478063,16.072768 18.99388,16.977884 18.820098,16.764711 18.274051,16.028451 18.216616,16.026201 18.235857,15.976952 18.223522,15.960321 18.276997,15.871648 18.656183,14.901079 18.7061,14.769549 18.87505,14.776718 18.890725,14.746182 18.89767,14.733242 18.930496,14.777577 19.006204,14.778953 20.298334,14.799633 20.29925,14.798017 20.305204,14.798029 20.399123,14.629093 20.438984,14.559748 20.598955,14.798601 20.894287,14.799175 21.716446,14.800447 21.843946,14.591693 21.895064,14.509436" slic3r:type="contour"/>
    <polygon style="fill: white" points="17.261747,15.147131 17.982476,16.010985 17.75165,16.431725 17.331346,17.264127 17.079577,16.984171 16.533064,16.322677 16.754286,15.921845 17.185537,15.062493" slic3r:type="contour"/>
    <polygon style="fill: white" points="15.427944,15.811623 16.028295,16.454843 15.68117,17.111255 15.381729,17.733265 14.984836,17.331699 14.563592,16.869737 14.862546,16.280439 15.194487,15.587768" slic3r:type="contour"/>
    <polygon style="fill: white" points="13.320037,16.801924 13.692879,17.142576 13.171084,18.248373 13.087135,18.449448 12.373675,17.874502 12.190832,17.700582 12.619808,16.797278 12.791105,16.401756" slic3r:type="contour"/>
    <polygon style="fill: white" points="10.351224,17.69551 12.004401,17.86846 12.039927,17.865756 12.048883,17.865264 12.047913,17.867966 12.039069,17.888163 12.160024,18.50115 12.259097,18.835536 11.818232,18.70429 10.927734,18.480435 10.891374,18.47774 10.884998,18.469693 10.87765,18.467846 10.826824,18.396273 10.36647,17.815283 10.257356,17.68471" slic3r:type="contour"/>
  </g></svg>