<svg width="43.790126" height="63.590156" xmlns="http://www.w3.org/2000/svg" xmlns:svg="http://www.w3.org/2000/svg" xmlns:xlink="http://www.w3.org/1999/xlink" xmlns:slic3r="http://slic3r.org/namespaces/slic3r"><g xmlns="http://www.w3.org/2000/svg" slic3r:z="5.24749999999998e-005" id="layer158">
    <polygon style="fill: white" points="15.3133,17.278642 15.480104,17.457355 15.430807,17.550576 15.477206,17.811438 15.601475,18.480414 15.290994,18.39605 15.020208,18.327017 15.013719,18.339288 14.918889,18.301186 14.32992,18.151036 14.221709,18.041551 13.955818,17.95548 13.564238,17.400117 13.368369,17.09406 14.32569,17.300235 14.570588,16.817493 14.653008,16.645505" slic3r:type="contour"/>
    <polygon style="fill: white" points="17.251594,16.59997 17.563478,16.97379 17.004221,17.993182 16.917939,18.164062 16.332175,17.512714 16.141448,17.28186 16.599407,16.452088 16.785158,16.081946" slic3r:type="contour"/>
    <polygon style="fill: white" points="18.997744,16.201484 19.374782,16.710738 18.876682,17.571098 18.717058,17.869496 18.231304,17.273634 17.963796,16.912939 18.384745,16.214923 18.636212,15.742539" slic3r:type="contour"/>
    <polygon style="fill: white" points="20.628476,16.013672 21.021988,16.605795 20.537351,17.385896 20.344394,17.723894 19.910862,17.139956 19.617585,16.700606 20.021387,16.081007 20.311408,15.569275" slic3r:type="contour"/>
    <polygon style="fill: white" points="22.211371,15.988277 22.597278,16.613858 22.096713,17.35646 21.895064,17.687 21.483721,17.089439 21.192836,16.613863 21.589376,16.034998 21.895064,15.523072" slic3r:type="contour"/>
    <polygon style="fill: white" points="23.80797,16.079096 24.172548,16.700805 23.647894,17.419977 23.445703,17.72388 23.050568,17.100142 22.768142,16.605836 23.162949,16.054642 23.478762,15.569281" slic3r:type="contour"/>
    <polygon style="fill: white" points="25.519955,16.355159 25.826356,16.91286 25.247134,17.633685 25.07309,17.869484 24.670019,17.187073 24.415324,16.710664 24.849015,16.161067 25.153934,15.74255" slic3r:type="contour"/>
    <polygon style="fill: white" points="27.446108,16.888034 27.648662,17.28186 26.968628,18.046613 26.87218,18.164046 26.425293,17.368003 26.226649,16.973784 26.755779,16.385981 27.00497,16.081945" slic3r:type="contour"/>
    <polygon style="fill: white" points="29.46509,17.29586 29.832403,17.213006 30.421757,17.094076 30.148605,17.479402 29.834335,17.95547 29.551075,18.058237 29.460207,18.151036 28.883563,18.300412 28.776408,18.339287 28.771103,18.329543 28.188682,18.480416 28.248866,18.141023 28.357674,17.556749 28.310026,17.457358 29.017952,16.776269 29.137114,16.645502" slic3r:type="contour"/>
  </g></svg>