<svg width="43.790126" height="63.590156" xmlns="http://www.w3.org/2000/svg" xmlns:svg="http://www.w3.org/2000/svg" xmlns:xlink="http://www.w3.org/1999/xlink" xmlns:slic3r="http://slic3r.org/namespaces/slic3r"><g xmlns="http://www.w3.org/2000/svg" slic3r:z="1.1225e-005" id="layer33">
    <polygon style="fill: white" points="22.073778,0.337497 22.334239,0.708025 22.360602,0.70655 22.399028,0.761528 22.601654,0.77287 22.647788,0.721826 22.66241,0.724731 22.82287,0.547216 23.183999,0.157954 23.32715,0.434412 23.533238,0.825012 23.562389,0.826644 23.605873,0.908513 23.807876,0.947249 23.857739,0.90495 23.860487,0.905987 24.056467,0.742118 24.468206,0.412229 24.573045,0.708345 24.721473,1.122443 24.757386,1.129331 24.80353,1.252354 24.959923,1.308681 25.28363,1.111653 25.727831,0.860037 25.791846,1.185155 25.879449,1.639856 25.925336,1.656383 25.967244,1.841602 26.022493,1.873391 26.497969,1.677749 26.939855,1.517939 26.956011,1.890455 26.970584,2.418882 27.029748,2.452923 27.035908,2.528664 27.129955,2.605972 27.685301,2.468264 28.071582,2.392631 28.027546,2.840513 27.967959,3.294838 28.182684,3.471348 28.333703,3.461524 28.410869,3.540355 28.833971,3.488963 29.123744,3.469815 29.004435,4.010785 28.975915,4.117594 29.383192,4.533661 29.535878,4.680599 29.65044,4.685418 29.693492,4.739592 29.937239,4.733543 30.110314,4.739716 29.989679,5.112297 30.223747,5.406833 30.863936,6.15976 30.905724,6.165221 30.918965,6.185753 30.988783,6.189198 31.044398,6.195721 30.998022,6.308347 31.071458,6.422223 31.525573,7.077621 31.699581,7.6429 31.769779,7.807526 31.923736,7.835792 31.890456,7.89338 31.840138,7.972532 31.848261,7.991581 31.800421,8.091559 32.125727,8.95912 32.387228,9.463613 32.745874,9.53553 32.668253,9.654765 32.562012,9.80081 32.586056,9.847197 32.473024,10.066102 32.760857,10.446839 33.375272,11.142568 33.581252,11.182057 33.545705,11.235514 33.504435,11.288825 33.521396,11.308031 33.47945,11.391441 33.772952,11.492128 34.157106,12.685379 34.253508,12.703025 34.262232,12.754107 34.349028,12.777017 34.52322,12.826014 34.350769,13.272504 34.502086,14.158486 34.65088,14.239589 34.711203,14.254876 34.71238,14.27311 35.582974,14.747638 35.765336,14.818084 35.759899,14.849151 35.790964,14.858609 35.783648,14.873919 35.534856,16.307929 36.553247,17.008417 36.814731,17.153396 36.598788,17.498395 36.842779,17.608543 36.986536,17.694606 36.767495,18.34174 36.540964,18.795654 36.888484,19.123222 37.482344,19.655516 37.08032,20.046435 36.881155,20.345627 37.358847,20.592621 37.6306,20.744876 37.313516,21.205683 37.011837,21.611655 37.341772,22.09453 37.845884,22.897708 37.44891,23.194585 37.74196,23.28915 37.848944,23.357414 37.489565,23.616109 37.741375,23.722721 37.93258,23.740238 37.70492,24.237615 37.616643,24.702934 38.301888,25.022553 38.010768,25.418053 37.645958,25.777492 38.173927,25.87098 38.637124,25.873921 38.510336,26.183925 38.450009,26.47474 39.012588,26.762403 38.721723,27.10456 38.350685,27.468156 38.981787,27.545255 39.331932,27.609856 39.185816,28.142223 39.052074,28.65193 39.304804,28.835822 39.856408,29.213136 39.343766,29.610964 39.4158,29.638098 39.236093,29.797007 39.794616,29.92125 40.052784,30.075723 39.907804,30.872351 39.785965,31.27229 39.8293,31.310328 39.809261,31.539725 40.366424,31.981766 40.033256,32.139373 39.717717,32.371477 39.534943,33.224394 39.688064,33.3856 39.671939,33.750253 40.14296,34.2886 40.49148,34.597736 39.964104,34.71204 39.607379,34.919793 39.711228,35.230128 39.424238,35.415482 39.411969,35.490964 39.613932,35.736448 39.593224,36.132216 40.042296,36.7201 40.3624,37.037052 39.847215,37.067436 39.442405,37.257291 39.317815,38.059313 39.493448,38.298596 39.457631,38.662683 39.620107,38.901583 40.05336,39.378712 39.650251,39.364476 39.374174,39.471708 39.126697,40.755071 39.24426,40.932164 39.197319,41.184267 39.607744,41.691872 39.329508,41.66792 39.093033,41.744352 38.959932,42.459187 38.713643,43.329879 38.788032,43.455792 38.741176,43.613474 39.036468,44.027392 38.825992,44.003388 38.609123,44.057869 38.31388,45.051444 38.053632,45.716503 38.106848,45.823236 38.058729,45.933093 38.295252,46.32874 38.108524,46.297116 37.884179,46.331593 37.468488,47.280631 37.151778,47.879009 37.193704,47.98682 37.140998,48.070671 37.348908,48.518672 37.152603,48.469172 36.885623,48.47695 36.435976,49.1923 36.013031,49.781577 36.044403,49.901539 35.988494,49.963354 36.16286,50.521688 35.935372,50.438056 35.597926,50.395165 35.223508,50.809119 34.642678,51.391252 34.65846,51.508632 34.602166,51.554052 34.718856,52.243504 34.452275,52.110755 34.060049,51.99145 33.855983,52.156096 33.096943,52.720277 33.09899,52.831484 33.044112,52.864552 33.079506,53.67786 32.77879,53.486108 32.351352,53.281624 31.427077,53.799059 31.417874,53.901968 31.368411,53.924439 31.35095,54.105807 31.300054,54.836288 30.979446,54.581888 30.539978,54.294071 29.678638,54.658369 29.660852,54.751152 29.612645,54.7676 29.5496,55.085535 29.43754,55.72926 29.118927,55.419715 28.702338,55.069984 27.885731,55.329341 27.86133,55.413572 27.820238,55.423294 27.722469,55.752512 27.552778,56.364752 27.261667,56.021955 26.890345,55.637218 26.052764,55.820879 26.026506,55.889472 25.997759,55.893444 25.892652,56.162347 25.661058,56.774912 25.405412,56.418604 25.085148,56.016546 24.196001,56.129778 24.171901,56.18112 24.159421,56.181678 24.068171,56.372516 23.772974,56.993736 23.550218,56.634116 23.274084,56.220535 22.344539,56.258763 22.244719,56.438228 21.895064,57.055616 21.69524,56.690136 21.449263,56.256349 20.528537,56.218509 20.396325,56.42452 20.01717,56.993719 19.830041,56.604627 19.629075,56.181541 19.618233,56.181095 19.590176,56.121806 18.724618,56.011714 18.524912,56.276675 18.129044,56.7749 17.958701,56.351987 17.785336,55.892244 17.763606,55.88948 17.731553,55.808903 16.924162,55.631861 16.649727,55.93644 16.237339,56.364748 16.094449,55.911663 15.959006,55.420225 15.928866,55.413616 15.897814,55.314213 15.116352,55.065423 14.798943,55.354135 14.352578,55.729272 14.250058,55.264887 14.163603,54.762102 14.129358,54.7512 14.104703,54.638722 13.289777,54.292152 13.01182,54.49486 12.490074,54.836292 12.436598,54.394276 12.404464,53.915645 12.372311,53.901972 12.356709,53.771309 11.49941,53.287566 11.33224,53.381967 10.710635,53.67786 10.702358,53.279687 10.722529,52.849198 10.691136,52.831484 10.68843,52.677994 9.814653,52.021602 9.071269,52.243496 9.099392,51.89982 9.163302,51.532299 9.13168,51.508544 9.146505,51.340553 8.945587,51.120935 8.281444,50.445975 7.627267,50.521668 7.681859,50.23306 7.777288,49.933607 7.74571,49.901516 7.782183,49.719747 7.459331,49.212447 6.989523,48.545142 6.441219,48.518664 6.512815,48.272199 6.626977,48.030187 6.596443,47.986816 6.652426,47.80566 6.339835,47.09642 5.990227,46.418463 5.494872,46.32874 5.582385,46.095004 5.712626,45.880142 5.683276,45.823228 5.763189,45.623689 5.562633,44.935087 5.275197,44.17654 4.753658,44.027412 4.870619,43.762947 5.033197,43.537898 5.002078,43.455776 5.127381,43.191655 5.070361,42.850032 4.816575,41.922063 4.182386,41.691864 4.357015,41.339095 4.582024,41.064422 4.545861,40.932188 4.728913,40.5865 4.546196,39.6193 4.177799,39.570072 3.736765,39.378704 4.011925,38.875639 4.338745,38.521153 4.2967,38.298588 4.460165,38.016991 4.50193,37.974214 4.408506,37.332313 3.706893,37.18314 3.427725,37.037036 3.807132,36.423732 4.218269,36.025218 4.176227,35.736351 4.282991,35.57286 4.387148,35.476963 4.377758,35.408074 4.265616,35.364776 4.078918,35.230196 4.229671,34.991465 3.543759,34.757032 3.29863,34.597716 3.718703,34.011355 4.13809,33.649699 4.102089,33.385567 4.235574,33.211004 4.276492,33.177469 4.160157,32.489293 3.820865,32.302261 3.42371,31.981738 3.713321,31.64212 3.982078,31.435869 3.960853,31.310313 4.04068,31.225989 3.737343,30.075702 4.343724,29.98758 4.610505,29.862147 4.374324,29.638097 4.421134,29.623242 4.103453,29.366645 3.933724,29.21309 4.397687,28.839306 4.726074,28.621204 4.458214,27.609764 5.020306,27.54918 5.4645,27.47499 5.034875,26.999225 4.777544,26.762348 5.121572,26.61474 5.309071,26.516617 5.153,25.873919 5.618085,25.778908 6.152193,25.748197 5.773111,25.278675 5.488244,25.022552 5.83333,24.953695 6.123389,24.813858 5.857548,23.74026 6.224761,23.577836 6.035581,23.435766 5.941182,23.35744 6.362598,23.280915 6.086248,23.057238 5.944239,22.897742 6.346662,22.417742 6.803514,21.630973 6.500291,21.204945 6.159539,20.744828 6.746062,20.444858 6.862755,20.381144 6.48766,19.981196 6.307795,19.655496 6.706951,19.258663 7.266911,18.763938 6.947221,17.987444 6.803589,17.694582 7.091248,17.566976 7.086842,17.556021 7.129405,17.53333 7.010618,17.32646 6.97539,17.153366 7.606931,16.639862 8.236978,16.301728 8.017762,15.775708 7.999173,14.858621 8.032211,14.83687 8.024844,14.818022 8.067077,14.803832 8.101922,14.791455 8.833189,14.261426 9.254676,14.114572 9.293396,13.437374 9.411771,13.079975 9.375872,12.999516 9.266903,12.826018 9.517942,12.75942 9.536619,12.703031 9.59571,12.691769 9.663713,12.408191 10.017234,11.49201 10.176276,11.357336 10.251379,11.334774 10.289281,11.276131 10.208855,11.182063 10.313698,11.162365 10.369659,11.151761 10.976383,10.212978 11.256177,9.942432 11.204138,9.847332 11.232755,9.777194 11.044271,9.53556 11.220366,9.504486 11.354366,9.479142 11.820336,8.337115 11.970354,8.048127 11.941865,7.991576 11.951901,7.963147 11.866391,7.835792 11.937273,7.825868 12.004303,7.814711 12.264477,7.077743 12.793912,6.298439 12.770616,6.244505 12.745725,6.195692 12.866292,6.191898 12.884442,6.165182 12.918194,6.161452 13.105233,5.928594 13.807394,5.084756 13.742317,4.893903 13.67982,4.73971 14.080232,4.756867 14.139685,4.685417 14.231012,4.683154 14.82368,4.083363 14.742391,3.736656 14.666381,3.469804 15.197808,3.543661 15.358886,3.557267 15.456423,3.461524 15.592828,3.472411 15.827665,3.280725 15.772133,2.768034 15.718543,2.392632 16.142713,2.505039 16.648217,2.612407 16.754956,2.527599 16.760301,2.452823 16.823124,2.414605 16.839869,1.979147 16.850272,1.517939 17.189338,1.663035 17.748974,1.873992 17.82663,1.829175 17.864906,1.656324 17.912071,1.638571 17.966402,1.360755 18.06228,0.860022 18.343698,1.035228 18.814381,1.307871 18.989631,1.244711 19.032852,1.129294 19.067394,1.122436 19.142119,0.912193 19.321922,0.412233 19.562876,0.616509 19.9226,0.908468 19.932304,0.904971 19.978489,0.944996 20.185789,0.905246 20.227736,0.826644 20.254074,0.825125 20.355364,0.630664 20.606126,0.157955 20.815068,0.391082 21.122889,0.725555 21.142236,0.721845 21.187243,0.772213 21.391393,0.760788 21.429506,0.70655 21.452934,0.707899 21.588674,0.512595 21.895064,0.078897" slic3r:type="contour"/>
    <polygon style="fill: black" points="21.166032,1.559428 21.103236,1.677117 20.858832,2.131705 20.7104,1.976914 20.403913,1.642554 20.081823,1.706417 20.029229,1.8532 19.846616,2.330427 19.666045,2.191593 19.289028,1.87856 19.02358,1.966788 18.979217,2.201136 18.868998,2.676056 18.637394,2.551481 18.155406,2.257452 17.980183,2.340727 17.97084,2.747962 17.934902,3.181718 17.622053,3.075791 16.990466,2.811148 16.934399,2.846486 17.023848,3.532227 17.043926,3.872075 16.613923,3.798009 16.227928,3.697544 16.007244,4.007953 16.014789,4.042793 16.004869,4.06122 16.135003,4.55513 16.173455,4.765614 15.637365,4.743927 15.436544,5.116986 15.243016,5.627075 15.254989,5.664116 15.251951,5.671204 15.303531,5.807615 15.320107,5.866082 15.163752,5.877 15.111948,5.997871 15.039388,6.302205 14.546389,6.787462 14.410796,6.963132 14.500113,7.179572 14.378292,7.202737 14.145595,7.218643 13.786375,7.626538 13.457442,8.142508 13.562694,8.308702 13.738643,8.681128 13.402469,8.782851 12.891651,8.848303 12.555451,9.503927 12.736542,9.772394 12.7347,9.776766 13.002529,10.150843 13.050612,10.249783 12.524879,10.453656 12.444134,10.466396 12.219942,10.998493 12.607484,11.258479 12.356867,11.698007 12.332857,11.755589 12.377251,11.822036 12.324885,11.843269 12.283483,11.850547 12.061288,12.377228 11.902974,12.18224 11.152997,12.280038 11.069355,12.578493 11.311071,13.145642 11.418579,13.322379 11.437646,13.454442 11.003009,13.649679 10.730326,13.688903 10.697706,13.70628 10.628065,14.396674 10.074073,14.390551 9.785715,14.419323 9.810822,14.499104 9.744496,14.777026 9.859468,15.171551 9.853552,15.652326 9.747572,15.719916 9.673198,15.738716 9.673901,15.75059 9.660454,15.757902 9.701349,15.890733 9.591005,15.920113 8.473224,16.302114 8.49477,16.421501 8.449288,16.442542 8.73364,17.118063 8.937708,17.597136 8.369044,17.872765 8.386101,17.985411 8.517495,18.263149 8.644552,18.53499 8.303946,18.726858 7.851606,18.943627 8.353619,19.665866 7.841927,20.054113 7.422531,20.385347 7.823829,20.953363 8.136822,21.316052 7.927648,21.428458 7.508617,21.690622 8.034334,22.26739 7.531804,22.836194 7.279652,23.14633 7.781452,23.451163 8.026207,23.660978 7.4772,23.848418 7.251444,23.992979 7.383248,24.455218 7.650246,25.434246 7.647119,25.435609 7.615256,25.447297 6.442514,25.990761 6.528379,26.377725 6.627973,26.503294 6.67006,26.688416 6.900873,26.929049 7.00933,27.074256 6.780217,27.172957 6.806752,27.289677 6.861895,27.475082 6.276096,27.431818 6.1113,27.461121 5.733363,27.623933 5.922444,28.350629 6.031571,28.778402 6.189714,28.93016 6.282207,29.01583 6.106274,29.118243 6.137442,29.238871 6.170689,29.43453 5.546852,29.586364 5.39099,29.606631 5.084104,29.821426 5.08667,29.832039 4.984436,29.91799 5.254304,30.837788 5.302981,31.140213 5.522381,31.300912 5.722088,31.370636 5.385032,31.649995 5.391224,31.688456 5.341569,31.739078 5.422316,32.115825 5.523536,33.726456 5.521152,33.728687 5.600488,36.01186 5.600584,36.011855 5.713531,38.254126 5.766076,38.274364 5.86598,38.275288 5.721824,38.418766 5.725852,38.49874 5.689505,38.552002 5.772522,38.953439 5.927125,40.506462 6.048845,40.546188 6.265722,40.551228 5.963706,40.873936 5.981139,41.049047 5.919553,41.146125 6.155329,41.94026 6.306817,42.767434 6.494026,42.813788 6.78145,42.813064 6.400733,43.28025 6.437754,43.482392 6.380387,43.582184 6.764766,44.534688 6.886788,44.963105 7.120878,44.99626 7.444476,44.975456 7.054219,45.550957 7.109471,45.744952 7.07058,45.823494 7.582006,46.772603 7.685313,47.021497 7.943262,47.023296 8.275975,46.97026 7.93276,47.617669 8.001092,47.7823 7.983349,47.827227 8.593548,48.670255 8.712719,48.870816 8.971123,48.829143 9.290896,48.736272 9.037845,49.418 9.110791,49.540767 9.108428,49.549412 9.784258,50.225072 9.976289,50.446378 10.229271,50.360099 10.514929,50.232348 10.371701,50.902071 10.427872,50.966807 11.123349,51.484376 11.450371,51.755811 11.678191,51.637719 11.919814,51.489532 11.871391,52.11129 12.584473,52.512023 13.066886,52.809248 13.262191,52.672907 13.462671,52.513892 13.486227,53.067384 14.155529,53.352079 14.752766,53.629294 14.921864,53.479496 15.093711,53.308808 15.171873,53.822475 15.834084,54.034004 16.440259,54.245373 16.597446,54.073455 16.760405,53.878172 16.891667,54.397963 17.601254,54.554368 18.135587,54.683365 18.290324,54.478223 18.453188,54.249032 18.644963,54.796434 19.419711,54.895523 19.849496,54.955912 20.002982,54.712623 20.166212,54.4493 20.419772,55.019421 21.23457,55.05304 21.589387,55.069057 21.736936,54.792563 21.895064,54.506568 22.196934,55.071672 22.99234,55.038883 23.358012,55.022341 23.485179,54.735648 23.623944,54.449304 23.947636,54.962681 24.690391,54.867828 25.127434,54.806089 25.22597,54.5233 25.336954,54.24904 25.670096,54.691361 26.35677,54.540047 26.863654,54.417021 26.864395,54.4147 26.879897,54.409736 26.947676,54.138687 27.029735,53.87816 27.371319,54.252375 28.027257,54.042332 28.58169,53.848646 28.583617,53.839883 28.600747,53.832552 28.640387,53.566668 28.696416,53.308784 29.063698,53.634423 29.750129,53.340648 30.260679,53.1046 30.261994,53.093451 30.284198,53.080859 30.295386,52.794095 30.327434,52.51392 30.756377,52.813091 31.516559,52.381996 31.86431,52.169309 31.864554,52.150252 31.894548,52.12764 31.868272,51.806968 31.870306,51.489548 32.387083,51.756329 33.224092,51.125327 33.355743,51.017109 33.352,50.978596 33.390584,50.939292 33.313996,50.588647 33.27521,50.232348 33.88338,50.437291 34.694328,49.611197 34.679352,49.540752 34.723333,49.478284 34.588027,49.118471 34.499252,48.736252 35.172948,48.839676 35.828794,47.908154 35.789056,47.782392 35.832105,47.699572 35.648323,47.355971 35.514164,46.97028 36.141183,46.95744 36.21452,46.963864 36.753073,45.927772 36.68066,45.74496 36.717854,45.648827 36.508815,45.342276 36.345659,44.975444 36.956331,44.876436 37.017245,44.875001 37.462282,43.724733 37.352352,43.482408 37.380384,43.383881 37.176751,43.135003 37.008651,42.81312 37.58827,42.653203 37.874484,41.64722 37.930044,41.296314 37.809016,41.049131 37.82585,40.965328 37.665024,40.794424 37.524388,40.551248 37.939226,40.40091 38.069999,39.749876 38.136282,38.636521 38.064284,38.498695 38.070008,38.461719 37.994868,38.38804 37.924188,38.275288 38.111288,38.195044 38.158195,37.892016 38.189478,36.011952 38.189593,36.011888 39.155339,35.522633 38.267635,33.722594 38.267634,33.722595 38.266993,33.721297 38.491989,31.800821 38.398932,31.68849 38.402789,31.672167 38.252204,31.550792 38.068044,31.370648 38.572046,30.955946 38.813249,29.935277 38.703456,29.83201 38.705701,29.823901 38.324386,29.56147 37.782051,29.450614 37.619412,29.434366 37.692999,29.117603 37.605035,29.065331 37.507924,29.01578 37.761542,28.769962 38.058023,27.620332 37.862224,27.532632 37.168019,27.526867 36.928196,27.47508 37.006606,27.149392 36.914892,27.108314 36.780751,27.074216 37.099269,26.764503 37.16218,26.50319 37.218021,26.43627 37.33708,25.988044 36.158849,25.440171 36.139824,25.43441 36.526429,24.050969 36.050684,23.863196 35.763916,23.660978 36.363268,23.314627 36.508314,23.199347 36.179067,22.836811 35.755799,22.26744 35.9771,22.157919 36.337811,21.747561 36.252751,21.698935 35.653308,21.316048 35.973743,20.867388 36.351696,20.384113 35.873835,20.022945 35.436492,19.665812 35.634928,19.454671 35.896563,19.077147 35.9769,18.945551 35.615048,18.756784 35.14558,18.535 35.408285,17.979311 35.425666,17.901395 35.107283,17.747961 34.852416,17.597094 35.071192,17.072579 35.340631,16.440448 35.295408,16.421522 35.311449,16.315631 34.837767,16.188242 34.088764,15.890735 34.105356,15.820407 34.116061,15.785864 34.116448,15.69518 33.93652,15.65226 33.996352,15.47935 34.11341,14.765079 34.041536,14.759871 34.068163,14.472522 33.607976,14.470845 33.162076,14.396701 33.069576,13.905564 33.054544,13.680533 33.02708,13.671472 32.994848,13.585829 32.607213,13.486248 32.352479,13.454442 32.61981,13.214588 32.686625,13.034309 32.511211,13.070181 32.68419,12.753564 32.631115,12.525482 32.273742,12.683408 31.728945,12.377426 31.513628,11.89822 31.493215,11.835044 31.412878,11.822054 31.46206,11.784298 31.182572,11.258311 31.101983,10.329561 30.838735,10.259293 30.739518,10.249785 31.032646,9.951846 31.06432,9.89551 31.053632,9.772333 31.17258,9.604929 31.173359,9.566574 30.789461,8.817266 30.75906,8.811341 30.734839,8.779786 30.394415,8.705004 30.051478,8.681112 30.218789,8.467744 30.330944,8.253607 29.872917,7.656908 29.578346,7.208107 29.56744,7.206808 29.548384,7.185701 29.290044,7.179577 29.342412,7.092851 29.382884,7.002397 28.750799,6.302312 28.602734,5.864108 28.523466,5.861814 28.469996,5.866084 28.544497,5.691754 28.531862,5.654361 28.324187,5.248502 28.080051,4.712191 27.802059,4.733317 27.61667,4.765644 27.76183,4.287778 27.800594,4.103706 27.514266,3.68742 27.03508,3.785942 26.7462,3.872074 26.809536,3.48862 26.862017,2.868572 26.771371,2.81279 26.215322,3.018343 25.855222,3.181716 25.856778,2.8812 25.826484,2.380466 25.589205,2.268973 25.307004,2.428685 24.921128,2.676055 24.87966,2.432922 24.786202,1.99926 24.465122,1.892872 24.319221,2.008542 23.943512,2.330426 23.871205,2.122819 23.722328,1.72374 23.366129,1.653075 23.272726,1.752242 22.931296,2.131706 22.831938,1.944923 22.628129,1.564687 22.268279,1.540387 22.189782,1.649451 21.895064,2.06925 21.770301,1.897504 21.513925,1.535961" slic3r:type="hole"/>
  </g></svg>