<svg width="43.790126" height="63.590156" xmlns="http://www.w3.org/2000/svg" xmlns:svg="http://www.w3.org/2000/svg" xmlns:xlink="http://www.w3.org/1999/xlink" xmlns:slic3r="http://slic3r.org/namespaces/slic3r"><g xmlns="http://www.w3.org/2000/svg" slic3r:z="3.03649999999999e-005" id="layer91">
    <polygon style="fill: white" points="24.068114,61.60514 24.67319,62.29212 24.444765,62.71116 24.084984,63.379068 23.911787,63.169299 23.272002,62.444612 23.507644,62.016943 23.87619,61.396564" slic3r:type="contour"/>
    <polygon style="fill: white" points="26.152223,61.309271 26.757852,61.894088 26.53467,62.396787 26.270824,63.03144 26.038305,62.792187 25.379334,62.170491 25.597284,61.666235 25.888074,61.075588" slic3r:type="contour"/>
    <polygon style="fill: white" points="28.308971,60.852047 28.873936,61.33054 28.646721,61.944544 28.464288,62.5012 28.147244,62.214208 27.520116,61.700748 27.733202,61.089251 27.945644,60.577843" slic3r:type="contour"/>
    <polygon style="fill: white" points="30.548015,60.258643 31.037286,60.632412 30.79905,61.381891 30.679906,61.825764 30.256605,61.477619 29.704322,61.069028 29.922879,60.323688 30.063272,59.93298" slic3r:type="contour"/>
    <polygon style="fill: white" points="38.115636,56.165504 38.9725,56.371548 39.019032,56.916404 39.11116,57.618696 38.873272,57.560272 38.054689,57.383921 38.020804,57.467179 37.997792,57.460928 37.328934,58.53072 37.317952,58.663804 37.2902,58.696909 37.282732,59.007012 37.241327,58.987975 37.096257,58.928269 36.801136,59.280328 35.279013,59.611368 35.209819,59.970716 35.189856,60.111524 34.619635,59.754774 34.456524,59.790248 34.358297,59.735721 33.238814,59.906128 33.017999,60.731576 32.952046,61.035724 32.398974,60.626844 31.949226,60.329528 32.167183,59.420652 32.239582,59.179176 32.870723,59.559171 33.307996,59.857671 34.097415,59.0922 34.221252,58.955947 34.229332,58.916692 34.242319,58.901348 34.327707,58.381632 34.341956,58.3158 34.618826,58.456498 34.783948,58.261403 35.000376,57.977496 35.746615,57.848364 36.194797,57.735513 36.236816,57.277144 36.35542,57.321696 36.943746,57.57798 37.898858,57.210707 37.853999,56.825172 37.795203,56.101704" slic3r:type="contour"/>
    <polygon style="fill: white" points="40.147972,54.826448 40.360791,55.540283 40.520688,56.018356 40.081675,56.008047 39.300412,56.00298 39.07046,55.283231 38.930464,54.812968 39.454632,54.811632" slic3r:type="contour"/>
    <polygon style="fill: white" points="42.806931,46.641899 43.14208,47.125628 42.852779,47.383056 42.352038,47.817639 42.378919,47.850436 42.337236,47.883935 42.458144,48.039296 42.932012,48.665924 42.437096,49.009507 41.958745,49.353075 42.392279,49.917071 42.66028,50.295196 42.296511,50.506984 41.571351,51.009715 42.154367,52.225055 42.219456,52.374432 42.141981,52.435522 42.171659,52.475463 42.189252,52.499116 42.014245,52.552751 41.069068,53.431126 41.386775,54.035667 41.526568,54.290328 40.910683,54.401988 40.326744,54.5093 39.860827,53.650859 39.737468,53.422236 40.456043,53.284588 40.535823,53.269738 40.424296,52.730576 40.287593,51.925657 40.286692,51.924523 40.839328,51.507803 41.44455,50.976498 41.10788,50.510456 40.708404,49.917312 41.222219,49.614228 41.680475,49.320154 41.249627,48.758791 40.966508,48.363351 41.258972,48.152495 41.785989,47.776228 41.704519,47.653859 41.167324,46.8864 41.602864,46.533835 42.282084,45.937747" slic3r:type="contour"/>
    <polygon style="fill: white" points="43.331136,40.311556 43.711884,40.669864 43.160136,41.066739 42.791186,41.403896 42.863972,41.556404 42.803128,41.610174 43.302244,42.279348 43.581376,42.742004 43.234108,43.179576 42.624881,43.814781 42.71524,43.92274 42.661354,43.980313 42.899599,44.259239 43.401364,44.817328 42.956611,45.134104 42.311424,45.64884 41.751647,45.041399 41.423212,44.607692 41.719936,44.360263 42.340715,43.902866 42.331156,43.888752 42.404953,43.82563 42.084167,43.302579 41.595568,42.620636 42.161343,42.039672 42.570087,41.56033 42.551916,41.537672 42.610207,41.451056 41.985143,40.888812 41.72548,40.563304 42.116543,40.179432 42.753296,39.681024" slic3r:type="contour"/>
    <polygon style="fill: white" points="43.136615,35.614563 43.375971,36.137953 43.697063,36.446111 43.7759,36.505452 43.605005,36.638775 43.630932,36.695468 43.608216,36.718583 43.71846,36.861003 43.785036,36.989031 43.281723,38.030624 42.788335,38.717772 41.959276,37.33308 41.79488,37.112992 42.02274,36.777709 41.992272,36.743312 42.006274,36.710113 41.852664,36.597632 41.783712,36.519768 42.320104,35.856931 42.392286,35.794886 42.711408,35.038255" slic3r:type="contour"/>
    <polygon style="fill: white" points="41.739123,25.721009 42.093864,25.86707 41.624324,26.309661 41.581851,26.377446 41.753092,26.717134 41.60299,26.956257 42.182827,27.572107 42.883757,28.927297 42.912128,28.94644 42.923544,28.952275 42.905562,28.967997 42.940472,29.033932 42.819311,30.645404 42.517281,31.627679 42.73298,31.797836 42.690366,32.002624 42.850619,32.135629 43.472876,32.52621 43.169228,32.779423 42.572228,33.502172 41.964208,33.133922 41.486484,32.65709 41.659016,32.411071 42.122469,31.981688 42.06962,31.909759 42.261793,31.594716 41.569128,30.65111 41.110912,30.16519 41.271188,29.46846 41.201392,29.40803 41.203696,29.362625 41.012139,29.271198 40.904324,29.18022 41.245492,28.539032 41.322149,27.02852 41.160516,26.91407 41.142874,26.754508 40.47268,26.508686 40.096652,26.230758 40.299868,25.771674 40.814672,25.203602" slic3r:type="contour"/>
    <polygon style="fill: white" points="40.787836,24.649948 40.808716,24.689963 40.791763,24.721706 40.78226,24.719632 40.762292,24.708572 40.733504,24.5785" slic3r:type="contour"/>
    <polygon style="fill: white" points="40.156264,22.738498 40.210068,22.986535 40.21098,23.030123 40.706452,23.24851 41.234596,23.399764 40.903319,23.772672 40.529228,24.444016 39.801052,24.247626 39.292776,23.927443 39.417584,23.58756 39.893084,22.996222 39.810348,22.89843 39.892668,22.703458 39.951856,22.638334" slic3r:type="contour"/>
    <polygon style="fill: white" points="21.328041,2.387209 21.484722,2.386141 21.806393,2.391614 21.827772,2.357147 21.895064,2.249493 21.984681,2.394647 22.027683,2.395379 22.028835,2.397202 22.146524,2.398007 22.416252,2.393163 22.452562,2.390789 22.477779,2.351124 22.54698,2.248276 22.621456,2.379747 22.727738,2.3728 23.190666,2.303184 23.195851,2.297978 23.218389,2.293984 23.240586,2.264889 23.252436,2.289871 23.308132,2.270741 23.695657,2.539328 23.810202,2.589908 24.00797,2.464433 24.052601,2.696945 24.170074,2.748818 24.272738,3.040722 24.512011,3.102948 24.604991,3.069506 24.87587,2.980313 24.86932,3.19587 24.946395,3.215916 25.137508,3.24152 24.854982,3.667738 24.851038,3.797517 24.85231,3.987594 24.895989,4.007402 25.302505,4.039318 25.570204,4.091636 25.507507,4.298084 25.665683,4.326111 25.439759,4.52117 25.260278,5.112175 25.754906,5.29806 26.031018,5.357522 25.997337,5.389169 26.04798,5.408201 25.973816,5.673578 25.816903,6.179961 26.012242,6.262728 26.38899,6.308663 26.234722,6.432026 26.065536,6.696173 26.556682,6.80686 26.499644,7.133202 26.587946,7.164376 26.73973,7.185103 26.447974,7.428832 26.425347,7.558288 26.430883,7.817277 26.695834,7.901522 27.033224,8.008576 26.849118,8.198714 26.597157,8.491563 26.844269,8.539356 27.256274,8.687199 27.159278,8.830997 27.031835,8.990861 27.450778,9.095198 27.410075,9.227011 27.553598,9.219544 27.553403,9.484506 27.806806,9.400422 27.762355,9.501713 27.900404,9.444846 27.921468,9.508769 27.958042,9.725233 27.959647,9.727537 28.008852,9.927464 28.109145,10.041914 28.327818,9.868926 28.641316,9.681596 28.768034,9.987982 28.881407,10.370099 29.069263,10.388796 29.47092,10.060522 29.638674,9.943989 29.818791,10.376875 30.05996,10.399146 30.5575,10.423128 30.70942,10.310127 30.76598,10.272651 30.82071,10.424618 30.896618,10.433975 31.27943,10.470173 31.613557,10.726409 31.683443,10.778128 31.85166,10.678521 31.873862,10.751965 31.924499,10.956519 31.932708,10.962594 31.953425,11.030794 32.121068,11.18058 32.302295,11.325816 32.763374,11.037865 32.841905,11.261066 32.951509,11.667578 33.130258,11.495518 33.409182,11.259538 33.557979,11.557611 33.682876,11.322814 33.727577,11.37248 33.731479,11.297005 33.982269,11.43457 33.916496,11.119464 34.121056,11.197305 34.3709,11.242309 34.291848,10.722166 34.42118,10.768981 34.749196,10.834307 34.913863,10.499296 34.955119,10.48297 35.022564,10.249239 35.058772,10.274975 35.223638,10.376708 35.612316,10.222898 35.911182,10.282191 35.993344,10.223495 36.022064,10.206944 36.05873,10.311464 36.08588,10.31685 36.140521,10.414422 36.174699,10.441287 36.507289,10.676796 36.768372,10.59906 36.862524,10.581982 36.856133,10.923814 36.923888,10.971791 36.953064,11.199387 37.375251,11.185806 37.523236,11.196743 37.363348,11.759808 37.437452,11.859296 37.826295,11.940976 38.007344,11.996988 37.656928,12.608078 38.075207,12.791239 38.271275,12.890615 37.831247,13.396848 37.788717,13.441381 38.176091,13.674395 38.388352,13.811667 37.909099,14.24414 37.791935,14.339646 38.182203,14.602887 38.432884,14.760426 37.976852,15.128753 37.729345,15.31546 38.126196,15.572822 38.481064,15.729167 38.145975,15.998945 37.747421,16.350921 38.012789,16.568421 38.605612,16.760099 38.508208,16.839733 38.438983,16.917736 38.682704,17.117494 38.377631,17.774203 38.582688,17.865132 38.876008,17.94202 38.632676,18.188193 38.472394,18.433257 38.751376,18.554486 39.192516,18.763526 39.015661,19.282539 39.205923,19.373643 39.529432,19.499966 39.457915,19.714852 39.400697,19.895351 39.750752,19.950506 39.655799,20.116618 39.470168,20.480067 39.449113,20.979761 39.622171,21.051446 39.681046,21.29007 39.809104,21.334068 40.434384,21.452513 40.207908,21.76758 39.806752,22.563806 39.123363,22.421616 38.556615,22.131378 38.640643,21.871708 38.929061,21.459137 38.88584,21.408436 38.936297,21.275561 38.587909,20.96496 38.5467,20.957868 37.925251,20.737627 37.958595,20.627766 38.03036,20.506128 37.758236,20.394832 37.898652,19.821763 37.914466,19.747318 37.589283,19.57344 37.350808,19.49679 37.513979,18.980114 37.61081,18.775697 37.444779,18.720768 36.976008,18.523018 37.270064,18.045879 37.357918,17.921546 37.134263,17.733651 36.738136,17.52514 36.870455,17.318848 36.905483,17.24866 36.642756,17.086846 36.755467,16.949074 37.279149,16.499905 37.324528,16.408972 36.90204,16.160102 36.498196,15.886251 36.890483,15.48741 37.151721,15.304039 36.692184,15.00431 36.444208,14.843599 36.97236,14.38984 37.037213,14.34292 36.596984,14.07626 36.402912,13.967422 36.913094,13.539499 36.503264,13.355082 36.319708,13.281227 36.699181,12.894499 36.367879,12.829667 36.18346,12.790374 36.410521,12.424932 36.126579,12.450224 35.978588,12.447963 36.065391,12.118446 35.808799,12.221612 35.751772,12.233523 35.751417,12.226599 35.688368,12.203031 35.690647,12.192864 35.611425,12.1438 35.564707,12.186379 35.569052,12.235208 35.179155,12.150072 35.242552,12.585126 34.771216,12.502133 34.716906,12.4909 34.689508,12.688731 34.666792,13.039049 34.152161,12.827513 34.000568,13.04803 33.876584,13.294572 33.471405,12.885925 33.403563,12.813862 33.226495,12.959236 32.980962,13.199619 32.843352,12.794801 32.70175,12.458478 32.479063,12.603992 32.087042,12.905575 32.043128,12.63132 31.959113,12.327961 31.567608,12.283998 31.552112,12.294454 31.462477,12.289037 31.135989,12.53087 31.115358,12.399824 31.081203,12.265994 30.266184,12.216737 30.174849,12.14223 30.14381,12.168786 30.128023,12.104754 30.00395,12.035483 29.359696,11.630857 29.232794,11.73599 29.1032,11.858404 28.955886,11.377241 28.897822,11.340774 28.893041,11.327414 28.536498,11.156447 28.296654,11.345263 28.046574,11.571614 27.920983,11.148049 27.848027,10.930213 27.69508,11.018575 27.469356,10.950998 27.054556,11.234311 26.999544,10.964071 26.963103,10.799656 26.618455,10.684929 26.405998,10.72517 26.372575,10.69545 26.190552,10.758796 26.19373,10.628327 26.19261,10.535419 25.777775,10.166536 25.725114,10.114527 25.657046,10.109436 25.653314,10.101858 25.556034,10.103714 25.580236,10.040197 25.596482,9.986473 25.331158,9.44778 25.303131,9.384222 25.270057,9.37633 25.269539,9.373722 25.151782,9.347762 25.196255,9.284513 25.233203,9.225638 25.229626,9.217527 25.236962,9.209641 25.146848,8.755767 25.122772,8.638213 24.893542,8.556114 24.981107,8.454765 25.064597,8.35417 25.057844,8.321199 25.114669,8.265164 25.121814,8.151322 25.112638,7.950559 24.677926,7.785194 24.870314,7.545673 25.08295,7.301005 25.074881,7.124446 24.640043,7.005253 24.379138,6.908949 24.529248,6.695647 24.436188,6.65695 24.28103,6.652399 24.483087,6.280736 24.514709,6.124969 24.035062,5.912877 24.278943,5.509644 24.399192,5.370423 24.208401,5.317073 23.828568,5.316752 23.937188,5.119552 23.957399,5.032423 23.663882,4.912363 23.79992,4.592421 23.927631,4.421175 23.808548,4.427876 23.522644,4.533647 23.624361,4.348598 23.355637,4.334851 23.376524,4.237241 23.262798,4.282297 23.093111,4.143488 23.062528,4.308279 23.05182,4.207754 22.91254,4.006796 22.740949,3.968538 22.625319,4.113012 22.519924,4.317709 22.488994,4.271643 22.299069,4.007482 22.232867,4.019123 22.098087,4.017275 22.031382,4.105282 21.895064,4.318847 21.865923,4.283574 21.580999,3.891866 21.430489,4.105029 21.270204,4.317708 21.222655,4.269604 20.991603,3.950892 20.87217,4.162386 20.727606,4.308272 20.58122,4.210898 20.527344,4.282289 20.471388,4.233589 20.409324,4.337962 20.24018,4.273271 20.267478,4.533652 19.991733,4.538347 19.799813,4.503381 19.89503,4.681204 20.126224,4.912395 19.953364,4.925151 19.863483,4.965097 19.96154,5.316799 19.520542,5.449551 19.376545,5.468555 19.518396,5.678617 19.75506,5.912896 19.465547,5.956917 19.341398,6.013647 19.509122,6.652345 19.270483,6.751706 19.41099,6.908959 18.882122,6.993893 18.659128,7.079374 18.714408,7.144198 18.716162,7.336396 19.112194,7.785193 18.86799,7.824488 18.717821,7.882509 18.705863,8.294175 18.732258,8.321222 18.726522,8.349922 18.896592,8.556116 18.777673,8.581432 18.67284,8.618544 18.580425,9.080979 18.554059,9.210045 18.560533,9.217514 18.55952,9.219583 18.63837,9.34773 18.56442,9.359762 18.521584,9.369006 18.520095,9.376297 18.478176,9.385742 18.220499,9.912079 18.195375,9.968814 18.234088,10.103715 18.13709,10.100421 18.133101,10.10943 18.043632,10.117762 17.658624,10.451758 17.604772,10.505386 17.599546,10.758799 17.479077,10.719684 17.41253,10.696833 17.384078,10.725167 17.161265,10.659748 17.005583,10.700841 16.843303,10.757475 16.73557,11.234332 16.493754,11.087528 16.288297,10.951164 16.095046,11.018606 15.953416,10.935346 15.871987,11.197137 15.743552,11.571601 15.352512,11.277171 15.189082,11.136181 14.924107,11.25712 14.8923,11.34079 14.859794,11.357902 14.762333,11.65558 14.686901,11.858401 14.377363,11.611851 14.111686,11.751702 13.675517,12.082558 13.670903,12.096828 13.665926,12.100275 13.654082,12.144142 13.646285,12.168787 13.602363,12.136587 13.523906,12.216741 12.937636,12.211967 12.735835,12.235754 12.654166,12.530864 12.516839,12.44605 12.292426,12.288023 12.238011,12.294437 12.170983,12.251039 11.883888,12.288337 11.872238,12.345467 11.703067,12.905595 11.409558,12.721391 11.095641,12.492973 10.964603,12.847152 10.809169,13.199619 10.405074,12.88244 10.352743,12.834178 10.109319,13.083193 9.913543,13.294571 9.577116,12.840769 9.433371,12.900555 9.123289,13.039034 9.041993,12.547422 9.036095,12.477869 8.54754,12.585122 8.6186,12.223702 8.636832,12.105138 8.221081,12.235205 8.224956,12.215971 8.183112,12.138439 8.122663,12.194035 8.109853,12.190724 8.101807,12.20301 8.029293,12.188002 8.038364,12.233515 7.880318,12.154094 7.727212,12.211898 7.762029,12.331389 7.811512,12.447989 7.346876,12.387235 7.508656,12.643829 7.606641,12.790422 7.093167,12.887778 7.33835,13.14003 7.470416,13.281235 6.890193,13.551153 7.225024,13.831902 7.38721,13.96748 6.808934,14.32607 6.735605,14.367894 7.135089,14.699807 7.345917,14.843595 6.843586,15.171965 6.595678,15.332849 6.978324,15.700773 7.291945,15.886164 6.915755,16.095933 6.468694,16.391533 6.63539,16.715516 7.147379,17.086832 7.028042,17.132129 6.891316,17.212919 7.051984,17.525186 6.44842,18.001878 6.609658,18.257399 6.814126,18.52302 6.459787,18.620016 6.118519,18.759612 6.24937,19.102484 6.439338,19.496798 5.91689,19.763039 5.973369,19.985736 6.031843,20.394928 5.865266,20.478337 5.72595,20.535031 5.864882,20.737596 5.749054,20.753426 5.467753,20.831027 5.271291,21.077157 4.87683,21.352772 4.90427,21.408478 4.815897,21.568609 4.878325,21.7134 5.233513,22.131352 4.978147,22.168916 3.983333,22.563924 3.570612,21.946761 3.355722,21.45254 3.699696,21.311443 4.148879,21.215271 4.167927,21.051446 4.379106,20.947795 4.382317,20.642226 4.29723,20.490113 4.039397,19.950454 4.194185,19.899233 4.377078,19.865691 4.260716,19.49991 4.82022,19.235397 4.722085,18.912777 4.597592,18.763558 5.042039,18.585416 5.268892,18.478234 5.208642,18.404777 4.914118,17.942034 5.497877,17.672467 5.376146,17.373536 5.107418,17.117506 5.280271,17.037957 5.362125,16.967528 5.184513,16.760095 5.338159,16.670878 6.061942,16.378595 5.682726,16.065142 5.309064,15.729201 5.762311,15.425349 6.035943,15.285554 5.613238,14.950006 5.357237,14.760421 5.903341,14.388539 6.003854,14.323879 5.601192,13.969649 5.401784,13.81162 6.024195,13.442235 5.672154,13.047129 5.518826,12.89064 6.159245,12.619126 5.882435,12.149816 5.782807,11.996954 6.379569,11.885566 6.369603,11.836255 6.438173,11.735241 6.314108,11.324385 6.266941,11.196694 6.783043,11.227192 6.833201,11.1533 6.846983,11.135507 6.866225,10.97189 6.945187,10.906628 6.936453,10.665521 6.9276,10.581957 7.219442,10.677642 7.669741,10.379046 7.704237,10.316816 7.73844,10.306005 7.762125,10.233621 7.768034,10.206945 7.854242,10.271432 8.177779,10.222909 8.56889,10.367192 8.767586,10.249265 8.789547,10.303185 8.850025,10.487785 8.876249,10.499275 9.019755,10.799331 9.498285,10.72214 9.511572,10.938894 9.495784,11.16909 9.873635,11.119464 9.877431,11.374972 10.058646,11.297008 10.071881,11.363763 10.107216,11.322802 10.26396,11.577994 10.380946,11.259524 10.592651,11.476633 10.853571,11.709701 10.924515,11.490128 11.026783,11.037866 11.166775,11.154552 11.439584,11.337452 11.844782,11.005333 11.857359,10.962677 11.878969,10.946388 11.938439,10.678522 11.991385,10.716969 12.096586,10.782347 12.51075,10.470148 12.975572,10.420361 13.007333,10.328902 13.024148,10.272651 13.184776,10.397952 13.192481,10.397127 13.219053,10.415138 13.525566,10.389182 14.001569,10.357904 14.101473,10.103485 14.151472,9.943991 14.495772,10.246694 14.592797,10.319054 14.609527,10.317955 14.667738,10.361692 14.949434,10.33699 15.09412,9.940797 15.148841,9.681596 15.35339,9.868193 15.592258,10.030636 15.838359,9.710691 15.884428,9.612093 15.889701,9.444846 15.942533,9.487734 15.983339,9.400399 16.271377,9.369184 16.236558,9.219513 16.36211,9.280729 16.510073,9.310717 16.339358,9.095187 16.472995,9.113939 16.882196,9.087168 16.808581,8.984334 16.533853,8.687206 16.72091,8.655891 17.200372,8.531454 17.005359,8.321292 16.756907,8.008577 17.110322,7.896155 17.39692,7.805087 17.402447,7.659055 17.374915,7.61618 17.374294,7.610909 17.156712,7.383591 17.050406,7.185072 17.318875,7.08888 17.233464,6.806807 17.580701,6.789942 17.651333,6.775064 17.401136,6.308641 17.765337,6.151297 18.033305,6.073555 18.000615,5.925115 17.742146,5.408203 17.787348,5.403687 17.759122,5.357486 17.803914,5.338646 18.529355,5.102082 18.434056,4.759393 18.218518,4.512049 18.12444,4.326111 18.296263,4.250586 18.219922,4.09163 18.651897,4.094267 18.861455,4.002156 18.717525,3.662827 18.652625,3.241513 18.90832,3.179209 18.914246,2.980318 19.233971,3.09986 19.502878,3.034336 19.620038,2.748856 19.717947,2.694547 19.782154,2.464429 19.931888,2.575875 20.481986,2.270742 20.53785,2.284295 20.549539,2.264889 20.566848,2.291331 20.590837,2.297153 20.616367,2.299012 21.168316,2.366762 21.243118,2.248275" slic3r:type="contour"/>
    <polygon style="fill: white" points="3.979778,22.89843 3.896593,23.047319 4.154352,23.580536 4.497343,23.927464 4.160342,23.996784 3.260974,24.443961 2.752643,23.8127 2.55553,23.399748 3.012691,23.165946 3.610004,22.985473 3.633864,22.738497 3.757193,22.667273 3.838276,22.638337" slic3r:type="contour"/>
    <polygon style="fill: white" points="3.042307,24.668886 3.027777,24.708571 2.998303,24.721704 2.9924,24.713926 2.981354,24.689964 3.056577,24.578462" slic3r:type="contour"/>
    <polygon style="fill: white" points="3.405639,25.965282 3.693461,26.230784 3.192179,26.39 2.680313,26.696478 2.62962,26.914068 2.494109,26.99343 2.645745,28.085996 2.6138,28.826694 2.7912,29.097387 2.885813,29.180148 2.592934,29.310542 2.588732,29.407984 2.548133,29.437667 2.631164,29.732093 2.679199,30.165244 2.173318,31.03811 1.536863,31.659054 1.720445,31.909771 1.645106,32.034843 1.777707,32.199628 2.303652,32.65703 2.015284,32.820169 1.218003,33.502491 0.697256,33.043187 0.317233,32.52627 0.603805,32.26249 1.100804,31.943319 1.057046,31.797883 1.295711,31.585496 0.873543,29.136579 0.849558,29.034362 0.887826,28.991137 0.879826,28.97888 0.881317,28.976693 0.866602,28.95214 0.931947,28.902474 2.208802,27.030729 2.037033,26.717146 2.182891,26.498306 1.841587,26.137477 1.696257,25.867112 2.290007,25.491128 2.975393,25.203704" slic3r:type="contour"/>
    <polygon style="fill: white" points="1.435567,35.6864 1.561834,36.054766 1.918996,36.447779 2.006417,36.51974 1.776474,36.68094 1.79785,36.7433 1.780077,36.761112 1.91344,36.950188 1.995248,37.11298 1.514834,38.053119 1.001914,38.717628 0.142359,37.189208 0.005095,36.989171 0.194464,36.735125 0.159254,36.695524 0.178415,36.660991 0.066409,36.569436 0.014231,36.505424 0.623637,35.85861 1.078679,35.038532" slic3r:type="contour"/>
    <polygon style="fill: white" points="1.669121,40.2584 2.064644,40.563256 1.569198,40.996312 1.178623,41.437488 1.238203,41.537668 1.226716,41.550693 1.851607,42.185368 2.194563,42.620704 1.931432,43.093111 1.393077,43.835404 1.458903,43.888688 1.445605,43.909538 1.789199,44.184247 2.366925,44.607716 2.016843,44.983248 1.478541,45.648768 0.804426,45.1655 0.388766,44.817232 0.643023,44.512124 1.125326,43.974841 1.074816,43.922644 1.170911,43.802534 0.810216,43.377203 0.20875,42.741987 0.708433,42.064315 0.995423,41.622621 0.926157,41.556416 0.998165,41.42375 0.373017,40.963428 0.078243,40.669916 0.449059,40.238296 1.036815,39.681004" slic3r:type="contour"/>
    <polygon style="fill: white" points="2.186148,46.486304 2.62282,46.886536 2.416385,47.20592 2.011633,47.782856 2.214168,47.928336 2.823634,48.363444 2.47807,48.812624 2.11039,49.312594 2.70852,49.668176 3.081739,49.917356 2.831526,50.24866 2.344982,50.97149 3.503464,51.924474 3.502457,51.925714 3.245557,53.269838 3.827282,53.380632 4.052634,53.422192 3.749831,53.979023 3.463477,54.50926 2.580214,54.348664 2.263579,54.290364 2.608616,53.630639 2.712288,53.439682 2.298341,53.071039 1.770328,52.553522 1.632281,52.509859 1.600874,52.499088 1.647103,52.436854 1.570671,52.374388 1.91679,51.740323 2.221787,51.016449 1.740692,50.717351 1.129852,50.29516 1.511471,49.800203 1.833275,49.358337 1.259123,48.959591 0.858089,48.665816 1.090432,48.372416 1.4569,47.887979 1.41105,47.85028 1.440155,47.814687 1.379799,47.761439 0.64804,47.125604 1.00362,46.647763 1.507943,45.937924" slic3r:type="contour"/>
    <polygon style="fill: white" points="4.716241,55.251027 4.489745,56.002944 3.823895,56.0162 3.269453,56.018376 3.416835,55.51914 3.642163,54.82648 4.442133,54.8247 4.859658,54.812944" slic3r:type="contour"/>
    <polygon style="fill: white" points="5.957931,56.388283 5.887942,57.199449 6.915686,57.563566 7.553345,57.277152 7.556022,57.389444 7.583498,57.712171 8.789727,57.977479 9.183625,58.457275 9.395287,58.347016 9.448167,58.315796 9.532849,58.882654 9.554823,58.90942 10.48167,59.854864 11.362531,59.311064 11.550556,59.179176 11.694582,59.824384 11.840883,60.32948 11.119576,60.852792 10.838056,61.035708 10.637834,60.302036 10.547995,59.905932 9.457727,59.72268 9.333603,59.79024 9.194057,59.757446 8.736323,60.037576 8.600278,60.111504 8.497648,59.593789 7.96885,59.469519 6.988966,59.2803 6.84124,59.078911 6.706033,58.926834 6.507362,59.006984 6.503209,58.953576 6.493571,58.687867 6.47216,58.663784 6.454973,58.469804 6.293597,58.179772 5.807536,57.457292 5.769481,57.467116 5.741588,57.385932 5.432735,57.460032 4.678969,57.6187 4.702801,57.329479 4.81764,56.371616 5.404914,56.249807 5.994942,56.101724" slic3r:type="contour"/>
    <polygon style="fill: white" points="13.866739,60.440632 14.085805,61.068995 13.508205,61.536116 13.110208,61.825752 12.926056,61.255716 12.752854,60.632331 13.429507,60.166108 13.726836,59.93298" slic3r:type="contour"/>
    <polygon style="fill: white" points="15.97479,60.971463 16.27001,61.70066 15.809268,62.111452 15.325864,62.5012 15.164381,62.070104 14.916157,61.330696 15.461654,60.909491 15.8445,60.577852" slic3r:type="contour"/>
    <polygon style="fill: white" points="18.028167,61.378079 18.410774,62.170648 18.044832,62.542455 17.519292,63.03144 17.3756,62.70998 17.032276,61.894088 17.464908,61.504556 17.902064,61.075588" slic3r:type="contour"/>
    <polygon style="fill: white" points="20.043052,61.635492 20.518124,62.444612 20.222634,62.799211 19.705142,63.379068 19.571014,63.133288 19.116936,62.292036 19.458774,61.917199 19.913936,61.396564" slic3r:type="contour"/>
    <polygon style="fill: white" points="22.042258,61.720048 22.601398,62.492168 22.352161,62.859268 21.895063,63.506632 21.754726,63.298956 21.188738,62.492248 21.46305,62.107935 21.895064,61.513044" slic3r:type="contour"/>
  </g></svg>