<svg width="43.790126" height="63.590156" xmlns="http://www.w3.org/2000/svg" xmlns:svg="http://www.w3.org/2000/svg" xmlns:xlink="http://www.w3.org/1999/xlink" xmlns:slic3r="http://slic3r.org/namespaces/slic3r"><g xmlns="http://www.w3.org/2000/svg" slic3r:z="4.78549999999998e-005" id="layer144">
    <polygon style="fill: white" points="5.333797,36.018976 5.402874,36.07652 4.880795,36.443116 5.276214,36.736627 5.412339,36.823544 4.966675,37.869367 4.545918,38.636892 4.057266,38.610696 3.614907,38.838908 4.311936,36.636693 3.719224,36.038504 3.514783,35.855544 4.159123,35.485999 4.483524,35.308684" slic3r:type="contour"/>
    <polygon style="fill: white" points="5.440544,31.499884 5.640968,31.67615 4.963823,32.106478 4.606736,32.29848 4.042523,31.672653 3.751384,31.392377 4.30984,31.106717 4.768182,30.889966" slic3r:type="contour"/>
    <polygon style="fill: white" points="5.97121,27.469626 6.15301,27.644748 5.461581,28.02268 5.082639,28.19484 4.553271,27.551339 4.297511,27.2766 4.909866,26.987754 5.346923,26.807734" slic3r:type="contour"/>
    <polygon style="fill: white" points="6.786866,24.001698 6.918281,24.149282 6.159929,24.460131 5.81122,24.588294 5.310141,23.87978 5.118296,23.620988 5.830965,23.32395 6.209129,23.199164" slic3r:type="contour"/>
    <polygon style="fill: white" points="7.488247,19.860333 7.93905,19.889412 8.265853,20.655828 8.257329,20.9909 7.771539,21.035423 7.912656,21.300975 7.993489,21.419081 7.338839,21.393776 6.95637,21.479316 6.37541,20.778279 6.245906,20.520642 6.904792,20.422616 6.897553,19.892859 6.902224,19.461508" slic3r:type="contour"/>
    <polygon style="fill: white" points="9.366223,17.134927 10.128589,17.408502 10.062805,18.077903 9.926309,18.955626 9.203198,18.870104 8.689946,18.6562 8.907633,17.862461 9.058716,17.052596" slic3r:type="contour"/>
    <polygon style="fill: white" points="14.372059,14.748469 14.854958,15.243565 14.347452,16.417132 14.247395,16.645526 13.650395,16.061085 13.538341,15.947093 13.44258,16.696921 13.405182,16.999318 12.771699,16.96431 12.226392,16.937627 12.184278,16.94076 11.998513,17.588024 11.781366,17.483001 11.121038,17.02212 11.036657,17.02871 11.035074,16.962121 10.976627,16.921328 11.001677,16.85829 10.993462,16.851397 11.029993,16.748423 11.010801,15.941179 10.983309,15.734065 11.402481,15.69844 11.4693,15.510085 11.512954,15.413301 11.925895,15.698606 13.362539,15.751023 13.762292,14.846529 13.993725,14.383744" slic3r:type="contour"/>
    <polygon style="fill: white" points="16.307119,13.899039 16.97254,14.650816 16.643025,15.360912 16.342312,15.998122 15.989706,15.598486 15.508399,15.059228 15.798393,14.442949 16.16018,13.731977" slic3r:type="contour"/>
    <polygon style="fill: white" points="22.210873,13.266531 22.646382,13.265577 22.789244,13.265405 23.012718,12.936636 23.108054,12.801033 23.358452,13.264715 23.368194,13.264703 23.368786,13.265744 23.707115,13.260802 24.195164,13.256291 24.346901,13.055794 24.406366,12.978835 24.542668,13.253646 24.742546,13.2472 25.589355,13.227802 25.631968,13.364852 25.678865,13.526378 25.879956,13.286499 25.894456,13.316326 26.528122,14.569621 26.190605,14.992797 25.72106,15.556545 25.560092,15.225962 25.217024,14.521622 25.202584,14.522307 25.191843,14.499806 24.86372,14.508075 24.830548,14.554627 24.28633,15.271849 24.165916,15.04175 23.904022,14.532259 23.902398,14.5323 23.895647,14.518759 23.44724,14.52208 23.044824,15.114371 22.945017,14.936822 22.714626,14.521704 22.226753,14.521335 21.895064,15.066082 21.80019,14.90654 21.567076,14.523521 21.073047,14.523814 20.745298,15.114373 20.640951,14.948551 20.355272,14.526986 19.892399,14.522911 19.88773,14.5323 19.884032,14.532248 19.503798,15.271848 19.363122,15.070128 18.941044,14.511429 18.597319,14.501832 18.587581,14.522337 18.573068,14.521783 18.486124,14.700311 18.06908,15.556544 17.852228,15.281097 17.262022,14.569739 17.467272,14.14728 17.910147,13.28651 17.926167,13.306209 18.113259,13.530877 18.200604,13.227844 19.239655,13.255457 19.240946,13.253053 19.245623,13.253118 19.337529,13.067805 19.383768,12.978844 19.594688,13.257975 19.993519,13.263523 20.42001,13.268048 20.421932,13.264703 20.428951,13.264718 20.600429,12.94731 20.682072,12.801036 20.997516,13.265939 21.468189,13.266948 21.575773,13.267087 21.79579,12.903591 21.895064,12.744299" slic3r:type="contour"/>
    <polygon style="fill: white" points="27.762984,14.014174 28.28172,15.05918 27.779624,15.626772 27.447832,15.998132 27.218994,15.500639 26.817598,14.650824 27.137968,14.286834 27.62993,13.731957" slic3r:type="contour"/>
    <polygon style="fill: white" points="30.116975,15.104991 30.42586,15.748346 31.380684,15.700329 31.90401,15.689597 31.943962,15.660715 31.945881,15.660852 32.211015,15.471874 32.277166,15.41328 32.373318,15.679973 32.37834,15.67987 32.382596,15.692014 32.556295,15.704408 32.806867,15.734083 32.813917,16.494491 32.77886,16.804803 32.789798,16.835142 32.796579,16.851415 32.790625,16.856111 32.8135,16.92137 32.762865,16.946382 32.753564,17.028708 32.617312,17.018278 32.460516,17.095729 31.791584,17.588 31.72285,17.377454 31.597645,16.937949 30.384862,16.999275 30.300653,16.342563 30.250661,15.94287 29.653729,16.532122 29.542754,16.645531 29.210239,15.870519 28.935299,15.243483 29.478247,14.715556 29.796432,14.383742" slic3r:type="contour"/>
    <polygon style="fill: white" points="34.883404,17.634452 35.100188,18.656148 34.28106,18.755394 33.863824,18.955651 33.820432,18.38985 33.661532,17.408506 34.085632,17.292663 34.731412,17.052593" slic3r:type="contour"/>
    <polygon style="fill: white" points="36.876956,20.422576 37.270456,20.481084 37.544244,20.520636 37.022652,21.133053 36.834112,21.479386 35.973243,21.46009 35.796636,21.4191 36.015839,20.990292 35.676703,20.962708 35.532807,20.990924 35.892372,20.519216 35.85138,19.889461 36.513155,19.477636 36.887984,19.461582" slic3r:type="contour"/>
    <polygon style="fill: white" points="38.383352,23.532626 38.671828,23.620962 38.219644,24.260521 37.978936,24.5883 37.074535,24.222973 36.871848,24.149294 37.346799,23.46957 37.581056,23.199188" slic3r:type="contour"/>
    <polygon style="fill: white" points="39.165167,27.147209 39.492619,27.276598 39.036395,27.831436 38.707532,28.194822 37.863824,27.745072 37.63712,27.644758 38.135107,27.107908 38.443204,26.807734" slic3r:type="contour"/>
    <polygon style="fill: white" points="39.695684,31.233598 40.038748,31.392372 39.547768,31.935205 39.183391,32.29848 38.362884,31.7882 38.14916,31.67615 38.672876,31.197763 39.021944,30.889966" slic3r:type="contour"/>
    <polygon style="fill: white" points="40.047875,35.732579 40.275344,35.85554 39.58388,36.548543 39.485094,36.639821 39.847316,37.747128 40.175236,38.838876 39.857664,38.873892 39.244188,38.636832 38.554327,37.155951 38.37778,36.823452 38.911898,36.434422 38.450112,36.11476 38.387244,36.076528 39.039808,35.530955 39.306628,35.308672" slic3r:type="contour"/>
  </g></svg>