<svg width="43.790126" height="63.590156" xmlns="http://www.w3.org/2000/svg" xmlns:svg="http://www.w3.org/2000/svg" xmlns:xlink="http://www.w3.org/1999/xlink" xmlns:slic3r="http://slic3r.org/namespaces/slic3r"><g xmlns="http://www.w3.org/2000/svg" slic3r:z="5.37949999999998e-005" id="layer162">
    <polygon style="fill: white" points="22.377639,17.050004 22.963981,17.049643 23.110876,17.049131 23.490514,16.519117 23.579856,16.381811 24.001256,17.034397 24.476266,17.019509 25.014489,16.998837 25.300921,16.635855 25.362906,16.550778 25.60943,16.963383 25.875207,16.940002 26.976336,16.836406 26.746492,17.017933 25.990863,17.601783 26.029257,17.666043 26.034138,17.674926 26.004818,17.711412 25.897953,17.718122 25.507835,17.746539 24.861324,17.849282 24.82981,17.79593 23.987971,17.857253 23.976058,17.873584 23.749488,17.874625 23.221754,17.913068 23.199343,17.877692 22.249978,17.890806 22.24343,17.900522 21.696179,17.898457 21.546698,17.900522 21.544883,17.897886 21.47115,17.897608 20.585941,17.884778 20.568348,17.913098 19.927954,17.877696 19.889049,17.874677 19.814136,17.873592 19.810412,17.868577 18.956034,17.802293 18.9288,17.849336 18.582501,17.797832 18.299298,17.751343 17.78529,17.711466 17.760267,17.680771 17.756014,17.675036 17.800813,17.600749 17.30876,17.210134 16.813792,16.836406 18.185553,16.962775 18.376106,16.646802 18.427226,16.550775 18.778705,16.996959 19.337194,17.015168 19.798675,17.032314 20.128282,16.52656 20.210324,16.381801 20.685509,17.047812 21.29295,17.048254 21.423105,17.048696 21.804417,16.492063 21.895064,16.340262" slic3r:type="contour"/>
  </g></svg>