<svg width="43.790126" height="63.590156" xmlns="http://www.w3.org/2000/svg" xmlns:svg="http://www.w3.org/2000/svg" xmlns:xlink="http://www.w3.org/1999/xlink" xmlns:slic3r="http://slic3r.org/namespaces/slic3r"><g xmlns="http://www.w3.org/2000/svg" slic3r:z="3.965e-006" id="layer11">
    <polygon style="fill: white" points="21.923498,0.391179 22.001238,0.499895 23.028638,0.533181 23.168211,0.537953 23.27217,0.422541 23.291412,0.456632 23.346007,0.554869 24.486525,0.714745 24.576276,0.727377 24.653704,0.662084 24.662907,0.684695 24.690367,0.754434 25.898952,1.120829 25.957856,1.138344 26.019598,1.100856 26.023835,1.117531 26.03672,1.173388 27.134557,1.766902 27.223957,1.813321 27.34339,1.765943 27.346697,1.797462 27.352189,1.879901 27.352728,1.880181 27.355379,1.911378 28.118232,2.590837 28.293089,2.73604 28.586322,2.669394 28.583352,2.751528 28.564785,2.96166 28.567502,2.963916 28.562992,3.034227 28.976601,3.543508 29.268474,3.870013 29.775656,3.819168 29.751527,3.96754 29.67344,4.323028 29.679951,4.330313 29.662553,4.421355 29.819087,4.648199 30.274106,5.245962 30.426566,5.237891 30.957594,5.234247 30.90378,5.436837 30.759064,5.883055 30.77099,5.898722 30.74392,5.992434 31.40944,6.913041 31.684384,6.917231 32.184152,6.948392 32.108247,7.170009 31.924146,7.625033 31.942362,7.650229 31.908426,7.745169 32.791493,8.936951 32.996391,8.953175 33.518704,9.019093 33.444226,9.205291 33.265348,9.576464 33.287238,9.606006 33.245312,9.707627 33.570339,10.152313 34.417199,11.26097 34.839328,11.344543 34.796716,11.435429 34.691176,11.619642 34.702872,11.634955 34.683884,11.673186 35.532027,12.826026 35.849684,13.776638 35.932944,13.801484 35.990864,13.818828 35.890784,13.974125 35.982183,14.878424 36.117598,16.009807 36.498568,16.221854 36.741668,16.352822 36.35366,16.753928 36.221083,16.874424 36.228992,16.9405 35.976524,17.214946 35.925862,17.195085 35.775248,17.814376 35.742291,17.816836 35.762703,17.981342 35.837112,17.943638 35.923794,18.021624 36.001616,17.985387 36.042092,17.969912 36.106928,18.043284 36.089959,18.17112 36.345483,18.401009 36.749919,18.775512 36.447671,18.950168 35.970527,19.20953 35.843325,20.361796 35.926412,20.48503 35.915998,20.525164 36.198304,20.884054 36.040972,20.937993 35.786608,21.023813 35.498224,22.135201 35.417661,22.473024 35.422715,22.479991 35.421622,22.48422 35.492768,22.575342 35.455623,22.58585 35.390491,22.604708 35.172303,23.449114 34.991406,23.691404 35.042595,23.730657 35.059895,23.744426 34.966012,23.785166 34.998255,23.873877 35.09976,24.114752 35.108303,24.474197 35.108915,24.511257 35.142056,24.523356 35.114683,24.550802 35.277939,25.176521 35.316474,25.360995 35.564612,25.409632 35.505279,25.50085 35.391928,25.679519 35.514084,26.085236 35.615619,26.488605 36.211952,26.62167 36.069788,26.839575 35.807217,27.249758 35.813944,27.276482 35.775351,27.340673 35.866615,27.838867 35.879824,27.843522 35.882923,27.876019 36.376747,28.086567 36.818696,28.250668 36.548679,28.564044 36.095899,29.090482 36.099196,29.108482 36.096339,29.11201 36.09452,29.114358 36.07963,29.109396 35.996303,29.206278 36.037009,29.703364 36.08574,29.660726 36.088068,29.662003 36.088139,29.666373 36.088436,29.717002 36.896839,30.201393 37.165836,30.346378 36.775023,30.67267 36.259885,31.119269 36.542675,32.153323 37.121039,32.577195 37.301312,32.697066 36.830604,33.007266 36.728956,33.079712 36.730436,33.087768 36.568697,33.203439 36.705596,34.353416 36.720509,34.72591 37.112459,35.064731 37.249992,35.173256 36.748909,35.435271 36.750348,35.471224 36.578639,35.576159 36.606864,36.593591 36.575866,37.190857 36.901647,37.525867 37.010088,37.628652 36.543629,37.811986 36.541116,37.8604 36.368507,37.946284 36.364204,38.714107 36.277454,39.539091 36.509028,39.831508 36.575624,39.909028 36.229033,39.999565 36.224852,40.039328 36.070687,40.096309 36.05746,40.571875 35.854524,41.854184 35.931276,41.977904 35.949212,42.00448 35.828487,42.018711 35.826095,42.033824 35.757026,42.049923 35.753524,42.191284 35.644652,42.708243 35.137127,43.744888 35.096347,43.822978 35.102275,43.835976 35.097465,43.84311 35.129636,43.90468 35.099852,43.903536 35.054154,43.907343 34.176475,45.208996 34.05955,45.373116 34.06958,45.406884 34.056447,45.421156 34.114476,45.587152 34.040108,45.571436 33.926994,45.561844 33.069631,46.493612 32.874916,46.694878 32.881794,46.740735 32.861972,46.756896 32.911258,47.012564 32.805933,46.970731 32.650686,46.929151 31.825302,47.602059 31.561081,47.806888 31.562094,47.855435 31.538369,47.870173 31.556404,48.187416 31.436588,48.116828 31.265971,48.039393 30.448528,48.547203 30.134371,48.731994 30.13034,48.775879 30.105377,48.787859 30.084558,49.131155 29.966145,49.037795 29.802819,48.933064 28.945356,49.344579 28.613136,49.494208 28.606594,49.528796 28.582788,49.537719 28.529442,49.867876 28.42592,49.764888 28.285727,49.649063 27.321058,50.010639 27.013204,50.117809 27.00592,50.143976 26.988438,50.148736 26.916928,50.426423 26.837666,50.330792 26.72774,50.219723 25.604042,50.525699 25.353314,50.588466 25.346952,50.605844 25.337585,50.607417 25.263344,50.816628 25.208044,50.738284 25.129191,50.642411 23.850351,50.85716 23.660414,50.886213 23.655559,50.896884 23.65293,50.897038 23.58468,51.046468 23.547308,50.985616 23.492966,50.906378 22.122682,50.986387 21.966963,50.994623 21.895064,51.121664 21.866001,51.068107 21.823932,50.993888 20.473034,50.914796 20.301611,50.905738 20.205448,51.046496 20.173651,50.979563 20.135993,50.896987 20.134574,50.896912 20.128339,50.883427 18.889185,50.673939 18.670879,50.640609 18.526784,50.816628 18.488967,50.721647 18.448352,50.606633 18.443176,50.605843 18.43426,50.582638 17.351078,50.285664 17.078918,50.217637 16.873202,50.4264 16.832892,50.298036 16.79422,50.146476 16.78423,50.14398 16.773607,50.108772 15.840884,49.757543 15.526142,49.648015 15.260676,49.867896 15.226289,49.712675 15.197839,49.533769 15.183513,49.528784 15.173774,49.483181 14.339939,49.082596 14.01204,48.934737 13.705569,49.13118 13.68633,48.968132 13.675516,48.78299 13.659786,48.775896 13.653439,48.72045 12.851245,48.222823 12.549566,48.044987 12.233728,48.1874 12.23318,48.035636 12.243233,47.864407 12.228054,47.855459 12.227922,47.795617 11.405366,47.127183 11.162481,46.93833 10.878867,47.01258 10.89412,46.889564 10.921064,46.750617 10.90833,46.740715 10.915262,46.684972 10.038497,45.736803 9.879533,45.571843 9.675651,45.587123 9.697067,45.506924 9.728971,45.415601 9.720542,45.406855 9.731489,45.365953 8.802238,43.997384 8.742123,43.912562 8.660456,43.904652 8.672959,43.874803 8.690895,43.840278 8.687823,43.835943 8.694514,43.820079 8.145461,42.708212 8.065046,42.059059 7.964033,42.033796 7.963429,42.025126 7.867127,42.010183 7.840914,42.004452 7.949047,41.818534 7.903934,41.170507 7.78584,40.125359 7.565253,40.039292 7.564558,40.017755 7.297766,39.938883 7.214502,39.908996 7.546734,39.465486 7.502371,38.090892 7.494058,37.988423 7.248997,37.860388 7.24925,37.836204 6.899872,37.687408 6.78004,37.628652 7.205942,37.168007 7.256757,37.119121 7.272456,35.619798 7.039715,35.471224 7.04113,35.457096 6.677124,35.256639 6.54014,35.173283 6.987458,34.76606 7.121135,34.658477 7.263381,33.238525 7.138355,33.145996 6.652087,32.81547 6.488814,32.697072 6.941699,32.347583 7.301363,32.102931 7.540577,31.128285 6.840842,30.535733 6.624288,30.346356 7.055531,30.073832 7.7017,29.716963 7.70209,29.662004 7.703378,29.661265 7.704418,29.660726 7.753575,29.703544 7.795331,29.207989 7.710473,29.109445 7.695606,29.114357 7.690931,29.108481 7.69457,29.090979 7.258511,28.584595 6.971428,28.250668 7.33754,28.083985 7.908418,27.865885 7.910302,27.843522 7.936669,27.833521 8.026975,27.364445 7.976183,27.276482 7.98236,27.254446 7.936651,27.183989 7.578178,26.62167 7.814964,26.559772 8.202015,26.472058 8.40423,25.703095 8.402719,25.700552 8.404524,25.693047 8.225518,25.409636 8.323676,25.391035 8.484707,25.359529 8.659651,24.631873 8.676799,24.552772 8.64807,24.523355 8.681433,24.513234 8.690369,24.11475 8.820604,23.782464 8.750274,23.752598 8.730234,23.744426 8.804434,23.68871 8.750399,23.610739 8.617823,23.449122 8.416952,22.710579 8.393916,22.603375 8.297356,22.575374 8.322729,22.546946 8.369187,22.488303 8.367408,22.48002 8.368874,22.4781 8.07361,21.412387 7.983902,21.016036 7.591822,20.884034 7.698005,20.761297 7.875834,20.538567 7.863713,20.485014 7.922939,20.401468 7.856331,19.977802 7.785261,19.183704 7.48822,19.015365 7.040206,18.775522 7.291726,18.551158 7.695453,18.18024 7.683196,18.043282 7.724737,17.997588 7.748033,17.969912 7.867121,18.022524 7.952954,17.943666 8.020952,17.986523 8.036396,17.887606 7.83606,17.205015 7.813601,17.214974 7.732672,17.117148 7.561134,16.94052 7.568248,16.844219 7.241003,16.51939 7.048456,16.352822 7.537009,16.078764 7.628473,16.028907 7.674868,15.400816 7.893001,13.955422 7.884496,13.944054 7.885867,13.939375 7.835511,13.864782 7.799262,13.818829 7.932879,13.778981 7.98283,13.60855 8.258044,12.826152 8.86157,11.95382 9.098032,11.655536 9.087292,11.634998 9.111263,11.601148 8.95081,11.344536 9.062009,11.32787 9.340235,11.277815 9.962217,10.399508 10.532088,9.673529 10.502838,9.6059 10.542593,9.548835 10.514576,9.483175 10.271441,9.019072 10.48865,9.004023 10.95641,8.954834 11.140386,8.690749 11.871377,7.713769 11.847783,7.650229 11.877766,7.605578 11.803271,7.400117 11.605984,6.948393 11.84733,6.947512 12.333281,6.927217 12.375124,6.864902 13.035278,5.95226 13.01915,5.89878 13.04517,5.861891 13.003614,5.71561 12.832533,5.234248 13.03729,5.24766 13.470364,5.259089 13.622278,5.043718 14.121093,4.383979 14.110169,4.330237 14.134954,4.300475 14.014467,3.819166 14.154925,3.842003 14.483838,3.88152 14.934392,3.340475 15.226168,3.011105 15.222608,2.963965 15.236509,2.951769 15.203774,2.669424 15.277953,2.691112 15.477318,2.740481 16.319838,2.001247 16.435546,1.904614 16.437395,1.880251 16.441387,1.878098 16.446739,1.765947 16.474605,1.778585 16.560182,1.81405 17.695027,1.202186 17.753766,1.171668 17.756328,1.160867 17.757449,1.160527 17.770556,1.100852 17.785064,1.110069 17.830824,1.138268 19.021472,0.777069 19.100463,0.753595 19.104782,0.742726 19.105184,0.74267 19.136422,0.662083 19.155423,0.678131 19.213868,0.727441 20.321663,0.572204 20.444954,0.554846 20.517954,0.422541 20.544949,0.451895 20.623247,0.538232 21.634508,0.505558 21.790016,0.500234 21.895064,0.352099" slic3r:type="contour"/>
    <polygon style="fill: black" points="20.986732,1.9652 20.74752,2.420747 20.597173,2.247239 20.412103,2.030982 19.801385,2.147931 19.628258,2.615003 19.46027,2.466129 19.252175,2.278535 18.649912,2.479988 18.546548,2.962539 18.356159,2.838387 18.117234,2.678787 17.538587,2.965774 17.50909,3.482827 17.284319,3.38283 16.999271,3.251081 16.458269,3.618404 16.512314,4.205985 16.233632,4.132089 15.8793,4.028901 15.351345,4.502082 15.398532,4.697828 15.50261,5.179707 15.165382,5.137482 14.732971,5.06865 14.194703,5.681851 14.318374,6.044656 14.442829,6.44634 14.055732,6.438984 13.55725,6.407474 12.973259,7.225599 13.168641,7.693564 13.300101,8.044518 12.885172,8.07001 12.369015,8.072096 12.340447,8.112117 12.327853,8.112799 11.670964,9.211364 11.892184,9.661764 12.041525,10.006366 11.63535,10.057774 11.146371,10.088682 11.120623,10.131743 11.109439,10.133038 10.443908,11.547305 10.585316,11.793857 10.796286,12.199192 10.475242,12.259628 10.091275,12.312249 9.934292,12.815461 9.508565,14.183483 9.711909,14.486223 9.574705,14.521108 9.422143,14.558501 9.360183,15.54265 8.751491,16.402661 8.911388,16.557596 9.022502,16.649319 8.524339,16.864066 8.502848,16.875789 8.037212,17.771488 8.139691,18.06136 8.582335,18.340344 9.012639,18.521686 8.845019,18.638917 8.591255,18.882488 9.390505,19.850563 9.396188,20.208024 9.467741,20.22632 9.530062,20.23671 9.415462,20.39048 9.529068,21.015394 9.639907,21.703103 10.040333,21.800704 10.307741,21.851212 9.982678,22.297319 9.791958,22.583839 9.854825,22.936618 10.580427,23.315313 10.91627,23.47375 10.547103,23.797964 10.077526,24.218904 10.545439,24.735964 10.774467,24.981956 10.186875,25.212922 9.877476,25.334732 9.821454,25.645117 10.064146,26.055899 10.166859,26.235852 9.683031,26.322313 9.616636,26.610435 9.470781,27.340527 9.487925,27.36866 9.496714,27.384155 9.459377,27.391016 9.444093,27.507184 8.914358,27.878312 8.556703,28.245104 8.962832,28.70792 8.745614,28.798843 8.090207,29.048272 7.784038,29.783574 8.275831,30.19706 8.65377,30.507964 8.327737,30.687383 7.70977,31.036528 7.671056,31.059784 7.715827,32.109438 8.179021,32.437165 8.527234,32.662888 8.169843,32.894819 7.74753,33.193001 7.747728,33.220532 7.702457,33.253181 7.804469,34.528082 8.227026,34.778724 8.582075,34.961072 8.238223,35.21978 7.856628,35.541805 7.857867,35.587024 7.827107,35.612985 8.006474,36.866017 8.43308,37.066739 8.816457,37.21474 8.503879,37.492388 8.118774,37.882154 8.123382,37.937967 8.116514,37.944837 8.37968,39.004419 8.817817,39.152832 9.223773,39.253812 8.938511,39.564268 8.591448,39.998432 8.599775,40.044907 8.932341,40.942585 9.369389,41.029056 9.791729,41.071675 9.537721,41.421024 9.244866,41.891042 9.646635,42.667677 10.074783,42.686096 10.507876,42.660296 10.294527,43.050756 10.06774,43.546319 10.507127,44.171051 10.922715,44.116587 11.360281,44.01348 11.200812,44.440119 11.042875,44.966523 11.501446,45.44681 11.91305,45.316616 12.345397,45.133611 12.249396,45.580851 12.161454,46.155986 12.629502,46.523507 13.037201,46.317955 13.45695,46.059128 13.422726,46.506072 13.407693,47.144515 13.876581,47.423636 14.280674,47.144271 14.684897,46.816003 14.702919,47.240827 14.766878,47.961458 15.222428,48.16857 15.625461,47.817124 16.01587,47.426416 16.070823,47.809088 16.222771,48.633261 16.646317,48.781354 17.044082,48.359575 17.426742,47.91028 17.501994,48.23416 17.753643,49.167779 18.128214,49.261453 18.517245,48.764948 18.889924,48.260456 18.975535,48.525007 19.338427,49.54613 19.661012,49.595173 20.029847,49.026576 20.385452,48.473596 20.477347,48.691851 20.94868,49.750131 21.235701,49.765138 21.567228,49.136267 21.895064,48.545936 21.99758,48.740108 22.553413,49.765385 22.839213,49.750456 23.118698,49.084243 23.404672,48.473591 23.532429,48.670587 24.130255,49.596442 24.446603,49.548456 24.662873,48.875552 24.900204,48.260484 25.067968,48.474936 25.667791,49.264415 26.026923,49.174771 26.177889,48.51722 26.363366,47.910276 26.5829,48.143648 27.157274,48.785731 27.553244,48.647312 27.641771,48.01756 27.774256,47.426416 28.049637,47.667075 28.589801,48.172929 29.005422,47.983467 29.028944,47.391344 29.10523,46.815996 29.430874,47.04116 29.943141,47.426402 30.363425,47.174875 30.31972,46.616559 30.333178,46.059124 30.700703,46.243595 31.197477,46.522539 31.61185,46.194444 31.498898,45.66748 31.444728,45.133628 31.84181,45.257328 32.332137,45.439688 32.736094,45.011449 32.552399,44.515147 32.429841,44.013471 32.841093,44.064103 33.331352,44.155705 33.686284,43.642321 33.71504,43.585511 33.465428,43.121224 33.282236,42.660279 33.691119,42.638151 34.191197,42.644837 34.532583,41.970412 34.525008,41.957356 34.538627,41.919614 34.231608,41.48836 33.998396,41.071644 34.395003,40.987828 34.900991,40.915427 35.202622,40.079541 35.187744,40.059663 35.196288,40.02413 34.839028,39.625632 34.566356,39.2538 34.947584,39.118939 35.448475,38.975329 35.691472,37.964748 35.666724,37.937988 35.67131,37.904504 35.274415,37.542219 34.973652,37.21474 35.341256,37.035859 35.817752,36.835391 35.982524,35.632463 35.932228,35.58704 35.934138,35.561045 35.522532,35.243228 35.208052,34.961088 35.56696,34.742232 36.01216,34.499326 36.102767,33.266342 36.042415,33.220546 36.042982,33.205044 35.60336,32.91433 35.262892,32.662888 35.589948,32.427149 36.083566,32.095713 36.121411,31.061206 35.546015,30.742911 35.136356,30.507952 35.386888,30.296307 36.005078,29.783579 35.684901,29.031294 35.373752,28.902594 34.827296,28.707926 34.952863,28.575976 35.201402,28.299203 34.346036,27.507158 34.328248,27.389674 34.293416,27.384126 34.318768,27.343253 34.291363,27.220987 34.096594,26.317696 33.820376,26.268532 33.623276,26.235844 33.946751,25.692408 33.967852,25.655924 33.910103,25.333881 33.330423,25.106001 33.015668,24.981956 33.359557,24.600256 33.710971,24.218646 33.159055,23.732289 32.873872,23.473736 33.33631,23.230191 33.940595,22.932728 33.999882,22.602911 33.641036,22.099794 33.482398,21.851212 34.186365,21.676516 34.297892,21.109965 34.382059,20.419686 34.297615,20.300385 34.260068,20.23671 34.407379,20.19746 34.418408,20.053404 34.399624,19.850564 34.889603,19.53603 35.245701,19.006475 34.777488,18.521686 35.0335,18.350853 35.681424,18.02253 35.753255,17.760504 35.437143,16.98618 34.934163,16.745131 34.767623,16.649343 35.049897,16.364647 34.791195,15.964051 34.429944,15.542665 34.426268,14.981495 34.383736,14.560598 34.07822,14.486223 34.169375,14.351946 34.281578,14.185381 34.025655,13.366865 33.692564,12.295087 33.512324,12.265113 32.99383,12.199192 33.167893,11.906833 33.339857,11.587182 33.297225,11.502481 32.634383,10.074455 32.148972,10.026065 31.748594,10.006382 31.934812,9.64659 32.115736,9.246268 31.411598,8.060887 30.874099,8.040582 30.490027,8.044535 30.651801,7.675111 30.817419,7.248497 30.210901,6.398632 29.768595,6.414818 29.347298,6.446339 29.472224,6.09499 29.598237,5.700464 29.03655,5.061712 28.769436,5.098663 28.28752,5.179706 28.367312,4.864271 28.444091,4.520455 27.890302,4.025195 27.816172,4.045585 27.277822,4.206003 27.312528,3.932243 27.341452,3.638908 26.772768,3.253508 26.281038,3.482826 26.27583,3.244722 26.262787,2.986167 25.656142,2.685423 25.243588,2.962547 25.202162,2.742612 25.150047,2.493514 25.094261,2.475874 24.525811,2.285586 24.161868,2.615006 24.087167,2.404141 23.995983,2.155953 23.950794,2.147818 23.370398,2.036529 23.042598,2.420748 22.936452,2.216543 22.806516,1.968594 22.187235,1.93038 21.895064,2.362369 21.762604,2.168778 21.599004,1.927457" slic3r:type="hole"/>
  </g></svg>