<svg width="43.790126" height="63.590156" xmlns="http://www.w3.org/2000/svg" xmlns:svg="http://www.w3.org/2000/svg" xmlns:xlink="http://www.w3.org/1999/xlink" xmlns:slic3r="http://slic3r.org/namespaces/slic3r"><g xmlns="http://www.w3.org/2000/svg" slic3r:z="4.95049999999998e-005" id="layer149">
    <polygon style="fill: white" points="35.547246,19.062379 35.69874,19.16159 36.031068,19.304862 35.652992,19.781555 35.331791,20.007406 34.385824,19.620165 33.801844,19.662448 33.899559,19.32529 34.118395,18.748429 34.113316,18.725916 34.112048,18.7221 34.120171,18.724843 34.155182,18.735497 34.54155,18.781402 35.323371,18.567852 35.40968,18.535764" slic3r:type="contour"/>
    <polygon style="fill: white" points="33.354317,17.579483 33.540177,18.109738 32.648818,18.550034 32.465662,18.68482 32.207431,17.893793 32.03174,17.277068 32.646512,16.952266 33.009414,16.689926" slic3r:type="contour"/>
    <polygon style="fill: white" points="30.572524,15.714802 31.079826,16.855718 30.63215,17.221959 30.18439,17.65633 29.98269,17.246095 29.582807,16.280837 29.865816,16.064706 30.468012,15.492213" slic3r:type="contour"/>
    <polygon style="fill: white" points="26.682128,15.090585 26.795335,15.314492 27.625481,15.252664 27.72866,15.245337 28.064877,14.863342 28.164232,14.751281 28.371278,15.190439 28.712936,15.156747 29.290159,15.103704 29.369086,15.53807 29.490153,16.347068 28.461297,16.449627 28.45155,16.460647 28.450465,16.460722 27.972574,16.988674 27.898106,16.851878 27.739748,16.521555 27.738642,16.521665 27.733519,16.51053 26.378854,16.60464 26.295085,16.332318 26.149074,16.515386 26.12833,16.54029 25.705334,15.671575 25.491356,15.232262 26.058857,14.536302 26.282796,14.269171" slic3r:type="contour"/>
    <polygon style="fill: white" points="22.175583,14.18916 22.553061,14.799569 22.938139,14.225398 23.242976,13.782793 23.52768,14.295249 23.913241,14.972567 24.389288,14.331201 24.676344,13.956947 24.997071,14.581864 25.324046,15.199262 24.678885,16.104637 24.57251,16.244829 24.177857,15.490688 23.91459,14.97852 23.338091,15.875388 23.19448,16.086763 22.807621,15.398556 22.554748,14.942934 22.043069,15.797768 21.895064,16.040844 21.505301,15.385406 21.235478,14.942067 20.730458,15.843819 20.595624,16.086771 20.191163,15.444019 19.875591,14.97834 19.313314,16.058681 19.217614,16.244828 18.756553,15.583695 18.466102,15.19923 18.884824,14.383577 19.113804,13.956942 19.460896,14.425746 19.876843,14.972509 20.276046,14.254449 20.547164,13.782792 20.844068,14.2261 21.2364,14.799797 21.600427,14.20378 21.895064,13.729652" slic3r:type="contour"/>
    <polygon style="fill: white" points="17.948739,14.811979 18.298781,15.232327 17.680204,16.502498 17.661788,16.540309 17.495438,16.329008 17.442458,16.501589 17.411342,16.604633 16.494462,16.541852 16.056364,16.511078 16.051455,16.521659 16.042817,16.520747 15.817561,16.988658 15.712844,16.882708 15.313191,16.444425 14.299743,16.347028 14.424741,15.619963 14.499998,15.103701 15.413199,15.191542 15.552796,14.894876 15.625859,14.751298 16.061779,15.246915 16.9899,15.315034 17.340429,14.593543 17.507322,14.269176" slic3r:type="contour"/>
    <polygon style="fill: white" points="13.450839,15.589578 14.207367,16.28079 13.97025,16.783293 13.605754,17.65632 13.253618,17.372548 12.710296,16.85574 12.952418,16.345899 13.32214,15.49221" slic3r:type="contour"/>
    <polygon style="fill: white" points="11.279123,16.948669 11.758383,17.27711 11.428546,18.322064 11.324434,18.684826 10.508611,18.290258 10.24995,18.109723 10.613376,17.195126 10.780706,16.689937" slic3r:type="contour"/>
    <polygon style="fill: white" points="9.291651,18.779732 9.308535,18.785791 9.63323,18.737034 9.671674,18.724048 9.678079,18.7221 9.677014,18.726816 9.669783,18.748614 9.782086,19.140288 9.988241,19.662464 9.743204,19.666478 9.361594,19.638179 8.95208,19.829335 8.458301,20.007448 7.933442,19.402912 7.759057,19.304874 8.253741,19.032373 8.360253,18.644006 8.380446,18.535764" slic3r:type="contour"/>
  </g></svg>