<svg width="43.790126" height="63.590156" xmlns="http://www.w3.org/2000/svg" xmlns:svg="http://www.w3.org/2000/svg" xmlns:xlink="http://www.w3.org/1999/xlink" xmlns:slic3r="http://slic3r.org/namespaces/slic3r"><g xmlns="http://www.w3.org/2000/svg" slic3r:z="2.77249999999999e-005" id="layer83">
    <polygon style="fill: white" points="6.164278,56.669947 6.095289,57.468903 7.029304,57.846259 7.728372,57.534344 7.732814,57.643204 7.765946,58.015792 9.358264,58.407664 9.530802,58.555147 9.574716,58.531811 9.58817,58.52406 9.602072,58.616589 10.078811,58.951512 11.120719,59.692905 11.539734,59.428128 11.653856,59.349108 11.830668,60.11368 11.859997,60.218953 11.895351,60.244111 11.902,60.267067 12.775516,60.799868 13.599713,60.216679 13.796006,60.061716 13.982123,60.707988 14.150477,61.192923 13.416562,61.790088 13.191893,61.95652 12.942137,61.215508 12.840098,60.86081 11.797793,60.719023 11.686642,60.791244 11.567775,60.769459 11.072931,61.128127 10.947677,61.210008 10.784803,60.625972 10.09217,60.49904 8.744112,60.328196 8.743707,60.328415 8.743533,60.32837 8.740421,60.33004 7.762024,59.428044 7.254782,59.01721 7.240943,59.023611 7.226245,59.00603 6.684434,59.222144 6.670394,59.063684 6.647869,58.525652 6.610499,58.495384 6.592886,58.285641 6.003556,57.668605 5.599183,57.773019 4.879083,57.918544 4.903462,57.597672 5.01459,56.7134 5.573762,56.594211 6.19455,56.433399" slic3r:type="contour"/>
    <polygon style="fill: white" points="4.955395,55.566444 4.707041,56.376956 4.041807,56.405815 3.482113,56.406512 3.614153,55.949779 3.85722,55.252895 4.575201,55.245024 5.073691,55.217296" slic3r:type="contour"/>
    <polygon style="fill: white" points="3.893758,53.853687 4.279157,53.90586 4.043508,54.325056 3.689832,54.967488 2.881127,54.842143 2.4866,54.77338 2.758886,54.251395 3.074289,53.709367" slic3r:type="contour"/>
    <polygon style="fill: white" points="2.8424,49.055767 3.055439,49.170468 2.729628,49.596511 2.98195,49.823023 3.202069,50.009984 2.928442,50.445824 2.676467,50.873891 3.106548,51.097696 3.451319,51.237188 3.056528,51.816207 2.831415,52.094591 2.832251,52.21808 3.448307,52.422527 3.756112,52.516556 3.425005,52.945148 3.00521,53.451824 2.118218,53.177452 1.851275,53.105612 2.230754,52.601859 2.448188,52.327051 2.305571,52.10071 1.750148,51.797248 1.515951,51.717456 1.830162,51.253331 2.075901,50.962154 1.584942,50.515032 1.199039,50.156216 1.432683,49.789872 1.211029,49.6593 1.101287,49.599356 1.562416,49.022944 1.949667,48.548772" slic3r:type="contour"/>
    <polygon style="fill: white" points="2.505098,45.917203 2.615239,45.987716 2.430756,46.211633 2.582338,46.355152 2.671688,46.444312 2.211392,47.123676 1.827251,47.639136 0.720383,46.550731 0.663776,46.496067 0.728223,46.411552 0.723692,46.408351 0.727129,46.403626 0.672497,46.367712 0.645425,46.347728 1.185005,45.647256 1.528351,45.23044" slic3r:type="contour"/>
    <polygon style="fill: white" points="1.593681,41.248736 2.048553,41.924822 2.216232,42.068883 2.243441,42.088276 2.192183,42.142815 2.232916,42.185535 2.252638,42.20978 1.707726,43.052736 1.364417,43.451668 0.884713,42.898168 0.26419,42.358924 0.291383,42.324935 0.340908,42.270708 0.336357,42.265455 0.3514,42.245129 0.249473,42.1255 0.306304,42.055372 1.183749,40.770464" slic3r:type="contour"/>
    <polygon style="fill: white" points="1.702957,36.381312 2.120268,37.423683 2.038752,37.557232 1.880366,37.716029 1.924655,37.764504 1.9075,37.791749 2.107573,37.946532 2.022431,38.019856 1.124026,39.033788 0.673962,38.691172 0.116801,38.0809 0.231023,37.943263 0.429951,37.761468 0.407117,37.724772 0.50887,37.595688 0.144688,36.973343 0.450315,36.643327 1.212477,35.536787" slic3r:type="contour"/>
    <polygon style="fill: white" points="2.89884,29.818709 3.183462,30.063326 2.495693,30.418432 2.462033,30.442723 2.466263,30.677086 2.354601,30.766447 2.556747,31.422643 2.677681,32.261774 2.359892,32.671332 1.839735,33.039135 1.995422,33.254436 1.89111,33.396244 2.420294,33.843728 2.137602,34.034384 1.29275,34.81702 0.731872,34.322812 0.403678,33.847636 0.708822,33.527355 1.142478,33.213793 1.102835,33.092898 1.320567,32.871243 1.102535,31.686468 0.890286,30.89972 1.398771,30.523925 1.287264,30.350738 1.343971,30.286746 1.16972,30.11736 1.09747,29.986548 1.764348,29.415472 2.390468,29.065554" slic3r:type="contour"/>
    <polygon style="fill: white" points="19.237893,3.461766 19.258806,3.432463 19.381625,3.644657 19.454572,3.737478 19.788118,3.579278 19.850129,3.759226 19.954056,3.645927 19.985793,3.775703 20.010007,3.813707 20.065468,3.808727 20.118212,3.811788 20.192692,3.708793 20.202511,3.80398 20.632492,3.770804 20.633306,3.769546 20.633731,3.77082 20.651406,3.770237 20.662727,3.798836 20.652078,3.818415 20.854359,4.345334 21.190122,3.831741 21.218668,3.786615 21.469847,4.26073 21.535838,4.375383 21.864502,3.836416 21.895064,3.786213 22.182276,4.256264 22.248666,4.365302 22.545475,3.831543 22.57146,3.786615 22.918594,4.297375 23.148958,3.78714 23.138722,3.770238 23.156123,3.770924 23.156822,3.769547 23.157947,3.771121 23.55001,3.818624 23.59746,3.708774 23.656853,3.772561 23.723093,3.863336 23.836084,3.645926 23.973762,3.798272 24.015471,3.843858 24.08571,3.800681 24.002038,3.579278 24.147788,3.807075 24.274781,3.856398 24.541264,3.416083 24.599048,3.402177 24.659825,3.631544 24.824115,3.88618 24.882854,3.911781 25.305785,3.800862 25.500282,3.544481 25.470724,3.649621 25.537193,3.740172 25.65044,3.710473 25.619232,3.851937 25.8845,4.21332 25.904173,4.323995 26.172781,4.184723 25.940302,4.374352 25.947079,4.547017 26.00367,4.672695 26.421086,4.670347 26.355007,4.952924 26.490958,4.99561 26.628302,4.938073 26.335652,5.180334 26.299464,5.587618 26.641362,5.493614 26.964628,5.444399 26.93952,5.72863 27.071055,5.753921 27.274837,5.682112 27.08507,5.902143 27.080455,6.254517 27.21071,6.183679 27.626728,6.004984 27.660154,6.443624 27.879476,6.470212 28.319716,6.400207 28.242534,6.512164 28.214418,6.766318 28.499888,6.545465 28.585185,7.163621 28.940983,7.217012 29.41364,7.263422 29.420143,7.254302 29.46421,7.262126 29.488993,7.239993 29.5555,7.178177 29.574224,7.281658 29.647648,7.294695 29.86203,7.334726 29.618327,7.5254 29.619779,7.533425 29.605508,7.551187 29.634225,7.788192 29.664978,8.071089 30.024721,8.154997 30.516522,8.287442 30.550308,8.241663 30.668898,8.062857 30.692915,8.334945 30.693507,8.335105 30.694134,8.342625 30.810498,8.376424 31.26834,8.541534 30.717862,8.627348 30.734503,8.827023 30.751774,9.052371 31.025892,9.132518 31.606405,9.332791 31.63697,9.28242 31.73867,9.045779 31.753996,9.388819 31.8595,9.424348 32.638825,9.750024 32.672106,9.67979 32.671851,9.765363 32.715524,9.781043 33.351123,10.056971 33.529444,9.757791 33.523269,10.140125 33.979395,10.306996 33.880724,9.925532 33.822316,9.606141 34.346405,9.832923 34.373216,9.811247 34.712604,9.583078 34.797387,9.935993 34.868767,9.833916 35.26162,9.402993 35.427216,9.564186 35.734697,10.152718 35.915252,10.072029 36.439512,9.901779 36.479624,10.204202 36.512911,10.659148 36.677311,10.637057 37.225388,10.615687 37.176703,10.895619 37.079802,11.324191 37.261856,11.337278 37.801596,11.431126 37.701291,11.690359 37.518936,12.090194 37.704063,12.13839 38.213672,12.318825 38.071887,12.547712 37.821,12.915173 37.993851,12.992842 38.476527,13.242664 38.310551,13.433639 37.97537,13.793992 38.145552,13.898731 38.612544,14.214597 38.439524,14.370043 38.001322,14.735635 38.159967,14.853341 38.644544,15.233844 38.47948,15.365941 37.755954,15.87729 38.105167,16.124863 38.621848,16.408512 38.482619,16.522117 38.358713,16.605138 38.666948,16.821014 38.342523,17.287516 38.020277,17.635292 38.348916,17.875094 38.837264,18.151294 38.760536,18.239714 38.8798,18.295036 38.83122,18.379101 38.605009,18.701012 38.569799,18.80923 38.461657,19.221411 38.53426,19.266062 38.53335,19.428687 38.824088,19.57278 39.341964,19.781868 39.026208,20.157375 38.772847,20.517595 38.903324,20.614974 38.725584,20.924603 39.747992,21.474766 39.961128,21.562504 39.651398,21.829057 39.759984,21.957524 39.640849,22.149341 39.98646,22.341598 40.489032,23.039383 40.585772,23.532375 40.588374,23.659313 40.619904,23.677376 40.626607,23.716546 40.74892,23.769104 40.702771,23.806722 40.654721,23.880833 40.882604,25.212498 40.862753,25.958243 41.018916,26.053202 41.042463,26.266236 41.714396,26.594978 41.46074,26.802265 41.067163,27.404414 41.02974,27.749144 40.694138,27.476358 40.344316,27.318076 39.598788,26.72964 39.614903,26.698056 39.669381,26.643411 39.652656,26.629816 39.706098,26.523811 39.496959,26.433038 39.379671,24.492968 39.187156,24.351748 39.177903,24.265215 38.871464,24.141114 38.591516,23.943796 38.867292,23.411194 39.065513,23.214151 38.994728,22.552153 38.790044,22.414356 38.779031,22.306155 38.293491,22.108475 37.852216,21.80292 38.039568,21.446541 38.568151,20.920966 38.43016,20.782354 38.470007,20.723222 37.871547,20.469689 37.316904,20.111872 37.424504,19.900201 37.676684,19.626607 37.628952,19.571244 37.671143,19.513296 37.101196,18.913012 36.934864,18.75872 36.949142,18.66515 36.910535,18.639858 36.963163,18.573267 36.963828,18.568908 37.023792,18.494689 37.501332,17.592077 37.08766,17.254532 36.710632,17.092976 36.969139,16.784056 37.073875,16.679104 36.634792,16.39659 36.876983,16.156371 37.469894,15.837148 37.474675,15.77291 37.165304,15.56661 36.650196,15.216727 36.97316,14.959713 37.306312,14.726744 37.123583,14.618719 36.622599,14.348144 36.937956,14.099341 37.19823,13.888903 37.043199,13.820929 36.523215,13.625681 36.802028,13.350438 36.998665,13.145084 36.894836,13.119873 36.34578,12.999587 36.570123,12.680684 36.715194,12.477026 36.083864,12.4342 36.241723,12.052029 36.316945,11.898759 35.752532,11.962155 35.822658,11.475297 35.415552,11.639619 35.380521,11.452102 35.310045,11.44172 35.282245,11.495485 35.294444,11.614459 34.868049,11.464608 34.989676,11.955129 34.46876,11.814577 34.366346,11.781372 34.372136,11.856515 34.412136,12.401698 34.065343,12.235877 34.002549,12.206138 33.754704,12.623452 33.651427,12.495475 33.54115,12.410873 33.231317,12.341036 33.01422,12.592254 32.924233,12.346436 32.875391,12.200214 32.652322,12.11498 32.646579,12.100204 32.399645,12.027446 32.07064,12.321896 32.000849,12.046546 31.967733,11.900185 31.863489,11.869469 31.862456,11.864503 31.781117,11.844896 31.28294,11.729827 31.049886,11.920843 31.012215,11.747064 30.995983,11.669893 30.021752,11.514469 29.997012,11.510478 29.990542,11.516185 29.988873,11.509729 29.964164,11.508043 29.956078,11.47748 29.9351,11.297582 29.769103,10.642783 29.268593,10.560518 28.897816,10.957072 28.81629,10.56008 28.801691,10.483776 28.77824,10.479922 28.778085,10.478684 27.918296,10.351747 28.319487,9.932296 28.560814,9.719389 28.223433,9.649572 28.221607,9.65263 28.118841,9.630304 27.747137,10.147586 27.68519,9.622246 27.673238,9.535715 27.665235,9.534058 27.665006,9.531705 27.304528,9.453389 27.503319,9.305443 27.628389,9.211029 27.620924,9.156981 27.628149,9.152824 27.61922,9.061041 27.59311,8.83839 26.94569,8.702619 27.300508,8.437198 27.557236,8.234639 26.519875,8.105126 26.556202,7.736746 26.533594,7.578178 26.05654,7.525544 26.243564,7.159481 26.349,6.946278 26.032349,6.879108 25.92116,6.889651 25.565114,7.066279 25.618838,6.883773 25.617608,6.79113 25.362516,6.737019 25.47677,6.509982 25.610712,6.27151 25.607517,6.030774 25.165383,5.966594 24.915781,5.885469 24.809256,5.911101 24.839519,5.860684 24.779086,5.841042 24.806242,5.790459 24.855894,5.71974 24.886178,5.531683 24.751575,5.471004 24.712094,5.669299 24.688035,5.811449 24.675782,5.883845 24.321765,5.682045 24.28321,5.698772 24.204965,5.740046 24.138048,5.905576 24.095044,6.023474 23.915456,5.849728 23.817121,5.862047 23.503737,5.910525 23.456089,6.001996 23.411658,6.093846 23.30021,5.94201 23.28517,5.944337 23.278266,5.934354 23.177194,5.939398 22.756925,5.953532 22.712601,6.028864 22.66412,6.115211 22.563356,5.960041 22.552415,5.960409 22.549057,5.95503 22.43782,5.956142 21.998148,5.957301 21.997829,5.957844 21.992155,5.957787 21.947016,6.031095 21.895064,6.115393 21.798045,5.957829 21.792298,5.957844 21.791089,5.955785 21.677788,5.954656 21.242189,5.953483 21.237749,5.960397 21.228219,5.959923 21.181356,6.032011 21.126002,6.115226 21.028517,5.949984 20.923154,5.94474 20.514779,5.930961 20.504942,5.944323 20.490297,5.942486 20.438934,6.012435 20.378493,6.093829 20.285858,5.91684 20.204227,5.906599 19.852875,5.853117 19.837308,5.87309 19.834524,5.871866 19.770524,5.933467 19.69509,6.023493 19.589803,5.764246 19.479438,5.715711 19.397902,5.675208 19.250816,5.752814 19.11439,5.883841 19.103326,5.828754 19.036423,5.495648 18.959636,5.457507 18.947518,5.489495 18.904008,5.514114 18.953104,5.767702 19.011041,5.841068 18.968409,5.846756 18.980872,5.911131 18.901824,5.929462 18.749435,5.923628 18.624734,5.966619 18.20925,6.058727 18.214126,6.37138 18.427582,6.737032 18.220168,6.758817 18.224964,7.066311 17.89283,7.066133 17.436052,6.924186 17.52441,7.099134 17.73359,7.525538 17.377587,7.537953 17.321552,7.545616 17.317312,7.592259 17.264584,8.108023 16.515652,8.157572 16.209973,8.20477 16.844418,8.702666 16.386245,8.784483 16.206041,8.824616 16.168106,9.156485 16.169248,9.157148 16.162536,9.20982 16.485588,9.453411 16.226171,9.509378 16.125253,9.531372 16.124943,9.53408 16.121108,9.534913 16.043045,10.147485 15.750348,9.776964 15.651623,9.636853 15.510805,9.667429 15.208035,9.728693 15.70137,10.200165 15.871795,10.351764 15.209391,10.460325 14.983132,10.491086 14.89231,10.957073 14.601755,10.666983 14.512193,10.570972 14.475884,10.577589 14.019154,10.650059 13.823826,11.420557 13.825965,11.508042 13.801312,11.509368 13.799584,11.516185 13.792498,11.510539 13.013223,11.633192 12.793241,11.668886 12.74027,11.92083 12.578985,11.804198 12.496069,11.737276 12.187715,11.81304 11.883613,11.882657 11.813547,11.904156 11.719449,12.321898 11.470757,12.131696 11.368018,12.041067 11.139718,12.10848 11.137862,12.114967 10.913579,12.177335 10.77592,12.592262 10.571591,12.382462 10.499064,12.298974 10.37898,12.341378 10.03542,12.623459 9.977467,12.461367 9.871306,12.284569 9.784453,12.208959 9.377952,12.401677 9.406534,12.04505 9.427744,11.757292 9.344902,11.78158 8.800439,11.955125 8.943746,11.390966 8.495693,11.614472 8.516015,11.510277 8.439022,11.296146 8.354217,11.313666 8.374545,11.639622 8.020408,11.411447 7.86994,11.347329 7.899203,11.509586 8.037612,11.962139 7.67445,11.870368 7.411311,11.835826 7.469119,11.969036 7.706245,12.4342 7.339521,12.439402 7.057016,12.456218 7.124945,12.552449 7.444362,12.999586 7.078507,13.091371 6.813778,13.150714 6.885532,13.222653 7.266911,13.625681 6.907387,13.7909 6.617539,13.903461 6.738109,13.999206 7.167527,14.348157 6.83062,14.553287 6.476717,14.747804 6.674729,14.901224 7.139931,15.216728 6.840498,15.415129 6.325161,15.764068 6.336312,15.903182 6.647885,16.192967 7.155332,16.396599 6.940682,16.527915 6.679828,16.694758 7.079496,17.092966 6.503619,17.547172 6.325022,17.649202 6.55699,18.071921 6.78365,18.52125 6.826254,18.568818 6.831043,18.588732 6.863664,18.625782 6.879596,18.639839 6.853309,18.656537 6.855241,18.758832 6.420491,19.380336 6.136032,19.618927 6.068015,19.747749 6.47325,20.11181 6.194592,20.226744 5.307363,20.71473 5.359963,20.782442 5.238207,20.975618 5.600609,21.538274 5.937919,21.802926 5.465779,21.988814 5.045939,22.22843 5.000081,22.414356 4.855326,22.492023 4.823551,23.379924 4.799358,23.486525 4.981627,23.771646 5.198606,23.943798 4.645587,24.164101 4.603007,24.351724 4.501765,24.411584 4.513959,24.969012 4.293168,26.433036 4.20425,26.538177 4.10644,26.580384 4.137469,26.629813 4.108625,26.660662 4.191339,26.72964 4.145868,26.749704 3.841734,26.946115 3.340199,27.48253 2.760386,27.749126 2.761911,27.510184 2.368108,27.128034 2.075742,26.594956 2.396712,26.35434 2.770448,26.172254 2.771208,26.053188 3.033252,25.86185 3.151797,23.972131 3.041198,23.769158 3.100413,23.729952 3.168833,23.700553 3.170287,23.677374 3.228068,23.637853 3.301212,23.039067 3.927327,22.629054 4.234155,22.343902 4.030114,21.957501 4.10462,21.891529 3.905951,21.690814 3.828992,21.562514 4.440913,21.17261 5.058313,20.914571 4.990361,20.819437 4.88677,20.614862 5.003884,20.532657 4.637334,20.075974 4.448174,19.781834 4.817519,19.573519 5.26412,19.388215 5.255902,19.266006 5.313121,19.228731 5.121392,18.548754 4.910317,18.295048 5.011064,18.245522 4.952864,18.15126 5.096105,18.047551 5.795143,17.58962 5.421549,17.03083 5.123179,16.821002 5.310328,16.693136 5.457381,16.59049 5.168284,16.408517 5.351526,16.276343 6.025701,15.866611 5.629656,15.559784 5.145577,15.233843 5.333343,15.095784 5.802457,14.734672 5.609312,14.564645 5.177584,14.214584 5.387054,14.088182 5.831497,13.797496 5.683266,13.630212 5.313597,13.242673 5.553838,13.138274 5.990777,12.922883 5.871793,12.736167 5.57645,12.318815 5.837436,12.256849 6.298691,12.10856 6.203856,11.875102 5.988531,11.431137 6.253631,11.419218 6.732166,11.352499 6.681321,11.081926 6.564709,10.615718 6.823298,10.656982 7.293217,10.690532 7.33291,10.3598 7.350586,9.901781 7.577737,10.009854 8.075064,10.192509 8.503937,9.747863 8.528539,9.40299 8.623743,9.545139 9.015451,10.022185 9.150112,9.967211 9.168884,9.890061 9.077461,9.583079 9.438579,9.849447 9.679837,9.750956 9.967782,9.606145 9.854246,10.045794 9.808072,10.242837 9.826804,10.266925 9.879329,10.339473 10.181752,10.243335 10.265154,10.190249 10.277179,10.138258 10.27798,10.055524 10.260692,9.757815 10.460865,10.06263 10.577832,10.021644 11.11905,9.768672 11.118042,9.679761 11.158542,9.752092 12.035239,9.398487 12.038224,9.327807 12.051456,9.045778 12.203865,9.332973 12.45862,9.25603 13.042471,9.067094 13.061074,8.851605 13.077675,8.610648 12.917994,8.580255 12.521808,8.541507 13.095565,8.350961 13.096661,8.335057 13.101815,8.33381 13.106263,8.292343 13.121259,8.062836 13.283235,8.288635 13.293736,8.285148 13.294842,8.28715 13.960241,8.1263 14.134841,8.082628 14.136901,8.055293 14.147937,8.05295 14.168354,7.901353 14.194467,7.571486 14.049653,7.459342 13.928042,7.334743 14.217377,7.282087 14.217619,7.27903 14.219139,7.278824 14.234659,7.178155 14.328353,7.26189 14.370079,7.254296 14.372755,7.257943 15.229269,7.14153 15.242301,7.056897 15.290245,6.545463 15.476026,6.690931 15.470413,6.400207 16.185169,6.362032 16.163415,6.004973 16.497837,6.196787 16.515279,5.682115 16.883593,5.638695 16.8255,5.444389 17.325501,5.609418 17.18792,5.357954 17.161836,4.938076 17.43329,4.86438 17.369062,4.670336 17.607063,4.686989 17.617326,4.18474 17.979978,4.083928 18.146059,3.794818 18.139664,3.710522 18.191463,3.715778 18.289863,3.544485 18.530116,3.573664 18.772651,3.727744 19.06517,3.468324 19.191062,3.402175" slic3r:type="contour"/>
    <polygon style="fill: black" points="10.593251,10.273122 10.714983,10.44018 10.919074,10.372687 11.037826,10.317589 11.056246,10.132148 11.103829,9.854682" slic3r:type="hole"/>
    <polygon style="fill: black" points="32.731352,10.274217 32.987119,10.360292 33.147058,10.428458 33.223823,10.328692 33.024993,10.18852 32.681271,9.872454" slic3r:type="hole"/>
    <polygon style="fill: black" points="31.819428,9.950275 32.074532,10.028145 32.438348,10.160381 32.511846,10.061256 32.613049,9.81378 32.494145,9.799442 31.78535,9.662542" slic3r:type="hole"/>
    <polygon style="fill: black" points="11.86464,9.645812 11.187402,9.804655 11.301717,9.972532 11.416327,10.155154 11.637074,10.086615 11.953582,9.974952 11.97815,9.750626 11.997376,9.632284" slic3r:type="hole"/>
    <polygon style="fill: black" points="31.153649,9.685256 31.151042,9.765832 31.203081,9.778797 31.340169,9.814729 31.485776,9.62499" slic3r:type="hole"/>
    <polygon style="fill: black" points="12.501781,9.80668 12.745022,9.745534 12.743422,9.666103 12.611003,9.638435 12.365107,9.611593" slic3r:type="hole"/>
    <polygon style="fill: white" points="42.511928,29.885006 42.69264,29.986477 42.415347,30.218762 42.502792,30.350744 42.446465,30.426592 42.718148,30.620606 42.899868,30.899863 42.79532,32.120532 42.516848,32.945005 42.687268,33.093008 42.643341,33.285088 42.779239,33.410817 43.386455,33.847648 43.055815,34.11764 42.497459,34.81706 41.84512,34.364716 41.369864,33.843868 41.512911,33.637608 41.857378,33.324441 41.794728,33.254486 41.985482,32.929663 41.864668,32.803444 41.112412,32.261526 41.49183,30.837293 41.323828,30.677088 41.335466,30.554876 40.916532,30.335172 40.606652,30.063269 40.854848,29.606476 41.399599,29.0652" slic3r:type="contour"/>
    <polygon style="fill: white" points="43.179407,36.164911 43.645432,36.973104 43.520863,37.319584 43.314431,37.648664 43.382956,37.724776 43.349805,37.786928 43.673328,38.080988 43.512384,38.199043 42.666171,39.033728 42.229236,38.648368 41.682528,37.94662 41.742276,37.882883 41.87502,37.777193 41.865583,37.764468 41.927581,37.686281 41.669828,37.423395 41.822223,37.147356 42.577632,35.536624" slic3r:type="contour"/>
    <polygon style="fill: white" points="42.989955,41.237723 43.540644,42.1256 43.504076,42.180556 43.442435,42.251265 43.453808,42.265468 43.447552,42.27318 43.525936,42.358876 43.480583,42.390568 43.099895,42.701753 42.814204,43.053939 42.425671,43.451688 41.5634,42.23958 41.537504,42.209616 41.596101,42.1475 41.562888,42.111916 41.546688,42.088344 41.829817,41.82447 42.606568,40.770412" slic3r:type="contour"/>
    <polygon style="fill: white" points="43.111876,46.307896 43.144708,46.347764 43.061797,46.40183 43.066416,46.4084 43.061833,46.411583 43.103039,46.465619 43.126348,46.496168 42.449603,47.170632 41.962896,47.639188 41.23068,46.59494 41.118444,46.444268 41.355617,46.218924 41.236911,46.074555 41.174884,45.9877 41.816728,45.518287 42.261856,45.230484" slic3r:type="contour"/>
    <polygon style="fill: white" points="42.570128,49.454176 42.688844,49.599404 42.352936,49.798202 42.485248,50.006308 42.59108,50.15632 42.091968,50.599187 41.69201,50.973815 42.05504,51.468768 42.274176,51.717456 41.607135,52.09352 41.381686,52.188874 41.317478,52.302016 41.755996,52.877 41.938852,53.105588 41.362224,53.290471 40.784916,53.451824 40.231304,52.748484 40.034016,52.516576 40.574207,52.334204 40.941149,52.219059 40.938051,52.029088 40.541676,51.453404 40.338808,51.237232 40.750383,51.006236 41.093072,50.854566 40.895028,50.529795 40.588048,50.010083 41.05917,49.589071 40.853995,49.320991 40.734688,49.170508 41.299072,48.842783 41.840368,48.548808" slic3r:type="contour"/>
    <polygon style="fill: white" points="41.110108,54.448632 41.303524,54.773392 40.766119,54.8539 40.100236,54.967516 39.706267,54.262719 39.510971,53.90586 40.028732,53.810795 40.715911,53.709416" slic3r:type="contour"/>
    <polygon style="fill: white" points="39.130027,55.218588 39.932956,55.252988 40.135336,55.930164 40.30802,56.406508 39.880704,56.38332 39.083152,56.376996 38.872012,55.7374 38.71642,55.217304" slic3r:type="contour"/>
    <polygon style="fill: white" points="37.859195,56.487331 38.775504,56.713288 38.821279,57.263283 38.911044,57.91854 38.634272,57.843348 37.799851,57.667787 37.192117,58.326605 37.179672,58.4954 37.127051,58.54072 37.105688,59.222144 36.977547,59.161363 36.590046,59.003213 35.049512,60.329992 35.046788,60.328283 32.986656,60.652349 32.872553,61.073868 32.842446,61.210036 32.247112,60.768683 32.103486,60.791276 32.016345,60.73367 30.946072,60.862005 30.668972,61.703399 30.59821,61.95654 30.038769,61.492431 29.639669,61.192924 29.904349,60.311764 29.99412,60.061708 30.596041,60.480055 31.014102,60.801948 31.882154,60.286266 31.894792,60.244112 31.917306,60.228614 32.095986,59.488775 32.136304,59.349103 32.692305,59.695121 33.254159,59.308352 34.183134,58.622791 34.183804,58.619695 34.186468,58.617476 34.198779,58.539884 34.2019,58.524088 34.261243,58.555187 34.313976,58.511259 34.431816,58.407684 35.468927,58.198516 36.012071,58.044926 36.061784,57.534312 36.176239,57.577875 36.828505,57.859799 37.691303,57.484584 37.650736,57.136876 37.595588,56.433368" slic3r:type="contour"/>
    <polygon style="fill: white" points="28.396544,61.047104 28.836844,61.42794 28.524355,62.235428 28.4034,62.586264 27.938721,62.157935 27.480908,61.77542 27.755502,61.008071 27.902732,60.66226" slic3r:type="contour"/>
    <polygon style="fill: white" points="26.260722,61.47816 26.736772,61.94944 26.412035,62.65058 26.2285,63.072544 25.845065,62.669847 25.358958,62.202596 25.654798,61.532344 25.864908,61.118288" slic3r:type="contour"/>
    <polygon style="fill: white" points="24.181046,61.754856 24.662098,62.311176 24.316218,62.928155 24.062297,63.385656 23.742893,62.993803 23.265725,62.44816 23.596785,61.85286 23.867022,61.407528" slic3r:type="contour"/>
    <polygon style="fill: white" points="16.074048,61.205184 16.309285,61.775356 15.68819,62.337563 15.386725,62.586264 15.140887,61.961892 14.953259,61.42806 15.624821,60.895043 15.887443,60.662275" slic3r:type="contour"/>
    <polygon style="fill: white" points="18.12061,61.575096 18.431152,62.20274 17.908088,62.743288 17.561626,63.072543 17.315715,62.546699 17.05337,61.949412 17.617887,61.428404 17.925218,61.118288" slic3r:type="contour"/>
    <polygon style="fill: white" points="20.137596,61.800312 20.5244,62.448128 20.08136,62.985027 19.727829,63.385656 19.474522,62.934544 19.128044,62.311147 19.597007,61.788224 19.923104,61.407528" slic3r:type="contour"/>
    <polygon style="fill: white" points="22.146355,61.865675 22.597472,62.48934 22.215174,63.048771 21.895064,63.498392 21.620503,63.093719 21.19264,62.489372 21.580056,61.944327 21.895064,61.510656" slic3r:type="contour"/>
  </g></svg>