<svg width="43.790126" height="63.590156" xmlns="http://www.w3.org/2000/svg" xmlns:svg="http://www.w3.org/2000/svg" xmlns:xlink="http://www.w3.org/1999/xlink" xmlns:slic3r="http://slic3r.org/namespaces/slic3r"><g xmlns="http://www.w3.org/2000/svg" slic3r:z="3.99349999999998e-005" id="layer120">
    <polygon style="fill: white" points="26.16482,58.293692 26.795303,58.984112 26.623028,59.389919 26.308788,60.229948 26.233231,60.143291 25.411308,59.283316 25.596003,58.807944 25.92177,58.035224" slic3r:type="contour"/>
    <polygon style="fill: white" points="28.362894,57.795428 28.937326,58.338536 28.742566,58.89056 28.532374,59.6166 28.345352,59.430456 27.580038,58.754324 27.776678,58.114499 28.000402,57.475228" slic3r:type="contour"/>
    <polygon style="fill: white" points="30.678278,57.125304 31.140152,57.512024 30.921143,58.255608 30.794844,58.815364 30.450299,58.511907 29.810614,58.020812 30.020878,57.155559 30.147207,56.726596" slic3r:type="contour"/>
    <polygon style="fill: white" points="36.595683,53.375939 37.47918,53.690144 37.454248,54.08094 37.53672,55.074468 37.464595,55.057108 36.826719,54.870551 36.73332,55.684252 35.503746,56.15313 35.460588,56.489371 35.450144,56.609624 34.975048,56.354741 34.947367,56.365296 34.843395,56.312659 33.404075,56.596987 33.198423,57.485 33.141158,57.830808 32.570781,57.411539 32.118332,57.113856 32.333254,55.947407 32.366254,55.803208 33.134603,56.289312 33.31327,55.659903 33.362699,55.276296 34.010708,55.171883 34.451549,55.078828 34.484064,54.676756 34.591008,54.72146 34.969601,54.938974 35.220943,54.85038 36.357942,54.408632 36.295356,53.340927" slic3r:type="contour"/>
    <polygon style="fill: white" points="38.93642,51.821316 39.0674,52.32122 39.28526,53.174044 39.065911,53.076256 38.139008,53.00312 37.93628,52.69222 37.726,51.744904 38.15688,51.717976" slic3r:type="contour"/>
    <polygon style="fill: white" points="40.376172,48.61633 40.418836,48.597656 40.430664,48.608324 40.5111,48.725415 40.564559,48.910198 40.977144,49.337328 41.102312,49.481872 40.785552,49.674053 40.859507,49.929679 40.902396,50.06686 40.02638,50.226039 39.836408,50.251971 39.779784,50.288152 39.759078,50.262527 39.67684,50.273752 39.604126,50.070764 39.515612,49.961224 39.470823,49.794071 38.990572,49.198284 39.063492,49.190888 39.283407,49.094632 39.167744,48.662975 39.340863,48.601084 40.301716,48.365292" slic3r:type="contour"/>
    <polygon style="fill: white" points="41.527204,44.27514 41.567775,44.419266 42.010056,44.834468 42.162868,44.95896 41.793959,45.234783 41.937259,45.604655 42.014127,45.829052 41.291651,46.292448 40.823416,46.495804 40.462564,45.506926 40.053096,45.075776 40.130104,45.020427 40.282347,44.915384 40.140636,44.51066 40.284584,44.417023 41.29092,43.626476" slic3r:type="contour"/>
    <polygon style="fill: white" points="42.294191,35.963875 42.685112,36.155272 42.198195,36.567804 41.771824,37.020302 41.8122,37.194455 41.731934,37.273491 42.20524,38.58134 42.646868,40.258836 42.623672,40.300296 42.572753,40.352301 42.593008,40.368712 42.586636,40.376419 42.641712,40.412196 42.620931,40.428368 42.294608,40.729622 41.874516,41.23772 41.5238,41.504436 41.487235,41.401568 41.064684,41.120824 40.555824,40.662428 40.743435,40.480492 41.066696,40.218474 41.05698,40.19114 41.156467,40.084553 40.627972,38.52506 41.214355,37.837536 41.610857,37.234349 41.515664,37.163955 41.563885,37.034246 40.839227,36.663231 40.646663,36.518128 41.123499,35.981792 41.641072,35.522079" slic3r:type="contour"/>
    <polygon style="fill: white" points="41.486536,31.755368 41.464108,31.873695 41.786847,32.050894 42.4033,32.278992 42.19708,32.469308 41.500648,33.293498 40.851668,33.034602 40.3927,32.764164 40.673132,32.425053 41.26898,31.84259 41.243552,31.761698 41.293303,31.692944 41.320068,31.66492" slic3r:type="contour"/>
    <polygon style="fill: white" points="39.912171,25.382308 39.933454,25.441229 40.353256,25.600832 40.966288,25.747294 40.811795,25.911848 40.263211,26.692021 40.615298,28.331776 41.080052,28.52688 41.089968,28.633395 41.780064,28.827744 41.659371,28.94919 41.151868,29.61922 41.03222,30.408225 41.03222,30.408226 40.847688,29.832484 40.392903,29.687326 39.813968,29.416922 40.018208,29.148378 40.470663,28.656165 40.448128,28.585853 40.564359,28.40792 40.618183,28.343864 40.134524,26.75158 39.596771,26.602019 39.03942,26.38104 39.253352,26.082661 39.752725,25.494635 39.727296,25.410919 39.760711,25.35675 39.777092,25.335546" slic3r:type="contour"/>
    <polygon style="fill: white" points="39.653744,22.871164 40.097108,22.971856 39.83028,23.265617 39.363032,23.958718 38.596604,23.75912 38.193044,23.612415 38.485959,23.184102 38.935156,22.62572" slic3r:type="contour"/>
    <polygon style="fill: white" points="37.318792,17.88865 37.39223,17.953627 37.790832,18.061776 38.464404,18.222618 38.361695,18.356692 38.17819,18.649036 38.84496,19.238986 38.808765,20.333687 39.081584,20.421594 39.266844,20.466028 38.821472,20.962324 38.786227,21.015301 38.777052,21.292815 38.739083,21.348557 38.781824,22.17215 38.201512,21.400505 38.12102,21.371842 38.028382,21.286671 37.484164,21.146972 37.373264,21.10632 37.544972,20.842232 37.380116,20.690666 37.185232,20.558052 37.2924,19.809499 37.293348,19.150173 36.569616,18.910608 36.724888,18.624038 37.228936,17.909322 37.295105,17.927275 37.295188,17.869722" slic3r:type="contour"/>
    <polygon style="fill: white" points="19.869188,7.348114 20.072621,7.748105 20.107964,7.708804 20.219085,7.724023 20.303417,7.607404 20.650084,7.156314 20.767557,7.410568 20.920701,7.761577 20.979701,7.767404 21.015251,7.718191 21.367254,7.269653 21.468265,7.494781 21.604533,7.801652 21.895064,7.325896 22.007221,7.526924 22.180037,7.822188 22.422866,7.269651 22.561317,7.461713 22.790229,7.765451 22.887827,7.759936 22.936716,7.654213 23.14004,7.156346 23.29743,7.373861 23.555258,7.719649 23.682308,7.709013 23.732333,7.76452 23.852199,7.546732 24.075342,7.065859 24.246931,7.344527 24.492773,7.738271 24.511236,7.737173 24.512525,7.739747 24.763793,7.737168 24.770124,7.721651 24.871082,7.729544 24.992676,7.545994 25.24863,7.091871 25.433249,7.470208 25.56993,7.750379 25.603746,7.751634 25.619406,7.788048 26.319537,7.842783 26.403515,7.729887 26.690084,7.311706 26.889222,7.827796 26.9282,7.927919 26.987918,7.936264 27.008383,7.989237 27.658614,8.068922 27.997916,8.13844 28.048207,8.077194 28.317452,7.739016 28.481062,8.237428 28.540086,8.249521 28.560878,8.307202 29.03722,8.376647 29.924518,8.59939 30.096652,8.416038 30.167266,8.660329 30.198305,8.668121 30.209283,8.700839 30.403745,8.731363 31.072239,8.924602 30.734327,9.40984 30.558075,9.547539 31.118999,9.643995 31.982282,9.892744 32.026547,9.844051 32.12573,9.649655 32.225644,9.962866 32.257468,9.972036 32.264817,9.993516 32.36732,10.015081 32.59278,10.094904 32.381994,10.336031 32.562225,10.862853 32.673772,10.889424 32.695375,10.947472 33.026011,11.01075 33.687455,11.213676 33.421371,11.628288 33.075968,11.97013 33.135951,12.131306 33.168982,12.136404 33.196336,12.212049 33.866468,12.301846 34.39415,12.41521 34.643979,12.336817 34.736211,12.248705 34.803625,12.503179 34.82472,12.507711 34.825522,12.511159 34.884624,12.522688 34.965584,12.545167 34.879315,12.742533 35.168681,13.98715 35.699931,14.067889 36.313167,14.191516 36.205519,14.477363 35.975293,14.971253 36.329515,15.023312 36.977416,15.122118 37.00476,16.000469 37.275923,16.065097 37.520496,16.123838 37.174487,16.676403 37.033679,16.917196 37.042028,17.118698 36.953536,17.102332 36.952908,17.219589 36.902766,17.199373 35.686964,16.932292 35.65702,16.922936 35.685422,16.863707 35.623388,16.859922 35.699324,16.084729 35.68414,15.326354 35.654044,15.318943 35.65441,15.291947 34.622555,15.113732 34.316564,15.054128 34.491592,14.558041 34.209891,14.643939 34.029024,14.700572 33.935744,14.045365 33.863378,13.588475 33.785424,13.570067 33.766706,13.476471 32.706079,13.295165 32.362932,13.243047 32.467018,13.029288 32.461681,13.024488 32.493065,12.905619 32.427684,12.867306 32.281236,13.008975 32.193612,13.082506 31.948074,12.330868 31.85153,11.982463 31.74496,11.95704 31.697769,11.826097 30.380919,11.597817 30.225764,11.782437 30.165656,11.635875 30.137778,11.555667 30.112526,11.55129 30.099476,11.520221 29.45507,11.422597 29.736716,11.277006 29.901805,11.049617 29.843665,10.911202 29.729814,10.557448 29.632968,10.536559 29.577111,10.418453 28.666332,10.264066 28.335582,10.84471 28.130936,10.376602 28.055561,10.160533 27.999746,10.151072 27.971784,10.091455 27.322188,9.988704 26.797634,9.921845 26.63639,10.217233 26.54387,10.001892 26.500509,9.883974 26.473098,9.88048 26.466314,9.865152 25.354174,9.763845 25.236302,9.754404 25.19039,9.83912 25.167695,9.783036 25.154216,9.748514 24.741903,9.752656 24.944443,9.58949 25.053953,9.514495 24.949751,9.254003 24.824757,8.945833 24.467772,8.950501 24.213326,9.418949 24.102588,9.639139 23.948511,9.22551 23.842666,9.016335 23.527411,9.050801 23.50278,9.097162 23.2805,9.578836 23.169382,9.295055 23.073024,9.139486 23.017794,9.151527 22.791672,9.185489 22.78581,9.195998 22.776603,9.196994 22.583666,9.59801 22.489498,9.392261 22.38602,9.239226 22.244534,9.254525 22.113317,9.265705 21.895064,9.627842 21.792397,9.441972 21.680691,9.256708 21.550214,9.242388 21.450808,9.233946 21.206478,9.598008 21.068175,9.37419 20.955957,9.141729 20.78953,9.117001 20.509676,9.578836 20.314465,9.273632 20.189675,9.004112 20.000595,8.983995 19.862083,9.284378 19.687534,9.639107 19.431514,9.220514 19.28499,8.928205 18.975241,8.924913 18.732299,9.526406 19.048444,9.752612 18.695143,9.746381 18.635995,9.746939 18.59976,9.839131 18.572246,9.787539 18.554926,9.755629 17.549422,9.851451 17.321303,9.869216 17.31702,9.880464 17.280101,9.886881 17.1538,10.217203 17.06724,10.024075 17.016331,9.932729 16.269794,10.06249 15.802684,10.11739 15.790343,10.151097 15.706645,10.171116 15.454555,10.844691 15.289574,10.439795 15.202372,10.291737 14.952544,10.351493 14.181993,10.464569 14.157075,10.53652 14.021463,10.577416 13.927544,10.843401 14.334811,11.422718 13.846385,11.51883 13.683428,11.534749 13.677567,11.551349 13.645351,11.559627 13.564376,11.782429 13.490085,11.669974 13.441526,11.612003 12.726965,11.795619 12.067598,11.881103 12.045118,11.957072 11.912687,11.999402 11.596499,13.082545 11.357515,12.828978 11.290803,12.863143 11.307494,12.949555 11.405825,13.174678 11.427233,13.243031 10.657627,13.414509 10.017796,13.500385 10.004723,13.570036 9.932752,13.588503 9.903191,13.783476 9.76118,14.700503 9.276735,14.553745 9.419674,14.937227 9.47357,15.054153 8.894191,15.13801 8.136695,15.287707 8.136045,15.318921 8.125518,15.320914 8.166282,16.710997 8.166724,16.859938 8.097751,16.872774 8.133064,16.923004 7.626173,16.998446 6.837201,17.219622 6.837645,17.108755 6.748089,17.118624 6.752206,16.923758 6.412052,16.370648 6.269667,16.123783 6.771636,16.004216 6.779179,15.647212 6.812721,15.122118 7.18648,15.068466 7.837615,14.969372 7.748399,14.745535 7.477001,14.191463 8.060492,14.099779 8.5963,14.00339 8.711558,13.31141 8.907952,12.689634 8.866117,12.602022 8.824514,12.545179 8.965308,12.515794 8.981546,12.431334 9.053963,12.248632 9.621949,12.339784 9.69454,12.381748 10.579387,12.228878 10.621137,12.136424 10.650608,12.133071 10.727872,11.866473 10.474949,11.48935 10.10263,11.2137 11.062486,10.993975 11.116335,10.889446 11.140611,10.88509 11.225735,10.577812 11.400578,10.23271 11.340268,10.164013 11.197262,10.094948 11.51229,10.012211 11.532627,9.972071 11.544319,9.969581 11.560184,9.908402 11.664393,9.649649 11.889311,9.896125 13.158161,9.625959 13.24862,9.460005 13.294207,9.452305 13.31184,9.393508 13.103006,9.109845 12.717945,8.924599 13.565399,8.730724 13.591801,8.668125 13.618219,8.663611 13.62936,8.624396 13.693469,8.416058 13.881627,8.618606 14.603247,8.49531 15.201189,8.364266 15.25001,8.249535 15.30198,8.242478 15.332364,8.149092 15.472664,7.739016 15.802829,8.141312 15.827005,8.171193 16.755235,8.045161 16.802178,7.93621 16.856421,7.931622 16.908566,7.79595 17.100042,7.311712 17.335813,7.629822 17.512099,7.87617 18.154569,7.821834 18.186338,7.751614 18.219656,7.751818 18.301556,7.583966 18.541512,7.091871 18.742176,7.397346 18.947518,7.73146 19.020002,7.721746 19.037766,7.756821 19.268001,7.758229 19.278968,7.737177 19.291932,7.738293 19.412851,7.541544 19.714768,7.065832" slic3r:type="contour"/>
    <polygon style="fill: black" points="25.545808,9.169936 25.55068,9.174326 25.404127,9.44474 25.750467,9.336672 26.165436,9.120767 26.137857,9.043088 26.11856,9.040095 26.112318,9.029049 25.646124,8.984753" slic3r:type="hole"/>
    <polygon style="fill: black" points="17.719214,9.023773 17.706837,9.099784 18.253761,9.342555 18.302248,9.290052 18.238938,9.1734 18.249835,9.163774 18.149458,8.982809" slic3r:type="hole"/>
    <polygon style="fill: white" points="6.498077,17.925043 6.561237,17.909282 6.890452,18.478049 7.220513,18.910576 6.984204,18.944809 6.545385,19.084288 6.604877,20.558102 6.245217,20.870881 6.353387,21.029131 6.416861,21.106322 5.833869,21.228611 5.680296,21.362165 5.008085,22.172158 5.075067,21.389142 5.013059,21.292788 5.01176,21.103462 4.645359,20.661696 4.523277,20.466028 5.006281,20.304541 5.003266,19.864925 4.945217,19.238848 5.28002,19.015037 5.613714,18.70047 5.325731,18.222604 5.530162,18.166593 6.414036,17.946017 6.494939,17.869751" slic3r:type="contour"/>
    <polygon style="fill: white" points="5.339314,23.301809 5.597086,23.612418 5.133205,23.715786 4.427221,23.958702 3.979375,23.430227 3.692994,22.971882 4.126285,22.815974 4.855049,22.625714" slic3r:type="contour"/>
    <polygon style="fill: white" points="4.062802,25.410922 4.038982,25.508362 4.349699,25.920189 4.750703,26.381046 4.413601,26.461584 3.667011,26.740421 3.171549,28.344758 3.342014,28.58582 3.317154,28.682838 3.497331,28.906022 3.976151,29.416914 3.670493,29.50074 2.967992,29.807976 2.757908,30.408395 2.741929,29.779258 2.474164,29.49874 2.010044,28.82777 2.16485,28.754317 2.71139,28.576895 2.71012,28.526866 3.071395,28.361606 3.174445,28.333266 3.554373,26.739532 3.224163,26.367505 2.823837,25.747296 3.052366,25.655045 3.867023,25.428013 3.877919,25.382312 3.985968,25.341488 4.013003,25.335548" slic3r:type="contour"/>
    <polygon style="fill: white" points="2.546584,31.761623 2.523887,31.85353 2.946938,32.330671 3.39744,32.76415 3.013028,32.89732 2.289477,33.293498 1.840886,32.868287 1.386828,32.278998 1.604882,32.151255 2.332416,31.851266 2.303677,31.755298 2.433195,31.678962 2.470095,31.66487" slic3r:type="contour"/>
    <polygon style="fill: white" points="2.915563,36.317956 3.143477,36.518092 2.542234,36.790996 2.2291,37.008213 2.274486,37.164132 2.191102,37.221958 2.84899,37.971239 3.162174,38.52504 2.9369,39.378036 2.660157,40.119424 2.733138,40.191196 2.717077,40.243159 3.234308,40.662452 3.019832,40.793755 2.319346,41.37989 2.266339,41.504624 2.037773,41.261886 1.835789,41.104464 1.148398,40.412204 1.197854,40.369893 1.196912,40.368891 1.224706,40.344863 1.14326,40.259456 1.222905,40.017012 2.062466,37.284975 1.97811,37.194656 2.021237,37.038303 1.416021,36.517307 1.10502,36.15526 1.524915,35.852216 2.149137,35.52204" slic3r:type="contour"/>
    <polygon style="fill: white" points="2.947834,43.920044 3.64949,44.51058 3.597705,44.687931 3.512754,44.920782 3.737046,45.075772 3.661789,45.138983 3.35887,45.443441 3.19799,45.904736 2.966659,46.495724 1.975504,45.912743 1.775946,45.82882 1.977961,45.29815 1.97541,45.296131 1.988491,45.254434 1.771557,45.093187 1.62725,44.959004 2.164938,44.432812 2.275138,44.340738 2.499256,43.626348" slic3r:type="contour"/>
    <polygon style="fill: white" points="3.925086,48.517768 4.622379,48.662976 4.571067,48.830919 4.507167,49.074456 4.799555,49.198288 4.744682,49.286219 4.301585,49.857967 4.274491,49.961231 4.168202,50.09321 4.113376,50.273784 4.033436,50.259928 4.010308,50.288156 3.935283,50.242915 3.019575,50.084196 2.887731,50.066896 3.000764,49.679401 2.840286,49.582631 2.687804,49.481856 3.211577,48.956712 3.279025,48.725491 3.371342,48.597672 3.41596,48.606668 3.488409,48.365256" slic3r:type="contour"/>
    <polygon style="fill: white" points="5.872149,51.97488 5.65113,53.003119 5.328488,53.13876 4.504857,53.17404 4.583696,52.873071 4.853705,51.821316 5.410115,51.844908 6.064123,51.744904" slic3r:type="contour"/>
    <polygon style="fill: white" points="7.468725,53.613443 7.422692,54.398886 8.859955,54.940805 9.306098,54.67678 9.322757,54.7908 9.345455,55.068976 10.427325,55.27624 10.651012,56.077903 10.691401,56.290399 11.328599,55.874448 11.423955,55.803236 11.563067,56.636663 11.671678,57.11398 10.957298,57.632967 10.648889,57.83078 10.453031,56.986484 10.380854,56.59255 9.23552,56.356051 8.956336,56.305019 8.842641,56.365356 8.817438,56.355686 8.4486,56.553023 8.339963,56.6096 8.280743,56.14976 7.895453,56.001928 7.056839,55.68428 7.022201,55.319107 6.968879,54.858436 6.253348,55.074439 6.248008,54.976819 6.31097,53.69016 6.732513,53.632868 7.494795,53.340943" slic3r:type="contour"/>
    <polygon style="fill: white" points="13.780254,57.340671 13.979529,58.020836 13.480439,58.45444 12.995268,58.815352 12.837305,58.280399 12.649933,57.511956 13.357767,56.967908 13.642931,56.7266" slic3r:type="contour"/>
    <polygon style="fill: white" points="15.920966,57.924736 16.210147,58.754348 15.858301,59.100852 15.257745,59.616616 15.153718,59.322407 14.852862,58.338356 15.364271,57.879751 15.789753,57.475236" slic3r:type="contour"/>
    <polygon style="fill: white" points="17.991678,58.362304 18.378904,59.283188 18.130505,59.566152 17.481342,60.229944 17.430248,60.109852 16.994814,58.984056 17.357883,58.595292 17.868346,58.03522" slic3r:type="contour"/>
    <polygon style="fill: white" points="20.016345,58.636443 20.388265,59.360974 21.346758,59.3812 21.391634,59.308243 21.895064,58.512388 22.025033,58.725695 22.44004,59.382715 23.395947,59.362284 23.468944,59.213287 23.893286,58.38824 24.061271,58.607875 24.620428,59.3349 25.317091,59.293132 24.364013,60.122415 24.252916,60.337975 24.239125,60.342184 24.101598,60.626316 24.09172,60.613 23.973507,60.462197 23.971486,60.463956 23.946211,60.431579 23.095844,60.691104 21.932706,60.708737 21.931997,60.709868 21.929465,60.709822 21.903881,60.749788 21.895064,60.763392 21.860799,60.709828 21.85813,60.709868 21.857277,60.708504 21.766976,60.706856 20.694283,60.691104 20.097974,60.496108 19.848551,60.4258 19.81864,60.463963 19.818126,60.463448 19.688528,60.626316 19.680404,60.610492 19.548138,60.34112 19.537235,60.338047 19.370779,60.015715 19.243894,59.88872 18.473054,59.293168 19.170634,59.333313 19.360455,59.085428 19.89681,58.388236" slic3r:type="contour"/>
  </g></svg>