<svg width="43.790126" height="63.590156" xmlns="http://www.w3.org/2000/svg" xmlns:svg="http://www.w3.org/2000/svg" xmlns:xlink="http://www.w3.org/1999/xlink" xmlns:slic3r="http://slic3r.org/namespaces/slic3r"><g xmlns="http://www.w3.org/2000/svg" slic3r:z="2.67349999999999e-005" id="layer80">
    <polygon style="fill: white" points="18.015895,61.257379 18.462956,62.160948 18.151957,62.482336 17.57972,63.026164 17.462072,62.774588 17.079808,61.904284 17.42191,61.588551 17.935762,61.070039" slic3r:type="contour"/>
    <polygon style="fill: white" points="15.99774,60.876168 16.352014,61.734868 15.961017,62.088791 15.413356,62.5406 15.281557,62.205864 14.993186,61.385395 15.423925,61.04352 15.90784,60.614616" slic3r:type="contour"/>
    <polygon style="fill: white" points="13.931573,60.362836 14.204502,61.149 13.717981,61.544867 13.228297,61.907616 13.081343,61.471612 12.867636,60.72874 13.396397,60.354596 13.830506,60.011892" slic3r:type="contour"/>
    <polygon style="fill: white" points="11.811566,59.742123 12.008253,60.44812 11.411149,60.880903 10.997329,61.151428 10.844365,60.602923 10.695431,59.953731 11.332841,59.550948 11.707382,59.291608" slic3r:type="contour"/>
    <polygon style="fill: white" points="9.74744,59.014628 9.864031,59.632559 9.128561,60.081076 8.807434,60.254344 8.673962,59.579051 8.594005,59.03454 9.361198,58.626864 9.663047,58.452959" slic3r:type="contour"/>
    <polygon style="fill: white" points="2.337632,50.333049 2.3383,50.33206 2.341311,50.334763 3.32305,50.791924 3.453877,50.843048 3.214282,51.171786 3.386701,51.467387 3.706159,51.952024 3.644777,52.259888 3.612282,52.415524 3.835602,52.483744 3.790751,52.5418 3.64568,52.716895 3.921425,53.485964 4.03473,53.875444 4.371946,53.921092 4.337996,53.981487 4.23855,54.162125 5.081356,55.115864 5.142422,55.257828 5.167013,55.255848 5.155938,55.28677 5.220037,55.390608 5.902768,56.524527 6.173426,56.465147 6.287399,56.435168 6.206364,56.983432 6.984192,57.835787 7.600632,57.590531 7.815345,57.497008 7.837148,58.179264 7.871723,58.698108 7.800976,58.730833 7.836475,58.769732 7.771294,58.744563 6.965063,59.117496 6.760562,59.197156 6.692447,58.386047 6.690738,58.327319 5.938696,58.036928 5.448422,57.876442 5.317486,57.902903 5.264812,57.87026 5.0228,57.936008 4.962518,57.947548 4.982368,57.695221 4.820173,57.594704 4.390741,57.345708 4.017531,56.68118 3.873475,56.46372 3.87327,56.463732 3.865489,56.444886 3.571549,56.445252 3.594907,56.364456 3.668309,56.154009 3.662889,56.145828 3.694789,56.031621 3.473215,55.49518 3.171765,54.889026 2.577524,54.785456 2.660241,54.626887 2.896815,54.220328 2.927087,54.158617 2.511819,53.229823 1.931152,53.073556 2.041943,52.926483 2.240459,52.675584 1.58868,51.6823 1.63779,51.413508 1.547708,51.368316 1.513245,51.354376 2.028906,50.679215 2.32823,50.328671" slic3r:type="contour"/>
    <polygon style="fill: white" points="2.412323,47.225763 2.93384,47.74618 2.811427,47.926848 2.586203,48.229065 3.035895,48.47118 2.870214,48.687828 2.197538,49.548128 1.595635,49.193559 1.083721,48.913932 1.254357,48.700635 1.53323,48.359167 1.499793,48.323701 0.921824,47.765592 1.235601,47.354108 1.785952,46.632708" slic3r:type="contour"/>
    <polygon style="fill: white" points="2.040459,43.137564 2.468305,43.663524 2.263839,43.97982 1.780066,44.541978 1.961489,44.66954 2.604361,45.081096 2.318361,45.428227 1.727878,46.213656 1.057227,45.772779 0.636914,45.462552 0.879422,45.147732 1.281141,44.660048 1.266324,44.6446 1.345766,44.526621 1.109647,44.25418 0.455944,43.57596 0.899207,43.049644 1.367062,42.431312" slic3r:type="contour"/>
    <polygon style="fill: white" points="1.313676,42.346067 1.318757,42.353616 1.311522,42.362676 1.308344,42.360427 1.301661,42.35462 1.31024,42.342056" slic3r:type="contour"/>
    <polygon style="fill: white" points="2.099529,31.610668 1.989386,31.740682 1.935141,31.772833 2.424986,32.450247 2.756286,32.739928 2.125232,33.129301 2.023726,33.21446 2.057642,33.449804 1.962312,33.538115 2.245173,34.144667 2.429237,34.800644 2.084177,35.269739 1.418785,35.776638 1.616175,36.024544 1.527293,36.151627 1.755072,36.400943 2.250241,36.799144 1.837936,37.1463 1.312123,37.73049 1.388114,37.920304 1.334133,37.981227 1.875136,38.708835 2.214021,39.315948 1.966836,39.708511 1.39674,40.266921 1.545777,40.414576 1.512361,40.464139 1.678501,40.606879 2.268756,41.027568 1.93775,41.379764 1.333562,42.164492 0.657033,41.67986 0.285453,41.319384 0.554175,40.956292 0.984787,40.487385 0.944461,40.43614 1.085029,40.21823 0.72914,39.646308 0.211645,38.984292 0.773612,38.38844 1.036619,38.027771 0.923767,37.90416 1.03607,37.741112 0.513311,37.311908 0.241013,36.952964 0.584014,36.517832 1.064642,36.092228 1.00245,35.96942 1.16904,35.753955 1.203458,35.725228 0.788073,34.458463 0.521167,33.878328 1.094597,33.418229 0.973885,33.243456 1.041925,33.162377 0.809155,32.940416 0.698838,32.74596 1.255327,32.179443 1.906144,31.748311 1.86249,31.547798 1.93395,31.479688 1.992704,31.445" slic3r:type="contour"/>
    <polygon style="fill: white" points="18.704044,3.980313 18.763902,4.060443 19.00535,3.899345 19.014421,3.896745 19.067677,4.010182 19.183537,4.242097 19.462396,4.139754 19.526274,4.393306 19.7112,4.274222 19.775934,4.537194 19.977232,4.323361 20.167005,4.789559 20.376384,4.520996 20.486934,4.371459 20.698814,4.817628 20.767441,4.953408 21.048391,4.541924 21.149098,4.389125 21.399141,4.826067 21.504366,5.002018 21.798597,4.540452 21.895064,4.389045 22.169284,4.819009 22.282656,4.996944 22.550585,4.539669 22.641058,4.389123 22.939685,4.812414 23.022489,4.937316 23.22683,4.52136 23.303192,4.371473 23.64921,4.793197 23.75997,4.491697 23.812918,4.32337 24.095633,4.603524 24.078926,4.274222 24.393576,4.504661 24.452963,4.458925 24.327744,4.139735 24.463201,4.282637 24.559928,4.316503 24.774416,3.89954 24.77863,3.897632 24.786069,3.912417 25.19757,4.285431 25.537733,4.197795 25.554517,4.118096 25.803145,4.350819 26.087044,4.205119 26.081096,4.405824 26.298918,4.423574 26.38159,4.33513 26.338724,4.426818 26.298918,4.423574 26.129728,4.604574 26.118457,4.645959 26.304278,4.819893 26.140115,4.980284 26.166347,5.064461 26.333522,5.03901 26.629171,5.085696 26.782583,5.02454 26.893764,4.970334 26.891528,5.127124 26.993778,5.14327 27.103932,5.103945 26.886783,5.45994 26.886346,5.490474 26.941698,5.81003 27.219737,5.659453 27.600164,5.504968 27.649499,5.942554 27.874603,5.964627 28.301156,5.855963 28.262502,5.947479 28.28782,6.05099 28.452364,5.946547 28.49863,6.18217 28.573342,6.654911 29.020218,6.698437 29.10896,6.615953 29.210059,6.628823 29.313541,6.544507 29.495764,6.406067 29.564359,6.673928 29.772631,6.700441 30.411566,6.743135 30.375592,6.894741 30.408835,7.143797 30.676706,6.878043 30.755139,7.319465 30.792875,7.534607 30.81495,7.538729 30.817936,7.569668 31.372258,7.704807 31.611259,7.775527 31.676085,7.71782 31.91741,7.4743 31.976336,7.883553 31.997936,7.889945 31.99943,7.917701 32.407275,8.050512 32.898844,8.234547 32.941197,8.199012 33.12219,8.028489 33.156046,8.330838 33.179168,8.339494 33.179571,8.372508 33.593919,8.549003 33.993835,8.725055 34.047044,8.68588 34.29198,8.507642 34.335036,8.875262 34.381208,8.895588 34.381891,8.989444 34.936691,9.338471 35.123439,9.200874 35.540516,9.014771 35.608468,9.627147 35.610711,9.7625 35.847119,9.911224 36.317176,9.781102 36.631028,9.722896 36.588299,10.286942 36.578259,10.368665 36.603348,10.376701 36.617267,10.566935 37.119143,10.546166 37.404564,10.553361 37.264259,11.062988 37.174269,11.3315 37.712968,11.401255 37.974556,11.453996 37.75486,11.937501 37.633513,12.164453 38.140123,12.303764 38.383808,12.385039 38.100031,12.830648 37.96512,13.018677 38.429592,13.215734 38.669696,13.324352 38.340588,13.714754 38.160432,13.911062 38.594112,14.164639 38.837012,14.308299 38.47064,14.641804 38.224092,14.849825 38.636072,15.152026 38.884012,15.34247 38.48834,15.637218 38.053574,15.92806 38.588996,16.278082 38.827724,16.502327 38.392423,16.79727 38.286344,16.859358 38.381123,16.992683 38.719588,17.481984 38.618471,17.560462 38.540514,17.659785 38.755296,17.804804 38.647967,17.940688 38.107432,18.531247 38.076316,18.647658 38.691927,19.026269 38.975772,19.18766 38.602019,19.567636 38.640712,19.599066 38.509498,19.785621 38.833964,20.037518 39.33152,20.600855 39.330684,20.750168 39.325903,20.800951 39.337784,20.808131 39.340392,20.828122 39.410396,20.85694 39.382012,20.881366 39.352716,20.92257 39.504532,22.086076 39.496854,22.5381 39.590492,22.592468 39.616377,22.738566 40.113296,22.954054 39.915656,23.101028 39.729465,23.376847 39.777596,23.648502 39.770579,24.735771 39.985944,24.858918 40.020442,25.079012 40.698472,25.491308 41.112724,25.67924 40.697264,26.007081 40.548775,26.245724 40.720944,26.468056 40.556764,26.719241 41.267472,27.034839 41.823036,27.74778 41.892792,28.378907 41.860062,28.680413 41.921056,28.721467 41.922715,28.808005 42.193644,28.960134 42.086523,29.049864 41.931829,29.283269 41.94672,30.059766 41.726832,31.01092 40.660244,30.092896 40.351872,29.930276 40.446479,29.347061 40.367752,29.277982 40.368643,29.230073 40.22214,29.16165 40.087012,29.054796 40.383094,28.453594 40.412604,26.867805 40.330791,26.830787 40.171632,26.705164 40.16119,26.512394 39.532388,26.245724 38.953572,25.827922 39.058799,25.619204 39.374994,25.292232 39.253228,25.198368 39.459139,24.803692 38.731891,24.210239 38.281984,24.015662 38.228718,23.306796 38.152164,23.252838 38.150521,23.223546 38.058132,23.183894 37.956436,23.117608 38.128293,22.827352 38.056853,21.55395 37.84516,21.407366 37.845274,21.348848 37.60426,21.232004 37.338448,21.048488 37.666768,20.561268 37.847141,20.39191 37.847932,19.98673 37.70076,19.891785 37.706079,19.857637 37.362072,19.671868 36.98228,19.404122 37.236012,19.055631 37.580397,18.742637 37.545556,18.663553 37.522692,18.618157 37.524732,18.616285 37.461915,18.473702 37.410367,18.381717 37.336512,18.33478 36.795248,17.980218 36.929928,17.809803 37.035252,17.712336 36.716135,17.142886 37.081189,16.695335 36.91908,16.597277 36.77244,16.480948 37.275215,16.225041 37.177108,15.719992 37.137825,15.537221 36.888251,15.375175 36.797268,15.315969 37.055855,15.155843 37.050544,15.131127 37.074308,15.114509 37.030247,14.866997 37.007745,14.590911 36.849652,14.505982 36.766907,14.466108 36.988837,14.303327 36.928016,14.059429 36.903219,13.823363 36.754727,13.764412 36.6575,13.732241 36.873595,13.526247 36.77604,13.258239 36.744964,13.121551 36.577359,13.078963 36.461336,13.054667 36.669852,12.785293 36.517576,12.492476 36.49106,12.432106 36.297704,12.413931 36.1763,12.402956 36.338527,12.100648 36.140776,11.841259 36.104513,11.799153 35.899251,11.819694 35.80302,11.825823 35.878889,11.56974 35.691296,11.415889 35.405961,11.366465 35.374323,11.377716 35.360506,11.381456 35.218716,11.025538 35.104164,10.950205 34.822545,11.211561 34.826839,11.253443 34.803723,11.245319 34.744532,11.34426 34.628096,11.243529 34.610724,11.145671 34.535361,11.086145 34.117927,10.843331 34.063778,10.893151 34.124484,11.020899 34.387084,11.539468 33.773751,11.275145 33.712054,11.251644 33.435936,11.625013 33.522318,11.876753 33.323737,11.776727 33.227666,11.906636 33.171346,11.761737 33.160542,11.708977 33.075773,11.673002 33.074305,11.667038 32.556987,11.469631 32.388689,11.412792 32.165656,11.664898 32.108736,11.391247 32.097618,11.314489 32.028804,11.291249 32.02699,11.273746 31.444438,11.08993 31.204268,11.020413 31.066576,11.161904 31.042166,11.010005 31.037062,10.972015 31.012548,10.964919 31.012075,10.959256 30.404706,10.808564 30.74229,10.616223 30.972381,10.490444 30.96186,10.412117 30.965421,10.411836 30.955017,10.180548 30.889966,10.158736 30.888447,10.131586 30.245984,9.945607 29.936096,10.42499 29.883158,9.938485 29.874864,9.838177 29.852122,9.831594 29.851924,9.828974 29.109557,9.654863 29.585957,9.470804 29.81796,9.374154 29.806438,9.134841 29.268763,9.008799 28.903094,8.922278 28.757348,9.200506 28.732389,8.932831 28.727915,8.884037 28.540112,8.846154 28.650413,8.782366 28.714999,8.743164 28.713398,8.725706 28.717015,8.724367 28.70544,8.533979 28.684876,8.385852 28.112922,8.316386 28.392384,8.040732 28.547452,7.878261 27.880513,7.83921 27.845874,7.859828 27.776091,7.856695 27.606674,8.019475 27.60541,7.904328 27.593337,7.84849 27.375864,7.838727 27.433278,7.661192 27.505339,7.441498 27.442673,7.151668 27.086068,7.145024 26.934702,7.203249 26.749575,7.189895 26.544254,7.348526 26.554512,7.236829 26.544395,7.175094 26.339706,7.160328 26.388844,6.949004 26.462489,6.675284 26.422556,6.431605 25.908269,6.366187 25.58945,6.559992 25.639936,6.418184 25.637465,6.33174 25.412853,6.303169 25.509001,6.022325 25.114019,5.898032 25.102976,5.96328 25.066067,5.980826 25.036109,6.159878 25.00435,6.341555 24.670678,6.168782 24.637568,6.184521 24.382248,6.320559 24.365417,6.3667 24.36126,6.367513 24.329382,6.445211 24.29943,6.523597 24.17208,6.404515 24.106205,6.417399 23.577848,6.528325 23.574583,6.535073 23.573797,6.53513 23.555695,6.568388 23.53883,6.601698 23.494823,6.545756 23.493526,6.546028 23.489936,6.541164 23.445654,6.544351 22.750572,6.587929 22.75011,6.588752 22.748904,6.588765 22.727052,6.626039 22.703203,6.590898 22.701564,6.591001 22.70044,6.589294 22.671141,6.589614 21.917035,6.593924 21.91688,6.594174 21.915714,6.594162 21.895064,6.626479 21.874421,6.594166 21.873247,6.594173 21.872868,6.593559 21.089839,6.589041 21.088534,6.591003 21.08712,6.590901 21.063044,6.626043 21.039995,6.588753 21.03999,6.588753 21.03925,6.587467 21.00952,6.585335 20.300717,6.540465 20.296584,6.546031 20.294671,6.545656 20.27376,6.572283 20.251268,6.601701 20.211586,6.529343 20.163913,6.519981 19.607763,6.404632 19.544103,6.464339 19.490712,6.523623 19.425956,6.366924 19.424686,6.366661 19.411172,6.331494 19.304077,6.279999 19.065997,6.15777 18.910571,6.236484 18.785792,6.341554 18.726132,5.983285 18.68719,5.963293 18.663061,5.832153 18.495842,5.881271 18.257718,6.029828 18.377252,6.303176 18.207009,6.31095 18.200638,6.560007 17.935952,6.558674 17.522724,6.40766 17.389135,6.426551 17.336763,6.76364 17.450438,7.160307 17.27524,7.159634 17.245896,7.348508 17.073724,7.303691 16.898483,7.198966 16.855426,7.203226 16.512152,7.10723 16.357793,7.115072 16.290643,7.463384 16.414251,7.838724 16.218866,7.835694 16.183434,8.019488 16.02807,7.953423 15.87623,7.829304 15.859351,7.82173 15.494708,7.820616 15.22348,7.84228 15.677192,8.316402 15.240904,8.352196 15.128597,8.369135 15.080921,8.744404 15.250055,8.846131 15.110834,8.872106 15.062229,8.882392 15.032749,9.200574 14.920642,8.989518 14.885221,8.921482 14.284307,9.059632 13.975007,9.133462 13.962916,9.361674 14.680516,9.6549 14.096324,9.798907 13.909068,9.840686 13.854019,10.425006 13.597263,10.050456 13.538715,9.958032 13.255239,10.047817 12.900276,10.148098 12.900167,10.158737 12.820634,10.188091 12.808362,10.409409 12.828217,10.412051 12.816552,10.495609 13.385454,10.808548 12.879233,10.941371 12.781889,10.963514 12.749779,10.973908 12.723533,11.161904 12.608356,11.05392 12.583159,11.027841 11.940584,11.235835 11.761561,11.286929 11.76137,11.291238 11.677574,11.322385 11.624449,11.664925 11.42905,11.460688 11.398742,11.426026 10.806109,11.646305 10.672737,11.691952 10.601803,11.724316 10.562425,11.906643 10.471034,11.783979 10.267723,11.876741 10.294777,11.681818 10.327963,11.590119 10.088077,11.265128 9.403052,11.539479 9.674164,10.881391 9.184371,11.138019 9.179706,11.145481 9.06532,11.202541 9.045672,11.34434 8.996178,11.237031 8.963287,11.253439 8.971499,11.211332 8.94705,11.179483 8.991576,11.012527 8.889178,10.933962 8.837566,11.081047 8.802931,10.984722 8.42497,11.380756 8.410095,11.374573 7.922159,11.638997 7.954598,11.740026 7.987108,11.825823 7.71573,11.793524 7.535404,12.029519 7.459291,12.12074 7.556032,12.299122 7.613795,12.402957 7.26776,12.436083 7.118687,12.724017 7.131479,12.741924 7.120125,12.773706 7.260017,12.958561 7.328817,13.054667 6.986256,13.148417 6.881762,13.440903 6.922553,13.48401 6.916291,13.510231 7.062966,13.65596 7.132626,13.732241 6.83271,13.86019 6.755747,14.182443 6.751763,14.227474 6.808264,14.273387 6.804621,14.295037 6.952421,14.407538 7.023218,14.466111 6.74994,14.619955 6.685183,15.004755 6.677317,15.088901 6.739541,15.131102 6.73544,15.15185 6.902558,15.257013 6.99285,15.31597 6.660373,15.531626 6.525576,16.213583 6.846258,16.383033 7.017679,16.480973 6.719011,16.641863 6.8731,16.828036 7.073989,17.142942 6.872061,17.436421 6.716013,17.734199 6.994883,17.980238 6.735828,18.144788 6.457923,18.324759 6.217842,18.785104 6.208178,18.81764 6.45676,19.116485 6.807852,19.404074 6.341935,19.650268 6.087869,19.81264 6.089364,19.891776 5.997691,19.942197 6.05796,20.649386 6.222943,20.861767 6.45169,21.048496 5.963461,21.280109 5.944921,21.407409 5.860084,21.455827 5.869578,21.965395 5.691045,22.957587 5.75123,23.044323 5.833676,23.11762 5.648095,23.196278 5.637911,23.252874 5.597682,23.276016 5.600562,23.471212 5.50808,24.015821 4.947073,24.663806 4.357961,24.913585 4.536907,25.198384 4.34869,25.392533 4.375972,25.435992 4.836566,25.8279 4.501819,25.969704 3.654137,26.46868 3.618469,26.705188 3.392974,26.850813 3.506081,27.982477 3.456933,28.743429 3.58764,28.952185 3.703081,29.054866 3.428528,29.183213 3.422406,29.278008 3.37072,29.315309 3.423688,29.565772 3.438273,29.9302 2.807296,30.616482 2.06345,31.01038 1.94261,29.586924 1.596468,28.960224 1.723862,28.851129 1.873067,28.767744 1.869139,28.721464 1.985517,28.627446 1.967174,27.747537 2.397461,27.563604 3.240541,26.780552 3.069164,26.468074 3.209101,26.343531 2.813015,25.949612 2.677401,25.67924 3.221537,25.281926 3.795484,25.023662 3.804161,24.858917 4.002856,24.717534 4.047442,24.698785 4.123812,23.641648 3.983637,23.509488 3.676834,22.954038 3.925911,22.783672 4.194174,22.667661 4.199605,22.592492 4.366021,22.474366 4.430384,21.460751 4.446855,20.968736 4.379766,20.85689 4.413832,20.835184 4.451858,20.819291 4.45223,20.808179 4.46897,20.796382 4.458494,20.601289 4.833548,20.287541 5.310923,19.850146 5.14947,19.59909 5.17061,19.581112 4.944164,19.343742 4.814365,19.187627 5.181912,18.9482 5.711195,18.641006 5.690585,18.560728 5.71321,18.543506 5.368898,18.115288 5.03483,17.804778 5.114499,17.756449 5.233292,17.677684 5.07054,17.481956 5.489599,16.889495 5.524049,16.840502 5.204414,16.631812 4.962406,16.502328 5.287855,16.322519 5.707477,15.972441 5.697667,15.891422 5.153938,15.498004 4.906107,15.342455 5.310842,15.048335 5.57802,14.847103 5.170642,14.484291 4.953095,14.30829 5.414938,14.038802 5.641041,13.905769 5.300515,13.512065 5.120431,13.324353 5.630085,13.110951 5.843713,13.016983 5.554454,12.579218 5.406318,12.385039 5.934547,12.246672 6.09192,12.198181 6.092036,12.197723 6.179383,12.169642 5.93807,11.664551 5.815572,11.454019 6.331239,11.396452 6.627867,11.345689 6.592067,11.202567 6.593819,11.200915 6.474376,10.791572 6.385556,10.553366 6.878349,10.581863 7.178815,10.58271 7.186766,10.376689 7.233057,10.354632 7.201682,9.989775 7.159101,9.722888 7.612086,9.857375 7.916126,9.925532 8.239674,9.701258 8.27575,9.358248 8.249631,9.014778 8.644364,9.311142 8.73234,9.359755 9.143051,9.075061 9.414442,8.939201 9.409035,8.895536 9.496446,8.858409 9.50872,8.766812 9.498157,8.507659 9.800045,8.729459 10.180111,8.56803 10.612361,8.376845 10.610896,8.33953 10.645112,8.32822 10.652065,8.271185 10.667918,8.028519 10.914651,8.239128 11.411675,8.074844 11.791146,7.936304 11.792215,7.889952 11.819031,7.883144 11.828546,7.818923 11.872716,7.4743 12.213729,7.782023 12.265887,7.762981 12.269983,7.768653 12.971606,7.590521 12.974993,7.538679 13.002665,7.533706 13.020292,7.436157 13.113397,6.87804 13.25691,7.010099 13.325968,7.07565 13.378542,6.743135 14.243455,6.658684 14.259587,6.596766 14.294392,6.406067 14.563379,6.627447 14.681187,6.615944 14.711438,6.643477 15.26165,6.610901 15.293396,6.45875 15.337735,5.94659 15.44726,6.027629 15.488976,5.855984 16.204921,5.846642 16.212995,5.781279 16.189978,5.504961 16.560254,5.72237 16.678873,5.77585 16.626628,5.466767 16.686195,5.103945 16.894231,5.08641 16.896362,4.970333 17.150123,5.064842 17.480601,5.036986 17.32682,4.563058 17.408534,4.33513 17.67212,4.320865 17.703056,4.205126 17.81507,4.231446 18.177864,3.843936" slic3r:type="contour"/>
    <polygon style="fill: black" points="25.126085,5.771796 25.188546,5.831083 25.307995,5.832646 25.245629,5.661352" slic3r:type="hole"/>
    <polygon style="fill: white" points="25.554517,4.118095 25.535716,4.100496 25.61225,3.843938" slic3r:type="contour"/>
    <polygon style="fill: white" points="41.927524,31.547576 41.910828,31.697549 41.888199,31.754029 42.830572,32.572444 43.09128,32.745931 42.704473,33.071798 42.816252,33.243574 42.751762,33.324358 43.077619,33.582067 43.268992,33.878568 43.030099,34.9232 42.598549,35.764316 42.787648,35.96942 42.720013,36.137068 43.077831,36.534503 43.549124,36.953104 43.096935,37.302388 42.748287,37.699299 42.8664,37.904132 42.773529,37.995737 43.3006,38.548564 43.578488,38.984148 43.255304,39.590067 42.714214,40.257855 42.84564,40.436152 42.793196,40.511522 42.994539,40.762991 43.504672,41.319336 43.064991,41.626088 42.456468,42.164571 41.873484,41.539971 41.521372,41.027652 41.764827,40.800756 42.262695,40.438113 42.244308,40.414604 42.410993,40.225788 42.145764,39.868152 41.576104,39.315788 42.070716,38.631195 42.464856,38.000978 42.40198,37.920272 42.476523,37.761326 41.891656,37.262312 41.539892,36.799256 41.769495,36.509696 42.245145,36.107782 42.173972,36.024516 42.343772,35.763728 42.380172,35.730525 41.943411,35.242831 41.360872,34.800372 41.875867,33.606952 41.732527,33.449862 41.761077,33.31769 41.344975,33.058123 41.033888,32.740082 41.2769,32.326273 41.854496,31.764788 41.690604,31.610434 41.746555,31.498174 41.797352,31.444822" slic3r:type="contour"/>
    <polygon style="fill: white" points="42.483392,42.345936 42.488776,42.354616 42.478531,42.362988 42.471612,42.353612 42.480164,42.342004" slic3r:type="contour"/>
    <polygon style="fill: white" points="43.02274,43.14186 43.334176,43.576032 43.004672,43.982223 42.453573,44.546397 42.523804,44.644616 42.503862,44.666595 42.643723,44.843871 43.153216,45.4626 42.720915,45.744504 42.062212,46.213612 41.547855,45.588059 41.185764,45.081052 41.4266,44.904915 42.027983,44.516085 41.884651,44.314599 41.321827,43.663424 41.764487,43.194192 42.423132,42.43134" slic3r:type="contour"/>
    <polygon style="fill: white" points="42.50662,47.29154 42.868296,47.765611 42.617884,48.015183 42.256313,48.36327 42.706408,48.913896 42.38356,49.104963 41.592739,49.548115 41.167184,48.992084 40.754236,48.471216 40.90432,48.384067 41.208389,48.218929 40.856283,47.74624 41.151944,47.465327 42.004228,46.6327" slic3r:type="contour"/>
    <polygon style="fill: white" points="42.244651,51.317039 42.27688,51.354376 42.145133,51.421859 42.1618,51.534316 42.201444,51.6823 41.735688,52.421275 41.553422,52.691575 41.858976,53.073552 41.690624,53.127528 41.305797,53.235083 41.172608,53.574327 40.885521,54.208076 40.921968,54.278724 40.917219,54.289513 41.2126,54.78548 41.049351,54.809936 40.658821,54.87657 40.374939,55.521524 40.105987,56.074693 40.12724,56.145756 40.116454,56.163536 40.21858,56.445244 40.142979,56.44114 39.948992,56.439602 39.399263,57.34584 38.801959,57.704996 38.819112,57.89196 38.827612,57.947547 38.540024,57.862498 38.472772,57.902936 38.374563,57.882272 37.080784,58.356563 37.033596,58.996547 37.029564,59.197152 36.365444,58.876432 36.028955,58.742156 35.953536,58.769803 35.992533,58.727622 35.918372,58.698028 35.95658,57.738843 35.974804,57.496984 36.660696,57.765732 36.819377,57.83323 37.441055,57.160764 37.576236,57.00684 37.514311,56.558375 37.502731,56.435143 37.904341,56.520427 38.117728,56.180863 38.634092,55.288455 38.6254,55.263524 38.623092,55.255856 38.649734,55.256054 38.708504,55.116264 39.338748,54.473695 39.562726,54.18519 39.41818,53.921064 39.492791,53.907364 39.788584,53.863725 39.980496,53.324347 40.159566,52.724766 39.954524,52.483744 40.027684,52.459043 40.178683,52.411661 40.08394,51.952148 40.572485,51.153789 40.415348,50.939116 40.336248,50.843084 41.01552,50.511316 41.450495,50.333337 41.45182,50.33218 41.45213,50.332667 41.461895,50.328671" slic3r:type="contour"/>
    <polygon style="fill: white" points="34.670511,58.737803 35.1961,59.034508 35.028804,59.921031 34.982724,60.25432 34.450996,59.9207 33.926124,59.632716 34.057071,58.80744 34.127032,58.452988" slic3r:type="contour"/>
    <polygon style="fill: white" points="32.508381,59.556463 33.094696,59.953748 32.892267,60.70156 32.792796,61.151444 32.371929,60.839435 31.781844,60.44812 31.950445,59.750024 32.082776,59.291595" slic3r:type="contour"/>
    <polygon style="fill: white" points="30.286482,60.239048 30.922564,60.728808 30.716043,61.355892 30.561816,61.907628 30.232644,61.634552 29.585638,61.149 29.761098,60.564867 29.959619,60.011872" slic3r:type="contour"/>
    <polygon style="fill: white" points="28.120225,60.800011 28.796934,61.385332 28.596507,61.903248 28.37677,62.5406 28.127647,62.310963 27.438166,61.734888 27.611034,61.251811 27.882326,60.614608" slic3r:type="contour"/>
    <polygon style="fill: white" points="26.016692,61.217624 26.71034,61.904328 26.513549,62.329216 26.210408,63.026164 26.026967,62.833503 25.327161,62.160847 25.503059,61.762332 25.854364,61.07004" slic3r:type="contour"/>
    <polygon style="fill: white" points="23.971044,61.477236 24.655942,62.2693 24.835148,62.263696 24.633885,62.307647 24.668439,62.34898 24.6201,62.434316 24.551445,62.440254 24.45214,62.617395 24.05277,63.336956 23.916104,63.169292 23.398509,62.577423 23.382007,62.581027 23.347479,62.537417 22.518779,62.603758 22.454756,62.69848 22.428795,62.69621 22.39049,62.752263 21.895064,63.448136 21.783808,63.284156 21.367362,62.695933 21.335302,62.6985 21.270233,62.601395 20.444454,62.535692 20.408063,62.581008 20.399023,62.578836 20.293393,62.706844 19.737356,63.336956 19.628973,63.143939 19.237549,62.439666 19.170099,62.4343 19.131214,62.365788 19.121718,62.34888 19.157686,62.307247 18.954494,62.263568 19.135125,62.268012 19.408663,61.963 19.927142,61.357716 20.000951,61.492875 20.452729,62.24951 21.321133,62.252332 21.402459,62.137916 21.895064,61.459748 21.973864,61.571076 22.470066,62.257072 23.328954,62.253439 23.433322,62.065767 23.862984,61.357716" slic3r:type="contour"/>
  </g></svg>