<svg width="43.790126" height="63.590156" xmlns="http://www.w3.org/2000/svg" xmlns:svg="http://www.w3.org/2000/svg" xmlns:xlink="http://www.w3.org/1999/xlink" xmlns:slic3r="http://slic3r.org/namespaces/slic3r"><g xmlns="http://www.w3.org/2000/svg" slic3r:z="3.13549999999999e-005" id="layer94">
    <polygon style="fill: white" points="24.268038,61.72162 24.681962,62.191576 24.316483,62.86204 24.09156,63.279592 23.730285,62.842039 23.288626,62.341768 23.67094,61.647903 23.878582,61.298376" slic3r:type="contour"/>
    <polygon style="fill: white" points="26.382696,61.410396 26.778955,61.793036 26.438497,62.559892 26.283688,62.932268 25.845789,62.481695 25.405836,62.066628 25.745022,61.281879 25.894416,60.978432" slic3r:type="contour"/>
    <polygon style="fill: white" points="28.567109,60.942076 28.906324,61.229372 28.577152,62.118892 28.483896,62.403444 27.947016,61.917452 27.555782,61.597131 27.87072,60.69336 27.958276,60.482588" slic3r:type="contour"/>
    <polygon style="fill: white" points="34.621003,58.214907 35.417472,58.677816 35.334059,59.139012 35.234288,59.932548 35.084016,59.83962 34.512707,59.522476 33.699792,60.334383 33.134554,60.88756 32.999878,60.907538 32.991483,60.946255 32.949268,60.915046 32.936878,60.916884 32.930984,60.912985 32.376715,60.976428 30.888335,61.138059 30.751392,61.568871 30.707856,61.731068 30.091979,61.224538 29.91008,61.244292 29.842432,61.194163 29.01537,61.27472 29.811613,60.700866 29.841906,60.611368 29.858166,60.597852 30.057192,59.919124 30.085362,59.840724 30.463464,60.09474 30.760094,59.848187 31.15023,59.475276 31.824033,59.425524 32.176512,59.378451 32.27106,59.045916 32.344333,59.090379 32.72047,59.349862 33.106983,59.307952 34.179272,59.119083 34.215072,58.873835 34.376248,58.090828" slic3r:type="contour"/>
    <polygon style="fill: white" points="36.731183,57.188275 37.396364,57.478036 37.346303,58.147572 37.331908,58.745296 36.987675,58.587043 36.199459,58.262644 36.228164,57.575531 36.279227,57.018508" slic3r:type="contour"/>
    <polygon style="fill: white" points="38.542483,55.978467 39.037101,56.097407 39.046619,56.099695 39.12146,56.976036 39.17118,57.355036 38.602216,57.215304 37.984424,57.082212 37.875827,56.148863 37.850787,55.840752" slic3r:type="contour"/>
    <polygon style="fill: white" points="41.061469,52.851523 41.222024,53.17794 41.602903,53.959596 41.525792,53.976895 41.283943,54.028524 41.291732,54.069728 41.278002,54.072217 41.289668,54.553152 40.421037,55.20593 40.538027,55.598331 40.589512,55.752264 39.800096,55.733728 39.719409,55.733204 39.560464,55.852651 39.366444,55.853024 39.047876,56.02572 39.171448,55.203511 39.181313,55.126887 39.016288,54.61036 38.997644,54.547732 39.228211,54.547143 39.222536,54.385048 39.220412,54.164948 39.70306,53.802367 40.050229,53.516556 39.810568,53.04216 39.98646,53.002999 40.822079,52.812447 41.0155,52.608324" slic3r:type="contour"/>
    <polygon style="fill: white" points="41.1596,52.534275 41.14992,52.537243 41.145484,52.538744 41.136848,52.527992 41.143176,52.523219 41.151,52.516352" slic3r:type="contour"/>
    <polygon style="fill: white" points="42.002372,51.454676 42.286476,51.899211 41.935407,52.04478 41.116323,52.41914 40.727188,51.830956 40.385748,51.295363 40.876459,51.096208 41.556428,50.795128" slic3r:type="contour"/>
    <polygon style="fill: white" points="42.289399,48.676295 42.807216,49.4728 42.78192,49.490667 42.732496,49.526079 42.735436,49.529855 42.728282,49.53402 42.78036,49.619912 42.708399,49.675316 41.553636,50.60608 41.16994,49.999812 40.802512,49.356767 40.869332,49.301063 40.960459,49.224737 40.95774,49.220972 40.957801,49.220928 40.855324,49.065412 40.925715,49.02098 41.990048,48.261988" slic3r:type="contour"/>
    <polygon style="fill: white" points="42.719299,44.984063 42.795439,45.114603 43.266616,45.666236 43.314932,45.71998 43.197372,45.803712 43.226987,45.854485 43.257692,45.89568 43.289964,45.942264 42.60294,46.553607 42.162044,46.936252 41.351688,45.719084 41.319024,45.672416 41.39859,45.608008 41.354555,45.560223 41.334584,45.533851 42.009767,44.970832 42.095683,44.907528 42.430936,44.571039" slic3r:type="contour"/>
    <polygon style="fill: white" points="43.22548,40.085844 43.69782,41.0755 43.619936,41.20708 43.487596,41.369417 43.5204,41.405212 43.502884,41.427283 43.671103,41.590016 43.587579,41.650348 42.60278,42.520664 42.233375,42.184795 41.682468,41.497816 41.750648,41.432807 41.897085,41.317332 41.891879,41.308844 41.935719,41.265811 41.712956,40.910848 41.881571,40.702028 42.762524,39.393008" slic3r:type="contour"/>
    <polygon style="fill: white" points="42.978504,36.517632 42.906922,36.665772 43.235356,36.986844 43.781232,37.41196 43.411719,37.692492 42.784608,38.330652 42.17686,37.874076 41.79252,37.440163 42.061119,37.135348 42.697881,36.605166 42.650948,36.52678 42.751444,36.402596 42.807991,36.353988" slic3r:type="contour"/>
    <polygon style="fill: white" points="42.953368,32.570044 43.164495,33.068085 43.506971,33.35233 43.617172,33.4215 43.393415,33.608094 43.432304,33.699832 43.392639,33.744823 43.55762,33.968432 43.676964,34.229396 43.322567,35.329804 42.793616,36.26046 41.995251,34.846511 41.694784,34.414788 41.965855,33.885686 41.908904,33.82916 41.921692,33.78229 41.720295,33.660311 41.63228,33.572459 42.11374,32.885936 42.184032,32.820811 42.448948,31.84989" slic3r:type="contour"/>
    <polygon style="fill: white" points="42.098876,28.89432 42.08912,29.024109 42.056207,29.131147 42.59646,29.509074 43.115595,29.77335 42.744188,30.110511 42.26952,30.753698 41.562152,30.411164 41.146116,30.050952 41.363944,29.687952 42.002987,29.039061 41.927372,28.936052 41.969892,28.856141 41.998911,28.826872" slic3r:type="contour"/>
    <polygon style="fill: white" points="22.054189,2.624909 22.135495,2.625461 22.137181,2.628713 22.286413,2.629718 22.291508,2.621492 22.391512,2.623237 22.423725,2.576316 22.571582,2.374133 22.7135,2.627485 22.793175,2.626918 22.794725,2.630271 22.92147,2.632482 23.03407,2.6322 23.054714,2.611349 23.178058,2.616758 23.211247,2.579623 23.340594,2.449758 23.411026,2.626975 23.4999,2.630872 23.996768,2.649643 24.029848,2.833143 24.196672,2.757265 24.214042,2.928672 24.235779,3.199384 24.33934,3.399083 24.392888,3.678045 24.452016,3.699226 24.748183,3.646606 24.9937,3.639807 24.963839,3.885349 25.143122,3.933905 24.928533,4.175676 24.852635,4.799777 25.01776,4.870009 25.438166,4.921925 25.597942,4.974017 25.562436,5.10627 25.650878,5.125317 25.525761,5.242888 25.471126,5.446401 25.423703,5.515856 25.299681,6.027907 25.516546,6.108466 26.029256,6.23202 25.93023,6.326728 25.825531,6.472061 26.146516,6.637467 26.059127,7.097619 26.161499,7.137339 26.329684,7.181511 25.986906,7.477905 25.966144,7.587232 25.986864,7.763696 26.269345,7.846371 26.552077,7.955395 26.332438,8.234081 26.193774,8.411096 26.475017,8.44838 26.74477,8.545908 26.580962,8.904217 26.790758,8.884806 26.931148,8.907197 26.902222,9.091027 27.07817,9.051681 27.024599,9.204225 27.21355,9.150443 27.230352,9.25078 27.236184,9.539504 27.341096,9.61587 27.401276,9.575184 27.768772,9.373892 27.85106,9.622813 27.958765,10.118883 28.326881,9.828616 28.611642,9.63002 28.73222,9.953945 28.909458,10.514294 29.445183,10.090097 29.673956,9.923332 29.824702,10.328252 29.948559,10.690572 30.181883,10.729548 30.257408,10.681747 30.672138,10.382396 30.832126,10.277566 30.995056,10.768756 31.246865,10.798956 31.713659,10.829892 31.746511,10.81136 31.752139,10.811711 31.869818,10.731787 31.91441,10.705384 31.950287,10.82407 32.001248,10.82725 32.173338,10.814939 32.502102,11.130559 32.575616,11.185916 32.791668,11.057762 32.848258,11.186428 32.915455,11.441819 32.923738,11.448056 32.975385,11.594848 33.070423,11.477274 33.371358,11.241787 33.497523,11.428585 33.548201,11.362471 33.59932,11.272608 33.605201,11.278716 33.630799,11.270123 33.713208,11.390881 33.829616,11.511772 33.896862,11.474034 33.81144,11.148055 33.91186,11.234766 34.087662,11.27547 34.118083,11.174258 34.179932,10.988352 34.18116,10.943848 34.198151,10.909758 34.182863,10.838857 34.220854,10.864213 34.254788,10.796134 34.679675,10.841756 34.799163,10.532773 34.843164,10.380297 35.266399,10.681096 35.305223,10.705054 35.532624,10.471251 35.777908,10.238485 36.016496,10.649053 36.068457,10.741839 36.207387,10.67211 36.649392,10.498964 36.716047,10.888357 36.741619,11.087822 36.79946,11.078319 37.372084,11.047318 37.326176,11.361405 37.268603,11.661783 37.90788,11.825177 37.794804,12.056303 37.596149,12.42362 38.190008,12.715742 38.047435,12.887199 37.702938,13.253477 38.312971,13.6252 38.176519,13.752522 37.794566,14.068222 37.855944,14.258761 38.37334,14.562763 38.284751,14.638772 38.111297,14.777096 38.430816,15.351888 38.384626,15.499597 38.421224,15.52333 38.441124,15.532097 38.352035,15.603821 38.34608,15.622868 38.308439,15.657488 38.011412,16.314746 38.332275,16.492917 38.565952,16.568472 38.153612,16.905587 37.792726,17.312233 37.900701,17.387668 38.241071,17.537922 38.799512,17.671474 38.686464,17.773156 38.608135,17.881901 38.947656,18.119098 38.743903,18.781791 38.939835,18.842254 39.235012,18.890868 39.041628,19.130317 38.922101,19.347428 39.188899,19.452457 39.562624,19.5784 39.465731,20.063409 39.61582,20.259252 39.776921,20.45844 39.955079,20.50776 40.048668,20.522504 39.957595,20.681824 39.995428,20.728602 39.980299,20.759438 40.087624,20.896026 40.702776,21.898582 40.75343,22.046669 40.772704,22.048924 40.761055,22.065057 41.27096,23.64901 41.291863,23.903158 41.391236,23.946958 41.406178,24.019131 41.593264,24.060328 41.539447,24.12626 41.459393,24.276176 41.698072,25.429069 41.687929,26.128224 41.921904,26.259178 41.931133,26.435816 42.41978,26.617632 42.261547,26.781928 41.974353,27.23945 41.820004,28.16861 41.445282,27.638381 41.156375,27.539047 40.483988,27.062942 40.552131,26.924132 40.764949,26.675714 40.740768,26.641498 40.897033,26.28848 39.909722,24.80511 39.712016,24.695594 39.726104,24.660385 39.756299,24.6195 39.802742,24.493021 39.035467,23.051243 38.965943,22.842083 38.948242,22.834611 38.943984,22.832432 38.951346,22.809678 38.945572,22.786828 38.480422,21.487278 38.424007,21.469821 38.416425,21.441424 38.322004,21.425176 38.268416,21.406184 38.34215,21.163251 38.329575,21.116159 38.191128,20.664963 37.948468,20.528588 37.79952,20.492866 37.890296,19.897382 37.930095,19.791927 37.846243,19.77343 37.397636,19.643698 37.635427,19.207072 37.695194,19.103977 37.442499,18.918659 37.06658,18.75449 37.181507,18.46466 37.214865,18.359653 36.881532,18.197918 37.003192,18.0208 37.493042,17.483968 37.531444,17.363084 36.896596,17.077236 36.603408,16.896664 37.059075,16.339683 36.92,16.169678 36.464276,15.747476 36.478693,15.724147 36.459244,15.711533 36.465892,15.70437 36.49654,15.680257 36.501288,15.669314 36.508633,15.661845 36.724771,15.157264 36.795012,14.931989 36.38196,14.670722 36.512956,14.551133 36.997509,14.168034 36.933204,14.129167 36.324924,13.791089 36.506419,13.631521 36.824838,13.353296 36.238536,13.117179 36.418872,12.924123 36.569987,12.756883 36.111059,12.676667 36.26639,12.375965 35.925976,12.406461 35.951209,12.158736 35.721784,12.248628 35.685604,12.105945 35.54317,12.235752 35.404854,12.150096 35.42786,12.287398 35.4359,12.377746 35.295989,12.347196 35.270284,12.554473 35.107452,12.529233 35.051926,12.538349 35.052276,12.728183 34.911967,12.686155 34.657782,12.603069 34.473319,12.633358 34.395972,13.111495 33.954246,12.879504 33.834836,13.020908 33.740532,13.262107 33.301576,12.884886 33.018072,13.199548 32.95885,12.94378 32.862213,12.719786 32.42621,12.760376 32.349336,12.810609 32.289821,12.810408 32.128238,12.938553 32.118946,12.87237 32.100345,12.809773 31.79126,12.808737 31.356519,12.42899 31.271982,12.483067 31.181046,12.550424 31.130898,12.23191 31.063056,12.17265 31.061899,12.167924 30.573996,11.850941 30.383823,11.988902 30.180854,12.154331 30.069241,11.636756 30.017028,11.463852 29.710757,11.327093 29.393439,11.582468 29.117738,11.834373 29.004075,11.433242 28.865309,11.045496 28.639593,11.029015 28.385338,11.233247 28.048086,11.545151 27.960288,11.245728 27.850536,10.935709 27.669253,10.910558 27.514042,11.007922 27.380696,10.975009 27.051452,11.238816 27.00178,11.034072 26.956534,10.870315 26.616057,10.786276 26.427069,10.725608 26.30606,10.76579 26.267793,10.742912 26.124356,10.814285 26.11364,10.719001 26.10744,10.647046 25.485398,10.275155 25.400543,10.160706 25.361296,10.161454 25.374808,10.125994 25.364,10.111416 25.369259,10.084357 25.355261,10.050397 25.076033,9.415439 24.974079,9.39654 24.87924,9.375632 24.989545,9.218765 24.954458,9.13898 24.975211,9.094884 24.933777,8.989548 24.739559,8.61316 24.62411,8.581116 24.56703,8.560672 24.644016,8.471566 24.601419,8.420958 24.50654,8.363412 24.53333,7.905388 24.527351,7.835865 24.34621,7.762759 24.406428,7.66387 24.502282,7.544277 24.498576,7.501177 24.681753,7.273125 24.70376,7.079655 24.556792,7.042631 24.070051,6.839262 24.355095,6.356539 24.220064,6.31093 23.885886,6.302722 24.020657,6.028703 24.0436,5.901855 23.640564,5.742848 23.826119,5.305231 23.49227,5.38035 23.602868,4.996707 23.621182,4.806898 23.466557,4.767841 23.18132,4.961507 23.18136,4.805359 23.175101,4.743114 22.942277,4.729515 22.89693,4.723115 22.867592,4.760212 22.859045,4.721723 22.671308,4.722614 22.76484,4.606592 22.832376,4.552667 22.775831,4.203539 22.491056,4.635689 22.454728,4.688081 22.291864,4.293049 22.213459,4.150953 21.934189,4.628937 21.895064,4.690938 21.696636,4.309059 21.605257,4.161331 21.372657,4.621558 21.335372,4.688084 21.074445,4.261425 20.969657,4.594901 21.118629,4.722648 20.934118,4.718323 20.922566,4.760206 20.906812,4.73991 20.886477,4.714214 20.70208,4.699316 20.628609,4.710988 20.608784,4.961478 20.466248,4.872175 20.207564,4.698027 20.297818,5.380359 19.857667,5.360294 19.977886,5.577631 20.149526,5.742879 19.918287,5.750438 19.78722,5.804687 19.904256,6.302722 19.408245,6.47149 19.517998,6.635423 19.720094,6.839263 19.377348,6.861832 19.137882,6.96195 19.219296,7.413867 19.291506,7.501126 19.290732,7.584489 19.443898,7.762756 19.364508,7.761417 19.288823,7.790527 19.28351,8.36375 19.159787,8.485052 19.193056,8.524203 19.223136,8.560673 19.08413,8.590266 19.053417,8.669452 18.829346,9.125861 18.835712,9.138998 18.805745,9.213201 18.867884,9.305684 18.910906,9.375604 18.728147,9.405342 18.708149,9.454857 18.421482,10.089148 18.426114,10.111378 18.417783,10.123013 18.428822,10.161482 18.391411,10.160211 18.304607,10.275281 17.733696,10.597206 17.679226,10.633981 17.665738,10.814285 17.573414,10.777693 17.509845,10.748334 17.484002,10.765781 17.281253,10.699949 17.04697,10.744789 16.863976,10.807262 16.738682,11.238808 16.55648,11.122283 16.362942,10.978311 16.276129,11.007948 16.045498,10.867934 15.981387,10.878233 15.925539,11.057013 15.74204,11.545151 15.481034,11.343051 15.109848,11.018226 14.94456,11.044776 14.826166,11.429816 14.672373,11.834387 14.30434,11.547264 14.037824,11.314864 13.814277,11.411883 13.704525,11.859631 13.609244,12.154351 13.140602,11.82378 12.758917,12.058582 12.727093,12.172625 12.687156,12.20189 12.645267,12.419746 12.60911,12.550398 12.393378,12.417161 12.276224,12.503007 11.998876,12.808727 11.784068,12.786251 11.712033,12.791364 11.661885,12.938555 11.590001,12.890853 11.478874,12.807915 11.440811,12.810617 11.293004,12.717854 11.191231,12.699243 11.018292,12.687678 11.004199,12.733738 10.772073,13.199557 10.494308,12.96795 10.411565,12.885518 10.220099,13.049943 10.049617,13.262125 9.723384,12.90467 9.394153,13.111476 9.356231,12.828975 9.326203,12.635007 9.077635,12.610181 8.737824,12.728183 8.748436,12.633778 8.749691,12.577428 8.519842,12.554471 8.44955,12.347932 8.354255,12.377746 8.390499,12.197869 8.327326,12.162282 8.236978,12.245373 8.139913,12.065527 8.063738,12.085915 8.068317,12.248627 7.834473,12.05486 7.772786,12.095475 7.86413,12.406469 7.600289,12.323745 7.462731,12.307629 7.679046,12.676708 7.426117,12.704032 7.213177,12.739157 7.551584,13.117187 7.320833,13.222414 6.975864,13.364311 7.465199,13.791136 7.271824,13.911528 6.825655,14.16425 6.837155,14.236241 6.876306,14.270859 7.408166,14.670718 7.278024,14.752376 7.02359,14.913126 7.24052,15.524182 7.295767,15.687275 7.330909,15.711418 7.313228,15.720577 7.325886,15.747302 7.225984,15.862236 6.712002,16.430967 6.993884,16.756738 7.186739,16.896604 6.695872,17.08293 6.257411,17.342008 6.287598,17.427391 6.344078,17.599367 6.473179,17.777121 6.9086,18.197932 6.756537,18.235964 6.57991,18.317459 6.723492,18.754658 6.11541,19.166663 6.234307,19.381414 6.3925,19.643706 6.042852,19.704046 5.768847,19.779842 5.880396,20.21513 5.990608,20.492874 5.612178,20.682095 5.564734,20.866924 5.441447,21.241129 5.487446,21.356123 5.521747,21.406136 5.380733,21.425409 5.366109,21.469796 5.347231,21.473971 5.321065,21.601372 4.837873,22.822607 4.846171,22.832372 4.834164,22.834137 4.754739,23.051068 4.089734,24.462008 4.008179,24.55955 4.023175,24.590572 4.011443,24.615677 4.078104,24.695641 4.045187,24.700189 3.952692,24.741403 3.325273,26.084044 2.964987,26.492213 3.049322,26.641494 2.998303,26.73878 3.306134,27.06296 3.167143,27.101364 2.649018,27.40481 2.559937,27.574672 1.970121,28.168626 1.935293,27.51611 1.748299,27.307639 1.370349,26.617646 1.563475,26.497934 1.874423,26.375621 1.86821,26.259212 2.23394,26.027619 2.361576,24.417588 2.196863,24.060293 2.27315,24.024607 2.395158,23.993975 2.398888,23.94693 2.595842,23.846203 3.011354,22.194097 3.030318,22.079988 3.017392,22.048954 3.017597,22.04888 3.052923,22.034391 3.087339,21.898566 3.819572,20.789249 3.794654,20.728602 3.827577,20.685959 3.772217,20.58699 3.741425,20.522539 4.026619,20.428168 4.094753,20.339921 4.353276,20.014374 4.315658,19.721524 4.227494,19.578408 4.707835,19.366749 4.791208,19.338092 4.555129,18.890838 5.05751,18.725144 5.132745,18.707487 5.05474,18.385626 4.842495,18.119044 5.067945,18.031084 5.180735,17.947505 4.990611,17.671476 5.193375,17.57652 5.98872,17.327288 5.465338,16.850132 5.224174,16.568475 5.810938,16.227764 5.706756,15.944803 5.57006,15.740015 5.444136,15.622991 5.440402,15.609209 5.369974,15.550995 5.349,15.532139 5.41156,15.490198 5.359318,15.351785 5.611438,14.966681 5.703017,14.787014 5.416791,14.562762 5.528858,14.493559 5.935564,14.251204 6.002008,14.045415 5.477161,13.625166 5.651792,13.528235 6.115127,13.252519 6.073325,13.203737 5.600087,12.715758 5.816944,12.631789 6.220825,12.443588 6.187896,12.378117 5.882273,11.825152 6.144009,11.795507 6.546261,11.705835 6.527806,11.590061 6.418094,11.047276 6.734393,11.106999 7.058461,11.134466 7.088017,10.947061 7.140717,10.498948 7.496213,10.686591 7.70885,10.776786 7.854385,10.523249 8.012232,10.238485 8.365692,10.608309 8.45735,10.697712 8.800514,10.467229 8.946972,10.380305 9.122924,10.812332 9.535383,10.796136 9.559526,10.847083 9.607256,10.838829 9.613186,10.866856 9.609012,10.944615 9.625678,11.216501 9.978687,11.148076 10.020907,11.336363 10.180665,11.259877 10.360569,11.48663 10.418784,11.241758 10.513074,11.443316 10.700557,11.615192 10.850724,11.496638 10.866426,11.448037 10.938163,11.387514 10.998486,11.057757 11.06207,11.126479 11.166449,11.19491 11.616815,10.814941 11.848011,10.813003 11.865933,10.749565 11.875743,10.705384 12.021937,10.811545 12.043644,10.811363 12.061014,10.821834 12.414419,10.783201 12.813637,10.746478 12.910717,10.442456 12.958001,10.277566 13.359415,10.581461 13.508561,10.682553 13.530742,10.680513 13.586436,10.717171 13.853633,10.674003 14.03564,10.167578 14.116199,9.923332 14.438603,10.189582 14.884264,10.524431 15.092326,9.923363 15.178498,9.630018 15.436195,9.847475 15.766328,10.089018 15.879489,10.027387 15.968696,9.702644 16.02134,9.373896 16.21098,9.519515 16.311521,9.579889 16.368438,9.521482 16.594624,9.346572 16.576626,9.150423 16.654188,9.193296 16.711952,9.051697 16.909041,8.99427 16.85897,8.9072 17.044878,8.954692 17.118802,8.933152 17.239843,8.815699 17.196481,8.733774 17.045364,8.545936 17.357199,8.535855 17.639439,8.467704 17.435314,8.20807 17.23803,7.955408 17.595665,7.860033 17.829872,7.781093 17.842695,7.681055 17.837297,7.638229 17.588688,7.381167 17.460472,7.1815 17.764189,7.058269 17.75419,6.978938 17.643622,6.637472 17.867147,6.559747 17.946385,6.518137 17.760868,6.232021 17.960534,6.156398 18.532012,5.982144 18.487956,5.707642 18.319028,5.44645 18.291995,5.325059 18.195557,5.217455 18.139268,5.125319 18.245346,5.080703 18.192212,4.973993 18.482464,4.980974 18.935911,4.790259 18.886213,4.302191 18.762861,4.143449 18.64698,3.93395 18.841827,3.86627 18.836028,3.809319 18.796404,3.639859 19.203467,3.740654 19.396362,3.673652 19.450821,3.398786 19.577269,3.122337 19.59342,2.757308 19.65372,2.798526 19.711713,2.828401 19.7935,2.649594 20.363629,2.626438 20.449552,2.449744 20.595296,2.61703 20.73536,2.611341 20.7476,2.624623 20.87336,2.622636 21.068874,2.622277 21.090756,2.583616 21.218536,2.374151 21.386715,2.621693 21.498652,2.621487 21.499924,2.623586 21.681407,2.622382 21.737453,2.622761 21.762124,2.583746 21.895064,2.373305" slic3r:type="contour"/>
    <polygon style="fill: white" points="1.862812,28.936102 1.800117,29.044278 2.249352,29.682607 2.644011,30.050887 2.246937,30.222468 1.520745,30.753424 0.960732,30.211827 0.674534,29.773274 1.07068,29.465066 1.729895,29.118299 1.691293,28.894374 1.756189,28.84505 1.791265,28.826928" slic3r:type="contour"/>
    <polygon style="fill: white" points="1.668283,32.681375 1.745164,33.095662 2.060982,33.488134 2.15787,33.572396 1.864438,33.7384 1.881257,33.82904 1.84791,33.858078 1.997954,34.130456 2.095369,34.414648 1.642491,35.39162 0.996497,36.260648 0.352382,34.688808 0.113162,34.2294 0.421026,33.779793 0.357774,33.699804 0.387823,33.64326 0.240242,33.513092 0.172949,33.421558 0.824233,32.82207 1.341111,31.849464" slic3r:type="contour"/>
    <polygon style="fill: white" points="1.139226,36.526748 1.091471,36.620203 1.480127,37.020608 1.997606,37.440136 1.638461,37.696303 1.005503,38.330656 0.412722,37.866123 0.008893,37.411936 0.289785,37.113551 0.882132,36.642919 0.811661,36.517612 0.9239,36.398484 0.982188,36.353948" slic3r:type="contour"/>
    <polygon style="fill: white" points="1.546485,40.01858 2.077173,40.910888 2.002918,41.075859 1.868606,41.281749 1.898241,41.308811 1.888489,41.326317 2.107657,41.497764 2.026489,41.569104 1.187347,42.520664 0.781601,42.223344 0.11902,41.590048 0.171912,41.529843 0.283294,41.421303 0.269686,41.405256 0.31299,41.354852 0.092308,41.075616 0.232812,40.857303 1.0276,39.393008" slic3r:type="contour"/>
    <polygon style="fill: white" points="1.727288,44.889276 1.957067,45.137641 2.42039,45.508075 2.455568,45.53386 2.390034,45.604157 2.44456,45.648244 2.471149,45.672615 1.961625,46.460927 1.628062,46.936388 0.570672,46.003499 0.500171,45.94224 0.591099,45.820047 0.585853,45.815587 0.590828,45.807582 0.515237,45.753391 0.475191,45.719836 1.033057,45.0504 1.125407,44.947523 1.359397,44.571068" slic3r:type="contour"/>
    <polygon style="fill: white" points="2.223866,48.531747 2.934827,49.065436 2.900274,49.119392 2.830462,49.225247 2.987654,49.356868 2.906883,49.484287 2.236366,50.606059 1.662425,50.167311 1.009758,49.619844 1.033231,49.584104 1.062919,49.534959 1.054665,49.529828 1.057502,49.526245 0.982914,49.4728 1.010831,49.43412 1.800007,48.261936" slic3r:type="contour"/>
    <polygon style="fill: white" points="2.988009,51.105379 3.40438,51.295352 3.167593,51.646516 2.673738,52.419096 2.111621,52.178912 1.503656,51.8992 1.801923,51.459219 2.233706,50.795172" slic3r:type="contour"/>
    <polygon style="fill: white" points="2.653266,52.527636 2.647523,52.534703 2.644559,52.538472 2.63033,52.533972 2.634949,52.525508 2.638999,52.5159" slic3r:type="contour"/>
    <polygon style="fill: white" points="2.975592,52.813232 3.240779,52.872531 3.97953,53.042096 3.909127,53.179408 3.744555,53.504887 4.569808,54.165104 4.558068,54.549674 4.736894,54.549276 4.792478,54.547712 4.611737,55.099808 4.742243,56.025808 4.421962,55.852851 4.372382,55.852844 4.229133,55.852536 4.072857,55.737777 3.37915,55.751588 3.20064,55.752288 3.359558,55.213973 3.079576,55.008371 2.500538,54.553284 2.522165,54.273296 2.523772,54.07436 2.498449,54.069756 2.508774,54.027818 2.18725,53.959636 2.234372,53.863876 2.743308,52.822342 2.774561,52.608276" slic3r:type="contour"/>
    <polygon style="fill: white" points="5.859452,56.459344 5.805704,57.082284 5.02573,57.269411 4.618947,57.35504 4.675948,56.663292 4.747718,56.064658 4.752402,56.097892 5.688063,55.903827 5.939346,55.84076" slic3r:type="contour"/>
    <polygon style="fill: white" points="7.521136,57.446443 7.590629,58.262671 7.055616,58.504256 6.458187,58.745276 6.423652,58.301251 6.393793,57.478024 7.081707,57.211308 7.510931,57.018512" slic3r:type="contour"/>
    <polygon style="fill: white" points="9.444377,58.334056 9.595993,59.097718 11.112748,59.332595 11.519067,59.045916 11.534017,59.12178 11.601145,59.36447 12.639952,59.475296 13.349384,60.091236 13.645081,59.887495 13.704734,59.840724 13.907254,60.575587 13.94812,60.611068 13.962451,60.654386 14.774282,61.274824 13.959426,61.186451 13.879919,61.244252 13.723732,61.224074 13.227698,61.625227 13.082267,61.731064 12.883411,61.115509 12.108631,61.015412 10.862066,60.911127 10.853128,60.916924 10.84253,60.915143 10.808631,60.939736 10.798608,60.946252 10.787598,60.905908 10.740782,60.898039 10.655767,60.887644 9.970068,60.114524 9.319758,59.516731 8.555837,59.93252 8.518649,59.730532 8.372655,58.677815 8.82932,58.439532 9.413886,58.090832" slic3r:type="contour"/>
    <polygon style="fill: white" points="16.050171,61.142168 16.234343,61.597076 15.553387,62.204212 15.306274,62.403447 15.032821,61.673428 14.883782,61.229476 15.674057,60.619263 15.83184,60.482588" slic3r:type="contour"/>
    <polygon style="fill: white" points="18.128836,61.537583 18.384276,62.066732 17.814777,62.64536 17.50642,62.932268 17.235807,62.326867 17.011171,61.793036 17.671141,61.198816 17.895732,60.978432" slic3r:type="contour"/>
    <polygon style="fill: white" points="20.173546,61.783212 20.501502,62.341768 20.022088,62.917083 19.698568,63.279592 19.418788,62.76692 19.108164,62.191436 19.655102,61.591703 19.911544,61.298372" slic3r:type="contour"/>
    <polygon style="fill: white" points="22.207097,61.853427 22.596324,62.390912 22.186531,62.9945 21.895064,63.407292 21.587815,62.952611 21.193817,62.391043 21.644842,61.759159 21.895064,61.414599" slic3r:type="contour"/>
  </g></svg>