<svg width="43.790126" height="63.590156" xmlns="http://www.w3.org/2000/svg" xmlns:svg="http://www.w3.org/2000/svg" xmlns:xlink="http://www.w3.org/1999/xlink" xmlns:slic3r="http://slic3r.org/namespaces/slic3r"><g xmlns="http://www.w3.org/2000/svg" slic3r:z="4.75249999999998e-005" id="layer143">
    <polygon style="fill: white" points="4.598032,40.022916 4.529075,40.168932 4.491613,40.229528 3.989606,40.235719 4.41912,39.937084 4.458847,39.911564" slic3r:type="contour"/>
    <polygon style="fill: white" points="4.40018,37.359344 4.414986,37.395544 4.964835,37.803684 5.344338,38.046004 5.05238,38.731131 4.469314,39.794736 4.198202,39.7802 3.548466,40.115395 3.735317,39.525051 4.399306,37.383904 4.393839,37.379847 4.395207,37.372388 4.398481,37.355568" slic3r:type="contour"/>
    <polygon style="fill: white" points="5.125368,35.802928 5.317952,35.96336 4.628519,36.447468 4.327784,36.634048 3.701684,36.002163 3.401401,35.733432 3.933309,35.428372 4.38285,35.182652" slic3r:type="contour"/>
    <polygon style="fill: white" points="5.261811,31.336944 5.57038,31.60832 4.999359,31.971206 4.525713,32.22588 4.033625,31.680054 3.653884,31.314482 4.095804,31.088432 4.682171,30.811136" slic3r:type="contour"/>
    <polygon style="fill: white" points="5.816584,27.344569 6.093362,27.61118 5.508092,27.931086 5.01138,28.15675 4.54903,27.594718 4.212882,27.233624 4.705987,27.001028 5.272483,26.767692" slic3r:type="contour"/>
    <polygon style="fill: white" points="6.6508,23.894206 6.861098,24.130376 6.205225,24.399219 5.738441,24.570778 5.296122,23.945349 5.03786,23.59696 5.634134,23.348434 6.138171,23.182112" slic3r:type="contour"/>
    <polygon style="fill: white" points="7.521483,19.43897 8.086619,19.475424 8.367663,20.134525 8.353708,20.68307 7.558429,20.755958 7.789447,21.190689 7.921779,21.384042 7.334183,21.36133 6.854708,21.468561 6.329483,20.834778 6.158874,20.495368 6.860336,20.391006 7.026898,20.366809 7.017352,19.66833 7.023505,19.100064" slic3r:type="contour"/>
    <polygon style="fill: white" points="9.381138,16.805966 10.264546,17.122978 10.246509,17.30651 10.284194,17.324522 10.284602,17.324774 10.284278,17.326134 10.244332,17.328659 10.216072,17.616234 10.045864,18.710742 9.469949,18.642628 8.83307,18.377201 9.017108,17.706154 9.19437,16.755961" slic3r:type="contour"/>
    <polygon style="fill: white" points="12.332324,15.615005 12.629272,15.864834 12.919002,15.875405 12.835697,16.527696 12.764354,17.104572 12.480177,17.088868 12.217321,17.076005 12.133328,17.368664 12.035917,17.321549 11.738401,17.113895 11.481626,17.133004 10.449102,17.213636 10.431375,16.468034 10.363293,15.955137 11.401334,15.866911 11.566807,15.400468 11.67491,15.160792" slic3r:type="contour"/>
    <polygon style="fill: white" points="14.402138,14.427739 14.982079,15.022328 14.561906,15.993946 14.371027,16.429649 13.866979,15.936203 13.483581,15.546173 13.834832,14.751421 14.128581,14.164023" slic3r:type="contour"/>
    <polygon style="fill: white" points="22.33546,13.270487 22.424279,13.41429 22.521548,13.414077 22.914,12.836713 23.081247,12.598827 23.520517,13.412254 23.537604,13.412233 23.538643,13.414059 23.869725,13.409223 24.216943,12.950429 24.352594,12.774868 24.662889,13.400484 24.678368,13.400341 24.678864,13.401278 25.119491,13.387069 25.555763,13.377075 25.73541,13.158853 25.799266,13.079974 25.93578,13.368014 26.150692,13.357091 26.762456,13.334529 26.843203,13.669261 26.945511,14.179512 27.52307,13.528093 27.574349,13.63686 28.179528,14.85601 27.769324,15.319726 27.344496,15.795217 27.166968,15.409273 26.797226,14.626471 26.763144,14.628706 26.746335,14.593152 26.256232,14.616411 26.198912,14.688279 25.639604,15.359796 25.531042,15.136839 25.299666,14.661807 25.289927,14.662269 25.280631,14.642796 24.544681,14.661343 24.229093,15.077253 24.163528,14.951963 24.020925,14.674542 24.02004,14.674564 24.01531,14.665077 23.607324,14.665186 23.185825,14.668308 23.014892,14.919893 22.972498,14.844476 22.874483,14.667874 22.271683,14.665213 22.02056,14.665024 21.895064,14.87113 21.859167,14.810766 21.77107,14.666017 21.16918,14.668892 20.914448,14.669044 20.775232,14.919892 20.730909,14.849457 20.610252,14.671407 20.138377,14.672671 19.772629,14.669451 19.770087,14.674565 19.768074,14.674536 19.561034,15.077252 19.484436,14.967415 19.257713,14.667306 19.104439,14.665134 18.506805,14.648447 18.500237,14.662277 18.490458,14.661903 18.150538,15.359791 18.004283,15.174016 17.54427,14.619576 17.043216,14.594092 17.026986,14.628706 16.994294,14.626753 16.830684,14.979327 16.445651,15.795208 16.172107,15.485179 15.610591,14.856056 15.847513,14.352562 16.267044,13.528112 16.323681,13.592505 16.852361,14.189797 16.916621,13.904432 17.02767,13.334542 17.846424,13.370412 17.847531,13.36826 17.850568,13.368352 17.941538,13.176177 17.99084,13.079986 18.238281,13.380098 18.940723,13.401378 19.10881,13.405846 19.111753,13.400362 19.122426,13.40051 19.332072,12.977799 19.43754,12.774875 19.918663,13.411589 20.25024,13.416202 20.252522,13.412233 20.264834,13.412259 20.565656,12.855436 20.70888,12.59883 21.175579,13.286655 21.264517,13.414404 21.36226,13.414614 21.729288,12.808234 21.895063,12.542238" slic3r:type="contour"/>
    <polygon style="fill: white" points="29.893345,14.685525 30.306587,15.546236 29.630842,16.213285 29.41912,16.429651 29.138378,15.775305 28.808188,15.02227 29.257713,14.585182 29.661576,14.164021" slic3r:type="contour"/>
    <polygon style="fill: white" points="32.353308,15.82116 32.365748,15.820905 32.376289,15.850977 32.806397,15.881667 33.426861,15.955146 33.431143,16.41699 33.341142,17.213642 32.006242,17.111456 31.656768,17.368636 31.625934,17.274185 31.569766,17.077026 31.025718,17.104536 30.987944,16.809938 30.871056,15.875422 31.173694,15.860203 31.214778,15.83092 31.213396,15.826067 31.228225,15.818232 31.29014,15.773475 31.294895,15.773814 31.95142,15.305868 32.115218,15.160778" slic3r:type="contour"/>
    <polygon style="fill: white" points="34.688071,17.109357 34.957071,18.377144 34.264556,18.461047 33.744268,18.710768 33.709712,18.260142 33.559426,17.332016 33.505871,17.326112 33.505689,17.325259 33.505538,17.324711 33.554287,17.300278 33.52558,17.122988 33.838083,17.037628 34.595756,16.755959" slic3r:type="contour"/>
    <polygon style="fill: white" points="36.755312,20.092697 36.756633,20.366826 37.270576,20.443244 37.631268,20.49535 37.17212,21.034449 36.935759,21.46862 36.15748,21.451174 35.868348,21.384068 36.227211,20.682053 35.672003,20.636896 35.436428,20.683092 35.755172,20.26493 35.703788,19.475454 36.2729,19.121292 36.766704,19.100142" slic3r:type="contour"/>
    <polygon style="fill: white" points="38.363916,23.478006 38.752264,23.596924 38.37394,24.132021 38.051724,24.570786 37.253384,24.248304 36.929036,24.130394 37.339804,23.542523 37.652032,23.182144" slic3r:type="contour"/>
    <polygon style="fill: white" points="39.146875,27.063565 39.577252,27.23362 39.209876,27.680405 38.778804,28.156728 38.041907,27.763913 37.696768,27.611194 38.118299,27.156768 38.517644,26.767692" slic3r:type="contour"/>
    <polygon style="fill: white" points="39.688784,31.10738 40.136252,31.314474 39.747732,31.744029 39.264411,32.22588 38.548792,31.78083 38.219748,31.608318 38.661383,31.204908 39.107956,30.811136" slic3r:type="contour"/>
    <polygon style="fill: white" points="40.05462,35.55282 40.38872,35.733424 39.817919,36.3055 39.462344,36.634048 38.64746,36.06996 38.472168,35.96336 39.037563,35.490664 39.407312,35.182636" slic3r:type="contour"/>
    <polygon style="fill: white" points="39.392999,37.362947 39.396284,37.379848 39.390902,37.38335 39.760032,38.511788 40.241684,40.115352 40.170911,40.123156 39.363379,39.811111 39.320784,39.794652 38.938028,38.973008 38.445784,38.045936 39.058451,37.599688 39.374859,37.393789 39.387824,37.364915 39.391644,37.355568" slic3r:type="contour"/>
    <polygon style="fill: white" points="39.800496,40.235728 39.354416,40.250556 39.298567,40.229548 39.192148,40.02294 39.294988,39.939759 39.331336,39.9116" slic3r:type="contour"/>
  </g></svg>