<svg width="43.790126" height="63.590156" xmlns="http://www.w3.org/2000/svg" xmlns:svg="http://www.w3.org/2000/svg" xmlns:xlink="http://www.w3.org/1999/xlink" xmlns:slic3r="http://slic3r.org/namespaces/slic3r"><g xmlns="http://www.w3.org/2000/svg" slic3r:z="1.98049999999999e-005" id="layer59">
    <polygon style="fill: white" points="22.155546,2.819184 22.276708,2.815432 22.281272,2.834558 22.525631,2.840644 22.525647,2.84058 22.526819,2.840673 22.634397,2.843353 22.675182,2.776992 22.926464,2.359408 23.149982,2.858131 23.268756,2.861813 23.277181,2.900824 23.617607,2.928112 23.651205,2.882056 23.95612,2.482824 24.150815,2.970323 24.2956,2.981621 24.310606,3.057379 24.559996,3.095584 24.60082,3.051469 25.013168,2.688199 25.19923,3.191321 25.417066,3.217068 25.453805,3.412244 25.554121,3.444743 25.710601,3.284331 26.18635,3.039404 26.326182,3.578129 26.377043,3.881384 26.819291,3.918782 27.099206,3.894373 27.310178,3.806371 27.333454,3.811765 27.472682,3.74509 27.564396,3.713224 27.58385,3.869787 27.668922,3.889502 27.83389,3.896346 27.994442,4.444632 28.176632,4.735739 28.263309,4.698419 28.789376,4.538702 28.833376,4.925041 28.829726,5.407984 29.411928,5.558091 29.863865,5.370174 29.96152,5.3413 29.985232,5.521575 30.119617,5.561594 30.29395,5.526655 30.556137,5.938111 30.805097,6.139016 31.10395,5.964775 31.1649,6.170342 31.199172,6.440329 31.944828,6.682257 32.309266,6.412842 32.389602,6.643312 32.439583,6.855516 32.646006,6.903358 33.276438,7.017879 33.290132,7.007432 33.35715,7.027632 33.574048,6.875041 33.611376,7.007138 33.635263,7.111458 34.692807,7.430213 34.733134,7.44042 34.736028,7.438531 34.739059,7.440396 34.756276,7.43169 34.75882,7.452555 34.974336,7.585159 35.39404,8.227557 35.582899,8.17724 35.736071,8.145387 35.644513,8.537475 35.819384,8.55671 36.189524,8.619523 36.494988,9.011631 36.522733,9.047844 36.583736,9.043162 36.561484,9.098418 36.56504,9.103059 36.564283,9.104327 36.984863,9.951763 37.073541,10.144178 37.099143,10.145365 37.100278,10.148141 37.387116,10.156188 37.292883,10.323344 37.224363,10.451598 37.418432,10.926214 37.569155,11.317484 37.586536,11.318723 37.591057,11.329747 38.13552,11.366604 37.947651,11.658587 37.814137,11.872067 38.036751,12.460132 38.263304,12.474778 38.7926,12.50383 38.539084,12.893098 38.360056,13.175843 38.444991,13.371655 38.460836,13.372535 38.475129,13.403039 38.991847,13.443066 39.364188,13.467703 39.072227,13.900303 38.830015,14.294749 38.90664,14.302483 38.913504,14.321769 39.652328,14.423029 39.895516,14.455671 39.550828,14.914995 39.441495,15.077625 39.79258,15.391654 39.879684,15.462336 40.019111,15.503416 40.063391,15.541738 40.337115,15.604135 40.399091,15.618861 40.293635,15.741 40.373144,15.80981 40.491259,15.895831 40.612863,16.844833 40.639957,17.055121 40.65074,17.058762 40.650739,17.058988 40.851212,17.139688 40.751455,17.239258 40.673826,17.318008 40.678476,17.354092 40.64988,17.382326 40.647868,18.1399 40.642917,18.914378 40.688144,18.935356 40.684631,19.002777 40.896608,19.113096 41.309992,19.322979 40.932104,19.62642 40.961288,19.674538 40.904466,19.722953 41.254752,20.124925 41.546296,20.657986 41.425099,21.333516 41.303219,21.811227 41.373404,21.857584 41.356555,21.981332 41.651424,22.172639 41.343894,22.450573 41.389892,22.665522 41.247194,22.784536 41.238668,22.847168 41.539904,23.617154 41.818972,25.079747 41.786851,25.15373 41.713158,25.210266 41.755612,25.238316 41.746483,25.266788 41.795576,25.285152 41.721231,25.345556 41.378624,26.414248 41.216418,26.594389 41.278,27.102262 41.448141,28.011373 41.655416,28.098962 41.490204,28.236125 41.502044,28.299387 41.48784,28.30715 41.523512,28.747864 41.74204,29.398971 41.428768,29.583156 41.264943,29.954156 41.46538,30.070454 41.794184,30.286236 41.587564,30.464706 41.372689,30.62093 41.352995,30.869749 41.353356,31.036506 41.452947,31.732861 41.537939,31.841814 41.775007,31.980389 42.082104,32.223312 41.8971,32.483735 41.685268,32.699346 41.800368,33.29208 41.98191,33.980513 42.379016,34.32282 42.286752,34.479868 42.158427,34.622811 42.523036,36.069568 42.375422,36.450375 42.421328,36.492804 42.517588,36.54896 42.551708,36.57226 42.38843,36.720828 41.762329,38.224975 41.808028,38.270146 42.379228,38.630203 42.572567,38.773315 42.131647,39.16438 41.54782,39.604532 40.899379,39.102579 40.553711,38.862352 40.9706,38.573148 41.444146,38.227075 41.068088,37.461948 40.951904,36.996052 40.708944,36.822836 40.550224,36.717088 40.925443,36.441727 40.751011,36.144551 40.480948,35.345388 40.579252,35.005075 40.619629,34.812089 40.61292,34.807587 40.63396,34.703989 40.412888,34.589308 40.533371,34.468636 40.727949,34.241186 40.797436,33.899036 40.830088,33.153047 40.819152,33.145972 40.830208,33.013852 40.699812,32.92669 40.412606,32.583823 40.202919,32.452157 40.05702,32.372904 40.161007,32.283465 40.150848,32.271336 40.236337,32.124458 40.11234,32.088374 39.985012,31.988212 40.072735,31.02328 40.085018,30.675751 39.975524,30.612954 39.968954,30.31562 39.476943,30.013448 39.774135,29.828027 39.660004,29.740384 39.924794,29.28735 39.90523,29.088155 39.631784,29.167996 39.249608,28.95285 39.230972,28.283734 39.233226,28.164507 39.185352,28.136756 39.175543,28.046437 39.027772,27.963418 39.156515,27.871223 38.972519,26.176957 38.953882,26.026826 38.849588,25.998248 38.933187,25.92036 38.876504,25.463902 38.989544,25.668792 39.125466,25.76509 39.223924,25.684924 39.23497,25.729808 39.375715,25.647266 39.507384,25.583294 39.339284,23.594198 39.7719,24.548516 39.869343,24.68716 39.942042,24.659188 39.813572,23.611262 39.728601,22.97694 39.579544,22.966822 39.691692,22.838624 39.713428,22.823423 39.69688,22.720463 39.734416,22.703794 39.740972,22.671722 39.857187,22.543585 39.802068,22.505376 39.728812,22.310751 39.716072,22.191047 39.743415,22.165421 39.694944,22.111494 39.780144,21.731781 40.078387,20.346134 39.512416,20.04242 39.295968,19.960942 39.323288,19.553309 39.263391,19.524989 39.185892,19.48579 39.323292,19.361287 39.32222,18.773045 39.322747,17.811562 39.051852,17.710796 38.687316,17.58985 38.8609,17.423385 39.283311,16.984849 39.226383,16.54074 38.786824,16.426845 38.408177,16.34633 38.266647,16.335017 38.247024,16.331749 38.243507,16.311337 38.238844,16.310534 38.242249,16.306546 37.951743,15.358759 37.866043,15.350519 37.753872,15.338476 37.877855,15.163583 37.807535,14.998194 37.591998,14.483706 37.419283,14.473526 37.217676,14.456601 37.429832,14.122747 37.297071,13.827437 37.171431,13.546943 36.897232,13.525957 36.594348,13.498137 36.92968,12.978172 36.707662,12.421013 36.330935,12.390116 35.876128,12.340841 36.039167,12.09937 36.379717,11.625107 36.230712,11.265474 35.763375,11.245251 35.540209,11.223618 35.417283,11.342329 35.325964,11.49163 35.214224,11.188917 35.170804,11.185161 35.107108,11.177907 35.174231,11.089506 35.122448,10.962492 34.80876,10.19668 34.610355,10.180822 34.271312,10.144784 34.520632,9.767114 34.554763,9.720219 34.464283,9.558459 34.445876,9.522884 34.262727,9.446224 34.085431,9.572128 33.878508,9.748492 33.797521,9.316048 33.636796,9.276022 33.27468,9.213709 33.443007,8.845928 33.591202,8.557243 33.533695,8.505857 33.176517,8.743229 32.82996,8.94146 32.745757,8.559646 32.689741,8.267081 32.294665,8.190724 31.971919,8.158101 31.748343,8.29483 31.639076,8.357204 31.566406,8.082596 31.372681,8.022478 30.295881,7.778388 30.2951,7.778826 30.294917,7.777773 29.134251,6.957506 29.000923,7.006539 28.921442,7.035971 28.917976,6.80466 28.897538,6.790216 28.869577,6.591249 28.388178,5.926308 27.997984,6.072563 27.68476,6.202176 27.68818,5.841146 27.671776,5.511368 26.929062,5.326413 26.891664,5.342387 26.874487,5.335734 26.603562,5.482209 26.588274,5.371723 26.565173,5.215932 25.970802,4.985722 25.866374,4.960436 25.789973,5.129696 25.796734,5.136937 25.796734,5.136938 25.169731,4.959533 25.136578,5.131596 25.692048,5.524167 25.131952,5.540234 25.07274,5.54627 25.022488,5.911165 25.435112,6.20615 25.021647,6.240434 24.976607,6.246772 24.91469,6.985817 24.131431,7.118437 24.051519,7.127206 24.048647,7.143371 24.001341,7.145043 23.939588,7.31409 23.814453,7.153224 23.714484,7.164196 23.71093,7.155308 23.286266,7.170317 23.085959,7.17684 23.084076,7.184853 23.006089,7.184386 22.900574,7.38905 22.781497,7.186751 22.694945,7.18957 22.693055,7.182513 22.350414,7.180463 22.075394,7.180437 22.003289,7.180876 21.895064,7.378665 21.788459,7.182186 21.358916,7.184805 21.096439,7.184824 21.09518,7.18957 21.007687,7.186503 20.889544,7.38905 20.781647,7.184847 20.706052,7.184853 20.703996,7.175858 20.274759,7.160812 20.07926,7.154418 20.075633,7.164196 19.979199,7.149869 19.850538,7.314085 19.778947,7.144596 19.741482,7.143371 19.737024,7.113891 18.875359,6.98588 18.840961,6.283185 18.818486,6.280666 18.817123,6.262352 18.354976,6.206177 18.676343,5.914086 18.784775,5.841125 18.767994,5.702167 18.752915,5.595807 18.742998,5.595363 18.743008,5.573119 18.098056,5.524161 18.560245,5.154449 18.656456,5.090114 18.625382,5.014583 17.993346,5.136915 18.013908,5.106156 17.888037,5.012923 17.386984,5.248861 17.216646,5.281469 17.186566,5.482208 17.071785,5.422694 16.915482,5.339122 16.898448,5.342383 16.855157,5.32416 16.576717,5.390562 16.136281,5.502041 16.131134,5.800833 16.105399,6.202155 15.718709,6.062149 15.381883,5.92828 15.071975,6.342668 14.928626,6.55481 14.892587,6.79024 14.87563,6.803696 14.872402,6.949129 14.868684,7.035974 14.6733,6.964259 14.55175,7.060717 13.495013,7.778043 13.495026,7.778826 13.494279,7.778486 12.214156,8.100264 12.209269,8.118571 12.204455,8.11943 12.167928,8.259855 12.15105,8.357204 11.866561,8.17975 11.480735,8.248627 11.072883,8.306737 11.00298,8.626841 10.960166,8.94146 10.791043,8.823937 10.248719,8.487291 10.158759,8.511087 10.34629,8.906258 10.515463,9.213694 9.991064,9.326258 9.963733,9.472576 9.911658,9.74844 9.537942,9.491996 9.444894,9.52897 9.290908,9.580888 9.205246,9.731544 9.313523,9.892988 9.518812,10.144781 8.984998,10.190326 8.874766,10.461239 8.614157,11.094766 8.643399,11.133122 8.683009,11.177941 8.57683,11.187637 8.555491,11.246234 8.464228,11.491551 8.168606,11.217855 7.567035,11.25588 7.407802,11.641858 7.646034,11.991909 7.913999,12.340818 7.444268,12.380244 7.087013,12.413218 6.892116,12.902812 6.850952,13.005459 7.020464,13.26614 7.195766,13.498135 6.635955,13.54156 6.634544,13.545078 6.617963,13.546702 6.484804,13.842766 6.354289,14.134554 6.459565,14.299 6.572439,14.456645 6.200209,14.479022 6.196723,14.486815 6.194515,14.487035 6.111076,14.682936 5.911124,15.162481 5.971243,15.247258 6.036235,15.338501 5.835452,15.357865 5.796107,15.479564 5.547834,16.306055 5.551282,16.310504 5.546429,16.311398 5.543103,16.33172 5.456196,16.332967 4.548191,16.550794 4.493249,16.956251 4.819825,17.277634 5.102811,17.589863 4.774733,17.71265 4.463458,17.823446 4.461169,18.375659 4.465673,19.366227 4.535249,19.428232 4.604231,19.485766 4.470157,19.54909 4.480779,19.670888 4.494159,19.960918 3.874573,20.350809 3.776122,20.389366 3.857116,20.70403 4.095183,22.11149 4.074589,22.139888 4.070518,22.144266 4.053009,22.174823 4.061315,22.310752 3.964143,22.412734 3.937881,22.375755 3.878139,22.480025 3.917899,22.527002 3.894581,22.546709 3.968396,22.602899 3.976596,22.617122 4.049168,22.671786 4.054842,22.741011 4.093241,22.720548 4.085964,22.79063 4.08288,22.805848 4.08048,22.841948 4.210516,22.966747 4.077701,22.883757 3.991329,24.182913 4.065234,24.206918 4.450843,23.594197 4.391416,25.09888 4.316212,25.628393 4.554129,25.750719 4.566213,25.684924 4.608206,25.720074 4.913624,25.463896 4.880553,25.816101 4.860362,25.931142 4.940537,25.998254 4.845608,26.0152 4.844081,26.023893 4.838562,26.024995 4.657521,27.718912 4.637387,27.878303 4.762353,27.963396 4.612536,28.075033 4.604736,28.136776 4.548742,28.173647 4.540475,28.953056 4.207075,28.707622 4.034396,28.744981 3.9671,28.764358 3.951269,29.144878 3.943168,29.23198 4.130186,29.740377 4.05874,29.77974 4.177954,29.868202 4.313202,30.013414 3.975445,30.321336 3.8345,30.400216 3.814717,30.612896 3.723996,30.667481 3.805153,31.988026 3.544716,32.052735 3.642255,32.278398 3.679954,32.312991 3.733092,32.372962 3.369468,32.646087 2.998503,32.85406 3.088574,33.622103 3.137044,34.271103 3.377245,34.589292 3.291949,34.657828 3.170947,34.725069 3.175967,34.792277 3.309147,35.34578 2.810529,36.363819 2.862958,36.435071 3.108472,36.616503 3.239893,36.7171 2.776533,37.056419 2.748621,37.075479 2.323855,38.185203 2.367129,38.226059 2.386488,38.251353 2.934972,38.635559 3.236408,38.862356 2.915696,39.119627 2.24228,39.60448 1.446597,38.941699 1.217563,38.773272 1.712545,38.477912 1.968441,38.29711 1.586179,37.777864 1.352047,36.667023 1.274825,36.600451 1.23842,36.57224 1.347912,36.512141 1.299977,36.426448 1.267093,36.069484 1.505911,34.958716 1.633897,34.552245 1.411126,34.322764 1.584974,34.2386 1.711645,34.147652 1.842245,33.375219 2.080663,32.586264 1.981322,32.46516 1.708028,32.22326 2.062176,32.025454 2.174086,31.949214 2.178773,31.463105 2.193702,31.36942 2.17469,31.283948 2.300587,30.698655 2.332756,30.496773 2.279868,30.45357 1.995942,30.286216 2.289519,30.116711 2.405574,30.045963 2.048091,29.398929 2.291111,28.211037 2.264553,28.188251 2.134709,28.098946 2.325786,28.021774 2.491147,26.802993 2.570167,26.290659 2.094723,25.356601 1.99455,25.285152 2.048369,25.265533 2.034515,25.238315 2.116937,25.18444 1.971153,25.079748 2.34068,23.889104 2.647402,22.851904 2.400232,22.665522 2.47148,22.453214 2.1387,22.172652 2.385541,22.01758 2.444504,21.979396 2.416734,21.857578 2.505722,21.796286 2.243858,20.65776 2.950184,19.779593 2.828774,19.67445 2.847455,19.643503 2.714303,19.532867 2.480139,19.32298 2.88864,19.105427 3.106898,18.994538 3.102003,18.935354 3.14921,18.913504 3.141102,17.383534 3.111652,17.3541 3.116045,17.319889 2.938912,17.139688 3.061635,17.096226 3.139415,17.065121 3.139381,17.058762 3.150015,17.055349 3.298925,15.89569 3.488942,15.737768 3.42385,15.659832 3.391049,15.618859 3.717557,15.547767 3.770865,15.503463 3.870691,15.474397 4.329304,15.076442 4.00969,14.627943 3.894622,14.455642 4.473057,14.374707 4.877609,14.320446 4.883477,14.302509 4.950382,14.294164 4.587437,13.732055 4.42597,13.467657 4.957242,13.420385 5.319113,13.396604 5.329319,13.372512 5.359615,13.369828 5.437081,13.193619 5.221568,12.858327 4.997518,12.503829 5.461785,12.468897 5.762862,12.452569 5.772465,12.430725 5.777435,12.430304 5.983428,11.893021 5.969695,11.871394 5.654603,11.3666 5.995191,11.344928 6.198866,11.331102 6.203619,11.318704 6.23172,11.316374 6.344422,11.035566 6.566827,10.464283 6.403018,10.15618 6.58907,10.153651 6.688874,10.150784 6.690981,10.145373 6.725201,10.143593 7.183306,9.198963 7.226673,9.106095 7.225055,9.103122 7.226202,9.101645 7.20636,9.043221 7.238914,9.046839 7.267099,9.048984 7.600697,8.619441 8.110296,8.556489 8.072477,8.305737 8.054045,8.145403 8.332243,8.25854 8.4097,8.11777 8.815703,7.585223 9.032133,7.448727 9.033851,7.431688 9.049085,7.44115 9.054098,7.438526 9.054983,7.439184 10.010433,7.119755 10.169575,7.08324 10.216084,6.87504 10.317244,6.955487 10.404795,7.018271 11.029428,6.852553 11.398736,6.795167 11.480862,6.412843 11.651481,6.556245 11.779076,6.652818 12.177377,6.475187 12.661394,6.328888 12.686195,5.96475 12.831517,6.072313 12.913083,6.1223 13.496187,5.526648 13.832224,5.47667 13.837865,5.40969 13.828606,5.341302 14.042209,5.445441 14.078873,5.439989 14.126409,5.461161 15.001591,5.312571 15.034325,4.930325 15.000751,4.538703 15.23717,4.656615 15.502277,4.746577 15.956296,3.896308 16.217083,3.851515 16.224342,3.785958 16.225732,3.713224 16.416969,3.817181 16.47991,3.806371 16.555551,3.841253 17.466688,3.809882 17.564538,3.419484 17.603788,3.039397 17.846612,3.321355 18.063159,3.458802 18.370732,3.332747 18.37306,3.217068 18.681646,3.168257 18.702082,3.114884 18.776958,2.688199 19.158765,3.092786 19.487031,3.040862 19.494526,2.981621 19.682479,2.966539 19.70318,2.916606 19.834008,2.482824 20.160925,2.928145 20.514475,2.899775 20.521372,2.861813 20.659928,2.858362 20.688064,2.796836 20.863662,2.359408 21.161657,2.845865 21.213106,2.844584 21.264477,2.84058 21.265208,2.843286 21.508588,2.837224 21.513419,2.815432 21.642032,2.818635 21.679695,2.746228 21.895064,2.315234" slic3r:type="contour"/>
    <polygon style="fill: black" points="39.480564,26.727668 39.55306,27.126634 39.648586,27.112509 39.545901,26.214461 39.337998,26.148413" slic3r:type="hole"/>
    <polygon style="fill: black" points="4.282456,26.175619 4.244074,26.917986 4.334922,26.930439 4.348885,26.868232 4.486708,26.117808" slic3r:type="hole"/>
    <polygon style="fill: black" points="24.292447,6.348153 24.261571,6.432674 24.542353,6.672722 24.607609,6.608795 24.505975,6.484837 24.421601,6.333161" slic3r:type="hole"/>
    <polygon style="fill: white" points="42.101836,40.868187 42.471868,41.165472 42.16696,41.425031 41.692914,41.765368 41.803101,43.519629 42.225568,43.884783 42.110127,43.979616 41.92639,44.107282 42.048952,45.242655 41.593416,45.611516 41.055354,46.304038 41.613515,46.910079 41.773279,47.07152 41.08954,47.24334 40.629004,47.453872 40.007148,46.8647 39.774832,46.536344 40.344907,46.302132 40.728894,46.18693 40.50492,45.256244 40.328019,43.92584 40.233804,43.838924 40.196388,43.797208 40.320983,43.731352 40.296331,43.602907 40.25536,43.225924 40.690208,42.62162 41.037585,41.650585 40.976468,41.59874 40.44236,41.201408 40.658643,41.056704 41.503336,40.454792" slic3r:type="contour"/>
    <polygon style="fill: white" points="2.858695,40.840719 3.347767,41.201427 3.194858,41.336428 2.812998,41.631713 3.534767,43.225932 3.457202,43.733035 3.549558,43.780216 3.593737,43.797211 3.456485,43.919229 3.036998,46.193096 3.697313,46.451476 4.015298,46.536312 3.567188,46.9367 3.161169,47.453872 2.209802,47.164736 2.016853,47.071547 2.511354,46.520704 2.665502,46.363877 2.199081,45.9977 1.741174,45.242667 1.859224,44.726268 1.885404,44.105176 1.564559,43.884784 1.687235,43.787951 2.047621,43.482519 2.076063,43.275524 2.135465,41.7731 1.80318,41.507375 1.318265,41.165472 1.64914,40.946448 2.286654,40.454804" slic3r:type="contour"/>
    <polygon style="fill: white" points="3.836778,48.943796 4.369011,49.117299 4.61557,49.143696 4.147841,49.775262 4.186416,49.883764 4.144356,49.955239 4.65163,50.923851 4.742815,51.158863 5.095418,51.21882 5.309528,51.2142 4.97917,51.768017 5.02345,51.882139 5.005554,51.919681 5.507856,52.71694 5.647059,52.988825 5.963226,52.985695 6.174993,52.955976 5.925216,53.532106 5.976479,53.632232 5.97422,53.639032 6.583525,54.356015 6.739081,54.56184 7.065078,54.49588 7.275871,54.440256 7.116579,55.062392 7.91355,55.712327 8.179438,55.940371 8.511741,55.815184 8.697401,55.741304 8.648128,56.33277 9.468202,56.828247 9.923055,57.107633 10.229215,56.947331 10.38226,56.866636 10.410543,57.398394 11.20856,57.772755 11.842467,58.072222 12.119085,57.891295 12.246672,57.806996 12.327268,58.296745 13.122063,58.597912 13.812341,58.864087 14.082433,58.654811 14.199668,58.560232 14.329271,59.063578 15.216587,59.346675 15.723456,59.514676 16.017028,59.247647 16.14267,59.126468 16.343523,59.714727 17.447698,59.98572 17.601516,60.025692 17.929876,59.673191 18.069132,59.515276 18.370085,60.209098 19.482077,60.384276 19.83559,59.933295 19.984022,59.73862 20.353837,60.427515 20.396656,60.502551 21.400257,60.55938 21.74807,60.027699 21.895064,59.808896 22.315315,60.453095 22.388221,60.562501 23.381291,60.50642 23.679638,59.955291 23.806106,59.73862 24.299754,60.366688 24.31918,60.391947 25.400875,60.222538 25.625298,59.711335 25.721026,59.515268 26.206533,60.033692 27.161298,59.800507 27.428915,59.730161 27.430843,59.725436 27.43352,59.724584 27.582228,59.294491 27.647456,59.126464 28.080934,59.518479 28.893394,59.259831 29.450004,59.07439 29.452427,59.066668 29.455481,59.065511 29.548571,58.707232 29.590458,58.560232 29.985166,58.864811 30.744581,58.577064 31.459116,58.301464 31.516227,57.957092 31.543436,57.806996 31.950076,58.072669 32.721396,57.710751 33.375399,57.401926 33.395202,57.039043 33.407863,56.866632 33.872025,57.109459 34.682296,56.619487 35.133431,56.342782 35.101352,55.9459 35.092732,55.7413 35.631558,55.94308 36.43534,55.285407 36.633311,55.11617 36.65777,55.087122 36.553684,54.67288 36.514252,54.440248 37.105086,54.555876 37.787324,53.745628 37.830512,53.688467 37.813656,53.632207 37.848075,53.575985 37.685391,53.194587 37.615136,52.956 38.229584,52.952804 38.815772,51.995288 38.76668,51.882176 38.794817,51.824668 38.57964,51.458208 38.48058,51.214236 39.15859,51.081172 39.6781,50.019371 39.603712,49.883764 39.622511,49.841975 39.316915,49.421991 39.174556,49.1437 39.857812,48.896675 40.063732,48.861182 40.5236,47.83894 40.878396,48.699416 41.001757,49.849663 41.094371,50.001583 41.109052,50.02092 41.021667,50.035312 41.023712,50.054376 40.965014,50.075562 40.984448,50.184967 40.957188,50.475096 40.337728,51.885208 40.221162,52.103447 40.241996,52.147876 40.223939,52.180417 40.32348,52.345992 40.254187,52.34952 40.114523,52.377599 39.411095,53.64526 39.200847,53.971339 39.223128,54.040016 39.198166,54.072217 39.308504,54.343184 39.20862,54.329712 38.994843,54.334502 38.227343,55.324568 37.933006,55.666945 37.94448,55.731788 37.925684,55.748336 37.990268,56.062316 37.889715,56.030415 37.651651,55.989592 36.724216,56.806099 36.32098,57.134455 36.322792,57.179191 36.308638,57.188335 36.323244,57.534428 36.22346,57.487812 35.990359,57.403679 35.98324,57.409476 35.973321,57.404975 34.96722,58.054987 34.461712,58.361564 34.459272,58.393339 34.445599,58.400151 34.415,58.764492 34.319032,58.707052 34.088789,58.587731 34.073532,58.596984 34.062929,58.59081 33.015846,59.112499 32.443484,59.382339 32.43894,59.407436 32.421672,59.41436 32.355372,59.773296 32.268069,59.710447 32.04999,59.567851 32.032832,59.57594 32.027728,59.572314 30.906079,60.022048 30.344886,60.235143 30.33897,60.256584 30.316478,60.264137 30.233094,60.577712 30.162015,60.518315 29.979742,60.377215 28.651429,60.823272 28.229524,60.957162 28.222348,60.97674 28.20473,60.981273 28.130752,61.192292 28.085949,61.148931 27.966822,61.042485 26.291336,61.473571 26.093982,61.521327 26.089628,61.530832 26.082274,61.532044 26.041135,61.623992 26.022749,61.603303 25.972355,61.550759 25.971126,61.551055 25.970604,61.550443 24.054135,61.866228 23.969475,61.865593 23.963323,61.876844 23.954257,61.86444 23.925328,61.864112 21.979928,61.82184 21.906563,61.936524 21.895064,61.953996 21.810081,61.819759 21.584775,61.822052 19.837496,61.864231 19.836445,61.865516 19.83567,61.8655 19.826802,61.87688 19.819983,61.864507 19.735987,61.866264 17.971121,61.572323 17.821037,61.54932 17.74896,61.623992 17.736623,61.598127 17.706789,61.531809 17.700469,61.53084 17.694852,61.518758 16.162901,61.120004 15.831871,61.040315 15.829605,61.042527 15.828543,61.042167 15.659375,61.192292 15.635447,61.131548 15.581794,60.980114 15.567779,60.97674 15.557905,60.95051 14.329827,60.534588 13.829946,60.37643 13.82597,60.379712 13.818491,60.376703 13.557037,60.577712 13.527618,60.484516 13.467424,60.26173 13.451158,60.256584 13.442177,60.225325 12.392573,59.803107 11.77058,59.566777 11.757315,59.575939 11.747047,59.570823 11.434785,59.773296 11.409006,59.661751 11.36182,59.411468 11.351208,59.407436 11.344014,59.369948 10.377176,58.888072 9.737241,58.585508 9.716615,58.596979 9.710318,58.592915 9.375127,58.764492 9.359161,58.644915 9.337381,58.396452 9.330857,58.393368 9.326557,58.34526 8.410145,57.753863 7.836296,57.404084 7.466886,57.534428 7.464695,57.413396 7.473514,57.182958 7.467337,57.179192 7.468861,57.112505 6.628089,56.373851 6.175334,56.002328 5.799861,56.062308 5.814278,55.944335 5.855408,55.739804 5.845665,55.731808 5.859821,55.637046 5.161149,54.738872 4.836595,54.357093 4.481648,54.343204 4.512149,54.232936 4.582208,54.057852 4.567028,54.039995 4.596346,53.935604 3.91859,52.736616 3.706516,52.39957 3.466671,52.34604 3.496999,52.275387 3.560675,52.167786 3.548155,52.147888 3.576188,52.079868 2.832922,50.47504 2.85918,50.089742 2.766413,50.054375 2.769046,50.042709 2.700162,50.028088 2.681075,50.02092 2.838719,49.734075 3.266526,47.838939" slic3r:type="contour"/>
  </g></svg>