<svg width="43.790126" height="63.590156" xmlns="http://www.w3.org/2000/svg" xmlns:svg="http://www.w3.org/2000/svg" xmlns:xlink="http://www.w3.org/1999/xlink" xmlns:slic3r="http://slic3r.org/namespaces/slic3r"><g xmlns="http://www.w3.org/2000/svg" slic3r:z="1.88149999999999e-005" id="layer56">
    <polygon style="fill: white" points="22.151076,2.190166 22.246716,2.33939 22.309378,2.336882 22.326179,2.369799 22.493711,2.376321 22.498226,2.368818 22.539525,2.373942 22.702972,2.172791 22.965172,1.852317 23.186631,2.279298 23.250437,2.406168 23.316678,2.408821 23.344696,2.473849 23.553822,2.499798 23.74687,2.312306 24.048944,2.036452 24.234991,2.498763 24.267371,2.585915 24.34047,2.594461 24.380969,2.706928 24.593129,2.754338 24.845542,2.561128 25.16266,2.357448 25.302547,2.8628 25.312459,2.90323 25.39949,2.919518 25.43188,3.036772 25.791626,3.134171 26.091348,2.957882 26.31994,2.857307 26.386632,3.256622 26.41846,3.262779 26.426482,3.310607 26.652301,3.369532 27.433118,3.50955 27.481476,3.595535 27.544104,3.573776 27.547923,3.604526 27.555742,3.730534 27.557862,3.758479 27.754342,4.28296 28.008807,4.684439 28.368702,4.556784 28.776254,4.457355 28.803956,4.951352 28.796615,5.100146 29.192695,5.21158 29.678684,5.15645 29.732994,5.354442 29.800518,5.462776 30.00887,5.40117 30.027586,5.543456 30.015236,5.807262 30.050468,5.863786 30.058265,6.130328 30.428284,6.703997 30.86691,6.442714 31.230912,6.259845 31.36418,6.888256 31.342689,7.241695 31.784124,7.346127 32.06949,7.129151 32.476712,6.856962 32.606882,7.327787 32.649405,7.587569 33.362228,7.715793 33.7098,7.477374 33.759255,7.703164 33.780566,7.835419 34.573347,8.019407 34.334295,8.560614 34.31017,8.615351 34.374999,8.662716 34.723172,8.354889 34.844832,8.251969 34.967348,8.882205 35.003557,9.085431 35.748412,9.148253 35.441783,9.535859 35.20957,9.840593 35.2798,10.107199 35.295308,10.152696 35.501249,10.171412 35.820788,9.870849 36.105408,9.587509 36.324855,10.133001 36.365658,10.251467 36.610896,10.262123 36.523224,10.386713 36.461165,10.481715 36.683708,11.073614 36.80036,11.421564 36.807164,11.422136 36.813668,11.437897 37.399272,11.475576 37.182208,11.76064 37.032558,11.968327 37.05236,12.016312 37.259132,12.586348 37.558676,12.603307 38.108448,12.62376 37.807848,13.026104 37.606224,13.316463 37.680942,13.48323 37.69264,13.483652 37.718912,13.531841 38.419112,13.570721 38.723056,13.580117 38.383451,14.031475 38.170187,14.365196 38.199357,14.4301 39.161971,14.527243 39.294484,14.538242 38.911435,15.012821 38.803635,15.174662 39.219971,15.157687 39.638164,15.236168 39.76842,15.60212 39.779853,15.637509 39.782375,15.637982 39.782379,15.638003 39.831168,15.649595 39.796667,15.689557 39.798036,15.69379 39.794613,15.697597 40.00966,16.745283 40.054196,16.978583 40.067327,16.982509 40.067452,16.984285 40.33234,17.077546 40.20876,17.199565 40.114597,17.294992 40.117616,17.31081 40.092247,17.335275 40.141508,18.032632 40.185024,18.704908 40.2147,18.717184 40.214879,18.753817 40.348336,18.81572 40.8502,19.048874 40.497264,19.331783 40.214443,19.573823 40.212659,19.645245 40.757352,19.962518 41.1422,20.320719 41.106264,21.010605 41.071417,21.355942 41.10438,21.376002 41.101302,21.42972 41.368224,21.600348 41.162468,21.749813 41.079023,21.818572 41.03678,22.55588 40.974723,22.905652 41.275607,23.194187 41.779952,24.300342 41.757744,24.46343 41.727722,24.556165 41.745728,24.570382 41.742967,24.594634 41.79878,24.632119 41.731529,24.695095 41.572268,26.09393 41.422013,26.526855 41.57374,26.982388 41.6652,27.438233 41.963988,27.636662 41.744916,27.83554 41.781883,28.01979 41.666913,28.110465 41.825456,28.71039 42.124716,30.024143 42.095091,30.173522 42.060568,30.249421 42.128872,30.283778 42.080508,30.325862 41.958824,31.838345 41.861153,32.323409 42.241884,32.53836 42.057363,32.705038 41.956736,32.788414 41.965228,33.795512 41.92054,34.428624 42.364796,34.70488 42.194292,34.861555 42.027641,34.999139 42.087736,36.110843 42.084401,36.663305 42.421576,36.893552 42.308599,36.996352 42.16323,37.112159 42.278176,38.874395 42.281607,39.083318 42.389808,39.163408 42.355631,39.19372 42.306141,39.231031 42.353056,39.841292 41.822988,41.1425 42.162724,41.429192 42.253824,41.495532 41.698882,41.793635 41.097156,42.871796 40.906184,41.876736 40.4447,41.48198 40.236388,41.270548 40.800535,40.941388 40.886719,40.90082 40.75982,40.177844 40.673224,39.316707 40.472624,39.156504 40.373784,39.06298 40.668569,38.872976 40.61292,38.526911 40.461244,36.99739 40.433107,36.976243 40.418476,36.962956 40.460773,36.932473 40.452955,36.879623 40.413812,36.519632 40.613603,35.482811 40.600088,34.966622 40.381404,34.822176 40.46754,34.752931 40.74029,34.541871 40.778776,33.981472 40.645947,32.949958 40.57516,32.904162 40.265143,32.684572 40.418127,32.545351 40.785805,32.25453 40.774907,32.072311 40.525224,30.874974 40.467442,30.772836 40.178207,30.596801 40.095296,30.515616 40.258975,30.311518 40.511192,30.104133 40.525942,30.080503 40.256112,28.573363 40.184522,28.289855 39.976704,28.183116 39.97038,28.129564 40.05566,27.914878 40.103279,27.873641 40.029692,27.599152 40.184075,27.35663 40.513701,26.630002 39.907704,26.019196 40.144572,25.027786 40.086012,24.845444 39.909656,24.72162 39.68742,24.432446 39.794112,24.242258 40.029228,24.070431 40.000751,24.050412 40.230249,23.799747 39.556132,23.613864 39.771512,21.940819 39.737806,21.90704 39.462159,21.752579 39.099204,21.488772 39.210596,21.380905 39.565364,21.114928 39.52454,21.106429 39.753731,20.911129 38.955904,20.871482 38.975835,19.451557 38.798496,19.3809 38.534888,19.272876 38.894379,18.961402 38.943239,18.918737 38.876135,17.838508 38.543456,17.740002 38.031116,17.596616 38.085443,17.544016 38.41022,17.210018 38.376413,17.145883 37.880848,17.231382 37.691782,16.44539 37.630279,16.43873 37.529096,16.426263 37.639013,16.28899 37.574535,16.122875 37.336666,15.508993 37.189508,15.503521 36.984896,15.488042 37.187254,15.192272 37.060975,14.924879 36.923838,14.640931 36.899751,14.638909 36.893484,14.625374 36.670311,14.619651 36.369132,14.598173 36.667969,14.138344 36.474947,13.721489 36.45753,13.684641 36.411532,13.680416 36.407135,13.668955 36.084383,13.647854 35.655064,13.608727 35.94356,13.198008 36.133298,12.955135 35.971961,12.534573 35.948843,12.532068 35.942694,12.515249 35.473947,12.473519 34.838204,12.403897 34.880539,12.349361 35.576461,11.513563 35.507115,11.323894 35.373793,11.312356 35.038224,11.735559 34.740408,12.264861 34.401626,11.21504 34.389935,11.213708 34.387015,11.203707 34.206751,11.182307 33.904608,11.145293 34.251839,10.740619 34.069809,10.117023 34.040311,10.113887 34.035768,10.089629 33.624536,10.017551 33.347633,9.974638 33.214952,10.103353 33.101634,10.233217 33.027866,9.925083 33.019112,9.923726 33.018519,9.920736 32.943579,9.907763 32.777134,9.883084 32.964814,9.649981 32.799786,8.81798 32.75027,8.809459 32.748371,8.799541 32.317472,8.714597 31.964176,8.933 31.77574,9.074876 31.680046,8.624563 31.662908,8.622178 31.654431,8.58493 31.466687,8.535374 31.08233,8.480971 31.205076,7.980301 31.345407,7.488092 30.699252,7.794483 30.257484,8.041307 30.207559,7.753505 30.162356,7.132528 28.994741,6.956428 28.929132,6.972074 28.902765,6.965707 28.823978,6.994883 28.823253,6.946505 28.727297,6.923333 28.096957,5.892675 27.853958,5.967005 27.59054,6.054841 27.615336,5.661216 27.619972,5.310612 26.903606,5.097324 26.84287,5.120384 26.832649,5.116893 26.484894,5.270618 26.474711,5.136462 26.462852,4.990617 25.549803,4.678834 25.500466,4.662948 25.47781,4.676196 25.471751,4.666476 25.467698,4.649093 24.743504,4.269394 24.687504,4.249491 24.60385,4.314596 24.539284,4.253376 24.510031,4.177653 24.010613,3.966889 23.931588,3.944558 23.753248,4.135023 23.595914,3.991007 23.525626,3.832149 23.213076,3.759106 23.037939,3.73132 22.894076,3.942124 22.829036,4.032012 22.668226,3.851212 22.580069,3.677276 22.341795,3.661263 22.105045,3.649678 21.938157,3.919146 21.895064,3.992888 21.764885,3.816891 21.670299,3.657676 21.419136,3.674362 21.149878,3.687532 21.005469,3.938334 20.961092,4.032011 20.873051,3.871043 20.787019,3.749993 20.42434,3.830356 20.132151,3.876713 20.116732,3.903594 20.03688,4.135022 20.008891,4.023841 19.943485,3.948607 19.346978,4.176931 19.209494,4.215931 19.186276,4.314596 19.176804,4.233676 18.314907,4.659761 18.312278,4.676204 18.303627,4.659022 17.5338,4.936862 17.327439,5.001435 17.305232,5.27062 17.166987,5.212427 16.952343,5.118803 16.947271,5.12039 16.870241,5.091438 16.718802,5.132848 16.182679,5.297546 16.199762,5.725849 16.199592,6.054853 15.753942,5.922325 15.669613,5.895254 15.453895,6.234402 15.062753,6.923394 14.968193,6.947191 14.966151,6.994882 14.943307,6.986498 14.88742,6.965866 14.861091,6.972088 14.849104,6.969124 13.919895,7.295402 13.585487,7.268341 13.525975,7.652606 13.532641,8.041307 13.322874,7.945629 12.43704,7.483215 12.598186,8.109764 12.707797,8.480971 12.13027,8.604584 12.12722,8.622178 12.112337,8.624906 12.06825,8.83475 12.014387,9.074876 11.52535,8.785207 11.464905,8.743575 10.986357,8.831288 10.878379,9.369916 10.821694,9.662379 10.912358,9.774382 11.013016,9.88306 10.771218,9.922809 10.771045,9.9237 10.763254,9.92502 10.739147,10.027502 10.68852,10.233186 10.427527,9.981892 9.753246,10.096112 9.749896,10.113857 9.720639,10.116428 9.571766,10.626624 9.532336,10.761592 9.690297,10.945916 9.885463,11.145347 9.403375,11.203008 9.400244,11.213725 9.391757,11.214542 9.317353,11.450652 9.049715,12.264835 8.944539,12.131474 8.386749,11.311293 8.285273,11.321062 8.211421,11.523863 8.552697,11.962893 8.951897,12.403898 8.806118,12.417342 7.849492,12.510037 7.841309,12.532034 7.822622,12.533759 7.647588,12.992144 7.8741,13.314299 8.135065,13.608726 7.386467,13.660375 7.378593,13.680416 7.339965,13.683609 7.16977,14.052516 7.111574,14.174661 7.248228,14.384152 7.421005,14.598192 6.902169,14.614164 6.890359,14.638951 6.871881,14.640231 6.749476,14.90012 6.600996,15.205487 6.688576,15.333079 6.80522,15.488062 6.455888,15.502155 6.37431,15.712279 6.151948,16.286508 6.198853,16.34521 6.261063,16.426237 6.096741,16.444177 6.067762,16.55919 5.909325,17.231247 5.685503,17.13543 5.358353,17.061371 5.322252,17.127587 5.375383,17.179697 5.758993,17.596618 5.649753,17.628934 4.911804,17.842701 4.866667,18.559322 4.845615,18.914768 5.031198,19.07587 5.255238,19.272892 4.822595,19.445465 4.833725,19.826007 4.834223,20.871481 4.617402,20.906506 4.069333,20.943207 4.265587,21.10643 4.172093,21.131163 4.326917,21.266644 4.690921,21.488772 4.397319,21.654926 4.086298,21.847375 4.087428,21.87187 4.048344,21.90105 4.141833,22.460296 4.234023,23.613778 4.038317,23.761481 3.620778,23.897255 3.789341,24.050392 3.664612,24.163352 3.827207,24.339118 4.102716,24.432472 3.764194,24.657578 3.692269,24.721183 3.709213,24.829577 3.658995,24.882087 3.770752,25.252555 3.882409,26.019209 3.56752,26.675842 3.501165,26.73813 3.760433,27.599152 3.722683,27.828108 3.696238,27.895929 3.702865,27.904677 3.697925,27.949457 3.819743,28.129564 3.801085,28.141856 3.689672,28.024278 3.483272,29.89535 3.358313,30.228357 3.615946,30.468041 3.694831,30.515578 3.517002,30.565682 3.367207,30.673604 3.293724,32.005084 3.169945,32.415424 3.275988,32.505116 3.524983,32.684584 3.38016,32.772061 3.205847,32.889906 3.227913,34.312859 3.17017,34.641994 3.408725,34.822188 3.3341,34.872668 3.21841,34.949594 3.376326,36.519236 3.326583,36.934843 3.355846,36.954751 3.371657,36.962948 3.327261,36.995021 3.294051,37.224256 3.095453,38.880772 3.308912,39.012219 3.416338,39.062992 3.103299,39.304665 2.859806,40.913789 3.321093,41.172311 3.553751,41.27058 3.068072,41.672024 2.85053,41.880651 2.692906,42.871812 2.227997,42.247056 2.029261,41.779391 1.635454,41.557899 1.53631,41.495496 1.879047,41.190859 1.727871,40.894288 1.437069,39.841195 1.483868,39.407763 1.48878,39.228429 1.400319,39.163376 1.438682,39.140484 1.521681,39.081843 1.635661,37.742388 1.643011,37.10619 1.368548,36.893516 1.498727,36.822059 1.747986,36.660136 1.79009,36.004727 1.785963,34.992507 1.42531,34.70488 1.620344,34.601471 1.9281,34.417795 1.927995,34.06146 1.856245,32.781707 1.548235,32.538366 1.736564,32.44298 1.986112,32.306445 1.8025,30.875022 1.714278,30.322682 1.661258,30.283778 1.692099,30.269539 1.741899,30.233852 1.665413,30.024144 2.13615,28.107763 2.008243,28.01979 2.058124,27.841648 2.027377,27.813758 1.826138,27.636669 2.184874,27.38898 2.458948,26.410164 2.074337,24.703255 1.991345,24.63212 2.049711,24.593968 2.044397,24.570382 2.073154,24.545911 2.010176,24.300328 2.161421,24.140701 2.890832,23.014025 2.748951,21.880821 2.421896,21.600354 2.606405,21.473269 2.69117,21.419326 2.685746,21.376002 2.728873,21.348151 2.647946,20.320666 3.277686,19.947763 3.606439,19.68999 3.587367,19.672898 3.590296,19.670634 3.589114,19.595014 3.196254,19.270206 2.939929,19.048878 3.335503,18.865793 3.575981,18.754034 3.575406,18.717204 3.608188,18.703791 3.632319,18.350391 3.699308,17.337622 3.672511,17.310848 3.675038,17.298286 3.457781,17.07757 3.616013,17.026787 3.722349,16.989271 3.722794,16.982542 3.739516,16.977689 3.977737,15.793231 3.996047,15.698514 3.992091,15.693785 3.992773,15.691834 3.958958,15.649594 4.007548,15.639013 4.007749,15.63798 4.011864,15.637187 4.15196,15.236167 4.522535,15.2622 4.995136,15.22818 4.553366,14.625179 4.495644,14.53824 5.143366,14.457462 5.637523,14.417912 5.189805,13.772691 5.067094,13.580111 5.672476,13.52648 6.082124,13.515843 6.097516,13.483617 6.129888,13.480517 6.192324,13.344167 5.899453,12.937803 5.681661,12.623766 6.208292,12.579179 6.547629,12.568254 6.558812,12.543831 6.566527,12.543044 6.768311,11.999919 6.390847,11.475601 6.759967,11.444989 6.979527,11.431413 6.98297,11.422146 7.006916,11.419507 7.158575,10.999194 7.331539,10.49593 7.179253,10.262126 7.335462,10.254 7.434321,10.24983 7.684681,9.58755 8.02354,9.895261 8.294774,10.162574 8.497119,10.146765 8.500091,10.137153 8.510436,10.135593 8.5871,9.854967 8.167394,9.313701 8.041691,9.148258 8.583499,9.086642 8.795025,9.070807 8.945267,8.252002 9.359851,8.632323 9.42787,8.690273 9.491664,8.642739 9.289845,8.185388 9.216752,8.019429 9.847645,7.826998 10.025999,7.796627 10.027692,7.787778 10.028616,7.787525 10.080307,7.477374 10.247132,7.613315 10.364991,7.695618 10.682113,7.608972 11.196509,7.537097 11.206282,7.49467 11.313415,6.856963 11.653762,7.131747 11.938172,7.326381 12.379081,7.257867 12.402824,7.350183 12.48455,7.345707 12.596283,6.565768 12.559235,6.259826 12.995336,6.535717 13.307323,6.697591 13.740143,5.88611 13.739653,5.86371 13.822533,5.706051 13.781256,5.401172 13.870086,5.44448 13.946998,5.469287 14.111458,5.156441 15.041669,4.983705 15.04802,4.750602 15.013885,4.457342 15.320648,4.587876 15.696154,4.691274 16.237555,3.697469 16.23944,3.664232 16.24445,3.657638 16.246053,3.573744 16.290025,3.597649 16.356938,3.509578 17.369484,3.284064 17.37168,3.262796 17.420918,3.249653 17.450061,3.062004 17.470206,2.857304 17.883642,3.126126 18.377517,2.994286 18.390638,2.919518 18.496577,2.895728 18.556525,2.673845 18.62745,2.357448 18.977378,2.635874 19.143714,2.750401 19.421437,2.688034 19.449658,2.594461 19.541044,2.583117 19.618746,2.387809 19.741182,2.036454 20.062267,2.350812 20.22012,2.498818 20.448712,2.470442 20.473448,2.408821 20.548254,2.405907 20.648842,2.211271 20.824938,1.852323 21.112614,2.206577 21.249047,2.373844 21.291899,2.368818 21.296734,2.376766 21.464074,2.37025 21.480748,2.336881 21.546825,2.339455 21.676006,2.139888 21.895064,1.795179" slic3r:type="contour"/>
    <polygon style="fill: white" points="41.728316,43.752412 41.994208,43.970676 41.491059,44.211424 40.881588,44.547516 40.324615,44.033687 39.979184,43.648528 40.368783,43.4426 41.069244,43.143144" slic3r:type="contour"/>
    <polygon style="fill: white" points="41.087588,46.26742 41.555796,46.740532 41.194624,46.831292 40.409612,47.190156 40.030008,46.8305 39.563284,46.170848 39.759427,46.090264 40.672216,45.816416" slic3r:type="contour"/>
    <polygon style="fill: white" points="40.282984,48.161552 40.264576,48.208984 40.191191,48.358689 40.558979,48.961991 40.924292,49.443112 40.473107,49.51742 39.741727,49.771692 39.361971,49.249787 38.997763,48.537816 39.207308,48.462059 40.183494,48.293802 40.193056,48.153431 40.252379,48.132892 40.265427,48.131272" slic3r:type="contour"/>
    <polygon style="fill: white" points="39.879023,51.322271 40.142736,51.763276 39.64198,51.763904 38.93344,51.903116 38.584871,51.309475 38.299579,50.606848 38.538487,50.55996 39.502976,50.520344" slic3r:type="contour"/>
    <polygon style="fill: white" points="38.665776,52.48592 38.953691,53.373375 39.1319,53.799908 38.6138,53.71596 37.908392,53.736076 37.634559,53.094103 37.42794,52.392424 37.679604,52.391116" slic3r:type="contour"/>
    <polygon style="fill: white" points="36.588275,53.983847 37.563936,54.221112 37.727756,55.146992 37.82672,55.56812 37.309723,55.40372 36.614148,55.29518 36.443496,54.616027 36.327695,53.932848" slic3r:type="contour"/>
    <polygon style="fill: white" points="35.20684,55.382848 36.112992,55.73704 36.151528,56.68828 36.183,57.085384 35.660119,56.848092 35.006644,56.625476 34.948792,55.909708 34.9221,55.276216" slic3r:type="contour"/>
    <polygon style="fill: white" points="33.575787,56.594799 34.392432,57.02436 34.318743,57.983668 34.301228,58.35264 33.780619,58.049467 33.181273,57.749124 33.221463,57.012656 33.264122,56.431752" slic3r:type="contour"/>
    <polygon style="fill: white" points="31.759601,57.606607 32.492712,58.089412 32.320902,59.038395 32.267094,59.387396 31.760672,59.027636 31.21116,58.672104 31.333748,57.932927 31.431725,57.392391" slic3r:type="contour"/>
    <polygon style="fill: white" points="29.836115,58.408103 30.504615,58.940392 30.251552,59.857595 30.16636,60.204156 29.689347,59.802063 29.175386,59.398496 29.362348,58.678931 29.511003,58.157223" slic3r:type="contour"/>
    <polygon style="fill: white" points="27.887972,58.992159 28.519898,59.590144 28.205812,60.447075 28.080758,60.815348 27.653747,60.389399 27.157098,59.929472 27.389818,59.256399 27.595183,58.727375" slic3r:type="contour"/>
    <polygon style="fill: white" points="25.936408,59.378852 26.541272,60.052904 26.18094,60.839479 26.00694,61.235404 25.633868,60.79792 25.154994,60.274784 25.426155,59.657124 25.690316,59.116076" slic3r:type="contour"/>
    <polygon style="fill: white" points="23.992702,59.592412 24.568242,60.340707 24.171645,61.062048 23.945528,61.476276 23.620377,61.031419 23.168118,60.448256 23.474557,59.882184 23.792424,59.337596" slic3r:type="contour"/>
    <polygon style="fill: white" points="3.403045,43.491639 3.810941,43.648548 3.505487,43.920103 2.908541,44.547516 2.105726,44.144879 1.795917,43.970676 2.214861,43.567464 2.720881,43.143144" slic3r:type="contour"/>
    <polygon style="fill: white" points="3.588027,46.000399 4.226837,46.170824 4.072652,46.308591 3.380557,47.190156 2.799807,47.013656 2.234349,46.74056 2.49556,46.449587 3.117892,45.816436" slic3r:type="contour"/>
    <polygon style="fill: white" points="3.596984,48.153392 3.645989,48.302204 4.161571,48.470279 4.792359,48.537812 4.63845,48.745631 4.048399,49.771692 3.34079,49.621491 2.865837,49.443124 3.109052,49.000576 3.596095,48.351253 3.507151,48.161504 3.517688,48.140635 3.52469,48.131256" slic3r:type="contour"/>
    <polygon style="fill: white" points="4.873935,50.620136 5.490545,50.606836 5.345835,50.849428 4.856689,51.903116 4.065395,51.856011 3.647404,51.763304 3.8676,51.229007 4.287124,50.520356" slic3r:type="contour"/>
    <polygon style="fill: white" points="6.247799,52.656203 5.881696,53.736064 5.055649,53.818488 4.65824,53.799928 4.823383,53.211927 5.124353,52.485879 5.739401,52.479792 6.362173,52.392392" slic3r:type="contour"/>
    <polygon style="fill: white" points="7.388355,54.222164 7.176013,55.295172 6.351035,55.51206 5.9634,55.568108 6.054628,54.957456 6.226208,54.221075 6.843376,54.0962 7.462434,53.93284" slic3r:type="contour"/>
    <polygon style="fill: white" points="8.840022,55.612647 8.783465,56.625511 7.964785,56.966104 7.607117,57.085384 7.621527,56.454631 7.677147,55.737068 8.293207,55.504984 8.868048,55.276224" slic3r:type="contour"/>
    <polygon style="fill: white" points="10.546249,56.812535 10.608814,57.7491 9.810423,58.19314 9.488899,58.35264 9.431425,57.709687 9.397676,57.024444 10.01034,56.703659 10.525999,56.431768" slic3r:type="contour"/>
    <polygon style="fill: white" points="12.425373,57.799335 12.578933,58.672148 11.815858,59.199184 11.523043,59.3874 11.399517,58.74366 11.297414,58.089412 11.898937,57.695976 12.358407,57.3924" slic3r:type="contour"/>
    <polygon style="fill: white" points="14.383379,58.562139 14.61474,59.398496 13.903777,59.985367 13.623767,60.204155 13.443272,59.575963 13.28551,58.940392 13.863056,58.492892 14.279122,58.157224" slic3r:type="contour"/>
    <polygon style="fill: white" points="16.320961,59.096471 16.633029,59.929472 15.996352,60.550872 15.70937,60.815352 15.487981,60.227231 15.270226,59.590208 15.799368,59.108907 16.194942,58.727384" slic3r:type="contour"/>
    <polygon style="fill: white" points="18.239555,59.438167 18.6351,60.274896 18.07779,60.914991 17.783156,61.2354 17.532913,60.697071 17.248855,60.052872 17.715557,59.551864 18.099842,59.116072" slic3r:type="contour"/>
    <polygon style="fill: white" points="20.14774,59.617071 20.622012,60.448212 20.136136,61.101663 19.844598,61.476308 19.573704,60.984792 19.221898,60.340664 19.624633,59.826888 19.997704,59.337588" slic3r:type="contour"/>
    <polygon style="fill: white" points="22.060823,59.660527 22.597386,60.465732 22.165677,61.14058 21.895064,61.551731 21.604821,61.093271 21.192714,60.465788 21.538977,59.936476 21.895064,59.406436" slic3r:type="contour"/>
  </g></svg>