<svg width="43.790126" height="63.590156" xmlns="http://www.w3.org/2000/svg" xmlns:svg="http://www.w3.org/2000/svg" xmlns:xlink="http://www.w3.org/1999/xlink" xmlns:slic3r="http://slic3r.org/namespaces/slic3r"><g xmlns="http://www.w3.org/2000/svg" slic3r:z="4.12549999999998e-005" id="layer124">
    <polygon style="fill: white" points="11.469683,55.431456 11.615889,56.126347 13.343059,56.311135 13.360288,56.297892 13.3838,56.29981 13.630777,56.082116 13.656507,56.149604 13.708242,56.326275 14.552442,56.395136 14.825833,57.012088 14.987255,57.538608 15.701799,56.897843 15.787502,56.816363 16.029905,57.646768 16.185155,58.092156 15.554353,58.713383 15.265659,58.96132 14.982812,58.161371 14.842269,57.70168 13.786855,57.603577 13.711212,57.66456 13.623051,57.654102 13.149704,58.065344 12.997252,58.178752 12.813993,57.558138 12.208958,57.486372 11.129162,57.402983 11.10657,57.223272 11.014914,56.930403 10.637838,57.187316 10.624069,57.127156 10.402082,55.871643 10.729906,55.651351 11.385135,55.151912" slic3r:type="contour"/>
    <polygon style="fill: white" points="9.366977,54.5238 9.436524,55.376132 9.000387,55.551327 8.343973,55.899676 8.286967,55.535272 8.210994,54.57106 8.791792,54.319616 9.293741,54.022568" slic3r:type="contour"/>
    <polygon style="fill: white" points="7.490614,53.329652 7.449355,54.033624 6.901291,54.165247 6.328573,54.33814 6.295332,53.730475 6.332682,52.967208 7.13905,52.857607 7.550861,52.6999" slic3r:type="contour"/>
    <polygon style="fill: white" points="5.847434,51.452844 5.702375,52.127704 5.120112,52.372496 4.602846,52.394652 4.779372,51.720764 4.946844,51.068424 5.826848,51.10574 6.182595,51.051344" slic3r:type="contour"/>
    <polygon style="fill: white" points="4.728282,49.341504 5.494734,49.666112 5.194388,50.147384 4.807149,50.64706 4.188924,50.419327 3.454535,50.151664 3.695882,49.942688 4.20609,49.236296" slic3r:type="contour"/>
    <polygon style="fill: white" points="4.102372,45.841648 4.34572,46.009804 3.770849,46.492643 4.383793,46.706716 4.524976,46.736116 4.244123,47.655331 3.988439,48.629795 3.291469,48.331031 2.761447,48.173384 3.117498,46.97628 3.208192,46.674067 2.603466,46.287859 2.21459,45.980044 2.55622,45.635248 3.108944,45.139332" slic3r:type="contour"/>
    <polygon style="fill: white" points="2.946401,40.668035 3.666772,41.619939 3.66341,41.632652 3.667845,41.636004 3.661327,41.640346 3.264345,42.999919 2.923129,43.9352 2.156352,43.288508 1.763011,43.063048 2.143415,41.963209 2.100086,41.923244 2.11856,41.859749 1.785195,41.599928 1.582192,41.395488 2.100975,40.951647 2.452539,40.711913 2.568881,40.312064" slic3r:type="contour"/>
    <polygon style="fill: white" points="5.248542,23.032958 5.374797,23.209227 5.365257,23.277104 5.76462,23.734936 5.606764,23.775683 5.278076,23.897303 4.937917,26.317204 4.885866,26.636709 4.895677,26.649712 4.894603,26.655179 4.929771,26.692713 4.914744,26.697227 4.883849,26.709929 4.621959,28.043344 4.112763,29.816034 4.17402,29.891913 4.193819,29.913038 4.075586,29.945464 4.066119,29.978419 4.049142,29.986415 4.073847,30.207191 4.066819,30.734502 3.612224,32.755568 3.47591,33.225377 3.507357,33.260845 3.502409,33.281745 3.667598,33.43215 3.597892,33.459516 3.439034,33.549422 3.105096,34.959879 2.613696,36.454235 2.74026,36.585668 2.720097,36.662017 2.903007,36.83628 3.491427,37.333996 3.169273,37.492851 2.451785,37.990403 1.993168,37.612988 1.422357,37.001848 1.543721,36.914911 1.935682,36.695805 1.906194,36.65176 2.230739,36.417531 2.131421,36.160028 1.516302,35.027215 1.964139,33.386941 1.92105,33.336826 1.934331,33.284295 1.735765,33.096078 1.644894,32.978144 2.075505,32.72588 2.574138,30.753533 2.727183,30.067361 2.660374,29.982388 2.679487,29.894396 2.35364,29.553029 2.22008,29.359944 2.861706,29.055504 3.192237,27.533814 3.338762,26.621378 3.293315,26.559498 3.303982,26.493661 3.074379,26.23498 2.98953,26.103528 3.393619,25.94041 3.497969,25.296346 3.609411,23.944101 3.826076,23.6668 3.979857,23.34733 3.83663,23.139948 3.892842,23.119035 4.123171,23.049601 4.127976,23.039618 4.426131,22.932335 4.623507,22.752687 5.325424,21.793098" slic3r:type="contour"/>
    <polygon style="fill: white" points="6.348571,20.738884 6.622202,21.074268 6.236339,21.14821 5.445328,21.417288 5.047501,20.939317 4.718504,20.42809 5.10942,20.302922 5.907251,20.083338" slic3r:type="contour"/>
    <polygon style="fill: white" points="7.427979,18.590337 7.44407,18.618135 7.444304,18.634203 7.524529,18.754956 7.497577,18.75635 7.446261,18.768634 7.448559,18.926372 7.297505,19.02745 6.042884,19.712084 6.058771,18.837312 5.950121,18.629778 5.950936,18.425915 5.73523,18.129929 5.653424,17.994184 5.952994,17.912107 5.953938,17.676424 5.94927,17.360018 6.548771,17.196898 7.317324,16.927094" slic3r:type="contour"/>
    <polygon style="fill: white" points="20.652448,8.42675 20.667849,8.426878 20.677137,8.444331 20.88216,8.459296 21.042739,8.467251 21.120316,8.335036 21.264474,8.113851 21.439623,8.486914 21.469565,8.488397 21.471447,8.491978 21.657088,8.500583 21.694946,8.501901 21.762917,8.370469 21.895064,8.137594 22.081695,8.497444 22.276415,8.488357 22.356834,8.485585 22.422261,8.346568 22.525644,8.113866 22.728704,8.457817 22.906812,8.444474 23.118514,8.434587 23.122238,8.426911 23.153903,8.425485 23.213224,8.304562 23.297552,8.09685 23.475233,8.411019 23.645084,8.403372 24.124699,8.402503 24.125994,8.399646 24.142226,8.399849 24.189819,8.31122 24.253652,8.154587 24.375817,8.402764 24.525453,8.404632 25.385332,8.464796 25.407574,8.426041 25.43925,8.348399 25.480771,8.44637 25.494218,8.47622 25.581896,8.482785 26.510444,8.612971 25.655165,8.833586 26.000828,9.601091 26.550432,9.632897 26.774048,9.266864 26.95069,8.72618 27.048566,8.959362 27.383673,9.718651 27.421852,9.72316 27.441402,9.762053 28.035526,9.811563 28.574832,9.89555 28.693108,9.713747 28.782354,9.387854 29.021347,9.965085 29.072211,9.973006 29.086386,10.001979 29.378342,10.034008 30.422608,10.236255 30.118791,10.535463 29.54125,10.931766 29.706258,11.269059 29.664718,11.334791 29.742098,11.342021 29.777312,11.410701 30.248811,11.436148 30.734088,10.948813 30.937708,10.480162 31.173567,11.053636 31.390933,11.53793 31.4776,11.548341 31.497019,11.590702 31.945299,11.62845 32.89448,11.774925 32.82799,11.982764 32.4446,12.626066 32.502369,12.681 32.756442,12.511712 32.778496,12.528834 32.928519,12.447708 33.381634,12.06888 33.511687,12.487072 33.848239,13.417758 33.894735,13.421165 33.89837,13.433879 34.394988,13.476917 35.1025,13.572211 35.037688,13.836476 34.851024,14.348293 35.046572,14.317265 35.740368,14.189602 35.844579,14.954856 35.939775,15.547111 36.393336,15.617287 36.862188,15.695619 36.672983,16.098089 36.332544,16.817204 35.235631,16.664372 34.989784,16.613942 35.142134,16.189329 34.886496,16.218849 34.723888,16.252868 34.702432,15.560266 34.604255,14.770436 34.556968,14.762269 34.550664,14.717986 32.990631,14.551019 32.958864,14.566973 32.955157,14.546191 32.924278,14.545015 32.927493,14.530442 32.934828,14.480891 32.709011,13.694054 32.52548,13.014377 32.381822,12.989821 32.349147,12.889799 31.525397,12.800767 31.475299,12.850499 30.955424,13.328292 30.827255,13.003497 30.723415,12.714087 30.655944,12.706795 30.62386,12.628565 29.055109,12.510136 29.172592,12.320033 29.073825,12.269831 28.973902,12.42795 28.951708,12.459477 28.590344,11.652439 28.388243,11.130014 28.22688,11.109701 28.181574,11.006068 27.602337,10.95413 27.39689,11.291692 27.090412,11.761212 26.859737,11.254537 26.704342,10.873611 26.595274,10.863831 26.567597,10.799412 25.826122,10.757513 25.482174,11.293384 25.347152,10.985726 25.237924,10.724276 25.17401,10.720664 25.167182,10.70379 24.921376,10.699972 24.427163,10.69298 24.242546,10.984514 24.178034,10.82999 24.116824,10.690953 23.468654,10.71753 23.353625,10.720439 23.299468,10.809654 23.280801,10.765435 23.26136,10.724982 22.815602,10.757689 22.906771,10.423296 23.048641,10.195218 23.025045,10.13493 22.955229,9.999043 22.588239,10.662422 22.555048,10.727061 22.302555,10.154405 22.248906,10.060006 21.973732,10.565566 21.895063,10.706368 21.613636,10.16961 21.566779,10.086066 21.279173,10.647884 21.23505,10.727057 20.8376,10.066392 20.715178,10.331985 20.716509,10.334369 20.714764,10.338041 20.974696,10.757662 20.582483,10.724625 20.535176,10.722496 20.534996,10.722885 20.531981,10.722734 20.490684,10.80965 20.463105,10.768795 20.4321,10.717715 19.871105,10.689524 19.701047,10.685696 19.69999,10.688227 19.676994,10.688606 19.547518,10.984516 19.454234,10.846663 19.357522,10.693875 18.994609,10.699861 18.622239,10.705014 18.61602,10.720716 18.546419,10.726606 18.307974,11.293384 18.137922,11.023295 17.978312,10.774683 17.918165,10.779773 17.213746,10.815431 17.19482,10.863797 17.065462,10.882112 16.699736,11.761208 16.447722,11.323449 16.217726,10.972166 15.597806,11.018487 15.563126,11.109752 15.381586,11.145475 14.874661,12.368665 14.838357,12.45951 14.798414,12.39031 14.720078,12.418196 14.734966,12.510161 13.647755,12.641816 13.151094,12.661302 13.134084,12.706822 13.056368,12.719885 12.834666,13.328285 12.6106,13.098516 12.31595,12.824987 11.438449,12.887913 11.408301,12.989843 11.335599,13.006041 11.261814,13.015943 10.856972,14.472706 10.865851,14.545012 10.835891,14.546777 10.831264,14.566973 10.822454,14.563 10.798503,14.551196 10.069534,14.630572 9.23986,14.718174 9.233189,14.762176 9.20266,14.766595 9.130694,15.662504 9.06637,16.252706 8.624044,16.206109 8.738986,16.501464 8.800318,16.613984 8.236813,16.656744 7.457511,16.817158 7.143759,16.150747 6.927981,15.695543 7.613507,15.589198 7.828973,15.554252 7.905701,14.927946 8.049732,14.189595 8.286643,14.22503 8.974461,14.348471 8.924115,14.164326 8.687655,13.572165 9.483062,13.495669 9.885541,13.45077 9.895356,13.421201 9.904526,13.420735 10.080271,12.795647 10.408467,12.068885 10.534628,12.129985 11.185406,12.594803 11.445498,12.73713 11.278212,12.278444 10.895632,11.774927 12.272244,11.622023 12.312423,11.548336 12.325087,11.547352 12.479148,11.12219 12.852333,10.480218 12.96194,10.581687 13.56635,11.450857 14.003773,11.416852 14.047971,11.341978 14.132457,11.337581 14.083878,11.268766 14.272708,10.802712 13.98377,10.498647 13.367585,10.236231 14.684578,10.028249 14.730678,9.951826 14.794065,9.777808 15.007766,9.387843 15.337729,9.910142 16.20712,9.822006 16.318528,9.807303 16.350619,9.753056 16.505548,9.353892 16.83933,8.726223 16.889248,8.810374 17.304651,9.657789 17.763623,9.625757 17.988386,9.082174 18.152033,8.759467 17.993604,8.695992 17.279972,8.612909 18.291816,8.482803 18.312307,8.4336 18.350852,8.348406 18.418078,8.469879 18.531881,8.467627 19.403987,8.415223 19.451092,8.318469 19.53647,8.154564 19.671604,8.412258 19.867641,8.420214 20.299411,8.42381 20.368039,8.301371 20.492542,8.096849" slic3r:type="contour"/>
    <polygon style="fill: black" points="24.741831,9.146316 24.764784,9.192945 24.749047,9.202361 24.879532,9.478818 25.144293,9.044557 25.095912,8.989417" slic3r:type="hole"/>
    <polygon style="fill: black" points="18.691578,8.964073 18.699804,8.978937 18.665219,8.96508 18.916138,9.453106 19.031126,9.19507 19.025489,9.192655 19.077736,9.085342 18.743384,8.910969" slic3r:type="hole"/>
    <polygon style="fill: white" points="37.410568,17.21055 37.840888,17.360099 37.840505,17.918166 38.003,17.962254 38.136688,17.994178 37.840187,18.381231 37.840016,18.629678 37.760222,18.776245 37.747236,19.712246 37.072795,19.233614 36.341528,18.92629 36.350896,18.852991 36.349289,18.775623 36.265612,18.754994 36.281035,18.720186 36.367549,18.57854 36.383964,18.548245 36.475352,17.957671 36.472871,16.927041" slic3r:type="contour"/>
    <polygon style="fill: white" points="38.562307,20.296341 39.071616,20.428078 38.842339,20.686916 38.344832,21.41728 37.667383,21.252142 37.167927,21.074284 37.427908,20.667507 37.882708,20.083354" slic3r:type="contour"/>
    <polygon style="fill: white" points="39.499253,22.983966 39.661936,23.039532 39.675293,23.062832 39.95348,23.139958 39.917299,23.178412 39.818581,23.312775 40.180892,23.944771 40.426857,25.979834 40.670711,26.072543 40.800608,26.103578 40.482735,26.442155 40.496904,26.559387 40.478466,26.582814 40.786136,28.005226 40.981572,29.129959 41.374535,29.304867 41.57006,29.359932 41.103165,29.829728 41.129696,29.982414 41.09528,30.022918 41.447647,31.323997 41.75353,32.785124 42.021832,32.932434 42.14522,32.978092 41.850807,33.249798 41.869028,33.33683 41.843247,33.36447 42.016747,33.918155 42.273808,35.026992 42.054664,35.807455 41.640532,36.48702 41.883972,36.651692 41.84206,36.726606 42.367767,37.00182 42.220851,37.121408 41.338456,37.990271 40.765091,37.678855 40.298719,37.33398 40.565291,37.063828 41.066337,36.637725 41.050016,36.585684 41.190389,36.427798 40.375254,33.583516 40.122552,33.43216 40.176524,33.374314 40.286375,33.273389 40.28278,33.260844 40.325108,33.209659 39.723444,30.735424 39.756728,29.994624 39.724172,29.978526 39.71886,29.955701 39.620268,29.924234 39.596296,29.913036 39.682537,29.799643 39.609255,29.484793 39.167892,28.04214 38.943588,26.856244 38.909714,26.713819 38.86036,26.692686 38.870711,26.67983 38.880381,26.669312 38.907487,26.631505 38.717075,24.897327 38.545123,23.935161 38.025508,23.734938 38.13226,23.589819 38.422359,23.248236 38.415372,23.209137 38.577548,22.971997 38.464976,21.793178" slic3r:type="contour"/>
    <polygon style="fill: white" points="41.371169,40.753645 41.980196,41.247504 42.207928,41.395435 41.663562,41.819112 41.690044,41.923272 41.663605,41.945768 41.878748,42.536396 42.027076,43.0633 41.49576,43.567244 40.866779,43.935288 40.129833,41.642805 40.122268,41.636056 40.127183,41.631787 40.123348,41.619876 40.127528,41.6159 41.221352,40.312216" slic3r:type="contour"/>
    <polygon style="fill: white" points="41.21664,45.664724 41.575532,45.980024 40.945587,46.384308 40.575498,46.656376 40.852988,47.591968 41.028676,48.17336 40.539787,48.401172 39.801656,48.629772 39.381359,47.169847 39.265148,46.736148 39.964775,46.486021 39.559903,46.131387 39.44442,46.009787 40.042131,45.580188 40.681128,45.139299" slic3r:type="contour"/>
    <polygon style="fill: white" points="39.906615,49.527239 40.335571,50.151668 39.918311,50.30528 38.982992,50.647088 38.590444,50.03214 38.295392,49.666108 38.694531,49.62564 39.58408,49.236284" slic3r:type="contour"/>
    <polygon style="fill: white" points="38.84328,51.068424 39.05044,51.85906 39.187264,52.39466 38.696119,52.175707 38.087768,52.127704 37.721911,51.566636 37.607528,51.051344 38.35978,51.004328" slic3r:type="contour"/>
    <polygon style="fill: white" points="36.933351,52.780803 37.457455,52.967196 37.409768,53.714756 37.46152,54.338156 37.012547,54.230096 36.340768,54.033624 36.273372,53.281551 36.239276,52.699895" slic3r:type="contour"/>
    <polygon style="fill: white" points="34.966488,54.219048 35.579196,54.571068 35.485904,55.136488 35.446116,55.899703 35.164639,55.786671 34.353495,55.376024 34.437463,54.751616 34.49642,54.022551" slic3r:type="contour"/>
    <polygon style="fill: white" points="32.636489,55.305003 33.388044,55.87166 33.306877,56.217544 33.152198,57.187352 33.105548,57.161844 32.797263,56.959694 32.661064,57.402936 30.958422,57.57545 30.832535,58.002864 30.792848,58.17876 30.195606,57.65274 30.078748,57.66458 30.018221,57.617225 28.945878,57.704205 28.625488,58.612311 28.524446,58.961328 28.01596,58.455232 27.605072,58.092224 27.957608,56.945151 28.002678,56.816364 28.672354,57.407903 28.823656,57.550955 29.137276,56.85752 29.237966,56.395056 29.801285,56.361472 30.086138,56.332648 30.159378,56.082112 30.21109,56.125076 30.410118,56.299863 30.429769,56.297876 30.462646,56.322558 31.105233,56.276552 32.197893,56.13965 32.405052,55.151888" slic3r:type="contour"/>
    <polygon style="fill: white" points="26.445817,57.908327 26.805969,58.30272 26.475418,59.081351 26.299504,59.5516 25.918332,59.11444 25.429678,58.603164 25.8063,57.633811 25.924354,57.353788" slic3r:type="contour"/>
    <polygon style="fill: white" points="24.309662,58.22966 24.694108,58.72952 24.353706,59.393639 24.095136,59.927848 23.798356,59.527692 23.298226,58.889684 23.712322,58.044439 23.89554,57.688208" slic3r:type="contour"/>
    <polygon style="fill: white" points="18.130354,58.055532 18.36056,58.603 17.854039,59.180008 17.490636,59.5516 17.232869,58.945751 16.984138,58.302664 17.68077,57.556731 17.865749,57.353776" slic3r:type="contour"/>
    <polygon style="fill: white" points="20.189239,58.300079 20.491902,58.889692 20.071602,59.454575 19.695004,59.927852 19.450904,59.4523 19.096036,58.729579 19.662968,57.989227 19.894556,57.688196" slic3r:type="contour"/>
    <polygon style="fill: white" points="22.235934,58.363396 22.596852,58.934788 22.229942,59.526511 21.895064,60.061028 21.642305,59.653251 21.193242,58.934736 21.667551,58.163628 21.895064,57.80396" slic3r:type="contour"/>
  </g></svg>