<svg width="43.790126" height="63.590156" xmlns="http://www.w3.org/2000/svg" xmlns:svg="http://www.w3.org/2000/svg" xmlns:xlink="http://www.w3.org/1999/xlink" xmlns:slic3r="http://slic3r.org/namespaces/slic3r"><g xmlns="http://www.w3.org/2000/svg" slic3r:z="4.81849999999998e-005" id="layer145">
    <polygon style="fill: white" points="4.736667,32.562735 4.739234,32.59441 4.732136,32.636234 4.732137,32.636236 4.732137,32.636239 5.157488,33.817163 5.559837,34.662428 5.395774,35.415115 5.225531,35.970467 5.297362,36.030472 4.88097,37.007603 4.622523,37.479048 3.916331,37.441191 3.68135,37.56242 4.05161,36.392604 3.736762,36.074848 3.628163,35.977656 4.223106,35.636444 4.732137,32.636239 4.732136,32.636237 4.732136,32.636234 4.72742,32.623139 4.729115,32.60938 4.735993,32.555786" slic3r:type="contour"/>
    <polygon style="fill: white" points="5.619277,31.662824 5.711556,31.74398 4.928289,32.241747 4.687757,32.371078 4.051422,31.665252 3.848886,31.470274 4.523874,31.125006 4.854193,30.968796" slic3r:type="contour"/>
    <polygon style="fill: white" points="6.125835,27.594681 6.212659,27.678316 5.41507,28.114276 5.153899,28.23293 4.557513,27.507964 4.38214,27.319576 5.113747,26.974479 5.421364,26.847774" slic3r:type="contour"/>
    <polygon style="fill: white" points="6.922931,24.109192 6.975464,24.168188 6.114632,24.521044 5.943395,24.583979 5.936069,24.613187 5.928533,24.643077 5.939928,24.585253 5.883997,24.605809 5.324158,23.814211 5.198733,23.645016 6.027794,23.299465 6.280086,23.216216" slic3r:type="contour"/>
    <polygon style="fill: white" points="7.455011,20.281696 7.79148,20.3034 8.164044,21.17713 8.16095,21.29873 7.984651,21.314888 8.035864,21.411259 8.0652,21.454122 7.343497,21.426224 7.05803,21.490067 6.988515,21.406185 6.914422,21.412976 6.795218,21.39533 6.792127,21.169206 6.421338,20.72178 6.332938,20.545918 6.782695,20.479004 6.777752,20.117392 6.780941,19.82295" slic3r:type="contour"/>
    <polygon style="fill: white" points="9.351309,17.463888 9.992632,17.694027 9.909537,18.539575 9.806755,19.200508 8.936447,19.09758 8.546822,18.935198 8.798157,18.018771 8.923062,17.34923" slic3r:type="contour"/>
    <polygon style="fill: white" points="14.341979,15.069198 14.727836,15.464801 14.133,16.840317 14.123763,16.861404 14.058008,16.797032 14.04601,16.894066 13.063221,16.839752 12.217237,16.798356 12.151894,16.803219 11.863697,17.807384 11.526816,17.644454 10.831292,17.159006 11.019113,16.686336 11.356786,15.66686 11.393991,15.686174 11.625521,15.844844 11.625322,15.54346 12.455881,15.577379 13.393657,15.611595 13.689753,14.941637 13.858868,14.603466" slic3r:type="contour"/>
    <polygon style="fill: white" points="16.290557,14.205571 16.866577,14.856347 16.455368,15.742496 16.238973,16.201035 15.807304,15.711792 15.406207,15.262401 15.749274,14.533333 16.053316,13.935841" slic3r:type="contour"/>
    <polygon style="fill: white" points="17.930682,13.607364 18.626069,14.442416 18.32494,15.060749 17.987622,15.753297 17.700172,15.388176 17.184404,14.766536 17.441903,14.236533 17.829582,13.483043" slic3r:type="contour"/>
    <polygon style="fill: white" points="21.999324,13.118768 22.1431,13.118452 23.056522,13.117346 23.111434,13.03656 23.134862,13.00324 23.196545,13.117463 23.282063,13.116215 23.923122,13.11029 24.043892,13.362261 24.1485,13.58701 24.460195,13.180631 24.476879,13.213138 25.11647,14.420818 24.800215,14.86463 24.343566,15.466445 24.168304,15.131538 23.787122,14.389978 23.784755,14.390038 23.777429,14.375344 23.700572,14.375913 23.559462,14.595439 23.074754,15.308849 22.91754,15.02917 22.555994,14.377741 22.431922,14.377648 22.37239,14.477103 21.895064,15.261035 21.741213,15.002312 21.361552,14.378509 21.232201,14.378586 21.17042,14.488902 20.715362,15.308852 20.550994,15.047645 20.096599,14.377113 20.012167,14.37637 20.005372,14.390038 20.00174,14.389987 19.857377,14.667358 19.44656,15.466444 19.241808,15.172842 18.673668,14.420804 18.878924,14.020974 19.329938,13.180642 19.347983,13.205017 19.642675,13.59239 19.866868,13.110315 20.590872,13.117996 20.591344,13.117173 20.593068,13.117177 20.635204,13.039182 20.655264,13.00324 20.732775,13.117477 20.84843,13.117725 21.789655,13.118952 21.86229,12.998948 21.895064,12.946361" slic3r:type="contour"/>
    <polygon style="fill: white" points="26.05199,13.671178 26.60574,14.766408 26.182299,15.297315 25.802514,15.753294 25.58914,15.315084 25.164062,14.442368 25.440327,14.103567 25.960524,13.483033" slic3r:type="contour"/>
    <polygon style="fill: white" points="27.951618,14.391487 28.38391,15.262349 27.789926,15.933819 27.55117,16.201048 27.271018,15.592005 26.923554,14.856367 27.32335,14.402135 27.73679,13.935822" slic3r:type="contour"/>
    <polygon style="fill: white" points="30.340604,15.524458 30.372405,15.590695 30.373481,15.590596 30.378229,15.601275 31.088949,15.565534 32.16487,15.54347 32.175352,15.641358 32.178155,15.846334 32.189886,15.837972 32.189931,15.842788 32.43333,15.666837 32.45907,15.733223 32.958836,17.159044 32.498175,17.386592 31.926398,17.807363 31.819766,17.480722 31.62655,16.802481 31.585697,16.799353 29.98581,16.881787 29.744004,16.894014 29.731315,16.79506 29.666388,16.86141 29.282103,15.965733 29.06241,15.464694 29.698781,14.84593 29.931288,14.603464" slic3r:type="contour"/>
    <polygon style="fill: white" points="35.07874,18.159546 35.243308,18.935152 34.297559,19.049738 33.98338,19.200534 33.931156,18.51956 33.797484,17.694024 34.33318,17.547702 34.867064,17.349228" slic3r:type="contour"/>
    <polygon style="fill: white" points="37.001735,20.478989 37.270335,20.518925 37.457224,20.545924 36.994735,21.088942 36.993844,21.166552 36.994944,21.395356 36.793008,21.378932 36.73246,21.490152 35.789008,21.469004 35.724924,21.45413 35.804465,21.298529 35.681404,21.28852 35.629187,21.298758 36.029568,20.773504 35.998972,20.303468 36.753407,19.83398 37.009264,19.82302" slic3r:type="contour"/>
    <polygon style="fill: white" points="38.402791,23.587245 38.591392,23.644998 38.065352,24.389021 37.906148,24.605813 37.849736,24.583026 37.861596,24.643077 37.846167,24.581585 36.895683,24.197645 36.814664,24.168192 37.353796,23.396615 37.510079,23.216229" slic3r:type="contour"/>
    <polygon style="fill: white" points="39.18346,27.230854 39.407988,27.319574 38.86292,27.982467 38.63626,28.232918 37.685735,27.726227 37.577468,27.678319 38.151911,27.05905 38.368764,26.847774" slic3r:type="contour"/>
    <polygon style="fill: white" points="39.702587,31.359815 39.941244,31.47027 39.347808,32.126381 39.102368,32.371078 38.176972,31.79557 38.078571,31.74398 38.684363,31.19062 38.935932,30.968796" slic3r:type="contour"/>
    <polygon style="fill: white" points="39.055744,32.568832 39.062708,32.623139 39.057907,32.634117 39.050892,32.594409 39.051587,32.587224 39.054136,32.555786" slic3r:type="contour"/>
    <polygon style="fill: white" points="39.434156,34.763747 39.573634,35.644984 40.041132,35.912336 40.161964,35.977656 39.743196,36.397358 39.934595,36.982463 40.108784,37.562403 39.544416,37.624624 39.167592,37.479012 38.492784,36.030455 38.579957,35.957576 38.230275,34.662244 38.760239,33.314826 39.057906,32.634118" slic3r:type="contour"/>
  </g></svg>