<svg width="43.790126" height="63.590156" xmlns="http://www.w3.org/2000/svg" xmlns:svg="http://www.w3.org/2000/svg" xmlns:xlink="http://www.w3.org/1999/xlink" xmlns:slic3r="http://slic3r.org/namespaces/slic3r"><g xmlns="http://www.w3.org/2000/svg" slic3r:z="4.22449999999998e-005" id="layer127">
    <polygon style="fill: white" points="11.517593,55.220972 11.676656,55.976964 11.197997,56.23898 10.623384,56.630484 10.523475,56.193972 10.373878,55.347876 10.941185,54.966652 11.347096,54.657252" slic3r:type="contour"/>
    <polygon style="fill: white" points="9.400143,54.323552 9.443595,54.856083 8.763697,55.129196 8.354221,55.3465 8.236227,54.59224 8.192936,54.04282 9.04303,53.674792 9.284474,53.531908" slic3r:type="contour"/>
    <polygon style="fill: white" points="7.50703,53.116804 7.484439,53.502264 6.702685,53.690007 6.384992,53.785912 6.330826,52.79572 6.348967,52.424992 7.443954,52.276163 7.592911,52.21912" slic3r:type="contour"/>
    <polygon style="fill: white" points="5.731612,49.896483 6.016118,50.016976 5.694404,50.532492 6.139398,50.55136 6.27145,50.531168 5.8289,51.06132 5.740808,51.471148 4.963829,51.797796 4.676339,51.810112 4.918372,50.886148 4.446285,50.712247 4.03812,50.563483 4.522313,50.144236 4.832151,49.715259" slic3r:type="contour"/>
    <polygon style="fill: white" points="3.969415,44.473264 4.448782,44.802376 4.307783,45.402832 4.088252,46.19961 4.777181,46.609148 4.59199,46.880683 3.965666,47.547072 3.56317,47.238704 2.682046,46.710244 2.697394,46.693508 2.769613,46.616519 2.648248,46.555236 2.683005,46.430075 3.266205,44.069072" slic3r:type="contour"/>
    <polygon style="fill: white" points="2.973772,37.174561 3.67818,37.845668 3.774532,37.927168 3.393812,38.114901 3.424358,38.187923 3.400607,38.204675 3.685286,38.473104 3.803245,38.628976 3.443903,39.987492 2.964762,41.377673 3.0862,41.487752 3.069953,41.543392 3.493894,41.892919 4.049165,42.312668 3.645729,42.581963 3.079247,43.060684 2.489247,42.62996 1.93342,42.117288 2.100379,41.967803 2.599347,41.604077 2.562266,41.572804 2.807145,41.363301 2.523195,41.024036 1.82192,40.445016 2.459793,38.406539 2.391182,38.338524 2.413925,38.251056 1.953403,37.872071 1.705331,37.606472 2.20914,37.245583 2.754653,36.940639 2.776637,36.856092" slic3r:type="contour"/>
    <polygon style="fill: white" points="3.506009,33.511906 3.913632,33.883044 3.472786,34.056116 2.817445,34.427012 2.318446,33.98588 1.872243,33.466916 2.13208,33.312356 2.946117,32.941786" slic3r:type="contour"/>
    <polygon style="fill: white" points="3.626357,29.324284 3.607686,29.407293 3.936161,29.771056 4.397539,30.228168 4.052495,30.342812 3.264681,30.713886 2.873469,30.336288 2.39788,29.731394 2.586039,29.637375 3.316542,29.361119 3.313655,29.314938 3.494316,29.229216 3.538127,29.214996" slic3r:type="contour"/>
    <polygon style="fill: white" points="4.721478,26.466237 5.10162,26.871972 4.722717,26.98575 3.947325,27.304536 3.547826,26.885938 3.140313,26.331074 3.411587,26.2145 4.270452,25.927888" slic3r:type="contour"/>
    <polygon style="fill: white" points="5.695972,23.546228 5.918515,23.801352 5.404212,23.934109 4.756955,24.173604 4.264248,23.620957 3.98686,23.219318 4.477133,23.036925 5.150542,22.833919" slic3r:type="contour"/>
    <polygon style="fill: white" points="7.625491,18.337243 7.841007,18.661632 7.471301,18.680752 6.71078,18.86282 6.797519,20.916612 6.798922,21.012963 6.772159,21.030872 6.785662,21.047428 6.732182,21.057675 5.206887,22.696558 5.330567,21.200852 5.330902,21.145092 5.23798,20.991953 5.240705,20.841893 4.978535,20.526906 4.887962,20.386166 5.251094,20.269894 5.257295,19.928465 5.23544,19.489846 5.781211,19.212286 6.486518,18.741153 6.284218,18.418634 5.97388,17.825852 6.346798,17.755904 7.267638,17.592004" slic3r:type="contour"/>
    <polygon style="fill: white" points="9.394223,16.033908 9.518645,16.355888 9.128326,16.367992 8.633262,16.4263 8.579807,17.44785 7.982379,17.507 7.265989,17.482392 7.318333,16.590537 7.406113,15.503064 7.453636,15.506112 7.58019,15.503519 7.527916,15.359572 7.634944,15.350832 9.170168,15.216698" slic3r:type="contour"/>
    <polygon style="fill: white" points="12.343363,11.9257 12.962943,12.585836 12.581796,13.597025 12.586768,14.168945 12.452102,14.1724 12.36526,14.171501 12.36316,14.177071 12.357148,14.177425 12.319142,14.290159 12.279324,14.259696 12.185708,14.187522 11.505961,14.227554 10.662847,14.25416 10.65047,14.298696 10.612206,14.302862 10.550585,14.601181 10.330004,15.563788 9.769716,15.311128 9.195748,15.028234 9.382931,14.1986 9.695148,13.258068 9.753378,13.28342 10.064775,13.446035 9.94262,13.098064 10.551199,13.071586 11.537343,13.021442 11.5523,12.988183 11.562131,12.988028 11.795232,12.35972 12.124966,11.755004" slic3r:type="contour"/>
    <polygon style="fill: white" points="22.100469,9.331897 22.27673,9.327707 22.431517,9.325939 22.524926,9.15193 22.626114,8.954523 22.815779,9.313709 22.96938,9.308487 23.316686,9.305979 23.31737,9.304872 23.324089,9.304786 23.39747,9.176487 23.467438,9.032265 23.600518,9.301239 23.724607,9.299647 24.43258,9.318623 24.459913,9.273276 24.483798,9.220589 24.529767,9.321696 24.583912,9.322858 25.00669,9.3547 24.684366,9.643696 25.127421,10.557914 25.475868,10.079174 25.755402,9.533632 25.837895,9.716507 26.412378,10.882582 26.861743,10.891979 27.228368,10.397832 27.407622,9.994197 27.724384,10.697259 27.846521,10.940221 27.88565,10.942959 27.900828,10.971475 28.510375,10.992318 29.19371,11.056171 29.333973,10.883711 29.400802,10.720619 29.5633,11.090706 29.594202,11.093594 29.601335,11.107507 29.805269,11.118513 30.35012,11.183956 30.161096,11.78744 30.044429,11.971718 30.238874,12.350963 29.720489,12.976827 29.397244,13.340657 29.164861,12.827538 28.948903,12.301808 28.821256,12.293347 28.779801,12.200765 27.859395,12.165046 27.449854,12.676479 27.331338,12.428514 27.204556,12.139633 27.137961,12.137049 27.115154,12.086954 26.44442,12.065076 25.867056,12.054004 25.743336,12.214592 25.709333,12.142872 25.667993,12.050186 25.649804,12.049837 25.645546,12.040135 25.012872,12.033285 25.097212,11.649386 25.195086,10.996954 25.113203,10.800958 24.488671,11.748363 24.416558,11.862243 24.121154,11.154673 23.948415,10.762299 23.584133,11.325486 23.403117,11.623684 23.164782,11.059076 23.027494,10.773417 22.850491,11.066885 22.59823,11.502306 22.378994,11.028355 22.263574,10.810203 22.19264,10.939229 21.895064,11.467627 21.659675,11.030086 21.543418,10.824059 21.476361,10.959992 21.191884,11.502317 20.907498,11.044757 20.767478,10.802802 20.597853,11.17995 20.387018,11.623682 20.035017,11.102231 19.839118,10.779493 19.457605,11.669993 19.373478,11.862265 18.946281,11.230968 18.674881,10.802197 18.598279,10.980974 18.729092,11.663969 18.777256,12.03328 18.266445,12.043241 18.143231,12.042989 18.140297,12.049837 18.120163,12.050816 18.046762,12.214592 18.001354,12.154407 17.928788,12.060121 17.142001,12.098375 16.666697,12.103294 16.652152,12.137059 16.576315,12.143312 16.340282,12.676464 16.187518,12.471693 15.965675,12.193664 15.9274,12.196821 15.000397,12.217028 14.968778,12.293323 14.824443,12.310801 14.74937,12.483847 14.392847,13.340676 14.070058,12.938365 13.551314,12.350732 13.786674,11.796854 13.655005,11.433628 13.439968,11.183979 14.180218,11.120256 14.199989,11.086762 14.264414,10.927752 14.389397,10.720564 14.68326,11.068234 15.789957,11.010636 15.868663,11.005287 16.091489,10.48605 16.382455,9.994197 16.62682,10.31694 16.972276,10.907684 17.36323,10.894766 17.675244,10.18472 18.034682,9.533629 18.107766,9.632779 18.66481,10.542661 18.912799,9.989654 19.122577,9.58817 19.027436,9.495719 18.783588,9.354658 18.783588,9.354657 19.255762,9.32581 19.276723,9.27877 19.306356,9.220581 19.366865,9.321978 19.450631,9.322622 20.178798,9.309975 20.240441,9.184047 20.322658,9.032264 20.482604,9.313055 20.663757,9.318778 20.960394,9.322316 21.049175,9.153184 21.164036,8.954493 21.363858,9.327128 21.371696,9.327221 21.373953,9.330886 21.56142,9.335259 21.678663,9.336695 21.774289,9.154364 21.895064,8.941067" slic3r:type="contour"/>
    <polygon style="fill: white" points="31.900209,12.351439 32.19111,12.986023 32.237816,12.988018 32.24511,13.006312 32.851098,13.025026 33.8475,13.098032 33.834316,13.196973 33.761959,13.439412 34.09498,13.25804 34.129931,13.403713 34.59436,15.028234 33.789595,15.398291 33.460092,15.563768 33.360784,15.006907 33.194131,14.304526 33.139656,14.298696 33.125609,14.24975 31.60739,14.184856 31.471,14.290187 31.455508,14.241709 31.433689,14.17743 31.426993,14.177144 31.423941,14.169409 31.203446,14.169005 31.22088,14.059604 31.237642,13.697309 31.108162,13.369192 30.827146,12.585981 31.347344,12.15291 31.665098,11.754946" slic3r:type="contour"/>
    <polygon style="fill: white" points="35.372844,15.276922 36.262264,15.359653 36.246676,15.409656 36.215137,15.498867 36.383976,15.503033 36.392956,15.645979 36.524224,17.482242 35.68964,17.404378 35.210456,17.44805 35.249368,17.061198 35.202447,16.459512 34.271448,16.355874 34.395075,15.863622 34.620064,15.216656" slic3r:type="contour"/>
    <polygon style="fill: white" points="37.209135,17.720489 37.816224,17.825836 37.6523,18.077393 37.30237,18.72016 37.849351,19.033961 38.554704,19.48988 38.553356,20.284498 38.761951,20.349872 38.902164,20.38614 38.552514,20.780872 38.552156,20.991881 38.496952,21.077123 38.583204,22.696587 37.811239,21.735389 37.08248,21.074322 37.067569,21.063741 37.012492,21.050316 37.004468,21.047458 37.019047,21.024646 36.991184,21.012933 37.119768,20.006835 37.096329,18.879048 36.531867,18.80535 35.94916,18.661694 36.16086,18.183901 36.522336,17.592066" slic3r:type="contour"/>
    <polygon style="fill: white" points="39.395439,23.106277 39.803252,23.219342 39.487936,23.554505 39.033028,24.173662 38.215928,23.934028 37.871624,23.801356 38.219424,23.328558 38.6395,22.833928" slic3r:type="contour"/>
    <polygon style="fill: white" points="40.07602,26.157562 40.649816,26.331128 40.456603,26.524784 39.842832,27.304579 39.195916,27.089228 38.688508,26.871958 38.949571,26.547826 39.519496,25.927902" slic3r:type="contour"/>
    <polygon style="fill: white" points="40.476568,29.31509 40.479422,29.382204 40.753287,29.512845 41.392263,29.731386 41.238371,29.874814 40.525384,30.713936 39.922244,30.490056 39.392584,30.228155 39.641219,29.940166 40.182996,29.395932 40.163656,29.324484 40.222312,29.247363 40.251956,29.215114" slic3r:type="contour"/>
    <polygon style="fill: white" points="41.354848,33.231116 41.917876,33.466864 41.661923,33.688024 40.97268,34.427012 40.269539,34.118443 39.876508,33.883036 40.217807,33.517244 40.844056,32.941888" slic3r:type="contour"/>
    <polygon style="fill: white" points="41.038396,36.940651 41.791027,37.452639 42.0848,37.606432 41.475096,38.102728 41.369511,38.206693 41.39894,38.338516 41.359146,38.37508 41.688927,39.346775 41.968196,40.44522 41.696124,40.82086 41.002701,41.390367 41.227804,41.572904 41.172878,41.624999 41.280019,41.716543 41.856711,42.117244 41.596667,42.307328 40.711131,43.060788 40.070564,42.606748 39.740968,42.312715 40.113595,41.98812 40.718068,41.532217 40.703808,41.487856 40.827792,41.367622 40.266131,39.496355 39.986884,38.62896 40.41318,38.22303 40.365808,38.187876 40.387197,38.143897 40.09198,37.983552 40.015604,37.927072 40.602555,37.332244 40.908467,37.072091 41.013504,36.85612" slic3r:type="contour"/>
    <polygon style="fill: white" points="40.82724,45.090471 41.14188,46.555224 41.110508,46.580815 41.026762,46.623855 41.10808,46.71024 41.076071,46.733996 39.824444,47.547063 39.526315,47.114923 39.012956,46.609148 39.232952,46.484123 39.639529,46.241953 39.711763,46.190036 39.34136,44.802399 39.833688,44.520955 40.523864,44.069163" slic3r:type="contour"/>
    <polygon style="fill: white" points="39.51358,50.216424 39.751992,50.56348 38.873788,50.886785 39.037719,51.512439 39.113764,51.810124 38.418776,51.500296 38.04934,51.471148 37.561136,50.722444 37.518676,50.531168 38.10177,50.494726 37.883531,50.152843 37.774008,50.016976 38.417811,49.9517 38.958012,49.715252" slic3r:type="contour"/>
    <polygon style="fill: white" points="37.1866,52.334456 37.441164,52.424988 37.376408,53.440112 37.405116,53.78592 36.673516,53.60984 36.305684,53.502263 36.209552,52.429512 36.19722,52.219116" slic3r:type="contour"/>
    <polygon style="fill: white" points="35.248096,53.84224 35.597224,54.042824 35.46068,54.87042 35.43586,55.346524 34.853224,55.112548 34.346428,54.85598 34.477327,53.882592 34.505688,53.5319" slic3r:type="contour"/>
    <polygon style="fill: white" points="32.909751,54.965995 33.41623,55.347864 33.275767,55.94644 33.166662,56.630512 32.828058,56.445368 32.113448,55.976784 32.314306,55.271119 32.443056,54.657231" slic3r:type="contour"/>
    <polygon style="fill: white" points="30.459443,55.796163 31.123163,56.379044 31.011301,56.766116 30.798076,57.667636 30.692231,57.595419 29.814149,56.908436 29.614863,57.6079 29.372152,58.178944 28.596504,58.236897 28.53768,58.403628 28.5185,58.469876 28.306212,58.258585 28.271923,58.261148 28.256393,58.246921 27.121401,58.31522 26.579865,58.343114 26.36471,58.849923 26.292542,59.04284 25.721004,58.387353 25.649908,58.391016 25.621584,58.360093 24.607072,58.397877 24.606519,58.399027 24.597786,58.399136 24.218411,59.139292 24.09029,59.403996 23.578331,58.713711 23.3661,58.442971 23.316202,58.444424 23.294227,58.415348 22.610524,58.423852 22.600014,58.441432 22.572174,58.441077 22.069043,59.252484 21.895064,59.530184 21.444612,58.803472 21.218199,58.441206 21.18999,58.441448 21.178828,58.423298 20.495823,58.414585 20.473907,58.444336 20.427398,58.442478 19.886464,59.169495 19.699858,59.404003 19.278777,58.583655 19.188149,58.399084 19.183684,58.399048 19.180507,58.392657 18.174643,58.352467 18.140206,58.391028 18.088122,58.387534 17.646691,58.890396 17.497608,59.04284 17.193259,58.327507 16.38999,58.273624 15.540475,58.24014 15.518158,58.26114 15.49291,58.258793 15.326392,58.422783 15.271594,58.469844 15.186914,58.230351 14.940516,58.207447 14.417996,58.17894 14.312726,57.652907 13.983579,56.900374 13.723977,57.077531 12.992022,57.667624 12.952121,57.527711 12.666904,56.379 13.012779,56.08956 13.590675,55.58018 13.720001,55.91938 13.990288,56.842386 15.086756,56.939956 15.117855,56.912067 15.163208,56.914786 15.765341,56.30886 15.842685,56.484307 16.013208,56.965748 16.500459,56.99496 17.646132,57.074205 17.651572,57.068379 17.661074,57.068726 17.858542,56.838267 17.890079,56.900231 17.966775,57.079899 19.788228,57.146464 19.852004,57.216503 19.889854,57.167075 19.892864,57.163163 19.961731,57.306159 21.497245,57.918472 21.874491,57.305164 21.895064,57.272644 22.302319,57.941026 23.023385,57.667316 23.823211,57.314038 23.894854,57.167803 23.897232,57.16318 23.945935,57.226858 24.001669,57.146512 25.483325,57.0992 25.827292,57.083015 25.931556,56.838284 25.975745,56.887051 26.131764,57.068688 26.138493,57.068371 26.150015,57.080625 26.959127,57.042008 27.787785,56.979195 28.024844,56.308868 28.154416,56.432596 28.635094,56.914968 28.672243,56.912152 28.717756,56.952354 29.802972,56.842541 29.942461,56.459336 30.19947,55.580176" slic3r:type="contour"/>
  </g></svg>