<svg width="43.790126" height="63.590156" xmlns="http://www.w3.org/2000/svg" xmlns:svg="http://www.w3.org/2000/svg" xmlns:xlink="http://www.w3.org/1999/xlink" xmlns:slic3r="http://slic3r.org/namespaces/slic3r"><g xmlns="http://www.w3.org/2000/svg" slic3r:z="4.32349999999998e-005" id="layer130">
    <polygon style="fill: white" points="26.181865,56.559051 26.789236,57.266148 26.634288,57.6088 26.289178,58.50848 26.215675,58.435975 25.400904,57.546432 25.598747,57.145688 25.955232,56.308928" slic3r:type="contour"/>
    <polygon style="fill: white" points="28.382202,56.104768 28.933294,56.657803 28.763499,57.124552 28.524384,57.913332 28.327274,57.752596 27.571006,57.059788 27.804454,56.509795 28.05738,55.794604" slic3r:type="contour"/>
    <polygon style="fill: white" points="30.7078,55.467252 31.143556,55.849932 30.960874,56.482063 30.813864,57.10362 30.435944,56.845784 29.811098,56.35692 30.088717,55.594244 30.239564,55.07824" slic3r:type="contour"/>
    <polygon style="fill: white" points="33.183016,54.626988 33.444414,54.824072 33.244658,55.675335 33.181124,56.073672 32.550567,55.728895 32.131234,55.453928 32.431392,54.399391 32.48106,54.162576" slic3r:type="contour"/>
    <polygon style="fill: white" points="38.676404,49.590972 38.690375,49.577124 38.688248,49.590555 38.682888,49.63771 38.689247,49.937185 38.703576,49.939084 38.906145,50.712203 39.12054,50.905608 39.168408,50.975292 38.992087,51.040204 39.024999,51.165819 39.040267,51.225587 38.790715,51.114338 38.566029,51.197055 38.332116,51.578224 37.370623,52.733197 37.343047,53.165472 37.348712,53.233688 36.85328,53.114448 35.686803,53.696516 35.576128,53.751728 35.435452,54.604352 35.4256,54.793344 34.541808,54.438428 34.339364,54.33594 34.44962,53.516047 34.304612,53.157992 34.398751,53.15722 34.555355,53.141938 35.448076,52.752695 36.35286,52.399156 36.671116,51.965763 37.835886,50.546173 37.690643,50.323432 37.829801,50.309323 37.734892,49.333512 38.157171,49.26542" slic3r:type="contour"/>
    <polygon style="fill: white" points="40.188664,46.88826 40.57646,47.300216 39.943955,47.76966 39.354424,48.152624 38.822443,47.381503 38.594304,47.156736 39.146884,46.842707 39.793096,46.457804" slic3r:type="contour"/>
    <polygon style="fill: white" points="40.767532,42.167247 40.791021,42.266213 41.288484,42.691264 41.472696,42.81926 41.003655,43.162116 41.01968,43.229628 40.99052,43.25282 41.143851,43.769003 41.244356,44.236896 40.624471,44.74268 40.027488,45.049484 39.542267,43.125 39.363888,42.97614 39.405616,42.945803 39.483503,42.89193 39.481348,42.883383 39.49755,42.86927 39.39928,42.541772 39.509252,42.449895 40.528271,41.417056" slic3r:type="contour"/>
    <polygon style="fill: white" points="38.046248,20.203418 38.697376,20.355142 38.540951,20.533738 38.098325,21.217222 38.788124,21.952172 39.477691,22.742984 39.50437,23.24954 39.600351,23.28412 39.653024,23.298724 39.514703,23.445753 39.517384,23.49666 39.506179,23.511404 39.665464,24.807195 39.821472,26.287365 40.2633,26.469694 40.484204,26.536514 39.989812,27.032037 39.910571,27.132712 39.9255,27.274358 39.893532,27.311861 40.306619,29.687099 40.906703,29.973355 41.19078,30.070512 40.703312,30.524835 40.472395,30.796603 40.491244,30.931509 40.45477,30.970578 40.923291,32.989931 41.03359,33.604912 41.473784,33.854164 41.673612,33.937836 41.171167,34.371984 41.192076,34.488564 41.167668,34.512608 41.432599,35.412279 41.770184,36.924452 41.602392,37.350324 41.254146,37.824616 41.41756,37.93578 41.388958,37.97527 41.79236,38.204756 41.679324,38.292951 40.728675,39.166456 40.174616,38.844476 39.700068,38.49232 39.966776,38.245327 40.440177,37.861442 40.426724,37.81662 40.553211,37.688432 39.648654,34.344939 39.629988,34.333372 39.645157,34.318663 39.610164,34.154016 39.967293,30.956931 39.848136,30.894348 39.827623,30.792406 39.304775,30.598329 39.1864,30.539796 39.665198,29.985217 39.304687,28.193611 39.076133,27.307435 38.999147,27.272687 38.969786,27.209833 38.598068,27.086092 38.516656,27.051232 38.756559,26.75337 38.520124,26.247228 38.14994,25.609119 38.045447,24.489551 37.968539,23.967634 37.709856,23.867356 37.762336,23.799255 37.917481,23.621146 37.914424,23.600398 37.986485,23.502437 37.990872,22.848048 37.85909,21.341739 37.463696,21.273602 36.79446,21.059361 36.991367,20.714336 37.487092,20.048414" slic3r:type="contour"/>
    <polygon style="fill: white" points="36.98226,16.885892 37.025909,17.580717 37.256892,17.623908 37.458944,17.65897 37.068469,18.258201 37.100984,18.77578 37.102552,18.797684 36.99923,18.788045 37.010524,19.066896 36.492852,18.829656 35.694232,18.692314 35.699847,18.645345 35.695185,18.57657 35.617195,18.563454 35.629399,18.526396 35.721067,18.329529 35.779496,17.748655 35.71434,16.913112 36.611012,16.876732" slic3r:type="contour"/>
    <polygon style="fill: white" points="34.85449,14.945212 35.101536,14.964991 35.373136,14.990254 35.167044,15.651366 35.081703,15.892767 35.122363,16.034997 35.069095,16.059491 35.09104,16.182293 34.667344,16.290568 33.935624,16.559476 33.933364,16.398128 33.880801,16.101249 33.879391,16.101141 33.878091,16.093847 33.287808,16.066216 33.338372,15.757416 33.497999,14.907736 33.635566,14.91317 33.623636,14.862886 34.493975,14.466856 34.711316,14.348488" slic3r:type="contour"/>
    <polygon style="fill: white" points="30.343846,12.590235 30.400319,12.591468 30.407653,12.606863 30.955213,12.605037 32.026236,12.650764 32.022943,12.758117 31.978959,12.948792 32.038035,12.985145 32.035512,13.004087 32.29433,12.773533 32.326524,12.868844 32.936501,14.398692 32.28006,14.902164 31.945059,15.160879 31.77213,14.619727 31.528555,13.902184 31.453826,13.89899 31.427434,13.83211 30.198538,13.828099 29.83748,14.178536 29.777529,14.033479 29.693068,13.826448 29.66699,13.826364 29.654968,13.799818 28.766024,13.812849 28.799966,13.350816 28.762553,12.600766 29.178981,12.591911 29.75505,11.997621 29.95337,11.704356" slic3r:type="contour"/>
    <polygon style="fill: white" points="27.999727,11.291484 28.609992,12.437934 27.939608,13.317354 27.815134,13.472797 27.470877,12.752532 27.12898,11.973499 27.526921,11.513505 27.863944,10.99862" slic3r:type="contour"/>
    <polygon style="fill: white" points="22.216344,10.294938 22.300624,10.440579 22.525784,10.077521 22.721114,9.758618 23.067248,10.43033 23.108652,10.507645 23.23687,10.505798 23.48515,10.141247 23.641946,9.887646 23.935316,10.503506 24.242231,10.50147 24.488894,10.506948 24.646567,10.288058 24.738206,10.13219 24.913854,10.51896 25.13806,10.520323 26.073504,10.565651 26.093313,10.538435 26.104036,10.517506 26.12736,10.569214 26.16262,10.569952 26.308344,10.580143 26.247472,10.798983 26.82579,11.914582 26.334732,12.561482 26.032421,12.953878 25.791792,12.446343 25.49924,11.79042 25.370514,11.787952 25.34844,11.737655 25.267055,11.737492 25.055185,12.018328 24.628996,12.586427 24.464101,12.228145 24.239985,11.73544 24.171127,11.735302 24.162896,11.715586 23.980115,11.717687 23.534928,12.347889 23.41536,12.0929 23.238977,11.726205 23.206578,11.726578 23.204287,11.72115 22.976261,11.725351 22.658294,12.216792 22.561164,12.024702 22.408889,11.735803 22.395115,11.736057 22.39316,11.731829 22.157352,11.73457 22.154023,11.740625 22.150296,11.740572 21.895064,12.175939 21.799921,12.008613 21.642712,11.740549 21.636104,11.740626 21.632285,11.733528 21.397599,11.730821 21.395018,11.736051 21.385025,11.735828 21.13183,12.216807 21.016033,12.037512 20.813271,11.72408 20.804917,11.723984 20.804729,11.723681 20.586641,11.719743 20.583569,11.726573 20.553798,11.726357 20.255192,12.347883 20.094257,12.123294 19.808525,11.719019 19.626837,11.7168 19.618915,11.735291 19.54791,11.736675 19.161072,12.586448 18.93077,12.281858 18.523923,11.739664 18.440378,11.739493 18.419618,11.787944 18.284392,11.794518 18.059685,12.280065 17.757692,12.953878 17.436356,12.52796 16.964312,11.914631 17.228149,11.342541 17.565408,10.741065 17.534282,10.647721 17.481658,10.580197 17.659812,10.570986 17.672328,10.542503 17.686126,10.51751 17.722927,10.567436 17.802558,10.566267 18.859692,10.530819 18.956898,10.314053 19.051934,10.132167 19.331618,10.517277 19.773591,10.518204 19.835739,10.517384 19.99989,10.170961 20.148182,9.887661 20.575822,10.513321 20.666642,10.514456 20.882452,10.09493 21.069032,9.758608 21.41897,10.322676 21.485721,10.431051 21.688484,10.069308 21.895064,9.721531" slic3r:type="contour"/>
    <polygon style="fill: white" points="16.060659,11.150017 16.661202,11.97323 16.107153,13.1743 15.975021,13.472759 15.531287,12.877961 15.180127,12.437863 15.534961,11.656558 15.92622,10.998627" slic3r:type="contour"/>
    <polygon style="fill: white" points="14.224654,12.088577 14.622599,12.598425 15.027596,12.60073 15.060338,13.425244 15.023918,13.8129 14.433095,13.816097 14.13145,13.80732 14.123178,13.826388 14.096212,13.82708 13.952615,14.178556 13.844473,14.07276 13.604558,13.839695 13.328841,13.84677 12.359735,13.836733 12.336306,13.898891 12.265614,13.903054 12.135372,14.299888 11.845101,15.160864 11.400764,14.820923 10.853603,14.399085 11.086369,13.683712 11.495706,12.773566 11.53933,12.802862 11.799755,13.019922 11.861639,12.979136 11.763844,12.65078 13.370748,12.627866 13.389804,12.591407 13.393928,12.59143 13.60146,12.10304 13.836816,11.704327" slic3r:type="contour"/>
    <polygon style="fill: white" points="9.697271,14.617755 10.166492,14.862788 10.155847,14.914321 10.292006,14.907732 10.403739,15.566562 10.502357,16.066196 10.219093,16.070388 9.929459,16.085939 9.854466,16.559503 9.665187,16.513992 8.699057,16.182293 8.71435,16.057959 8.66776,16.034997 8.707234,15.860046 8.509126,15.243892 8.417007,14.99023 8.912612,14.949762 8.983469,14.635705 9.078811,14.348497" slic3r:type="contour"/>
    <polygon style="fill: white" points="7.435683,16.926222 8.075789,16.913108 8.091773,18.405047 8.172969,18.563382 8.145406,18.563802 8.099869,18.571618 8.096036,18.692062 8.012249,18.728524 6.779941,19.066866 6.79552,18.788274 6.696143,18.798114 6.687636,18.797822 6.716505,18.305953 6.434443,17.856273 6.331161,17.658992 6.759188,17.578706 6.778605,17.247868 6.80782,16.885948" slic3r:type="contour"/>
    <polygon style="fill: white" points="6.654318,20.624153 6.995676,21.059306 6.69468,21.089424 5.946467,21.317991 5.827885,23.537985 5.875772,23.600522 5.871969,23.632954 6.08029,23.867346 6.005013,23.887903 5.834556,23.952006 5.640282,25.608772 5.041431,26.781969 5.212468,26.986121 5.273469,27.051228 4.837105,27.182261 4.790944,27.272692 4.751958,27.289835 4.397373,29.025973 4.148376,30.04758 4.50061,30.437655 4.603729,30.53982 3.977705,30.747822 3.941989,30.89436 3.879027,30.92623 4.062974,32.071746 4.179962,34.154044 4.154694,34.281895 4.145251,34.32052 4.160139,34.3334 4.143323,34.34072 3.686404,36.290184 3.255169,37.713517 3.363439,37.816668 3.346048,37.882415 3.452415,37.976312 4.090059,38.492404 3.779878,38.659683 3.061416,39.166428 2.6085,38.810212 1.997774,38.204788 2.087004,38.139496 2.390631,37.957315 2.372624,37.9358 2.601169,37.772088 2.019952,36.924388 2.645574,34.539 2.598049,34.488588 2.612708,34.420716 2.274876,34.122063 2.116511,33.937872 2.766264,33.551378 2.804194,33.534112 3.352922,30.993435 3.298882,30.93151 3.317011,30.828042 2.810791,30.339438 2.599356,30.070516 3.195428,29.772677 3.523678,29.648542 3.9263,27.350674 3.864658,27.274346 3.877121,27.184203 3.462815,26.75009 3.30592,26.536463 4.008418,26.234579 4.183385,24.969113 4.294911,23.5274 4.272772,23.496693 4.275353,23.465468 4.17293,23.350583 4.13709,23.298688 4.293972,23.240325 4.310711,23.037879 4.312486,22.742764 4.997153,22.115783 5.697051,21.255678 5.47747,20.989234 5.092737,20.355188 5.357633,20.280492 6.302955,20.048322" slic3r:type="contour"/>
    <polygon style="fill: white" points="3.686653,41.770892 4.390874,42.54182 4.351705,42.695787 4.295833,42.872654 4.308813,42.883355 4.306497,42.893217 4.426262,42.976104 4.382889,43.022899 4.248331,43.14093 4.016832,44.126792 3.76261,45.04948 2.892478,44.41212 2.545797,44.23706 2.816057,43.263852 2.770473,43.229684 2.780778,43.19167 2.495,42.98304 2.317428,42.819256 2.8628,42.33096 3.051368,42.193502 3.261792,41.417284" slic3r:type="contour"/>
    <polygon style="fill: white" points="4.730761,46.880259 5.195824,47.15672 4.730678,47.838736 4.435668,48.152616 3.717443,47.602356 3.21368,47.30022 3.516999,46.969496 3.997004,46.457792" slic3r:type="contour"/>
    <polygon style="fill: white" points="5.997715,49.627811 5.943528,50.292008 6.099495,50.323432 5.91091,50.549344 7.433367,52.410932 9.219514,53.137449 9.485533,53.157988 9.456069,53.25652 9.346592,53.529808 9.433308,54.1233 9.450665,54.336036 8.527008,54.707067 8.364469,54.793323 8.200445,53.744832 7.545825,53.418091 6.932071,53.111982 6.504079,53.214768 6.441411,53.233688 6.4102,52.663142 6.032773,52.089383 5.320796,51.232504 5.035316,51.127343 4.807546,51.2231 4.749831,51.225572 4.798421,51.040079 4.703646,51.005168 4.621704,50.9753 4.872208,50.7584 5.072889,49.992299 5.088558,49.931259 5.106304,49.620543 5.100578,49.584447 5.09975,49.577124 5.105174,49.5812 5.12878,49.604621 5.444539,49.686316 6.055232,49.333504" slic3r:type="contour"/>
    <polygon style="fill: white" points="11.565501,55.010483 11.658844,55.454116 10.943526,55.845675 10.608929,56.073648 10.422881,55.260787 10.345673,54.824107 11.152465,54.281952 11.309057,54.162592" slic3r:type="contour"/>
    <polygon style="fill: white" points="13.783494,55.689152 13.979013,56.356836 13.480894,56.696764 12.976244,57.103604 12.833789,56.604076 12.646533,55.849904 13.21139,55.377211 13.550574,55.07824" slic3r:type="contour"/>
    <polygon style="fill: white" points="15.926688,56.234391 16.21906,57.059848 15.875191,57.339763 15.265702,57.9133 15.169471,57.645547 14.856881,56.657696 15.265448,56.264896 15.732805,55.794596" slic3r:type="contour"/>
    <polygon style="fill: white" points="17.996614,56.626692 18.389222,57.546416 18.150913,57.780716 17.500976,58.50848 17.454948,58.405639 17.00089,57.266148 17.295786,56.938071 17.834874,56.308916" slic3r:type="contour"/>
    <polygon style="fill: white" points="20.022195,56.863019 20.40835,57.615536 21.338242,57.629957 21.37157,57.579803 21.895064,56.725976 22.036316,56.935224 22.46381,57.630983 23.39348,57.616313 23.45862,57.502815 23.910046,56.621079 24.077343,56.835371 24.636226,57.601003 24.905504,57.588332 24.389963,58.286294 24.187046,58.682184 24.178116,58.686138 24.085562,58.878652 24.081588,58.873868 23.999494,58.76525 23.691955,58.901456 21.948626,58.916544 21.948075,58.917467 21.945981,58.91744 21.908147,58.978456 21.895064,58.99934 21.844302,58.917447 21.842043,58.917467 21.841205,58.916104 21.710344,58.914436 20.09871,58.901496 19.910921,58.808499 19.793633,58.76035 19.772004,58.789419 19.771244,58.788192 19.704598,58.87866 19.701432,58.87294 19.607512,58.683946 19.603064,58.68212 19.251512,57.997228 18.884734,57.588328 19.155352,57.600386 19.158114,57.596779 19.160043,57.596802 19.324028,57.384487 19.88005,56.621067" slic3r:type="contour"/>
  </g></svg>