<svg width="43.790126" height="63.590156" xmlns="http://www.w3.org/2000/svg" xmlns:svg="http://www.w3.org/2000/svg" xmlns:xlink="http://www.w3.org/1999/xlink" xmlns:slic3r="http://slic3r.org/namespaces/slic3r"><g xmlns="http://www.w3.org/2000/svg" slic3r:z="1.7825e-005" id="layer53">
    <polygon style="fill: white" points="22.172871,1.892397 22.260983,2.020449 22.276508,2.019622 22.304979,2.064043 22.518135,2.07602 22.535074,2.055316 22.54299,2.056588 22.774368,1.800491 22.992314,1.562003 23.217449,1.995435 23.28019,2.117502 23.30435,2.118789 23.337228,2.184162 23.573969,2.22219 23.860298,1.979727 24.10164,1.785795 24.275603,2.258797 24.302734,2.334997 24.324538,2.338304 24.353882,2.417285 24.687729,2.502832 24.697181,2.496761 24.698005,2.497027 24.996896,2.302529 25.221794,2.17289 25.335549,2.653672 25.345672,2.655982 25.358909,2.70997 25.689307,2.816424 25.983132,2.896125 26.011505,2.883641 26.022245,2.88734 26.222236,2.787281 26.357054,2.732495 26.394113,3.01541 26.552556,3.069977 27.118876,3.218634 27.283139,3.45822 27.350503,3.533873 27.534,3.478239 27.541018,3.570774 27.543126,3.750201 27.544488,3.751731 27.552334,3.942262 27.656486,4.181091 27.915814,4.592162 28.379584,4.461435 28.726266,4.399543 28.727116,4.895741 28.72258,4.943974 28.997262,5.028516 29.42629,5.029014 29.513849,5.348695 29.600063,5.510681 29.943638,5.455969 29.950602,5.693999 29.899166,6.072665 29.910388,6.093751 29.882297,6.396884 29.997404,6.67306 30.521764,6.812654 30.959521,6.749516 31.208378,6.518759 31.240118,6.615766 31.278139,6.674716 31.361661,6.632755 31.375196,6.696564 31.371192,6.762401 31.7561,6.861808 31.740694,7.15046 31.85018,8.157125 31.746138,8.129663 31.717664,8.272915 31.618036,8.253275 31.679309,8.47746 31.867675,8.317986 32.008363,8.198877 32.48235,7.797591 32.712845,7.612485 32.859896,8.31679 32.931112,8.684234 33.719036,8.816843 33.977828,8.598305 34.017571,8.791467 34.03408,8.882453 34.362075,8.934126 34.226367,9.090794 34.120061,9.216904 34.236624,9.666957 34.344481,10.139503 35.315874,10.255525 35.421216,10.137302 35.462151,10.274591 35.537959,10.28101 35.507308,10.316245 35.484931,10.343933 35.77882,11.206131 35.870577,11.512788 36.4331,11.553699 36.215003,11.799233 36.067075,11.979347 36.138791,12.149311 36.336225,12.699594 36.552232,12.711244 37.219148,12.729431 36.894211,13.110804 36.696578,13.376481 36.802331,13.596644 36.813648,13.596943 36.85805,13.664749 37.588131,13.691109 37.896011,13.690708 37.535684,14.122991 37.319051,14.462867 37.347555,14.515851 37.397863,14.518062 37.4246,14.564799 38.410883,14.627154 38.523664,14.630434 38.139771,15.077292 37.865899,15.517305 37.983999,15.530587 37.987628,15.539833 38.306635,15.583288 38.434219,15.438282 38.867596,15.24273 39.053928,15.657318 39.065627,15.686679 39.067803,15.686976 39.068099,15.687997 39.114344,15.696444 39.08328,15.730986 39.084,15.732792 39.081792,15.735205 39.389068,16.794622 39.435201,16.966636 39.444004,16.968776 39.444294,16.971032 39.6682,17.039256 39.569031,17.134888 39.477474,17.229397 39.586284,18.076658 39.653136,18.586641 39.662927,18.590024 39.663548,18.607474 40.206328,18.833388 39.928163,19.055684 39.686838,19.262427 39.692095,19.410283 39.718375,20.108656 40.024963,20.151287 40.624528,20.429284 40.6264,20.811781 40.622506,20.96767 40.631923,20.972663 40.631491,20.990438 40.773404,21.073978 40.683043,21.130786 40.627012,21.174574 40.600616,22.259582 40.510923,23.102222 40.577796,23.145748 40.575161,23.198867 40.60882,23.211004 40.81579,23.444678 41.220919,23.749103 41.36106,23.848866 41.233562,23.916354 41.262328,23.94883 41.21061,23.991926 41.349732,24.035068 41.413724,24.121875 41.32138,25.55575 41.155683,26.231809 41.242452,26.306374 41.228774,26.457968 41.308444,26.527196 41.787768,26.907022 41.415645,27.15062 41.4946,27.350478 41.290397,27.53262 41.677816,27.934566 41.989948,28.824794 41.933483,29.382932 41.865566,29.587388 41.901696,29.619606 41.898371,29.656441 42.042212,29.74859 41.918368,29.851153 41.877618,29.886334 41.772676,31.048825 41.568769,31.741507 41.68014,31.841736 41.673816,31.932066 42.169596,32.242614 41.852184,32.478287 41.622387,32.666663 41.618163,32.726984 41.347261,33.834067 41.513536,33.986452 41.51065,34.055877 41.87398,34.319852 42.2506,34.556404 41.869075,34.814808 41.353119,35.212912 41.274936,35.62312 41.18603,35.255876 40.617723,34.843795 40.24294,34.502088 40.455652,34.324559 40.918488,34.031205 41.142908,33.821761 40.729552,32.729096 40.556911,32.606141 40.16998,32.220002 40.273424,32.111904 40.455855,31.984953 40.654925,31.769999 40.103856,30.895334 40.263672,29.91955 40.210144,29.85132 40.215152,29.827448 40.105079,29.747501 40.0078,29.630226 40.34971,29.18607 40.656161,27.725353 40.598316,27.685165 40.550362,27.588544 39.816543,26.968211 39.699596,26.91078 39.753651,26.693084 39.720721,26.649237 39.694563,26.631137 39.639964,26.574456 39.782281,26.402296 40.133035,24.482233 40.112156,24.467574 40.0602,24.399968 39.377103,24.173296 39.163743,24.141034 39.238573,23.696113 39.200882,23.661082 39.134999,23.624355 39.00698,23.535208 39.242648,23.31751 39.395148,21.616858 39.282796,21.562949 38.709415,21.580912 38.50036,21.572692 38.523385,21.172637 38.466784,21.150314 38.3668,21.108486 38.515608,20.981026 38.503203,20.254737 38.486935,19.417913 38.252816,19.3423 37.82028,19.200576 37.973672,19.062623 38.417254,18.650161 38.373602,18.255487 37.977447,18.347248 37.546896,18.384438 37.444657,17.711721 37.399528,17.703762 37.306988,17.685448 37.409699,17.573961 37.344668,17.379512 37.092419,16.605017 36.963583,16.597975 36.745147,16.577678 36.952134,16.295274 36.800976,15.980031 36.657474,15.691098 36.632752,15.689228 36.616076,15.658439 36.418083,15.660162 36.109168,15.644086 36.377445,15.217842 36.175416,14.844827 36.143204,14.788786 36.073256,14.783798 36.056961,14.750747 35.789812,14.751028 35.383196,14.726502 35.701779,14.217331 35.756585,14.141522 35.586654,13.796867 35.495379,13.788549 35.485657,13.762692 35.112564,13.740891 34.554236,13.690894 34.743612,13.427408 35.166349,12.913459 35.049143,12.601738 34.989099,12.595163 34.981065,12.569909 34.447468,12.518112 34.202037,12.491282 34.100175,12.662084 34.008028,12.941688 33.817713,12.449267 33.804624,12.447836 33.803555,12.444133 33.7373,12.437136 33.622864,12.424819 33.75326,12.269905 33.603876,11.752426 33.435412,11.176308 33.40391,11.17245 33.401255,11.161314 33.106934,11.122424 32.546004,11.053669 32.761389,10.810931 33.204531,10.336191 33.093931,9.872306 32.598842,10.323495 32.224663,10.708415 31.983885,9.679607 31.948219,9.674318 31.948165,9.674065 31.748816,9.645088 31.232306,9.586214 31.454943,9.272967 31.769893,8.846118 31.724323,8.634472 31.203413,8.880922 30.713062,9.140363 30.584539,8.45755 30.476863,8.023967 30.263843,8.057627 29.80669,8.073376 29.90727,7.68839 30.071972,7.210041 28.692832,6.890688 28.658771,6.895244 28.645037,6.89129 28.568124,6.906812 28.572478,6.870399 28.499043,6.849256 27.921109,5.80679 27.723259,5.857097 27.45265,5.92741 27.498264,5.530735 27.525398,5.205542 26.886338,4.95367 26.845644,4.967564 26.818843,4.957857 26.401584,5.120354 26.402733,4.959333 26.398818,4.805731 25.587978,4.512057 25.459341,4.464357 25.401774,4.493731 25.397534,4.469892 25.393621,4.441719 24.872304,4.236955 24.530012,4.013503 24.49939,4.033937 24.480112,4.046032 24.463373,3.976081 24.394488,3.949473 23.623627,3.737139 23.604766,3.752756 23.595309,3.728942 23.383659,3.709882 22.770327,3.565466 22.748972,3.58998 22.730407,3.561142 21.962873,3.501083 21.923612,3.498548 21.895064,3.541546 21.864922,3.499432 21.05502,3.562389 21.041188,3.589988 21.023449,3.567416 20.406926,3.709804 20.191661,3.733691 20.18539,3.752758 20.171707,3.74025 19.323192,3.984448 19.314506,4.023292 19.310014,4.046038 19.263528,4.013938 19.225332,4.040362 18.918058,4.236843 18.436978,4.429002 18.394776,4.444254 18.38835,4.493731 18.368278,4.48173 18.336962,4.465148 18.335711,4.4656 18.330811,4.463179 17.645216,4.704857 17.399384,4.797017 17.388568,5.120332 17.218423,5.056382 16.96652,4.959292 16.944502,4.967546 16.884143,4.947164 16.837158,4.964323 16.272178,5.192489 16.313432,5.603543 16.337458,5.92744 15.867906,5.808824 15.684941,6.138916 15.291251,6.849105 15.218447,6.871291 15.222018,6.906787 15.200831,6.901548 15.149026,6.890181 15.13118,6.895192 15.124279,6.894253 14.467198,7.121788 13.702436,7.227607 13.828392,7.669458 13.983434,8.073377 13.466814,7.990219 13.386905,7.982957 13.304265,8.491713 13.077064,9.140364 12.89162,9.056414 12.066587,8.63484 12.019855,8.857273 12.266911,9.203354 12.557821,9.586214 11.812313,9.686976 11.728967,10.057471 11.565461,10.708392 11.355242,10.51866 10.696019,9.877362 10.584247,10.352535 10.880631,10.687236 11.244111,11.053653 10.388141,11.164489 10.386182,11.17245 10.360555,11.175525 10.238965,11.602351 10.035145,12.282089 10.092651,12.350807 10.16725,12.424819 9.986599,12.443983 9.985446,12.447829 9.975575,12.448832 9.940852,12.54362 9.78203,12.941765 9.526364,12.494481 8.810155,12.567262 8.800986,12.595156 8.748105,12.60028 8.616995,12.953254 8.888844,13.334099 9.23589,13.690894 8.49374,13.738505 8.309427,13.75153 8.294759,13.788568 8.220575,13.794179 8.019253,14.206546 8.173307,14.452971 8.406964,14.726504 7.744164,14.731958 7.716864,14.783802 7.668835,14.785935 7.486222,15.125657 7.408956,15.258069 7.510047,15.418146 7.680945,15.644071 7.184233,15.643183 7.157355,15.689246 7.141591,15.690083 7.002759,15.980719 6.841582,16.302356 6.917517,16.405904 7.045003,16.577672 6.696834,16.59779 6.606165,16.867825 6.380652,17.567791 6.420477,17.611256 6.483166,17.685424 6.342426,17.710422 6.319961,17.840237 6.243233,18.384487 5.82562,18.265904 5.416492,18.2158 5.368956,18.637055 5.622139,18.866134 5.969865,19.200558 5.660544,19.300501 5.307386,19.415174 5.299083,19.982059 5.275673,20.981492 5.335782,21.03303 5.423318,21.108516 5.26946,21.169422 5.278296,21.293895 5.289775,21.572702 4.593117,21.536972 4.532011,21.538526 4.417948,21.596171 4.513506,22.443786 4.563021,23.369396 4.652745,23.446946 4.783147,23.535246 4.578151,23.652231 4.579129,23.670514 4.559585,23.685007 4.592227,23.850308 4.626383,24.141052 3.961101,24.406978 3.693612,24.456788 3.888277,25.277403 4.034403,26.48672 4.085529,26.53719 4.150158,26.574518 4.05336,26.643605 4.056176,26.666912 4.041977,26.680209 4.066022,26.761808 4.090532,26.910836 3.45478,27.595716 3.187364,27.736402 3.405932,28.512109 3.524951,29.427909 3.657774,29.562768 3.782327,29.630258 3.570566,29.778899 3.579981,29.851348 3.54711,29.881566 3.60552,30.13205 3.686252,30.895528 3.460901,31.633628 3.248467,31.906811 3.339858,31.99097 3.327757,32.053662 3.62013,32.219974 3.485463,32.307061 3.238249,32.51737 3.118278,33.138896 2.683683,33.878295 2.895228,34.053244 2.893198,34.086827 3.135703,34.272412 3.547175,34.502068 3.304426,34.669143 2.689169,35.179373 2.51508,35.623484 2.458504,35.23521 1.845034,34.802015 1.539515,34.556396 1.882456,34.290463 2.282983,34.030636 2.276545,33.986451 2.430367,33.825724 2.459058,33.805023 2.275914,32.774953 1.971527,32.542593 1.620546,32.24258 1.887555,32.043285 2.119397,31.894646 2.109985,31.841706 2.300184,31.645784 1.951193,29.928353 1.747914,29.748604 1.839882,29.682697 1.894133,29.647551 1.888455,29.61961 1.962637,29.543996 1.800189,28.824642 2.326159,28.186808 2.633376,27.647793 2.295502,27.350469 2.371517,27.227498 2.208837,27.109608 2.002361,26.90704 2.36577,26.554314 2.565809,26.398409 2.547677,26.306387 2.716216,26.14146 2.700546,26.042393 2.376403,24.121904 2.673104,24.079441 2.527796,23.948856 2.545688,23.934326 2.478132,23.891006 2.429062,23.848896 2.945732,23.417659 3.222519,23.225908 3.212337,23.145746 3.315199,23.073506 3.175393,21.20283 3.01674,21.073966 3.108732,21.014559 3.159129,20.985221 3.158191,20.97267 3.170668,20.965802 3.165579,20.429412 3.433431,20.405718 4.067998,20.184953 4.101789,19.274651 3.947787,19.146983 3.583806,18.833386 3.913387,18.698535 4.126471,18.609722 4.127201,18.59005 4.135818,18.587115 4.241309,17.771375 4.3113,17.235382 4.121926,17.039285 4.254268,17.000878 4.345566,16.972974 4.346112,16.968794 4.359312,16.965515 4.691447,15.800788 4.708389,15.738333 4.67578,15.696444 4.722179,15.687496 4.72232,15.686976 4.726684,15.686246 4.922527,15.24273 5.026184,15.491181 5.204089,15.60639 5.35019,15.581951 5.80733,15.530361 5.898478,15.513877 5.311238,14.702333 5.266459,14.630435 5.931972,14.553003 6.379524,14.543916 6.392277,14.518041 6.471119,14.507443 6.008151,13.869464 5.894112,13.690681 6.533611,13.629438 6.955381,13.635187 6.976463,13.596943 7.020941,13.591758 7.105163,13.421825 6.812819,13.054227 6.570986,12.729452 7.124365,12.672995 7.478948,12.667657 7.494132,12.637022 7.504231,12.635767 7.735109,12.013797 7.356991,11.553725 7.711884,11.51462 7.925553,11.500751 7.929536,11.490021 7.940235,11.48858 8.250984,10.526372 8.306189,10.347869 8.252208,10.281012 8.331058,10.272318 8.368841,10.137442 8.423561,10.202045 8.467984,10.251932 9.043739,10.165095 9.461149,10.123116 9.674735,9.227306 9.428049,8.934135 9.662857,8.885466 9.760667,8.872342 9.812291,8.598306 9.935462,8.716581 10.042266,8.807405 10.41841,8.725066 10.869959,8.660354 11.07728,7.612485 11.544477,8.019952 12.100954,8.469126 12.142844,8.260016 12.072467,8.272916 12.048177,8.184859 12.040763,8.133847 11.939949,8.157125 11.922904,7.342802 12.034026,6.861807 12.329264,6.746667 12.440173,6.729432 12.428466,6.632753 12.495107,6.674912 12.58175,6.518759 13.123014,6.451975 13.785259,6.549825 13.896479,6.215409 13.879741,6.093649 13.951493,5.935849 13.951031,5.914662 13.846514,5.455971 13.98287,5.508341 14.133449,5.535691 14.363833,5.029032 15.108663,4.857471 15.102447,4.645466 15.063891,4.399513 15.381213,4.512597 15.807083,4.602521 16.243679,3.837529 16.245663,3.751708 16.263181,3.729766 16.256158,3.478208 16.318705,3.507711 16.414445,3.540299 16.671269,3.218613 17.406906,2.996084 17.423442,2.858358 17.433066,2.7325 17.736231,2.896464 17.77862,2.883641 17.782633,2.885613 18.173578,2.761913 18.437773,2.685716 18.444438,2.655982 18.4642,2.650942 18.521215,2.403553 18.568302,2.172888 18.973192,2.446443 19.059858,2.499035 19.443689,2.401149 19.465588,2.338306 19.493032,2.333901 19.592037,2.062367 19.688488,1.785794 20.044335,2.091074 20.201412,2.220198 20.456131,2.179313 20.485809,2.118817 20.512234,2.117332 20.653859,1.843903 20.797798,1.56201 21.114842,1.913708 21.244975,2.056839 21.255028,2.055307 21.27085,2.074705 21.486237,2.062602 21.513578,2.019579 21.531497,2.020586 21.71413,1.75707 21.895064,1.492529" slic3r:type="contour"/>
    <polygon style="fill: white" points="41.425,36.140407 41.42438,36.192425 41.903404,36.553544 42.268472,36.789 41.887983,37.02786 41.281613,37.46555 41.246764,37.721863 41.223816,37.472598 40.659548,37.048508 40.255688,36.681728 40.496515,36.508164 41.1509,36.131874 41.248811,36.05128 41.302372,36.023972" slic3r:type="contour"/>
    <polygon style="fill: white" points="2.686157,36.170436 2.686612,36.175534 3.098452,36.455696 3.534448,36.681712 3.285683,36.861432 2.592743,37.447996 2.543218,37.720664 2.515204,37.47204 1.852811,37.036472 1.52165,36.78896 1.86957,36.509656 2.369184,36.176105 2.36515,36.140303 2.442675,36.056376 2.487752,36.023896" slic3r:type="contour"/>
    <polygon style="fill: white" points="2.801928,38.439671 2.802367,38.441518 3.093973,38.621088 3.594629,38.857703 3.405454,39.003752 3.018318,39.34911 3.065602,39.547836 3.102037,40.785906 3.344923,40.926704 3.35101,40.942782 3.750895,41.111684 3.672105,41.176807 3.50153,41.340394 3.897026,42.385132 3.876608,43.375067 3.963579,43.418304 4.026347,43.429932 3.872548,43.571928 3.870406,43.67576 3.867492,43.678823 3.929994,44.2726 4.00982,45.563608 4.258945,45.666644 4.43765,45.688232 4.042608,46.09384 4.059312,46.364 4.346271,47.322012 4.446433,47.795034 4.766802,47.893136 4.986229,47.900704 4.577872,48.415768 4.619963,48.61454 4.590683,48.665455 5.022958,49.576463 5.141873,49.924231 5.458103,49.974768 5.685975,49.959836 5.345827,50.520702 5.39798,50.673223 5.378064,50.716122 5.881558,51.538935 6.019923,51.823818 6.328796,51.82108 6.562266,51.782224 6.291153,52.382257 6.350463,52.504372 6.345795,52.51814 6.944241,53.235032 7.134541,53.498129 7.439142,53.438932 7.660782,53.377232 7.486662,53.98495 7.50622,54.01199 8.206712,54.600055 8.588128,54.943851 8.868392,54.840568 9.048247,54.767092 8.983996,55.293638 9.639223,55.700099 10.331964,56.143465 10.549041,56.030272 10.676542,55.961444 10.68184,56.359526 11.210211,56.610295 12.241567,57.107354 12.391478,57.007935 12.474424,56.951528 12.510585,57.232388 12.910776,57.381655 14.193559,57.869894 14.303141,57.782035 14.361349,57.733216 14.411454,57.950983 14.74852,58.052575 16.081016,58.469324 16.191264,58.363828 16.249624,58.304855 16.326429,58.542601 16.72118,58.630823 17.933589,58.91698 18.063944,58.768623 18.13271,58.68652 18.258344,58.98621 18.774914,59.057972 19.785507,59.208395 19.934417,59.00728 20.012786,58.899044 20.198132,59.255857 20.811668,59.285528 21.663831,59.329861 21.815119,59.08778 21.895064,58.962972 22.125071,59.331664 22.734397,59.302244 23.585658,59.257781 23.710768,59.018199 23.777338,58.899052 24.009463,59.212076 24.535813,59.139164 25.524516,58.990891 25.610706,58.786839 25.657444,58.686532 25.863091,58.91981 26.285859,58.825508 27.458361,58.547257 27.511048,58.385483 27.5405,58.30484 27.714425,58.470595 28.058847,58.366792 29.375436,57.954529 29.409235,57.808616 29.428776,57.73322 29.60017,57.870157 29.950219,57.73946 31.276489,57.23548 31.300275,57.052392 31.315726,56.951512 31.55174,57.107721 32.027544,56.881611 33.102936,56.364429 33.106631,56.110084 33.113574,55.96142 33.46644,56.144868 34.122444,55.736643 34.795339,55.308057 34.755,54.972672 34.741904,54.76708 35.228805,54.944835 36.003847,54.289016 36.250207,54.068908 36.248788,54.060535 36.284636,54.016853 36.175283,53.631271 36.129352,53.377247 36.719286,53.487238 37.462437,52.581713 37.439656,52.504348 37.477956,52.439589 37.3068,52.056924 37.227848,51.78224 37.869699,51.777208 38.445258,50.804024 38.392148,50.673224 38.42574,50.598049 38.208188,50.234188 38.104156,49.959836 38.766563,49.835326 39.245906,48.762611 39.170172,48.61456 39.198385,48.516897 38.927771,48.165091 38.803892,47.90072 39.440012,47.68048 39.760388,46.571468 39.789828,46.424534 39.732132,46.342988 39.748509,46.199451 39.470204,45.899312 39.352472,45.688232 39.832005,45.467654 39.90258,44.8491 39.940214,43.698584 39.91974,43.675756 39.921636,43.610298 39.810296,43.501852 39.763776,43.429888 39.929491,43.339099 39.935496,43.131752 39.893132,42.384896 40.224948,42.101584 40.351166,41.428236 40.039256,41.111652 40.130763,41.05826 40.543172,40.864132 40.872026,40.654163 40.931827,39.513698 40.656115,39.293507 40.195508,38.857672 40.395928,38.728492 41.089369,38.366107 41.204104,38.282719 41.271108,38.253848 41.422104,38.405684 41.422201,38.448954 41.800848,38.74882 42.211563,39.02798 41.87234,39.227248 41.354015,39.574996 41.248045,40.633724 41.460952,40.865932 41.460745,40.915837 41.549591,40.990811 42.056056,41.359616 41.801432,41.496395 41.457466,41.707961 41.455404,42.206096 41.348473,43.431872 41.481424,43.594115 41.480029,43.609599 41.774976,43.851712 41.644452,43.914163 41.442601,44.025474 41.274723,45.890708 41.214263,46.246337 41.252668,46.30102 41.248298,46.318587 41.338312,46.409544 41.299708,46.419244 41.213447,46.458678 40.72126,48.437136 40.640309,48.674172 40.666428,48.719216 40.653635,48.752173 40.739532,48.8653 40.688099,48.873772 40.593692,48.906594 39.980103,50.48728 39.816474,50.821094 39.848888,50.892024 39.821928,50.94282 39.95676,51.1683 39.860812,51.16842 39.683723,51.203213 39.06944,52.360595 38.814869,52.767875 38.844056,52.855848 38.810316,52.900691 38.948304,53.230964 38.822036,53.210504 38.571841,53.217639 37.942303,54.054336 37.565875,54.500823 37.5838,54.590028 37.55464,54.616535 37.655172,55.044352 37.508271,54.997639 37.190024,54.94798 36.573275,55.50862 36.010534,55.978924 36.015912,56.05182 35.991897,56.06773 36.034336,56.603176 35.863471,56.525631 35.491815,56.399021 35.011076,56.717499 34.235089,57.19802 34.232664,57.257956 34.209734,57.269475 34.179572,57.90486 33.9897,57.794288 33.593119,57.595553 33.576448,57.605876 33.559634,57.596064 33.300643,57.726172 32.319341,58.19131 32.311626,58.244032 32.28178,58.255773 32.172408,58.965164 31.973736,58.824028 31.555445,58.553396 31.528644,58.5661 31.516003,58.557015 31.469073,58.575476 30.333756,58.997765 30.321254,59.04842 30.276117,59.062727 30.09531,59.798264 29.902588,59.635812 29.489794,59.311684 29.463662,59.321404 29.461792,59.319784 28.331341,59.658188 28.311446,59.716076 28.262502,59.72757 28.028645,60.416248 27.860569,60.248587 27.493775,59.908915 27.47846,59.9135 27.477058,59.912042 27.445047,59.91956 26.303537,60.171631 26.279965,60.225372 26.238243,60.23146 25.972144,60.836952 25.833981,60.674931 25.529688,60.342513 25.520043,60.344643 25.513954,60.33714 25.29801,60.368647 24.262545,60.509993 24.23985,60.55286 24.212385,60.554247 23.927732,61.075712 23.815577,60.922267 23.569242,60.604631 23.559564,60.605952 23.546974,60.587846 23.176521,60.606552 22.232714,60.651129 22.213707,60.682108 22.203033,60.681568 21.895064,61.149472 21.798814,60.997436 21.591269,60.681425 21.576377,60.682128 21.556182,60.648819 21.164782,60.629004 20.245004,60.585626 20.230562,60.605983 20.228213,60.605638 19.862396,61.075736 19.76896,60.906204 19.576653,60.554105 19.55032,60.552864 19.523384,60.502084 19.271737,60.465111 18.28356,60.330602 17.817952,60.836936 17.725275,60.637567 17.54563,60.230157 17.510148,60.225327 17.480167,60.157999 17.425823,60.145159 16.322899,59.902124 16.311677,59.913495 16.308218,59.912396 15.76148,60.416256 15.674336,60.184759 15.517019,59.724543 15.478611,59.71608 15.452562,59.642476 14.340597,59.309475 14.326463,59.321404 14.31225,59.315826 13.694818,59.798264 13.621894,59.544463 13.501166,59.05809 13.468873,59.04842 13.451353,58.980666 12.289406,58.546804 12.261516,58.566144 12.248565,58.559673 11.617704,58.965172 11.569243,58.712624 11.4972,58.251 11.478507,58.24402 11.466612,58.168538 10.249336,57.587968 10.215512,57.604747 10.213579,57.605812 10.213487,57.605752 9.610553,57.904856 9.589593,57.670363 9.569567,57.263758 9.55741,57.25796 9.552693,57.171296 9.293386,57.000807 8.343181,56.407275 7.755771,56.603172 7.76048,56.397076 7.786634,56.059636 7.774283,56.05192 7.779903,55.946336 7.316531,55.528975 6.654637,54.969201 6.134929,55.044344 6.160851,54.870831 6.222989,54.604147 6.206302,54.590035 6.228211,54.459743 5.694464,53.758031 5.274002,53.251168 4.841819,53.230984 4.882071,53.087664 4.967471,52.881648 4.946063,52.85584 4.984212,52.720261 4.428906,51.693243 4.152479,51.239082 3.833369,51.168307 3.875559,51.065932 3.960135,50.92307 3.941239,50.892024 3.986355,50.776996 3.373117,49.251323 3.222431,48.929859 3.050599,48.865328 3.078323,48.814883 3.133841,48.740867 3.123701,48.719236 3.161329,48.644718 2.699517,46.797056 2.595615,46.479007 2.451846,46.409572 2.479765,46.378475 2.542065,46.315091 2.537479,46.301052 2.598656,46.202849 2.526794,44.850784 2.389999,44.062485 2.015153,43.851712 2.123833,43.747112 2.312519,43.58889 2.54961,43.263814 2.554304,43.181124 2.418179,41.781247 2.285193,41.706452 1.734073,41.359584 1.956934,41.161495 2.330621,40.880828 2.329172,40.86592 2.534527,40.612863 2.575152,40.579228 2.483216,39.614563 1.988562,39.310607 1.578557,39.027988 1.8846,38.77138 2.370315,38.429911 2.368006,38.405683 2.465389,38.294564 2.518978,38.253844" slic3r:type="contour"/>
  </g></svg>