<svg width="43.790126" height="63.590156" xmlns="http://www.w3.org/2000/svg" xmlns:svg="http://www.w3.org/2000/svg" xmlns:xlink="http://www.w3.org/1999/xlink" xmlns:slic3r="http://slic3r.org/namespaces/slic3r"><g xmlns="http://www.w3.org/2000/svg" slic3r:z="1.3865e-005" id="layer41">
    <polygon style="fill: white" points="22.160799,0.705719 22.256439,0.847169 22.271326,0.84604 22.310473,0.904373 22.631178,0.928004 22.676024,0.877459 22.697929,0.882238 22.901256,0.661569 23.131402,0.404836 23.334855,0.818556 23.416686,0.987004 23.43091,0.988082 23.459687,1.048424 23.784558,1.119298 23.833039,1.078975 23.856135,1.087326 24.096106,0.894106 24.362608,0.674741 24.503334,1.118222 24.556939,1.29083 24.566164,1.292894 24.583632,1.350371 24.949402,1.482626 24.996756,1.454276 25.017964,1.464955 25.284104,1.30981 25.568953,1.142949 25.647232,1.633819 25.663357,1.743296 25.665349,1.744026 25.672895,1.794749 26.117073,2.018416 26.142667,2.031237 26.183588,2.014653 26.20002,2.025206 26.463225,1.920271 26.728858,1.818186 26.737066,2.370113 27.073988,2.586494 27.394006,2.786601 27.426421,2.77884 27.437751,2.787806 27.636877,2.739517 27.823012,2.699436 27.780045,3.058682 27.984555,3.220522 28.71624,3.781379 28.727611,3.780345 28.731598,3.784193 28.790231,3.777871 28.841496,3.774039 28.818208,3.867808 28.869243,3.91708 29.122458,4.157661 29.286676,4.78677 29.371915,5.02944 29.77312,5.049209 29.711793,5.217433 29.484968,5.805998 29.514094,5.962758 29.854409,6.338843 29.897744,6.388056 30.003176,6.411587 30.02122,6.437771 30.327031,6.485602 30.584742,6.533298 30.367598,6.940411 30.544498,7.197115 31.153369,8.197547 31.172949,8.203974 31.181097,8.206112 31.170069,8.222046 31.20629,8.299901 31.041515,9.154693 31.012074,9.276372 31.25767,9.691311 31.452003,9.754323 31.605562,9.806859 31.46583,10.00093 31.522554,10.085936 31.835182,10.677047 31.800718,10.932588 31.784714,11.069864 31.870556,11.097614 31.969716,11.119377 31.903246,11.225222 31.945639,11.253565 32.108308,11.467295 32.176478,11.930153 32.153602,12.018192 32.52972,12.304308 32.560812,12.299281 32.549842,12.312149 32.612714,12.359133 33.037792,12.965689 33.059916,13.096261 33.149125,13.197268 33.380072,13.117542 33.302575,13.237032 33.312571,13.382329 33.518242,13.6152 33.55892,13.877003 33.837376,13.909897 33.93743,13.980403 34.185104,13.973062 34.351432,13.865275 34.247388,14.130673 34.265112,14.21131 34.481752,14.363969 34.482498,14.391475 34.701624,14.447965 35.293047,14.8139 35.439552,14.820895 35.500388,14.792401 35.456334,14.914932 35.532983,14.962358 35.532611,14.981843 35.592208,15.004011 35.817091,15.141449 36.205744,15.832251 36.241452,15.95631 36.326872,15.979676 36.342707,16.055436 36.652268,16.077455 36.5653,16.162746 36.45829,16.608418 36.507135,16.84211 36.517198,17.296519 36.692008,17.38605 36.691018,17.419496 37.11474,17.6391 37.523956,17.786518 37.239191,18.033714 36.931778,18.623764 37.031267,18.713803 37.459419,18.911841 37.996436,19.337662 38.006404,19.625947 37.996847,19.721774 38.141672,19.799054 38.083287,19.84636 37.972254,19.968374 37.97214,19.969516 37.966137,19.974423 37.818095,20.704206 37.636833,21.306949 38.465792,21.842138 38.630472,21.950446 38.402381,22.15315 38.590447,22.211026 38.687756,22.219824 38.481608,23.045237 38.380185,23.561618 38.926979,23.795497 39.190555,23.92269 39.002982,24.128936 39.172432,24.14949 39.280632,24.151928 39.101036,24.85134 38.988889,25.513093 39.285766,25.667199 39.932808,25.784814 39.914456,25.891445 39.895737,25.993128 40.032568,26.08168 39.952395,26.147206 39.833164,26.26407 39.708199,26.817344 39.51062,27.571426 40.063879,27.705651 40.636352,28.027792 40.578136,28.342162 40.502906,28.575057 40.517796,28.586164 40.504663,28.648803 40.820524,28.893792 40.647248,29.016308 40.371546,29.283731 40.340972,29.429563 40.044696,30.238268 39.213964,29.826738 38.855436,29.709575 39.07131,29.050136 39.016487,28.997359 39.020565,28.983365 38.831392,28.855928 38.602472,28.68205 38.885328,28.350143 39.334265,27.906786 39.393437,27.703711 38.828803,27.643021 38.258448,27.545166 38.519383,26.582523 38.200451,26.424633 37.730424,26.220554 37.804324,26.143081 37.900314,26.029519 37.638843,25.989756 37.726199,25.56022 37.924029,24.627889 37.572679,24.472155 36.941569,24.220482 36.966444,24.101331 37.312924,22.497669 36.957571,22.291877 36.465028,21.969074 36.632515,21.837496 36.983394,21.530395 36.293276,21.225958 36.550106,20.173829 36.292711,20.038811 36.032652,19.87748 36.394856,19.495223 36.595783,19.270548 36.612725,18.844793 36.571194,18.619789 36.073656,18.457498 35.494767,18.216812 35.603539,18.066888 35.740225,17.878433 35.70068,17.854036 35.805868,17.629866 35.114184,17.231674 34.925616,17.15147 34.915348,17.07145 34.899815,17.03059 34.8596,17.02642 34.873987,16.962655 34.799551,16.76686 34.543095,16.212315 34.401344,16.220216 34.34853,16.126948 34.239727,16.151681 34.08464,16.175848 34.090631,15.671501 33.942061,15.409128 33.700948,15.438175 33.600607,15.272528 33.420866,15.32079 33.103216,15.389101 33.082618,14.964044 33.081516,14.774005 32.937646,14.745687 32.911013,14.631374 32.886344,14.63291 32.81563,14.488457 32.56332,14.448195 32.519073,14.45329 31.947086,14.51132 31.958354,14.351657 31.921618,14.345795 31.913668,14.234665 31.630144,14.203902 31.415945,13.450681 31.270862,13.440656 31.251822,13.321751 31.163344,13.309288 30.83771,13.256517 30.924093,12.944569 30.939253,12.893134 30.880174,12.871777 30.958882,12.600839 30.286274,12.24367 30.31688,11.917451 30.288931,11.911401 30.289535,11.894357 30.135638,11.866686 30.298664,11.636692 30.314252,11.196676 30.225686,11.057809 29.908857,10.501968 29.895071,10.481509 29.673926,10.42132 29.771287,10.297796 29.519548,9.924177 29.668157,8.986603 29.550056,8.95269 29.263816,8.885462 29.488786,8.614439 29.572168,8.502379 29.001959,7.702846 28.824592,7.43894 28.749904,7.429728 28.77889,7.382964 28.637612,7.227039 28.536747,6.201309 28.318166,6.199321 28.086415,6.20252 28.246457,5.820763 28.355817,5.543906 27.881226,5.065982 27.738824,5.085243 27.30675,5.143147 27.376069,4.874391 27.428188,4.669198 27.252705,4.524439 26.816163,4.163012 26.459856,4.259372 26.482347,4.077288 26.499994,3.934793 26.045684,3.630332 25.793686,3.462004 25.576418,3.554662 25.576606,3.433012 25.576096,3.33792 24.964082,3.02496 24.809997,2.945333 24.676008,3.027391 24.664953,2.944333 24.655713,2.879491 23.958895,2.63034 23.850434,2.590571 23.760984,2.665678 23.743372,2.604296 23.729158,2.556062 22.992081,2.400557 22.900628,2.380507 22.833233,2.456756 22.809569,2.405494 22.790619,2.364668 22.039187,2.312584 21.950065,2.306036 21.895064,2.390217 21.864295,2.343511 21.83949,2.305598 21.091504,2.357431 20.999903,2.364163 20.956888,2.456754 20.919398,2.414526 20.888621,2.37973 20.164729,2.532266 20.06197,2.554796 20.029138,2.665679 19.980008,2.62434 19.938758,2.589692 19.265856,2.829814 19.135683,2.877568 19.114088,3.027407 19.042196,2.982588 18.980069,2.944422 18.394356,3.243392 18.215113,3.336075 18.21369,3.55466 18.100903,3.504003 17.999679,3.460422 17.545597,3.765008 17.290157,3.935584 17.33027,4.259371 17.148747,4.20647 16.976846,4.159257 16.725087,4.366587 16.362711,4.666827 16.483392,5.143151 16.189386,5.103174 15.891308,5.063092 15.4338,5.527871 15.598873,5.934242 15.703702,6.20252 15.217576,6.212718 15.164725,6.608913 15.152572,7.226948 15.049968,7.332842 15.011082,7.37877 15.040227,7.429734 14.99443,7.437786 14.956677,7.443031 14.955179,7.444799 14.948966,7.445947 14.48847,7.99948 14.202618,8.450511 14.276042,8.54428 14.526317,8.885455 14.069682,9.026381 14.10999,9.424727 14.270543,9.924311 14.102226,10.131525 14.011965,10.282499 14.116203,10.421329 13.951864,10.472855 13.887028,10.491475 13.876249,10.509504 13.800881,10.534014 13.600541,10.78717 13.45414,11.066818 13.456948,11.195295 13.481312,11.58939 13.532563,11.667137 13.654512,11.86666 13.500797,11.904554 13.501219,11.911375 13.479738,11.916747 13.489766,12.011891 13.503867,12.243666 13.087501,12.511249 12.867196,12.623397 12.909946,12.871787 12.848523,12.904387 12.952423,13.256508 12.539031,13.314959 12.519265,13.440656 12.389198,13.451821 12.339256,13.638276 12.159983,14.203903 11.955714,14.259251 11.871746,14.266317 11.8685,14.345793 11.820002,14.359317 11.843042,14.511322 11.594194,14.482775 11.438092,14.46582 11.231869,14.523328 10.94594,14.549501 10.903784,14.632888 10.874876,14.630794 10.852449,14.745687 10.689124,14.80517 10.686906,15.389108 10.214344,15.260353 10.089207,15.43818 9.936825,15.416401 9.782687,15.725846 9.693754,15.837467 9.695334,15.906835 9.705456,16.175854 9.468635,16.120011 9.3888,16.220213 9.350189,16.217048 9.294618,16.403114 8.92032,16.988201 8.930527,17.02642 8.886112,17.026897 8.883684,17.070351 8.864515,17.15146 8.364688,17.62146 8.03775,17.747554 8.089457,17.85402 8.053544,17.883409 8.295353,18.216826 7.992955,18.315307 7.226105,18.602187 7.193189,18.800693 7.180615,18.851285 7.200941,19.265337 7.50496,19.592305 7.757475,19.877492 7.229174,20.155535 7.351611,20.672234 7.496851,21.225978 7.255234,21.392086 6.878555,21.566583 7.3251,21.969102 6.983593,22.168049 6.45889,22.491961 6.605494,23.268028 6.849246,24.219737 6.822094,24.231692 5.857493,24.639626 5.966037,25.197842 6.151283,25.989714 6.061164,25.983886 5.885619,26.00574 6.059682,26.220566 5.744942,26.37411 5.280775,26.593185 5.397546,27.018147 5.531685,27.54517 5.179786,27.575288 4.400677,27.698949 4.482548,27.948681 4.946426,28.456994 5.187642,28.68209 4.766634,28.969624 4.773657,28.997341 4.737218,29.027943 4.839341,29.315847 4.934702,29.709539 4.464685,29.979912 3.745462,30.238256 3.520749,29.45351 3.422311,29.376942 2.969616,28.893783 3.136544,28.726174 3.281268,28.617193 3.272372,28.586126 3.308001,28.557115 3.153808,28.027706 3.410685,27.98166 4.285168,27.584363 3.972042,26.304149 3.757564,26.081726 3.843884,26.021408 3.894417,25.989264 3.857343,25.784802 3.958408,25.778084 4.47247,25.698548 4.783037,25.531484 4.61454,24.710464 4.509467,24.15197 4.794958,24.111891 4.687494,24.001533 4.599544,23.922743 5.071879,23.770324 5.397384,23.607971 5.372073,23.491449 5.102401,22.219744 5.359813,22.136145 5.224461,22.012781 5.159666,21.950426 5.627265,21.657106 6.174196,21.296351 5.854572,20.045484 5.648481,19.799054 5.715744,19.756466 5.807932,19.707407 5.793708,19.337669 6.135124,19.174602 6.810901,18.748844 6.778394,18.696084 6.851067,18.650127 6.375105,18.0679 6.266152,17.786536 6.680262,17.50945 7.207657,17.313331 7.338545,17.226397 7.360938,17.002534 7.183659,16.676056 7.137849,16.077453 7.308124,15.991433 7.485418,15.96942 7.658614,15.889276 7.972937,15.141558 8.247717,15.013571 8.262907,14.931026 8.256751,14.873779 8.28974,14.7924 8.969451,14.609455 9.101094,14.637395 9.255887,14.57778 9.315866,14.333442 9.307837,14.113211 9.438744,13.865232 9.85875,13.773617 10.264296,13.883885 10.336027,13.87051 10.273247,13.463693 10.41009,13.117514 10.617372,13.060309 10.772188,13.081432 10.961676,13.001196 11.177442,12.359102 11.218466,12.342861 11.229339,12.299254 11.497892,12.114965 11.657337,12.09337 11.728371,12.012313 11.809197,11.991565 11.803973,11.93864 11.681838,11.467262 11.906836,11.27051 11.860579,11.193392 11.820411,11.119408 11.907528,11.081633 12.001466,11.053074 11.954961,10.677018 12.347669,10.004763 12.282049,9.917332 12.184579,9.806869 12.467184,9.717516 12.527012,9.697757 12.529841,9.692913 12.556017,9.6831 12.80818,9.299089 12.699192,8.808169 12.583894,8.299726 12.621656,8.223143 12.609036,8.206119 12.612722,8.205195 12.638403,8.197071 12.685333,8.126581 13.437408,6.955654 13.32413,6.745037 13.20539,6.533285 13.597424,6.475889 13.763775,6.447524 13.786842,6.411611 13.901497,6.388245 14.253469,5.996574 14.293971,5.760142 14.224705,5.580341 14.225937,5.576383 14.185174,5.466401 14.01701,5.049191 14.161688,5.048297 14.392824,5.040417 14.667708,4.1576 14.973729,3.865172 14.961869,3.818738 14.94863,3.774039 15.055907,3.786644 15.062508,3.780336 15.071327,3.78126 15.202855,3.677669 16.016492,3.047679 16.013432,3.025896 16.014967,3.024913 15.995658,2.871828 15.967114,2.699441 16.344573,2.79365 16.363703,2.778838 16.389228,2.78524 16.795828,2.524855 17.059949,2.358638 17.059696,2.325655 17.064387,2.323293 17.066732,2.087608 17.06127,1.818176 17.548688,2.014102 17.584928,2.028255 17.606526,2.014663 17.645621,2.030695 18.117918,1.792935 18.124762,1.744012 18.133038,1.741018 18.176536,1.463131 18.221158,1.142948 18.637227,1.385277 18.772827,1.464536 18.793338,1.454255 18.843585,1.484027 19.205954,1.352965 19.223882,1.292928 19.236333,1.290211 19.326495,1.004569 19.427546,0.674732 19.791345,0.966485 19.937998,1.086007 19.957142,1.079005 20.009304,1.121535 20.329274,1.051712 20.359198,0.98812 20.375919,0.986888 20.508033,0.717402 20.658726,0.404849 20.975954,0.747421 21.097393,0.881206 21.114198,0.877447 21.161051,0.92904 21.479667,0.905565 21.5188,0.846039 21.538112,0.847462 21.704723,0.604317 21.895064,0.319648" slic3r:type="contour"/>
    <polygon style="fill: white" points="4.308488,31.217156 4.664568,31.425936 4.072343,31.905356 3.955324,32.016277 3.990191,32.174188 3.878371,32.282903 4.109605,33.007626 4.241554,33.866844 4.370896,33.970559 4.44987,33.994975 4.283579,34.1405 4.292416,34.198044 4.256373,34.237056 4.312355,34.488408 4.428277,36.342553 4.453555,36.345504 4.429811,36.367084 4.430615,36.379939 4.424568,36.387306 4.433418,36.439131 4.495831,38.511766 4.557058,38.545868 4.618117,38.54612 4.500283,38.659609 4.502789,38.742824 4.471126,38.785991 4.528358,39.124764 4.598292,40.611983 4.749568,40.680696 4.920727,40.672588 4.616086,40.990385 4.627387,41.23072 4.552446,41.34472 4.760473,42.305951 4.802559,42.717949 5.057975,42.81044 5.354515,42.794848 4.867666,43.35533 4.905865,43.72928 4.814172,43.883889 5.120051,44.864584 5.525626,44.969396 5.911672,44.940164 5.542239,45.432331 5.347178,45.801894 5.404181,46.102172 5.32586,46.251199 5.649264,47.009158 6.176943,47.080272 6.619104,47.025292 6.327254,47.493543 6.06388,48.06818 6.135353,48.307451 6.084748,48.421054 6.460133,49.075066 7.034518,49.068512 7.500033,48.975276 7.26404,49.462211 7.026134,50.109442 7.107648,50.293547 7.087803,50.349973 7.565919,50.965089 8.119718,50.862519 8.575517,50.721268 8.393578,51.269859 8.241482,51.871798 8.315045,51.985355 8.96634,52.584266 9.473852,52.400316 9.88262,52.217544 9.768117,52.863152 9.712448,53.304789 10.612935,53.918482 11.044747,53.69 11.387856,53.486752 11.353875,54.237823 11.352013,54.435802 12.409821,54.980584 12.761723,54.736299 13.039383,54.52748 13.098148,55.342176 14.109124,55.738636 14.259772,55.800875 14.550187,55.549768 14.777082,55.337936 14.906601,56.059227 15.865461,56.345727 16.079879,56.41353 16.334709,56.144772 16.536334,55.917448 16.728803,56.607131 17.7067,56.811388 17.881427,56.850306 18.120158,56.547463 18.31023,56.294436 18.571894,56.987903 19.598733,57.113799 19.683971,57.125011 19.913515,56.778928 20.096628,56.4978 20.429052,57.200293 21.503079,57.243272 21.720848,56.857511 21.895064,56.555868 22.284382,57.245653 23.310784,57.204595 23.350299,57.202902 23.539408,56.803439 23.6935,56.497799 24.113567,57.131014 25.090861,57.011288 25.202274,56.996586 25.352961,56.597316 25.479908,56.294456 25.923673,56.857055 26.867867,56.659768 27.043752,56.620508 27.155107,56.221204 27.253804,55.91742 27.729881,56.419041 28.696365,56.12964 28.866527,56.075909 28.941188,55.658808 29.013056,55.33794 29.553792,55.804678 30.672476,55.364082 30.705849,54.895668 30.750762,54.527492 31.343862,54.938112 31.407512,54.984388 32.419231,54.460158 32.394036,53.920456 32.402276,53.48676 32.954285,53.777383 33.206713,53.920209 34.027191,53.355587 34.059976,53.324953 33.951256,52.71882 33.907492,52.217556 34.40724,52.396412 34.855835,52.581291 35.467369,52.009863 35.465531,52.000096 35.535662,51.907507 35.323848,51.273367 35.214628,50.721251 35.669643,50.801611 36.257784,50.954116 36.703171,50.366087 36.682468,50.293596 36.756502,50.159811 36.457232,49.544268 36.290104,48.975276 36.721376,48.973156 37.368555,49.053788 37.7049,48.445988 37.654792,48.30744 37.722887,48.140611 37.372432,47.577076 37.171004,47.025292 37.609996,46.953991 38.201903,46.967073 38.472183,46.304916 38.385936,46.102183 38.441325,45.916569 38.084591,45.436315 37.878451,44.940176 38.364751,44.794143 38.783046,44.771418 39.013415,43.999422 38.884252,43.729272 38.921364,43.552952 38.612979,43.190239 38.435596,42.794872 39.014199,42.551556 39.134872,42.538611 39.34014,41.563412 39.162748,41.230704 39.180421,41.119286 38.983487,40.908467 38.869408,40.67258 39.286357,40.451408 39.376696,39.881859 39.363725,38.869615 39.28732,38.742812 39.292835,38.704446 39.217016,38.62976 39.172016,38.546152 39.330478,38.442591 39.36902,38.174476 39.373138,36.399893 39.346611,36.361137 39.345791,36.360383 39.33658,36.345556 39.369952,36.319191 39.386703,36.221872 39.568251,34.287815 39.497668,34.198 39.50492,34.168997 39.407112,34.083988 39.34024,33.994972 39.611951,33.740982 39.958791,32.353968 39.799968,32.174206 39.8279,32.079589 39.433332,31.764228 39.125576,31.425936 39.41538,31.115278 40.072768,30.659936 41.135852,31.67556 41.256636,31.769882 41.034141,31.910621 41.07914,31.968496 41.002408,32.035295 41.177296,32.187526 41.311376,32.454995 41.143072,33.544955 41.01047,33.922293 41.07052,33.986004 41.056137,34.160426 41.413052,34.423288 41.238272,34.506431 41.013032,34.683178 40.965207,35.26316 40.766965,36.042727 40.911696,36.216988 40.895801,36.516637 41.380172,36.897516 41.130904,36.982995 40.861256,37.167889 40.846023,37.455052 40.655517,38.413445 40.815584,38.631164 40.79579,38.913246 41.203292,39.269816 40.980528,39.320531 40.758118,39.450123 40.70156,40.256155 40.556234,41.007086 40.660279,41.165912 40.638713,41.339003 40.886576,41.58774 40.743972,41.60486 40.596742,41.675844 40.387287,43.356852 40.317473,43.652074 40.35188,43.710452 40.339707,43.767039 40.429924,43.873176 40.375196,43.875016 40.311148,43.899798 39.832635,46.124224 39.826056,46.144427 39.835122,46.161705 39.823914,46.161346 39.601732,46.834915 39.00616,48.295923 39.047099,48.388031 39.058604,48.407884 38.966621,48.392914 38.951548,48.429892 38.710449,48.469801 38.843828,48.61618 38.325984,49.996159 38.06754,50.536579 38.07167,50.548462 38.061963,50.546247 36.888903,52.258756 36.802641,52.369468 36.80798,52.39258 36.798568,52.402049 36.82804,52.507888 36.788119,52.49406 36.717139,52.483969 35.50736,53.701051 35.283689,53.905957 35.287968,53.94428 35.272406,53.95566 35.305199,54.198288 35.217711,54.157167 35.064202,54.107923 33.988967,54.894256 33.588129,55.165999 33.588172,55.211988 33.569115,55.222399 33.573376,55.61068 33.438984,55.530068 33.210322,55.418413 32.362603,55.881532 31.77499,56.182094 31.769884,56.23108 31.746615,56.240717 31.695132,56.755512 31.525213,56.629439 31.246725,56.447742 30.643808,56.697435 29.897647,56.987655 29.887545,57.036624 29.8567,57.046348 29.736432,57.641884 29.551551,57.474827 29.259013,57.234773 28.836639,57.367928 27.997748,57.616443 27.982696,57.665752 27.951245,57.672708 27.767694,58.276408 27.593825,58.086363 27.319408,57.812454 26.93585,57.897287 26.073134,58.075905 26.056068,58.118588 26.030582,58.12191 25.800108,58.689792 25.648131,58.492471 25.414343,58.212303 25.413854,58.212404 25.407061,58.203175 24.975034,58.259483 24.134694,58.361549 24.118514,58.394728 24.102817,58.395394 23.841266,58.912888 23.711447,58.716471 23.514712,58.436851 23.511118,58.437288 23.500774,58.420943 23.010335,58.441756 22.200807,58.473833 22.187394,58.497532 22.183052,58.497347 21.895072,58.97702 21.780587,58.779219 21.611283,58.497192 21.602733,58.497531 21.588563,58.472072 21.09476,58.45108 20.296153,58.419462 19.948884,58.912892 19.8405,58.699188 19.686913,58.39534 19.671621,58.394735 19.652386,58.355345 19.229224,58.30002 18.399568,58.199359 17.99002,58.689804 17.889614,58.4531 17.754871,58.121138 17.734052,58.118612 17.712307,58.065288 17.367796,57.988964 16.492615,57.807675 16.022442,58.276412 15.937572,58.021424 15.830898,57.670603 15.807439,57.665744 15.787263,57.602371 15.455985,57.498103 14.555855,57.2307 14.053694,57.64188 13.993579,57.387027 13.924179,57.043047 13.902586,57.036632 13.888073,56.97142 13.42211,56.779636 12.570479,56.446387 12.095003,56.755512 12.065212,56.532819 12.035752,56.237144 12.020242,56.231075 12.012182,56.164943 11.262062,55.758836 10.60755,55.421219 10.216753,55.610711 10.211261,55.440787 10.213902,55.218163 10.20197,55.212008 10.200574,55.148437 9.13914,54.3809 8.750649,54.114601 8.484958,54.198292 8.492614,54.090083 8.511654,53.950776 8.502189,53.944288 8.506474,53.889912 7.238416,52.630783 7.088363,52.491305 6.96209,52.507884 6.970786,52.459012 6.987949,52.397966 6.982149,52.392575 6.988454,52.358152 5.731729,50.548699 5.719366,50.548176 5.722303,50.537638 5.722231,50.537543 5.723345,50.533566 5.464784,49.997484 5.678282,50.052068 5.700537,48.597096 4.838594,48.429892 4.837402,48.407423 4.748518,48.410956 4.731522,48.407884 4.823861,48.152087 4.750167,46.762516 4.187918,46.833536 3.971174,46.166411 3.956296,46.161576 3.965397,46.140312 3.580194,44.163219 3.509571,43.937974 3.360176,43.873072 3.393103,43.810056 3.448732,43.743938 3.438212,43.710384 3.501078,43.58005 3.396614,42.325576 3.272654,41.786689 2.903554,41.587732 2.997987,41.427064 3.153316,41.26789 3.12986,41.165919 3.331513,40.789517 3.324815,40.55926 3.157957,39.640867 2.586845,39.26978 2.747651,39.026527 3.004326,38.795274 2.974516,38.6312 3.216644,38.230956 3.071727,37.368068 2.964974,37.321848 2.409941,36.897523 2.604094,36.632996 2.906957,36.386961 2.87841,36.21698 3.093216,35.905176 2.892201,34.872668 2.377078,34.423256 2.522363,34.242972 2.737823,34.0797 2.719592,33.986056 2.839205,33.83464 2.478749,32.454911 2.858065,32.111287 2.710954,31.968454 2.744917,31.935195 2.597158,31.832271 2.533478,31.769888 3.12604,31.112707 3.717328,30.659904" slic3r:type="contour"/>
  </g></svg>