<svg width="43.790126" height="63.590156" xmlns="http://www.w3.org/2000/svg" xmlns:svg="http://www.w3.org/2000/svg" xmlns:xlink="http://www.w3.org/1999/xlink" xmlns:slic3r="http://slic3r.org/namespaces/slic3r"><g xmlns="http://www.w3.org/2000/svg" slic3r:z="3.76249999999999e-005" id="layer113">
    <polygon style="fill: white" points="24.232467,59.894275 24.694166,60.458428 24.401955,61.025408 24.106764,61.626296 23.866466,61.318492 23.29701,60.625988 23.64168,59.940695 23.889416,59.475096" slic3r:type="contour"/>
    <polygon style="fill: white" points="26.358072,59.55464 26.802998,60.01074 26.520075,60.685416 26.315528,61.230456 25.995816,60.884352 25.427762,60.318264 25.741856,59.521699 25.916634,59.118212" slic3r:type="contour"/>
    <polygon style="fill: white" points="28.571542,59.037104 28.947388,59.371596 28.662827,60.1917 28.536574,60.625552 28.099448,60.213452 27.598412,59.788295 27.896884,58.832711 27.995134,58.560232" slic3r:type="contour"/>
    <polygon style="fill: white" points="34.831983,55.968719 35.555324,56.399076 35.489168,56.914487 35.417615,57.738508 35.262012,57.655032 34.329061,57.166572 34.101764,57.957896 33.890088,58.5355 33.178894,58.655077 33.135404,58.836487 33.121902,58.911764 32.849814,58.710406 32.791638,58.720188 32.751894,58.694039 31.055126,58.89002 30.855366,59.571427 30.791334,59.847316 30.19878,59.346148 29.824056,59.064756 30.118167,57.903092 30.141748,57.82686 30.566439,58.130704 30.732742,57.804223 30.809826,57.559356 31.71437,57.483484 32.240226,57.412094 32.35684,56.902532 32.485996,56.984244 32.939207,57.317201 32.959694,57.31442 33.017414,57.350197 34.321226,57.10389 34.371219,56.617864 34.480044,55.792668" slic3r:type="contour"/>
    <polygon style="fill: white" points="36.927275,54.688308 37.50476,54.929744 37.519707,55.656679 37.53194,56.287559 37.139359,56.144647 36.376444,55.8652 36.350216,55.045144 36.355232,54.485544" slic3r:type="contour"/>
    <polygon style="fill: white" points="40.474168,51.217064 40.811844,52.297128 40.759738,52.306596 40.760055,52.30706 40.759158,52.30709 40.779983,52.35478 40.709407,52.391984 39.138184,53.222161 39.294939,54.129295 39.35778,54.515308 38.721123,54.385507 38.171728,54.29072 37.930348,53.205408 37.895568,52.967824 38.829951,53.097454 38.597404,52.44898 38.448932,52.127228 38.869855,51.943952 39.358398,51.671697 39.122519,50.90658 39.409131,50.840512 40.330564,50.720708" slic3r:type="contour"/>
    <polygon style="fill: white" points="41.927532,47.163952 42.292144,47.546716 41.57534,48.072971 41.491151,48.140781 41.775452,48.811772 41.921372,49.159876 41.318312,49.412839 40.73152,49.604132 40.164644,48.294852 40.082332,48.10698 40.521353,47.945471 40.293836,47.706012 40.201392,47.586108 40.755936,47.138967 41.423859,46.619636" slic3r:type="contour"/>
    <polygon style="fill: white" points="42.557735,42.644015 42.948868,42.956207 42.367995,43.410704 42.078839,43.679985 42.129476,43.842768 42.092091,43.874867 42.459248,44.642588 42.688196,45.23944 42.286156,45.596195 41.545724,46.057663 41.020148,44.792852 40.77108,44.26112 41.529266,43.780807 41.487115,43.735228 41.543499,43.675777 41.0613,43.298696 40.901056,43.118884 41.388983,42.61822 41.999808,42.113012" slic3r:type="contour"/>
    <polygon style="fill: white" points="42.596,37.651592 42.769911,38.284853 43.086095,38.547419 43.203144,38.620644 42.92399,38.845902 42.94714,38.930196 42.915486,38.961364 43.059448,39.273832 43.167696,39.606619 42.647732,40.423439 42.083396,40.998263 41.355719,39.03946 41.17922,38.875172 41.208935,38.843336 41.265245,38.795913 41.2629,38.789599 41.283251,38.766117 41.180328,38.479532 41.298651,38.302 42.173232,36.577828" slic3r:type="contour"/>
    <polygon style="fill: white" points="42.647915,34.36532 43.11708,34.5893 42.716028,34.940367 42.164444,35.57154 41.404243,35.198295 41.110811,34.970144 41.494847,34.48984 42.062896,33.962448" slic3r:type="contour"/>
    <polygon style="fill: white" points="42.036392,30.517266 42.015582,30.680457 42.062867,30.706149 42.735992,30.932608 42.57178,31.09396 41.880272,32.00243 41.288132,31.787532 40.75986,31.474596 40.979304,31.171347 41.474862,30.652494 41.444556,30.567959 41.567163,30.375116 41.635272,30.299412" slic3r:type="contour"/>
    <polygon style="fill: white" points="40.414056,24.727768 40.46196,24.849131 40.493328,24.85999 41.162228,24.9751 41.0508,25.104019 40.754303,25.589775 40.933195,26.042995 41.217117,27.402196 41.55676,27.538684 41.569658,27.638216 42.032652,27.743168 41.947411,27.836368 41.652745,28.279364 41.734444,28.9098 41.566356,30.268528 41.00198,28.779543 40.746979,28.711409 40.106108,28.424076 40.260448,28.187803 40.616902,27.763601 40.590244,27.693267 40.743164,27.417577 40.218876,26.012848 39.904667,25.944291 39.278056,25.7156 39.439296,25.454207 39.824353,24.955802 39.79122,24.867027 39.896844,24.66303 39.953596,24.582419" slic3r:type="contour"/>
    <polygon style="fill: white" points="39.7597,22.468472 40.27018,22.550392 40.061696,22.793631 39.58914,23.589587 38.899147,23.448627 38.403776,23.2847 38.630487,22.91111 39.1094,22.266306" slic3r:type="contour"/>
    <polygon style="fill: white" points="19.824962,6.732695 19.970103,6.945459 20.007208,6.942653 20.038317,6.985537 20.096668,6.981235 20.385652,6.973268 20.647652,6.650138 20.704021,6.763876 20.816493,6.961391 20.833339,6.960927 20.847159,6.984689 20.950576,6.985652 21.149886,6.997954 21.36074,6.745528 21.404178,6.834271 21.504901,7.018689 21.56991,7.021508 21.733405,7.030434 21.895064,6.796298 21.946056,6.873047 22.056058,7.034533 22.114439,7.032071 22.269084,7.023634 22.429416,6.745527 22.49956,6.822007 22.67289,7.02255 22.732602,7.022898 22.92387,7.010927 23.142472,6.650117 23.236856,6.750017 23.456546,7.006409 23.726997,7.013505 23.78294,6.942607 23.802442,6.944562 24.055234,6.587983 24.169214,6.73344 24.362472,7.000708 24.412067,7.005679 24.792748,7.034707 24.858368,6.966569 24.909695,6.972202 25.19657,6.634531 25.297492,6.809234 25.42245,7.028473 25.803075,7.070243 26.276538,7.119227 26.32418,7.075678 26.36641,7.083499 26.5936,6.860689 26.654179,7.005147 26.718601,7.148722 27.564753,7.305422 27.922489,7.368678 27.942248,7.351486 27.96527,7.358558 28.126094,7.22103 28.162124,7.328713 28.200046,7.430671 29.142029,7.720009 29.496057,7.821269 29.510581,7.809122 29.531071,7.819338 29.722862,7.671416 29.762089,7.812026 29.791809,7.905861 29.793977,7.906481 29.809351,7.958085 30.360195,8.232732 30.900536,8.470953 30.931306,8.446696 30.960697,8.470768 31.35408,8.199796 31.433745,8.534028 31.487531,8.729743 31.501466,8.735886 31.509854,8.7668 32.007666,8.752159 32.985532,8.78234 33.020451,8.822824 33.024467,8.820232 33.026599,8.824107 33.049136,8.811838 33.056058,8.84656 33.059498,8.86158 33.060691,8.862819 33.068951,8.901093 33.38993,9.484572 33.426082,9.541588 33.827275,9.552136 34.69316,9.718815 34.699972,9.835789 34.687242,10.029487 34.749964,10.003177 34.741173,10.101589 35.00574,10.019177 35.098638,10.51204 35.149956,10.531117 35.155165,10.563714 35.328548,10.60392 35.553376,10.695864 35.25679,11.199624 35.264824,11.249903 35.349012,11.28543 35.356291,11.333713 35.640856,11.428401 35.99792,11.602707 35.539546,12.159416 35.549123,12.228197 35.942559,12.358188 36.410728,12.568602 36.099671,12.988816 35.727657,13.348031 36.291931,13.503755 36.943992,13.726532 36.817812,13.94373 36.547869,14.298077 36.925495,14.439636 37.408731,14.621314 37.387539,15.070297 37.511315,15.110564 37.613704,15.142997 37.368426,15.475196 37.359576,15.66268 37.323133,15.723889 37.26113,16.473575 37.790163,16.639175 38.229372,16.760406 37.9792,17.077565 37.577087,17.668984 38.612116,18.459107 38.714264,18.494172 38.728325,18.508429 38.846551,18.538434 38.805452,18.586635 38.894104,18.676528 38.8428,19.621345 38.802333,20.238113 39.200747,20.362727 39.475424,20.414936 39.104944,20.825724 38.7589,21.382744 37.850923,21.181601 37.598672,21.092696 37.973515,20.485998 37.6578,20.152728 37.14566,19.739768 37.193735,19.464502 37.193215,19.249757 36.944004,19.153192 37.001239,19.060012 37.192168,18.81645 37.192132,18.801782 37.425335,18.436288 37.497505,17.776015 36.759632,17.567202 36.327528,17.389948 36.619556,16.891063 36.871782,16.569184 36.414343,16.355392 35.86608,16.182433 35.90696,16.010772 35.918528,15.869833 35.67008,15.793357 35.726723,15.671358 36.032945,15.166349 36.067704,14.730726 36.055328,14.725642 36.059764,14.675186 35.228812,14.412502 34.844692,14.285275 35.154704,13.738539 35.362192,13.429001 35.222142,13.373579 34.902068,13.418496 34.424904,13.467596 34.407072,13.161244 34.398382,13.047579 34.376536,13.038934 34.371816,13.002563 34.029456,12.906983 34.137752,12.786246 34.31083,12.532524 34.300512,12.453003 34.272319,12.180086 34.225444,12.160536 34.201433,12.056762 33.286692,11.775734 33.624275,11.524578 33.799338,11.315439 33.371664,11.196122 32.747692,11.031834 33.037586,10.78166 32.535222,10.728891 32.395987,10.714391 32.285228,10.56915 32.249493,10.456555 31.799926,10.453969 31.2185,9.750987 31.144268,9.760032 30.9507,9.891148 30.689332,10.064864 30.657061,9.9676 30.608725,9.82274 29.620071,9.722686 29.205451,9.523496 29.172032,9.549495 29.135572,9.577864 29.105272,9.484706 28.985235,9.447481 27.68933,9.08604 27.646672,9.121074 27.610328,9.148127 27.577307,9.063512 27.492204,9.048435 27.038433,9.004372 26.438244,8.747071 26.307889,8.700647 26.186218,8.804657 26.155204,8.747775 26.096389,8.612159 25.608117,8.402312 25.272448,8.303124 24.983058,8.609624 24.876561,8.453326 24.716366,8.151826 24.406375,8.114959 24.367489,8.174958 24.075722,8.580241 23.906563,8.380713 23.673844,8.046261 23.580331,8.222544 23.338532,8.643663 23.131928,8.429161 22.942725,8.206512 22.875902,8.331508 22.646681,8.746368 22.437006,8.52091 22.253495,8.312774 22.162633,8.440313 21.895064,8.813224 21.718919,8.564954 21.532013,8.303912 21.441275,8.403786 21.143428,8.746365 21.004922,8.482291 20.840321,8.181382 20.736326,8.295349 20.451592,8.643666 20.325958,8.395561 20.169191,8.115461 20.027837,8.112702 19.956002,8.204877 19.714382,8.580239 19.590688,8.377498 19.44082,8.161246 18.991646,8.21559 18.807056,8.609626 18.701334,8.47645 18.566228,8.326804 17.934411,8.561893 17.664893,8.644741 17.603902,8.804657 17.562302,8.762486 17.497113,8.704009 16.751842,9.004336 16.207082,9.070115 16.191899,9.110744 16.179799,9.148129 16.108674,9.087197 16.009189,9.118193 14.685912,9.487436 14.670122,9.534573 14.654557,9.577864 14.585529,9.524161 14.523052,9.55481 14.169813,9.722766 13.425031,9.782641 13.184951,9.813538 13.100827,10.064865 12.996384,9.993418 12.618677,9.739316 12.427906,9.978866 11.99024,10.453969 11.707205,10.450427 11.529379,10.453216 11.525896,10.463811 11.488743,10.457364 11.42164,10.639777 11.40187,10.713425 10.844093,10.774104 10.96501,10.907319 11.042434,11.031834 10.293399,11.276903 10.105064,11.322956 10.260283,11.466558 10.503406,11.775764 9.996259,11.980901 9.573967,12.101229 9.56464,12.160565 9.506214,12.187699 9.476191,12.463795 9.760679,12.907009 9.582947,12.971828 9.416142,13.016014 9.413649,13.038941 9.394572,13.046973 9.365296,13.467516 9.005863,13.413857 8.607233,13.367152 8.420913,13.436426 8.829999,14.123006 8.94543,14.285299 8.445925,14.43555 7.735656,14.67095 7.810572,15.331805 8.12006,15.793353 8.023644,15.811606 7.885978,15.853816 7.924028,16.182484 7.533353,16.360719 6.911315,16.6015 7.260521,17.158404 7.462572,17.389992 7.058873,17.473137 6.304041,17.770837 6.461642,18.600748 6.59798,18.801726 6.601048,18.863702 6.846123,19.15316 6.764172,19.169592 6.618846,19.22322 6.644421,19.739862 5.81664,20.559492 6.044782,20.909138 6.191434,21.092714 5.610001,21.19274 5.031147,21.382678 4.488052,20.71684 4.3147,20.414924 4.954556,20.201483 5.042844,20.181465 5.035308,19.582636 4.896022,18.676556 4.943219,18.645179 4.982848,18.600072 4.943574,18.538462 4.97071,18.529688 5.068145,18.502984 5.075864,18.494198 5.369039,18.388649 5.596049,18.260857 6.212985,17.680139 5.865411,17.220814 5.56076,16.760386 6.050032,16.605791 6.528962,16.467533 6.474442,15.794941 6.46851,15.725128 6.430506,15.662639 6.418241,15.472022 6.249335,15.242781 6.176406,15.143014 6.392539,15.072606 6.383292,14.928904 6.381366,14.621361 6.776786,14.473524 7.292593,14.27963 7.255084,14.218899 6.84613,13.726506 7.244903,13.61447 8.101334,13.345762 7.704956,12.838689 7.379385,12.568646 8.22431,12.278948 8.245867,12.193464 8.265903,12.187131 8.280978,12.048266 8.050597,11.781093 7.792196,11.602722 8.412677,11.384593 8.441158,11.285415 8.477592,11.27297 8.509109,11.034794 8.378847,10.830478 8.236754,10.695864 8.622831,10.597884 8.640179,10.531102 8.678939,10.520293 8.688846,10.462588 8.784422,10.019146 9.054953,10.124174 9.040162,10.003145 9.122865,10.040561 9.09696,9.718829 9.605138,9.686285 10.294795,9.612239 10.716952,8.902159 10.740992,8.811839 10.762891,8.824888 10.765659,8.820231 10.767832,8.821708 10.804597,8.78234 11.499746,8.788263 12.24704,8.792427 12.25152,8.77677 12.275426,8.774368 12.317005,8.608717 12.435995,8.199815 12.6712,8.373844 12.817259,8.475692 12.858686,8.446692 12.87146,8.457408 13.418541,8.195986 13.976607,7.945254 14.067262,7.671414 14.173573,7.757095 14.254731,7.820298 14.279571,7.809138 14.288682,7.817091 15.286755,7.512 15.584892,7.426712 15.664042,7.22103 15.747022,7.294283 15.821989,7.358888 15.847874,7.351483 15.864617,7.36661 16.737423,7.203698 17.065431,7.146065 17.196526,6.860687 17.305329,6.968497 17.42216,7.083385 17.465962,7.075689 17.509487,7.11643 17.992578,7.062843 18.372947,7.023849 18.59355,6.634531 18.715833,6.782438 18.875881,6.97229 18.93182,6.966555 18.984021,7.022373 19.089199,7.012085 19.460079,6.984034 19.73491,6.587978" slic3r:type="contour"/>
    <polygon style="fill: white" points="5.080814,22.888346 5.386369,23.28467 4.98824,23.349027 4.201019,23.589628 3.817643,23.102429 3.519933,22.550417 3.874082,22.4309 4.680739,22.266256" slic3r:type="contour"/>
    <polygon style="fill: white" points="3.998914,24.867034 3.96187,24.993705 4.084794,25.179758 4.512067,25.715564 4.229564,25.7642 3.645506,25.959597 3.062634,27.471005 3.199969,27.693376 3.163864,27.816231 3.18383,27.844464 3.684015,28.424098 3.430522,28.478511 2.887026,28.700743 2.223546,30.270316 2.229791,28.521492 2.205404,28.493551 1.757492,27.743054 1.871795,27.690767 2.233112,27.591399 2.2333,27.538686 2.72115,27.320317 3.106633,25.794304 3.016089,25.682381 2.627897,24.97512 2.801379,24.909574 3.361205,24.786529 3.376046,24.727784 3.736951,24.59962 3.836528,24.58242" slic3r:type="contour"/>
    <polygon style="fill: white" points="2.345635,30.568048 2.313376,30.686275 2.539046,30.97173 3.030278,31.47454 2.707859,31.572564 1.909842,32.00239 1.507548,31.594332 1.054143,30.93251 1.234247,30.826359 1.777703,30.61881 1.753644,30.517336 2.058871,30.334795 2.154888,30.299467" slic3r:type="contour"/>
    <polygon style="fill: white" points="2.351401,34.671676 2.679308,34.970135 2.170245,35.18846 1.625695,35.571564 1.021987,35.031203 0.673042,34.58926 1.033862,34.32084 1.727226,33.962448" slic3r:type="contour"/>
    <polygon style="fill: white" points="2.125726,37.29554 2.609809,38.479324 2.564581,38.649623 2.513345,38.775114 2.527185,38.789616 2.523349,38.801941 2.610924,38.875248 2.575518,38.895528 2.465096,38.98909 2.117092,40.1071 1.706729,40.998264 0.891767,39.887699 0.62243,39.6066 0.89023,38.981332 0.842977,38.930264 0.861075,38.875255 0.67989,38.726756 0.586983,38.620724 1.093942,38.167473 1.616859,36.578104" slic3r:type="contour"/>
    <polygon style="fill: white" points="2.611794,42.889511 2.889062,43.11886 2.328024,43.525287 2.218799,43.63598 2.303008,43.735216 2.287894,43.750356 2.812682,44.086327 3.019037,44.261136 2.691781,45.129304 2.24442,46.05762 1.648403,45.575592 1.101928,45.239344 1.595693,44.176048 1.71408,43.892419 1.660666,43.842752 1.706657,43.712445 1.177325,43.298764 0.841266,42.956263 1.187861,42.607112 1.790246,42.113044" slic3r:type="contour"/>
    <polygon style="fill: white" points="3.353175,47.402544 3.588728,47.58604 3.241883,47.938211 3.60581,48.071544 3.707794,48.106924 3.338472,48.965931 3.058529,49.604116 2.228586,49.273935 1.868756,49.159812 2.288453,48.168385 1.858264,47.855975 1.498017,47.546772 1.816099,47.199247 2.366127,46.619676" slic3r:type="contour"/>
    <polygon style="fill: white" points="3.957266,50.831575 4.667603,50.906604 4.57912,51.134988 4.426206,51.638624 5.341177,52.127216 5.120196,52.754224 4.966611,53.118394 5.730146,53.003499 5.894562,52.967824 5.702357,53.719032 5.618396,54.29072 4.805075,54.452923 4.432332,54.515292 4.5753,53.688267 4.652254,53.222832 3.979524,52.868935 3.010139,52.35478 3.032416,52.30719 3.030049,52.307108 3.032079,52.304239 2.978311,52.297183 2.983631,52.278944 3.459575,50.720696" slic3r:type="contour"/>
    <polygon style="fill: white" points="7.40709,55.066703 7.413667,55.865219 6.838552,56.074704 6.258125,56.287528 6.268446,55.786368 6.285323,54.929687 7.05345,54.648299 7.434915,54.485559" slic3r:type="contour"/>
    <polygon style="fill: white" points="9.344448,56.166423 9.467235,57.102964 10.809081,57.328004 10.830363,57.31442 10.874991,57.319504 11.433302,56.902547 11.456902,57.043943 11.53676,57.394898 12.980261,57.559352 13.255871,58.118381 13.595427,57.869647 13.648348,57.82686 13.844049,58.665756 13.966008,59.06476 13.240569,59.67026 12.998792,59.8473 12.739988,58.970168 12.716316,58.874419 11.683426,58.740508 11.054228,58.684403 10.998454,58.720176 10.950515,58.711404 10.736096,58.867964 10.668169,58.911736 10.604538,58.6481 10.348998,58.601344 9.899996,58.535484 9.766139,57.955159 9.466248,57.164001 9.117094,57.350812 8.372558,57.738544 8.345396,57.527632 8.234697,56.399236 8.759405,56.127227 9.310076,55.79266" slic3r:type="contour"/>
    <polygon style="fill: white" points="15.997526,59.244603 16.191783,59.78812 15.618916,60.322444 15.253566,60.62556 15.025408,59.971152 14.842777,59.371512 15.605748,58.73004 15.794999,58.560244" slic3r:type="contour"/>
    <polygon style="fill: white" points="18.088598,59.68234 18.36232,60.318424 17.906536,60.808147 17.47458,61.230444 17.270856,60.74642 16.987128,60.010756 17.594745,59.404968 17.873492,59.118216" slic3r:type="contour"/>
    <polygon style="fill: white" points="20.137621,59.955095 20.493118,60.626004 20.120702,61.101143 19.683362,61.626304 19.492992,61.257664 19.09596,60.458504 19.583393,59.862836 19.900694,59.475096" slic3r:type="contour"/>
    <polygon style="fill: white" points="22.171295,60.035055 22.598328,60.679688 22.279363,61.177988 21.895064,61.770884 21.696874,61.461064 21.191798,60.679679 21.591564,60.059975 21.895064,59.602951" slic3r:type="contour"/>
  </g></svg>