<svg width="43.790126" height="63.590156" xmlns="http://www.w3.org/2000/svg" xmlns:svg="http://www.w3.org/2000/svg" xmlns:xlink="http://www.w3.org/1999/xlink" xmlns:slic3r="http://slic3r.org/namespaces/slic3r"><g xmlns="http://www.w3.org/2000/svg" slic3r:z="3.33349999999999e-005" id="layer100">
    <polygon style="fill: white" points="15.923722,60.415515 16.236253,61.23246 15.86475,61.565967 15.277022,62.042443 15.165931,61.730959 14.883852,60.832556 15.368487,60.447992 15.814952,60.06324" slic3r:type="contour"/>
    <polygon style="fill: white" points="13.801282,59.840195 14.032128,60.53798 13.533719,60.942635 13.043541,61.298995 12.895593,60.814747 12.702537,60.067732 13.341725,59.619391 13.679685,59.3549" slic3r:type="contour"/>
    <polygon style="fill: white" points="11.608293,59.174848 11.75944,59.721295 11.098617,60.200832 10.746767,60.42902 10.568231,59.733788 10.452889,59.181692 11.283299,58.664039 11.480241,58.525088" slic3r:type="contour"/>
    <polygon style="fill: white" points="7.441442,56.598996 7.468165,57.073459 9.114233,57.440007 9.215569,57.647549 9.329578,57.58806 9.353627,57.573712 9.41377,58.053475 9.4336,58.094087 9.955362,58.999504 9.534422,58.927287 9.392083,59.003412 9.232908,58.965226 8.660951,59.313219 8.481462,59.410912 8.360895,58.756029 7.749019,58.60924 6.655406,58.387004 6.608753,58.265316 6.542535,58.135218 6.361763,58.206676 6.360006,58.165795 6.353484,57.763789 6.31893,57.6959 6.274631,57.12633 6.141295,56.720532 6.475429,56.836067 6.731157,56.73864 7.44311,56.415076" slic3r:type="contour"/>
    <polygon style="fill: white" points="5.807648,55.504003 5.706828,56.427332 5.236849,56.532676 4.52014,56.683228 4.558209,56.339803 4.684492,55.370416 5.349753,55.241928 5.873172,55.113084" slic3r:type="contour"/>
    <polygon style="fill: white" points="4.429734,53.657647 4.714632,53.656028 4.511175,54.246343 4.309589,54.906328 3.568835,54.90632 3.099287,54.905308 3.294859,54.246491 3.481726,53.637296" slic3r:type="contour"/>
    <polygon style="fill: white" points="2.787865,49.544368 3.231097,49.780504 3.008563,50.169575 2.535671,50.959729 3.686708,51.934902 3.855349,51.98128 3.845659,52.001356 3.825298,52.044366 3.911276,52.105436 3.88309,52.196007 3.482804,53.490488 3.132602,53.255214 3.048903,53.233928 2.851566,53.080366 2.18219,52.931896 2.057823,52.90552 2.215391,52.585312 2.059579,52.464064 1.852222,52.28696 2.131227,51.744355 2.417667,51.117212 2.296401,51.065396 2.360103,50.968406 2.02426,50.795572 1.328451,50.452776 1.598697,50.012192 2.065256,49.208832" slic3r:type="contour"/>
    <polygon style="fill: white" points="2.067019,46.321984 2.724141,46.908791 2.655346,47.041632 2.519225,47.264263 2.531892,47.274696 2.525564,47.284579 2.818106,47.530512 2.684309,47.692879 2.005384,48.641212 1.470094,48.228947 0.808242,47.635524 0.841441,47.592404 0.893659,47.524974 0.882165,47.516816 0.894397,47.501975 0.773974,47.409876 0.819535,47.33966 1.598334,45.997064" slic3r:type="contour"/>
    <polygon style="fill: white" points="1.718361,41.793788 2.266162,42.576372 2.177064,42.791723 2.018593,43.065368 2.051198,43.094563 2.040474,43.114403 2.327198,43.346092 2.21626,43.44396 1.428158,44.349316 0.996038,44.029144 0.325885,43.391119 0.36906,43.342116 0.458497,43.252759 0.445575,43.239684 0.480355,43.200098 0.294754,42.999267 0.397371,42.821855 1.183081,41.248868" slic3r:type="contour"/>
    <polygon style="fill: white" points="1.033855,38.160183 1.197274,38.32854 1.158823,38.413966 1.55758,38.810571 2.091538,39.241988 1.73776,39.493604 1.126615,40.111248 0.537607,39.657835 0.095371,39.183992 0.346348,38.92026 0.925674,38.451601 0.849052,38.336416 0.973853,38.203844 1.038497,38.152479" slic3r:type="contour"/>
    <polygon style="fill: white" points="1.567976,34.383144 1.688393,34.872593 2.01269,35.248344 2.09334,35.318048 1.834149,35.465036 1.852952,35.541464 1.825448,35.565431 1.980788,35.798616 2.075414,36.025552 1.656526,37.12664 1.0604,38.116124 0.438641,36.880424 0.081252,36.314384 0.472829,35.611772 0.392806,35.516004 0.426408,35.438744 0.210417,35.255212 0.111479,35.130092 0.738086,34.546592 0.845009,34.476275 1.20615,33.645924" slic3r:type="contour"/>
    <polygon style="fill: white" points="2.028376,31.360756 2.40264,31.71529 1.962545,31.90149 1.3196,32.368254 0.75399,31.832454 0.439101,31.375972 0.808802,31.087485 1.533922,30.70889" slic3r:type="contour"/>
    <polygon style="fill: white" points="22.11024,4.365 22.291972,4.365857 22.327718,4.365473 22.335551,4.35194 22.342076,4.352224 22.44309,4.163288 22.584138,3.913498 22.777137,4.371132 22.894751,4.376243 23.116118,4.381442 23.135552,4.36007 23.149005,4.361611 23.253585,4.224728 23.387686,4.080678 23.476439,4.399132 23.516912,4.40377 23.988192,4.446096 23.702634,4.768085 23.751223,4.833202 24.251432,4.599651 24.289671,4.872273 24.37864,5.668265 24.537469,5.697748 24.938801,5.58868 25.114352,5.601347 25.10778,5.803743 25.219312,5.829622 25.100594,6.025079 25.089586,6.36411 25.083135,6.377361 25.090833,6.862671 25.820894,7.035718 25.720954,7.318313 25.499745,7.716094 25.996459,7.702064 26.283256,7.76028 26.238816,8.093488 26.504258,8.017498 26.534302,8.243029 26.577278,8.363035 27.008952,8.356422 26.974181,8.690828 26.952623,8.98256 27.174326,8.809205 27.454068,8.614946 27.522004,8.819323 27.563543,8.927144 27.567815,8.926809 27.572918,8.946002 28.413876,9.038521 28.440602,9.136431 28.517598,9.078925 28.607913,9.359991 29.120076,9.941393 29.558844,9.58806 29.69841,9.486713 29.8255,9.858476 29.945952,10.253666 29.94808,10.254243 29.968343,10.312851 30.242357,10.412484 30.815071,9.975125 30.92221,9.906166 31.062414,10.300818 31.2191,10.282322 31.47705,10.118548 31.841709,10.34428 31.892751,10.370138 31.995004,10.295475 32.030992,10.378758 32.050411,10.458295 32.081182,10.53402 32.327244,10.767319 32.484321,10.863786 32.708192,10.627137 32.832551,10.517514 32.843302,10.535007 32.884253,10.521173 33.119724,10.832176 33.310056,10.929416 33.442342,10.729949 33.456552,10.675208 33.49581,10.62366 33.491158,10.469912 33.556385,10.544122 33.620884,10.459433 33.675503,10.54413 33.706271,10.594222 33.723312,10.602102 33.98074,10.892219 34.1373,10.558576 34.186876,10.255838 34.349288,10.429445 34.660916,10.58658 35.098888,10.160977 35.115112,10.177933 35.132407,10.153505 35.254015,10.323094 35.508274,10.588808 35.817752,10.379963 36.040356,10.239552 36.209732,10.71994 36.240655,10.802009 36.429776,10.746978 36.895904,10.659512 36.901608,11.035109 36.900858,11.271896 36.951032,11.274603 37.570292,11.396278 37.478156,11.644112 37.325016,12.008701 37.919916,12.288097 37.797084,12.449699 37.45711,12.826019 38.074824,13.185714 37.96516,13.295392 37.666223,13.546927 37.689636,13.60361 37.683204,13.609612 37.819451,13.922939 38.177428,14.121907 38.123311,14.173921 38.014973,14.264984 38.242348,14.617726 38.142166,15.047103 38.234099,15.100822 38.289168,15.125392 38.081696,15.306281 38.067752,15.366045 38.009587,15.423165 37.841166,15.945079 38.197819,16.126258 38.453187,16.213687 38.035155,16.58203 37.639432,17.026752 38.175307,17.256181 38.709888,17.397998 38.538796,17.55674 38.377929,17.769776 38.979336,18.293767 38.901769,18.603643 38.985795,18.631649 39.088792,18.650002 38.820361,18.928861 38.757208,19.18115 38.727361,19.227049 38.681043,19.769816 39.162128,19.89368 39.61956,19.949226 39.425776,20.177815 39.116893,20.76898 39.417061,21.137812 39.838528,21.238056 39.88315,21.31862 40.300292,21.351046 40.22058,21.455275 40.09857,21.70755 40.547704,22.51844 40.68151,22.957671 40.836436,23.00415 40.862055,23.072101 41.101159,23.095482 41.051896,23.160509 40.96311,23.340137 41.450155,24.631947 41.511387,25.104272 41.689656,25.176654 41.705592,25.264265 41.973464,25.314276 41.910672,25.391044 41.774216,25.641547 41.957848,26.651113 41.906099,27.518613 42.22234,27.693282 42.218748,27.875036 42.777579,28.063084 42.622039,28.227048 42.077725,29.066112 42.02278,29.280721 41.958431,29.158945 41.458112,28.992562 40.853875,28.602751 40.984275,28.369594 41.329603,27.968933 41.296476,27.90624 41.440376,27.613124 40.773681,26.367685 40.1092,26.051854 40.181832,25.896997 40.378631,25.629699 40.356932,25.589163 40.481903,25.276872 39.873749,24.159243 39.286628,23.950852 39.353748,23.795225 39.530241,23.527963 39.510512,23.491705 39.621076,23.185306 39.219645,22.43843 39.185347,22.435111 38.507323,22.241404 38.601643,22.032318 38.814079,21.683865 38.799588,21.656903 38.947067,21.25135 38.969662,21.212911 38.894233,20.984491 38.291972,20.906186 37.802636,20.768696 37.997319,20.393214 38.318657,19.865212 38.110723,19.65422 37.685188,19.484212 37.600238,19.404282 37.31376,19.342336 37.2104,19.305954 37.312731,19.133769 37.251276,19.075946 37.113612,18.99283 37.336976,18.458601 37.392316,18.201056 36.782988,17.8955 36.964096,17.635394 37.5081,17.063755 36.769492,16.745553 36.497872,16.582517 36.950588,16.010497 36.798056,15.845545 36.323824,15.431951 36.34298,15.393027 36.312364,15.375195 36.321584,15.363896 36.36226,15.326596 36.363043,15.32415 36.372133,15.314355 36.554456,14.784671 36.612638,14.542884 36.1661,14.281122 36.301136,14.145916 36.753618,13.744742 36.650456,13.684375 36.06118,13.373124 36.255411,13.193366 36.525993,12.938313 35.951692,12.71889 36.149123,12.494049 36.212246,12.418065 35.831512,12.374378 35.914776,12.171848 35.675,12.224549 35.66697,12.021032 35.467315,12.141492 35.388261,11.948286 35.233256,12.13982 35.105076,11.987602 35.071611,12.094659 35.027317,12.154378 35.021428,12.193735 35.007899,12.241913 34.980988,12.247819 34.945369,12.180303 34.656723,12.002791 34.622716,12.380424 34.043743,12.112577 34.030139,12.346317 33.975788,12.653286 33.680347,12.514468 33.49265,12.768671 33.352092,12.449252 33.27401,12.333874 32.864672,12.73833 32.531957,12.504603 32.375132,12.642958 32.323895,12.358442 32.136354,12.226697 32.11286,12.159123 31.780807,11.949088 31.670564,12.028689 31.337398,12.287513 31.287749,11.944902 31.205277,11.596471 30.745636,11.575231 30.664673,11.633573 30.59768,11.624523 30.26554,11.889385 30.238195,11.740798 30.195618,11.570208 29.444803,11.46878 29.231709,11.424081 29.216985,11.43582 29.203524,11.431104 29.11049,11.510732 29.098907,11.462812 29.078468,11.391937 29.078356,11.391914 29.077055,11.3868 28.240862,11.093866 28.103248,11.033058 28.085756,11.047248 28.07353,11.037094 27.960536,11.133146 27.941588,11.060976 27.888063,10.883068 27.609449,10.651683 27.392233,10.471312 27.344566,10.507254 27.314793,10.44908 26.923866,10.738665 26.83143,10.388002 26.785202,10.228789 26.628135,10.242814 26.014292,10.28854 26.015057,10.242916 25.960768,10.255853 25.848288,9.935875 25.734801,9.628168 25.578058,9.646232 25.266668,9.651104 25.365883,9.141513 25.408097,8.997427 25.263604,9.00535 24.679878,8.90597 24.766136,8.529089 24.868056,8.291982 24.208368,8.101469 24.299116,7.658653 24.500905,7.285892 23.901326,7.441963 23.933703,7.165411 23.919363,6.890504 23.718108,6.854576 23.7157,6.856449 23.658858,6.849351 23.376588,7.056946 23.345334,6.878063 23.332238,6.808562 23.236388,6.796592 23.035481,6.764807 22.94301,6.883801 22.912928,6.798767 22.897129,6.752383 22.59337,6.73992 22.521271,6.736198 22.472146,6.823116 22.446255,6.769693 22.429221,6.734622 21.998617,6.739165 21.948498,6.739179 21.948484,6.739208 21.944412,6.739164 21.895064,6.832361 21.868003,6.77903 21.846846,6.739207 21.841656,6.739208 21.841128,6.738069 21.415397,6.733559 21.361482,6.73355 21.318006,6.823081 21.29123,6.771526 21.270384,6.734872 20.969776,6.746652 20.892684,6.750672 20.847148,6.883799 20.798952,6.813399 20.755631,6.75782 20.737948,6.758741 20.736884,6.757226 20.5996,6.770045 20.462666,6.792565 20.413502,7.056952 20.290545,6.945572 20.153512,6.843409 20.074403,6.856419 20.019441,6.812293 19.90448,6.838799 19.888716,7.442051 19.539683,7.313191 19.193146,7.215696 19.343014,7.741935 19.581769,8.101449 19.463032,7.937575 18.923173,8.066588 18.812834,8.19314 18.88796,8.455125 19.110234,8.906016 18.712382,8.873008 18.42194,8.902878 18.372019,9.119766 18.424339,9.349941 18.523384,9.65116 18.141227,9.606273 18.10238,9.736412 17.829359,10.255848 17.775853,10.235828 17.775763,10.288579 17.095886,10.230779 17.027165,10.224972 16.996602,10.340406 16.866246,10.738683 16.716148,10.616036 16.493993,10.445911 16.445661,10.507362 16.397042,10.472014 16.323045,10.533485 15.918358,10.869662 15.829584,11.13317 15.785416,11.09631 15.716024,11.037741 15.704472,11.047338 15.672301,11.021743 14.882923,11.302116 14.724958,11.370291 14.679697,11.510701 14.644109,11.48135 14.584359,11.43097 14.573199,11.435787 14.533388,11.404574 13.964418,11.445067 13.631066,11.519935 13.524594,11.889369 13.396495,11.791475 13.179465,11.62136 13.125371,11.63351 12.953902,11.511817 12.631386,11.540973 12.582831,11.827413 12.452723,12.287531 12.116002,12.046293 11.951741,11.922961 11.727456,12.056148 11.653772,12.22668 11.520582,12.31157 11.491342,12.442739 11.414998,12.642965 11.228991,12.497415 11.178671,12.529486 10.925473,12.738329 10.756686,12.433668 10.625632,12.304599 10.55594,12.437783 10.297441,12.768664 10.08359,12.513041 10.038807,12.533458 9.814312,12.653282 9.801811,12.176222 9.737001,12.098751 9.679583,12.124913 9.1674,12.380411 9.176038,12.071795 8.952746,12.199224 8.80911,12.247815 8.788577,12.213109 8.776654,12.222167 8.773188,12.187099 8.744651,12.138866 8.626706,12.018168 8.556856,12.139814 8.441092,11.890381 8.368924,11.899312 8.322779,12.141486 8.15299,11.963043 8.087864,11.993626 8.115127,12.224533 7.828375,12.094604 7.958613,12.374378 7.570771,12.391855 7.83844,12.718885 7.572278,12.837193 7.282582,12.95019 7.728953,13.373109 7.51163,13.506646 7.033466,13.764594 7.152026,13.879388 7.624028,14.28112 7.480027,14.36603 7.205274,14.527196 7.382028,15.154764 7.42592,15.320955 7.432144,15.338065 7.477765,15.375226 7.450243,15.387826 7.466304,15.431984 7.322633,15.580533 6.813873,16.088923 7.115781,16.446921 7.292265,16.582487 6.791894,16.761468 6.266995,17.062322 6.612978,17.528444 7.007138,17.895502 6.778368,17.95303 6.449535,18.108714 6.676523,18.99284 6.479912,19.161866 6.527962,19.238875 6.579728,19.305986 6.255416,19.354866 6.104941,19.484229 5.865028,19.57335 5.482418,19.90449 5.75027,20.395892 5.987475,20.76874 5.623623,20.791078 4.93371,20.962764 4.834954,21.300986 4.990511,21.656888 4.95809,21.7405 5.2828,22.241402 5.080229,22.246586 4.729551,22.329889 4.59451,22.67815 4.215419,23.347993 4.279633,23.491813 4.243119,23.583413 4.503498,23.950868 4.35507,23.959124 4.058555,24.046406 3.758297,24.799623 3.363995,25.449091 3.4332,25.589177 3.394641,25.687293 3.680932,26.05183 3.53255,26.071348 3.18963,26.208972 2.954308,26.807777 2.375076,27.705558 2.49369,27.906314 2.435506,28.053335 2.936263,28.602728 2.704986,28.663954 1.874781,29.124274 1.767239,29.281488 1.749135,29.137379 1.409486,28.760196 1.012554,28.063034 1.195968,27.951412 1.582109,27.807765 1.567732,27.69332 1.984598,27.434921 2.066231,25.843435 1.816665,25.31423 1.906007,25.274131 2.097702,25.229868 2.100433,25.176634 2.475191,25.001329 2.60506,24.637441 2.852128,23.479732 2.688971,23.095468 2.770162,23.06761 2.945634,23.04158 2.953616,23.004178 3.36437,22.857899 3.402204,22.80074 3.71911,21.899273 3.489838,21.351032 3.636793,21.309033 3.940255,21.270206 3.951556,21.238057 4.492013,21.080338 4.528294,21.076216 4.686335,20.850163 4.421183,20.48181 4.170593,19.949178 4.552647,19.839442 5.152677,19.73893 5.158228,19.387256 5.032899,19.181112 5.014144,19.074943 4.776929,18.782695 4.701344,18.649996 4.92486,18.569521 4.903351,18.447764 4.810785,18.2938 5.205385,18.113724 5.43469,17.890208 5.080239,17.397992 5.36502,17.269819 6.13662,17.023751 5.577642,16.493418 5.336952,16.213619 5.969909,15.880553 5.876911,15.538834 5.85916,15.498944 5.722446,15.36607 5.711474,15.31396 5.55539,15.175912 5.500982,15.12535 5.65267,15.034663 5.632698,14.939811 5.547799,14.617623 5.712422,14.389478 5.788829,14.26457 5.6127,14.121938 5.689241,14.081599 5.95101,13.938426 5.991056,13.838308 6.132658,13.519256 5.715301,13.185708 5.870557,13.109503 6.289462,12.877069 6.348388,12.793656 5.870187,12.288097 6.084273,12.216756 6.494388,12.04022 6.474368,11.988183 6.219837,11.396278 6.516323,11.38583 6.896006,11.327588 6.897363,11.177236 6.894221,10.659525 7.307374,10.7869 7.528712,10.835524 7.639199,10.530427 7.749769,10.239558 8.267883,10.593694 8.48777,10.366973 8.64838,10.163761 8.657707,10.153476 8.675088,10.174297 8.691279,10.160961 9.045351,10.546562 9.60327,10.255842 9.810222,10.627912 9.84038,10.730312 10.049929,10.624664 10.066843,10.602098 10.091873,10.587847 10.169278,10.459433 10.207356,10.522093 10.299005,10.469912 10.348359,10.561071 10.386128,10.855552 10.905938,10.521153 10.906518,10.522057 10.957599,10.517497 11.073391,10.780672 11.175869,10.869005 11.493318,10.631883 11.736619,10.471501 11.74396,10.44788 11.765911,10.435179 11.79513,10.295461 11.833206,10.34842 11.869211,10.375406 12.313243,10.118479 12.777474,10.225507 12.839972,10.019761 12.867917,9.906162 13.15605,10.169496 13.422385,10.350649 13.87292,10.183859 14.038313,9.665794 14.09168,9.486712 14.378013,9.740766 14.611163,9.916426 14.824,9.642894 15.201474,9.301249 15.258704,9.122252 15.272497,9.078954 15.338631,9.136176 15.376224,9.038548 16.015447,8.974997 16.209136,8.951354 16.336053,8.614942 16.522696,8.775402 16.829602,9.000154 16.795764,8.62862 16.781218,8.356362 17.027698,8.370608 17.183587,8.371554 17.285882,8.017481 17.62295,8.10296 17.580634,7.90607 17.50686,7.760278 17.749168,7.857781 18.30736,7.779335 18.316254,7.742869 18.366332,7.741284 18.284061,7.539871 17.969242,7.035705 18.088954,7.121728 18.695117,7.044337 18.68386,6.448584 18.699328,6.144643 18.698692,6.025507 18.643052,5.936148 18.570852,5.829577 18.697516,5.805701 18.697044,5.717065 18.675828,5.601277 19.001454,5.748411 19.437586,5.666203 19.506312,5.21882 19.538666,4.599678 19.615996,4.664837 20.068818,4.923859 20.122241,4.857879 20.078592,4.809019 19.801962,4.446085 20.322778,4.393547 20.359311,4.266551 20.402418,4.080688 20.619468,4.363618 20.654552,4.360079 20.667448,4.375249 20.783567,4.37037 21.017949,4.363907 21.019301,4.360666 21.021679,4.360655 21.099572,4.177172 21.205982,3.913506 21.441811,4.352218 21.454515,4.351868 21.458322,4.358624 21.624111,4.357852 21.685983,4.358506 21.772933,4.175802 21.895064,3.911079" slic3r:type="contour"/>
    <polygon style="fill: white" points="42.848263,31.127809 43.351028,31.376002 42.97844,31.713698 42.470628,32.368282 41.757687,32.024395 41.387499,31.715347 41.668451,31.293746 42.256136,30.708806" slic3r:type="contour"/>
    <polygon style="fill: white" points="43.020055,34.442727 43.099597,34.669014 43.535336,35.039144 43.678644,35.130084 43.354759,35.394921 43.39732,35.516004 43.34423,35.573306 43.552624,35.919136 43.708872,36.314356 43.331175,37.222072 42.729684,38.116092 41.970112,36.484672 41.714712,36.025564 41.987867,35.591112 41.937176,35.541488 41.95113,35.500593 41.765244,35.386028 41.696788,35.318084 42.239952,34.612023 42.260666,34.593425 42.584008,33.645796" slic3r:type="contour"/>
    <polygon style="fill: white" points="42.94104,38.336332 42.860287,38.472761 43.135615,38.741983 43.694752,39.183996 43.341519,39.450344 42.663508,40.111232 42.07344,39.664876 41.698588,39.242004 41.985492,38.929975 42.630351,38.400253 42.59288,38.32846 42.701215,38.205516 42.751735,38.163454 42.741327,38.141099" slic3r:type="contour"/>
    <polygon style="fill: white" points="43.032496,41.957911 43.495368,42.999264 43.432776,43.087547 43.317279,43.21009 43.344536,43.239671 43.328608,43.256569 43.46424,43.391116 43.389983,43.445824 42.361968,44.349316 41.972728,43.991252 41.462948,43.346063 41.559079,43.25354 41.744291,43.103637 41.738959,43.094496 41.786847,43.048836 41.523988,42.576276 41.732079,42.361168 42.607012,41.2489" slic3r:type="contour"/>
    <polygon style="fill: white" points="42.523039,46.501991 43.016147,47.409884 42.978347,47.442724 42.897621,47.504409 42.907967,47.516795 42.896355,47.524998 42.981892,47.635456 42.901115,47.698192 41.784732,48.641008 41.368276,48.12724 40.972024,47.530472 41.088287,47.425332 41.261686,47.280147 41.258163,47.274704 41.277411,47.258255 41.065984,46.908828 41.211967,46.808552 42.191767,45.997004" slic3r:type="contour"/>
    <polygon style="fill: white" points="42.145287,49.893295 42.461667,50.4528 42.167007,50.606768 41.432896,50.969582 41.493716,51.065476 41.376926,51.1139 41.729504,51.83484 41.937868,52.287084 41.571282,52.577158 41.681612,52.801464 41.732312,52.905516 40.928375,53.085879 40.741431,53.233804 40.64261,53.259336 40.30732,53.490487 40.088347,52.786891 39.878876,52.10536 39.922671,52.076688 39.965306,52.045753 39.934776,51.981268 39.959652,51.974179 40.108304,51.932974 40.543916,51.570867 41.255456,50.959295 40.957979,50.447471 40.559012,49.780544 41.043088,49.558559 41.724844,49.208803" slic3r:type="contour"/>
    <polygon style="fill: white" points="40.557584,54.47594 40.690852,54.905316 40.165571,54.905091 39.480456,54.906408 39.183536,54.01264 39.075472,53.656036 39.786308,53.637512 40.3084,53.637292" slic3r:type="contour"/>
    <polygon style="fill: white" points="38.352224,55.192836 39.10562,55.370404 39.173048,55.975552 39.26998,56.68324 39.001031,56.622351 38.083236,56.42734 37.9914,55.813999 37.916968,55.113084" slic3r:type="contour"/>
    <polygon style="fill: white" points="36.537312,56.484772 37.336747,56.837549 37.648836,56.720528 37.507167,57.214755 37.471188,57.695952 37.43142,57.77764 37.428332,58.206691 37.397288,58.193332 37.256526,58.136898 37.134792,58.386956 35.413272,58.774781 35.332404,59.221919 35.30864,59.410928 34.604972,58.97576 34.580772,58.962327 34.39808,59.003484 34.266751,58.931916 33.834916,58.999472 34.251704,58.363715 34.330112,58.207586 34.346044,58.115599 34.359344,58.089286 34.429904,57.605907 34.436531,57.573708 34.582537,57.647725 34.636811,57.540348 34.67584,57.440048 35.657468,57.267811 36.306023,57.10514 36.34704,56.415064" slic3r:type="contour"/>
    <polygon style="fill: white" points="32.937444,58.905912 33.337266,59.181732 33.118689,60.044296 33.043328,60.429028 32.540134,60.058304 32.030688,59.721296 32.233515,58.793612 32.309864,58.525088" slic3r:type="contour"/>
    <polygon style="fill: white" points="30.561954,59.6641 31.087578,60.067668 30.882281,60.746964 30.746586,61.298996 30.40188,61.015239 29.75798,60.538076 29.953485,59.818532 30.11041,59.354904" slic3r:type="contour"/>
    <polygon style="fill: white" points="28.287866,60.3067 28.906274,60.832451 28.720682,61.357535 28.513158,62.042435 28.293315,61.842755 27.553876,61.232376 27.735589,60.678032 27.97517,60.063256" slic3r:type="contour"/>
    <polygon style="fill: white" points="26.111422,60.803852 26.77766,61.451843 26.606188,61.853716 26.304724,62.630131 26.178822,62.499632 25.504474,61.853069 25.471591,61.871848 25.456076,61.855885 24.602023,62.16931 24.501998,62.352808 24.43798,62.361901 24.103158,63.019423 24.036706,62.937888 23.670334,62.511228 23.64288,62.521304 23.60855,62.479725 23.556808,62.487075 22.268227,62.656716 22.207106,62.746743 22.179593,62.74273 21.895064,63.163676 21.852195,63.098963 21.612433,62.74305 21.583073,62.746916 21.514719,62.645762 21.232437,62.604591 20.190403,62.469514 20.147247,62.521304 20.126613,62.512804 19.68697,63.019424 19.635492,62.922148 19.347323,62.360228 19.288078,62.352548 19.176617,62.148305 18.336991,61.853095 18.318534,61.871848 18.291556,61.854321 18.116665,62.033956 17.485372,62.630128 17.407828,62.44944 17.012466,61.451843 17.372049,61.116228 17.885968,60.612672 17.984291,60.861991 18.40492,61.781524 19.167379,61.821662 19.373715,61.585824 19.907408,60.969496 20.000208,61.150028 20.388672,61.841577 21.359692,61.860054 21.394475,61.809128 21.895064,61.099768 21.996321,61.249391 22.427936,61.86346 23.392085,61.844669 23.460827,61.713944 23.882718,60.9695 24.020219,61.126243 24.626649,61.825676 25.386016,61.782728 25.574266,61.324139 25.90418,60.612668" slic3r:type="contour"/>
  </g></svg>