<svg width="43.790126" height="63.590156" xmlns="http://www.w3.org/2000/svg" xmlns:svg="http://www.w3.org/2000/svg" xmlns:xlink="http://www.w3.org/1999/xlink" xmlns:slic3r="http://slic3r.org/namespaces/slic3r"><g xmlns="http://www.w3.org/2000/svg" slic3r:z="2.57449999999999e-005" id="layer77">
    <polygon style="fill: white" points="9.771524,58.605484 9.952766,59.566064 9.514999,59.833028 8.873073,60.179384 8.806872,59.844436 8.678639,58.971164 9.147682,58.721919 9.737924,58.38186" slic3r:type="contour"/>
    <polygon style="fill: white" points="7.921244,57.722955 7.980623,58.614008 7.409064,58.878391 6.843426,59.09872 6.805533,58.647503 6.783036,57.874832 7.3754,57.639152 7.911109,57.405807" slic3r:type="contour"/>
    <polygon style="fill: white" points="6.338097,56.72666 6.25308,57.532932 5.525396,57.730623 5.062167,57.81928 5.106383,57.25718 5.200127,56.599532 5.930291,56.439343 6.398778,56.316108" slic3r:type="contour"/>
    <polygon style="fill: white" points="5.107618,55.594616 4.893809,56.27454 4.010415,56.328235 3.677186,56.32524 3.856939,55.681707 4.054614,55.146376 4.903272,55.131543 5.284445,55.10092" slic3r:type="contour"/>
    <polygon style="fill: white" points="3.568275,52.125472 3.914989,52.211264 3.554161,52.735668 3.223131,53.206194 3.244713,53.238936 3.224455,53.263386 3.342448,53.57779 4.15425,53.715715 4.478468,53.745524 4.180162,54.276564 3.879607,54.845824 3.814977,54.836895 3.878089,55.005067 3.878803,55.006932 3.878026,55.008344 3.877581,55.008276 3.875671,55.007944 3.807645,54.835882 2.915637,54.712647 2.677523,54.66826 2.993379,54.024375 3.289812,53.526105 3.198385,53.294851 3.152205,53.350588 3.103082,53.335392 2.961757,53.29736 2.979884,53.202378 2.251776,52.954431 2.011498,52.87796 2.38176,52.330267 2.754279,51.854188" slic3r:type="contour"/>
    <polygon style="fill: white" points="2.736345,47.561476 3.04439,47.72012 2.52601,48.399646 2.943933,48.84896 3.281703,49.2185 3.066413,49.579271 2.74888,50.059336 2.900146,50.129775 3.484656,50.358184 3.258063,50.66908 2.677923,51.40674 1.98146,51.057348 1.546055,50.881216 1.785416,50.567819 2.167096,50.120823 1.79223,49.723212 1.235057,49.14364 1.625828,48.534223 1.580844,48.509651 1.593267,48.493368 1.244402,48.290343 1.084537,48.19652 1.521314,47.619152 1.944448,47.100052" slic3r:type="contour"/>
    <polygon style="fill: white" points="2.366459,43.946131 2.605934,44.102119 2.235726,44.570642 2.548533,44.883855 2.712291,45.062724 2.286241,45.678223 1.842643,46.175108 0.817349,45.106067 0.682023,44.976592 0.869146,44.755062 0.854109,44.743963 0.874073,44.717577 0.713614,44.610871 0.633973,44.542828 1.104889,43.843476 1.525901,43.308244" slic3r:type="contour"/>
    <polygon style="fill: white" points="2.040091,39.644432 2.323779,39.85942 1.883857,40.338111 1.953371,40.462644 1.941794,40.477681 2.208804,40.779235 2.371622,41.00718 1.932832,41.658012 1.438245,42.114704 0.48215,40.899768 0.348311,40.76218 0.576665,40.52644 0.543803,40.49456 0.578441,40.447059 0.416032,40.323323 0.32556,40.214283 0.787886,39.49758 1.306126,38.917275" slic3r:type="contour"/>
    <polygon style="fill: white" points="2.179503,35.318635 2.467965,35.561984 1.945177,35.972121 1.999858,36.167 1.953498,36.218507 2.201686,36.600236 2.36423,36.971964 1.933829,37.587339 1.302282,38.076623 0.523508,36.538807 0.382634,36.333084 0.658471,36.102904 0.600381,36.026328 0.638319,35.97906 0.500981,35.856675 0.426627,35.734096 0.959474,35.044927 1.561484,34.542456" slic3r:type="contour"/>
    <polygon style="fill: white" points="1.703271,34.378612 1.619811,34.486384 1.562347,34.521912 1.491893,34.344704 1.548662,34.274048 1.602174,34.233216" slic3r:type="contour"/>
    <polygon style="fill: white" points="2.761262,30.87883 2.768518,31.060143 3.007349,31.430528 3.193463,31.60055 2.798794,31.816571 2.804701,31.96416 2.740288,32.018199 2.858464,32.342174 2.925771,32.7478 2.389119,33.381278 1.661825,33.81234 1.219488,31.780662 1.10335,31.575946 1.131308,31.547483 1.164004,31.525823 1.161811,31.515752 1.187327,31.491434 1.16293,31.332962 1.237477,31.294946 2.566149,29.956214" slic3r:type="contour"/>
    <polygon style="fill: white" points="18.574437,4.395696 18.678988,4.309646 18.765061,4.394394 18.905345,4.3542 18.963424,4.470453 18.933652,4.638477 18.964816,4.691212 19.249898,4.618937 19.282587,4.843904 19.448414,4.746313 19.523213,5.060638 19.769516,4.810992 19.991723,5.316774 20.228363,5.019354 20.346302,4.865619 20.595663,5.328991 20.670896,5.470731 20.983891,5.026481 21.079364,4.886441 21.353601,5.337166 21.471791,5.526783 21.80441,5.023649 21.895064,4.886622 22.185866,5.326842 22.31652,5.52437 22.62403,5.025108 22.710786,4.886441 23.024168,5.319951 23.124048,5.4654 23.361188,5.021743 23.44385,4.86562 23.824501,5.330281 23.949852,5.018608 24.020618,4.810973 24.34917,5.141336 24.34171,4.74632 24.583336,4.921348 24.642488,4.875276 24.540226,4.618917 24.713338,4.745656 24.777993,4.763057 24.927878,4.559035 24.948815,4.512589 24.884746,4.354205 24.913516,4.411392 25.01562,4.439602 25.111082,4.30966 25.211985,4.493855 25.281754,4.513131 25.637276,4.260863 25.653074,4.109299 25.651864,4.485053 26.037875,4.722035 26.131359,4.747864 26.309501,4.762381 26.387554,4.724325 26.462951,4.563054 26.496635,4.671143 26.679862,4.58181 26.674494,4.95826 26.67557,5.245337 26.738555,5.447455 26.859868,5.398192 27.044524,5.417304 27.349661,5.251296 27.586938,5.143089 27.637298,5.478657 27.807138,5.496237 28.137452,5.416732 28.097488,5.60816 28.164631,5.753754 28.457746,5.586952 28.525217,5.868683 28.599746,6.333129 28.904702,6.356647 29.04379,6.250977 29.126971,6.259489 29.290347,6.129391 29.486434,5.996 29.5814,6.305992 29.814496,6.329846 30.506782,6.320414 30.531725,6.396907 30.580462,6.453485 30.667994,6.380822 30.688718,6.459305 30.731226,6.628507 30.764639,6.667297 30.80391,6.786401 30.952646,6.964516 31.318755,7.286133 31.370198,7.234222 31.473459,7.264292 31.645405,7.126634 31.980142,6.842618 32.083707,7.280643 32.118297,7.431002 32.124351,7.432211 32.127515,7.454755 32.765917,7.640658 32.861877,7.670406 32.872651,7.660255 32.899301,7.671246 33.046123,7.564878 33.315624,7.354253 33.407463,7.839533 33.42154,7.843897 33.425966,7.888474 34.001579,8.125889 34.185986,8.20216 34.361612,8.094615 34.627384,7.929307 34.683811,8.408058 34.716048,8.421391 34.720516,8.49611 35.192271,8.741719 35.370356,8.831305 35.609047,8.731732 35.864144,8.630989 35.860937,9.078094 35.882976,9.08918 35.885301,9.229387 36.178611,9.436572 36.38717,9.581374 36.671331,9.526802 36.879431,9.493581 36.803107,9.918423 36.796724,9.970386 36.984936,10.17029 37.244397,10.435476 37.496516,10.433049 37.655028,10.438533 37.529308,10.796822 37.641527,10.972324 37.914672,11.380372 38.113435,11.406679 38.2347,11.428434 38.096284,11.697685 38.160787,11.844994 38.386138,12.335739 38.441441,12.354184 38.555191,12.381323 38.659316,12.409931 38.509878,12.635447 38.548283,12.767079 38.698372,13.262528 38.746671,13.284378 38.871696,13.328176 38.981876,13.367769 38.789115,13.599038 38.811011,13.738937 38.884872,14.207565 39.069635,14.299359 39.193416,14.358719 38.933567,14.594955 38.939464,14.760307 38.957926,15.196897 39.143559,15.318902 39.266412,15.400237 38.97581,15.597342 38.976304,15.7295 38.984522,16.314906 39.098415,16.412799 39.165984,16.477254 38.989252,16.567874 38.992052,16.615334 39.017888,17.039973 38.779071,17.173626 38.679452,17.288507 38.71618,17.326418 38.712975,17.328203 38.933084,17.541094 38.823316,17.630989 38.095833,18.129739 38.60368,18.531516 38.825304,18.71639 38.419539,19.053082 38.373778,19.088261 38.547479,19.331017 38.901832,19.864124 38.858688,20.025543 38.839707,20.100661 38.853884,20.110657 38.853363,20.133614 38.965828,20.18848 38.917392,20.227877 38.849321,20.312003 38.830456,21.144542 38.771394,21.661329 38.864468,21.717428 38.881746,21.879617 39.511992,22.153452 39.25374,22.347249 38.943255,22.793374 38.907255,23.736986 39.139288,23.863082 39.153091,23.962874 39.650443,24.166375 39.896175,24.460587 40.328595,24.707849 40.458696,24.761658 40.273656,24.912542 40.338888,24.990644 40.289233,25.070447 40.506692,25.154188 40.683599,25.361763 40.898408,26.732243 40.867267,27.351049 40.99418,27.42806 41.012804,27.622528 41.605556,27.921678 41.369128,28.11949 41.061183,28.632128 40.973624,29.237366 39.497899,28.076683 39.491111,28.07362 39.492116,28.060927 39.484839,28.05587 39.489787,28.04543 39.414029,25.728786 39.153528,25.54075 39.145002,25.410791 38.759347,25.255653 38.334044,24.983308 38.515371,24.635752 38.911478,24.191706 38.741176,24.037722 38.852688,23.844177 38.91494,23.769148 37.894254,22.682871 37.404703,22.363774 37.434239,22.313888 37.491816,22.254569 37.469636,22.230963 37.531289,22.14312 37.252548,21.772938 37.255944,20.58235 37.152348,20.510828 37.156113,20.48833 37.076712,20.442566 36.968416,20.362278 37.225826,20.071799 37.372979,19.192566 37.218451,19.083628 37.22367,19.069397 37.06178,18.960328 36.851072,18.782696 37.301739,18.369114 37.538777,18.201926 37.553587,18.11343 37.565163,18.002198 37.269623,17.781025 36.921612,17.469786 37.288344,17.191651 37.599053,17.002183 37.607171,16.736656 37.074724,16.314268 37.317015,16.190944 37.597996,16.031496 37.605834,15.670887 37.126196,15.358761 37.358511,15.214902 37.572946,15.075595 37.558108,14.782419 37.08536,14.554612 37.288076,14.405926 37.459209,14.266332 37.405806,13.966315 36.947296,13.814597 37.11092,13.658621 37.24484,13.514733 37.140204,13.172521 36.712012,13.082852 36.835928,12.922766 36.949204,12.766398 36.931744,12.730848 36.777678,12.375059 36.390336,12.340044 36.478487,12.17577 36.569171,12.01185 36.52058,11.933355 36.332165,11.625201 35.974292,11.647994 36.026892,11.470454 36.095537,11.28283 36.047851,11.221681 35.812953,10.952274 35.458335,11.048244 35.460648,10.829633 35.499143,10.592362 35.493683,10.5861 35.496674,10.568119 35.219999,10.343835 34.820324,10.559981 34.70044,10.248306 34.679594,9.896169 34.298533,9.673998 33.921963,9.993108 33.860983,10.077913 33.865388,10.173719 33.828084,10.123666 33.756972,10.22256 33.703568,10.099403 33.700881,10.040927 32.858627,9.570703 32.78504,9.53721 32.556355,9.847216 32.774317,10.020276 32.528338,9.899225 32.473782,10.001687 32.46517,9.873505 32.0364,9.710278 32.455407,9.798751 32.41018,9.513016 32.406854,9.376689 31.45781,9.038713 31.377145,9.010674 31.226024,9.219225 31.207976,9.01139 31.204904,8.957584 30.83141,8.866375 31.053648,8.770058 31.171268,8.717131 31.133565,8.516929 30.352422,8.392075 30.117429,8.347772 29.997652,8.463947 29.985875,8.37917 29.975821,8.335242 29.687195,8.310118 29.696798,8.051825 29.736951,7.680236 29.282673,7.644433 29.237572,7.675304 29.158543,7.673848 29.025653,7.767091 28.795698,7.985336 28.761011,7.787796 28.723322,7.665833 28.03396,7.653135 27.913516,7.319558 27.735878,7.421424 27.640546,7.500815 27.592782,7.073134 27.517315,6.786033 27.017756,6.772004 26.9111,6.812797 26.737817,6.808153 26.570008,6.93913 26.575822,6.854507 26.566861,6.80357 26.396256,6.798998 26.39413,6.549761 26.434671,6.052177 26.416724,5.950166 26.045298,6.002815 26.056426,6.095585 25.868747,6.037554 25.811417,6.135779 25.815639,6.160978 25.832856,6.339539 25.706741,6.315125 25.701602,6.32393 25.673428,6.308675 25.515032,6.278011 25.30373,6.531133 25.290934,6.604328 25.278338,6.61028 25.269647,6.669504 25.261948,6.723749 25.148316,6.67126 24.7722,6.86241 24.559344,6.738361 24.483328,6.937303 24.437086,6.894062 24.207291,6.659465 24.158838,6.646741 24.111277,6.603669 23.887842,6.566599 23.65785,7.020837 23.572321,6.91211 23.256306,6.504055 23.111826,6.492939 23.090473,6.527653 22.786102,7.046823 22.696557,6.914874 22.401817,6.482923 22.256888,6.480954 22.221679,6.536062 21.895064,7.047171 21.809674,6.913511 21.53301,6.480519 21.390299,6.482449 21.34627,6.547273 21.00402,7.046825 20.923451,6.916479 20.671274,6.495723 20.52576,6.506999 20.503245,6.535667 20.132272,7.02084 20.071773,6.910524 19.912629,6.60648 19.562519,6.670991 19.539296,6.679157 19.306794,6.937316 19.286801,6.888936 19.244863,6.78269 19.01803,6.862453 18.626729,6.667786 18.569608,6.694559 18.528206,6.723778 18.5115,6.610461 18.499228,6.604356 18.488732,6.543145 18.428924,6.476454 18.237581,6.254718 18.099816,6.28154 18.088514,6.323932 18.002669,6.321097 17.95734,6.339587 17.960909,6.319717 17.631992,6.308853 17.375537,6.113653 17.32778,6.367314 17.393866,6.798998 17.247984,6.791141 17.220124,6.939125 17.094454,6.903981 16.937263,6.809765 16.879008,6.812786 16.575121,6.718793 16.315738,6.736656 16.199221,7.323106 16.149586,7.500807 15.842097,7.353649 15.812717,7.433543 15.756108,7.653158 15.23421,7.635827 15.103949,7.643374 14.994399,7.985358 14.75595,7.852862 14.514989,7.653066 14.438643,7.607798 14.017618,7.648275 14.023262,7.751835 14.103018,8.310075 13.87653,8.321614 13.82296,8.328334 13.792449,8.46395 13.701404,8.407451 13.632819,8.345513 12.946236,8.4373 12.664605,8.493274 12.623448,8.716651 12.958843,8.866302 12.645923,8.939349 12.582071,8.956073 12.564103,9.219221 12.47015,9.051569 12.434178,9.004821 11.53832,9.325743 11.346705,9.392138 11.326856,9.789656 11.753538,9.710361 11.353039,9.86489 11.317162,9.877676 11.316356,10.001653 11.270593,9.900135 11.015959,10.020239 11.015959,10.020238 11.186612,9.867389 11.231099,9.837966 11.214595,9.810519 11.230853,9.807498 11.141154,9.601812 11.079359,9.525671 10.14415,10.025476 10.040021,10.073362 10.033183,10.222592 10.033183,10.222593 10.005764,10.105605 9.924729,10.173753 9.883147,10.090484 9.88756,9.994655 9.805951,9.906675 9.822743,9.880771 9.785059,9.832192 9.584311,9.685927 8.977747,10.04099 8.969791,10.559987 8.96979,10.559988 8.871679,10.403894 8.703682,10.308099 8.627363,10.384231 8.262714,10.679078 8.331781,11.048265 8.173805,10.982603 8.01924,10.938539 7.930574,11.051248 7.692837,11.323332 7.815856,11.647994 7.650009,11.628255 7.461385,11.614831 7.400972,11.712348 7.217531,12.012428 7.399784,12.340046 7.22028,12.35723 6.994141,12.377856 6.971706,12.414555 6.96586,12.41539 6.828036,12.733512 7.078123,13.082852 6.878299,13.137538 6.629463,13.191845 6.610633,13.235308 6.586344,13.242121 6.519171,13.460186 6.842825,13.814599 6.623525,13.908154 6.352593,14.00095 6.338441,14.046888 6.334781,14.048337 6.303344,14.22253 6.704763,14.554635 6.476869,14.682929 6.210591,14.813512 6.198153,15.054625 6.663938,15.358764 6.439716,15.5042 6.181931,15.671899 6.189474,16.013811 6.7154,16.314296 6.489622,16.43592 6.203607,16.654406 6.204967,16.716071 6.194529,16.724021 6.202379,17.049959 6.405595,17.192464 6.868516,17.469832 6.475732,17.751311 6.190761,17.994921 6.227087,18.024676 6.243889,18.08508 6.372859,18.34869 6.687314,18.611875 6.939044,18.782672 6.560353,19.025096 6.57165,19.083624 6.529211,19.110746 6.640736,19.511654 6.638693,20.196745 6.709663,20.26991 6.821712,20.362284 6.637897,20.463735 6.637756,20.510856 6.60271,20.532052 6.633967,20.74708 6.537517,21.773181 6.379984,22.118252 6.297842,22.201899 6.320494,22.231044 6.288302,22.277487 6.385405,22.363814 6.310119,22.395723 6.141381,22.489451 5.622647,23.237831 4.871623,23.768682 5.048981,24.037728 4.8669,24.254835 5.12225,24.661229 5.456086,24.983324 4.888639,25.211017 4.673087,25.325842 4.636589,25.540768 4.459457,25.645035 4.503072,26.445023 4.30086,28.051505 4.305273,28.055842 4.299703,28.058169 4.29896,28.073713 3.427607,28.959146 2.816533,29.237454 2.811973,28.837162 2.436719,28.450779 2.184541,27.921716 2.486542,27.677739 2.796996,27.522479 2.795922,27.428084 3.036218,27.247416 3.106521,25.361762 3.556443,25.200396 3.451237,24.99065 3.482483,24.96474 3.370206,24.845892 3.331429,24.761664 3.974829,24.303842 4.592954,24.043907 4.644406,24.001241 4.650888,23.863118 4.748487,23.796508 4.884183,23.739397 4.900529,22.942854 4.490246,22.545409 4.27814,22.153428 4.58275,21.937208 4.924304,21.784198 4.925674,21.71742 5.060543,21.620248 5.041597,21.355216 4.960165,20.393084 4.82429,20.188494 4.874782,20.15291 4.937157,20.121239 4.936261,20.110652 4.949381,20.100649 4.888304,19.86404 5.436038,19.082578 5.121697,18.827936 4.964813,18.716362 5.222631,18.520105 5.710184,18.122128 5.257891,17.763298 4.857043,17.541037 4.916511,17.496423 5.084334,17.344187 4.772239,17.039942 4.80131,16.556072 4.704548,16.507733 4.624138,16.477249 4.80335,16.32655 4.803964,16.183621 4.811296,15.583006 4.647554,15.473563 4.523709,15.400204 4.829587,15.199341 4.835835,15.023343 4.854564,14.583455 4.70267,14.446949 4.596681,14.358697 4.905361,14.204795 4.931174,14.039785 5.002374,13.588192 4.887803,13.453103 4.808253,13.367764 5.028442,13.29089 5.087752,13.264802 5.132662,13.110747 5.281578,12.620028 5.194823,12.492492 5.130814,12.409931 5.361644,12.356188 5.363778,12.349156 5.397061,12.338901 5.466485,12.180327 5.697043,11.677142 5.616871,11.526298 5.555415,11.428494 5.82631,11.395019 5.828963,11.38923 5.865915,11.382906 5.981403,11.202368 6.267631,10.772572 6.194325,10.571147 6.135106,10.438513 6.495147,10.445191 6.525836,10.445277 6.720122,10.239113 6.994802,9.956779 6.981578,9.873892 6.992742,9.866006 6.957586,9.67885 6.910722,9.493558 7.386606,9.587801 7.663757,9.392036 7.916829,9.215861 7.907193,9.089152 7.945696,9.069071 7.943476,8.881928 7.925985,8.630997 8.402274,8.830953 8.791406,8.628009 9.076644,8.484115 9.074088,8.421416 9.122088,8.401616 9.142579,8.225628 9.162727,7.929316 9.607402,8.201425 10.171847,7.968592 10.365644,7.888459 10.368554,7.843917 10.393679,7.836545 10.421972,7.687138 10.474492,7.354275 10.90498,7.665451 10.917442,7.660298 10.93665,7.67723 11.661631,7.464511 11.66577,7.432216 11.676923,7.430026 11.716094,7.264467 11.809985,6.842626 12.110248,7.082161 12.328702,7.262154 12.420064,7.234197 12.441412,7.254245 13.015358,6.698519 13.025518,6.667103 13.068323,6.609524 13.122102,6.380808 13.193731,6.440835 13.283243,6.320431 14.24343,6.274842 14.27099,6.182736 14.303704,5.995998 14.618954,6.257012 14.746386,6.250962 14.798072,6.291518 15.246027,6.279167 15.300274,6.052406 15.332352,5.586985 15.473538,5.691745 15.530357,5.726887 15.652657,5.416751 16.202718,5.408764 16.211733,5.347911 16.203188,5.143089 16.654416,5.402204 16.959946,5.397768 16.930076,5.305709 17.105989,4.815025 17.110268,4.581802 17.180256,4.607867 17.253112,4.404645 17.592442,4.386281 17.725604,4.461886 17.831801,4.284132 18.137032,4.10929" slic3r:type="contour"/>
    <polygon style="fill: black" points="33.15624,9.198334 33.536472,9.52373 33.499957,9.253465 33.201514,9.125539" slic3r:type="hole"/>
    <polygon style="fill: white" points="26.462951,4.563053 26.444446,4.503671 26.53701,4.404644" slic3r:type="contour"/>
    <polygon style="fill: white" points="41.837411,30.276168 42.627232,31.333062 42.6293,31.441008 42.614548,31.504823 42.628336,31.515707 42.626129,31.535525 42.686767,31.575876 42.659988,31.598435 42.611242,31.669252 42.46678,32.966878 42.128212,33.811951 41.209059,32.946295 40.86434,32.747688 41.083706,32.064657 40.98546,31.964216 40.994233,31.890487 40.788612,31.778306 40.596692,31.600608 40.877276,31.037676 41.126906,30.775493 41.224328,29.956758" slic3r:type="contour"/>
    <polygon style="fill: white" points="42.298228,34.344708 42.264631,34.462488 42.227775,34.521916 42.08686,34.378608 42.137592,34.283347 42.187955,34.233216" slic3r:type="contour"/>
    <polygon style="fill: white" points="43.197279,35.593123 43.363508,35.734228 43.124821,35.925763 43.189776,36.0264 43.156797,36.063945 43.320924,36.201936 43.407492,36.33312 42.97766,37.3986 42.487832,38.07658 41.749504,37.212796 41.425891,36.971804 41.864945,36.265376 41.790224,36.167016 41.825729,36.06699 41.542256,35.845172 41.32218,35.562064 41.6313,35.0873 42.22862,34.542476" slic3r:type="contour"/>
    <polygon style="fill: white" points="43.311904,40.040504 43.464568,40.21426 43.193213,40.411268 43.246332,40.494527 43.225273,40.513162 43.370927,40.663919 43.441816,40.762152 42.851455,41.6106 42.351848,42.114739 41.638727,41.202991 41.418512,41.007152 41.861298,40.498381 41.836736,40.462643 41.879323,40.394549 41.629615,40.124843 41.466344,39.85952 41.879244,39.391799 42.483952,38.917272" slic3r:type="contour"/>
    <polygon style="fill: white" points="43.049936,44.407092 43.156152,44.54288 42.907767,44.704617 42.936024,44.744012 42.923285,44.753083 43.046127,44.898575 43.108104,44.976648 42.465096,45.685339 41.947484,46.17516 41.275991,45.281891 41.07784,45.062676 41.515772,44.621252 41.512895,44.617224 41.5361,44.590348 41.311964,44.307652 41.184192,44.102072 41.71172,43.6743 42.264208,43.308232" slic3r:type="contour"/>
    <polygon style="fill: white" points="42.528607,47.979567 42.705596,48.196439 42.196387,48.492586 42.20938,48.509615 42.159597,48.537512 42.395228,48.905788 42.555056,49.143624 42.097411,49.639984 41.618837,50.134157 41.836915,50.409519 42.244056,50.88124 41.805712,51.105771 41.112295,51.406692 40.658844,50.787212 40.305476,50.358196 40.547875,50.239804 41.043155,50.03715 40.949959,49.887375 40.508424,49.218552 41.26203,48.406238 40.923627,47.962563 40.745748,47.720124 41.2563,47.409747 41.845584,47.100044" slic3r:type="contour"/>
    <polygon style="fill: white" points="41.598952,52.652684 41.778632,52.877964 41.112156,53.107923 40.804326,53.207608 40.828372,53.29736 40.637924,53.350587 40.591456,53.291553 40.500883,53.52115 40.984708,54.458968 41.1126,54.668284 40.432787,54.753248 39.983445,54.832822 39.915672,55.004623 39.91452,55.007932 39.912104,55.008344 39.91188,55.007948 39.911304,55.006895 39.976135,54.834116 39.910456,54.845747 39.467204,54.047184 39.311676,53.7455 39.905448,53.636444 40.449117,53.573595 40.56573,53.262813 40.545416,53.238936 40.566426,53.204125 40.079396,52.49854 39.875136,52.21126 40.389203,52.030296 41.035848,51.854188" slic3r:type="contour"/>
    <polygon style="fill: white" points="39.059859,55.105036 39.73554,55.146344 40.000423,56.032003 40.112944,56.325248 39.503056,56.275504 38.896364,56.27454 38.622551,55.489303 38.505668,55.100924" slic3r:type="contour"/>
    <polygon style="fill: white" points="37.830144,56.409272 38.589927,56.599508 38.66264,57.392012 38.727976,57.819272 38.23912,57.6747 37.537012,57.532964 37.43894,56.822716 37.391332,56.316092" slic3r:type="contour"/>
    <polygon style="fill: white" points="36.197875,57.530727 37.007172,57.874976 36.957852,58.543856 36.9467,59.09872 36.577252,58.920304 35.809472,58.613916 35.83356,58.009243 35.879028,57.405796" slic3r:type="contour"/>
    <polygon style="fill: white" points="34.268556,58.495292 35.111476,58.971127 35.009192,59.513127 34.917084,60.179372 34.653344,60.013896 33.837416,59.56622 33.915359,59.074992 34.052168,58.381892" slic3r:type="contour"/>
    <polygon style="fill: white" points="32.158163,59.314311 32.98606,59.87529 33.49654,59.743 33.065634,59.984194 33.037624,60.094864 32.96571,60.130768 32.911981,60.329252 32.743144,61.092852 32.56876,60.963572 32.010918,60.593639 30.771599,61.184457 30.749634,61.252228 30.687251,61.279783 30.52542,61.858716 30.42652,61.776668 30.106333,61.536382 29.142233,61.962236 28.456694,62.24997 28.444418,62.281292 28.420945,62.289569 28.350142,62.494936 28.316571,62.463991 28.200747,62.367218 26.940626,62.811575 26.251565,62.841853 26.203082,62.944491 26.191936,62.969504 26.081149,62.849339 26.056218,62.850436 26.04088,62.835693 25.559971,62.847236 24.266142,62.861438 24.083336,63.184147 24.042632,63.256704 23.734322,62.867275 23.672328,62.867956 23.647104,62.839112 22.617008,62.841944 22.246794,62.840805 21.955922,63.271151 21.895064,63.35778 21.5472,62.83865 21.49677,62.838496 21.494822,62.835744 20.58446,62.832612 20.14731,62.834486 20.117824,62.8679 20.064243,62.866351 19.802384,63.192427 19.747496,63.2567 19.516963,62.850524 18.907249,62.832892 17.754486,62.830886 17.733918,62.850432 17.712747,62.848984 17.618227,62.949696 17.598192,62.969504 17.534769,62.836813 17.355864,62.82458 16.849496,62.811576 15.866664,62.451019 15.598949,62.363796 15.439987,62.494936 15.422227,62.449832 15.365223,62.287646 15.345708,62.281288 15.327675,62.236243 14.429692,61.822091 13.711732,61.527558 13.264701,61.858712 13.220549,61.727711 13.089541,61.272313 13.040484,61.252188 13.005702,61.14806 11.835231,60.600955 11.831394,60.603703 11.809234,60.590288 11.749367,60.63368 11.046981,61.092844 10.983601,60.865575 10.813309,60.123287 10.752502,60.094864 10.721938,59.978736 10.293759,59.743132 10.813923,59.870939 11.125947,59.673767 11.760908,59.234108 11.792466,59.370568 11.967889,60.000242 13.487715,60.256497 13.513773,60.237447 13.515931,60.237639 13.865005,59.962068 13.881022,60.017684 13.971444,60.278142 15.367644,60.402284 15.856812,60.619275 15.912875,60.572831 15.928865,60.558299 15.967751,60.669008 16.265387,60.770796 17.655019,61.271969 17.884105,61.050876 17.94793,60.984064 18.146014,61.438363 19.255,61.689256 19.503464,61.749577 19.840086,61.359951 19.932302,61.248524 20.28911,61.899684 21.43634,61.995438 21.797209,61.477604 21.895064,61.340616 22.353949,62.001637 23.484459,61.907927 23.780124,61.376387 23.857824,61.248524 24.304357,61.762178 25.178331,61.567676 25.626239,61.455265 25.797993,61.070676 25.8422,60.984064 26.151668,61.27937 26.649402,61.112483 27.815858,60.675143 27.817836,60.670499 27.81978,60.669684 27.852457,60.579252 27.861292,60.5583 27.937253,60.620425 28.046574,60.574583 28.422494,60.402276 29.403158,60.343836 29.805667,60.294781 29.92512,59.962036 29.976919,59.998039 30.33562,60.274226 30.801397,60.217048 31.797975,60.035269 32.029247,59.234084" slic3r:type="contour"/>
  </g></svg>