<svg width="43.790126" height="63.590156" xmlns="http://www.w3.org/2000/svg" xmlns:svg="http://www.w3.org/2000/svg" xmlns:xlink="http://www.w3.org/1999/xlink" xmlns:slic3r="http://slic3r.org/namespaces/slic3r"><g xmlns="http://www.w3.org/2000/svg" slic3r:z="1.6505e-005" id="layer49">
    <polygon style="fill: white" points="22.034233,1.376006 22.410714,1.90731 22.717238,1.584568 23.024996,1.262108 23.132346,1.472473 23.442894,2.075335 23.808263,1.785471 24.157982,1.516663 24.236768,1.745697 24.470696,2.419698 24.925479,2.147336 25.28608,1.947705 25.343279,2.221786 25.472073,2.858471 25.586254,2.902639 26.091393,2.674812 26.406146,2.553167 26.443716,2.927458 26.469205,3.249197 26.85402,3.417627 27.032258,3.485332 27.362843,3.381727 27.537988,3.339165 27.538068,3.687397 27.704808,3.770864 28.300501,4.019014 28.418036,4.262753 28.466469,4.342099 28.654562,4.318261 28.648686,4.417389 28.604876,4.750408 28.699332,5.085469 28.874424,5.518624 29.56944,5.476377 29.740426,5.481375 29.692112,5.745059 29.788196,5.781876 29.973726,5.81344 30.074538,6.482164 30.167047,6.778094 30.548979,6.785781 30.835394,6.816876 30.736422,7.196111 30.863156,7.186278 31.036306,7.142876 31.118412,7.900267 31.22249,8.324527 31.892655,8.406604 31.893063,8.406269 31.917307,8.40993 32.044282,8.329348 32.050347,8.384038 32.062191,8.427369 32.068357,8.428124 32.06927,8.432871 32.194222,8.451736 32.150403,8.514471 32.100577,8.595672 32.250714,9.376447 32.375016,9.93414 32.376976,9.934451 32.379433,9.944007 32.936416,10.022793 33.286318,9.666089 33.357921,9.957869 33.389671,10.096418 33.728964,10.139549 33.588944,10.283463 33.48052,10.403516 33.640128,10.936553 33.77983,11.468629 34.645039,11.558911 34.856648,11.578115 34.420691,12.021224 34.116406,12.369101 34.232519,12.699761 34.485873,12.714632 34.864895,11.942474 34.990188,11.757859 35.352539,12.59841 35.424329,12.799414 35.753672,12.806392 35.629308,12.940128 35.569986,13.019076 35.887372,13.498782 36.005103,13.726561 36.063426,13.801073 36.538652,13.788782 36.366984,13.978349 36.295862,14.098028 36.538175,14.4076 36.703401,14.678178 36.732616,14.679437 36.771461,14.734179 37.284056,14.728031 37.101315,14.92592 37.017217,15.080509 37.237744,15.391284 37.412131,15.698639 37.459712,15.704287 37.47431,15.733642 38.003136,15.771279 37.809119,15.97397 37.690978,16.169319 37.863787,16.516805 38.025398,16.920742 38.079839,16.932953 38.671336,17.05517 38.432824,17.291673 38.238321,17.544636 38.300363,17.792039 38.421358,18.425622 39.116695,18.655561 39.244088,18.697376 38.979277,18.939832 39.00801,19.005285 39.193988,18.98926 39.329583,18.990916 39.40194,20.09888 39.42419,20.445793 39.796744,20.606812 39.595648,20.759341 39.418682,20.909905 39.407712,21.355329 39.397746,21.868536 39.632128,21.86077 40.203516,22.029476 40.194956,22.478735 40.185281,22.699531 40.192548,22.703291 40.191024,22.728382 40.422008,22.873996 40.281347,22.952844 40.172244,23.037535 40.130111,23.7311 40.023011,24.551755 40.33068,24.583376 40.986115,25.09621 40.973276,25.355132 40.946954,25.493021 40.959296,25.502319 40.95664,25.529519 41.093584,25.638258 41.003127,25.686518 40.935554,25.745456 40.84446,26.678329 40.594002,27.557317 40.674164,27.623028 40.653414,27.754432 40.758663,27.850258 40.93818,27.928552 41.076568,28.139694 41.486212,28.512654 41.6173,28.617138 41.454074,28.715662 41.491128,28.772195 41.442655,28.81581 41.5842,28.911434 41.677208,29.07632 41.52452,30.312318 41.349151,30.831713 41.41698,30.895748 41.398987,31.031138 41.883544,31.382074 41.607152,31.551991 41.272318,31.84338 40.974424,32.729119 40.031519,31.398583 39.82908,31.173568 39.867298,31.132293 39.822776,31.10138 39.914964,30.755065 40.30546,29.221988 40.153696,29.039029 40.175498,28.945456 39.819528,28.68872 39.449464,28.298582 39.601587,28.116306 39.918493,27.869771 39.859407,27.831944 40.033322,27.627163 39.29124,27.402392 39.639485,26.066738 39.522284,25.945066 39.529446,25.90084 39.220399,25.709505 38.763436,25.339864 38.818472,25.280457 38.943601,25.174147 38.916371,25.168634 38.975554,25.109359 38.696436,25.07609 38.896332,23.695323 38.944976,23.351096 38.586179,23.187243 38.571729,23.179996 38.227407,23.184744 38.102036,23.170084 38.127401,22.958646 38.089656,22.942816 38.017432,22.911996 38.134512,22.811271 38.172123,21.711498 38.190537,21.197586 37.942216,21.103952 37.436039,20.904742 37.490523,20.8582 37.654338,20.711854 37.363512,20.663564 37.290932,19.270609 37.16428,19.230714 36.923648,19.145267 37.231088,18.853076 37.061124,18.02552 37.030475,17.864663 36.804424,17.829199 36.368336,17.742159 36.597228,17.469529 36.80245,17.216925 36.656177,16.857782 36.648296,16.85705 36.587193,16.749138 36.261167,16.744129 35.703375,16.706217 35.819143,16.521068 36.090271,16.099627 35.985856,16.07698 36.067913,15.89845 36.012744,15.895579 35.945893,15.786283 35.565607,15.80371 34.914744,15.789781 34.96514,15.69416 35.153809,15.380018 35.056188,15.386789 35.246694,14.866169 34.778855,14.8765 34.587344,14.868925 34.416216,14.970858 34.376744,15.225619 34.099357,14.849626 34.082571,14.848962 34.078976,14.842457 34.01248,14.842676 34.041124,14.77397 33.9995,14.69866 33.467998,13.79068 33.398785,13.785044 33.391311,13.764596 33.261387,13.756893 33.021313,13.742184 33.245666,13.366137 32.973172,12.62065 32.936572,12.52379 32.861674,12.515728 32.855497,12.493057 32.561877,12.458744 31.980936,12.397654 32.124286,12.217789 32.623356,11.64101 32.534318,11.314205 32.128712,11.663235 31.722898,12.065304 31.449161,10.978321 31.427422,10.975747 31.426386,10.971042 31.288505,10.950423 30.920252,10.900852 31.233674,10.487078 31.301225,10.40232 31.183609,9.867884 30.732864,9.98464 30.342628,10.096345 30.214851,9.381722 30.148,9.372316 29.922142,9.336022 30.13322,9.003291 29.918478,8.199485 29.29156,7.937825 29.243082,7.933377 29.215633,7.921382 29.056222,7.914734 29.07899,7.861668 28.974374,7.81595 28.59938,6.71756 28.481774,6.725871 28.199074,6.742216 28.31947,6.3498 28.392595,6.109197 27.696915,5.685113 27.689602,5.686409 27.660731,5.671617 27.276358,5.752047 27.301474,5.602714 27.317315,5.495669 26.453793,5.053246 26.372675,4.924123 26.325354,4.939252 26.331297,4.861035 26.196231,4.714294 25.681691,4.144634 25.52523,4.217098 25.37412,4.286099 25.353146,3.811332 24.933281,3.506909 24.664784,3.675781 24.464794,3.799039 24.37417,3.288301 24.35043,3.143577 24.10896,3.036097 23.786199,3.308303 23.591734,3.469299 23.430893,2.982402 23.3719,2.787902 23.212686,2.752037 22.902217,3.100591 22.740366,3.281379 22.507585,2.81516 22.43127,2.651669 22.280088,2.643066 22.02072,3.029961 21.895064,3.222412 21.599538,2.788324 21.508748,2.650271 21.34585,2.659521 21.150035,3.063488 21.04976,3.281382 20.710671,2.899534 20.589158,2.763615 20.404794,2.80527 20.270372,3.22767 20.198394,3.469305 19.814176,3.14174 19.694307,3.042003 19.432608,3.15917 19.363719,3.561179 19.325324,3.799039 18.86041,3.503358 18.469494,3.786668 18.438018,3.80956 18.424409,4.109395 18.416032,4.286088 18.10202,4.139602 17.902698,4.353839 17.45906,4.858026 17.462729,4.908677 17.464771,4.939276 17.416057,4.923631 17.392386,4.960022 17.336234,5.053357 16.692748,5.372743 16.47605,5.487499 16.51377,5.752057 16.339636,5.715711 16.12846,5.67157 16.100441,5.686408 16.083512,5.683405 15.942036,5.766843 15.396585,6.103149 15.495597,6.427202 15.591054,6.742214 15.19927,6.713325 15.084722,7.058373 14.81575,7.815956 14.758036,7.843046 14.710608,7.863354 14.733906,7.914734 14.686618,7.915042 14.584128,7.917514 14.547125,7.933359 14.505808,7.937101 14.0976,8.112132 13.884241,8.199223 13.774773,8.630953 13.659932,9.02438 13.732073,9.136754 13.867958,9.336056 13.582359,9.376606 13.542383,9.616837 13.447512,10.0963 13.054596,9.998504 12.619315,9.877365 12.529768,10.324374 12.499462,10.44254 12.633596,10.618649 12.869874,10.900835 12.362897,10.974992 12.362703,10.975746 12.348834,10.977544 12.270965,11.303202 12.067183,12.065344 11.874456,11.901644 11.256357,11.325431 11.165357,11.666949 11.431444,12.001452 11.8092,12.397627 10.933632,12.497464 10.928373,12.515734 10.870229,12.521917 10.699515,12.99923 10.532965,13.423904 10.622847,13.573666 10.768838,13.742153 10.399514,13.764179 10.391336,13.785031 10.336985,13.788644 10.233784,13.978826 9.743761,14.789148 9.777706,14.842646 9.712914,14.840156 9.707607,14.848933 9.696318,14.848971 9.672469,14.885372 9.413427,15.225597 8.996721,15.146746 8.781711,14.852035 8.53157,14.852872 8.733972,15.386769 8.632961,15.431016 8.875413,15.789751 8.672382,15.782084 7.864238,15.768398 7.777354,15.895573 7.720729,15.896518 7.804273,16.076993 7.712974,16.133394 7.785543,16.248995 8.086754,16.706237 7.714285,16.713497 7.219689,16.732442 7.133361,16.870686 6.994706,17.212182 7.138425,17.384393 7.421787,17.74216 6.850035,17.833099 6.748801,17.850878 6.60328,18.544865 6.551476,18.831452 6.677209,18.952045 6.866478,19.145268 6.490231,19.264335 6.461947,19.652826 6.42666,20.663448 6.321948,20.678257 6.141507,20.707786 6.35409,20.904748 6.23788,20.94867 5.593703,21.195755 5.613227,21.841795 5.654039,22.803391 5.708275,22.850864 5.772668,22.91205 5.662419,22.958339 5.671708,23.036693 5.688061,23.170133 5.260661,23.147231 4.863101,23.335094 4.965993,23.978795 5.093696,25.076052 5.011109,25.082591 4.809874,25.105461 4.8737,25.168635 4.816852,25.180075 5.026669,25.339922 4.825034,25.468425 4.257861,25.859769 4.267883,25.945066 4.180024,26.017311 4.339209,26.568483 4.498887,27.402414 4.262009,27.529814 3.792261,27.684201 3.930771,27.831954 3.812646,27.920728 3.893124,28.002557 4.340678,28.298546 3.942253,28.590724 3.609956,28.877922 3.636442,29.038974 3.522062,29.145097 3.734026,29.815334 3.967348,31.101351 3.928741,31.15553 3.961046,31.173538 3.946499,31.183856 3.893978,31.232224 3.426011,32.171266 2.815754,32.729396 2.63817,31.99374 2.294817,31.75864 1.906584,31.382022 2.145171,31.136256 2.388095,30.957789 2.37312,30.895754 2.525867,30.728563 2.112913,29.076304 2.409827,28.884267 2.298992,28.772122 2.325053,28.745515 2.227714,28.676274 2.172827,28.61708 2.719446,28.040695 3.139354,27.715536 3.115971,27.623066 3.218299,27.528739 2.894281,25.834158 2.696545,25.638258 2.782215,25.554424 2.833306,25.515262 2.830831,25.50232 2.855833,25.481619 2.804012,25.096192 2.950009,25.107714 3.796396,24.653444 3.6375,23.094799 3.368093,22.87404 3.51561,22.770439 3.599171,22.718825 3.597589,22.703308 3.608222,22.697669 3.586624,22.029403 3.875608,22.066526 4.392011,21.966483 4.370246,20.931229 3.993393,20.60675 4.227611,20.504898 4.366281,20.445017 4.460556,18.990786 4.780143,19.025728 4.810581,18.961594 4.610773,18.76498 4.54601,18.697379 5.01903,18.538754 5.404392,18.412329 5.565702,17.617719 5.398581,17.423153 5.118777,17.05521 5.475735,16.964076 5.829803,16.891783 5.888014,16.772129 6.091618,16.280677 5.786978,15.771263 6.11512,15.711913 6.363753,15.696194 6.459374,15.672991 6.559316,15.530954 6.75689,15.193246 6.506087,14.728033 6.836135,14.683667 7.051618,14.689476 7.057495,14.67943 7.17186,14.659077 7.285172,14.51209 7.489101,14.189907 7.251476,13.788799 7.562321,13.752562 7.760145,13.761689 7.771143,13.744313 7.830579,13.735554 8.057881,13.37625 8.228062,13.060973 8.036467,12.806392 8.247942,12.780114 8.37975,12.779954 8.385909,12.768542 8.391749,12.767682 8.800099,11.757626 8.962566,12.341202 9.194208,12.676812 9.578063,12.679146 9.683957,12.393769 8.982287,11.633924 8.933464,11.578118 9.634698,11.471301 10.033987,11.441744 10.313516,10.419298 10.061154,10.139538 10.286381,10.102136 10.404248,10.088767 10.503788,9.666089 10.6497,9.842543 10.822181,10.018807 10.945873,9.99881 11.401291,9.938963 11.685134,8.600837 11.595905,8.451736 11.677287,8.437115 11.721168,8.430956 11.721768,8.428126 11.722962,8.428054 11.745846,8.329348 11.787738,8.35939 11.867147,8.410469 11.897061,8.40627 11.909562,8.416855 12.163935,8.401587 12.515369,8.349594 12.753829,7.142865 13.087069,7.166947 13.015667,6.946708 12.954727,6.816889 13.251148,6.856903 13.556526,6.828355 13.816361,5.813468 14.113545,5.713034 14.086392,5.590292 14.049711,5.481349 14.404318,5.533359 14.64182,5.534502 14.688657,5.518673 14.701184,5.519576 14.894367,5.454667 15.182161,4.668522 15.171766,4.590978 15.181957,4.57264 15.135542,4.318313 15.203673,4.337281 15.303796,4.353413 15.489627,4.01904 16.263648,3.663817 16.261576,3.493857 16.252139,3.339167 16.661768,3.481107 16.69169,3.467376 16.723494,3.477027 17.330959,3.217319 17.364342,2.858687 17.383966,2.553179 17.673751,2.691168 18.14591,2.887825 18.154656,2.8843 18.186426,2.898389 18.321691,2.846526 18.428014,2.331766 18.504034,1.947699 18.721375,2.080995 19.317528,2.42379 19.489709,1.924616 19.632146,1.516662 19.812983,1.661324 20.345498,2.076937 20.560841,1.656176 20.765132,1.262128 20.925441,1.431122 21.37947,1.907975 21.639605,1.54182 21.895064,1.180343" slic3r:type="contour"/>
    <polygon style="fill: white" points="41.096452,32.96576 41.078406,33.133042 41.6775,33.682099 42.01002,33.914604 41.537224,34.183171 41.215389,34.445808 41.272236,34.729172 41.0585,34.894088 40.99528,34.848248 40.915508,34.775516 40.946008,34.558746 40.331876,34.096864 39.971831,33.704287 40.223511,33.46941 40.845772,33.094449 40.802452,33.00452 40.921708,32.884603 40.978143,32.84906" slic3r:type="contour"/>
    <polygon style="fill: white" points="41.083315,35.451916 41.80964,36.141552 42.034844,36.296432 41.471239,36.581888 41.325365,36.691507 41.3481,36.976984 41.057448,37.186783 41.072741,37.776186 41.738536,38.445692 41.964604,38.609272 41.39514,38.855272 41.103733,39.053343 41.081156,39.398996 40.930599,39.500004 40.900768,39.47618 40.84932,39.427496 40.863862,39.147557 40.237859,38.627051 39.940971,38.260044 40.344215,37.966976 40.938492,37.710872 40.967605,37.150425 40.845556,37.039588 40.867093,36.811994 40.297,36.364584 40.005388,36.031652 40.38638,35.718052 41.000234,35.405081 41.021312,35.182348" slic3r:type="contour"/>
    <polygon style="fill: white" points="41.495232,40.693888 41.789076,40.92682 41.273347,41.108796 40.697712,41.454032 40.118996,40.936296 39.773544,40.464684 40.116655,40.245608 40.844572,39.984252" slic3r:type="contour"/>
    <polygon style="fill: white" points="40.700552,42.128399 40.696308,42.163408 40.64505,42.388517 41.088324,42.929456 41.489616,43.295956 41.065867,43.402932 40.359748,43.76594 39.901296,43.319404 39.488336,42.680583 39.708951,42.55972 40.633336,42.296143 40.660296,42.12918 40.684696,42.115516 40.690704,42.114292" slic3r:type="contour"/>
    <polygon style="fill: white" points="40.47168,44.674476 40.413689,44.928507 40.572292,45.154332 41.04748,45.673348 40.701412,45.720623 40.091635,45.977909 39.830129,46.751825 40.00062,47.0682 39.92066,47.294918 39.991811,47.417623 40.454844,48.031268 40.123632,48.04668 39.536682,48.231945 39.180708,49.010246 39.303276,49.286772 39.21061,49.470855 39.288367,49.641011 39.677756,50.301616 39.326428,50.281364 38.692179,50.397512 38.29642,51.055937 38.381952,51.309232 38.294531,51.430768 38.38944,51.716832 38.676576,52.391216 38.307451,52.31924 37.58563,52.338957 37.155231,52.868209 37.205704,53.100031 37.141433,53.161353 37.231812,53.611148 37.400664,54.262908 37.008971,54.134275 36.184953,54.013225 35.682531,54.451682 35.730372,54.471016 35.74252,54.596632 35.69889,54.626905 35.747768,55.28946 35.812784,55.876888 35.389108,55.683812 34.60798,55.427772 34.538352,54.848864 34.485012,54.011612 34.536848,54.030536 35.059823,54.236679 35.062643,54.227239 35.447307,54.365994 35.821916,52.646984 35.817628,52.610892 35.850748,52.579355 35.850184,52.57634 35.853022,52.576853 36.962181,50.970659 36.960319,50.964179 36.963052,50.959389 36.951616,50.934888 36.9459,50.914872 36.988609,50.914604 37.02916,50.843535 37.836677,49.078399 37.827436,49.052859 37.844928,49.049806 37.857236,49.020351 37.976651,48.621028 38.534784,48.510112 38.665863,47.313885 38.527332,47.01824 38.556472,47.008152 38.701337,46.990148 38.70382,46.967492 39.383359,46.748519 39.514396,45.664802 39.072456,44.872468 39.171296,44.827 39.627483,44.72954 39.636716,44.65318 40.173888,44.411844 40.297648,44.393712" slic3r:type="contour"/>
    <polygon style="fill: white" points="33.00882,55.29594 34.0409,55.84626 34.005644,56.717615 33.998071,57.226504 33.549694,56.964852 32.849512,56.62066 32.858614,55.994288 32.894014,55.236252" slic3r:type="contour"/>
    <polygon style="fill: white" points="31.307668,56.355176 32.219864,56.969864 32.086168,57.883487 32.031328,58.323784 31.573656,57.994864 30.950734,57.5921 31.036105,56.935 31.14173,56.245348" slic3r:type="contour"/>
    <polygon style="fill: white" points="29.493313,57.190343 30.305718,57.860608 30.078464,58.781371 29.989654,59.179496 29.544564,58.793836 28.981774,58.34298 29.134961,57.681672 29.301918,57.037427" slic3r:type="contour"/>
    <polygon style="fill: white" points="27.634896,57.785084 28.381834,58.524948 28.078629,59.40718 27.951174,59.802248 27.545611,59.380219 27.018974,58.873572 27.22441,58.242783 27.454402,57.613068" slic3r:type="contour"/>
    <polygon style="fill: white" points="25.756237,58.166647 26.454487,58.985908 26.093949,59.807892 25.920388,60.216844 25.56217,59.775348 25.066136,59.2069 25.313592,58.621059 25.605174,57.995284" slic3r:type="contour"/>
    <polygon style="fill: white" points="23.872834,58.368032 24.526492,59.26368 24.123626,60.024619 23.901346,60.446336 23.586813,59.994019 23.124482,59.367348 23.40691,58.826508 23.753202,58.206708" slic3r:type="contour"/>
    <polygon style="fill: white" points="2.987699,33.00451 2.954641,33.128873 3.387246,33.48664 3.818293,33.704312 3.473451,33.954692 2.857136,34.533635 2.874685,34.775492 2.731715,34.894056 2.660824,34.843996 2.517964,34.729148 2.596145,34.496154 2.023526,34.133416 1.780098,33.9146 2.189104,33.48722 2.723521,33.10165 2.693719,32.96576 2.762754,32.886528 2.812042,32.849064" slic3r:type="contour"/>
    <polygon style="fill: white" points="2.794339,35.41332 3.440398,35.890492 3.784754,36.031608 3.334381,36.371156 2.935671,36.768357 2.944597,37.039696 2.826402,37.139747 2.859074,37.726762 3.493443,38.143376 3.849153,38.260108 3.428535,38.593876 2.936882,39.12469 2.942094,39.218328 2.940878,39.427539 2.859617,39.500032 2.82248,39.477212 2.70908,39.399044 2.713841,39.102328 2.033504,38.762852 1.825511,38.609332 2.288902,38.080587 2.735682,37.741097 2.74443,37.195824 2.664701,37.143395 2.44216,36.977068 2.482086,36.757874 1.942554,36.450028 1.75528,36.296371 2.232736,35.779487 2.724886,35.424887 2.768865,35.183432 2.768866,35.183432" slic3r:type="contour"/>
    <polygon style="fill: white" points="3.585071,40.354968 4.016594,40.4647 3.696179,40.737135 3.092459,41.454095 2.295904,41.118119 2.001053,40.926792 2.398084,40.437536 2.945553,39.984252" slic3r:type="contour"/>
    <polygon style="fill: white" points="3.129829,42.129204 3.191629,42.272344 3.194367,42.30385 3.744525,42.57736 4.301784,42.680584 4.11455,42.853452 3.430376,43.76594 2.73714,43.539439 2.300507,43.295976 2.602065,42.882512 3.143706,42.372218 3.089575,42.128428 3.095511,42.118324 3.099421,42.11432" slic3r:type="contour"/>
    <polygon style="fill: white" points="4.153291,44.65312 4.2194,44.812296 4.717663,44.872484 4.639557,44.95268 4.417807,45.290013 4.933695,46.532156 4.887531,46.911891 5.08629,46.967464 5.106232,47.01281 5.262793,47.018212 5.241699,47.044815 5.173854,47.166576 5.813474,48.621019 5.949061,49.054305 5.962691,49.05286 5.951884,49.070494 5.967955,49.097675 6.810031,50.921382 6.844228,50.914904 6.823673,50.958787 6.868028,51.013699 7.937835,52.57697 7.939943,52.57634 7.939186,52.57877 7.972507,52.610899 8.561628,53.685596 8.476138,54.319037 8.727145,54.227392 8.735956,54.244139 9.305125,54.011616 9.297363,54.075227 9.182164,55.427744 8.478266,55.715895 7.97734,55.876896 8.004735,55.362267 8.086639,54.622134 8.047487,54.596588 8.052882,54.52034 8.05961,54.471116 8.112176,54.451924 7.616019,54.012877 6.956302,54.185944 6.389443,54.262892 6.468361,53.793555 6.636431,53.146045 6.584371,53.099976 6.614762,52.929167 6.637235,52.849237 6.243817,52.356292 5.710485,52.418772 5.113544,52.391236 5.235204,51.95886 5.475813,51.394001 5.408194,51.309276 5.47457,51.071347 5.498668,51.016318 5.160232,50.43781 4.716637,50.428631 4.112367,50.301628 4.266978,49.907428 4.559038,49.410153 4.486853,49.286764 4.587577,49.013763 4.620694,48.956786 4.328785,48.2935 3.939845,48.243344 3.335298,48.031308 3.515888,47.67366 3.855674,47.218485 3.789525,47.068176 3.911936,46.797415 3.975891,46.708211 3.757685,46.033107 3.304428,45.933256 2.742681,45.673376 2.964052,45.318023 3.377716,44.857528 3.318513,44.67436 3.420417,44.479324 3.492496,44.393655" slic3r:type="contour"/>
    <polygon style="fill: white" points="10.898044,55.382728 10.940657,56.620539 10.213746,57.021003 9.792064,57.226507 9.761762,56.669675 9.749214,55.84624 10.245874,55.58726 10.896095,55.236256" slic3r:type="contour"/>
    <polygon style="fill: white" points="12.676241,56.461588 12.839411,57.592116 12.111016,58.09718 11.758788,58.323792 11.666239,57.736479 11.570306,56.969888 12.081271,56.631024 12.648399,56.245348" slic3r:type="contour"/>
    <polygon style="fill: white" points="14.546066,57.288884 14.808318,58.343015 14.107895,58.9341 13.800473,59.179492 13.646181,58.582819 13.484407,57.860608 13.990836,57.454579 14.488206,57.037415" slic3r:type="contour"/>
    <polygon style="fill: white" points="16.413487,57.85378 16.771153,58.873572 16.133347,59.519923 15.83896,59.80226 15.635764,59.228092 15.408243,58.525028 15.879953,58.073651 16.335724,57.613072" slic3r:type="contour"/>
    <polygon style="fill: white" points="18.272659,58.204483 18.72402,59.206904 18.160913,59.88398 17.869718,60.216848 17.631235,59.681291 17.33564,58.985844 17.75599,58.507443 18.18496,57.995284" slic3r:type="contour"/>
    <polygon style="fill: white" points="20.128384,58.382852 20.665644,59.367384 20.172616,60.062367 19.888784,60.446356 19.626048,59.951048 19.263614,59.263563 19.629266,58.769723 20.0369,58.206732" slic3r:type="contour"/>
    <polygon style="fill: white" points="21.992722,58.4261 22.598142,59.379424 22.158678,60.095711 21.895076,60.514827 21.612753,60.049191 21.191989,59.379552 21.5094,58.871659 21.895064,58.269555" slic3r:type="contour"/>
  </g></svg>