<svg width="43.790126" height="63.590156" xmlns="http://www.w3.org/2000/svg" xmlns:svg="http://www.w3.org/2000/svg" xmlns:xlink="http://www.w3.org/1999/xlink" xmlns:slic3r="http://slic3r.org/namespaces/slic3r"><g xmlns="http://www.w3.org/2000/svg" slic3r:z="3.39949999999999e-005" id="layer102">
    <polygon style="fill: white" points="24.150402,61.083568 24.68746,61.702992 24.432656,62.185651 24.104428,62.830223 23.90459,62.585028 23.288936,61.868064 23.573555,61.32682 23.883704,60.779552" slic3r:type="contour"/>
    <polygon style="fill: white" points="26.260032,60.753024 26.78774,61.26628 26.540497,61.845728 26.30791,62.444752 26.037343,62.164303 25.41234,61.565052 25.67336,60.929183 25.906346,60.42674" slic3r:type="contour"/>
    <polygon style="fill: white" points="28.452482,60.250704 28.922186,60.650032 28.671444,61.359435 28.519274,61.861647 28.145845,61.522471 27.572288,61.049016 27.824674,60.279071 27.979294,59.882308" slic3r:type="contour"/>
    <polygon style="fill: white" points="30.741503,59.605599 31.109586,59.888212 30.846732,60.757964 30.757184,61.122264 30.251118,60.705684 29.78158,60.357728 30.037378,59.416283 30.117844,59.178547" slic3r:type="contour"/>
    <polygon style="fill: white" points="34.617939,57.411939 35.330827,57.836585 35.918516,57.689179 35.402412,58.859416 35.372192,59.026511 35.351673,59.058479 35.332904,59.231512 35.320956,59.224388 35.264817,59.193796 35.198416,59.297247 33.214395,59.603584 33.097856,60.063487 33.06044,60.254496 32.386355,59.757867 32.353959,59.736437 32.176348,59.76386 32.082781,59.702103 31.600677,59.759456 32.088522,59.141839 32.152539,59.037602 32.19101,58.885924 32.210269,58.856546 32.313708,58.383444 32.322798,58.351476 32.479175,58.446367 32.553975,58.332268 32.60847,58.223756 33.673839,58.101772 34.332795,57.984328 34.446924,57.32542" slic3r:type="contour"/>
    <polygon style="fill: white" points="36.757315,56.294127 37.478112,56.612204 37.453692,57.192383 37.448368,57.931824 37.211919,57.830075 36.307415,57.467444 36.31358,56.869235 36.356492,56.147288" slic3r:type="contour"/>
    <polygon style="fill: white" points="38.596068,54.9521 39.13398,55.078879 39.224839,55.894307 39.292884,56.391088 38.807303,56.28116 38.10726,56.132411 37.9739,55.241731 37.930183,54.830088" slic3r:type="contour"/>
    <polygon style="fill: white" points="41.410479,51.675091 41.768356,52.4666 41.636196,52.505491 41.197366,52.618866 41.226004,52.677424 41.192477,52.684946 41.395132,53.292295 40.511201,53.894131 40.6551,54.37844 40.720864,54.590331 39.965971,54.590012 39.510692,54.590884 39.118508,53.410368 39.099848,53.348784 39.319688,53.343056 39.27476,53.198696 39.238588,53.081004 39.80456,52.710435 40.355502,52.310684 39.960967,51.477344 40.282424,51.385779 41.168083,51.14028" slic3r:type="contour"/>
    <polygon style="fill: white" points="42.755964,45.958203 43.065348,46.527832 42.756035,46.79656 42.095471,47.301325 42.180128,47.40268 42.085784,47.469326 42.374675,47.843743 42.785028,48.373652 42.124043,48.887012 41.992859,48.997799 42.342715,49.567367 42.509988,49.86318 41.9614,50.149831 41.34888,50.452552 40.767339,49.451975 40.608252,49.186044 41.233069,48.899519 40.930944,48.526796 40.77294,48.288836 41.199579,47.903016 41.835892,47.370239 41.822967,47.350268 41.873601,47.306997 41.564731,46.746387 41.117727,46.007624 41.653439,45.639656 42.232408,45.160108" slic3r:type="contour"/>
    <polygon style="fill: white" points="43.3526,39.542168 43.631816,39.762896 42.976847,40.256752 42.943275,40.289476 43.008076,40.472916 42.936681,40.540819 43.301108,41.148092 43.532252,41.668108 43.158732,42.194916 42.469541,42.926154 42.632188,43.102668 42.55131,43.188464 42.844863,43.508771 43.346488,44.006384 42.903395,44.332828 42.246184,44.910432 41.633795,44.347095 41.343656,43.979892 41.689119,43.647392 42.354706,43.108696 42.335544,43.075848 42.449279,42.967401 41.932095,41.877091 41.563016,41.213568 42.260021,40.493059 42.191292,40.415752 42.233634,40.344575 41.790303,40.009219 41.63524,39.834292 42.144272,39.280691 42.655624,38.86064" slic3r:type="contour"/>
    <polygon style="fill: white" points="42.63686,31.415271 43.172475,31.794283 43.381192,31.897318 42.947539,32.290359 43.0136,32.485806 42.926954,32.591372 43.243796,33.170432 43.56586,34.086683 43.405904,34.723064 43.155105,35.209338 43.29076,35.324568 43.248334,35.426531 43.656416,35.684372 43.512448,35.800824 42.675604,36.704056 42.208472,36.415456 41.661792,35.880276 41.809188,35.700432 42.152108,35.399972 42.128884,35.350092 42.285901,35.145985 41.533252,33.608016 41.943181,32.663106 41.827416,32.569894 41.839823,32.494311 41.530468,32.345094 41.419396,32.252364 41.886344,31.551651 42.015699,31.422901 42.169016,30.488916" slic3r:type="contour"/>
    <polygon style="fill: white" points="42.14826,29.812492 42.154136,29.829231 42.14802,29.838022 42.145024,29.837006 42.136368,29.831734 42.1338,29.782494" slic3r:type="contour"/>
    <polygon style="fill: white" points="42.383091,28.379686 42.8218,28.527312 42.438447,28.931424 42.031732,29.55838 41.220808,29.288702 40.901128,29.082468 41.194856,28.557286 41.679212,27.995324" slic3r:type="contour"/>
    <polygon style="fill: white" points="41.497184,25.611968 42.0224,25.710026 41.755379,26.036464 41.33372,26.810536 40.582364,26.657362 40.160728,26.456956 40.373256,26.003853 40.8499,25.356452" slic3r:type="contour"/>
    <polygon style="fill: white" points="40.647044,23.36136 41.143224,23.40988 40.903775,23.725956 40.515912,24.51067 39.745672,24.413188 39.328232,24.265026 39.525036,23.808722 39.955544,23.156809" slic3r:type="contour"/>
    <polygon style="fill: white" points="22.851937,5.244322 22.9007,5.355966 23.111724,5.089683 23.383962,4.790288 23.610446,5.5205 23.723494,5.535122 23.871517,5.545465 23.909003,5.527271 24.12113,5.362726 24.275648,5.290581 24.314754,5.569375 24.538694,5.592038 24.372233,5.925451 24.450336,6.338596 24.794001,6.277037 25.328582,6.309705 25.313947,6.842172 25.65077,6.92201 25.473068,7.424487 25.954076,7.32452 25.93123,7.587662 26.004787,7.806463 26.074926,7.804483 26.081241,7.851893 26.836066,7.85806 26.836188,8.317792 26.962649,8.2227 27.167176,8.080303 27.255698,8.410363 27.307297,8.556012 27.31411,8.555877 27.332402,8.610906 28.137527,8.693738 28.352521,8.714436 28.405846,8.670235 28.422111,8.726627 28.753596,8.802847 28.838132,9.148536 29.015965,9.573137 29.138661,9.601227 29.535217,9.252048 29.672956,9.143882 29.793655,9.506497 29.876951,9.792655 29.898692,9.856255 30.387504,10.026614 30.832714,9.642481 30.931442,9.570269 31.07542,9.968938 31.203333,9.898793 31.26628,9.684259 31.791576,10.000622 31.89224,10.046478 32.035896,9.919886 32.088465,10.060296 32.11035,10.148165 32.166771,10.278736 32.317345,10.415321 32.585967,10.559309 32.753696,10.364698 32.7763,10.30763 32.81985,10.262066 32.832304,10.056195 32.901593,10.116544 32.940404,10.135936 32.99241,10.081526 33.017785,10.146859 33.023732,10.164594 33.108506,10.32691 33.232394,10.467858 33.542503,10.611259 33.573331,10.545562 33.64109,10.482575 33.745628,10.025337 33.840768,10.128673 33.954085,10.191623 34.109983,10.046702 34.216748,10.263225 34.273503,10.369066 34.3922,10.435005 34.585375,10.203911 34.726848,9.979202 34.935655,10.255201 35.210243,10.501246 35.744424,10.107611 35.785763,10.1894 35.861366,10.310849 36.123972,10.262193 36.269304,10.605517 36.532315,10.528987 36.671668,10.502839 36.681299,11.137123 37.068244,11.158002 37.38196,11.219643 37.180732,11.760909 37.142464,11.852018 37.373099,11.931504 37.752571,12.109724 37.432235,12.531172 37.310817,12.665573 37.514456,12.766825 37.919852,13.002886 37.5732,13.349577 37.331958,13.552566 37.578368,13.682849 38.036428,13.937446 37.742372,14.220088 37.323742,14.571959 37.60694,14.709952 38.182952,14.960592 38.012316,15.136007 37.769143,15.37481 38.200119,15.809669 38.398544,16.023091 38.377728,16.088882 38.41022,16.100007 38.360288,16.144003 38.348948,16.179844 38.330751,16.20143 38.039697,17.101187 38.39214,17.252084 38.676004,17.327388 38.307768,17.669041 37.906145,18.200911 37.980315,18.225633 38.204222,18.423589 38.464195,18.515399 39.062044,18.634248 38.941376,18.756316 38.809669,18.958862 39.377648,19.461012 39.342839,19.977402 39.457387,20.006896 39.60306,20.024586 39.316905,20.362136 39.3005,20.605501 39.295584,20.614135 39.445334,21.40939 39.932444,21.529269 40.31726,21.559184 40.050524,21.907962 39.709528,22.61302 38.845219,22.529377 38.517872,22.435858 38.75076,21.919593 38.936993,21.614121 38.521172,21.053303 38.194036,20.948136 38.123358,20.87642 37.874055,20.844006 37.773008,20.815614 37.87313,20.622513 37.794424,20.54265 37.617776,20.426564 37.727496,19.813351 37.727711,19.49595 37.177924,19.276302 37.307059,19.069464 37.72835,18.548074 37.72852,18.298539 37.774465,18.221228 37.077775,17.993085 36.750312,17.828876 37.128796,17.285295 37.204239,17.206022 36.995255,17.001311 36.495124,16.654427 36.552228,16.540628 36.452296,16.486735 36.480224,16.44718 36.602155,16.323968 36.609428,16.29707 36.770287,16.093822 36.824412,15.983854 36.928485,15.658707 36.762307,15.5757 36.199216,15.247736 36.430335,14.964538 36.829879,14.598156 36.383639,14.335544 36.031708,14.129239 36.398519,13.761963 36.591045,13.591269 36.162859,13.340712 35.911772,13.20809 36.362253,12.791171 36.011892,12.643042 35.79316,12.55947 36.038213,12.2804 35.893844,12.270091 35.675896,12.245082 35.742478,12.083124 35.532036,12.129378 35.524346,11.934481 35.43662,11.996437 35.373992,12.027889 35.335319,12.061445 35.31947,12.071005 35.310252,12.068397 35.311801,12.036192 35.292853,11.989883 35.174797,11.747942 34.962476,12.032266 34.683975,11.73547 34.577616,12.075723 34.218435,11.832989 34.147887,11.923059 34.148772,12.071234 34.132496,12.251965 33.949443,12.16728 33.836196,12.374874 33.676849,12.041172 33.464282,11.942834 33.277586,12.421323 32.787356,12.131479 32.754699,12.162115 32.542106,12.387143 32.445666,11.955349 32.434335,11.922758 32.166702,11.764524 32.137955,11.688337 31.54494,12.068642 31.461416,12.109897 31.428939,12.08749 31.418936,12.095261 31.416263,12.076812 31.388051,12.062816 30.473273,11.54113 30.427748,11.576108 30.307606,11.671915 30.261289,11.420237 30.227907,11.401201 29.93519,11.304228 29.32984,11.067424 29.253183,11.130996 29.101876,11.260498 29.026896,10.950286 28.739481,10.890385 28.041506,10.707616 27.984885,10.755036 27.883484,10.841233 27.835756,10.659447 27.726327,10.650217 27.229763,10.583622 27.141686,10.334298 27.070112,10.127229 26.972076,10.205164 26.972507,10.179608 26.719204,10.357465 26.594638,9.94197 26.547701,9.799668 26.339817,9.808921 25.82467,9.817022 25.847844,9.559075 25.890264,9.276211 25.597204,9.291906 25.15557,9.318887 25.096099,9.1193 25.046163,9.122037 24.966346,9.108449 25.005114,8.939062 24.77372,8.26905 24.514244,8.368032 24.273094,8.29839 24.329816,8.021608 24.164294,8.064693 24.232288,7.483946 24.217222,7.19513 24.124027,7.077542 23.787634,7.361187 23.472826,7.592712 23.360192,6.948066 22.989204,7.425461 22.785847,6.85065 22.489636,7.374741 22.270502,6.922561 22.209281,6.796509 21.895064,7.389929 21.671253,6.948841 21.585589,6.787604 21.300484,7.374725 21.073918,6.93848 21.007484,6.821666 20.800954,7.425458 20.445035,6.905551 20.31725,7.592731 19.887256,7.203221 19.634044,7.014442 19.644276,7.35709 19.625784,8.064745 19.375873,7.972479 19.432412,8.171009 19.517016,8.298404 19.297473,7.9954 19.220165,8.013876 19.165958,8.471445 18.785269,9.018611 18.793376,9.046877 18.823754,9.108499 18.731351,9.100833 18.719986,9.150211 18.634605,9.318833 18.267574,9.304329 17.87566,9.280041 17.965322,9.8171 17.282335,9.79207 17.238684,9.942995 17.07089,10.357486 16.953718,10.26901 16.817759,10.171314 16.818078,10.205231 16.7193,10.124518 16.560442,10.583582 15.966383,10.650332 15.948621,10.716605 15.906639,10.841224 15.737051,10.699697 15.427532,10.76646 14.809417,10.921989 14.806232,10.932141 14.78278,10.939919 14.751705,11.063764 14.688292,11.260487 14.438176,11.054212 14.08804,11.170339 13.588744,11.369443 13.58295,11.389366 13.549926,11.405268 13.528585,11.512221 13.482568,11.671889 13.294578,11.528226 13.114376,11.614997 12.380661,12.070536 12.379291,12.075018 12.37647,12.076693 12.37122,12.09526 12.358534,12.08617 12.328742,12.109895 12.164265,11.94699 11.69906,11.613702 11.62353,11.76449 11.441281,11.865184 11.39512,12.046779 11.248059,12.387133 10.970485,12.125302 10.891237,12.169086 10.512571,12.421305 10.456315,12.067037 10.401947,11.907019 10.284956,11.960325 10.168507,12.154177 9.95388,12.374848 9.808697,12.176567 9.657605,12.251939 9.665201,11.980588 9.550482,11.823914 9.212497,12.075723 9.139623,11.634272 8.827663,12.032252 8.752463,11.880308 8.700215,11.80733 8.568968,11.972506 8.472937,12.075778 8.44946,12.051105 8.430301,12.040194 8.241403,11.988034 8.258092,12.129373 8.007513,12.015834 8.11423,12.245082 7.746996,12.26163 7.869122,12.403268 7.99697,12.559468 7.447223,12.803828 7.702702,13.041638 7.878359,13.208066 7.40575,13.498468 7.194997,13.61216 7.515249,13.92224 7.758437,14.129224 7.367248,14.359888 6.935234,14.613301 7.236114,14.958765 7.59091,15.247767 7.334542,15.365161 6.892094,15.616391 7.119459,16.224431 7.180665,16.297009 7.203491,16.368382 7.337836,16.486729 7.304647,16.496998 7.253129,16.523599 7.294989,16.654488 6.96294,16.959431 6.578155,17.288405 6.843917,17.646449 7.039813,17.828876 6.56171,17.949104 6.007285,18.211591 6.061558,18.298574 6.078427,18.622374 6.203083,18.810077 6.612205,19.276316 6.419787,19.310093 6.120055,19.421435 6.172413,20.426452 5.921655,20.653414 5.968107,20.738637 6.017113,20.815666 5.722402,20.833758 5.595959,20.948202 5.477693,20.982782 4.86886,21.709142 5.094862,22.162191 5.272253,22.435834 4.772099,22.448636 4.080709,22.612874 3.645447,21.971801 3.472883,21.559158 3.964667,21.418611 4.41646,21.360804 4.56288,20.746911 4.489662,20.60549 4.491235,20.50581 4.266905,20.194167 4.187092,20.024522 4.500251,19.934574 4.503301,19.741354 4.412513,19.46093 4.76707,19.298856 4.991611,19.06772 4.728079,18.634254 4.940752,18.553796 5.666314,18.373198 5.809671,18.225629 5.874825,18.202171 5.354494,17.661172 5.114121,17.327372 5.727046,17.051512 5.79405,17.030143 5.704603,16.652762 5.511161,16.264566 5.441329,16.179927 5.434375,16.154374 5.393109,16.115223 5.37993,16.099902 5.417207,16.080286 5.391634,16.022813 5.814918,15.701134 6.067365,15.407774 5.607201,14.960539 5.875495,14.828974 6.473851,14.558101 6.174198,14.278001 5.7537,13.937474 6.169625,13.718278 6.490876,13.542572 6.230262,13.290564 5.870277,13.002866 6.36104,12.761983 6.526505,12.670174 6.319367,12.407674 6.03754,12.109724 6.595865,11.923673 6.678867,11.887944 6.537114,11.519502 6.408168,11.219643 7.055691,11.196825 7.114592,11.18779 7.119376,10.657635 7.118437,10.502864 7.456871,10.607203 7.666194,10.262192 7.909782,10.325808 8.045712,10.107621 8.160696,10.187969 8.541141,10.462973 8.617677,10.382195 9.063246,9.979202 9.441782,10.410107 9.49811,10.37415 9.680203,10.04671 9.80167,10.180368 10.044527,10.025336 10.189599,10.22815 10.281778,10.47078 10.751569,10.196075 10.757276,10.182155 10.766819,10.176163 10.797763,10.081526 10.835033,10.133331 10.957893,10.056191 11.044767,10.174391 11.117504,10.51002 11.22837,10.43539 11.671591,10.17506 11.680937,10.145329 11.703542,10.132965 11.754179,9.919884 11.821389,10.014691 11.859608,10.047598 12.523847,9.684266 12.781477,9.849227 12.83066,9.683341 12.858658,9.570293 13.100611,9.840606 13.344244,10.025718 13.901368,9.831463 13.921521,9.768338 13.930716,9.766129 14.056936,9.352846 14.117164,9.143871 14.370841,9.401858 14.653428,9.631422 14.748677,9.254542 15.036743,8.802759 15.323509,8.734037 15.367601,8.7251 15.384302,8.670221 15.410535,8.695798 15.431545,8.713623 16.129242,8.631343 16.446426,8.602996 16.622842,8.080366 16.940945,8.332046 16.943755,8.03222 16.954154,7.858001 17.344467,7.869012 17.696465,7.86431 17.715098,7.804471 17.71834,7.805775 17.835992,7.324568 18.308775,7.368732 18.297718,7.326817 18.348332,7.320298 18.273178,7.136308 18.13936,6.922004 18.452079,7.146718 18.443117,6.672438 18.461579,6.309659 18.744536,6.418458 19.347621,6.397308 19.379994,6.264799 19.427702,5.954233 19.362686,5.823077 19.251414,5.592031 19.487429,5.565424 19.506648,5.440312 19.514472,5.290562 19.798985,5.530302 19.870713,5.522217 19.881904,5.528081 20.041596,5.50891 20.206587,5.493327 20.309928,5.168297 20.406134,4.790302 20.780686,5.263179 20.886423,5.387552 21.02987,5.069974 21.211436,4.634895 21.492223,5.143015 21.577706,5.294719 21.687832,5.070345 21.895064,4.635504 22.211097,5.28119 22.338694,5.049467 22.57866,4.634877" slic3r:type="contour"/>
    <polygon style="fill: white" points="4.206797,23.905062 4.461878,24.26504 4.026662,24.289245 3.274214,24.510734 2.865549,23.924819 2.646905,23.409876 3.041609,23.274444 3.834602,23.156808" slic3r:type="contour"/>
    <polygon style="fill: white" points="3.336257,26.083654 3.629405,26.45692 3.195214,26.514036 2.45642,26.810536 2.016554,26.237618 1.767732,25.709988 2.147686,25.539458 2.940229,25.356452" slic3r:type="contour"/>
    <polygon style="fill: white" points="2.62174,28.789193 2.889022,29.082434 2.368039,29.220354 1.758396,29.55838 1.20643,28.945415 0.968347,28.527252 1.420435,28.252123 2.11094,27.99525" slic3r:type="contour"/>
    <polygon style="fill: white" points="1.657534,29.810543 1.653836,29.831696 1.642139,29.83801 1.640111,29.835838 1.635999,29.829182 1.656416,29.782252" slic3r:type="contour"/>
    <polygon style="fill: white" points="1.895652,31.432308 1.910684,31.687427 2.258445,32.1459 2.370759,32.252292 1.954346,32.428473 1.962682,32.569942 1.90389,32.612002 2.120281,33.0529 2.256881,33.608131 1.926286,34.585256 1.561694,35.234735 1.661216,35.350048 1.623624,35.448861 2.128334,35.880244 1.935767,35.988424 1.11452,36.704056 0.694135,36.355084 0.133706,35.684376 0.250108,35.577268 0.532652,35.390744 0.499343,35.324544 0.700932,35.136821 0.224257,34.08678 0.908897,32.665837 0.776595,32.4859 0.829342,32.361199 0.539669,32.086794 0.408937,31.897276 1.028204,31.414049 1.287172,31.278838 1.621085,30.489431" slic3r:type="contour"/>
    <polygon style="fill: white" points="1.934004,39.655824 2.154885,39.834284 1.530285,40.278518 1.598831,40.415752 1.566693,40.448248 2.000514,40.889879 2.227121,41.213612 1.906909,41.987556 1.337381,42.971007 1.454563,43.075936 1.434008,43.113963 1.931049,43.563412 2.446478,43.979904 2.04778,44.331636 1.543944,44.910432 0.864098,44.406712 0.443637,44.006408 0.701282,43.713979 1.234971,43.18077 1.157859,43.102752 1.257781,42.98902 1.323888,42.9246 0.80138,42.256227 0.257874,41.668128 0.886264,40.581703 0.782051,40.472924 0.833622,40.349379 0.379147,39.999528 0.158309,39.762908 0.623682,39.273884 1.134504,38.86064" slic3r:type="contour"/>
    <polygon style="fill: white" points="2.298398,45.673628 2.672397,46.007604 2.419969,46.495043 1.920503,47.311939 1.966978,47.35022 1.952607,47.372662 2.598525,47.936944 3.017183,48.288896 2.535298,48.873688 3.005126,49.091848 3.181847,49.185996 2.807173,49.841068 2.441204,50.452564 1.647971,50.044339 1.28012,49.863116 1.755606,49.087928 1.78908,49.021759 1.355003,48.687448 1.005101,48.37372 1.276694,48.021 1.703868,47.469379 1.609833,47.402636 1.699365,47.293998 1.403485,47.0469 0.724774,46.527824 1.09749,45.953436 1.557673,45.160108" slic3r:type="contour"/>
    <polygon style="fill: white" points="3.196382,51.303335 3.829158,51.477356 3.70401,51.736688 3.438624,52.297266 3.948216,52.652488 4.551521,53.081016 4.469254,53.345376 4.641051,53.349064 4.690251,53.348784 4.413333,54.152235 4.279372,54.59082 3.300986,54.590812 3.069268,54.590312 3.273539,53.902189 2.935207,53.674888 2.394954,53.2922 2.504725,53.005128 2.609742,52.687554 2.564121,52.677436 2.597263,52.612982 2.021774,52.466616 2.110887,52.269988 2.622043,51.140284" slic3r:type="contour"/>
    <polygon style="fill: white" points="5.759719,55.428143 5.682819,56.132408 5.000339,56.285383 4.497229,56.391067 4.565961,55.771028 4.656126,55.0789 5.55256,54.905759 5.859961,54.830088" slic3r:type="contour"/>
    <polygon style="fill: white" points="7.430139,56.534755 7.482671,57.467484 7.051458,57.651247 6.341719,57.931804 6.32835,57.62052 6.31199,56.61226 6.921653,56.379991 7.433653,56.1473" slic3r:type="contour"/>
    <polygon style="fill: white" points="9.361204,57.499403 9.439093,57.957543 11.181622,58.223752 11.320926,58.444649 11.443852,58.36802 11.467299,58.351475 11.560543,58.824616 11.599042,58.885664 11.610529,58.931606 12.189465,59.759424 11.717804,59.696741 11.613668,59.763848 11.460548,59.737579 10.904338,60.1412 10.729656,60.254492 10.557111,59.582586 9.84453,59.460335 8.591778,59.297284 8.566879,59.247035 8.530072,59.192523 8.457193,59.2315 8.454565,59.215035 8.434698,59.05127 8.417884,59.026368 8.368998,58.760834 8.222338,58.378296 7.871585,57.689175 8.491288,57.828649 8.514864,57.816347 8.518846,57.816955 8.650832,57.747843 9.343223,57.325424" slic3r:type="contour"/>
    <polygon style="fill: white" points="13.840198,59.84882 14.008533,60.357652 13.356425,60.887096 13.032943,61.122263 12.815742,60.411336 12.68055,59.88822 13.498954,59.314172 13.672251,59.178548" slic3r:type="contour"/>
    <polygon style="fill: white" points="15.975436,60.415372 16.217856,61.049043 15.701853,61.512272 15.270899,61.861652 15.082193,61.332539 14.867941,60.650164 15.522698,60.130604 15.81084,59.882292" slic3r:type="contour"/>
    <polygon style="fill: white" points="18.051598,60.852252 18.377734,61.565212 17.969246,61.984779 17.482186,62.444744 17.315542,62.056444 17.002386,61.266276 17.520863,60.78236 17.883796,60.426744" slic3r:type="contour"/>
    <polygon style="fill: white" points="20.086418,61.129704 20.50116,61.868032 20.170848,62.271171 19.6857,62.830228 19.530893,62.537699 19.102734,61.702796 19.514083,61.232636 19.906422,60.779544" slic3r:type="contour"/>
    <polygon style="fill: white" points="22.104577,61.217635 22.599854,61.922279 22.320411,62.343492 21.895064,62.972768 21.733248,62.728488 21.190254,61.922448 21.522562,61.435899 21.895064,60.908044" slic3r:type="contour"/>
  </g></svg>