<svg width="43.790126" height="63.590156" xmlns="http://www.w3.org/2000/svg" xmlns:svg="http://www.w3.org/2000/svg" xmlns:xlink="http://www.w3.org/1999/xlink" xmlns:slic3r="http://slic3r.org/namespaces/slic3r"><g xmlns="http://www.w3.org/2000/svg" slic3r:z="5.285e-006" id="layer15">
    <polygon style="fill: white" points="7.828307,39.373978 8.385656,39.57166 8.849937,39.6901 8.5791,39.975651 8.104884,40.556875 8.120342,40.650008 8.094793,40.681342 8.370087,41.436548 8.930022,41.558088 9.405427,41.612444 9.158803,41.939428 8.760342,42.559752 8.785863,42.652412 8.776658,42.666587 9.096657,43.298576 9.642425,43.333508 10.121695,43.313964 9.908098,43.688268 9.598929,44.336112 9.627255,44.405925 9.992597,44.937448 10.513558,44.879948 10.990047,44.77792 10.824571,45.197915 10.610562,45.871986 11.041613,46.332785 11.546859,46.183336 12.010898,45.997716 11.907035,46.448439 11.789685,47.150821 12.236888,47.509593 12.726655,47.27324 13.171912,47.009392 13.131091,47.467296 13.105335,48.216514 13.553767,48.489893 14.03014,48.170604 14.455357,47.83448 14.469966,48.272683 14.537605,49.097198 14.962953,49.295445 15.431171,48.894739 15.840046,48.490944 15.894536,48.881684 16.066257,49.818381 16.436318,49.950575 16.896202,49.466679 17.297748,48.99582 17.372122,49.314455 17.667296,50.389942 17.737952,50.41824 17.753418,50.474343 17.722585,50.508748 17.627744,50.604695 18.056453,50.86666 17.927632,50.50186 18.410643,49.886348 18.804398,49.350936 18.884823,49.595935 19.30643,50.755 18.853182,51.353505 18.875554,51.367176 18.710864,51.568932 19.550638,52.030023 19.550638,52.030024 18.529528,51.855416 18.482873,51.848238 18.451954,51.886116 18.443675,51.865755 18.442983,51.863816 18.431672,51.835413 16.971524,51.426976 16.84637,51.39518 16.750944,51.49172 16.73191,51.432507 16.713739,51.361487 16.70919,51.360331 16.703707,51.342872 15.426681,50.848772 15.240666,50.782484 15.082978,50.911447 15.062307,50.820283 15.045649,50.712986 15.037244,50.709991 15.030847,50.681115 13.868304,50.103816 13.659101,50.006693 13.466071,50.12768 13.453757,50.026376 13.447765,49.908579 13.438082,49.904084 13.433756,49.867427 12.310741,49.146287 12.124622,49.033244 11.934926,49.11606 11.934208,49.026019 11.941299,48.921899 11.932377,48.91648 11.932242,48.87908 10.792505,47.920111 10.66912,47.821328 10.529559,47.855872 10.536553,47.795819 10.550715,47.726531 10.54459,47.721627 10.54813,47.693079 9.362651,46.361991 9.330698,46.327803 9.290813,46.330152 9.299822,46.294771 9.299708,46.294647 9.30196,46.286215 8.989839,45.804448 9.062326,44.628119 8.579313,44.572792 8.578544,44.54886 8.313781,44.545692 8.262514,44.540727 8.55,43.85438 8.555856,43.84311 8.522727,42.812638 8.051011,42.686436 8.050364,42.645404 7.56097,42.566471 7.44618,42.53776 7.786005,41.943275 8.033643,41.58573 8.021116,40.791854 7.920098,40.764707 7.595116,40.632568 7.595603,40.58835 6.993273,40.41044 6.833693,40.348176 7.206816,39.834467 7.608993,39.373118 7.618354,38.523512" slic3r:type="contour"/>
    <polygon style="fill: white" points="7.326002,34.735187 7.83988,35.043131 8.255073,35.249436 7.929736,35.490039 7.422726,35.917947 7.424814,36.003616 7.335038,36.08149 7.488536,37.138052 8.019545,37.394224 8.463846,37.56464 8.169605,37.818463 7.649274,38.338936 7.65606,38.434956 7.618915,38.47258 7.545894,38.546543 7.473468,38.519267 7.234998,38.391012 7.236628,38.35253 6.601903,38.08736 6.420016,37.992328 6.81718,37.541772 7.289867,37.095951 7.330077,36.146882 7.202276,36.085956 6.965613,35.93166 6.967895,35.915784 6.385435,35.604996 6.203419,35.488804 6.623588,35.080283 7.147854,34.663572 7.250826,33.947064" slic3r:type="contour"/>
    <polygon style="fill: white" points="7.803228,32.647053 8.216202,32.89981 7.884989,33.11668 7.334871,33.513427 7.336312,33.573668 7.20894,33.669975 7.158356,33.640732 7.157169,33.641588 6.365709,33.127518 6.164982,32.978963 6.586757,32.624302 7.184783,32.213758" slic3r:type="contour"/>
    <polygon style="fill: white" points="9.75916,23.264946 10.320284,23.559107 10.140189,23.691026 9.452375,24.275416 9.771812,24.579363 10.181431,25.040028 9.870535,25.17802 9.112157,25.486788 9.41235,25.892146 9.64551,26.287008 9.040041,26.462634 8.657336,26.545512 8.648004,26.826755 8.680146,26.871776 8.67983,26.900941 8.961528,27.281091 9.06912,27.453434 8.672562,27.571206 8.669278,27.874049 8.717124,28.492458 8.58292,28.555658 8.459875,28.66301 8.613881,28.818512 8.529861,28.860307 8.200153,29.006244 8.052221,29.26191 7.613606,30.129026 7.876566,30.34092 8.337379,30.68892 8.067873,30.846606 7.224042,31.35349 6.557293,30.824758 6.289467,30.598638 6.668674,30.330531 7.289607,29.967245 7.288281,29.91536 7.308148,29.902805 7.306552,29.249118 7.246338,29.179194 7.246801,29.146159 6.973016,28.860369 6.587453,28.475594 6.8538,28.33232 7.260789,28.146713 7.275664,27.058948 7.24925,27.018232 7.250479,26.983249 7.102949,26.804968 7.168107,26.783398 7.258579,26.752636 7.270177,26.422456 7.801494,26.171094 8.014939,26.077587 7.777347,25.709784 7.677072,25.551024 8.343607,25.42473 8.799237,25.335586 8.35907,24.891658 8.079471,24.605366 8.59826,24.448005 9.160952,24.243958 8.618461,23.980873 8.171817,23.757612 8.593317,23.478041 9.242562,22.973394" slic3r:type="contour"/>
    <polygon style="fill: white" points="9.350132,21.82935 9.824975,21.941684 9.602906,22.161445 9.062119,22.875426 8.154591,22.616738 7.805642,22.51555 8.201153,22.072414 8.594449,21.575976 8.584914,21.566712 8.597658,21.571926 8.62112,21.542312" slic3r:type="contour"/>
    <polygon style="fill: white" points="8.38723,18.183118 8.475872,18.259928 8.941216,18.532902 8.826813,18.591392 8.670508,18.707476 9.006621,19.177715 8.756741,20.137569 9.019901,20.252836 9.234231,20.303709 8.85892,20.658804 8.584403,21.019741 8.53132,21.51464 8.321336,21.310622 8.286993,21.34535 8.204893,21.300677 7.766838,21.058427 7.6465,20.885106 7.333733,20.778456 7.247609,20.74946 7.416654,20.554061 7.312264,20.403708 7.129787,20.093786 7.268396,19.229269 7.343799,18.83881 6.955558,18.546902 7.128128,18.429928 7.466647,18.20266 7.490184,18.08078 7.700234,17.893408 7.785436,17.81513 7.851417,17.856715 8.093737,17.32449" slic3r:type="contour"/>
    <polygon style="fill: white" points="21.955002,0.611061 22.123997,0.842878 22.676,0.861997 22.980193,0.872772 23.229726,0.603234 23.274692,0.681999 23.405312,0.913483 24.05899,1.008457 24.319475,1.046244 24.56726,0.844099 24.596405,0.914386 24.684498,1.134174 25.411978,1.359498 25.632567,1.426353 25.890294,1.27577 25.908633,1.344026 25.964196,1.576324 26.61023,1.929789 26.835349,2.047699 27.176132,1.91826 27.187688,2.007308 27.209451,2.284167 27.214909,2.336192 27.584631,2.666639 27.859742,2.896276 28.394621,2.781551 28.394034,2.929846 28.364587,3.317672 28.369599,3.321856 28.364056,3.475221 28.396102,3.515142 28.796004,3.965704 29.026516,3.929334 29.565348,3.882317 29.536106,4.106668 29.418353,4.666895 29.430798,4.680917 29.406035,4.833187 29.733029,5.267604 30.250873,5.238252 30.72229,5.242761 30.653711,5.53111 30.437945,6.204098 30.45774,6.230396 30.423119,6.360738 30.758649,6.829746 30.816344,6.835741 30.822881,6.84766 31.477204,6.86007 31.907062,6.896566 31.80602,7.211983 31.524884,7.900798 31.551854,7.938497 31.509106,8.063301 32.023292,8.757591 32.106494,8.772313 32.108308,8.77685 32.72839,8.829332 33.172018,8.897049 33.0647,9.181942 32.776429,9.774532 32.809258,9.81886 32.759924,9.942197 33.600542,10.987565 33.905748,11.03462 34.443968,11.153005 34.368404,11.330022 34.165683,11.690357 34.188696,11.718975 34.157091,11.786379 35.51588,13.354262 35.582489,13.574368 35.611535,13.582116 35.628952,13.587064 35.596603,13.643284 35.706944,14.903385 35.78619,15.756906 36.256171,15.968424 36.537428,16.08959 36.213723,16.500775 35.888118,16.854727 35.897996,16.961114 35.837376,17.039678 35.804207,17.028321 35.747575,17.007505 35.747151,17.007965 35.721911,16.998071 35.654464,16.973279 35.634488,17.065962 35.533082,16.924048 34.808976,16.64019 34.587576,16.538321 34.92256,16.135954 34.560652,15.732238 34.14336,15.331075 34.136308,14.816331 34.097117,14.370246 33.739012,14.293813 33.841483,14.134403 33.971092,13.924501 33.791064,13.32 33.471934,12.18393 33.444136,12.126579 33.102384,12.067199 32.614734,12.008315 32.818495,11.662297 33.036261,11.245868 32.517286,10.047931 32.464643,9.964914 31.777328,9.88851 31.409952,9.870205 31.629028,9.452814 31.801347,9.072287 31.762084,9.014782 31.825693,8.871411 31.669223,8.598841 31.220914,8.00556 30.58282,7.976727 30.220658,7.981842 30.408875,7.562106 30.586091,7.105951 30.548826,7.044751 30.573606,6.979797 30.152886,6.395443 29.54148,6.417263 29.128352,6.453654 29.268522,6.065855 29.414223,5.597681 28.959829,5.101414 28.589887,5.153972 28.10232,5.245423 28.187427,4.911685 28.268066,4.52584 27.776517,4.110657 27.671885,4.139983 27.11533,4.316392 27.150088,4.043054 27.175738,3.734448 26.633421,3.385856 26.136405,3.622556 26.131936,3.399714 26.116,3.138855 25.522163,2.849277 25.123192,3.116754 25.086752,2.918393 25.034257,2.669743 24.974954,2.650973 24.422876,2.462954 24.074638,2.77492 24.008971,2.586019 23.91802,2.335838 23.874215,2.327544 23.312008,2.214258 22.996236,2.581062 22.901485,2.396519 22.770574,2.144008 22.176868,2.104028 21.895064,2.521402 21.775176,2.34551 21.610225,2.101659 21.022581,2.141192 20.793868,2.58106 20.658349,2.425069 20.471572,2.208546 19.87998,2.327587 19.715486,2.774916 19.565104,2.642343 19.353496,2.453425 18.768268,2.652511 18.66696,3.116732 18.494604,3.004805 18.243735,2.837674 17.690309,3.10786 17.653722,3.622557 17.441093,3.527783 17.129786,3.381511 17.087099,3.402351 16.630011,3.697821 16.674815,4.316392 16.3921,4.240719 15.983689,4.115618 15.952948,4.135489 15.529477,4.495633 15.58914,4.745624 15.687807,5.245423 15.324721,5.199694 14.804826,5.109134 14.378892,5.576678 14.542151,6.052203 14.661776,6.453654 14.228331,6.446806 13.622893,6.402768 13.214458,6.970171 13.241331,7.044765 13.207617,7.090947 13.445296,7.648144 13.569475,7.98183 13.094079,8.01505 12.531886,8.016552 12.136087,8.558708 11.962514,8.858078 12.028067,9.014788 11.994779,9.055663 12.243583,9.554162 12.380179,9.87021 11.90955,9.935866 11.314895,9.975054 11.270076,10.052355 11.261345,10.05346 10.748087,11.211044 10.985019,11.629144 11.175378,12.008354 10.799578,12.083765 10.333623,12.14581 10.298233,12.225626 9.817395,13.909174 10.051116,14.293812 9.891662,14.335066 9.705766,14.375921 9.646769,15.331076 8.865623,16.169806 9.079561,16.417863 9.202552,16.538315 8.687925,16.721994 8.309227,16.88992 8.155667,17.065964 8.130387,16.97534 8.055071,17.00262 8.042973,17.007984 8.042347,17.007228 7.952753,17.039678 7.934862,17.012854 7.892132,16.961114 7.898337,16.833147 7.45865,16.301651 7.252699,16.08959 7.769263,15.85528 7.949578,15.776305 7.982196,15.103561 8.191389,13.633551 8.190216,13.631897 8.190319,13.631498 8.171791,13.601227 8.161174,13.587035 8.204698,13.575555 8.217672,13.525073 8.274238,13.354253 9.172779,12.224588 9.616714,11.749443 9.60142,11.718975 9.651926,11.650117 9.635627,11.615568 9.346189,11.152977 9.559253,11.122844 10.116892,11.016201 10.184323,10.92427 11.024001,9.919884 10.980959,9.819009 11.022604,9.758072 10.82818,9.287197 10.618103,8.897052 10.942414,8.874636 11.678376,8.783757 11.683659,8.772313 11.746252,8.763655 12.279831,8.053105 12.238277,7.938497 12.268973,7.891747 12.055407,7.279701 11.883081,6.896556 12.218558,6.896082 12.963264,6.853111 12.973813,6.83574 13.013577,6.832952 13.364243,6.34262 13.332362,6.230397 13.359209,6.191662 13.219846,5.664596 13.067838,5.242761 13.35322,5.264604 14.023956,5.275834 14.380391,4.797817 14.359329,4.680917 14.389016,4.644996 14.346615,4.373075 14.224778,3.882318 14.433173,3.920031 14.94367,3.978397 15.42612,3.428758 15.420539,3.321887 15.451342,3.294791 15.395498,2.781576 15.527038,2.82278 15.888553,2.910211 16.24649,2.595359 16.578181,2.316724 16.585171,2.241371 16.59589,2.235528 16.613996,1.91826 16.691495,1.954509 16.932717,2.051932 17.595254,1.690798 17.831438,1.566966 17.842588,1.521748 17.843988,1.521314 17.89986,1.275773 17.958964,1.313192 18.148898,1.426788 18.87653,1.201209 19.109562,1.130628 19.222868,0.844072 19.282174,0.893174 19.469176,1.04637 20.120479,0.951771 20.386324,0.913204 20.560374,0.603237 20.62358,0.670311 20.81232,0.873132 21.366244,0.853946 21.668449,0.843238 21.895064,0.530263" slic3r:type="contour"/>
    <polygon style="fill: white" points="35.918702,17.858644 36.004627,17.8151 36.299916,18.080764 36.321951,18.203829 36.834568,18.546884 36.677812,18.674281 36.438835,18.856612 36.660344,20.093722 36.367483,20.537233 36.484752,20.676 36.542516,20.749436 36.135135,20.889105 36.023336,21.058413 35.50322,21.34535 35.466275,21.317273 35.258812,21.514677 35.229556,21.074479 34.721256,20.541178 34.5559,20.303752 35.083992,20.061416 34.99958,19.627667 34.7835,19.17776 34.985783,19.049162 35.151425,18.772434 34.848908,18.532902 34.997116,18.398257 35.53125,18.027186 35.696376,17.324634" slic3r:type="contour"/>
    <polygon style="fill: white" points="35.194264,21.571656 35.202455,21.568302 35.196365,21.574096 35.763696,22.232736 35.984484,22.515518 35.405527,22.679302 34.728028,22.875456 34.296703,22.418275 33.96514,21.941684 34.374699,21.77541 35.168935,21.542252" slic3r:type="contour"/>
    <polygon style="fill: white" points="35.214748,23.440934 35.618312,23.757612 35.143912,23.984451 34.634225,24.238525 35.283771,24.449523 35.710656,24.605366 35.296364,25.020843 34.989281,25.334589 35.898735,25.508991 36.113056,25.551 35.756939,26.098523 36.055095,26.242391 36.519952,26.422446 36.523548,26.660471 36.527918,26.750723 36.68718,26.804968 36.641388,26.868141 36.53971,26.994255 36.540872,27.018238 36.514865,27.058101 36.524063,27.670525 36.530595,28.170089 36.631332,28.22096 37.202672,28.475594 36.983164,28.708125 36.543438,29.152405 36.543788,29.179194 36.485691,29.246618 36.483151,29.90411 36.501904,29.915347 36.501289,29.972816 37.16444,30.407938 37.500664,30.598656 37.139608,30.877458 36.56598,31.353544 35.927703,30.978705 35.452748,30.688906 35.657204,30.521951 36.163813,30.130412 35.551175,28.970629 35.176235,28.818538 35.225768,28.771145 35.313112,28.684209 35.073016,28.49255 35.094625,27.543975 34.8917,27.484724 34.721008,27.45345 35.108104,26.952286 35.109936,26.871847 35.114215,26.866193 35.112057,26.518699 34.54318,26.355786 34.144624,26.287024 34.404368,25.953204 34.695903,25.490781 34.160543,25.254903 33.608708,25.04003 33.806336,24.857367 34.340198,24.285331 33.974407,24.010477 33.469864,23.559078 33.682756,23.437981 34.547575,22.973424" slic3r:type="contour"/>
    <polygon style="fill: white" points="37.398312,32.828406 37.625148,32.978992 37.180372,33.250104 36.632955,33.641604 36.627226,33.63779 36.581147,33.669968 36.527355,33.633163 36.453808,33.57368 36.457218,33.52461 35.9689,33.199524 35.573924,32.89981 35.867952,32.688561 36.60544,32.21376" slic3r:type="contour"/>
    <polygon style="fill: white" points="36.687508,34.706668 37.399152,35.3441 37.586708,35.488775 37.096343,35.72646 36.82316,35.893408 36.824684,35.931584 36.463766,36.150598 36.548686,37.150902 37.200996,37.83624 37.370107,37.992308 36.846436,38.184311 36.559215,38.327225 36.555168,38.390936 36.244212,38.546488 36.179664,38.489944 36.180468,38.486539 36.134024,38.43488 36.144587,38.357479 35.67692,37.943772 35.32628,37.56464 35.658204,37.398731 36.313015,37.123252 36.454352,36.087545 36.365356,36.003564 36.371079,35.935915 35.900955,35.579899 35.535052,35.249448 35.861756,35.047296 36.473938,34.719977 36.539356,33.946652" slic3r:type="contour"/>
    <polygon style="fill: white" points="36.236839,39.450551 36.824964,40.199756 36.956432,40.348184 36.382571,40.489952 36.202953,40.55634 36.195012,40.632568 35.795422,40.783353 35.861781,41.777031 36.262788,42.421848 36.343944,42.537764 35.750941,42.60475 35.739116,42.686436 35.350066,42.781591 35.41426,43.482772 35.305256,44.066722 35.498296,44.484676 35.527584,44.540728 35.218991,44.528869 35.210792,44.572791 34.934866,44.599591 34.994336,44.92968 34.800052,45.804823 34.511015,46.255172 34.488402,46.288002 34.490423,46.294668 34.48764,46.297814 34.499308,46.330132 34.465858,46.322426 33.338401,47.596416 33.242045,47.698933 33.24557,47.721632 33.235173,47.730415 33.260598,47.855872 33.210806,47.835444 33.134015,47.815871 32.018162,48.758523 31.857034,48.886991 31.857756,48.916484 31.842717,48.926156 31.855202,49.11606 31.785684,49.074604 31.682523,49.029191 30.557027,49.753096 30.354645,49.875668 30.352058,49.904075 30.335572,49.912249 30.32406,50.127704 30.251543,50.070247 30.147977,50.005257 28.960248,50.594119 28.757051,50.688327 28.752858,50.71 28.738044,50.715697 28.707118,50.911448 28.646893,50.851227 28.563209,50.782931 27.233353,51.29434 27.084676,51.347374 27.080952,51.360319 27.072529,51.362654 27.039188,51.491744 27.002913,51.447571 26.951831,51.396115 25.414182,51.822387 25.357848,51.836735 25.356355,51.840684 25.354348,51.841024 25.338174,51.886116 25.311739,51.848248 24.23949,52.030024 24.698384,51.639992 25.032626,51.511089 24.914574,51.367164 24.94336,51.32653 24.880276,51.23716 24.483696,50.754984 24.728957,50.003504 24.985728,49.35096 25.142703,49.551307 25.862498,50.50186 25.789827,50.694084 26.105935,50.544042 26.036672,50.474272 26.042396,50.449523 26.052118,50.41824 26.119425,50.394223 26.29482,49.634827 26.492382,48.99582 26.710774,49.226108 27.360418,49.951398 27.715857,49.824565 27.813647,49.109524 27.950085,48.490948 28.233648,48.734052 28.841481,49.296811 29.240356,49.11038 29.26115,48.436075 29.334766,47.83446 29.671774,48.0602 30.256893,48.490133 30.671157,48.236015 30.612928,47.595272 30.618204,47.0094 30.994503,47.190071 31.57849,47.506947 31.988118,47.175056 31.8474,46.564732 31.779226,45.9977 32.177526,46.113592 32.776674,46.325606 33.170604,45.898274 32.943796,45.318676 32.800076,44.777908 33.202299,44.819184 33.826041,44.925012 34.156871,44.433262 34.154255,44.427152 34.186413,44.361839 33.880784,43.819528 33.668436,43.313968 34.056968,43.284852 34.717473,43.283217 35.017151,42.674551 35.004264,42.652412 35.02882,42.582648 34.65502,42.078376 34.3847,41.61242 34.751767,41.527748 35.437594,41.421303 35.696403,40.686018 35.669784,40.650012 35.687101,40.57665 35.257263,40.113703 34.940192,39.690091 35.286523,39.561852 35.974279,39.360038 36.171676,38.523787" slic3r:type="contour"/>
    <polygon style="fill: white" points="23.55906,49.73222 24.237806,50.785163 23.628844,52.090375 23.619212,52.111464 23.214671,51.452775 22.841324,50.908383 23.137232,50.213203 23.447974,49.56098" slic3r:type="contour"/>
    <polygon style="fill: white" points="20.422409,49.749027 20.948786,50.908383 20.183929,52.09242 20.170916,52.111463 19.826743,51.386955 19.55232,50.785216 19.96275,50.152699 20.342126,49.56098" slic3r:type="contour"/>
    <polygon style="fill: white" points="21.980669,49.790835 22.596126,50.91662 21.920667,52.137116 21.895064,52.182356 21.527098,51.504264 21.194,50.91662 21.54101,50.262783 21.895064,49.629744" slic3r:type="contour"/>
  </g></svg>