<svg width="43.790126" height="63.590156" xmlns="http://www.w3.org/2000/svg" xmlns:svg="http://www.w3.org/2000/svg" xmlns:xlink="http://www.w3.org/1999/xlink" xmlns:slic3r="http://slic3r.org/namespaces/slic3r"><g xmlns="http://www.w3.org/2000/svg" slic3r:z="1.5845e-005" id="layer47">
    <polygon style="fill: white" points="22.183845,1.392663 22.224661,1.452006 22.565126,1.478484 22.659521,1.485739 22.881474,1.252499 23.047316,1.06979 23.266276,1.507741 23.305104,1.58673 23.649519,1.662957 23.75524,1.68636 24.008851,1.487846 24.199058,1.333452 24.351598,1.799471 24.373631,1.868185 24.697619,1.981695 24.885047,2.046525 25.14608,1.894695 25.338738,1.781721 25.427909,2.265668 25.695291,2.388158 26.096284,2.565048 26.306912,2.475501 26.45704,2.414718 26.478972,2.748888 26.649003,2.840499 27.480643,3.257776 27.530696,3.24366 27.563176,3.235606 27.560202,3.301208 27.590564,3.32047 27.740376,3.4076 28.050304,4.078521 28.162642,4.28487 28.199878,4.27867 28.648156,4.235377 28.622602,4.453006 28.530274,5.027523 28.894153,5.23584 29.332455,5.440982 29.577626,5.439935 29.66576,5.445602 29.628013,5.591718 29.682625,5.627702 29.821919,5.704547 29.916324,6.458084 29.98333,6.752897 30.433523,6.805498 30.617892,6.843702 30.525697,7.109046 30.61641,7.139321 30.771248,7.164116 30.803726,7.933078 30.859309,8.28505 31.491975,8.38809 31.536928,8.376822 31.538913,8.395132 31.554592,8.397279 31.542979,8.420013 31.634434,9.361409 31.723223,9.874265 32.046367,9.925479 32.44203,9.617354 32.49084,9.871184 32.520706,10.005184 32.828472,10.047818 32.704568,10.187871 32.600534,10.313234 32.740992,10.859334 32.874458,11.4132 33.689589,11.510613 33.833356,11.342748 33.876076,11.485416 33.890231,11.539327 33.996604,11.54898 33.953412,11.592881 33.925987,11.624235 34.290367,12.460895 34.405718,12.789384 34.946912,12.799615 34.740172,13.014402 34.65832,13.130133 34.836799,13.371424 35.025488,13.716473 35.118623,13.816853 35.790228,13.785098 35.545484,14.040559 35.469015,14.194495 35.557844,14.290233 35.797521,14.644379 35.839028,14.646393 35.918023,14.738509 36.036412,14.743606 36.604956,14.714591 36.364052,14.953252 36.279221,15.159699 36.370192,15.26578 36.606704,15.634419 36.686972,15.645244 36.720992,15.702735 36.932035,15.727788 37.407751,15.743293 37.16878,15.96801 37.041726,16.244757 37.111199,16.362162 37.313693,16.822225 37.411438,16.850929 37.843084,16.958614 38.158688,17.019586 37.882188,17.270478 37.648519,17.637813 37.763361,18.273318 37.991536,18.359497 38.719488,18.508728 38.754009,18.646375 38.773412,18.652744 38.757112,18.66767 38.75732,18.668761 38.756289,18.66966 38.862212,19.937233 38.880934,20.301338 39.323244,20.483472 39.10246,20.673855 38.909258,20.852177 38.909556,20.857978 38.873194,20.889689 38.859844,21.152193 38.840708,21.565977 39.157764,21.569424 39.650771,21.618624 39.637899,22.141136 39.632958,22.395588 39.635407,22.396695 39.634878,22.402048 39.91848,22.547476 39.752551,22.66124 39.596466,22.790503 39.550216,23.258227 39.505431,23.735522 39.843411,23.744385 40.35628,23.955988 40.326744,24.442181 40.287282,24.744561 40.300516,24.752399 40.295612,24.793664 40.63412,25.037956 40.427812,25.156869 40.232242,25.326851 40.199703,25.600617 40.021585,26.35113 40.603184,26.486396 41.108784,26.928229 41.065404,27.372478 40.991793,27.630811 41.015352,27.650122 41.005361,27.713397 41.29254,27.94229 41.120727,28.045994 40.923415,28.232341 40.86064,28.629897 40.536272,29.544881 39.765347,29.051333 39.338331,28.864606 39.576474,28.109676 39.505392,28.034738 39.514623,27.996637 39.317296,27.863246 39.085984,27.660422 39.369136,27.327011 39.764561,26.965026 39.873723,26.514462 39.286527,26.39559 38.746084,26.284276 38.980004,25.334297 38.929604,25.293527 38.687323,25.169261 38.27372,24.933418 38.363363,24.843634 38.540013,24.67182 38.522952,24.67136 38.557428,24.639117 38.168556,24.59364 38.350292,23.078672 38.079847,22.965243 37.562344,22.744414 37.659419,22.660901 37.530056,22.633232 37.615683,21.018329 37.412956,20.934932 37.035236,20.762782 37.297816,20.539973 37.614896,20.255899 37.587398,19.82775 36.884376,19.522802 36.630796,19.446619 36.621547,19.086401 36.578883,19.072179 36.515516,19.047029 36.596927,18.960669 36.542184,18.704754 36.340252,17.774935 36.324326,17.73997 36.180683,17.720357 35.94472,17.67542 36.155946,17.370286 35.912492,16.835776 35.891942,16.794865 35.830992,16.790722 35.761902,16.681682 35.576524,16.687224 35.242232,16.680358 35.460361,16.205781 35.246674,15.868533 35.106928,15.865543 35.033601,15.755711 34.805307,15.776146 34.386716,15.791349 34.534548,15.387346 34.634363,15.157719 34.492144,14.944698 34.303464,14.937236 34.249497,14.839596 33.943804,14.853248 33.387376,14.855086 33.48313,14.625403 33.737441,14.147093 33.520044,14.168741 33.586434,13.8917 33.535366,13.887541 33.510671,13.819981 33.114145,13.796474 32.871232,13.945941 32.690844,14.141232 32.471587,13.757166 32.441343,13.755313 32.437849,13.745087 32.396528,13.742432 32.308566,13.738765 32.38178,13.58097 32.252004,13.201124 31.992667,12.459656 31.930967,12.453168 31.92547,12.430961 31.734951,12.404331 31.278732,12.349894 31.479834,12.067507 31.749754,11.72116 31.674779,11.418304 31.315128,11.557488 30.87742,11.765822 30.70173,10.884894 30.698888,10.884511 30.697913,10.879012 30.609183,10.860879 30.339976,10.809528 30.612179,10.435872 30.601784,10.383751 30.60861,10.375184 30.512973,9.835607 29.977663,9.676167 29.67854,9.585147 29.645409,9.263191 29.538284,9.239921 29.629629,9.109834 29.625064,9.06547 29.62702,9.062518 29.423398,7.869282 29.314493,7.85929 28.851146,7.812869 28.952028,7.617714 28.999692,7.525557 28.31292,7.028676 28.216105,6.63491 28.174641,6.635953 28.075608,6.638611 28.158751,6.411241 27.784046,5.541277 27.573167,5.578656 27.229868,5.639355 27.303603,5.283051 27.349704,5.05172 26.772376,4.671606 26.319292,4.81645 26.336366,4.591719 26.347705,4.425585 26.089267,4.281259 25.652425,4.038504 25.386448,4.159955 25.38014,4.017126 25.374588,3.898691 24.907345,3.674766 24.657174,3.557242 24.482568,3.664854 24.463992,3.560162 24.448994,3.468738 23.943112,3.279753 23.747,3.209589 23.606672,3.325764 23.575711,3.232041 23.550356,3.148444 23.06782,3.031594 22.875408,2.988179 22.74833,3.130125 22.701189,3.03571 22.662857,2.953589 22.208477,2.914515 22.005532,2.898438 21.895064,3.067628 21.832398,2.975581 21.782826,2.900203 21.324214,2.939537 21.12214,2.955551 21.041796,3.130132 20.973117,3.052793 20.917936,2.99107 20.424604,3.110303 20.234889,3.153101 20.183456,3.325766 20.109495,3.262712 20.047712,3.211307 19.534539,3.403316 19.338441,3.473386 19.307534,3.664854 19.21691,3.607218 19.137031,3.557694 18.660823,3.786712 18.415936,3.901572 18.403686,4.159929 18.267611,4.09645 18.1404,4.038109 17.799459,4.228924 17.444768,4.425838 17.470836,4.816454 17.235898,4.741002 17.017742,4.671187 16.960627,4.708734 16.442668,5.049876 16.481932,5.243028 16.560259,5.639357 16.150799,5.566716 15.997015,5.539501 15.794673,6.001009 15.629891,6.403395 15.67434,6.526062 15.714516,6.638616 15.570478,6.63508 15.536318,6.767303 15.477233,7.028629 15.054798,7.320533 14.786858,7.518828 14.93896,7.812891 14.643224,7.839666 14.361101,7.866702 14.260728,8.437689 14.161275,9.059977 14.165046,9.065507 14.160261,9.109397 14.191435,9.153817 14.251815,9.239947 14.143355,9.264482 14.13199,9.368731 14.111562,9.58517 13.576153,9.741328 13.290165,9.828388 13.237221,10.146544 13.176292,10.454468 13.269289,10.580753 13.450149,10.809511 13.092608,10.881959 13.041335,11.148864 12.912706,11.765808 12.604867,11.653823 12.118901,11.437656 12.041695,11.760543 12.21573,12.002882 12.511396,12.349885 11.863275,12.437704 11.859148,12.453139 11.808148,12.458881 11.680098,12.841647 11.403143,13.605395 11.431321,13.66383 11.481561,13.738739 11.351951,13.746566 11.348788,13.755288 11.322745,13.756851 11.285309,13.826084 11.099257,14.141238 10.638641,13.910214 10.517601,13.805173 10.281506,13.819343 10.254754,13.887559 10.19662,13.891423 10.270088,14.168788 10.031712,14.205897 10.11828,14.406666 10.402789,14.855056 9.80962,14.832272 9.554338,14.825305 9.486658,14.937223 9.339097,14.937717 9.150495,15.225597 9.21989,15.408648 9.403427,15.791336 8.779811,15.738666 8.683223,15.865525 8.594188,15.864017 8.347674,16.260411 8.394385,16.361317 8.547897,16.680375 8.050812,16.66673 7.959114,16.790726 7.934302,16.791676 7.750951,17.201728 7.653741,17.388755 7.702657,17.459957 7.845401,17.675416 7.478434,17.726035 7.451071,17.778682 7.370548,18.15718 7.194379,18.959156 7.224586,18.991486 7.274611,19.04703 7.1673,19.08294 7.163057,19.200268 7.159325,19.44665 6.634914,19.728396 6.18809,19.870269 6.161825,20.231025 6.423687,20.456259 6.754908,20.7628 6.21114,20.987411 6.160847,21.009078 6.181532,21.570612 6.260071,22.633228 6.127127,22.648776 6.227782,22.744416 6.152695,22.775942 5.43803,23.077693 5.504404,23.637512 5.621568,24.59362 5.498855,24.587044 5.208964,24.614638 5.267115,24.671342 5.242925,24.671112 5.516403,24.9334 5.165915,25.11519 4.866572,25.274803 4.868047,25.287476 4.824414,25.317583 4.930978,25.72696 5.044042,26.284256 4.641266,26.365307 3.924444,26.512513 4.080687,27.053493 4.445333,27.442471 4.704147,27.660412 4.270488,27.960467 4.284712,28.034756 4.233022,28.07943 4.34343,28.398424 4.451796,28.864634 4.017883,29.190732 3.253882,29.545002 2.974918,28.441824 2.933439,28.412318 2.497587,27.94227 2.658212,27.772897 2.781601,27.67735 2.774731,27.650176 2.83128,27.598048 2.681315,26.928378 2.95974,26.902984 3.784551,26.38202 3.618488,25.4644 3.560102,25.423683 3.155995,25.037954 3.368915,24.861652 3.493609,24.774351 3.489633,24.752382 3.515543,24.736616 3.433853,23.9559 3.754757,23.98432 4.291823,23.828896 4.195618,22.823888 3.871636,22.547454 4.056117,22.449608 4.154963,22.399194 4.154721,22.396668 4.156324,22.39599 4.139353,21.618566 4.541462,21.622054 4.948788,21.59245 4.915603,20.897439 4.803768,20.797114 4.46688,20.483452 4.731724,20.37917 4.919878,20.301486 5.030183,18.739079 5.034247,18.671104 5.016684,18.652772 5.038273,18.645534 5.070605,18.508768 5.1358,18.53913 5.294705,18.537376 5.54615,18.430323 6.073567,18.247012 6.176078,17.75522 5.750403,17.219701 5.63142,17.019632 6.068853,16.872488 6.516292,16.786754 6.580308,16.757996 6.743089,16.411545 6.516324,16.065948 6.382366,15.743284 6.815866,15.638091 7.154846,15.628726 7.3215,15.575538 7.480599,15.340753 7.325283,15.088729 7.185192,14.714599 7.648865,14.63208 7.933638,14.650426 8.125111,14.606437 8.301741,14.36038 8.206561,14.218813 7.999889,13.78514 8.463712,13.716782 8.749252,13.736969 8.761551,13.719835 8.861734,13.701291 9.140404,13.222588 8.843222,12.799598 9.201509,12.746861 9.416578,12.748169 9.424961,12.733768 9.430252,12.732848 9.791181,11.836486 9.86679,11.632727 9.793524,11.54898 9.863,11.538397 9.902699,11.535457 9.956768,11.34275 10.013522,11.431302 10.07679,11.505083 10.534179,11.428353 10.927938,11.392036 11.190336,10.324633 10.961643,10.047798 11.161668,10.015461 11.266884,10.001635 11.348096,9.617331 11.50468,9.749908 11.737829,9.932589 12.033451,9.88383 12.210349,8.659386 12.246461,8.416077 12.23553,8.397278 12.249278,8.396452 12.253147,8.376875 12.26982,8.37808 12.342454,8.392062 12.611985,8.380593 12.885579,8.3237 13.018859,7.164137 13.281452,7.08151 13.225627,6.943068 13.172242,6.843671 13.454629,6.844341 13.762982,6.791125 13.968181,5.704621 14.166998,5.580782 14.146983,5.509476 14.124397,5.445598 14.363495,5.45839 14.382337,5.446654 14.408746,5.446781 15.264443,4.98407 15.212236,4.594621 15.14194,4.235417 15.302225,4.268528 15.593241,4.306049 16.049746,3.407605 16.231864,3.297845 16.230057,3.265318 16.226952,3.235606 16.303943,3.258304 16.383962,3.215583 17.319838,2.735512 17.329692,2.565765 17.333084,2.414717 17.68139,2.565014 17.975921,2.430453 18.369957,2.255396 18.416725,1.995952 18.451388,1.781719 18.871484,2.02555 18.904121,2.044606 19.241637,1.926402 19.420632,1.864419 19.517666,1.566083 19.591082,1.333441 19.968077,1.626086 20.041839,1.684842 20.376726,1.610722 20.488852,1.585909 20.634604,1.292872 20.742812,1.069803 21.081615,1.422303 21.139534,1.484528 21.468566,1.458939 21.574176,1.450818 21.758857,1.187818 21.895064,0.98506" slic3r:type="contour"/>
    <polygon style="fill: white" points="3.428429,29.735466 3.338791,29.832664 3.839474,30.3188 4.211423,30.557274 3.67327,30.962782 3.520218,31.101607 3.553263,31.283742 3.440806,31.387307 3.659539,32.113722 3.820158,33.100355 3.920318,33.188992 3.979561,33.220395 3.855475,33.317303 3.862159,33.358358 3.839844,33.37932 3.880359,33.541212 3.948983,34.165299 3.72725,34.999431 3.486839,35.295834 3.593064,35.378872 3.592503,35.487238 3.920182,35.62152 3.819437,35.697475 3.590235,35.925808 3.5856,36.821892 3.29167,37.432601 3.530713,37.595708 3.560195,37.747251 3.980366,37.885136 3.871316,37.971668 3.650282,38.210305 3.913635,39.563964 3.839403,39.92832 3.978975,40.009968 3.998453,40.065787 4.149684,40.104244 4.116273,40.132652 4.049469,40.211987 4.232295,40.735927 4.281789,42.219572 4.366887,42.261232 4.443552,42.265368 4.28841,42.418037 4.292268,42.533684 4.261593,42.574594 4.359478,43.089304 4.474132,44.309048 4.679782,44.389796 4.866294,44.392492 4.518172,44.77755 4.541959,45.030607 4.493888,45.103735 4.789656,46.063552 4.863781,46.441957 5.159229,46.524564 5.415602,46.515024 4.988519,47.078719 5.040851,47.345868 4.998218,47.422381 5.464535,48.487776 5.479742,48.536375 5.821785,48.586168 6.118678,48.554536 5.699498,49.238627 5.771459,49.468588 5.742398,49.533059 6.31588,50.502974 6.687911,50.498992 7.001486,50.439592 6.655261,51.17876 6.647186,51.20172 6.727641,51.375963 6.717709,51.404891 7.427629,52.283835 7.793361,52.21446 8.093917,52.125136 7.853025,52.899686 7.903334,52.973202 8.732648,53.700704 8.851973,53.815764 9.191728,53.691715 9.444682,53.583236 9.337629,54.281498 10.151076,54.809375 10.548143,55.081113 10.823268,54.936708 11.013803,54.829023 11.002731,55.382853 11.682476,55.71762 12.40743,56.086899 12.607741,55.950988 12.740601,55.856068 12.780654,56.269612 13.320588,56.474592 14.315041,56.864922 14.460764,56.743356 14.555102,56.659876 14.620061,56.980606 15.072131,57.114535 16.171408,57.454801 16.298645,57.326519 16.381492,57.237988 16.473053,57.542943 16.93383,57.640768 17.999066,57.880055 18.128729,57.723608 18.213268,57.616815 18.345922,57.949815 18.871234,58.016928 19.825689,58.147305 19.9617,57.952523 20.050303,57.823128 20.23234,58.189905 20.81714,58.214996 21.672883,58.254265 21.807256,58.027703 21.895064,57.882996 22.115918,58.255691 22.697354,58.230759 23.551949,58.19143 23.664905,57.9644 23.739798,57.8231 23.968603,58.150498 24.495221,58.083332 25.436669,57.954158 25.52002,57.745695 25.57686,57.61682 25.797895,57.883036 26.263233,57.784276 27.310094,57.548443 27.367656,57.357499 27.408634,57.237984 27.626081,57.456641 28.066564,57.325995 29.16411,56.986497 29.204538,56.787595 29.235022,56.659888 29.482634,56.865828 29.995346,56.670707 31.002338,56.276842 31.026846,56.024919 31.04953,55.856068 31.392403,56.088006 32.087047,55.744708 32.775973,55.395613 32.769376,55.060879 32.776311,54.829028 33.262323,55.082889 34.168575,54.49104 34.402472,54.332388 34.433113,54.305173 34.368615,53.884184 34.34544,53.583244 34.985828,53.814242 35.865578,53.032831 35.861484,53.010187 35.908852,52.950192 35.763348,52.481843 35.696212,52.125136 36.393176,52.251356 36.449282,52.265721 37.08632,51.45889 37.062488,51.375976 37.114409,51.284983 36.897208,50.819656 36.788644,50.439552 37.458355,50.435344 37.590067,50.451382 38.071464,49.607725 38.0187,49.468576 38.066362,49.354525 37.8052,48.924364 37.671448,48.554536 38.332296,48.4392 38.448245,48.440717 38.832024,47.522373 38.749304,47.345836 38.788694,47.212487 38.513335,46.841343 38.374519,46.515043 39.059964,46.294169 39.369144,45.247513 39.248196,45.030668 39.272604,44.901595 39.039095,44.633567 38.923828,44.39248 39.410204,44.173964 39.53504,43.513823 39.571703,42.647939 39.497872,42.533728 39.505579,42.473826 39.399576,42.364792 39.346568,42.265376 39.546821,42.153254 39.582024,41.879628 39.557836,40.73586 39.747888,40.651144 39.782689,40.298436 39.640444,40.104244 39.67622,40.081399 39.808801,40.033797 39.811152,40.009968 40.345708,39.652159 40.296756,38.487104 39.809748,37.885068 39.914272,37.809104 40.261973,37.659262 40.259304,37.595736 40.639214,37.298674 40.389493,36.214719 39.86996,35.621572 39.955164,35.55144 40.207096,35.422994 40.196964,35.379016 40.47294,35.132271 40.43098,35.045164 39.841168,34.1659 39.966967,33.400827 39.928036,33.358378 39.933871,33.334361 39.859976,33.276247 39.810564,33.220322 40.010388,33.01939 40.390538,31.454567 40.236864,31.283756 40.265472,31.171438 39.886795,30.886923 39.578711,30.557336 39.842759,30.263726 40.452807,29.814647 40.361684,29.735498 40.44998,29.632961 40.52896,29.565505 40.518107,29.596119 40.615764,29.682182 40.595423,29.793384 40.585048,29.820579 41.536435,30.718743 41.685508,30.83466 41.431492,30.991586 41.480244,31.078014 41.40227,31.145871 41.597352,31.339954 41.758056,31.709046 41.62168,32.735256 41.501429,33.092797 41.552252,33.142928 41.541812,33.239712 41.85892,33.46144 41.700211,33.551592 41.489634,33.723436 41.423692,34.334755 41.188636,35.127066 41.31484,35.259996 41.30235,35.477856 41.337807,35.511523 41.899435,35.89776 41.619583,36.0395 41.216439,36.342449 41.009361,37.28886 41.20952,37.519656 41.199926,37.764984 41.300068,37.865684 41.832688,38.251088 41.533792,38.380208 41.127534,38.656341 40.94832,39.678737 41.151968,39.938804 41.13805,40.179627 41.653992,40.588616 41.402343,40.677412 41.09876,40.859487 41.076395,41.24646 40.896927,42.286267 41.0386,42.489252 41.019476,42.647121 41.34818,42.947324 41.181928,42.989296 40.964483,43.101083 40.810295,44.373876 40.685301,44.922803 40.75162,45.029796 40.733961,45.107151 40.902024,45.290716 40.811628,45.303064 40.67619,45.36021 40.288936,47.056551 40.187043,47.358103 40.220724,47.420604 40.203579,47.469217 40.310452,47.610852 40.245023,47.613896 40.140969,47.64674 39.554696,49.309043 39.42872,49.584478 39.454903,49.643552 39.43289,49.687283 39.5349,49.860344 39.459848,49.856016 39.336589,49.878589 38.624835,51.292504 38.436189,51.606353 38.458739,51.673136 38.431235,51.711374 38.536416,51.958408 38.439095,51.939428 38.263749,51.944217 37.488572,53.021891 37.186734,53.393055 37.203436,53.469768 37.175227,53.496682 37.267948,53.854576 37.138336,53.812012 36.883911,53.774635 36.144087,54.48052 35.660061,54.902926 35.667124,54.975964 35.640493,54.994442 35.695328,55.489888 35.525256,55.412383 35.194428,55.303945 34.640207,55.688492 33.936661,56.142719 33.935652,56.210176 33.909443,56.223832 33.900028,56.856584 33.693283,56.735939 33.309808,56.547431 33.30847,56.548295 33.298351,56.542225 33.013532,56.690623 32.085784,57.144962 32.078196,57.208012 32.046707,57.220607 31.953828,57.966296 31.722937,57.800359 31.302535,57.528538 31.28987,57.53474 31.279785,57.527257 30.170146,57.94559 30.156589,58.006476 30.111764,58.020446 29.931178,58.829996 29.695858,58.626096 29.270006,58.284943 29.253928,58.291004 29.248175,58.285807 28.235161,58.583414 28.214293,58.648276 28.165873,58.65911 27.908648,59.456416 27.693449,59.232479 27.303334,58.85717 27.29256,58.860335 27.285704,58.852842 26.273897,59.065398 26.249178,59.124636 26.207056,59.13032 25.892394,59.871735 25.70621,59.642268 25.368755,59.255546 25.36016,59.257352 25.350324,59.244581 24.295154,59.377609 24.270948,59.425396 24.242475,59.426681 23.887283,60.100559 23.728497,59.872215 23.44287,59.485058 23.432192,59.486404 23.417234,59.463773 22.31929,59.510146 22.29878,59.545096 22.287419,59.544582 21.895084,60.168376 21.754976,59.937296 21.508108,59.544408 21.49135,59.545116 21.46969,59.507693 20.374689,59.461512 20.357842,59.486399 20.356917,59.486274 19.902844,60.100576 19.770209,59.850535 19.546713,59.426592 19.519204,59.425432 19.491153,59.370122 18.451084,59.239198 17.897722,59.871751 17.773769,59.593395 17.57642,59.129097 17.541018,59.12464 17.511371,59.054748 16.515402,58.845602 16.462725,58.898984 15.881495,59.456424 15.773671,59.151748 15.613294,58.656166 15.575762,58.648284 15.549927,58.570663 14.5523,58.27696 14.536166,58.291016 14.532776,58.289667 14.479063,58.334995 13.858948,58.829984 13.777372,58.514519 13.665692,58.015939 13.63349,58.00646 13.615343,57.929531 12.531841,57.51882 11.836309,57.966299 11.789618,57.670007 11.732795,57.215936 11.711944,57.208032 11.700324,57.121172 10.531203,56.544165 9.890117,56.856596 9.876144,56.599835 9.870325,56.217994 9.854506,56.210187 9.851449,56.115609 9.503109,55.87644 8.641448,55.314221 8.09481,55.489916 8.105808,55.283312 8.138689,54.98618 8.122971,54.975924 8.130332,54.871887 7.500294,54.278192 6.955132,53.795779 6.522171,53.854552 6.548285,53.699243 6.603901,53.484976 6.586674,53.469732 6.606756,53.356858 5.881095,52.361896 5.570759,51.973053 5.253702,51.958428 5.285782,51.844415 5.349225,51.695476 5.331396,51.673136 5.361077,51.566743 4.682783,50.237632 4.491075,49.909934 4.255222,49.860364 4.288254,49.776143 4.350652,49.669901 4.33523,49.643539 4.37285,49.541574 3.830279,48.013295 3.684857,47.682861 3.479694,47.610904 3.515375,47.54024 3.58251,47.450306 3.56944,47.420608 3.622894,47.302375 3.317876,45.893756 3.164258,45.41848 2.88814,45.29074 2.945981,45.197888 3.054067,45.077566 3.038599,45.029708 3.154741,44.807423 3.08678,43.999111 2.911368,43.209108 2.441942,42.947364 2.56026,42.785136 2.772774,42.584923 2.751536,42.489272 2.991865,42.080369 2.81469,41.007664 2.721172,40.96822 2.136137,40.588596 2.329861,40.349872 2.660787,40.075877 2.638149,39.938808 2.873657,39.582555 2.890915,39.567005 2.77076,38.774162 2.447501,38.612863 1.957427,38.251136 2.200657,37.973604 2.603091,37.667808 2.580632,37.519611 2.773735,37.256516 2.810458,37.226685 2.680695,36.465172 2.357719,36.280888 1.890689,35.8977 2.127766,35.641044 2.495158,35.376332 2.475315,35.25988 2.653597,35.038648 2.40015,33.882977 1.931186,33.461424 2.068473,33.317968 2.247857,33.188546 2.237854,33.142934 2.347352,33.017262 2.032033,31.709274 2.469388,31.232726 2.309931,31.07804 2.347356,31.032393 2.182743,30.916739 2.104607,30.834606 2.654749,30.232442 3.209315,29.806538 3.174332,29.682158 3.230479,29.625781 3.267298,29.598055 3.256822,29.556625" slic3r:type="contour"/>
  </g></svg>