<svg width="43.790126" height="63.590156" xmlns="http://www.w3.org/2000/svg" xmlns:svg="http://www.w3.org/2000/svg" xmlns:xlink="http://www.w3.org/1999/xlink" xmlns:slic3r="http://slic3r.org/namespaces/slic3r"><g xmlns="http://www.w3.org/2000/svg" slic3r:z="1.2875e-005" id="layer38">
    <polygon style="fill: white" points="4.321639,35.340664 4.77741,35.393716 4.45685,35.685067 3.851311,36.465099 3.869535,36.756583 3.724635,36.933136 3.64707,36.899552 3.398223,36.709308 3.486839,36.465862 2.89006,36.235427 2.687451,36.08938 3.140734,35.431412 3.718968,34.935624" slic3r:type="contour"/>
    <polygon style="fill: white" points="3.702598,34.381867 3.712786,34.448204 3.662816,34.502292 3.637924,34.488563 3.571738,34.43082 3.673055,34.289272" slic3r:type="contour"/>
    <polygon style="fill: white" points="4.431113,29.837225 4.90475,30.297014 5.152599,30.457754 4.701937,30.810147 4.714639,30.862585 4.662512,30.911996 4.783283,31.283662 4.905771,32.025596 4.645435,32.289808 4.145046,32.501941 4.219246,32.559404 4.154239,32.780552 4.2591,32.864635 4.808851,33.0346 4.604675,33.213278 3.715062,34.200255 3.629444,34.152584 2.980835,33.791439 2.698132,33.549624 3.093751,33.048822 3.575394,32.673571 3.526772,32.41678 3.65713,32.263914 3.384027,31.233233 2.948617,30.80668 3.074129,30.667478 3.207131,30.565628 3.195881,30.523172 3.235461,30.484986 3.077487,30.000474 3.335324,29.921746 4.265003,29.368934" slic3r:type="contour"/>
    <polygon style="fill: white" points="7.335213,20.807289 7.736954,21.241442 7.080336,21.727766 7.34544,22.358373 7.57966,22.71717 7.206757,22.923388 6.530843,23.20057 6.94488,23.526656 7.337104,23.870666 6.774048,24.166199 6.506544,24.302243 6.626493,24.828669 6.836391,25.543096 6.708336,25.546936 6.537302,25.587607 6.723132,25.833646 6.417208,25.966828 5.890317,26.173665 5.991171,26.606528 6.148791,27.189827 5.897684,27.172996 5.291851,27.244032 5.571874,27.551705 5.875703,27.89096 5.307869,28.216893 5.410905,28.551435 5.513772,28.976848 5.071298,29.081915 4.318879,29.225084 4.114905,28.476159 3.986444,28.364542 3.579716,27.943867 3.77092,27.78818 3.902791,27.697344 3.897345,27.677348 3.902455,27.674193 3.792714,27.243556 4.016705,27.219638 4.863944,27.033507 4.490391,25.56232 4.471817,25.482792 5.074541,25.291821 5.414646,25.124143 5.263821,24.551056 5.111675,23.901502 5.373921,23.832319 5.255223,23.711631 5.184568,23.661894 5.737951,23.471412 6.396386,23.093531 5.680037,21.687323 5.62428,21.578013 5.752593,21.518602 5.676055,21.449756 5.642476,21.407909 6.18351,20.891472 6.810122,20.337818" slic3r:type="contour"/>
    <polygon style="fill: white" points="22.2235,0.591081 22.258714,0.588587 22.294677,0.641775 22.684149,0.668916 22.730192,0.617554 22.77268,0.626435 22.966389,0.415337 23.162124,0.200879 23.41113,0.691119 23.426448,0.721313 23.457196,0.723492 23.48208,0.774715 23.876585,0.857176 23.931096,0.812306 23.977172,0.828523 24.199996,0.647429 24.424131,0.465855 24.607935,1.011862 24.629422,1.01642 24.643949,1.063197 25.080633,1.216889 25.138708,1.18287 25.183549,1.20532 25.424074,1.064635 25.660022,0.929681 25.751871,1.454136 25.761528,1.457551 25.767431,1.497634 26.183386,1.705877 26.312314,1.769868 26.365264,1.749519 26.401929,1.773553 26.632095,1.683511 26.845608,1.605386 26.855494,2.070869 27.161796,2.271653 27.593942,2.548157 27.630818,2.540216 27.653206,2.558597 27.813567,2.52143 27.951864,2.494105 27.917646,2.775705 28.090327,2.917478 28.920465,3.577469 28.926809,3.576995 28.930135,3.580346 28.954572,3.577789 28.974574,3.576488 28.964912,3.615378 28.988002,3.638637 29.108725,3.756902 29.394094,4.571258 29.520548,4.842944 29.911764,4.861288 29.85154,5.02052 29.736052,5.305953 29.742134,5.319019 29.66208,5.539176 29.860062,6.137288 29.94114,6.152293 29.992749,6.231547 30.389191,6.278564 30.756833,6.335764 30.577067,6.680848 30.444289,6.924943 30.745692,7.387785 31.01885,7.848119 31.078154,7.863679 31.10149,7.909957 31.271619,7.943267 31.45686,7.983339 31.276654,8.257333 31.412116,8.525976 31.893496,9.579802 31.907297,9.583693 31.911838,9.595223 31.953059,9.604084 32.008464,9.616727 31.950613,9.693677 31.987482,9.787294 32.493134,11.059986 32.916972,12.180807 32.955366,12.194844 32.968365,12.197139 33.034962,12.21066 32.973401,12.310025 33.130795,12.864589 33.180603,13.012888 33.346755,13.084697 33.349846,13.095181 33.508751,13.124037 33.980528,13.248699 33.958007,13.475105 33.872711,13.656095 33.977816,13.650698 33.949002,13.821951 34.069948,13.818401 34.406076,13.591464 34.434063,13.955059 34.549239,14.400958 34.748464,14.482691 34.759418,14.551576 34.97252,14.615419 35.6631,14.893379 35.699052,15.026272 35.697921,15.067429 35.736204,15.076637 35.738105,15.115375 35.876168,15.110627 35.846868,15.162912 35.764555,16.369501 35.919351,16.447 35.916492,16.471698 36.560904,16.801742 36.93946,16.924208 36.627279,17.297466 36.547561,17.531665 36.708304,17.654208 36.689484,17.690332 36.975187,17.832825 37.381844,18.157216 37.36888,18.595436 37.329697,18.787601 37.37302,18.8187 37.37104,18.825573 37.665672,19.000656 37.5463,19.098249 37.088723,19.723643 36.8697,20.242964 35.858172,19.620946 35.685688,19.529162 35.780799,19.282869 35.683907,19.233738 35.606372,19.18616 35.834149,18.846595 35.936555,18.071215 35.912924,18.06139 35.886581,17.820185 35.443476,17.691848 35.01006,17.518876 35.169104,17.179935 35.364857,16.798423 35.2919,16.760576 35.333203,16.58549 35.027409,16.437225 34.338036,16.36573 34.367056,16.237122 34.395194,16.130696 34.363443,16.115302 34.364727,15.983163 33.75158,15.806793 33.736679,15.594499 33.66042,15.606383 33.647913,15.563073 33.598128,15.580675 33.542557,15.593971 33.38545,14.768835 33.14825,14.819847 33.068557,14.573597 32.847656,14.661658 32.50516,14.755986 32.405336,14.32753 32.383285,14.193497 32.315364,14.18065 32.250702,14.004596 31.669716,13.873573 31.421312,13.823835 31.439566,13.77793 31.417093,13.779444 31.420537,13.754823 31.360222,13.7455 31.166552,12.983177 31.151146,12.873858 31.13773,12.870082 31.069522,12.71299 31.039727,12.703334 30.669344,12.609806 30.828527,12.36064 30.855343,12.21971 30.769608,12.022253 30.691313,11.768651 30.667773,11.72309 30.30737,11.644756 30.474145,11.446804 30.50497,11.407986 29.904312,10.245424 29.89156,10.242101 29.90723,10.186806 30.231644,9.3465 29.957921,8.810865 29.910955,8.798436 29.49187,8.72117 29.643554,8.544797 29.712167,8.448128 29.013388,7.466045 29.031047,7.266186 28.976869,7.258296 28.92718,7.255176 29.037644,7.078913 28.902722,5.999298 28.515318,5.990617 28.221378,5.997095 28.362514,5.672589 28.470524,5.389296 27.943907,4.84152 27.895879,4.84659 27.426176,4.904439 27.486869,4.688975 27.536022,4.496588 27.165938,4.193955 26.853173,3.926854 26.581956,3.994419 26.599738,3.87154 26.613729,3.760379 25.924698,3.310881 25.809859,3.232859 25.706896,3.274719 25.707474,3.223584 25.70682,3.177385 24.801078,2.741331 24.79899,2.74258 24.798683,2.74032 24.762669,2.728544 23.935617,2.322794 23.881952,2.364775 23.856196,2.385902 23.821528,2.279092 23.709792,2.253116 22.994008,2.065653 22.920003,2.143511 22.885696,2.180551 22.810137,2.033152 22.653662,2.022677 21.9981,1.971956 21.92694,2.071083 21.895064,2.115566 21.790389,1.969937 21.626334,1.980923 20.983751,2.030787 20.928973,2.13537 20.904432,2.18055 20.78975,2.061581 20.647439,2.094602 19.973604,2.273739 19.94617,2.353432 19.933904,2.385906 19.848016,2.320468 19.765711,2.357107 19.026834,2.728763 18.991514,2.740184 18.991104,2.742572 18.988868,2.741271 18.164282,3.132564 18.08526,3.173119 18.083252,3.274711 18.034205,3.254988 17.976587,3.231622 17.358531,3.628866 17.178597,3.751661 17.20817,3.994419 17.082167,3.96382 16.923992,3.92465 16.562876,4.21323 16.256984,4.476491 16.363937,4.904465 16.123753,4.881469 15.799278,4.84368 15.777323,4.864156 15.317631,5.349887 15.446084,5.666026 15.568744,5.997084 15.16672,6.015413 14.835945,6.013857 14.738236,6.589374 14.732768,7.00869 14.736973,7.016344 14.737018,7.024265 14.835052,7.198563 14.86295,7.255145 14.738464,7.278748 14.738984,7.370225 14.776749,7.465991 14.263793,8.082236 14.071743,8.395045 14.298261,8.721164 14.015533,8.808738 13.706019,8.875013 13.683427,8.90739 13.433773,9.422752 13.483788,9.6749 13.894794,10.228616 13.88702,10.239665 13.890578,10.244128 13.883463,10.246442 13.384805,11.08202 13.265897,11.369653 13.48274,11.644767 13.204814,11.716896 13.113947,11.737203 13.109419,11.748157 13.026738,11.779536 12.966647,11.914044 12.980407,12.392933 13.031859,12.473034 13.120765,12.609818 12.755151,12.785494 12.673054,12.805468 12.652397,12.870082 12.595449,12.894496 12.429935,13.745433 12.371059,13.720847 12.372998,13.779414 12.366422,13.778696 12.368774,13.823862 11.70657,14.064845 11.499754,14.095069 11.47473,14.180676 11.381161,14.21298 11.284928,14.756012 10.771442,14.535554 10.641861,14.819829 10.474591,14.779832 10.430786,15.081543 10.284758,15.336141 10.27232,15.415014 10.247552,15.593999 10.156726,15.559364 10.115507,15.631227 10.114347,15.666179 10.038602,15.806742 9.588412,16.062117 9.425775,16.095657 9.426679,16.115302 9.392446,16.142389 9.45209,16.36573 9.257738,16.367818 9.093566,16.378871 8.987778,16.462574 8.464237,16.633461 8.498244,16.760595 8.419581,16.81384 8.483606,16.94567 8.78006,17.518888 8.190031,17.68805 7.945117,17.774058 7.875855,18.067123 7.96524,18.610329 7.985956,18.886114 8.112261,19.076396 8.183758,19.18619 8.006794,19.276132 8.059194,19.411791 8.104441,19.529194 7.591504,19.879104 6.920436,20.2429 6.793367,19.883322 6.469529,19.561082 6.124473,19.000673 6.263158,18.887838 6.497602,18.749658 6.408311,18.157174 7.027333,17.836375 7.127275,17.771583 7.081801,17.65415 7.159931,17.606959 6.904909,17.208362 6.850664,16.924208 7.345586,16.595488 7.95757,16.389894 8.000397,16.361697 7.825719,15.85725 7.913958,15.110626 7.984343,15.078057 8.059373,15.074284 8.127571,15.044835 8.127027,14.893379 8.992166,14.604786 9.041668,14.482672 9.094869,14.467405 9.122096,14.108902 9.384071,13.591442 9.58627,13.55146 9.870349,13.639818 10.07225,13.60203 9.809606,13.248685 10.420481,13.121757 10.443372,13.084699 10.484443,13.072465 10.538778,12.812717 10.812876,12.265261 10.755167,12.210683 10.848699,12.193713 10.851112,12.188893 10.864115,12.185169 10.887353,12.107609 11.281341,11.101214 11.315099,11.069756 11.3014,11.05719 11.317818,11.052963 11.316885,11.009764 11.841142,9.688729 11.819849,9.660789 11.781675,9.616761 11.877873,9.596173 11.88281,9.583734 11.901063,9.578756 12.003925,9.370852 12.52578,8.260066 12.444059,8.137308 12.333262,7.983334 12.687753,7.915298 12.712005,7.86368 12.791033,7.843357 13.364115,6.943556 13.206803,6.645104 13.033277,6.335764 13.388764,6.297126 13.794482,6.241034 13.848931,6.152262 13.896261,6.14419 14.104703,5.470198 14.048,5.318996 14.05978,5.289939 13.87836,4.861305 14.027479,4.861346 14.236162,4.854873 14.681159,3.757246 14.826756,3.613254 14.815548,3.576515 14.858824,3.581541 14.863395,3.577021 14.868585,3.577482 14.925206,3.53121 15.877861,2.766244 15.875711,2.753266 15.876816,2.752544 15.860144,2.624112 15.838262,2.494127 16.129266,2.56437 16.159335,2.540225 16.190702,2.547342 16.532687,2.323768 16.936932,2.063589 16.936425,2.03858 16.943236,2.035172 16.946544,1.823735 16.944496,1.605408 17.379785,1.778562 17.424876,1.749541 17.474999,1.769115 17.952706,1.530103 18.023366,1.494987 18.028584,1.457554 18.043268,1.452386 18.087653,1.19469 18.130074,0.929681 18.602219,1.207316 18.651406,1.182871 18.710626,1.217485 19.146076,1.064213 19.160694,1.016502 19.184025,1.011625 19.274918,0.74077 19.366014,0.465855 19.812304,0.828861 19.859064,0.812333 19.915868,0.858628 20.307227,0.776812 20.33294,0.723479 20.363897,0.721322 20.49568,0.461833 20.628004,0.200879 21.018929,0.626312 21.05997,0.617605 21.107106,0.669532 21.495381,0.642475 21.531414,0.588586 21.56817,0.591147 21.73114,0.356001 21.895064,0.118014" slic3r:type="contour"/>
    <polygon style="fill: white" points="38.055996,21.326298 38.147652,21.407968 38.008858,21.520853 38.124399,21.57203 38.165848,21.578068 37.725639,22.4434 37.393778,23.093728 38.462508,23.580828 38.605568,23.661884 38.422149,23.869519 38.564924,23.902792 38.678472,23.90153 38.454456,24.520729 38.343179,25.073429 39.256972,25.456916 39.298552,25.476554 39.274896,25.506071 39.312256,25.508893 39.080696,26.290049 38.920542,27.019774 39.343507,27.07665 39.997439,27.243584 39.945227,27.474742 39.897837,27.655616 39.884489,27.713238 40.210432,27.94389 40.023936,28.097147 39.728793,28.385359 39.716096,28.440171 39.471152,29.225116 38.688784,29.051298 38.276352,28.976801 38.500314,28.215645 38.233068,28.060446 37.91442,27.890898 38.133531,27.651748 38.457357,27.292233 38.342236,27.293788 37.641336,27.189795 37.861771,26.270256 37.894754,26.138474 37.585591,25.999795 37.066972,25.833634 37.161387,25.742224 37.259307,25.622152 36.953735,25.543132 37.096452,24.954793 37.268251,24.286455 36.891252,24.088178 36.45302,23.870666 36.774572,23.622899 37.270496,23.199871 36.665251,22.893253 36.210464,22.717154 36.663615,21.718894 36.377644,21.50839 36.053172,21.24141 36.388007,20.966914 36.980036,20.337838" slic3r:type="contour"/>
    <polygon style="fill: white" points="40.161643,29.597424 40.712652,30.000522 40.647564,30.310962 40.575609,30.507364 40.594264,30.523144 40.580397,30.602735 40.8415,30.806632 40.70294,30.894273 40.497665,31.077605 40.418699,31.530854 40.150544,32.306529 40.263375,32.416808 40.23302,32.756486 40.667115,33.217053 41.092004,33.549664 40.619452,33.778152 40.07498,34.200244 39.44688,33.654336 38.981288,33.034575 39.112156,32.912243 39.638889,32.663085 39.570876,32.559432 39.715049,32.428007 39.410668,32.197958 38.884388,32.025652 39.165872,30.961907 39.075524,30.862596 39.08281,30.838393 38.86562,30.672262 38.637544,30.457739 38.972299,30.089848 39.407959,29.758431 39.525212,29.368986" slic3r:type="contour"/>
    <polygon style="fill: white" points="40.171024,34.335956 40.21852,34.430704 40.127356,34.50224 40.105791,34.484316 40.077332,34.4481 40.117112,34.289028" slic3r:type="contour"/>
    <polygon style="fill: white" points="40.848268,35.871376 41.102664,36.0894 40.514552,36.256655 40.341086,36.368689 40.391932,36.709264 40.065496,36.933096 40.005371,36.880444 39.920588,36.75656 39.961732,36.51754 39.377732,35.98116 39.012724,35.393732 39.275615,35.186036 40.07112,34.935656" slic3r:type="contour"/>
    <polygon style="fill: white" points="40.665392,38.224472 40.933824,38.482236 40.367968,38.559543 39.939472,38.786645 39.986432,38.927116 39.954312,39.197804 39.849837,39.258677 39.950936,39.407336 39.903788,39.820587 39.895963,39.856904 40.25006,40.397428 40.612068,40.791739 40.141787,40.804788 39.645624,41.018781 39.497646,41.705574 39.685116,42.010552 39.613772,42.364626 39.686176,42.487476 40.151112,43.068388 39.790932,43.052076 39.429299,43.177326 39.090901,44.288296 39.21236,44.509376 39.133982,44.759968 39.556272,45.365276 39.260419,45.337316 38.926205,45.424292 38.854692,45.652939 38.433411,46.674597 38.518431,46.856808 38.439125,47.030696 38.787604,47.632024 38.516364,47.587884 38.160178,47.642321 38.022907,47.9433 37.531188,48.834712 37.593292,49.004532 37.512848,49.127622 37.809876,49.793604 37.531356,49.72396 37.117108,49.733154 37.007583,49.90074 36.386103,50.734203 36.42816,50.90578 36.352282,50.9861 36.585288,51.775188 36.277136,51.663284 35.773751,51.594334 34.995909,52.342101 35.0148,52.495915 34.953459,52.54317 34.973304,52.720908 35.090599,53.484152 34.741496,53.313596 34.165577,53.132451 33.420536,53.66268 33.421898,53.8 33.373416,53.827838 33.373828,54.264408 33.393092,54.912372 33.007155,54.672151 32.386986,54.370918 31.719859,54.728193 31.707984,54.851539 31.665008,54.870132 31.595306,55.538867 31.551691,56.069884 31.143841,55.754939 30.515868,55.342313 29.946991,55.57257 29.924946,55.683743 29.880458,55.698218 29.71051,56.522151 29.628378,56.964756 29.222726,56.581736 28.625911,56.083087 28.13891,56.231388 28.107816,56.336096 28.066658,56.345378 27.808055,57.192508 27.689916,57.602128 27.315319,57.173295 26.774437,56.618618 26.292513,56.719963 26.257778,56.808828 26.225577,56.81306 25.908845,57.605224 25.749588,58.014104 25.415511,57.560175 24.939556,56.971087 24.418978,57.034594 24.385937,57.103696 24.366931,57.1045 24.019828,57.816263 23.816328,58.234259 23.520839,57.767331 23.104645,57.154579 22.536338,57.176895 22.508925,57.22618 22.506113,57.226061 22.136293,57.879464 21.895064,58.29662 21.62835,57.817456 21.286078,57.225988 21.2812,57.22618 21.253918,57.176281 20.688474,57.154092 20.233296,57.851779 19.97383,58.234259 19.72685,57.728496 19.423015,57.104435 19.404192,57.103696 19.370126,57.032864 18.854107,56.969946 18.309352,57.681003 18.04054,58.014104 17.820222,57.473844 17.562859,56.812503 17.532362,56.808784 17.509465,56.751935 17.496634,56.717907 17.018772,56.617345 16.381327,57.313679 16.100211,57.602127 15.919027,57.033012 15.720916,56.344223 15.682353,56.336108 15.665183,56.281663 15.650657,56.228957 15.167883,56.081533 14.47513,56.703071 14.161749,56.964764 14.03332,56.387715 13.905746,55.696116 13.865193,55.683732 13.848437,55.607831 13.841575,55.567921 13.283261,55.340596 12.626553,55.815375 12.238435,56.069883 12.171482,55.520544 12.118691,54.866422 12.082109,54.851528 12.065802,54.716742 11.426456,54.371461 10.887012,54.67578 10.397047,54.912392 10.386065,54.412272 10.404885,53.819758 10.368232,53.799964 10.3649,53.639682 9.6743,53.142795 9.295096,53.300116 8.699537,53.484164 8.734354,53.042368 8.815545,52.52492 8.775305,52.495967 8.791368,52.299677 8.104496,51.629858 7.880878,51.689948 7.204842,51.775188 7.275507,51.389404 7.407346,50.950016 7.362,50.905796 7.408293,50.661061 6.785697,49.809738 6.692232,49.822803 5.980253,49.793551 6.077398,49.447064 6.246661,49.072671 6.196832,49.004536 6.277141,48.72808 5.755018,47.756356 5.701594,47.75848 5.002521,47.632024 5.123882,47.295832 5.323985,46.954154 5.271679,46.856808 5.389581,46.541906 4.997511,45.560349 4.874106,45.55564 4.233842,45.365296 4.39026,44.999804 4.634703,44.652051 4.577736,44.509432 4.736514,44.150411 4.487795,43.307766 4.174391,43.277856 3.638994,43.068324 3.853185,42.624255 4.169813,42.230465 4.104933,42.010655 4.251599,41.714372 4.313174,41.639208 4.194259,41.079342 3.555824,40.974852 3.17806,40.791724 3.483276,40.222016 3.912835,39.754364 3.839133,39.407364 3.92283,39.25434 3.835826,39.197808 3.878665,38.829446 3.103998,38.629184 2.856314,38.4822 3.256766,37.820243 3.820262,37.278563 4.423242,37.6144 4.917657,37.616456 4.672437,37.852632 3.982182,38.856208 3.937019,38.844533 3.980489,39.099116 3.984969,39.24793 4.517543,39.463792 4.704008,39.79883 5.20456,39.775112 5.105817,39.878115 4.916651,40.180898 5.486873,41.205459 5.561825,41.940255 5.637379,41.936288 5.569239,42.012941 5.573961,42.059228 5.560119,42.083153 5.617946,42.270288 5.962266,44.107435 6.06374,44.13216 6.19973,44.12352 6.010973,44.36731 6.03237,44.481476 6.004279,44.534698 6.208172,45.022795 6.564937,46.244801 6.71641,46.264744 6.903753,46.24422 6.670264,46.605569 6.707639,46.733588 6.685023,46.782932 7.009672,47.366332 7.392385,48.260865 7.569013,48.259767 7.774981,48.220744 7.558403,48.648909 7.605617,48.759264 7.595301,48.787329 8.002869,49.331864 8.462099,50.075201 8.637478,50.044367 8.833823,49.98416 8.678534,50.425535 8.730925,50.510338 9.167227,50.929831 9.794331,51.617356 9.952523,51.561324 10.113757,51.488508 10.03611,51.88243 10.060288,51.908939 10.480789,52.209115 11.350924,52.89187 11.469963,52.829183 11.58395,52.760104 11.564897,53.05981 11.912862,53.247176 13.050355,53.90762 13.126022,53.854671 13.196277,53.800244 13.207154,53.997069 13.44811,54.095268 14.806912,54.68947 14.852588,54.649264 14.894629,54.60872 14.915478,54.735872 15.081693,54.786827 16.545382,55.269125 16.583508,55.227904 16.619271,55.186268 16.649855,55.301947 16.810511,55.335947 18.280287,55.671823 18.322596,55.616575 18.362802,55.561472 18.412726,55.699192 18.612007,55.723639 20.027288,55.911882 20.075692,55.836579 20.122049,55.76348 20.197968,55.929533 20.44221,55.939176 21.797399,55.99694 21.847139,55.905892 21.895064,55.820908 21.991645,55.997614 22.249488,55.987439 23.589007,55.930229 23.628886,55.842899 23.668082,55.76348 23.764514,55.913529 23.991292,55.885727 25.373568,55.701186 25.400262,55.627356 25.427354,55.561472 25.513085,55.673487 25.696367,55.63468 27.136611,55.304705 27.153145,55.241804 27.170884,55.186244 27.24868,55.270384 27.405511,55.222176 28.870731,54.739797 28.882031,54.670048 28.895522,54.608724 28.988495,54.690531 29.173304,54.614791 30.576825,54.004415 30.582554,53.896091 30.593854,53.800272 30.74931,53.908854 31.043736,53.749031 32.201507,53.082635 32.201589,53.0783 32.215026,53.068594 32.204299,52.907475 32.206184,52.760124 32.458762,52.892542 32.894044,52.578131 33.71807,51.938784 33.71672,51.923324 33.738619,51.901888 33.695832,51.688812 33.676368,51.488508 34.033331,51.613401 34.564688,51.093268 35.072238,50.543177 35.06416,50.502344 35.092757,50.463088 35.006856,50.221776 34.956336,49.984128 35.38884,50.056646 35.907955,49.34404 36.212303,48.853894 36.184504,48.759252 36.213882,48.704505 36.093195,48.467727 36.01516,48.22076 36.475672,48.21665 36.899268,47.427267 37.132988,46.872014 37.082456,46.733587 37.107038,46.672127 36.975512,46.469296 36.886356,46.244212 37.304312,46.178927 37.587819,45.470132 37.817691,44.625748 37.757752,44.481483 37.773387,44.428617 37.665559,44.289259 37.590387,44.123552 37.888287,44.040113 38.0276,43.569063 38.245915,42.125629 38.216136,42.059255 38.220472,42.038629 38.180887,41.99386 38.152716,41.936316 38.249781,41.899223 38.277916,41.765399 38.30324,41.205464 38.819813,41.68139 38.916591,41.644408 39.071086,40.697962 38.989868,40.611015 38.585592,39.77508 38.694568,39.717272 39.244238,39.637231 39.272556,39.46376 39.725432,39.250532 39.801849,39.240348 39.850983,38.898538 39.236916,38.293643 38.872472,37.616508 39.111948,37.460004 39.969952,37.27856" slic3r:type="contour"/>
  </g></svg>