<svg width="43.790126" height="63.590156" xmlns="http://www.w3.org/2000/svg" xmlns:svg="http://www.w3.org/2000/svg" xmlns:xlink="http://www.w3.org/1999/xlink" xmlns:slic3r="http://slic3r.org/namespaces/slic3r"><g xmlns="http://www.w3.org/2000/svg" slic3r:z="1.0565e-005" id="layer31">
    <polygon style="fill: white" points="33.220952,49.761836 34.35778,50.215912 34.549876,51.644644 34.5666,51.7358 33.967255,51.438863 33.365891,51.263842 33.3703,51.379376 33.278646,51.351496 33.277998,51.348276 33.2776,51.344172 33.361326,51.25888 33.195125,50.497959 33.11096,49.724772" slic3r:type="contour"/>
    <polygon style="fill: white" points="34.389767,48.250403 35.092307,48.414532 35.086948,48.340248 35.598816,48.40924 35.65468,48.42098 35.676264,48.498632 35.600646,48.584912 35.923379,49.818927 35.987507,50.013183 35.416543,49.810772 34.759723,49.737144 34.495279,49.033916 34.310468,48.238232" slic3r:type="contour"/>
    <polygon style="fill: white" points="36.538873,46.427647 36.63954,46.433132 36.705792,46.593016 36.627893,46.720077 37.028895,47.751223 37.153852,48.007924 36.611207,47.882815 35.92414,47.913964 35.871834,47.816171 35.789536,47.934519 35.789536,47.93452 35.789535,47.93452 35.789536,47.934519 35.782229,47.648642 35.57998,47.270508 35.304692,46.479088 35.365031,46.477852 35.753174,46.511858 35.751792,46.457744 36.539559,46.426303" slic3r:type="contour"/>
    <polygon style="fill: white" points="38.130092,42.109044 38.071979,42.311994 38.651076,43.292204 38.805211,43.496724 38.26516,43.448976 37.794502,43.576062 37.677804,43.81452 37.505787,43.857734 37.35501,44.263149 37.419984,44.258668 37.523224,44.450984 37.452345,44.617005 37.917899,45.550755 38.081919,45.811844 37.554504,45.73664 36.828139,45.861063 36.545016,46.415616 36.523737,45.351111 36.456815,45.252971 36.115772,44.486176 36.177692,44.476136 36.506093,44.468404 36.50492,44.409728 37.280563,44.268284 37.33604,44.264457 37.315281,43.263178 37.132148,43.039356 36.755404,42.317956 36.848732,42.292207 37.294189,42.245823 37.292136,42.14678 37.901808,41.965276 38.02436,41.945032" slic3r:type="contour"/>
    <polygon style="fill: white" points="37.133516,24.533474 37.514616,24.711232 37.904972,24.746992 37.874964,24.812549 37.863328,24.873884 37.953648,24.916012 37.915275,24.96814 37.822722,25.059331 37.688482,25.22839 37.58114,25.452215 37.464862,26.0289 38.422984,26.395552 38.560988,26.459168 38.450532,26.609433 38.538751,26.623807 38.625316,26.634388 38.388044,27.332953 38.24605,27.93695 39.152974,28.487986 39.163039,28.489268 39.181262,28.501733 39.336132,28.530306 39.318259,28.595444 39.368736,28.629972 39.340499,28.651886 39.299421,28.687728 39.113836,29.616566 38.953602,30.22746 38.980948,30.248506 38.963395,30.452208 39.850796,31.231144 39.989692,31.335554 39.748414,31.451591 39.810576,31.488786 39.56504,31.669395 39.894412,31.734868 40.043124,31.949796 39.930868,33.234871 39.864475,33.544698 39.911832,33.594555 39.905258,33.743224 40.160323,33.969464 39.997211,34.004819 39.890953,34.066704 39.831463,35.411928 39.748513,35.922249 39.815156,36.003252 39.805971,36.178782 40.062132,36.432424 39.892135,36.442448 39.789659,36.490509 39.6975,38.251728 39.649753,38.559099 39.681612,38.602503 39.674149,38.678358 39.783172,38.798424 39.710051,38.795844 39.660706,38.81501 39.518343,40.262136 39.169533,40.874006 39.292791,41.059679 39.359828,41.137824 39.032218,41.114878 38.930731,41.2929 38.119588,41.555076 38.060052,41.487744 38.003184,41.371596 38.048256,41.147213 37.617664,40.689636 37.241128,40.038555 37.408556,39.97788 38.180904,39.858759 38.177664,39.650576 38.363305,39.578808 38.456146,39.116614 38.41504,39.073752 38.266768,38.789915 38.294013,38.613903 37.936319,38.263163 37.599884,37.726456 37.90428,37.595908 38.466944,37.496713 38.60502,36.604694 38.402128,36.251352 38.418761,36.132528 38.120855,35.857619 37.817487,35.418732 38.216287,35.216696 38.557361,35.142478 38.691304,34.185685 38.494396,33.889304 38.507704,33.807347 38.19476,33.53487 37.845916,33.099804 38.167504,32.897891 38.681359,32.737887 38.810117,31.944929 38.642588,31.742702 38.654669,31.691581 38.183044,31.311442 37.65324,30.793192 37.618471,30.774374 37.60952,30.776376 37.612321,30.752817 37.606259,30.748308 37.613083,30.742889 37.971344,29.126231 37.535724,28.867368 37.037356,28.613078 37.149155,28.504716 37.298798,28.3643 36.912344,28.280848 37.052148,27.700141 37.193408,27.15048 36.866016,27.003838 36.398968,26.885116 36.593819,26.695652 36.801374,26.43683 36.147564,26.240432 36.317322,25.564173 36.103663,25.461741 35.849463,25.365248 36.362843,24.963266 36.508844,24.801214 36.553132,24.624783 36.62128,24.380082" slic3r:type="contour"/>
    <polygon style="fill: white" points="37.256043,23.211328 37.620244,23.44372 37.12036,23.803557 36.57592,24.25333 36.015811,24.03226 35.529772,23.689522 35.917147,23.46567 36.531376,22.977484" slic3r:type="contour"/>
    <polygon style="fill: white" points="36.845355,20.937538 36.924331,20.978373 37.55514,21.331796 37.474584,21.448863 37.401644,21.54702 37.609832,21.878716 37.477087,21.977988 36.679296,22.78362 36.233407,22.292651 36.015606,21.999669 35.625236,21.76465 35.539428,21.689934 35.6999,21.547891 35.635036,21.467908 35.53688,21.36247 36.034628,21.045641 36.467735,20.446012" slic3r:type="contour"/>
    <polygon style="fill: white" points="36.366344,18.086795 36.521816,18.156982 37.141424,18.527927 37.110688,18.618739 37.078121,18.683996 37.211,18.8031 37.154583,18.857958 36.429692,19.946916 35.949216,19.583772 35.882778,19.529518 35.334788,19.241496 35.240428,19.185566 35.339201,19.050285 35.257463,18.992259 35.18616,18.940218 35.560956,18.326277 35.867212,17.656806" slic3r:type="contour"/>
    <polygon style="fill: white" points="22.041202,0.337661 22.04919,0.337146 22.06487,0.359452 22.311228,0.376417 22.980778,0.419594 23.003068,0.395568 23.012856,0.397545 23.131411,0.266375 23.18679,0.206826 23.311114,0.440895 23.317121,0.441282 23.327586,0.461115 23.569492,0.509976 24.237811,0.637577 24.269789,0.611956 24.283232,0.61648 24.411628,0.50756 24.473676,0.457717 24.564535,0.699956 24.565779,0.700194 24.570418,0.713137 24.783726,0.784928 25.515611,1.016144 25.553514,0.994674 25.568023,1.00159 25.680425,0.93075 25.736912,0.898433 25.783497,1.104324 25.929415,1.173893 26.847793,1.580338 26.870294,1.5722 26.877934,1.576979 26.928514,1.554718 26.95492,1.544936 26.961794,1.62945 27.012832,1.661382 27.428953,1.90174 27.93165,2.378721 27.99172,2.430688 28.095368,2.410394 28.0914,2.450756 28.083606,2.510177 28.090456,2.516102 28.088035,2.561608 28.632947,3.298251 28.812266,3.510073 29.160316,3.487074 29.131002,3.619989 29.076883,3.822656 29.09787,3.847447 29.070285,4.007281 29.221676,4.276159 29.53682,4.744889 29.595802,4.743425 30.166742,4.763791 30.090645,4.99882 29.951919,5.362286 29.985836,5.412732 29.922095,5.646788 30.221321,6.160985 30.683035,6.183765 31.132058,6.236433 30.994492,6.570521 30.752661,7.074053 30.800802,7.15678 30.788121,7.193037 31.061658,7.617208 31.302774,7.661477 31.372356,7.799151 31.724225,7.837465 32.067394,7.897525 31.865327,8.319802 31.743837,8.534154 32.167677,9.372752 32.377398,9.414807 32.424482,9.537173 32.66686,9.574848 32.970338,9.639676 32.737824,10.08998 32.6755,10.189544 33.018243,11.080297 33.23495,11.121843 33.27418,11.261664 33.508182,11.309092 33.887428,11.400886 33.704979,11.763688 33.503343,12.078417 33.532852,12.183589 33.577556,12.233847 33.559738,12.279415 33.592836,12.397377 34.547005,13.126067 34.927588,13.233121 34.897928,13.309921 34.864618,13.368624 34.889544,13.38766 34.88003,13.417692 35.090272,13.494309 35.0543,13.744996 35.039385,15.040523 35.269156,15.129283 35.25688,15.200042 35.60438,15.321578 36.12028,15.567605 36.072024,15.789074 36.003388,15.949441 36.04378,15.977761 36.038027,15.993987 36.400916,16.195188 36.28006,16.388271 35.891972,17.563292 35.167099,17.213965 34.509172,16.824506 34.557556,16.708505 34.600639,16.607429 34.618834,16.487334 34.316668,16.399986 34.432771,16.093335 34.608819,15.52522 34.56778,15.508919 34.610883,15.24591 34.06874,15.073783 33.542784,14.814344 33.544328,14.452141 33.573512,14.200446 33.551126,14.193079 33.515894,14.050356 33.436357,14.024115 33.010602,13.964489 33.187558,13.678384 33.303743,13.316635 33.229684,13.304321 33.313889,13.077119 33.301002,12.955049 32.822702,12.806502 32.052874,12.266448 31.999468,12.124546 31.98953,12.081835 31.934846,12.075842 31.967139,12.048915 31.122303,10.421967 31.110392,10.390021 31.082039,10.387304 31.096732,10.372371 31.01226,10.240592 30.632075,8.813757 30.394112,8.767382 30.258294,8.762843 30.514988,8.374327 30.490646,8.282972 30.524775,8.21781 30.235404,7.298372 29.719835,7.236981 29.408482,7.240391 29.586233,6.916491 29.766631,6.463664 29.345048,5.927926 29.315129,5.927723 29.270638,5.88872 29.002192,5.880952 28.5444,5.917512 28.64064,5.692318 28.728591,5.41353 28.560236,5.26594 28.067634,4.767012 28.060141,4.76775 28.02533,4.74403 27.671104,4.805796 27.705859,4.691376 27.736254,4.547048 26.798749,3.908215 26.78995,3.910838 26.791238,3.903044 26.75672,3.88531 26.063049,3.156447 25.966711,3.195212 25.88828,3.233229 25.887908,2.987725 25.60452,2.817925 25.224531,2.558796 25.063964,2.655701 24.943592,2.735841 24.877105,2.351414 24.449318,2.192547 24.277939,2.121194 24.087632,2.279961 23.956996,2.394507 23.808103,1.961201 23.327282,1.866664 23.249176,1.849737 23.058964,2.060048 22.937496,2.197459 22.715995,1.769477 22.224549,1.741376 22.170515,1.738023 21.999012,1.98427 21.895064,2.135245 21.615758,1.735495 21.120974,1.763799 21.077746,1.766485 20.938409,2.034649 20.85263,2.197461 20.528407,1.841285 20.052095,1.934963 19.994433,1.947532 19.895686,2.228672 19.83314,2.394507 19.485516,2.10866 19.074791,2.260909 18.931165,2.321898 18.881211,2.588124 18.846536,2.735839 18.527711,2.549009 18.234341,2.723482 17.920902,2.947947 17.920466,2.95321 17.915566,2.957608 17.910904,3.138686 17.901846,3.233236 17.695604,3.155002 17.55253,3.283396 17.033231,3.885448 16.999543,3.900183 17.000174,3.910842 16.98523,3.90827 16.278599,4.31746 16.062256,4.495035 16.119021,4.805767 15.983373,4.80028 15.73178,4.766288 15.730037,4.767719 15.631433,4.761044 15.491419,4.867504 15.064455,5.312841 15.103751,5.416767 15.245715,5.917508 14.964806,5.937123 14.483317,5.918983 14.474976,5.927684 14.374493,5.93186 14.017284,6.396822 14.263682,6.910635 14.381649,7.240391 13.952349,7.314504 13.460035,7.333286 13.197246,8.066576 13.29948,8.282971 13.293977,8.296276 13.477091,8.624562 13.531827,8.762844 13.046358,8.895042 12.866092,9.33094 12.77778,10.240784 12.694037,10.358344 12.708101,10.387282 12.693045,10.39312 12.672512,10.39636 11.851275,11.965296 11.830976,12.016075 11.855254,12.075871 11.823508,12.089935 11.791789,12.095014 11.737226,12.266477 11.526626,12.34154 10.449862,12.881108 10.514734,12.987753 10.563411,13.324902 10.733458,13.684615 10.779526,13.964487 10.481679,14.123163 10.243,14.168791 10.23905,14.19306 10.189343,14.215336 10.247377,14.814284 9.693365,14.993043 9.206432,15.194096 9.22543,15.259283 9.221871,15.54841 9.363422,15.927076 9.473458,16.4 9.324379,16.481058 9.17616,16.526797 9.182969,16.564533 9.172282,16.569477 9.280942,16.824568 9.068357,16.927605 7.898246,17.563326 7.541035,16.941241 7.389197,16.19517 7.55886,16.057216 7.823206,15.915347 7.669873,15.567519 8.035056,15.439017 8.523182,15.236485 8.52101,15.129303 8.698655,15.066197 8.578011,14.388936 8.699883,13.494257 8.807105,13.416541 8.94708,13.367771 8.862521,13.233138 9.027137,13.189467 9.123603,13.163188 9.645355,12.638148 10.184239,12.330972 10.269325,11.976158 10.14327,11.744001 9.902683,11.400913 10.49347,11.281664 10.555146,11.121823 10.72905,11.088868 11.07408,10.170243 11.105966,10.099116 11.000662,9.906677 10.819813,9.639672 11.347099,9.561209 11.412718,9.414829 11.586771,9.38191 12.045939,8.477522 11.904679,8.197118 11.722729,7.897526 12.228014,7.849112 12.398255,7.823963 12.487352,7.661477 12.70905,7.624574 12.998356,7.180523 12.989343,7.156841 13.041621,7.053278 12.858966,6.630395 12.658068,6.236404 13.022273,6.224942 13.517617,6.179549 13.855979,5.585764 13.804295,5.412707 13.85085,5.334822 13.829561,5.27239 13.623409,4.763767 13.864551,4.7741 14.188802,4.769435 14.348112,4.502912 14.712274,3.950069 14.692254,3.847393 14.721602,3.809306 14.62981,3.487049 14.760381,3.505196 14.943983,3.520704 15.593692,2.677525 15.701892,2.547764 15.699666,2.516142 15.708661,2.507788 15.694758,2.410395 15.733,2.420529 15.789659,2.432563 16.36148,1.901508 16.830224,1.625012 16.833966,1.572659 16.835208,1.544935 16.908116,1.579064 16.919783,1.572182 16.937727,1.578946 17.024927,1.537563 18.010192,1.096157 18.039854,0.962211 18.053214,0.898414 18.215202,1.004312 18.236688,0.994686 18.268249,1.012968 18.45815,0.949145 19.222026,0.706713 19.224316,0.700344 19.225803,0.700044 19.288372,0.532958 19.316454,0.457729 19.501434,0.618037 19.520436,0.612006 19.548565,0.634836 19.778215,0.588439 20.464544,0.45723 20.473004,0.441282 20.477938,0.440942 20.564377,0.27897 20.603336,0.206826 20.774195,0.398033 20.787035,0.395578 20.807865,0.418211 21.048303,0.401645 21.726234,0.357958 21.740938,0.337146 21.747566,0.337602 21.848906,0.193383 21.895064,0.128576" slic3r:type="contour"/>
    <polygon style="fill: white" points="8.528074,18.777694 8.603944,18.940289 8.444415,19.053739 8.505552,19.137295 8.549697,19.185534 7.986064,19.459151 7.956018,19.476576 7.360429,19.946964 6.996672,19.559106 6.579137,18.803038 6.635137,18.747364 6.719681,18.67267 6.648696,18.527932 6.767401,18.475274 7.194564,18.247123 7.368819,18.083752 7.922944,17.65678" slic3r:type="contour"/>
    <polygon style="fill: white" points="8.070742,21.122203 8.253253,21.36241 8.0859,21.565316 8.179187,21.646893 8.250703,21.689912 7.815841,21.916495 7.110833,22.78362 6.663735,22.421742 6.180285,21.87876 6.282529,21.756805 6.399974,21.554547 6.234987,21.331763 6.384006,21.25555 6.993869,20.922566 7.322472,20.445972" slic3r:type="contour"/>
    <polygon style="fill: white" points="7.845519,23.333909 8.260352,23.689522 7.905517,23.81067 7.214225,24.25333 6.491245,23.710388 6.169878,23.443738 6.648619,23.356804 7.258767,22.977468" slic3r:type="contour"/>
    <polygon style="fill: white" points="7.241441,24.708431 7.749995,25.135916 7.940663,25.36527 7.439726,25.605245 7.482212,25.797404 7.642542,26.240504 7.335977,26.227126 6.974352,26.327165 7.391131,26.885164 6.851896,27.117462 6.588994,27.209754 6.685735,27.635279 6.877747,28.280872 6.751428,28.271544 6.443153,28.326359 6.752746,28.613112 6.352258,28.84624 5.847483,29.128212 6.010055,29.757391 6.177914,30.745248 6.183866,30.748277 6.179046,30.751751 6.180604,30.77635 5.52205,31.385684 5.453575,31.389858 5.135745,31.66934 5.147548,31.742669 4.992023,31.901226 5.198998,32.86692 5.531327,33.051896 5.944204,33.099846 5.405186,33.58636 5.284559,33.711755 5.295718,33.889316 5.163533,34.047542 5.350531,35.14126 5.356142,35.307657 5.579136,35.408551 5.972633,35.418728 5.459771,35.905132 5.379442,35.998647 5.387963,36.251344 5.2425,36.446953 5.438014,37.615455 5.714777,37.722043 6.190267,37.72644 5.856782,38.058351 5.508739,38.500314 5.523327,38.789944 5.350338,39.04344 5.464904,39.597442 5.612425,39.650568 5.718906,39.943679 5.96829,40.025071 6.548986,40.038572 6.385195,40.213583 5.758052,41.080638 5.787006,41.371491 5.670591,41.554996 5.555177,41.545428 4.859467,41.2929 4.852589,41.206401 4.502916,41.165584 4.43031,41.137832 4.792714,40.453444 4.719524,39.533044 4.645191,39.518511 4.271753,40.261932 4.197131,39.071536 4.157906,38.8639 4.006955,38.7984 4.056866,38.707148 4.116147,38.642849 4.108521,38.602479 4.169163,38.498013 4.135842,37.108431 4.062963,36.607685 3.727993,36.432376 3.853189,36.230003 3.988854,36.098502 3.974982,36.003179 4.096356,35.817316 4.04913,34.847792 3.958536,34.183124 3.629786,33.96946 3.759721,33.788092 3.889444,33.676225 3.878309,33.594524 3.957786,33.490588 3.747003,31.949749 4.371811,31.998054 4.487415,31.898652 3.979547,31.488779 4.016908,31.471213 3.86271,31.384199 3.800434,31.335552 4.363564,30.740696 4.831945,30.403423 4.809175,30.248458 4.851342,30.21012 4.496517,28.69784 4.421408,28.629888 4.470003,28.590737 4.453992,28.53028 4.488911,28.526516 4.59846,28.508218 4.62697,28.489283 4.628602,28.489169 5.075923,28.20618 5.522401,27.943803 5.260501,27.007214 5.164809,26.634349 5.358513,26.601327 5.280848,26.505108 5.22914,26.459138 5.824961,26.288207 6.292379,26.067506 6.002544,25.100876 5.960269,25.050345 5.952932,25.020714 5.836478,24.91601 5.922744,24.8988 5.885155,24.746996 5.994037,24.698836 6.559281,24.580396 6.65661,24.533473 7.103824,24.387904 7.168844,24.380086" slic3r:type="contour"/>
    <polygon style="fill: white" points="6.497878,42.146744 6.561592,42.319084 7.034691,42.317892 6.953737,42.417232 6.727954,42.769074 7.056723,43.658364 6.484366,44.277505 7.285261,44.409732 7.326373,44.508548 7.674354,44.48618 7.628186,44.554259 7.468172,44.849372 7.879701,45.838512 7.245286,46.415972 6.965643,45.854334 5.932233,45.856524 5.708199,45.81184 5.968741,45.161279 6.334228,44.586189 6.266917,44.451 6.315294,44.340788 6.370178,44.258652 6.438102,44.269866 6.28685,43.849848 6.22806,43.847596 6.112319,43.8145 6.110287,43.620495 5.168359,43.552692 4.984915,43.496724 5.303079,42.826076 5.720627,42.277468 5.659983,42.109064 5.710187,42.013556 5.765688,41.94508" slic3r:type="contour"/>
    <polygon style="fill: white" points="7.224161,46.4352 8.038335,46.457731 8.080913,46.54354 8.485437,46.47906 8.448637,46.548472 8.279767,46.944294 8.569988,47.52918 8.000776,47.934832 7.912384,47.805415 7.866075,47.91396 6.846233,48.021671 6.636281,48.00792 6.844452,47.3343 7.157656,46.7004 7.084334,46.593047 7.114381,46.50338 7.150585,46.433163" slic3r:type="contour"/>
    <polygon style="fill: white" points="9.44381,48.334831 9.0304,49.737152 7.954414,49.998012 7.802616,50.01316 7.947444,49.291388 8.188116,48.576656 8.113804,48.498544 8.122986,48.456104 8.135363,48.42096 8.702942,48.340264 8.762472,48.439883 8.81398,48.431576 9.479665,48.238236" slic3r:type="contour"/>
    <polygon style="fill: white" points="10.648572,49.86796 10.428467,51.259301 10.506717,51.337532 10.512492,51.344188 10.511441,51.351548 10.506798,51.353455 10.419337,51.37956 10.449689,51.325957 10.403182,51.272684 9.292349,51.716159 9.223524,51.735768 9.292099,50.958708 9.4324,50.2158 10.059301,50.001999 10.679195,49.724772" slic3r:type="contour"/>
    <polygon style="fill: white" points="12.041048,51.169143 11.997304,52.439917 12.069854,52.500136 12.068014,52.579808 12.017819,52.608151 11.389943,52.907026 11.402597,52.981432 11.752307,53.019116 12.26697,52.591224 12.545445,52.747717 13.073239,52.379271 13.570634,51.984748 13.580802,52.223651 13.67164,53.376073 14.261986,53.627185 14.729339,53.213176 15.174273,52.771232 15.211073,53.013072 15.414115,54.113168 15.981197,54.294309 16.403347,53.832599 16.817652,53.336108 16.865576,53.525884 17.188807,54.665872 17.703944,54.779416 18.095515,54.260292 18.49,53.705156 18.530635,53.821143 18.988722,55.035433 19.441442,55.093336 19.806681,54.5144 20.18431,53.905212 20.207171,53.956615 20.816786,55.269073 20.834316,55.271524 20.835438,55.273884 20.834156,55.275883 20.773241,55.36733 21.294655,55.438558 21.192508,55.255932 21.537031,54.610324 21.895064,53.96278 21.906778,53.984708 22.597618,55.255931 22.508048,55.419563 23.009161,55.355412 22.95462,55.273724 22.955098,55.272675 22.955677,55.271504 22.973633,55.269211 23.28483,54.567631 23.605846,53.905212 23.635692,53.952552 24.349088,55.09356 24.799025,55.036101 25.031334,54.369383 25.300128,53.70516 25.371967,53.800543 26.089026,54.78036 26.596282,54.668583 26.763864,53.99842 26.972474,53.336108 27.095783,53.471195 27.815203,54.295635 28.369525,54.118132 28.470786,53.438932 28.615854,52.771228 28.778294,52.915248 29.535746,53.627646 30.112587,53.380775 30.139928,52.679895 30.21944,51.984771 30.385305,52.100455 31.249234,52.746536 31.522938,52.59132 31.726066,52.638643 31.71975,52.543792 31.720308,52.500148 31.789725,52.447815 31.728909,51.705631 31.733618,50.970972 31.877486,51.04524 32.925034,51.641628 32.934901,52.177655 33.01543,52.19788 33.302898,52.858984 32.976098,53.122659 32.952617,53.14011 32.95268,53.143552 32.950983,53.144574 32.952078,53.169732 32.931262,53.156457 31.340826,54.114807 31.215112,54.185186 31.213872,54.199056 31.206535,54.202389 31.197994,54.324976 31.154786,54.290688 31.096376,54.252434 29.606275,54.929384 29.405293,55.01439 29.40197,55.031723 29.391434,55.035318 29.360252,55.214444 29.300732,55.156616 29.224209,55.092374 27.775957,55.586496 27.559317,55.655302 27.554777,55.670972 27.545835,55.673088 27.49737,55.847948 27.443205,55.784168 27.375006,55.713504 25.869523,56.069684 25.685888,56.109951 25.68183,56.120552 25.676827,56.121243 25.625364,56.257364 25.585861,56.202307 25.536712,56.140604 23.934926,56.361951 23.803247,56.378721 23.800527,56.384516 23.799053,56.384582 23.755516,56.476204 23.730381,56.435627 23.699275,56.389038 22.034986,56.463383 21.935156,56.467491 21.895064,56.538284 21.877312,56.50582 21.855429,56.467228 20.215114,56.393756 20.092863,56.388732 20.034612,56.47618 20.013498,56.432276 19.990822,56.384537 19.989599,56.384487 19.986274,56.377461 18.427717,56.161191 18.258233,56.139635 18.16471,56.25734 18.138395,56.192007 18.111615,56.120986 18.108256,56.120559 18.10288,56.107044 16.635287,55.758723 16.423371,55.712257 16.292734,55.847936 16.266156,55.763663 16.240965,55.672261 16.235359,55.671032 16.228952,55.650526 14.797519,55.1621 14.576025,55.091586 14.429853,55.214431 14.410708,55.127707 14.394563,55.033815 14.388166,55.031779 14.383061,55.008489 12.864646,54.321736 12.702481,54.252771 12.592137,54.32498 12.584932,54.265423 12.580603,54.200938 12.576271,54.199096 12.574022,54.180262 10.896701,53.176988 10.862888,53.157908 10.838049,53.169732 10.837505,53.143585 10.837446,53.143551 10.837362,53.138771 10.487228,52.858976 10.707581,52.895368 10.830528,52.751153 10.823373,52.345364 10.865107,51.641616 11.497273,51.313932 12.056482,50.970968" slic3r:type="contour"/>
  </g></svg>