<svg width="43.790126" height="63.590156" xmlns="http://www.w3.org/2000/svg" xmlns:svg="http://www.w3.org/2000/svg" xmlns:xlink="http://www.w3.org/1999/xlink" xmlns:slic3r="http://slic3r.org/namespaces/slic3r"><g xmlns="http://www.w3.org/2000/svg" slic3r:z="2.01349999999999e-005" id="layer60">
    <polygon style="fill: white" points="22.023602,2.833077 22.083392,2.831225 22.085644,2.840663 22.357676,2.847439 22.765627,2.860086 22.785308,2.828062 22.908774,2.622886 23.018598,2.867928 23.076956,2.869738 23.081096,2.888905 23.387355,2.913454 23.737211,2.940756 23.754464,2.917106 23.909128,2.714598 24.007885,2.961879 24.081328,2.96761 24.08894,3.006038 24.50797,3.07023 24.669307,3.089299 24.700961,3.055093 24.927316,2.85568 25.029453,3.131864 25.14903,3.145996 25.169197,3.253135 25.680345,3.41873 25.836592,3.258559 26.124016,3.110586 26.252073,3.603951 26.320591,3.626149 26.506406,3.641862 27.13314,3.58721 27.124624,3.800498 27.220806,3.925175 27.574307,3.777719 27.615944,3.961273 27.753403,4.915353 27.807761,4.92651 28.01681,4.849666 28.038962,4.855377 28.492207,4.660232 28.78347,4.571803 28.839268,5.061718 29.130316,5.136758 29.570963,5.098527 29.63547,5.308435 29.718253,5.416864 29.934572,5.329477 29.962824,5.468039 29.975084,5.753259 30.008266,5.796721 30.022706,5.906504 30.478958,6.274689 30.617454,6.178395 31.064138,5.917962 31.185768,6.328174 31.234587,6.712778 31.62039,6.837951 31.902591,6.609455 32.27184,6.336484 32.419566,6.760276 32.495267,7.081672 32.79732,7.136542 32.832079,7.110025 33.007783,7.162984 33.102296,7.090862 33.5527,6.773997 33.64744,7.109278 33.704623,7.35901 34.279577,7.504542 34.341668,7.463993 34.40667,7.503988 34.775992,7.317247 34.804071,7.547335 34.826066,7.762038 35.062976,7.907806 35.461301,8.122171 35.5668,8.094063 35.569615,8.097675 35.836988,8.030803 35.81072,8.214229 35.793892,8.385569 36.068243,8.737739 36.280399,9.014633 36.74682,8.978833 36.648896,9.222021 36.583821,9.410642 36.60388,9.436822 36.598095,9.446507 36.708624,9.669214 36.901634,10.088012 36.957356,10.090596 36.959826,10.096636 37.584148,10.114152 37.379043,10.477976 37.22782,10.761031 37.415168,11.247379 37.443671,11.24941 37.451536,11.268587 38.035824,11.307069 38.343868,11.327922 38.035811,11.806703 37.870565,12.070918 37.962772,12.109475 37.943152,12.145263 38.380663,12.39469 38.419126,12.41449 38.574036,12.426923 38.587717,12.43713 38.93194,12.459383 38.999804,12.463108 38.877723,12.650558 38.896971,12.660467 38.893998,12.665618 38.997191,12.742602 39.283012,12.94567 39.486968,13.387353 39.503003,13.424652 39.504163,13.424742 39.504735,13.426112 39.55498,13.431412 39.526385,13.478038 39.867268,14.295627 39.908692,14.4029 39.915763,14.403869 39.91599,14.404662 40.058968,14.43117 40.008707,14.502711 39.969775,14.561088 39.977196,14.580304 39.969348,14.590761 40.171156,15.294629 40.233811,15.524367 40.525972,15.610446 40.413111,15.745717 40.324115,15.855489 40.336388,15.900492 40.302614,15.93961 40.363399,16.41398 40.432179,16.947825 40.45956,16.957072 40.459558,16.957651 40.968484,17.16252 40.715239,17.415294 40.518164,17.615214 40.529968,17.706822 40.456939,17.778926 40.456365,17.868525 40.839875,18.506475 41.371916,19.383726 41.406191,19.401563 41.441348,19.419412 41.403618,19.449707 41.436648,19.487612 41.461444,19.532944 41.234444,20.798181 41.13133,21.202343 41.303756,21.567 41.446092,22.232125 41.65834,22.36983 41.505182,22.508247 41.528092,22.6153 41.444619,22.684919 41.602799,23.089241 41.741784,23.817662 41.4811,24.418096 41.124515,24.691655 41.137368,24.765576 41.166973,25.064588 41.22754,25.104606 41.184292,25.239509 41.195366,25.351365 41.551904,25.484736 41.234133,25.74292 41.244484,25.84746 41.191688,25.877966 41.265799,26.489187 41.476896,27.617133 41.222939,27.568553 40.75288,27.388744 40.775131,27.662743 40.829221,27.835521 40.936251,27.950795 41.089168,28.018784 41.415704,28.164555 41.044996,28.374157 41.117584,29.348388 41.335449,29.849797 41.498793,30.063622 41.52988,30.08166 41.585292,30.118028 41.510863,30.182316 41.512664,31.014602 41.612059,31.562235 41.85356,31.87182 41.904767,31.901751 41.9711,31.954222 41.821745,32.164467 41.626676,33.39039 41.833658,33.644139 42.089924,33.783756 42.340384,33.999659 42.103283,34.40324 41.778899,34.764579 42.077424,35.821555 42.570104,36.276892 42.462796,36.452964 42.303499,36.62201 42.327872,36.708304 42.309393,36.725118 42.627456,38.099191 42.401976,38.467149 42.473927,38.538269 42.593139,38.613415 42.633488,38.643284 42.338359,38.905044 41.59496,40.244871 41.17946,39.332463 41.135956,39.133683 40.804139,38.876827 40.613892,38.744612 41.107508,38.402178 40.896991,37.973863 40.596476,36.768796 40.620084,36.698219 40.634081,36.657753 40.631112,36.655636 40.637408,36.63384 40.591184,36.609339 40.61342,36.587839 40.669903,36.521343 40.917072,35.665671 41.047108,35.044137 41.0255,35.029636 41.085445,34.734457 40.805116,34.546504 40.381276,34.32664 40.77235,33.93496 40.734735,33.873804 40.863514,33.595803 40.544228,33.38238 40.135652,32.894622 40.211032,32.564537 40.255585,32.392826 40.191168,32.352378 40.208709,32.159433 39.911292,32.00322 40.146535,31.704824 40.2692,31.494078 40.274864,31.431774 40.280719,31.266106 40.178112,31.172824 40.269463,30.822082 40.10856,30.7298 40.1065,30.636603 39.962636,30.5894 39.423316,30.175252 39.452748,29.960895 39.471271,29.889083 39.423528,29.857254 39.418963,29.69338 39.23762,29.567138 39.410922,29.404717 39.390908,28.686189 39.397293,28.348419 39.261672,28.269801 39.234418,28.018854 38.944167,27.851167 38.81524,27.778736 38.838267,27.762246 39.143845,27.184851 39.11956,26.961236 39.037565,26.300707 38.578703,26.174972 38.898308,25.877199 38.947141,25.837438 38.697116,23.82402 39.194456,24.725466 39.448441,24.905409 39.320437,23.686768 38.741119,23.656226 39.197763,23.289122 39.273384,23.238811 39.272092,23.226508 39.307778,23.185715 39.226164,22.525588 39.395176,22.807748 39.52891,22.921186 39.72946,22.780936 39.754216,22.659822 39.606432,21.740358 39.731731,21.896436 39.805255,21.855777 39.707359,21.573522 40.022476,21.433408 39.608727,20.973088 39.854102,19.87954 39.599532,19.741072 39.352284,19.588384 39.484636,19.440591 39.906555,19.05174 39.142372,18.619692 39.142881,17.690583 39.028139,17.647901 38.873744,17.596676 39.127792,17.353047 39.052175,16.763131 39.015418,16.41858 38.758624,16.352042 38.42334,16.280748 38.642183,16.02914 38.897652,15.708493 38.817465,15.417016 38.4243,15.354536 37.970844,15.292712 38.074443,15.145586 38.503521,14.511423 38.010292,14.46151 37.471452,14.409135 37.497475,14.365926 37.773656,13.915319 37.720569,13.859751 37.284268,14.100481 37.001051,13.4682 36.940007,13.463528 36.872576,13.457335 36.94723,13.341576 36.893559,13.206894 36.549831,12.348133 36.375776,12.333858 36.165692,12.311097 36.394737,11.97187 36.209511,11.524815 36.077588,11.211255 35.797691,11.199143 35.419784,11.162511 35.61852,10.837094 35.779588,10.593768 35.575107,10.196107 35.235111,10.219643 34.82764,10.201765 34.782584,10.235186 34.755656,10.274919 34.722878,10.194897 34.687928,10.191182 34.705946,10.163886 34.406633,9.585437 34.277819,9.531518 33.947312,9.447053 34.054552,9.188258 33.792284,9.319466 33.775128,9.116224 33.747175,8.699476 33.39699,8.601267 33.112442,8.555574 32.943007,8.668176 32.822706,8.736988 32.770948,8.502293 32.636886,8.476383 32.16891,8.429078 32.029578,8.155677 31.95148,8.014205 31.625524,8.235842 31.586433,8.120195 31.436822,7.61954 31.410356,7.597796 31.093481,7.33113 30.995542,7.37757 30.897912,7.344043 30.676544,7.474496 30.28685,7.746948 30.23224,7.526794 30.123902,7.080966 29.45016,6.867448 29.336298,6.909323 29.228416,6.883141 28.934968,7.048756 28.922954,6.93308 28.904902,6.804628 28.330108,6.665132 27.962902,6.155482 27.823342,6.207792 27.708154,6.255459 27.712393,5.807797 27.650118,5.721364 27.618503,5.439198 27.468069,5.182412 27.424355,5.16548 27.020007,5.377601 26.650044,5.577622 26.606747,5.264704 26.555347,4.918065 26.125444,4.813975 26.098712,4.852163 25.96777,5.104487 26.036952,5.277964 25.950498,5.255622 25.875178,5.487245 25.986666,5.624548 25.824178,5.644082 25.81231,5.680577 25.720061,6.058688 25.692352,6.166467 25.766908,6.26904 25.662773,6.281513 25.66206,6.284288 25.645539,6.285658 25.502128,6.752113 24.949445,6.965456 24.94896,6.970069 24.932658,6.972829 24.903538,7.207435 24.720683,7.052314 24.672975,7.0168 24.369234,7.068229 24.187123,7.088215 24.180578,7.125051 24.072771,7.128861 23.932044,7.514096 23.678951,7.188735 23.646653,7.14753 23.419061,7.172507 23.410661,7.151498 23.27821,7.15581 23.274384,7.172089 23.115966,7.171141 22.901632,7.586878 22.659749,7.175945 22.483936,7.18167 22.480655,7.169421 22.266997,7.169401 22.118236,7.170308 21.895064,7.578169 21.674689,7.172004 21.308747,7.172031 21.30619,7.18167 21.128463,7.175441 20.888478,7.586878 20.669303,7.172078 20.515744,7.172089 20.511737,7.154558 20.379312,7.150227 20.371046,7.172507 20.151284,7.139858 19.858081,7.514085 19.694933,7.127842 19.609554,7.125051 19.599875,7.061041 19.402011,7.037314 19.393892,7.049933 19.301163,7.025219 19.155471,7.007747 18.886588,7.207441 18.835595,6.950496 18.829925,6.899627 18.290476,6.755854 18.133202,6.284948 18.128038,6.284312 18.126778,6.279085 18.023194,6.269065 18.079409,6.199672 18.100606,6.1705 17.997191,5.741423 17.976576,5.661439 17.971529,5.661045 17.971766,5.644642 17.803491,5.62454 17.893067,5.512688 17.92736,5.470498 17.913626,5.417211 17.973884,5.36901 17.928268,5.233955 17.753176,5.277939 17.820381,5.088913 17.740415,4.910471 17.224884,5.009161 17.216621,5.066857 17.140084,5.577622 16.815004,5.409066 16.372318,5.172368 16.299319,5.186342 16.184322,5.365893 16.140032,5.721297 16.097144,5.778644 16.091472,6.107826 16.082007,6.255428 15.813323,6.158148 15.701922,6.307107 15.459989,6.665145 15.018249,6.771762 14.892882,6.802317 14.855158,7.048758 14.744585,6.999659 14.535563,6.889403 14.453824,6.909324 14.37044,6.878718 13.982289,7.01898 13.655558,7.117625 13.6079,7.311047 13.503268,7.746948 13.31476,7.641559 12.872086,7.35417 12.794584,7.37757 12.690582,7.330134 12.337875,7.625289 12.28065,7.801063 12.164596,8.235842 12.079785,8.174779 11.847723,8.013728 11.621215,8.429078 11.006548,8.516653 10.982282,8.627773 10.96742,8.736988 10.735002,8.575482 10.434552,8.654953 10.026555,8.742232 10.007188,8.97643 9.997871,9.319439 9.908015,9.265681 9.755389,9.182693 9.7027,9.240877 9.842842,9.447022 9.36153,9.609301 9.288451,9.737825 9.080786,10.16495 9.102195,10.191211 9.067708,10.194153 9.034476,10.274942 8.907656,10.192493 8.240617,10.172141 8.008572,10.627703 8.157675,10.868388 8.370344,11.162519 7.724723,11.192795 7.555136,11.603875 7.391538,11.989593 7.500646,12.149913 7.62443,12.311088 7.24298,12.343105 7.152381,12.570695 6.840783,13.347676 6.878512,13.405695 6.91753,13.457332 6.792932,13.466996 6.792618,13.46778 6.788926,13.468142 6.759289,13.534036 6.506061,14.100168 6.286651,14.025829 6.11231,13.941308 6.062114,13.997097 6.318667,14.409187 6.253904,14.415755 5.292056,14.511474 5.555879,14.890179 5.81926,15.292738 5.587709,15.329869 4.953093,15.424719 4.883505,15.673553 5.143364,15.980233 5.366787,16.280729 4.929676,16.395367 4.751356,16.438146 4.68971,16.893075 4.651732,17.321929 4.796524,17.464419 4.916382,17.596664 4.645576,17.698017 4.644616,17.929487 4.647755,18.619662 4.315458,18.809869 3.868989,19.062181 4.201049,19.396125 4.437837,19.588368 4.173984,19.728255 3.957904,19.851273 4.05635,20.233739 4.181401,20.97304 3.901349,21.359215 4.082763,21.573558 4.008374,21.833833 4.183691,21.740408 4.112074,22.430278 4.041065,22.7806 4.066473,22.809272 4.062037,22.875998 4.137285,22.933839 4.563965,22.525598 4.536984,22.990226 4.498528,23.211506 4.518035,23.226501 4.516564,23.263785 5.049005,23.656195 4.565812,23.59288 4.503265,23.600512 4.471757,24.398297 4.537327,24.424421 4.978978,23.919636 5.093009,23.82399 4.947506,25.373585 4.85867,25.879726 5.21142,26.174996 4.836902,26.24185 4.792926,26.254297 4.787046,26.287802 4.762758,26.292652 4.739879,26.506721 4.937214,26.583948 4.953327,27.764071 4.974862,27.778733 4.604922,28.054397 4.552152,28.082019 4.528429,28.269816 4.369835,28.37425 4.362656,29.050997 4.552513,29.56711 4.422173,29.733574 4.365749,29.766582 4.366582,29.857228 4.30869,29.910005 4.366795,30.175289 4.085021,30.261228 3.705853,30.470122 3.681703,30.729734 3.565573,30.799609 3.612027,31.172846 3.542004,31.222026 3.549288,31.366587 3.675961,31.533958 3.87882,32.003286 3.706872,32.1672 3.592536,32.22491 3.598959,32.352392 3.531551,32.403023 3.654497,32.894481 3.086228,33.294124 2.910724,33.453224 3.055387,33.873716 3.041205,33.890718 3.217501,34.073119 3.408852,34.3266 3.134261,34.547236 2.744713,34.763712 2.760873,34.98007 2.994886,35.952643 3.124502,36.508153 3.198935,36.609312 3.183589,36.622792 3.155113,36.63935 3.158928,36.655703 3.155703,36.658065 3.193633,36.769096 2.608755,38.278068 2.708466,38.408348 3.010329,38.619799 3.176226,38.74462 2.708427,39.119884 2.540048,39.241116 2.195206,40.244792 1.648157,39.66108 1.347571,38.797606 1.204457,38.678396 1.156644,38.643236 1.316397,38.547909 1.233596,38.435436 1.162678,38.098963 1.372959,37.034024 1.458311,36.726584 1.494579,36.557899 1.220019,36.276872 1.395928,36.197612 1.607062,36.034726 1.693305,35.633599 1.9961,34.671951 1.704018,34.261508 1.449766,33.9996 1.896449,33.783356 1.944698,33.748715 1.934259,33.671368 2.039591,33.576612 1.840997,33.173106 1.913782,32.049986 1.878059,32.006438 1.819028,31.954188 1.923782,31.895678 1.924312,31.887497 1.945661,31.867451 1.919826,31.751295 2.263675,30.152733 2.204815,30.118038 2.293253,30.066975 2.291427,29.942131 2.702942,28.30732 2.660614,28.282125 2.374385,28.164552 2.820294,27.966319 2.883025,27.33883 2.313232,27.617426 2.58316,25.867334 2.545693,25.847478 2.564066,25.722323 2.526727,25.690504 2.238231,25.484732 2.61934,25.345801 2.634118,25.245131 2.56259,25.104606 2.66453,25.037972 2.742848,24.504475 2.509311,24.148698 2.048341,23.817661 2.391262,22.712745 2.262036,22.6153 2.297519,22.509564 2.131785,22.369836 2.401213,22.200575 2.714429,21.267235 2.417901,19.920288 2.328735,19.532614 2.388641,19.458133 2.378343,19.449215 2.379638,19.44707 2.348775,19.419408 2.41887,19.382078 3.335369,17.863818 3.334932,17.781566 3.26017,17.706842 3.271429,17.619164 3.198922,17.546338 2.821639,17.16252 3.133191,17.052182 3.33065,16.973216 3.330564,16.957071 3.357559,16.948407 3.388582,16.706809 3.487201,15.940547 3.453748,15.900493 3.46535,15.85957 3.264171,15.610444 3.428064,15.570597 3.53897,15.538307 3.539383,15.535098 3.55852,15.530931 3.762355,14.811956 3.822337,14.593452 3.812965,14.580299 3.819481,14.564472 3.731175,14.431141 3.816239,14.417012 3.873672,14.406448 3.874388,14.403841 3.886296,14.402175 4.238977,13.545496 4.261846,13.486739 4.261006,13.485438 4.263481,13.480009 4.235181,13.43135 4.28542,13.426167 4.285995,13.424688 4.28882,13.424436 4.507131,12.945639 4.89424,12.662347 4.893155,12.660468 4.910533,12.650894 4.819048,12.508562 4.79032,12.463108 5.209601,12.43156 5.215894,12.426956 5.334272,12.417465 5.842665,12.1374 5.827331,12.109418 5.914248,12.068247 5.566247,11.520167 5.446246,11.327918 6.004716,11.292381 6.338682,11.269712 6.346477,11.249383 6.382817,11.246369 6.564642,10.779324 6.411636,10.500919 6.205996,10.114134 6.610949,10.108631 6.828178,10.10239 6.832762,10.090614 6.905712,10.086819 7.198596,9.459614 7.186227,9.436885 7.194997,9.425593 7.043283,8.978885 7.2922,9.00655 7.417996,9.01612 7.510834,9.018914 7.748364,8.713067 7.988254,8.400441 7.953129,8.030829 8.114773,8.088427 8.209311,8.112359 8.223333,8.094085 8.285169,8.119232 8.717866,7.84634 8.974288,7.712118 9.014126,7.31725 9.196857,7.430757 9.355201,7.512731 9.448445,7.463923 9.467434,7.478044 9.71547,7.39512 10.119395,7.302438 10.23744,6.773998 10.494199,6.978181 10.719976,7.140091 11.341258,7.043552 11.423709,6.776775 11.518287,6.336484 11.832024,6.600175 12.114956,6.814317 12.616949,6.662585 12.697311,6.339061 12.725994,5.917943 13.015984,6.132586 13.18806,6.23804 13.868317,5.636276 13.855556,5.32948 13.9458,5.385658 14.018921,5.418226 14.219145,5.09854 15.009545,4.971976 15.025245,4.788635 15.006656,4.571802 15.406547,4.771245 15.681161,4.864432 15.773337,4.849672 15.916884,4.908798 16.007001,4.894812 16.075318,4.758008 16.123329,4.533165 16.127179,4.498394 16.132827,4.488679 16.176774,4.28287 16.215818,3.777723 16.317557,3.841267 16.468742,3.910987 16.657015,3.587202 17.439635,3.570535 17.601281,3.504287 17.642404,3.340214 17.666118,3.110579 17.899812,3.381937 18.30902,3.214227 18.64069,3.166157 18.641096,3.145996 18.81674,3.118213 18.86281,2.85568 19.072397,3.077773 19.437909,3.019958 19.705996,2.989754 19.708798,2.96761 19.807068,2.959724 19.880998,2.714599 20.046825,2.940485 20.389077,2.913021 20.70985,2.888021 20.713172,2.869738 20.781252,2.868042 20.795076,2.837812 20.881354,2.622886 21.028554,2.863181 21.078289,2.859305 21.078648,2.860635 21.359932,2.853628 21.704132,2.84297 21.706736,2.831225 21.770201,2.832806 21.788787,2.797076 21.895064,2.584395" slic3r:type="contour"/>
    <polygon style="fill: white" points="42.313472,40.82464 42.546448,41.011811 42.111347,41.3822 41.4817,41.834252 40.908068,41.347639 40.515772,41.055808 40.920392,40.785095 41.577899,40.316564" slic3r:type="contour"/>
    <polygon style="fill: white" points="2.915139,40.790876 3.274355,41.055812 2.988297,41.308364 2.308236,41.834244 1.548997,41.227087 1.243684,41.011816 1.715842,40.699271 2.212084,40.316576" slic3r:type="contour"/>
    <polygon style="fill: white" points="2.636814,43.070086 2.916604,43.26568 3.513518,43.702712 3.43792,43.77594 3.228081,43.952419 3.625402,44.566404 3.26722,46.309051 3.248252,46.411865 3.733742,46.601836 3.944784,46.65814 3.398702,47.146072 3.311069,47.257695 3.859268,48.319828 4.190799,49.252338 4.438158,49.332976 4.55664,49.34566 4.331877,49.649153 4.350414,49.701292 4.330202,49.73564 4.573967,50.201099 5.037591,51.395994 5.169245,51.41838 5.249189,51.416656 5.125841,51.623438 5.142374,51.666048 5.135692,51.680064 5.323239,51.977743 5.926209,53.155436 6.037834,53.154332 6.112599,53.14384 6.024414,53.347245 6.046811,53.390992 6.256834,53.638132 7.023449,54.65248 7.13898,54.629103 7.213683,54.609392 7.157231,54.829872 7.439671,55.060204 8.484478,55.9563 8.584587,55.918587 8.640519,55.896328 8.625675,56.074516 8.872735,56.223788 10.237809,57.06226 10.302172,57.02856 10.334348,57.011592 10.340294,57.123386 10.508061,57.202087 12.155695,57.980454 12.192466,57.956404 12.209427,57.945195 12.220141,58.010298 12.325792,58.050332 14.114955,58.740249 14.155558,58.708788 14.173183,58.694568 14.192666,58.770236 14.32606,58.812795 16.006249,59.36969 16.089581,59.293892 16.125246,59.259496 16.182259,59.426477 16.495687,59.503399 17.865548,59.859385 18.001315,59.713636 18.058894,59.648344 18.183328,59.935216 18.732007,60.021651 19.731617,60.19111 19.905908,59.968763 19.97946,59.872296 20.182637,60.250774 20.887743,60.2907 21.635539,60.33667 21.817768,60.058107 21.895064,59.943052 22.153612,60.339378 22.845355,60.300312 23.59968,60.253649 23.747999,59.979664 23.810668,59.872292 24.065101,60.19601 24.628049,60.107844 25.598717,59.941161 25.69168,59.729407 25.731262,59.648332 25.932021,59.862702 26.326817,59.76628 27.603682,59.43064 27.646366,59.307191 27.664882,59.259495 27.787926,59.370771 28.018549,59.297352 29.596349,58.771689 29.610646,58.716667 29.616944,58.694567 29.676282,58.740356 29.790447,58.697096 31.569462,58.010926 31.577054,57.965147 31.580672,57.945196 31.634728,57.980513 31.737258,57.932403 33.448953,57.124129 33.453116,57.047839 33.455778,57.011591 33.553359,57.062642 33.723703,56.959636 35.161872,56.077532 35.152208,55.957968 35.149608,55.896328 35.311935,55.957117 35.554087,55.758984 36.627903,54.841027 36.590415,54.691831 36.57644,54.609379 36.785847,54.650362 37.027656,54.363183 37.753566,53.402431 37.747616,53.382571 37.759765,53.362725 37.702336,53.228083 37.677532,53.143856 37.894445,53.142729 38.117951,52.777636 38.667326,51.711222 38.647728,51.666067 38.658232,51.644597 38.5779,51.507784 38.540916,51.4167 38.794044,51.367022 39.100728,50.740207 39.48906,49.791245 39.439716,49.701292 39.448749,49.681213 39.301895,49.479391 39.233488,49.34566 39.670832,49.187542 40.498143,47.348504 39.999532,46.876096 39.845344,46.658176 40.472349,46.400571 40.329888,45.808604 40.164724,44.56644 40.33992,44.470352 40.603085,43.967606 40.276612,43.702712 40.397191,43.618568 41.226596,43.021815 41.405704,42.521155 41.433939,42.970678 41.853751,43.306899 42.311764,43.702776 42.071416,43.900219 41.688865,44.166024 41.944044,46.529924 41.54156,46.855825 41.788823,47.124299 41.845776,47.181848 41.460226,47.278734 41.347727,47.327878 41.52678,47.762136 41.587648,48.329668 41.143291,49.386684 40.943241,49.80746 40.986276,49.878052 40.955515,49.948074 41.157264,50.21222 41.037204,50.243224 40.786029,50.333883 40.417055,51.1738 40.076314,51.811745 40.137216,51.941619 40.084435,52.036737 40.375408,52.52074 40.172855,52.531056 39.764593,52.613133 39.592819,52.922688 39.117505,53.659853 39.167876,53.815108 39.11145,53.887897 39.360892,54.500468 39.135079,54.470012 38.651799,54.48084 38.54892,54.613556 37.914869,55.351089 37.939584,55.490768 37.899096,55.526414 38.038224,56.20278 37.821616,56.134056 37.308788,56.046116 37.198219,56.14346 36.358976,56.826852 36.362748,56.919956 36.333292,56.938987 36.363688,57.6593 36.156012,57.562284 35.670864,57.387179 35.656052,57.39924 35.635409,57.389871 35.57302,57.430179 34.542583,58.055108 34.537608,58.119884 34.509737,58.13377 34.447368,58.876436 34.251744,58.759356 33.782412,58.516129 33.751316,58.534987 33.729546,58.522309 32.561072,59.073184 32.551744,59.124708 32.516291,59.138923 32.380184,59.875788 32.200962,59.746768 31.753258,59.454026 31.718034,59.470632 31.707141,59.462894 30.497007,59.922401 30.484022,59.969464 30.43465,59.986044 30.251616,60.674368 30.095596,60.543988 29.695488,60.234261 29.570218,60.276328 28.41491,60.642957 28.395262,60.696564 28.347022,60.708976 28.144444,61.286808 28.021762,61.16808 27.695552,60.876594 27.268109,60.986572 26.307611,61.219001 26.286419,61.26526 26.250629,61.271157 26.050416,61.718648 25.960932,61.617968 25.71567,61.362242 25.709681,61.363692 25.707138,61.36071 24.93654,61.487683 24.194275,61.602069 24.175996,61.635316 24.15593,61.636497 23.968174,61.973012 23.904281,61.889279 23.729043,61.673763 23.723817,61.674568 23.71496,61.662451 22.71385,61.721371 22.106175,61.754781 22.091834,61.7772 22.085568,61.77683 21.895064,62.055472 21.844225,61.977847 21.707158,61.776719 21.698258,61.777208 21.682953,61.753032 20.689858,61.694332 20.076638,61.660698 20.066297,61.674604 20.065946,61.674546 19.821954,61.973044 19.769177,61.879531 19.633403,61.636387 19.614152,61.635331 19.592285,61.595657 18.820911,61.467183 18.09047,61.355226 17.73968,61.718647 17.679641,61.592775 17.534437,61.270001 17.503688,61.265288 17.476353,61.206484 17.024491,61.088867 16.118034,60.870654 16.111823,60.876716 16.10891,60.875729 15.645683,61.286808 15.58016,61.120476 15.433246,60.705804 15.394865,60.696564 15.367829,60.624743 15.234854,60.579708 14.137577,60.232536 14.12885,60.23974 14.112431,60.233135 13.538518,60.674368 13.473939,60.469792 13.341807,59.98076 13.306105,59.969464 13.287036,59.903097 12.099332,59.451824 12.072102,59.470631 12.051022,59.460125 11.409973,59.875788 11.357052,59.646795 11.260182,59.132985 11.238395,59.124707 11.224501,59.052303 10.080898,58.511599 10.038851,58.534984 10.026011,58.526697 9.34276,58.876436 9.310217,58.6327 9.265817,58.126223 9.252521,58.119936 9.244249,58.027401 8.195284,57.38802 7.426444,57.6593 7.421881,57.4074 7.440238,56.927794 7.42738,56.919956 7.430414,56.787173 6.560775,56.073564 5.751905,56.202776 5.782963,55.948632 5.871571,55.508015 5.850578,55.490788 5.879907,55.29447 5.231631,54.531891 4.429262,54.500491 4.498214,54.251227 4.656582,53.855449 4.622267,53.815083 4.6869,53.584951 4.11576,52.677247 3.414744,52.520788 3.503387,52.314295 3.689499,51.999799 3.652905,51.94164 3.734842,51.742822 3.539351,51.320727 3.05657,50.373755 2.632864,50.212219 2.695484,50.101576 2.828025,49.925468 2.803852,49.878052 2.852879,49.788845 2.202479,48.329688 2.528693,47.371784 2.013132,47.215095 1.944354,47.18188 2.172781,46.927426 2.009311,46.799087 1.846084,46.529947 2.09187,45.45478 2.146378,44.16164 1.478363,43.702776 1.73378,43.501168 2.366903,42.964585 2.384444,42.520928" slic3r:type="contour"/>
  </g></svg>