<svg width="43.790126" height="63.590156" xmlns="http://www.w3.org/2000/svg" xmlns:svg="http://www.w3.org/2000/svg" xmlns:xlink="http://www.w3.org/1999/xlink" xmlns:slic3r="http://slic3r.org/namespaces/slic3r"><g xmlns="http://www.w3.org/2000/svg" slic3r:z="2.40949999999999e-005" id="layer72">
    <polygon style="fill: white" points="24.048587,61.189015 24.631705,61.886568 24.332507,62.414744 24.022714,62.966936 23.77067,62.648575 23.230864,62.011984 23.497023,61.533488 23.84716,60.957312" slic3r:type="contour"/>
    <polygon style="fill: white" points="26.07621,60.945872 26.672498,61.557888 26.389729,62.156516 26.154102,62.685232 25.851867,62.357415 25.289238,61.796316 25.529813,61.257624 25.815774,60.697356" slic3r:type="contour"/>
    <polygon style="fill: white" points="28.14368,60.544732 28.732894,61.068207 28.464175,61.753804 28.295756,62.231696 27.930531,61.886927 27.372348,61.40546 27.594404,60.790951 27.812414,60.273808" slic3r:type="contour"/>
    <polygon style="fill: white" points="30.251958,59.98842 30.82163,60.430407 30.568384,61.211771 30.454276,61.622108 30.018927,61.259039 29.484838,60.851608 29.691769,60.153896 29.84782,59.696227" slic3r:type="contour"/>
    <polygon style="fill: white" points="32.390739,59.284631 32.94312,59.653704 32.720524,60.533199 32.650098,60.870412 32.143663,60.498739 31.636864,60.16392 31.81429,59.383008 31.917366,58.98188" slic3r:type="contour"/>
    <polygon style="fill: white" points="34.454988,58.422932 34.98852,58.715875 34.828343,59.703384 34.798328,59.960376 34.211936,59.5985 33.733504,59.341984 33.849684,58.477099 33.904368,58.129756" slic3r:type="contour"/>
    <polygon style="fill: white" points="41.150932,51.595548 41.599088,52.283155 41.641076,52.336852 41.418785,52.403624 41.427452,52.429692 41.342212,52.457295 41.317168,52.736247 41.227812,53.502816 40.933304,54.092279 40.87544,54.19099 40.882556,54.205367 40.877891,54.21396 40.934232,54.306168 40.898088,54.310683 40.81767,54.324926 39.951335,55.92122 39.910238,55.988134 39.913683,55.999447 39.910628,56.003674 39.929488,56.052824 39.913579,56.051528 39.876085,56.051467 39.633016,56.387772 38.51173,57.208851 38.546356,57.510548 38.558596,57.5796 38.170383,57.458807 38.092715,57.51568 37.952013,57.487276 36.83086,58.010848 36.800367,58.706539 36.801536,58.873444 36.125436,58.549088 35.870136,58.451514 35.728928,58.514019 35.627976,58.473731 35.630274,58.41576 35.537044,58.445112 35.537044,58.445111 35.681982,58.346173 35.688492,57.435131 35.698788,57.140539 36.339487,57.393263 36.637056,57.516095 37.328103,56.896707 37.218764,56.26302 37.189732,56.024128 37.90563,56.177046 38.445296,55.47198 38.483094,55.417975 38.478208,55.40174 38.505158,55.354887 38.351607,54.942215 38.299584,54.769464 38.839771,54.773166 39.212864,54.124547 39.361074,53.837654 39.343272,53.803124 39.359579,53.771536 39.189724,53.464935 39.121692,53.320456 39.643408,53.221725 40.145467,52.249177 40.103068,52.189543 40.116142,52.169067 39.851636,51.779011 39.73122,51.58354 40.420315,51.32934 40.692991,51.265721 40.926028,50.900784" slic3r:type="contour"/>
    <polygon style="fill: white" points="41.868712,49.633668 42.162332,49.979124 41.55444,50.270995 41.086784,50.484708 41.115284,50.527107 41.073024,50.545448 41.043152,50.504647 41.032095,50.509699 40.499775,49.775343 40.217788,49.387084 40.600404,49.191931 41.334711,48.915656" slic3r:type="contour"/>
    <polygon style="fill: white" points="42.607108,46.81874 42.66026,46.896932 42.521284,46.979766 42.535847,46.998111 42.521855,47.006302 42.586275,47.094151 42.623024,47.146832 41.963344,47.929499 41.370276,48.5393 40.789419,47.662955 40.547152,47.356188 41.011197,46.836501 41.000044,46.8213 41.021967,46.798159 40.820072,46.505628 40.70316,46.3067 41.280579,45.89822 41.816128,45.577396" slic3r:type="contour"/>
    <polygon style="fill: white" points="42.32972,41.163716 42.270536,41.237727 42.93544,42.384664 43.115884,42.658488 42.810436,42.873418 42.875148,42.963088 42.861892,42.973562 43.003735,43.117955 43.069612,43.196292 42.427332,43.951875 41.932252,44.372764 41.240927,43.548143 41.027428,43.375044 41.519263,42.882746 41.510852,42.869212 41.571308,42.791248 41.318464,42.439268 41.139796,42.068464 41.518692,41.666547 42.126649,41.199158 42.07594,41.145532 42.15452,41.029151 42.228864,40.958524" slic3r:type="contour"/>
    <polygon style="fill: white" points="4.880544,19.340054 4.890894,18.759878 4.730439,18.724342 4.473207,18.740078 4.695545,18.479709 4.84242,18.252086 4.778583,17.870656 4.419562,17.797984 4.030033,17.78828 4.211258,17.562752 4.609624,17.000281 4.093011,16.802278 3.644816,16.694183 3.885535,16.463332 4.386572,15.981136 4.013343,15.73207 3.59389,15.486191 3.928534,15.281198 4.441834,14.974226 4.144306,14.684865 3.790276,14.356443 4.143057,14.214086 4.617617,14.027483 4.623022,13.966763 4.410045,13.696299 4.110909,13.3376 4.464418,13.240854 4.93447,13.113951 4.945219,13.067427 5.002364,13.047146 4.788064,12.722894 4.520222,12.350252 4.853678,12.286673 5.370164,12.184117 5.396272,12.11263 5.37589,12.073409 5.41484,11.973668 5.26008,11.68942 5.01272,11.282283 5.284023,11.251261 5.733473,11.193994 5.886431,10.836454 5.865548,10.782614 5.89817,10.716123 5.864576,10.630738 5.652448,10.157161 5.839059,10.157682 6.173456,10.155024 6.342759,9.809942 6.554226,9.400903 6.546594,9.364952 6.565948,9.337784 6.490218,9.046489 6.571934,9.059754 6.718457,9.083231 6.72258,9.075256 6.750067,9.079322 7.317853,8.282284 7.58261,8.080124 7.582393,8.075883 7.583774,8.075203 7.583482,8.042125 7.616681,8.05411 7.617447,8.053525 7.623297,8.055765 7.664368,8.035564 8.894548,7.432309 8.895557,7.42438 8.897559,7.423736 8.908568,7.366405 8.921844,7.29574 9.034347,7.363753 9.04032,7.360824 9.058598,7.371916 9.240881,7.31326 10.274209,6.980548 10.306298,6.87676 10.340852,6.76135 10.520186,6.901347 10.54011,6.894932 10.570498,6.91784 10.952273,6.837719 11.637846,6.701394 11.696492,6.539881 11.75656,6.356153 12.054854,6.618472 12.110281,6.60745 12.160272,6.64865 12.913613,6.551251 12.998109,6.309161 13.075709,6.00866 13.398625,6.294399 13.632382,6.478055 13.75674,6.465881 13.830461,6.525307 14.047152,6.345499 14.119637,6.247593 14.161383,6.108347 14.232052,5.623937 14.356875,5.725552 14.456545,5.79253 14.742965,5.405661 15.238694,5.381685 15.256536,5.300897 15.260227,5.180084 15.533795,5.367411 15.633249,5.362601 15.69414,5.397556 16.120273,5.369593 16.173405,5.121613 16.211745,4.693011 16.501029,4.872194 16.78271,5.029209 16.839933,4.949656 16.845194,4.909773 17.274892,4.288199 17.426788,4.419278 17.60742,4.594749 17.652758,4.555323 18.205873,4.419906 18.443652,4.767335 18.475568,4.882252 18.80912,4.918485 18.816246,5.254109 18.952132,5.229424 19.040572,5.230326 19.03822,5.278602 19.111286,5.301925 19.11263,5.299825 19.11263,5.299826 19.087229,5.406201 19.18883,5.354891 19.20369,5.422451 19.209102,5.547113 19.337164,5.608769 19.529754,5.425104 19.591693,5.561188 19.654571,5.728735 19.721336,5.743794 19.935752,5.784628 20.169472,5.491201 20.2584,5.64729 20.363694,5.837567 20.465266,5.843698 20.744045,5.860554 20.985562,5.517247 21.085878,5.674819 21.214631,5.873818 21.356681,5.874181 21.650413,5.875581 21.895064,5.517666 21.999913,5.671721 22.139876,5.876622 22.286335,5.876245 22.572421,5.874882 22.804566,5.517239 22.91578,5.668738 23.051439,5.860274 23.159963,5.853723 23.430363,5.837374 23.620634,5.491203 23.732458,5.626878 23.850088,5.773762 23.934244,5.75539 24.158682,5.712405 24.260396,5.42511 24.355584,5.520557 24.41704,5.579604 24.497004,5.527958 24.604025,5.4754 24.601296,5.354892 24.64253,5.383111 24.67751,5.299826 24.784436,5.299757 24.749582,5.230326 24.94389,5.299656 25.093931,5.299561 25.076561,5.080493 24.981048,4.918464 25.262296,5.057325 25.391214,5.052532 25.560528,4.76422 25.584252,4.419906 25.658756,4.598894 26.065996,4.73788 26.114152,4.6949 26.515234,4.2882 26.49604,4.409288 26.739534,4.853593 26.846852,4.80599 26.994002,5.01704 27.160893,4.917102 27.578381,4.693005 27.681032,5.146937 27.722331,5.436796 27.959639,5.465617 28.156826,5.362613 28.200913,5.368448 28.389917,5.248924 28.529872,5.180076 28.587721,5.419642 28.72124,5.437314 29.047164,5.405672 29.125326,5.671377 29.252782,5.812723 29.558046,5.623938 29.622926,5.827691 29.738747,6.351643 29.787776,6.406015 29.810123,6.481002 29.916017,6.556964 30.033398,6.465894 30.12554,6.478748 30.425177,6.22365 30.714402,6.008646 30.887441,6.483068 30.919415,6.589504 31.468727,6.666138 31.59701,6.675475 31.679839,6.607472 31.725914,6.61723 31.877554,6.485459 32.033512,6.356126 32.164696,6.710162 32.5325,6.788061 33.215558,6.921349 33.250037,6.894887 33.27127,6.901719 33.355479,6.835772 33.449272,6.761328 33.517629,6.98099 33.740672,7.052758 34.731886,7.371948 34.749812,7.360786 34.758156,7.36489 34.808403,7.334178 34.868252,7.295718 34.892955,7.423816 34.894536,7.424325 34.895655,7.432537 35.010047,7.488815 36.166811,8.055824 36.172683,8.053523 36.174225,8.054724 36.20664,8.042122 36.206869,8.075458 36.207732,8.075881 36.207564,8.080691 36.231271,8.099158 36.472299,8.282306 36.934416,8.9452 37.033921,9.0803 37.067648,9.075281 37.071199,9.082849 37.29994,9.046519 37.281088,9.136062 37.230731,9.347512 37.243548,9.364914 37.231242,9.423904 37.414408,9.814236 37.589087,10.14582 37.608256,10.145847 37.609545,10.149327 38.137672,10.157154 38.066483,10.341926 37.900245,10.736474 37.924604,10.782714 37.890488,10.871836 38.026995,11.185068 38.291639,11.216159 38.7774,11.282289 38.64964,11.521563 38.378379,11.991359 38.414184,12.073515 38.394232,12.112301 38.417888,12.181053 38.819736,12.258317 39.269904,12.350233 39.099496,12.611965 38.796498,13.05001 38.844888,13.0674 38.855821,13.115429 39.237731,13.219704 39.67924,13.337627 39.483359,13.588609 39.167889,13.976773 39.173723,14.03189 39.559695,14.187233 39.999824,14.356401 39.771071,14.580183 39.349692,14.97973 39.779252,15.242465 40.19624,15.486223 39.922584,15.67071 39.412449,15.988958 39.800812,16.361441 40.145308,16.694193 39.850991,16.808888 39.212063,17.010043 39.525268,17.408274 39.760048,17.788329 39.438659,17.855982 38.995821,17.913581 38.954333,18.158371 39.166815,18.429923 39.316916,18.74007 38.86375,18.851689 38.860448,18.961156 38.896479,19.544979 38.954332,19.604888 38.994696,19.679512 38.908651,19.719774 38.965956,19.888826 38.566472,20.059632 38.346956,20.61689 38.3578,20.624926 38.322876,20.683461 38.730896,20.939572 38.989356,21.110506 38.690896,21.378575 38.592402,21.46919 38.872835,21.799453 39.245284,22.336118 39.207859,22.837468 39.171011,23.14459 39.224992,23.17332 39.22806,23.257947 39.544448,23.382868 39.411796,23.505977 39.246193,23.758133 39.26404,24.250432 39.18382,25.2685 39.700303,25.537381 40.144878,26.048174 40.44962,26.214312 40.559408,26.25735 40.430939,26.376842 40.472044,26.42407 40.441991,26.476863 40.592676,26.54518 40.718252,26.688604 40.889887,28.082313 40.827953,28.814831 40.994564,28.915322 41.007685,29.145926 41.213287,29.289301 41.761055,29.576454 41.430147,29.870036 41.236155,30.218095 41.394232,30.410498 41.275967,30.60679 41.890004,30.910944 42.32024,31.462359 42.310824,32.220898 42.176395,32.677616 42.297664,32.786418 42.263499,32.98008 42.777356,33.384196 42.504067,33.61036 42.061435,34.305699 42.21954,34.526696 42.083713,34.708665 42.728348,35.142532 43.094064,35.670204 42.916288,36.2935 42.615498,36.778475 42.7374,36.9483 42.651314,37.128728 43.246448,37.823832 42.820127,38.143496 42.532722,38.5006 42.685804,38.732584 42.611567,38.809525 43.047339,39.177499 43.258108,39.469848 42.856232,40.158883 42.232492,40.810784 41.697175,40.203015 41.237476,39.88828 41.788379,39.220212 42.042237,38.853666 41.976984,38.747628 42.069644,38.56826 41.605776,38.089035 41.220652,37.425547 41.344419,37.246548 41.548882,37.068641 41.500735,37.020412 41.625527,36.788025 41.157476,36.520128 41.384684,36.086923 41.93849,34.762749 41.903456,34.735336 41.797332,34.598815 41.857052,34.359391 41.273948,33.955032 40.707424,33.279741 40.738131,33.222084 40.797085,33.163403 40.775704,33.14431 40.814417,33.058294 40.634788,32.972434 40.700372,32.678241 40.991232,30.829482 40.934976,30.79879 40.755468,30.632584 40.763287,30.442488 40.24134,30.195458 39.665412,29.726656 39.724624,29.593841 39.856447,29.44296 39.797692,29.396476 39.893168,29.18029 39.370192,28.909476 39.419207,27.182312 39.15782,27.000578 39.153945,26.911294 38.869643,26.800801 38.513764,26.581536 38.699252,26.210053 39.019781,25.815089 38.897648,25.702782 39.019976,25.484681 39.047852,25.44978 37.58469,23.774103 37.544184,23.75042 37.552065,23.736739 37.551264,23.735821 37.555,23.73041 37.527908,23.69039 37.665309,21.756217 37.433832,21.609752 37.437746,21.591923 37.277491,21.508971 37.029168,21.359384 37.371104,20.986887 37.624147,20.742919 37.644896,20.648414 37.600587,19.989006 37.378128,19.83716 36.985992,19.522946 37.275563,19.30035 37.468839,19.170042 37.486684,19.067659 37.589031,18.480438 37.225451,18.113682 37.478499,17.976678 37.644535,17.901469 37.720456,17.649035 37.825558,17.297221 37.56706,17.0274 37.768851,16.946172 37.907162,16.897634 37.974608,16.626136 38.040969,16.372418 37.826819,16.201634 37.970859,16.144727 38.059867,16.107118 38.055612,15.735007 38.066798,15.552604 37.892176,15.455351 37.98464,15.406846 38.041209,15.370838 37.929648,14.843683 37.917978,14.74048 37.809903,14.697655 37.857351,14.663385 37.886323,14.637773 37.644816,13.967205 37.637746,13.939298 37.606936,13.93092 37.626078,13.912656 37.488676,13.619135 37.411149,13.129272 37.333104,13.111278 37.293044,13.10506 37.388449,12.985832 37.38556,12.967576 37.396173,12.952394 37.326788,12.782793 37.199165,12.242977 36.999587,12.215159 36.893432,12.205009 37.108963,11.86144 37.102056,11.832225 37.120483,11.799997 36.901815,11.318445 36.562059,11.316992 36.392488,11.318453 36.581244,10.878611 36.666198,10.669448 36.663212,10.661084 36.675144,10.632129 36.524162,10.36779 35.988659,10.461286 35.767212,10.497743 35.863203,10.070204 35.944762,9.725115 35.675123,9.514649 35.244888,9.685423 34.989408,9.784561 35.000947,9.396504 35.010401,9.114678 34.51526,8.877013 34.256108,9.028929 33.977468,9.202018 33.940232,8.894025 33.904801,8.665857 33.724456,8.61946 33.11891,8.436001 32.774022,8.711431 32.73346,8.513047 32.69024,8.358064 31.855848,8.239046 31.593818,8.188836 31.471512,8.300769 31.454487,8.233613 31.435109,8.177881 30.895772,8.13557 30.347327,7.75978 30.208442,7.863447 30.131456,7.933782 30.009701,7.528441 29.978762,7.507242 29.911268,7.318366 29.572362,7.001208 29.104619,7.309953 28.849056,7.520516 28.775327,7.189308 28.693201,6.91371 28.038622,6.844101 27.981026,6.874659 27.886069,6.87063 27.676268,7.029632 27.6647,6.92757 27.648663,6.860558 27.325108,6.846831 27.055467,6.311434 26.840757,6.410949 26.684136,6.519347 26.692226,6.060243 26.606295,5.683025 26.525407,5.755622 26.420417,5.87946 26.412802,6.024319 26.478722,6.23675 26.143816,6.205714 26.103146,6.253687 26.113961,6.296272 26.18942,6.634155 25.681706,6.595489 25.678068,6.621119 25.617399,6.649723 25.588453,6.915357 25.569546,7.153032 25.010523,6.935848 24.913996,6.981358 24.876032,7.079415 24.848224,7.084895 24.769881,7.275752 24.708294,7.441436 24.398652,7.173494 24.210706,7.210534 23.989169,7.253083 23.975738,7.2785 23.961018,7.279506 23.876345,7.427135 23.807346,7.555232 23.61647,7.324663 23.615783,7.324795 23.599416,7.304216 23.375287,7.319532 23.032533,7.338851 23.02946,7.343872 23.018567,7.343961 22.932974,7.475021 22.860208,7.590467 22.695439,7.357851 22.686834,7.358336 22.67873,7.346725 22.442381,7.348647 22.06904,7.349386 22.068587,7.350074 22.057358,7.349983 21.971709,7.477301 21.895064,7.591423 21.732641,7.350051 21.721539,7.350073 21.719674,7.34724 21.48108,7.345302 21.11289,7.344567 21.103267,7.358329 21.094732,7.357749 21.009078,7.478664 20.929892,7.590468 20.767775,7.343878 20.760642,7.343864 20.754902,7.334647 20.520792,7.318732 20.193751,7.300117 20.174376,7.324791 20.171384,7.324202 20.074245,7.441968 19.982804,7.555234 19.822499,7.278986 19.81441,7.278526 19.79947,7.251013 19.564543,7.20478 19.38073,7.169348 19.208585,7.32023 19.081832,7.441441 18.931979,7.082844 18.914094,7.079396 18.876451,6.985008 18.734392,6.917917 18.426267,7.04217 18.220578,7.153036 18.162457,6.645185 18.112052,6.621102 18.10325,6.55993 17.916892,6.575945 17.600706,6.634155 17.70023,6.253107 17.634687,6.200877 17.311402,6.236763 17.363498,6.079542 17.337451,5.93812 17.220864,5.808514 17.178408,6.239365 17.105992,6.519348 16.627064,6.321662 16.55422,6.449433 16.46502,6.84683 16.240598,6.826599 16.164075,6.83512 16.113865,7.029632 15.995196,6.971889 15.844994,6.870653 15.809092,6.874651 15.689823,6.817246 15.477631,6.823969 15.130617,6.869013 15.059599,7.142563 14.941086,7.520489 14.594324,7.312956 14.180571,6.999427 13.914468,7.232706 13.811366,7.507231 13.803206,7.512168 13.700526,7.822865 13.658676,7.933777 13.398445,7.757066 13.251063,7.84624 12.894445,8.135549 12.467297,8.153125 12.368058,8.166372 12.318619,8.300778 12.24797,8.254763 12.159455,8.180477 11.451802,8.260431 11.129845,8.324902 11.016126,8.711416 10.818537,8.58785 10.602765,8.424905 10.410622,8.470701 9.90124,8.627614 9.871816,8.836698 9.81266,9.202012 9.523923,9.040344 9.245654,8.871088 8.778128,9.096884 8.790469,9.485043 8.800704,9.784576 8.437928,9.638063 8.119804,9.513652 7.843576,9.729053 7.967172,10.264371 8.02292,10.497739 7.590952,10.41921 7.259728,10.363549 7.110769,10.622221 7.126884,10.661008 7.126459,10.661917 7.330949,11.15225 7.397634,11.318432 6.902874,11.324932 6.816926,11.324569 6.628785,11.727343 6.687985,11.831991 6.687347,11.833527 6.845118,12.105578 6.896712,12.204953 6.505626,12.270965 6.383946,12.563866 6.347202,12.883594 6.408344,12.973135 6.475541,13.068565 6.497069,13.105057 6.329452,13.152383 6.282425,13.268244 6.301395,13.619266 6.1615,13.905086 6.183189,13.930921 6.145618,13.945794 5.916272,14.540584 5.895585,14.621452 5.980221,14.697653 5.923106,14.727466 5.862121,14.752264 5.86114,14.7561 5.852299,14.760583 5.74996,15.192751 5.732024,15.348675 5.897947,15.455379 5.804042,15.515868 5.702198,15.57316 5.693976,15.840667 5.709529,16.094208 5.963318,16.201662 5.839687,16.295829 5.743752,16.372131 5.791106,16.565309 5.880857,16.90778 6.223064,17.027438 6.067536,17.158447 5.957778,17.270966 6.019198,17.474927 6.1551,17.930149 6.564678,18.11368 6.35951,18.275018 6.193558,18.4372 6.212783,18.547487 6.327588,19.206157 6.804135,19.522916 6.517609,19.705109 6.19812,19.950363 6.168877,20.368958 6.319804,20.776552 6.326603,20.931751 6.512198,21.124023 6.760959,21.359384 6.354131,21.560216 6.356299,21.609716 6.274877,21.655683 6.373364,22.144046 6.262297,23.69005 6.243223,23.729074 6.236172,23.739734 6.24592,23.750462 6.236907,23.753951 6.221722,23.761577 5.452892,24.923772 4.749331,25.483016 4.89254,25.702862 4.752461,25.875617 4.992829,26.273226 5.276356,26.581546 4.699608,26.800534 4.65963,26.820884 4.632334,27.000518 4.483091,27.084681 4.548469,27.722791 4.419999,28.9093 4.201076,29.142747 3.925361,29.280105 3.992443,29.396416 3.892674,29.499135 4.124724,29.72664 3.897584,29.834483 3.046699,30.382695 3.034719,30.632548 2.826998,30.786528 3.073541,31.67921 3.155379,32.972258 3.09022,33.042384 2.983951,33.095212 3.014347,33.14428 2.978323,33.186491 3.082678,33.27982 2.986045,33.347894 1.940585,34.323889 1.952588,34.356792 1.99274,34.598767 1.856167,34.740848 2.321784,35.571868 2.632648,36.520324 2.490988,36.703251 2.194114,36.886791 2.289431,37.020472 2.205971,37.124215 2.56948,37.42552 2.285117,37.72828 1.709508,38.510481 1.813206,38.747632 1.764781,38.813855 2.242927,39.379572 2.552647,39.888359 2.261104,40.287716 1.557568,40.81086 0.888957,39.850672 0.532017,39.469767 1.148976,38.963524 1.222854,38.875346 1.10438,38.732556 1.227524,38.577771 0.801983,38.229304 0.543672,37.823792 0.815245,37.355563 1.103585,37.032835 1.052708,36.948224 1.23344,36.627467 1.20625,36.559075 0.69606,35.670156 1.173986,35.362059 1.707491,34.752379 1.570562,34.526648 1.727447,34.356129 1.263023,33.905263 1.012781,33.384164 1.271133,33.062604 1.518363,32.873949 1.492469,32.786416 1.708349,32.544079 1.469864,31.462462 2.001166,31.21388 2.531317,30.699848 2.395918,30.410524 2.511174,30.306842 2.178491,29.938939 2.02907,29.576466 2.435469,29.226182 2.802205,29.03623 2.795535,28.915382 3.061733,28.711719 3.081146,27.848771 3.071849,26.6887 3.372965,26.551543 3.318077,26.424088 3.33337,26.410797 3.261967,26.327884 3.230716,26.257377 3.816019,25.853102 4.115515,25.731053 4.383399,25.49824 4.383393,25.497589 4.386776,25.495305 4.622975,25.290031 4.586984,23.971912 4.491559,23.864366 4.245671,23.382897 4.398105,23.278868 4.56613,23.208151 4.565179,23.173324 4.627687,23.135363 4.544846,22.336106 5.220681,21.496458 4.945922,21.247244 4.800772,21.110496 5.036471,20.968722 5.340937,20.772088 4.82419,19.88899 4.877504,19.677571 4.795436,19.679534 4.885143,19.605398" slic3r:type="contour"/>
    <polygon style="fill: white" points="1.714171,41.145472 1.660641,41.21086 2.252922,41.767676 2.650328,42.068423 2.184874,42.737013 2.282406,42.873559 2.580775,43.169616 2.762696,43.37498 2.326941,43.967272 1.857934,44.372736 0.841783,43.300143 0.720514,43.196292 0.93447,42.97974 0.91498,42.963088 0.957685,42.909124 0.777546,42.777759 0.674244,42.658484 1.063065,41.893108 1.517281,41.225833 1.460378,41.163656 1.504277,41.052579 1.561228,40.958452" slic3r:type="contour"/>
    <polygon style="fill: white" points="2.850794,46.167155 3.086994,46.306772 2.758162,46.786449 2.790083,46.821316 2.783934,46.829576 3.045477,47.119036 3.242986,47.356176 2.893657,47.934891 2.419849,48.539323 1.27911,47.264408 1.167119,47.14682 1.269481,47.007074 1.254258,46.998139 1.265583,46.984155 1.172089,46.927587 1.129895,46.897 1.609714,46.109551 1.974014,45.57744" slic3r:type="contour"/>
    <polygon style="fill: white" points="3.108269,49.226047 3.57234,49.387084 3.211098,49.885479 2.75816,50.509603 2.748897,50.505187 2.717195,50.545496 2.70438,50.539068 2.674973,50.527172 2.703673,50.483625 1.933963,50.116644 1.627778,49.979079 1.963828,49.500452 2.455639,48.915584" slic3r:type="contour"/>
    <polygon style="fill: white" points="3.123752,51.29706 3.848987,51.543068 4.058907,51.583536 3.667565,52.157594 3.687042,52.189544 3.662006,52.22513 4.066964,52.993947 4.190136,53.256355 4.523124,53.312935 4.668465,53.320448 4.42411,53.754816 4.446831,53.80322 4.442576,53.811279 4.85326,54.526031 4.992765,54.792382 5.323926,54.786268 5.490531,54.76946 5.274818,55.334852 5.918009,56.183575 6.375892,56.083003 6.600363,56.024132 6.466701,56.765695 6.451521,56.876808 7.160844,57.516242 7.820756,57.253923 8.091347,57.140544 8.093247,57.81866 8.107468,58.345111 8.252712,58.444683 8.252711,58.444684 8.15807,58.413042 8.162122,58.473844 8.149064,58.479884 8.061249,58.514092 7.941478,58.45515 7.154181,58.811636 6.988596,58.87344 6.941275,58.050428 6.94131,57.962944 6.12447,57.560956 5.908078,57.475397 5.697345,57.515728 5.643517,57.473166 5.303201,57.566976 5.231557,57.579628 5.270162,57.17795 5.005839,56.968947 4.157117,56.387756 3.959803,56.104952 3.919023,56.053321 3.860639,56.052796 3.865328,56.036011 3.869435,56.024889 3.881402,55.981442 3.077004,54.482872 2.983645,54.329951 2.855896,54.306136 2.872688,54.271903 2.90996,54.209255 2.90757,54.20534 2.918546,54.181295 2.562356,53.502899 2.454068,52.458772 2.362709,52.429696 2.369991,52.407488 2.202677,52.355764 2.149054,52.33684 2.609424,51.577319 2.666684,51.502682 2.864053,50.900784" slic3r:type="contour"/>
    <polygon style="fill: white" points="9.964562,58.732848 10.056643,59.34188 9.234307,59.832244 8.99182,59.960376 8.863908,59.222951 8.801594,58.715956 9.578014,58.300343 9.885755,58.129744" slic3r:type="contour"/>
    <polygon style="fill: white" points="11.990135,59.509779 12.153323,60.16396 11.443859,60.671959 11.140038,60.870412 10.968202,60.217496 10.847016,59.653736 11.533602,59.211503 11.872777,58.981896" slic3r:type="contour"/>
    <polygon style="fill: white" points="14.073521,60.149876 14.305303,60.851636 13.691561,61.353388 13.335861,61.622108 13.144654,61.049675 12.968494,60.43044 13.575663,59.986555 13.942305,59.696248" slic3r:type="contour"/>
    <polygon style="fill: white" points="16.110481,60.651808 16.417761,61.405483 15.894545,61.889848 15.494372,62.231696 15.297728,61.740472 15.057202,61.068175 15.583077,60.632535 15.977709,60.273807" slic3r:type="contour"/>
    <polygon style="fill: white" points="18.109618,61.007528 18.500894,61.796276 18.059563,62.266524 17.636008,62.685232 17.436247,62.267303 17.117642,61.55792 17.561515,61.129532 17.974376,60.697356" slic3r:type="contour"/>
    <polygon style="fill: white" points="20.084703,61.215975 20.559213,62.012 20.185108,62.477852 19.767412,62.966932 19.562764,62.606364 19.158432,61.886528 19.527424,61.459435 19.942968,60.957312" slic3r:type="contour"/>
    <polygon style="fill: white" points="22.055164,61.277048 22.599528,62.043335 22.274175,62.524696 21.895064,63.064332 21.676791,62.738595 21.190588,62.043376 21.496956,61.603747 21.895064,61.046424" slic3r:type="contour"/>
  </g></svg>