<svg width="43.790126" height="63.590156" xmlns="http://www.w3.org/2000/svg" xmlns:svg="http://www.w3.org/2000/svg" xmlns:xlink="http://www.w3.org/1999/xlink" xmlns:slic3r="http://slic3r.org/namespaces/slic3r"><g xmlns="http://www.w3.org/2000/svg" slic3r:z="9.57499999999999e-006" id="layer28">
    <polygon style="fill: white" points="36.687844,19.087824 37.178708,19.352336 37.031887,19.574848 36.892884,19.758883 37.306412,20.334108 37.016352,20.635063 36.52699,21.251629 37.02258,21.567606 37.330903,21.784842 36.870499,22.122718 36.253839,22.592484 35.748779,22.288417 35.28334,21.883146 35.668267,21.542424 36.200535,21.170323 35.801927,20.678813 35.269524,20.106892 35.3408,20.061524 35.44142,19.922217 35.227072,19.795166 35.333096,19.649953 36.049148,18.775682" slic3r:type="contour"/>
    <polygon style="fill: white" points="21.996123,0.405298 22.167585,0.646994 22.169392,0.6469 22.191308,0.677761 22.416872,0.689969 22.839793,0.712028 23.187154,0.338505 23.268215,0.491121 23.402948,0.7414 23.405221,0.741519 23.43003,0.787288 23.673338,0.833031 24.076733,0.906269 24.4744,0.58682 24.534598,0.747316 24.631623,1.007011 24.63729,1.00804 24.664179,1.077162 24.885773,1.156541 25.271694,1.28896 25.739342,1.021401 25.779484,1.198809 25.8402,1.484026 25.852662,1.488302 25.879972,1.598963 25.990185,1.66297 26.375647,1.874607 26.962604,1.657155 26.979997,1.870964 26.998224,2.216431 27.022342,2.229673 27.042481,2.412177 27.360749,2.674805 27.572468,2.616224 28.117416,2.50414 28.102524,2.78413 28.05404,3.246892 28.097166,3.282479 28.092549,3.531575 28.222518,3.676797 28.747376,3.599544 29.207074,3.565156 29.144252,3.929165 28.996181,4.541243 29.053858,4.605688 29.032957,4.756439 29.214646,4.762921 29.288766,4.858989 29.888634,4.830151 30.247108,4.84005 30.124224,5.291265 29.965814,5.736526 30.312565,6.185957 30.555382,6.214438 30.602697,6.2912 30.997425,6.301332 31.259936,6.330085 31.07502,6.858854 31.023486,6.973866 31.477631,7.710649 31.607001,7.891381 31.81379,7.927571 31.840038,7.983982 32.080754,8.004383 32.269444,8.037456 32.08296,8.506061 32.437751,9.268563 32.68355,9.711122 32.876358,9.752309 32.893088,9.804871 33.086339,9.831276 33.269991,9.87397 33.069211,10.358216 33.44384,11.535226 33.716976,11.601337 33.729391,11.675932 33.990808,11.726984 34.291292,11.814269 34.117103,12.259737 33.89138,12.649238 33.924656,12.849178 33.927076,12.851874 33.925709,12.855505 33.943144,12.960263 34.898177,13.7833 35.395452,13.963588 35.365079,14.059467 35.318704,14.145706 35.339564,14.163682 35.333449,14.180759 35.56756,14.315027 35.502664,14.544117 35.307448,16.05515 35.376573,16.088115 35.971031,16.310284 36.48086,16.55867 36.407348,16.766016 36.308949,16.94669 36.710332,17.26404 36.55426,17.501169 36.071868,18.629456 35.3735,18.133686 34.760608,17.686365 34.824384,17.581896 34.920509,17.371765 34.620528,17.262886 34.741528,17.024385 35.085233,16.332137 35.17772,16.033667 34.447011,15.666553 33.806792,15.247324 33.834919,15.061657 33.867472,14.908794 33.853241,14.807003 33.562988,14.754515 33.660363,14.558438 33.776038,14.254828 33.732112,13.940658 33.709781,13.130105 33.234098,12.86568 33.114481,12.762784 32.612538,12.626057 32.453328,12.607948 32.61794,12.33566 32.578442,12.301684 32.627033,12.189107 32.342945,11.906433 31.553225,10.73431 31.489065,10.720267 31.457299,10.718126 31.498089,10.652477 31.490413,10.641084 31.500915,10.61863 31.421998,10.493924 30.726167,8.992452 30.589744,8.970445 30.505734,8.968354 30.622009,8.767698 30.604264,8.729408 30.625516,8.682364 30.363822,8.165349 30.053508,7.395704 29.764876,7.369246 29.565286,7.374579 29.809527,6.889714 29.828812,6.838412 29.792294,6.747839 29.817547,6.68445 29.450681,5.993647 28.964128,5.990324 28.647192,6.0227 28.809786,5.620669 28.980422,5.044428 28.946876,4.968802 28.961261,4.923201 28.843791,4.804896 28.82216,4.80751 28.757901,4.765983 28.167196,4.824168 27.740524,4.910966 27.82886,4.606978 27.9172,4.147768 27.562903,3.87491 27.473178,3.831931 27.355325,3.859343 26.836508,4.031574 26.868056,3.829066 26.886951,3.551128 26.816271,3.517271 26.290429,3.207627 26.260181,3.196396 25.919596,3.361487 25.919422,3.246758 25.90644,3.065047 25.379362,2.869336 25.131511,2.75441 24.962306,2.86706 24.951721,2.805858 24.927234,2.693342 24.200005,2.491026 24.061195,2.444274 23.966736,2.527098 23.954035,2.490134 23.926024,2.413931 23.132685,2.271344 23.015124,2.24702 22.9413,2.330535 22.925242,2.299507 22.889421,2.231169 22.08721,2.179469 21.962432,2.170432 21.895064,2.268277 21.8739,2.237986 21.826491,2.169425 21.025374,2.221181 20.901732,2.230125 20.848826,2.330541 20.825236,2.304626 20.771231,2.24405 20.001497,2.381687 19.867854,2.409287 19.82342,2.527099 19.792632,2.501782 19.718095,2.437625 19.063457,2.612934 18.872357,2.677342 18.82782,2.86706 18.771593,2.834111 18.646166,2.753578 18.644345,2.754192 18.620662,2.739584 18.205148,2.876975 17.903403,3.018368 17.870532,3.361491 17.75364,3.31715 17.505608,3.20477 17.497616,3.208515 17.404544,3.170215 17.377301,3.180843 16.930703,3.451317 16.953616,4.031575 16.729043,3.985597 16.270807,3.85097 16.246946,3.86542 16.173211,3.848064 15.882692,4.079351 15.971273,4.427454 16.049604,4.910949 15.694436,4.886908 15.009487,4.774528 14.968022,4.807539 14.935849,4.804492 14.828272,4.915819 14.8433,4.968826 14.813508,5.022809 15.053031,5.681407 15.142935,6.022696 14.657881,6.042851 14.264176,6.018206 13.944197,6.598011 13.997802,6.747855 13.979795,6.782541 14.155952,7.170581 14.224818,7.374578 13.631068,7.454276 13.298371,8.095133 13.135882,8.603203 13.185837,8.72941 13.178312,8.741823 13.253759,8.887415 13.284365,8.968353 13.003854,9.029616 12.769495,9.416221 12.27928,10.588347 12.310614,10.669259 12.322068,10.690054 12.332827,10.718153 12.198366,10.757976 11.834304,11.177807 11.140705,12.074401 11.211694,12.301699 11.199598,12.310122 11.29283,12.482885 11.336799,12.607942 10.78478,12.814201 10.383476,12.878488 10.063621,13.101241 9.988775,14.070246 10.082342,14.271172 10.227129,14.754497 10.078784,14.820975 9.928259,14.853713 9.925739,14.886341 9.910571,14.892234 9.983287,15.247383 9.647096,15.420053 8.610329,16.024793 8.667986,16.179034 8.699895,16.316175 8.940417,16.7909 9.169608,17.262843 9.041242,17.32223 8.886479,17.379872 9.029504,17.686388 8.797519,17.851363 7.718265,18.629463 7.315187,17.997239 7.079809,17.263986 7.255088,17.099658 7.505065,16.907041 7.309262,16.558668 7.595704,16.45385 8.293149,16.149608 8.292401,16.145932 8.479421,16.068334 8.228855,15.242925 8.222564,14.315056 8.340702,14.214962 8.494613,14.132087 8.394674,13.96362 8.545143,13.922684 8.738052,13.86084 9.201926,13.372121 9.818839,12.940498 9.854366,12.475887 9.681765,12.097372 9.49883,11.814283 10.039681,11.714091 10.073152,11.601368 10.25594,11.560612 10.4683,10.800736 10.711787,10.227706 10.623675,10.038108 10.520158,9.873946 10.880411,9.830861 10.913808,9.752266 11.043573,9.727951 11.334275,9.090488 11.707762,8.414045 11.61582,8.20371 11.520679,8.037468 11.929905,8.011707 11.97636,7.92757 12.12157,7.906118 12.627146,7.093412 12.767812,6.889916 12.643299,6.562762 12.530191,6.330065 13.085705,6.329401 13.159293,6.323571 13.234725,6.214443 13.434133,6.196169 13.826652,5.694754 13.668017,5.163585 13.543051,4.84003 13.994954,4.872946 14.483445,4.871944 14.575528,4.762938 14.761911,4.760257 14.736285,4.605668 14.800951,4.527458 14.697022,3.994436 14.583051,3.56516 14.932918,3.625667 15.537595,3.684744 15.70175,3.499235 15.69294,3.282429 15.750856,3.231774 15.737355,3.039956 15.672709,2.50412 15.931545,2.582744 16.385394,2.685784 16.753303,2.3803 16.767848,2.2297 16.802761,2.20955 16.827524,1.657157 17.016971,1.74584 17.368451,1.883081 17.464976,1.827374 17.915665,1.579404 17.937515,1.488323 17.954248,1.482339 18.050782,1.021402 18.200941,1.119565 18.491088,1.290353 18.720782,1.208208 19.129578,1.067921 19.15284,1.007973 19.158973,1.00682 19.31575,0.586823 19.444701,0.698575 19.698189,0.905422 19.955412,0.857052 20.36225,0.78323 20.384932,0.741563 20.385323,0.741542 20.602974,0.338504 20.718152,0.467397 20.943141,0.71132 21.179864,0.698493 21.598824,0.676649 21.895064,0.260708" slic3r:type="contour"/>
    <polygon style="fill: white" points="8.183476,19.38037 8.563056,19.79516 8.482345,19.834341 8.365162,19.9023 8.520606,20.106884 8.334478,20.332555 7.589743,21.187098 8.118903,21.649822 8.506777,21.883138 8.24043,22.021918 7.536412,22.59248 6.818736,22.059097 6.459219,21.784836 6.962493,21.471637 7.255155,21.269474 6.838265,20.829307 6.483714,20.334124 6.693111,20.089106 6.920367,19.759504 6.611421,19.352334 6.900136,19.213223 7.741039,18.775692" slic3r:type="contour"/>
    <polygon style="fill: white" points="7.94162,23.15803 8.611569,23.73234 8.547992,23.754046 7.550924,24.392509 7.901099,24.686861 8.378431,25.26104 8.089856,25.399281 7.230155,25.754695 7.27535,25.981174 7.720388,26.436196 7.889985,26.678878 7.451468,26.863732 7.492836,27.071036 7.627616,27.458638 7.312085,27.442604 6.787566,27.605411 6.97636,27.79086 7.354187,28.193078 6.717855,28.512866 6.592552,28.568548 6.713174,29.101955 6.899835,30.020712 6.834477,30.067819 5.860174,30.777622 5.864351,30.802206 5.720998,30.928262 5.935938,32.026335 6.200573,32.179336 6.582279,32.288262 5.990551,32.763468 5.997946,32.88027 5.879008,33.003908 6.032937,33.969207 6.048463,34.485781 6.215796,34.566936 6.538056,34.629384 6.06491,35.033019 6.069804,35.195848 5.951953,35.333042 6.118475,36.403156 6.138593,36.870251 6.319364,36.946724 6.685145,37.0051 6.164654,37.475361 6.174516,37.70434 6.04275,37.871663 6.303248,39.224286 6.544343,39.311112 6.983371,39.37344 6.592593,39.757836 6.377667,40.01683 6.39963,40.2625 6.279285,40.428881 6.589575,41.526496 6.944622,41.624284 7.424486,41.665388 7.11459,42.021131 6.800131,42.459942 6.838264,42.678704 6.746935,42.821022 7.109652,43.752142 7.532047,43.82188 8.028639,43.821388 7.764038,44.190863 7.446985,44.726453 7.500206,44.919167 7.443496,45.023759 7.867727,45.83367 8.313281,45.846 8.807891,45.788464 8.577955,46.20234 8.318073,46.769672 8.384812,46.93494 8.359359,46.9946 8.859136,47.704263 9.291994,47.64272 9.769371,47.516924 9.583423,47.995048 9.410244,48.545871 9.486929,48.679063 9.482939,48.692597 10.071767,49.300581 10.487433,49.165611 10.930392,48.973912 10.805976,49.520244 10.721223,50.015801 10.792646,50.101549 11.480371,50.631875 11.864179,50.437536 12.264882,50.192776 12.211328,50.793827 12.193115,51.21684 12.232347,51.250987 13.025086,51.713903 13.3742,51.47252 13.734924,51.1834 13.75554,51.807407 13.783167,52.188015 14.645051,52.57005 14.966347,52.2861 15.29705,51.952616 15.382692,52.550884 15.454548,52.952764 16.281915,53.229218 16.586575,52.8956 16.905368,52.50776 17.029602,53.019 17.172908,53.536194 17.937283,53.713416 18.233033,53.319752 18.546888,52.8724 18.68504,53.278328 18.92785,53.934804 19.61969,54.028583 19.904737,53.573136 20.212654,53.07148 20.350291,53.387795 20.697174,54.147214 21.333487,54.175369 21.600302,53.667719 21.895064,53.129492 22.038036,53.401104 22.454534,54.176943 23.085483,54.149069 23.315624,53.618059 23.577478,53.07148 23.759961,53.363263 24.175316,54.033497 24.848282,53.942507 25.028501,53.409 25.243216,52.872404 25.494868,53.20816 25.867224,53.721225 26.59695,53.552272 26.723033,53.026364 26.884758,52.50776 27.219159,52.874963 27.533575,53.238257 28.272041,52.991147 28.274092,52.981707 28.313968,52.96393 28.38453,52.457699 28.493078,51.952615 28.899344,52.3124 29.179833,52.577912 29.937447,52.240153 29.938681,52.229364 29.983509,52.202945 29.99819,51.69476 30.05518,51.183408 30.495592,51.487844 30.804543,51.719076 31.521516,51.296535 31.521606,51.28246 31.573715,51.241738 31.525178,50.722547 31.52523,50.19276 31.970351,50.417311 32.353297,50.63254 32.991952,50.133466 32.989516,50.111083 33.048349,50.049155 32.926326,49.523528 32.859748,48.973911 33.288871,49.111503 33.765384,49.294375 34.312379,48.718589 34.303196,48.679052 34.364472,48.589558 34.162548,48.075792 34.020756,47.51692 34.422707,47.571099 34.981413,47.68852 35.43634,47.024099 35.40534,46.934972 35.46293,46.82092 35.193576,46.338756 34.982236,45.788496 35.351899,45.773744 35.974579,45.807652 36.352353,45.059511 36.289916,44.919131 36.339805,44.785313 36.026683,44.348955 35.761487,43.821392 36.108755,43.758064 36.738981,43.714581 37.052962,42.872372 36.951852,42.678768 36.991567,42.531468 36.663976,42.155564 36.36564,41.665443 36.713507,41.56188 37.278132,41.468614 37.535651,40.513493 37.3905,40.262508 37.418528,40.110767 37.11096,39.808728 36.80676,39.373444 37.191716,39.22462 37.599832,39.129184 37.806706,38.009173 37.615604,37.704316 37.63268,37.583533 37.380636,37.35812 37.104996,37.00512 37.579839,36.789688 37.751534,36.74284 37.927813,35.495969 37.720316,35.19578 37.731363,35.110192 37.513535,34.927923 37.252072,34.629368 37.766756,34.361775 37.830601,34.341328 37.987707,33.124121 37.79212,32.880194 37.80147,32.818138 37.543292,32.615311 37.207844,32.288262 37.591288,32.050429 37.938686,31.907529 38.082182,30.955229 37.925728,30.80219 37.930204,30.781993 37.503028,30.475664 36.912951,30.037073 36.962503,29.997724 36.898128,29.982171 36.944608,29.770607 37.213609,28.532014 36.854708,28.346132 36.435912,28.193066 36.668747,27.968946 36.946447,27.680929 36.783952,27.667146 36.162479,27.458596 36.312473,26.806508 36.125811,26.72619 35.900128,26.67884 36.349092,26.254831 36.478677,26.083941 36.556347,25.746278 36.048075,25.502603 35.4117,25.261032 35.583983,25.126132 36.241994,24.395776 35.963504,24.285856 35.178556,23.73234 35.247964,23.692232 36.152164,22.973582 36.527164,23.094592 37.277196,23.573179 37.040315,23.743698 36.274453,24.376391 36.95608,24.578428 37.516336,24.840582 37.152459,25.298836 36.814452,25.642072 37.423949,25.923037 37.891612,25.932414 37.843408,26.032929 37.82801,26.109301 37.9907,26.184298 37.918524,26.282487 37.761926,26.437051 37.754884,26.471977 37.5645,26.745127 37.435304,27.352823 38.458111,27.870128 38.488204,27.875862 38.538301,27.905556 38.626596,27.916348 38.614849,27.950929 38.646572,27.969732 38.630407,27.984694 38.599796,28.011705 38.393323,28.898474 38.234592,29.586158 39.218388,30.343354 39.295696,30.395286 39.157671,30.474665 39.175927,30.481238 39.106617,30.53096 39.126468,30.598839 39.244908,30.605158 39.32968,30.679678 39.20976,32.071333 39.138124,32.469806 39.184396,32.51338 39.178711,32.688138 39.569743,33.021656 39.323347,33.067214 39.163429,33.157909 39.134211,34.056052 39.036245,34.788268 39.115796,34.875024 39.107373,35.110403 39.540811,35.52108 39.261887,35.529772 39.089491,35.610224 39.052631,36.640392 38.958547,37.370527 39.02554,37.452384 39.011711,37.623011 39.31288,37.93688 39.118943,37.92896 38.982489,37.983576 38.847656,39.647232 38.780451,40.048625 38.813828,40.094048 38.80135,40.166139 38.94222,40.330356 38.850284,40.323915 38.769241,40.351654 38.41012,42.426512 38.367229,42.590947 38.380724,42.61188 38.37269,42.639935 38.433863,42.721103 38.391356,42.717347 38.347101,42.729297 37.744184,44.834839 37.702175,44.947795 37.711123,44.964463 37.703498,44.982324 37.746664,45.051036 37.713112,45.046252 37.673293,45.053072 36.874255,46.924624 36.794116,47.081595 36.805352,47.108708 36.791968,47.130538 36.850052,47.249864 36.795915,47.237384 36.724478,47.240622 35.811503,48.72978 35.652228,48.958825 35.665104,49.005156 35.642943,49.030441 35.715404,49.249928 35.623127,49.217216 35.492118,49.20253 34.56068,50.265283 34.28987,50.546359 34.298296,50.604587 34.269204,50.62892 34.330595,50.963532 34.198104,50.897892 34.012285,50.843811 33.156721,51.559416 32.762227,51.863915 32.763766,51.927004 32.730668,51.947771 32.75483,52.386404 32.589925,52.279936 32.367541,52.175617 31.620599,52.644288 31.111885,52.940763 31.10655,53.002832 31.071362,53.019553 31.040822,53.531856 30.858262,53.383708 30.624679,53.231814 29.965209,53.545192 29.376836,53.805019 29.366246,53.86106 29.33034,53.873941 29.24168,54.412788 29.061288,54.232584 28.84262,54.048903 28.197182,54.280443 27.589363,54.482803 27.575618,54.530708 27.547076,54.537857 27.412583,55.04052 27.255838,54.850628 27.070085,54.657329 26.332497,54.842072 25.761299,54.974147 25.747752,55.009836 25.730803,55.01234 25.570958,55.446356 25.443979,55.264491 25.295353,55.076682 24.424622,55.205339 23.915199,55.274316 23.903932,55.298503 23.89893,55.298746 23.729048,55.66352 23.627745,55.495979 23.509766,55.317623 22.544371,55.364448 22.085155,55.38478 21.895064,55.725292 21.808318,55.563444 21.707564,55.38331 20.747914,55.336632 20.289815,55.316377 20.06108,55.663511 19.975323,55.482299 19.889884,55.298695 19.886208,55.298532 19.872156,55.268723 19.014123,55.141127 18.5129,55.073402 18.21915,55.446328 18.133402,55.230764 18.052865,55.011242 18.042424,55.009831 18.024045,54.963685 17.305304,54.782636 16.747524,54.653806 16.377512,55.040512 16.299313,54.790187 16.231523,54.534625 16.214443,54.53068 16.194505,54.467213 15.585612,54.248259 14.98244,54.047215 14.548439,54.41276 14.489428,54.143555 14.444909,53.868049 14.423881,53.86104 14.407172,53.785394 13.8143,53.504348 13.206188,53.234626 12.749323,53.531876 12.718682,53.27526 12.703878,53.011831 12.683586,53.002832 12.67349,52.918667 11.995663,52.495748 11.466395,52.185185 11.035308,52.38644 11.031407,52.165183 11.044888,51.937853 11.026372,51.926988 11.02508,51.840047 10.214932,51.167904 9.820566,50.860652 9.459523,50.963495 9.474684,50.791704 9.507696,50.616894 9.491804,50.604512 9.499752,50.52212 8.576464,49.4797 8.333338,49.224144 8.074722,49.249952 8.098128,49.1333 8.137023,49.017791 8.125014,49.005168 8.139925,48.936251 7.208015,47.435624 7.087736,47.25952 6.940093,47.249848 6.960849,47.182676 6.992081,47.119468 6.98477,47.108763 6.999612,47.064474 6.190206,45.187888 6.130727,45.068428 6.043443,45.05102 6.060011,45.009648 6.083253,44.973076 6.078972,44.964479 6.092162,44.934428 5.515212,42.905783 5.460121,42.752796 5.356273,42.721112 5.381308,42.668339 5.414162,42.625172 5.409391,42.61192 5.431553,42.569759 5.133161,40.718599 5.055598,40.409762 4.847897,40.33038 4.909582,40.213887 4.984685,40.127404 4.976306,40.094036 5.035982,39.993102 4.960077,38.661844 4.871264,38.112369 4.477246,37.936872 4.619163,37.6924 4.777217,37.530517 4.764588,37.452384 4.889352,37.259624 4.876461,36.592479 4.783039,35.79869 4.249316,35.521072 4.468216,35.18586 4.687187,34.984257 4.674333,34.87504 4.81655,34.678589 4.798521,34.262956 4.694893,33.322587 4.220375,33.021658 4.427685,32.75055 4.614944,32.597077 4.605721,32.513379 4.68093,32.42532 4.460423,30.67981 4.83775,30.752903 4.870342,30.681321 4.587643,30.460483 4.529021,30.422867 4.494424,30.395266 5.060613,29.88049 5.549118,29.560752 5.189874,28.009947 5.143532,27.96969 5.172532,27.95134 5.163526,27.91625 5.187481,27.912165 5.25566,27.903004 5.302041,27.875748 5.339721,27.869564 5.795215,27.648617 6.335338,27.365201 6.120911,26.5862 6.035246,26.471947 6.00972,26.371203 5.799449,26.184268 5.889014,26.158572 5.948705,26.130387 5.898537,25.93239 6.081258,25.872912 6.635015,25.806331 6.994183,25.636742 6.575519,25.136302 6.273797,24.84057 6.697137,24.764318 7.515866,24.378499 7.17474,24.122319 6.512921,23.573186 6.739788,23.53199 7.637981,22.973574" slic3r:type="contour"/>
  </g></svg>