<svg width="43.790126" height="63.590156" xmlns="http://www.w3.org/2000/svg" xmlns:svg="http://www.w3.org/2000/svg" xmlns:xlink="http://www.w3.org/1999/xlink" xmlns:slic3r="http://slic3r.org/namespaces/slic3r"><g xmlns="http://www.w3.org/2000/svg" slic3r:z="1.91449999999999e-005" id="layer57">
    <polygon style="fill: white" points="22.071238,2.192291 22.102011,2.191059 22.110403,2.207501 22.397947,2.218695 22.721623,2.231656 22.723726,2.22816 22.744157,2.230695 22.825019,2.13118 22.954738,1.972631 23.096878,2.246679 23.128642,2.247951 23.142502,2.280123 23.431949,2.316037 23.791404,2.358062 23.884088,2.268046 24.027278,2.137284 24.132157,2.397901 24.165468,2.401795 24.184666,2.455107 24.471504,2.519206 24.892607,2.598015 25.005445,2.511642 25.139269,2.42569 25.203054,2.656115 25.23921,2.662881 25.252877,2.712361 25.444838,2.764334 26.262915,2.922581 26.288071,2.907785 26.306676,2.8996 26.312103,2.932096 26.314692,2.932597 26.315604,2.938034 26.397264,2.952679 26.751054,3.581762 26.968361,3.826913 27.000815,3.811372 27.550868,3.620259 27.590583,3.939884 27.628449,4.550173 28.148456,4.670672 28.396766,4.595284 28.407897,4.598416 28.644926,4.514341 28.790194,4.4789 28.803131,4.709613 28.938628,4.747734 29.111852,4.728084 29.256803,5.256505 29.437017,5.545633 29.993087,5.381213 30.043038,5.760961 30.011932,6.425405 30.370804,6.532272 30.56738,6.417661 30.629263,6.45103 31.005737,6.22677 31.187328,6.135542 31.334932,6.831552 31.733547,7.0465 31.835085,6.971436 31.895344,7.0353 32.226799,6.783282 32.408768,6.661652 32.597529,7.344399 32.65117,7.672094 32.98686,7.732477 33.28778,7.502913 33.657936,7.249002 33.757227,7.702317 33.79651,7.946103 34.50185,8.09393 34.7945,7.930722 34.813811,8.112144 34.820601,8.210002 35.321372,8.358033 35.13376,8.974735 35.447799,8.829517 35.626212,8.660432 35.83224,9.091775 35.849939,9.143696 36.069076,9.135825 35.993192,9.262869 35.943823,9.361177 36.159796,9.898028 36.263159,10.198139 36.286776,10.200285 36.287846,10.20313 36.894032,10.22947 36.66898,10.549282 36.509286,10.793745 36.696675,11.352685 36.707899,11.353629 36.71672,11.375005 37.368587,11.421457 37.685012,11.441817 37.326811,11.912237 37.061501,12.280437 37.146137,12.513763 37.561743,12.537292 37.693084,12.482516 38.228832,12.326747 38.319784,12.548512 38.332756,12.58278 38.378195,12.585274 38.352692,12.624429 38.736403,13.415107 38.783695,13.524132 38.786732,13.524301 38.79001,13.531298 38.959756,13.54253 38.903836,13.625387 38.864282,13.689804 39.146992,14.29315 39.219603,14.466729 39.231663,14.467946 39.233771,14.473868 39.5042,14.510165 39.409203,14.636755 39.336171,14.745388 39.343268,14.762354 39.338539,14.768213 39.511559,15.254321 39.604291,15.541344 39.624764,15.545171 39.624799,15.545343 40.020476,15.63935 39.863444,15.821223 39.743057,15.970853 39.75176,15.997789 39.724003,16.028655 39.788724,16.343967 39.889748,16.873186 39.919539,16.882091 39.919824,16.886123 40.520696,17.097676 40.240359,17.374462 40.026759,17.590929 40.033608,17.626808 39.975479,17.682867 40.012446,18.25397 40.347108,18.511752 41.02838,19.040358 41.028172,19.1184 41.029387,19.118963 41.029282,19.120978 41.047276,19.130114 41.027912,19.145662 41.0279,19.148007 41.027874,19.148029 40.956139,20.525248 40.881574,21.264174 40.952108,21.3071 40.94568,21.419291 41.080135,21.508097 41.516663,21.787144 41.220578,22.002228 41.268364,22.0896 41.140012,22.201257 41.473987,22.521525 41.706372,23.0312 41.584596,23.925585 41.41995,24.434154 41.518696,24.51212 41.503554,24.645115 41.809636,24.850686 41.502839,25.137977 41.553968,25.405948 41.403207,25.526472 41.400579,25.549544 41.393657,25.56949 41.663296,26.379031 41.95463,27.831066 41.985016,27.851244 41.962736,27.871469 41.966496,27.890207 41.954803,27.899429 41.970927,27.960441 42.00136,28.094048 41.747524,29.373987 41.469514,29.985169 41.667439,30.121283 41.666545,30.1324 42.036956,30.318716 41.622543,30.679329 41.612014,30.810204 41.621428,32.190115 41.982971,32.378815 42.215668,32.51019 41.814004,32.873021 41.643356,34.203014 42.11518,34.464876 42.381228,34.630312 42.044312,34.939904 41.702312,35.222249 41.695805,36.300236 42.087932,36.529 42.464952,36.786456 42.207312,37.020883 41.875804,37.284978 41.896204,37.597743 41.913325,38.639778 41.951407,38.663783 42.450728,39.033376 42.280972,39.183939 42.035119,39.36929 42.156768,40.951651 42.172781,41.352337 42.322708,41.472788 42.27818,41.510692 42.209581,41.559943 42.260704,42.135064 41.791108,42.849927 41.452636,43.456398 41.929483,43.897211 42.067288,44.010332 41.439927,44.310512 40.984055,44.5619 40.960908,44.591692 40.958434,44.581415 40.294343,43.968767 40.051584,43.698088 40.597515,43.409528 40.864722,43.295295 40.700068,42.437364 40.609222,41.60152 40.397904,41.42076 40.302096,41.323516 40.600492,41.149413 40.54284,40.820948 40.411232,39.512216 40.491828,39.339935 40.528385,39.163885 40.433344,39.097836 40.467827,39.073916 40.634775,38.951909 40.857416,38.204352 40.931746,37.206895 40.4632,36.894728 40.637027,36.76716 41.171042,36.364663 41.142446,35.272611 40.713423,34.984699 40.399336,34.777236 40.691988,34.541979 41.134424,34.199611 40.779996,33.673044 40.411567,32.826313 40.303587,32.756455 40.241676,32.712602 40.425615,32.545211 40.339072,32.431562 40.193248,32.17379 40.280112,31.135723 40.240539,30.686151 39.913312,30.501916 40.131768,30.363993 40.239345,30.285015 40.212776,29.23449 40.116719,28.569351 39.673548,28.754122 39.664868,28.361306 39.658768,28.299219 39.651328,28.295878 39.649655,28.271542 39.586696,28.235492 39.64554,28.211668 39.60522,27.625068 39.72018,27.97989 39.763539,28.160263 39.941424,28.056653 40.081241,27.974121 39.858397,25.536462 39.847291,25.533104 39.856619,25.525604 39.854679,25.5098 39.858299,25.508491 40.028886,25.274511 39.955907,25.22384 39.883988,24.999908 39.881492,24.801784 39.949906,24.740901 39.841468,24.631432 39.97924,24.059237 40.257638,22.807598 39.756451,22.510132 39.488216,22.436168 39.565265,21.837663 39.454876,21.775806 39.326104,21.68221 39.566899,21.449032 39.68849,19.766589 39.370458,19.616215 38.934524,19.55905 38.832036,19.553956 38.8349,19.349982 38.771472,19.323992 38.830218,19.273093 38.818123,19.078435 38.736097,17.727899 38.548715,17.672415 38.259812,17.591562 38.609144,17.253353 38.668506,17.192307 38.543747,16.520098 38.229547,16.462151 37.772824,16.383433 37.927559,16.202248 38.337284,15.697701 38.286536,15.53966 37.836984,15.496439 37.262444,15.434748 37.305659,15.373786 37.830196,14.635641 37.361944,14.608046 37.28531,14.601612 37.141764,14.751587 36.985448,15.003188 36.770631,14.558402 36.766828,14.558083 36.765838,14.555945 36.730599,14.555042 36.68304,14.551651 36.730229,14.47904 36.699752,14.413218 36.317932,13.605461 36.299471,13.603766 36.297707,13.599167 36.168195,13.5907 35.99592,13.575 36.185111,13.30566 36.051236,12.956685 35.858273,12.461139 35.843228,12.459509 35.83966,12.44975 35.56768,12.425537 35.198804,12.385141 35.57712,11.897839 35.619336,11.847139 35.411647,11.27909 34.979403,11.241683 34.333389,11.168107 34.025714,10.114449 34.009135,10.112687 34.006588,10.09909 33.776099,10.058692 33.310116,9.986476 33.54918,9.6855 33.860981,9.321625 33.827972,9.145375 33.686037,9.110027 33.291208,9.403668 32.963434,9.678669 32.813391,8.92499 32.785926,8.920264 32.78483,8.914541 32.523034,8.862932 31.816926,8.764661 31.882813,8.581918 31.683066,8.69594 31.663213,8.620919 31.431194,7.601315 31.415626,7.599741 31.3596,7.412257 30.564606,7.789224 30.270022,7.953813 30.17654,7.414908 30.152804,7.088835 30.129534,7.08356 30.047974,6.74793 29.945874,6.772277 29.674218,6.706675 29.313083,6.839489 28.856466,7.008579 28.85265,6.75394 28.844007,6.506188 27.854836,6.267313 27.731986,6.066444 27.684628,6.08093 27.633289,6.098049 27.644311,5.923088 27.624868,5.891296 27.621007,5.813669 27.187055,5.047122 26.845853,5.192858 26.52291,5.335615 26.497162,4.996401 26.468167,4.639844 26.044125,4.503303 25.569338,4.780929 25.442378,4.577263 25.3613,4.229519 25.074667,4.127648 24.77472,4.465162 24.746684,4.486982 24.699775,4.442505 24.679896,4.474007 24.068539,4.248253 24.014237,4.428622 24.555698,4.667779 24.003686,4.579124 24.004178,4.985994 23.990344,5.127066 24.369015,5.248354 23.983475,5.24778 23.955562,6.05982 23.956836,6.059915 23.954768,6.072174 24.075252,6.110615 23.949602,6.122377 23.949312,6.126254 23.945631,6.126326 23.931198,6.211867 23.931198,6.211868 23.897939,6.128688 23.888191,6.129819 23.887997,6.127458 23.038789,6.144127 22.964151,6.146215 22.963981,6.14906 22.947119,6.148833 22.89446,6.37476 22.83421,6.149848 22.812976,6.150443 22.812796,6.147026 22.05865,6.136878 21.945774,6.136137 21.895064,6.343212 21.844891,6.136972 21.076964,6.147441 20.977265,6.148096 20.977135,6.150472 20.955448,6.150024 20.895666,6.374783 20.844048,6.148969 20.826143,6.149087 20.826072,6.147349 19.901994,6.128242 19.901897,6.129863 19.890189,6.128661 19.858928,6.211855 19.846012,6.126442 19.84083,6.1263 19.840756,6.123585 19.714964,6.110669 19.834239,6.064973 19.833308,6.059999 19.839006,6.059509 19.818838,5.321008 19.813731,5.255992 19.421113,5.248351 19.7505,5.133902 19.802983,5.119125 19.801666,5.102361 19.814485,5.101006 19.820094,4.692704 19.8098,4.594436 19.234478,4.667759 19.69722,4.434088 19.789567,4.40126 19.786712,4.374003 19.884502,4.35717 19.843208,4.245282 19.06474,4.488203 19.043444,4.486982 19.02107,4.295864 18.856553,4.14981 18.770879,4.192163 18.288185,4.35915 18.220746,4.780931 18.165344,4.670802 17.900313,4.493335 17.893022,4.495857 17.870673,4.482495 17.845153,4.491707 17.322277,4.655318 17.30106,4.925386 17.267218,5.335616 16.917667,5.188477 16.589098,5.045162 16.34244,5.464537 16.171783,5.789959 16.165288,5.891252 16.15204,5.912081 16.156899,6.033907 16.156866,6.098048 16.053337,6.067259 16.01149,6.133051 15.935235,6.267372 15.235465,6.443488 14.955016,6.509766 14.933662,7.00858 14.696819,6.921648 14.117384,6.707721 13.844404,6.772234 13.742337,6.746998 13.705009,6.898496 13.660592,7.083539 13.607821,7.099533 13.515658,7.694615 13.520103,7.953813 13.127315,7.774657 12.485583,7.439667 12.411211,7.462209 12.374501,7.59974 12.352383,7.603688 12.184591,8.248757 12.107062,8.69594 12.067026,8.670967 11.984989,8.622522 11.930541,8.671603 11.973202,8.764661 10.972707,8.935965 10.911021,9.243674 10.826714,9.678647 10.610446,9.521174 10.111598,9.128115 9.959082,9.163626 9.925406,9.34392 10.190501,9.675665 10.480027,9.986448 9.782664,10.104097 9.781048,10.112658 9.764651,10.114099 9.681212,10.400051 9.456736,11.168399 9.409542,11.172709 8.384345,11.271404 8.163742,11.877183 8.35968,12.129245 8.591307,12.385128 7.952659,12.444032 7.946914,12.459475 7.936072,12.460476 7.806167,12.800675 7.598958,13.328095 7.689488,13.456851 7.794208,13.575 7.493813,13.595725 7.490653,13.603767 7.475152,13.605049 7.406856,13.753082 7.058224,14.484801 7.079802,14.51788 7.107085,14.551679 7.025158,14.554201 7.023293,14.558115 7.020376,14.558317 7.001046,14.599355 6.804675,15.003219 6.45551,14.656626 6.410725,14.60056 5.956922,14.632004 6.194749,14.967378 6.527681,15.43478 6.421468,15.445023 5.497782,15.538142 5.451245,15.682091 5.722058,16.002173 6.017327,16.383403 5.679681,16.445615 5.233211,16.525758 5.128231,17.080517 5.115005,17.161314 5.313991,17.356475 5.530308,17.591576 5.052417,17.732942 5.027129,18.134439 4.959727,19.272477 4.986423,19.295651 5.018653,19.323994 4.956416,19.348819 4.958017,19.403561 4.958088,19.553955 4.316935,19.657527 4.121795,19.752191 4.191451,20.550892 4.236014,21.516889 4.334878,21.603401 4.464023,21.68221 4.249247,21.803756 4.249911,21.81813 4.236044,21.828483 4.269213,22.026895 4.301921,22.436138 3.725046,22.871516 3.64332,22.898091 3.717107,23.150039 3.948661,24.631432 3.908565,24.701411 3.854164,24.753285 3.871464,24.771986 3.849834,24.81709 3.906137,24.999908 3.801795,25.098204 3.750746,25.023714 3.688938,25.152605 3.751584,25.261267 3.744161,25.267428 3.933881,25.510835 3.935476,25.509762 3.934308,25.527314 3.942868,25.533076 3.93221,25.561274 3.823302,27.663683 3.759036,28.002193 3.949654,28.114356 4.035924,28.155531 4.184863,27.62456 4.157482,28.15417 4.15008,28.210019 4.203402,28.23547 4.141288,28.276369 4.134149,28.330226 4.116502,28.754407 4.001712,28.534376 3.730041,28.415964 3.667143,30.04282 3.62117,30.307667 3.688793,30.354651 3.876812,30.50192 3.693188,30.612405 3.575579,30.678728 3.596887,32.173798 3.337943,32.540797 3.498737,32.676799 3.548451,32.712632 3.358636,32.827286 2.606051,34.164246 3.141178,34.588716 3.390791,34.777264 3.13721,34.948807 2.74408,35.210212 2.764721,35.41538 2.730719,36.443036 2.907037,36.573331 3.326927,36.894736 3.18455,36.998999 2.910504,37.186123 3.185898,38.678923 3.214791,38.991004 3.356772,39.097828 3.33023,39.11912 3.271557,39.161364 3.378899,39.512396 3.160786,41.154918 3.38103,41.278351 3.488036,41.323548 3.167032,41.588877 2.894428,43.303049 3.451882,43.587831 3.738539,43.698104 3.310523,44.078616 2.830845,44.582774 2.829209,44.591647 2.770375,44.545459 1.8834,44.100615 1.722837,44.010332 2.24065,43.511964 1.946769,43.11704 1.529416,42.13492 1.578067,41.780843 1.586916,41.557025 1.467428,41.472776 1.515736,41.440795 1.635532,41.348411 1.754423,40.247307 1.778821,39.356485 1.339399,39.03334 1.529971,38.919627 1.9353,38.633244 1.95081,37.29071 1.727288,37.098015 1.325172,36.786424 1.62202,36.623484 2.126042,36.296062 2.12233,35.385687 2.005092,35.176104 2.000885,35.130432 1.65883,34.829643 1.408887,34.630308 1.79429,34.425964 2.048732,34.274106 1.846754,33.640508 1.897094,32.776547 1.763832,32.659829 1.574443,32.510204 1.988772,32.300355 1.93066,31.662111 2.117195,30.59706 2.028737,30.520921 1.753167,30.318718 2.06066,30.176759 2.126409,30.144584 2.122687,30.121284 2.260155,30.022772 2.293873,29.580218 2.00935,28.698835 1.788767,28.094048 1.83664,27.899155 1.823631,27.890208 1.828723,27.872024 1.805111,27.851246 1.841595,27.826055 2.234184,26.423982 2.466717,25.570379 2.236158,25.405932 2.315452,25.137794 1.98049,24.850686 2.237938,24.682403 2.300363,24.640525 2.27143,24.51212 2.429131,24.377919 2.083757,23.031128 2.77421,22.302413 2.521743,22.089562 2.56375,22.027166 2.471049,21.956606 2.273452,21.787156 2.668249,21.515229 2.849626,21.399804 2.838019,21.3071 2.930303,21.247506 2.799749,19.589959 2.763255,19.148855 2.762273,19.148044 2.762271,19.147515 2.742866,19.130122 2.760909,19.120515 2.760781,19.118955 2.762141,19.118326 2.761792,19.040234 2.83841,18.981158 3.779895,18.253197 3.817307,17.687594 3.756519,17.626857 3.762686,17.596193 3.604101,17.437691 3.269427,17.097688 3.628359,16.982493 3.869573,16.89739 3.870583,16.882124 3.908514,16.871116 3.921956,16.804285 4.070458,16.036099 4.038372,15.997745 4.043899,15.981923 3.769655,15.639349 4.001891,15.588782 4.164404,15.550129 4.165365,15.545157 4.198732,15.538723 4.347259,15.11357 4.457435,14.776769 4.446863,14.762338 4.449915,14.755707 4.285928,14.510155 4.445346,14.487848 4.556841,14.472895 4.558458,14.467951 4.583791,14.464792 4.850939,13.884277 4.928005,13.702344 4.8304,13.542519 4.932159,13.533464 5.00147,13.52891 5.003425,13.524294 5.01453,13.52331 5.413875,12.682569 5.438298,12.627017 5.411914,12.585271 5.458957,12.581731 5.561389,12.32656 5.724182,12.401364 6.092912,12.527163 6.168449,12.520768 6.654388,12.505124 6.732939,12.293696 6.219403,11.600574 6.105115,11.441822 6.714214,11.39131 7.076522,11.368905 7.082203,11.353614 7.107955,11.350776 7.288523,10.825384 7.17861,10.663196 6.896108,10.229471 7.297121,10.208609 7.508876,10.19968 7.552032,10.194921 7.65356,9.92635 7.845946,9.388197 7.721021,9.13584 7.875006,9.140475 7.962795,9.143705 8.163904,8.660453 8.707998,8.870161 8.582219,8.524601 8.468749,8.358062 8.912964,8.176826 8.978371,8.16399 8.995607,7.930745 9.128624,8.029662 9.225137,8.08512 9.665072,7.950935 10.023145,7.889963 10.026547,7.872192 10.028403,7.871685 10.132179,7.249002 10.467108,7.521927 10.741621,7.713625 11.170606,7.653683 11.195316,7.54642 11.223155,7.416812 11.225492,7.415418 11.333486,6.946615 11.381358,6.661653 11.85204,7.041664 11.919996,7.001126 11.955041,6.971436 11.961532,6.976348 12.534514,6.634546 12.573439,6.622279 12.621306,6.288142 12.602825,6.135517 13.106621,6.454233 13.222762,6.41763 13.331813,6.48446 13.802518,6.385455 13.852555,5.791263 13.79704,5.381215 14.034115,5.496799 14.239385,5.563006 14.678312,4.728054 15.009839,4.666492 15.012102,4.583414 14.999936,4.478897 15.309867,4.610779 15.393294,4.595287 15.471935,4.621973 16.178342,4.499184 16.1815,4.458327 16.186472,4.458156 16.230941,4.056531 16.239279,3.620237 16.432812,3.725444 16.720811,3.837216 17.3928,2.952727 17.475277,2.934357 17.475456,2.932625 17.480359,2.931317 17.48348,2.899596 17.517158,2.921494 17.566097,2.908429 18.54576,2.69226 18.550916,2.662881 18.595622,2.652842 18.620919,2.559208 18.65085,2.42569 18.86134,2.59317 19.120092,2.535062 19.612889,2.44082 19.62466,2.401796 19.667979,2.396417 19.704811,2.303838 19.76285,2.137285 19.987067,2.356808 20.287067,2.319566 20.649815,2.277021 20.661484,2.247952 20.698494,2.246511 20.748257,2.150218 20.83538,1.972634 21.044928,2.230679 21.0664,2.228161 21.068792,2.232093 21.362627,2.220652 21.679669,2.207963 21.688116,2.191059 21.721121,2.192343 21.785646,2.092661 21.895064,1.920481" slic3r:type="contour"/>
    <polygon style="fill: black" points="23.007891,5.241709 22.980395,5.873614 22.974753,5.968309 22.989187,5.96834 22.986453,5.980071 23.871762,6.054157 23.868341,6.044598 23.881539,6.04881 23.823812,5.345875 23.818858,5.258856 23.813224,5.259161 23.812636,5.252674 23.132661,5.241347" slic3r:type="hole"/>
    <polygon style="fill: black" points="20.083459,5.255899 19.977,5.255712 19.976892,5.259168 19.967295,5.258981 19.905811,6.048809 19.921742,6.044697 19.918751,6.052656 20.704024,5.985169 20.803211,5.977939 20.800937,5.968366 20.818774,5.968394 20.79402,5.361468 20.786962,5.245893" slic3r:type="hole"/>
    <polygon style="fill: black" points="21.196178,5.23791 21.033805,5.239794 21.033683,5.242383 21.025757,5.242496 20.992944,5.861536 20.98731,5.964521 21.005133,5.963222 21.003681,5.968682 21.672287,5.969725 21.803534,5.969449 21.803439,5.969065 21.818453,5.96904 21.788148,5.338437 21.781796,5.226427" slic3r:type="hole"/>
    <polygon style="fill: black" points="21.97804,5.879137 21.973016,5.968776 22.651352,5.967626 22.786241,5.96791 22.785,5.963212 22.803189,5.964734 22.771745,5.36802 22.764853,5.242417 22.756473,5.242441 22.756222,5.237871 22.175831,5.22652 22.010292,5.224599" slic3r:type="hole"/>
    <polygon style="fill: black" points="23.03673,4.784292 23.022138,5.00551 23.688437,5.07459 23.797396,5.084673 23.763625,4.71236 23.75973,4.563838 23.151106,4.516509 23.041899,4.511696" slic3r:type="hole"/>
    <polygon style="fill: black" points="20.138202,4.565747 20.01573,4.571292 19.987866,4.909435 19.982412,5.083252 20.630597,5.014726 20.772052,5.00177 20.771135,4.986751 20.780263,4.98666 20.77633,4.685819 20.764796,4.519534" slic3r:type="hole"/>
    <polygon style="fill: black" points="21.229662,4.497546 21.070406,4.500655 21.056417,4.759891 21.045857,4.984026 21.586876,4.978656 21.766837,4.976717 21.754831,4.655069 21.744654,4.482073" slic3r:type="hole"/>
    <polygon style="fill: black" points="22.03997,4.772566 22.028244,4.976595 22.569887,4.982024 22.742285,4.983881 22.726142,4.689704 22.717186,4.4976 22.204671,4.482226 22.051649,4.479236" slic3r:type="hole"/>
    <polygon style="fill: black" points="23.077678,4.236853 23.567821,4.317751 23.658313,4.329437 23.613577,4.1513 23.194359,4.08066 23.122593,4.072718" slic3r:type="hole"/>
    <polygon style="fill: black" points="20.28456,4.156289 20.122369,4.174336 20.079628,4.323582 20.54845,4.242884 20.743898,4.218249 20.7422,4.193765 20.762718,4.193222 20.729243,4.085" slic3r:type="hole"/>
    <polygon style="fill: black" points="22.104613,4.173378 22.463917,4.182912 22.651737,4.186403 22.612113,4.028975 22.285672,4.013017 22.147779,4.008446" slic3r:type="hole"/>
    <polygon style="fill: black" points="21.331386,4.030015 21.171482,4.035305 21.133726,4.183395 21.485842,4.17407 21.709976,4.169906 21.666863,4.013709" slic3r:type="hole"/>
    <polygon style="fill: black" points="24.171827,3.857289 24.170652,3.90909 24.154586,3.962455 24.314862,4.118534 24.381917,4.07425 24.291724,3.840785 24.203312,3.815801" slic3r:type="hole"/>
    <polygon style="fill: white" points="41.2629,46.48164 41.628292,46.85086 41.159595,46.96864 40.482744,47.27806 40.022388,46.8419 39.633799,46.29268 39.954587,46.160884 40.748204,45.922792" slic3r:type="contour"/>
    <polygon style="fill: white" points="40.737443,49.308523 40.98588,49.635712 40.401444,49.731967 39.806532,49.938795 39.346956,49.307188 39.056696,48.73978 39.42414,48.606931 40.225532,48.468804" slic3r:type="contour"/>
    <polygon style="fill: white" points="40.047351,51.698419 40.204732,51.961604 39.569036,51.962395 39.002728,52.073664 38.583128,51.359052 38.359912,50.809312 38.775707,50.727708 39.576728,50.694804" slic3r:type="contour"/>
    <polygon style="fill: white" points="38.738676,52.656012 39.095647,53.756307 39.1931,53.989556 38.544388,53.884444 37.981183,53.900504 37.651504,53.1276 37.49034,52.58028 37.92728,52.578008" slic3r:type="contour"/>
    <polygon style="fill: white" points="36.830475,54.188207 37.630276,54.382708 37.831324,55.518964 37.883899,55.742707 37.243544,55.53908 36.685519,55.452004 36.480228,54.63498 36.389884,54.10198" slic3r:type="contour"/>
    <polygon style="fill: white" points="35.431404,55.600672 36.169616,55.88922 36.216248,57.040379 36.232556,57.246124 35.592335,56.955579 35.068788,56.777224 34.999644,55.921771 34.978976,55.431244" slic3r:type="contour"/>
    <polygon style="fill: white" points="33.777676,56.820312 34.438728,57.168028 34.350696,58.314063 34.34178,58.501903 33.710923,58.134531 33.23174,57.8944 33.279376,57.021452 33.312036,56.576712" slic3r:type="contour"/>
    <polygon style="fill: white" points="31.938489,57.837355 32.529496,58.226572 32.32622,59.34936 32.298658,59.528136 31.689651,59.095503 31.250252,58.811216 31.394574,57.940983 31.468964,57.530592" slic3r:type="contour"/>
    <polygon style="fill: white" points="29.994235,58.644011 30.533706,59.073564 30.235853,60.153096 30.190044,60.339452 29.618268,59.857484 29.204974,59.53296 29.424422,58.688363 29.537488,58.29156" slic3r:type="contour"/>
    <polygon style="fill: white" points="28.026758,59.23494 28.541708,59.722232 28.171608,60.731991 28.098128,60.94838 27.584807,60.436335 27.179992,60.061452 27.453954,59.269095 27.612608,58.860408" slic3r:type="contour"/>
    <polygon style="fill: white" points="26.056682,59.629412 26.555672,60.18548 26.129066,61.116723 26.018538,61.368224 25.567161,60.838915 25.171436,60.406612 25.492536,59.675192 25.700552,59.24914" slic3r:type="contour"/>
    <polygon style="fill: white" points="24.095054,59.850504 24.574742,60.47418 24.102499,61.333104 23.95146,61.6098 23.555309,61.067803 23.1778,60.581024 23.542917,59.906552 23.796984,59.471268" slic3r:type="contour"/>
    <polygon style="fill: white" points="3.624456,46.15076 4.156324,46.292656 3.904164,46.51796 3.307428,47.27806 2.603139,47.064016 2.161851,46.850892 2.500824,46.473296 3.041905,45.922808" slic3r:type="contour"/>
    <polygon style="fill: white" points="4.230719,48.685952 4.733429,48.739771 4.463546,49.104191 3.983594,49.938796 3.127248,49.757024 2.80425,49.635723 3.119295,49.062472 3.564594,48.468804" slic3r:type="contour"/>
    <polygon style="fill: white" points="4.947762,50.8197 5.430206,50.809292 5.178357,51.231496 4.787401,52.073664 3.834857,52.01696 3.585415,51.961636 3.864947,51.283363 4.213367,50.69482" slic3r:type="contour"/>
    <polygon style="fill: white" points="6.10119,53.038315 5.808888,53.900492 4.814363,53.999728 4.597047,53.989576 4.80382,53.253348 5.051452,52.655972 5.81401,52.648427 6.29978,52.580252" slic3r:type="contour"/>
    <polygon style="fill: white" points="7.274991,54.591183 7.10464,55.451999 6.112183,55.712916 5.906225,55.742696 6.019221,54.986332 6.159875,54.382676 6.917277,54.229428 7.400246,54.10198" slic3r:type="contour"/>
    <polygon style="fill: white" points="8.766636,55.965783 8.721324,56.77726 7.742877,57.184319 7.557566,57.246124 7.57521,56.473815 7.620521,55.889244 8.366052,55.608384 8.811166,55.431252" slic3r:type="contour"/>
    <polygon style="fill: white" points="10.508341,57.145588 10.558362,57.89438 9.612029,58.420703 9.448348,58.5019 9.378703,57.722796 9.351384,57.168103 10.083299,56.784883 10.478086,56.576724" slic3r:type="contour"/>
    <polygon style="fill: white" points="12.417059,58.113335 12.539848,58.811252 11.641486,59.431724 11.49149,59.52814 11.342941,58.754003 11.26063,58.226572 11.972319,57.761084 12.321162,57.5306" slic3r:type="contour"/>
    <polygon style="fill: white" points="14.399107,58.86042 14.585152,59.53296 13.750653,60.221803 13.600084,60.339451 13.383732,59.586463 13.256419,59.073564 13.936183,58.546863 14.252637,58.29156" slic3r:type="contour"/>
    <polygon style="fill: white" points="16.35577,59.382479 16.610134,60.061452 15.860626,60.792979 15.692,60.948384 15.425863,60.241387 15.248415,59.722284 15.87192,59.155156 16.177518,58.860412" slic3r:type="contour"/>
    <polygon style="fill: white" points="18.291791,59.715263 18.618658,60.406712 17.958715,61.164692 17.771558,61.36822 17.468794,60.716904 17.234456,60.185464 17.786997,59.592308 18.089606,59.24914" slic3r:type="contour"/>
    <polygon style="fill: white" points="20.216439,59.887219 20.612326,60.580992 20.033406,61.35958 19.838665,61.609832 19.508618,61.010988 19.2154,60.474128 19.694951,59.862356 19.993144,59.471264" slic3r:type="contour"/>
    <polygon style="fill: white" points="22.145656,59.92472 22.595236,60.599388 22.079307,61.405896 21.895064,61.68582 21.540157,61.125215 21.19486,60.59946 21.608675,59.966884 21.895063,59.540592" slic3r:type="contour"/>
  </g></svg>