<svg width="43.790126" height="63.590156" xmlns="http://www.w3.org/2000/svg" xmlns:svg="http://www.w3.org/2000/svg" xmlns:xlink="http://www.w3.org/1999/xlink" xmlns:slic3r="http://slic3r.org/namespaces/slic3r"><g xmlns="http://www.w3.org/2000/svg" slic3r:z="2.80549999999999e-005" id="layer84">
    <polygon style="fill: white" points="7.714214,57.728967 7.783817,58.511686 9.015077,58.831691 9.56974,58.504224 9.582912,58.5924 9.649281,58.912866 11.082434,59.147448 11.508412,59.450561 11.608699,59.387188 11.636014,59.368272 11.683925,59.57545 11.693815,59.582487 11.695406,59.587981 12.813969,60.270251 13.193811,60.505872 13.667484,60.170708 13.784506,60.078328 13.998974,60.82304 14.079624,61.055353 14.11144,61.075088 14.125246,61.114688 14.727794,61.441408 14.09756,61.375608 13.997748,61.448244 13.859748,61.429472 13.31609,61.871827 13.179758,61.97282 12.955149,61.306417 12.104894,61.190755 11.134876,61.111391 11.102599,61.132364 11.075016,61.127309 10.960191,61.210535 10.931127,61.229536 10.893332,61.094013 10.732612,61.06456 10.418052,61.024696 9.594544,60.393848 9.140567,60.090269 9.140254,60.09046 9.13044,60.081411 8.724093,60.30222 8.701249,60.186987 8.63513,59.752279 8.595718,59.725924 8.562628,59.55851 7.670663,58.836077 7.646194,58.847395 7.611609,58.806026 7.390277,58.908015 6.66199,59.198508 6.63716,58.918272 6.597768,57.977336 7.091608,57.784336 7.705302,57.51052" slic3r:type="contour"/>
    <polygon style="fill: white" points="6.121382,56.766484 6.047289,57.624572 5.44911,57.779028 4.852222,57.899656 4.886157,57.453008 4.982119,56.689412 5.660471,56.544819 6.166527,56.413728" slic3r:type="contour"/>
    <polygon style="fill: white" points="4.88421,55.671043 4.673518,56.358644 3.880037,56.393068 3.452301,56.3936 3.620568,55.811556 3.822257,55.233304 4.666408,55.224048 5.042749,55.203112" slic3r:type="contour"/>
    <polygon style="fill: white" points="2.3589,48.930099 2.575741,49.112258 2.627541,49.142583 2.674237,49.184503 3.023707,49.382972 3.061953,49.403564 3.003461,49.48005 3.04876,49.520716 3.088278,49.55428 2.686485,50.194272 2.334932,50.791502 3.301622,51.294548 3.454279,51.356312 3.179952,51.758653 3.183962,52.350861 3.5609,52.475955 3.729615,52.527492 3.303089,53.079596 3.284713,53.101774 3.355139,53.753956 3.99149,53.866028 4.248227,53.900784 3.945345,54.439576 3.658466,54.96068 2.715053,54.814452 2.456292,54.769352 2.791766,54.126236 2.90872,53.925247 2.520029,53.440687 2.420842,53.295513 1.954073,53.151127 1.824649,53.116296 2.111756,52.735164 1.993759,52.547899 1.74491,51.944307 1.589544,51.85942 1.517967,51.835032 1.946762,51.201652 2.287694,50.797682 1.444763,50.030013 1.112569,49.836884 1.159645,49.777323 1.093364,49.721079 1.124021,49.680235 1.931408,48.591616" slic3r:type="contour"/>
    <polygon style="fill: white" points="1.95403,45.30852 2.593314,46.00192 2.552316,46.0662 2.466078,46.180103 2.625219,46.284616 2.566496,46.356508 1.764132,47.393951 1.292479,47.077671 0.661505,46.631744 0.740754,46.534831 0.876208,46.370209 0.86598,46.360152 0.883648,46.337215 0.596486,46.055992 0.735596,45.876452 1.477407,44.856676" slic3r:type="contour"/>
    <polygon style="fill: white" points="1.687015,40.882959 2.202747,41.649504 2.097735,41.829684 1.87064,42.105303 1.912043,42.140875 1.899701,42.159967 2.250796,42.410208 2.116745,42.552728 1.344968,43.518956 0.840861,43.162023 0.273702,42.669152 0.403173,42.507324 0.638978,42.24914 0.617304,42.224132 0.688933,42.127347 0.203632,41.557763 0.474213,41.22388 1.141586,40.2466" slic3r:type="contour"/>
    <polygon style="fill: white" points="1.565844,33.126442 1.461658,33.268077 1.952954,33.871892 2.338145,34.197616 1.824289,34.544175 1.435557,34.904277 1.486133,35.103279 1.398322,35.189444 1.841876,35.953168 2.130579,36.674304 1.879646,37.085408 1.392092,37.574229 1.528419,37.723448 1.475609,37.807318 2.091501,38.283788 1.829409,38.509511 1.105644,39.326348 0.533294,38.890635 0.100599,38.416696 0.330037,38.14022 0.729626,37.775046 0.683759,37.701336 0.856295,37.482455 0.671696,37.07214 0.156613,36.191924 0.770532,35.529019 0.993213,35.205721 0.856806,35.038372 0.9601,34.886028 0.529891,34.506956 0.321255,34.204884 0.772662,33.731088 1.41418,33.267224 1.355536,33.088382 1.420686,33.022058 1.467796,32.99085" slic3r:type="contour"/>
    <polygon style="fill: white" points="2.695119,29.425022 2.705709,30.011829 2.898726,30.297783 3.018055,30.400342 2.71554,30.556535 2.717365,30.657663 2.670549,30.695129 2.755301,30.970244 2.806003,31.322058 2.22835,32.066519 1.508042,32.57585 1.15038,30.632335 0.950518,30.321918 1.003131,30.275096 1.076403,30.230351 1.072256,30.20781 1.127658,30.160367 1.081478,29.756398 1.302055,29.603105 2.489222,28.263445" slic3r:type="contour"/>
    <polygon style="fill: white" points="19.531886,3.474357 19.556228,3.67667 19.715944,3.501338 19.766904,3.480737 19.83821,3.369042 19.872166,3.438183 19.985334,3.392433 20.070793,3.671023 20.22495,3.457841 20.253576,3.735259 20.320343,3.880256 20.420487,3.882808 20.424641,3.877294 20.427591,3.877197 20.66068,3.516895 20.732758,3.733268 20.800302,3.864912 20.878728,3.862327 21.040703,3.865554 21.235146,3.538922 21.326073,3.729396 21.399902,3.862507 21.557602,3.86132 21.709869,3.86273 21.895064,3.539138 21.999124,3.726868 22.080382,3.868856 22.221264,3.869947 22.372328,3.868556 22.55498,3.538916 22.668417,3.727633 22.763436,3.887258 22.8016,3.888764 22.942512,3.885897 23.129446,3.516898 23.281959,3.730023 23.381299,3.883549 23.565186,3.457833 23.763202,3.670497 23.853419,3.526409 23.804812,3.392433 23.890164,3.46772 23.95195,3.369043 24.001357,3.45405 24.023177,3.488633 24.074208,3.501338 24.280356,3.729446 24.482436,3.555599 24.46674,3.23532 24.52244,3.36819 24.631982,3.426946 24.764684,3.312784 24.787155,3.510177 25.18205,3.721988 25.40934,3.422381 25.332882,3.694327 25.504805,3.928542 25.797722,3.851722 25.737036,4.126811 25.953867,4.193477 26.094067,4.120783 25.813753,4.34943 25.970856,4.563455 25.714563,4.728264 26.147702,4.795621 26.334683,4.854329 26.401536,4.851526 26.474187,4.851117 26.498176,4.890768 26.448669,4.93175 26.369454,5.270503 26.228377,5.645838 26.327673,5.680028 26.793893,5.619366 26.867521,5.633523 26.926061,5.617427 26.975824,5.609851 26.970953,5.664986 27.023573,5.646443 26.966773,5.712302 26.948074,5.923988 26.89416,6.117739 26.855585,6.393232 27.009883,6.426389 27.198454,6.330154 27.356146,6.349271 27.47756,6.283241 27.641062,6.213012 27.654199,6.385404 27.740395,6.395854 27.913418,6.36834 27.67883,6.708624 27.706993,7.078188 27.997875,7.128324 28.03594,7.085168 28.225496,7.113613 28.32093,7.038924 28.53743,6.871428 28.578151,7.166534 28.748007,7.192023 29.141831,7.230692 28.771619,7.579859 28.655181,7.724779 28.664503,7.792341 28.636772,7.833728 28.645722,7.91027 29.070319,8.000089 29.292431,8.047703 29.292841,8.046881 29.336078,8.056966 29.396865,7.975424 29.580532,7.717835 29.624715,8.124288 29.769961,8.158165 30.192988,8.27209 29.660976,8.487403 29.6914,8.761425 29.6991,8.843908 29.97723,8.909152 30.563997,9.054395 30.588083,9.013225 30.655083,8.865127 30.6719,9.084558 30.72472,9.100002 30.946498,9.176513 30.946498,9.176514 30.689309,9.220457 30.71863,9.42795 30.748432,9.644623 30.927385,9.689209 31.686919,9.888288 31.711698,9.834021 31.719864,9.896514 31.96294,9.984866 31.962939,9.984866 31.741608,9.989289 31.847758,10.424747 32.078309,10.483485 32.39475,10.575881 32.515819,10.460162 32.612184,10.289884 32.709675,10.669675 32.917774,10.733093 33.077283,10.797702 33.156479,10.70564 33.163818,10.605269 33.091494,10.543443 32.987136,10.387365 33.218281,10.485878 33.250864,10.415626 33.250864,10.415627 33.266539,10.512484 33.475177,10.604822 33.71583,10.724227 33.609136,10.469291 33.575608,10.280546 33.825336,10.37768 34.058012,10.040125 34.080552,10.110119 34.153455,10.109932 34.224324,9.885951 34.309332,9.908652 34.769143,10.129543 34.969315,9.843288 35.248652,9.536884 35.604224,9.883006 35.763114,10.187129 36.031631,10.067131 36.392868,9.949822 36.462256,10.47299 36.477594,10.682629 36.804368,10.638721 37.183516,10.623938 37.102316,11.090836 37.049939,11.322485 37.387396,11.346744 37.765067,11.412414 37.600612,11.837449 37.49278,12.073884 37.821336,12.159423 38.182576,12.287323 37.950732,12.661583 37.794118,12.89097 38.095739,13.0265 38.443148,13.206309 38.166235,13.524927 37.944996,13.762783 38.232876,13.939962 38.575204,14.171507 38.276252,14.440092 37.973829,14.692405 38.242767,14.89194 38.608456,15.179091 38.312087,15.416267 37.777772,15.793892 38.18874,16.085249 38.601648,16.311929 38.346971,16.519736 38.118371,16.672908 38.374331,16.849499 38.684152,17.066486 38.337192,17.565388 38.49818,17.682859 38.783744,17.844368 38.599516,18.056671 38.475228,18.263545 38.976604,18.496112 38.756344,18.87728 38.35347,19.450587 39.262399,19.901061 39.481384,19.989476 39.227859,20.290975 39.295904,20.341758 39.203209,20.503234 39.470384,20.687319 39.928408,21.229202 39.9803,21.593439 39.979636,21.695561 40.010328,21.712076 40.018587,21.754165 40.141343,21.797102 40.095856,21.841199 40.050117,21.914842 40.277576,23.073934 40.28816,23.590338 40.416432,23.663824 40.443702,23.823183 40.941276,24.03699 40.753539,24.190024 40.558069,24.491508 40.599524,24.733761 40.568438,25.901619 40.812996,26.05033 40.839381,26.289053 41.411919,26.658929 41.902132,26.898768 41.504899,27.223386 41.213451,27.669285 41.24922,27.69263 41.40112,27.925176 41.256768,28.133726 41.198052,28.105702 41.107964,28.029684 41.105349,27.822807 40.34882,27.480506 39.788836,27.038516 39.905084,26.810738 40.297966,26.416644 40.177344,26.3186 40.352456,25.971258 40.41458,25.907017 39.374292,25.038272 39.05446,24.899456 39.022638,24.373039 38.9704,24.33472 38.967888,24.311239 38.88474,24.277566 38.80878,24.224026 38.932925,23.984264 38.837119,23.088273 38.749604,22.530191 38.554092,22.398566 38.548119,22.339889 38.284811,22.232688 38.045508,22.066986 38.347392,21.492744 38.451368,21.38936 38.403411,20.918204 38.216756,20.809574 38.217694,20.762549 37.8278,20.597374 37.471352,20.36742 37.690276,19.936764 38.122885,19.46742 37.554888,19.184926 37.019016,18.901496 37.116412,18.704737 37.227938,18.566698 36.850564,18.305276 37.151696,17.754615 37.198799,17.665584 36.948944,17.461708 36.727808,17.36695 37.1131,16.906525 37.27156,16.747737 37.1063,16.645292 36.614772,16.329033 36.975743,15.971003 37.42754,15.727757 36.986544,15.433684 36.613016,15.179969 37.064676,14.820541 37.255992,14.686755 36.933132,14.495889 36.583844,14.307241 37.021248,13.962151 37.151483,13.856854 36.847624,13.723627 36.488156,13.58865 36.877303,13.204486 36.953675,13.124728 36.695695,13.062089 36.317392,12.979211 36.672449,12.474496 36.438043,12.467744 36.06214,12.442246 36.275274,11.926278 36.076071,11.967905 35.742024,12.005425 35.80705,11.554 35.670623,11.629721 35.448721,11.719287 35.450311,11.734797 35.153975,11.630653 35.062348,11.729208 35.120912,11.962193 35.148588,12.073809 34.818017,11.984616 34.797864,12.005558 34.535834,11.953262 34.567195,12.360252 34.579696,12.530608 34.101038,12.301736 34.026036,12.454989 33.823936,12.795282 33.573476,12.484921 33.357804,12.319461 33.212252,12.476783 32.986873,12.737584 32.828047,12.303708 32.741841,12.045622 32.602529,11.992392 32.338303,12.206029 32.060422,12.454726 31.943058,11.991675 31.887366,11.745539 31.722862,11.697067 31.545034,11.655992 31.464465,11.716659 31.058564,12.049345 30.980759,11.690416 30.947125,11.530516 30.263774,11.420265 30.014026,11.640555 29.964808,11.450273 29.949877,11.391376 28.995742,11.32629 28.978653,11.261699 28.9435,11.299297 28.80266,10.613472 28.790906,10.552042 28.772671,10.483116 28.278283,10.411855 28.276939,10.413685 28.163319,10.395283 28.081179,10.383444 27.819444,10.616312 27.775409,10.33937 27.771132,10.338753 27.770292,10.331633 27.410008,10.273284 27.571018,10.060849 27.705945,9.925541 27.684982,9.800169 27.704824,9.779423 27.680737,9.605045 27.663004,9.601375 27.662497,9.596159 26.863548,9.422582 27.304137,9.094682 27.572495,8.892104 26.68598,8.70867 26.579874,8.8321 26.563141,8.68495 26.519419,8.673745 26.556724,8.641241 26.555603,8.633059 26.561689,8.628507 26.560624,8.25392 26.543674,8.118339 26.226288,8.060043 26.381708,7.883412 26.496163,7.738295 26.481266,7.61912 26.56844,7.521899 25.706196,7.426767 25.807185,7.2291 25.666944,7.242398 25.563714,7.293609 25.675788,6.912879 25.673223,6.719616 25.14107,6.606734 25.407565,6.077172 25.136479,6.028272 24.806726,6.107618 24.928522,5.904725 24.943353,5.812629 24.561239,5.688437 24.556377,5.721345 24.152669,5.472158 24.030665,5.836919 23.919694,5.683633 23.644823,5.316025 23.593459,5.419426 23.37204,5.904616 23.251985,5.720275 22.973269,5.317233 22.903846,5.442226 22.644212,5.925742 22.527289,5.733538 22.259646,5.304928 22.176281,5.447126 21.895064,5.925744 21.780144,5.729718 21.535048,5.312094 21.446612,5.457391 21.145914,5.925758 21.038802,5.733011 20.823637,5.339321 20.740169,5.467114 20.418114,5.904597 20.317727,5.702698 20.142712,5.336372 20.04876,5.465742 19.759458,5.83693 19.676184,5.632943 19.568556,5.347291 19.282253,5.666587 19.233798,5.721259 19.227872,5.703053 18.913201,5.745041 18.983402,6.107636 18.538154,6.210886 18.415204,6.20618 18.649039,6.606742 18.253346,6.648302 18.200158,6.660693 18.220252,6.900842 18.226376,7.293619 18.018538,7.293508 18.08391,7.426765 17.464659,7.44836 17.298372,7.4711 17.287209,7.5939 17.308841,7.619138 17.301354,7.725101 17.5638,8.060075 17.340267,8.08263 17.275123,8.09628 17.244414,8.530835 17.233583,8.632408 17.234428,8.633059 17.233725,8.638821 17.270672,8.6738 17.228409,8.682446 17.21014,8.832367 17.13408,8.755119 17.093293,8.707143 16.519771,8.809558 16.20457,8.879755 16.616514,9.188784 16.926586,9.422587 16.351527,9.54665 16.127818,9.595405 16.127132,9.601407 16.117473,9.603504 16.092736,9.788234 16.10516,9.800109 16.076908,9.971582 16.38011,10.27329 16.110531,10.323335 16.019227,10.337154 16.019013,10.338748 16.01634,10.339186 15.970681,10.616304 15.773161,10.452905 15.702941,10.390551 15.394411,10.441115 15.004895,10.494071 14.867708,11.191105 14.846622,11.299296 14.792489,11.245252 14.794468,11.326245 14.062629,11.365602 13.841131,11.384008 13.776093,11.64056 13.603587,11.50315 13.509754,11.421519 13.295332,11.455267 12.840994,11.528987 12.731592,12.049336 12.398486,11.808454 12.222538,11.666445 12.005742,11.716076 11.892693,11.750764 11.825065,12.031281 11.729683,12.454721 11.311472,12.13487 11.145922,11.988833 11.047216,12.023688 10.91127,12.412073 10.803275,12.737587 10.462557,12.387745 9.966185,12.795294 9.825638,12.402198 9.749074,12.27469 9.449941,12.41702 9.210387,12.53059 9.256861,11.950713 8.992279,12.005531 8.964548,11.97572 8.773604,12.031702 8.641523,12.073803 8.730381,11.723993 8.637734,11.624397 8.588129,11.642643 8.571778,11.62922 8.452005,11.678858 8.358582,11.725461 8.358631,11.72625 8.35792,11.725792 8.339829,11.734816 8.343412,11.716443 7.909938,11.43715 7.961117,11.720921 8.048123,12.005404 7.544892,11.878237 7.454355,11.866352 7.568588,12.129588 7.727972,12.442246 7.211582,12.449572 7.10092,12.456159 7.252668,12.671132 7.472746,12.97921 6.957515,13.10847 6.859243,13.130499 7.038318,13.310034 7.301969,13.58865 6.80017,13.819252 6.664883,13.87179 6.906888,14.063968 7.206282,14.30726 6.738989,14.591778 6.526582,14.708523 6.839774,14.951184 7.17711,15.17997 6.758354,15.457432 6.325533,15.750499 6.774693,16.16825 7.17535,16.329028 6.855423,16.524751 6.488452,16.759465 6.780194,17.085837 7.06232,17.366932 6.628524,17.709076 6.755856,17.941115 6.939559,18.305286 6.733098,18.447947 6.505881,18.605347 6.771119,18.901488 6.46413,19.05431 5.645303,19.47589 6.046097,20.122379 6.318797,20.367372 5.751798,20.601234 5.58739,20.691661 5.573402,20.809528 5.468088,20.858975 5.451523,21.524878 5.410943,21.689408 5.561698,21.923468 5.744621,22.066987 5.271909,22.253103 5.236032,22.398566 5.157532,22.440685 5.140299,22.922196 4.873015,24.099951 4.922471,24.177316 4.981345,24.224028 4.831291,24.283803 4.819738,24.334712 4.792268,24.350954 4.795576,24.502206 4.735667,24.899448 4.094403,25.657724 3.389013,25.962116 3.612784,26.318581 3.441975,26.501269 3.538503,26.652588 4.001289,27.038522 3.673366,27.183218 2.705479,27.808283 2.682171,28.02968 2.533359,28.133726 2.486942,28.088588 2.389022,27.925186 2.572999,27.722879 2.074932,27.239549 1.888013,26.898734 2.390662,26.521921 2.975943,26.236771 2.977133,26.050308 3.167949,25.910977 3.234677,25.880952 3.304432,24.768982 3.182856,24.650044 2.848837,24.037043 3.089624,23.877618 3.367849,23.758073 3.373762,23.663822 3.608714,23.503118 3.674908,22.961225 3.755672,21.999571 3.648768,21.797122 3.708414,21.762676 3.777642,21.737971 3.779817,21.712074 3.830324,21.679892 3.86175,21.2291 4.633973,20.617702 4.494209,20.341692 4.543731,20.306932 4.388735,20.113822 4.308748,19.989443 4.864389,19.676056 5.436258,19.438774 5.349412,19.289201 5.352087,19.287954 5.061618,18.794305 4.813523,18.496102 5.047685,18.380995 5.272881,18.275932 5.006385,17.844312 5.486206,17.49692 5.280442,17.189156 5.105974,17.066464 5.448312,16.832569 5.707909,16.651364 5.623276,16.58562 5.188482,16.311937 5.523674,16.07016 6.003353,15.778635 5.546973,15.425063 5.181659,15.17909 5.518787,14.931211 5.830424,14.69132 5.531407,14.428092 5.21493,14.171481 5.576872,13.953071 5.862212,13.766448 5.613047,13.485255 5.346978,13.206324 5.747792,13.032147 6.018111,12.898892 5.816903,12.583147 5.607549,12.287308 6.034298,12.185985 6.325708,12.0923 6.175727,11.723087 6.025058,11.41243 6.459716,11.392887 6.763187,11.350576 6.687251,10.946483 6.606582,10.623969 7.037883,10.692793 7.331244,10.713738 7.385051,10.265414 7.39723,9.949822 7.790176,10.136777 8.079443,10.243017 8.524017,9.782094 8.54151,9.536878 8.745934,9.842104 9.044707,10.205968 9.328794,10.120207 9.565783,9.885983 9.561645,9.958613 9.607473,10.247021 9.691123,10.248517 9.731947,10.04001 9.988832,10.39482 10.080973,10.365529 10.214534,10.280517 10.102572,10.552715 10.178478,10.648236 10.22608,10.722009 10.360976,10.668551 10.492574,10.558515 10.518305,10.521371 10.523849,10.482472 10.539313,10.415618 10.585509,10.488317 10.803127,10.387346 10.633752,10.568304 10.81089,10.802483 10.955869,10.758483 11.028148,10.727024 11.078983,10.522453 11.177968,10.289886 11.393563,10.494536 11.463512,10.568783 11.672176,10.514854 11.925829,10.442807 11.983261,10.194146 12.049359,9.970269 11.827202,9.984844 12.067705,9.899993 12.078426,9.834004 12.114251,9.885828 12.154548,9.875699 13.044774,9.64688 13.070961,9.464479 13.103623,9.211648 13.035855,9.197487 12.84363,9.176505 13.118996,9.087394 13.122581,9.045871 13.135032,8.865137 13.235753,9.053167 13.508994,8.988285 14.105894,8.844597 14.13231,8.620238 14.142519,8.484789 13.942647,8.402191 13.597219,8.272032 14.169342,8.128928 14.170174,8.117893 14.17463,8.116947 14.182873,8.055739 14.209627,7.717792 14.459538,8.056344 14.497282,8.046903 14.498037,8.048287 15.203346,7.898547 14.851172,7.557537 14.648269,7.230698 15.223758,7.154993 15.229827,7.115581 15.252716,6.871413 15.558626,7.110942 15.754248,7.085208 15.761894,7.094018 16.052828,7.055551 15.882538,6.670185 15.876709,6.368341 16.157619,6.353337 16.14907,6.213007 16.373617,6.3418 16.591672,6.330154 16.627555,6.349389 16.92469,6.322854 16.847206,5.948931 16.763676,5.730741 16.766532,5.646446 16.823252,5.639759 16.814306,5.609837 16.883459,5.632662 16.996354,5.619353 17.036631,5.626144 17.5159,5.556541 17.420734,5.270644 17.386414,5.11849 17.29583,4.952925 17.29197,4.890772 17.332152,4.879863 17.322643,4.851139 17.414327,4.857554 17.642575,4.795588 17.803601,4.77446 17.687172,4.554328 17.696032,4.120807 18.006253,4.034571 17.992384,3.851758 18.12634,3.865352 18.38081,3.422373 18.96977,3.493903 19.025486,3.312762 19.117384,3.377543 19.32337,3.235316" slic3r:type="contour"/>
    <polygon style="fill: black" points="31.135744,10.229422 31.145005,10.301871 31.242749,10.319667 31.357477,10.221608 31.310451,10.14837" slic3r:type="hole"/>
    <polygon style="fill: black" points="12.427864,10.18561 12.563939,10.309154 12.693453,10.285897 12.703772,10.214698 12.623952,10.1746 12.471668,10.114983" slic3r:type="hole"/>
    <polygon style="fill: black" points="30.038135,9.451081 30.045901,9.525836 30.140021,9.542607 30.247981,9.558407 30.37089,9.39576 30.324732,9.335483" slic3r:type="hole"/>
    <polygon style="fill: black" points="13.459549,9.395407 13.564385,9.542497 13.751494,9.510345 13.760004,9.436009 13.662827,9.395136 13.504197,9.336887" slic3r:type="hole"/>
    <polygon style="fill: white" points="42.038,28.744206 42.708664,29.75644 42.71662,30.036481 42.687513,30.185395 42.717872,30.20777 42.71459,30.246092 42.839596,30.321854 42.790175,30.363608 42.693358,30.49398 42.59436,31.649832 42.281764,32.575342 41.299499,31.549137 40.984108,31.321936 41.143183,30.724814 41.072748,30.657648 41.077627,30.606411 40.901984,30.514298 40.772064,30.4003 41.126468,29.748044 41.162807,29.711937 41.300732,28.263579" slic3r:type="contour"/>
    <polygon style="fill: white" points="42.434512,33.088502 42.404776,33.218513 42.376476,33.273673 43.082872,33.927216 43.468876,34.204904 42.979732,34.604328 42.811624,34.814905 42.933332,35.038367 42.831547,35.149994 43.337256,35.67798 43.633508,36.191744 43.383332,36.887592 42.968747,37.548495 43.106364,37.701348 43.041941,37.82213 43.073531,37.856843 43.689527,38.416744 43.366303,38.653832 42.684576,39.326276 42.128915,38.836212 41.698608,38.283868 41.882428,38.087763 42.290833,37.762594 42.2618,37.723444 42.437433,37.50195 42.339588,37.367676 41.659524,36.674072 42.128408,35.824791 42.410417,35.223466 42.303988,35.103272 42.352347,34.954363 41.780796,34.55804 41.452008,34.197712 41.711988,33.822851 42.338026,33.253695 42.224168,33.126556 42.279308,33.032661 42.3222,32.990964" slic3r:type="contour"/>
    <polygon style="fill: white" points="43.158812,40.86832 43.586484,41.557859 43.412287,41.819652 43.118653,42.156487 43.172828,42.224148 43.143025,42.260886 43.516424,42.66912 43.300364,42.820111 42.445364,43.519011 42.021291,43.063687 41.539328,42.410252 41.648371,42.316976 41.883043,42.147758 41.878139,42.140864 41.941036,42.082243 41.587388,41.649336 41.809807,41.384932 42.6487,40.246548" slic3r:type="contour"/>
    <polygon style="fill: white" points="42.70862,45.366268 43.19364,46.056099 43.086819,46.170232 42.910034,46.342273 42.924192,46.360219 42.91373,46.370646 43.12862,46.631796 42.981316,46.730339 42.026051,47.393892 41.666228,46.952308 41.164904,46.284604 41.215292,46.249235 41.327642,46.175143 41.196816,46.001848 41.286004,45.916776 42.31284,44.856536" slic3r:type="contour"/>
    <polygon style="fill: white" points="42.18142,49.02166 42.696756,49.7212 42.67106,49.741848 42.632023,49.775099 42.677564,49.836956 42.632504,49.864819 42.302677,50.061242 42.023503,50.308956 41.500749,50.798603 42.205184,51.759028 42.27216,51.835032 41.991291,51.993381 41.613145,52.659704 41.876824,53.00544 41.965476,53.116268 41.310543,53.32626 41.236045,53.424091 41.207968,53.481616 41.186788,53.488777 40.863834,53.912885 41.206976,54.556359 41.333836,54.76936 40.671708,54.868551 40.131592,54.960712 39.671999,54.138515 39.541904,53.900792 40.207379,53.778608 40.426931,53.746216 40.493108,53.06684 40.168644,52.654624 40.060516,52.52752 40.557623,52.359695 40.55288,52.068991 40.586798,51.686085 40.425667,51.452063 40.335848,51.356356 40.94022,51.017151 41.453517,50.789974 40.756968,49.647716 40.70184,49.554384 40.786447,49.478774 40.7496,49.430628 40.728176,49.403604 41.134753,49.167512 41.162563,49.14266 41.248588,49.092495 41.858736,48.591744" slic3r:type="contour"/>
    <polygon style="fill: white" points="39.301675,55.204848 39.96792,55.233391 40.205864,56.029564 40.337832,56.393595 39.793279,56.364044 39.116672,56.35868 38.864832,55.595784 38.747368,55.203128" slic3r:type="contour"/>
    <polygon style="fill: white" points="38.016708,56.494168 38.807968,56.689287 38.863499,57.356507 38.937907,57.899652 38.552651,57.794987 37.742944,57.624624 37.668568,56.987184 37.623616,56.413696" slic3r:type="contour"/>
    <polygon style="fill: white" points="36.31454,57.597908 37.192444,57.977356 37.15046,58.486204 37.128128,59.198512 36.901508,59.091024 36.187838,58.799755 36.143932,58.847352 36.134659,58.842873 35.21526,59.615395 35.194404,59.725916 35.142532,59.762886 35.066064,60.302192 34.97678,60.246336 34.688271,60.086642 33.372068,61.024715 32.89246,61.100159 32.865983,61.197972 32.858998,61.229568 32.720852,61.127154 32.687528,61.132396 32.66731,61.11903 31.388571,61.272364 30.812479,61.335843 30.653282,61.819235 30.610342,61.972844 29.974143,61.445059 29.954575,61.430375 29.792372,61.448248 29.703938,61.382823 29.062572,61.441508 29.659607,61.128182 29.678681,61.0751 29.701551,61.061514 29.952102,60.227395 30.005618,60.078319 30.628196,60.511023 31.305737,60.108516 32.091869,59.597408 32.096356,59.58244 32.101743,59.578731 32.1445,59.401695 32.154148,59.368271 32.287193,59.451072 32.421636,59.358523 32.707575,59.147504 33.64796,59.02786 34.127266,58.934294 34.220336,58.504252 34.309291,58.549455 34.840594,58.854366 34.895148,58.843363 35.997954,58.531517 36.0134,58.244439 36.084856,57.510492" slic3r:type="contour"/>
    <polygon style="fill: white" points="28.488649,61.129467 28.850146,61.442144 28.500306,62.346155 28.412276,62.601484 27.875747,62.106927 27.495154,61.788932 27.803658,60.926823 27.909534,60.678144" slic3r:type="contour"/>
    <polygon style="fill: white" points="26.342066,61.565004 26.745582,61.96448 26.378197,62.7577 26.23453,63.088004 25.784432,62.615292 25.369558,62.216512 25.705376,61.455679 25.868424,61.134372" slic3r:type="contour"/>
    <polygon style="fill: white" points="24.251048,61.847396 24.6659,62.32716 24.27091,63.031743 24.065472,63.401888 23.685157,62.935307 23.272348,62.46326 23.651273,61.781892 23.868368,61.424136" slic3r:type="contour"/>
    <polygon style="fill: white" points="16.099485,61.314856 16.295042,61.788852 15.597247,62.420487 15.377848,62.601484 15.093997,61.880572 14.93995,61.44228 15.691786,60.845551 15.880644,60.678164" slic3r:type="contour"/>
    <polygon style="fill: white" points="18.155515,61.680999 18.420552,62.216672 17.826798,62.830268 17.555596,63.088004 17.266932,62.470736 17.044558,61.964456 17.683213,61.375024 17.921702,61.134372" slic3r:type="contour"/>
    <polygon style="fill: white" points="20.183143,61.902791 20.517778,62.463232 20.010681,63.077756 19.724654,63.401888 19.423038,62.864748 19.12424,62.327136 19.659788,61.729967 19.92176,61.424136" slic3r:type="contour"/>
    <polygon style="fill: white" points="22.203853,61.963875 22.595578,62.505432 22.156734,63.147607 21.895064,63.515144 21.566069,63.030243 21.194536,62.50546 21.639255,61.879796 21.895064,61.527624" slic3r:type="contour"/>
  </g></svg>