<svg width="43.790126" height="63.590156" xmlns="http://www.w3.org/2000/svg" xmlns:svg="http://www.w3.org/2000/svg" xmlns:xlink="http://www.w3.org/1999/xlink" xmlns:slic3r="http://slic3r.org/namespaces/slic3r"><g xmlns="http://www.w3.org/2000/svg" slic3r:z="3.20149999999999e-005" id="layer96">
    <polygon style="fill: white" points="11.558776,59.139468 11.805259,60.030585 13.091735,60.179374 13.694552,59.707608 13.723451,59.822943 13.851424,60.209772 15.660667,60.370084 15.775092,60.457108 15.815659,60.425783 15.823399,60.419076 15.856888,60.520246 17.10839,61.26692 17.346887,61.41073 17.80863,60.994987 17.89151,60.91366 18.195946,61.64392 18.352035,61.967255 18.76466,62.125916 18.434355,62.108827 18.411506,62.1323 18.377828,62.164104 18.215784,62.150698 17.661408,62.713963 17.49784,62.866152 17.13818,62.061546 16.026979,61.969616 15.838072,61.959111 15.783654,62.003228 15.68908,61.992971 15.382798,62.266048 15.293214,62.338276 15.141627,61.933597 14.618665,61.87688 13.495254,61.797296 13.327066,61.655456 13.189104,61.562038 13.064734,61.652456 13.055296,61.621564 13.008267,61.439592 12.984721,61.423648 12.950069,61.316384 12.511348,60.8907 11.640171,60.209068 11.487175,60.320091 10.780989,60.778084 10.723715,60.555056 10.511087,59.537283 10.962191,59.25608 11.506125,58.872308" slic3r:type="contour"/>
    <polygon style="fill: white" points="9.449353,58.361604 9.604242,59.141752 9.093275,59.45264 8.531045,59.758652 8.448208,59.308704 8.336066,58.500088 8.996074,58.155707 9.3938,57.91846" slic3r:type="contour"/>
    <polygon style="fill: white" points="7.497878,57.484448 7.54877,58.082207 6.813121,58.414388 6.425404,58.570803 6.370615,57.866371 6.350037,57.299016 7.258177,56.946916 7.482656,56.846088" slic3r:type="contour"/>
    <polygon style="fill: white" points="3.708317,54.268406 4.0071,54.27482 4.763395,54.270512 4.706858,54.434551 4.58143,54.8452 5.75556,55.501532 5.783619,55.692504 5.876829,55.673171 5.902282,55.666784 5.858902,56.002651 6.226887,57.199808 5.727209,57.02337 5.70987,57.027255 5.495659,57.072256 5.357488,56.997641 4.754393,57.142331 4.578934,57.179268 4.62643,56.602856 4.278576,56.415007 3.547654,56.01646 3.526984,55.763476 3.497131,55.566926 3.475568,55.567355 3.477991,55.535988 3.159327,55.535304 3.183924,55.452443 3.381779,54.807425 3.381627,54.806427 3.49821,54.411515 3.512097,54.368823 3.51632,54.368814 3.531581,54.31906 3.533122,54.128328" slic3r:type="contour"/>
    <polygon style="fill: white" points="3.452286,52.5814 3.937699,52.692815 3.75236,53.054292 3.341261,53.867328 2.808295,53.749115 2.144108,53.608264 2.338662,53.212891 2.726535,52.419116" slic3r:type="contour"/>
    <polygon style="fill: white" points="2.421804,48.04216 2.861961,48.372568 2.645525,48.710555 2.20784,49.374206 2.755054,49.831495 3.192868,50.198084 2.88561,50.682804 3.192992,50.809216 3.33852,50.875616 2.943815,51.460979 2.604388,51.991976 1.716392,51.612543 1.438902,51.484876 1.816596,50.927731 1.511368,50.694399 1.213474,50.44452 1.476869,50.043484 1.809979,49.492068 1.71736,49.434488 1.749571,49.393812 1.637092,49.313976 0.912272,48.794623 1.225521,48.360588 1.73447,47.604632" slic3r:type="contour"/>
    <polygon style="fill: white" points="1.939155,44.205571 2.396726,44.700152 2.21166,45.042524 1.845222,45.594341 1.879722,45.621923 1.865435,45.644027 2.562087,46.183984 2.281841,46.492356 1.699354,47.230588 1.072858,46.771908 0.576605,46.350024 0.755115,46.133419 1.078592,45.75556 1.035887,45.717884 1.105969,45.633785 0.426392,45.004632 0.734772,44.558459 1.298528,43.651455" slic3r:type="contour"/>
    <polygon style="fill: white" points="1.79012,37.873083 2.004696,38.047044 1.410515,38.470852 1.470612,38.614976 1.433226,38.652759 1.817637,39.116208 2.037689,39.486207 1.70555,40.224112 1.104782,41.145045 1.237338,41.266092 1.21188,41.311797 1.625501,41.682159 2.17404,42.111264 1.810985,42.430363 1.250752,43.065648 0.610299,42.596344 0.184465,42.189332 0.44338,41.89464 0.988614,41.363318 0.922,41.284764 1.023465,41.166659 1.08583,41.107529 0.537731,40.28358 0.053708,39.671132 0.645928,38.75094 0.541092,38.638612 0.594382,38.525929 0.19897,38.216063 0.01589,38.010152 0.517808,37.47698 1.019065,37.078724" slic3r:type="contour"/>
    <polygon style="fill: white" points="2.05748,29.867904 2.059507,30.040781 2.384601,30.502715 2.514291,30.623738 2.068602,30.816324 2.070428,30.971944 2.008366,31.017 2.193657,31.488144 2.312203,32.126962 1.965089,32.93932 1.565143,33.496268 1.675234,33.63308 1.62674,33.737691 2.117096,34.1615 1.923518,34.271276 1.07673,35.00864 0.640601,34.638051 0.134207,33.997664 0.292712,33.85006 0.62999,33.628258 0.59456,33.541796 0.831586,33.323619 0.335515,31.90932 0.927039,30.953251 0.810481,30.78428 0.864727,30.680775 0.646666,30.469885 0.548928,30.320116 1.21393,29.802735 1.36714,29.722143 1.828801,28.841266" slic3r:type="contour"/>
    <polygon style="fill: white" points="2.863684,27.28131 3.155269,27.588382 2.685486,27.718188 1.947051,28.150661 1.947707,28.219701 1.918277,28.361009 1.832529,28.408554 1.815596,28.389752 1.781625,28.330084 1.933581,28.042863 1.443826,27.49686 1.228973,27.10462 1.70598,26.808944 2.418903,26.528512" slic3r:type="contour"/>
    <polygon style="fill: white" points="3.337913,24.027256 3.289716,24.130396 3.605632,24.769884 3.928791,25.157534 3.574697,25.206452 2.739783,25.57846 2.300288,24.999333 2.061248,24.48081 2.439666,24.303792 3.044891,24.151839 3.063392,23.918474 3.184559,23.856506 3.246348,23.837838" slic3r:type="contour"/>
    <polygon style="fill: white" points="22.131235,3.13253 22.212867,3.290009 22.290523,3.158483 22.582386,2.687259 22.803565,3.163478 22.889982,3.350484 23.038565,3.172307 23.376064,2.831423 23.575394,3.481051 23.589931,3.481396 23.595228,3.50147 23.705338,3.454072 23.859221,3.487485 24.023699,3.381345 24.229168,3.28789 24.258198,3.574369 24.542146,3.633715 24.300249,3.989341 24.326082,4.244272 24.488384,4.211892 25.01806,4.248035 24.960007,4.837932 25.312654,4.924497 25.038116,5.259577 24.887867,5.479631 25.195375,5.531163 25.670456,5.706248 25.591509,6.088398 25.646969,6.108999 25.824603,6.151806 25.517791,6.445238 25.416771,6.934233 25.670633,7.008346 26.137228,7.160791 25.994754,7.314394 25.717566,7.690988 25.812151,7.706694 26.349599,7.901832 26.284425,8.036061 26.106748,8.309906 26.572524,8.433095 26.507478,8.712248 26.455994,8.823576 26.68684,8.783043 26.83424,8.785652 26.823641,9.000872 27.037552,8.932321 27.077751,9.0734 27.195658,9.024658 27.220664,9.14002 27.226004,9.20423 27.414257,9.332763 27.515453,9.385257 27.733644,9.24486 27.765729,9.368553 27.800609,9.526587 28.165307,9.651501 28.349448,9.711024 28.60146,9.526307 28.641476,9.648684 28.696505,9.823207 28.706086,9.826304 28.714175,9.848036 29.137893,9.99316 29.379408,10.076243 29.694154,9.849162 29.743963,9.99323 29.819158,10.227518 29.828403,10.230699 29.850192,10.289224 30.087781,10.396899 30.387321,10.531242 30.423377,10.505505 30.871226,10.222054 30.942243,10.436916 31.051286,10.829028 31.063318,10.834424 31.115864,10.992833 31.255762,11.082469 31.619747,10.829566 31.94882,10.643941 32.070221,11.003104 32.179936,11.477289 32.689757,11.060456 32.798772,10.995792 32.885143,11.192172 32.998232,11.063103 33.148657,11.3003 33.329928,11.137958 33.448712,11.271758 33.4539,11.1437 33.537778,11.37722 33.68765,11.092449 33.69426,11.08833 33.715972,11.107078 34.049407,11.26857 34.081704,11.015391 34.035243,10.799912 34.271292,10.957488 34.556018,11.015936 34.612184,10.87139 34.6854,10.409434 34.804184,10.509021 35.145344,10.674356 35.411936,10.452282 35.4626,10.410277 35.583304,10.286175 35.588545,10.284774 35.609736,10.254833 35.624335,10.275202 35.662628,10.264963 36.069631,10.636082 36.365335,10.487666 36.496112,10.436436 36.595326,11.016022 36.998296,10.949815 37.255948,10.935866 37.163943,11.565359 37.492252,11.610343 37.825052,11.695403 37.581776,12.192659 37.518851,12.309009 37.766156,12.408408 38.120195,12.582563 37.785475,12.985088 37.64807,13.131182 37.879631,13.261245 38.247376,13.485332 37.888487,13.820211 37.64684,14.019943 37.901656,14.176473 38.314192,14.418861 37.997148,14.69087 37.601093,15.006712 37.870512,15.164142 38.391944,15.396785 38.192211,15.570924 37.924747,15.816931 38.479324,16.406014 38.488843,16.4113 38.509333,16.430846 38.551311,16.445218 38.515603,16.538546 38.147053,17.356379 38.474744,17.501036 38.771268,17.571952 38.453564,17.857711 38.166709,18.255965 38.662377,18.545617 38.802764,18.58894 38.942301,18.685463 39.148692,18.722238 39.087439,18.785861 39.214876,18.874014 39.136182,19.727738 39.195287,19.741573 39.660908,19.838712 39.524096,20.007833 39.336389,20.399654 39.332674,20.606948 39.43764,20.636005 39.479841,20.759383 39.591195,20.785867 40.157624,20.822638 39.990392,21.045433 39.651992,21.735156 39.66803,21.9231 40.000288,22.03726 40.073152,22.263603 40.302959,22.332545 40.88856,22.401032 40.681388,22.687964 40.27466,23.526737 39.579219,23.431235 39.074392,23.218138 39.199364,22.871821 39.579828,22.290043 39.545364,22.23941 39.615363,22.023094 39.524927,21.908541 38.85888,21.869829 38.37938,21.721463 38.494887,21.403828 38.796216,20.891183 38.351728,20.836734 37.870628,20.708459 38.018892,20.411075 38.145331,20.135064 37.927536,19.956216 37.413516,19.712294 37.444112,19.562296 37.449146,19.491657 37.293732,19.436952 37.334227,19.368814 37.471521,19.177682 37.482604,19.022163 37.792378,18.45336 37.249128,18.276386 36.848608,18.082052 37.188284,17.587548 37.327805,17.434646 37.113,17.21893 36.597744,16.872942 36.635944,16.808745 36.576007,16.77277 36.595767,16.7478 36.683037,16.669969 36.702848,16.616265 36.926049,16.343436 36.963836,16.282278 37.076833,16.021792 36.974783,15.965165 36.411188,15.599636 36.648964,15.343435 37.067255,15.014342 36.71816,14.79481 36.325056,14.546161 36.691676,14.211468 36.910479,14.038478 36.586564,13.842695 36.261372,13.661954 36.671879,13.301038 36.744771,13.237348 36.488587,13.124249 36.172755,12.997057 36.485473,12.662279 36.382708,12.649143 36.051436,12.59124 36.179547,12.343231 35.88342,12.36976 35.903466,12.172945 35.698392,12.253294 35.660432,12.10359 35.570907,12.230307 35.551892,12.247635 35.472591,12.119926 35.432196,12.263785 35.221444,12.134178 35.224756,12.412068 34.776756,12.272314 34.784268,12.360444 34.785004,12.759041 34.407239,12.645888 34.144224,12.950148 34.13136,13.041045 34.119932,13.111685 34.038674,13.069009 33.951564,13.14384 33.754705,12.91987 33.637287,12.858202 33.235448,13.164094 33.120295,13.088243 33.064274,13.150423 33.037204,13.033511 32.901856,12.944358 32.859345,12.866801 32.541466,12.616726 32.42186,12.698093 32.18331,12.887275 32.11978,12.434725 32.058317,12.227888 31.856267,12.062561 31.624784,12.212347 31.222388,12.505746 31.186118,12.234429 31.110937,11.927434 30.577629,11.878234 30.55597,11.893947 30.497834,11.889932 30.206276,12.117277 30.1844,12.000946 30.147155,11.865715 29.149843,11.796842 29.125562,11.784193 29.121592,11.787824 29.119889,11.781815 28.137674,11.380842 28.086732,11.421761 28.035956,11.468722 27.992851,11.321721 27.979874,11.316423 27.978775,11.313063 27.859584,11.277291 27.214928,11.034264 27.135898,11.087246 27.053164,11.153537 27.00503,10.955135 26.996938,10.952084 26.981547,10.895707 26.798177,10.798539 26.49593,10.622535 26.346332,10.684463 26.184634,10.764922 26.145683,10.418579 26.118645,10.402835 26.090389,10.188211 26.024904,10.100116 25.774844,10.140077 25.439464,10.188154 25.514023,9.707835 25.547812,9.533994 25.482317,9.521854 25.478905,9.51104 25.396363,9.507978 24.884796,9.443959 25.033447,9.091743 25.153602,8.836437 25.088434,8.827101 24.506232,8.640041 24.698904,8.328055 24.894435,8.039445 24.672786,8.000563 24.228706,7.82134 24.498753,7.377877 24.58223,7.273726 24.384312,7.164141 23.984897,7.083707 24.041533,6.934259 24.044712,6.887791 23.879838,6.830049 23.92726,6.670032 24.33929,6.030245 24.359758,5.917071 24.118765,5.949908 23.55631,6.081656 23.606601,5.857157 23.610609,5.766777 23.211831,5.676744 23.211773,5.676787 23.211771,5.676726 23.211645,5.676716 23.21177,5.676389 23.211899,5.175823 23.144676,5.152593 23.062054,5.257923 22.881174,5.486644 22.747342,4.884043 22.456856,5.411982 22.272745,4.943512 22.203143,4.783621 22.133377,4.928362 21.895064,5.416023 21.682639,4.963766 21.599084,4.793525 21.333284,5.411966 21.068521,4.90826 20.908982,5.486643 20.615369,5.108363 20.578366,5.676579 20.578482,5.676714 20.578362,5.676711 20.578354,5.676785 20.578245,5.676702 20.328678,5.65415 20.202113,5.691139 20.233744,6.081718 19.918659,6.045557 19.495168,5.959304 19.593221,6.304425 19.71833,6.491296 19.741322,6.647939 19.910292,6.830061 19.833376,6.813188 19.768916,6.835937 19.805271,7.083633 19.217517,7.379407 19.345922,7.5705 19.561422,7.821318 19.20545,7.815313 18.875437,7.942245 18.855604,8.003987 18.996304,8.2246 19.283884,8.640074 18.979596,8.656144 18.589854,8.768571 18.700971,9.022244 18.905328,9.443961 18.539805,9.447189 18.327363,9.468473 18.307718,9.521899 18.227694,9.53492 18.283426,9.865378 18.350682,10.188149 17.858588,10.107542 17.81226,10.100626 17.71797,10.233625 17.679259,10.277866 17.671478,10.402757 17.6357,10.421586 17.61954,10.576763 17.605464,10.764924 17.250587,10.624273 17.085937,10.710928 16.817476,10.872101 16.787026,10.972491 16.769841,11.040361 16.736989,11.153513 16.541192,11.028293 16.365251,11.081506 15.818478,11.293509 15.810244,11.31643 15.805967,11.317857 15.781797,11.395229 15.75417,11.468721 15.633585,11.37535 15.503719,11.418663 14.671468,11.78002 14.670887,11.781662 14.668534,11.787853 14.663119,11.783629 14.640302,11.796864 13.90863,11.794821 13.672042,11.829607 13.583825,12.117301 13.474133,12.039452 13.274004,11.888132 13.234157,11.893991 13.132235,11.822097 12.737213,11.870172 12.725116,11.941811 12.567749,12.505735 12.28675,12.327653 11.911891,12.066738 11.801676,12.146278 11.725494,12.538854 11.606781,12.887293 11.173387,12.5997 11.060125,12.681438 11.044398,12.697175 10.88816,12.944498 10.77638,13.02353 10.756146,13.089655 10.725853,13.150447 10.665738,13.100323 10.554775,13.164115 10.318939,12.912996 10.197017,12.828183 10.135094,12.887242 9.838583,13.143841 9.758602,13.056189 9.670259,13.111682 9.646288,12.933105 9.373329,12.633967 9.315747,12.651171 9.005112,12.759041 9.064998,12.226264 8.565385,12.412067 8.610521,12.071893 8.357918,12.263786 8.350413,12.187842 8.236104,12.248504 8.231251,12.239512 8.188187,12.193469 8.088837,12.152161 8.091683,12.253294 7.899283,12.093867 7.837595,12.134483 7.906696,12.369745 7.541799,12.255336 7.738681,12.59126 7.293502,12.639353 7.404399,12.759152 7.617369,12.997058 7.059471,13.251472 7.272109,13.438114 7.528756,13.661976 7.091363,13.934293 6.868894,14.060305 7.153219,14.311708 7.46507,14.546161 7.100858,14.77469 6.689817,15.034383 6.967418,15.316843 7.37896,15.59957 7.137413,15.724697 6.73775,15.976784 7.010966,16.527977 7.087351,16.616255 7.122621,16.702375 7.214149,16.772683 7.159431,16.792257 7.192421,16.87281 6.991792,17.059902 6.461736,17.514354 6.715188,17.863324 6.941521,18.082062 6.517038,18.188229 5.989975,18.431416 6.006769,18.478922 6.307454,19.022018 6.326993,19.21741 6.496372,19.437002 6.434131,19.446381 6.352567,19.473139 6.376506,19.712526 5.693409,20.208546 5.747604,20.321227 5.919485,20.708474 5.646302,20.713123 5.121752,20.832134 5.009138,20.925573 5.019933,20.952558 4.998652,20.990935 5.133731,21.299986 5.410766,21.721442 5.124216,21.711914 4.307755,21.892494 4.162657,22.048863 4.244768,22.239308 4.19982,22.334672 4.410093,22.805622 4.715756,23.218108 4.396292,23.23631 3.515569,23.52673 3.130357,22.950426 2.90155,22.401046 3.234932,22.28232 3.762904,22.199506 3.789877,22.037198 4.001507,21.95039 4.137677,21.921233 4.156373,21.809314 3.849647,21.35122 3.632477,20.822662 3.92632,20.73691 4.34343,20.68952 4.352364,20.636036 4.492298,20.589731 4.357479,20.377489 4.129227,19.8387 4.421569,19.767714 4.776915,19.689875 4.774477,19.353006 4.575316,18.8739 4.650249,18.850167 4.694717,18.815704 4.641464,18.722212 4.697031,18.702205 4.904118,18.653418 4.987257,18.588986 5.420385,18.446134 5.611077,18.304828 5.29045,17.966264 5.018856,17.571954 5.588721,17.305081 5.699334,17.27042 5.588849,16.92089 5.24603,16.463947 5.262903,16.454894 5.250996,16.441054 5.258362,16.437178 5.287564,16.425594 5.301098,16.411416 5.385682,16.362301 5.691985,16.128982 5.902946,15.865878 5.398188,15.396801 5.677345,15.229905 6.17621,14.984945 5.883797,14.738417 5.47594,14.418871 5.876966,14.171232 6.155836,14.005054 5.88523,13.759535 5.542753,13.485311 6.00202,13.230391 6.170851,13.129926 5.944139,12.865353 5.6699,12.582571 6.178974,12.385455 6.298819,12.32961 6.128918,11.991808 5.965088,11.69539 6.528186,11.631615 6.651186,11.604195 6.58358,11.180076 6.534215,10.935847 7.200689,11.06169 7.278389,10.569027 7.293982,10.436434 7.647592,10.623081 8.127449,10.264975 8.162019,10.275132 8.18043,10.254827 8.187465,10.263253 8.19644,10.275276 8.34031,10.425807 8.592983,10.642448 9.104728,10.409433 9.206891,10.637664 9.274114,10.902157 9.370824,10.866296 9.754879,10.799883 9.838145,11.193416 10.080566,11.091297 10.09587,11.08833 10.096502,11.091148 10.102857,11.093174 10.101371,11.112862 10.137365,11.273386 10.336226,11.143683 10.428319,11.272501 10.460227,11.137945 10.489508,11.334568 10.791885,11.063089 10.964093,11.144959 10.991385,10.995769 11.259239,11.285274 11.519215,11.408871 11.642569,11.432701 11.782469,10.95183 11.841371,10.643925 12.078835,10.835551 12.501205,11.090152 12.682828,10.972168 12.726816,10.834416 12.756298,10.82109 12.797144,10.687547 12.918901,10.222063 13.082812,10.348843 13.375255,10.541326 13.456968,10.504394 13.941587,10.286781 13.961742,10.230701 13.977838,10.225185 14.095979,9.849162 14.214408,9.944588 14.398961,10.080877 14.767053,9.95474 15.076422,9.848345 15.084048,9.826315 15.09625,9.822147 15.18866,9.526309 15.294966,9.611829 15.425635,9.709643 15.7591,9.595746 15.999052,9.51819 16.05646,9.244859 16.172377,9.329965 16.239041,9.374349 16.494843,9.214377 16.597694,9.160639 16.59446,9.024648 16.672872,9.061942 16.752622,8.932296 17.00833,8.917411 16.955888,8.785673 17.270304,8.902163 17.300665,8.900395 17.443981,8.868783 17.38093,8.677105 17.217616,8.433101 17.377609,8.468666 17.683341,8.421068 17.730305,8.29526 17.440506,7.901847 17.545291,7.89853 17.917244,7.794478 17.918687,7.790614 18.074007,7.749193 17.973723,7.63058 17.652925,7.160783 17.877091,7.097552 18.373582,6.943018 18.31833,6.598771 18.102863,6.363635 17.965516,6.151809 18.230487,6.051452 18.214066,5.949138 18.119688,5.706214 18.512013,5.70162 18.919056,5.55625 18.718502,5.297149 18.477488,4.924496 18.874345,4.805167 18.860792,4.596457 18.772048,4.248081 19.086246,4.349389 19.456424,4.345508 19.487098,4.06958 19.400323,3.934296 19.247952,3.633756 19.542579,3.570501 19.552289,3.483147 19.56093,3.287923 19.871134,3.499964 20.084856,3.454079 20.193181,3.511649 20.2002,3.481392 20.222928,3.480433 20.288055,3.269983 20.41408,2.831445 20.742129,3.226646 20.886735,3.383566 20.97921,3.184699 21.20775,2.687266 21.445155,3.088301 21.576261,3.304711 21.643061,3.178096 21.895064,2.683618" slic3r:type="contour"/>
    <polygon style="fill: white" points="40.726732,23.918478 40.778592,24.168972 40.778136,24.200415 41.160647,24.355724 41.72888,24.48085 41.461923,24.807912 41.050384,25.578592 40.342764,25.424196 39.861336,25.157514 40.01296,24.778615 40.507031,24.109624 40.452208,24.027256 40.50326,23.888226 40.543776,23.837838" slic3r:type="contour"/>
    <polygon style="fill: white" points="42.111295,26.937245 42.56116,27.104632 42.17034,27.510432 41.847418,28.024871 41.955419,28.203294 42.008504,28.33008 41.957596,28.408554 41.932724,28.400282 41.871844,28.361005 41.854118,28.141263 41.001835,27.848229 40.63486,27.588382 40.865211,27.119172 41.371239,26.528492" slic3r:type="contour"/>
    <polygon style="fill: white" points="42.549892,29.740098 42.625191,29.922995 43.063936,30.229912 43.241208,30.320156 42.911812,30.619179 42.979724,30.784134 42.907291,30.877502 43.185812,31.275142 43.4546,31.909206 43.300044,32.801935 43.044207,33.416216 43.195564,33.541838 43.1518,33.677723 43.65592,33.99762 43.472491,34.147604 42.713328,35.008724 42.220683,34.705095 41.673056,34.16156 41.808012,33.986123 42.143864,33.684567 42.114856,33.633192 42.285244,33.390227 41.477948,32.127146 41.835739,31.068774 41.719692,30.971892 41.728395,30.895102 41.412552,30.742158 41.275828,30.623781 41.680063,29.950144 41.855712,29.771789 41.961248,28.840644" slic3r:type="contour"/>
    <polygon style="fill: white" points="43.526764,37.817456 43.774236,38.01018 43.179202,38.461924 43.249044,38.638588 43.178281,38.707564 43.522283,39.222383 43.73642,39.671044 43.355232,40.315052 42.707499,41.109603 42.868044,41.284792 42.797423,41.373776 43.083043,41.683747 43.60566,42.189312 43.196851,42.484604 42.539376,43.065648 41.956284,42.5355 41.616096,42.111279 41.921019,41.820544 42.575942,41.304091 42.552659,41.266128 42.681884,41.13928 42.148227,40.116819 41.75244,39.486152 42.390875,38.695479 42.319496,38.614956 42.358452,38.537756 41.944792,38.226988 41.785432,38.047072 42.274484,37.492072 42.771015,37.078648" slic3r:type="contour"/>
    <polygon style="fill: white" points="42.993947,44.370627 43.36374,45.004636 43.133224,45.249167 42.696785,45.650644 42.754184,45.717844 42.707371,45.7595 43.213516,46.350108 42.867704,46.603055 42.090888,47.230587 41.579191,46.659555 41.228052,46.183972 41.469312,45.977795 41.916517,45.630922 41.910455,45.621816 41.96713,45.574557 41.39344,44.699968 41.788236,44.357563 42.4918,43.651404" slic3r:type="contour"/>
    <polygon style="fill: white" points="42.541044,48.27654 42.877856,48.79462 42.594167,48.995024 42.039831,49.392215 42.072804,49.434584 41.985133,49.485626 42.213332,49.845416 42.57664,50.444608 41.970793,50.911095 42.221567,51.281991 42.351232,51.484876 41.748648,51.734735 41.185696,51.992032 40.570956,51.062844 40.451604,50.875628 40.897742,50.694562 40.725724,50.422759 40.597284,50.19798 41.015936,49.848979 41.584282,49.372947 41.414196,49.110132 40.92818,48.372564 41.3692,48.094195 42.05562,47.604696" slic3r:type="contour"/>
    <polygon style="fill: white" points="41.37522,53.052448 41.64604,53.608236 41.327628,53.679671 40.448848,53.867268 40.144099,53.270239 39.852408,52.692852 40.31552,52.589751 41.063712,52.419132" slic3r:type="contour"/>
    <polygon style="fill: white" points="40.266612,54.368527 40.278067,54.368771 40.408479,54.806204 40.40727,54.815022 40.630828,55.535284 40.564771,55.535256 40.313355,55.535739 40.31462,55.567336 40.304147,55.56709 40.24254,56.016384 39.154742,56.605905 39.189748,57.015791 39.211192,57.179268 38.444301,56.990921 38.294256,57.072236 38.072149,57.025043 37.563227,57.199788 37.8299,56.408415 37.930354,56.041555 37.890379,55.697991 37.887844,55.666784 38.008306,55.690768 38.021612,55.602235 38.03458,55.501516 38.730936,55.148855 39.208088,54.869028 39.02672,54.270536 39.224232,54.265392 40.090945,54.265021 40.256992,54.12832" slic3r:type="contour"/>
    <polygon style="fill: white" points="36.981695,57.099327 37.44012,57.299024 37.374036,58.182907 37.364692,58.570819 36.818571,58.319759 36.241328,58.082184 36.280796,57.137392 36.3075,56.84608" slic3r:type="contour"/>
    <polygon style="fill: white" points="34.842276,58.14452 35.45406,58.500088 35.333508,59.166647 35.259072,59.758676 34.924336,59.551668 34.185884,59.141736 34.286679,58.451192 34.396344,57.918456" slic3r:type="contour"/>
    <polygon style="fill: white" points="32.542038,59.028888 33.279094,59.537359 33.16036,60.005916 33.009104,60.778096 32.847693,60.659175 32.17116,60.211638 30.826494,61.357311 30.805406,61.423652 30.776423,61.444863 30.725394,61.652456 30.703404,61.634356 30.611032,61.565904 30.294836,61.797312 28.637614,61.946414 28.530773,62.235128 28.496968,62.338272 28.11593,61.993351 28.00659,62.003188 27.968751,61.971952 26.638886,62.07285 26.374382,62.668623 26.292262,62.866152 25.717445,62.274695 25.587611,62.152206 25.412296,62.164048 25.355687,62.109772 25.02545,62.125931 25.433368,61.974567 25.843512,61.02564 25.898644,60.91366 26.479101,61.427171 27.108636,61.070111 27.925816,60.530623 27.928943,60.522596 27.930264,60.521644 27.962398,60.429431 27.966698,60.419084 28.018414,60.458114 28.064193,60.42512 28.129572,60.370048 29.359725,60.292344 29.919001,60.2292 30.095542,59.707616 30.202851,59.781096 30.752861,60.203389 31.980088,60.039492 32.073127,59.613948 32.283994,58.872308" slic3r:type="contour"/>
    <polygon style="fill: white" points="24.40132,61.799272 24.68781,62.124544 24.230961,62.962624 24.095944,63.213276 23.609286,62.623868 23.299708,62.273208 23.779801,61.401876 23.880178,61.232912" slic3r:type="contour"/>
    <polygon style="fill: white" points="20.260542,61.881696 20.490418,62.273208 19.88839,62.995667 19.694184,63.213276 19.317306,62.522676 19.102316,62.124372 19.785988,61.374703 19.909948,61.232912" slic3r:type="contour"/>
    <polygon style="fill: white" points="22.316992,61.942348 22.592942,62.323412 22.076112,63.084655 21.895064,63.341064 21.476539,62.721715 21.197204,62.323576 21.766038,61.526643 21.895064,61.348972" slic3r:type="contour"/>
  </g></svg>