<svg width="43.790126" height="63.590156" xmlns="http://www.w3.org/2000/svg" xmlns:svg="http://www.w3.org/2000/svg" xmlns:xlink="http://www.w3.org/1999/xlink" xmlns:slic3r="http://slic3r.org/namespaces/slic3r"><g xmlns="http://www.w3.org/2000/svg" slic3r:z="4.35649999999998e-005" id="layer131">
    <polygon style="fill: white" points="24.138171,56.726979 24.687272,57.479204 24.500916,57.813395 24.086142,58.67612 24.007789,58.581815 23.283366,57.623336 23.517911,57.214668 23.914368,56.440304" slic3r:type="contour"/>
    <polygon style="fill: white" points="26.250574,56.44972 26.791862,57.07988 26.601564,57.500707 26.290796,58.310856 26.136802,58.158952 25.405719,57.36078 25.654607,56.856636 25.963122,56.132476" slic3r:type="contour"/>
    <polygon style="fill: white" points="28.458129,55.995495 28.937894,56.476948 28.738954,57.023823 28.527552,57.721175 28.244635,57.490475 27.57744,56.879264 27.856632,56.221499 28.068224,55.623183" slic3r:type="contour"/>
    <polygon style="fill: white" points="30.790583,55.357611 31.150353,55.673563 30.944063,56.38738 30.819126,56.915616 30.350515,56.595903 29.819202,56.18022 30.13747,55.305879 30.252928,54.910928" slic3r:type="contour"/>
    <polygon style="fill: white" points="33.274104,54.513984 33.45381,54.649476 33.234285,55.584968 33.185944,55.88806 32.458071,55.490067 32.137162,55.27964 32.470422,54.108816 32.493728,53.997688" slic3r:type="contour"/>
    <polygon style="fill: white" points="36.332359,53.283844 36.927987,53.380672 35.496481,54.094809 35.427044,54.515664 35.42218,54.608948 34.680254,54.311005 33.715838,54.455504 33.662091,54.4703 33.649143,54.4738 33.651052,54.470207 33.664534,54.44606 33.499801,53.897579 33.349434,53.526284 33.872456,53.522012 34.74253,53.437108 34.890112,53.372759 35.757843,53.0337" slic3r:type="contour"/>
    <polygon style="fill: white" points="38.960386,48.63651 38.974043,48.622959 38.974044,48.62296 38.973044,48.629263 38.966518,48.686636 38.9855,49.580411 39.085828,50.852116 39.021351,50.843056 38.619534,50.692204 38.576575,50.762816 38.734664,50.905428 38.048988,50.599748 37.9981,50.595736 37.873244,50.404256 38.048852,50.386448 38.145499,50.344146 38.068512,49.79146 37.953496,48.608888 38.71936,48.485388" slic3r:type="contour"/>
    <polygon style="fill: white" points="40.108288,47.187784 40.399252,47.496876 39.566584,48.11488 39.197752,48.354476 38.587816,47.470364 38.454752,47.339264 39.118195,46.962236 39.624108,46.6609" slic3r:type="contour"/>
    <polygon style="fill: white" points="40.847807,41.631847 41.147131,42.892986 41.291303,43.016171 41.344692,43.053264 41.208756,43.15263 41.2134,43.172196 41.204949,43.178917 41.249387,43.328515 41.278515,43.46412 40.462459,44.129964 40.047112,44.343424 39.88638,43.705931 39.863963,43.681995 39.247632,43.167656 39.396668,43.059303 39.674836,42.866898 39.66714,42.836376 39.725007,42.785968 39.37404,41.61632 39.766804,41.2882 40.500904,40.54414" slic3r:type="contour"/>
    <polygon style="fill: white" points="40.769492,37.740652 40.726843,37.799536 41.12376,38.0783 41.684388,38.397228 41.408464,38.612519 40.623907,39.333408 39.93654,38.933964 39.59226,38.678476 39.969516,38.329099 40.639146,37.786092 40.620116,37.722688 40.652244,37.690131 40.671344,37.673888" slic3r:type="contour"/>
    <polygon style="fill: white" points="38.843355,23.046065 39.141587,23.153512 39.16154,23.190786 39.595912,23.322692 39.546143,23.375672 39.378554,23.596197 39.921168,24.609874 40.119175,26.4885 40.325728,26.573738 40.428996,26.604976 40.159882,26.874709 40.167808,26.949909 40.152862,26.967442 40.371563,28.224959 40.614392,29.963023 40.957843,30.126857 41.123616,30.183556 40.700322,30.57807 40.7154,30.685994 40.694115,30.708792 40.967524,31.887194 41.33993,33.963605 41.513432,34.061848 41.592191,34.094824 41.394155,34.26594 41.402396,34.311891 41.392777,34.321365 41.497199,34.675967 41.630256,35.271983 41.220671,36.31154 40.632544,37.11254 39.994636,34.754658 39.5368,34.47092 39.639887,34.370936 39.843024,34.194263 39.83762,34.174284 39.906764,34.100179 39.25656,31.040982 39.171252,30.670711 39.116392,30.641898 39.128892,30.628817 39.13723,30.621019 39.165368,30.588426 38.718707,27.701381 38.620129,27.180805 38.455536,27.106516 38.492096,27.064971 38.581023,26.974289 38.578824,26.962678 38.614175,26.918786 38.474596,25.423263 38.284935,24.136178 37.647004,23.888884 37.77642,23.720943 38.159022,23.281711 38.151484,23.230546 38.289674,23.04269 38.233084,22.395846" slic3r:type="contour"/>
    <polygon style="fill: white" points="38.086076,20.222188 38.6219,20.347044 38.381395,20.62164 37.913544,21.344068 37.235475,21.227215 36.724196,21.063544 36.987836,20.601599 37.409827,20.034724" slic3r:type="contour"/>
    <polygon style="fill: white" points="37.181692,17.346844 37.196173,17.577383 37.272812,17.591714 37.339852,17.603348 37.210293,17.802172 37.222508,17.996621 37.191056,18.070181 37.257476,19.710108 36.49378,19.360118 35.883659,19.255194 35.9162,18.983102 35.889182,18.584675 35.437372,18.508684 35.508064,18.294009 35.913039,17.424279 35.910396,17.390384 36.052059,17.384636 36.063676,17.365618 36.145183,17.380859 37.058511,17.343806" slic3r:type="contour"/>
    <polygon style="fill: white" points="34.951373,14.856232 35.0111,14.861014 35.07676,14.867121 35.007383,15.089671 35.04054,15.227865 35.029605,15.273053 35.253287,16.524739 34.670507,16.673667 34.079752,16.89077 34.075476,16.585359 33.975984,16.023406 33.973312,16.023201 33.970848,16.009392 32.853522,15.957089 32.94923,15.372571 33.062126,14.771639 33.977163,14.807788 34.5077,14.837853 34.551972,14.824257 34.661132,14.832995 34.864215,14.740587 34.91676,14.711969" slic3r:type="contour"/>
    <polygon style="fill: white" points="32.634536,13.52746 33.097144,14.687697 33.074655,14.704944 32.290305,15.306519 32.10308,15.45111 31.877671,14.745732 31.562332,13.816785 32.011225,13.502718 32.483944,13.081625" slic3r:type="contour"/>
    <polygon style="fill: white" points="28.293921,11.888898 28.594896,12.454311 28.613895,12.454478 28.623963,12.474171 29.466918,12.456243 29.733644,12.462068 30.025485,12.160996 30.130654,12.005477 30.337723,12.475259 30.367672,12.475913 30.371561,12.484077 30.661931,12.483108 31.229894,12.507357 31.214504,13.009516 31.048494,13.729179 30.707083,13.728066 30.508745,13.921702 29.980922,14.433998 29.860159,14.141793 29.690016,13.724746 29.637486,13.724575 29.613268,13.6711 28.58752,13.686135 27.971233,13.696931 27.937068,13.734623 27.920144,13.697825 27.917598,13.69787 27.916395,13.695356 27.804328,13.697657 27.802558,13.632065 27.772832,13.394984 27.51739,12.860539 27.246288,12.242817 27.753661,11.656325 28.006792,11.269607" slic3r:type="contour"/>
    <polygon style="fill: white" points="22.134075,10.399686 22.340894,10.397683 22.517206,10.397272 22.653625,10.177303 22.75171,10.017168 22.945529,10.393298 23.117906,10.390814 23.54974,10.392362 23.641395,10.257783 23.699894,10.163168 23.809345,10.392936 23.923852,10.392177 24.740152,10.410306 24.811922,10.443511 24.82319,10.4283 24.828783,10.440322 25.483605,11.749651 25.844107,11.314069 26.215538,10.77638 26.329991,11.021982 26.920388,12.160881 26.304344,12.97243 26.128784,13.200307 25.819277,12.547498 25.47975,11.786252 25.006907,12.41301 24.701858,12.819633 24.473205,12.322819 24.194834,11.710833 23.972827,12.022037 23.584254,12.572098 23.401946,12.183302 23.165111,11.690934 22.683306,12.4356 22.520612,12.113851 22.301905,11.698914 21.895064,12.392888 21.728628,12.100182 21.494,11.700109 21.10682,12.435612 20.912866,12.135303 20.627197,11.693712 20.581216,11.790816 20.20586,12.572087 19.960478,12.229647 19.594132,11.711316 19.38192,12.174491 19.088224,12.819654 18.768875,12.397296 18.310159,11.785977 17.836712,12.809002 17.661334,13.200306 17.248021,12.652477 16.869714,12.16094 17.200706,11.443239 17.574622,10.776388 17.694364,10.918886 18.306583,11.747694 18.554976,11.211804 18.966944,10.428278 18.974977,10.438223 19.025606,10.410618 19.973692,10.398106 20.034928,10.268874 20.090248,10.16319 20.249778,10.396592 20.439585,10.398965 20.835081,10.399217 20.944734,10.186055 21.038426,10.017166 21.276125,10.400314 21.504698,10.402458 21.647933,10.402884 21.784453,10.159324 21.895064,9.973111" slic3r:type="contour"/>
    <polygon style="fill: white" points="16.067665,11.589777 16.543868,12.242545 16.049588,13.314047 15.985511,13.697712 15.872962,13.696938 15.872507,13.697925 15.869558,13.697941 15.853091,13.734588 15.843133,13.723352 15.820385,13.698208 14.777083,13.703854 14.16942,13.686171 14.152755,13.724585 14.098433,13.725979 13.809157,14.434025 13.591303,14.2209 13.088769,13.732713 12.741956,13.729121 12.673702,12.888058 12.560308,12.507324 13.41238,12.495174 13.434206,12.453415 13.534717,12.21688 13.659515,12.005461 14.138404,12.479916 15.159048,12.485726 15.174279,12.457816 15.489488,11.763764 15.783351,11.269611" slic3r:type="contour"/>
    <polygon style="fill: white" points="11.510152,13.218681 12.227766,13.816803 11.849312,14.969927 11.687088,15.451099 11.107911,15.007999 10.716821,14.706485 10.692965,14.688093 10.979053,13.80884 11.306105,13.081653" slic3r:type="contour"/>
    <polygon style="fill: white" points="9.148167,14.831613 9.238118,14.824268 9.292053,14.841104 10.72787,14.771631 10.881556,15.677831 10.93667,15.957061 10.40051,15.964996 9.852289,15.994431 9.710343,16.890792 9.352079,16.804652 8.536817,16.524748 8.610728,15.923844 8.753764,15.24364 8.749586,15.227865 8.783535,15.077397 8.735641,14.92844 8.713369,14.867115 8.833185,14.857331 8.850316,14.781406 8.873366,14.711973" slic3r:type="contour"/>
    <polygon style="fill: white" points="7.429698,17.399592 7.549785,17.397132 7.565554,17.394173 7.726239,17.365574 7.739526,17.393244 7.879721,17.390372 7.880103,17.426124 8.068425,17.954117 8.352784,18.508628 8.192925,18.511062 7.928815,18.556399 7.906593,19.254952 7.420634,19.466424 6.532935,19.710152 6.586456,18.753113 6.604871,18.084208 6.567614,17.996566 6.578094,17.818005 6.484518,17.668821 6.450253,17.603372 6.592254,17.576736 6.598697,17.466977 6.608389,17.346907" slic3r:type="contour"/>
    <polygon style="fill: white" points="6.805149,20.731032 7.065939,21.06348 6.662946,21.103802 5.876437,21.34407 5.484803,20.868852 5.168209,20.347098 5.575493,20.23225 6.380204,20.034614" slic3r:type="contour"/>
    <polygon style="fill: white" points="5.520595,23.076502 5.638703,23.230746 5.629323,23.31074 6.143144,23.888866 5.957473,23.939572 5.537045,24.097677 5.346099,25.726057 5.184463,26.930639 5.211305,26.962678 5.208566,26.979851 5.334588,27.10651 5.284287,27.124493 5.178042,27.171209 4.663533,30.396744 4.626799,30.591237 4.635083,30.600412 4.634125,30.60526 4.673735,30.641928 4.657408,30.648227 4.6221,30.6661 4.119748,33.207878 3.897263,34.11805 3.952506,34.174304 3.94541,34.204579 4.253326,34.470952 4.126452,34.526184 3.828746,34.702331 3.626898,35.56352 3.157645,37.112336 2.485558,35.746979 2.159877,35.271976 2.406462,34.33179 2.38773,34.31192 2.393508,34.285168 2.260353,34.167455 2.197935,34.09486 2.469498,33.933325 2.790365,32.44767 3.119961,30.737829 3.074726,30.685994 3.085304,30.625615 2.789897,30.340485 2.666514,30.183558 3.210375,29.911807 3.465025,28.45845 3.655503,26.990963 3.622358,26.949921 3.628184,26.907775 3.434478,26.704808 3.361122,26.604928 3.689573,26.463783 3.771378,25.87212 3.869057,24.609388 4.189899,24.135584 4.421921,23.638502 4.194202,23.322664 4.268542,23.295524 4.636776,23.178193 4.64825,23.153611 5.067009,22.997824 5.556959,22.395724" slic3r:type="contour"/>
    <polygon style="fill: white" points="3.170065,37.722724 3.15238,37.789582 3.735255,38.304124 4.197866,38.678548 3.759116,38.915164 3.166177,39.333376 2.604287,38.891455 2.105742,38.397236 2.323542,38.237867 3.064644,37.793195 3.020696,37.740684 3.096364,37.68648 3.118837,37.67392" slic3r:type="contour"/>
    <polygon style="fill: white" points="3.905194,41.057091 4.416107,41.6164 4.276196,42.166367 4.076629,42.79811 4.122993,42.836336 4.114721,42.871561 4.542512,43.167628 4.387585,43.334784 3.904,43.758972 3.742976,44.3434 2.612167,43.515092 2.511647,43.464336 2.590008,43.182155 2.576792,43.172248 2.57978,43.161225 2.496918,43.100732 2.445431,43.053244 2.661495,42.859791 3.289173,40.54438" slic3r:type="contour"/>
    <polygon style="fill: white" points="5.064121,47.177995 5.335372,47.339244 4.776908,48.158084 4.592336,48.354468 3.768867,47.723572 3.390891,47.49688 3.790202,47.061491 4.165989,46.660888" slic3r:type="contour"/>
    <polygon style="fill: white" points="5.732312,49.142643 5.634036,50.347263 5.916906,50.404256 5.804187,50.539284 5.792053,50.595736 5.055529,50.905376 5.31385,50.681706 5.268412,50.609235 4.704248,50.852036 4.725648,50.366771 4.822651,48.668419 4.817679,48.637052 4.816085,48.62296 4.818629,48.624871 4.843941,48.649969 5.480437,48.814652 5.836629,48.608868" slic3r:type="contour"/>
    <polygon style="fill: white" points="8.962685,53.412155 10.440635,53.526264 10.276939,54.0737 10.126813,54.448458 10.140983,54.4738 10.132087,54.471351 10.075725,54.456112 9.340547,54.350728 9.084595,54.310684 8.44811,54.56636 8.367884,54.608932 8.286926,54.091416 7.963819,53.930143 6.862154,53.380692 7.081745,53.284272 8.03209,53.033636" slic3r:type="contour"/>
    <polygon style="fill: white" points="11.581471,54.940323 11.652906,55.279832 10.858702,55.714576 10.604111,55.888036 10.389351,54.949724 10.336271,54.64952 11.222893,54.053719 11.296378,53.997704" slic3r:type="contour"/>
    <polygon style="fill: white" points="13.804658,55.612411 13.970909,56.180148 13.399867,56.569839 12.970984,56.9156 12.794345,56.2962 12.639742,55.67354 13.277594,55.139759 13.537207,54.910928" slic3r:type="contour"/>
    <polygon style="fill: white" points="15.954689,56.151083 16.212627,56.879324 15.801376,57.214088 15.262532,57.721148 15.12441,57.336835 14.852279,56.476844 15.330979,56.016619 15.72196,55.623172" slic3r:type="contour"/>
    <polygon style="fill: white" points="18.032125,56.535511 18.384406,57.360768 18.084613,57.655516 17.499354,58.310856 17.402922,58.095396 16.998264,57.07988 17.360438,56.676959 17.826986,56.132464" slic3r:type="contour"/>
    <polygon style="fill: white" points="20.065888,56.763972 20.506788,57.623172 20.276264,57.899347 19.704018,58.676128 19.641723,58.563463 19.102876,57.479151 19.387413,57.110752 19.87573,56.440292" slic3r:type="contour"/>
    <polygon style="fill: white" points="22.088598,56.829888 22.600182,57.662508 22.404402,57.949275 21.895064,58.8013 21.844238,58.726352 21.18991,57.662588 21.433373,57.296216 21.895064,56.543192" slic3r:type="contour"/>
  </g></svg>