<svg width="43.790126" height="63.590156" xmlns="http://www.w3.org/2000/svg" xmlns:svg="http://www.w3.org/2000/svg" xmlns:xlink="http://www.w3.org/1999/xlink" xmlns:slic3r="http://slic3r.org/namespaces/slic3r"><g xmlns="http://www.w3.org/2000/svg" slic3r:z="2.07949999999999e-005" id="layer62">
    <polygon style="fill: white" points="17.776833,3.392487 17.989734,3.685616 18.062485,3.655383 18.02857,3.444629 18.570482,4.01958 19.041462,3.982359 19.157114,4.000256 19.165202,3.598381 19.370458,4.023627 19.592362,4.015749 20.001029,4.016991 20.034874,3.749498 20.121596,4.012534 20.249682,4.00863 20.88353,3.981582 20.883665,3.978296 20.898293,3.978049 20.932024,3.792392 20.980701,3.976666 21.068797,3.975186 21.839107,3.953073 21.839266,3.949865 21.852343,3.950084 21.895064,3.75737 21.940002,3.950177 21.950862,3.949865 21.950989,3.951743 22.03083,3.953086 22.811858,3.975572 22.858104,3.792392 22.896083,3.977996 22.906462,3.978295 22.90658,3.980349 22.9991,3.983226 23.670273,4.010948 23.755252,3.749498 23.802943,4.016426 23.821916,4.01721 23.822083,4.022468 24.047308,4.029413 24.411927,4.032663 24.624924,3.598367 24.702064,4.035249 24.761316,4.035777 24.761169,4.046727 25.093487,4.057307 25.105564,4.029292 25.201692,4.041171 25.231424,4.009796 25.76151,3.444656 25.820074,3.64166 26.077214,3.298669 26.22405,3.448257 26.805121,4.234992 26.854229,4.295693 27.09847,4.174877 27.10655,4.176535 27.395106,4.015518 27.598328,3.930748 27.680815,4.294396 27.849528,4.329022 28.24833,4.33612 28.346826,4.638792 28.428768,4.766471 28.760088,4.64468 28.796226,4.845201 28.820054,5.376151 28.863428,5.443732 28.885814,5.640282 28.947769,5.72143 28.978673,5.706116 29.047049,5.721859 29.540487,5.448098 29.865764,5.316696 29.992776,5.939598 30.462888,6.047835 30.631623,6.036766 30.764111,5.948748 30.7846,5.95457 30.906424,5.869867 30.984517,5.824337 31.045079,6.028587 31.266234,6.091429 32.191112,6.187843 32.192415,6.186791 32.192732,6.186914 32.19699,6.183768 32.199138,6.189929 33.470988,6.596222 33.473118,6.594585 33.475809,6.595965 33.510004,6.571913 33.521426,6.612335 33.52224,6.612595 33.524771,6.621066 33.581599,6.650199 34.665834,7.169524 34.749075,7.121908 34.815424,7.08836 34.835232,7.250661 34.848176,7.256861 34.85723,7.308293 35.010419,7.402888 35.840381,7.878798 35.95046,7.84556 36.025888,7.826696 36.004916,7.973145 36.026988,7.9858 36.025476,8.02645 36.109267,8.074513 36.493252,8.286461 36.914616,8.803411 36.964329,8.861906 36.982475,8.860233 36.984531,8.864038 37.057479,8.857997 37.043303,8.906984 37.033231,8.942983 37.034856,8.944894 37.032022,8.951931 37.492236,9.80368 37.613238,10.024841 37.648095,10.025596 37.651896,10.03437 37.914524,10.041643 37.839976,10.205159 37.782261,10.333772 37.794447,10.356046 37.79265,10.359234 37.992967,10.821576 38.160492,11.212308 38.183559,11.213827 38.18815,11.225014 38.64838,11.261655 38.502295,11.527174 38.393572,11.725494 38.428248,11.809977 38.640689,12.34496 38.716867,12.35104 39.267144,12.395207 39.068327,12.73912 38.925072,12.98732 39.048051,13.273386 39.064952,13.274695 39.07343,13.295031 39.34578,13.32339 39.804508,13.371771 39.571247,13.752145 39.388282,14.064807 39.42868,14.158777 39.421196,14.169866 39.443903,14.228668 39.484156,14.234185 39.486963,14.243974 39.921899,14.319611 40.2992,14.389561 40.013136,14.796735 39.824736,15.079227 39.909383,15.253132 40.152704,15.341309 40.201254,15.439458 40.505827,15.519902 40.758171,15.59425 40.456611,15.955693 40.657088,16.360977 41.178808,17.119058 41.181868,17.200668 41.182791,17.201013 41.182569,17.202479 41.197239,17.209144 41.183212,17.219117 41.183675,17.227504 41.177902,17.233266 41.000208,18.405328 40.91759,19.043498 41.052868,19.247972 41.139148,19.538261 41.4657,19.732224 41.250032,19.911326 41.273792,19.991262 41.150519,20.10457 41.402915,20.638349 41.587284,21.49989 41.364643,21.878534 40.977571,22.186386 40.987832,22.333397 41.103888,22.40719 41.008342,22.627261 41.012717,22.689952 41.384004,22.83194 41.042596,23.118074 41.049079,23.210958 40.977461,23.262357 41.0698,23.793464 41.166968,24.774878 40.705804,24.629712 40.455365,24.43896 40.494583,24.748143 40.633569,25.822908 40.674903,25.834222 40.85886,25.86942 40.654574,25.985334 40.656336,25.998963 40.649867,26.001991 40.669035,26.238034 40.770128,26.560952 40.383538,26.126663 40.227993,26.199475 40.339455,26.885511 40.718388,27.665446 40.689197,27.687308 40.728688,27.754126 40.672719,27.830744 40.448013,27.954819 40.575916,28.205332 40.571905,28.223223 40.692416,28.328523 40.988283,28.849698 40.928856,29.242194 40.710768,29.432442 40.781056,29.544214 40.728433,29.640113 40.896199,29.756957 41.554188,30.736778 41.554222,30.751091 41.559844,30.754453 41.556524,30.758261 41.509918,30.951002 41.368831,31.608536 41.342301,31.644189 41.242403,32.057318 41.438092,32.314818 41.413518,32.371157 41.786132,32.576976 42.184316,33.06513 42.112104,33.44189 41.97814,33.664777 42.03148,33.747628 41.961891,33.866079 42.471644,34.633276 42.080605,35.089661 42.344504,35.413339 42.477447,35.484435 42.594484,35.592604 42.219244,36.208304 41.685508,36.77471 41.660147,36.792188 41.747424,37.101199 41.740779,37.107246 41.790834,37.306773 42.35214,37.637708 42.727124,38.008363 42.497667,38.35018 42.138752,38.693605 42.18728,38.887044 42.138253,38.930526 42.169252,39.060724 42.512936,40.449873 42.693444,40.644112 42.654031,40.697372 42.588524,40.7554 42.596752,40.788652 42.589182,40.795096 42.667732,41.081596 42.508992,41.223335 41.557872,42.551472 41.135516,41.608924 41.005599,41.044227 40.771263,40.845439 40.662592,40.7646 40.970137,40.558838 40.846444,40.287216 40.7033,39.633168 40.923344,39.128795 41.09502,38.797934 41.073252,38.781084 41.140295,38.580641 40.722352,38.350416 40.907832,38.177543 41.512964,37.487314 41.631272,37.14527 41.561356,37.095424 41.592715,36.986864 41.652296,36.702083 40.945732,36.176908 40.620628,36.004592 41.022916,35.615679 40.984728,35.53038 41.068869,35.360853 40.796075,35.114411 40.442811,34.54004 40.543243,34.235364 40.635803,34.047884 40.5704,34.004032 40.620032,33.786688 40.273092,33.632424 40.502112,33.242158 40.744867,32.718109 40.593448,32.546588 40.653175,32.247905 40.27442,32.05173 39.73528,31.561594 39.777648,31.408569 39.819492,31.329947 39.768432,31.29523 39.793287,31.114212 39.55186,30.994514 39.71696,30.548509 39.858413,30.005397 39.722592,29.914848 39.717709,29.739551 39.64782,29.687952 39.676374,29.383581 39.430051,29.282047 38.9266,28.933082 38.977219,28.749611 39.00649,28.691484 38.954952,28.649138 39.014134,28.392248 38.659072,28.055888 38.929736,27.596963 38.952711,27.513495 38.835004,27.09167 38.787869,26.896217 38.738896,26.869766 38.766312,26.75137 38.681208,26.725582 38.350028,26.640982 38.569556,26.319671 38.627267,26.230255 38.61836,26.193322 38.166472,24.6026 38.072523,24.297818 38.014476,24.27513 38.051885,24.230868 38.0475,24.216642 38.058512,24.207048 38.008064,24.012196 38.101267,24.007602 38.497306,23.824811 38.550047,23.778868 38.640334,23.70369 38.626124,23.609182 38.712345,23.539867 38.449912,21.860498 38.972516,22.498768 39.226996,22.644632 39.059454,21.292291 38.66594,21.372464 38.980672,20.995987 39.018552,20.962145 39.016504,20.945608 39.03224,20.921755 38.987244,20.735376 39.089478,20.834996 39.391332,20.377454 39.475477,20.303663 39.486603,20.266281 39.401888,19.953653 39.549427,20.055206 39.580968,19.949236 39.668422,19.863228 39.549463,19.576954 39.652416,19.540163 39.911749,19.344405 39.394572,18.67166 39.524677,17.731168 39.350967,17.646959 39.158976,17.585426 39.401211,17.37037 39.572583,17.181958 39.544313,16.44151 39.162579,16.305148 38.760907,16.216609 38.834856,16.135862 39.060773,15.836086 38.430232,15.387146 38.387042,15.210627 38.350612,15.205659 38.374962,15.171079 38.36176,15.137755 38.063286,14.335413 37.970255,14.325998 37.86988,14.316243 37.981259,14.131307 37.910972,13.974187 37.665955,13.407654 37.4881,13.389889 37.308936,13.372855 37.509473,13.026883 37.358156,12.66399 37.20978,12.304479 36.947008,12.280638 36.65944,12.24908 36.883555,11.859779 36.963949,11.727801 36.708382,11.166031 36.367367,11.155505 35.961807,11.11849 36.055803,10.923369 36.319364,10.430632 36.138551,10.119005 35.77284,10.155374 35.26128,10.147807 35.269704,10.120178 35.502055,9.504011 34.873996,9.397758 34.611584,9.445941 34.612732,9.429509 34.694186,8.808144 34.649842,8.640839 34.575135,8.59808 34.232415,8.78717 33.865204,8.942697 33.830343,8.728277 33.783194,8.29506 33.37328,8.167858 33.059902,8.385328 32.849532,8.507148 32.704632,8.036911 32.3241,7.950112 31.939501,7.889666 31.723698,8.042838 31.619619,8.113609 31.507295,7.781303 31.178725,7.673222 30.572477,7.495723 30.357252,7.622556 30.27029,7.683356 30.196436,7.385624 30.183546,7.38185 30.137804,7.234193 29.50636,6.784446 29.133031,6.960881 28.934388,7.07299 28.880838,6.557391 28.847775,6.322123 28.761016,6.261268 28.707747,6.015832 28.615428,6.050436 28.463777,6.018982 28.143264,6.16467 27.735316,6.371762 27.7206,6.094892 27.69421,5.859364 27.53103,5.825519 26.86757,5.684508 26.73742,5.768047 26.730304,5.715224 26.721463,5.670313 26.510254,5.650703 26.407306,5.525701 26.273839,5.49121 26.210673,5.612929 26.357322,5.793534 25.909958,5.847318 25.940638,5.911367 25.899484,6.081259 26.049832,6.278191 26.137326,6.398562 25.813218,6.437384 25.79942,6.494344 25.756274,7.019465 25.702131,7.081896 25.703404,7.096504 25.692447,7.093756 25.690897,7.095629 25.685129,7.093861 24.951477,7.467617 24.913285,7.484074 24.910314,7.503482 24.906549,7.50406 24.883,7.598207 24.828345,7.557119 24.796913,7.534216 24.760306,7.54999 24.736861,7.530101 24.128448,7.623475 24.034407,7.635366 24.030802,7.644579 24.001298,7.645529 23.918454,7.81726 23.833637,7.72015 23.78833,7.666478 23.73006,7.673845 23.715197,7.654738 23.250251,7.669703 23.064829,7.677606 23.060804,7.685322 23.019097,7.685369 22.902832,7.872429 22.8178,7.752395 22.774584,7.689976 22.732596,7.691766 22.729027,7.685702 22.281644,7.686216 22.051957,7.688022 22.050618,7.690478 22.013081,7.690439 21.895064,7.869319 21.815739,7.74961 21.776505,7.690186 21.739508,7.690478 21.73933,7.690151 21.278372,7.689666 21.059751,7.687936 21.057507,7.691766 21.012768,7.690298 20.887268,7.872429 20.807347,7.748376 20.768108,7.685629 20.729299,7.685322 20.726975,7.680924 20.241092,7.664985 20.072501,7.657851 20.060007,7.673857 19.999335,7.664834 19.871672,7.817256 19.808948,7.701798 19.781222,7.645524 19.759338,7.644598 19.752371,7.628104 19.14908,7.538383 19.059134,7.526719 19.029822,7.549998 18.996501,7.533497 18.907126,7.598213 18.885148,7.529192 18.869937,7.47082 18.109114,7.094049 18.099317,7.095614 18.098061,7.094151 18.086714,7.096493 18.087933,7.08235 18.033468,7.018899 17.935109,6.426944 17.82808,6.415525 17.65281,6.398569 17.88315,6.114233 17.849468,5.911526 17.880733,5.847107 17.689661,5.824227 17.43285,5.793549 17.574521,5.616648 17.518509,5.49166 17.321689,5.5411 17.27985,5.650736 17.115904,5.681718 17.07021,5.682767 17.052708,5.768047 16.997176,5.735768 16.917998,5.686265 16.893935,5.68682 16.403384,5.780111 16.1208,5.84229 16.054819,6.371751 15.76922,6.247062 15.306294,6.021508 15.174785,6.050444 15.086003,6.018298 15.029092,6.261269 14.953374,6.315665 14.891777,6.837561 14.855738,7.072992 14.362891,6.854153 14.271158,6.805765 13.972096,7.020608 13.651043,7.242506 13.606574,7.38187 13.592318,7.386574 13.543162,7.58608 13.519812,7.683354 13.212898,7.511767 12.978583,7.58908 12.27034,7.797155 12.260269,7.825324 12.25824,7.825777 12.197558,8.012169 12.170482,8.113609 11.886027,7.908806 11.534355,7.987252 11.047897,8.072677 10.976172,8.321708 10.940575,8.507165 10.626643,8.274286 10.508322,8.199021 9.978595,8.359503 9.941265,8.622968 9.924919,8.942688 9.774606,8.851735 9.286401,8.610783 9.220813,8.648212 9.139574,9.24258 9.144586,9.269196 9.178556,9.445917 9.164405,9.44075 9.093034,9.42203 8.572886,9.923122 8.40845,9.881783 8.528871,10.147801 8.496507,10.143992 7.68373,10.09958 7.473052,10.467238 7.628426,10.779421 7.828323,11.118465 7.550509,11.125815 7.097069,11.150386 6.867595,11.657139 6.824432,11.749071 6.975283,12.007216 7.130681,12.249082 6.580268,12.298581 6.432623,12.652053 6.275328,13.034642 6.384188,13.220335 6.481196,13.372851 6.118221,13.409168 6.029238,13.607391 5.805753,14.1296 5.86617,14.229501 5.92022,14.316319 5.721553,14.336466 5.676839,14.44864 5.414926,15.168162 5.439481,15.20569 5.400121,15.212002 5.35987,15.387171 4.918245,15.631644 4.732601,15.7746 5.02922,16.216607 4.895062,16.268815 4.2028,16.47704 4.169413,17.090449 4.475576,17.393195 4.631142,17.585412 4.270097,17.773715 4.302319,18.010351 4.395566,18.671557 4.091764,19.040169 3.907015,19.285373 4.240656,19.577016 4.176604,19.714189 4.11535,19.868339 4.117439,19.870971 4.066926,20.047709 4.388242,19.953664 4.341371,20.167356 4.306086,20.286355 4.311382,20.292688 4.300908,20.39358 4.531818,20.711722 4.641106,20.817443 4.802884,20.735404 4.781699,20.867496 4.762732,20.935101 4.773623,20.945636 4.771307,20.985519 5.124203,21.372476 4.759873,21.182411 4.690059,22.384606 5.175371,21.963614 5.340239,21.860494 5.235817,23.083569 5.12723,23.583629 5.163985,23.609164 5.161627,23.634278 5.782062,24.012222 5.756914,24.162557 5.739047,24.213643 5.742626,24.216669 5.738363,24.233548 5.775652,24.275156 5.722684,24.295617 5.392563,25.602602 5.179342,26.240225 5.440102,26.64101 5.044943,26.767581 5.05126,26.869744 4.962267,26.912846 4.932274,27.039797 5.086693,27.292394 5.131024,28.056013 4.924732,28.43155 4.805392,28.522182 4.835208,28.649175 4.769068,28.733647 4.863559,28.933004 4.566878,29.053 4.482699,29.099388 4.368599,29.245111 4.152026,29.37181 4.142305,29.687962 4.065843,29.733416 4.06751,29.914836 4.031682,29.947499 4.14109,30.213696 4.238271,30.994504 4.102098,31.148072 4.000687,31.195396 4.021687,31.295218 3.952465,31.361204 4.054828,31.561658 3.780038,31.707451 3.159647,32.143174 3.196717,32.546564 3.080863,32.646527 3.308018,33.024772 3.517042,33.632344 3.356478,33.782672 3.18499,33.863105 3.219777,34.003936 3.132021,34.074448 3.347329,34.539884 2.730223,35.147692 2.682795,35.204553 2.805386,35.530316 2.78701,35.559023 2.988506,35.758588 3.169498,36.00456 2.808695,36.321543 2.139081,36.710882 2.077941,36.746432 1.713983,36.251121 1.697872,36.234092 1.695708,36.226251 1.33443,35.734587 1.195639,35.592528 1.484861,35.462211 1.464837,35.389651 1.530934,35.328692 1.387109,35.141999 1.318467,34.63342 1.592228,33.986632 1.771106,33.765008 1.758708,33.747584 1.864789,33.477742 1.605855,33.06498 1.953262,32.892236 2.391751,32.497773 2.351962,32.314777 2.468622,32.205373 2.216954,31.808494 2.230445,30.74107 2.243949,30.730433 2.724859,29.648044 3.011649,29.502753 3.052037,28.850499 2.801848,28.849592 3.069683,28.565509 3.104721,27.99965 3.186868,27.990149 3.22788,27.771521 3.142557,27.713385 3.061485,27.754018 3.122447,27.699683 3.071803,27.665176 3.428316,26.438292 3.349788,26.402501 3.28609,26.50134 3.01999,26.56104 3.128743,25.976105 3.096423,25.956976 2.931253,25.86944 3.157749,25.811199 3.329462,24.465437 3.364123,24.194622 3.032868,24.300838 2.623186,24.775124 2.831924,23.278855 2.741067,23.210962 2.759618,23.102215 2.730185,23.07629 2.406115,22.83192 2.861023,22.673461 2.68624,22.40719 2.901218,22.272134 2.925883,22.127548 2.795409,21.959767 2.202846,21.499848 2.722162,20.157385 2.516324,19.99126 2.546172,19.924266 2.324438,19.732238 2.73275,19.477462 2.749764,19.467304 2.85091,19.240281 2.843944,19.208639 2.881205,19.188795 2.611713,17.23279 2.60645,17.227504 2.606696,17.222018 2.592888,17.209143 2.607433,17.201724 2.607335,17.201011 2.607644,17.200902 2.61132,17.119057 3.30096,15.924249 3.180991,15.778797 3.03196,15.594248 3.56644,15.4643 3.637451,15.341273 3.835471,15.271256 3.943176,15.058192 3.687003,14.685593 3.490931,14.389549 3.97499,14.309155 4.301817,14.249033 4.305889,14.2342 4.401445,14.220829 4.361472,14.158919 4.400399,14.073545 4.199603,13.739635 3.985626,13.371726 4.424833,13.326418 4.717033,13.295689 4.725177,13.274763 4.752651,13.272318 4.871212,12.998508 4.768938,12.82149 4.52296,12.395221 4.907678,12.364626 5.154244,12.344859 5.16975,12.309046 5.399725,11.73243 5.141752,11.261641 5.428551,11.244762 5.599577,11.23134 5.606557,11.213838 5.631546,11.212248 5.787028,10.852324 5.998208,10.36055 5.995678,10.355945 6.006974,10.335113 5.87563,10.041605 6.041555,10.042186 6.135968,10.039749 6.142062,10.025558 6.175067,10.02511 6.685749,9.083288 6.757732,8.951514 6.755245,8.944869 6.75636,8.943514 6.732631,8.858028 6.803848,8.86709 6.807576,8.860264 6.823392,8.862022 7.296526,8.28683 7.764395,8.02383 7.763107,7.985911 7.78047,7.975163 7.770638,7.894281 7.764219,7.826735 7.926718,7.884637 8.066074,7.798376 8.934757,7.297961 8.941929,7.25683 8.957439,7.248779 8.967058,7.163859 8.974673,7.088374 9.1075,7.170881 9.244537,7.099744 10.266194,6.61854 10.267915,6.6126 10.271374,6.611211 10.280153,6.571911 10.310041,6.595679 10.350809,6.579303 11.592108,6.188555 11.593138,6.183768 11.597001,6.187015 11.602358,6.185324 12.777709,5.989996 12.800576,5.897938 12.80559,5.824328 12.983261,5.955835 13.025968,5.948739 13.044845,5.961951 13.794089,5.824512 13.895288,5.812735 13.934967,5.571667 13.924363,5.316698 14.315588,5.560244 14.677972,5.721649 14.795835,5.707932 14.921657,5.502837 14.926727,5.443632 15.041699,5.236594 15.053578,5.158375 15.030038,4.644671 15.151589,4.716053 15.297411,4.776117 15.541731,4.336154 16.144973,4.251557 16.179502,4.08985 16.191799,3.930744 16.60268,4.187369 16.691687,4.174888 16.894959,4.285121 16.946342,4.286586 16.989875,4.242258 17.077476,4.120628 17.097186,4.132989 17.536899,3.685253 17.712924,3.298658" slic3r:type="contour"/>
    <polygon style="fill: black" points="39.358505,21.231362 39.608969,21.649502 39.686296,21.621511 39.617128,21.178673" slic3r:type="hole"/>
    <polygon style="fill: black" points="4.208842,21.280433 4.276799,21.309223 4.394952,21.168376 4.221619,21.157355" slic3r:type="hole"/>
    <polygon style="fill: black" points="4.264002,20.749086 4.235556,21.023101 4.488169,20.894998 4.351271,20.73957" slic3r:type="hole"/>
    <polygon style="fill: black" points="21.611692,5.123962 21.05833,5.13123 21.06894,5.290164 21.077324,5.614682 21.207619,5.613875 21.757558,5.606427 21.768792,5.44138 21.779084,5.122078" slic3r:type="hole"/>
    <polygon style="fill: black" points="22.030402,5.296823 22.041442,5.604616 22.173167,5.60543 22.724373,5.613005 22.734404,5.46866 22.741635,5.131801 22.57083,5.129878 22.018907,5.122634" slic3r:type="hole"/>
    <polygon style="fill: black" points="20.647085,5.164493 20.259307,5.199567 20.275058,5.370091 20.291805,5.596057 20.445816,5.60199 20.809189,5.612522 20.818708,5.464189 20.830298,5.147677" slic3r:type="hole"/>
    <polygon style="fill: black" points="22.975564,5.302064 22.987637,5.610112 23.134772,5.604507 23.504449,5.593438 23.518307,5.445474 23.536148,5.199609 23.347632,5.182285 22.965924,5.147883" slic3r:type="hole"/>
    <polygon style="fill: black" points="23.85207,5.458057 23.850646,5.557243 24.057537,5.521969 24.097369,5.317174 23.840478,5.239698" slic3r:type="hole"/>
    <polygon style="fill: black" points="19.692883,5.348847 19.724443,5.510419 19.968397,5.551093 19.977239,5.39868 19.974434,5.267527" slic3r:type="hole"/>
    <polygon style="fill: black" points="20.748567,4.134998 20.157417,4.210948 20.169479,4.305245 20.236759,4.917356 20.412094,4.919072 20.838798,4.915514 20.838879,4.913307 20.84348,4.913253 20.84967,4.808172 20.877842,4.120432" slic3r:type="hole"/>
    <polygon style="fill: black" points="22.91842,4.186359 22.949986,4.912044 23.127412,4.910478 23.559211,4.913094 23.572703,4.809224 23.636328,4.214849 23.469747,4.196222 22.914796,4.123319" slic3r:type="hole"/>
    <polygon style="fill: black" points="21.716714,4.089486 20.999858,4.106515 21.005592,4.178388 21.046369,4.910875 21.194903,4.909134 21.786402,4.895066 21.786568,4.889911 21.790627,4.889959 21.798283,4.779303 21.832455,4.087713" slic3r:type="hole"/>
    <polygon style="fill: black" points="21.965482,4.165925 22.003508,4.89245 22.156324,4.894239 22.74967,4.908495 22.75774,4.810266 22.793877,4.107687 22.675423,4.105868 21.960273,4.088937" slic3r:type="hole"/>
    <polygon style="fill: black" points="23.832946,4.364957 23.828543,4.907521 24.194018,4.875765 24.231995,4.727859 24.309515,4.418909 24.056868,4.333549 23.829917,4.269463" slic3r:type="hole"/>
    <polygon style="fill: black" points="19.630593,4.389513 19.486422,4.43343 19.507694,4.516433 19.594991,4.863367 19.845232,4.883897 19.975977,4.899816 19.980277,4.780741 19.972307,4.276405" slic3r:type="hole"/>
    <polygon style="fill: white" points="2.228813,37.09546 2.158578,37.146894 2.254006,37.426247 2.637705,37.788516 3.067772,38.350424 2.946136,38.468747 2.668547,38.639757 2.716835,38.781112 2.680373,38.810361 3.086822,39.633224 2.777293,40.486538 2.840056,40.564379 3.028024,40.691188 3.12753,40.764576 2.708895,41.134184 2.232242,42.55146 1.60038,41.994263 1.12239,41.081508 1.165654,40.894491 1.196717,40.791337 1.19334,40.788636 1.203459,40.737734 1.096687,40.64414 1.149406,40.611327 1.246905,40.519163 1.439946,39.548011 1.619015,38.900495 1.602822,38.887007 1.659941,38.597737 1.562485,38.475919 1.063003,38.008304 1.398834,37.835616 1.979393,37.343902 2.04599,37.104014 2.042754,37.101224 2.068091,36.983376 2.145385,36.7379" slic3r:type="contour"/>
    <polygon style="fill: white" points="2.993298,43.091684 3.344116,43.348535 3.030643,43.652187 2.414042,44.17076 1.61406,43.550388 1.305973,43.33876 1.826874,42.927599 2.248014,42.570676" slic3r:type="contour"/>
    <polygon style="fill: white" points="3.635314,46.753125 3.810932,46.896905 3.801925,46.909996 3.784027,46.936526 3.729102,48.391836 3.423762,49.388558 3.590988,49.443072 3.623914,49.593769 3.770249,49.643188 4.454199,49.745068 4.332759,49.923732 3.712871,50.977148 3.074846,50.798244 2.540285,50.594448 2.746136,50.230728 3.181838,49.651807 3.102375,49.49594 3.170511,49.37196 3.210266,49.31896 3.28563,49.343528 2.652916,47.955355 2.56188,47.913768 1.867773,47.614824 1.97257,47.441664 2.257612,47.130837 1.744241,46.787164 1.92983,46.599575 2.595948,45.991647 2.611074,45.632816" slic3r:type="contour"/>
    <polygon style="fill: white" points="4.50845,51.775472 5.141073,51.78496 5.00443,52.022168 4.518057,53.042444 3.776625,52.974232 3.310888,52.870284 3.516162,52.392108 3.939028,51.67754" slic3r:type="contour"/>
    <polygon style="fill: white" points="5.895663,53.72276 5.548594,54.767308 4.790787,54.83332 4.324491,54.815072 4.470341,54.287812 4.763443,53.555316 5.364261,53.546279 5.998766,53.470112" slic3r:type="contour"/>
    <polygon style="fill: white" points="7.046281,55.146971 6.865311,56.210856 6.151388,56.404572 5.655992,56.483708 5.720334,55.957223 5.874826,55.188992 6.453619,55.065752 7.100874,54.89718" slic3r:type="contour"/>
    <polygon style="fill: white" points="8.529338,56.409564 8.511201,57.443384 7.847102,57.73208 7.345558,57.909044 7.336255,57.395412 7.366124,56.615044 7.914836,56.401647 8.539435,56.1499" slic3r:type="contour"/>
    <polygon style="fill: white" points="10.277303,57.50324 10.383408,58.49574 9.772746,58.847095 9.278028,59.100332 9.212327,58.608264 9.14385,57.827124 9.662752,57.551728 10.251996,57.23714" slic3r:type="contour"/>
    <polygon style="fill: white" points="12.199436,58.412347 12.403715,59.374512 11.847547,59.764864 11.360349,60.080768 11.253141,59.616879 11.105762,58.835164 11.592752,58.518735 12.147752,58.151463" slic3r:type="contour"/>
    <polygon style="fill: white" points="14.196987,59.131715 14.487469,60.08432 13.988799,60.493019 13.501478,60.86768 13.366583,60.44034 13.153164,59.650456 13.603127,59.311676 14.130561,58.893168" slic3r:type="contour"/>
    <polygon style="fill: white" points="16.166028,59.660168 16.546787,60.62554 16.115863,61.034295 15.618299,61.475848 15.469587,61.098336 15.183321,60.29034 15.581096,59.945267 16.097195,59.464008" slic3r:type="contour"/>
    <polygon style="fill: white" points="18.107682,60.014744 18.583796,60.9894 18.219337,61.391804 17.72112,61.907964 17.565677,61.582071 17.196216,60.760792 17.534606,60.416839 18.042044,59.865164" slic3r:type="contour"/>
    <polygon style="fill: white" points="41.543372,42.571718 42.269967,43.153627 42.484152,43.33876 41.993988,43.741427 41.376084,44.17076 40.811907,43.645411 40.446024,43.348544 40.946031,42.99962 41.54615,42.567839" slic3r:type="contour"/>
    <polygon style="fill: white" points="41.219986,46.023664 41.509291,46.313979 42.045888,46.787135 41.871871,46.955484 41.524579,47.189176 41.922352,47.614804 41.730584,47.702928 41.172511,47.946718 40.514766,49.330176 40.579859,49.318959 40.687752,49.49594 40.605607,49.682927 40.829435,50.044019 41.249844,50.594448 40.855168,50.696368 40.077256,50.977148 39.728492,50.460696 39.335928,49.745072 39.496983,49.685204 40.197344,49.544175 40.19914,49.443072 40.387667,49.374909 40.012676,46.946811 39.979492,46.897145 39.992895,46.885372 40.94207,46.08553 41.179092,45.632728" slic3r:type="contour"/>
    <polygon style="fill: white" points="40.195139,52.397619 40.479263,52.870227 40.010191,52.89412 39.272092,53.042508 38.942747,52.461779 38.649028,51.785012 38.882283,51.739392 39.851156,51.677492" slic3r:type="contour"/>
    <polygon style="fill: white" points="38.040972,53.470508 39.026636,53.555227 39.274072,54.34454 39.46566,54.815036 38.988004,54.750612 38.241484,54.76734 37.995964,54.153044 37.791352,53.470128" slic3r:type="contour"/>
    <polygon style="fill: white" points="36.92488,54.945956 37.915276,55.188988 38.029832,55.976635 38.134136,56.483704 37.685415,56.341336 36.924764,56.2109 36.793235,55.591515 36.689244,54.897172" slic3r:type="contour"/>
    <polygon style="fill: white" points="35.481428,56.23922 36.424024,56.614984 36.422268,57.380239 36.444584,57.909044 36.021116,57.711228 35.278944,57.443352 35.256636,56.824515 35.2507,56.149892" slic3r:type="contour"/>
    <polygon style="fill: white" points="33.767195,57.358615 34.646248,57.827104 34.557707,58.557264 34.5121,59.100332 34.117167,58.863959 33.406704,58.495772 33.465145,57.891948 33.538137,57.237131" slic3r:type="contour"/>
    <polygon style="fill: white" points="31.863744,58.294988 32.684332,58.835148 32.53292,59.522536 32.429808,60.080768 32.066743,59.819407 31.386389,59.37454 31.501957,58.797412 31.642354,58.151468" slic3r:type="contour"/>
    <polygon style="fill: white" points="29.861493,59.044239 30.63695,59.65046 30.443098,60.286899 30.288661,60.867675 29.962753,60.595327 29.302622,60.084312 29.45458,59.546459 29.659566,58.893164" slic3r:type="contour"/>
    <polygon style="fill: white" points="27.856875,59.605027 28.606834,60.290376 28.387295,60.86124 28.171828,61.475847 27.893385,61.206375 27.24334,60.625524 27.416046,60.142567 27.692928,59.464008" slic3r:type="contour"/>
    <polygon style="fill: white" points="25.868331,59.986379 26.59396,60.760716 26.356976,61.264263 26.068976,61.907964 25.837298,61.6473 25.206342,60.98942 25.396601,60.563236 25.748114,59.865156" slic3r:type="contour"/>
    <polygon style="fill: white" points="23.902112,60.202296 24.594366,61.063464 24.574131,61.099407 24.606808,61.140968 24.607246,61.141539 24.60629,61.14328 24.602947,61.143476 24.54761,61.146517 24.343392,61.509279 23.977846,62.164448 23.784645,61.911251 23.254735,61.259544 23.238931,61.261979 23.229976,61.249728 23.207098,61.220219 22.593253,61.253968 22.545824,61.328112 22.518988,61.326526 22.331731,61.609712 21.895064,62.248408 21.72693,61.991692 21.273623,61.326522 21.244186,61.32814 21.21684,61.284944 21.19627,61.253631 20.582437,61.219964 20.551164,61.262016 20.538255,61.259866 20.291946,61.577655 19.812282,62.164468 19.65269,61.881696 19.242124,61.146453 19.183906,61.14326 19.18319,61.141964 19.18291,61.141452 19.215854,61.099408 19.19578,61.06346 19.477865,60.721508 19.971764,60.101216 20.032686,60.212896 20.566088,61.12102 21.248829,61.113301 21.424729,60.853716 21.895064,60.177852 21.957898,60.270904 22.542654,61.117012 23.220449,61.123601 23.39842,60.801123 23.818364,60.101216" slic3r:type="contour"/>
  </g></svg>