<svg width="43.790126" height="63.590156" xmlns="http://www.w3.org/2000/svg" xmlns:svg="http://www.w3.org/2000/svg" xmlns:xlink="http://www.w3.org/1999/xlink" xmlns:slic3r="http://slic3r.org/namespaces/slic3r"><g xmlns="http://www.w3.org/2000/svg" slic3r:z="3.82849999999998e-005" id="layer115">
    <polygon style="fill: white" points="11.487235,56.927575 11.686195,57.801963 13.082413,57.967578 13.116108,57.942896 13.148837,57.946071 13.6463,57.525116 13.676047,57.658139 13.778295,58.007127 15.431491,58.167488 15.603103,58.451221 15.769509,58.311312 15.792728,58.290484 16.050291,59.160808 16.076296,59.23357 16.179221,59.40374 16.196083,59.452115 16.269165,59.554702 16.238238,59.585187 16.225248,59.59634 16.105758,59.583412 15.462371,60.183511 15.253384,60.356896 14.939724,59.457251 13.946414,59.34978 13.398596,59.309226 13.357199,59.34002 13.306214,59.33341 13.070482,59.530168 12.994975,59.58546 12.905268,59.281428 12.584179,59.2398 12.002712,59.187952 11.855285,58.702811 11.524599,58.054592 11.407734,58.139492 10.661303,58.618248 10.622705,58.451863 10.412534,57.304764 10.880724,56.999139 11.430631,56.58846" slic3r:type="contour"/>
    <polygon style="fill: white" points="9.363113,56.053508 9.465479,56.834288 8.926095,57.122872 8.363245,57.415988 8.300741,56.930644 8.216747,56.074468 8.948451,55.695152 9.309959,55.475512" slic3r:type="contour"/>
    <polygon style="fill: white" points="7.406293,54.932348 7.411135,55.5204 6.6462,55.799027 6.251974,55.943576 6.267678,55.181112 6.279295,54.591359 7.255318,54.233812 7.443582,54.153496" slic3r:type="contour"/>
    <polygon style="fill: white" points="5.697381,52.639039 5.701096,52.63848 5.710857,52.643233 5.916032,52.61186 5.90304,52.627424 5.881756,52.726444 6.148107,52.856132 6.133259,53.081059 6.000267,54.173528 5.612672,53.981283 5.58075,54.071863 5.577214,54.080244 5.348372,53.95986 4.603951,54.108324 4.428855,54.13762 4.533672,53.531279 4.216148,53.364244 3.760777,53.122716 3.971877,52.671752 4.295238,51.9336" slic3r:type="contour"/>
    <polygon style="fill: white" points="4.18226,50.262328 4.659922,50.31278 4.4799,50.777444 4.158441,51.836196 3.731514,51.762196 2.952431,51.65996 3.087584,51.196639 3.424517,50.093516" slic3r:type="contour"/>
    <polygon style="fill: white" points="3.024648,46.856792 3.68895,47.204444 3.601959,47.453875 3.455769,47.82735 3.916764,48.121092 3.771614,48.301319 3.135444,49.077796 2.929242,48.953458 2.717886,48.864572 2.450445,48.670353 1.900571,48.451595 1.844025,48.43366 1.909979,48.277858 1.842376,48.228763 1.785764,48.180176 2.064193,47.875973 2.518253,46.61054" slic3r:type="contour"/>
    <polygon style="fill: white" points="2.399066,42.2463 3.017944,42.975619 2.945801,43.209024 2.830806,43.479626 2.859283,43.50654 2.854548,43.519099 3.094806,43.70782 2.99634,43.783844 2.60818,44.17269 2.501944,44.45452 2.236176,45.006012 1.218273,44.182787 1.085563,44.101132 1.236481,43.776134 1.221252,43.761972 1.232421,43.730327 1.103873,43.629864 1.022262,43.546688 1.448946,43.116858 1.899373,41.840684" slic3r:type="contour"/>
    <polygon style="fill: white" points="2.336556,34.202508 2.509805,35.144952 2.730142,35.395312 2.778494,35.439324 2.579602,35.524623 2.590094,35.5817 2.566328,35.598186 2.696864,35.782224 2.768246,35.956783 2.375731,37.434692 1.931101,38.523737 2.05121,38.649592 2.023217,38.739518 2.16987,38.88374 2.777915,39.392724 2.470644,39.568732 1.788969,40.146324 1.287158,39.740572 0.729061,39.137408 0.865501,39.019455 1.230201,38.779028 1.18161,38.712812 1.449452,38.473345 1.418165,38.413767 0.724403,37.455296 1.318146,35.763876 1.221692,35.651592 1.254736,35.54313 0.929129,35.251688 0.772437,35.053236 1.375083,34.604916 1.571521,34.50338 1.948338,33.266585" slic3r:type="contour"/>
    <polygon style="fill: white" points="2.873078,31.617216 3.115537,31.865388 2.536005,32.041583 2.001344,32.329562 1.421516,31.741428 1.138485,31.328296 1.576803,31.06996 2.240159,30.81662" slic3r:type="contour"/>
    <polygon style="fill: white" points="3.47325,28.40165 3.753878,28.726852 3.242998,28.836516 2.594658,29.101618 2.118738,28.556321 1.823347,28.06138 2.214537,27.882436 2.960937,27.677164" slic3r:type="contour"/>
    <polygon style="fill: white" points="4.338352,25.639093 4.567435,25.926366 4.027003,26.019407 3.388948,26.23287 2.920691,25.654059 2.675988,25.208226 3.139834,25.032978 3.836703,24.879814" slic3r:type="contour"/>
    <polygon style="fill: white" points="6.6535,18.752554 6.937101,19.087516 6.60713,19.153676 5.96635,19.390132 6.055603,20.853553 6.119493,20.951468 6.117015,20.977235 6.23733,21.123552 6.190116,21.133456 6.098944,21.16516 6.051769,21.655718 5.087255,22.902091 5.309866,23.248237 5.430737,23.405014 4.775201,23.510979 4.566766,23.574684 4.383325,23.811732 4.215824,23.869365 4.158598,23.978014 4.191898,23.82707 4.158018,23.772846 4.182148,23.579197 3.7088,22.977661 3.555822,22.694014 4.209832,22.473297 4.322823,22.450236 4.425882,21.623151 4.42503,20.601037 4.412248,20.58055 4.411905,20.553331 4.363931,20.494514 4.349349,20.469116 4.410587,20.448688 4.409964,20.399108 4.398248,20.32289 5.037387,19.898005 5.598306,19.259548 5.389232,18.997279 5.042189,18.452852 5.409664,18.334029 6.233144,18.108344" slic3r:type="contour"/>
    <polygon style="fill: white" points="19.945091,6.942736 19.972262,6.943045 19.986474,6.967584 20.246777,6.996665 20.424013,7.023769 20.564328,6.870873 20.67457,6.734909 20.850017,7.088915 20.882097,7.093821 20.88808,7.106372 21.124011,7.144739 21.254934,6.999399 21.378952,6.850932 21.561469,7.223826 21.672592,7.234255 21.776704,7.078776 21.895064,6.907352 22.121179,7.247686 22.201434,7.240162 22.308765,7.028622 22.411206,6.850932 22.698405,7.164074 22.888909,7.133112 22.908043,7.093857 22.915343,7.093042 23.015913,6.899366 23.115554,6.734906 23.402525,7.038647 23.673411,7.008402 23.790677,6.990105 23.817852,6.943088 23.829239,6.943144 23.934404,6.779222 24.035584,6.636503 24.255803,6.917536 24.26589,6.915962 24.288208,6.945409 24.60771,6.946985 24.924917,6.943262 24.944694,6.916356 24.966236,6.919338 25.084979,6.77662 25.194226,6.648028 25.361812,6.938132 25.38921,6.93781 25.414553,6.981391 25.825543,7.038277 26.336085,7.117889 26.4655,6.989967 26.605209,6.852951 26.742916,7.181328 26.783156,7.187603 26.797731,7.22061 27.268501,7.304849 27.88603,7.440828 27.99769,7.343159 28.158026,7.206048 28.264467,7.524158 28.299304,7.53183 28.306121,7.550944 28.712601,7.613557 29.617084,7.806215 29.681716,7.754849 29.795702,7.666936 29.848295,7.855463 29.896559,7.865743 30.064372,7.879368 30.77858,7.984991 31.155215,8.241742 31.314861,8.34626 31.33488,8.331844 31.355284,8.355498 31.499432,8.257531 31.536753,8.425536 31.556928,8.504737 31.561465,8.507708 31.590059,8.627664 31.818762,8.892793 31.893883,8.970798 32.356404,8.999967 33.193025,9.180116 33.327764,9.10677 33.349083,9.213719 33.369294,9.218071 33.371879,9.229687 33.459384,9.231989 33.605844,9.260182 33.647328,9.972691 34.030035,10.045684 34.720948,10.302533 34.558687,10.606687 34.343661,10.839486 34.443576,10.865689 35.353896,11.249848 35.283516,11.338833 34.821728,11.714305 34.859426,11.786526 35.0074,11.744055 34.911874,11.860074 35.094926,11.929293 35.445631,11.898328 35.63566,11.72295 35.731937,12.170171 35.75734,12.179777 35.758041,12.184811 35.815027,12.203639 35.882844,12.234118 35.783581,12.368213 35.903749,13.231147 36.221276,13.318777 36.49746,13.413134 36.146655,14.016986 36.055044,14.137241 36.099177,14.589583 36.693971,14.726805 37.314908,14.892402 37.195168,15.113402 36.992146,15.45439 37.047579,15.478371 37.783096,15.831593 37.728406,16.498277 37.92188,16.55884 38.08314,16.603352 37.677611,17.117474 37.647144,17.48888 37.575914,17.61069 37.547692,17.937284 36.927679,17.53072 36.756637,17.453218 36.67218,17.42683 36.615385,17.400286 36.228071,17.290677 36.198696,17.278628 36.234368,17.217688 36.167328,17.19654 36.335007,16.492405 36.384788,15.885897 35.912312,15.769563 35.363348,15.600584 35.595691,15.100154 35.911125,14.579959 35.311839,14.570722 34.78056,14.58666 34.78412,14.323813 34.777187,14.157133 34.758708,14.151291 34.757017,14.122234 34.338884,14.029127 34.434891,13.834871 34.703593,13.288115 34.690337,13.114732 34.605672,13.081226 34.59138,12.971068 33.583504,12.660013 33.260632,12.569874 33.701555,12.078296 33.653369,12.012913 33.640028,12.019041 33.725846,11.875534 33.556644,11.818667 33.282321,12.05273 33.020008,12.227282 32.891383,11.72002 32.865666,11.586435 32.833526,11.575633 32.811914,11.512315 32.181318,11.344815 32.441194,11.205364 32.675695,10.922546 32.61738,10.906277 32.56586,10.817289 31.326198,10.506 31.72334,10.25462 31.135949,10.166695 30.95582,10.238195 30.904658,10.159024 30.89498,10.127438 30.685452,10.08737 30.68637,9.959409 30.614072,9.704316 29.335662,9.546861 29.255274,9.536401 29.220668,9.558025 29.200997,9.528232 28.953204,9.4788 27.824109,8.995551 27.730054,9.073578 27.669784,9.120176 27.583989,8.931822 27.365884,8.872896 26.39186,8.66386 26.297191,8.753931 26.246298,8.797438 26.160937,8.64088 26.016323,8.623116 25.091287,8.572114 25.06119,8.607725 25.046348,8.623444 25.012564,8.57386 24.971708,8.573865 24.437154,8.623287 24.142928,8.607909 24.132026,8.625747 24.118364,8.6096 23.440593,8.670005 23.400784,8.673945 23.376708,8.723433 23.360594,8.706171 23.339177,8.68338 22.739685,8.778431 22.700374,8.784487 22.698498,8.787998 22.696791,8.788151 22.665426,8.850268 22.645253,8.82823 22.614394,8.795545 21.979967,8.852467 21.947289,8.855396 21.895064,8.9272 21.874848,8.900156 21.842061,8.855318 21.204863,8.798174 21.176659,8.795649 21.1247,8.850261 21.10832,8.823109 21.087718,8.783846 20.479263,8.687425 20.45136,8.683128 20.41342,8.723439 20.400255,8.701636 20.386204,8.67418 19.670332,8.609799 19.658102,8.625748 19.646364,8.609008 19.352631,8.623286 18.764925,8.57837 18.743808,8.623446 18.706175,8.576042 18.639588,8.584172 17.608204,8.653673 17.564762,8.742375 17.54375,8.797466 17.419047,8.67105 17.242363,8.719529 16.188433,8.94735 16.144568,9.052127 16.120313,9.120171 15.981266,8.999852 15.84248,9.066075 14.837088,9.478757 14.613503,9.523118 14.582472,9.529439 14.582176,9.530242 14.577308,9.530796 14.569492,9.558022 14.560245,9.548805 14.540823,9.534945 13.496037,9.653757 13.288595,9.681731 13.10468,10.08737 12.945793,10.118996 12.893805,10.128398 12.892811,10.130973 12.873883,10.13403 12.834336,10.23817 12.82346,10.172864 12.789115,10.147719 12.25064,10.234675 12.366322,10.346289 12.463925,10.505995 11.625531,10.764594 11.22354,10.851589 11.608765,11.344865 11.201639,11.490763 10.964201,11.543187 10.956576,11.575663 10.90959,11.594668 10.770103,12.22729 10.47715,11.912472 10.347773,11.821918 10.303561,11.839802 10.087302,11.901423 10.150126,12.019107 10.123586,12.046838 10.470749,12.4785 10.529443,12.569941 9.840612,12.821162 9.194132,12.992409 9.184469,13.081265 9.105198,13.114643 9.092137,13.298265 9.203002,13.522985 9.451224,14.029138 9.252084,14.080233 9.033093,14.128236 9.031454,14.151291 9.021776,14.154202 9.009608,14.586614 8.620261,14.59442 7.878417,14.585189 8.261176,15.353625 8.426783,15.600599 8.031338,15.675462 7.440671,15.856566 7.59079,16.920393 7.622768,17.1966 7.549104,17.230207 7.591397,17.278686 7.350349,17.328331 6.242459,17.937286 6.22269,17.626955 6.143001,17.488791 6.116851,17.166184 5.818866,16.772392 5.707003,16.60333 6.062131,16.491121 6.042491,16.248834 6.007032,15.831593 6.380438,15.688854 6.82699,15.470828 6.475221,14.892405 6.843302,14.807194 7.691042,14.593245 7.71959,14.032462 7.465863,13.621661 7.292656,13.413114 7.817176,13.26575 7.848853,12.909134 7.995834,12.326275 7.954414,12.273289 7.907255,12.234174 8.029641,12.192212 8.037685,12.160311 8.043034,12.111042 8.154492,11.722909 8.441457,11.664515 8.696494,11.758719 8.713725,11.73388 9.195511,11.804592 9.037254,11.612056 8.436217,11.249864 8.755474,11.154174 9.60552,10.863828 9.472595,10.639228 9.06918,10.302533 10.128927,10.05301 10.190212,9.875048 10.196309,9.409072 10.18432,9.260168 10.414003,9.24546 10.420831,9.218061 10.433146,9.216514 10.462354,9.106781 10.609357,9.194372 11.796865,9.045148 12.18584,8.623722 12.29063,8.257543 12.382526,8.322844 12.432095,8.356925 12.45522,8.33187 12.472681,8.344789 13.011617,7.984957 13.918218,7.877325 13.924065,7.859237 13.933809,7.857639 13.952831,7.792578 13.994427,7.666934 14.180789,7.817129 14.745205,7.724552 15.473393,7.578184 15.490877,7.531794 15.513083,7.527767 15.557576,7.399827 15.632146,7.206047 15.914198,7.455034 16.531744,7.343056 16.980992,7.244368 17.00695,7.187589 17.037736,7.183333 17.102902,7.031484 17.184915,6.852952 17.459504,7.12503 17.929022,7.060127 18.369704,6.991 18.400902,6.937821 18.430491,6.937671 18.515245,6.790323 18.595876,6.648028 18.820916,6.920221 18.84544,6.916374 18.859757,6.935498 19.169797,6.933928 19.507731,6.937767 19.524234,6.915942 19.548066,6.918605 19.662952,6.768461 19.754526,6.636495" slic3r:type="contour"/>
    <polygon style="fill: white" points="38.237248,18.323234 38.747944,18.45284 38.544936,18.690895 38.205415,19.199428 39.074056,20.000618 39.39188,20.322888 39.384519,20.458424 39.44078,20.469118 39.380297,20.53618 39.377116,20.59475 39.503115,22.068317 39.537045,22.516667 39.971979,22.651879 40.234284,22.693972 39.849296,23.143139 39.614395,23.538797 39.632108,23.772859 39.600012,23.820471 39.6319,23.978938 39.578239,23.869926 39.537951,23.859433 39.406812,23.81176 39.266034,23.615055 38.555372,23.469872 38.359399,23.40502 38.706439,22.833151 38.354896,22.341952 37.738244,21.655428 37.731244,21.363612 37.704067,21.178984 37.552772,21.123524 37.583911,21.07563 37.672272,20.962983 37.670584,20.951517 37.784185,20.76765 37.858667,20.341164 37.856441,19.420183 37.402748,19.300554 36.853024,19.087548 37.083516,18.712313 37.556968,18.108344" slic3r:type="contour"/>
    <polygon style="fill: white" points="40.692488,25.135646 41.114136,25.208206 40.81622,25.552881 40.401188,26.232836 39.558636,26.049 39.222688,25.92639 39.531128,25.426363 39.953395,24.879794" slic3r:type="contour"/>
    <polygon style="fill: white" points="41.483599,27.951917 41.966784,28.061446 41.675132,28.380338 41.19532,29.101676 40.3958,28.888054 40.036244,28.726848 40.347279,28.250694 40.829188,27.677194" slic3r:type="contour"/>
    <polygon style="fill: white" points="42.231455,31.186995 42.651648,31.328362 42.25208,31.720965 41.788788,32.329614 40.935343,32.019883 40.674599,31.865422 41.069019,31.320376 41.550032,30.816749" slic3r:type="contour"/>
    <polygon style="fill: white" points="42.298412,34.576468 42.306298,34.607882 42.807008,34.952692 43.017692,35.053272 42.526126,35.483575 42.568348,35.651768 42.504559,35.719466 42.783691,36.428423 43.065728,37.455396 42.837292,37.999768 42.413104,38.550495 42.608536,38.712784 42.544188,38.81387 43.061068,39.13734 42.870507,39.290372 42.001304,40.146215 41.439268,39.790151 41.012224,39.392655 41.270267,39.1162 41.75926,38.70438 41.738904,38.649584 41.883323,38.482946 41.350491,36.872095 41.021868,35.957036 41.247939,35.617843 41.200108,35.5818 41.209267,35.548764 41.0549,35.472972 41.011612,35.439315 41.360632,35.002805 41.841736,33.267524" slic3r:type="contour"/>
    <polygon style="fill: white" points="42.204771,42.591515 42.39646,43.207731 42.672876,43.470808 42.767872,43.546632 42.55395,43.714013 42.568864,43.761955 42.559783,43.769752 42.648956,43.956212 42.70456,44.101171 41.993807,44.731872 41.553936,45.006016 41.268685,44.319553 41.236716,44.293288 40.695308,43.707844 40.786488,43.626475 40.933028,43.511789 40.930847,43.50654 40.969163,43.467226 40.77218,42.975564 40.956299,42.826112 41.890824,41.840728" slic3r:type="contour"/>
    <polygon style="fill: white" points="41.509063,47.223031 41.739451,47.89559 41.947071,48.119963 42.004391,48.18014 41.878161,48.272814 41.923163,48.379023 41.946104,48.433752 41.276213,48.714751 41.071787,48.864836 40.810237,48.978425 40.654632,49.077852 40.303764,48.643628 39.87336,48.121136 40.037964,48.036339 40.345539,47.837531 40.101176,47.204511 40.342343,47.087664 41.2718,46.610624" slic3r:type="contour"/>
    <polygon style="fill: white" points="40.584264,50.84924 40.837716,51.659908 40.580176,51.706703 39.63178,51.836168 39.40274,51.196788 39.130204,50.312764 39.713315,50.17834 40.365628,50.093528" slic3r:type="contour"/>
    <polygon style="fill: white" points="39.80598,52.611216 40.029344,53.122716 39.257964,53.529336 39.331743,53.956299 39.361263,54.137632 38.522143,53.966551 38.451624,53.954384 38.238607,54.066672 38.212916,54.080244 38.178444,53.984119 37.789856,54.173528 37.74298,53.466248 37.642028,52.85612 37.793436,52.789571 37.901301,52.734437 37.874092,52.61186 37.903252,52.610036 38.120996,52.638901 38.616152,52.423304 39.494887,51.9336" slic3r:type="contour"/>
    <polygon style="fill: white" points="37.113227,54.425223 37.510792,54.591436 37.529783,55.515115 37.538092,55.943608 36.940815,55.726179 36.37898,55.520388 36.344092,54.429659 36.346567,54.15348" slic3r:type="contour"/>
    <polygon style="fill: white" points="35.02442,55.74776 35.573256,56.074292 35.481004,56.793027 35.426908,57.415968 35.068852,57.223876 34.324691,56.834263 34.408735,56.017228 34.480176,55.475508" slic3r:type="contour"/>
    <polygon style="fill: white" points="32.669288,56.784412 33.377702,57.304859 33.267352,57.781352 33.12876,58.61828 33.016355,58.535651 32.298654,58.063454 32.154672,58.438187 31.787342,59.187995 30.876435,59.290266 30.815148,59.499323 30.795152,59.585476 30.496538,59.332918 30.432998,59.340052 30.405968,59.319301 28.829384,59.47348 28.608968,60.108719 28.53675,60.356883 27.940728,59.794988 27.692757,59.584571 27.564976,59.596292 27.548743,59.581951 27.560954,59.542216 27.52849,59.544719 27.585541,59.476105 27.611204,59.402776 27.685125,59.285076 27.985341,58.323904 27.9974,58.290464 28.202976,58.460542 28.303671,58.300212 28.35875,58.167428 29.473797,58.081728 29.99774,58.021094 30.143804,57.52512 30.258846,57.611484 30.656945,57.944806 30.673934,57.94284 30.737799,57.988532 30.818682,57.981747 32.09771,57.808106 32.169195,57.420136 32.35953,56.58844" slic3r:type="contour"/>
    <polygon style="fill: white" points="26.502282,59.417316 26.809918,59.73268 26.45054,60.589671 26.31405,60.953368 25.843754,60.444248 25.438269,60.040171 25.843141,59.013392 25.918276,58.839936" slic3r:type="contour"/>
    <polygon style="fill: white" points="24.359477,59.762851 24.696566,60.17474 24.314482,60.916099 24.105324,61.341864 23.724922,60.854596 23.303651,60.3423 23.758806,59.437331 23.890508,59.189812" slic3r:type="contour"/>
    <polygon style="fill: white" points="18.156427,59.586259 18.351815,60.040304 17.764302,60.671568 17.476063,60.95336 17.176388,60.241356 16.98021,59.7327 17.752023,58.963208 17.871852,58.839936" slic3r:type="contour"/>
    <polygon style="fill: white" points="20.223487,59.845995 20.486474,60.342316 19.994681,60.969764 19.684804,61.341868 19.383435,60.758287 19.093562,60.174816 19.730912,59.395939 19.899594,59.189812" slic3r:type="contour"/>
    <polygon style="fill: white" points="22.277875,59.913359 22.595934,60.393488 22.172084,61.055643 21.895064,61.483027 21.570379,60.975463 21.194192,60.39348 21.725414,59.569995 21.895064,59.314527" slic3r:type="contour"/>
  </g></svg>