<svg width="43.790126" height="63.590156" xmlns="http://www.w3.org/2000/svg" xmlns:svg="http://www.w3.org/2000/svg" xmlns:xlink="http://www.w3.org/1999/xlink" xmlns:slic3r="http://slic3r.org/namespaces/slic3r"><g xmlns="http://www.w3.org/2000/svg" slic3r:z="1.3205e-005" id="layer39">
    <polygon style="fill: white" points="23.772156,56.157152 24.451382,57.1916 23.890536,58.341663 23.824966,58.476347 23.437027,57.863327 23.05067,57.294507 23.358895,56.643436 23.676646,56.013176" slic3r:type="contour"/>
    <polygon style="fill: white" points="25.568785,55.966659 26.300328,56.919964 25.811335,58.14296 25.76722,58.256224 25.331382,57.664024 24.913554,57.146884 25.176174,56.451031 25.44499,55.809715" slic3r:type="contour"/>
    <polygon style="fill: white" points="27.347996,55.590508 28.139048,56.456688 27.746444,57.742779 27.717206,57.844156 27.230332,57.286787 26.780257,56.825236 26.985835,56.088072 27.19862,55.433116" slic3r:type="contour"/>
    <polygon style="fill: white" points="29.089507,54.988591 29.9592,55.774064 29.689248,57.082812 29.666298,57.206492 29.137291,56.706995 28.64612,56.296611 28.782141,55.53672 28.934814,54.855072" slic3r:type="contour"/>
    <polygon style="fill: white" points="30.76798,54.131512 31.749832,54.845372 31.618361,56.106712 31.601582,56.311028 31.061312,55.893832 30.503634,55.527396 30.55663,54.783551 30.646434,54.047364" slic3r:type="contour"/>
    <polygon style="fill: white" points="32.33652,53.042376 33.444418,53.669236 33.445516,54.834244 33.455008,55.153524 32.929882,54.826664 32.289728,54.515724 32.257056,53.815884 32.272396,53.00862" slic3r:type="contour"/>
    <polygon style="fill: white" points="39.131868,44.34426 39.041942,44.631778 39.315268,45.152756 39.648888,45.630964 39.204116,45.588932 38.601734,45.745697 38.329061,46.406964 38.460812,46.689324 38.363969,46.901661 38.558691,47.339755 38.877936,47.890644 38.457612,47.822244 37.832954,47.917712 37.469868,48.575931 37.565032,48.836152 37.47067,48.980538 37.642295,49.474391 37.896911,50.045275 37.470127,49.938559 36.770281,49.954093 36.373245,50.486555 36.435244,50.739484 36.355954,50.823416 36.50962,51.488568 36.666864,52.021096 36.212616,51.856136 35.412632,51.74656 34.975446,52.166841 35.03938,52.192996 35.05642,52.331756 34.994533,52.379432 35.095932,53.287576 35.16342,53.726719 34.670635,53.485971 33.947288,53.258456 33.83238,52.617823 33.755389,51.735952 35.063463,50.31824 35.062247,50.312092 35.066555,50.30618 35.053616,50.269831 35.046008,50.234036 35.111153,50.244958 35.189344,50.137623 36.149312,48.591603 36.144132,48.573968 36.149606,48.563767 36.127116,48.519644 36.112572,48.47362 36.198391,48.472854 36.277328,48.325751 37.016577,46.569506 37.011244,46.554896 37.013839,46.548408 36.99996,46.527004 36.990552,46.503252 37.034656,46.496362 37.064576,46.42156 37.263292,45.691632 37.556889,46.414789 37.794775,46.37763 37.918335,44.924042 37.697848,44.393372 37.73986,44.380755 37.965558,44.368495 37.969896,44.31746 38.810815,44.081924 38.981648,44.070832" slic3r:type="contour"/>
    <polygon style="fill: black" points="33.821186,51.689101 33.820151,51.760994 34.678852,52.061428 34.6437,51.427656" slic3r:type="hole"/>
    <polygon style="fill: white" points="39.588612,41.848076 39.550012,42.039651 39.50022,42.20312 39.959807,42.982911 40.246103,43.34062 39.737912,43.317603 39.092682,43.541076 38.974148,43.930228 39.023737,43.503521 38.607736,43.014232 38.252275,42.221964 38.406611,42.157064 39.189979,42.07303 39.214728,41.860076 39.473132,41.761328 39.53136,41.754932" slic3r:type="contour"/>
    <polygon style="fill: white" points="41.022188,33.707428 41.211848,33.855896 40.739329,34.084369 40.821944,34.249172 40.503057,34.499404 40.865444,35.039171 41.037013,36.188378 41.165783,36.343423 41.211996,36.383028 41.072016,36.422838 41.082884,36.495636 40.913383,36.611858 41.00922,36.898532 40.819075,38.500977 40.961899,38.695243 41.036664,38.767036 40.783399,38.801637 40.763856,38.966331 40.225361,39.280094 40.296608,40.272304 40.244723,40.43671 40.53306,40.876856 40.710396,41.070012 40.092019,41.087168 40.031164,41.113415 39.890936,41.557756 39.561528,41.716572 39.523632,41.677588 39.470992,41.578859 39.518634,41.278495 38.987739,40.710168 38.680196,40.074248 38.992344,39.908667 39.75349,39.797829 39.823484,39.356546 39.805612,39.339707 39.63332,39.053772 39.664935,38.833842 39.230284,38.40568 38.97232,37.926388 39.403344,37.644695 39.849435,37.550361 39.938535,36.930533 39.733556,36.631024 39.761331,36.469666 39.367084,36.107568 39.120676,35.711007 39.562823,35.361692 39.974349,35.232166 40.080622,34.614781 39.884112,34.364732 39.920191,34.22045 39.433624,33.797551 39.10094,33.354708 39.400124,33.075035 40.10976,32.73936" slic3r:type="contour"/>
    <polygon style="fill: white" points="37.490485,23.182918 37.492652,23.17289 37.633644,23.216279 37.737191,23.240409 37.781438,23.261762 38.03814,23.34076 38.683852,23.399136 38.641768,23.567643 38.622161,23.667469 38.7865,23.746774 38.702152,23.839517 38.571215,23.962087 38.4795,24.065913 38.388576,24.317238 38.252634,24.992435 38.682784,25.04461 39.301964,25.05856 39.244628,25.281849 39.209594,25.488576 39.542784,25.665192 39.355708,25.853839 39.10084,26.109085 38.976211,26.264597 38.90892,26.571202 39.571808,26.660338 39.977288,26.763848 39.866219,27.25561 39.753462,27.685958 39.754672,27.686693 39.737001,27.762981 40.430404,28.253666 40.033663,28.5797 39.845976,28.762979 39.939708,28.815724 39.842227,28.910276 40.405071,29.112299 40.691191,29.321618 40.545367,30.017164 40.384154,30.457205 40.425948,30.492559 40.39488,30.670887 40.979876,31.127714 40.66944,31.324081 40.065411,31.863537 40.05364,31.897585 40.039366,31.886797 40.020867,31.903318 39.461276,31.45606 39.443275,31.436272 38.9682,31.077212 38.879408,31.048142 38.9269,30.868665 38.896632,30.835396 38.876239,30.819797 38.83776,30.783604 38.978932,30.628455 39.444246,29.082945 39.333696,28.976518 39.345157,28.937184 38.819746,28.583241 38.404276,28.490936 38.272796,28.467188 38.344194,28.224534 38.258995,28.175055 38.157412,28.121004 38.437612,27.815182 38.692569,26.8534 38.07658,26.861719 37.641784,26.797209 37.798209,26.144683 37.607204,26.059006 37.285484,25.955928 37.564351,25.685932 37.890144,25.286442 37.566635,25.257068 36.951012,25.097868 37.153877,24.261568 36.909575,24.133081 36.618983,23.988847 37.092079,23.624314 37.364913,23.391584 37.372552,23.360095 37.422187,23.167002" slic3r:type="contour"/>
    <polygon style="fill: white" points="37.653355,20.6508 38.146784,20.927336 38.078168,21.265577 38.028533,21.430628 38.303748,21.611632 38.176267,21.724924 37.846363,22.036392 37.829828,22.091375 37.685384,22.208855 37.67324,22.232727 37.371051,22.824902 36.501576,22.384422 36.262115,22.291702 36.500713,21.766091 36.35014,21.655254 36.179296,21.51468 36.663271,21.117922 36.738666,21.037809 36.920488,20.300734" slic3r:type="contour"/>
    <polygon style="fill: white" points="21.988068,0.291077 21.99804,0.290371 22.008223,0.305432 22.167371,0.316521 23.016298,0.376677 23.02959,0.36185 23.0419,0.364423 23.098032,0.303252 23.15475,0.24111 23.231348,0.391916 23.240254,0.392547 23.247464,0.40739 23.404684,0.440253 24.252677,0.620144 24.268147,0.60741 24.281332,0.612051 24.345094,0.56023 24.40923,0.508274 24.461825,0.664513 24.467974,0.665817 24.472131,0.679202 24.613688,0.729024 25.499487,1.042235 25.513331,1.034125 25.524039,1.039486 25.581482,1.005887 25.63783,0.973659 25.659764,1.098907 25.662072,1.099723 25.663482,1.109296 25.762817,1.159026 26.775133,1.66147 26.779303,1.659867 26.781744,1.661466 26.817146,1.648512 26.817925,1.685182 26.842056,1.701001 27.041848,1.828836 27.533919,2.45955 27.66016,2.595837 27.673065,2.592846 27.675417,2.597481 27.91532,2.545822 27.903359,2.645809 27.876443,2.829332 27.883274,2.836707 27.866574,2.974138 28.0233,3.282955 28.283272,3.686363 28.283778,3.68631 28.286184,3.693179 28.429658,3.677708 28.930849,3.64025 28.865525,3.903269 28.732696,4.383753 28.743601,4.400675 28.704457,4.558235 29.008976,4.852229 29.107474,4.857082 29.144207,4.901009 29.531158,4.905109 29.864476,4.920738 29.698279,5.360171 29.642807,5.497274 29.948409,5.862736 30.312418,6.308304 30.371158,6.319175 30.391653,6.350648 30.549084,6.369319 30.695078,6.392033 30.572203,6.627906 30.690651,6.809799 31.240467,7.736361 31.240493,7.9249 31.239841,8.011243 31.35911,8.042538 31.325102,8.091673 31.238317,8.212833 31.238262,8.220042 31.147797,8.357591 31.094854,8.845596 31.065597,9.084932 31.170404,9.278773 31.261781,9.475187 31.299643,9.48814 31.316054,9.524107 31.568045,9.591388 31.859447,9.673533 31.631693,9.964082 31.557328,10.05289 31.705308,10.377209 31.941036,10.935002 31.96955,10.944008 31.975839,10.96427 32.097618,10.995824 32.275224,11.050399 32.077648,11.29226 32.165486,11.575241 32.321508,11.926854 32.424483,11.982106 32.512561,12.004748 32.698742,12.072822 32.499376,12.401338 32.525651,12.56506 32.669504,12.683199 32.875282,12.73406 33.43858,12.977507 33.44184,13.007671 33.666225,13.768588 33.846359,13.866185 33.849719,13.881474 34.104951,13.93853 34.569962,14.129302 34.735072,14.124457 34.798288,14.081777 34.809511,14.227577 34.862683,14.249391 34.864743,14.262348 34.90482,14.274354 35.0347,14.32663 35.220984,15.015195 35.215123,15.228452 35.41348,15.276162 35.419148,15.391632 35.69644,15.467484 36.1387,15.452274 35.986875,15.72318 35.94399,16.351812 36.096744,16.445167 36.062443,16.588023 36.387336,16.742863 36.956389,17.17668 37.122448,17.26173 37.143696,17.268604 37.118912,17.298236 37.168531,17.337818 37.138692,18.346596 37.048491,18.788958 37.148219,18.860545 37.145621,18.869563 37.2205,18.922024 37.8219,19.2794 37.547108,19.504064 37.05256,20.179984 36.351167,19.812063 35.749028,19.438518 35.828536,19.354608 35.935581,19.23491 35.92104,19.225968 36.002717,19.104205 35.567968,18.905833 35.683686,18.075838 35.656231,18.064423 35.642131,17.935317 35.404952,17.866622 35.17296,17.774036 35.422487,17.24226 35.541174,17.010949 35.532083,16.927712 35.480908,16.919612 35.375185,16.641524 34.981556,16.634669 34.511892,16.58596 34.590668,16.236836 34.667053,15.947927 34.580868,15.90614 34.582041,15.78525 34.347628,15.711151 33.7288,15.807585 33.730976,15.624325 33.734928,15.517478 33.681248,15.50051 33.656245,15.369202 32.910818,15.220091 32.881031,15.063836 32.819575,15.077052 32.808787,15.043716 32.722684,15.067431 32.556365,14.353579 32.53086,14.198545 32.248276,14.227215 32.181409,13.992501 32.007732,14.020054 31.560688,14.050174 31.54199,13.788793 31.541166,13.736605 31.505236,13.728502 31.453092,13.523256 30.994942,13.38472 31.095116,12.958058 30.943658,12.933513 30.953106,12.825762 30.615024,12.75494 30.673123,12.554933 30.678212,12.515906 30.234822,11.846067 30.266125,11.698562 30.173438,11.678415 30.271,11.562614 30.410419,10.891975 30.199024,10.40307 29.806831,10.300906 29.96357,10.127672 30.009272,10.070957 29.514104,9.223913 29.628787,8.819198 29.518831,8.790101 29.391717,8.766666 29.681775,8.429399 29.752701,8.329473 29.775688,8.185605 29.231282,7.345076 28.864512,7.309525 28.957282,7.162359 29.008036,7.071646 28.256396,6.205185 28.237756,6.049131 28.169932,6.050627 28.218414,5.939155 28.020429,5.32155 27.893335,4.917191 27.585457,4.949694 27.383548,4.974561 27.50251,4.552247 27.603049,4.158718 27.290106,3.891466 26.86126,3.996615 26.54026,4.076584 26.58932,3.737544 26.628522,3.426062 26.210223,3.141863 26.056082,3.204111 25.66314,3.363863 25.666212,3.092366 25.662739,2.84706 25.617258,2.825164 25.162561,2.592567 24.757936,2.834509 24.727796,2.613307 24.69403,2.408525 24.507485,2.347515 24.136035,2.215813 23.825126,2.472081 23.769257,2.285666 23.710928,2.106541 23.449385,2.057346 23.11839,1.988492 22.868816,2.263258 22.789953,2.099693 22.708069,1.935351 22.419433,1.917977 22.101606,1.896167 21.895064,2.197126 21.793413,2.049068 21.686113,1.892731 21.410098,1.909316 21.088136,1.931406 20.92131,2.263253 20.796416,2.128564 20.662306,1.981578 20.426099,2.02568 20.090073,2.095603 19.964982,2.472087 19.80935,2.347766 19.638309,2.207741 19.475495,2.260384 19.108318,2.390779 19.032156,2.834512 18.83312,2.718852 18.607798,2.584943 18.557361,2.608877 18.136328,2.824948 18.136156,2.899836 18.126986,3.363857 17.866483,3.259108 17.564257,3.136544 17.164697,3.409221 17.204957,3.70795 17.249868,4.076583 16.902208,3.992159 16.484135,3.888626 16.216195,4.119222 16.193318,4.163385 16.34958,4.746505 16.406575,4.974575 15.935836,4.929506 15.879917,4.922994 15.749884,5.315845 15.571667,5.928265 15.607577,6.016647 15.620167,6.050626 15.544665,6.054068 15.534929,6.111414 15.533706,6.205178 14.963975,6.812465 14.780288,7.04499 14.925617,7.309505 14.716467,7.348105 14.472013,7.377375 14.332518,7.544959 13.969157,8.136793 13.984539,8.214338 14.293075,8.614978 14.398424,8.76665 14.11171,8.855458 14.151458,9.055843 14.276084,9.223743 13.908128,9.74675 13.767806,10.030556 13.983307,10.300877 13.710505,10.389595 13.571335,10.427925 13.566772,10.437154 13.48708,10.465313 13.423967,10.571069 13.319783,10.823082 13.349161,11.002897 13.501686,11.535464 13.57471,11.62517 13.616677,11.678414 13.550925,11.695478 13.555255,11.846165 13.207104,12.253577 13.123641,12.452723 13.175106,12.754909 12.837184,12.781252 12.846447,12.933506 12.758759,12.946723 12.78413,13.051763 12.795147,13.38476 12.427115,13.58009 12.305543,13.610588 12.284896,13.728494 12.236411,13.746138 12.22945,14.05016 11.813313,13.980145 11.626639,13.95977 11.54188,14.227192 11.314408,14.202483 11.247448,14.469535 11.130614,14.725842 11.101645,14.874249 11.067409,15.067435 10.990044,15.034219 10.97052,15.077049 10.945319,15.071024 10.938719,15.11648 10.879298,15.220082 10.299273,15.43133 10.116306,15.453321 10.108866,15.500502 10.050991,15.533333 10.061309,15.807599 9.80469,15.747086 9.706303,15.728861 9.648303,15.761762 9.206806,15.852812 9.209259,15.90614 9.116325,15.979672 9.278236,16.58596 8.750644,16.591628 8.477037,16.610049 8.450594,16.698589 8.290165,16.949364 8.281583,17.103005 8.458481,17.467242 8.617156,17.774052 8.172401,17.901564 8.133186,18.06749 8.181028,18.358239 8.222163,18.905834 8.031615,19.061766 7.823975,19.15802 7.869088,19.225984 7.858992,19.232871 8.041101,19.438544 7.852577,19.537763 6.737501,20.179984 6.183045,19.628264 5.968249,19.279412 6.28748,19.019684 6.797092,18.719319 6.6485,17.516341 6.621596,17.337816 6.66219,17.316778 6.649237,17.283323 6.646427,17.268604 7.372598,16.786292 7.710777,16.672681 7.693366,16.445167 7.781116,16.404331 7.600539,15.882854 7.651427,15.452273 8.016118,15.283518 8.40489,15.263964 8.678167,15.145956 8.65423,14.923374 8.744117,14.701632 8.756393,14.59605 8.755425,14.326631 8.918133,14.272354 8.939487,14.219679 8.94257,14.179091 8.991839,14.081773 9.646758,13.952271 9.79843,13.999445 9.886833,13.974077 9.943785,13.866191 9.968527,13.858364 10.006649,13.543564 10.359309,12.972633 11.05909,12.757829 11.082458,12.714478 11.12624,12.691634 11.143805,12.453621 11.254575,12.21131 11.229305,12.175058 11.091384,12.072835 11.350123,12.0023 11.357312,11.986576 11.414237,11.959708 11.480984,11.73745 11.697525,11.231496 11.647467,11.17196 11.514919,11.050382 11.807264,10.975089 11.820568,10.944004 11.857399,10.933506 12.068388,10.465879 12.250635,10.043686 12.132624,9.89562 11.930699,9.67356 12.258239,9.586985 12.473068,9.528398 12.49045,9.488131 12.563593,9.463973 12.73607,9.133345 12.645653,8.36092 12.55182,8.219966 12.551752,8.205396 12.43101,8.04253 12.480593,8.030111 12.550862,8.012042 12.549592,7.736512 13.226324,6.633206 13.163952,6.514874 13.095044,6.392033 13.394193,6.359519 13.418948,6.319162 13.48216,6.308383 13.961959,5.73169 14.15741,5.494512 14.045049,5.202841 13.92565,4.920739 14.337211,4.920849 14.637834,4.911525 14.682689,4.857094 14.774284,4.853971 15.086131,4.553799 15.046516,4.40058 15.063617,4.37051 14.988713,4.077267 14.859272,3.640264 15.090896,3.66748 15.445522,3.698987 15.574477,3.472237 15.917231,2.916674 15.906845,2.836665 15.920293,2.820558 15.874805,2.545843 15.960209,2.567158 16.104513,2.599902 16.748198,1.828909 16.972353,1.684639 16.972313,1.682669 16.973266,1.682191 16.97295,1.648542 17.007243,1.662184 17.010796,1.659896 17.014745,1.661438 17.05238,1.642608 18.126784,1.108663 18.12803,1.099723 18.131536,1.098489 18.142136,1.036947 18.152268,0.973658 18.265024,1.039962 18.276769,1.034125 18.290912,1.042392 18.417656,0.997779 19.317974,0.679541 19.322172,0.665841 19.328849,0.664445 19.354858,0.58694 19.380924,0.508273 19.508631,0.612149 19.522012,0.607419 19.538265,0.620666 19.695364,0.587823 20.542364,0.408133 20.54989,0.392524 20.55886,0.391899 20.597039,0.316719 20.635378,0.241114 20.748638,0.364371 20.760528,0.361849 20.774184,0.376894 20.935073,0.365682 21.781846,0.305688 21.792088,0.290371 21.802496,0.291096 21.848646,0.224508 21.895064,0.157118" slic3r:type="contour"/>
    <polygon style="fill: white" points="7.02352,20.950143 7.399302,21.28612 7.610829,21.514711 7.265101,21.770776 7.404686,22.102808 7.528009,22.291726 6.979362,22.595132 6.419094,22.824888 6.117403,22.232662 5.960301,22.091347 5.950912,22.056867 5.916432,22.02544 5.486383,21.611584 5.616224,21.530136 5.778373,21.423182 5.643353,20.927294 6.015072,20.75043 6.869623,20.300674" slic3r:type="contour"/>
    <polygon style="fill: white" points="6.414015,23.369281 6.911052,23.760734 7.171138,23.988848 6.62098,24.277613 6.699929,24.624106 6.839113,25.097844 6.460923,25.109186 5.895103,25.243734 6.236313,25.6007 6.50462,25.95594 5.990961,26.179561 6.050565,26.43538 6.148341,26.797216 5.674212,26.765436 5.095026,26.833346 5.254749,27.414627 5.357015,27.816419 5.535848,28.012911 5.632708,28.121066 5.451686,28.224972 5.484532,28.331621 5.517326,28.467242 4.88877,28.616496 4.44488,28.930777 4.456459,28.976468 4.354025,29.062491 4.641105,29.871812 4.838423,30.68644 4.910579,30.756486 4.952396,30.783606 4.876359,30.843062 4.878502,30.85191 4.869708,30.860246 4.890085,30.922952 4.910751,31.048132 4.31562,31.652123 3.806675,31.867884 3.769253,31.903356 3.751754,31.891167 3.7365,31.897634 3.730945,31.876671 3.190294,31.500074 2.810238,31.127748 3.091433,30.815888 3.389403,30.587705 3.364201,30.492587 3.452875,30.407036 3.098955,29.32155 3.676607,29.145166 3.986498,28.960896 3.850426,28.815666 3.926554,28.781079 3.570931,28.472087 3.359738,28.253652 3.766502,27.922445 4.04704,27.729203 4.035453,27.686663 4.046325,27.67995 3.812865,26.763826 4.289376,26.712945 4.874973,26.584294 4.780843,26.213577 4.680314,26.098268 4.602772,26.020301 4.247346,25.665198 4.462891,25.559552 4.571446,25.501157 4.488171,25.058524 4.75788,25.02066 5.514841,24.981783 5.256923,24.001771 5.227833,23.972192 5.221407,23.941889 5.003627,23.74679 5.100067,23.71567 5.166417,23.682575 5.1063,23.399076 5.305521,23.334376 6.312353,23.17054 6.367907,23.16692" slic3r:type="contour"/>
    <polygon style="fill: white" points="4.296365,33.233276 4.689191,33.354726 4.222445,33.763183 3.87312,34.150741 3.905996,34.36482 3.726714,34.558867 3.907312,35.369734 4.361772,35.675164 4.669458,35.710976 4.130306,36.201008 4.037177,36.320974 4.056561,36.631036 3.895045,36.827835 4.041852,37.687626 4.467847,37.924892 4.817811,37.926344 4.376445,38.351435 4.145751,38.686847 4.1568,39.053776 3.975325,39.30119 4.06483,39.830999 4.648532,40.096132 5.109949,40.074268 4.827124,40.369308 4.298668,41.215163 4.303353,41.242895 4.319153,41.5789 4.228643,41.71658 4.168115,41.7027 3.899296,41.557796 3.883371,41.260942 3.264798,41.159703 3.079737,41.069992 3.481068,40.32088 3.813522,39.958942 3.785058,39.428378 3.688885,39.396836 3.026379,38.966364 3.038315,38.863734 2.822484,38.80794 2.753477,38.766988 3.120034,38.16106 3.264199,36.921435 2.707325,36.4957 2.723434,36.451445 2.61495,36.409556 2.578119,36.383008 2.939057,35.859086 3.390856,34.61791 2.968272,34.249236 3.039182,34.150169 2.704489,33.963812 2.578289,33.855864 3.10778,33.185598 3.68047,32.739412" slic3r:type="contour"/>
    <polygon style="fill: white" points="4.575321,41.86016 4.74116,42.179874 4.943598,42.25318 5.53782,42.221936 5.409254,42.369948 5.108979,42.888974 5.293143,43.244016 4.816108,43.930708 4.703366,43.548746 3.873689,43.469564 3.543998,43.340536 3.846216,42.713972 4.292969,42.158343 4.201424,41.848196 4.230516,41.789427 4.258672,41.755055" slic3r:type="contour"/>
    <polygon style="fill: white" points="4.861298,44.083811 5.820177,44.317448 5.867942,44.410335 6.092275,44.393348 6.060357,44.435868 5.969545,44.607922 6.526824,45.691651 6.764879,46.507046 6.799545,46.503252 6.774905,46.541385 6.784679,46.574867 6.810722,46.621668 7.60863,48.486659 7.677562,48.473596 7.637189,48.553412 7.653783,48.592196 7.720042,48.680723 8.689956,50.250681 8.744152,50.234064 8.719398,50.30442 8.794368,50.376503 10.000872,51.699252 10.023278,51.743393 10.034525,51.738364 10.034254,51.739887 10.029068,51.78103 10.317104,52.65576 9.873749,53.013205 9.842835,53.258464 8.969391,53.620831 8.626727,53.726728 8.675872,53.1031 8.790478,52.372684 8.733677,52.331816 8.739978,52.254819 8.750718,52.193056 8.820237,52.168433 8.384125,51.743148 7.550021,51.967287 7.123263,52.0211 7.227434,51.452403 7.421779,50.804694 7.354933,50.739508 7.3838,50.586899 7.420717,50.471055 7.053212,49.968535 6.365802,50.064632 5.893218,50.045216 6.042079,49.514276 6.301445,48.940582 6.225091,48.836176 6.284107,48.633016 6.325974,48.544261 6.007308,47.951187 5.383901,47.975972 4.912188,47.890644 5.100256,47.36966 5.410346,46.840179 5.32929,46.689324 5.408908,46.476676 5.46982,46.376186 5.23273,45.782623 4.565776,45.757172 4.141226,45.63096 4.376375,45.081504 4.743855,44.558713 4.658214,44.344308 4.732887,44.17546 4.808405,44.070924" slic3r:type="contour"/>
    <polygon style="fill: white" points="11.513792,53.09582 11.500435,54.51576 10.576549,55.036963 10.335123,55.153548 10.320181,54.47306 10.345717,53.669132 10.8791,53.386904 11.517738,53.0086" slic3r:type="contour"/>
    <polygon style="fill: white" points="13.15607,54.218815 13.286512,55.527272 12.337881,56.213104 12.188546,56.311027 12.099855,55.583331 12.040303,54.845436 12.588502,54.464887 13.143703,54.04734" slic3r:type="contour"/>
    <polygon style="fill: white" points="14.895486,55.078668 15.143972,56.29666 14.211396,57.133368 14.123828,57.206492 13.956347,56.453968 13.830928,55.774052 14.373321,55.305071 14.855334,54.855068" slic3r:type="contour"/>
    <polygon style="fill: white" points="16.65334,55.654632 17.009868,56.825263 16.142492,57.772768 16.072921,57.844156 15.837432,57.104464 15.651098,56.45662 16.156832,55.923247 16.59153,55.43314" slic3r:type="contour"/>
    <polygon style="fill: white" points="18.417398,56.001148 18.876588,57.146855 18.097371,58.163952 18.022908,58.256224 17.735477,57.551395 17.489782,56.920032 17.942675,56.345508 18.345162,55.809708" slic3r:type="contour"/>
    <polygon style="fill: white" points="20.187618,56.16984 20.739458,57.294475 20.048794,58.353107 19.965192,58.476348 19.640938,57.812344 19.338744,57.191655 19.735886,56.592887 20.113482,56.013176" slic3r:type="contour"/>
    <polygon style="fill: white" points="21.971945,56.207575 22.597274,57.30112 21.978617,58.394164 21.895064,58.538652 21.543552,57.907148 21.192854,57.30112 21.540986,56.684427 21.895064,56.071356" slic3r:type="contour"/>
  </g></svg>