<svg width="43.790126" height="63.590156" xmlns="http://www.w3.org/2000/svg" xmlns:svg="http://www.w3.org/2000/svg" xmlns:xlink="http://www.w3.org/1999/xlink" xmlns:slic3r="http://slic3r.org/namespaces/slic3r"><g xmlns="http://www.w3.org/2000/svg" slic3r:z="4.29049999999998e-005" id="layer129">
    <polygon style="fill: white" points="28.306273,56.214043 28.928693,56.838656 28.788048,57.225283 28.521218,58.105483 28.409911,58.014719 27.564574,57.240312 27.752278,56.798091 28.046534,55.966028" slic3r:type="contour"/>
    <polygon style="fill: white" points="30.625014,55.576888 31.136758,56.026303 30.977683,56.576748 30.8086,57.291624 30.521374,57.095664 29.802992,56.533624 30.039966,55.882607 30.2262,55.245552" slic3r:type="contour"/>
    <polygon style="fill: white" points="33.091928,54.739988 33.43502,54.998672 33.255028,55.765703 33.176304,56.259288 32.643064,55.96772 32.125306,55.628212 32.392364,54.689968 32.468392,54.32746" slic3r:type="contour"/>
    <polygon style="fill: white" points="35.435836,53.591032 35.609244,53.690663 35.44386,54.69304 35.42902,54.977736 34.645612,54.663136 34.34172,54.509288 34.503904,53.303239 34.511864,53.2048" slic3r:type="contour"/>
    <polygon style="fill: white" points="38.62907,50.114343 38.72686,50.127308 38.75268,50.225851 39.251552,50.67588 39.362936,50.83802 38.952654,50.989064 39.029239,51.281359 39.064767,51.420435 38.484086,51.161566 38.245948,51.249235 38.095792,51.304108 38.042827,51.221135 37.419215,52.237338 37.354168,53.25702 37.367512,53.417768 36.447491,53.196335 36.282295,53.148019 36.277811,53.097978 36.043245,53.215026 36.045011,53.220468 36.026996,53.231311 36.012052,53.240236 36.016539,53.232768 36.037965,53.198749 35.912327,52.811503 35.712828,52.26048 36.006039,52.132632 36.214795,52.051062 37.318055,50.54866 37.53511,50.284119 37.508044,50.242612 37.533978,50.239983 37.516292,50.05814 37.594984,50.045448 37.784209,50.16409 38.321428,50.130516 38.540636,50.034568" slic3r:type="contour"/>
    <polygon style="fill: white" points="40.269039,46.588739 40.753667,47.103556 40.321328,47.424436 39.511096,47.950768 39.057068,47.292644 38.733856,46.974208 39.175572,46.723179 39.962084,46.254712" slic3r:type="contour"/>
    <polygon style="fill: white" points="41.285663,42.366359 41.600699,42.585256 40.947651,43.062616 40.802085,43.186471 40.82596,43.28706 40.776089,43.326723 41.038315,44.209495 41.210196,45.009671 40.786484,45.355392 40.007864,45.755544 39.523663,43.835107 39.393244,43.34652 39.844402,43.088611 39.802328,43.0535 39.83244,43.022978 39.563908,42.83264 39.486768,42.763824 40.106719,42.22378 40.644284,41.81834" slic3r:type="contour"/>
    <polygon style="fill: white" points="40.67593,33.21716 41.434139,33.646479 41.755036,33.780844 41.243003,34.223272 40.957405,34.529482 40.981752,34.665236 40.942558,34.703845 41.368004,36.148592 41.764868,37.926307 41.857168,37.989096 41.896156,38.009508 41.800774,38.087147 41.805132,38.106667 41.799849,38.111522 41.843616,38.24048 41.88068,38.38626 41.197416,39.329619 40.765688,39.684196 40.502441,38.807144 40.412692,38.754988 39.80788,38.306164 39.964032,38.161552 40.241205,37.936792 40.233328,37.910548 40.314395,37.828393 39.76574,35.828699 40.457515,34.650921 40.373903,34.599104 40.385025,34.499138 39.83972,34.259836 39.712476,34.183619 40.245331,33.612532 40.510784,33.36865 40.575696,32.785148" slic3r:type="contour"/>
    <polygon style="fill: white" points="40.855564,29.819852 41.25794,29.95747 40.881664,30.308161 40.3888,30.88822 39.510599,30.562237 39.255128,30.435916 39.679656,29.944197 40.142196,29.479556" slic3r:type="contour"/>
    <polygon style="fill: white" points="37.925227,20.081616 38.017275,20.187177 38.772852,20.36324 38.700511,20.445836 38.505456,20.747031 39.133728,21.467546 39.220352,23.112543 39.532047,23.22484 39.7031,23.272264 39.253907,23.749729 39.262611,23.91504 39.226234,23.962908 39.485289,26.070351 40.200876,26.36565 40.539408,26.468052 40.145407,26.862954 39.725708,27.39618 38.797351,27.087135 38.573939,26.991474 39.002143,26.459824 39.243249,26.197567 38.583455,24.785137 38.115661,23.978773 38.086015,23.967281 38.060446,23.935445 37.816256,23.86383 37.769036,23.845634 37.873867,23.703127 37.760752,23.562284 37.647511,23.459562 37.655704,22.237736 37.572056,21.281615 36.86472,21.05518 36.994904,20.827072 37.475776,20.181101 37.4712,20.128792 37.546848,20.010431 37.576515,19.972328" slic3r:type="contour"/>
    <polygon style="fill: white" points="36.782832,16.424939 36.855649,17.584051 37.240972,17.656102 37.578036,17.714592 37.250967,18.216516 36.946176,18.776369 35.903392,18.640219 35.738188,18.599491 35.886936,18.263778 35.664615,18.243036 35.528763,18.255416 35.602788,17.519503 35.51828,16.435838 36.163511,16.40966" slic3r:type="contour"/>
    <polygon style="fill: white" points="34.757604,15.034193 35.191972,15.068968 35.669512,15.113387 35.526919,15.570797 35.27148,16.293358 33.90093,16.187963 33.791491,16.228182 33.790802,16.178558 33.722096,16.175342 33.727511,16.142263 33.753876,16.001932 33.629772,15.306035 33.439578,14.504436 34.123735,14.193125 34.505872,13.985005" slic3r:type="contour"/>
    <polygon style="fill: white" points="30.001627,11.914924 30.407464,12.706467 30.432968,12.707024 30.443746,12.72965 31.248495,12.726966 31.760733,12.748835 32.003796,12.546481 32.088599,12.440271 32.217917,12.768354 32.24145,12.769359 32.243397,12.774241 32.405123,12.779235 32.671049,12.798721 32.573292,13.532262 32.561451,13.571935 32.775862,14.109686 32.269813,14.497812 31.78704,14.870648 31.666589,14.49372 31.496933,13.993933 31.444882,13.991708 31.422025,13.933786 29.867392,13.928711 29.708674,13.928419 29.696605,13.928397 29.301929,13.056917 29.003545,12.330532 29.484616,11.834246 29.776086,11.403234" slic3r:type="contour"/>
    <polygon style="fill: white" points="22.050603,9.74755 22.287169,10.156352 22.397939,9.977741 22.690516,9.500068 22.866182,9.840964 23.124953,10.324175 23.328903,10.024712 23.583996,9.612125 23.824297,10.116579 24.072506,10.614 24.133089,10.613598 24.465162,10.152601 24.653073,9.832975 25.01326,10.626093 25.473022,10.628889 25.702156,10.639992 25.887498,10.385347 25.987826,10.189549 26.201942,10.664209 26.210914,10.664644 26.215519,10.673528 26.535935,10.680228 27.700462,10.761675 27.719738,10.718271 27.740558,10.76448 27.743109,10.764659 27.743851,10.766053 27.773654,10.767072 27.875416,10.776581 27.829568,10.927079 28.493508,12.174363 27.957288,12.877781 27.693374,13.207358 27.424364,12.644526 27.136594,11.988823 26.985436,11.982957 26.949371,11.90374 26.558155,11.896237 26.365118,12.150535 25.93606,12.707449 25.764306,12.345186 25.555492,11.877009 25.46361,11.875247 25.445302,11.833529 24.946756,11.832533 24.556134,12.35322 24.454997,12.133471 24.317538,11.831275 24.275306,11.831191 24.269674,11.817701 24.226247,11.818095 23.697176,11.824177 23.4856,12.123681 23.428775,12.002496 23.34495,11.828226 23.329552,11.828403 23.328662,11.826294 22.932162,11.834658 22.736627,11.838261 22.633284,11.997985 22.601716,11.935553 22.552225,11.841658 22.547749,11.84174 22.547163,11.840473 22.057579,11.847228 21.96081,11.848352 21.959976,11.84987 21.959042,11.849857 21.895064,11.958989 21.871214,11.917046 21.831806,11.84985 21.830152,11.849869 21.829158,11.848022 21.353552,11.841305 21.243227,11.840032 21.242388,11.841732 21.239141,11.84166 21.15684,11.998002 21.1192,11.939723 21.053292,11.837841 21.050577,11.83781 21.050355,11.837454 20.653915,11.828619 20.462046,11.825154 20.460586,11.8284 20.446437,11.828297 20.304524,12.123678 20.228039,12.016941 20.0929,11.825736 19.870506,11.824125 19.519598,11.819838 19.514739,11.831181 19.471189,11.83203 19.23392,12.353241 19.092661,12.166419 18.848995,11.841693 18.341329,11.84066 18.326512,11.875242 18.224817,11.880185 17.854048,12.707449 17.624687,12.403441 17.238905,11.902189 16.837678,11.906343 16.804662,11.982983 16.684995,11.992849 16.644847,11.993724 16.37688,12.574625 16.096775,13.207327 15.750031,12.742538 15.296617,12.174289 15.580436,11.549352 15.976407,10.883495 15.953915,10.820712 15.914497,10.776672 16.04528,10.767782 16.056193,10.742352 16.070443,10.718264 16.104195,10.762842 16.200388,10.759662 17.556273,10.689558 17.6733,10.423243 17.802312,10.18955 18.146402,10.656361 18.744138,10.647589 18.942197,10.205921 19.137074,9.832958 19.490127,10.319096 19.696975,10.638369 19.964852,10.073047 20.206117,9.612131 20.449113,9.96765 20.666108,10.303298 20.820169,10.003806 21.099636,9.50005 21.277223,9.786302 21.498928,10.146261 21.592516,9.979293 21.895064,9.469951" slic3r:type="contour"/>
    <polygon style="fill: white" points="14.228634,11.615727 14.786651,12.330662 14.098672,13.916499 14.09381,13.928186 13.036594,13.955313 12.361576,13.948322 12.345257,13.991617 12.29854,13.994368 12.003115,14.870628 11.693618,14.633848 11.014241,14.110077 11.193684,13.558585 11.259546,13.412144 11.187762,12.994585 11.119014,12.79875 11.543729,12.780271 11.548607,12.769425 11.551231,12.769384 11.613442,12.601699 11.701442,12.440312 12.111158,12.760539 13.339266,12.74114 13.357124,12.706973 13.363184,12.707007 13.668204,11.989197 14.014115,11.403193" slic3r:type="contour"/>
    <polygon style="fill: white" points="9.715973,14.172976 10.350548,14.504359 10.037429,16.020227 10.068043,16.175331 10.006819,16.176236 9.998589,16.228214 9.978298,16.223335 9.86224,16.183489 9.305066,16.200768 8.518625,16.293396 8.282609,15.559343 8.120642,15.113344 8.992039,15.042191 9.116624,14.490002 9.284257,13.98502" slic3r:type="contour"/>
    <polygon style="fill: white" points="7.441667,16.452852 8.271856,16.435844 8.286277,17.781743 8.261501,18.255212 7.887544,18.292235 7.990876,18.507426 8.051992,18.599416 7.453783,18.630354 6.843909,18.776356 6.384369,18.043728 6.212067,17.714612 6.926123,17.580675 6.958515,17.028758 7.007251,16.424985" slic3r:type="contour"/>
    <polygon style="fill: white" points="6.318843,20.128756 6.314662,20.207815 6.503489,20.517275 6.925415,21.055132 6.726414,21.075044 6.26128,21.217135 6.142692,23.459366 5.919491,23.717788 5.990573,23.810619 6.021112,23.84563 5.748235,23.916067 5.702779,23.968696 4.559762,26.229101 5.048805,26.812828 5.216186,26.991476 4.5947,27.178098 4.064465,27.396093 3.491152,26.795374 3.250717,26.468002 3.803954,26.230259 4.319981,26.058056 4.595393,24.066107 4.599368,24.014727 4.527496,23.915044 4.535879,23.813669 4.203371,23.44071 4.087013,23.272232 4.596317,23.08276 4.650663,22.425538 4.656424,21.467462 4.973062,21.177503 5.281404,20.798582 5.017266,20.363279 5.139773,20.328734 5.794602,20.16791 5.864834,20.081602 6.161471,19.986622 6.213514,19.972298" slic3r:type="contour"/>
    <polygon style="fill: white" points="4.31246,30.215455 4.534999,30.435936 3.945891,30.631674 3.401302,30.888184 2.831684,30.338388 2.532197,29.957476 2.992299,29.727577 3.647996,29.479607" slic3r:type="contour"/>
    <polygon style="fill: white" points="3.316799,33.423112 3.945685,34.063483 4.077654,34.183644 3.407595,34.446702 3.416159,34.599128 3.383051,34.618718 3.800023,35.292328 4.024391,35.828699 3.745911,37.016851 3.493421,37.850217 3.556813,37.910612 3.545634,37.952875 3.982252,38.30626 3.800639,38.4042 3.340387,38.728826 3.296367,38.895244 3.024482,39.684092 2.002497,38.463012 1.909449,38.386184 1.994084,38.115711 1.98498,38.106687 1.987998,38.09508 1.926895,38.044796 1.89398,38.009555 2.036846,37.907218 2.864361,34.724652 2.808367,34.665256 2.831907,34.556263 2.289399,34.076667 2.035089,33.780888 2.55487,33.471703 3.121895,33.213581 3.214386,32.78534" slic3r:type="contour"/>
    <polygon style="fill: white" points="4.173408,42.665532 4.303377,42.76378 3.942869,43.004422 3.987722,43.053524 3.956541,43.080875 4.28471,43.269499 4.396914,43.346532 4.113816,44.55214 3.782244,45.755564 3.17279,45.309144 2.579948,45.009784 3.042105,43.345552 2.964155,43.287124 2.981778,43.222114 2.493082,42.865348 2.189425,42.585264 2.60866,42.209908 3.145838,41.818328" slic3r:type="contour"/>
    <polygon style="fill: white" points="4.397402,46.582523 5.056277,46.974196 4.68445,47.519384 4.279001,47.950768 3.666019,47.48114 3.036468,47.10356 3.243797,46.8775 3.828019,46.254696" slic3r:type="contour"/>
    <polygon style="fill: white" points="5.882139,50.162031 6.079515,50.1704 6.273835,50.058136 6.263116,50.11298 6.253019,50.236755 6.282084,50.242611 6.246073,50.28575 7.204742,51.60174 7.576612,52.056444 8.077308,52.26048 7.980134,52.557735 7.752865,53.198604 7.774031,53.233815 7.778075,53.240235 7.778075,53.240236 7.760082,53.229408 7.745112,53.220468 7.747019,53.215092 7.510808,53.097192 7.507829,53.148019 6.570281,53.37318 6.422605,53.41776 6.354488,52.172552 6.358633,52.087852 5.774778,51.200286 5.69435,51.304068 5.389668,51.191835 4.859641,51.414664 4.725334,51.420416 4.838405,50.988769 4.617858,50.907527 4.427176,50.838028 5.010109,50.33329 5.023969,50.280376 5.063266,50.127308 5.178999,50.132216 5.249524,50.034572" slic3r:type="contour"/>
    <polygon style="fill: white" points="9.422253,54.190047 9.448309,54.509384 8.605904,54.847775 8.361053,54.977716 8.202399,53.963551 8.180898,53.69066 9.210522,53.244907 9.278296,53.204799" slic3r:type="contour"/>
    <polygon style="fill: white" points="11.549533,55.080648 11.664781,55.6284 11.028349,55.97678 10.613748,56.25926 10.456413,55.571848 10.355074,54.998696 11.082039,54.510183 11.321737,54.32748" slic3r:type="contour"/>
    <polygon style="fill: white" points="13.76233,55.765896 13.987116,56.533524 13.561921,56.823688 12.981503,57.291612 12.873233,56.911956 12.653323,56.026268 13.145186,55.614659 13.56394,55.245556" slic3r:type="contour"/>
    <polygon style="fill: white" points="15.898687,56.317695 16.225493,57.240372 15.949004,57.46544 15.268872,58.105452 15.214532,57.954255 14.861483,56.838548 15.199917,56.513176 15.74365,55.966016" slic3r:type="contour"/>
    <polygon style="fill: white" points="17.961103,56.717871 18.251864,57.39901 19.404463,57.450364 19.406292,57.447976 19.413706,57.448066 19.88437,56.801839 19.978501,56.962067 20.232995,57.458009 20.28928,57.458692 21.545947,57.478179 21.895064,56.908764 21.984034,57.040564 22.254506,57.480764 22.45108,57.478483 23.568335,57.460854 23.905726,56.801856 24.016514,56.943768 24.392252,57.458501 25.556092,57.403737 25.94734,56.48538 26.11316,56.668387 26.698623,57.349976 26.723872,57.348788 26.745991,57.37231 27.003054,57.352824 26.483886,58.567799 26.427599,58.667968 26.29877,58.674603 26.287902,58.703667 26.264115,58.676387 26.261155,58.676539 26.259977,58.675254 26.171878,58.678535 24.248759,58.734551 24.128217,58.969724 24.08706,59.05476 23.858014,58.745931 23.838388,58.746504 23.831328,58.737163 23.161352,58.745496 22.168195,58.754092 22.165388,58.758788 22.154713,58.758652 21.96178,59.069799 21.895064,59.176288 21.636219,58.758696 21.624692,58.758796 21.62041,58.751834 20.953105,58.743319 19.959955,58.735349 19.95174,58.7465 19.9368,58.745903 19.763037,58.97944 19.703096,59.054772 19.537396,58.731957 19.537288,58.731956 19.536266,58.7299 19.116108,58.713112 17.530604,58.674742 17.528998,58.676539 17.526831,58.676394 17.508457,58.697324 17.502254,58.703668 17.489587,58.673897 17.456158,58.671656 17.362554,58.667968 17.109744,57.905264 16.787972,57.352804 17.04578,57.370636 17.066196,57.348776 17.0957,57.349853 17.231131,57.199184 17.842764,56.485364" slic3r:type="contour"/>
  </g></svg>