<svg width="43.790126" height="63.590156" xmlns="http://www.w3.org/2000/svg" xmlns:svg="http://www.w3.org/2000/svg" xmlns:xlink="http://www.w3.org/1999/xlink" xmlns:slic3r="http://slic3r.org/namespaces/slic3r"><g xmlns="http://www.w3.org/2000/svg" slic3r:z="5.01649999999998e-005" id="layer151">
    <polygon style="fill: white" points="33.678513,18.184267 34.074307,18.231291 34.759899,18.348398 34.55412,18.627281 34.051984,19.02916 32.731801,19.064607 32.655273,19.084092 32.661735,19.050968 32.685337,18.97052 32.401263,18.100329 32.30452,17.760734 33.119272,17.330277 33.297456,17.20147" slic3r:type="contour"/>
    <polygon style="fill: white" points="31.000539,16.51569 31.339553,17.27813 30.719137,17.785694 30.443696,18.052896 30.13852,17.432204 29.840044,16.711722 30.292921,16.365861 30.733522,15.946993" slic3r:type="contour"/>
    <polygon style="fill: white" points="22.335553,14.841093 22.497702,15.103298 22.667628,15.102969 23.122245,14.42511 23.297074,14.171272 23.73675,14.962674 23.815416,15.100866 23.842103,15.100826 23.843949,15.103975 24.221603,15.096936 24.63654,14.537903 24.784417,14.345104 25.162369,15.08152 25.781565,15.053783 26.134315,15.039403 26.368124,14.752669 26.443932,14.662239 26.616016,15.016211 26.898462,14.995174 27.55857,14.948297 27.64718,15.278875 27.788189,15.813022 28.379011,15.164655 28.433892,15.27348 29.018224,16.474481 28.68351,16.816307 28.190488,17.360974 28.012137,17.033351 27.632875,16.242236 27.630227,16.2425 27.618483,16.216969 26.811348,16.273236 26.800443,16.286911 26.800341,16.286914 26.29341,16.904138 26.203261,16.743556 25.986691,16.313761 25.787871,16.320322 24.882973,16.353722 24.685516,16.621241 24.644861,16.552412 24.541489,16.359052 23.535049,16.363643 23.323331,16.366132 23.323015,16.366623 23.322889,16.366622 23.253558,16.470833 23.236498,16.443904 23.192026,16.366068 22.035032,16.361168 21.935691,16.361108 21.895064,16.427705 21.883512,16.410922 21.853242,16.361435 20.729164,16.366545 20.597102,16.366603 20.59649,16.367696 20.595426,16.367694 20.53654,16.470845 20.517828,16.445641 20.465637,16.367456 19.531479,16.365739 19.245508,16.361947 19.243332,16.366129 19.241112,16.366066 19.10461,16.621241 19.055616,16.561142 18.903779,16.356413 18.377684,16.34136 17.798432,16.318669 17.792912,16.330003 17.786825,16.329586 17.496708,16.904156 17.37854,16.772756 16.96557,16.272901 16.171595,16.217127 16.159835,16.24247 16.148454,16.241269 16.03938,16.447528 15.599645,17.360962 15.348839,17.107203 14.771902,16.4745 14.97933,16.065617 15.411078,15.164672 15.473803,15.224817 16.00744,15.79656 16.065312,15.579344 16.231593,14.948293 17.170798,15.016768 17.289694,14.772047 17.34619,14.662243 17.654089,15.040862 18.60042,15.082387 18.601323,15.080692 18.622779,15.081082 18.887776,14.564879 19.005738,14.345092 19.517351,15.036109 19.564571,15.09818 19.94551,15.105096 19.947992,15.100717 19.971222,15.100762 20.337584,14.441771 20.493074,14.171271 20.951594,14.855884 21.120589,15.103 21.291231,15.103334 21.722188,14.397736 21.895064,14.119543" slic3r:type="contour"/>
    <polygon style="fill: white" points="13.385438,16.19575 13.950123,16.711683 13.570668,17.515833 13.346445,18.052884 12.813647,17.623526 12.450563,17.27816 12.786113,16.571589 13.056622,15.946982" slic3r:type="contour"/>
    <polygon style="fill: white" points="11.221689,17.579917 11.485591,17.760772 11.102414,18.974713 11.134821,19.084094 11.110887,19.076968 11.064025,19.065188 10.375947,19.07646 9.738153,19.029164 9.359125,18.550811 9.030227,18.348398 10.113775,18.196278 10.410509,17.44952 10.492667,17.201476" slic3r:type="contour"/>
  </g></svg>