<svg width="43.790126" height="63.590156" xmlns="http://www.w3.org/2000/svg" xmlns:svg="http://www.w3.org/2000/svg" xmlns:xlink="http://www.w3.org/1999/xlink" xmlns:slic3r="http://slic3r.org/namespaces/slic3r"><g xmlns="http://www.w3.org/2000/svg" slic3r:z="1.1555e-005" id="layer34">
    <polygon style="fill: white" points="4.311741,33.686818 4.895518,34.043184 5.35686,34.066928 5.022348,34.380923 4.540492,34.957711 4.555031,35.177404 4.372357,35.412717 4.499242,36.127384 4.971753,36.360292 5.451738,36.336452 5.171789,36.611651 4.652894,37.309434 4.662272,37.593607 4.409828,37.96064 4.230052,37.914168 3.461819,37.458268 3.477314,37.39688 3.32603,37.364716 3.277589,37.339364 3.63949,36.754362 3.95309,35.511938 3.233101,34.99294 3.25243,34.962331 3.164483,34.932271 3.133052,34.911844 3.698194,34.122992 3.883207,33.963445 4.244061,33.392004" slic3r:type="contour"/>
    <polygon style="fill: white" points="7.413475,22.187701 7.914439,22.737312 7.412689,23.305234 7.74942,23.50979 7.909136,23.646706 7.392116,23.823224 7.489568,24.164989 7.663347,24.802202 7.374337,24.87026 7.072699,25.010043 7.467362,25.509828 7.131118,25.656151 6.516594,25.881554 6.619984,26.347488 6.854427,27.077682 6.71536,27.060577 6.810805,27.180916 6.67658,27.245277 5.837422,27.613286 5.981001,28.165101 6.165395,28.887924 6.042489,28.89091 5.637535,28.943866 6.044037,29.25751 5.627556,29.545846 5.214201,29.835161 5.217052,29.84695 5.146496,29.906269 5.332747,30.541072 5.505563,31.614765 5.414122,31.661961 5.49412,31.684214 5.467002,31.708306 5.250556,31.928969 4.895616,32.49127 4.67092,32.519899 4.372239,32.824398 4.392248,32.945592 4.196147,33.163156 4.08622,33.101949 3.786151,32.84528 3.920488,32.731802 3.444998,32.469692 3.242071,32.30592 3.699296,31.769748 4.123593,31.444131 4.090084,31.24591 4.185692,31.144915 3.805867,29.61302 3.69843,29.511102 3.735834,29.475015 3.766156,29.452861 3.764169,29.444846 3.768255,29.441555 3.739451,29.343582 3.792056,29.336124 3.968702,29.280066 4.371417,28.955625 4.856758,28.63328 4.554015,27.50328 4.460325,27.149506 4.731278,27.120302 4.612327,26.988574 4.544497,26.926136 5.095477,26.689736 5.398929,26.530931 5.376578,26.453559 5.145812,25.503268 5.620194,25.406356 5.457149,25.204413 5.314127,25.075822 5.809012,24.977076 6.274498,24.752663 5.898802,23.391193 5.819375,23.33528 5.870949,23.317526 5.837117,23.2512 5.87843,23.232069 5.995719,23.205054 6.378729,22.748209 6.906062,21.840061" slic3r:type="contour"/>
    <polygon style="fill: white" points="7.891604,19.52455 8.232562,20.015082 7.635639,20.467999 7.895083,20.835228 8.094461,21.066262 7.727042,21.263706 7.019546,21.706346 6.237441,20.607489 6.121816,20.451362 6.361301,20.328879 6.233156,20.192242 6.172123,20.081724 6.742856,19.514314 7.399181,18.93445" slic3r:type="contour"/>
    <polygon style="fill: white" points="22.185462,0.47906 22.356149,0.721879 22.41604,0.717967 22.483552,0.815752 22.57346,0.717244 22.641091,0.73084 22.95733,0.380988 23.18228,0.138516 23.41539,0.588718 23.560666,0.864059 23.611179,0.867356 23.659969,0.963523 23.77978,0.866464 23.857984,0.893042 24.20928,0.599305 24.464848,0.394541 24.635171,0.875612 24.733641,1.150333 24.76909,1.157322 24.786128,1.208497 24.891281,1.244236 25.000664,1.181674 25.084066,1.222309 25.452633,0.997977 25.72257,0.845072 25.824805,1.364317 25.864853,1.572181 25.880666,1.577432 25.886574,1.613311 26.135238,1.734466 26.250304,1.692362 26.327656,1.742294 26.679035,1.597713 26.931948,1.506246 26.956792,2.079097 26.958738,2.149669 27.394241,2.430793 27.445641,2.462804 27.544058,2.443358 27.598623,2.488212 27.870547,2.420783 28.05969,2.38375 28.015709,2.83107 28.296833,3.062162 28.807793,3.462013 28.860096,3.45861 28.884061,3.483093 29.015464,3.467131 29.10546,3.461184 29.060806,3.663653 29.186035,3.791584 29.86439,4.444402 29.969655,4.67088 30.004371,4.729632 30.080396,4.73283 30.069264,4.763442 30.051005,4.808553 30.054176,4.813919 30.040768,4.85533 30.373934,5.765819 30.55922,6.149098 30.991058,6.205527 30.91148,6.372516 30.784882,6.615895 30.8034,6.654201 30.699663,6.906133 31.045926,7.718185 31.405158,7.770737 31.833984,7.849467 31.662296,8.146567 31.427256,8.516299 31.807808,9.264368 31.953456,9.297601 32.000659,9.415193 32.252016,9.459918 32.607188,9.531139 32.362499,9.907006 32.256548,10.052652 32.592183,10.888778 32.731182,10.919164 32.765718,11.023511 32.981529,11.063993 33.377416,11.139891 33.151894,11.479043 32.986989,11.69206 33.161587,12.219591 33.758343,12.546206 34.29752,12.644904 34.252176,12.731388 34.209176,12.792957 34.247152,12.813742 34.219804,12.884548 34.486804,12.871788 34.574651,13.578327 34.659427,14.074696 34.869412,14.12791 34.876268,14.234158 35.062203,14.29503 35.495448,14.462391 35.435448,14.805198 35.36162,15.004441 35.460568,15.058374 35.442494,15.141321 36.039716,15.32316 35.884376,15.648374 35.733006,16.520852 35.917072,16.622791 35.894909,16.687901 36.27916,16.854034 36.862992,17.22251 36.844784,17.379818 36.817046,17.46892 36.839275,17.484209 36.837197,17.490347 37.005856,17.58947 36.943787,17.653082 36.355104,18.762638 36.324475,18.747106 36.295124,18.805918 35.183639,18.226087 35.085392,18.179674 35.147324,18.048669 35.077375,18.014959 35.024036,17.983386 35.312482,17.291838 35.397052,16.912727 35.371236,16.902424 35.373282,16.613791 34.8026,16.460315 34.284604,16.254565 34.35762,15.945048 34.447502,15.655026 34.405404,15.637624 34.406029,15.490732 33.772763,15.24275 33.61456,15.205011 33.663433,15.063773 33.631452,15.061456 33.635734,15.015233 33.561707,15.014963 33.489978,15.003036 33.314998,14.073962 33.286563,13.648273 33.226029,13.628302 33.035245,13.717257 32.472632,13.832311 32.353956,13.489094 32.329445,13.384415 32.31489,13.380676 32.286814,13.318192 31.9492,13.26642 32.11073,13.132882 32.161662,13.039658 31.807522,12.251499 31.700129,11.919125 31.688351,11.91584 31.645425,11.835053 31.599576,11.822584 31.14236,11.748652 31.365278,11.577531 31.447872,11.463264 31.00324,10.626478 30.869267,10.298973 30.845005,10.260089 30.561718,10.215911 30.666515,10.11829 30.714441,10.050841 30.159022,9.160705 30.166951,8.688307 30.025412,8.657215 29.940038,8.651267 30.172549,8.354757 30.174288,8.251122 30.187786,8.229697 30.130687,7.372338 30.0563,7.259006 30.024616,7.255233 30.016207,7.245919 29.562857,7.184274 29.218658,7.176114 29.37081,6.924139 29.488397,6.661328 29.315811,6.470175 28.837438,5.868256 28.828424,5.867995 28.812617,5.853322 28.423486,5.870722 28.482834,5.737103 28.53274,5.593523 27.663991,4.787095 27.622299,4.743934 27.588688,4.748473 27.596054,4.724322 27.495812,4.648663 26.965216,3.794302 26.820071,3.824144 26.724324,3.852691 26.780244,3.514146 26.387216,3.112211 26.274697,2.984764 26.00966,3.082739 25.836834,3.161148 25.839404,2.664497 25.832132,2.5443 25.482904,2.312926 25.117875,2.519516 24.906762,2.654854 24.831544,2.213851 24.760919,1.886143 24.555038,1.802409 24.151312,2.122484 23.933754,2.308873 23.794106,1.907907 23.641385,1.498527 23.517738,1.472041 23.128694,1.885096 22.92643,2.109894 22.729518,1.739717 22.506097,1.322892 22.416083,1.317268 22.070505,1.797415 21.895064,2.047316 21.6471,1.705973 21.370092,1.315333 21.285942,1.320592 21.008477,1.840604 20.863698,2.109892 20.569529,1.803116 20.26105,1.466584 20.156914,1.488866 19.962116,2.032532 19.856372,2.308873 19.507637,2.040745 19.211499,1.794865 19.044468,1.862522 18.943667,2.395014 18.883364,2.654854 18.463285,2.428902 18.263056,2.306757 17.981122,2.491615 17.970538,2.952973 17.95329,3.161148 17.449496,2.99057 17.168319,3.272147 17.024589,3.448414 17.026502,3.469704 17.024288,3.472818 17.059145,3.740052 17.0658,3.852692 16.788212,3.804878 16.665576,3.977374 16.294313,4.648636 16.194843,4.717991 16.201438,4.748444 16.187776,4.747706 16.161269,4.74473 15.473207,5.325493 15.262581,5.548866 15.366629,5.870717 15.198131,5.882258 14.867478,5.877859 14.70595,6.036851 14.29596,6.568023 14.414685,6.796097 14.571496,7.176099 14.217553,7.243405 13.654144,7.281919 13.573003,7.409198 13.475723,8.018114 13.615814,8.251107 13.615066,8.256653 13.806267,8.558562 13.850079,8.651296 13.549604,8.742216 13.52115,8.953277 13.631058,9.160821 13.18212,9.782343 13.076694,9.990976 13.228415,10.215903 13.051693,10.282173 12.861321,10.318768 12.513112,10.929455 12.347178,11.327395 12.420332,11.408279 12.647741,11.748652 12.301875,11.88889 12.070971,11.929484 12.022515,11.950952 11.763864,12.564046 11.663094,12.849165 11.840926,13.26642 11.588001,13.362692 11.485728,13.375967 11.43884,13.397029 11.317483,13.832323 11.077152,13.694699 10.8111,13.61844 10.493619,13.664109 10.450852,13.686893 10.34554,14.553271 10.300178,15.002984 10.172927,15.001577 10.157984,15.064192 10.176487,15.127685 10.175535,15.205056 9.708993,15.502605 9.381585,15.585366 9.384682,15.637635 9.325489,15.66982 9.505515,16.254564 9.01976,16.383905 8.437096,16.583029 8.44986,16.709631 8.415571,16.923095 8.555826,17.438424 8.566863,17.511322 8.723385,17.88316 8.766093,17.98342 8.640912,18.044094 8.678149,18.122805 8.704741,18.179696 8.151945,18.491091 7.49502,18.805902 7.469246,18.743298 7.435038,18.76268 7.087603,18.34357 6.784272,17.589445 6.861443,17.524727 6.992068,17.44938 6.927135,17.222483 7.175882,17.11256 7.893517,16.729966 7.873056,16.622791 8.025342,16.55027 7.762503,15.919574 7.750414,15.323169 8.036639,15.134731 8.365122,15.032581 8.483941,14.946461 8.29472,14.462341 8.886384,14.263568 8.920716,14.127927 9.021686,14.103964 9.048076,13.642415 9.303314,12.871798 9.425338,12.81236 9.623196,12.805217 9.492608,12.644901 9.765444,12.591984 9.816307,12.58229 10.205923,12.252374 10.629337,12.125177 10.790863,11.612731 10.684481,11.457805 10.412695,11.139916 11.015658,11.026634 11.058914,10.919256 11.185817,10.893188 11.538602,10.014034 11.413833,9.827172 11.18294,9.531168 11.737898,9.433243 11.783794,9.424564 11.836646,9.297622 11.987096,9.264415 12.372857,8.504322 12.200711,8.213714 11.956144,7.849468 12.32182,7.79827 12.681672,7.738369 13.057456,6.817931 12.986698,6.65411 13.011116,6.594895 12.79906,6.205501 12.981048,6.192676 13.186328,6.169993 13.65879,5.024236 13.744598,4.839283 13.735929,4.81386 13.740507,4.804948 13.709728,4.732829 13.740347,4.733284 13.777794,4.732355 13.925617,4.444556 14.733476,3.651552 14.708273,3.544059 14.684667,3.461182 14.897304,3.490734 14.930031,3.45861 14.972395,3.46199 15.279343,3.211444 15.783068,2.811224 15.756676,2.567566 15.730436,2.38375 16.17336,2.501126 16.246068,2.443358 16.330017,2.460996 16.837262,2.134918 16.837179,2.126089 16.838567,2.125415 16.852226,1.770215 16.85818,1.506247 17.379581,1.729368 17.442929,1.753248 17.539822,1.692362 17.64678,1.732487 17.904709,1.607091 17.909458,1.577423 17.926703,1.571567 18.009273,1.149352 18.067538,0.845063 18.517007,1.124896 18.693699,1.227245 18.789504,1.18171 18.895219,1.242679 19.005107,1.205363 19.021022,1.157336 19.055307,1.150443 19.213674,0.704871 19.325278,0.394544 19.716757,0.726432 19.924512,0.895051 20.010398,0.866486 20.13014,0.963603 20.178934,0.86738 20.227056,0.864154 20.451641,0.432982 20.607848,0.138518 20.9481,0.518156 21.144421,0.731475 21.216638,0.717238 21.306732,0.815755 21.374088,0.717967 21.431221,0.721797 21.70454,0.328543 21.895064,0.058856" slic3r:type="contour"/>
    <polygon style="fill: white" points="37.416483,19.901083 37.618016,20.081726 37.389949,20.303492 37.576108,20.399746 37.668331,20.451414 37.232979,21.084094 36.77058,21.706346 36.07752,21.31015 35.695668,21.06625 36.126979,20.462347 35.836143,20.242533 35.557556,20.015038 35.87962,19.672343 36.299307,19.066761 36.301112,19.062816 36.301694,19.063317 36.390987,18.934472" slic3r:type="contour"/>
    <polygon style="fill: white" points="37.836679,23.234221 37.953008,23.251172 37.923778,23.308637 37.970752,23.335252 37.949592,23.359201 37.863685,23.426323 37.824633,23.502848 37.619895,23.95015 37.479589,24.689719 38.112152,24.906112 38.476008,25.075826 38.191219,25.462723 38.411767,25.501775 38.644312,25.503252 38.44126,25.999739 38.34113,26.482419 38.999236,26.800214 39.24564,26.926206 39.085933,27.114079 39.23752,27.132598 39.329832,27.14963 39.1152,27.931635 38.927803,28.645828 39.710897,29.215626 40.050676,29.343614 40.037287,29.401414 40.019978,29.456885 40.091696,29.511126 40.052527,29.538388 40.000582,29.584322 39.824024,30.554479 39.63167,31.18588 39.700084,31.245932 39.675853,31.523316 40.168531,32.004849 40.548068,32.305964 40.022084,32.554787 39.853714,32.678636 40.003943,32.845332 39.593932,33.163184 39.499904,33.081462 39.397872,32.945646 39.42358,32.844974 38.842423,32.343792 38.296016,31.684214 38.362638,31.6235 38.284592,31.614866 38.348268,31.360245 38.681744,29.949132 38.573072,29.846918 38.574621,29.841323 38.214395,29.593405 37.7461,29.257472 37.854544,29.146513 38.079739,28.957195 37.624708,28.88777 37.755687,28.382486 37.960275,27.589182 37.552723,27.386509 36.979272,27.18087 37.056313,27.102038 36.935668,27.077688 36.976571,26.907326 37.258869,25.844557 36.895111,25.683103 36.32276,25.5098 36.472663,25.376602 36.725345,25.080514 36.126776,24.80218 36.380328,23.901891 36.06812,23.778664 35.880988,23.646706 36.378978,23.35893 36.1519,23.108892 35.875692,22.737346 36.2644,22.544976 36.88406,21.840026" slic3r:type="contour"/>
    <polygon style="fill: white" points="40.163764,33.817596 40.457418,34.695125 40.612395,34.872255 40.65706,34.911868 40.538543,34.937556 40.557067,34.992912 40.322359,35.144499 40.505128,35.304316 40.353702,37.149157 40.456988,37.284368 40.512532,37.339368 40.337242,37.349706 40.328332,37.458264 39.380384,37.960671 39.36739,37.947872 39.263448,37.845484 39.127888,37.593615 39.155159,37.406974 38.695472,36.958412 38.338376,36.336516 38.584392,36.194144 39.353049,36.052611 39.43535,35.489333 39.420316,35.475524 39.23504,35.177344 39.257958,35.045802 38.810572,34.634784 38.433272,34.066884 38.666872,33.898003 39.499356,33.66032 39.546124,33.391902" slic3r:type="contour"/>
    <polygon style="fill: white" points="39.399364,38.14664 39.394221,38.198922 39.830972,38.689148 39.704442,39.029446 39.992667,39.453243 40.188452,39.66886 39.620351,39.648792 39.449479,39.715161 39.2969,40.125516 39.019261,40.245259 38.97133,40.493821 39.156592,40.772896 39.09946,41.079732 39.384752,41.543848 39.729388,41.970084 39.290928,41.93234 38.863889,42.070367 38.580847,43.070991 38.711512,43.292164 38.638232,43.538774 38.741004,43.72584 39.147912,44.296212 38.778192,44.254048 38.384757,44.352885 37.95186,45.459141 38.050204,45.656388 37.965947,45.848749 38.005196,45.932864 38.398376,46.590564 38.0533,46.532119 37.634046,46.596552 37.089636,47.625129 37.165048,47.819044 37.077447,47.958408 37.123968,48.085616 37.444204,48.775652 37.091128,48.686619 36.596951,48.701018 35.998286,49.535122 36.050883,49.736236 35.971589,49.823903 36.042475,50.113087 36.249464,50.775884 35.868092,50.635676 35.276564,50.56049 34.675421,51.16298 34.700124,51.346696 34.633161,51.400724 34.696735,51.918375 34.794652,52.496888 34.377411,52.289116 33.73121,52.092559 33.169104,52.510361 33.172144,52.675448 33.115512,52.709573 33.123034,53.468064 33.14322,53.93192 32.696795,53.647259 32.029542,53.328048 31.53306,53.605992 31.519875,53.753424 31.46839,53.776814 31.375471,54.741924 31.351086,55.091944 30.891777,54.727483 30.240105,54.300693 29.815312,54.480357 29.790294,54.610868 29.73905,54.628352 29.522767,55.719056 29.476182,55.986672 29.028024,55.551267 28.426644,55.046399 28.000453,55.181759 28.033503,55.219632 28.014606,55.284868 27.969939,55.295436 27.648171,56.378932 27.580482,56.623156 27.1709,56.140848 26.637636,55.58832 26.236201,55.676344 26.198843,55.773932 26.166278,55.778433 25.775621,56.777872 25.678906,57.033688 25.315187,56.526747 24.85309,55.946635 24.39238,56.005306 24.35759,56.079424 24.341443,56.080145 23.913249,56.975668 23.781704,57.2525 23.460136,56.73336 23.059568,56.13341 22.542935,56.154658 22.056192,57.029775 21.895064,57.314279 21.604202,56.782292 21.247939,56.15401 20.733171,56.132853 20.177411,56.99884 20.008448,57.252492 19.738311,56.690803 19.448201,56.080043 19.432552,56.0794 19.396667,56.00357 18.939907,55.945474 18.276532,56.825615 18.111212,57.033684 17.868854,56.43198 17.622196,55.777872 17.59128,55.77394 17.573517,55.729283 17.553513,55.674761 17.153719,55.587096 16.374141,56.4523 16.209641,56.623152 16.008596,55.985663 15.818028,55.294211 15.775621,55.284912 15.765055,55.251091 15.756694,55.219568 15.791661,55.181325 15.36337,55.044972 14.499507,55.830735 14.313941,55.986692 14.169735,55.333475 14.048124,54.626248 13.999953,54.610912 13.990542,54.567979 13.97614,54.478858 13.552458,54.298674 12.689044,54.928344 12.439043,55.091948 12.362431,54.458704 12.316395,53.773002 12.270331,53.753412 12.259982,53.666744 12.256223,53.599854 11.772303,53.326794 10.98945,53.768879 10.646928,53.931919 10.63464,53.340823 10.664586,52.701745 10.617981,52.675448 10.615338,52.525543 10.617219,52.493823 10.089524,52.097412 9.436614,52.365219 8.995473,52.496896 9.03949,51.958983 9.139519,51.383756 9.090025,51.346576 9.109264,51.128565 8.572087,50.582639 8.061517,50.715604 7.540662,50.775872 7.632182,50.292032 7.792164,49.790013 7.739225,49.736212 7.791492,49.475738 7.28352,48.754224 6.909335,48.802844 6.345921,48.775635 6.474697,48.332335 6.680034,47.897041 6.625113,47.819032 6.711317,47.540091 6.268552,46.681487 5.950252,46.691724 5.391747,46.590564 5.553472,46.158616 5.794159,45.761548 5.73992,45.656368 5.860433,45.355452 5.51897,44.454328 5.144808,44.43996 4.642214,44.296252 4.847664,43.8317 5.133241,43.436387 5.07858,43.292136 5.233305,42.965994 5.012196,42.1575 4.448237,42.110728 4.060736,41.970076 4.335932,41.414152 4.690523,40.981296 4.633531,40.772908 4.749446,40.554008 4.828394,40.463097 4.787475,40.246494 4.719931,40.235444 4.493215,40.12554 4.492911,39.847792 3.800971,39.755331 3.60167,39.668852 3.989455,38.959883 4.450044,38.460303 4.39079,38.146639 4.428366,38.081911 4.458274,38.051278 4.468419,38.040888 4.948804,38.225896 5.156614,38.604192 5.717297,38.563336 5.601338,38.683984 5.379235,39.009449 6.004529,40.147728 6.070089,40.806299 6.124089,40.80756 6.075394,40.859592 6.078205,40.887824 6.068276,40.903475 6.106291,41.031516 6.474733,43.043335 6.545768,43.060924 6.65483,43.060648 6.510369,43.23792 6.524416,43.31462 6.502649,43.352485 6.648499,43.713908 7.075891,45.214481 7.182358,45.22956 7.329537,45.220096 7.152041,45.481843 7.177171,45.570076 7.159482,45.605799 7.392088,46.037472 7.891271,47.240147 8.013539,47.240999 8.171244,47.21586 8.008561,47.522733 8.04095,47.600767 8.032539,47.622062 8.321772,48.021655 8.931052,49.047062 9.049693,49.027928 9.196512,48.985288 9.080329,49.29829 9.121215,49.367102 9.423028,49.668839 10.209274,50.574951 10.314255,50.539148 10.432796,50.486136 10.373359,50.764053 10.396667,50.790913 10.685272,51.005691 11.690552,51.840098 11.76865,51.799615 11.85148,51.748816 11.834879,51.961959 12.079328,52.099331 13.305987,52.855107 13.356666,52.819728 13.408689,52.778464 13.414802,52.922088 13.588477,52.995963 14.983389,53.64343 15.018128,53.612655 15.053429,53.577592 15.069486,53.683113 15.20552,53.726568 16.65853,54.233223 16.694495,54.193888 16.731781,54.149204 16.761814,54.268135 16.924172,54.30392 18.343023,54.646455 18.387728,54.587187 18.434782,54.520972 18.490188,54.679123 18.714026,54.707752 20.048445,54.895249 20.101131,54.811736 20.157164,54.721344 20.244203,54.917048 20.523895,54.928587 21.782601,54.985409 21.836885,54.883684 21.895064,54.77846 22.006127,54.986371 22.298766,54.974307 23.541697,54.918079 23.585354,54.819655 23.632994,54.721352 23.744119,54.897595 23.99911,54.865031 25.294804,54.681999 25.323286,54.600259 25.355368,54.520984 25.451663,54.648837 25.650151,54.6051 27.023864,54.271683 27.039583,54.208824 27.058368,54.149183 27.13656,54.234845 27.286714,54.186763 28.716739,53.6872 28.725188,53.630535 28.736698,53.57756 28.812145,53.644453 28.953155,53.584104 30.364107,52.931772 30.364449,52.928876 30.370211,52.925608 30.373114,52.8512 30.38143,52.778496 30.492736,52.856127 30.689996,52.744263 31.936594,51.981834 31.936678,51.975303 31.946958,51.967554 31.937952,51.85764 31.93865,51.748836 32.115785,51.84028 32.402679,51.623996 33.390753,50.811789 33.3892,50.795808 33.405212,50.779497 33.37343,50.633988 33.357334,50.486136 33.609707,50.571182 33.968023,50.206172 34.683714,49.389355 34.676332,49.354632 34.696525,49.325951 34.634404,49.160751 34.593644,48.98526 34.902957,49.032745 35.266464,48.516439 35.77142,47.671134 35.749208,47.600836 35.769614,47.561578 35.682495,47.3987 35.6189,47.215876 35.952862,47.209037 36.261647,46.61498 36.651374,45.667029 36.612976,45.570091 36.629894,45.526363 36.534816,45.386932 36.460604,45.22008 36.767656,45.170297 36.982208,44.615756 37.309514,43.41127 37.265676,43.314635 37.276312,43.277254 37.199051,43.182828 37.135276,43.0607 37.355187,43.000027 37.463779,42.618348 37.731454,40.92777 37.711932,40.8879 37.714647,40.874385 37.688703,40.846815 37.66602,40.807592 37.732935,40.783342 37.754028,40.678332 37.785624,40.147624 38.13857,40.636337 38.614704,40.463784 38.705303,39.569476 38.470643,39.324783 38.072872,38.563328 38.190107,38.508128 38.821346,38.424018 38.841419,38.225868 39.238531,38.055552 39.32174,38.040884" slic3r:type="contour"/>
  </g></svg>