<svg width="43.790126" height="63.590156" xmlns="http://www.w3.org/2000/svg" xmlns:svg="http://www.w3.org/2000/svg" xmlns:xlink="http://www.w3.org/1999/xlink" xmlns:slic3r="http://slic3r.org/namespaces/slic3r"><g xmlns="http://www.w3.org/2000/svg" slic3r:z="3.79549999999998e-005" id="layer114">
    <polygon style="fill: white" points="11.47207,56.98576 11.608179,57.583934 13.490929,57.807263 13.500255,57.800431 13.509312,57.80131 13.646974,57.68482 13.655205,57.721631 13.683501,57.818207 14.140987,57.862584 14.389423,58.273332 14.864883,59.212406 15.687629,58.520675 15.793863,58.425364 16.023909,59.202708 16.184609,59.652336 15.540643,60.252976 15.253475,60.491228 14.98385,59.717884 14.843571,59.257306 13.82936,59.147571 13.757918,59.200716 13.650797,59.186828 13.155525,59.600216 12.996884,59.71638 12.808411,59.077616 12.133802,58.990156 10.912141,58.88122 10.884845,58.791399 10.824329,58.672773 10.663786,58.775744 10.65664,58.744936 10.542029,58.119404 10.468497,57.975264 10.353634,57.499371 10.350231,57.481879 10.407452,57.445356 10.445524,57.449693 10.791149,57.224076 11.431967,56.745504" slic3r:type="contour"/>
    <polygon style="fill: white" points="9.353781,56.109968 9.470064,56.996899 9.021595,57.23684 8.367901,57.577264 8.323068,57.229136 8.225722,56.236851 8.853929,55.911192 9.310017,55.634088" slic3r:type="contour"/>
    <polygon style="fill: white" points="7.406692,54.999527 7.412401,55.692808 6.742377,55.936863 6.255048,56.115552 6.268062,55.48374 6.282309,54.760524 7.154383,54.441056 7.439249,54.319528" slic3r:type="contour"/>
    <polygon style="fill: white" points="4.069764,50.546952 4.663763,50.609691 4.529511,50.956215 4.291002,51.741762 5.095976,52.146756 5.68576,52.4617 5.55037,52.845858 5.837128,52.802708 5.901111,52.788824 5.685334,53.632159 5.616818,54.098676 4.704513,54.280624 4.430594,54.326456 4.594568,53.377901 4.097836,53.116592 3.385458,52.738748 3.495164,52.504388 3.667834,52.110223 3.648256,52.109539 3.675038,52.0717 2.965371,51.978572 3.035608,51.737791 3.442046,50.407104" slic3r:type="contour"/>
    <polygon style="fill: white" points="3.12329,47.417651 3.698463,47.71866 3.682752,47.763703 3.656349,47.831155 3.739605,47.884204 3.713391,47.916751 3.53509,48.134376 3.26709,48.757716 3.049184,49.254472 2.064579,48.862767 1.856391,48.796736 2.099216,48.223123 1.85032,48.042371 1.641891,47.863476 2.082082,47.382535 2.510221,46.9314" slic3r:type="contour"/>
    <polygon style="fill: white" points="2.914274,43.366952 2.980188,43.421476 2.803129,43.549739 2.962031,43.651468 3.011087,43.693027 2.596863,44.791912 2.240298,45.531816 1.433338,44.879192 1.093746,44.670236 1.479934,43.838601 1.440959,43.80236 1.469539,43.721384 1.140598,43.464311 0.931764,43.251476 1.398178,42.781623 1.878303,42.387832" slic3r:type="contour"/>
    <polygon style="fill: white" points="2.540771,35.033496 2.728901,35.204728 2.090729,35.478424 1.961119,35.569609 1.995875,35.758676 1.903402,35.822822 2.411295,36.538884 2.689027,37.218056 2.470157,38.042159 2.222224,38.649426 2.289198,38.719604 2.270634,38.779242 2.694419,39.133984 2.52308,39.232132 1.974208,39.697195 1.725044,40.238292 1.052622,39.321967 0.645752,38.882244 0.697263,38.837709 0.695612,38.83546 0.725914,38.808369 0.645239,38.696912 0.768731,38.345115 1.565372,35.923781 1.447602,35.78668 1.500919,35.61168 0.975559,35.141444 0.72274,34.821248 1.204473,34.462876 1.777784,34.16654" slic3r:type="contour"/>
    <polygon style="fill: white" points="2.706062,31.294474 3.072907,31.669964 2.621932,31.807073 1.955593,32.165976 1.464532,31.66788 1.096314,31.130404 1.405525,30.94816 2.194172,30.64697" slic3r:type="contour"/>
    <polygon style="fill: white" points="2.98916,27.473782 2.954004,27.593409 3.32854,28.123058 3.718947,28.575476 3.336759,28.657514 2.556304,28.976638 2.162071,28.524935 1.790419,27.902216 2.043166,27.786601 2.842112,27.566879 2.842528,27.450317 2.924806,27.413487 2.948404,27.40779" slic3r:type="contour"/>
    <polygon style="fill: white" points="4.211574,25.409426 4.539751,25.820964 4.128283,25.891804 3.357801,26.14957 2.96839,25.668221 2.651943,25.091672 2.970606,24.971276 3.801443,24.788666" slic3r:type="contour"/>
    <polygon style="fill: white" points="6.267971,18.237101 6.271177,18.30187 6.514955,18.675469 6.891612,19.120338 6.685651,19.161634 6.320411,19.296413 6.384688,20.594858 6.067917,20.908508 6.155222,21.04231 6.211342,21.11256 5.788342,21.185331 5.639006,21.333196 5.579568,21.353865 4.763923,22.397467 5.195339,23.068291 5.408553,23.344842 4.881721,23.430003 4.227435,23.629974 3.763223,23.040046 3.537878,22.622216 4.041956,22.452098 4.659873,22.325978 4.793862,21.250683 4.737349,21.160106 4.735142,20.984695 4.425991,20.605676 4.332024,20.44202 4.726657,20.310381 4.722636,19.990872 4.647135,19.499724 4.990302,19.271594 5.278439,18.943627 4.992882,18.495656 5.190186,18.43186 5.898634,18.237699 5.954755,18.17382 6.135165,18.108867 6.173986,18.098557" slic3r:type="contour"/>
    <polygon style="fill: white" points="7.538371,14.659421 7.544854,14.715433 7.698903,14.676554 8.015826,15.312817 8.273422,15.696976 8.027491,15.743534 7.676343,15.851199 7.773398,16.689542 7.243815,16.93115 7.41909,17.210673 7.526985,17.33434 6.997313,17.44343 6.368052,17.691606 5.842138,16.996602 5.633882,16.681857 6.29503,16.472956 6.258467,16.021888 6.192454,15.245101 6.278926,15.212045 6.382339,15.161556 6.300876,15.027605 6.386115,15.007872 7.02987,14.845402 7.360686,14.683884 7.51125,14.634835 7.520884,14.631755" slic3r:type="contour"/>
    <polygon style="fill: white" points="19.954344,6.949109 20.168337,7.262807 20.429138,6.978623 20.661112,6.692523 20.822114,7.017387 20.965413,7.269039 21.118902,7.098648 21.369846,6.79823 21.5214,7.107863 21.609043,7.268331 21.659049,7.193651 21.895064,6.851825 22.08693,7.140609 22.16419,7.25403 22.213026,7.15778 22.420311,6.79823 22.66504,7.065066 22.815308,7.238925 22.919333,7.038595 23.129014,6.692511 23.398561,6.977811 23.622204,7.238817 23.822131,6.927187 24.045408,6.612242 24.310715,6.950813 24.516059,7.234794 24.553632,7.228932 24.600381,7.290615 24.633712,7.24527 24.682203,7.251981 24.949487,6.930732 25.195398,6.641278 25.414213,7.020063 25.570524,7.294311 25.634294,7.293562 25.691341,7.391661 25.897699,7.420223 25.927538,7.392948 26.034605,7.412776 26.298851,7.151579 26.599404,6.856821 26.750474,7.217065 26.906567,7.564948 26.982212,7.576744 26.985336,7.583819 27.504786,7.675669 27.56663,7.62186 27.641249,7.64478 27.793324,7.511758 28.14206,7.21354 28.254835,7.55058 28.371627,7.864587 29.014549,8.048477 29.149517,8.069268 29.173712,8.049033 29.233787,8.078986 29.426143,7.926115 29.759282,7.669176 29.867486,8.057047 29.919597,8.221576 29.964963,8.231239 29.968548,8.243275 30.544509,8.290035 31.172411,8.382896 31.254364,8.323881 31.42297,8.207741 31.475207,8.426893 31.675317,8.421008 32.05287,8.432661 32.412209,8.849233 32.695293,9.143181 32.74802,9.10915 32.786081,9.178337 33.18845,8.959304 33.26213,9.328926 33.331978,9.343966 33.340913,9.384111 33.643327,9.392062 34.149504,9.489498 34.173104,9.89482 34.157246,10.136115 34.2047,10.145167 35.23208,10.527096 35.232765,10.530407 35.388649,11.283334 35.434479,11.302675 35.437465,11.322485 35.554215,11.361333 35.700708,11.432846 35.492268,11.686003 35.562713,12.153296 35.650812,12.186609 35.653583,12.206504 35.878795,12.280914 36.146784,12.40136 35.754511,12.931291 35.803955,13.286346 36.256603,13.411266 36.720728,13.569833 36.482235,13.980359 36.008216,14.602589 34.673312,14.180596 34.642587,14.170419 34.684053,14.097289 34.609008,14.105012 34.565543,13.358233 34.544359,13.081155 34.491104,13.06008 34.4796,12.971419 33.645044,12.738428 33.909032,12.444113 34.187311,12.03617 32.958415,11.623147 32.841191,11.587134 33.193758,11.324832 33.082886,11.201645 32.864856,11.416826 32.762288,11.480922 32.609942,11.034585 32.593734,10.957947 32.561304,10.901934 32.089428,10.783443 32.272916,10.6673 32.36429,10.530837 31.607028,10.416535 31.660588,10.100654 30.846858,10.095974 30.800679,10.04014 30.76161,10.066107 30.735414,9.987149 30.361644,9.707793 29.665226,9.196717 29.391799,9.401694 29.174138,9.559249 29.098307,9.362075 28.96801,8.99872 28.76542,8.94152 28.10913,8.755553 27.920974,8.911642 27.639084,9.129585 27.552232,8.938911 27.386978,8.514164 26.773416,8.295653 26.472044,8.582391 26.216258,8.801047 26.06811,8.529335 25.847949,8.021679 25.566707,7.987133 25.20614,8.413777 25.014702,8.616535 24.775958,8.266141 24.622283,7.976913 24.523734,7.976927 24.247122,8.403735 24.104362,8.602037 23.79015,8.231414 23.685913,8.081612 23.472486,8.48395 23.35894,8.6817 23.003632,8.312809 22.951816,8.251832 22.762496,8.605961 22.65712,8.796683 22.308501,8.421824 22.256432,8.362769 22.016536,8.699505 21.895064,8.8688 21.605555,8.460745 21.529081,8.353938 21.269936,8.639177 21.133,8.796679 20.902712,8.357614 20.830999,8.226517 20.564882,8.518148 20.431184,8.681703 20.215131,8.255033 20.096483,8.04304 19.80397,8.418382 19.685754,8.602036 19.455998,8.225455 19.305795,8.008719 19.116127,8.008665 18.877999,8.39759 18.775432,8.616536 18.538418,8.317978 18.259417,8.008948 17.91094,8.051504 17.679386,8.52429 17.573826,8.801061 17.375055,8.59956 17.056304,8.31363 16.36798,8.56408 16.264539,8.811164 16.151029,9.129582 15.996628,8.995978 15.692037,8.75175 15.537119,8.79549 14.816265,8.999736 14.709568,9.289191 14.616005,9.559248 14.435006,9.420834 14.152307,9.212011 13.857508,9.441607 13.053267,9.992115 13.038001,10.03794 13.028574,10.066107 12.993158,10.04188 12.943328,10.095974 12.238176,10.087149 12.183098,10.416535 11.65526,10.501773 11.538804,10.518537 11.700696,10.783441 11.381563,10.881875 11.214702,10.917987 11.20921,10.935808 11.176117,10.946635 11.027814,11.480948 10.862165,11.156072 10.762048,11.082109 10.573654,11.143749 10.660002,11.254316 10.630795,11.285092 10.926495,11.558662 10.948906,11.587164 10.149909,11.910351 9.648008,12.053363 9.931808,12.40624 10.145061,12.738475 9.71178,12.896496 9.305137,13.004211 9.299059,13.060104 9.252554,13.079685 9.181183,14.1049 9.091384,14.091494 9.147533,14.17044 8.479499,14.371386 7.781895,14.602588 7.360474,13.920281 7.069393,13.56981 7.823113,13.358051 7.951246,13.31785 7.99961,12.773368 7.829684,12.555988 7.64332,12.40141 8.126974,12.23558 8.139314,12.186647 8.150784,12.183022 8.179902,11.914805 8.27184,11.594649 8.195438,11.506047 8.089415,11.43286 8.344002,11.343361 8.355688,11.302668 8.370636,11.297562 8.383473,11.200556 8.558604,10.526392 8.565461,10.524777 8.570377,10.52362 8.570378,10.523619 8.574207,10.522718 8.574384,10.522502 9.679332,10.214361 9.682082,10.004188 9.64064,9.489498 10.434546,9.438658 10.458147,9.343955 10.500718,9.338605 10.601673,8.95931 10.880577,9.125492 10.994789,9.188717 11.042094,9.109149 11.080882,9.135503 11.737277,8.43264 12.293902,8.437383 12.295875,8.430489 12.305106,8.429562 12.321158,8.36561 12.367095,8.20775 12.623627,8.39756 13.809956,8.27837 13.825203,8.231202 13.853683,8.226531 13.909279,8.036383 14.030844,7.669175 14.324069,7.905493 14.547918,8.079818 14.616429,8.049038 14.644509,8.07355 15.4095,7.854713 15.485901,7.635018 15.648093,7.213539 15.907822,7.442819 16.14247,7.645034 16.223493,7.621857 16.27823,7.671314 16.807105,7.578387 16.807872,7.576708 16.8741,7.567553 17.01429,7.240889 17.19072,6.856819 17.46203,7.125649 17.75335,7.412125 17.862572,7.392934 17.897925,7.426027 18.094052,7.398916 18.155871,7.293534 18.222473,7.293197 18.413235,6.961551 18.594712,6.641279 18.859832,6.961951 19.105413,7.253263 19.15642,7.245262 19.190121,7.290277 19.236592,7.22882 19.289176,7.234695 19.542666,6.903412 19.744718,6.612237" slic3r:type="contour"/>
    <polygon style="fill: white" points="36.429064,14.683842 36.714771,14.821049 37.48924,15.027591 37.46152,15.078756 37.414799,15.157228 37.597636,15.245033 37.548691,15.841709 37.495394,16.486123 37.856019,16.599007 38.156255,16.681879 37.809863,17.121028 37.421936,17.691582 36.493852,17.42894 36.263112,17.334288 36.526987,16.883504 36.309472,16.781844 36.016704,16.689486 36.120983,16.251589 36.150493,15.892056 35.516711,15.69697 35.661207,15.385756 36.091244,14.676561 36.247302,14.712564 36.251664,14.659415 36.264436,14.637633 36.269112,14.631805" slic3r:type="contour"/>
    <polygon style="fill: white" points="37.835396,18.173814 37.918343,18.257922 38.154432,18.332498 38.797248,18.495636 38.688248,18.623454 38.522969,18.871009 39.142992,19.499708 39.096965,20.347343 39.309211,20.413727 39.458104,20.442028 39.06836,20.874167 39.052835,21.160068 39.04149,21.177122 39.140468,22.334672 39.86584,22.560176 40.252232,22.622182 39.955495,22.968386 39.56274,23.629932 38.727259,23.459249 38.381587,23.34486 38.681587,22.850504 39.028013,22.38408 38.373643,21.469749 38.299941,21.387696 38.151244,21.333188 38.053897,21.230428 37.675307,21.146559 37.57876,21.112532 37.722231,20.880319 37.601391,20.752759 37.405367,20.5947 37.5262,19.902834 37.524896,19.363079 36.898516,19.12037 37.04238,18.886161 37.522265,18.273984 37.522176,18.237111 37.591631,18.128254 37.616168,18.098558" slic3r:type="contour"/>
    <polygon style="fill: white" points="40.592907,24.997817 41.13818,25.091654 40.933507,25.32845 40.43234,26.149528 39.731651,25.996646 39.250372,25.820996 39.485212,25.440285 39.988656,24.788643" slic3r:type="contour"/>
    <polygon style="fill: white" points="40.947616,27.450234 40.965131,27.585391 41.391792,27.764502 41.999716,27.902307 41.811272,28.108354 41.233684,28.976688 40.571388,28.799731 40.071176,28.575462 40.303864,28.219247 40.841265,27.579709 40.801072,27.473672 40.827228,27.426519 40.841812,27.407716" slic3r:type="contour"/>
    <polygon style="fill: white" points="42.147164,30.946574 42.69382,31.130486 42.411927,31.407462 41.834532,32.166022 41.111739,31.903708 40.717228,31.67001 41.024163,31.245862 41.596024,30.647116" slic3r:type="contour"/>
    <polygon style="fill: white" points="42.727464,34.659008 43.067384,34.821287 42.531947,35.289996 42.28779,35.56938 42.3424,35.786919 42.23948,35.896148 42.689843,37.040007 43.144892,38.69696 43.11974,38.7569 43.073032,38.817542 43.094551,38.835411 43.087465,38.846542 43.14438,38.88216 43.123395,38.899008 42.937635,39.081913 42.453123,39.843036 42.065084,40.238292 41.906547,39.811529 41.647172,39.647207 41.09572,39.133915 41.239599,38.979768 41.512253,38.750146 41.500904,38.719592 41.599432,38.605904 41.101096,37.218284 41.674003,36.358704 41.927392,35.859167 41.79432,35.758892 41.829943,35.630406 41.229572,35.335636 41.061212,35.204728 41.542644,34.602615 42.01234,34.16654" slic3r:type="contour"/>
    <polygon style="fill: white" points="42.615308,43.057412 42.858372,43.25142 42.311013,43.679693 42.349172,43.802359 42.325936,43.82231 42.5541,44.2994 42.69638,44.670303 42.139979,45.164032 41.549828,45.53184 40.838231,43.819355 40.779036,43.69298 40.959234,43.578824 40.949216,43.567991 40.962617,43.553862 40.848012,43.46424 40.809928,43.421504 41.424904,42.79048 41.911752,42.387808" slic3r:type="contour"/>
    <polygon style="fill: white" points="41.937303,47.641959 42.148268,47.863428 41.683687,48.204512 41.849308,48.5954 41.933736,48.796812 41.197616,49.105595 40.74086,49.254495 40.255151,48.132674 40.05052,47.884264 40.080248,47.868948 40.135794,47.833043 40.091664,47.718724 40.13522,47.697619 40.618599,47.449528 40.759867,47.33562 41.279776,46.931376" slic3r:type="contour"/>
    <polygon style="fill: white" points="40.529216,51.033152 40.82478,51.978516 40.690936,52.002839 40.121985,52.080503 40.141859,52.109519 40.130064,52.109915 40.404664,52.738748 39.474008,53.229327 39.197974,53.375173 39.31334,54.042796 39.359524,54.326468 38.621632,54.176032 38.173308,54.098676 37.902552,52.88128 37.889016,52.788824 38.252631,52.83927 38.162135,52.586911 38.104356,52.461704 38.743003,52.183628 39.486809,51.769118 39.465275,51.709003 39.12636,50.609672 39.561223,50.509428 40.348096,50.407116" slic3r:type="contour"/>
    <polygon style="fill: white" points="37.020251,54.556768 37.507776,54.760592 37.524744,55.5859 37.535016,56.115584 37.040088,55.935416 36.377711,55.692796 36.347152,54.737404 36.3509,54.319512" slic3r:type="contour"/>
    <polygon style="fill: white" points="34.928203,55.858239 35.564287,56.236684 35.485084,56.853756 35.422263,57.57724 35.165432,57.439452 34.3201,56.996872 34.389976,56.317547 34.480108,55.634088" slic3r:type="contour"/>
    <polygon style="fill: white" points="32.577642,56.884328 33.347716,57.450074 33.38253,57.445348 33.42833,57.473736 33.439862,57.481948 33.321428,57.975976 33.226707,58.169323 33.126282,58.775772 33.105471,58.760475 32.978143,58.676702 32.877936,58.881248 30.964027,59.09613 30.835257,59.535376 30.793244,59.716396 30.165831,59.185746 30.032318,59.200736 29.975528,59.157137 28.945526,59.257864 28.635897,60.150212 28.536662,60.491216 28.020088,60.00422 27.605596,59.6525 27.941112,58.578307 27.996268,58.425348 28.650988,58.967012 28.929415,59.214805 29.39722,58.469952 29.649159,57.862564 29.957718,57.838847 30.102705,57.82207 30.143124,57.684824 30.174958,57.708724 30.285119,57.800959 30.289821,57.800415 30.307491,57.813058 31.266526,57.732615 32.16004,57.611313 32.358184,56.745488" slic3r:type="contour"/>
    <polygon style="fill: white" points="26.430175,59.485975 26.806458,59.871708 26.485307,60.637544 26.31479,61.091912 25.919786,60.6643 25.433016,60.17922 25.7925,59.267543 25.917456,58.979076" slic3r:type="contour"/>
    <polygon style="fill: white" points="24.295973,59.828563 24.695366,60.316584 24.358217,60.970756 24.106044,61.48408 23.795694,61.086544 23.300332,60.484144 23.700244,59.689015 23.889962,59.332451" slic3r:type="contour"/>
    <polygon style="fill: white" points="18.122511,59.634299 18.357068,60.179363 17.835417,60.73986 17.475322,61.0919 17.223622,60.493888 16.983667,59.871728 17.673385,59.184088 17.872672,58.979076" slic3r:type="contour"/>
    <polygon style="fill: white" points="20.180554,59.900544 20.489796,60.48416 20.057692,61.035455 19.684083,61.484088 19.438214,61.007976 19.09476,60.31666 19.657152,59.629387 19.900144,59.332452" slic3r:type="contour"/>
    <polygon style="fill: white" points="22.224586,59.974208 22.597132,60.536588 22.225724,61.116815 21.895064,61.626955 21.633625,61.218263 21.192996,60.53658 21.658489,59.814984 21.895063,59.45874" slic3r:type="contour"/>
  </g></svg>