<svg width="43.790126" height="63.590156" xmlns="http://www.w3.org/2000/svg" xmlns:svg="http://www.w3.org/2000/svg" xmlns:xlink="http://www.w3.org/1999/xlink" xmlns:slic3r="http://slic3r.org/namespaces/slic3r"><g xmlns="http://www.w3.org/2000/svg" slic3r:z="1.0895e-005" id="layer32">
    <polygon style="fill: white" points="37.70818,26.050784 38.080382,26.241102 38.629932,26.24459 38.579416,26.36811 38.555378,26.483981 38.779535,26.5986 38.663643,26.73493 38.462416,26.932121 38.459128,26.947969 38.304524,27.158295 38.133559,27.885528 38.72606,27.957912 39.334032,28.07008 39.256435,28.352812 39.184105,28.628469 39.612571,28.921554 39.371339,29.108758 39.013447,29.421027 38.821013,30.154697 38.857956,30.183142 38.857468,30.188778 38.855596,30.199195 38.815092,30.17727 38.786756,30.285308 38.1131,30.14761 37.614456,30.097793 37.84007,29.12661 37.570379,28.966349 37.27264,28.814428 37.587776,28.508984 38.045357,28.079617 38.066129,27.999068 37.457688,27.994016 36.920272,27.877964 37.095977,27.148132 36.890452,27.056076 36.58986,26.979666 36.935348,26.643725 37.340812,26.138112 37.377115,25.99684" slic3r:type="contour"/>
    <polygon style="fill: white" points="37.141588,20.785498 37.592868,21.038336 37.394051,21.327274 37.214022,21.569539 37.727856,22.388212 37.400227,22.63323 36.961109,23.076665 37.499,23.250238 37.734592,23.400566 37.14704,23.823509 36.960514,23.977602 37.497712,24.205042 37.918776,24.243616 37.789939,24.525084 37.739984,24.788407 38.127768,24.969282 37.96302,25.193095 37.565629,25.584638 37.381137,25.816983 37.345897,25.991753 37.37569,25.996607 36.486731,25.939496 36.144092,25.83657 36.228776,25.49922 36.122192,25.448122 35.995384,25.399986 36.316878,25.148253 36.405176,24.796506 36.551802,24.62469 36.670673,24.199316 36.033248,23.947728 35.646844,23.67525 36.140208,23.390148 36.613928,23.01364 36.20624,22.564732 35.635908,21.797536 35.689799,21.770864 35.776859,21.671821 35.610948,21.565848 35.688983,21.45659 36.48096,20.443914" slic3r:type="contour"/>
    <polygon style="fill: white" points="21.962095,0.195933 22.059788,0.334909 22.069675,0.334356 22.084327,0.35532 22.69592,0.390552 22.969357,0.405857 22.986498,0.386891 22.990605,0.387707 23.185722,0.177391 23.238908,0.280106 23.315479,0.425229 23.326307,0.425835 23.343265,0.457762 23.949619,0.57821 24.221421,0.630332 24.471562,0.429917 24.51092,0.54108 24.566638,0.696532 24.580122,0.699118 24.599003,0.749457 25.138165,0.952916 25.417769,1.053619 25.733096,0.875002 25.758887,1.00599 25.794183,1.189187 25.812668,1.195845 25.832136,1.281888 26.20234,1.509004 26.512063,1.687205 26.947764,1.529631 26.955229,1.701813 26.961965,1.94606 26.989314,1.961795 27.002492,2.123794 27.093293,2.209949 27.458646,2.526011 27.500055,2.515744 28.083476,2.401512 28.059472,2.645635 28.012339,3.005005 28.05377,3.040847 28.041126,3.278531 28.276417,3.556472 28.652477,3.510794 29.14203,3.478445 29.06772,3.815386 28.930528,4.329149 28.983728,4.391993 28.942766,4.629339 29.010726,4.629183 29.150072,4.635045 29.242607,4.751486 29.766519,4.738484 30.138528,4.751754 29.996629,5.190014 29.865057,5.534739 30.277713,6.054001 30.459076,6.077699 30.519148,6.170853 30.83591,6.186482 31.088228,6.216077 30.877826,6.727052 31.210996,7.243694 31.553224,7.737613 31.667946,7.758676 31.697983,7.818106 31.849875,7.834646 31.998014,7.860572 31.862537,8.143689 32.059041,8.532487 32.584648,9.479783 32.659354,9.494762 32.675772,9.537432 32.76029,9.550569 32.866112,9.573175 32.764927,9.769137 32.920531,10.173539 33.342651,11.139403 33.44701,11.15941 33.4646,11.222104 33.569527,11.24337 33.739576,11.284531 33.574319,11.613151 33.879469,12.700734 34.087984,12.738902 34.108602,12.859624 34.313735,12.913769 34.725404,13.029567 34.594524,13.368426 34.447554,13.627429 34.557536,13.71142 34.530567,13.796556 34.823039,13.955972 35.443192,14.181969 35.339436,14.904994 35.530368,14.978751 35.524385,15.013235 35.693735,15.072463 35.945148,15.192361 35.831208,15.715325 35.669135,16.094 35.764516,16.160874 35.757113,16.181752 35.913556,16.28936 36.607824,16.674292 36.322444,17.130223 36.152837,17.64374 36.682296,17.882762 37.06398,18.111267 36.939091,18.48024 36.806772,18.745379 37.346672,19.229308 37.117451,19.452196 36.558292,20.292184 35.911523,19.803359 35.315432,19.316588 35.390232,19.236997 35.488857,19.094687 35.522322,19.039871 35.205772,18.890328 35.368888,18.545293 35.677524,17.889309 35.707325,17.755721 35.137192,17.480964 34.680792,17.2108 34.814372,16.890541 34.978887,16.504576 34.951276,16.493021 34.974775,16.33791 34.487759,16.136603 34.149324,16.038771 34.284273,15.682351 34.25324,15.670024 34.271077,15.561184 34.046728,15.489954 33.829072,15.382591 33.83216,14.658001 33.890546,14.154482 33.84576,14.139745 33.821744,14.042457 33.284735,13.865285 32.834176,13.790368 32.824156,13.737168 32.821518,13.697671 32.74648,13.688302 32.775436,13.66232 32.788082,13.628195 32.34391,12.447998 32.26689,12.117009 32.239732,12.108931 32.198026,12.028616 32.035238,11.98321 31.674796,11.943706 31.874672,11.777053 31.972352,11.594024 31.632831,10.94019 31.450515,10.451201 31.427172,10.4453 31.38145,10.373972 31.321145,10.357876 30.910778,10.318545 31.061546,10.165302 31.148523,10.010601 30.516266,9.024268 30.375874,8.750245 30.367101,8.748535 30.348162,8.723862 30.162916,8.710956 30.211198,8.649384 30.243562,8.587592 29.802592,8.013114 29.603714,7.217141 29.453884,7.1993 29.353592,7.200398 29.522588,6.892451 29.507027,6.83017 29.513776,6.815087 29.14525,5.882448 28.762828,5.871383 28.507198,5.891798 28.677231,5.493928 28.838176,4.983767 28.818615,4.92588 28.821868,4.916522 28.739489,4.755526 28.670192,4.68534 28.650796,4.687251 28.630069,4.673128 28.02658,4.718989 27.643888,4.78572 27.733844,4.489577 27.821642,4.072673 27.405163,3.740868 27.370395,3.723006 27.250088,3.747741 26.768074,3.891456 26.800026,3.698018 26.821767,3.441155 26.618674,3.336818 26.17664,3.064804 25.87361,3.202284 25.87415,3.097904 25.86484,2.944025 25.224648,2.698903 25.056313,2.619805 24.935496,2.697256 24.927775,2.651994 24.911387,2.57595 24.038583,2.338362 23.988524,2.321776 23.95327,2.351979 23.939052,2.31116 22.943688,2.145153 22.936161,2.153518 22.930723,2.143292 21.89965,2.084651 21.895064,2.091185 21.890193,2.084478 20.859615,2.143006 20.853964,2.153518 20.845322,2.144504 19.898087,2.300174 19.853285,2.309057 19.83686,2.351981 19.824454,2.342443 19.796673,2.319377 19.008542,2.523588 18.885443,2.564504 18.854634,2.697257 18.811504,2.674058 18.707578,2.61066 18.184381,2.790386 17.94106,2.906025 17.916514,3.202286 17.807863,3.165499 17.528826,3.048579 17.38006,3.113647 16.990598,3.359112 17.02205,3.891459 16.80514,3.854096 16.311055,3.725498 15.974739,4.001546 16.066863,4.351196 16.146238,4.785691 15.795125,4.771487 15.143891,4.683501 15.13938,4.687204 15.096118,4.684276 15.036793,4.746154 14.959687,4.889392 14.971507,4.925954 14.956979,4.959852 15.20364,5.61219 15.282911,5.891795 14.786604,5.926451 14.546587,5.917408 14.287448,6.522048 14.2393,6.723996 14.283102,6.830143 14.278329,6.843463 14.398559,7.094178 14.436558,7.200398 14.131542,7.253055 14.040363,7.507482 13.987549,8.013113 13.640982,8.406641 13.550494,8.548583 13.627208,8.710961 13.5302,8.740313 13.38477,8.758948 13.363337,8.764785 12.868507,9.459451 12.655626,9.874589 12.680488,9.909314 12.879357,10.318532 12.608962,10.423388 12.281764,10.475016 12.234586,10.492286 12.074137,10.798814 11.825206,11.421483 11.997394,11.653258 12.115323,11.94371 11.786624,12.08934 11.489176,12.13696 11.454781,12.152702 11.058686,13.397402 11.02104,13.531732 11.043646,13.688302 10.996565,13.70945 10.963635,13.714187 10.955952,13.790365 10.895943,13.7897 10.807872,13.798489 10.429811,13.999898 9.95231,14.091181 9.944407,14.139735 9.86315,14.176149 9.893011,14.680183 9.961066,15.382553 9.538715,15.518831 9.536653,15.686377 9.595235,15.843092 9.640774,16.038813 9.229237,16.262577 8.82007,16.388847 8.83887,16.493018 8.809367,16.506667 9.109325,17.210852 8.522473,17.495296 8.090452,17.730013 8.100435,17.76669 8.121551,17.906145 8.35684,18.403493 8.584365,18.890284 8.455949,18.962621 8.285406,19.044348 8.474676,19.31665 8.281756,19.463027 7.231822,20.292252 6.742166,19.770151 6.443467,19.229268 6.671043,19.003014 7.014622,18.699462 6.726142,18.111258 7.208551,17.897261 7.481479,17.751488 7.47821,17.743361 7.591222,17.683112 7.275827,17.133852 7.182293,16.674267 7.582895,16.348539 8.157894,16.039949 8.015379,15.57875 7.845014,15.192287 8.261143,15.045858 8.259783,14.978739 8.346352,14.947987 8.28756,14.61795 8.34695,14.181962 8.820146,13.838984 9.257107,13.686737 9.378153,13.564929 9.322241,13.439611 9.064712,13.029577 9.658001,12.872184 9.702141,12.738917 9.84179,12.7123 10.002505,12.042113 10.203453,11.521337 10.158418,11.438396 10.050534,11.284547 10.315456,11.231073 10.343113,11.159398 10.421094,11.14462 10.575812,10.732689 11.023794,9.733356 10.987085,9.666269 10.924037,9.573185 11.107859,9.545831 11.130736,9.4948 11.191415,9.483324 11.377859,9.116096 11.930382,8.108459 11.870655,7.9899 11.792111,7.860573 12.081511,7.832843 12.12218,7.758676 12.217881,7.742746 12.639181,7.096099 12.920453,6.68208 12.814791,6.43745 12.701897,6.216048 13.248752,6.198837 13.331074,6.077662 13.484163,6.060745 13.930013,5.505677 13.785939,5.083147 13.651614,4.751739 14.101258,4.771005 14.532027,4.764807 14.639999,4.63505 14.852771,4.629776 14.80639,4.391902 14.866646,4.313702 14.776509,3.929253 14.648096,3.478427 14.979095,3.524428 15.471296,3.566003 15.749782,3.23202 15.736325,3.040838 15.790706,2.990333 15.706651,2.401513 15.937857,2.462784 16.280411,2.53554 16.347697,2.473051 16.791932,2.085504 16.800776,1.961774 16.83306,1.942134 16.842364,1.529631 16.999095,1.596701 17.247171,1.690214 17.638771,1.451987 17.962098,1.265383 17.977516,1.195755 17.997008,1.188419 18.057024,0.874981 18.170385,0.945558 18.356237,1.053212 18.918856,0.841456 19.193857,0.742347 19.210078,0.699031 19.222684,0.696529 19.318564,0.429923 19.408992,0.506586 19.543994,0.616156 19.547637,0.614844 19.563766,0.628821 20.183243,0.505851 20.448233,0.455039 20.463818,0.425836 20.472887,0.425313 20.604404,0.177392 20.682033,0.264006 20.796402,0.388277 20.80359,0.386899 20.820042,0.405311 21.436162,0.369809 21.706149,0.354701 21.720444,0.334357 21.728425,0.334817 21.895064,0.098938" slic3r:type="contour"/>
    <polygon style="fill: white" points="7.752578,21.071502 8.179183,21.565842 8.128254,21.59321 8.026233,21.657038 8.15423,21.797466 8.031878,21.935954 7.166947,22.999778 7.813487,23.392536 8.14328,23.67525 7.691358,23.829544 7.120074,24.195359 7.238671,24.61128 7.384948,24.79652 7.445935,25.07235 7.699625,25.285599 7.794741,25.400012 7.544849,25.519723 7.566043,25.615582 7.646023,25.836622 7.102435,25.812902 6.680296,25.929682 6.55733,25.980518 6.545904,25.96686 6.414488,26.003215 6.439909,26.115026 6.957173,26.654295 7.200231,26.97971 6.686777,27.200902 6.746244,27.462479 6.869821,27.877978 6.513763,27.85168 5.722405,27.992394 5.746185,28.083792 6.233969,28.55188 6.517475,28.81447 5.978211,29.128383 6.073749,29.498131 6.175656,30.09786 5.86599,30.173228 5.00334,30.285403 4.982386,30.196098 4.934527,30.19902 4.932184,30.183074 4.934319,30.181131 4.972944,30.155858 4.812267,29.471041 4.557935,29.265612 4.177567,28.921488 4.42396,28.722986 4.598354,28.60716 4.456103,28.070022 4.754609,28.037848 5.652084,27.88795 5.420097,27.058336 5.330997,26.947952 5.313966,26.87782 5.010593,26.59856 5.147668,26.539746 5.222376,26.500649 5.160191,26.244572 5.3455,26.206714 5.83817,26.178387 6.082063,26.05075 6.343978,26.006099 6.444202,25.992631 6.375344,25.762984 6.19385,25.54604 6.171233,25.454698 6.089073,25.352937 5.662361,24.969282 5.857646,24.930316 6.021792,24.851181 5.871352,24.243628 6.338825,24.036858 6.762709,23.948039 6.263412,23.573077 6.055529,23.40059 6.618229,23.298408 6.871211,23.141127 6.374992,22.73949 6.062262,22.388252 6.314595,22.087274 6.604442,21.588112 6.197263,21.038296 6.565033,20.850204 7.309183,20.4439" slic3r:type="contour"/>
    <polygon style="fill: white" points="4.994007,30.514688 5.540366,30.914866 5.952976,31.058922 5.305162,31.595844 5.256941,31.638247 5.269386,31.715564 5.166796,31.820153 5.333625,32.59854 5.378105,33.306322 5.527334,33.389384 5.733612,33.41334 5.403554,33.711248 5.40962,33.807768 5.343579,33.88682 5.437005,34.433255 5.478363,35.659758 5.589856,35.710204 5.786599,35.715292 5.48973,35.996846 5.494272,36.131584 5.421544,36.229387 5.538006,36.925435 5.589108,37.939927 5.740427,37.998204 6.028123,38.000864 5.61299,38.414043 5.62459,38.644339 5.519921,38.797719 5.758988,39.953768 5.784753,40.212581 6.008567,40.285628 6.407354,40.2949 5.977748,40.753939 5.855474,40.922989 5.884073,41.210271 5.77083,41.388775 6.09501,42.480665 6.442283,42.566652 6.908071,42.565476 6.59327,42.951779 6.305357,43.400437 6.351091,43.65016 6.258125,43.811878 6.616624,44.700251 7.059396,44.76296 7.559416,44.730816 7.30867,45.100583 6.98071,45.705436 7.041773,45.919828 6.981679,46.041189 7.391767,46.802235 7.872985,46.805588 8.380705,46.72466 8.171109,47.120024 7.887205,47.785479 7.961234,47.963836 7.934158,48.032394 8.421915,48.70626 8.892551,48.63036 9.385281,48.487252 9.217118,48.940288 9.025864,49.58904 9.107763,49.726875 9.104121,49.740196 9.697498,50.333423 10.144285,50.181048 10.597062,49.97856 10.4838,50.508163 10.395085,51.06895 10.459076,51.142698 11.186315,51.683903 11.587733,51.475827 11.988148,51.230252 11.940971,51.836019 11.926004,52.270796 12.816532,52.771247 13.167715,52.526091 13.516653,52.24932 13.54468,52.907848 13.569091,53.21754 14.516213,53.62041 14.825603,53.346335 15.133992,53.04002 15.235099,53.704476 15.283122,53.964667 16.217004,54.262978 16.500396,53.953027 16.789028,53.60714 16.94175,54.211908 17.031969,54.530096 17.923395,54.726578 18.192919,54.369256 18.471594,53.977092 18.653598,54.496604 18.811533,54.915253 19.647051,55.022116 19.904832,54.613511 20.175262,54.177256 20.37145,54.61838 20.605471,55.122212 21.395057,55.154791 21.636984,54.701443 21.895064,54.234672 22.107313,54.632007 22.392498,55.156779 23.175254,55.12451 23.385003,54.65164 23.614894,54.17726 23.871038,54.5835 24.148977,55.02804 24.962151,54.924194 25.128651,54.446344 25.31854,53.9771 25.640392,54.404432 25.882473,54.735218 26.7361,54.547116 26.85577,54.068551 27.001105,53.607131 27.394113,54.037687 27.598784,54.272235 28.452439,53.99888 28.45371,53.993103 28.484448,53.979949 28.555585,53.5028 28.656136,53.040004 29.102439,53.435707 29.306867,53.627975 30.158912,53.263323 30.159537,53.258024 30.198188,53.236105 30.217658,52.736995 30.273436,52.249348 30.730639,52.568227 31.008927,52.776341 31.792344,52.33207 31.792432,52.325199 31.842137,52.287729 31.798589,51.756299 31.801962,51.230259 32.241727,51.457283 32.641669,51.684978 33.316261,51.17642 33.3148,51.161384 33.375955,51.099087 33.25456,50.543304 33.193084,49.97856 33.599907,50.115651 34.132522,50.32839 34.689606,49.7609 34.682372,49.726867 34.750139,49.630615 34.541656,49.076195 34.40486,48.48724 34.776664,48.54432 35.410671,48.692438 35.858232,48.05675 35.828908,47.963944 35.894597,47.837569 35.614152,47.31324 35.409428,46.724684 35.753108,46.717648 36.445207,46.77828 36.81022,46.076051 36.74834,45.919832 36.805811,45.771289 36.482816,45.297624 36.230716,44.730812 36.567011,44.676288 37.235555,44.660545 37.540185,43.873179 37.439023,43.65018 37.484453,43.490505 37.154448,43.08718 36.882028,42.565536 37.244944,42.465412 37.792321,42.408414 38.049725,41.503694 37.9061,41.210364 37.937053,41.056271 37.641344,40.742032 37.38276,40.2949 37.821944,40.135739 38.131554,40.087988 38.350443,38.998291 38.165528,38.644308 38.182013,38.53781 37.965596,38.3256 37.762036,38.000872 38.300898,37.769767 38.435992,36.897016 38.444421,36.390402 38.295816,36.1316 38.304132,36.072192 38.155191,35.934747 38.00352,35.715324 38.380852,35.524161 38.48926,34.749763 38.514185,34.008951 38.3805,33.807731 38.387148,33.766783 38.2308,33.630652 38.056512,33.413287 38.488599,33.142 38.687527,31.916901 38.52076,31.715596 38.528729,31.681874 38.217624,31.431115 37.837152,31.058941 38.084696,30.855257 38.811663,30.484621 38.839396,30.367272 39.4741,30.50846 40.052659,30.854641 39.991588,31.190224 39.940263,31.358699 39.958516,31.374721 39.950075,31.471358 40.18478,31.657568 40.044432,31.72396 39.920015,31.815478 39.840235,32.728774 39.699709,33.384545 39.799948,33.490078 39.786032,33.804742 40.325904,34.2836 39.980656,34.358428 39.755756,34.489409 39.747408,34.678175 39.580241,35.706607 39.714544,35.869848 39.696035,36.223581 40.212268,36.734736 39.869676,36.754943 39.663164,36.851797 39.63928,37.308244 39.483783,38.309207 39.587528,38.450547 39.563228,38.697568 39.918268,39.088568 39.680152,39.08016 39.51945,39.142578 39.39038,40.454615 39.282066,41.016317 39.331928,41.091428 39.312018,41.198359 39.486096,41.413656 39.368083,41.403496 39.267786,41.435913 38.906395,43.376812 38.846439,43.588769 38.864548,43.61942 38.853142,43.657804 38.925028,43.758568 38.873787,43.752728 38.820995,43.765989 38.19496,45.872783 38.155404,45.973865 38.163492,45.990087 38.156177,46.006785 38.192127,46.06692 38.134141,46.057096 37.277692,48.012395 37.213918,48.132887 37.22236,48.154596 37.211747,48.171481 37.253612,48.261692 37.214084,48.251724 37.160324,48.253289 36.16462,49.837371 36.027777,50.028031 36.037928,50.066843 36.019836,50.086846 36.076252,50.267496 36.002647,50.240436 35.893468,50.226558 34.8625,51.366391 34.609933,51.619525 34.616796,51.670568 34.592316,51.690319 34.643056,51.990116 34.527139,51.932391 34.356586,51.880514 33.41604,52.639376 33.024778,52.930193 33.025834,52.987516 32.997548,53.00456 33.015792,53.423796 32.860781,53.324951 32.640628,53.219632 31.850359,53.695828 31.321095,53.992122 31.315874,54.050512 31.284981,54.064547 31.249024,54.580632 31.067115,54.436287 30.821208,54.275238 30.180391,54.56636 29.541967,54.836378 29.531412,54.89144 29.497946,54.902858 29.398896,55.471852 29.20983,55.288168 28.966746,55.084095 28.413026,55.273015 27.722523,55.492321 27.708053,55.542272 27.679547,55.549015 27.525074,56.106348 27.352437,55.903059 27.135066,55.677835 26.555387,55.81498 25.869326,55.965416 25.854168,56.005012 25.835475,56.007595 25.64321,56.516136 25.495638,56.310456 25.31201,56.079932 24.648972,56.171556 23.999627,56.254249 23.986215,56.28282 23.978947,56.283145 23.764246,56.734968 23.6403,56.534872 23.486905,56.305124 22.752556,56.337927 22.140781,56.363087 21.895064,56.796952 21.786275,56.597975 21.652167,56.36147 20.916016,56.3285 20.313141,56.303721 20.02589,56.734948 19.92177,56.518452 19.809949,56.28304 19.803916,56.282792 19.787516,56.248137 19.129652,56.156852 18.49634,56.0763 18.146876,56.51612 18.048547,56.271999 17.948474,56.006614 17.935931,56.005019 17.915839,55.954509 17.357176,55.821916 16.681538,55.673764 16.265036,56.10634 16.180304,55.837664 16.099986,55.546243 16.082113,55.542324 16.061692,55.476952 15.559435,55.305576 14.855663,55.08152 14.391216,55.471852 14.330384,55.196296 14.279083,54.897956 14.258763,54.891487 14.242543,54.817492 13.688645,54.566972 13.00577,54.276559 12.541106,54.580636 12.510765,54.329851 12.492533,54.05829 12.474291,54.050532 12.464821,53.971226 11.751694,53.544675 11.188278,53.226758 10.774342,53.423796 10.770075,53.218551 10.780473,52.996646 10.764291,52.987515 10.762887,52.907898 9.85897,52.185568 9.470316,51.893608 9.147066,51.990096 9.159295,51.840651 9.187085,51.680841 9.173335,51.670512 9.179782,51.597461 8.140414,50.461356 7.925534,50.242977 7.713873,50.267468 7.731537,50.174087 7.762413,50.0772 7.752195,50.066816 7.763996,50.008006 6.741527,48.401396 6.646925,48.267024 6.536516,48.261692 6.550933,48.212063 6.573922,48.163329 6.567773,48.154595 6.579046,48.118119 5.726423,46.183599 5.673287,46.080557 5.597996,46.06692 5.611298,46.031391 5.631092,45.998735 5.626631,45.990084 5.638778,45.959755 5.062037,43.97954 4.992064,43.794879 4.865102,43.758576 4.893573,43.694196 4.933153,43.639409 4.925577,43.619416 4.95608,43.55512 4.680637,41.904847 4.573003,41.511285 4.304036,41.413656 4.378099,41.264043 4.473528,41.147552 4.45819,41.091468 4.55009,40.917916 4.491171,39.978028 4.363434,39.301851 3.87186,39.088552 4.034395,38.791395 4.227446,38.582003 4.20261,38.450532 4.401379,38.10812 4.245201,37.035039 4.087755,37.001564 3.577859,36.734708 3.830161,36.326867 4.103562,36.061861 4.075604,35.869767 4.273295,35.567038 4.149558,34.659217 3.923035,34.581795 3.464207,34.283588 3.739211,33.899724 4.013768,33.662962 3.990199,33.490046 4.153182,33.276906 3.922735,31.913702 3.605349,31.657556 3.727348,31.514489 3.840562,31.427607 3.831621,31.374716 3.865249,31.339194 3.737468,30.854634 3.992907,30.817512 4.950726,30.36717" slic3r:type="contour"/>
  </g></svg>