<svg width="43.790126" height="63.590156" xmlns="http://www.w3.org/2000/svg" xmlns:svg="http://www.w3.org/2000/svg" xmlns:xlink="http://www.w3.org/1999/xlink" xmlns:slic3r="http://slic3r.org/namespaces/slic3r"><g xmlns="http://www.w3.org/2000/svg" slic3r:z="2.54149999999999e-005" id="layer76">
    <polygon style="fill: white" points="18.564048,4.468379 18.603768,4.540939 18.697556,4.50256 18.87708,4.489487 18.938382,4.740965 19.06094,4.666157 19.098045,4.789404 19.188052,4.766586 19.201244,4.857377 19.16285,5.012592 19.37921,4.885263 19.456066,5.208233 19.71122,4.949615 19.833179,5.227221 19.928707,5.493551 19.991309,5.414871 20.30547,5.005359 20.457856,5.288531 20.640454,5.632551 20.785674,5.426432 21.058168,5.026738 21.228753,5.307106 21.426957,5.625092 21.499002,5.625689 21.632832,5.423253 21.895064,5.026875 22.076378,5.301349 22.291965,5.627283 22.35857,5.626732 22.484299,5.422604 22.731974,5.02673 22.926905,5.296384 23.154256,5.627464 23.264485,5.421241 23.484674,5.005364 23.688162,5.25376 23.883748,5.506781 23.918214,5.421084 24.078902,4.949602 24.275834,5.147618 24.4186,5.292197 24.410912,4.885276 24.567286,4.998549 24.624382,4.927085 24.645312,4.874973 24.60207,4.766571 24.66913,4.815669 24.72919,4.666133 24.944163,4.736068 24.961054,4.580281 24.91303,4.489484 25.193898,4.773618 25.622992,4.469143 25.65215,4.189389 25.651372,4.431006 26.094392,4.702987 26.583238,4.464649 26.576024,4.441503 26.588818,4.427815 26.608719,4.441269 26.60782,4.504333 26.607969,4.544012 26.871968,5.391176 27.143717,5.243333 27.582706,5.043139 27.675879,5.663979 27.9901,5.696501 28.132801,5.662155 28.307824,5.562554 28.332661,5.564821 28.403858,5.517065 28.464851,5.485205 28.488381,5.579035 28.542593,5.583984 28.668024,5.565164 28.73593,5.993473 28.965054,6.279658 29.106524,6.167005 29.49388,5.903501 29.626025,6.334857 29.66905,6.514596 30.141937,6.562988 30.2637,6.561329 30.350938,6.488909 30.409612,6.498213 30.524697,6.4008 30.672836,6.285866 30.761236,6.553975 31.012926,6.593888 31.958163,6.711358 31.963255,6.707037 31.967973,6.708193 31.994026,6.686803 32.003452,6.716898 32.034634,6.724547 32.278872,6.784711 32.830322,7.240156 33.061656,7.418644 33.359268,7.186049 33.3899,7.347917 33.455309,7.722369 33.520266,7.772487 33.558648,7.924114 33.970475,8.22286 34.242904,8.056038 34.696928,7.773642 34.726528,8.024786 34.778967,8.585557 34.848396,8.614272 34.856028,8.741917 35.075569,8.856217 35.491327,8.682778 35.947636,8.502574 35.945455,8.806123 35.926236,9.294452 35.981316,9.32216 35.985569,9.578702 36.55428,9.469484 36.971308,9.402909 36.904652,9.773932 36.820254,10.15887 36.829304,10.165154 36.803067,10.378697 37.390972,10.373036 37.755896,10.385659 37.612243,10.795053 37.452746,11.189039 37.509758,11.278201 38.024508,11.346335 38.345312,11.403883 38.130331,11.822061 37.970729,12.096978 38.013556,12.194782 38.12,12.230284 38.121277,12.234659 38.486171,12.321721 38.7821,12.403024 38.512791,12.80943 38.35293,13.028628 38.370641,13.089336 38.49496,13.145575 38.827799,13.262172 39.121104,13.367574 38.813548,13.736572 38.589499,13.98778 39.054139,14.218621 39.351772,14.361356 39.001124,14.680142 38.713277,14.92869 39.156152,15.219767 39.44176,15.408852 39.043028,15.679295 38.766121,15.853529 38.76658,15.976742 39.127715,16.287143 39.343176,16.492678 38.83646,16.752504 38.779379,16.777742 38.78854,16.932996 38.807354,17.242283 38.968563,17.408685 39.057532,17.521614 38.820365,17.628658 38.831872,17.700186 38.910424,18.071251 38.686732,18.195876 38.574879,18.340846 38.593416,18.359201 38.578456,18.376237 38.852252,18.604634 38.712131,18.7209 38.057559,19.224092 38.030562,19.283294 38.10738,19.345682 38.075456,19.438362 38.696887,19.876511 38.903332,20.008212 38.584038,20.274848 38.599556,20.298192 38.519228,20.397465 38.762104,20.638586 39.123304,21.166616 39.11386,21.583231 39.095885,21.740519 39.124216,21.757596 39.129475,21.80696 39.321296,21.890304 39.242691,21.949288 39.157653,22.071478 39.257664,23.010303 39.227791,23.793336 39.380304,23.876218 39.406396,24.064858 39.748311,24.26037 40.24754,24.466842 39.918192,24.735397 39.649784,25.180266 39.787808,25.34552 39.597269,25.651744 40.431703,25.973076 41.110544,26.769596 41.178068,27.200394 41.168278,27.394908 41.208172,27.419116 41.214026,27.480245 41.400352,27.57428 41.326032,27.63646 41.242333,27.775795 41.348724,28.88665 41.191465,29.973675 41.438156,30.145701 41.435262,30.378873 42.21622,30.995356 42.51406,31.173506 42.138138,31.497732 42.272856,31.678004 42.204508,31.777298 42.554447,31.990853 42.773735,32.297374 42.6521,33.389986 42.350726,34.142219 42.537031,34.330588 42.477592,34.538992 42.784696,34.872088 43.264268,35.279172 42.831287,35.62662 42.62319,35.905416 42.763048,36.122104 42.667903,36.230419 43.141412,36.628524 43.391164,37.006996 43.085196,37.765436 42.578569,38.466667 42.737056,38.691652 42.663386,38.81796 43.016607,39.297155 43.431787,39.7697 42.89154,40.161932 42.717381,40.342433 42.838272,40.531924 42.781002,40.582602 43.177124,40.992604 43.369916,41.259752 42.913119,41.916244 42.28496,42.550104 41.747232,41.862604 41.346508,41.506235 42.001127,40.754068 42.144508,40.569164 42.107552,40.515392 42.185047,40.39148 41.73066,39.9007 41.433552,39.417888 41.690752,39.126535 42.157654,38.760149 42.100532,38.695296 42.295549,38.413246 41.981644,38.046004 41.408352,37.619076 41.890588,36.843163 42.156452,36.328517 42.05378,36.193364 42.116678,36.016164 41.614496,35.623208 41.224624,35.121668 41.393807,34.861824 41.726315,34.55854 41.64314,34.473952 41.828421,34.12607 41.684876,33.99088 40.974048,33.581336 41.349331,32.412828 41.412677,32.158864 41.223796,31.965762 41.241886,31.813726 40.817883,31.582401 40.422136,31.215978 40.587515,30.884176 40.973789,30.47848 40.826407,30.355133 40.958979,30.057782 41.043955,29.960521 40.302044,29.376996 39.770488,29.137114 39.84717,28.167636 39.703696,28.054184 39.701435,27.985052 39.50034,27.90106 39.279632,27.74761 39.538992,27.200241 39.670812,27.04864 39.626553,25.695301 39.481939,25.633973 39.3584,25.5448 39.345645,25.350372 38.768688,25.118278 38.132408,24.710832 38.200308,24.580687 38.348633,24.414412 38.28486,24.35675 38.417901,24.12584 37.724964,23.55934 37.68319,22.413895 37.54774,22.325605 37.549628,22.286706 37.43928,22.2351 37.2906,22.141023 37.576464,21.733722 37.626541,20.701818 37.432444,20.567812 37.442649,20.506833 37.227416,20.38278 36.933864,20.165143 37.267172,19.789014 37.613059,19.488626 37.621151,19.440282 37.580616,19.330858 37.615145,19.304316 37.597608,19.188595 37.558056,19.160712 37.567687,19.13445 37.268951,18.933187 36.88014,18.605414 37.1629,18.345922 37.431084,18.156766 37.428168,18.070554 37.426756,18.061227 37.427833,18.060643 37.415399,17.692739 37.002904,17.323826 37.201767,17.173002 37.381561,17.063365 37.391164,16.892756 37.404983,16.44077 37.175484,16.258708 37.279919,16.205552 37.400297,16.137241 37.406863,15.733539 37.412207,15.487798 37.235836,15.373025 37.321263,15.320127 37.396002,15.271574 37.351571,14.827942 37.342925,14.657076 37.191512,14.584114 37.256439,14.536493 37.307483,14.494856 37.17538,13.992482 37.155156,13.878864 37.043892,13.842049 37.083595,13.8042 37.115116,13.770333 36.871284,13.159957 36.854346,13.104556 36.795568,13.092247 36.828542,13.049654 36.47011,12.319835 36.46168,12.319074 36.465768,12.311454 36.285583,12.020377 36.060896,11.587416 36.032488,11.588415 36.04495,11.556587 36.02014,11.525977 35.809347,11.322327 35.505838,10.933142 35.488188,10.937919 35.488452,10.913602 34.982551,10.376901 34.908386,10.316779 34.804144,10.373154 34.772876,10.291864 34.767283,10.19738 34.212376,9.788294 34.049646,9.693416 33.784944,9.883132 33.692683,9.637902 33.672816,9.490847 33.096064,9.227607 32.85261,9.123251 32.76454,9.198931 32.55526,9.372262 32.491572,9.119168 32.472374,8.990181 31.535597,8.731616 31.395548,8.690507 31.286568,8.788533 31.272632,8.705006 31.264874,8.663812 30.910842,8.607224 30.907102,8.283791 30.947903,7.993498 30.502562,7.931093 30.488401,7.941578 30.456402,7.939908 30.212438,8.119643 30.033188,8.289164 29.986666,8.064008 29.938884,7.912899 28.852644,7.856209 28.832233,7.825509 28.812322,7.843306 28.796498,7.771761 28.784508,7.753728 28.533817,6.942503 28.481996,6.939611 28.338778,7.018737 28.171875,7.015293 27.936284,7.150392 27.646864,7.391414 27.620192,7.152589 27.580898,7.003102 26.890072,6.988851 26.803513,6.72415 26.661555,6.778444 26.585446,6.835361 26.616974,6.345265 26.544111,5.978546 26.199565,6.004301 26.192363,6.035691 26.146833,6.039609 26.1604,6.15271 25.982934,6.097837 25.936375,6.227414 25.896915,6.242053 25.91377,6.416864 25.401177,6.317631 25.362123,6.583788 25.32847,6.820898 24.83394,6.592465 24.775022,6.620307 24.704814,6.655987 24.671888,6.742159 24.65524,6.745579 24.588904,6.905351 24.533164,7.049317 24.28235,6.822177 24.14362,6.850674 23.819651,6.919343 23.809091,6.940199 23.803027,6.940651 23.743504,7.046432 23.69249,7.142975 23.556448,6.975132 23.555842,6.97526 23.543996,6.959965 23.394861,6.971084 22.914003,7.002497 22.911598,7.006599 22.907161,7.006645 22.852505,7.09244 22.803628,7.172292 22.695395,7.016779 22.689372,7.017172 22.683767,7.008959 22.538377,7.010464 22.00649,7.013036 22.005803,7.01411 21.999657,7.014047 21.945922,7.095707 21.895064,7.172977 21.790501,7.01408 21.784323,7.01411 21.782853,7.011809 21.637571,7.010309 21.107231,7.007719 21.100753,7.017174 21.095026,7.016748 21.040325,7.095302 20.986494,7.172293 20.880359,7.006611 20.878534,7.006602 20.874808,7.000385 20.726657,6.989375 20.247654,6.957777 20.234286,6.975259 20.231658,6.974718 20.164603,7.057707 20.09764,7.142978 19.982547,6.940288 19.981031,6.940188 19.971027,6.921076 19.803452,6.886585 19.492191,6.820972 19.360236,6.941615 19.25696,7.049327 19.129135,6.744442 19.118226,6.742142 19.089699,6.669873 18.892625,6.576042 18.642647,6.693202 18.461674,6.820921 18.388651,6.325602 18.335002,6.298912 18.3293,6.265655 18.172176,6.296245 17.876404,6.416897 17.903428,6.26646 17.855397,6.264873 17.681668,6.132641 17.629738,6.152741 17.639172,6.100296 17.397995,5.916727 17.296588,5.91893 17.240727,6.675766 17.204682,6.835361 16.936137,6.752298 16.900064,6.988851 16.398791,6.953488 16.262986,6.962841 16.143279,7.391409 15.848063,7.250125 15.519325,7.014056 15.451361,7.018737 15.269402,6.930198 15.005599,7.753718 15.001984,7.758882 14.98182,7.831357 14.977774,7.843333 14.951967,7.828032 14.937456,7.856235 14.097338,7.865041 13.887197,7.885244 13.870955,7.942566 13.75694,8.289146 13.498257,8.136236 13.210463,7.893325 12.762053,7.962311 12.76404,8.075333 12.879301,8.607206 12.590881,8.645764 12.527997,8.658261 12.503539,8.788532 12.429141,8.733879 12.380589,8.691215 11.530945,8.919984 11.292346,8.990635 11.283633,9.040861 11.234867,9.372261 11.066576,9.2131 10.958864,9.123175 10.352816,9.399276 10.043213,9.531881 10.00518,9.883132 9.897738,9.744625 9.811801,9.682011 9.155322,10.13988 8.988054,10.237793 8.985979,10.373155 8.933852,10.290224 8.299202,10.923328 8.301936,10.937939 8.287817,10.932071 7.981036,11.322046 7.746193,11.560808 7.757662,11.588414 7.725532,11.587244 7.50458,12.020333 7.324217,12.311475 7.328445,12.319076 7.31881,12.319998 6.980632,12.9972 6.96023,13.044294 6.994559,13.092247 6.967129,13.099753 6.932972,13.107208 6.930387,13.113175 6.924091,13.114941 6.697188,13.660352 6.667703,13.756067 6.746224,13.842051 6.69302,13.864749 6.627289,13.887262 6.623856,13.898407 6.615454,13.901734 6.496604,14.330606 6.470045,14.477777 6.598611,14.584143 6.525622,14.625232 6.435239,14.669556 6.392925,15.069971 6.383058,15.261213 6.5543,15.373028 6.471867,15.426496 6.376439,15.488576 6.382215,15.869147 6.387952,16.12922 6.61464,16.258737 6.517323,16.31116 6.395758,16.404023 6.416536,16.703148 6.426276,17.10761 6.787226,17.323878 6.574231,17.476514 6.425572,17.603597 6.389709,18.243568 6.445461,18.290229 6.909966,18.605394 6.579644,18.816854 6.347343,18.999634 6.346109,19.02165 6.241613,19.103822 6.231322,19.157067 6.232029,19.16073 6.230414,19.161762 6.199192,19.3233 6.209558,19.330852 6.199062,19.373772 6.267927,19.621326 6.552567,19.914768 6.856265,20.165138 6.35805,20.440113 6.357669,20.56783 6.262682,20.625279 6.347401,21.208091 6.282378,21.899863 6.367185,22.008977 6.499506,22.141062 6.249093,22.25398 6.242357,22.325642 6.177953,22.361416 6.199633,22.663212 6.065196,23.559262 5.7201,24.057134 5.438819,24.255952 5.505245,24.356718 5.409268,24.471158 5.657718,24.71087 5.445192,24.796148 4.887603,25.093174 4.872118,25.111637 4.466514,25.339941 4.431722,25.544826 4.166724,25.700813 4.231975,26.897626 4.179205,27.316859 4.331356,27.571686 4.510488,27.74758 4.103584,27.917625 4.086396,28.054182 3.996371,28.111851 4.050288,28.498384 4.019665,29.13702 3.506034,29.658951 2.754587,30.00119 2.963768,30.355048 2.781602,30.551098 2.98427,30.8654 3.368015,31.215964 2.818551,31.516712 2.556248,31.711151 2.566435,31.96568 2.433624,32.0771 2.677289,32.745098 2.816067,33.581448 2.522364,33.928144 1.987788,34.244983 2.147006,34.473972 2.016389,34.642642 2.054541,34.69056 2.565515,35.12162 2.16457,35.436168 1.668637,35.952102 1.736322,36.193324 1.654198,36.284565 2.093835,36.960756 2.381762,37.61922 2.113668,38.002532 1.503112,38.475554 1.689615,38.695256 1.612516,38.800866 1.840375,39.026611 2.356565,39.417796 1.918704,39.894244 1.588166,40.346264 1.68258,40.515408 1.661514,40.542768 2.147361,41.091472 2.443621,41.506236 2.126992,41.975872 1.505141,42.550076 0.7842,41.63396 0.420211,41.259776 1.041247,40.618655 0.951874,40.531952 1.046077,40.402769 0.604384,40.066255 0.358337,39.769712 0.687436,39.259536 1.115098,38.780657 1.053078,38.691592 1.195599,38.445868 1.219795,38.418786 0.805344,37.600383 0.398964,37.006936 1.030448,36.479979 1.167729,36.307424 1.027093,36.122036 1.136534,35.985682 0.74036,35.632644 0.525871,35.279048 0.889619,34.808583 1.30521,34.461707 1.253076,34.330576 1.481518,34.046248 1.255421,33.007774 1.016395,32.29737 1.652969,31.917076 1.517321,31.677967 1.589258,31.605486 1.374236,31.383376 1.276054,31.173576 1.825963,30.649451 2.374451,30.325626 2.352054,30.14568 2.532314,29.990308 2.610753,29.949681 2.588442,27.991153 2.389744,27.57429 2.484675,27.4976 2.582263,27.448795 2.581925,27.419122 2.65746,27.362331 2.679559,26.769596 2.975873,26.66332 4.180719,25.649075 4.128536,25.597177 4.00232,25.34554 4.122216,25.246118 3.691384,24.790076 3.542586,24.466868 3.965488,24.165946 4.404933,23.981149 4.409855,23.87626 4.625499,23.729091 4.656128,22.236412 4.468839,21.890292 4.561565,21.824473 4.665537,21.777897 4.665954,21.757568 4.707009,21.727987 4.666867,21.166464 5.305202,20.470821 5.186766,20.292491 5.000203,20.12804 4.886796,20.008218 5.203992,19.766381 5.707108,19.433592 5.682777,19.34569 5.719253,19.320289 5.608635,19.116836 5.252916,18.828675 4.937853,18.604606 5.026882,18.536834 5.188086,18.405247 4.879687,18.071204 4.96527,17.603636 4.84717,17.552329 4.732587,17.52156 4.979834,17.283315 5.004052,16.874871 5.011914,16.744018 4.703353,16.589872 4.446941,16.492663 4.79621,16.198962 5.018482,15.997328 5.01918,15.835283 4.636305,15.579376 4.348372,15.408819 4.757391,15.140223 5.083989,14.924762 4.693148,14.573517 4.438329,14.361342 4.917309,14.122531 5.208073,13.980628 4.880801,13.594746 4.66903,13.367561 5.182506,13.188294 5.313934,13.141654 5.314709,13.136737 5.413083,13.093466 5.439159,13.004019 5.189951,12.637664 5.008038,12.403024 5.51745,12.284419 5.665249,12.246371 5.670126,12.230299 5.764713,12.201154 5.822916,12.068213 5.607365,11.662652 5.444804,11.403942 5.910981,11.346336 6.165565,11.306249 6.168391,11.300082 6.266138,11.283354 6.34262,11.163792 6.170545,10.690982 6.034224,10.38566 6.440985,10.393204 6.947977,10.386069 6.989123,10.342406 6.960834,10.165095 6.983208,10.149292 6.912752,9.774222 6.818836,9.402888 7.150034,9.468478 7.81236,9.584307 7.821912,9.493498 7.808879,9.32213 7.877755,9.286208 7.873785,8.951447 7.842494,8.502578 8.094353,8.608313 8.703716,8.855446 8.946436,8.728862 8.941767,8.614328 9.023769,8.580502 9.058774,8.279852 9.093195,7.773647 9.296496,7.898053 9.813644,8.217225 10.235939,7.907408 10.269843,7.772604 10.348122,7.710319 10.430838,7.186066 10.554614,7.275536 10.729425,7.40693 11.511555,6.784617 11.787465,6.716718 11.7961,6.686814 11.821924,6.708239 11.826836,6.70703 11.830759,6.710263 11.906447,6.698713 13.043904,6.543019 13.075219,6.446189 13.117266,6.285858 13.364486,6.499138 13.439257,6.488903 13.477726,6.520966 14.173655,6.466088 14.231617,6.272385 14.29624,5.903498 14.547341,6.111399 14.68917,6.214462 15.122073,5.565189 15.321547,5.563744 15.325245,5.485233 15.432629,5.56294 15.482291,5.562581 15.505755,5.577095 16.20263,5.561132 16.223231,5.422084 16.207422,5.043139 16.514306,5.219366 16.857857,5.385813 17.180979,4.484512 17.18157,4.45229 17.191239,4.455891 17.201304,4.427818 17.248182,4.42528 17.530618,4.585638 17.574535,4.512129 18.137964,4.189385" slic3r:type="contour"/>
    <polygon style="fill: white" points="2.173377,43.453364 2.612699,43.739532 2.116218,44.36786 1.948112,44.613637 2.507398,45.173648 2.807814,45.501788 2.493867,45.955336 1.935029,46.5813 1.157425,45.77052 0.776498,45.406064 1.303225,44.782486 1.260896,44.751244 1.317093,44.676972 0.865426,44.376611 0.641244,44.185076 1.005619,43.643947 1.536003,42.969672" slic3r:type="contour"/>
    <polygon style="fill: white" points="2.583469,47.218396 3.05253,47.45996 2.639053,48.001976 2.268217,48.500084 2.899564,49.178856 3.413889,49.741556 3.327936,49.885587 3.198786,50.080845 3.494915,50.196564 3.40445,50.320684 2.846776,51.029779 2.727429,51.342652 2.635267,51.209152 2.126043,50.953691 1.556991,50.723496 1.704252,50.530684 1.941209,50.25318 1.365656,49.654487 1.732729,49.082031 2.079072,48.556527 1.9908,48.508308 2.013257,48.478872 1.382552,48.111828 1.093535,47.942204 1.437556,47.487448 1.955247,46.85234" slic3r:type="contour"/>
    <polygon style="fill: white" points="3.457687,51.985892 3.941444,52.105596 3.68662,52.475939 3.203365,53.16284 2.414961,52.89436 2.03839,52.774512 2.328249,52.345752 2.785196,51.761768" slic3r:type="contour"/>
    <polygon style="fill: white" points="4.06074,53.632372 4.5149,53.674128 4.293332,54.068559 3.91745,54.780496 3.092128,54.666472 2.713198,54.595836 2.969241,54.073884 3.307993,53.504484" slic3r:type="contour"/>
    <polygon style="fill: white" points="5.194551,55.409551 4.936694,56.229544 4.188588,56.275016 3.713877,56.270752 3.858617,55.752567 4.098667,55.102476 4.817875,55.089907 5.323589,55.049276" slic3r:type="contour"/>
    <polygon style="fill: white" points="6.394309,56.557836 6.295116,57.498568 5.692928,57.662163 5.095383,57.776528 5.129808,57.338908 5.240215,56.564356 5.849244,56.430744 6.435905,56.27642" slic3r:type="contour"/>
    <polygon style="fill: white" points="7.949277,57.570855 8.00787,58.45013 8.989859,58.799652 9.076508,58.753608 9.762883,58.35816 9.779553,58.469103 9.872898,58.963833 10.645294,59.138915 11.562922,59.364384 11.77875,59.21494 11.786099,59.246716 11.826677,59.39237 12.642017,59.514712 13.720651,60.045076 13.842482,59.956008 13.878447,59.927528 13.944251,60.15502 13.953344,60.159491 13.955477,60.165636 14.596114,60.438967 15.525341,60.851167 15.846914,60.584772 15.938633,60.5014 16.160443,61.132894 16.19117,61.146524 17.332383,61.536811 17.819588,61.066607 17.953218,60.926723 18.261481,61.633715 18.384475,61.881648 19.18713,62.063239 19.777554,61.379851 19.934434,61.190279 20.283437,61.827191 20.529298,62.239644 19.878928,63.049515 19.751478,63.198744 19.346989,62.486075 19.217561,62.255653 18.375171,62.231292 18.288166,62.313976 18.181723,62.306698 17.706495,62.813064 17.605756,62.912652 17.286876,62.24551 16.387378,62.184004 15.824826,62.169554 15.764513,62.219312 15.717153,62.213801 15.497077,62.417536 15.450039,62.457716 15.334575,62.169284 14.961043,62.12582 14.040392,62.066068 13.537672,61.834212 13.376924,61.768267 13.276836,61.842412 13.266951,61.81308 13.237618,61.711118 13.226635,61.706612 13.218831,61.683248 12.101372,61.103435 11.480401,60.813182 11.47837,60.814636 11.468437,60.808623 11.063531,61.07332 11.030013,60.953128 10.939955,60.560568 10.907796,60.545536 10.883903,60.454752 10.677451,60.329768 9.657347,59.768459 9.635454,59.781515 9.614673,59.766069 8.894954,60.154396 8.851174,59.932899 8.754042,59.271419 8.713451,59.249084 8.690972,59.119489 7.948589,58.617585 7.557065,58.798691 6.871047,59.065904 6.84323,58.734655 6.817397,57.847496 7.300323,57.655359 7.943031,57.375408" slic3r:type="contour"/>
    <polygon style="fill: white" points="42.849896,43.802884 43.148884,44.185115 42.449711,44.640387 42.529248,44.751268 42.493389,44.776805 42.839172,45.186344 43.013632,45.406108 42.507176,45.9643 41.8551,46.581368 41.345835,45.903908 40.982324,45.501752 41.706136,44.772163 41.784182,44.689783 41.780448,44.684555 41.823012,44.635257 41.411823,44.116635 41.177428,43.739496 41.558084,43.430819 42.254103,42.969652" slic3r:type="contour"/>
    <polygon style="fill: white" points="42.37664,47.550068 42.696604,47.942128 42.076343,48.302856 41.776643,48.478297 41.799532,48.5083 41.709537,48.55873 42.135515,49.224507 42.424456,49.654476 42.142891,49.959856 41.842082,50.270471 42.233116,50.723532 41.963428,50.861671 41.158557,51.210959 41.062804,51.342604 40.968159,51.048262 40.740012,50.736576 40.295216,50.196568 40.391992,50.149299 40.591514,50.067662 40.376244,49.741576 40.691304,49.401967 41.52133,48.501515 41.008463,47.829107 40.737612,47.459952 41.113824,47.231244 41.834792,46.852328" slic3r:type="contour"/>
    <polygon style="fill: white" points="41.470144,52.421456 41.751736,52.774516 41.229988,52.954539 40.586764,53.162835 40.133671,52.506419 39.84868,52.105592 40.211728,51.977792 41.004932,51.761768" slic3r:type="contour"/>
    <polygon style="fill: white" points="40.873404,54.262768 41.076928,54.59586 40.525847,54.664736 39.872616,54.780416 39.493111,54.096707 39.275247,53.674104 39.716283,53.593099 40.482239,53.504556" slic3r:type="contour"/>
    <polygon style="fill: white" points="38.870948,55.05228 39.69148,55.102444 39.915956,55.853008 40.076252,56.270764 39.58516,56.230708 38.853484,56.229544 38.621604,55.56456 38.466528,55.04928" slic3r:type="contour"/>
    <polygon style="fill: white" points="37.654984,56.34028 38.549831,56.564332 38.61048,57.22536 38.69476,57.776512 38.314167,57.663959 37.494976,57.498584 37.41382,56.910831 37.3542,56.276408" slic3r:type="contour"/>
    <polygon style="fill: white" points="36.0436,57.452392 36.972811,57.847648 36.932603,58.39296 36.91908,59.065908 36.647855,58.934927 35.851257,58.61704 35.094964,59.136157 35.076664,59.24898 35.020664,59.281732 35.002655,59.37716 34.895204,60.154388 34.720795,60.044959 34.198678,59.758489 32.897142,60.487007 32.88233,60.545535 32.838448,60.567444 32.726594,61.073324 32.63437,61.004952 32.345645,60.813484 30.983215,61.493696 30.568407,61.691446 30.563488,61.706624 30.549521,61.712794 30.513288,61.842411 30.491144,61.82404 30.419457,61.770243 29.749728,62.066068 28.445951,62.181964 28.359885,62.401544 28.340088,62.45772 28.082221,62.214296 28.025664,62.219324 27.983996,62.18451 26.594331,62.266 26.484178,62.27084 26.240412,62.786895 26.184368,62.912651 25.627354,62.308485 25.502002,62.313992 25.424892,62.239874 24.569272,62.260409 24.133169,63.030268 24.038648,63.198748 23.54048,62.569508 23.260788,62.239668 23.723504,61.407807 23.855692,61.190279 24.351672,61.760812 24.60682,62.066034 25.394857,61.890657 25.744357,61.108068 25.836914,60.926724 26.430539,61.493183 26.481986,61.545985 27.526996,61.195603 27.590908,61.17164 27.602246,61.145012 27.613396,61.140336 27.800848,60.621591 27.851516,60.5014 28.287253,60.857766 28.914328,60.594811 29.831397,60.174464 29.836781,60.159468 29.841559,60.157202 29.896371,59.972392 29.911678,59.9275 30.075768,60.046137 30.304215,59.937804 31.148126,59.514683 31.725491,59.443804 31.957552,59.401477 32.011406,59.214916 32.041424,59.233596 32.246077,59.372268 33.120306,59.197075 33.901591,58.994605 34.027212,58.358192 34.134572,58.414456 34.838712,58.811952 35.778092,58.462349 35.792552,58.099375 35.847104,57.3754" slic3r:type="contour"/>
    <polygon style="fill: white" points="22.30435,61.871352 22.591542,62.275628 22.019574,63.121863 21.895064,63.299092 21.455068,62.642468 21.198564,62.275696 21.737159,61.502832 21.895064,61.281776" slic3r:type="contour"/>
  </g></svg>