<svg width="43.790126" height="63.590156" xmlns="http://www.w3.org/2000/svg" xmlns:svg="http://www.w3.org/2000/svg" xmlns:xlink="http://www.w3.org/1999/xlink" xmlns:slic3r="http://slic3r.org/namespaces/slic3r"><g xmlns="http://www.w3.org/2000/svg" slic3r:z="4.91749999999998e-005" id="layer148">
    <polygon style="fill: white" points="35.589934,19.448459 35.937819,19.676285 36.700992,20.005298 36.52734,20.224247 35.95874,20.624052 34.418551,19.993561 34.374103,19.977083 34.398765,19.907953 34.342048,19.935182 34.263328,18.908686 34.205344,18.550581 35.075824,18.312814 35.274028,18.23913" slic3r:type="contour"/>
    <polygon style="fill: white" points="33.130506,17.117918 33.394844,17.872064 32.611155,18.259174 32.330846,18.465456 32.110516,17.790526 31.895347,17.035234 32.41013,16.76326 32.865392,16.434154" slic3r:type="contour"/>
    <polygon style="fill: white" points="28.428049,15.333646 29.039719,15.273329 30.073136,15.178363 30.090699,15.275027 30.119823,15.46963 30.335256,15.264822 30.358513,15.314357 30.949959,16.644512 30.588655,16.940094 30.054736,17.458046 29.904774,17.153041 29.625361,16.478575 28.011463,16.639454 28.008513,16.642788 28.008186,16.642811 27.863618,16.802524 27.84109,16.761141 27.793183,16.661212 27.792849,16.661245 27.791301,16.657878 27.381493,16.686348 27.29596,16.408282 27.00613,15.45461 27.275241,15.434567 27.879495,14.74804 28.057372,14.547415" slic3r:type="contour"/>
    <polygon style="fill: white" points="26.524594,14.735733 26.838592,15.356772 26.15738,16.210868 26.046876,16.343542 25.676286,15.582452 25.409534,15.034789 25.904225,14.428118 26.202228,14.072636" slic3r:type="contour"/>
    <polygon style="fill: white" points="22.095599,13.863194 22.540035,14.58188 22.846085,14.125541 23.215928,13.588554 23.423143,13.961536 23.874635,14.754669 24.265662,14.22785 24.622308,13.762868 24.867023,14.239683 25.272151,15.004652 24.709219,15.794636 24.515274,16.050233 24.175469,15.4009 23.872104,14.810729 23.393435,15.555401 23.164548,15.892285 22.835099,15.306209 22.54013,14.774734 22.1254,15.467601 21.895064,15.845891 21.564279,15.289633 21.250162,14.773519 20.840449,15.50509 20.62556,15.892292 20.281122,15.344926 19.918377,14.809639 19.44933,15.71085 19.27485,16.050232 18.877867,15.480981 18.517994,15.004624 18.883349,14.292928 19.167838,13.762867 19.432668,14.120564 19.91509,14.754708 20.245275,14.160789 20.574208,13.588553 20.790305,13.911206 21.249183,14.582211 21.53955,14.106801 21.895064,13.534706" slic3r:type="contour"/>
    <polygon style="fill: white" points="17.944225,14.510825 18.380604,15.034849 17.841388,16.142061 17.743246,16.343556 17.244005,15.709413 16.951552,15.356928 17.365797,14.50429 17.587886,14.072643" slic3r:type="contour"/>
    <polygon style="fill: white" points="16.240873,15.125173 16.515025,15.434906 16.783952,15.454644 16.574414,16.137216 16.408585,16.686351 16.13126,16.667362 15.998749,16.658054 15.997264,16.661253 15.994652,16.660977 15.926519,16.802506 15.894846,16.770459 15.773756,16.637665 15.058478,16.562175 14.221935,16.48178 14.144786,16.477516 13.735409,17.458038 13.473605,17.24706 12.840162,16.64453 13.035571,16.233054 13.454899,15.264824 13.483539,15.286491 13.67567,15.462033 13.717021,15.178364 15.351983,15.335632 15.601917,14.80449 15.732723,14.547433" slic3r:type="contour"/>
    <polygon style="fill: white" points="11.307841,16.633047 11.894779,17.03528 11.61859,17.910275 11.45925,18.465466 10.763161,18.128807 10.395286,17.872044 10.714811,17.067927 10.924725,16.434169" slic3r:type="contour"/>
    <polygon style="fill: white" points="9.306564,18.450769 9.584761,18.5506 9.449735,19.92459 9.443564,19.96426 8.70545,20.308801 7.831352,20.6241 7.489593,20.23046 7.089132,20.005324 8.225135,19.379546 8.469729,18.487698 8.5161,18.239131" slic3r:type="contour"/>
  </g></svg>