<svg width="43.790126" height="63.590156" xmlns="http://www.w3.org/2000/svg" xmlns:svg="http://www.w3.org/2000/svg" xmlns:xlink="http://www.w3.org/1999/xlink" xmlns:slic3r="http://slic3r.org/namespaces/slic3r"><g xmlns="http://www.w3.org/2000/svg" slic3r:z="3.46549999999999e-005" id="layer104">
    <polygon style="fill: white" points="24.280585,61.040895 24.691418,61.514736 24.347206,62.166759 24.105698,62.641028 23.772474,62.232172 23.297496,61.679032 23.686284,60.939695 23.88469,60.589599" slic3r:type="contour"/>
    <polygon style="fill: white" points="26.408643,60.702195 26.79782,61.080712 26.474806,61.837743 26.311096,62.259376 25.895866,61.828976 25.425928,61.3784 25.772453,60.534228 25.908512,60.240816" slic3r:type="contour"/>
    <polygon style="fill: white" points="28.6171,60.194708 28.974687,60.498714 28.925289,60.503846 28.622206,61.361339 28.525391,61.680855 27.998377,61.202183 27.590698,60.86566 27.91376,59.880112 27.98342,59.70136" slic3r:type="contour"/>
    <polygon style="fill: white" points="32.487316,58.20204 33.145715,58.670856 33.950156,58.527484 33.097126,60.003331 33.089288,60.034264 33.08429,60.04064 33.07745,60.078772 33.062864,60.067976 33.043528,60.092647 30.942758,60.333596 30.811181,60.768964 30.76778,60.945532 30.136705,60.426047 29.979932,60.444028 29.921743,60.400331 28.986802,60.497456 29.671701,59.767528 30.047654,59.258282 30.06563,59.200172 30.073353,59.190394 30.12127,59.01404 30.125278,59.002196 30.188054,59.045181 30.223453,59.000364 30.25135,58.95494 31.486175,58.850112 32.164832,58.756621 32.330194,58.104651" slic3r:type="contour"/>
    <polygon style="fill: white" points="34.823172,57.251736 35.518128,57.665704 35.430684,58.218031 35.349299,58.968355 35.144743,58.846359 34.260112,58.364288 34.330388,57.79046 34.455884,57.065928" slic3r:type="contour"/>
    <polygon style="fill: white" points="36.977324,56.103488 37.505384,56.336516 37.47224,57.123943 37.468404,57.656956 37.026551,57.466819 36.33084,57.187896 36.339788,56.319519 36.365944,55.879512" slic3r:type="contour"/>
    <polygon style="fill: white" points="40.350268,53.009635 40.374876,53.009624 40.678108,54.030176 40.682892,54.059326 40.750456,54.272212 40.719255,54.273262 40.720003,54.275335 40.718341,54.275334 40.724004,54.309843 40.590596,54.381019 39.199729,55.122878 39.276632,55.813068 39.315788,56.09894 38.61358,55.939968 38.131284,55.837488 37.956399,54.669467 37.943404,54.547096 38.43989,54.638068 38.396707,54.282959 38.351704,54.029272 38.862659,53.78466 39.291584,53.541971 39.106796,52.954568 39.30296,52.93838 40.317144,52.904644" slic3r:type="contour"/>
    <polygon style="fill: white" points="41.551131,51.406147 41.79834,51.9529 41.42114,52.063907 40.607504,52.274116 40.24744,51.523196 39.987156,50.973424 40.6052,50.797379 41.200428,50.632388" slic3r:type="contour"/>
    <polygon style="fill: white" points="42.064891,48.275547 42.269852,48.699512 42.543611,49.054319 42.588164,49.111848 42.501759,49.178954 42.540143,49.241443 42.558304,49.27356 42.091702,49.517373 41.26564,50.168868 40.886815,49.628547 40.52996,49.047096 40.646464,48.955931 40.816337,48.820681 40.652332,48.519076 40.772968,48.455727 41.814264,47.820788" slic3r:type="contour"/>
    <polygon style="fill: white" points="43.024996,44.41954 43.22874,44.621652 42.751425,44.973309 42.787004,45.059524 42.767462,45.07688 42.988887,45.414415 43.114548,45.64578 42.533728,46.150395 41.985268,46.569495 41.278087,45.285931 41.169472,45.106424 41.475378,44.896303 41.466624,44.884735 41.478713,44.872063 41.294868,44.702944 41.224368,44.613716 41.819159,44.041248 42.312424,43.64202" slic3r:type="contour"/>
    <polygon style="fill: white" points="43.076227,38.940891 43.570599,40.340368 43.567899,40.342428 43.559763,40.350166 42.884688,41.302279 42.474352,41.737652 42.17785,41.112579 42.139704,41.083624 41.555764,40.426799 41.624048,40.354107 41.763604,40.239281 41.756972,40.225299 41.804527,40.173581 41.580704,39.701564 41.789011,39.428732 42.612336,38.044704" slic3r:type="contour"/>
    <polygon style="fill: white" points="43.127395,35.927208 43.602472,36.227376 43.178604,36.570239 42.619192,37.174028 41.921736,36.743131 41.608048,36.43604 41.961804,36.004411 42.579608,35.463104" slic3r:type="contour"/>
    <polygon style="fill: white" points="38.831412,19.882924 38.951551,20.011822 39.58672,20.103544 39.490988,20.21132 39.356931,20.446758 40.090216,21.233504 40.165994,21.739595 40.252995,21.761005 40.334228,21.767322 40.19701,21.946742 40.212444,22.049812 40.198834,22.07567 40.421412,22.697376 40.680464,23.61606 40.97766,23.703972 41.185288,23.724276 40.83964,24.180543 40.906772,24.418614 40.849345,24.525646 41.344564,25.651712 41.428443,25.901251 41.834576,26.061572 42.071332,26.105774 41.664411,26.603249 41.748968,26.854806 41.665618,26.995606 42.128067,27.955099 42.416366,28.776596 42.720032,28.942416 42.866016,28.99154 42.592856,29.279494 42.64384,29.424772 42.582479,29.512987 42.819464,29.982231 43.213336,31.14754 43.163664,31.800396 43.049026,32.143983 43.160144,32.222611 43.142797,32.291624 43.390532,32.41074 43.315952,32.477379 42.999064,32.863463 42.86492,33.397149 42.513811,34.077908 42.200817,33.356819 42.043596,33.280958 41.409719,32.770571 41.517583,32.622736 41.774646,32.374993 41.756023,32.33209 41.891811,32.128326 41.03928,30.129687 41.132626,29.67406 41.084088,29.644502 41.082697,29.61783 40.9835,29.584842 40.94838,29.562184 41.06859,29.347252 40.985592,27.755403 40.929106,27.189685 40.689152,27.0826 40.663035,26.985797 40.32956,26.917814 40.212256,26.862057 40.477234,26.297131 40.170375,25.159767 40.021864,24.813948 39.774536,24.728784 39.73468,24.64756 39.466995,24.613681 39.36984,24.579198 39.524817,24.219871 39.345835,23.855117 38.68144,22.98734 38.619856,22.729572 38.586398,22.645795 38.526496,22.627974 38.535724,22.610321 38.558622,22.576245 38.555891,22.569406 38.58129,22.513102 38.512899,21.629593 38.373162,21.073033 37.746448,20.871558 37.859179,20.671348 38.163094,20.236358 38.132084,20.11285 38.263523,19.859342 38.328048,19.753324" slic3r:type="contour"/>
    <polygon style="fill: white" points="22.597732,5.391193 22.898116,5.965614 22.988023,5.862122 23.376458,5.463603 23.458104,5.653709 23.659824,6.194335 23.921703,6.039625 24.29142,5.860189 24.444859,6.483865 24.48676,6.705509 24.695927,6.746306 25.221226,6.695835 25.206111,6.941083 25.286246,6.918597 25.495306,6.821701 25.534648,6.926487 25.533504,7.091732 25.931796,7.011849 26.236416,7.605843 26.429755,7.975329 26.619221,7.84494 26.946856,7.631944 27.011546,7.966274 27.066489,8.167094 27.630416,8.228636 28.216236,8.285964 28.29511,8.222279 28.314528,8.295583 28.315697,8.295696 28.318846,8.306611 28.873966,8.434857 29.078374,9.043549 29.148889,9.186947 29.523351,8.835262 29.647672,8.729065 29.772602,9.138065 29.836143,9.362134 29.839903,9.362917 29.871804,9.458753 30.435109,9.639671 30.905188,9.194812 30.958332,9.15034 31.002558,9.285599 31.080673,9.279629 31.095342,9.190696 31.767004,9.594726 31.949746,9.673623 32.146234,9.497805 32.206366,9.697281 32.231272,9.795167 32.239598,9.798762 32.303617,9.969749 32.3535,10.013195 32.736776,10.204694 32.811802,10.083374 32.862195,10.040668 33.010812,9.628016 33.116768,9.72198 33.190802,9.762185 33.2798,9.686764 33.313211,9.788747 33.329038,9.837258 33.342784,9.844723 33.399253,9.990115 33.513032,10.113695 33.800643,10.273469 33.950908,10.129957 34.217288,9.745244 34.324608,9.875341 34.457445,9.979574 34.68292,9.83481 34.795819,10.133424 34.842584,10.23765 35.114099,10.046793 35.306396,9.905092 35.510903,10.30972 35.622193,10.488495 35.745632,10.447779 36.32636,10.303381 36.364387,10.505002 36.436046,10.863878 36.455236,10.860272 36.455648,10.887422 37.161295,11.011444 37.168374,11.038045 37.193632,11.043007 37.17968,11.080535 37.183704,11.095659 37.181615,11.102668 37.183643,11.12026 37.272918,11.787275 37.331036,11.812626 37.33124,11.830341 37.477435,11.880725 37.585228,11.931351 37.336075,12.259147 37.34122,12.297591 37.33669,12.302706 37.339801,12.57232 37.407011,12.608638 37.405841,12.628727 37.614308,12.732379 37.76488,12.820057 37.370623,13.214357 37.372356,13.246363 37.369749,13.248557 37.35727,13.462871 37.689568,13.638565 37.895432,13.752984 37.361428,14.266254 37.316492,14.304023 37.313853,14.440065 37.738727,14.647094 38.059783,14.786794 37.665755,15.19186 37.285662,15.565123 37.777747,15.773638 38.315195,15.958169 38.121895,16.160634 37.879298,16.448398 38.296223,16.805187 38.609352,17.105454 38.570761,17.237847 38.64212,17.256776 38.536747,17.354544 38.507628,17.454442 38.477226,17.495272 38.264189,18.409083 38.698719,18.56254 39.03708,18.629804 38.728728,18.941731 38.301472,19.59879 37.535788,19.414024 37.148712,19.259382 37.452851,18.772246 37.660506,18.515252 37.343675,18.199859 36.722079,17.778113 36.726472,17.766614 36.717276,17.762248 36.7195,17.758881 36.721626,17.756522 36.754044,17.709963 37.038567,17.142942 37.138255,16.77422 36.946235,16.699855 36.365808,16.38683 36.597239,16.059066 37.037402,15.614286 36.312932,15.252411 36.086068,15.120277 36.539091,14.56518 36.615644,14.494981 36.417152,14.323181 36.269874,14.196561 35.918112,13.98955 35.897312,13.977356 35.963563,13.911021 35.871608,13.794819 35.924051,13.253403 35.93236,13.131281 35.713084,13.028466 35.779135,12.967403 35.918253,12.823526 35.912935,12.696011 35.907458,12.498121 35.548888,12.374167 35.64508,12.266707 35.767727,12.10461 35.41278,12.078535 35.472239,11.905479 35.243776,11.97229 35.198293,11.709481 34.951516,11.883767 34.772755,11.561954 34.554344,11.854434 34.349211,11.635824 34.290347,11.684742 34.140594,11.93283 33.940743,11.793555 33.487521,11.47567 33.47869,11.575864 33.390076,11.978895 32.981562,11.745522 32.939073,11.789266 32.753888,12.027492 32.670651,11.685495 32.614094,11.535599 32.422567,11.426185 32.385694,11.512564 32.090074,11.911601 31.668048,11.657516 31.538102,11.774375 31.502449,11.557815 31.431828,11.515297 31.428288,11.50147 31.161448,11.379496 30.652035,11.121123 30.583613,11.179344 30.359286,11.37676 30.274078,10.929423 30.193427,10.888518 29.749848,10.750354 29.436496,10.640145 29.333391,10.731427 29.09224,10.948781 28.979906,10.479729 28.584932,10.40173 28.008237,10.266645 27.933849,10.331357 27.780714,10.4653 27.710417,10.202555 27.555994,10.189341 27.012658,10.120882 26.988037,9.817094 27.012219,9.387524 26.773027,9.5643 26.774554,9.547307 26.390902,9.820202 26.246399,9.350161 26.083569,9.350823 25.731044,9.355486 25.770972,8.835889 25.835271,8.394453 25.224424,8.367196 24.722252,8.579861 24.691797,8.298114 24.386076,8.441887 24.313408,8.271903 24.324499,7.999911 23.784325,7.864367 23.584156,8.018557 23.518067,7.881584 23.486872,7.778045 23.451113,7.77015 23.163975,7.733683 23.043008,7.883558 22.982654,7.7791 22.95101,7.712393 22.77303,7.701818 22.607216,7.697071 22.51108,7.852535 22.44958,7.760021 22.410584,7.696841 22.134348,7.700983 22.019417,7.702493 22.017734,7.705739 21.998973,7.705459 21.895064,7.87174 21.836999,7.776469 21.792672,7.705474 21.772394,7.70574 21.770519,7.702044 21.509883,7.698146 21.375146,7.696381 21.27902,7.852535 21.228724,7.759945 21.193838,7.703274 20.972044,7.716726 20.823716,7.720785 20.747146,7.883561 20.689519,7.792126 20.656679,7.750789 20.44145,7.801831 20.262437,7.822513 20.205918,8.018583 20.130191,7.924349 20.096909,7.897176 19.69096,8.122967 19.325742,8.171852 19.404019,8.441912 19.314952,8.357408 19.137704,8.262329 19.06787,8.579873 17.954784,8.537542 17.999297,8.982301 18.059022,9.355535 17.578564,9.352276 17.539144,9.486019 17.399238,9.820202 17.226047,9.703474 17.0161,9.556755 17.016938,9.564172 16.895529,9.472495 16.73817,9.362525 16.732803,9.607475 16.777316,10.120964 16.095466,10.193474 16.072251,10.280339 16.00939,10.465313 15.771711,10.258723 15.323098,10.349975 14.870733,10.451582 14.868283,10.459146 14.836657,10.469027 14.796303,10.635033 14.69789,10.948788 14.357005,10.647703 14.333089,10.626353 13.837253,10.781263 13.611269,10.861043 13.603823,10.884913 13.552045,10.908082 13.519332,11.072697 13.430918,11.376729 13.111077,11.105403 12.825385,11.233241 12.372117,11.475183 12.35838,11.515278 12.313524,11.539646 12.298726,11.621894 12.252125,11.774348 12.106125,11.652313 12.029847,11.693749 11.700195,11.911561 11.571868,11.502521 11.441529,11.311484 11.380772,11.418623 11.262046,11.484373 11.203734,11.693089 11.036243,12.027468 10.776094,11.75349 10.718907,11.785159 10.400027,11.978872 10.364225,11.410914 9.654918,11.9298 9.532184,11.822298 9.376339,11.675143 9.235802,11.854433 9.029743,11.438085 8.83863,11.883758 8.581241,11.614232 8.546351,11.97229 8.308683,11.862401 8.377341,12.07854 8.205322,12.083037 8.038803,12.095148 8.241232,12.374167 8.101624,12.429857 7.878375,12.507599 7.872213,12.671396 7.86829,12.806338 8.077041,13.028439 7.996469,13.072073 7.862555,13.135478 7.918544,13.794789 7.815431,13.904053 7.878473,13.965093 7.892846,13.977327 7.522621,14.19563 7.142787,14.523558 7.561113,15.003872 7.704057,15.120308 7.201547,15.350413 6.730319,15.617985 7.089757,16.092101 7.424324,16.386824 7.149406,16.471886 6.692041,16.708053 7.053092,17.735132 7.061409,17.746337 7.062605,17.75209 7.078879,17.768213 7.034264,17.809184 6.134966,18.577033 6.422236,19.009598 6.641415,19.259376 6.188238,19.338928 5.488685,19.59879 4.996488,19.030263 4.753032,18.62982 5.296469,18.42423 5.573019,18.355394 5.500296,17.829494 5.430294,17.660992 5.28254,17.454507 5.267421,17.390715 5.176085,17.295751 5.148003,17.256754 5.23643,17.216955 5.180796,17.105308 5.645528,16.832668 5.94033,16.52216 5.474945,15.958094 5.798901,15.818549 6.501966,15.558505 6.016223,15.064545 5.730377,14.786729 6.349956,14.482908 6.477262,14.425276 6.46533,14.262798 6.083673,13.906043 5.8947,13.75301 6.393817,13.489973 6.39373,13.489043 6.408004,13.482203 6.383141,13.143662 6.158952,12.926875 6.025253,12.820025 6.382873,12.644494 6.383103,12.608623 6.416783,12.591986 6.416462,12.376338 6.429828,12.199586 6.284949,12.015985 6.204894,11.931351 6.456453,11.847524 6.459092,11.812626 6.500577,11.796845 6.508241,11.722568 6.606813,11.096899 6.606427,11.095658 6.610303,11.077966 6.599859,11.05082 6.596499,11.043007 6.61768,11.04226 6.628832,11.011445 7.228903,10.951091 7.334254,10.928708 7.334871,10.860291 7.351303,10.864582 7.463738,10.303405 7.756662,10.401682 8.124394,10.504466 8.254228,10.273505 8.483743,9.905102 8.92087,10.210559 9.107269,9.834815 9.296241,9.979168 9.572781,9.745266 9.797906,9.951945 9.988508,10.179217 10.436276,9.875445 10.447294,9.844718 10.461942,9.835157 10.510285,9.686763 10.578905,9.758809 10.77929,9.628009 10.960498,9.803262 11.117165,10.073835 11.538777,9.838662 11.550551,9.798799 11.571171,9.787841 11.643921,9.49779 11.755219,9.631296 11.79705,9.667801 12.694976,9.190609 12.80015,9.274096 12.83185,9.150292 13.099445,9.470257 13.225828,9.576953 13.75424,9.326083 13.971856,9.320196 14.083119,8.938208 14.142455,8.729046 14.419592,9.025798 14.548294,9.137789 14.660681,8.793558 14.916163,8.434833 15.396223,8.316592 15.471712,8.302334 15.494987,8.222266 15.5351,8.259269 15.563564,8.282671 16.309528,8.173964 16.708529,8.142264 16.843192,7.631989 17.164656,7.859819 17.350038,7.982549 17.628591,7.43489 17.858322,7.011859 18.142954,6.965018 18.341782,6.999709 18.294826,6.821701 18.354716,6.875162 18.43304,6.917638 18.436724,6.89974 18.506253,6.949703 18.568904,6.695838 19.358745,6.618471 19.362744,6.585242 19.362893,6.58523 19.461302,6.182428 19.49872,5.860174 19.781472,6.038077 20.147734,6.230021 20.27031,5.943823 20.413638,5.463627 20.507365,5.573205 20.898435,5.998198 20.97171,5.867887 21.219844,5.342532 21.246329,5.385575 21.584777,5.92018 21.895063,5.348517 21.918392,5.389278 22.2051,5.902347 22.570256,5.342508" slic3r:type="contour"/>
    <polygon style="fill: white" points="5.658156,20.113092 5.625738,20.297603 5.645961,20.331436 6.043676,20.87159 5.845221,20.894838 5.503236,20.994832 5.295878,22.175028 5.219212,22.539249 5.234255,22.569404 5.230712,22.581196 5.263625,22.627936 5.245614,22.629574 5.213638,22.638025 5.108754,22.987138 4.272964,24.318662 4.360894,24.495434 4.420258,24.579212 4.098175,24.597125 4.01552,24.728806 3.914466,24.759391 3.747115,25.474222 3.343807,26.478122 3.496309,26.758152 3.577876,26.862012 3.167917,26.915941 3.10097,27.082584 3.002579,27.121279 3.029216,27.795136 2.744468,29.424321 2.812394,29.529899 2.841779,29.562138 2.71449,29.595835 2.705983,29.644513 2.684673,29.656013 2.732568,29.820486 2.750809,30.130076 2.27399,31.622997 1.953996,32.226357 2.034145,32.332022 2.004603,32.419336 2.380434,32.770502 2.227467,32.834747 1.747999,33.177761 1.69716,33.328025 1.276331,34.077683 0.96202,33.175621 0.399593,32.410696 0.469676,32.356955 0.64516,32.266242 0.629948,32.222584 0.804932,32.086041 0.576739,31.14789 1.240658,29.577439 1.146339,29.424762 1.186044,29.333493 1.003375,29.130637 0.924139,28.99147 1.482715,28.651538 2.162781,27.088281 2.041176,26.854804 2.105902,26.701701 1.830966,26.343601 1.718798,26.105748 2.389365,25.804784 2.495441,25.78029 2.982202,24.628913 2.883346,24.418724 2.934342,24.281008 2.696336,23.939773 2.60484,23.724282 3.218462,23.513734 3.467201,22.842006 3.621508,22.143742 3.577796,22.050018 3.59011,21.998389 3.492374,21.854439 3.455927,21.767283 3.659078,21.709225 3.696346,21.552974 3.700089,21.233128 4.167126,20.949381 4.446498,20.572969 4.203428,20.10348 4.377673,20.047646 4.911945,19.945851 4.958583,19.883013 5.336367,19.774504 5.462118,19.753438" slic3r:type="contour"/>
    <polygon style="fill: white" points="1.792078,36.102672 2.182077,36.436008 1.719915,36.695643 1.170931,37.174028 0.543273,36.652995 0.187652,36.227392 0.530356,35.912047 1.210418,35.463096" slic3r:type="contour"/>
    <polygon style="fill: white" points="1.726074,38.733863 2.209422,39.70156 2.125448,39.953799 2.001558,40.193875 2.033154,40.2253 2.021608,40.253206 2.234363,40.4268 2.153856,40.483644 1.762583,40.879264 1.636754,41.183391 1.315775,41.737652 0.238644,40.359831 0.219303,40.339643 0.223313,40.331276 1.177787,38.044704" slic3r:type="contour"/>
    <polygon style="fill: white" points="2.440517,44.51252 2.565758,44.61372 2.288701,44.858138 2.529776,45.025267 2.620652,45.10642 2.184589,45.948456 1.804875,46.569496 0.951232,45.856592 0.675573,45.645772 1.035647,45.090868 1.003132,45.059556 1.028738,45.004029 0.732159,44.784283 0.561389,44.6217 1.033502,44.085844 1.477778,43.641964" slic3r:type="contour"/>
    <polygon style="fill: white" points="2.405479,48.049192 3.137764,48.519004 3.085051,48.630255 2.97899,48.823652 3.260168,49.047156 3.142852,49.212328 2.524386,50.168868 1.980871,49.766395 1.633261,49.479187 1.271684,49.293107 1.231789,49.273452 1.287512,49.182605 1.23991,49.145943 1.201962,49.11192 1.55349,48.655383 1.975701,47.82076" slic3r:type="contour"/>
    <polygon style="fill: white" points="3.420652,50.868288 3.802967,50.973432 3.562362,51.472019 3.182614,52.274164 2.605346,52.108959 1.991787,51.952912 2.246162,51.391636 2.589698,50.632388" slic3r:type="contour"/>
    <polygon style="fill: white" points="3.896018,52.93646 4.683307,52.954572 4.620406,53.113647 4.493494,53.517035 5.438433,54.029272 5.363061,54.64536 5.755366,54.569587 5.84675,54.547096 5.71179,55.352283 5.65881,55.837484 4.763829,56.038095 4.474319,56.098907 4.573713,55.202248 4.584499,55.119453 4.037299,54.82736 3.066123,54.309811 3.073236,54.275304 3.070121,54.275304 3.07081,54.273503 3.039672,54.27218 3.042157,54.264303 3.107526,54.058003 3.112027,54.030148 3.405795,53.040543 3.415278,53.009623 3.439554,53.010144 3.472984,52.904644" slic3r:type="contour"/>
    <polygon style="fill: white" points="7.418836,56.470516 7.459242,57.18794 6.833281,57.454699 6.321676,57.656932 6.296692,57.075243 6.284706,56.33658 7.112147,56.021344 7.424195,55.879524" slic3r:type="contour"/>
    <polygon style="fill: white" points="9.372868,57.439576 9.530067,58.364216 9.137464,58.59578 8.440818,58.968356 8.395855,58.686684 8.271998,57.665704 8.830525,57.373236 9.334249,57.06592" slic3r:type="contour"/>
    <polygon style="fill: white" points="11.489502,58.271955 11.604807,58.733132 13.538745,58.95494 13.606202,59.04401 13.656184,59.008951 13.664818,59.002196 13.709457,59.180347 13.72447,59.200171 13.730618,59.220283 14.803841,60.497452 13.880891,60.39226 13.810193,60.444028 13.678069,60.426469 13.179132,60.831551 13.022347,60.945532 12.829302,60.313669 12.098329,60.216523 10.74657,60.092648 10.731031,60.066923 10.712646,60.078772 10.71178,60.075184 10.704734,60.038991 10.700811,60.034264 10.687089,59.980834 10.317055,59.234055 9.839969,58.527484 10.665897,58.657038 10.708703,58.630356 10.725644,58.632299 10.783704,58.595239 11.459907,58.104656" slic3r:type="contour"/>
    <polygon style="fill: white" points="16.027149,60.415227 16.199457,60.865631 15.538958,61.458575 15.264775,61.680855 14.998456,60.934124 14.863484,60.504249 14.813267,60.498526 15.676909,59.81322 15.806729,59.701348" slic3r:type="contour"/>
    <polygon style="fill: white" points="18.118903,60.842507 18.36413,61.378592 17.821826,61.935607 17.479,62.259359 17.223253,61.663447 16.992308,61.080712 17.669678,60.448495 17.881624,60.24082" slic3r:type="contour"/>
    <polygon style="fill: white" points="20.172625,61.109375 20.4926,61.678999 20.041398,62.229683 19.68443,62.641031 19.426295,62.153251 19.098768,61.514576 19.654451,60.879444 19.905436,60.589596" slic3r:type="contour"/>
    <polygon style="fill: white" points="22.212832,61.185876 22.597072,61.732548 22.212269,62.312572 21.895064,62.78186 21.614299,62.358011 21.193038,61.73268 21.650648,61.062672 21.895064,60.716324" slic3r:type="contour"/>
  </g></svg>