<svg width="43.790126" height="63.590156" xmlns="http://www.w3.org/2000/svg" xmlns:svg="http://www.w3.org/2000/svg" xmlns:xlink="http://www.w3.org/1999/xlink" xmlns:slic3r="http://slic3r.org/namespaces/slic3r"><g xmlns="http://www.w3.org/2000/svg" slic3r:z="2.975e-006" id="layer8">
    <polygon style="fill: white" points="21.967938,0.273398 22.115744,0.484029 22.119191,0.483899 22.130755,0.500337 22.666901,0.519501 23.046636,0.533785 23.062277,0.515886 23.066239,0.516462 23.308414,0.240748 23.365286,0.342395 23.479045,0.55005 23.484442,0.550253 23.500726,0.579627 24.103526,0.667261 24.451575,0.718006 24.473301,0.698852 24.474453,0.699203 24.72572,0.480812 24.764363,0.576909 24.841083,0.774794 24.84731,0.775702 24.864052,0.817781 25.519815,1.017368 25.831719,1.11078 26.124718,0.926437 26.147794,1.021136 26.191945,1.218662 26.198258,1.220553 26.211665,1.277452 26.818469,1.599615 27.123081,1.755889 27.476308,1.609686 27.48565,1.719646 27.498527,1.9485 27.505138,1.951892 27.510699,2.032245 27.921749,2.384484 28.261961,2.65862 28.735924,2.544761 28.726042,2.698822 28.695046,3.00759 28.702912,3.013928 28.695403,3.09968 28.900734,3.339983 29.328909,3.804455 29.426459,3.790911 29.93649,3.733058 29.89682,3.940633 29.808803,4.325029 29.819652,4.336798 29.803426,4.411998 29.861654,4.492588 30.421464,5.213605 30.668453,5.201323 31.133403,5.19005 31.061617,5.438574 30.923676,5.860436 30.940024,5.881492 30.920591,5.944172 31.630117,6.927293 31.945324,6.93025 32.386368,6.946699 32.293748,7.205814 32.129431,7.619141 32.152702,7.651386 32.128332,7.716947 33.048252,8.997397 33.302826,9.015407 33.767404,9.060917 33.675079,9.284697 33.508673,9.638265 33.536152,9.676513 33.496398,9.770183 33.697296,10.07285 34.562296,11.32738 35.11244,11.426263 35.039531,11.573056 34.899477,11.816401 34.918288,11.843683 34.885488,11.906581 35.686972,13.301003 36.02886,13.868567 36.062108,13.879433 36.064037,13.884351 36.226124,13.93289 36.197783,13.97687 36.140593,14.054053 36.144452,14.060459 36.137157,14.07074 36.481928,14.949594 36.684448,16.388498 36.779775,16.451892 36.84772,16.496682 36.715614,16.609928 36.71754,16.623616 36.626037,16.706781 36.347008,17.740284 36.191815,18.3866 36.47266,18.704406 36.634232,18.899478 36.085624,19.128157 36.006571,19.158073 35.974672,19.290924 35.663348,19.460148 35.60046,19.410264 35.5428,19.350562 35.383807,19.583899 35.265325,19.956322 35.327155,19.998129 35.342924,19.985122 35.31539,20.050599 35.661963,20.564631 35.891884,20.94533 35.429452,21.046737 34.886674,21.146545 34.885472,21.150322 34.850865,21.155255 34.564331,21.836642 34.73152,22.067112 35.066787,22.581366 34.683715,22.65992 34.205019,22.736755 34.029695,23.268936 34.587444,23.712854 34.254564,23.857309 33.94391,23.984428 33.957519,24.248102 33.993808,24.259624 34.672476,24.45912 34.407011,24.719584 34.150186,24.985848 34.233813,25.22553 34.569564,25.27123 35.129872,25.324537 34.907711,25.682978 34.643361,26.165675 34.69175,26.277004 34.746256,26.282218 34.772423,26.347253 35.490591,26.468525 35.847207,26.513234 35.582648,26.953271 35.282171,27.51278 35.519155,27.732022 35.87508,27.86418 35.893211,27.903637 36.385623,28.077159 36.54048,28.124878 36.192373,28.554676 36.388355,28.981175 36.812468,30.143145 36.818999,30.146665 36.819695,30.150065 36.904831,30.196827 36.936224,30.212876 36.848193,30.28925 36.87636,30.426826 37.00336,31.290744 37.021551,32.402463 37.02215,32.503566 37.027143,32.507068 37.026775,32.513758 37.080364,32.54939 37.057544,32.564427 37.022623,32.589317 36.909696,34.643816 36.894035,34.888285 36.908235,34.900287 36.906173,34.915541 37.01242,34.99938 36.960284,35.026639 36.885124,35.071223 36.639195,36.890128 36.588854,37.235318 36.612024,37.25888 36.606953,37.279787 36.745908,37.411496 36.666783,37.442596 36.554549,37.495854 36.202128,38.948912 36.096203,39.360702 36.127056,39.399543 36.116509,39.428182 36.288372,39.628232 36.17208,39.658607 36.011233,39.714067 35.611508,40.799543 35.432336,41.261621 35.468768,41.32066 35.449923,41.356888 35.644924,41.645836 35.483927,41.664812 35.26642,41.709653 34.879135,42.454168 34.614026,42.94056 34.650624,43.02184 34.621662,43.062507 34.818623,43.456912 34.611216,43.448636 34.335906,43.463767 34.011235,43.919668 33.653011,44.401679 33.682316,44.50206 33.644328,44.54136 33.811584,45.047524 33.564944,44.994136 33.242058,44.957522 33.010324,45.197259 32.556544,45.647875 32.572054,45.752944 32.527653,45.787404 32.63422,46.389032 32.365278,46.280016 32.023492,46.178688 31.878965,46.290856 31.333457,46.696582 31.335636,46.794895 31.288126,46.822952 31.317694,47.491824 31.044678,47.327992 30.708467,47.165273 30.620822,47.217031 29.996301,47.568702 29.989134,47.652868 29.940727,47.674976 29.891884,48.377932 29.630929,48.169047 29.31863,47.959101 29.242096,47.994055 28.561125,48.2876 28.549394,48.354516 28.501228,48.371827 28.385364,49.074348 28.148748,48.83716 27.869744,48.598788 27.748736,48.64228 27.04227,48.878825 27.02759,48.935668 26.986979,48.946355 26.817046,49.613148 26.612653,49.366703 26.364071,49.110272 26.157662,49.164587 25.458755,49.333973 25.442772,49.38064 25.414776,49.385216 25.201744,49.998104 25.028156,49.753224 24.809664,49.484147 24.510633,49.533036 23.83427,49.633938 23.818066,49.67152 23.805463,49.672243 23.556006,50.230108 23.407446,49.988508 23.215734,49.706057 22.852686,49.726875 22.200197,49.760818 21.895064,50.308204 21.763218,50.062412 21.611871,49.791421 21.611675,49.791431 21.609089,49.78644 21.593095,49.7578 21.22711,49.736772 20.5899,49.703642 20.234122,50.23012 20.110952,49.9637 19.980729,49.671971 19.972062,49.67152 19.951362,49.624231 19.654814,49.575548 19.007537,49.47905 18.588384,49.998104 18.474304,49.701176 18.364406,49.383169 18.347356,49.380627 18.325126,49.318552 18.12818,49.266512 17.462697,49.1053 16.973066,49.613155 16.873769,49.284047 16.787451,48.941723 16.762523,48.935684 16.741387,48.859705 16.640285,48.823271 15.962232,48.596176 15.404746,49.074344 15.329489,48.721947 15.271582,48.364862 15.240752,48.354536 15.223819,48.267907 15.183146,48.249328 14.516443,47.961627 13.898245,48.377952 13.857489,48.021887 13.833659,47.666987 13.801025,47.652904 13.790375,47.549357 13.751061,47.526172 13.128597,47.175093 12.472454,47.491811 12.471701,47.150831 12.48726,46.813369 12.454507,46.794896 12.454978,46.677338 12.367505,46.609628 11.813598,46.196795 11.155904,46.38904 11.194188,46.081196 11.248683,45.775756 11.218074,45.752943 11.233758,45.629236 11.058625,45.44872 10.590486,44.982627 9.978541,45.047512 10.047858,44.788524 10.133942,44.528076 10.107811,44.50206 10.139175,44.38468 9.858846,43.99294 9.486619,43.490445 8.971474,43.456884 9.056278,43.255783 9.159308,43.048586 9.139485,43.021824 9.179514,42.92673 8.814002,42.227984 8.545407,41.733284 8.145204,41.645808 8.229894,41.500191 8.334221,41.344325 8.321363,41.32064 8.361484,41.25203 7.962216,40.174272 7.791533,39.732235 7.501755,39.628224 7.575941,39.529188 7.670245,39.418123 7.663072,39.399544 7.696946,39.355011 7.334475,37.869384 7.242036,37.508487 7.044217,37.411496 7.103384,37.347499 7.181543,37.272308 7.178103,37.258879 7.203282,37.232352 6.948049,35.355816 6.907793,35.078553 6.777735,34.999412 6.822177,34.958951 6.883288,34.909769 6.881916,34.900319 6.897482,34.886707 6.777157,32.730518 6.768365,32.591913 6.709762,32.549418 6.731718,32.532475 6.763234,32.511036 6.762984,32.507096 6.768725,32.502929 6.786768,31.290757 6.947262,30.29483 6.879141,30.235265 6.853902,30.212876 6.989638,30.135077 7.203764,29.635848 7.621161,28.596166 7.343968,28.247772 7.249649,28.124872 7.820321,27.908406 7.908479,27.880496 7.915029,27.86418 8.326974,27.706797 8.51121,27.52363 8.097659,26.807435 7.94292,26.513234 8.445693,26.415129 9.023981,26.339009 9.043874,26.28225 9.111792,26.274014 9.149441,26.190752 8.900699,25.772114 8.660255,25.324538 9.075732,25.257678 9.584549,25.20723 9.654516,25.015101 9.56694,24.927457 9.11765,24.45912 9.470559,24.341981 9.841469,24.232353 9.854908,23.97881 9.202683,23.712854 9.485972,23.500142 9.739531,23.298972 9.553115,22.718798 9.332327,22.67725 8.723338,22.58138 8.950299,22.284186 9.214606,21.88483 8.918569,21.151986 8.904653,21.150321 8.900854,21.140668 8.319451,21.020929 7.898244,20.945312 8.157347,20.579814 8.477663,20.060519 8.447205,19.985122 8.454989,19.990616 8.512709,19.949124 8.408174,19.599201 8.231013,19.360042 8.126719,19.460146 8.044937,19.413797 7.815413,19.290924 7.768099,19.139026 7.369952,18.978699 7.155893,18.899478 7.526986,18.491288 7.555709,18.457163 7.392709,17.933862 7.139461,16.681468 7.072593,16.623622 7.074596,16.60065 7.001468,16.540329 6.942405,16.496682 7.092385,16.396621 7.109151,16.204307 7.308197,14.949593 7.578388,14.219184 7.647309,14.062684 7.645665,14.060448 7.653509,14.046365 7.563999,13.932891 7.617533,13.916925 7.725747,13.884568 7.728007,13.879437 7.750667,13.871923 8.542327,12.450523 8.893484,11.88384 8.871864,11.843735 8.904571,11.793776 8.677689,11.426287 8.855904,11.39867 9.201813,11.339748 9.644287,10.663883 10.28451,9.746636 10.253973,9.676513 10.293551,9.619471 10.23464,9.483263 10.022727,9.060909 10.284993,9.043971 10.718503,9.007024 10.872794,8.784657 11.65554,7.699181 11.637445,7.651348 11.668285,7.606343 11.574758,7.354465 11.403759,6.946699 11.688888,6.946067 12.128108,6.935326 12.150367,6.902842 12.861668,5.917748 12.850166,5.88155 12.875075,5.847476 12.806403,5.619756 12.656743,5.190052 12.91146,5.204533 13.334031,5.219635 13.391615,5.140863 13.980231,4.38024 13.970466,4.336762 13.99367,4.310007 13.973849,4.212494 13.853631,3.733055 14.053385,3.762256 14.422828,3.808303 14.424598,3.806015 14.430131,3.806758 14.642448,3.561951 15.092746,3.071037 15.087223,3.013823 15.108745,2.99556 15.054214,2.544762 15.195737,2.583453 15.475454,2.653808 15.477828,2.651219 15.505979,2.658505 15.945761,2.285347 16.281223,2.014139 16.285039,1.951847 16.300302,1.943759 16.313839,1.609677 16.412116,1.653021 16.619399,1.740733 16.620798,1.739602 16.656498,1.755002 17.286828,1.420975 17.580438,1.270317 17.591844,1.220553 17.603601,1.216973 17.665414,0.926433 17.74797,0.979165 17.927074,1.092447 17.927527,1.092215 17.955132,1.109932 18.62085,0.90722 18.927189,0.815524 18.942834,0.775639 18.952862,0.774181 19.064408,0.480786 19.144496,0.549816 19.316593,0.698963 19.316906,0.698869 19.338829,0.718068 19.946712,0.629693 20.289515,0.579708 20.305683,0.550253 20.314204,0.549949 20.481712,0.240748 20.560986,0.329059 20.726452,0.515997 20.727774,0.515804 20.74433,0.534602 21.281399,0.51544 21.65885,0.50123 21.670935,0.4839 21.677795,0.484145 21.895064,0.171442" slic3r:type="contour"/>
    <polygon style="fill: black" points="21.024872,1.658134 20.922967,1.850754 20.707624,2.252961 20.498628,2.01141 20.268489,1.742598 19.785411,1.831043 19.71816,2.014238 19.55344,2.448701 19.317117,2.238827 19.059342,2.006142 18.579692,2.164131 18.542896,2.346417 18.444154,2.801907 18.17761,2.628083 17.889116,2.436432 17.417917,2.673417 17.410643,2.884321 17.387712,3.334179 17.085315,3.200563 16.759149,3.053624 16.301714,3.378239 16.336752,3.677387 16.378303,4.080624 16.032213,3.990355 15.652194,3.886746 15.17607,4.334113 15.276581,4.751131 15.353011,5.090313 14.966175,5.042859 14.527872,4.981125 14.011509,5.588334 14.020595,5.617663 14.014981,5.625261 14.181708,6.122806 14.269447,6.404113 13.850232,6.395469 13.460314,6.375967 12.792765,7.279448 12.835745,7.39419 12.833498,7.39719 12.999832,7.809543 13.090179,8.056621 12.653326,8.080265 12.319622,8.083129 11.42839,9.272777 11.491086,9.417445 11.487746,9.421768 11.677744,9.820673 11.781967,10.068292 11.351069,10.118181 10.929159,10.144765 10.738604,10.391405 10.137,11.596213 10.359652,11.983548 10.518977,12.288318 10.156522,12.354615 9.757759,12.412349 9.703343,12.576234 9.18073,14.13204 9.198872,14.157148 9.487536,14.558839 9.27648,14.615491 9.0578,14.676566 8.944618,16.576325 8.908345,16.649187 8.924296,16.6609 8.901489,16.673045 8.854257,16.91165 8.554739,18.253067 8.825451,18.372662 9.114332,18.466542 8.873889,18.696206 8.48988,19.149042 8.508484,19.607979 8.817508,19.953326 9.264551,20.067629 9.810871,20.158724 9.733988,20.261885 9.44924,20.711945 10.558361,21.518364 10.653823,21.765011 10.683691,21.769627 10.710729,21.776029 10.678165,21.830407 10.695385,21.885587 11.115575,23.26932 11.298848,23.359493 11.410512,23.412584 11.160158,23.647897 11.155579,23.75137 11.109641,24.776707 11.19949,24.883572 11.256174,24.93599 11.100094,24.989774 11.099992,24.992052 11.067121,25.004993 11.039197,25.08792 10.808985,25.760324 10.550987,25.862727 10.42952,25.926254 10.467714,26.000913 10.462242,26.003727 10.578739,26.207828 10.519551,26.218403 9.826564,26.337056 9.400057,26.596529 9.416845,26.627948 9.411479,26.632874 9.55143,26.862532 9.83645,27.365038 9.58814,27.410664 8.670237,27.566579 8.610717,27.912946 8.971643,28.340925 9.229784,28.666136 8.82632,28.800804 8.457904,28.922498 8.382844,29.981378 8.661812,30.224494 8.885755,30.421662 8.436496,30.652961 8.336265,30.707121 8.34,31.715647 8.330294,32.239684 8.550212,32.394336 8.754092,32.531281 8.319687,32.81238 8.319365,32.829792 8.316607,32.83174 8.382187,33.772647 8.405805,34.553443 8.612684,34.672083 8.826159,34.781928 8.420099,35.095177 8.559331,36.039748 8.632975,36.794292 8.845638,36.889107 9.086709,36.97874 8.689966,37.343765 8.916282,38.230156 9.030595,38.815562 9.247953,38.883168 9.514041,38.943123 9.16175,39.340932 9.142549,39.365763 9.452674,40.177732 9.588186,40.61625 9.805078,40.65246 10.093228,40.672468 9.782721,41.11798 9.76012,41.155786 10.153188,41.890755 10.288467,42.194018 10.502648,42.196028 10.809477,42.166008 10.553262,42.6597 10.528699,42.716281 11.006815,43.372875 11.116994,43.550391 11.328623,43.515195 11.649234,43.42586 11.462089,43.959976 11.437508,44.047775 12.00312,44.620572 12.064174,44.691569 12.281037,44.614812 12.607091,44.461728 12.498145,45.01784 12.479083,45.156201 13.133213,45.651772 13.357507,45.529575 13.681584,45.314404 13.646989,45.870391 13.644217,46.074315 14.314857,46.45825 14.55045,46.285511 14.868241,46.013428 14.89576,46.548739 14.921952,46.831758 15.602874,47.129061 15.847952,46.90604 16.158751,46.584128 16.231278,47.081568 16.299024,47.455921 16.97978,47.685468 17.226846,47.415623 17.53299,47.048904 17.634654,47.495168 17.755059,47.959385 18.418583,48.120455 18.662996,47.801711 18.960926,47.393479 19.084301,47.786195 19.267828,48.324078 19.905587,48.418898 20.138472,48.052755 20.421488,47.608048 20.56381,47.956252 20.811189,48.531634 21.426939,48.563401 21.636061,48.15668 21.895064,47.68284 22.060092,48.00288 22.358124,48.566281 22.966531,48.534907 23.143552,48.099044 23.36864,47.608048 23.56689,47.919728 23.889332,48.426543 24.503137,48.335354 24.641636,47.889323 24.8292,47.393484 25.070416,47.708736 25.387309,48.131301 25.977995,47.987961 26.010611,47.976953 26.108373,47.53918 26.257108,47.048904 26.549552,47.369476 26.838027,47.697727 27.445667,47.492666 27.44811,47.481764 27.463289,47.475118 27.521614,47.061371 27.631376,46.584128 27.978271,46.901115 28.22699,47.140746 28.820506,46.880885 28.821531,46.873156 28.835407,46.865175 28.853722,46.474743 28.921884,46.013428 29.320949,46.306771 29.526092,46.467901 30.098015,46.138939 30.098208,46.130939 30.111504,46.120796 30.0876,45.7556 30.10855,45.314416 30.555049,45.557311 30.720711,45.656022 31.268168,45.238358 31.266856,45.225432 31.278856,45.213159 31.21257,44.875935 31.183038,44.46176 31.666849,44.631008 31.796734,44.683523 32.322109,44.146221 32.316802,44.124496 32.326165,44.111465 32.21971,43.804395 32.14089,43.42586 32.646895,43.506047 32.745779,43.527466 33.249557,42.826332 33.235428,42.79078 33.241701,42.778858 33.100744,42.501868 32.980636,42.165976 33.49067,42.155356 33.568151,42.15846 33.999604,41.338507 34.034625,41.259251 34.014399,41.223112 34.0178,41.214039 33.848164,40.964228 33.696912,40.672435 34.198235,40.581772 34.257497,40.574622 34.603691,39.651104 34.663896,39.454192 34.640928,39.422872 34.642209,39.417745 34.44886,39.19278 34.276087,38.94314 34.762371,38.784608 34.803166,38.773618 35.056892,37.758248 35.122637,37.416455 35.089326,37.380185 34.888395,37.189279 34.703392,36.978744 35.190181,36.754419 35.345504,35.67146 35.395055,35.149162 35.151435,34.955351 34.963967,34.781944 35.406858,34.522078 35.480388,33.409849 35.497381,32.853794 35.237964,32.681748 35.036036,32.531282 35.471414,32.221801 35.472692,30.981678 35.468746,30.725526 35.159183,30.564081 34.904371,30.421662 35.249556,30.121607 35.400636,29.989235 35.326866,28.919452 34.929127,28.786976 34.560324,28.666136 34.78448,28.404313 35.176625,27.923291 35.11774,27.564725 34.484315,27.449551 33.953676,27.365008 34.051079,27.207982 34.383531,26.638509 34.373335,26.627863 34.381996,26.611164 33.871848,26.317328 33.211386,26.207798 33.233635,26.170418 33.329377,26.004871 33.322422,26.000865 33.350715,25.942229 32.981142,25.760304 32.724984,25.00863 32.612261,24.969477 32.533952,24.935996 32.679733,24.757119 32.675803,24.668317 32.629561,23.63488 32.473296,23.489386 32.379613,23.412584 32.678631,23.265201 32.730659,23.098982 33.113623,21.827336 33.094802,21.796847 33.079426,21.77603 33.131421,21.768237 33.132239,21.765522 33.137468,21.76441 33.156941,21.716148 33.231789,21.518364 33.916407,21.161824 34.362735,20.793657 34.30842,20.716922 33.97926,20.158724 34.153776,20.112224 35.060554,19.923722 35.284692,19.63133 35.318311,19.192249 34.909736,18.76662 34.675796,18.466542 35.100371,18.268844 35.305052,18.190587 35.192536,17.417436 34.896709,16.680399 34.875451,16.667794 34.865831,16.6609 34.886256,16.643838 34.845508,16.576325 34.835844,15.395666 34.760709,14.687969 34.302592,14.558839 34.449195,14.356356 34.612221,14.129978 34.455079,13.653602 34.033448,12.402845 33.651175,12.339848 33.271146,12.288348 33.468288,11.959951 33.648286,11.627926 33.09082,10.503471 32.78607,10.127002 32.29106,10.082093 32.00813,10.06829 32.202117,9.685212 32.311978,9.436385 32.299026,9.417476 32.342305,9.321713 31.503365,8.229688 31.398007,8.069337 30.969121,8.055303 30.699946,8.056632 30.866778,7.663381 30.96364,7.408252 30.9544,7.39419 30.982757,7.321144 30.278101,6.370859 29.818268,6.386567 29.520682,6.40411 29.65514,6.0176 29.778768,5.631671 29.769534,5.617706 29.77818,5.590636 29.256872,4.977736 28.78198,5.039873 28.437119,5.09031 28.529083,4.722067 28.617791,4.337692 28.135274,3.884321 27.801424,3.973163 27.411826,4.080635 27.455,3.735169 27.49287,3.383537 27.026912,3.052938 26.812395,3.148541 26.40242,3.334187 26.394244,3.01064 26.37928,2.683731 25.892192,2.438788 25.735458,2.541853 25.345974,2.801909 25.286067,2.492972 25.218462,2.17407 24.722016,2.010467 24.583482,2.134372 24.2367,2.448709 24.129779,2.152405 24.011828,1.837954 23.515614,1.747015 23.380428,1.903982 23.082502,2.252964 22.933738,1.970028 22.768931,1.661046 22.279539,1.633202 22.149463,1.822981 21.895064,2.195041 21.712398,1.928862 21.50833,1.63065" slic3r:type="hole"/>
  </g></svg>