<svg width="43.790126" height="63.590156" xmlns="http://www.w3.org/2000/svg" xmlns:svg="http://www.w3.org/2000/svg" xmlns:xlink="http://www.w3.org/1999/xlink" xmlns:slic3r="http://slic3r.org/namespaces/slic3r"><g xmlns="http://www.w3.org/2000/svg" slic3r:z="2.44249999999999e-005" id="layer73">
    <polygon style="fill: white" points="17.545228,4.577219 17.633966,4.663421 17.874191,4.454508 18.17575,4.38068 18.51349,4.874168 18.668326,4.862893 18.682812,4.865463 18.790727,4.846508 18.81169,4.848786 18.812457,4.884914 18.833942,4.878354 18.858853,5.153646 19.068414,5.125692 19.079041,5.320251 19.229746,5.244142 19.301611,5.570879 19.568478,5.31638 19.720545,5.650479 19.804267,5.873567 19.948785,5.695766 20.199048,5.381569 20.388477,5.714054 20.560808,6.025472 20.78486,5.715038 21.001584,5.406972 21.207869,5.73099 21.43479,6.081716 21.685091,5.714552 21.895064,5.407371 22.110072,5.723279 22.354098,6.080524 22.588204,5.715601 22.788543,5.406958 23.017233,5.718484 23.233865,6.024345 23.410184,5.710661 23.591066,5.381573 23.829266,5.670576 24.005565,5.89072 24.08645,5.698267 24.221654,5.31638 24.455367,5.550729 24.569812,5.660687 24.560378,5.24415 24.747439,5.372163 24.805276,5.325033 24.721736,5.12569 24.819333,5.177028 24.875617,5.186528 24.958286,4.87052 24.978498,4.848755 25.025333,4.871879 25.12188,4.86287 25.408809,4.896417 25.601442,4.568397 25.614376,4.380678 25.736469,4.674 26.062013,4.785104 26.23994,4.626308 26.536562,4.32553 26.499704,4.558036 26.791224,5.089973 26.982139,5.113159 27.339312,4.899274 27.57719,4.771587 27.673416,5.197114 27.861574,5.219965 28.345728,5.1636 28.351686,5.261374 28.384052,5.31479 28.509574,5.249221 28.532808,5.34187 28.573701,5.62778 28.616974,5.699195 28.697534,6.032817 28.827633,6.177093 29.197568,5.894566 29.538226,5.683892 29.695868,6.178958 29.7169,6.274102 30.156208,6.320438 30.334263,6.311486 30.430275,6.236994 30.466523,6.242051 30.584393,6.1417 30.69817,6.057122 30.781655,6.286016 30.994905,6.315767 31.931634,6.383936 31.995935,6.43228 32.022916,6.41013 32.027632,6.42519 32.035378,6.451072 32.039645,6.453495 32.042145,6.460241 32.901158,6.914611 33.165976,7.04932 33.433746,6.843817 33.469399,6.984672 33.530576,7.234789 33.573296,7.25652 33.594493,7.324635 33.850135,7.462477 34.285102,7.714297 34.285835,7.713848 34.303585,7.72753 34.397788,7.671932 34.83586,7.399145 34.869155,7.624449 34.932472,8.089086 34.99806,8.127057 35.032539,8.305855 35.225216,8.464937 35.360928,8.415234 35.382243,8.44581 35.712696,8.322602 36.14884,8.151641 36.1443,8.462222 36.127245,8.951692 36.13952,8.958035 36.134166,9.09404 36.364561,9.271761 36.457747,9.256886 36.458156,9.257345 36.828304,9.197463 37.221799,9.134967 37.134911,9.547668 37.071949,9.812042 37.074232,9.813773 37.050344,9.922725 37.297762,10.200723 37.403088,10.204367 37.407839,10.211949 37.717524,10.211938 38.04544,10.216798 37.862036,10.692833 37.800587,10.838676 38.036622,11.215331 38.136404,11.23323 38.144059,11.250005 38.397667,11.279802 38.671308,11.317054 38.403505,11.818606 38.57176,12.18735 38.59196,12.228864 38.678344,12.252598 38.686719,12.276939 38.904579,12.318827 39.148644,12.368661 38.867077,12.801128 38.980748,13.131498 38.995414,13.171721 39.081459,13.202642 39.087461,13.229006 39.297104,13.286247 39.53946,13.350978 39.211025,13.771806 39.281196,14.080063 39.288343,14.11102 39.363471,14.147049 39.366579,14.176413 39.585499,14.264522 39.835136,14.360473 39.428194,14.758579 39.459044,15.050064 39.463605,15.100897 39.515576,15.135304 39.51449,15.17003 39.756819,15.318248 39.99858,15.459576 39.494838,15.79918 39.487767,16.025499 39.479455,16.161868 39.500039,16.181503 39.496257,16.202936 39.733256,16.430242 39.92736,16.617731 39.385842,16.828761 39.360456,16.972643 39.297569,17.29131 39.44922,17.484129 39.559824,17.663168 39.19686,17.73957 39.180695,17.834944 39.084734,18.476162 39.123692,18.52595 39.151224,18.582838 39.066284,18.603759 39.078451,18.800912 38.65284,18.770628 38.390817,19.188182 38.647719,19.396827 38.91752,19.668856 38.677,19.840539 38.40627,20.009876 38.585399,20.354517 38.981976,21.127432 38.955212,21.205136 38.996824,21.224892 38.982148,21.237629 38.959026,21.266187 38.880107,22.32343 38.791705,23.060263 38.921204,23.129185 38.926529,23.276088 39.298811,23.478401 39.687628,23.631918 39.369372,23.927277 39.228822,24.141287 39.310172,24.242558 39.18602,24.448333 39.768627,24.751636 40.304076,25.366838 40.391832,26.001308 40.381837,26.305328 40.445016,26.339772 40.457204,26.438751 40.763132,26.574916 40.638899,26.682268 40.514177,26.90137 40.603732,27.628572 40.506883,28.773997 40.767416,28.931138 40.777349,29.10573 41.109168,29.247952 41.385505,29.584294 41.826571,29.891869 41.965964,29.964942 41.811116,30.102325 41.87262,30.177184 41.842524,30.227135 41.99878,30.304534 42.108264,30.444854 42.091436,31.800564 41.851176,32.616842 42.067916,32.8113 42.026255,33.047446 42.583752,33.61112 42.925252,33.879688 42.528707,34.207854 42.669168,34.404187 42.606813,34.487728 42.902752,34.686908 43.070648,34.929151 42.785959,35.9273 42.304274,36.703937 42.499484,36.975892 42.41531,37.152318 43.11164,38.140824 43.314676,38.37796 43.045832,38.579546 43.1205,38.6927 43.094788,38.719349 43.245716,38.846796 43.318712,38.948048 42.785212,39.862755 42.288016,40.382404 41.561832,39.557936 41.297908,39.377244 41.771811,38.802554 41.722471,38.722376 41.775669,38.619399 41.509355,38.344267 41.288248,37.963352 41.580107,37.541252 42.062244,37.121735 41.948716,37.008008 42.084656,36.754852 42.180593,36.660312 41.649776,36.120488 41.139276,35.828296 41.675056,34.806763 41.688747,34.774027 41.549876,34.59538 41.588199,34.441741 41.214016,34.18226 40.850476,33.748924 41.018023,33.434338 41.339686,33.114164 41.223008,33.00998 41.397095,32.623191 41.117704,32.389362 40.454148,32.072194 40.730514,30.832488 40.527768,30.644764 40.532537,30.528796 40.214123,30.378093 39.862776,30.092101 40.033215,29.709828 40.412637,29.275544 40.24352,29.141748 40.354808,28.889755 40.43862,28.787827 39.419427,27.950459 39.013051,27.740024 39.031823,27.078561 38.93172,27.008962 38.930235,26.974769 38.821351,26.932451 38.685059,26.848478 38.905589,26.406814 38.83241,24.720515 38.796704,24.706152 38.568708,24.560155 38.564978,24.430109 38.181095,24.276848 37.681632,23.984826 37.808712,23.764262 38.000162,23.533523 37.936168,23.460233 38.066532,23.271409 37.915195,23.036453 37.096832,21.827616 37.115569,21.563851 37.054296,21.525083 37.02882,21.509736 37.111205,21.419988 37.420472,20.011359 37.324867,19.940478 37.099312,19.78652 36.918144,19.64135 37.390316,19.278389 37.505559,19.200692 37.694154,18.749513 37.366808,18.468768 37.097488,18.197095 37.546991,17.95373 37.840845,17.820623 37.911036,17.585671 37.772659,17.459337 37.40088,17.07127 37.795899,16.912258 38.071607,16.815502 38.130602,16.589948 37.649484,16.206255 37.973096,16.078404 38.189594,15.986926 38.206854,15.705493 37.718828,15.433695 37.977247,15.298137 38.143428,15.192358 38.104722,14.850066 37.648836,14.669419 37.848979,14.524861 37.971185,14.416824 37.960072,14.385965 37.867183,14.019247 37.462332,13.909158 37.609639,13.768591 37.707301,13.655208 37.6181,13.464653 37.507514,13.164442 37.16618,13.101815 37.269959,12.973866 37.348577,12.861421 37.152159,12.493023 37.041575,12.257023 36.783996,12.232857 36.849772,12.124972 36.902393,12.03295 36.577359,11.537962 36.477209,11.377647 36.30158,11.383813 36.334623,11.29942 36.363712,11.228832 35.8884,10.670637 35.80715,10.57665 35.695788,10.599629 35.706119,10.537542 35.717427,10.487862 35.048,9.925655 34.992646,9.881121 34.932184,9.906598 34.928572,9.839056 33.923257,9.313766 33.923139,9.312788 33.069492,8.55845 32.811601,8.73741 32.723626,8.807668 32.639768,8.397519 32.544464,8.055764 31.968007,7.945304 31.649131,8.183051 31.432032,8.381735 31.364232,8.114276 31.287052,7.892307 30.863811,7.859104 30.379126,7.800902 30.358958,7.815956 30.308048,7.812962 30.111644,7.99767 30.08234,7.888692 30.049852,7.797778 29.390672,7.759013 29.047254,7.435932 28.917019,7.521897 28.841086,7.584461 28.744652,7.151249 28.678062,7.088602 28.546778,6.679658 28.35123,6.671362 27.973817,6.879876 27.66844,7.111314 27.636132,6.826272 27.591344,6.639122 26.687716,6.600784 26.671296,6.568181 26.651169,6.582112 26.652087,6.530037 26.628416,6.483035 26.480626,5.739223 26.31927,5.884042 26.317044,5.926384 26.323476,5.94608 26.413964,6.237689 26.141144,6.212406 26.062796,6.304648 26.102058,6.459236 26.13534,6.608258 25.824987,6.584623 25.805112,6.608022 25.558129,6.900322 25.547472,6.975408 25.533353,6.982065 25.526616,7.043887 25.522214,7.099204 25.391925,7.048585 24.805916,7.32972 24.694516,7.319314 24.675348,7.368825 24.663279,7.357895 24.629132,7.324338 24.622829,7.324631 24.610914,7.314321 24.009134,7.273854 23.90689,7.273842 23.906684,7.274201 23.889444,7.27392 23.785372,7.470871 23.743459,7.419161 23.627857,7.273811 23.618657,7.27381 23.615052,7.269456 23.198633,7.26268 23.01575,7.261901 23.013846,7.264815 22.995156,7.264784 22.849508,7.502732 22.803663,7.436861 22.683205,7.264267 22.283635,7.263603 22.062499,7.263974 22.062122,7.264533 22.052357,7.264549 21.895064,7.503525 21.85133,7.437067 21.738127,7.265065 21.328768,7.265738 21.106554,7.265367 20.94059,7.502732 20.898438,7.43693 20.791595,7.265354 20.346538,7.272037 20.193692,7.272751 20.159069,7.274402 20.004784,7.470871 19.974113,7.416859 19.903374,7.286585 19.213966,7.319434 19.172922,7.319701 19.167219,7.3247 19.156816,7.32499 19.114776,7.368835 19.09709,7.326654 18.984424,7.329794 18.387377,7.044532 18.31579,7.073399 18.267908,7.099209 18.254378,6.980985 18.242642,6.975378 18.231918,6.900847 18.18073,6.840537 17.95099,6.569114 17.79424,6.582584 17.654786,6.608259 17.732447,6.310918 17.645202,6.207843 17.37616,6.237709 17.450418,6.013608 17.442004,5.967933 17.396962,5.932038 17.308403,5.833589 17.161719,6.483022 17.149098,6.505161 17.143088,6.566149 17.138958,6.582111 17.109348,6.569889 17.102414,6.600783 16.475643,6.54428 16.258287,6.568484 16.250605,6.611958 16.121702,7.111314 15.790281,6.950048 15.370797,6.667315 15.249796,6.680789 15.111994,7.088719 15.075498,7.120714 14.984255,7.472158 14.949046,7.584433 14.709839,7.44127 14.619281,7.520657 14.39952,7.758979 13.886225,7.769691 13.759254,7.782604 13.678485,7.997665 13.560797,7.922001 13.435499,7.815529 13.431184,7.815968 13.37293,7.776411 12.950124,7.793808 12.54284,7.848175 12.482011,8.044886 12.358101,8.381747 12.076789,8.198525 11.744722,7.919839 11.269401,8.015022 11.103961,8.680384 11.066509,8.807671 10.651305,8.548014 10.398061,8.739338 9.867086,9.312362 9.866862,9.313774 8.915208,9.810396 8.855032,9.84217 8.857934,9.906614 8.804979,9.877191 8.153579,10.426792 8.0694,10.494329 8.09433,10.599621 8.038692,10.584749 7.986999,10.573657 7.524064,11.118415 7.425582,11.232233 7.48855,11.383787 7.400169,11.380569 7.306856,11.377278 6.994267,11.849028 6.88667,12.021607 7.006148,12.232804 6.87731,12.25121 6.734536,12.265619 6.7263,12.27883 6.715991,12.28057 6.542815,12.59736 6.435725,12.826189 6.623935,13.101816 6.452959,13.149775 6.267245,13.186193 6.25876,13.204325 6.215657,13.216495 6.167629,13.314619 6.063899,13.594832 6.327792,13.909159 6.118307,13.992094 5.893063,14.056316 5.885713,14.076171 5.850649,14.089294 5.784436,14.348136 6.141288,14.669426 5.900473,14.795129 5.643344,14.899688 5.639208,14.915858 5.63234,14.91934 5.607481,15.135439 6.071296,15.433716 5.808801,15.602804 5.556851,15.744539 5.570365,15.964825 6.140651,16.206284 5.862844,16.417886 5.653188,16.584636 5.71843,16.833589 5.823191,16.873386 6.389247,17.071316 6.084787,17.327781 5.86896,17.549036 5.95852,17.849028 6.305501,18.023612 6.69263,18.197084 6.328194,18.483667 6.146883,18.660858 6.416732,19.108179 6.465152,19.358919 6.652994,19.49576 6.871984,19.641322 6.558215,19.840837 6.563402,19.867696 6.526788,19.892576 6.648218,20.220511 6.702138,21.451479 6.727422,21.477672 6.76131,21.509736 6.705889,21.537095 6.706184,21.543838 6.695092,21.5501 6.708509,21.616629 6.693378,21.827242 6.133151,22.973568 5.795969,23.383072 5.853958,23.460218 5.76035,23.601719 6.108478,23.984868 5.786598,24.109498 5.248512,24.379716 5.22144,24.560154 5.003347,24.676333 5.062841,25.663835 4.920002,26.603849 4.996501,26.73039 5.105075,26.84846 4.869225,26.93801 4.858453,27.0089 4.801301,27.04113 4.826337,27.285488 4.77714,27.73985 4.147093,28.4117 3.353605,28.807003 3.54666,29.14174 3.351989,29.342169 3.613288,29.784192 3.927356,30.09211 3.274068,30.402284 3.262444,30.64472 3.135732,30.738649 3.286126,31.283192 3.336048,32.071964 2.980761,32.454328 2.401322,32.742377 2.567057,33.009931 2.398589,33.207333 2.504774,33.36005 2.939639,33.748968 2.412741,34.120156 2.195074,34.323361 2.240208,34.59536 2.152567,34.686536 2.45136,35.219815 2.650848,35.828452 2.316752,36.25988 1.616599,36.692741 1.841395,37.008016 1.713087,37.167506 2.119761,37.646572 2.501872,37.963292 1.979111,38.519877 2.067659,38.722379 2.039855,38.760402 2.314381,39.085208 2.492206,39.377324 2.062866,39.96544 1.50206,40.382452 0.595021,39.079856 0.471411,38.947948 0.715362,38.747774 0.669623,38.692648 0.712267,38.639046 0.564901,38.518372 0.475447,38.37794 0.910334,37.62814 1.37207,37.111333 1.290597,36.975839 1.41226,36.759916 1.487384,36.679635 0.953723,35.337328 0.719476,34.929192 1.237069,34.595523 1.120992,34.404164 1.193023,34.325873 0.979788,34.118863 0.864894,33.879608 1.32664,33.304892 1.768504,32.967716 1.722224,32.811272 1.953545,32.551601 1.981286,32.532931 1.772733,30.857324 1.681823,30.445014 1.977976,30.306452 1.917523,30.177274 1.946858,30.150885 1.862183,30.057245 1.824153,29.96499 2.459679,29.417214 3.033184,29.120164 3.022753,28.931181 3.170809,28.817906 3.290582,28.764755 3.324925,27.238 3.301356,27.21206 3.026984,26.57494 3.188354,26.453613 3.344132,26.384144 3.345131,26.33979 3.451612,26.266243 3.486052,25.366876 4.063625,25.048289 4.625912,24.559619 4.479957,24.242588 4.517865,24.206289 4.230286,23.882186 4.102496,23.631964 4.468182,23.382396 4.871268,23.212748 4.868987,23.129202 5.015594,23.040166 4.835149,21.287928 4.793311,21.224872 4.828445,21.199559 4.80814,21.127533 5.396339,19.990621 5.0914,19.783341 4.872613,19.66885 5.021343,19.56528 5.262039,19.347887 4.711666,18.80096 4.71564,18.578142 4.63888,18.582838 4.708029,18.501862 4.684577,18.361738 4.581116,17.701564 4.413748,17.667686 4.230269,17.663116 4.504682,17.321619 4.441731,16.968068 4.407521,16.790617 4.115288,16.678613 3.862761,16.617709 4.294387,16.203776 4.29009,16.181485 4.325645,16.14923 4.313905,15.78839 4.034741,15.602096 3.791555,15.459542 4.276276,15.162617 4.274649,15.135225 4.336779,15.094237 4.372388,14.757448 4.155774,14.54678 3.954966,14.360497 4.424496,14.171031 4.42663,14.14706 4.499742,14.111379 4.571025,13.798293 4.580344,13.757965 4.414885,13.547846 4.250686,13.350952 4.702981,13.227173 4.708648,13.202651 4.781242,13.176889 4.893893,12.849253 4.921266,12.774304 4.786708,12.570706 4.641492,12.36867 5.101441,12.280974 5.111807,12.252591 5.179195,12.235243 5.355449,11.849173 5.387244,11.783528 5.258159,11.546438 5.118807,11.317075 5.642149,11.257236 5.653789,11.233204 5.732639,11.220788 5.991308,10.808822 5.972917,10.767632 5.975697,10.764516 5.872381,10.501923 5.744674,10.216814 6.225446,10.218157 6.378797,10.216938 6.387042,10.204379 6.476458,10.203121 6.739719,9.907983 6.715873,9.8137 6.728886,9.803674 6.66345,9.500751 6.568349,9.13494 6.944965,9.196072 7.331348,9.257983 7.332347,9.256896 7.418913,9.272034 7.659591,9.0866 7.650627,8.958018 7.67075,8.94766 7.664533,8.606027 7.641285,8.151643 7.910341,8.25117 8.40929,8.4422 8.429015,8.415119 8.578009,8.468906 8.753935,8.325509 8.792019,8.127201 8.863349,8.087956 8.889125,7.911065 8.95424,7.399162 9.145355,7.511129 9.493701,7.722532 9.504294,7.713898 9.522458,7.724879 10.190075,7.343106 10.216869,7.256442 10.263916,7.231927 10.356374,6.843838 10.47075,6.927925 10.624656,7.043955 11.661246,6.503814 11.748375,6.459153 11.750449,6.453441 11.75561,6.450117 11.76715,6.410151 11.789225,6.428468 11.858261,6.384006 13.028583,6.269435 13.061423,6.175346 13.091951,6.057125 13.301671,6.2427 13.359878,6.237002 13.39146,6.262461 14.143477,6.20464 14.206634,5.993974 14.251872,5.683891 14.55516,5.930791 14.881381,6.150008 15.163537,5.742589 15.173102,5.69928 15.268164,5.511586 15.280523,5.24923 15.368718,5.31305 15.444419,5.163584 16.166643,5.129904 16.191092,5.015801 16.212937,4.771591 16.67382,5.057063 16.755253,5.102455 16.894798,5.095947 16.935774,4.785221 17.253564,4.325528" slic3r:type="contour"/>
    <polygon style="fill: white" points="1.688279,41.717878 2.520881,42.500627 2.636057,42.587788 2.50116,42.781557 2.529437,42.821144 2.615899,42.906935 2.668623,42.966452 2.119535,43.712795 1.769545,44.015364 1.659032,43.898713 1.320861,43.673824 0.663057,43.111816 0.707805,43.04536 0.768055,42.968766 0.794873,42.915973 0.635912,42.75256 0.715044,42.670868 1.551699,41.613623 1.561722,41.598899 1.562655,41.599777 1.57259,41.587223" slic3r:type="contour"/>
    <polygon style="fill: white" points="2.383988,46.043024 2.752484,46.445524 3.037986,46.637552 3.077267,46.660772 3.02258,46.740545 3.027889,46.746343 3.026867,46.747716 3.070363,46.795855 3.103211,46.835296 2.628081,47.62242 2.28461,48.060584 1.910235,47.642174 1.797001,47.576276 1.120525,47.179252 1.186283,47.092323 1.313118,46.936722 1.059925,46.694476 1.180043,46.552271 1.946914,45.605384" slic3r:type="contour"/>
    <polygon style="fill: white" points="3.226233,49.484815 3.551171,49.597572 3.059838,50.275448 2.925871,50.460048 3.42989,51.229136 3.684966,51.647557 3.946761,51.736359 4.025159,51.751472 3.879009,51.965859 3.886283,51.977792 3.876933,51.991082 4.028168,52.278204 4.576585,53.446561 4.610285,53.452288 4.624994,53.453048 4.599565,53.49825 4.643695,53.575055 5.32861,54.882741 5.404986,54.881332 5.443412,54.877456 5.39366,55.007853 5.581805,55.256119 6.250352,56.186306 6.453288,56.141731 6.554475,56.115192 6.4855,56.497867 7.215538,57.155976 7.517026,57.433824 7.893245,57.284275 8.050808,57.218256 8.052759,57.914569 9.077334,58.616968 9.647471,58.31178 9.853157,58.197756 9.948861,58.930179 9.997144,59.249525 10.823783,59.711719 11.601386,59.21086 11.848805,59.043368 11.992633,59.690319 12.126089,60.225308 11.318144,60.803823 11.119907,60.933312 10.91915,60.170511 10.841489,59.809226 9.88421,59.581094 9.76021,59.648 9.671846,59.618458 9.089438,59.965752 8.965375,60.031304 8.845866,59.342313 8.099437,59.092764 7.218629,58.864358 7.162019,58.886408 7.138932,58.875046 6.987188,58.943755 6.955272,58.955672 6.945152,58.779682 6.788718,58.702696 6.397991,58.548207 5.615887,57.782836 5.415978,57.606361 5.403749,57.609732 5.402876,57.608481 5.195031,57.64826 5.200078,57.5841 5.22139,57.434586 5.215218,57.429136 5.222789,57.350365 4.663612,56.548915 4.318316,56.111726 3.823949,56.107284 3.86365,55.965151 3.971616,55.672762 3.957831,55.655308 3.999754,55.503106 3.828903,55.184815 3.403008,54.4872 2.820221,54.37856 2.896825,54.2224 3.066861,53.936592 3.055955,53.918728 3.106024,53.809037 2.824575,53.272991 2.422768,52.560818 2.119066,52.46416 2.167714,52.3922 2.260635,52.273447 2.256516,52.266147 2.266004,52.250495 1.966176,51.819384 2.279688,50.855919 2.374213,50.567652 2.216635,50.503908 2.233382,50.478497 1.784243,50.26436 1.605579,50.184088 2.026235,49.584959 2.429252,49.105684" slic3r:type="contour"/>
    <polygon style="fill: white" points="42.595711,41.978647 43.154215,42.752556 43.098116,42.833179 43.000858,42.93132 43.018599,42.961923 43.014026,42.967303 43.127068,43.11182 43.045148,43.165164 42.438118,43.644804 42.390084,43.701311 42.020639,44.015396 41.18338,43.016696 41.121496,42.96652 41.23958,42.848323 41.279147,42.797297 41.205856,42.695272 41.154068,42.587787 41.712027,41.995924 42.178849,41.637037 42.217504,41.587188" slic3r:type="contour"/>
    <polygon style="fill: white" points="42.218303,46.049647 42.730219,46.694492 42.633419,46.801176 42.484316,46.942275 42.512934,46.98719 42.669628,47.179192 42.551079,47.248136 41.952035,47.598806 41.935443,47.618492 41.505516,48.060548 40.72724,46.886348 40.686932,46.835312 40.764136,46.748849 40.76228,46.746319 40.765926,46.742471 40.732335,46.693799 40.712888,46.660704 41.108573,46.380788 41.843188,45.605364" slic3r:type="contour"/>
    <polygon style="fill: white" points="42.013199,49.982559 42.184524,50.184132 41.560155,50.483918 41.573572,50.503884 41.414858,50.572761 41.611555,51.180391 41.823968,51.819304 41.634323,52.115332 41.529363,52.259636 41.533596,52.266131 41.525704,52.281924 41.67106,52.464172 41.583479,52.494388 41.387914,52.557718 40.965672,53.402848 40.7017,53.853165 40.73416,53.918748 40.712885,53.957948 40.969904,54.378592 40.805027,54.399196 40.438152,54.464167 40.151167,54.99296 39.803164,55.559553 39.832344,55.65536 39.806489,55.691132 39.96618,56.107308 39.831476,56.09632 39.513998,56.095815 38.837452,57.031867 38.568832,57.375997 38.574928,57.429111 38.563298,57.440115 38.595124,57.648236 38.53932,57.631732 38.392367,57.602066 38.386396,57.609716 38.384626,57.609165 37.392143,58.5482 36.840376,58.79244 36.834632,58.923503 36.834856,58.955676 36.660536,58.872047 36.62812,58.886396 36.593205,58.872463 35.69142,59.156367 34.923873,59.383562 34.840131,59.899824 34.824776,60.031303 34.147526,59.613361 34.030044,59.648136 33.932967,59.594873 32.943597,59.814732 32.716177,60.713284 32.670226,60.933312 32.078561,60.499083 31.664098,60.225264 31.86615,59.335959 31.941342,59.043348 32.521482,59.414384 32.967234,59.712212 33.789546,59.255254 33.900408,58.429927 33.93696,58.197776 34.605648,58.553816 34.721879,58.617634 35.659544,57.977559 35.729479,57.928579 35.733327,57.389788 35.739324,57.218256 36.288117,57.434726 36.835596,56.944019 37.298615,56.512139 37.248703,56.22288 37.235619,56.115188 37.55835,56.184124 37.801635,55.866276 38.389035,55.027025 38.387908,55.023279 38.394125,55.012471 38.358712,54.917296 38.346712,54.877456 38.471297,54.87831 38.557348,54.728711 39.189362,53.505306 39.187564,53.501819 39.189211,53.498626 39.172048,53.467644 39.165172,53.453044 39.217894,53.443067 39.271811,53.33862 39.920102,52.000664 39.90384,51.977792 39.908723,51.970146 39.809939,51.824476 39.764968,51.751476 40.135681,51.614724 40.86904,50.466273 40.436403,49.869427 40.23896,49.597572 40.759364,49.33214 41.361092,49.105748" slic3r:type="contour"/>
    <polygon style="fill: white" points="30.366627,60.117603 30.842277,60.486644 30.552596,61.380419 30.469234,61.680195 29.954736,61.25112 29.505648,60.908531 29.74292,60.10852 29.863786,59.754048" slic3r:type="contour"/>
    <polygon style="fill: white" points="28.244938,60.676448 28.748494,61.123824 28.438102,61.915735 28.306838,62.2882 27.86829,61.874216 27.388742,61.460576 27.646014,60.748611 27.822188,60.330704" slic3r:type="contour"/>
    <polygon style="fill: white" points="26.164791,61.082699 26.682888,61.614464 26.352399,62.314112 26.161668,62.742088 25.791952,62.341072 25.30138,61.851836 25.58345,61.220235 25.821058,60.754696" slic3r:type="contour"/>
    <polygon style="fill: white" points="24.124357,61.331963 24.636297,61.944368 24.282674,62.568627 24.026697,63.024888 23.713122,62.628808 23.238346,62.068904 23.553643,61.502068 23.849294,61.015552" slic3r:type="contour"/>
    <polygon style="fill: white" points="14.089603,60.318487 14.284496,60.90856 13.580765,61.483879 13.320901,61.680196 13.094932,61.003691 12.947848,60.486664 13.642367,59.97892 13.926341,59.754068" slic3r:type="contour"/>
    <polygon style="fill: white" points="16.137378,60.813095 16.401368,61.460592 15.795178,62.021768 15.483289,62.2882 15.247165,61.69836 15.041606,61.123796 15.649036,60.620596 15.967939,60.330704" slic3r:type="contour"/>
    <polygon style="fill: white" points="18.147583,61.164071 18.488746,61.851804 17.971295,62.40316 17.628446,62.742088 17.384082,62.23084 17.107254,61.61448 17.626034,61.113799 17.969086,60.754696" slic3r:type="contour"/>
    <polygon style="fill: white" points="20.134388,61.36878 20.551734,62.068912 20.108562,62.620767 19.76343,63.024883 19.50882,62.576292 19.153844,61.94432 19.589955,61.43954 19.940834,61.015552" slic3r:type="contour"/>
    <polygon style="fill: white" points="22.117459,61.425623 22.59753,62.101408 22.210525,62.673988 21.895064,63.12302 21.621361,62.714563 21.192582,62.101456 21.557007,61.57852 21.895064,61.105264" slic3r:type="contour"/>
  </g></svg>