<svg width="43.790126" height="63.590156" xmlns="http://www.w3.org/2000/svg" xmlns:svg="http://www.w3.org/2000/svg" xmlns:xlink="http://www.w3.org/1999/xlink" xmlns:slic3r="http://slic3r.org/namespaces/slic3r"><g xmlns="http://www.w3.org/2000/svg" slic3r:z="1.8155e-005" id="layer54">
    <polygon style="fill: white" points="22.034549,1.773207 22.04014,1.772909 22.050968,1.789804 22.247299,1.800834 22.806892,1.830649 22.813486,1.822589 22.816446,1.823065 22.902976,1.72729 22.984482,1.638102 23.092396,1.845859 23.101176,1.846327 23.113471,1.870776 23.297089,1.90027 23.915994,1.994137 24.009818,1.914686 24.088276,1.851641 24.153958,2.030227 24.160737,2.031255 24.170277,2.056932 24.313842,2.093719 25.120859,2.27786 25.138854,2.266297 25.171344,2.245154 25.20766,2.224221 25.226029,2.301856 25.227663,2.302229 25.229801,2.310948 25.283153,2.328137 25.598566,2.413693 26.006408,2.793279 26.118212,2.87315 26.34647,2.772721 26.362698,2.869878 26.395944,3.137268 26.40704,3.221969 26.550204,3.430782 26.834503,3.750069 27.085066,3.646642 27.537242,3.509546 27.564858,3.873644 27.569829,4.296813 28.011436,4.423553 28.481072,4.479478 28.567264,4.458449 28.569347,4.45909 28.684474,4.426638 28.746904,4.415493 28.747073,4.513792 28.795706,4.528761 28.872968,4.528851 29.059443,5.209664 29.258282,5.583263 29.52655,5.509496 29.974748,5.438124 29.98958,5.94505 29.963517,6.136921 30.47965,6.274324 30.712687,6.058233 30.838042,6.441359 30.98821,6.674175 31.31808,6.508452 31.371524,6.760461 31.356018,7.015467 32.540599,7.295706 32.612596,7.247583 32.634163,7.325581 32.832076,7.365376 32.790128,7.497692 32.729443,7.80299 32.811144,8.194303 32.907143,8.689625 33.199745,8.738871 33.507987,8.458519 33.86996,8.152852 33.975928,8.667879 34.019942,8.910471 34.89448,9.048249 34.532639,9.465973 34.240681,9.812316 34.268126,9.93256 34.296599,9.908473 34.2966,9.908474 34.270459,9.942779 34.305525,10.096414 34.456427,10.114437 34.961668,9.532309 35.14222,9.329681 35.349736,10.025638 35.405853,10.238664 35.91574,10.281837 35.712631,10.515298 35.564384,10.698725 35.641051,10.923648 35.800885,11.457814 36.308927,11.500546 36.793356,11.535777 36.409247,11.968205 36.129221,12.30916 36.243096,12.626554 37.028122,12.668893 37.331244,12.348065 37.453452,12.644206 37.472665,12.697174 37.55058,12.700073 37.505464,12.760453 37.8975,13.507249 37.942413,13.607495 37.964894,13.648726 38.187552,13.655608 38.111523,13.756653 38.064153,13.830781 38.360764,14.374804 38.445976,14.556343 38.458464,14.557133 38.465653,14.573129 38.785544,14.59968 38.672824,14.739333 38.593722,14.85809 38.802295,15.322175 38.909451,15.591116 38.929427,15.593837 38.93214,15.603193 39.355728,15.680563 39.192316,15.862276 39.076541,16.010484 39.077748,16.013515 39.057555,16.035596 39.164223,16.40337 39.286052,16.857622 39.309304,16.863276 39.310068,16.869229 39.901352,17.049394 39.639475,17.30194 39.397689,17.55152 39.407183,17.625455 39.518964,18.478163 39.535336,18.48382 39.53645,18.515144 40.373932,18.861604 40.443924,18.890734 40.306982,19.000171 40.426575,19.016801 40.483928,19.043394 40.49032,20.349462 40.477026,20.881753 40.509188,20.898806 40.507711,20.959498 40.992275,21.244748 40.683743,21.438722 40.492414,21.588243 40.486744,21.821311 40.445458,22.209185 40.905232,22.374982 41.331984,22.856791 41.294796,23.505894 41.237656,23.827948 41.276748,23.857324 41.27248,23.923583 41.525823,24.113352 41.314815,24.255676 41.247481,24.311785 41.19682,25.098446 41.083371,25.561327 41.404396,25.850646 41.918992,27.153238 41.913459,27.201868 41.921935,27.207498 41.911731,27.216762 41.748532,28.830056 41.543559,29.447099 41.652588,29.544326 41.642552,29.655495 42.076664,29.933596 41.702912,30.243125 41.57992,30.349305 41.576021,30.392498 41.64666,30.702606 41.454158,30.857128 41.624631,31.997181 41.949015,32.225353 42.21346,32.390998 41.757983,32.729183 41.80796,32.978864 41.704703,33.064419 41.716753,34.264881 42.113919,34.553439 42.299883,34.670244 41.772875,35.027188 41.768614,35.059946 41.788536,35.28748 41.733061,35.333278 41.600603,36.35166 42.121652,36.74446 42.322204,36.873808 41.798732,37.202427 41.541212,37.38831 41.299852,38.34955 42.009588,38.91162 42.27084,39.089192 41.797275,39.367376 41.225212,39.751176 40.594952,39.24784 40.254932,38.926108 40.611995,38.695964 41.280907,38.3464 41.134893,37.438408 40.584068,37.02442 40.309948,36.775472 40.708368,36.488331 41.110152,36.257295 40.955892,35.21432 40.949047,35.151364 40.523332,34.84268 40.293652,34.633272 40.671771,34.317688 40.96481,34.131956 40.867603,33.111521 40.849271,32.925435 40.436839,32.631701 40.218764,32.414072 40.498219,32.122042 40.916302,31.831105 40.926341,30.960433 40.726314,30.558137 40.36906,30.307172 40.095236,29.958144 40.180496,29.821559 40.31483,29.718776 40.455277,29.53633 40.039031,29.045585 40.338936,27.637443 40.24092,27.439954 40.245021,27.421404 40.039892,27.272494 39.809204,26.965319 39.959283,26.723158 40.246703,26.515357 40.20442,26.479612 40.470635,26.157574 40.330988,26.059404 39.657428,25.839704 39.932168,24.405886 39.827723,24.269983 39.829341,24.257488 39.600719,24.111021 39.248144,23.783328 39.362099,23.658858 39.657836,23.451187 39.597916,23.431304 39.862251,23.187122 39.113088,23.153297 39.251986,21.540203 38.981936,21.410626 38.612568,21.207402 38.790023,21.056186 39.220494,20.717691 39.228236,20.333533 38.974432,20.367342 38.387876,20.36438 38.36735,19.308444 38.259228,19.273524 38.059476,19.208073 38.335797,18.959564 38.245047,18.139077 38.209196,17.799805 37.978552,17.749494 37.549072,17.654692 37.75198,17.446205 38.076033,17.096097 37.962427,16.641597 37.599412,16.602293 37.011512,16.529848 37.049972,16.481815 37.466905,15.950513 37.451288,15.931972 37.6436,15.669587 37.097639,15.649283 36.917648,15.831834 36.769728,16.14782 36.499227,15.603183 36.495311,15.602887 36.49267,15.598011 36.461307,15.598284 36.412372,15.595737 36.45487,15.528216 36.422867,15.469127 35.985739,14.708648 35.961852,14.706945 35.956288,14.695659 35.865068,14.695755 35.72622,14.687381 35.852611,14.485378 35.758367,14.29423 35.462042,13.720718 35.412759,13.716227 35.407808,13.703061 35.217815,13.691958 34.9335,13.666499 35.235878,13.245791 34.99896,12.615682 34.967527,12.534553 34.920784,12.529434 34.915546,12.512967 34.567612,12.479193 34.033716,12.420828 34.273235,12.133943 34.658795,11.705852 34.532313,11.308246 34.50302,11.30491 34.494121,11.274423 34.009249,11.216864 33.789979,11.499783 33.587031,11.830339 33.385366,11.14068 33.371996,11.139042 33.370869,11.134316 33.245953,11.117809 33.007884,11.088629 33.285407,10.775861 33.075924,9.897225 33.028916,9.88994 33.025583,9.873138 32.604486,9.800247 32.325311,9.758852 32.154638,9.914392 32.032206,10.040339 31.953421,9.703708 31.913805,9.697836 31.876506,9.692414 31.707502,9.673151 31.882523,9.4269 31.656948,8.379253 31.604794,8.371994 31.575787,8.244523 31.326612,8.178754 30.685414,8.482112 30.459564,8.601609 30.362434,8.085571 30.252661,8.102916 30.042104,8.11017 30.1656,7.637462 29.446248,6.763438 29.072575,6.852546 28.655358,6.936747 28.688458,6.659992 28.713964,6.419433 27.675656,6.120489 27.58046,5.948778 27.503456,5.968786 27.51859,5.837176 27.504964,5.812598 27.505284,5.78837 26.989019,4.949821 26.722335,5.051073 26.426496,5.166284 26.42914,4.796429 26.41997,4.436739 25.971426,4.270413 25.877792,4.323279 25.425996,4.553806 25.385392,4.325551 25.347948,4.055963 24.876613,3.883906 24.510764,4.126816 24.432318,3.933861 24.369639,3.697536 24.299555,3.672098 23.963304,3.5718 23.634532,3.857953 23.519106,3.652762 23.427316,3.421434 23.069466,3.354585 23.043982,3.38533 22.764334,3.706328 22.630278,3.498079 22.515041,3.279101 22.164721,3.256474 22.117437,3.325064 21.895064,3.659998 21.752642,3.461002 21.62006,3.263899 21.238827,3.288537 21.209879,3.339074 21.02581,3.706332 20.887003,3.52973 20.751433,3.371444 20.690121,3.385604 20.298396,3.458621 20.155612,3.857954 20.028316,3.712835 19.884965,3.582096 19.740542,3.633942 19.367794,3.744289 19.27936,4.126821 19.152502,4.012609 18.964423,3.880238 18.82974,3.934035 18.425647,4.080076 18.364118,4.553808 18.17192,4.438903 17.872074,4.280139 17.860109,4.284463 17.816795,4.263066 17.378972,4.427199 17.37585,4.801409 17.363644,5.166273 16.972833,5.019382 16.785649,4.947235 16.550901,5.318218 16.285143,5.778136 16.285125,5.812682 16.274319,5.832176 16.282686,5.915537 16.286638,5.96882 16.209396,5.949307 16.179297,6.003608 16.114535,6.120435 15.443094,6.32505 15.082684,6.426267 15.088991,6.481509 15.134781,6.936731 14.834963,6.862604 14.370012,6.760574 13.900904,7.347948 13.607705,7.682413 13.676611,7.924131 13.748021,8.11017 13.473677,8.066011 13.435206,8.30285 13.330561,8.601609 12.88487,8.399849 12.522107,8.214485 12.199737,8.28892 12.185334,8.371993 12.134402,8.381328 11.983525,9.09947 11.907925,9.436497 11.987437,9.547877 12.082625,9.673151 11.838692,9.70612 11.811421,9.827347 11.757921,10.040331 11.455154,9.767071 10.762843,9.881674 10.761241,9.889943 10.717464,9.897359 10.582007,10.473224 10.503417,10.792502 10.627954,10.933138 10.782212,11.088642 10.418946,11.135679 10.418114,11.139058 10.407238,11.140363 10.355637,11.321503 10.203054,11.830364 9.778651,11.2791 9.73807,11.220663 9.296225,11.273684 9.287118,11.304855 9.261245,11.307345 9.127618,11.731388 9.411275,12.072648 9.756386,12.420829 8.8762,12.508461 8.869307,12.52943 8.834825,12.532771 8.664706,12.990761 8.544283,13.294814 8.679901,13.484807 8.856628,13.666499 8.385093,13.696749 8.377374,13.716238 8.339596,13.719096 8.22675,13.950238 7.931828,14.510286 7.984144,14.59397 8.063939,14.687384 7.837588,14.689247 7.828264,14.706952 7.811861,14.70768 7.749497,14.823698 7.333282,15.536976 7.377728,15.595733 7.299078,15.595592 7.281407,15.625877 7.270344,15.649037 7.020376,16.147862 6.734591,15.886658 6.555718,15.642141 6.142404,15.664094 6.338988,15.932161 6.327025,15.946222 6.417189,16.059065 6.778641,16.529851 6.687758,16.539773 5.822728,16.638718 5.712511,17.076144 5.937223,17.308652 6.241075,17.65467 5.823246,17.745868 5.575212,17.800231 5.512393,18.356932 5.452486,18.947248 5.570072,19.05364 5.730658,19.208082 5.424719,19.306935 5.42088,19.568992 5.402249,20.36441 5.054939,20.304118 4.574082,20.292755 4.585142,20.670903 4.585179,20.747904 4.831568,20.952825 5.177558,21.207424 4.726192,21.426247 4.585534,21.497334 4.585539,21.508332 4.559106,21.524687 4.617738,22.044768 4.677039,23.153324 4.486263,23.203791 3.976697,23.245054 4.192212,23.431326 4.047498,23.489171 4.152024,23.584131 4.541985,23.78336 4.173673,24.02628 3.955863,24.187798 3.962431,24.269982 3.890451,24.333637 4.013303,24.851522 4.132709,25.839708 3.874617,26.073446 3.369523,26.266264 3.585695,26.47966 3.46822,26.606213 3.680572,26.835809 3.980908,26.965366 3.567422,27.254677 3.527625,27.291948 3.549184,27.439976 3.482995,27.507377 3.609541,27.956492 3.751084,29.045615 3.586465,29.45659 3.404024,29.647448 3.478869,29.72344 3.444686,29.8354 3.694891,29.958167 3.559143,30.02968 3.317569,30.251752 3.141109,30.829722 2.910904,31.125758 2.93034,31.926105 3.319824,32.270976 3.571353,32.414056 3.207474,32.64937 2.948053,32.870064 2.823892,34.170778 3.244298,34.492508 3.49647,34.633252 3.064928,34.930264 2.82394,35.130114 2.66441,36.268415 3.18425,36.622047 3.480184,36.77546 3.068618,37.072788 2.640541,37.435153 2.508472,38.346795 3.16562,38.751464 3.535199,38.926132 3.19819,39.186311 2.564932,39.751232 1.780084,39.268956 1.519282,39.089184 1.946518,38.730959 2.487464,38.350661 2.168787,37.350987 1.649837,37.009743 1.467921,36.873776 1.946578,36.489516 2.129252,36.36756 1.997041,35.574639 1.974444,35.026915 1.641087,34.79152 1.490222,34.670232 1.979324,34.290955 2.003571,34.275227 2.005253,33.422001 2.035603,33.021147 1.982083,32.978864 2.018568,32.745495 1.764693,32.551695 1.576674,32.39098 2.009364,32.068021 2.137307,31.985994 2.317936,30.830625 2.143467,30.702606 2.22605,30.377351 2.034597,30.217565 1.713463,29.933604 1.990983,29.734728 2.15469,29.628669 2.137556,29.544352 2.342084,29.335875 1.880977,27.218771 1.86819,27.207518 1.882461,27.197667 1.87114,27.153108 1.895705,27.128632 2.799528,25.666496 2.60185,24.416721 2.264302,24.113372 2.439922,23.963924 2.520775,23.904139 2.513374,23.857348 2.576621,23.804558 2.458141,22.85681 2.878627,22.739017 3.387572,22.325722 3.337713,21.658585 3.120447,21.506758 2.797859,21.244742 3.112021,21.041867 3.284133,20.941674 3.28093,20.89881 3.323538,20.875354 3.306158,19.043522 3.502038,19.026194 3.48171,19.008642 3.48571,19.007524 3.38104,18.920752 3.346196,18.890732 3.897268,18.665259 4.253551,18.516759 4.254772,18.483865 4.269846,18.47873 4.389422,17.563006 4.256202,17.429899 3.888771,17.049426 4.23826,16.947995 4.479353,16.874309 4.480794,16.863272 4.515656,16.854611 4.577896,16.636344 4.733092,16.064253 4.434397,15.680562 4.6833,15.632565 4.858868,15.600609 4.860705,15.593838 4.900667,15.587153 5.074766,15.192877 5.197221,14.889831 5.00458,14.59968 5.195184,14.575908 5.328376,14.565249 5.331662,14.557116 5.365959,14.553126 5.634324,14.050513 5.728535,13.853253 5.602581,13.655583 5.738107,13.643577 5.829814,13.641196 5.83326,13.63398 5.850275,13.63235 6.246472,12.853789 6.286106,12.767237 6.239545,12.7001 6.287979,12.695999 6.319187,12.694994 6.320216,12.692749 6.322026,12.692564 6.458937,12.348003 6.560866,12.52498 6.680434,12.655999 7.046958,12.618605 7.56434,12.610815 7.668567,12.330034 7.150534,11.722961 6.996732,11.535825 7.621727,11.466956 7.99801,11.442534 8.005024,11.423639 8.016897,11.42204 8.232403,10.725205 7.874426,10.281837 8.20965,10.244885 8.385191,10.23117 8.386292,10.227607 8.396811,10.226021 8.647886,9.329742 9.010765,9.758165 9.321226,10.106809 9.491458,10.089688 9.524874,9.949538 9.493821,9.908668 9.493821,9.908667 9.527731,9.937556 9.555201,9.822339 9.016563,9.191974 8.895648,9.048274 9.521716,8.918509 9.778929,8.883996 9.781063,8.875046 9.784231,8.874352 9.920149,8.152852 10.248565,8.468212 10.554439,8.72832 10.888415,8.680457 11.039677,7.927051 10.958044,7.365376 11.114539,7.322616 11.166134,7.315407 11.177529,7.247583 11.229991,7.28994 12.080269,6.95834 12.518294,6.890274 12.472056,6.508444 12.646944,6.619084 12.739582,6.667149 13.077438,6.058234 13.881912,5.958973 13.876376,5.705759 13.815393,5.438126 14.105804,5.549664 14.42651,5.607913 14.91718,4.528832 15.056012,4.496854 15.043251,4.415463 15.186987,4.466686 15.222885,4.458417 15.245488,4.464641 16.243476,4.229777 16.263276,3.88066 16.252915,3.509515 16.499018,3.6256 16.882934,3.756276 17.394005,3.145394 17.403686,3.064761 17.415911,3.054658 17.443658,2.772719 17.509304,2.815404 17.623242,2.871385 17.624337,2.870076 17.633365,2.874959 18.191541,2.413693 18.561358,2.307031 18.562433,2.30223 18.565625,2.301416 18.574831,2.261468 18.582436,2.22422 18.660778,2.27715 18.746929,2.255179 19.622646,2.0506 19.629387,2.031258 19.638308,2.029826 19.670494,1.941552 19.70185,1.851642 19.866799,1.993151 20.041094,1.965174 20.6783,1.868045 20.688956,1.846322 20.698836,1.845767 20.751796,1.74352 20.805622,1.638109 20.972477,1.823202 20.9766,1.822574 20.982516,1.829828 21.174855,1.81902 21.73979,1.788915 21.749972,1.772893 21.756786,1.773276 21.826247,1.673052 21.895064,1.572437" slic3r:type="contour"/>
    <polygon style="fill: white" points="41.194256,40.664615 41.21988,40.655368 41.224456,40.66036 41.224333,40.689996 41.753968,41.13694 42.12198,41.40492 41.737964,41.611207 41.10939,41.997826 41.015683,43.072001 41.275151,43.38864 41.272892,43.413736 41.32598,43.462812 41.848051,43.891364 41.593319,44.013252 41.199385,44.230486 41.170103,44.555832 40.941231,45.902069 41.086608,46.109064 41.070065,46.175563 41.410804,46.519872 41.26468,46.556595 40.938138,46.705872 40.735504,47.520399 40.444822,48.371573 40.538616,48.533327 40.492674,48.651681 40.801116,49.057904 40.616436,49.08832 40.277429,49.20618 40.074927,49.727848 39.681177,50.531126 39.759176,50.701812 39.694299,50.824048 40.018752,51.366628 39.787867,51.366916 39.361732,51.450641 39.255935,51.649972 38.738048,52.478517 38.797428,52.657492 38.728786,52.748721 39.009504,53.420612 38.752624,53.378988 38.244013,53.393492 37.54807,54.218967 37.581048,54.383092 37.527398,54.431861 37.712356,55.21894 37.442087,55.132999 36.846516,55.040065 36.043745,55.710973 36.052816,55.833924 36.016959,55.857678 36.022079,55.984083 36.083892,56.763912 35.795688,56.63312 35.152334,56.413949 34.307877,56.936869 34.304044,57.031604 34.276136,57.045624 34.254839,57.322868 34.220124,58.05412 33.920008,57.879348 33.293157,57.565221 33.26681,57.581536 33.222138,57.555467 32.426772,57.932471 32.415072,58.012424 32.38099,58.025831 32.310265,58.416468 32.20397,59.105908 31.902716,58.891896 31.268438,58.481523 31.227801,58.500784 31.189786,58.473464 30.474685,58.739451 30.456038,58.815008 30.402896,58.831851 30.282947,59.266592 30.118994,59.93356 29.831507,59.691228 29.215741,59.207724 29.176758,59.222224 29.158207,59.206144 28.504153,59.401938 28.474042,59.489552 28.410886,59.504385 28.274222,59.877247 28.046016,60.54928 27.791629,60.295524 27.236474,59.781422 27.213296,59.78836 27.199151,59.77364 26.502954,59.927375 26.466022,60.011576 26.405921,60.020345 26.284683,60.284996 25.983742,60.969768 25.767275,60.715927 25.290522,60.195107 25.275413,60.198444 25.259654,60.17902 24.480434,60.285386 24.44337,60.355392 24.399172,60.357624 24.309933,60.519932 23.933664,61.209232 23.750511,60.958651 23.348232,60.439935 23.332428,60.442092 23.310275,60.410233 22.459559,60.450413 22.427782,60.502208 22.40799,60.501205 22.338421,60.609956 21.895064,61.28356 21.73415,61.029384 21.387169,60.501063 21.362273,60.50224 21.329927,60.44889 20.481298,60.408868 20.457712,60.442116 20.449369,60.44089 20.341596,60.585835 19.856463,61.20926 19.703874,60.9324 19.38982,60.357392 19.346816,60.355364 19.307651,60.281531 18.533333,60.176133 18.514778,60.198444 18.506673,60.196529 18.315939,60.415596 17.806354,60.96976 17.661153,60.657403 17.379699,60.019101 17.324112,60.011536 17.284877,59.923428 16.593816,59.771149 16.576832,59.78836 16.558815,59.782635 16.267807,60.066659 15.74411,60.549287 15.612219,60.198916 15.37412,59.502381 15.315986,59.489571 15.283905,59.398923 14.634451,59.20443 14.613369,59.222224 14.578332,59.208472 14.210025,59.512491 13.671134,59.93356 13.562354,59.554964 13.382261,58.829434 13.33409,58.815008 13.313735,58.736289 12.60467,58.47153 12.562375,58.500856 12.527523,58.483441 12.164603,58.734099 11.58615,59.105916 11.512666,58.722967 11.403428,58.022995 11.375084,58.012411 11.361484,57.926111 10.576826,57.551875 10.523161,57.58144 10.507382,57.571065 10.207213,57.738008 9.570001,58.054116 9.53687,57.683472 9.505217,57.040781 9.486001,57.031616 9.480066,56.922551 8.674195,56.419175 8.408602,56.529668 7.70622,56.763912 7.714162,56.416259 7.758282,55.847063 7.737446,55.834048 7.745512,55.682505 7.012009,55.062168 6.828741,55.110348 6.077752,55.218932 6.125442,54.899708 6.239764,54.409067 6.209065,54.383104 6.245313,54.167528 5.646154,53.445243 5.53822,53.456012 4.780626,53.420632 4.862508,53.129083 5.036237,52.709989 4.992685,52.657487 5.064958,52.400634 4.539266,51.536949 3.771381,51.36664 3.872907,51.120292 4.076423,50.776518 4.030952,50.701812 4.138939,50.426483 3.606045,49.289649 2.989011,49.057928 3.088566,48.876779 3.287925,48.610996 3.251518,48.533327 3.386634,48.26574 3.316886,47.986683 2.923573,46.782741 2.379347,46.519904 2.48503,46.402179 2.720865,46.162244 2.703507,46.109112 2.925311,45.75306 2.672209,44.294514 2.550378,44.233412 1.942074,43.891363 2.154175,43.687228 2.522421,43.378441 2.706575,43.125944 2.797125,43.040638 2.696937,42.010327 2.068613,41.656936 1.668152,41.404888 2.004266,41.106135 2.567852,40.682841 2.565666,40.66036 2.568637,40.656696 2.570241,40.655368 2.589533,40.666555 2.626995,40.63842 3.201221,40.96024 3.68518,41.164651 3.470761,41.341879 2.898191,41.890988 3.235529,43.239367 3.529114,43.385322 3.955744,43.54944 3.895412,43.603075 3.733634,43.773111 4.17704,44.840231 4.239782,45.854921 4.314236,45.885716 4.367646,45.892168 4.24958,46.013391 4.254573,46.094136 4.340335,46.380455 4.699966,48.078825 4.828828,48.118284 4.917089,48.121328 4.752834,48.328502 4.769765,48.408456 4.757988,48.428935 4.931863,48.795372 5.402685,50.172307 5.527185,50.192204 5.616897,50.186324 5.482982,50.407136 5.503514,50.467184 5.495674,50.484072 5.693897,50.808011 6.279986,52.014718 6.400736,52.013648 6.492008,51.998456 6.386019,52.233033 6.417996,52.29887 6.641337,52.566416 7.403718,53.620439 7.512123,53.599372 7.591003,53.577416 7.528163,53.79674 7.785293,54.012603 8.877347,54.996943 8.942326,54.972996 8.984027,54.95596 8.96913,55.078043 9.12105,55.172284 10.499274,56.054372 10.585759,56.160871 10.621824,56.141856 10.622068,56.146432 10.625633,56.199795 11.526476,57.01052 11.93638,57.444057 12.432897,57.116004 12.442003,57.171336 12.546073,57.762859 12.743963,57.873792 13.630302,58.45197 13.716806,58.384944 14.332092,57.888556 14.351924,57.96558 14.555092,58.700022 15.623242,59.044629 15.65426,59.016416 16.229791,58.461328 16.251342,58.524451 16.46064,59.083129 16.783903,59.105335 17.787499,59.227361 18.120316,58.849936 18.135082,58.883976 18.282186,59.195157 19.729044,59.149963 19.944574,59.151882 20.006828,59.070232 20.010341,59.076779 20.048671,59.14395 20.971153,59.104915 21.884736,59.152444 21.895063,59.136328 21.905234,59.152631 22.818082,59.104952 23.624817,59.144004 23.738924,59.146274 23.783302,59.070244 23.788002,59.076224 23.852163,59.159644 24.997357,59.228871 25.489437,59.219448 25.669842,58.849947 25.69586,58.877728 26.048042,59.270195 26.379883,59.25862 27.297715,59.137824 27.560334,58.46132 27.6104,58.506596 28.210173,59.074155 29.214193,58.75245 29.238197,58.660064 29.458034,57.888556 29.519878,57.93628 30.187406,58.467793 31.231298,57.810863 31.357254,57.115992 31.401826,57.145112 31.884369,57.462901 32.838291,56.530232 33.163705,56.204327 33.168294,56.141831 33.172011,56.143775 33.215484,56.166643 33.28994,56.054999 34.818519,55.081403 34.809164,55.003623 34.806124,54.955944 34.919041,54.997167 35.098779,54.845076 36.231078,53.833438 36.254389,53.805035 36.215476,53.667828 36.199132,53.577431 36.409059,53.616573 36.668768,53.300119 37.389628,52.310408 37.380892,52.28074 37.395863,52.255426 37.328964,52.105856 37.298104,51.998488 37.548984,51.996521 37.800719,51.570872 38.309707,50.524053 38.286616,50.467184 38.299841,50.437587 38.214192,50.294336 38.173232,50.186324 38.434023,50.137304 38.668695,49.612132 39.057336,48.480745 39.020376,48.408492 39.031724,48.369209 38.922864,48.227687 38.873032,48.12134 39.128923,48.032744 39.2578,47.586627 39.553208,46.11227 39.53596,46.087892 39.540855,46.04499 39.457663,45.955271 39.422472,45.892176 39.565815,45.826239 39.586912,45.641344 39.613124,44.83998 39.963951,44.54988 40.111314,43.858192 39.83438,43.549408 39.91132,43.508739 40.454421,43.276559 40.749864,43.114696 40.964602,41.9691 40.538284,41.604428 40.104964,41.164616 40.354019,41.019304 41.1632,40.638408" slic3r:type="contour"/>
  </g></svg>