<svg width="43.790126" height="63.590156" xmlns="http://www.w3.org/2000/svg" xmlns:svg="http://www.w3.org/2000/svg" xmlns:xlink="http://www.w3.org/1999/xlink" xmlns:slic3r="http://slic3r.org/namespaces/slic3r"><g xmlns="http://www.w3.org/2000/svg" slic3r:z="1.2545e-005" id="layer37">
    <polygon style="fill: white" points="22.077496,0.341679 22.308881,0.676821 22.361524,0.673699 22.401427,0.731439 22.583403,0.742232 22.629068,0.691712 22.67516,0.701333 22.834748,0.527419 23.169496,0.160646 23.312459,0.442112 23.492063,0.796126 23.549582,0.799538 23.596776,0.890683 23.765782,0.925024 23.814842,0.884002 23.85244,0.899168 24.054897,0.734628 24.439034,0.423436 24.54111,0.726666 24.668196,1.108389 24.730807,1.121111 24.780508,1.26149 24.894585,1.305199 24.942306,1.276154 24.971727,1.295895 25.266668,1.123382 25.682214,0.885704 25.741634,1.22499 25.812786,1.65702 25.880604,1.683005 25.914156,1.853416 25.951222,1.839171 26.021665,1.885346 26.463868,1.712353 26.87407,1.562259 26.88258,1.962991 26.882733,2.391094 26.88956,2.394482 26.889198,2.454022 27.094769,2.588776 27.179982,2.570427 27.236021,2.616435 27.637415,2.523405 27.983574,2.455008 27.923186,2.951964 27.892146,3.155119 28.330157,3.514729 28.379945,3.554313 28.453716,3.548799 28.492391,3.587757 28.776549,3.55804 29.009126,3.54291 28.896782,3.995109 29.165292,4.265583 29.700304,4.789704 29.73734,4.791441 29.753946,4.811994 29.864886,4.81174 29.95647,4.815593 29.894513,4.985979 29.994075,5.10921 30.500281,5.72879 30.594194,6.114693 30.639523,6.251635 30.81859,6.279495 30.781851,6.350019 30.713614,6.475465 30.71712,6.486058 30.656053,6.614205 30.737517,7.174452 30.86612,7.784701 31.153432,7.840956 31.556128,7.928068 31.384874,8.188453 31.159632,8.514312 31.45886,9.107725 31.587958,9.390344 31.657396,9.409918 31.68024,9.467925 31.887612,9.512508 32.16634,9.576107 31.875303,9.963223 32.060788,10.434204 32.256595,10.927038 32.328312,10.949076 32.337766,10.979453 32.477845,11.007103 32.725072,11.061149 32.466576,11.393359 32.640622,11.952616 32.708788,12.13288 32.835264,12.179124 32.840567,12.197806 33.003692,12.226596 33.385824,12.30418 33.198447,12.606622 33.019239,12.827338 33.097214,13.102074 33.735216,13.069316 33.954788,12.917387 34.104805,13.410546 34.18064,13.430584 34.187148,13.455777 34.259276,13.472112 34.461108,13.523261 34.359919,14.124663 34.442587,14.444708 34.499356,14.460453 34.492377,14.500318 35.308,14.696496 35.577496,14.669207 35.500249,15.141647 35.665552,15.208182 35.661125,15.273084 35.783871,15.323411 36.089124,15.492466 36.116008,16.040175 36.080938,16.270098 36.191756,16.32558 36.183007,16.401164 36.735224,16.579814 36.568907,16.778668 36.224339,17.790937 37.422652,18.651116 37.50694,18.700652 37.390472,18.820015 37.498112,18.875222 37.5578,18.915755 37.31356,19.763423 37.102189,20.264603 37.527552,20.655372 38.015724,21.090352 37.607752,21.422163 37.341118,21.72023 37.891876,21.964176 38.11264,21.996344 37.77804,22.654071 37.54085,23.11888 38.010032,23.33272 38.446864,23.580226 38.048291,24.031424 37.830955,24.201234 38.322759,24.315844 38.669476,24.31199 38.52034,24.724223 38.452147,25.062925 39.082296,25.360564 38.757416,25.765945 38.671833,25.850365 39.062248,25.89492 39.316876,25.91416 39.148896,26.480825 39.022705,27.055805 39.888807,27.581765 39.987168,27.641054 39.929384,27.697037 40.016596,27.729892 39.796396,28.680481 39.580149,29.373459 39.6101,29.395252 39.581149,29.554345 40.596564,30.413292 40.691204,30.48487 40.576907,30.564421 40.603084,30.583571 40.564685,30.617864 40.669231,30.668801 40.73066,30.73696 40.526688,31.907735 40.349267,32.420942 40.42392,32.493906 40.397162,32.793314 40.97216,33.243432 40.659508,33.394606 40.255458,33.707834 40.083828,34.409484 40.27688,34.630127 40.254044,35.066156 40.530756,35.399328 40.993328,35.795772 40.557852,35.91962 40.046216,36.250062 39.962494,36.701209 40.19658,37.007656 40.166157,37.477963 40.368879,37.753699 40.830984,38.19744 40.414428,38.254348 40.019164,38.463838 39.873434,39.289515 40.060808,39.565024 40.014623,39.969806 40.513743,40.513468 40.191559,40.522404 39.939151,40.631266 39.910428,40.883003 39.671187,41.993372 39.78162,42.173024 39.736522,42.396839 40.05612,42.796156 39.843952,42.786548 39.644046,42.855785 39.430996,43.913123 39.232528,44.564696 39.292852,44.674496 39.253926,44.798954 39.46366,45.099588 39.31672,45.0857 39.150731,45.128897 38.727483,46.482136 38.537763,46.942234 38.576052,47.024292 38.540337,47.102601 38.697272,47.373404 38.57512,47.353528 38.414714,47.378043 37.822468,48.676607 37.592505,49.093491 37.621548,49.172908 37.583928,49.230471 37.722839,49.541928 37.592584,49.50936 37.398852,49.51366 36.725784,50.543544 36.398962,50.98184 36.42108,51.072072 36.381176,51.114312 36.503708,51.52928 36.34166,51.470432 36.078771,51.434423 35.445023,52.105276 34.962063,52.569564 34.97318,52.660076 34.933154,52.69091 35.017784,53.24158 34.812359,53.141224 34.483058,53.037647 34.017616,53.396207 33.348721,53.872244 33.349592,53.960036 33.310696,53.98237 33.331173,54.67122 33.084431,54.517639 32.702003,54.331882 32.473407,54.463144 31.615372,54.922657 31.607352,55.00596 31.567982,55.022992 31.501803,55.828736 31.226372,55.616044 30.817403,55.347324 29.812183,55.75419 29.796842,55.831556 29.755818,55.844903 29.731769,55.961492 29.590458,56.723024 29.308161,56.456475 28.903243,56.11816 27.977045,56.400207 27.95527,56.473532 27.918645,56.481792 27.869668,56.642235 27.662626,57.3601 27.400306,57.0598 27.028726,56.678742 26.109502,56.87205 26.085348,56.933844 26.058373,56.937389 26.006356,57.067487 25.731955,57.771988 25.499642,57.456328 25.172826,57.05183 24.221788,57.167849 24.199084,57.215332 24.185678,57.215899 24.14912,57.290863 23.80769,57.992172 23.604654,57.671332 23.319892,57.252085 22.335875,57.290723 22.293969,57.364764 21.895064,58.054588 21.713146,57.727764 21.47969,57.32434 21.476365,57.324471 21.456721,57.288541 20.483114,57.250335 20.417798,57.350451 19.982467,57.992168 19.812762,57.644648 19.603989,57.21584 19.591056,57.215332 19.564731,57.160596 18.636721,57.047443 18.521334,57.198055 18.058171,57.771988 17.904964,57.396292 17.725995,56.936398 17.704788,56.933812 17.675403,56.860857 16.785801,56.67365 16.62016,56.854591 16.1275,57.360099 16.000622,56.961564 15.861891,56.479223 15.834886,56.47354 15.807101,56.385437 14.916437,56.113456 14.738864,56.272775 14.199669,56.72304 14.110294,56.321463 14.021515,55.840174 13.993294,55.831556 13.971847,55.734407 13.015622,55.345064 12.915224,55.417648 12.288323,55.828736 12.243109,55.457752 12.207458,55.016007 12.182753,55.005948 12.169155,54.893555 11.144495,54.340185 10.45897,54.671232 10.451948,54.351488 10.463981,53.972671 10.440547,53.960016 10.438022,53.838541 10.155599,53.623287 9.368891,53.057249 8.772349,53.2416 8.792836,52.981636 8.840611,52.677152 8.816934,52.660116 8.827504,52.530945 8.308562,51.988252 7.774759,51.467704 7.28642,51.52928 7.323582,51.326403 7.392913,51.095338 7.369067,51.072084 7.394808,50.935995 6.793907,50.027963 6.449925,49.557609 6.067288,49.541888 6.112719,49.379848 6.191876,49.204758 6.168574,49.172895 6.207225,49.039842 5.685359,47.901415 5.434896,47.435275 5.092854,47.373404 5.147509,47.222003 5.237624,47.06813 5.214068,47.024288 5.271256,46.871545 4.935245,45.771071 4.712943,45.214529 4.32646,45.099632 4.404146,44.918108 4.525551,44.745392 4.497258,44.674556 4.59841,44.445836 4.474471,43.751992 4.252189,42.99891 3.73399,42.796112 3.860155,42.534539 4.046658,42.302585 4.008442,42.173111 4.200726,41.784679 3.994593,40.81418 3.846852,40.789999 3.276383,40.513456 3.485484,40.123156 3.779771,39.802769 3.729278,39.565039 3.922043,39.212616 3.95669,39.175036 3.855636,38.571964 3.385511,38.450432 2.95915,38.197412 3.253943,37.710112 3.64778,37.331522 3.593505,37.00762 3.715017,36.811196 3.837724,36.69226 3.775521,36.296971 3.165172,36.061296 2.796783,35.795748 3.13242,35.308551 3.562016,34.940207 3.51323,34.630188 3.636666,34.457887 3.723847,34.382707 3.617216,33.819532 3.257181,33.619067 2.817977,33.243384 3.079724,32.912046 3.398385,32.663775 3.366217,32.493878 3.500054,32.336932 3.341844,31.73985 3.059469,30.736912 3.257074,30.652228 3.187005,30.583584 3.205925,30.572333 3.135308,30.519454 3.098908,30.484924 3.714062,29.891438 4.212755,29.527088 4.180066,29.395248 4.22073,29.362487 3.807784,27.846283 3.773556,27.729858 3.878375,27.714994 3.802983,27.641019 4.405179,27.269192 4.746682,27.064336 4.687432,26.830985 4.47328,25.914072 5.158183,25.830435 4.907991,25.543459 4.707841,25.360544 5.095941,25.237576 5.312462,25.130826 5.120663,24.311984 5.727655,24.151854 5.957131,24.136898 5.559045,23.732137 5.343269,23.58024 5.76389,23.435457 6.264619,23.148087 5.974465,22.578508 5.677489,21.99631 6.360908,21.679869 5.953254,21.313184 5.774408,21.090312 6.160257,20.722004 6.708544,20.237555 6.313531,19.119757 6.232362,18.915704 6.319954,18.871242 6.372998,18.836854 6.304962,18.754782 6.283201,18.700682 6.945282,18.145451 7.575908,17.781687 7.160348,17.132168 7.0549,16.579814 7.318573,16.404687 7.644612,16.295154 7.787398,16.201151 7.701001,15.492466 8.112276,15.312313 8.124581,15.208195 8.175461,15.190871 8.141825,14.948935 8.212621,14.669222 8.745288,14.4392 9.271269,14.438373 9.301622,14.038711 9.439343,13.766682 9.427642,13.722033 9.329051,13.523231 9.593864,13.461469 9.609517,13.430551 9.636339,13.424953 9.669704,13.267561 9.835369,12.917355 10.234269,12.842697 10.65055,12.984043 10.723261,12.63644 10.668737,12.554245 10.404321,12.30417 10.941015,12.206801 10.954861,12.179146 11.029476,12.157774 11.162824,11.712721 11.314102,11.3263 11.245527,11.239874 11.065059,11.061176 11.447602,10.985289 11.461773,10.94909 11.530982,10.930099 11.752396,10.36831 11.923045,9.938305 11.815883,9.797704 11.623781,9.576138 12.107887,9.472536 12.132729,9.409939 12.224572,9.384891 12.649757,8.525521 12.474847,8.262774 12.233995,7.928067 12.534786,7.870337 12.890539,7.797147 12.906074,7.710016 13.122326,6.587107 13.072967,6.486056 13.077839,6.469043 12.97151,6.279495 13.04416,6.271599 13.138095,6.258612 13.289786,5.728866 13.899381,4.979971 13.867397,4.894685 13.833654,4.815619 14.030779,4.818548 14.052839,4.791447 14.084859,4.790454 14.372572,4.502012 14.902965,3.97747 14.844032,3.749535 14.780996,3.542928 15.283353,3.601276 15.336414,3.548801 15.396679,3.554155 15.905969,3.137948 15.900284,3.103609 15.903047,3.101802 15.861318,2.780354 15.806552,2.455023 16.261111,2.564745 16.543339,2.624043 16.610145,2.570399 16.688652,2.588211 16.90164,2.448971 16.900536,2.394492 16.913621,2.387945 16.919976,1.981726 16.916042,1.562273 17.274881,1.705016 17.762936,1.888111 17.838954,1.839183 17.876111,1.853694 17.909492,1.683005 17.981193,1.654201 18.03317,1.352431 18.107882,0.885704 18.403277,1.059404 18.814713,1.296688 18.847812,1.276154 18.888014,1.301183 19.012283,1.253502 19.05935,1.121076 19.12347,1.107692 19.19498,0.894599 19.351104,0.423435 19.602461,0.627887 19.936558,0.89886 19.975284,0.884001 20.021551,0.923225 20.194521,0.888079 20.240584,0.799644 20.298205,0.796203 20.394318,0.606949 20.620632,0.160644 20.836981,0.396092 21.115724,0.700894 21.161052,0.691684 21.206326,0.742199 21.388384,0.731403 21.428602,0.673537 21.482466,0.676757 21.613635,0.487495 21.895064,0.078912" slic3r:type="contour"/>
    <polygon style="fill: black" points="21.293871,1.381594 21.03757,1.870932 20.891214,2.140358 20.649964,1.890086 20.286796,1.502259 20.203218,1.518814 20.013756,2.069179 19.909476,2.345256 19.61755,2.122837 19.194022,1.782359 19.124863,1.813145 19.014684,2.443628 18.9587,2.701805 18.601296,2.509422 18.283793,2.3243 18.063854,2.48543 18.05736,3.017429 18.045344,3.223836 17.601584,3.068294 17.514722,3.034155 17.230384,3.358198 17.115289,3.501797 17.15827,3.817064 17.16862,3.932332 16.876431,3.876869 16.76092,4.069098 16.395819,4.75347 16.316853,4.816574 16.321297,4.834355 16.298402,4.832164 15.602438,5.481207 15.418164,5.67592 15.51732,5.943543 15.353258,5.951022 15.116005,5.949908 14.877635,6.197956 14.507469,6.676793 14.611551,6.861843 14.78925,7.222263 14.410801,7.29402 13.996062,7.333419 13.999598,7.955323 14.240158,8.565344 14.175452,8.643077 14.198097,8.675679 14.173244,8.683377 14.146037,8.689203 13.616101,9.448666 13.43012,9.832585 13.736167,10.219769 13.382283,10.344816 13.118505,10.407925 13.068001,10.426863 12.847623,10.975262 13.195251,11.416306 13.362163,11.565291 13.340841,11.60102 13.348802,11.61112 13.334365,11.614866 12.860531,12.675482 12.848584,12.712854 12.890391,12.777176 12.8167,12.812584 12.814547,12.81932 12.805325,12.823273 12.778522,12.961069 12.676677,12.918537 12.589643,12.915738 12.238295,13.066361 11.992534,13.112543 11.966326,13.18781 11.918814,13.205893 11.927519,13.468974 11.766897,13.451443 11.840686,13.677971 11.864386,14.133306 11.64325,14.213779 11.574186,14.223873 11.565829,14.252461 11.534582,14.263249 11.502446,14.44459 11.34301,14.376138 11.272808,14.353626 10.992898,14.450264 10.674895,14.485553 10.664053,14.524726 10.562633,14.572915 10.467332,15.261551 9.919409,15.052608 9.756642,15.336392 9.676218,15.321494 9.663747,15.696996 9.619053,15.779937 9.622061,15.845317 9.641856,16.0928 9.454722,16.084894 9.406677,16.174051 9.418862,16.294905 9.380628,16.532932 9.032504,16.808378 8.80682,16.882042 8.821481,16.936846 8.786246,16.960696 8.942963,17.263722 8.68862,17.336642 7.562437,17.732133 8.092578,18.530807 8.327497,18.891562 7.772818,19.173481 7.78055,19.276422 7.918217,19.632828 8.066885,20.018572 7.782414,20.212629 7.370551,20.435907 7.86308,20.96817 7.464562,21.263332 6.903268,21.703063 7.286197,22.61394 7.631312,23.142616 7.434152,23.251646 7.09201,23.391953 7.503069,23.752484 7.205374,23.908735 6.391184,24.322805 6.553057,25.033236 6.631735,25.301033 6.703932,25.396622 6.734631,25.534968 6.861294,25.65574 6.923479,25.734488 6.791635,25.791863 6.804912,25.851696 6.837715,25.953866 6.511554,25.913747 5.80239,26.222355 5.931775,26.777675 6.14924,27.58244 6.042038,27.575255 6.118697,27.660854 6.00768,27.724576 5.16136,28.200065 5.337279,28.771247 5.510218,29.486454 5.317367,29.532246 4.84081,29.622924 4.734407,29.677839 4.898922,29.837544 5.352802,30.1319 4.918841,30.471234 4.532142,30.79634 4.550773,30.873264 4.455315,30.963748 4.67648,31.644369 4.843106,32.653647 4.900093,32.69778 4.942773,32.709652 4.863917,32.779708 4.866724,32.79671 4.852937,32.812006 4.875195,32.908964 4.912817,33.477456 4.651043,34.368 4.174047,34.621974 4.435917,34.781832 4.471133,35.028236 4.885361,35.076451 4.783392,35.169132 4.536689,35.486927 4.690638,36.564104 4.214345,36.896709 4.728754,37.150268 4.794699,37.305642 5.017504,37.306568 4.968432,37.353831 4.873645,37.491645 5.11708,38.065203 5.186012,39.458484 5.238287,39.479672 5.317146,39.473924 5.193158,39.602925 5.197297,39.686584 5.165939,39.736776 5.245342,40.104068 5.399591,41.616278 5.543543,41.66406 5.758049,41.6528 5.439829,42.010776 5.461879,42.226936 5.39724,42.338663 5.667297,43.2126 5.780874,43.818604 6.007488,43.87382 6.311187,43.854532 5.889648,44.398972 5.937432,44.653928 5.874697,44.772784 6.330038,45.86282 6.366084,45.986286 6.653048,46.024068 7.007961,45.985188 6.609924,46.601187 6.569463,46.682902 6.63643,46.91228 6.593584,47.005763 7.169508,48.040707 7.498858,48.03866 7.872399,47.967888 7.544251,48.616627 7.486986,48.761629 7.565242,48.944539 7.546531,48.995441 8.226751,49.904256 8.560376,49.845604 8.923494,49.734252 8.668476,50.459088 8.641285,50.558585 8.733194,50.707357 9.553915,51.496456 9.869771,51.384579 10.193004,51.238604 10.037342,52.028327 10.085811,52.081467 10.928817,52.683251 11.101503,52.81875 11.382012,52.671032 11.650615,52.508252 11.605717,53.214494 12.425672,53.656008 12.802234,53.874644 13.034053,53.712428 13.249297,53.545676 13.282616,54.14869 14.020826,54.44954 14.568052,54.688841 14.758762,54.520975 14.934288,54.3517 15.021336,54.882579 15.715323,55.095335 16.320312,55.294683 16.48907,55.112231 16.647359,54.927944 16.782729,55.439965 17.493838,55.59046 18.067536,55.721562 18.228138,55.511851 18.38075,55.30268 18.570258,55.82546 19.3267,55.918256 19.824436,55.984457 19.980919,55.741012 20.130788,55.504676 20.376228,56.041521 21.165854,56.072696 21.601538,56.091266 21.751034,55.817623 21.895064,55.562215 22.18533,56.093291 22.960243,56.062712 23.403703,56.043772 23.532629,55.76144 23.659352,55.50468 23.971111,55.989781 24.70428,55.899899 25.205237,55.833018 25.306566,55.552767 25.409404,55.302688 25.734823,55.727877 26.430545,55.580572 26.991128,55.452135 27.0643,55.173771 27.142794,54.927923 27.487051,55.300254 28.181059,55.08692 28.737528,54.903719 28.738264,54.900431 28.7531,54.894352 28.799543,54.607688 28.855856,54.351692 29.243957,54.693186 30.015391,54.377032 30.467295,54.180502 30.467767,54.176636 30.488976,54.165124 30.506206,53.839304 30.540834,53.545703 31.017162,53.87841 31.9193,53.388707 32.128495,53.268298 32.128689,53.258084 32.160355,53.235211 32.135078,52.855523 32.13952,52.508272 32.734739,52.820325 33.68037,52.13728 33.678016,52.110308 33.721917,52.067333 33.63614,51.640164 33.59712,51.238604 34.233519,51.461263 34.30937,51.492289 35.075849,50.742001 35.066076,50.692596 35.118958,50.620003 34.960096,50.173724 34.866664,49.73422 35.460663,49.833819 35.656007,49.882779 36.257815,49.05666 36.22488,48.944536 36.278159,48.84525 36.059276,48.415816 35.917744,47.967904 36.481896,47.962868 36.736349,47.991394 37.219154,47.09167 37.153668,46.912279 37.20024,46.795845 36.951067,46.411587 36.78216,45.985176 37.344824,45.897284 37.558908,45.89914 37.956772,44.904438 37.852684,44.653912 37.887604,44.535838 37.646804,44.224624 37.478928,43.854568 38.082512,43.685508 38.140196,43.681763 38.455316,42.616268 38.467314,42.536939 38.32824,42.22696 38.348491,42.130632 38.163627,41.921555 38.032048,41.652832 38.485362,41.479603 38.616752,40.854639 38.663019,39.831639 38.592852,39.686551 38.598534,39.651189 38.526252,39.575816 38.473008,39.473896 38.639628,39.395445 38.676904,39.16346 38.673056,38.065228 39.009732,38.391996 39.034608,37.793394 38.772624,37.306628 38.820548,37.275308 39.058227,37.225044 39.061332,37.150328 39.797454,36.724334 39.654931,36.09957 39.388375,35.854752 38.904776,35.076456 38.988412,35.01038 39.378456,34.887618 39.354308,34.781764 39.765254,34.484672 39.130168,33.516785 38.877328,33.477552 38.950159,32.832279 38.923443,32.796717 38.925219,32.789763 38.885095,32.755161 38.847368,32.709622 38.975516,32.592806 39.376218,31.023682 39.239392,30.87328 39.252735,30.828958 38.855,30.524728 38.437332,30.131876 38.583232,29.971532 39.01117,29.64599 38.884176,29.595562 38.279904,29.486415 38.520811,28.667678 38.64954,28.202753 38.20714,27.945834 37.671427,27.660792 37.731022,27.595755 37.640888,27.582382 37.66554,27.479541 37.98131,26.217926 37.422299,25.969812 37.091644,25.982 36.952404,25.953898 36.994204,25.779804 36.946727,25.758731 36.866632,25.73448 37.042635,25.578091 37.08622,25.396562 37.13075,25.341959 37.39412,24.317389 36.872924,24.043272 36.287056,23.752484 36.457063,23.621486 36.750067,23.371548 36.158812,23.142606 36.465096,22.46789 36.869739,21.703513 36.405144,21.361526 35.927048,20.96814 36.112743,20.815906 36.473266,20.432821 36.289984,20.320116 35.723244,20.018542 36.014442,19.264486 36.022611,19.202624 35.717399,19.047858 35.462632,18.891532 35.765135,18.44057 36.226774,17.732785 35.482004,17.517074 34.84716,17.263718 34.915719,17.11761 35.000103,16.95315 34.968656,16.936837 35.014711,16.741607 34.409496,16.532932 34.432765,16.173355 34.380124,16.167896 34.366561,16.097423 34.258103,16.100764 34.148272,16.092805 34.155799,15.317329 34.033532,15.336383 33.958111,15.075203 33.657884,15.181355 33.322776,15.261532 33.22814,14.764505 33.19999,14.544174 33.126084,14.524747 33.088448,14.415902 32.675344,14.337761 32.287636,14.444541 32.254304,14.301479 32.246941,14.256727 32.224262,14.252437 32.200726,14.188357 31.925738,14.133297 32.026515,13.879875 32.046747,13.769119 31.93474,13.464161 31.862638,13.469019 31.888196,13.286269 31.865456,13.197092 31.823788,13.187774 31.75805,13.039553 31.71729,13.028082 31.614055,13.054204 31.011608,12.96108 30.980246,12.837635 30.978667,12.826436 30.964363,12.793495 30.899732,12.777174 30.933992,12.723546 30.451984,11.613417 30.441301,11.611096 30.447732,11.603464 30.427872,11.565024 30.471057,11.433976 30.785518,10.799093 30.603694,10.354132 30.407292,10.29633 30.053984,10.219818 30.26987,10.0105 30.348868,9.912436 29.678073,8.771909 29.63273,8.683179 29.59202,8.675673 29.611927,8.652523 29.550032,8.565533 29.606098,7.930997 29.687576,7.296087 29.317414,7.242174 29.000888,7.222296 29.168006,6.955633 29.27671,6.743494 29.059037,6.494476 28.614409,5.936035 28.272823,5.943564 28.33042,5.811137 28.373727,5.69755 27.514885,4.858199 27.489478,4.83177 27.468804,4.834316 27.473362,4.818143 27.394446,4.753611 26.895582,3.870228 26.721028,3.90704 26.621508,3.932332 26.686683,3.540149 26.246123,3.031345 25.918367,3.152773 25.7448,3.223839 25.752256,2.786466 25.741337,2.518122 25.484187,2.327819 25.042735,2.574913 24.831404,2.701809 24.775008,2.32316 24.676352,1.829949 24.582477,1.787915 24.099482,2.165749 23.880634,2.345254 23.771767,2.009839 23.597188,1.530027 23.493228,1.509444 23.103579,1.919382 22.898914,2.140356 22.743333,1.836853 22.501803,1.385362 22.395404,1.378406 22.073359,1.827018 21.895064,2.075823 21.695862,1.798686 21.392118,1.375176" slic3r:type="hole"/>
  </g></svg>