<svg width="43.790126" height="63.590156" xmlns="http://www.w3.org/2000/svg" xmlns:svg="http://www.w3.org/2000/svg" xmlns:xlink="http://www.w3.org/1999/xlink" xmlns:slic3r="http://slic3r.org/namespaces/slic3r"><g xmlns="http://www.w3.org/2000/svg" slic3r:z="4.25749999999998e-005" id="layer128">
    <polygon style="fill: white" points="30.542229,55.686523 31.129959,56.202672 30.994492,56.671432 30.803338,57.479632 30.606804,57.34554 29.794886,56.710324 29.991213,56.170972 30.212836,55.412864" slic3r:type="contour"/>
    <polygon style="fill: white" points="33.000839,54.852991 33.425624,55.173268 33.265398,55.856072 33.171482,56.4449 32.735561,56.206543 32.119378,55.8025 32.353336,54.980544 32.455724,54.492344" slic3r:type="contour"/>
    <polygon style="fill: white" points="35.341968,53.716636 35.603236,53.866744 35.452272,54.781731 35.432439,55.162132 34.74942,54.887844 34.344072,54.682636 34.490616,53.592915 34.508776,53.368348" slic3r:type="contour"/>
    <polygon style="fill: white" points="37.271019,52.185671 37.435736,52.244248 37.365288,53.348568 37.386316,53.601843 36.560503,53.403087 36.293992,53.32514 36.188276,52.145496 36.1832,52.058859" slic3r:type="contour"/>
    <polygon style="fill: white" points="39.382564,50.446151 39.557464,50.700747 38.913221,50.937924 39.03348,51.3969 39.089268,51.61528 38.326328,51.27516 38.036531,51.252292 37.507544,50.441048 37.48906,50.35778 37.7429,50.341915 37.647891,50.193079 37.600216,50.133932 38.325571,50.060388 38.749324,49.874912" slic3r:type="contour"/>
    <polygon style="fill: white" points="41.28284,42.041452 41.728704,42.351252 41.27216,42.684971 40.609522,43.248777 40.63224,43.344492 40.561657,43.400625 40.932776,44.649984 41.176036,45.782448 40.948496,45.968103 40.341022,46.280299 40.930872,46.9069 40.6987,47.079215 39.667768,47.748915 39.291691,47.203783 38.873404,46.791676 39.20426,46.603651 39.815757,46.239425 39.914354,46.168561 39.711131,45.362547 39.3673,44.07446 40.107728,43.651187 40.531706,43.373647 40.445796,43.301952 40.52518,43.221489 39.817235,42.719695 39.613867,42.538272 40.110159,42.105952 40.773124,41.605932" slic3r:type="contour"/>
    <polygon style="fill: white" points="41.303404,36.884904 41.43021,37.452919 41.8241,37.720868 41.990476,37.807972 41.583441,38.139297 41.602036,38.222592 41.579497,38.243302 41.766272,38.793628 41.92444,39.41574 41.446772,40.07524 40.816772,40.592656 40.120149,38.27174 39.915688,38.120012 39.961291,38.07778 40.042233,38.012145 40.039932,38.00448 40.063607,37.980487 39.903384,37.39652 40.119148,37.029175 40.88324,35.458088" slic3r:type="contour"/>
    <polygon style="fill: white" points="41.394491,33.438797 41.836456,33.623856 41.452463,33.955648 40.891968,34.556595 40.054631,34.189139 39.794492,34.033328 40.231571,33.564888 40.759916,33.07948" slic3r:type="contour"/>
    <polygon style="fill: white" points="40.804427,29.666347 41.325099,29.844428 41.06002,30.091487 40.457092,30.801078 39.71642,30.526146 39.323855,30.332036 39.660435,29.942182 40.214948,29.385154" slic3r:type="contour"/>
    <polygon style="fill: white" points="40.138447,26.261605 40.594612,26.399589 40.301008,26.693867 39.784268,27.35038 38.996635,27.088181 38.631224,26.931716 38.975855,26.503824 39.457052,25.980416" slic3r:type="contour"/>
    <polygon style="fill: white" points="38.71668,20.206482 38.803108,20.262344 38.802938,20.361103 38.84568,20.37216 38.802836,20.420528 38.802792,20.44638 38.796031,20.45682 38.930055,22.973282 39.463744,23.165558 39.753176,23.245802 39.344812,23.679871 38.976847,24.180694 38.016091,23.898928 37.820328,23.823494 38.25492,23.232711 37.785995,22.648837 37.316544,22.222992 37.32054,21.627424 37.279766,21.161373 36.93498,21.050998 36.998436,20.939807 37.232834,20.624932 37.230604,20.599438 37.375662,20.372474 37.355988,19.425856" slic3r:type="contour"/>
    <polygon style="fill: white" points="34.447468,14.234373 34.702519,15.126521 35.282408,15.172945 35.965888,15.23652 35.8868,15.490226 35.726787,15.942854 36.583404,15.963986 36.628964,16.689246 36.693276,17.588859 37.225052,17.688296 37.697128,17.770214 37.451636,18.146955 37.077056,18.834996 36.217627,18.722784 35.843676,18.630592 36.1208,18.00514 36.201722,17.87265 35.677128,17.823708 35.369608,17.851732 35.42608,17.290351 35.355474,16.384981 34.427307,16.313605 34.006956,16.266812 34.16368,15.642792 33.781407,15.818575 33.627168,15.896034 33.495277,15.15647 33.255522,14.145986 33.753496,13.919394 34.300428,13.621522" slic3r:type="contour"/>
    <polygon style="fill: white" points="32.183778,12.876303 32.239632,12.878689 32.244252,12.890276 32.628112,12.902131 33.259276,12.948377 33.203804,13.364617 32.969412,14.149973 32.227453,14.118259 31.62902,14.580417 31.56105,14.367715 31.465311,14.085682 31.435938,14.084426 31.422544,14.050485 30.455082,14.048709 30.531574,13.568702 30.564728,12.852153 31.074068,12.850453 31.67557,12.349695 31.876848,12.097608" slic3r:type="contour"/>
    <polygon style="fill: white" points="29.642144,11.200443 30.379358,12.638305 29.70837,13.448414 29.545604,13.631613 29.233396,12.942228 28.94325,12.235898 28.771754,12.22453 28.75862,12.195195 28.744918,12.159774 29.062574,11.769204 29.099581,11.789095 29.214179,11.670873 29.598802,11.102112" slic3r:type="contour"/>
    <polygon style="fill: white" points="21.906908,9.239415 22.406024,9.233711 22.032699,9.455636 22.273693,9.872091 22.65992,9.241518 22.665115,9.251598 23.085367,10.036346 23.172657,9.908177 23.526048,9.336603 23.583486,9.457182 24.035129,10.362296 24.283754,10.017145 24.567942,9.533761 24.724995,9.879586 25.138769,10.733386 25.316156,10.734464 25.681683,10.232261 25.871614,9.86159 26.201304,10.59246 26.284103,10.760525 26.293947,10.761002 26.302664,10.777819 26.909251,10.790504 27.285027,10.816786 27.469669,10.567919 27.56368,10.356234 27.786998,10.851894 27.814379,10.853809 27.82234,10.868764 28.142015,10.879695 29.233556,10.981692 29.177788,11.164755 28.572966,12.118651 28.228753,12.105294 27.97497,12.438209 27.571614,12.941917 27.377852,12.53652 27.170574,12.064227 27.0617,12.060003 27.030193,11.9908 26.214024,11.975147 25.839697,12.461021 25.73682,12.24403 25.611742,11.963597 25.556708,11.962542 25.543826,11.933189 25.115448,11.928551 24.627639,11.927576 24.483272,12.120012 24.445894,12.038798 24.395091,11.927111 24.379481,11.92708 24.3774,11.922095 23.579472,11.929308 23.587306,11.799146 23.514184,11.775147 23.453269,11.869323 23.437668,11.895027 23.126108,11.156956 23.058287,11.015842 22.69952,11.610674 22.613384,11.759351 22.317496,11.119689 22.27332,11.036195 22.013967,11.507946 21.895064,11.719079 21.533727,11.047423 21.273862,11.574209 21.176736,11.759369 20.792921,11.141833 20.736239,11.043885 20.370636,11.856777 20.352462,11.895026 20.268982,11.77136 20.195463,11.798594 20.21066,11.929307 19.542059,11.924462 19.412359,11.922878 19.410563,11.927071 19.394465,11.927385 19.306766,12.120034 19.254555,12.05098 19.165167,11.931857 18.615078,11.942584 18.242278,11.941825 18.233404,11.962538 18.172491,11.9655 17.950406,12.461021 17.813021,12.278923 17.593466,11.993653 17.529261,11.996775 16.752188,12.004819 16.728408,12.060021 16.60442,12.070245 16.218528,12.941896 15.968775,12.607117 15.572775,12.110823 15.216827,12.118582 14.978521,11.453366 14.556378,10.981738 15.956972,10.886534 16.07384,10.614202 16.226449,10.356231 16.587905,10.83362 17.454111,10.804999 17.674272,10.303981 17.918496,9.861589 18.210458,10.257681 18.509518,10.74617 18.637581,10.744291 18.927498,10.097787 19.222212,9.533751 19.375031,9.744174 19.758666,10.336318 19.929812,9.975134 20.264052,9.336603 20.322136,9.421582 20.705487,10.014551 20.75789,9.912681 21.13024,9.241491 21.135476,9.24993 21.512607,9.862239 21.766005,9.435642 21.703239,9.394225 21.383586,9.233709 21.882079,9.239813 21.895063,9.216879" slic3r:type="contour"/>
    <polygon style="fill: white" points="14.232613,11.142876 14.722788,11.770892 14.727032,11.768436 15.014257,12.108252 15.045158,12.159604 15.018269,12.224488 14.977603,12.229412 14.84287,12.234698 14.424022,13.200172 14.244495,13.631628 13.810821,13.091115 13.41086,12.638038 13.734946,11.875357 14.191415,11.10206" slic3r:type="contour"/>
    <polygon style="fill: white" points="12.33967,12.430976 12.742315,12.859978 13.225771,12.852341 13.331928,13.689864 13.335049,14.0487 12.744349,14.063857 12.363417,14.059912 12.354208,14.084344 12.327845,14.085897 12.161129,14.580394 11.98647,14.446771 11.57076,14.126276 10.820643,14.149947 10.693989,13.41322 10.530817,12.948407 11.538877,12.904548 11.550454,12.878804 11.556681,12.878706 11.704336,12.48071 11.913204,12.097658" slic3r:type="contour"/>
    <polygon style="fill: white" points="9.734675,13.728198 10.534604,14.145929 10.266163,15.445498 10.162918,15.89606 9.594277,15.639632 9.724911,16.116105 9.78315,16.266814 9.216696,16.28438 8.472354,16.37205 8.476725,16.779994 8.420654,17.851532 7.574327,17.935321 7.808184,18.422334 7.946499,18.630524 7.462543,18.655551 6.713029,18.834984 6.334293,18.23118 6.092974,17.770232 6.651487,17.665471 7.092805,17.586921 7.138425,16.809647 7.206681,15.964025 7.447653,15.979482 8.085552,15.966414 8.056094,15.874795 7.824279,15.236458 8.366962,15.192146 9.072391,15.130512 9.249778,14.344302 9.489703,13.621543" slic3r:type="contour"/>
    <polygon style="fill: white" points="6.478634,20.47931 6.559472,20.599386 6.555773,20.669319 6.855153,21.05096 6.758148,21.060666 6.531412,21.12993 6.473604,22.222934 5.548726,23.293758 5.843272,23.678424 5.969814,23.823492 5.336694,23.986918 4.813139,24.180642 4.23381,23.530834 4.036936,23.245776 4.671897,23.009555 4.897307,22.941604 4.990615,21.813195 4.99872,20.465181 4.987334,20.446416 4.987668,20.42803 4.955545,20.389436 4.944448,20.372192 4.988941,20.357946 4.989701,20.31611 4.987023,20.262368 5.804417,19.84667 6.434151,19.42602" slic3r:type="contour"/>
    <polygon style="fill: white" points="4.885141,26.639531 5.158903,26.931724 4.658709,27.081923 4.005895,27.350314 3.519489,26.840656 3.195515,26.399538 3.60777,26.222379 4.332917,25.98039" slic3r:type="contour"/>
    <polygon style="fill: white" points="4.124309,29.993255 4.466269,30.332052 3.999192,30.487242 3.332991,30.801036 2.852576,30.337337 2.465038,29.844433 2.789168,29.682476 3.575244,29.385202" slic3r:type="contour"/>
    <polygon style="fill: white" points="3.725847,33.787695 3.995642,34.033344 3.431084,34.254984 2.898158,34.556596 2.303922,34.031275 1.953666,33.623903 2.343474,33.39203 3.030251,33.079392" slic3r:type="contour"/>
    <polygon style="fill: white" points="3.428055,36.299932 3.886753,37.396492 3.805416,37.743516 3.731672,37.986916 3.750187,38.004555 3.746922,38.016899 3.874445,38.120112 3.821401,38.14872 3.686975,38.243533 3.370136,39.441368 2.973389,40.592488 2.262847,39.74352 1.865685,39.4156 2.226939,38.261123 2.188082,38.222604 2.200962,38.173069 1.940149,37.958435 1.799655,37.808012 2.40946,37.371198 2.906912,35.458036" slic3r:type="contour"/>
    <polygon style="fill: white" points="3.833651,42.279223 4.176271,42.538224 3.638943,42.896891 3.263718,43.213988 3.344152,43.30204 3.261959,43.374137 4.127063,43.871384 4.422848,44.074452 4.2108,44.977488 3.881205,46.173731 3.925304,46.204907 4.064043,46.284788 4.916729,46.791672 4.638219,47.200032 4.122333,47.74892 3.614595,47.359924 2.859257,46.9069 2.970596,46.785504 3.494454,46.227049 2.614098,45.782512 2.866218,44.874624 3.230677,43.399162 3.157836,43.344563 3.182777,43.252557 2.491164,42.747652 2.061422,42.351276 2.354518,42.088856 3.017011,41.605928" slic3r:type="contour"/>
    <polygon style="fill: white" points="6.066056,50.081475 6.189912,50.133932 6.049858,50.358354 6.243581,50.366568 6.301068,50.35778 5.822722,50.930812 5.75362,51.252292 4.911735,51.606231 4.700836,51.615264 4.878389,50.937459 4.532071,50.809887 4.232648,50.700756 4.797791,50.21142 5.040837,49.874916" slic3r:type="contour"/>
    <polygon style="fill: white" points="7.512503,53.045855 7.496133,53.32514 6.636483,53.531596 6.403798,53.601836 6.342657,52.484136 6.354396,52.244252 7.545587,52.082352 7.606928,52.05886" slic3r:type="contour"/>
    <polygon style="fill: white" points="9.411198,54.2568 9.445952,54.682736 8.684801,54.988488 8.357637,55.162108 8.219312,54.277895 8.186916,53.86674 9.126776,53.459852 9.281384,53.368356" slic3r:type="contour"/>
    <polygon style="fill: white" points="11.533563,55.150808 11.670719,55.802684 11.113173,56.10788 10.618566,56.444872 10.489944,55.882912 10.364476,55.173288 11.011611,54.73842 11.334417,54.492368" slic3r:type="contour"/>
    <polygon style="fill: white" points="13.741165,55.842636 13.99522,56.710212 13.64295,56.950607 12.986762,57.479616 12.912678,57.219832 12.660114,56.202632 13.078981,55.852108 13.577308,55.412868" slic3r:type="contour"/>
    <polygon style="fill: white" points="15.870687,56.400999 16.131883,57.138443 17.345955,57.22242 17.358884,57.208576 17.381458,57.2094 17.850652,56.661816 17.925592,56.809052 18.107822,57.235947 18.666588,57.256368 19.653575,57.300341 19.65447,57.299171 19.658103,57.299215 19.888692,56.982615 19.934807,57.061115 20.05949,57.304087 21.232875,57.318327 21.751097,57.326363 21.895064,57.091551 21.931753,57.145899 22.04329,57.327429 23.188709,57.31414 23.736102,57.305502 23.901404,56.982632 23.955684,57.05216 24.140447,57.305269 24.874346,57.281835 25.691692,57.243376 25.939448,56.661831 26.044452,56.77772 26.415193,57.209332 26.431182,57.20858 26.457973,57.23707 27.675309,57.144795 27.7001,57.086388 28.035687,56.137448 28.230345,56.323319 28.924092,57.019512 28.812594,57.326011 28.51805,58.297636 28.492551,58.276843 28.24828,58.053068 28.038444,58.426492 26.439861,58.508832 26.327808,58.772779 26.290222,58.873256 25.992558,58.531873 25.955532,58.53378 25.940779,58.517673 24.838266,58.558736 24.421203,58.570884 24.173315,59.054508 24.088674,59.229376 23.617653,58.594288 23.577296,58.595464 23.562778,58.576255 22.38823,58.590863 22.382702,58.600111 22.363442,58.599865 22.015412,59.161143 21.895064,59.353236 21.428131,58.59994 21.407341,58.60012 21.39962,58.587568 20.229604,58.572638 20.212824,58.595416 20.182101,58.594188 19.82475,59.074468 19.701478,59.229388 19.360706,58.565501 19.360485,58.565499 19.358387,58.561278 18.494314,58.526756 17.854702,58.511276 17.834602,58.533784 17.807477,58.531964 17.577576,58.793859 17.49993,58.873256 17.341423,58.500702 16.923073,58.47264 15.751679,58.426468 15.693763,58.251744 15.561713,58.025022 15.272043,58.297604 15.259594,58.262968 14.866086,57.019404 15.134387,56.761456 15.754496,56.137439" slic3r:type="contour"/>
  </g></svg>