<svg width="43.790126" height="63.590156" xmlns="http://www.w3.org/2000/svg" xmlns:svg="http://www.w3.org/2000/svg" xmlns:xlink="http://www.w3.org/1999/xlink" xmlns:slic3r="http://slic3r.org/namespaces/slic3r"><g xmlns="http://www.w3.org/2000/svg" slic3r:z="4.955e-006" id="layer14">
    <polygon style="fill: white" points="9.78424,23.186006 10.458233,23.53934 10.399474,23.582379 9.953669,23.96115 9.961777,23.969079 9.624457,24.265325 9.689534,24.337236 9.820577,24.461925 10.322002,25.025838 10.183569,25.08728 9.254407,25.465581 9.460502,25.743877 9.772757,26.272688 9.385876,26.38491 8.56577,26.562512 8.977635,27.11832 9.175864,27.435848 8.445233,27.652835 8.439183,28.210802 8.46298,28.518386 8.476244,28.531779 8.476303,28.535848 8.628712,28.698472 8.70414,28.784428 8.48127,28.877718 8.485444,29.165019 8.509816,30.05705 8.361458,30.313452 8.263946,30.506226 8.424158,30.627216 8.364899,30.661886 8.203492,30.758843 8.015581,31.766147 7.843123,32.505031 7.843137,32.548555 8.299535,32.827886 8.164601,32.916238 7.843344,33.147929 7.843532,33.697304 7.752741,34.791946 7.77806,34.806964 7.788333,34.892527 8.34059,35.166936 8.201098,35.270095 7.867469,35.551672 7.921882,36.004884 7.932754,37.155877 7.982775,37.179411 7.998553,37.255392 8.55402,37.468452 8.436421,37.569896 8.127937,37.878462 8.215422,38.299767 8.26185,39.326214 8.323835,39.347211 8.347233,39.421785 8.944085,39.57404 8.84139,39.682316 8.543525,40.047395 8.627928,40.3164 8.697177,41.298484 8.784475,41.315756 8.817941,41.38941 8.862364,41.399051 9.501767,41.47216 9.41174,41.591519 9.11774,42.049216 9.133667,42.084268 9.208296,43.091519 9.340443,43.097204 9.38268,43.161586 9.572253,43.17372 10.217431,43.147408 10.142548,43.278632 9.70042,44.205086 9.706627,44.401351 9.646945,44.317141 9.597287,44.421196 8.652985,44.409892 8.361998,44.381708 8.58074,43.859484 8.89452,43.255487 8.840784,43.179667 8.864197,43.124144 8.887288,43.077712 9.014294,43.083175 8.780945,42.633368 7.881898,42.488364 7.544788,42.404052 7.797306,41.9623 8.160657,41.437687 8.120207,41.359716 8.170874,41.272596 8.243144,41.164624 8.034467,40.597978 7.294767,40.379495 6.928839,40.23672 7.199112,39.864608 7.59651,39.408744 7.56876,39.333387 7.650363,39.224452 7.698649,39.167584 7.500526,38.351131 6.884801,38.093899 6.510352,37.898264 6.791364,37.579472 7.216072,37.178905 7.198691,37.10728 7.3085,36.988512 7.331013,36.966854 7.19099,35.924848 6.651543,35.637011 6.288683,35.405372 6.580952,35.121208 7.034548,34.760667 7.024981,34.689472 7.135766,34.588617 7.060732,33.46351 6.618571,33.17632 6.248118,32.902156 6.533023,32.662585 6.986553,32.351237 6.982677,32.293112 7.053698,32.238305 7.023604,31.061125 6.800795,30.884436 6.376926,30.526575 6.613123,30.35958 6.999886,30.133297 6.99906,30.10098 7.014223,30.091398 7.014228,29.863964 7.011519,28.754321 6.984491,28.722934 6.984776,28.702543 6.68873,28.407102 6.808289,28.342787 6.990988,28.259468 7.002885,27.41071 7.428917,27.07172 7.278932,26.840526 7.223559,26.753663 7.918724,26.571941 8.112101,26.528118 8.298943,26.37945 8.355342,26.360272 8.008996,25.824113 7.814184,25.515676 8.338624,25.416308 8.925948,25.301395 8.623559,24.996423 8.221622,24.584864 8.613963,24.465857 9.26921,24.228247 8.919065,24.058442 8.310994,23.754488 8.624599,23.546481 9.241127,23.067265 9.241633,23.037261 9.304991,22.989689 9.342873,22.959633 9.364843,22.9711 9.381083,22.958477" slic3r:type="contour"/>
    <polygon style="fill: white" points="9.337473,21.779694 9.936748,21.921466 9.813823,22.043112 9.266136,22.766203 9.288608,22.78323 9.247158,22.840115 9.234952,22.858452 9.201091,22.852081 9.173856,22.888038 8.449067,22.68144 7.928571,22.530506 8.231548,22.191047 8.742902,21.54559" slic3r:type="contour"/>
    <polygon style="fill: white" points="22.058012,0.720622 22.291163,0.736762 23.039179,0.787761 23.1722,0.642446 23.239226,0.568038 23.38999,0.835158 23.645217,0.887665 24.327093,1.026372 24.499615,0.880698 24.587168,0.806869 24.718735,1.130107 24.990059,1.223873 25.609873,1.432587 25.816477,1.3026 25.920554,1.239408 26.009142,1.58809 26.260232,1.711593 26.910771,2.016645 26.940242,2.00545 27.115228,1.928355 27.215048,1.888757 27.246313,2.186803 27.431652,2.30646 28.26376,2.809167 28.296886,2.802062 28.382237,2.778382 28.437988,2.765711 28.432475,2.918232 28.527711,2.999292 29.416612,3.696846 29.548427,3.861053 29.56954,3.884841 29.612296,3.88111 29.610698,3.893364 29.60782,3.907055 29.603289,3.934922 30.350975,5.045402 30.504608,5.249505 30.777,5.252111 30.758601,5.329473 30.700713,5.510033 30.706024,5.517089 30.692554,5.5678 31.27593,6.468441 31.574821,6.886235 31.9734,6.920074 31.939029,7.027364 31.843402,7.261662 31.852576,7.274485 31.831281,7.33666 32.550389,8.377867 32.930186,8.890696 33.256344,8.940482 33.226647,9.019315 33.14688,9.183291 33.155964,9.195557 33.137485,9.241756 34.226048,10.659711 34.477427,11.206309 34.518268,11.212733 34.542576,11.217546 34.511228,11.284401 34.601207,11.604664 35.173938,13.49725 35.515552,13.588383 35.720376,13.646566 35.423904,14.161809 35.337983,14.285734 35.458414,15.661038 36.14162,15.968519 36.594868,16.16378 36.394271,16.41859 36.002656,16.844296 36.694186,18.505296 36.757128,18.561924 36.760132,18.578703 36.830023,18.625476 36.808651,18.642844 36.776069,18.667704 36.806272,18.836376 36.509439,19.285898 35.946203,20.164205 36.284967,20.565071 36.456463,20.78309 35.852967,20.989996 35.249064,21.193746 34.750723,20.670893 34.484044,20.287978 35.009191,20.046994 35.344261,19.940925 35.199604,19.1976 34.921708,18.618987 34.857491,18.568049 34.841032,18.551006 34.887399,18.520066 34.838408,18.458468 35.223576,17.852653 35.443231,16.918091 35.068379,16.771144 34.635579,16.57201 34.955204,16.188094 35.314315,15.812126 34.582952,14.996277 33.958702,14.396159 33.858927,14.371179 33.827236,14.363464 33.874295,14.294144 33.804532,14.220938 33.693459,14.088689 33.282064,12.70728 33.126459,12.153342 33.10836,12.116001 32.7085,12.067718 32.807849,11.899004 32.909221,11.705153 32.531639,10.926153 32.136642,10.014387 32.089948,9.940753 31.492384,9.91098 31.619843,9.668139 31.743674,9.39469 31.526547,9.052288 30.95311,8.053361 30.909557,7.997354 30.864443,7.995316 30.285518,8.003493 30.395412,7.758423 30.504799,7.476858 30.341028,7.26626 29.725484,6.411307 29.179938,6.459362 29.25619,6.2484 29.329677,6.012269 29.043361,5.720123 28.536059,5.166073 28.14436,5.239542 28.183842,5.084719 28.219131,4.915863 27.691343,4.500536 27.373742,4.232277 27.150426,4.30306 27.162223,4.210277 27.170676,4.108572 26.39775,3.649605 26.259602,3.560806 26.166172,3.605301 26.165332,3.563411 26.162336,3.514373 25.238156,3.099894 25.183776,3.073376 25.147238,3.097872 25.139753,3.057143 24.157784,2.746348 24.117351,2.732577 24.091847,2.755425 24.080687,2.723326 23.092778,2.536291 23.036819,2.525015 23.00539,2.561522 22.983059,2.51803 22.000723,2.456384 21.929138,2.451564 21.895064,2.502032 21.880567,2.480763 21.860613,2.451265 20.868523,2.513668 20.807455,2.517776 20.784708,2.561524 20.752539,2.524494 19.753679,2.714003 19.710295,2.722733 19.698274,2.755422 19.671709,2.732 18.703928,3.037731 18.652198,3.05533 18.64292,3.097845 18.627134,3.087595 18.604133,3.072272 17.736123,3.457116 17.63084,3.508516 17.62396,3.605303 17.583975,3.58748 17.525436,3.559975 17.498454,3.573148 16.826296,3.962653 16.624519,4.093088 16.639728,4.30306 16.54376,4.277373 16.405125,4.234907 16.386993,4.246629 16.380181,4.244823 15.899056,4.613835 15.576412,4.88823 15.645767,5.239542 15.477331,5.218328 15.23741,5.176537 15.208598,5.20104 15.193904,5.1992 14.921197,5.471977 14.46514,5.972585 14.61019,6.459362 14.374396,6.455636 14.046787,6.431807 14.014019,6.467776 13.987593,6.467274 13.87445,6.611041 13.287502,7.426436 13.306108,7.470055 13.504615,8.003472 13.227041,8.022868 12.857458,8.023856 12.826657,8.066647 12.786445,8.069118 12.724895,8.166246 12.045783,9.337539 12.076586,9.399256 12.297749,9.910969 12.023927,9.949169 11.677944,9.971969 11.651867,10.016945 11.62107,10.020843 11.42278,10.4397 10.879468,11.665065 11.081616,12.067756 10.898388,12.104524 10.671205,12.134775 10.650586,12.18128 10.096677,14.088672 9.913803,14.290795 9.948378,14.341853 9.962893,14.363464 9.840634,14.394549 8.473856,15.826059 8.914122,16.336538 9.154546,16.571997 8.800887,16.698223 8.425403,16.864724 8.707486,17.689975 8.951718,18.458467 8.913929,18.536187 8.949093,18.551006 8.894157,18.589428 8.501786,20.005012 8.960428,20.205902 9.306089,20.287948 9.034636,20.54478 8.541076,21.193714 7.589351,20.869186 7.333662,20.783104 7.740964,20.312307 7.832139,20.198111 7.525611,19.75662 6.983867,18.83651 7.002774,18.71858 7.01306,18.665318 6.9601,18.625498 6.983641,18.609539 7.029817,18.578539 7.033028,18.561912 7.084348,18.516134 7.478833,17.450926 7.773623,16.803457 7.527156,16.505526 7.195257,16.163781 7.51537,16.018579 8.317906,15.667078 8.370868,14.57476 8.425107,14.193619 8.411318,14.174161 8.412526,14.169463 8.194626,13.813466 8.069752,13.646544 8.581629,13.51153 8.734226,12.917817 9.278533,11.274064 9.260572,11.238285 9.247584,11.217514 9.308795,11.208339 9.342219,11.127876 9.563981,10.659899 10.413764,9.501343 10.646072,9.223467 10.634164,9.195559 10.654835,9.165312 10.533775,8.940487 10.6235,8.934285 10.830161,8.908766 11.603575,7.777064 11.951707,7.313469 11.937572,7.274484 11.96047,7.239609 11.816753,6.920072 11.930864,6.919911 12.179813,6.905546 12.836703,5.905086 13.092651,5.547198 13.084098,5.517089 13.100227,5.493818 13.013127,5.252111 13.089694,5.257971 13.261694,5.260851 14.143617,3.988401 14.186331,3.931118 14.185181,3.924732 14.187858,3.921493 14.177832,3.88111 14.215586,3.887942 14.373514,3.69685 15.362928,2.90686 15.358364,2.819462 15.352135,2.765742 15.489402,2.805877 15.493957,2.80224 15.51843,2.808159 15.664674,2.714088 16.553579,2.170831 16.570138,1.992304 16.575079,1.888758 16.827668,2.00332 16.834036,1.999428 16.870213,2.014039 17.117328,1.892551 17.789706,1.576318 17.84371,1.357298 17.869602,1.239409 18.17248,1.431838 18.447032,1.336905 19.076422,1.125095 19.161287,0.91435 19.20296,0.806843 19.462099,1.025712 19.719355,0.972765 20.402475,0.833896 20.502037,0.656557 20.550876,0.568043 20.75254,0.78732 20.986825,0.771095 21.734419,0.720172 21.841763,0.57183 21.895064,0.496669" slic3r:type="contour"/>
    <polygon style="fill: white" points="35.532223,22.108673 35.861556,22.530474 35.418052,22.655939 34.616295,22.888068 34.583955,22.853789 34.5551,22.858422 34.501407,22.783141 34.512499,22.778049 34.271823,22.522945 33.853371,21.921466 34.080079,21.829426 35.047152,21.54553" slic3r:type="contour"/>
    <polygon style="fill: white" points="34.42574,22.970204 34.447272,22.959605 34.54848,23.037215 34.54894,23.056535 34.929715,23.323357 35.479136,23.754488 35.126172,23.923261 34.527107,24.221889 34.954836,24.360832 35.568504,24.584864 35.255192,24.899075 34.862428,25.300358 35.559563,25.434045 35.975943,25.515658 35.658956,26.003021 35.432725,26.359615 35.4913,26.379564 35.698943,26.541192 36.454075,26.728562 36.566572,26.753664 36.366293,27.06065 36.515695,27.176944 36.78724,27.41071 36.79678,28.045722 36.799745,28.272664 37.101392,28.407102 37.00286,28.511479 36.805474,28.710909 36.805631,28.722934 36.780919,28.751616 36.782228,29.367665 36.779422,30.093986 36.791104,30.100986 36.790416,30.165271 36.881075,30.224755 37.4132,30.526598 37.188307,30.700256 36.779752,31.039341 36.74548,32.247696 36.807448,32.293112 36.803434,32.376241 37.123356,32.62425 37.542007,32.902174 37.241567,33.085308 36.74184,33.4427 36.662234,34.600548 36.765096,34.689468 36.754437,34.782726 37.127544,35.11692 37.501444,35.405344 37.160347,35.570676 36.611451,35.906118 36.465641,36.977923 36.591436,37.10728 36.57134,37.198429 36.931619,37.576951 37.279772,37.898248 36.909251,38.034096 36.301586,38.336455 36.096103,39.175162 36.22138,39.333352 36.189889,39.42513 36.559823,39.896379 36.861288,40.236732 36.445603,40.339424 35.764162,40.591292 35.550445,41.167073 35.669972,41.359744 35.625605,41.450366 36.006996,42.063644 36.245336,42.404064 35.776464,42.457024 35.011193,42.6354 34.781032,43.076142 34.9029,43.077772 34.949396,43.179724 34.89257,43.263996 35.261867,44.063571 35.428096,44.381716 34.90698,44.361687 34.192876,44.4212 34.138354,44.324455 34.083544,44.401388 34.116192,44.285131 33.85856,43.827988 33.5727,43.147416 33.708928,43.137208 34.43906,43.135402 34.449776,43.097244 34.639395,43.086983 34.801906,42.301146 34.651932,42.098824 34.28836,41.472132 34.422352,41.441223 34.99822,41.351846 35.005683,41.31576 35.192868,41.276204 35.342698,40.219383 35.272536,40.143816 34.846044,39.57402 34.977363,39.525392 35.461217,39.383412 35.466356,39.347172 35.632026,39.288567 35.738634,38.006082 35.709479,37.980291 35.236108,37.468452 35.368767,37.402144 35.804059,37.219014 35.807352,37.179412 35.946426,37.111734 35.988106,35.647488 35.948036,35.617144 35.449536,35.16694 35.589611,35.080268 36.010661,34.855142 36.012032,34.806964 36.099352,34.753718 35.996063,33.211443 35.490592,32.827886 35.610376,32.741825 35.949969,32.523193 35.947012,32.479032 35.961431,32.468639 35.808648,31.71651 35.598866,30.769291 35.365972,30.627188 35.410924,30.590477 35.519253,30.506755 35.280316,30.057093 35.306435,28.87012 35.18214,28.818708 35.08598,28.784452 35.304162,28.555182 35.314667,27.606151 34.928752,27.49347 34.614264,27.435852 34.917072,27.043817 35.235239,26.560699 34.551135,26.364788 34.017375,26.272698 34.183352,26.059391 34.554895,25.470063 34.143655,25.288871 33.468138,25.025838 33.55614,24.944499 34.02469,24.442448 34.0115,24.435689 34.164783,24.265551 34.059991,24.173207 33.937952,24.081508 33.331922,23.53931 33.401381,23.4998 34.409048,22.958508" slic3r:type="contour"/>
    <polygon style="fill: white" points="32.841446,44.599208 33.830396,44.767001 33.84564,44.724492 34.029039,44.747072 34.055068,44.751932 34.06544,44.786856 34.035812,44.819051 34.000219,44.855841 34.307436,45.869252 34.403272,46.143392 33.843656,46.025152 33.157834,45.966991 32.902099,45.313471 32.708646,44.58558" slic3r:type="contour"/>
    <polygon style="fill: white" points="31.816192,45.816984 32.944346,46.216188 33.130988,47.41852 33.17416,47.642472 32.601137,47.414883 31.949042,47.240228 31.788452,46.54372 31.696906,45.782276" slic3r:type="contour"/>
    <polygon style="fill: white" points="30.644866,46.820332 31.740044,47.41458 31.771458,48.698112 31.781884,48.881496 31.221118,48.551127 30.606311,48.272096 30.54133,47.557044 30.548384,46.774008" slic3r:type="contour"/>
    <polygon style="fill: white" points="29.343512,47.6266 30.395078,48.399268 30.275686,49.710239 30.265568,49.877064 29.739173,49.462036 29.159439,49.090288 29.181312,48.38102 29.27892,47.583332" slic3r:type="contour"/>
    <polygon style="fill: white" points="27.932392,48.250468 28.941288,49.184547 28.693355,50.466188 28.663674,50.649892 28.188519,50.177176 27.635842,49.72056 27.728936,49.039863 27.907718,48.229312" slic3r:type="contour"/>
    <polygon style="fill: white" points="11.026833,44.72428 10.632286,45.966999 9.620736,46.125872 9.386849,46.1434 9.548016,45.539891 9.788086,44.852688 9.724658,44.786868 9.729637,44.768263 9.735019,44.75198 9.944238,44.724563 9.991696,44.772421 10.440108,44.722927 11.081474,44.585596" slic3r:type="contour"/>
    <polygon style="fill: white" points="12.062105,45.9173 11.841075,47.240244 10.796647,47.59518 10.615994,47.642476 10.698975,46.973267 10.845772,46.21622 11.470083,46.031556 12.093215,45.782292" slic3r:type="contour"/>
    <polygon style="fill: white" points="13.231268,46.891427 13.183804,48.272135 12.149056,48.818 12.008245,48.881492 12.005685,48.17116 12.050105,47.414516 12.646646,47.126635 13.241737,46.773999" slic3r:type="contour"/>
    <polygon style="fill: white" points="14.514002,47.667371 14.630728,49.090228 13.647235,49.798415 13.524564,49.877048 13.439038,49.152247 13.395061,48.399236 13.947403,48.029027 14.511201,47.583356" slic3r:type="contour"/>
    <polygon style="fill: white" points="15.88715,48.263312 16.154299,49.720544 15.256627,50.542048 15.126426,50.649892 14.968607,49.937499 14.848849,49.184436 15.346638,48.758424 15.882408,48.229312" slic3r:type="contour"/>
    <polygon style="fill: white" points="17.308867,48.752313 17.328691,48.729032 17.336605,48.763092 17.378881,48.773663 18.764892,49.161166 18.794751,49.12306 18.825034,49.082068 18.858705,49.186114 18.992408,49.20644 20.267841,49.423427 20.310214,49.358103 20.352634,49.292139 20.416679,49.444251 20.614923,49.454615 21.807082,49.524123 21.851041,49.440736 21.895064,49.361464 21.981571,49.525312 22.193707,49.514232 23.369602,49.445435 23.403351,49.364984 23.437466,49.29214 23.524306,49.426041 23.698803,49.399572 24.927602,49.18872 24.945808,49.132076 24.965094,49.0821 25.028673,49.163373 25.137671,49.136164 26.450472,48.7649 26.461438,48.729028 26.483683,48.752675 26.517285,48.740928 27.138784,48.495348 26.646893,48.926172 26.920846,49.217392 26.905249,49.226142 27.413696,49.793796 27.069662,50.989879 27.009066,51.225188 26.595599,50.726315 26.060744,50.185892 26.189702,49.62755 25.635157,49.938641 25.854955,50.219607 25.867385,50.235968 25.859808,50.256667 25.825443,50.26244 25.424331,51.32344 25.31956,51.618684 24.962218,51.112444 24.437607,50.474602 24.24433,50.504166 24.203708,50.593468 24.19092,50.594215 23.765349,51.506356 23.610578,51.845216 23.297831,51.335987 22.838463,50.666165 22.584329,50.679605 22.091895,51.569392 21.895064,51.917184 21.611823,51.395223 21.205857,50.679026 20.952904,50.665661 20.388623,51.539196 20.17955,51.845224 19.913472,51.285108 19.598326,50.594082 19.586464,50.593455 19.569124,50.555948 19.545616,50.503282 19.352149,50.473744 18.664337,51.381984 18.470568,51.618684 18.226217,51.004947 17.963782,50.261777 17.93032,50.256668 17.926094,50.245668 17.92274,50.235967 18.076896,50.039226 17.639883,49.859643 17.729416,50.185859 16.942505,51.061336 16.781066,51.225164 16.570777,50.555495 16.37643,49.793812 16.81028,49.337311 16.881477,49.253823 16.868568,49.218128 17.048122,49.027732 16.616775,48.856732 16.650955,48.495216" slic3r:type="contour"/>
  </g></svg>