<svg width="43.790126" height="63.590156" xmlns="http://www.w3.org/2000/svg" xmlns:svg="http://www.w3.org/2000/svg" xmlns:xlink="http://www.w3.org/1999/xlink" xmlns:slic3r="http://slic3r.org/namespaces/slic3r"><g xmlns="http://www.w3.org/2000/svg" slic3r:z="2.87149999999999e-005" id="layer86">
    <polygon style="fill: white" points="11.646579,59.487767 11.82733,60.111801 13.468069,60.315778 13.503847,60.290461 13.763671,60.086735 13.776937,60.134876 13.843707,60.326396 14.780122,60.400476 15.651376,60.884938 15.825717,60.746563 15.867045,60.709936 15.992367,61.074545 16.020292,61.090074 17.373005,61.675142 17.813867,61.26826 17.914674,61.16654 18.225325,61.892811 18.312484,62.068969 19.16052,62.310171 19.785352,61.613447 19.919067,61.457344 20.27424,62.107748 20.504532,62.493436 19.869325,63.263212 19.718302,63.434352 19.32007,62.725152 19.182582,62.477778 18.348813,62.44487 18.276346,62.512296 18.149091,62.503154 17.664218,63.004235 17.543534,63.118924 17.224507,62.436731 16.292845,62.3698 15.747937,62.350149 15.696174,62.391884 15.637005,62.385706 15.415362,62.586335 15.360094,62.631928 15.247119,62.344999 14.876311,62.306284 14.04725,62.2583 13.574369,61.978739 13.331795,61.856198 13.156777,61.983564 13.141363,61.935855 13.084525,61.731283 13.05869,61.718231 13.034795,61.647336 12.436207,61.249011 11.570452,60.751647 10.903801,61.184808 10.853046,60.998827 10.681104,60.240729 10.598079,60.193032 10.565893,60.077624 10.552622,60.019771 10.550415,60.018296 10.633986,60.032987 10.623336,59.986027 10.996249,59.755807 11.610272,59.325112" slic3r:type="contour"/>
    <polygon style="fill: white" points="9.578809,58.743608 9.763122,59.633572 9.320994,59.904151 8.688718,60.247727 8.620048,59.901328 8.487817,59.031963 9.015663,58.757 9.535005,58.450388" slic3r:type="contour"/>
    <polygon style="fill: white" points="7.677018,57.900492 7.744823,58.663004 7.124354,58.948912 6.617101,59.15124 6.570691,58.62744 6.541171,57.922312 7.252353,57.644376 7.659162,57.462868" slic3r:type="contour"/>
    <polygon style="fill: white" points="1.809256,42.71434 2.270862,43.043344 1.823257,43.519239 1.413508,44.032223 1.444049,44.070992 2.101792,44.69454 2.465997,45.089576 2.209094,45.492375 1.675431,46.197242 2.117326,46.500808 2.665933,46.861096 2.297949,47.311595 1.836526,47.908211 2.507072,48.439143 2.936589,48.79996 2.744531,49.070059 2.416638,49.541129 2.556896,49.620636 3.127188,49.954508 2.793931,50.436608 2.617381,50.683936 2.925266,50.85612 3.375482,51.177095 3.229982,51.344567 3.000927,51.718992 3.058958,51.863956 3.192895,52.277293 3.671051,52.456996 3.603436,52.540215 3.427616,52.763753 4.18344,53.889684 4.18845,53.890608 4.48764,55.186057 4.848819,55.182096 4.980865,55.174752 4.741836,55.880248 4.724952,55.935351 4.999849,56.62381 5.833889,56.446032 6.110482,56.374383 6.035593,56.959556 5.982378,57.575848 5.148968,57.791047 4.7985,57.861875 4.851547,57.163679 4.915222,56.656993 4.550859,56.45728 4.321627,56.45818 4.180061,56.340519 3.556499,56.367572 3.392676,56.367776 3.551569,55.818158 3.261481,55.577056 2.465953,54.873692 2.445839,54.768854 2.442843,54.768364 2.442219,54.761479 2.396033,54.752976 2.402407,54.740791 2.434796,54.68113 2.34396,53.696268 2.24902,53.182804 1.764863,53.016732 1.869209,52.87626 2.202566,52.427933 2.129889,52.048906 1.416003,51.5381 1.690504,51.201971 1.932844,50.843228 1.539236,50.600136 1.184109,50.393676 1.420573,50.094483 1.737227,49.665066 1.691153,49.627184 0.953151,49.000956 1.321844,48.509763 1.749212,47.933533 1.717477,47.910284 1.72758,47.896065 1.069612,47.454848 0.70056,47.194028 0.97956,46.85284 1.456439,46.273268 1.420431,46.23786 1.472855,46.169801 1.06102,45.744212 0.471656,45.16704 0.961401,44.534956 1.242336,44.148753 1.186561,44.10202 1.243935,44.013719 0.60712,43.562819 0.292726,43.289608 0.626755,42.8721 1.212221,42.231068" slic3r:type="contour"/>
    <polygon style="fill: white" points="1.770571,38.734896 2.059357,38.958308 1.417094,39.511447 1.490649,39.657816 1.470312,39.680788 1.873684,40.151407 2.110421,40.503275 1.759777,41.104912 1.180322,41.808188 0.486852,40.862307 0.111951,40.422296 0.65538,39.751736 0.578671,39.675356 0.635281,39.581376 0.251958,39.289568 0.068192,39.088284 0.528063,38.534136 1.061223,38.046892" slic3r:type="contour"/>
    <polygon style="fill: white" points="1.761021,33.745459 2.008142,34.717844 2.131829,34.86986 2.173846,34.905388 2.073076,34.97335 2.08091,35.004176 2.071332,35.013575 2.119714,35.096879 2.151205,35.175544 1.561437,36.14176 1.066747,36.637735 0.436871,35.237681 0.169506,34.909668 0.200477,34.876796 0.255571,34.8347 0.249643,34.821524 0.282804,34.786719 0.198377,34.5769 0.310667,34.454708 1.386902,32.86741" slic3r:type="contour"/>
    <polygon style="fill: white" points="4.006533,23.740938 3.857223,23.917493 4.199011,24.493508 4.573462,24.799322 4.148513,24.953853 3.448775,25.367583 3.394555,25.590488 3.225041,25.691985 3.298996,26.824814 3.259152,27.203278 3.465095,27.526116 3.621189,27.656288 3.191498,27.84589 3.176263,27.990596 3.105923,28.039775 3.18063,28.461232 3.193164,29.155742 2.74662,29.731122 2.136364,30.126833 2.320302,30.399336 2.197753,30.557272 2.242628,30.618556 2.756033,31.06077 2.468363,31.22001 1.573791,31.935938 1.02807,31.430762 0.729645,30.967261 1.085736,30.650377 1.581642,30.347547 1.553566,30.194986 1.791548,29.991192 1.624414,27.668536 1.525282,27.503112 1.56078,27.476132 1.608783,27.45133 1.607611,27.435028 1.649313,27.403765 1.654537,27.058888 1.906636,26.87066 2.985795,25.683984 2.798619,25.335772 2.950907,25.161099 2.594876,24.812794 2.464114,24.572815 3.068049,24.172952 3.76588,23.873114 3.780709,23.63672 3.845763,23.592224 3.897235,23.569964" slic3r:type="contour"/>
    <polygon style="fill: white" points="3.809761,23.519721 3.804189,23.537236 3.797801,23.529299 3.794292,23.521946 3.811452,23.503052" slic3r:type="contour"/>
    <polygon style="fill: white" points="19.798794,3.050631 19.832718,3.17044 19.976749,3.29762 20.182418,2.982394 20.286604,3.2486 20.320122,3.301672 20.522206,3.282787 20.535545,3.26302 20.544536,3.262288 20.68864,3.029447 20.75329,3.181436 20.789068,3.242372 21.047744,3.221304 21.154369,3.219264 21.157031,3.214809 21.160136,3.214762 21.259834,3.046194 21.315007,3.155621 21.34765,3.211945 21.710698,3.206492 21.802778,3.207128 21.895064,3.046067 21.953154,3.150481 21.986345,3.208396 21.992303,3.208437 21.994006,3.211509 22.337209,3.216884 22.4321,3.216232 22.530294,3.04619 22.591599,3.155897 22.626526,3.214896 22.633127,3.214851 22.645534,3.235491 22.862918,3.256293 22.970021,3.258141 23.101488,3.029451 23.192339,3.184561 23.240772,3.262814 23.254636,3.263053 23.313102,3.344755 23.389742,3.35087 23.607726,2.982383 23.803368,3.306508 24.100785,3.043171 24.105726,2.902439 24.179401,2.973564 24.236412,2.923085 24.250684,2.991641 24.309834,3.016166 24.489767,3.325735 25.227357,3.178133 25.227398,3.178153 25.227452,3.17818 25.227403,3.178354 25.313182,3.931853 25.441538,3.977474 25.90716,3.954517 25.809414,4.046569 25.79541,4.142603 26.003104,4.182525 25.82152,4.707868 25.994282,4.783691 26.273156,4.763362 26.037133,4.938362 25.946925,5.178361 26.483636,5.261826 26.394519,5.589214 26.50772,5.628191 26.698668,5.585364 26.444424,5.788392 26.326182,6.213321 26.650948,6.127402 26.99778,6.082274 26.969444,6.364594 27.084102,6.389232 27.293814,6.345974 27.049026,6.591529 26.942742,6.990072 27.302698,7.052113 27.449834,6.968418 27.706442,6.837464 27.720269,7.124085 27.849496,7.146359 28.106859,7.156429 27.739079,7.514002 27.74586,7.65457 27.732454,7.675526 27.748615,7.86072 28.099284,7.939852 28.516137,8.022841 28.516988,8.021424 28.541546,8.026619 28.567645,7.996238 28.635678,7.91911 28.648611,8.049267 28.688024,8.057605 28.777746,8.076838 28.658029,8.150786 28.667828,8.229452 28.721776,8.768315 28.885146,8.803755 29.278358,8.884528 28.772325,9.193594 28.794701,9.338142 29.032979,9.377294 29.575953,9.429871 29.598233,9.399097 29.637488,9.341525 29.649712,9.438156 29.748468,9.452609 29.664476,9.513666 29.753788,9.870086 29.882229,9.882452 30.610371,9.908495 30.608645,9.96667 30.674133,9.92741 30.682892,9.951716 30.967707,10.802015 31.059957,10.814224 31.52349,10.486221 31.752014,10.335516 31.855092,10.686089 31.922311,10.906062 32.219636,10.964895 32.319664,10.986095 32.548032,10.810789 32.664272,10.700742 32.773583,11.072277 33.000755,11.124726 33.111053,11.156501 33.231678,11.024643 33.28483,10.898731 33.400605,11.198535 33.534856,10.92181 33.609768,11.007029 33.633924,10.892749 33.895355,11.01286 33.861403,10.830576 33.875624,10.685083 34.130165,10.735571 34.156376,10.708689 34.295697,10.548136 34.295292,10.338082 34.33004,10.228251 34.617004,10.304881 34.996732,10.110397 35.170412,9.862031 35.222708,9.804666 35.486893,10.06183 36.12263,10.120686 36.264396,10.057332 36.29958,10.045907 36.311821,10.138201 36.321432,10.139091 36.337766,10.201829 36.369603,10.228021 36.941672,10.657745 37.05848,10.642049 37.099767,10.64044 37.078838,10.76078 37.08824,10.767842 37.084134,10.816869 37.123935,10.872547 37.48367,11.354548 37.638471,11.365676 37.692016,11.374986 37.62609,11.545372 37.62892,11.549164 37.612718,11.5955 37.654367,11.694639 37.85602,12.149454 38.05588,12.201487 38.120376,12.224321 37.963386,12.477748 37.991124,12.617885 38.069039,12.990252 38.299519,13.093815 38.376384,13.1336 38.130431,13.416596 38.136203,13.633333 38.145727,13.861298 38.407527,14.022425 38.500528,14.085327 38.140599,14.40869 38.10535,14.744321 38.408363,14.969139 38.53628,15.069585 37.977303,15.516919 37.91621,15.560096 37.882505,15.670414 38.355884,16.006017 38.561252,16.118761 38.075675,16.514974 37.643334,16.804661 38.139624,17.098054 38.696892,17.336938 38.580495,17.439369 38.750268,17.549316 38.611019,17.825106 38.173737,18.421247 39.081032,18.856896 39.170212,18.898266 39.080215,19.054005 39.156832,19.105554 39.276268,19.194691 39.223352,19.815405 39.184151,20.084383 39.251632,20.117828 39.273441,20.270899 39.768528,20.412524 39.59924,20.634669 39.351277,21.066624 39.348147,21.548046 39.564516,21.664476 39.614568,21.91954 39.891247,22.055119 40.488168,22.26391 40.167484,22.574795 39.743076,23.258134 39.071711,23.033169 38.427724,22.599616 38.501355,22.425222 38.769806,22.129845 38.708528,22.069284 38.851648,21.797042 38.190884,21.116563 37.782108,20.878662 37.799032,20.834086 37.85177,20.767333 37.841924,20.757192 37.859573,20.722473 37.668812,20.593976 37.677485,19.650582 37.404732,19.514928 37.249344,19.43274 37.560128,18.804912 37.832417,18.467892 37.354591,18.157309 36.803835,17.93263 36.890129,17.771648 36.739984,17.679078 36.826743,17.566924 37.424036,16.953877 37.529426,16.791129 36.804239,16.341585 36.574736,16.193918 37.156733,15.61666 37.098297,15.48939 36.922972,15.375763 36.919637,15.361623 36.629024,15.167832 36.53866,15.106453 36.808768,14.891502 36.761363,14.690485 36.678788,14.325041 36.552235,14.250226 36.506335,14.225436 36.633595,14.125034 36.632192,14.118824 36.634863,14.116591 36.605832,14.005594 36.533725,13.56289 36.45648,13.529023 36.418044,13.51459 36.508045,13.425741 36.472443,13.335994 36.363792,12.962638 36.297416,12.946522 36.260612,12.938459 36.322707,12.85019 36.277791,12.785549 36.048517,12.46036 36.018699,12.458339 36.02952,12.432143 35.976484,12.40546 35.882051,12.124735 35.842684,12.063231 35.72584,12.087635 35.722932,12.030916 35.757499,11.779999 35.709219,11.733258 35.536822,11.837686 35.544551,11.900251 35.160111,11.812771 35.254,12.244074 34.922772,12.193514 34.740355,12.157108 34.71136,12.720404 34.419231,12.603926 34.195591,12.513632 34.159756,12.586853 34.141074,12.587546 33.895424,13.029213 33.71764,12.834338 33.487154,12.60959 33.336198,12.610751 33.287242,12.663666 33.262597,12.659232 32.96388,12.953476 32.898442,12.769844 32.832777,12.614623 32.780918,12.615022 32.764279,12.569569 32.564637,12.533646 32.28956,12.479269 32.050948,12.669362 32.024706,12.545364 31.994835,12.430125 31.127122,12.296474 31.092117,12.290474 31.076048,12.302858 31.07332,12.288851 31.024348,12.284711 30.373935,11.621897 30.229872,11.740337 30.060994,11.889297 29.91589,11.328308 29.867758,11.138444 29.484342,11.120034 29.36645,11.222169 29.007986,11.551074 28.897307,11.183875 28.869847,11.089311 28.304822,11.060537 28.288754,11.074291 28.106618,11.056653 27.931038,11.195081 27.889199,11.035597 27.51953,10.999798 27.465502,10.462707 27.483516,10.299267 27.226944,10.257434 26.890582,10.473281 26.866816,10.193707 26.606798,10.158847 26.720935,10.005156 26.825807,9.880347 26.798978,9.691213 26.770704,9.531212 26.74757,9.52619 26.746623,9.517858 26.197913,9.38725 26.476855,9.136704 26.66804,8.950248 26.645787,8.824322 25.905276,8.634541 26.291681,8.297852 26.487746,8.111837 25.600881,7.964378 25.583788,7.970853 25.584,7.962183 25.580389,7.961129 25.583437,7.957626 25.583315,7.956176 25.585479,7.953718 25.673696,7.536639 25.667926,7.356276 25.217398,7.24649 25.434602,6.920445 25.599924,6.680669 25.101142,6.496318 24.805742,6.545859 24.868871,6.410469 24.732636,6.360117 24.796526,6.260132 24.893224,6.138051 24.926184,5.893084 25.048185,5.650652 24.654695,5.555206 24.352194,5.45689 24.477073,5.22427 24.275435,5.294766 24.261878,5.32843 24.21017,5.326139 24.211138,5.342567 23.938059,5.354704 23.91668,5.418619 23.872517,5.357617 23.847329,5.358737 23.845905,5.356683 23.816156,5.356761 23.366497,5.346185 23.340302,5.398918 23.298818,5.489822 23.202764,5.342334 23.169049,5.341541 23.16699,5.338323 23.085952,5.339247 22.703365,5.33399 22.663339,5.406054 22.606576,5.511767 22.496701,5.331152 22.47782,5.330893 22.476526,5.328689 22.367617,5.329456 22.002911,5.328018 21.957267,5.405874 21.895064,5.511742 21.786858,5.327168 21.779338,5.327138 21.778427,5.325509 21.662989,5.3247 21.315255,5.326098 21.312306,5.330893 21.297168,5.330714 21.249294,5.409369 21.18355,5.51177 21.081515,5.328159 20.986329,5.327032 20.627668,5.33277 20.621071,5.341549 20.595037,5.341429 20.551654,5.407853 20.491314,5.489818 20.417126,5.340612 20.37511,5.340419 19.947957,5.353669 19.942767,5.358737 19.917982,5.359594 19.898292,5.386706 19.873418,5.418621 19.850155,5.361636 19.534296,5.339424 19.507715,5.291114 19.349246,5.344541 19.437944,5.456858 18.900114,5.528623 18.709221,5.594433 18.86395,5.89312 18.920709,6.200739 19.05749,6.36012 18.953534,6.378648 18.984386,6.545857 18.772918,6.598821 18.38359,6.604786 18.183828,6.682456 18.287326,6.836002 18.572704,7.246494 18.251979,7.288779 18.190655,7.304987 18.206135,7.955474 18.206783,7.956249 18.20674,7.957589 18.209685,7.961165 18.206609,7.961682 18.206315,7.970814 18.196341,7.970592 18.179167,7.9664 18.153467,7.966905 17.498242,8.033015 17.284756,8.077752 17.586329,8.351945 17.88484,8.634557 17.380794,8.737672 17.147289,8.800365 17.126427,8.933924 17.145596,8.951883 17.592196,9.387266 17.213134,9.472047 17.044221,9.512715 17.042411,9.526231 17.033878,9.528071 16.968935,9.907852 17.183311,10.158868 16.990543,10.186647 16.930534,10.194568 16.899526,10.473313 16.626103,10.331817 16.529121,10.271794 16.34074,10.306766 16.191076,10.329417 16.161788,10.611166 16.270607,10.999794 15.971604,11.036985 15.89443,11.043105 15.859037,11.195087 15.741635,11.106921 15.681638,11.059981 15.501316,11.074281 15.479597,11.056314 15.256514,11.065224 14.917835,11.083782 14.782137,11.551054 14.456118,11.275861 14.282635,11.118587 13.92079,11.138414 13.802353,11.600391 13.72911,11.889311 13.357419,11.593238 13.092815,11.827755 12.765801,12.284714 12.718285,12.286838 12.714109,12.302858 12.695165,12.290592 12.692846,12.290881 12.692434,12.290583 11.979315,12.389452 11.805601,12.420195 11.739173,12.669363 11.613413,12.586213 11.473361,12.478993 11.44184,12.484571 11.438957,12.482366 11.232791,12.518285 11.028896,12.558907 11.009261,12.615006 10.973287,12.613406 10.826262,12.953476 10.651477,12.805379 10.50344,12.663592 10.502947,12.66369 10.494686,12.655208 10.428628,12.591938 10.348504,12.591425 9.894698,13.02922 9.75705,12.786431 9.645813,12.586925 9.630304,12.586826 9.602367,12.508689 9.078736,12.720393 9.067645,12.431406 9.054482,12.168535 9.011219,12.145628 8.5361,12.244067 8.600951,11.967033 8.648106,11.752205 8.316809,11.874064 8.316625,11.876045 8.315387,11.874587 8.245577,11.900265 8.26331,11.813033 8.185688,11.782227 8.144249,11.849055 8.037982,11.955457 8.06432,12.087605 8.029223,12.069969 7.976296,12.057077 7.813645,12.405455 7.762257,12.440356 7.771424,12.458339 7.742998,12.458742 7.726008,12.483177 7.467646,12.851171 7.50811,12.908495 7.529514,12.938457 7.411713,12.968011 7.371125,13.071882 7.272321,13.406208 7.280491,13.414944 7.27922,13.419959 7.343891,13.484796 7.372084,13.51459 7.239834,13.575365 7.205333,13.711495 7.138063,14.102226 7.157957,14.118856 7.156779,14.123875 7.244449,14.193494 7.283793,14.225466 7.107801,14.332622 7.048768,14.584215 6.976092,14.900972 7.169859,15.051103 7.251468,15.106452 6.871127,15.358462 6.867158,15.375761 6.761577,15.444279 6.615635,15.735 7.028306,16.118813 7.215387,16.193887 6.684908,16.51842 6.259878,16.790268 6.410165,17.048503 6.571981,17.251519 7.050142,17.679052 6.967174,17.716031 6.879652,17.769071 6.986294,17.9326 6.731427,18.092109 5.945036,18.501455 6.412388,19.289418 6.540778,19.432768 6.183898,19.610427 6.208528,19.858786 6.121264,20.594121 6.009808,20.71972 5.911107,20.779988 6.008034,20.878638 5.956319,20.893322 5.830615,20.952343 5.378308,21.702645 5.001824,21.945432 5.081596,22.069284 4.96141,22.257294 5.362399,22.599616 5.160586,22.660668 4.04705,23.258134 3.513667,22.664862 3.301948,22.26392 3.72235,22.021132 4.210287,21.847002 4.225616,21.664476 4.480472,21.502087 4.492112,21.22438 4.28802,20.938654 4.021596,20.412508 4.255,20.297949 4.534465,20.213926 4.538494,20.11781 4.62559,20.068687 4.513879,19.194638 4.720152,19.053262 4.692375,19.00542 4.692736,19.005252 4.653471,18.938521 4.619935,18.898212 5.219104,18.603675 5.653914,18.400819 5.379751,17.822648 5.03985,17.549294 5.144925,17.50004 5.200192,17.464546 5.093232,17.336876 5.222963,17.258516 6.146992,16.800107 5.445125,16.254894 5.228877,16.118776 5.867968,15.657797 5.91019,15.632137 5.885054,15.545659 5.381611,15.155626 5.253823,15.069584 5.688406,14.750048 5.659553,14.473147 5.651195,14.397597 5.375598,14.154986 5.289624,14.085275 5.635764,13.8764 5.64088,13.671142 5.653116,13.399048 5.472611,13.195342 5.413741,13.133627 5.670058,13.022242 5.670365,13.015408 5.715857,12.993278 5.743715,12.851764 5.825571,12.463827 5.807179,12.435608 5.807554,12.43471 5.707123,12.277109 5.669747,12.224293 5.886996,12.172712 5.888739,12.16445 5.924671,12.154352 5.96273,12.063246 6.175214,11.587107 6.161215,11.549209 6.168296,11.539251 6.119472,11.419059 6.098111,11.375015 6.291256,11.366331 6.331256,11.310077 6.706278,10.809681 6.701854,10.767926 6.714487,10.757399 6.699116,10.675601 6.690329,10.64047 6.828372,10.662498 6.853818,10.641293 7.457664,10.188768 7.468668,10.139091 7.482262,10.135546 7.489331,10.076645 7.490517,10.045905 7.60916,10.102352 8.395284,10.011845 8.458036,9.938569 8.472494,9.945609 8.564177,9.850554 8.567452,9.804653 8.754931,10.084578 9.230488,10.328141 9.41557,10.272267 9.460073,10.228284 9.446127,10.473052 9.4959,10.524073 9.706646,10.76474 9.843273,10.733864 9.914482,10.685091 9.854428,10.928844 9.961498,11.034371 10.05689,10.988016 10.156221,10.892779 10.146762,11.022848 10.255279,10.921794 10.336385,11.124005 10.505334,10.898731 10.763724,11.155684 10.97527,11.106263 11.047904,10.874114 11.125855,10.700728 11.509955,10.983713 11.860346,10.91372 11.958963,10.581848 12.038082,10.335536 12.265008,10.499195 12.716241,10.809766 12.829418,10.795188 13.008222,10.28845 13.115962,9.927429 13.185141,9.98414 13.17962,9.908548 14.08056,9.851289 14.13086,9.675116 14.13988,9.522306 14.096398,9.490462 14.041632,9.452609 14.144714,9.435923 14.152626,9.341511 14.213517,9.426322 14.371374,9.402723 15.022938,9.313803 15.040963,9.205676 14.826477,9.074376 14.51172,8.884601 15.081064,8.763434 15.098665,8.630105 15.136307,8.156286 15.081922,8.123029 15.01232,8.076898 15.146101,8.04847 15.154488,7.919055 15.247032,8.026375 16.072199,7.846831 16.083383,7.738208 16.0616,7.691658 15.816482,7.430165 15.683263,7.156429 16.087733,7.098997 16.083685,6.837464 16.448122,7.047825 16.722708,7.008835 16.557017,6.74668 16.496316,6.345957 16.850968,6.289499 16.792368,6.082233 17.229748,6.222795 17.272358,6.165396 17.185638,6.039873 17.091454,5.585366 17.429016,5.480822 17.306506,5.26182 17.695394,5.29937 17.516976,4.763367 17.991287,4.564456 17.786999,4.182528 17.920286,4.179226 17.882932,3.954554 18.182026,3.855789 18.43747,3.812917 18.562648,3.178251 18.56274,3.178092 19.201037,3.303613 19.413753,3.126036 19.480377,3.016103 19.528224,2.989445 19.553756,2.923066 19.58941,2.955352 19.684396,2.902429" slic3r:type="contour"/>
    <polygon style="fill: white" points="39.989755,23.512929 39.995836,23.521946 39.985241,23.540958 39.978672,23.503052" slic3r:type="contour"/>
    <polygon style="fill: white" points="40.000994,23.631858 40.00948,23.63672 40.033364,23.776289 40.030497,23.884035 40.969708,24.419664 41.325992,24.572758 40.855075,24.956626 40.805818,25.032598 40.991496,25.335746 40.826456,25.599142 41.446544,26.003862 42.135515,27.058621 42.167895,27.319674 42.159751,27.420342 42.182484,27.435028 42.183234,27.461431 42.264868,27.503168 42.234615,27.529618 42.187123,27.598232 42.227968,29.035342 42.030917,30.043434 42.23642,30.194894 42.217848,30.411726 42.462892,30.605031 43.060464,30.967199 42.725899,31.249852 42.216408,31.93592 41.545232,31.54818 41.034096,31.060764 41.167312,30.842373 41.546627,30.479618 41.469708,30.399258 41.670617,30.029498 41.219403,29.576398 40.597004,29.155868 40.728416,28.087234 40.61392,27.990619 40.613038,27.920834 40.357836,27.805364 40.168935,27.656266 40.485443,27.036104 40.600392,26.920801 40.585344,25.730749 40.39558,25.590489 40.374143,25.416929 39.708547,25.160137 39.21666,24.79931 39.371376,24.467502 39.946675,23.877087 39.783644,23.740939 39.850136,23.612519 39.892952,23.56996" slic3r:type="contour"/>
    <polygon style="fill: white" points="42.981796,33.456914 43.591736,34.576796 43.565424,34.703239 43.519885,34.802492 43.540452,34.82152 43.532575,34.843431 43.62062,34.9097 43.58306,34.939004 43.442983,35.092624 43.108268,36.023612 42.723256,36.637368 41.713076,35.25106 41.63892,35.175428 41.724157,35.021039 41.709196,35.004144 41.714469,34.987909 41.652143,34.944691 41.616292,34.9054 41.851322,34.566514 42.403136,32.867388" slic3r:type="contour"/>
    <polygon style="fill: white" points="43.4603,38.850448 43.721932,39.088256 43.131368,39.521439 43.211408,39.675364 43.161413,39.721051 43.49652,40.129512 43.678168,40.42238 43.228715,41.097852 42.609652,41.807988 42.041988,40.94664 41.679712,40.503168 42.343921,39.713587 42.299444,39.657832 42.344678,39.579139 41.92828,39.211895 41.73076,38.95836 42.162732,38.497523 42.728876,38.046764" slic3r:type="contour"/>
    <polygon style="fill: white" points="43.102912,42.858324 43.497404,43.289616 42.939931,43.679196 42.543687,44.003096 42.603428,44.102116 42.551647,44.143429 43.0496,44.784756 43.318468,45.16716 42.942367,45.568996 42.319931,46.17473 42.369784,46.23792 42.333649,46.273933 42.656591,46.667951 43.089552,47.194116 42.570908,47.541075 42.061925,47.89463 42.072648,47.910108 42.04093,47.932892 42.535555,48.591895 42.836964,49.001036 42.5278,49.249495 42.054305,49.652816 42.205964,49.850392 42.60602,50.393768 42.063895,50.729016 41.892754,50.830938 42.109268,51.104952 42.374128,51.538128 42.118352,51.65906 41.739733,51.938227 41.731472,52.030064 41.6447,52.505062 42.025263,53.016708 41.892279,53.057464 41.570432,53.166275 41.384399,54.54238 41.360005,54.690879 41.394092,54.752976 41.351613,54.760668 41.324164,54.873708 40.223063,55.813934 40.346915,56.228359 40.397456,56.367772 39.62364,56.325779 39.468528,56.458228 39.240554,56.45675 38.874237,56.6574 38.94794,57.54296 38.991628,57.861868 38.389408,57.69826 37.807856,57.575904 37.704236,56.6878 37.679668,56.374352 38.331739,56.507839 38.792191,56.621386 39.063581,55.958113 38.850475,55.312551 38.809255,55.174776 39.302563,55.176304 39.388447,54.800596 39.601652,53.890651 39.607248,53.889572 40.136996,53.151447 40.370496,52.778711 40.119084,52.457012 40.245264,52.411543 40.659883,52.257453 40.803256,51.804779 40.414651,51.177091 40.738703,51.001128 41.196426,50.705218 40.926927,50.315471 40.66294,49.954548 40.938087,49.801904 41.374197,49.547593 40.853532,48.799984 41.294951,48.450132 41.953288,47.909832 41.423236,47.25934 41.124192,46.861052 41.4399,46.639455 42.118916,46.191657 41.793615,45.711371 41.324136,45.089488 41.882936,44.556479 42.342075,44.082405 42.33962,44.079163 42.37414,44.038682 41.79384,43.415616 41.519264,43.043356 41.883292,42.731979 42.577927,42.231088" slic3r:type="contour"/>
    <polygon style="fill: white" points="36.591132,57.637972 37.249028,57.922328 37.188564,58.655127 37.173007,59.151252 36.749432,58.95034 36.04524,58.66294 36.083628,57.949367 36.130996,57.462848" slic3r:type="contour"/>
    <polygon style="fill: white" points="34.550899,58.600735 35.302312,59.031964 35.194224,59.593295 35.101431,60.247716 34.833039,60.079799 34.02698,59.633636 34.115156,59.096979 34.255083,58.450408" slic3r:type="contour"/>
    <polygon style="fill: white" points="32.338997,59.420911 33.166834,59.986028 33.153713,60.035075 33.239601,60.018308 33.239602,60.018308 33.239295,60.018521 33.19205,60.19306 33.095547,60.252511 33.058271,60.391852 32.886318,61.184836 32.746118,61.081188 32.264208,60.762612 30.746408,61.672848 30.731452,61.71826 30.699917,61.735487 30.63332,61.983592 30.597893,61.954455 30.470972,61.860557 29.742858,62.258316 28.533996,62.356257 28.452205,62.567608 28.43003,62.631928 28.163527,62.386272 28.093918,62.391912 28.058026,62.362525 26.54869,62.457709 26.310521,62.97194 26.246592,63.118924 25.661535,62.504475 25.513792,62.512128 25.448565,62.450592 24.60547,62.48049 24.180295,63.238916 24.071824,63.434352 23.569685,62.818315 23.285594,62.493456 23.760248,61.639951 23.87106,61.457344 24.391048,62.032476 24.634115,62.313574 25.461579,62.083883 25.806536,61.302352 25.875452,61.16654 26.451147,61.689957 27.23856,61.360191 27.771085,61.106134 27.780093,61.084448 27.786647,61.081009 27.899969,60.764332 27.923138,60.709912 28.152765,60.888869 28.421776,60.747692 29.01013,60.400436 29.649845,60.368716 29.936263,60.337736 30.026451,60.08674 30.07241,60.117616 30.350917,60.330375 30.99311,60.280219 31.935599,60.146471 31.94346,60.113691 32.179884,59.325112" slic3r:type="contour"/>
    <polygon style="fill: white" points="22.318848,62.160276 22.591788,62.537615 22.039856,63.345275 21.895064,63.548648 21.457201,62.903287 21.198328,62.537632 21.757652,61.750735 21.895064,61.56156" slic3r:type="contour"/>
  </g></svg>