<svg width="43.790126" height="63.590156" xmlns="http://www.w3.org/2000/svg" xmlns:svg="http://www.w3.org/2000/svg" xmlns:xlink="http://www.w3.org/1999/xlink" xmlns:slic3r="http://slic3r.org/namespaces/slic3r"><g xmlns="http://www.w3.org/2000/svg" slic3r:z="7.925e-006" id="layer23">
    <polygon style="fill: white" points="12.593179,49.151511 12.53542,50.368949 12.613442,50.439264 12.610255,50.513288 12.560085,50.541 11.640769,50.958982 12.464926,51.270196 12.901115,51.034033 12.884699,50.68618 13.499982,50.267939 14.011875,49.860052 14.017746,50.074283 14.105465,51.322035 14.179829,51.372248 14.184735,51.439832 14.139175,51.473183 13.605631,51.81612 13.908813,51.9609 14.518819,51.920166 14.464541,51.564968 15.025763,51.07494 15.504867,50.592616 15.527087,50.754132 15.762071,52.084621 15.810661,52.106892 15.832215,52.11794 15.835918,52.138656 15.822125,52.151408 15.199933,52.672535 16.08849,53.213092 16.413147,53.324978 16.276536,52.895843 16.103771,52.219576 16.59177,51.690968 17.054794,51.12992 17.07109,51.198784 17.456258,52.60532 16.723473,53.431927 16.737209,53.43666 16.62871,53.549698 16.997427,53.768848 16.536343,53.645927 16.520532,53.6624 16.512918,53.638157 14.886152,53.025863 14.80976,52.999332 14.750025,53.049364 14.741763,53.011964 14.735831,52.973656 14.732777,52.972595 14.73031,52.961599 13.158579,52.188608 13.081301,52.153134 13.017385,52.194216 13.013047,52.15806 13.011227,52.120965 13.008216,52.119583 13.006737,52.107333 11.418337,51.086055 11.393847,51.071248 11.371794,51.081276 11.371442,51.057704 11.371427,51.057695 11.371376,51.053186 10.96534,50.70806 11.245849,50.790876 11.366656,50.642472 11.362314,50.264663 11.411648,49.572568 12.063256,49.25214 12.615321,48.921368" slic3r:type="contour"/>
    <polygon style="fill: white" points="11.299218,47.984944 11.081624,49.1986 11.120321,49.239519 11.160688,49.289412 11.151286,49.344384 11.114004,49.358616 10.551265,49.509784 10.579102,49.443347 9.906696,49.685644 9.862788,49.696752 9.944979,48.923339 10.090868,48.215119 10.75815,48.0103 11.35122,47.765912" slic3r:type="contour"/>
    <polygon style="fill: white" points="10.173966,46.572716 9.779521,47.773351 9.839674,47.860459 9.855209,47.888 9.847489,47.912552 9.830853,47.916152 9.680146,47.92828 9.704112,47.824449 8.655171,48.020563 8.539877,48.027852 8.706699,47.319499 8.964243,46.606628 9.625101,46.525903 10.251389,46.380124" slic3r:type="contour"/>
    <polygon style="fill: white" points="8.396849,44.641708 8.460099,44.764229 8.694271,44.776064 9.338327,44.730096 9.246202,44.889963 8.678606,46.065492 7.640494,46.09706 7.457916,46.076932 7.689749,45.444492 8.037815,44.788024 7.977153,44.697267 7.995879,44.650244 8.014268,44.615748" slic3r:type="contour"/>
    <polygon style="fill: white" points="8.806674,23.411631 9.245833,23.69201 8.91725,23.876028 8.260419,24.379886 8.769157,24.798789 9.073253,25.156272 8.516835,25.421528 8.05474,25.612287 8.212128,25.837497 8.231421,25.996478 8.518129,26.315734 8.609798,26.458466 8.301874,26.577042 8.318419,26.71338 8.402105,27.005294 8.035449,27.02297 7.638255,27.190225 7.70196,27.25544 8.123448,27.768989 7.726768,27.951352 7.110986,28.176946 7.243845,28.867393 7.259192,28.878088 7.26655,28.928449 7.57223,29.200988 7.737706,29.344668 7.358087,29.555004 7.423628,30.003624 7.532252,31.174722 7.480514,31.225843 7.392375,31.305626 7.506504,31.361768 7.463611,31.391682 7.364626,31.464062 7.076132,32.500562 6.706331,33.159218 6.830014,33.241158 6.830376,33.466376 7.389006,33.68478 7.184848,33.837884 6.831449,34.132505 6.831662,34.264688 6.525803,35.504241 6.79051,35.655948 6.822439,35.886333 6.862795,35.906483 7.442952,36.09544 7.252611,36.249635 6.916458,36.564741 6.945108,36.771468 6.826091,38.053243 7.09837,38.180628 7.129401,38.343628 7.658981,38.484616 7.525475,38.605452 7.237934,38.913735 7.331749,39.406528 7.224575,40.427229 7.470804,40.513224 7.50653,40.650103 8.043235,40.744352 7.93467,40.861487 7.654808,41.218214 7.755401,41.603624 7.623983,42.599307 7.910107,42.661567 7.959854,42.79834 8.60219,42.83902 8.503019,42.971172 8.197773,43.452464 8.209089,43.483576 8.044773,44.348671 7.864686,43.977656 7.805315,44.071268 6.836497,43.975707 6.610706,43.917016 6.885703,43.352248 7.283155,42.779582 7.235646,42.681703 7.282171,42.594984 7.324963,42.53424 7.402963,42.551212 7.174938,41.886072 6.214493,41.689915 5.978683,41.597424 6.287437,41.077307 6.72295,40.567638 6.688278,40.466499 6.759971,40.359236 6.839165,40.269098 6.674109,39.534911 5.747479,39.26878 5.543017,39.16404 5.890982,38.653008 6.36953,38.180113 6.345705,38.074135 6.428519,37.969188 6.509759,37.89242 6.425002,37.203993 6.381412,37.193584 6.004865,36.997516 6.016402,36.953503 5.405367,36.733835 5.281568,36.657428 5.691252,36.113808 6.233645,35.649729 6.219053,35.531208 6.289087,35.453011 6.364314,35.392467 6.316424,34.74487 6.181371,34.704247 5.647589,34.384919 5.658664,34.369794 5.268234,34.198819 5.183353,34.138672 5.634333,33.603804 6.200099,33.171877 6.191936,33.061484 6.291736,32.963054 6.242324,32.243157 6.166819,32.190595 5.442782,31.787183 5.267112,31.648462 5.670503,31.244244 6.151235,30.916095 6.146158,30.842134 6.168413,30.823525 6.034637,29.657186 6.009678,29.637732 5.578171,29.276963 5.755811,29.142338 5.925068,29.041577 5.796829,28.453478 6.249975,28.280384 6.699056,28.085862 6.24293,27.54323 6.051965,27.360525 6.529922,27.169392 7.077651,26.924498 7.008159,26.506398 6.913525,26.371898 6.883806,26.202649 6.568092,25.891906 6.690943,25.86388 6.815372,25.812898 6.742844,25.399839 7.234552,25.191382 7.382105,25.156315 7.121907,24.881159 6.97795,24.73947 7.613443,24.594602 8.1899,24.348965 7.431392,23.91112 7.116295,23.713116 7.631958,23.449106 8.205862,23.035883" slic3r:type="contour"/>
    <polygon style="fill: white" points="7.724857,19.549817 7.815341,19.49418 8.267864,19.9235 8.752629,20.220034 8.667866,20.262588 8.518641,20.37416 8.766999,20.643369 8.305907,21.70229 8.692978,21.932554 8.974692,22.031198 8.572452,22.302026 8.12007,22.78664 7.062478,22.330784 6.91037,22.257978 7.261911,21.953123 7.054879,21.741313 6.806034,21.486598 7.043553,20.937909 7.188196,20.516512 6.752996,20.146812 6.990479,20.001368 7.46521,19.709468 7.523463,19.539754 7.585434,19.48616 7.605205,19.468656" slic3r:type="contour"/>
    <polygon style="fill: white" points="21.93235,0.533827 22.01353,0.646871 22.909376,0.690929 23.059534,0.698056 23.18987,0.558842 23.217833,0.610427 23.279971,0.723696 24.220609,0.88877 24.348882,0.910658 24.480908,0.804902 24.499541,0.8528 24.542084,0.962985 25.477335,1.281455 25.59881,1.321341 25.752742,1.233064 25.765722,1.285652 25.787567,1.381395 25.796613,1.41604 26.602185,1.866305 26.750212,1.945109 26.988156,1.85581 26.99687,1.934776 27.007492,2.082076 27.011986,2.084468 27.020853,2.153635 27.546443,2.605168 27.752425,2.771489 28.166204,2.683636 28.163626,2.822695 28.14177,3.085867 28.158008,3.098978 28.158064,3.242053 28.336072,3.455109 28.645745,3.792613 28.69594,3.784354 29.293608,3.735962 29.263404,3.953802 29.172291,4.366485 29.201574,4.3984 29.176751,4.600585 29.50544,5.037393 29.877965,5.014535 30.386632,5.025863 30.315664,5.32066 30.131578,5.869493 30.170122,5.920714 30.123247,6.125572 30.388006,6.512803 31.038767,6.523361 31.472648,6.569141 31.360816,6.920153 31.09373,7.544977 31.138368,7.610263 31.103873,7.721363 31.074524,7.79247 31.325277,8.159958 31.427195,8.168595 31.58878,8.196918 31.622329,8.276131 32.191742,8.320987 32.587004,8.391098 32.45214,8.760653 32.148763,9.366811 32.199478,9.441136 32.160907,9.547716 32.230225,9.711375 32.541756,10.120327 32.706819,10.1587 32.726893,10.234814 33.273336,10.309513 33.711268,10.416945 33.593924,10.723446 33.34514,11.174943 33.39232,11.236878 33.3442,11.35926 34.364538,12.485323 34.846035,12.636973 34.805563,12.744478 34.72537,12.883544 34.743464,12.903512 34.731196,12.932798 35.152172,13.296836 35.178359,14.813182 35.688259,14.978503 35.945168,15.077646 35.732719,15.534217 35.369758,16.090224 36.322859,17.002101 36.664772,17.318024 36.582483,17.616101 36.700323,17.675619 36.769516,17.710422 36.454979,18.077967 36.400192,18.276424 36.055683,18.763876 35.957224,18.963826 35.504715,18.468991 34.936624,18.199019 34.827612,18.134602 34.972658,17.966489 34.849744,17.853355 34.72692,17.757772 34.979984,17.14023 35.181604,16.121563 34.374991,15.853582 34.075616,15.762661 34.320375,15.365912 34.38878,15.225781 33.963784,14.90737 33.497806,14.467672 33.461342,13.954654 33.455815,13.593891 33.442553,13.590547 33.414392,13.499263 33.019662,13.440356 33.134549,13.2402 33.255997,12.985837 33.129222,12.574907 32.912181,11.561378 32.865262,11.552539 32.804668,11.429638 32.335258,11.335819 31.922152,11.300014 32.135564,10.92981 32.345228,10.475029 32.291978,10.404446 32.331894,10.314937 32.10962,9.744141 31.901499,9.470345 31.205493,9.372508 30.846152,9.360934 31.059008,8.966203 31.248664,8.522487 31.20252,8.441745 31.259853,8.307324 30.958312,7.768559 30.919375,7.76633 30.845281,7.680205 30.207102,7.634547 29.798654,7.646113 29.964891,7.293991 30.157626,6.775464 29.770673,6.253594 29.75267,6.254089 29.666516,6.178189 29.29807,6.183046 28.807698,6.23665 28.914752,5.955307 29.025023,5.575037 28.508595,5.047985 28.502173,5.04886 28.409162,4.988063 27.851214,5.108025 27.902368,4.918697 27.945538,4.685014 27.636982,4.483325 27.22291,4.164262 27.176465,4.14172 26.911812,4.23327 26.924432,4.141974 26.931595,4.022869 26.027304,3.58396 25.990216,3.562175 25.9674,3.573507 25.967127,3.553637 25.793836,3.486524 25.057427,3.035593 25.020671,3.059258 24.990292,3.079795 24.973733,2.990027 24.865778,2.954417 24.070925,2.661732 24.019531,2.70654 23.981536,2.740496 23.940511,2.622353 23.797307,2.597685 23.026433,2.454157 22.979446,2.507737 22.947428,2.5448 22.892128,2.437064 22.75448,2.4304 21.958048,2.390035 21.919868,2.445964 21.895064,2.482921 21.831197,2.389779 21.698762,2.396194 20.898161,2.436655 20.86494,2.501392 20.842698,2.544774 20.761448,2.4525 20.615789,2.47763 19.851547,2.619852 19.826032,2.692579 19.808588,2.7405 19.713518,2.658177 19.571556,2.70505 18.819231,2.98464 18.807892,3.043461 18.799834,3.079795 18.724995,3.032282 18.635766,3.079767 17.996287,3.486524 17.82521,3.547956 17.822726,3.573507 17.797957,3.563313 17.797711,3.563428 17.792491,3.561168 17.078352,3.857366 16.869354,3.983015 16.878312,4.23327 16.779356,4.209977 16.590658,4.150567 16.570658,4.162591 16.498921,4.144163 16.264305,4.275615 15.857839,4.597486 15.938936,5.108021 15.72325,5.087595 15.329467,5.015891 15.287864,5.048834 15.204219,5.039223 14.767494,5.493925 14.84766,5.723392 14.982428,6.236651 14.654351,6.242003 14.090542,6.198741 14.037425,6.254045 13.985441,6.253887 13.631619,6.73396 13.854508,7.24417 13.991475,7.64611 13.577756,7.690072 12.924965,7.692763 12.870745,7.76633 12.823633,7.770389 12.52944,8.287914 12.587608,8.441739 12.548173,8.497167 12.81537,9.031408 12.943975,9.360917 12.489474,9.444667 11.847975,9.486708 11.797107,9.576189 11.778335,9.579211 11.68585,9.709204 11.450348,10.27968 11.498124,10.404466 11.453807,10.452329 11.724192,10.955044 11.86798,11.299977 11.468779,11.40137 10.962437,11.461588 10.924875,11.552577 10.84662,11.570289 10.522964,12.880549 10.554225,12.937794 10.770465,13.44035 10.582643,13.500704 10.360034,13.540135 10.347581,13.59055 10.32036,13.598369 10.292306,14.467674 9.386423,15.183666 9.485453,15.400493 9.601169,15.587098 9.71449,15.762663 9.218933,15.935801 8.624275,16.11982 8.924801,17.159708 9.063172,17.757817 8.81233,17.983595 8.901775,18.084105 8.962491,18.134596 8.485406,18.333697 7.832899,18.96384 7.529,18.482936 7.514362,18.447281 7.389912,18.276353 7.314327,18.034133 7.079695,17.770711 7.020615,17.710422 7.187059,17.626293 7.148747,17.503519 7.125357,17.318024 7.774966,16.665773 8.423627,16.079283 8.022221,15.328125 7.844981,15.077648 8.445712,14.88762 8.519604,14.86109 8.494351,14.277484 8.637965,13.296814 8.879279,13.040302 9.037783,12.914952 9.084559,12.854604 8.944093,12.636944 9.080022,12.61168 9.322824,12.547198 9.81498,11.912229 10.428439,11.305394 10.397857,11.236956 10.464257,11.136197 10.320199,10.808704 10.078841,10.416964 10.438355,10.375759 11.048121,10.253862 11.083232,10.1587 11.204256,10.135492 11.555177,9.69873 11.624686,9.525356 11.59065,9.441136 11.645959,9.349252 11.397063,8.741193 11.203123,8.391113 11.608249,8.369301 12.151317,8.293983 12.201348,8.196924 12.452243,8.161861 12.712223,7.786006 12.651759,7.610263 12.701643,7.528944 12.498997,6.956024 12.317478,6.569141 12.68096,6.57288 13.373247,6.522403 13.66485,6.094021 13.619967,5.920677 13.671579,5.845692 13.574114,5.486464 13.403507,5.025841 13.694103,5.051753 14.235332,5.055245 14.611342,4.550093 14.588519,4.398459 14.642454,4.3355 14.635529,4.293725 14.49652,3.735967 14.701544,3.775992 15.086181,3.817541 15.226077,3.65424 15.634609,3.204678 15.632118,3.098979 15.664119,3.071841 15.623922,2.683631 15.749298,2.725098 16.002005,2.78531 16.545661,2.324281 16.771829,2.140707 16.778168,2.084437 16.788337,2.078781 16.802,1.855783 16.870557,1.889514 17.020723,1.949513 17.853781,1.486115 17.995078,1.410789 18.00201,1.383496 18.003957,1.382833 18.037384,1.233065 18.081589,1.26246 18.182316,1.32213 19.122937,1.001994 19.249252,0.960534 19.309222,0.804895 19.34788,0.838333 19.436624,0.910596 20.370576,0.7465 20.510076,0.722718 20.600256,0.558836 20.639666,0.602425 20.728317,0.69782 21.620245,0.653889 21.776094,0.646497 21.895064,0.481322" slic3r:type="contour"/>
    <polygon style="fill: white" points="36.266664,19.539756 36.33015,19.712035 36.490884,19.81056 37.037128,20.146833 36.841207,20.31753 36.622045,20.504137 36.984092,21.48661 36.537295,21.943804 36.765559,22.147011 36.879755,22.257974 36.160256,22.554095 35.670075,22.786654 35.064212,22.323732 34.815412,22.0312 35.46008,21.636126 35.520073,21.610239 35.358052,21.197868 35.023124,20.64342 35.154924,20.581508 35.29051,20.42117 35.0375,20.220028 35.155224,20.105678 35.974768,19.494196 36.063659,19.548683 36.159899,19.480948 36.184924,19.468656" slic3r:type="contour"/>
    <polygon style="fill: white" points="36.363307,23.486001 36.673824,23.713116 36.125651,24.017718 35.59995,24.346089 36.581651,24.640387 36.812188,24.739494 36.351765,25.237377 36.660783,25.365363 37.047295,25.399872 36.967644,25.645508 36.950686,25.780836 37.22204,25.89191 37.128651,26.025896 36.887919,26.281725 36.876623,26.371858 36.734723,26.580306 36.693935,26.91123 37.380247,27.199971 37.738196,27.360576 37.356188,27.842657 37.121967,28.081028 37.529939,28.238899 37.993308,28.45348 37.901067,28.820274 37.851909,29.063512 38.211948,29.276958 38.037944,29.408549 37.765023,29.631547 37.725788,30.008161 37.627654,30.830126 37.643939,30.842142 37.640539,30.955691 38.261508,31.473124 38.523024,31.648424 38.09398,31.834674 37.672432,32.136889 37.685032,32.147629 37.566192,32.221444 37.50579,32.98241 37.598192,33.061484 37.594947,33.18619 38.501631,34.060711 38.606747,34.138672 38.110572,34.27417 38.142452,34.38494 37.483591,34.735623 37.430071,35.394257 37.571124,35.531232 37.565946,35.601116 37.942091,35.722783 37.903606,36.03568 38.374764,36.546368 38.508572,36.657444 38.012348,36.75364 37.800913,36.870582 37.785304,36.99748 37.378384,37.186829 37.287227,37.898527 37.444388,38.0741 37.421371,38.204497 38.048463,38.971988 38.24708,39.164036 37.780408,39.229964 37.129653,39.530688 36.957536,40.274821 37.101848,40.466492 37.065243,40.590433 37.606671,41.361099 37.811456,41.597408 37.332804,41.637908 36.622507,41.889223 36.392837,42.545073 36.465152,42.534256 36.554488,42.681756 36.504613,42.795818 37.009831,43.674307 37.179428,43.91704 36.666499,43.914084 35.984776,44.071296 35.92296,43.988538 35.745276,44.348864 35.788412,43.808406 35.552183,43.492147 35.18794,42.839048 35.320436,42.811328 35.87313,42.746983 35.879944,42.661608 36.240286,42.578314 36.282496,41.475415 36.169828,41.352948 35.746892,40.744412 35.871184,40.702979 36.315994,40.600148 36.31932,40.513256 36.681886,40.380883 36.687493,39.129027 36.590576,39.040552 36.131148,38.484616 36.265523,38.425868 36.691262,38.287309 36.69174,38.180612 37.056867,38.003257 37.026499,36.757364 36.814884,36.585344 36.347176,36.095444 36.516399,36.00692 37.003524,35.814821 36.999652,35.655964 37.304306,35.475115 37.124342,34.307072 36.895732,34.136128 36.40112,33.68478 36.558608,33.590563 36.983657,33.393978 36.960112,33.241158 37.150753,33.110856 36.469604,31.504468 36.28362,31.361768 36.310879,31.34296 36.392363,31.297467 36.257872,31.174724 36.45087,29.551398 36.226915,29.427007 36.052416,29.344676 36.514445,28.930652 36.67964,28.151501 36.166959,27.912035 35.666656,27.768994 35.847367,27.591368 36.114828,27.281041 35.977723,27.251365 35.388004,27.005276 35.463492,26.541333 35.317007,26.484855 35.180328,26.45847 35.536819,26.090671 35.578016,25.83748 35.683624,25.69821 35.70521,25.58771 35.121819,25.312221 34.716876,25.156272 35.084923,24.873232 35.536413,24.385177 34.980808,24.053586 34.544283,23.691992 34.907804,23.465259 35.5842,23.035882" slic3r:type="contour"/>
    <polygon style="fill: white" points="35.812976,44.697268 35.751813,44.796198 36.22064,45.866412 36.33222,46.0769 35.775216,46.006551 35.111632,46.06556 34.739431,45.419571 34.451803,44.730128 34.602327,44.720836 35.38094,44.736853 35.39328,44.641716 35.722247,44.615884 35.77586,44.615748" slic3r:type="contour"/>
    <polygon style="fill: white" points="33.708099,46.399595 34.825904,46.606636 35.199564,47.886536 35.250252,48.027851 34.653956,47.861544 34.127306,47.8208 34.109952,47.928279 33.942608,47.912552 33.938404,47.901856 33.934888,47.887999 34.009217,47.777324 33.73406,47.096364 33.538738,46.380124" slic3r:type="contour"/>
    <polygon style="fill: white" points="32.618145,47.820167 33.699256,48.215096 33.915916,49.640372 33.927336,49.696724 33.310229,49.420495 33.246112,49.403766 33.238867,49.509772 32.63884,49.344384 32.633106,49.319683 32.629438,49.289412 32.70623,49.206653 32.534531,48.493231 32.4389,47.765892" slic3r:type="contour"/>
    <polygon style="fill: white" points="31.351591,49.007967 32.378484,49.57258 32.390676,50.022805 32.656244,50.074212 32.82479,50.708048 32.438172,51.038819 32.418609,51.054354 32.418699,51.057696 32.416904,51.058855 32.418334,51.081276 32.400201,51.069634 30.852362,52.068551 30.782695,52.110448 30.781908,52.119583 30.776544,52.122222 30.772742,52.194215 30.747301,52.173371 30.71489,52.152552 29.138804,52.927875 29.058902,52.964442 29.057348,52.972596 29.05193,52.974626 29.040102,53.049368 29.015474,53.024336 28.985658,52.999453 27.302094,53.630167 27.277018,53.638877 27.276414,53.640975 27.275127,53.641315 27.269622,53.662403 27.256536,53.646232 26.793566,53.768664 26.991829,53.585584 27.139801,53.526645 27.053166,53.436904 27.07263,53.41831 26.803709,53.085216 26.333882,52.605328 26.50217,51.883952 26.735334,51.129952 26.781148,51.179736 27.686324,52.219412 27.483107,52.924164 27.548478,52.963751 27.678478,52.839567 28.46734,52.566888 27.954208,52.138652 27.955588,52.128747 27.957911,52.11794 28.026841,52.086196 28.12849,51.326807 28.285284,50.592592 28.397773,50.691063 29.325602,51.564868 29.290587,51.748611 29.934061,51.650972 29.605386,51.43984 29.606304,51.40804 29.610288,51.372292 29.681014,51.329381 29.69848,50.58728 29.778252,49.860052 29.93424,49.9661 30.90541,50.686152 30.892596,50.834876 31.725357,50.85016 31.743357,50.771022 31.17987,50.513316 31.17668,50.479183 31.176684,50.439291 31.251242,50.379467 31.178219,49.649127 31.174806,48.921363" slic3r:type="contour"/>
    <polygon style="fill: white" points="25.29159,51.679022 25.452188,51.886747 25.440632,51.894099 26.008786,52.671504 25.500554,54.005475 25.480136,54.062292 25.079907,53.478263 24.62352,52.912256 24.832564,52.280996 24.173946,52.700056 24.310094,52.91248 24.319596,52.927408 24.310796,52.946055 24.308094,52.946208 23.742553,54.155068 23.68539,54.279272 23.336992,53.696668 22.882004,53.019452 22.6141,53.033188 21.980156,54.190743 21.895064,54.342508 21.578533,53.750207 21.175482,53.032869 20.90694,53.019124 20.180936,54.165311 20.104738,54.279271 19.803099,53.644859 19.482005,52.946193 19.47933,52.946056 19.474403,52.935819 19.47053,52.927408 19.582681,52.752489 19.013977,52.495643 19.166578,52.912388 18.347098,54.015987 18.30999,54.062284 18.028874,53.36398 17.781324,52.671504 18.19249,52.129447 18.350662,51.905531 18.338176,51.886427 18.444487,51.749178 18.188484,51.613816 18.151872,51.377968 18.628105,51.512855 18.644572,51.490123 18.654481,51.520067 18.697376,51.526528 20.204731,51.782299 20.233862,51.736863 20.261618,51.69302 20.306094,51.7967 20.454034,51.804192 21.825915,51.882234 21.861352,51.815195 21.895064,51.75476 21.963069,51.883217 22.140166,51.874267 23.48129,51.797557 23.50539,51.741179 23.528508,51.69302 23.586965,51.784226 23.712698,51.765375 25.133216,51.521133 25.145552,51.490128 25.163571,51.513435 25.197003,51.505044 25.638837,51.377848" slic3r:type="contour"/>
  </g></svg>