<svg width="43.790126" height="63.590156" xmlns="http://www.w3.org/2000/svg" xmlns:svg="http://www.w3.org/2000/svg" xmlns:xlink="http://www.w3.org/1999/xlink" xmlns:slic3r="http://slic3r.org/namespaces/slic3r"><g xmlns="http://www.w3.org/2000/svg" slic3r:z="3.30049999999999e-005" id="layer99">
    <polygon style="fill: white" points="30.472178,59.693348 31.076574,60.157396 30.900057,60.741464 30.741288,61.38736 30.477262,61.170016 29.746181,60.628247 29.911539,60.019656 30.106694,59.443084" slic3r:type="contour"/>
    <polygon style="fill: white" points="32.838593,58.936655 33.322724,59.27064 33.129108,60.034703 33.034772,60.516296 32.617024,60.20852 32.015852,59.810836 32.19342,58.998695 32.303396,58.611892" slic3r:type="contour"/>
    <polygon style="fill: white" points="38.230304,55.313204 39.09144,55.516168 39.147152,56.016172 39.258528,56.829312 39.097895,56.792947 38.380332,56.640479 38.373928,56.69524 38.36587,56.693261 38.280007,56.9928 38.006404,57.863568 37.428624,58.062096 37.415628,58.235908 37.413868,58.309104 37.112698,58.170651 37.04144,58.195136 36.970825,58.166824 35.459271,58.508154 35.332679,59.2081 35.296248,59.497864 34.684811,59.119735 34.240012,58.87282 34.394095,57.817228 34.426484,57.659892 35.139885,58.021556 35.405075,57.496904 35.59578,57.00682 36.034279,56.92988 36.323994,56.857214 36.342316,56.548952 36.427311,56.580091 36.813519,56.75052 37.079696,56.673727 38.032542,56.316451 38.000151,56.100127 37.910356,55.25458" slic3r:type="contour"/>
    <polygon style="fill: white" points="40.508827,54.524691 40.675848,55.062808 40.265372,55.062632 39.46534,55.064168 39.216051,54.313775 39.063284,53.809659 39.645791,53.794484 40.29178,53.794208" slic3r:type="contour"/>
    <polygon style="fill: white" points="42.046576,50.056256 42.437512,50.747607 42.269812,50.835235 41.85201,51.041721 41.886624,51.096296 41.829911,51.119812 42.139404,51.791544 41.374938,52.396454 41.605012,52.864208 41.710744,53.081192 41.03038,53.233836 40.514336,53.343996 39.978515,52.294279 39.915168,52.168888 40.309591,52.081079 40.192371,51.831727 40.099912,51.608988 40.524456,51.256083 40.996536,50.850327 40.534391,50.077792 40.852984,49.931695 41.702396,49.495928" slic3r:type="contour"/>
    <polygon style="fill: white" points="42.934443,47.169855 43.048895,47.3034 42.795032,47.489088 42.807104,47.511312 42.801988,47.515632 42.918511,47.676903 42.983816,47.777352 42.312532,48.251559 41.847872,48.584496 41.074964,47.390204 41.037464,47.333291 41.145198,47.265289 41.087695,47.201119 41.0606,47.164424 41.702676,46.615719 42.169296,46.253784" slic3r:type="contour"/>
    <polygon style="fill: white" points="42.898192,42.36282 42.962102,42.506603 43.420708,43.004304 43.507492,43.088256 43.290356,43.2451 43.309088,43.287244 43.298467,43.296578 43.405912,43.450472 43.46732,43.555752 42.825252,44.236863 42.354348,44.670044 41.543772,43.280556 41.500752,43.214972 41.607531,43.122363 41.540648,43.061552 41.516536,43.031484 42.133745,42.442986 42.594668,41.857036" slic3r:type="contour"/>
    <polygon style="fill: white" points="43.382108,34.662404 43.672964,34.846972 43.08324,35.329179 43.020993,35.399786 43.101992,35.63022 42.994242,35.746515 43.417195,36.448403 43.734308,37.250536 43.517928,37.770564 43.170166,38.287456 43.29442,38.408924 43.236242,38.507212 43.72622,38.894552 43.523851,39.04714 42.694579,39.855476 42.215008,39.492708 41.73026,38.94586 41.906103,38.75462 42.301339,38.429952 42.278372,38.385948 42.429759,38.21415 41.740144,36.9745 42.338488,36.022839 42.471113,35.760012 42.351904,35.643312 42.39028,35.530844 41.879103,35.215795 41.690856,35.028956 42.131968,34.455551 42.62132,34.016163" slic3r:type="contour"/>
    <polygon style="fill: white" points="22.136717,4.056944 22.213478,4.220476 22.315685,4.029307 22.585962,3.550664 22.818387,4.101784 22.898116,4.293802 23.076303,4.060577 23.39015,3.723443 23.597866,4.468747 23.692586,4.479602 23.746226,4.484419 23.819272,4.450314 23.888013,4.463304 24.073277,4.329735 24.24634,4.255237 24.273129,4.53634 24.49916,4.575323 24.303501,4.855033 24.334765,5.183099 24.327679,5.19162 24.337669,5.280988 24.56644,5.218817 25.080782,5.255929 25.061529,5.848932 25.388304,5.924752 25.12338,6.360921 25.040843,6.486047 25.033532,6.711232 25.022725,6.856233 25.51418,6.999711 25.905954,7.092574 25.87332,7.184854 25.679232,7.533866 25.760045,7.698504 26.242602,7.796457 26.210508,8.037096 26.108596,8.329321 26.529274,8.295021 26.664994,8.302137 26.654527,8.419755 26.755734,8.379865 26.823244,8.671753 26.897994,8.835842 27.465942,8.791974 27.47099,8.927098 27.584318,8.848447 27.670352,9.17202 27.753286,9.431488 27.783404,9.436649 28.170113,9.512717 28.232174,9.462578 28.552064,9.22367 28.616912,9.425479 28.676487,9.612325 28.684602,9.613921 28.693055,9.639772 29.125787,9.754264 29.404873,9.829952 29.704414,9.612438 29.758667,9.77114 29.803971,9.919774 29.826999,9.986377 30.273072,10.167026 30.529327,10.266874 30.914468,10.018986 30.987998,10.225956 31.057648,10.48699 31.092829,10.593428 31.151668,10.631769 31.444103,10.7997 31.74921,10.564749 31.985378,10.424621 32.134532,10.791681 32.167352,10.930876 32.298892,10.86195 32.466538,10.599406 32.648148,10.771597 32.690526,10.797623 32.811872,10.690658 32.894317,10.824818 32.944278,10.97833 33.097115,11.250402 33.17147,11.137176 33.182916,11.114463 33.181512,10.716823 33.274624,10.839802 33.343609,10.875048 33.463418,10.692609 33.664443,10.919159 33.702992,10.770662 33.677376,10.593955 33.865396,10.801985 34.17668,10.904282 34.2639,10.679812 34.317512,10.627714 34.363964,10.344057 34.412915,10.396381 34.506836,10.443738 34.638836,10.315467 34.875748,10.563051 34.921579,10.605864 35.140603,10.335855 35.25174,10.178837 35.5333,10.571493 35.606106,10.653801 35.792547,10.527986 36.164216,10.293549 36.279983,10.621896 36.368867,10.857782 37.008024,10.737848 37.011316,10.954559 37.010042,11.356012 37.664456,11.484595 37.626864,11.585712 37.531078,11.813756 37.543844,11.821585 37.511263,11.888181 37.705592,12.170192 37.771122,12.268105 38.003588,12.377283 37.979508,12.408962 37.913955,12.481523 37.922616,12.494463 37.904711,12.515996 38.117864,13.06644 38.118831,13.257632 38.136346,13.267829 38.148983,13.275528 38.119062,13.303448 38.119063,13.303704 38.117471,13.305044 38.110384,13.360892 38.028009,14.083416 38.161655,14.165513 38.225464,14.203006 37.991487,14.403748 37.989219,14.423643 37.963258,14.445464 37.851835,14.946395 38.143203,15.116652 38.314859,15.19324 37.786231,15.65414 37.666451,15.764311 37.633508,15.905508 38.0986,16.141774 38.474676,16.270527 38.159952,16.547837 37.773959,16.981625 38.00278,17.082636 38.26448,17.31065 38.726828,17.433304 38.654308,17.500589 38.586121,17.59089 38.84104,17.812996 38.654856,18.556786 38.856548,18.624012 39.103764,18.66806 38.779759,19.004652 38.416874,19.601653 38.908907,19.716833 39.024127,19.838241 39.627812,19.911546 39.529215,20.02785 39.413768,20.248803 40.211164,21.089014 40.241821,21.238807 40.286711,21.241722 40.251907,21.28809 40.262681,21.340731 40.304447,21.422835 40.874332,22.887631 40.981288,22.919718 41.062344,22.929198 40.950676,23.083858 40.983016,23.166982 40.959813,23.213925 41.119848,23.49914 41.764725,25.0556 41.867672,25.0974 41.932312,25.111634 41.83655,25.228956 41.864316,25.295972 41.840178,25.340285 41.958079,25.535059 42.363164,26.502556 42.53604,27.453006 42.522188,27.685222 42.606844,27.73198 42.605882,27.780634 42.755472,27.830972 42.713835,27.874862 42.600569,28.049463 42.576728,29.255607 42.310909,30.293878 42.614744,30.506422 42.578094,30.718106 42.686159,30.794575 43.335944,31.115346 43.089108,31.33907 42.461128,32.148552 41.871295,31.864045 41.371552,31.44684 41.559508,31.164794 42.046009,30.680563 42.00132,30.598278 42.167831,30.320786 41.289953,28.659463 40.830248,28.362896 40.878987,28.27575 41.008059,28.125998 40.995676,28.102564 41.080914,27.928943 40.17958,25.99466 40.108029,25.860993 40.083436,25.849304 40.086124,25.843571 40.099933,25.824816 39.309995,23.845349 39.285784,23.800852 39.265824,23.793768 39.268104,23.788477 39.279885,23.770635 38.834155,22.462581 38.692221,22.198511 38.502048,22.14418 38.527088,22.08868 38.583476,21.996188 38.579628,21.989029 38.665566,21.752708 38.641016,21.440728 38.472092,20.929174 37.817448,20.745236 37.930768,20.526681 38.195527,20.091647 38.16592,20.001988 38.282748,19.767666 38.34976,19.621374 37.531791,19.444497 37.231232,19.338704 37.52879,18.83802 37.350088,18.669882 36.949788,18.428196 37.051436,18.185074 37.076621,18.067865 36.799324,17.928812 36.881744,17.810439 37.204904,17.470867 37.252812,17.247911 37.373832,17.071727 36.946439,16.887599 36.517404,16.63008 36.861583,16.195201 37.180322,15.910933 36.471028,15.517355 36.339096,15.43179 36.659582,15.086476 36.573887,14.957008 36.255492,14.523937 36.299564,14.395906 36.2333,14.357062 36.252443,14.337893 36.319682,14.278278 36.399171,13.792844 36.423918,13.607779 36.135884,13.455641 36.216028,13.381467 36.430132,13.179653 36.43114,12.951498 36.030956,12.7986 36.126092,12.690255 36.297769,12.483598 35.90932,12.439025 36.000924,12.21621 35.74648,12.272135 35.738032,12.057999 35.5386,12.178325 35.460581,11.987647 35.315796,12.166553 35.181466,12.00703 35.118131,12.232572 34.899055,12.097844 34.874904,12.366025 34.854961,12.399996 34.856983,12.419622 34.857207,12.438333 34.835179,12.43146 34.825404,12.463161 34.758695,12.407602 34.315177,12.269247 34.23622,12.715168 33.760435,12.491613 33.374421,12.879265 33.366662,12.903419 33.354794,12.92638 33.338308,12.915611 33.328714,12.927126 33.321886,12.904885 33.279954,12.877496 33.26776,12.859477 33.007165,12.679383 32.655209,12.43214 32.600617,12.475155 32.312696,12.72917 32.249698,12.379345 32.163499,12.111196 31.626765,12.185623 31.518832,12.255464 31.46227,12.254959 31.296628,12.383638 31.286547,12.314076 31.272153,12.25326 30.935057,12.250248 30.366954,11.878899 30.320227,11.912571 30.24802,11.968876 30.211731,11.775901 29.94847,11.677459 29.333472,11.402821 29.237034,11.479709 29.113454,11.586478 29.033551,11.272354 28.71114,11.192191 28.212359,11.034796 28.10823,11.119269 27.983172,11.229416 27.906926,10.945687 27.718958,10.918704 27.109296,10.786772 27.051698,10.830202 26.988554,10.884242 26.962297,10.769895 26.564886,10.695356 26.502582,10.573617 26.464439,10.529413 26.31654,10.573308 26.151364,10.179207 26.039459,10.206042 25.805922,10.254142 25.831206,9.787016 25.8591,9.57454 25.711403,9.569061 25.64735,9.576442 25.089248,9.585175 25.136628,9.341821 25.208488,9.096538 24.994958,8.882759 24.536646,8.80473 24.568664,8.664831 24.631432,8.518808 24.608528,8.495877 24.716302,8.321361 24.726524,8.297579 24.682494,8.149279 24.176004,8.003009 24.228236,7.748141 24.444683,7.348305 24.428076,7.292369 24.574967,7.05115 24.274184,6.999319 23.769842,7.1306 23.784414,7.006143 23.779612,6.914094 23.401492,6.848935 23.423976,6.700226 23.330192,6.769857 23.284558,6.071482 23.121928,6.295882 22.924298,6.561167 22.758026,5.939825 22.466956,6.488059 22.204906,5.846542 22.118684,6.028797 21.895064,6.496036 21.649536,5.967413 21.594305,5.852478 21.323198,6.488031 21.045096,5.939996 20.86586,6.561167 20.536468,6.092146 20.492782,6.498104 20.459905,6.76986 20.413299,6.732442 20.350228,6.789173 20.388604,6.848947 20.170739,6.826112 20.027275,6.85919 20.02018,7.130706 19.863086,7.072708 19.51994,6.976168 19.199196,7.050122 19.362114,7.292578 19.326768,7.570245 19.614146,8.002974 19.545812,7.908661 19.275465,7.973267 19.25916,8.101356 19.159632,8.461582 19.181606,8.496036 19.13029,8.554892 19.253472,8.804775 19.105815,8.792524 18.905108,8.813164 18.80419,8.928913 18.561938,9.162798 18.700834,9.585222 18.351052,9.544137 18.177637,9.533831 18.143672,9.566624 17.997019,9.567919 17.946242,9.738026 17.923559,9.781182 17.942526,10.002789 17.984184,10.254152 17.719685,10.190713 17.473587,10.57331 17.41005,10.536093 17.351975,10.520059 17.225274,10.695346 16.841532,10.74062 16.827802,10.797785 16.801576,10.884248 16.659604,10.781031 16.416083,10.818918 15.912772,10.917854 15.90854,10.930416 15.904086,10.931547 15.867339,11.06133 15.806952,11.229428 15.546641,11.022322 15.15398,11.122039 14.805778,11.231346 14.799912,11.249544 14.780334,11.256801 14.736623,11.4171 14.676719,11.58646 14.424497,11.388708 14.104213,11.507435 13.621437,11.734994 13.616352,11.752638 13.595079,11.764165 13.572563,11.869528 13.542102,11.968873 13.401476,11.86907 13.272478,11.938967 12.855098,12.250245 12.636423,12.222445 12.536508,12.231478 12.493473,12.383666 12.425107,12.334685 12.314392,12.251557 12.271265,12.255456 11.975442,12.06798 11.697446,12.049829 11.642566,12.296022 11.477406,12.729186 11.075002,12.414306 10.966142,12.483689 10.549095,12.82768 10.510176,12.877496 10.477258,12.89781 10.472793,12.909108 10.461411,12.927126 10.449292,12.914963 10.435334,12.926379 10.427747,12.893339 10.008472,12.472534 9.553892,12.715166 9.545399,12.391063 9.525404,12.253152 9.216343,12.349322 9.042334,12.436974 8.964677,12.463136 8.948988,12.432351 8.932904,12.438334 8.936857,12.408544 8.909686,12.355228 8.78268,12.14847 8.67197,12.232573 8.649126,12.00142 8.577911,11.986139 8.474318,12.166549 8.367892,11.937234 8.295723,11.946164 8.251488,12.17832 8.080033,11.998127 8.014907,12.02871 8.043644,12.272112 7.864072,12.190747 7.752768,12.163979 7.880806,12.439025 7.72598,12.446002 7.491259,12.471259 7.759178,12.798593 7.630915,12.855605 7.354807,12.963302 7.355514,13.172589 7.654251,13.45563 7.56457,13.510735 7.374316,13.613368 7.458904,14.172466 7.474758,14.28722 7.556824,14.357068 7.536417,14.369101 7.497482,14.391939 7.53464,14.52387 7.121178,15.128006 7.354699,15.365616 7.451035,15.431798 6.857278,15.739381 6.574083,15.918005 6.993968,16.4159 7.272737,16.630036 6.891994,16.766227 6.394558,17.05134 6.53734,17.247932 6.624593,17.587789 6.9908,17.928816 6.886697,17.954993 6.737058,18.025839 6.840351,18.428168 6.268646,18.919663 6.408367,19.143596 6.558889,19.33874 6.052699,19.415031 5.43881,19.616417 5.624196,20.001862 5.594419,20.138418 5.641351,20.224521 5.972656,20.745278 5.76085,20.75828 5.441947,20.837639 5.33629,21.322172 5.169176,21.894513 5.210474,21.989002 5.201867,22.0112 5.288074,22.144184 5.234293,22.145562 5.14119,22.167677 4.527393,23.750628 4.512443,23.777043 4.524307,23.793784 4.510198,23.794569 3.709553,25.803042 3.692474,25.831174 3.706697,25.849284 3.689968,25.851487 2.966627,27.69212 2.750173,28.027611 2.794498,28.102632 2.772754,28.157574 2.959884,28.362878 2.873457,28.385756 2.628756,28.521435 2.28275,29.395731 1.62223,30.361339 1.788882,30.59814 1.732587,30.729888 1.913341,30.968187 2.418582,31.44679 2.124158,31.571356 1.329088,32.14856 0.861149,31.705285 0.454183,31.11532 0.699101,30.924204 1.215368,30.654654 1.175487,30.506326 1.428803,30.309244 1.502126,30.270673 1.241218,28.193723 1.034658,27.830925 1.083736,27.801058 1.187062,27.76262 1.183215,27.731996 1.333661,27.638741 1.426813,26.50303 1.965492,25.380058 1.925836,25.295968 1.948034,25.253612 1.885021,25.17058 1.857824,25.111584 2.075939,25.009554 2.273913,24.631796 2.84988,23.267701 2.807127,23.16701 2.832955,23.115191 2.759461,23.005238 2.727786,22.929184 2.968372,22.843505 3.086848,22.605806 3.540119,21.346932 3.530769,21.324574 3.537695,21.302487 3.513604,21.266506 3.503416,21.24171 3.56956,21.222407 3.579015,21.088904 4.133786,20.78605 4.3968,20.409846 4.162344,19.911506 4.356717,19.855676 4.840942,19.774562 4.88133,19.716794 5.225509,19.63322 5.36744,19.60213 4.867814,18.986591 4.686374,18.66805 5.222919,18.474875 5.171287,18.182591 4.949085,17.813004 5.116344,17.736675 5.213539,17.641935 5.063298,17.4333 5.184008,17.378971 5.628849,17.237108 5.787334,17.082624 5.991067,16.987215 5.669907,16.682514 5.315463,16.270478 5.802,16.014458 6.151248,15.875921 6.131262,15.780996 5.644844,15.350786 5.475283,15.193212 5.948004,14.910595 5.885768,14.614997 5.844697,14.459137 5.800901,14.42367 5.797166,14.39529 5.62775,14.252458 5.564665,14.203033 5.756294,14.0847 5.739332,13.955802 5.671527,13.304071 5.671059,13.303698 5.671008,13.301741 5.649438,13.28217 5.641141,13.275528 5.667059,13.261142 5.666957,13.260157 5.669206,13.258909 5.672255,13.06644 5.857125,12.56627 5.880823,12.510029 5.867485,12.494463 5.880252,12.476389 5.78651,12.377283 5.828477,12.363298 6.017676,12.281857 6.21767,11.998749 6.284566,11.897701 6.246283,11.821586 6.265775,11.8104 6.125673,11.484595 6.24664,11.480333 6.786118,11.397577 6.782114,10.737856 7.020495,10.811349 7.399492,10.894608 7.441289,10.779193 7.625896,10.293554 7.975804,10.532719 8.148618,10.644315 8.368116,10.366595 8.538389,10.178814 8.855741,10.558938 9.151332,10.315473 9.258029,10.431671 9.426155,10.344064 9.488518,10.456185 9.584272,10.781309 10.11277,10.593949 10.224459,10.882651 10.326757,10.692609 10.386113,10.859993 10.608678,10.716815 10.821903,11.049412 10.86719,10.940313 10.92928,10.893934 10.978242,10.690662 11.033444,10.816127 11.323578,10.599408 11.707678,10.82172 11.766916,10.631101 11.804798,10.424604 12.003018,10.636482 12.274483,10.81038 12.712239,10.554493 12.737882,10.470656 12.767489,10.458727 12.875659,10.018998 13.016237,10.147477 13.211082,10.280005 13.610843,10.118942 13.965677,9.98037 13.979102,9.940081 13.988784,9.93753 14.085663,9.612436 14.207897,9.72089 14.364164,9.838625 14.755891,9.735411 15.096175,9.643015 15.105486,9.613967 15.114142,9.612609 15.238035,9.223686 15.40852,9.371198 15.618889,9.53333 15.985422,9.459528 15.98778,9.449524 16.021197,9.44598 16.153938,9.009919 16.205809,8.848449 16.317325,8.935538 16.324189,8.79197 16.671888,8.84075 16.850983,8.85164 17.034494,8.379758 17.182184,8.435524 17.12521,8.302052 17.404816,8.400488 17.752142,8.395206 17.764041,8.346418 17.718427,8.134184 17.547523,7.796439 17.653047,7.838902 17.880215,7.806977 17.94378,7.515274 18.036621,7.336675 17.884184,7.092556 17.923266,7.120639 18.164965,7.089781 18.2003,7.021806 18.77828,6.858774 18.776357,6.49872 18.613356,6.236932 18.401842,5.924726 18.772916,5.854781 18.771528,5.595112 18.709374,5.255901 19.027157,5.399491 19.462165,5.394371 19.488039,5.225933 19.455351,5.183046 19.489669,4.884944 19.426042,4.792301 19.290982,4.575309 19.530381,4.531293 19.54307,4.421067 19.543756,4.255269 19.830657,4.476083 19.970812,4.450314 20.017763,4.47717 20.213573,4.455691 20.299079,4.158457 20.399966,3.723465 20.742412,4.169852 20.881952,4.33463 21.000259,4.055945 21.20418,3.550668 21.443782,3.996399 21.574852,4.235392 21.663143,4.049868 21.895064,3.547171" slic3r:type="contour"/>
    <polygon style="fill: white" points="1.877493,34.837224 2.099279,35.028912 1.466604,35.387704 1.39144,35.453154 1.438219,35.643296 1.362581,35.709206 1.789764,36.35046 2.049983,36.974528 1.793252,37.649367 1.411625,38.282816 1.511782,38.386 1.47316,38.471806 2.059865,38.945839 1.843039,39.100052 1.095545,39.855495 0.616838,39.486988 0.063902,38.894536 0.207682,38.743448 0.53957,38.474961 0.495674,38.408972 0.670167,38.223614 0.055814,37.250584 0.644431,36.19442 0.830612,35.800736 0.688133,35.63022 0.756332,35.473413 0.317962,35.10092 0.117161,34.846988 0.626743,34.37246 1.168745,34.016028" slic3r:type="contour"/>
    <polygon style="fill: white" points="1.577285,42.245739 1.889877,42.692306 2.234719,43.001084 2.273614,43.031512 2.180198,43.113618 2.256958,43.180011 2.289404,43.215084 1.796832,44.126343 1.435675,44.670207 0.456472,43.679499 0.322805,43.555752 0.497533,43.302951 0.481035,43.287244 0.494868,43.25955 0.353343,43.155844 0.282632,43.08826 0.850582,42.441831 0.953335,42.3417 1.195436,41.857016" slic3r:type="contour"/>
    <polygon style="fill: white" points="2.675704,47.122735 2.729531,47.164452 2.643048,47.259615 2.718711,47.30778 2.752661,47.333264 2.263401,48.097303 1.942106,48.584472 0.946826,47.87804 0.806309,47.777356 0.992273,47.519684 0.983003,47.511372 0.990975,47.49763 0.837441,47.385224 0.741235,47.303436 1.238484,46.700068 1.620619,46.253688" slic3r:type="contour"/>
    <polygon style="fill: white" points="2.679235,49.770628 3.255721,50.077756 3.109257,50.333831 2.800391,50.849916 3.015678,51.032311 3.690238,51.609084 3.46994,52.077706 3.769544,52.1447 3.874952,52.168895 3.51721,52.866615 3.275803,53.344052 2.338714,53.136199 2.079394,53.081208 2.407944,52.413529 2.083055,52.160711 1.650689,51.79142 1.809467,51.482632 1.972477,51.125732 1.903467,51.096244 1.941804,51.037873 1.352616,50.747608 1.506411,50.496875 2.087703,49.495956" slic3r:type="contour"/>
    <polygon style="fill: white" points="4.324077,53.81194 4.726823,53.809647 4.560095,54.293396 4.324697,55.06408 3.702759,55.064072 3.114298,55.062807 3.267125,54.54798 3.498338,53.794212" slic3r:type="contour"/>
    <polygon style="fill: white" points="5.831612,55.541935 5.748943,56.299034 7.026083,56.740641 7.447838,56.548964 7.447093,56.63112 7.459029,56.84305 8.194298,57.00678 8.658801,57.958111 8.687204,58.021647 9.246203,57.729971 9.36367,57.6599 9.456816,58.402931 9.550113,58.87284 8.769032,59.348075 8.493858,59.497848 8.342544,58.675964 8.317571,58.495896 7.370951,58.2688 6.836866,58.160269 6.74862,58.195152 6.685623,58.172908 6.449377,58.279584 6.376229,58.309092 6.3566,58.056729 6.16028,57.987408 5.783761,57.863604 5.630545,57.249343 5.446137,56.688106 5.4162,56.695288 5.411974,56.643573 5.355103,56.65632 4.531595,56.829308 4.554331,56.624192 4.698675,55.516176 5.248351,55.410012 5.879777,55.25458" slic3r:type="contour"/>
    <polygon style="fill: white" points="11.595914,59.166004 11.774275,59.810836 11.195757,60.230648 10.755322,60.516288 10.607102,59.939103 10.467439,59.270592 11.203021,58.812048 11.486712,58.611892" slic3r:type="contour"/>
    <polygon style="fill: white" points="13.781825,59.835884 14.043925,60.628144 13.622364,60.970408 13.048839,61.38736 12.93552,61.016448 12.713531,60.157487 13.26311,59.772 13.683402,59.443076" slic3r:type="contour"/>
    <polygon style="fill: white" points="15.897866,60.415592 16.256583,61.35326 17.146918,61.423839 17.297644,61.283159 17.887054,60.705632 17.950637,60.866863 18.216433,61.447913 19.516601,61.516358 19.9079,61.064468 19.957103,61.160191 20.16197,61.524896 20.862773,61.534607 21.645342,61.549499 21.895064,61.195628 21.942196,61.265272 22.144049,61.552454 22.875239,61.543044 23.61923,61.528543 23.882226,61.064475 23.955127,61.147579 24.285175,61.528244 24.561163,61.519232 25.551807,61.463202 25.903098,60.705632 26.037116,60.829264 26.657776,61.432925 27.534289,61.355718 27.691047,60.877508 27.973106,60.153728 28.205557,60.334699 28.89832,60.923664 28.745301,61.356584 28.5101,62.132828 28.367047,62.002899 27.662544,61.421354 26.646828,62.00144 26.571849,62.17032 26.508185,62.194707 26.30313,62.72282 26.249559,62.667291 25.971197,62.4004 24.10402,63.11562 24.101492,63.112557 21.973524,63.143052 21.972029,63.145264 21.961272,63.145077 21.910479,63.219888 21.895064,63.241724 21.829779,63.145112 21.818086,63.14528 21.816248,63.142551 21.634411,63.139383 19.688885,63.112543 19.688819,63.11262 19.68867,63.112611 19.685846,63.115776 18.395918,62.584384 17.849318,62.392199 17.841464,62.400179 17.833848,62.395231 17.486966,62.722816 17.453971,62.645935 17.273123,62.189608 17.218262,62.17032 17.117545,61.945002 16.137634,61.42096 15.946197,61.592815 15.280084,62.13284 15.2078,61.930163 14.891807,60.923752 15.291383,60.606683 15.817008,60.153712" slic3r:type="contour"/>
  </g></svg>