<svg width="43.790126" height="63.590156" xmlns="http://www.w3.org/2000/svg" xmlns:svg="http://www.w3.org/2000/svg" xmlns:xlink="http://www.w3.org/1999/xlink" xmlns:slic3r="http://slic3r.org/namespaces/slic3r"><g xmlns="http://www.w3.org/2000/svg" slic3r:z="1.1885e-005" id="layer35">
    <polygon style="fill: white" points="32.13753,52.073424 33.189044,52.673344 33.203193,54.100072 33.206934,54.185984 32.614804,53.808416 32.048971,53.537724 31.996636,52.751612 32.00619,52.004568" slic3r:type="contour"/>
    <polygon style="fill: white" points="33.51938,50.767048 34.67518,51.239811 34.834888,52.540176 34.870448,52.750276 34.302547,52.467479 33.663388,52.273064 33.51676,51.542868 33.438624,50.738792" slic3r:type="contour"/>
    <polygon style="fill: white" points="34.736775,51.177099 34.74098,51.17878 34.741784,51.18476 34.735872,51.189531 34.694108,51.220571 34.677908,51.157264" slic3r:type="contour"/>
    <polygon style="fill: white" points="34.729052,49.241404 35.126592,49.341043 35.122583,49.300984 35.937355,49.426067 36.02482,49.4465 36.05736,49.570928 35.978733,49.657858 36.238551,50.717815 36.336072,51.03008 35.800815,50.833296 35.104047,50.744732 34.866572,50.07762 34.687319,49.234408" slic3r:type="contour"/>
    <polygon style="fill: white" points="37.99356,45.48954 37.908974,45.682652 38.288624,46.496288 38.501504,46.852384 37.998076,46.767124 37.289627,46.875998 36.989347,47.443332 37.057864,47.449335 37.136396,47.651263 37.049183,47.790014 37.370216,48.667856 37.5395,49.032632 37.029651,48.904068 36.303995,48.925212 36.279252,48.876668 35.985656,49.285727 35.956195,48.200476 35.722912,47.462188 35.749464,47.461952 35.936716,47.482944 35.936016,47.45712 36.864997,47.438096 36.867149,46.207746 36.573768,45.4671 36.616808,45.460376 36.868453,45.462557 36.868532,45.417212 37.734972,45.276735 37.821553,45.274697 37.825086,45.274614 37.829057,45.274521 37.885692,45.273188" slic3r:type="contour"/>
    <polygon style="fill: white" points="38.634996,43.128532 38.560608,43.378875 39.05456,44.277968 39.259356,44.565036 38.730395,44.504712 38.056627,44.673971 37.829496,45.2544 37.848036,44.403921 37.609288,44.095359 37.256003,43.3166 37.354207,43.289092 37.873073,43.255407 37.875612,43.138959 38.433583,42.98502 38.543452,42.97358" slic3r:type="contour"/>
    <polygon style="fill: white" points="39.951331,31.872378 40.042923,31.917003 40.382427,32.293721 40.713476,32.617279 40.732917,32.632707 40.700809,32.657598 40.735024,32.759838 40.5823,34.468743 40.502732,34.79403 40.560452,34.86 40.552185,35.017842 40.77466,35.208512 40.64446,35.245539 40.536612,35.315194 40.460608,36.766403 40.379374,37.204156 40.44566,37.290932 40.435647,37.445728 40.625299,37.627844 40.507347,37.643956 40.419823,37.690344 40.287792,39.731503 40.265435,39.858172 40.280552,39.8804 40.276826,39.913057 40.317095,39.956919 40.271677,39.958177 40.209984,40.498892 39.534316,41.781676 39.726396,42.094152 39.851032,42.2483 39.312933,42.201979 39.136312,42.537304 38.637828,42.709952 38.59724,42.662215 38.552444,42.562368 38.604526,42.31464 38.129099,41.776951 37.79072,41.08586 37.992276,41.008835 38.900017,40.909133 39.019902,40.338891 38.996244,40.313564 38.843108,39.99692 38.873302,39.809007 38.48918,39.40846 38.206252,38.866852 38.573939,38.693728 39.062978,38.628567 39.190579,37.834456 38.989608,37.461056 39.006961,37.342289 38.714443,37.056851 38.487211,36.661112 38.979207,36.376396 39.152761,36.344439 39.289508,35.408544 39.084796,35.079092 39.098668,34.999471 38.827876,34.750691 38.599504,34.406952 39.066344,34.069452 39.270883,34.011054 39.422723,33.139588 39.239732,32.896004 39.257462,32.826574 38.856647,32.480915 38.4798,32.026018 38.704947,31.82078 39.509336,31.440382" slic3r:type="contour"/>
    <polygon style="fill: white" points="39.570868,31.181536 39.56834,31.210481 39.557147,31.262698 39.478147,31.197286 39.548148,31.161592" slic3r:type="contour"/>
    <polygon style="fill: white" points="38.647164,25.127714 38.652476,25.130194 38.37218,25.815556 38.230255,26.499714 38.413034,26.587976 38.604936,26.61142 38.716424,26.678622 39.326116,26.724688 39.285296,26.862382 39.254449,27.002929 39.488988,27.144302 39.356911,27.272264 39.151176,27.473481 39.150643,27.47591 39.093374,27.54328 39.044583,27.721046 38.845203,28.480908 39.491643,28.599409 40.039316,28.805706 39.956992,29.161104 39.876143,29.420187 39.88734,29.428334 39.871074,29.517715 40.291532,29.835706 40.050692,30.003333 39.723045,30.293061 39.453732,31.177071 39.452954,31.176426 38.71632,30.883922 38.28372,30.83606 38.511245,29.926311 38.428133,29.848138 38.245039,29.722127 37.986984,29.53701 38.305608,29.210997 38.71915,28.863335 38.801151,28.567179 38.145592,28.529392 37.630316,28.450776 37.849741,27.604318 37.58338,27.47186 37.209452,27.33777 37.427119,27.11506 37.651302,26.846402 36.941247,26.703092 37.154304,25.815717 36.912316,25.708312 36.504048,25.584694 36.803176,25.318903 37.346151,24.682652" slic3r:type="contour"/>
    <polygon style="fill: white" points="37.131614,22.617709 37.426827,22.748468 38.00622,22.832896 37.882844,23.075415 37.802976,23.231929 38.129456,23.41691 37.982492,23.583275 37.474663,23.980053 37.353948,24.61636 36.48374,24.34509 36.112984,24.172688 36.231534,23.751748 36.085556,23.694132 35.99806,23.632434 36.2309,23.497881 36.124728,23.380972 35.995584,23.207252 36.5517,22.932031 36.81712,22.63008 36.88216,22.507218 36.913079,22.520913 36.998824,22.423366" slic3r:type="contour"/>
    <polygon style="fill: white" points="36.50498,19.340744 36.512796,19.329466 36.54837,19.362998 37.087924,19.639726 37.6623,20.029786 37.614531,20.195584 37.572483,20.295286 37.751868,20.455124 37.672071,20.520024 37.304316,20.931128 37.294476,20.954462 37.209713,21.036882 36.895432,21.38821 36.857081,21.359979 36.801168,21.435222 35.902284,20.921366 35.738028,20.816449 35.92356,20.556675 35.798456,20.462122 35.678616,20.364262 36.124316,19.890018 36.352687,19.560493 36.448648,19.311852" slic3r:type="contour"/>
    <polygon style="fill: white" points="22.074662,0.298692 22.09921,0.297089 22.119022,0.325786 22.440436,0.347332 22.912311,0.37813 22.940314,0.347448 22.967001,0.352813 23.091791,0.21476 23.180558,0.119078 23.328767,0.405311 23.349806,0.406684 23.36285,0.432395 23.672057,0.494556 24.15805,0.590371 24.195046,0.5604 24.22546,0.570737 24.362092,0.456492 24.46149,0.376853 24.565529,0.670706 24.57982,0.673524 24.586446,0.693427 24.859597,0.786264 25.42085,0.972626 25.46145,0.949404 25.491009,0.963806 25.621635,0.884299 25.717306,0.830107 25.768068,1.087917 25.773338,1.089667 25.775432,1.102383 25.982224,1.203137 26.721208,1.552769 26.751717,1.541605 26.771272,1.554228 26.860104,1.517676 26.92404,1.494554 26.931102,1.6574 27.040908,1.728281 27.927636,2.280523 28.022033,2.381746 28.046994,2.376815 28.044098,2.400651 28.045163,2.40165 28.043953,2.413969 28.594111,3.281331 28.759414,3.496492 29.078234,3.475751 29.045426,3.607807 28.991071,3.79802 29.006542,3.818157 28.968644,3.989994 29.076434,4.221902 29.382005,4.739041 29.523221,4.738717 30.039087,4.760418 29.942321,5.026532 29.783599,5.418687 29.811154,5.46532 29.72528,5.730549 29.765163,5.81305 29.922993,6.0084 30.102227,6.036286 30.173951,6.147074 30.571069,6.179802 30.933968,6.227223 30.743443,6.627028 30.628157,6.848661 30.999401,7.422103 31.169779,7.691002 31.278452,7.714512 31.318093,7.792436 31.519933,7.821962 31.74423,7.863144 31.536729,8.222221 31.749698,8.640866 32.137366,9.416208 32.19746,9.42992 32.217031,9.478674 32.321246,9.497218 32.468502,9.526746 32.324885,9.747358 32.463989,10.093891 32.836746,10.990014 32.89643,11.003061 32.911242,11.047812 33.003796,11.065175 33.17358,11.097724 33.009453,11.344548 33.217617,11.973498 33.356455,12.342787 33.474426,12.366738 33.492881,12.429424 33.647483,12.459737 34.007116,12.525568 33.791619,12.936568 33.686495,13.087093 33.75541,13.321184 33.767748,13.327937 33.754284,13.362797 34.664836,13.615346 34.906652,13.603788 34.9537,13.982211 35.02762,14.000944 35.029788,14.034537 35.088576,14.053784 35.22556,14.106699 35.108384,14.776174 35.082199,14.846839 35.107796,15.243546 35.15744,15.270605 35.153211,15.290017 35.928188,15.678015 36.288472,15.787713 36.049658,16.287683 36.231772,16.388541 36.221526,16.418642 36.399167,16.495445 36.669076,16.665795 36.604867,17.220536 36.507053,17.534748 36.58544,17.588666 36.578113,17.610312 37.172884,17.959864 36.954004,18.184185 36.500384,19.03917 35.784384,18.676098 35.175156,18.302276 35.256476,18.181045 35.364808,18.014953 35.347404,18.005874 35.397359,17.886108 34.940912,17.708142 35.124584,16.994136 35.082472,16.97733 35.083605,16.817418 34.767428,16.732388 34.480444,16.618394 34.609883,16.069689 34.769227,15.555541 34.694595,15.524692 34.694976,15.435342 34.361095,15.445627 33.72422,15.399479 33.726364,15.178395 33.738863,15.034609 33.707304,15.022251 33.685254,14.905173 33.616875,14.887199 33.083124,14.783365 33.25016,14.508859 33.07255,14.551353 33.091713,14.424814 32.957481,14.4874 32.8451,14.510381 32.549508,13.655516 32.488459,13.394791 32.452204,13.385477 32.414059,13.300582 31.667876,13.133703 31.58467,13.150687 31.568267,13.106029 31.545412,13.101115 31.559425,13.087646 30.969377,11.757252 30.949423,11.696868 30.880534,11.681738 30.920806,11.645568 30.777824,11.362998 31.057147,10.358328 30.60916,10.233973 30.380858,10.19837 30.639514,9.957425 30.757803,9.790949 30.393945,9.207817 30.122787,8.686765 29.824756,8.649151 29.911581,8.546811 29.958976,8.471581 29.429658,7.757441 29.396847,7.194716 29.253015,7.175158 29.147274,7.172651 29.374043,6.797102 29.155381,5.888401 28.677639,5.872681 28.373629,5.886275 28.513663,5.570989 28.637983,5.213324 28.145894,4.703881 28.00129,4.715399 27.548764,4.776503 27.611741,4.570052 27.665257,4.342667 27.307598,4.072718 26.97135,3.790815 26.694962,3.861053 26.712103,3.757892 26.724562,3.641169 25.904912,3.160183 25.857148,3.128794 25.817078,3.145201 25.817671,3.11029 25.56813,3.003396 24.988527,2.576514 24.928749,2.610346 24.892394,2.633652 24.870005,2.502384 24.732788,2.446577 24.087687,2.153748 23.9834,2.236426 23.923996,2.287319 23.847159,2.0667 23.619795,2.017998 23.101722,1.893669 22.984663,2.017951 22.921562,2.088082 22.790976,1.842591 22.532213,1.826423 22.060632,1.793372 21.95123,1.945377 21.895064,2.025381 21.724927,1.791173 21.46236,1.807582 21.001267,1.840017 20.913722,2.00409 20.868566,2.088078 20.676925,1.888225 20.437763,1.939398 19.950257,2.057651 19.895002,2.211865 19.86613,2.28732 19.685818,2.148686 19.509501,2.220104 18.926552,2.491509 18.908118,2.58889 18.89773,2.633654 18.788784,2.575053 18.707436,2.628391 18.221914,3.00344 18.004569,3.091771 17.975317,3.106237 17.97305,3.145201 17.956566,3.139424 17.927111,3.127847 17.243905,3.502888 17.07321,3.616514 17.095166,3.861053 16.983259,3.83981 16.773115,3.790194 16.464888,4.005104 16.13526,4.286572 16.241353,4.776496 16.001437,4.763542 15.560307,4.714022 15.149558,5.149627 15.307368,5.548672 15.416503,5.88626 15.018946,5.913491 14.575612,5.907593 14.383519,6.579684 14.379179,6.623732 14.421504,6.709579 14.419844,6.719969 14.594697,7.055868 14.642879,7.172625 14.338274,7.23055 14.301981,7.457729 14.360424,7.757553 13.957472,8.225343 13.831458,8.426474 13.96536,8.649173 13.799639,8.700495 13.576907,8.738003 13.29502,9.128255 13.015161,9.682078 13.252049,9.96525 13.409283,10.198347 12.973106,10.361911 12.551765,10.442906 12.329419,10.976135 12.621546,11.331447 13.012202,11.363227 12.887828,11.583425 12.868421,11.631719 12.909553,11.681748 12.861967,11.699807 12.852331,11.701987 12.827147,11.712198 12.230681,13.077687 12.244715,13.101115 12.22002,13.111701 12.219967,13.111851 12.217052,13.11296 12.205453,13.150689 12.177574,13.127987 11.618787,13.340681 11.364057,13.373743 11.247265,13.426206 10.944998,14.510411 10.731282,14.388029 10.714444,14.589295 10.736564,14.659583 10.707034,14.783321 10.27032,14.990826 10.085577,15.020512 10.038039,15.050831 10.065924,15.399454 9.78353,15.387523 9.192964,15.405981 9.089972,15.432014 9.095463,15.52468 9.008552,15.571936 9.147995,16.093223 9.309681,16.618394 8.740987,16.76982 8.705816,16.988782 8.783522,17.274292 8.849217,17.708161 8.634231,17.853682 8.415522,17.94125 8.442736,18.005898 8.427535,18.01446 8.614976,18.302308 8.376018,18.423758 7.289772,19.039214 6.826722,18.480641 6.617248,17.959858 6.889389,17.731635 7.345855,17.468332 7.332207,17.403638 7.121047,16.665783 7.57314,16.465999 7.558353,16.388541 7.628756,16.355013 7.507244,16.063439 7.501655,15.787716 8.060605,15.41973 8.64518,15.237942 8.575767,14.738683 8.663413,14.392399 8.639108,14.297297 8.564597,14.10666 8.751641,14.043822 8.762494,14.000942 8.794414,13.993366 8.802756,13.847456 8.883444,13.60384 9.463342,13.321368 9.98109,13.302677 10.066385,12.900318 10.016227,12.81184 9.783027,12.525553 10.2868,12.427845 10.315726,12.366697 10.39306,12.352359 10.54743,11.862615 10.775651,11.29608 10.733086,11.234091 10.616534,11.097769 10.875108,11.04919 10.893658,11.003141 10.948079,10.991962 11.102019,10.608339 11.469009,9.726887 11.417339,9.649502 11.321609,9.526776 11.570618,9.482838 11.592639,9.429947 11.655016,9.41618 11.91187,8.910081 12.264619,8.206949 12.173817,8.053662 12.045896,7.863144 12.466653,7.804235 12.511662,7.714518 12.625887,7.691018 13.173595,6.841416 13.025374,6.537964 12.856142,6.227207 13.291886,6.196498 13.608018,6.161566 13.687943,6.036248 13.861793,6.012213 13.958726,5.892494 14.054349,5.686388 13.97895,5.465262 14.013318,5.398349 13.941077,5.205712 13.751037,4.760425 14.017376,4.764384 14.343092,4.75631 14.437618,4.572275 14.808108,3.922786 14.78357,3.818129 14.806212,3.784897 14.711891,3.475755 14.836967,3.490282 14.998181,3.503149 15.718554,2.44587 15.745809,2.40947 15.744962,2.40165 15.746965,2.399585 15.743132,2.376815 15.764139,2.381885 15.862489,2.280523 16.860796,1.653211 16.860778,1.651252 16.861128,1.651081 16.864582,1.561286 16.866086,1.494554 17.01314,1.557483 17.038408,1.541605 17.065447,1.551749 17.243304,1.465279 18.015383,1.098319 18.016768,1.089663 18.02288,1.087588 18.052144,0.937948 18.072794,0.830104 18.292244,0.96673 18.32867,0.949417 18.366137,0.971025 18.634696,0.879827 19.204766,0.69023 19.2103,0.673529 19.223634,0.670848 19.285227,0.497552 19.328636,0.376855 19.559223,0.572342 19.595102,0.560409 19.630438,0.589069 19.93537,0.527767 20.428183,0.430614 20.440286,0.406746 20.45928,0.405472 20.547917,0.2353 20.60957,0.119081 20.819621,0.353447 20.849843,0.347489 20.877244,0.377452 21.193983,0.356218 21.671682,0.325015 21.690918,0.297088 21.713306,0.298589 21.820405,0.144493 21.895064,0.038815" slic3r:type="contour"/>
    <polygon style="fill: black" points="11.75332,12.210181 11.729301,12.278142 11.812296,12.379279 12.139454,12.925403 12.328164,12.14827" slic3r:type="hole"/>
    <polygon style="fill: white" points="7.409472,19.487763 7.964839,20.153292 8.111505,20.364297 7.854733,20.559124 7.966335,20.717089 8.0521,20.816472 7.526434,21.098952 6.988961,21.435222 6.933745,21.357643 6.894724,21.388213 6.507652,21.04004 6.03827,20.455116 6.113752,20.383065 6.228195,20.281948 6.127857,20.02971 6.326002,19.929134 7.199524,19.39822 7.277363,19.32945 7.289246,19.34369 7.341544,19.311904" slic3r:type="contour"/>
    <polygon style="fill: white" points="7.560312,22.95026 7.794543,23.207236 7.559945,23.472774 7.717386,23.568416 7.792063,23.632434 7.550325,23.714967 7.595889,23.874763 7.677142,24.172698 7.100445,24.308504 6.436175,24.616336 6.217854,23.825174 6.16669,23.773151 5.660673,23.416934 5.815765,23.363547 6.000503,23.257525 5.783907,22.832904 6.070873,22.70003 6.717096,22.55118 6.791299,22.423392" slic3r:type="contour"/>
    <polygon style="fill: white" points="6.969055,25.183264 7.286068,25.584714 6.613943,25.877204 6.681626,26.182224 6.848856,26.703076 6.58351,26.670438 6.09176,26.75123 6.255961,26.928459 6.580641,27.337822 5.951121,27.639682 6.039557,27.979571 6.159794,28.450898 5.798598,28.459672 4.991183,28.565258 5.097279,28.909739 5.541211,29.334943 5.803149,29.537046 5.345505,29.853878 5.347435,29.861858 5.308555,29.894546 5.411189,30.244356 5.506421,30.836018 5.156423,31.01665 4.336329,31.176798 4.144071,30.401394 3.91065,30.226606 3.498589,29.83571 3.728576,29.613823 3.915023,29.477604 3.902801,29.428312 3.927922,29.408073 3.750819,28.805674 4.07428,28.759808 4.945086,28.483463 4.6902,27.532091 4.641659,27.478336 4.301153,27.144242 4.447495,27.053882 4.529473,27.004707 4.464045,26.724568 4.628492,26.704486 5.097417,26.664016 5.185227,26.611344 5.408455,26.587283 5.538792,26.519075 5.137395,25.129615 5.784697,25.000455 6.443979,24.682613" slic3r:type="contour"/>
    <polygon style="fill: white" points="4.302049,31.205517 4.268858,31.2581 4.233035,31.262664 4.219316,31.181506 4.229973,31.170248 4.242036,31.161562" slic3r:type="contour"/>
    <polygon style="fill: white" points="4.883849,31.90739 5.310337,32.026028 4.845681,32.438837 4.528347,32.762352 4.550407,32.895964 4.41262,33.04883 4.635045,34.017711 4.649266,34.232598 4.911386,34.392608 5.190632,34.40698 4.691796,34.875226 4.705291,35.079144 4.59472,35.221577 4.756759,36.134243 4.770959,36.564567 4.997476,36.67622 5.302909,36.661052 4.790756,37.164513 4.80054,37.461028 4.6696,37.651404 4.863916,38.775429 5.16485,38.897403 5.583913,38.866864 5.220187,39.245299 4.930815,39.669341 4.947023,39.996952 4.78038,40.263684 4.927008,40.941932 5.447735,41.114776 5.99939,41.085824 5.817751,41.29016 5.206268,42.254036 5.237716,42.562352 5.152317,42.709964 5.076496,42.702728 4.653845,42.53732 4.630287,42.344863 4.079257,42.299164 3.939087,42.248284 4.314849,41.489207 4.498158,41.265438 4.392549,40.402673 3.888137,40.15815 3.580113,40.49876 3.549135,40.06668 3.531882,39.98545 3.473029,39.95692 3.489899,39.925428 3.513643,39.899579 3.509569,39.880399 3.538521,39.827467 3.494097,38.183967 3.426976,37.783407 3.164824,37.627836 3.2483,37.489847 3.359822,37.382644 3.344453,37.290924 3.468171,37.090936 3.418083,36.05754 3.318895,35.427225 3.015448,35.208488 3.11579,35.062832 3.244225,34.95271 3.22964,34.860028 3.331426,34.717948 3.055111,32.760041 3.143614,32.704424 3.083755,32.653223 3.086355,32.651028 3.060432,32.630101 3.685269,31.897376 4.280795,31.440356" slic3r:type="contour"/>
    <polygon style="fill: white" points="5.914473,43.138932 6.011401,43.349748 6.534101,43.316548 6.454204,43.41974 6.226056,43.816616 6.660537,44.7616 5.960575,45.254196 5.740783,44.674165 4.783722,44.637415 4.53077,44.565088 4.824708,43.900452 5.233285,43.334874 5.155082,43.128496 5.198776,43.036392 5.246596,42.973564" slic3r:type="contour"/>
    <polygon style="fill: white" points="5.928736,45.276602 6.921473,45.4172 6.959031,45.495316 7.216376,45.467124 7.185913,45.514268 7.075425,45.737402 7.749482,47.139372 7.377611,47.382833 7.398544,47.453926 7.854002,47.4571 7.875558,47.498495 8.067235,47.46218 8.051779,47.492735 7.974481,47.688462 8.569926,48.831927 7.804464,49.28566 7.509283,48.866389 7.486071,48.925163 6.548462,49.046992 6.250624,49.032608 6.436578,48.392472 6.73309,47.763897 6.653784,47.651252 6.689255,47.536468 6.732333,47.449283 6.807448,47.449806 6.512336,46.877528 5.591012,46.907156 5.288623,46.852384 5.524559,46.222228 5.875691,45.642955 5.796564,45.489512 5.847049,45.363451 5.904433,45.273159" slic3r:type="contour"/>
    <polygon style="fill: white" points="9.084923,49.285364 8.941586,49.809836 9.10644,50.115828 8.815746,50.270285 8.686081,50.744732 7.699445,51.00168 7.454055,51.030076 7.582506,50.351008 7.80704,49.646422 7.73274,49.570912 7.746534,49.502167 7.76527,49.446524 8.667464,49.301028 8.698406,49.35846 9.102839,49.234439" slic3r:type="contour"/>
    <polygon style="fill: white" points="10.330711,50.844267 10.126721,52.273088 9.079886,52.702475 8.919676,52.750296 8.979587,52.018151 9.115736,51.235216 9.04837,51.184608 9.048655,51.181375 9.049174,51.178627 9.112245,51.15712 9.142071,51.230227 9.704264,51.031096 10.351501,50.738792" slic3r:type="contour"/>
    <polygon style="fill: white" points="11.772426,52.185732 11.741189,53.537699 10.646659,54.155788 10.583221,54.185984 10.566923,53.40196 10.601063,52.673356 11.206112,52.354727 11.783944,52.004544" slic3r:type="contour"/>
    <polygon style="fill: white" points="13.369165,53.286855 13.472995,54.468012 14.065472,54.709468 14.571106,54.264396 15.013609,53.837655 15.060269,54.122232 15.26548,55.185938 15.851785,55.365682 16.300189,54.880892 16.703534,54.4113 16.772862,54.67352 17.080104,55.722696 17.628472,55.838749 18.039217,55.3024 18.416648,54.785104 18.494034,54.99858 18.913875,56.081492 19.410495,56.142414 19.791372,55.549871 20.148264,54.987068 20.223589,55.151827 20.754125,56.26634 21.20746,56.284239 21.55882,55.641095 21.895064,55.044835 21.9708,55.183404 22.582438,56.284264 23.035132,56.266399 23.340119,55.59852 23.64189,54.987076 23.739192,55.13848 24.380148,56.142803 24.873783,56.082284 25.119171,55.403596 25.373506,54.785116 25.507386,54.960044 26.164088,55.839668 26.705966,55.724935 26.886612,55.037711 27.086618,54.41128 27.258641,54.597331 27.942737,55.366463 28.520188,55.188958 28.63457,54.482964 28.776524,53.837628 28.968668,54.0067 29.728433,54.709326 30.31419,54.469267 30.353512,53.725724 30.434793,53.036572 30.608874,53.158164 31.546862,53.852572 31.496898,54.371532 31.5779,54.412252 31.872726,55.045096 31.439397,55.293916 31.406393,55.31159 31.406085,55.314792 31.404571,55.315447 31.402026,55.346439 31.377215,55.327282 29.671066,56.065419 29.542566,56.11743 29.540632,56.127184 29.535137,56.128971 29.514618,56.239556 29.479031,56.205955 29.42844,56.163685 27.815188,56.688547 27.653315,56.737843 27.65018,56.7484 27.644491,56.749683 27.608046,56.876048 27.570277,56.832811 27.517209,56.778389 25.887924,57.145843 25.743481,57.176219 25.740488,57.183875 25.73697,57.184337 25.696692,57.287748 25.667901,57.248627 25.627577,57.198717 23.930863,57.421744 23.827401,57.434365 23.825373,57.438604 23.82417,57.438655 23.790414,57.507992 23.772277,57.479335 23.746867,57.441925 22.001477,57.515768 21.924991,57.518771 21.895064,57.570524 21.88274,57.548384 21.866923,57.521051 21.866698,57.52106 21.865352,57.518599 20.142609,57.445583 20.044688,57.441739 19.999744,57.507991 19.984585,57.476951 19.965937,57.438648 19.964783,57.438603 19.962346,57.433536 18.303713,57.214851 18.165829,57.198041 18.093436,57.287748 18.074448,57.241188 18.05227,57.184196 18.049639,57.183875 18.045767,57.174261 16.444077,56.812403 16.27814,56.777483 16.182081,56.876048 16.163812,56.818667 16.143838,56.749218 16.13995,56.7484 16.135646,56.734752 14.516954,56.208883 14.367081,56.163116 14.27551,56.239584 14.264244,56.188963 14.253053,56.128294 14.249495,56.127208 14.246627,56.114219 12.461799,55.346451 12.416322,55.327935 12.388103,55.34644 12.384254,55.314878 12.384041,55.314791 12.383517,55.310463 11.917408,55.045096 12.160079,55.009396 12.320014,54.785566 12.288263,54.523131 12.243245,53.852596 12.850117,53.427935 13.355333,53.03654" slic3r:type="contour"/>
  </g></svg>