<svg width="43.790126" height="63.590156" xmlns="http://www.w3.org/2000/svg" xmlns:svg="http://www.w3.org/2000/svg" xmlns:xlink="http://www.w3.org/1999/xlink" xmlns:slic3r="http://slic3r.org/namespaces/slic3r"><g xmlns="http://www.w3.org/2000/svg" slic3r:z="3.56449999999999e-005" id="layer107">
    <polygon style="fill: white" points="32.769619,57.983547 33.36061,58.404364 33.21061,59.030067 33.092268,59.689768 32.823745,59.491047 32.056562,58.98468 32.190369,58.307164 32.339992,57.717256" slic3r:type="contour"/>
    <polygon style="fill: white" points="35.131016,57.011432 35.558528,57.266088 35.42256,58.12492 35.373892,58.57362 34.880427,58.279315 34.295948,57.960812 34.414332,56.99416 34.469324,56.676684" slic3r:type="contour"/>
    <polygon style="fill: white" points="38.161472,54.07326 39.119348,54.271096 39.138179,54.380069 39.199196,54.354944 39.199092,54.359907 39.185694,54.655448 39.347335,55.648348 39.318068,55.64238 39.15091,55.613539 39.151319,55.615704 39.142256,55.613652 39.13156,55.849584 37.523085,56.47444 37.500067,57.021276 37.49846,57.244656 36.7485,56.921932 36.562807,56.847485 36.399568,56.9109 36.368835,56.89964 36.368576,56.891588 36.369529,56.785344 36.202008,56.830728 36.363592,56.251795 36.371895,56.194186 36.3791,55.494948 36.38012,55.477844 36.464001,55.508574 36.464324,55.406448 37.378828,55.104516 38.050001,54.828148 37.934884,54.041824" slic3r:type="contour"/>
    <polygon style="fill: white" points="40.563191,52.962599 40.770752,53.616588 40.43218,53.627963 39.567524,53.66372 39.314888,52.9791 39.11032,52.328828 39.678351,52.281951 40.341488,52.259892" slic3r:type="contour"/>
    <polygon style="fill: white" points="41.848916,49.883608 42.108156,50.24816 41.594664,50.633308 41.762103,51.002731 41.84332,51.182351 41.098552,51.401531 40.649707,51.517492 40.030951,50.227067 40.026444,50.217544 40.05189,50.210296 40.035848,50.184168 40.6712,49.687011 41.3226,49.168376" slic3r:type="contour"/>
    <polygon style="fill: white" points="41.877346,46.694026 41.883964,46.68884 41.890119,46.701715 41.909664,46.752667 42.347276,47.546708 42.6102,48.090571 42.236667,48.338632 41.456888,48.761608 41.018031,47.883567 40.703208,47.3046 41.361088,46.959132 41.856851,46.656839" slic3r:type="contour"/>
    <polygon style="fill: white" points="42.958152,40.861772 43.39284,41.206552 42.892268,41.587939 42.368006,42.086557 42.407323,42.171899 42.436256,42.260844 42.347805,42.343215 42.852512,43.261408 43.1697,44.03002 42.915336,44.322559 42.380413,44.78753 42.501388,44.919532 42.416019,44.9937 42.991952,45.587635 42.600163,45.891584 41.8318,46.573984 41.227664,45.985528 40.957756,45.628888 41.289488,45.306675 41.821038,44.861136 41.805492,44.83292 41.907956,44.734301 41.722952,44.315444 41.219984,43.32402 41.785696,42.860115 42.328378,42.291233 42.286244,42.243956 42.356025,42.147694 41.62298,41.591251 41.378576,41.316344 41.794684,40.873395 42.429936,40.350704" slic3r:type="contour"/>
    <polygon style="fill: white" points="42.950979,35.791255 43.270023,36.842713 43.45688,37.001024 43.521556,37.041888 43.368118,37.166002 43.384028,37.218435 43.361919,37.241303 43.449915,37.411299 43.516992,37.601184 42.993432,38.62574 42.47638,39.275308 41.752089,37.490127 41.518679,37.2668 41.551495,37.228936 41.621637,37.168597 41.61788,37.159335 41.646708,37.124161 41.505888,36.776296 41.66374,36.481812 42.42504,34.631835" slic3r:type="contour"/>
    <polygon style="fill: white" points="42.921496,32.956408 43.32812,33.151922 42.86804,33.56302 42.437919,34.087064 42.492832,34.220447 42.523292,34.327016 42.47308,34.384476 42.45228,34.374263 42.392632,34.327884 42.434205,34.133814 41.606252,33.734316 41.34842,33.526712 41.739479,32.990738 42.258231,32.49079" slic3r:type="contour"/>
    <polygon style="fill: white" points="41.95112,29.090654 41.935941,29.290142 42.245535,29.458285 42.859812,29.657518 42.630264,29.893642 42.045468,30.734372 41.392391,30.512627 40.915672,30.222316 41.147004,29.858461 41.7047,29.238555 41.66064,29.134982 41.721303,29.026516 41.75726,28.984796" slic3r:type="contour"/>
    <polygon style="fill: white" points="40.305576,23.872388 40.367404,24.024234 40.582151,24.092021 41.209528,24.167578 41.065616,24.346434 40.680271,25.064623 40.881844,26.16011 41.390892,26.361056 41.419969,26.545555 42.100756,26.676216 41.963111,26.836996 41.47774,27.656918 41.43854,28.073144 41.311188,27.789165 40.797092,27.6739 40.211748,27.412676 40.375851,27.116826 40.777438,26.598971 40.738596,26.512357 40.851808,26.270989 40.887662,26.222292 40.459333,25.268891 39.94158,25.185464 39.365576,24.987126 39.529132,24.671231 39.933073,24.09751 39.887248,23.99551 39.953256,23.842462 39.9943,23.78031" slic3r:type="contour"/>
    <polygon style="fill: white" points="39.847372,21.997616 40.328192,22.048308 40.110896,22.31704 39.694064,23.109108 38.9573,23.003348 38.499028,22.867009 38.71628,22.451304 39.151132,21.804178" slic3r:type="contour"/>
    <polygon style="fill: white" points="21.31728,6.23625 21.58325,6.611536 21.895064,6.154814 21.962196,6.256058 22.182565,6.583299 22.535806,6.134223 22.615096,6.239576 22.869128,6.613574 22.961914,6.499223 23.324504,6.177439 23.4447,6.356988 23.654451,6.748431 23.860187,6.574684 24.234508,6.371988 24.437697,6.749006 24.589405,7.215681 25.084126,6.839644 25.324468,6.728249 25.590206,7.436007 25.590009,7.464408 25.686447,7.677605 25.78278,7.722902 25.951366,7.742776 25.975717,7.745223 26.354785,7.439585 26.725864,7.201406 26.852036,7.602559 26.917791,7.839873 27.86161,7.934697 27.878424,7.920103 27.905557,7.926494 28.182149,7.711045 28.23277,7.883236 28.272463,8.012916 29.177897,8.226186 29.507258,8.291818 29.513012,8.286453 29.514717,8.28711 29.636958,8.187696 29.663725,8.277358 29.678588,8.325959 29.680445,8.326329 29.688383,8.354013 30.543177,8.683313 30.852223,8.779819 31.052762,8.62096 31.099153,8.781068 31.122301,8.864156 31.132214,8.867252 31.158483,8.957471 31.472814,9.153938 31.953409,9.370502 32.003282,9.327763 32.395728,9.017873 32.514483,9.439811 32.732188,9.31218 32.913926,9.126322 33.217188,9.423821 33.465541,9.590498 33.792448,9.369681 33.890123,9.724351 33.910785,9.79106 34.174795,9.64043 34.403172,9.488968 34.627251,9.837542 34.871612,10.125376 35.451074,10.00846 35.510375,9.983492 35.624312,9.938171 35.632387,9.96667 35.67338,9.956477 35.760709,10.419515 35.80625,10.580229 35.910544,10.59803 35.913246,10.616573 36.249228,10.61983 36.588644,10.674404 36.47036,11.191524 36.432304,11.319205 36.613807,11.371356 37.102384,11.584478 36.858996,11.948237 36.693361,12.13528 36.815907,12.186403 37.356956,12.47876 37.103724,12.75901 36.774921,13.035742 36.960659,13.115274 37.567603,13.424838 37.385035,13.631839 36.952013,14.017304 37.165751,14.239817 37.840892,14.508146 37.785828,14.58001 37.699199,14.675866 37.964128,14.883729 37.827829,15.610933 38.016088,15.690706 38.167872,15.742821 37.714008,16.218207 37.644984,16.586477 37.508359,16.773048 38.105735,16.999792 38.540364,17.121322 38.275244,17.399056 37.886477,17.921186 38.507369,18.441437 38.687128,18.504919 38.743014,18.56098 38.99508,18.619054 38.958832,18.657588 38.91053,18.729019 39.099996,18.919076 39.029664,20.107225 39.316804,20.19125 39.562416,20.226718 39.197136,20.637949 38.975173,21.027772 38.956908,21.336327 38.92026,21.395317 38.904608,21.391849 38.835891,21.367631 38.645555,21.156601 37.935647,21.033347 37.708232,20.96024 38.000418,20.441322 37.770148,20.186016 37.307044,19.827451 37.361092,19.528023 37.359566,19.339077 37.098832,19.2324 37.157888,19.139841 37.35602,18.900046 37.355476,18.832652 37.649834,18.361179 37.694311,18.074573 37.097844,17.88765 36.622376,17.661858 36.905136,17.234125 37.334378,16.757913 37.203746,16.659912 36.936008,16.543106 36.857409,16.486705 36.295952,16.269266 36.236076,16.236976 36.330174,16.10371 36.184596,16.014763 36.375592,15.472563 36.433859,15.182903 35.810384,14.890383 35.989896,14.627222 36.41019,14.147685 35.836675,13.862089 35.461608,13.676508 35.814,13.290187 36.001483,13.095988 35.388095,12.783217 35.201956,12.695937 35.649501,12.2822 35.087312,12.071451 34.996692,12.040125 35.212509,11.799021 35.051711,11.800605 35.027928,11.78157 34.903479,11.775447 34.85388,11.771804 34.877222,11.703867 34.76032,11.721789 34.715108,11.668543 34.674608,11.678975 34.660016,11.63378 34.564664,11.341373 34.2415,11.544395 33.898506,11.07463 33.85148,11.140559 33.600592,11.431782 33.332917,11.181305 33.271268,11.230064 33.11224,11.405092 33.080196,11.252945 32.95651,10.961216 32.716886,11.322684 32.030087,10.887923 31.954143,10.954033 31.748334,11.177661 31.707194,10.962025 31.610378,10.622234 31.517473,10.563423 31.307081,10.460277 31.22135,10.611024 30.900684,10.933158 30.508946,10.745728 30.45154,10.801586 30.432403,10.7072 30.333662,10.676601 29.149339,10.289009 29.12576,10.310447 29.076262,10.357116 29.051577,10.257267 28.971281,10.241078 28.525836,10.146747 28.343708,9.708498 28.279383,9.372759 28.175962,9.350888 27.917549,9.561119 27.608522,9.809159 27.537151,9.567531 27.433097,9.227976 27.044295,9.180197 26.183241,9.169179 26.138923,9.052149 26.027164,9.113201 26.00789,9.063877 25.840433,8.438341 25.791486,8.336266 25.697638,8.009363 25.466879,7.990186 24.903486,8.437431 24.6436,8.559648 24.366139,7.910619 24.285879,7.899425 24.22707,7.964331 24.207059,7.961001 23.955388,8.228996 23.792762,8.354266 23.55029,7.851731 23.472707,7.838824 23.268729,8.13255 23.150248,8.279347 22.860083,7.777135 22.650435,8.142741 22.558089,8.292073 22.265408,7.851792 22.191355,7.847813 21.9796,8.191719 21.895064,8.326998 21.600569,7.843797 21.509818,7.85482 21.321642,8.146513 21.23203,8.292085 20.983229,7.834075 20.867252,7.834456 20.720507,8.107976 20.639884,8.279371 20.402113,7.902105 20.142482,7.950257 20.052404,8.163259 19.99734,8.354279 19.706642,7.992539 19.221216,8.058188 19.102774,8.408807 19.146498,8.559658 18.761307,8.194203 18.505893,8.057193 18.414642,8.05139 18.390355,8.029276 18.08321,8.042757 17.998478,8.336696 17.827002,8.701316 17.762994,9.11318 17.736857,9.091395 17.664374,9.047124 17.606998,9.169124 16.353599,9.261226 16.292196,9.46759 16.181655,9.809139 16.062904,9.712086 15.63163,9.363247 15.433225,9.404486 15.346841,9.688137 15.264262,10.146767 14.744158,10.255352 14.735028,10.291845 14.713886,10.357119 14.637608,10.288147 14.546427,10.316417 13.365552,10.703121 13.357797,10.740053 13.338599,10.801596 13.275752,10.745199 13.228237,10.766398 12.889275,10.933218 12.709768,10.460896 12.629027,10.377669 12.40831,10.485071 12.269476,10.555599 12.264013,10.568895 12.229,10.590523 12.173146,10.839368 12.04175,11.177684 11.790878,10.961113 11.726349,10.901026 11.62093,10.966146 11.073192,11.322701 10.984965,11.12089 10.891499,10.972825 10.853405,11.088286 10.67786,11.405095 10.422088,11.203605 10.376828,11.245157 10.189563,11.431777 9.920747,11.010126 9.873449,11.074294 9.548632,11.5444 9.400079,11.422789 9.234117,11.318315 9.115517,11.678975 9.064423,11.661466 9.061372,11.668191 9.053508,11.664555 9.029774,11.721811 8.913208,11.699345 8.936231,11.771825 8.582102,11.781083 8.754592,11.986622 8.793409,12.040124 8.174385,12.287064 8.489194,12.590652 8.588147,12.695932 8.038304,12.993705 7.791958,13.110343 8.136263,13.48087 8.328522,13.676484 7.905259,13.888281 7.364459,14.156091 7.654689,14.554359 7.979739,14.890414 7.748354,14.975916 7.39391,15.139815 7.605511,16.014864 7.454631,16.120933 7.519562,16.20658 7.554056,16.236967 7.081664,16.383128 6.854093,16.54311 6.716609,16.601469 6.458102,16.771631 6.900161,17.396762 7.167739,17.661868 6.801522,17.748355 6.114737,18.057355 6.223508,18.514644 6.434619,18.832529 6.440427,18.951816 6.691296,19.23237 6.606038,19.249188 6.457679,19.306166 6.483059,19.827492 5.795301,20.520263 5.956446,20.789851 6.081896,20.96023 5.480955,21.030626 5.209971,21.109862 4.954075,21.367624 4.869769,21.395288 4.860415,21.38382 4.833165,21.336357 4.835135,21.099552 4.372893,20.507074 4.227718,20.226668 4.844047,20.029175 4.847757,19.583468 4.690136,18.918996 4.803573,18.852719 4.884288,18.758966 4.795016,18.619084 4.857152,18.596713 5.073428,18.539269 5.102986,18.504936 5.538582,18.340142 5.905839,17.951632 5.587569,17.593393 5.249754,17.1213 5.701256,16.944562 6.275844,16.765344 6.145199,16.586619 6.088354,16.26424 5.749451,15.896941 5.622269,15.742791 5.969995,15.593007 5.932485,15.38028 5.82607,14.88352 5.978659,14.790547 6.113032,14.681225 5.949264,14.50808 6.062893,14.465153 6.599983,14.255684 6.862471,13.987513 6.712845,13.825151 6.222532,13.42486 6.553616,13.282713 7.079605,13.03066 6.870812,12.809419 6.433177,12.478736 6.884771,12.289319 7.175925,12.1455 7.0255,11.932899 6.687741,11.584478 7.261536,11.418571 7.395505,11.367609 7.308693,11.019189 7.201503,10.674404 7.866357,10.670361 7.879582,10.59803 7.960476,10.590173 8.051744,10.292147 8.111923,9.980467 8.116727,9.956488 8.153026,9.968667 8.16585,9.938163 8.308195,10.007118 8.857243,10.134808 9.386938,9.488974 9.870027,9.763782 9.997699,9.369672 10.212042,9.543943 10.27262,9.584176 10.876149,9.126332 11.299127,9.380228 11.318307,9.309812 11.394421,9.017865 11.656295,9.276398 11.75527,9.353879 12.125647,9.152318 12.647288,8.905593 12.65789,8.867265 12.670319,8.862631 12.737339,8.620955 12.845935,8.724538 12.907872,8.774059 13.896114,8.405588 14.105761,8.340039 14.109707,8.326332 14.110778,8.326066 14.153195,8.187693 14.218461,8.249421 14.264857,8.287785 15.20585,8.053996 15.521051,7.994206 15.607976,7.711042 15.739093,7.82991 15.857185,7.924071 16.323523,7.85112 16.895825,7.806267 16.929334,7.694106 17.064264,7.20142 17.347504,7.4565 17.758671,7.738643 17.949178,7.723711 18.129102,7.632276 18.149707,7.590829 18.252441,7.348783 18.367994,7.329588 18.50259,6.868102 18.465698,6.728252 18.870208,7.089344 19.091572,7.209392 19.250354,7.183016 19.301948,7.075672 19.307669,7.075756 19.525142,6.624711 19.55565,6.371991 19.761244,6.577884 20.13489,6.821237 20.325963,6.519279 20.465592,6.177438 20.565115,6.312784 20.90805,6.669545 21.020268,6.516408 21.254346,6.134221" slic3r:type="contour"/>
    <polygon style="fill: white" points="5.025998,22.490456 5.291114,22.866956 4.866677,22.905538 4.096157,23.109186 3.709344,22.578728 3.461951,22.048288 3.850777,21.927101 4.639039,21.804146" slic3r:type="contour"/>
    <polygon style="fill: white" points="3.902872,23.995506 3.855368,24.134837 4.056019,24.486517 4.424529,24.987112 4.103481,25.020534 3.370353,25.242417 2.898625,26.231569 3.051539,26.512354 3.005567,26.648135 3.148844,26.880129 3.57838,27.412658 3.279929,27.460976 2.511369,27.763233 2.351586,28.073144 2.351585,28.073144 2.360396,27.756443 2.057102,27.38219 1.689377,26.676172 1.881152,26.59033 2.396297,26.465911 2.399215,26.361058 2.751885,26.202774 2.912343,26.165722 3.156136,25.188612 2.897537,24.84147 2.580599,24.167594 2.814521,24.084526 3.459402,23.973138 3.484537,23.872398 3.720228,23.791525 3.79583,23.780309" slic3r:type="contour"/>
    <polygon style="fill: white" points="2.129522,29.135056 2.090151,29.258325 2.45426,29.771004 2.874482,30.22225 2.505174,30.323848 1.744826,30.734196 1.304452,30.263018 0.93034,29.657428 1.19154,29.501218 1.868582,29.252106 1.838962,29.090708 1.981597,29.003904 2.032871,28.98483" slic3r:type="contour"/>
    <polygon style="fill: white" points="2.167401,33.270327 2.441734,33.526656 1.887091,33.759604 1.361587,34.135553 1.382856,34.195928 1.397522,34.327947 1.317082,34.384539 1.300565,34.369756 1.266869,34.32708 1.349603,34.092981 0.742258,33.533037 0.462002,33.151876 0.894455,32.820266 1.531955,32.490718" slic3r:type="contour"/>
    <polygon style="fill: white" points="1.89636,35.533107 2.284238,36.7763 2.221896,36.992692 2.153643,37.138853 2.172245,37.159307 2.166174,37.177544 2.271445,37.266776 2.230917,37.28942 2.08795,37.41251 1.747862,38.434051 1.313717,39.27534 0.436967,37.816439 0.273132,37.601216 0.438671,37.255635 0.406098,37.21846 0.418749,37.184336 0.316982,37.099856 0.268568,37.041915 0.576656,36.758424 1.365085,34.631836" slic3r:type="contour"/>
    <polygon style="fill: white" points="2.037107,41.010823 2.41155,41.316344 1.920976,41.662735 1.442919,42.146106 1.503937,42.24398 1.458577,42.28995 2.22064,42.915235 2.570139,43.32402 2.329595,43.938339 1.899284,44.755746 1.984631,44.83292 1.962505,44.875646 2.251538,45.139687 2.832354,45.628844 2.455731,45.979063 1.958397,46.574032 1.277955,46.049724 0.798189,45.587708 0.992945,45.364963 1.362625,44.981234 1.288751,44.91954 1.434691,44.753898 1.376106,44.692144 0.620423,44.029992 0.990166,43.332388 1.446231,42.343409 1.397679,42.30546 1.353927,42.260872 1.418262,42.091028 0.756428,41.581463 0.39729,41.206596 0.728256,40.865019 1.360144,40.350731" slic3r:type="contour"/>
    <polygon style="fill: white" points="2.774084,47.103835 3.086889,47.30452 2.799479,47.911107 2.333144,48.761448 1.774543,48.40952 1.179903,48.090439 1.562009,47.390412 1.896389,46.729412 1.89113,46.724899 1.906194,46.688807 1.914303,46.693998 1.933101,46.65684" slic3r:type="contour"/>
    <polygon style="fill: white" points="3.7313,50.165904 3.754275,50.184167 3.735975,50.209933 3.763679,50.217544 3.349887,51.075016 3.1404,51.51752 2.148373,51.233623 1.946806,51.182356 2.189653,50.646519 1.94322,50.464036 1.681975,50.248188 2.022211,49.793775 2.467489,49.168352" slic3r:type="contour"/>
    <polygon style="fill: white" points="4.226723,52.318416 4.679792,52.328836 4.497649,52.78948 4.222601,53.66372 3.694717,53.645284 3.019387,53.616583 3.166937,53.148923 3.448638,52.259892" slic3r:type="contour"/>
    <polygon style="fill: white" points="5.804494,54.24026 5.723703,54.79036 7.325877,55.406524 7.335267,55.511831 7.410011,55.477864 7.405855,55.936029 7.587949,56.830672 7.420304,56.78347 7.421261,56.899672 7.415613,56.901727 7.390521,56.910928 7.234883,56.849259 6.506015,57.159872 6.291612,57.244624 6.258005,56.46219 5.696457,56.239687 4.658599,55.8496 4.658191,55.743415 4.651858,55.612736 4.638836,55.615656 4.63887,55.615489 4.442763,55.648304 4.449337,55.610272 4.605858,54.66361 4.590898,54.354971 4.652959,54.378731 4.670757,54.271088 5.088253,54.208268 5.855267,54.041824" slic3r:type="contour"/>
    <polygon style="fill: white" points="9.390364,57.34984 9.494225,57.960747 8.832859,58.350832 8.416256,58.573635 8.307791,57.894156 8.231599,57.266088 9.100068,56.811323 9.320788,56.676664" slic3r:type="contour"/>
    <polygon style="fill: white" points="11.531046,58.174724 11.733527,58.984571 11.293144,59.30612 10.697821,59.68976 10.604337,59.30244 10.429516,58.404303 11.041904,58.013419 11.45012,57.71726" slic3r:type="contour"/>
    <polygon style="fill: white" points="13.72289,58.886456 13.970472,59.696457 15.276972,59.838047 15.299803,59.819929 15.801812,59.369528 15.839238,59.495992 15.973296,59.871079 17.488352,59.99184 17.812496,60.020856 17.878416,59.953043 17.885103,59.970583 17.908252,60.024377 18.402831,60.050375 19.559615,60.698711 19.865004,60.349659 19.903958,60.304672 20.257757,60.992939 21.361303,61.207778 21.842778,60.502831 21.895064,60.42874 22.375214,61.13824 22.42951,61.215488 23.513623,61.008904 23.855374,60.359011 23.886168,60.304675 24.246471,60.715397 24.70261,60.474623 25.387129,60.050396 25.78535,60.031623 25.880297,60.025549 25.91171,59.953032 25.925439,59.966607 25.980246,60.02279 27.211653,59.94054 27.802994,59.883556 27.988342,59.369536 28.094862,59.45766 28.541946,59.855552 28.627259,59.848808 29.80805,59.707393 29.878162,59.430464 30.130902,58.613416 30.374991,58.788051 31.099622,59.366128 30.976019,59.787748 30.779882,60.632824 30.686746,60.554052 30.168206,60.164667 30.120219,60.220592 29.226446,61.184396 28.589956,61.246473 28.548347,61.364192 28.534568,61.409676 28.377677,61.267176 28.342038,61.270652 28.32993,61.260377 27.431933,61.335116 26.557302,61.401487 26.376269,61.825764 26.315876,61.981308 25.811116,61.45811 25.710516,61.465744 25.679831,61.435165 24.594677,61.495204 24.59193,61.500796 24.555248,61.501534 24.219028,62.138419 24.107604,62.357232 23.574299,61.702887 23.449338,61.557362 23.34723,61.562368 23.317678,61.52643 22.603951,61.540788 22.585831,61.56874 22.51374,61.567272 22.050055,62.2662 21.895064,62.4955 21.435877,61.802299 21.277685,61.567475 21.204316,61.568764 21.185882,61.540243 20.473399,61.525739 20.442896,61.562368 20.347505,61.556866 19.847222,62.167451 19.682524,62.35724 19.269399,61.576579 19.230839,61.501387 19.198182,61.500828 19.19294,61.490277 18.118035,61.428282 18.07961,61.465848 17.993703,61.45818 17.600698,61.861847 17.47422,61.981288 17.220086,61.389129 16.457615,61.321071 15.465574,61.256097 15.448039,61.270644 15.418044,61.267225 15.294614,61.378031 15.25559,61.409667 15.195752,61.241891 14.994757,61.218984 14.563794,61.18442 14.171043,60.644912 13.676304,60.145111 13.010245,60.632824 12.969567,60.49496 12.690497,59.366131 13.091967,59.072044 13.659194,58.613415" slic3r:type="contour"/>
  </g></svg>