<svg width="43.790126" height="63.590156" xmlns="http://www.w3.org/2000/svg" xmlns:svg="http://www.w3.org/2000/svg" xmlns:xlink="http://www.w3.org/1999/xlink" xmlns:slic3r="http://slic3r.org/namespaces/slic3r"><g xmlns="http://www.w3.org/2000/svg" slic3r:z="3.86149999999998e-005" id="layer116">
    <polygon style="fill: white" points="13.696888,57.594643 13.873781,58.19841 15.530742,58.371537 15.542376,58.361755 15.551801,58.362476 15.792005,58.134108 15.812027,58.202703 15.87637,58.387291 17.011094,58.474043 17.493321,59.078652 17.830662,58.742327 17.87103,58.7008 18.190343,59.538219 18.346564,59.901244 17.693184,60.603279 17.476808,60.814816 17.129152,59.988824 17.055584,59.798073 15.912208,59.703057 15.861581,59.746536 15.786791,59.738444 15.384096,60.114044 15.253292,60.222568 15.056973,59.659479 14.435262,59.592211 13.110709,59.494164 13.093766,59.451756 13.06133,59.40133 12.993286,59.451948 12.989745,59.439956 12.930876,59.198526 12.906215,59.160187 12.634554,58.239484 12.571426,58.11574 12.673893,58.127894 12.731959,58.08536 12.768497,58.088903 13.010019,57.903267 13.645626,57.365411" slic3r:type="contour"/>
    <polygon style="fill: white" points="11.502402,56.869391 11.704417,57.757204 11.317648,58.038187 10.658819,58.460756 10.58877,58.158788 10.402944,57.144559 10.970299,56.7742 11.429296,56.431415" slic3r:type="contour"/>
    <polygon style="fill: white" points="9.372445,55.997051 9.460894,56.671676 8.830597,57.008903 8.358588,57.254712 8.278413,56.632147 8.207773,55.912084 9.042975,55.479116 9.309901,55.31694" slic3r:type="contour"/>
    <polygon style="fill: white" points="5.124538,52.54054 5.138495,52.53844 5.175147,52.556285 5.94565,52.438468 5.896862,52.496912 5.81693,52.868775 6.817167,53.355796 6.75843,54.245567 7.356253,54.026567 7.447916,53.987464 7.405893,54.865167 7.40987,55.347992 6.550023,55.661191 6.248898,55.771604 6.267294,54.878483 6.274208,54.527482 5.421178,54.104387 5.046329,53.926036 4.940252,53.93058 4.827665,53.871351 4.503391,53.936023 4.427117,53.948788 4.472777,53.684659 4.33446,53.611896 4.136096,53.506688 4.448592,52.83912 4.67784,52.3158" slic3r:type="contour"/>
    <polygon style="fill: white" points="4.294756,49.977703 4.656081,50.015868 4.43029,50.598672 4.149428,51.523712 3.589127,51.426596 2.939491,51.341348 3.139559,50.655488 3.406987,49.779924" slic3r:type="contour"/>
    <polygon style="fill: white" points="3.165827,46.42144 3.679436,46.690231 3.521164,47.144048 3.255188,47.823547 4.093925,48.35798 3.829836,48.685892 3.310417,49.319868 2.705718,48.955236 1.954395,48.45868 2.026218,48.386668 2.244997,48.137776 1.830813,47.963592 1.926667,47.711791 2.504978,46.10008" slic3r:type="contour"/>
    <polygon style="fill: white" points="2.592931,41.673703 3.03151,42.190552 2.854533,42.763135 2.572424,43.426983 2.642286,43.493012 2.630672,43.523822 3.22007,43.986792 2.978516,44.173291 2.308868,44.844124 1.809986,44.473307 1.125304,43.836656 1.169533,43.793372 1.274426,43.70573 1.25973,43.693844 1.320913,43.63221 1.085046,43.453208 1.193692,43.177176 1.917779,41.12566" slic3r:type="contour"/>
    <polygon style="fill: white" points="1.813222,38.579576 1.788405,38.659303 2.430506,39.290763 2.86141,39.651464 2.418207,39.905336 1.87076,40.369196 1.256318,39.872368 0.812371,39.392576 1.070218,39.169664 1.759434,38.715298 1.667608,38.590164 1.731159,38.533343 1.754474,38.51802" slic3r:type="contour"/>
    <polygon style="fill: white" points="2.645049,31.336498 2.637665,31.430916 3.040094,31.939959 3.158166,32.060814 2.574525,32.238258 2.559912,32.425109 2.476734,32.470654 2.778821,33.198932 2.960048,34.184768 2.75441,35.017467 2.610273,35.405754 2.647576,35.44814 2.63905,35.480241 2.844533,35.66068 2.760035,35.699032 2.540496,35.851324 2.281307,36.827228 1.808083,37.986308 1.071725,36.584156 0.803568,36.21368 1.033063,35.559904 0.995783,35.516504 1.008556,35.474579 0.8827,35.361928 0.822134,35.285219 1.137793,35.050396 1.892988,32.571685 1.779652,32.424596 1.826264,32.269155 1.378499,31.814975 1.180657,31.52619 1.748082,31.191761 2.201253,31.018691 2.534979,29.905824" slic3r:type="contour"/>
    <polygon style="fill: white" points="5.61342,20.139782 5.845391,20.495296 5.836394,20.588855 6.273237,21.120106 6.101812,21.156064 5.77078,21.271177 5.599501,23.052306 5.371849,23.346483 5.424391,23.428181 5.45292,23.465186 5.255266,23.497136 5.205704,23.561182 5.166168,23.574785 4.399883,25.029645 4.176774,25.432311 4.465132,25.868761 4.595119,26.031766 3.925722,26.147012 3.747788,26.20654 3.614389,26.447298 3.430703,26.515902 3.084853,27.926351 3.61796,28.680244 3.788809,28.87823 3.149235,29.01552 2.778346,29.167173 2.697643,29.416492 2.606182,29.456492 2.594686,29.444449 2.569793,29.408462 2.623083,29.215222 2.075405,28.587706 1.856274,28.220544 2.385909,27.97827 3.011652,27.80618 3.372477,26.497749 3.316495,26.411018 3.355134,26.235871 2.872994,25.639899 2.700036,25.32478 3.309061,25.094679 3.622069,25.025884 3.928119,23.638591 3.952998,23.433378 3.891094,23.334302 3.903809,23.232258 3.65438,22.915279 3.573768,22.76581 3.978971,22.629062 4.032245,22.201519 4.031642,21.477096 4.353605,21.206626 4.606339,20.833134 4.381471,20.472726 4.51046,20.429599 4.960083,20.310368 4.970657,20.29474 5.417091,20.145821 5.60102,19.936466" slic3r:type="contour"/>
    <polygon style="fill: white" points="7.27183,16.574598 7.339393,16.682346 7.341896,16.707961 7.694451,17.209412 7.58014,17.226424 7.397999,17.282137 7.446248,17.775928 6.842575,18.155095 6.481423,18.353603 6.792043,18.82964 6.98259,19.054694 6.52861,19.145717 5.8215,19.40665 5.348761,18.813632 5.091497,18.410046 5.629141,18.236202 5.988263,18.137779 5.943882,17.441119 5.855691,16.67373 5.840415,16.647245 5.836799,16.602635 5.795592,16.54818 5.780124,16.524803 5.829359,16.509245 5.821613,16.418085 6.481948,16.165663 7.166931,15.831226" slic3r:type="contour"/>
    <polygon style="fill: white" points="18.63056,6.715849 18.666402,6.763723 18.685254,6.761475 18.700968,6.780481 19.580288,6.768685 19.688233,6.766583 19.76129,6.669964 19.786152,6.712749 19.815889,6.764095 19.828488,6.76385 19.837109,6.777705 20.583169,6.829961 20.634622,6.833837 20.635034,6.833388 20.639136,6.833852 20.686254,6.780614 20.697554,6.805237 20.71404,6.839818 20.719208,6.840207 20.720622,6.84306 21.37652,6.917169 21.387788,6.904217 21.394529,6.919127 21.789712,6.950587 21.893743,6.964789 21.895064,6.962879 21.896459,6.96498 22.000422,6.950587 22.395022,6.918922 22.40237,6.904215 22.413922,6.917562 23.030583,6.849066 23.068805,6.844274 23.070874,6.840289 23.074924,6.840008 23.103872,6.780623 23.122285,6.801054 23.151554,6.833899 23.155146,6.833449 23.156031,6.834386 23.876647,6.784429 23.952053,6.778744 23.961517,6.763993 23.974374,6.764162 24.028808,6.669982 24.059392,6.710186 24.101567,6.765835 24.980368,6.777391 25.089831,6.779522 25.104798,6.761533 25.125997,6.76386 25.195398,6.669444 25.225573,6.722118 25.25829,6.778381 26.439616,6.908036 26.539527,6.919909 26.549239,6.910309 26.563752,6.913656 26.61247,6.860534 26.628424,6.898846 26.643162,6.932223 26.646022,6.932565 26.646052,6.932636 27.979773,7.240216 28.095094,7.26812 28.103698,7.260594 28.118662,7.266626 28.176246,7.213141 28.192095,7.261632 28.203789,7.29442 28.206268,7.29502 28.208943,7.303015 29.287165,7.73761 29.589079,7.860314 29.613842,7.840634 29.652083,7.866702 29.840806,7.714955 29.888644,7.894986 29.918155,7.994057 29.92475,7.996737 29.943985,8.065691 30.316896,8.319903 30.618522,8.517372 30.923623,8.549649 31.230983,8.621365 31.588723,8.378238 31.665244,8.72269 31.729924,8.737782 31.742357,8.785849 32.084096,8.807401 32.879041,8.978576 32.937411,9.217551 32.969884,9.548413 33.088334,9.479919 33.097669,9.640278 33.484584,9.405047 33.582645,9.845999 33.63394,9.862974 33.64404,9.905897 33.855372,9.946204 34.214024,10.079533 33.894902,10.677731 34.28552,10.780168 34.893684,11.036815 34.592016,11.418223 34.318128,11.640917 34.730948,11.744544 35.525396,12.044955 35.408544,12.225819 34.84012,12.805905 35.763603,12.841573 36.01326,12.765381 36.082039,13.197609 36.185952,13.226287 36.274196,13.256435 36.133836,13.49804 36.234718,14.532046 36.690855,14.63728 37.140576,14.757214 36.92882,15.148048 36.54274,15.796487 36.516312,15.840875 35.454016,15.579315 35.20998,15.504198 35.420866,15.049992 35.187083,15.046389 34.950912,15.053474 34.95838,14.502753 34.943853,14.153518 34.905131,14.141278 34.901588,14.080397 34.025508,13.885317 34.226668,13.478305 34.501763,12.918534 33.657222,12.657887 33.244478,12.847466 33.196587,12.607995 33.178832,12.510246 33.153044,12.502287 33.142756,12.461716 32.75115,12.374772 32.882998,12.253399 33.028317,12.010397 32.997596,11.889241 32.943253,11.606969 32.875344,11.584145 32.829678,11.450356 31.497218,11.096425 32.046339,10.801765 32.165495,10.658058 31.590411,10.514569 31.495944,10.647977 31.275074,10.882543 31.106308,10.492694 31.077672,10.386635 31.06616,10.383763 31.042825,10.347654 30.22372,10.147137 30.603063,10.000989 30.683572,9.896292 29.426429,9.655888 29.383602,9.647954 29.346296,9.672004 29.322283,9.635551 29.182046,9.606838 29.134577,9.476895 28.883581,9.072127 28.615394,9.018626 28.069127,8.907667 27.900796,9.052703 27.73508,9.176001 27.63064,9.019149 27.53799,8.792329 26.979876,8.662811 26.586243,8.5763 26.501581,8.659488 26.290012,8.849824 26.185352,8.698105 26.073109,8.463378 25.772374,8.404071 25.363183,8.335983 25.265631,8.452742 25.069918,8.685585 24.942428,8.514623 24.795838,8.271038 24.407652,8.262128 24.312713,8.406345 24.137404,8.693182 23.991745,8.520972 23.81249,8.292535 23.617743,8.311811 23.537591,8.457606 23.374084,8.793694 23.217498,8.625934 23.008539,8.40357 22.930945,8.415524 22.916477,8.442586 22.91006,8.443162 22.842634,8.563945 22.661575,8.922513 22.506103,8.752662 22.263436,8.495633 22.135239,8.669305 21.895064,8.999521 21.754915,8.812033 21.527293,8.500737 21.406275,8.630608 21.12855,8.922509 21.002235,8.713116 20.843902,8.411362 20.784083,8.402147 20.672851,8.520848 20.416042,8.793696 20.288201,8.581964 20.150986,8.313841 19.963265,8.295249 19.855618,8.428574 19.652724,8.693169 19.51745,8.500231 19.376737,8.27749 18.955109,8.287185 18.864251,8.42693 18.72024,8.685572 18.588318,8.52679 18.438721,8.348294 18.133961,8.40711 17.66353,8.485698 17.607323,8.589864 17.50007,8.849836 17.38896,8.728905 17.227434,8.57664 16.683795,8.702621 16.23007,8.802282 16.229166,8.804442 16.198347,8.810557 16.125129,8.965813 16.055046,9.176005 15.942657,9.059618 15.746101,8.900287 15.286684,8.99144 15.155331,9.018197 14.60811,9.606838 14.462503,9.637225 14.462338,9.637617 14.456008,9.638877 14.443852,9.672008 14.437814,9.642498 13.353512,9.858326 13.566434,10.147118 12.937255,10.324671 12.730322,10.366034 12.724016,10.38374 12.680014,10.397311 12.515159,10.88245 12.411648,10.570529 12.346916,10.500055 11.80653,10.666734 12.217712,11.000286 12.292849,11.096497 11.432586,11.404783 10.930878,11.515554 10.914766,11.584176 10.819599,11.62267 10.768603,11.868462 11.038917,12.374839 10.802209,12.450503 10.641643,12.480389 10.63709,12.502333 10.608494,12.512762 10.545639,12.847467 10.343901,12.731736 10.198683,12.662224 9.969445,12.745828 9.291884,12.925308 9.615897,13.582068 9.76461,13.885311 9.347323,13.992381 8.888443,14.092966 8.885006,14.141279 8.864727,14.147379 8.83923,15.053471 8.34166,15.063447 8.506527,15.394434 8.580144,15.504222 8.035187,15.60739 7.27376,15.84085 7.242842,15.785175 6.907528,15.181376 6.649566,14.757205 7.300489,14.606518 7.529714,14.548667 7.559549,13.962592 7.645468,13.443199 7.571254,13.323042 7.51592,13.256419 7.683488,13.209341 7.693607,13.095412 7.776814,12.765456 8.156222,12.68369 9.000306,12.807575 8.748407,12.44029 8.264702,12.04501 8.811255,11.893287 9.549535,11.659948 9.569618,11.609282 9.297975,11.278798 8.896428,11.036823 9.834578,10.755634 9.895018,10.609221 9.940926,10.596718 9.952902,10.537141 9.785515,10.254312 9.576102,10.079533 10.126217,9.950005 10.156188,9.862973 10.195967,9.853627 10.207939,9.796678 10.305535,9.405069 10.573975,9.585503 10.699407,9.664508 10.701822,9.479949 10.857039,9.572433 10.911148,8.978549 12.030482,8.843339 12.060184,8.737774 12.100136,8.731935 12.20135,8.378248 12.540828,8.619483 12.59847,8.659115 13.036942,8.595041 13.835806,8.066101 13.949323,7.714953 14.061979,7.806658 14.13663,7.866921 14.176323,7.84064 14.201563,7.860982 15.399739,7.377005 15.579716,7.303942 15.61394,7.213137 15.646717,7.243336 15.671791,7.266563 15.686482,7.260599 15.696121,7.269108 17.035263,6.960003 17.143557,6.93383 17.144102,6.932561 17.144761,6.932489 17.177656,6.860533 17.204304,6.888741 17.227326,6.913584 17.240896,6.910304 17.251531,6.920842 18.393803,6.796225 18.529836,6.780006 18.5947,6.669436" slic3r:type="contour"/>
    <polygon style="fill: white" points="37.866892,16.369331 37.968556,16.418153 37.960916,16.511269 38.010028,16.524825 37.953975,16.595887 37.949764,16.647222 37.939919,16.664057 37.811232,18.153237 38.320063,18.313967 38.69864,18.410044 38.401623,18.758338 37.968784,19.406646 37.176884,19.19784 36.807536,19.054724 37.124655,18.538466 37.308299,18.304197 36.857696,18.00872 36.343856,17.775894 36.399684,17.531973 36.413126,17.308547 36.09564,17.20935 36.166448,17.06169 36.574762,16.41973 36.623064,15.831237" slic3r:type="contour"/>
    <polygon style="fill: white" points="38.453165,20.180128 38.81958,20.294734 38.855587,20.340079 39.408656,20.472726 39.333167,20.556844 39.193923,20.766151 39.758488,21.477119 39.848939,22.672334 40.07812,22.743582 40.216332,22.765762 39.885243,23.152047 39.899032,23.334258 39.882119,23.359346 40.228003,25.078211 40.792067,25.273474 41.090088,25.32476 40.698931,25.777314 40.438877,26.203366 40.473668,26.410875 40.419031,26.488575 40.785425,27.807698 41.575408,28.139332 41.933848,28.220584 41.538987,28.652322 41.172895,29.202699 41.183107,29.239469 41.220536,29.408218 41.184088,29.45634 41.165536,29.45042 41.092427,29.416273 41.037109,29.19464 40.220207,28.976374 40.001311,28.878234 40.390695,28.28214 40.713476,27.898008 40.370659,26.524525 40.175603,26.447188 40.079939,26.252846 39.385619,26.101354 39.195004,26.031786 39.577043,25.41244 39.631532,25.341912 39.16654,24.397286 38.659702,23.588547 38.58454,23.561224 38.551297,23.514774 38.383488,23.480492 38.337212,23.465178 38.419159,23.330142 38.336148,23.214154 38.190536,23.052044 38.165116,21.99212 38.066402,21.321526 37.516872,21.120084 37.629979,20.946124 37.950915,20.536977 37.944784,20.495324 38.128604,20.197803 38.189537,20.117641 38.1891,19.936568" slic3r:type="contour"/>
    <polygon style="fill: white" points="41.624534,31.051852 42.315752,31.42742 42.609476,31.526238 42.092232,32.034467 41.957753,32.211138 42.010467,32.424608 41.920837,32.53068 42.362556,33.796748 42.692998,35.113089 42.886552,35.24638 42.967996,35.28526 42.777975,35.451599 42.794296,35.516616 42.769638,35.542785 42.87754,35.816843 42.986564,36.213832 42.554843,37.242636 41.982044,37.986308 41.301492,35.928872 40.94558,35.660676 41.012576,35.58532 41.148051,35.46499 41.142492,35.448184 41.198289,35.3784 40.830096,34.1851 41.388967,32.580258 41.403647,32.527308 41.230244,32.425132 41.2314,32.307519 40.758952,32.136058 40.631968,32.060836 41.113876,31.39489 41.241682,31.261075 41.255004,29.905336" slic3r:type="contour"/>
    <polygon style="fill: white" points="42.122524,38.59016 42.063912,38.682232 42.026879,38.719953 42.447144,39.060456 42.977755,39.39252 42.617616,39.681735 41.919548,40.369076 41.231364,39.933096 40.928728,39.6514 41.300931,39.252632 42.006267,38.658619 41.976904,38.579576 42.014428,38.53628 42.035652,38.51802" slic3r:type="contour"/>
    <polygon style="fill: white" points="42.296619,42.140127 42.705084,43.453216 42.641119,43.53058 42.484243,43.649883 42.53042,43.693832 42.510873,43.711177 42.664832,43.8366 42.5853,43.896067 41.481164,44.844092 40.988648,44.439452 40.570048,43.986808 40.793715,43.787212 41.153181,43.505883 41.147832,43.493011 41.241814,43.396577 40.758611,42.190528 41.210268,41.823915 41.872432,41.125712" slic3r:type="contour"/>
    <polygon style="fill: white" points="41.594704,46.899356 41.959308,47.963732 41.861416,48.026519 41.57083,48.152721 41.83576,48.458668 41.672883,48.557488 40.479664,49.319912 40.021776,48.753248 39.6962,48.358012 39.99568,48.203731 40.555284,47.842016 40.110687,46.6903 40.549472,46.477703 41.285067,46.10016" slic3r:type="contour"/>
    <polygon style="fill: white" points="40.639311,50.665327 40.850652,51.3413 40.469416,51.410571 39.640791,51.523684 39.3402,50.684568 39.134044,50.015851 39.865407,49.847256 40.38316,49.77994" slic3r:type="contour"/>
    <polygon style="fill: white" points="39.556727,53.283871 39.654028,53.506688 39.318006,53.683815 39.350144,53.8698 39.363004,53.948792 38.968076,53.868274 38.849875,53.93058 38.76213,53.923656 37.51604,54.531033 37.534819,55.444331 37.541168,55.771632 36.841544,55.516948 36.380248,55.34798 36.341032,54.12192 36.34224,53.987444 37.06123,54.242296 37.022163,53.652827 36.973008,53.355752 37.541591,53.105836 37.946652,52.898789 37.844472,52.438468 37.953976,52.431624 38.721801,52.533411 39.112284,52.3158" slic3r:type="contour"/>
    <polygon style="fill: white" points="35.120639,55.637279 35.58222,55.9119 35.47692,56.732296 35.431555,57.2547 34.972271,57.008299 34.32928,56.671656 34.427492,55.716911 34.48024,55.316927" slic3r:type="contour"/>
    <polygon style="fill: white" points="32.760932,56.684496 33.38729,57.144656 33.253566,57.722083 33.13124,58.460784 32.927241,58.310831 32.085646,57.75712 32.202006,57.125592 32.360874,56.431392" slic3r:type="contour"/>
    <polygon style="fill: white" points="30.342732,57.514248 31.028763,58.088653 31.058044,58.085264 31.119507,58.129236 31.218566,58.115788 31.098309,58.428773 30.88393,59.160055 30.85032,59.21494 30.79684,59.451967 30.789108,59.445155 30.734852,59.403504 30.679302,59.49422 28.718456,59.674072 28.582038,60.067231 28.536838,60.222548 28.022737,59.737885 27.928632,59.746516 27.893198,59.715211 26.724619,59.805303 26.415772,60.541799 26.31331,60.814824 25.767721,60.224195 25.443524,59.901124 25.893786,58.759235 25.919098,58.700799 26.325174,59.102269 26.594004,58.778951 26.779121,58.474012 27.610234,58.420035 27.90757,58.392848 27.998126,58.134091 28.053436,58.182948 28.243,58.362176 28.247728,58.361744 28.269738,58.379954 28.989878,58.324604 29.892775,58.220116 30.144486,57.365412" slic3r:type="contour"/>
    <polygon style="fill: white" points="24.422983,59.697139 24.697766,60.032896 24.270744,60.861447 24.104602,61.199648 23.65415,60.622648 23.306974,60.200452 23.81737,59.185651 23.891054,59.047168" slic3r:type="contour"/>
    <polygon style="fill: white" points="20.26642,59.791448 20.483152,60.200472 19.93167,60.904075 19.685524,61.199652 19.32866,60.508604 19.092362,60.032976 19.804671,59.162496 19.899045,59.047168" slic3r:type="contour"/>
    <polygon style="fill: white" points="22.331166,59.852507 22.594737,60.250388 22.118444,60.994471 21.895064,61.339099 21.507131,60.732663 21.19539,60.250384 21.79234,59.325007 21.895064,59.17032" slic3r:type="contour"/>
  </g></svg>