<svg width="43.790126" height="63.590156" xmlns="http://www.w3.org/2000/svg" xmlns:svg="http://www.w3.org/2000/svg" xmlns:xlink="http://www.w3.org/1999/xlink" xmlns:slic3r="http://slic3r.org/namespaces/slic3r"><g xmlns="http://www.w3.org/2000/svg" slic3r:z="5.31349999999998e-005" id="layer160">
    <polygon style="fill: white" points="17.247533,17.181105 17.37114,17.329258 17.597539,17.349641 17.678092,17.350236 17.695226,17.350334 17.695225,17.350334 17.668582,17.371545 17.823094,17.929836 17.92393,18.336518 17.274478,18.239928 16.942442,18.185423 16.932668,18.203238 16.752126,18.154181 16.362436,18.090212 16.312597,18.034793 15.51448,17.831322 15.169586,17.427474 14.802395,16.971744 16.242534,17.198551 16.537454,16.664187 16.625005,16.489727" slic3r:type="contour"/>
    <polygon style="fill: white" points="19.041575,16.793891 19.26137,17.090764 18.634012,18.174387 18.606328,18.22614 17.995786,17.477204 17.859904,17.293988 18.380425,16.430863 18.53172,16.146657" slic3r:type="contour"/>
    <polygon style="fill: white" points="20.725048,16.626126 20.964642,16.986648 20.349347,17.977066 20.289494,18.081908 19.737444,17.338332 19.567006,17.083004 20.074836,16.303783 20.260866,15.975538" slic3r:type="contour"/>
    <polygon style="fill: white" points="22.36343,16.620512 22.595708,16.997048 21.961405,17.93805 21.895064,18.046798 21.369496,17.283302 21.194412,16.997052 21.696898,16.26353 21.895064,15.931667" slic3r:type="contour"/>
    <polygon style="fill: white" points="24.011262,16.721904 24.223128,17.083193 23.563315,17.987632 23.500604,18.081892 22.997446,17.28764 22.825486,16.986674 23.326732,16.286879 23.52931,15.975546" slic3r:type="contour"/>
    <polygon style="fill: white" points="25.774606,17.010602 25.930246,17.293892 25.214013,18.185222 25.183824,18.226124 24.677206,17.368406 24.528732,17.090681 25.074968,16.398461 25.25842,16.146664" slic3r:type="contour"/>
    <polygon style="fill: white" points="27.552305,17.197223 27.97058,17.130785 28.987734,16.971744 28.86975,17.109823 28.275646,17.831321 27.46999,18.042615 27.42765,18.09023 27.078304,18.145338 26.857469,18.203256 26.845567,18.182054 25.86635,18.336526 26.021164,17.784511 26.12201,17.372439 26.0949,17.350334 26.110212,17.350223 26.127472,17.350121 26.126114,17.355671 26.420472,17.329777 27.047671,16.633028 27.165122,16.489726" slic3r:type="contour"/>
  </g></svg>