<svg width="43.790126" height="63.590156" xmlns="http://www.w3.org/2000/svg" xmlns:svg="http://www.w3.org/2000/svg" xmlns:xlink="http://www.w3.org/1999/xlink" xmlns:slic3r="http://slic3r.org/namespaces/slic3r"><g xmlns="http://www.w3.org/2000/svg" slic3r:z="4.42249999999998e-005" id="layer133">
    <polygon style="fill: white" points="24.259829,56.510191 24.688686,57.097692 24.418365,57.582452 24.087306,58.271056 23.860197,57.997715 23.289612,57.242776 23.636495,56.638376 23.92301,56.078752" slic3r:type="contour"/>
    <polygon style="fill: white" points="26.387988,56.231052 26.79711,56.707352 26.536112,57.284519 26.294034,57.915604 25.979052,57.604908 25.41535,56.989472 25.76633,56.278539 25.978906,55.779568" slic3r:type="contour"/>
    <polygon style="fill: white" points="28.609988,55.776944 28.947096,56.11524 28.68986,56.822359 28.533888,57.336868 28.079357,56.966227 27.590306,56.518212 27.960986,55.644911 28.089914,55.280344" slic3r:type="contour"/>
    <polygon style="fill: white" points="30.956153,55.138335 31.163948,55.320823 30.910443,56.198012 30.82965,56.539608 30.179657,56.096143 29.835414,55.82682 30.234974,54.729151 30.279658,54.576303" slic3r:type="contour"/>
    <polygon style="fill: white" points="31.890794,54.16008 33.323009,54.202494 33.48515,54.186672 34.092916,54.577308 34.388916,54.832436 33.309723,54.994378 33.213545,55.404232 33.195586,55.516832 32.337467,55.047627 31.780514,55.050179 31.724554,55.057303 31.715158,55.058491 31.717823,55.054136 31.730419,55.03359 31.621947,54.607603 31.46888,54.09264" slic3r:type="contour"/>
    <polygon style="fill: white" points="39.316887,46.884567 39.320701,46.923198 39.389595,47.179685 39.947535,47.786831 40.04484,47.890196 39.564825,48.24646 39.572055,48.586963 39.605608,49.012243 39.017687,48.929639 38.638755,48.78738 38.464992,47.539895 38.502876,47.518365 38.305784,47.124555 38.467587,47.07202 39.294212,46.893922 39.314155,46.873708 39.315956,46.871604" slic3r:type="contour"/>
    <polygon style="fill: white" points="40.275188,42.792956 40.235851,42.825053 40.466599,43.020207 41.051212,43.469248 40.750219,43.733848 39.904048,44.40682 39.413947,43.883507 39.015128,43.550688 39.378772,43.286299 40.057501,42.816831 40.038724,42.742356 40.092971,42.6951 40.128924,42.667984" slic3r:type="contour"/>
    <polygon style="fill: white" points="41.160124,38.60678 41.46844,38.782176 40.866744,39.251659 40.695848,39.408685 40.718192,39.509544 40.682822,39.540319 41.008364,40.561044 41.257784,41.611928 40.9371,41.9798 40.122812,42.555728 39.553963,40.533299 39.323556,39.76542 39.798658,39.368516 39.758443,39.34022 39.78251,39.300131 39.460383,39.112935 39.376636,39.050788 39.975,38.496647 40.452259,38.109632" slic3r:type="contour"/>
    <polygon style="fill: white" points="40.585992,33.907168 40.563396,33.964517 40.784263,34.094959 41.414012,34.392432 41.235244,34.537575 40.432488,35.328364 39.81316,35.032791 39.350432,34.746023 39.651288,34.454224 40.244137,33.938613 40.22836,33.880296 40.300383,33.803104 40.339208,33.767432" slic3r:type="contour"/>
    <polygon style="fill: white" points="39.463992,26.374692 39.476843,26.420204 39.6386,26.491198 40.307728,26.727844 40.192907,26.840096 39.744081,27.36663 39.909711,27.953211 40.346273,30.09334 40.568612,30.199402 40.567939,30.23572 40.983456,30.40152 40.914508,30.461899 40.556636,30.845239 40.539116,31.79011 40.245712,33.127458 40.245711,33.127458 39.81253,31.24728 39.585359,31.151946 38.960235,30.823622 39.155831,30.618916 39.576998,30.224984 39.565216,30.173844 39.709622,30.006583 39.254637,27.603912 38.946476,27.486478 38.322988,27.205068 38.530936,26.968787 39.0367,26.453036 39.024192,26.386986 39.107287,26.283818 39.144828,26.242984" slic3r:type="contour"/>
    <polygon style="fill: white" points="38.924611,23.200895 39.470396,23.366634 39.241312,23.610512 38.693764,24.331004 38.030671,24.1294 37.521295,23.931942 37.804591,23.564322 38.312008,22.9818" slic3r:type="contour"/>
    <polygon style="fill: white" points="35.361731,16.000677 35.589715,17.276418 36.269327,17.358207 36.972192,17.442058 36.868339,17.677998 36.638091,18.216512 37.639496,18.565982 37.715082,20.134803 38.165732,20.25973 38.470944,20.33085 38.062275,20.797444 37.737108,21.29955 36.779031,21.134445 36.583675,21.071908 36.85987,20.587965 36.495635,20.421041 36.262516,20.380952 36.3489,19.658616 36.274103,18.555641 35.714771,18.506289 35.077728,18.399144 35.265399,17.829234 35.550684,17.216554 34.67684,17.439863 34.368016,17.553358 34.359699,16.959819 34.156604,15.812681 34.594864,15.662624 35.288768,15.449521" slic3r:type="contour"/>
    <polygon style="fill: white" points="33.146704,14.537226 33.604972,14.555331 34.179884,14.58791 34.116771,15.025451 33.928696,15.802634 32.835203,15.762521 32.407882,16.026662 32.385405,15.921709 32.336586,15.744232 32.327187,15.743887 32.323658,15.732842 31.86047,15.734446 31.871813,15.485858 31.897902,14.536304 31.932099,14.536264 31.893108,14.4214 32.628336,13.906998 32.863172,13.697808" slic3r:type="contour"/>
    <polygon style="fill: white" points="30.57748,12.822292 31.169862,14.06581 30.540059,14.680681 30.26781,14.944923 30.025418,14.358422 29.673114,13.494866 29.600297,13.500726 29.595608,13.521052 29.578476,13.520996 29.576065,13.515674 29.574242,13.511238 29.648529,13.434603 29.643695,13.422757 30.002413,13.101826 30.475464,12.575981" slic3r:type="contour"/>
    <polygon style="fill: white" points="21.989502,10.606514 22.33868,11.177941 22.404363,11.080076 22.809822,10.494877 22.9179,10.700243 23.277511,11.361656 23.432576,11.154263 23.811116,10.642949 23.965528,10.962152 24.350497,11.723507 24.678467,11.314779 24.987286,10.897875 25.22511,11.408925 25.655389,12.269277 26.231567,11.573105 26.43726,11.275341 26.811735,12.078924 26.880625,12.211814 26.900074,12.211886 26.904862,12.221321 27.604833,12.203234 27.978284,12.206512 28.207144,11.941965 28.292488,11.811582 28.477627,12.210896 28.497177,12.211068 28.500571,12.217707 28.784778,12.211663 29.45765,12.226356 29.48081,12.64499 29.363042,13.449213 28.851988,13.458164 28.70097,13.627649 28.183863,14.19815 28.05538,13.918783 27.856535,13.4756 27.801604,13.476562 27.778239,13.427676 26.50776,13.460412 26.324536,13.674972 26.288756,13.599286 26.227941,13.467622 26.214736,13.467962 26.209482,13.456881 25.51504,13.468514 25.452716,12.968956 25.384817,12.573462 24.910353,13.202372 24.847582,13.286047 24.491414,12.512167 24.317228,12.12923 23.835371,12.80469 23.682908,13.020514 23.375113,12.364106 23.241752,12.086853 22.93582,12.560245 22.733326,12.873214 22.43951,12.292149 22.328168,12.080909 22.114694,12.45215 21.895064,12.826788 21.586039,12.283317 21.46802,12.082078 21.256935,12.493038 21.0568,12.873222 20.706532,12.330883 20.550254,12.089306 20.254479,12.713941 20.107198,13.020497 19.692916,12.442351 19.471947,12.12971 19.002957,13.153327 18.94253,13.286069 18.415072,12.588474 18.340227,13.137704 18.27515,13.468508 17.742707,13.464884 17.578952,13.460241 17.575378,13.467963 17.561348,13.467866 17.465592,13.674972 17.414244,13.613244 17.288751,13.465991 16.637282,13.461509 16.005104,13.440398 15.988435,13.476534 15.930398,13.476848 15.60629,14.198129 15.410296,13.976969 14.946482,13.464276 14.426424,13.449142 14.42555,12.669984 14.332644,12.226288 15.285184,12.227774 15.398542,11.978174 15.497613,11.811579 15.860071,12.219742 16.87341,12.235307 17.145817,11.644637 17.352886,11.275346 17.744696,11.741614 18.135275,12.27037 18.537748,11.402063 18.802846,10.897871 19.063351,11.220371 19.439503,11.714 19.671798,11.233243 19.979032,10.642963 20.148669,10.869689 20.509491,11.355402 20.629904,11.12668 20.980306,10.494888 21.094854,10.665819 21.444449,11.17601 21.503424,11.076371 21.895064,10.446752" slic3r:type="contour"/>
    <polygon style="fill: white" points="13.434712,12.680304 14.146488,13.423069 14.141098,13.43617 14.212718,13.507129 14.216059,13.511411 14.211909,13.520977 14.205581,13.52114 14.195114,13.521031 14.194093,13.508443 14.116355,13.496326 13.780645,14.312482 13.522241,14.944966 13.084967,14.517182 12.620159,14.065644 12.912786,13.344867 13.314694,12.57597" slic3r:type="contour"/>
    <polygon style="fill: white" points="11.451795,14.050318 11.897025,14.421411 11.859172,14.536744 11.892089,14.536289 11.917589,15.145715 11.929733,15.734422 11.678028,15.732492 11.466856,15.732098 11.462997,15.743857 11.458384,15.743925 11.382289,16.026654 11.288121,15.972926 10.926383,15.751799 10.763342,15.754211 9.861457,15.802635 9.738705,15.073272 9.610176,14.587951 10.606444,14.54462 10.764423,14.059093 10.926903,13.697826" slic3r:type="contour"/>
    <polygon style="fill: white" points="8.756893,15.539087 9.633514,15.812735 9.555975,16.707957 9.422096,17.553372 8.725859,17.385968 8.247168,17.221617 8.563761,18.10924 8.712414,18.399118 8.287962,18.405582 7.555298,18.531352 7.567411,19.132525 7.527702,20.380732 6.923154,20.643811 7.106806,20.944787 7.206463,21.071826 6.59948,21.13256 6.052834,21.299552 5.499469,20.628087 5.319149,20.330917 6.011213,20.135766 6.088127,20.116876 6.126929,19.423043 6.150518,18.5662 6.495851,18.474268 7.158609,18.23942 7.097932,18.100692 6.817944,17.442062 7.205829,17.395455 8.204181,17.275979 8.326601,16.280692 8.501388,15.449494" slic3r:type="contour"/>
    <polygon style="fill: white" points="5.940079,23.561988 6.268852,23.931906 5.862394,24.042905 5.096094,24.331079 4.691455,23.882227 4.319715,23.366638 4.662025,23.241668 5.477925,22.981696" slic3r:type="contour"/>
    <polygon style="fill: white" points="4.765851,26.386868 4.75331,26.46549 4.984047,26.719516 5.467141,27.205048 5.181006,27.307354 4.557844,27.581356 4.095304,30.030315 4.224955,30.173896 4.210636,30.246344 4.258367,30.294563 4.829895,30.823646 4.574364,30.922275 4.01417,31.20584 3.544436,33.127482 3.307057,30.974915 2.806672,30.40152 2.886935,30.358973 3.223203,30.214521 3.221538,30.199423 3.576213,30.022204 3.618278,29.899985 4.105856,27.471732 3.983192,27.347924 3.48239,26.72781 3.635927,26.658518 4.321097,26.399779 4.326154,26.374596 4.588689,26.261777 4.64524,26.242906" slic3r:type="contour"/>
    <polygon style="fill: white" points="3.561769,33.8803 3.546322,33.946205 3.934084,34.308659 4.439696,34.746052 4.069426,34.907247 3.357537,35.32846 2.904109,34.952544 2.376114,34.392464 2.550161,34.285752 3.223995,33.947517 3.204137,33.907176 3.400448,33.7904 3.450919,33.767424" slic3r:type="contour"/>
    <polygon style="fill: white" points="4.300935,38.959747 4.413479,39.050836 3.996608,39.275655 4.031689,39.340223 4.011942,39.35455 4.342278,39.629487 4.466572,39.765552 4.125179,41.10752 3.667663,42.555816 3.205663,42.086755 2.532353,41.612152 3.137047,39.563749 3.071925,39.509451 3.089085,39.441856 2.595862,39.05394 2.321678,38.782136 2.796616,38.434615 3.33805,38.109747" slic3r:type="contour"/>
    <polygon style="fill: white" points="3.751351,42.742296 3.733179,42.819682 4.131343,43.105207 4.77501,43.55068 4.396979,43.958555 3.88599,44.40678 3.368196,43.94092 2.738905,43.469232 2.913506,43.320319 3.552809,42.820704 3.514872,42.792916 3.625223,42.694111 3.661148,42.667924" slic3r:type="contour"/>
    <polygon style="fill: white" points="4.47947,46.876976 4.496592,46.896984 4.708356,46.968564 5.484338,47.124532 5.432742,47.260856 5.299033,47.524852 5.325106,47.539864 5.201506,48.172308 5.151332,48.787319 4.405071,48.9173 4.184523,49.012216 4.218929,48.232023 3.871715,47.966007 3.745313,47.890196 4.336604,47.245488 4.414634,47.162304 4.470084,46.926638 4.47374,46.875988 4.474172,46.871604" slic3r:type="contour"/>
    <polygon style="fill: white" points="12.210102,54.531388 12.060354,55.034624 12.072719,55.054823 12.074968,55.058492 12.063465,55.057028 12.01142,55.050444 11.470773,55.05034 11.424237,55.049939 10.689054,55.452375 10.594475,55.516816 10.47525,54.995906 10.125066,54.945712 9.40124,54.832472 9.83444,54.555847 10.30474,54.186695 10.516965,54.199462 12.321182,54.092627" slic3r:type="contour"/>
    <polygon style="fill: white" points="13.846987,55.458927 13.954703,55.826772 13.237813,56.315996 12.960466,56.539588 12.715456,55.680444 12.626161,55.320808 13.41,54.664864 13.510472,54.576303" slic3r:type="contour"/>
    <polygon style="fill: white" points="16.010691,55.984472 16.199759,56.518272 15.653749,56.962736 15.25619,57.336844 15.034288,56.719416 14.843074,56.115139 15.462038,55.52006 15.70027,55.280328" slic3r:type="contour"/>
    <polygon style="fill: white" points="18.10315,56.353148 18.374776,56.989464 17.952013,57.405112 17.496112,57.915604 17.298868,57.474912 16.993016,56.707352 17.489742,56.154735 17.811208,55.779564" slic3r:type="contour"/>
    <polygon style="fill: white" points="20.153274,56.565876 20.500544,57.242612 20.159611,57.65106 19.70286,58.271068 19.522306,57.944516 19.101458,57.097652 19.514188,56.563275 19.867088,56.078744" slic3r:type="contour"/>
    <polygon style="fill: white" points="22.19316,56.619212 22.597578,57.277412 22.304514,57.706679 21.895063,58.391612 21.709786,58.118404 21.192528,57.277476 21.556977,56.729044 21.895064,56.17762" slic3r:type="contour"/>
  </g></svg>