<svg width="43.790126" height="63.590156" xmlns="http://www.w3.org/2000/svg" xmlns:svg="http://www.w3.org/2000/svg" xmlns:xlink="http://www.w3.org/1999/xlink" xmlns:slic3r="http://slic3r.org/namespaces/slic3r"><g xmlns="http://www.w3.org/2000/svg" slic3r:z="2.50849999999999e-005" id="layer75">
    <polygon style="fill: white" points="6.450524,56.389011 6.385915,57.00175 7.451727,57.572915 7.974952,57.345004 7.977309,57.418752 7.99824,57.732872 9.742965,58.309808 9.78212,58.33701 9.78796,58.333776 9.78898,58.341589 11.539662,59.336651 11.736956,59.209572 11.800861,59.166312 11.881986,59.531223 11.895663,59.538996 11.896922,59.543516 12.886549,60.017828 13.373888,60.257454 13.775777,59.963644 13.894412,59.869708 14.111476,60.620126 14.141473,60.634876 14.148507,60.655138 15.179458,61.095 15.780956,60.596715 15.948401,60.444504 16.191172,61.135668 16.385183,61.611521 16.40354,61.619664 16.423229,61.667388 16.415729,61.674175 16.365824,61.715348 16.229576,61.699494 15.596443,62.285612 15.461122,62.401211 15.146039,61.614128 15.130839,61.571643 14.054344,61.446379 13.82194,61.431296 13.735346,61.495444 13.676584,61.485367 13.35917,61.74486 13.290981,61.796376 13.157355,61.396326 12.636397,61.306987 11.404923,61.166872 11.19332,61.057075 11.125568,61.025407 11.125344,61.025567 11.12426,61.024911 11.080081,61.053792 11.076425,61.040676 11.066599,60.997843 11.06309,60.996203 11.060484,60.986302 9.786355,60.214959 9.288739,59.941147 9.278057,59.947516 9.267917,59.939979 8.916833,60.129408 8.895478,60.02136 8.848096,59.698684 8.828294,59.687788 8.813441,59.602165 8.439031,59.323863 7.620086,58.7702 7.586155,58.785564 7.571347,58.771073 6.898668,59.033092 6.880925,58.821808 6.864549,58.259405 6.838106,58.241528 6.828717,58.078231 6.206882,57.529288 6.147207,57.54574 6.129648,57.520573 5.860459,57.593704 5.128599,57.733772 5.153231,57.42064 5.257242,56.690964 5.227113,56.664367 5.234613,56.586331 5.239102,56.559872 5.277118,56.551522 5.280303,56.52918 5.343412,56.515334 5.305446,56.467264 5.356951,56.512364 5.7682,56.422139 6.473031,56.236732" slic3r:type="contour"/>
    <polygon style="fill: white" points="5.281482,55.224484 4.979577,56.184552 4.366761,56.2218 3.750567,56.216264 3.860294,55.823428 4.14272,55.058576 4.732477,55.048272 5.362733,54.997632" slic3r:type="contour"/>
    <polygon style="fill: white" points="3.967228,53.549028 4.551335,53.602732 4.406501,53.86056 3.955294,54.715168 3.268616,54.6203 2.748872,54.523412 2.945102,54.123388 3.349266,53.44404" slic3r:type="contour"/>
    <polygon style="fill: white" points="2.855196,49.508748 3.186503,49.871218 3.462163,50.002352 3.508834,50.018548 3.419032,50.142444 3.491413,50.252891 3.598796,50.429039 3.401291,51.18106 3.170037,51.7873 3.347099,51.846311 3.967899,51.999928 3.819078,52.216216 3.228448,53.055736 2.578144,52.834288 2.065282,52.67106 2.274738,52.361235 2.674796,51.849956 2.657062,51.818524 2.682319,51.776855 1.954088,50.721987 1.567927,50.565776 1.62309,50.493551 1.71185,50.389603 1.496256,50.16534 1.633757,49.950903 2.310864,48.923528" slic3r:type="contour"/>
    <polygon style="fill: white" points="1.757639,44.764077 1.762191,44.758455 2.466261,45.46344 2.903337,45.940848 2.701493,46.232444 2.231259,46.759165 2.430593,46.875312 3.060671,47.199803 2.794837,47.548276 2.209677,48.334264 1.520701,47.933311 1.102531,47.687884 1.353799,47.355739 1.77397,46.840271 1.817578,46.768704 1.4975,46.434968 0.870974,45.835536 1.329953,45.292163 1.726801,44.802154 1.667683,44.758524 1.705142,44.709016" slic3r:type="contour"/>
    <polygon style="fill: white" points="2.085918,41.403704 2.515619,42.005288 2.321149,42.293732 1.794618,42.77992 1.925841,42.903284 1.918292,42.913545 1.980293,42.960596 2.619464,43.376944 2.314534,43.762851 1.730525,44.616692 1.017237,44.142347 0.648515,43.827324 0.906347,43.44442 1.279534,42.969987 1.273531,42.963651 1.383905,42.746384 1.086251,42.368148 0.492111,41.757372 0.948058,41.286675 1.436159,40.669884" slic3r:type="contour"/>
    <polygon style="fill: white" points="1.398391,40.544168 1.411789,40.568172 1.390243,40.596156 1.380065,40.588863 1.359945,40.569344 1.38825,40.530528" slic3r:type="contour"/>
    <polygon style="fill: white" points="1.985984,37.321272 2.399294,38.266476 2.293507,38.417724 2.052587,38.604375 2.12618,38.691068 2.085918,38.74622 2.389351,38.976172 2.216576,39.164171 1.404237,40.275072 0.792738,39.809188 0.391114,39.325136 0.586988,39.021487 0.841521,38.736472 0.80461,38.683464 0.940944,38.448406 0.415295,37.680788 0.79114,37.367152 1.465064,36.520064" slic3r:type="contour"/>
    <polygon style="fill: white" points="1.469803,36.209023 1.472786,36.219652 1.464029,36.22938 1.460331,36.226344 1.453806,36.217744 1.466497,36.201931" slic3r:type="contour"/>
    <polygon style="fill: white" points="18.328428,4.393585 18.462801,4.639056 18.8548,4.610511 18.930638,4.921613 19.142634,4.893334 19.154775,5.115631 19.296594,5.03021 19.331756,5.012453 19.512366,5.159848 19.560017,5.182406 19.652922,5.088239 19.685049,5.161366 19.712796,5.238722 20.006647,5.304625 20.124278,5.328057 20.264636,5.1451 20.320048,5.248071 20.37926,5.359629 20.720197,5.381027 20.883387,5.392313 21.036972,5.167034 21.103908,5.277047 21.181319,5.401243 21.562668,5.402886 21.738135,5.404336 21.895064,5.167128 21.966888,5.275856 22.05266,5.405529 22.435075,5.403846 22.605875,5.402438 22.753162,5.167019 22.829643,5.272818 22.91263,5.393667 23.255393,5.372022 23.411046,5.361278 23.5255,5.145107 23.599488,5.235425 23.666954,5.322702 23.981129,5.253881 24.088029,5.232471 24.137188,5.088231 24.216209,5.167689 24.433451,5.032827 24.479133,5.04862 24.478544,5.022663 24.554596,5.074708 24.581951,5.084166 24.621952,5.108146 24.704971,5.131127 24.698984,5.016186 24.647496,4.893325 25.046459,5.103192 25.071888,4.86867 24.935337,4.610498 24.935338,4.610497 25.11842,4.795711 25.396232,4.828192 25.608706,4.677425 25.651226,4.269482 25.65088,4.376958 25.893439,4.525872 26.112736,4.381448 26.289384,4.669519 26.491514,4.489122 26.579218,4.400189 26.536276,4.671071 26.753286,4.665551 27.139334,4.677639 27.237148,4.966857 27.290767,5.074393 27.578472,4.943188 27.613752,5.178264 27.646886,5.828959 27.805845,5.738501 27.91244,5.748231 28.217996,5.543281 28.47976,5.406543 28.580743,5.809233 28.813393,5.830469 29.351698,5.749703 29.364,5.827302 29.40397,5.877228 29.501324,5.811002 29.525266,5.889153 29.572925,6.088259 29.59989,6.121939 29.680876,6.376271 30.029983,6.655715 30.102423,6.667202 30.354568,6.453774 30.679132,6.201959 30.822885,6.63795 30.866912,6.788435 31.424251,6.876819 31.565748,6.894404 31.627926,6.841647 31.686428,6.855999 31.821248,6.744333 32.003656,6.594579 32.118749,6.962052 32.499509,7.055457 33.149815,7.21565 33.173153,7.197411 33.194359,7.20503 33.27705,7.143912 33.388936,7.058044 33.449333,7.296644 33.687679,7.382282 34.605709,7.717969 34.616156,7.71147 34.621818,7.714384 34.681048,7.679427 34.754744,7.633538 34.776447,7.7804 34.777544,7.780801 34.778892,7.795216 34.90872,7.862027 35.956734,8.403537 35.962628,8.401209 35.962959,8.401465 35.993327,8.390142 36.027288,8.37683 36.026371,8.439517 36.02656,8.439615 36.026143,8.450203 36.068059,8.482536 36.546468,8.845128 36.7634,9.246244 36.837286,9.348302 37.063184,9.31224 37.053512,9.366089 37.006245,9.581676 37.008156,9.584316 36.990263,9.669303 37.136391,10.04622 37.279354,10.312811 37.856764,10.332786 37.809704,10.466903 37.61711,10.942644 37.623028,10.953679 37.573347,11.082629 37.6473,11.247833 37.93558,11.28599 38.45592,11.379332 38.366663,11.552956 38.03761,12.119752 38.063576,12.177756 38.417155,12.262119 38.90488,12.396117 38.783884,12.578712 38.425208,13.070514 38.783903,13.196169 39.260332,13.367379 39.125267,13.529429 38.722623,13.980879 39.038639,14.137883 39.510132,14.363992 39.367024,14.494093 38.869328,14.923841 39.168747,15.120631 39.617103,15.417466 39.464463,15.520998 38.85673,15.90339 39.157011,16.161487 39.520372,16.508102 39.310096,16.615923 38.65418,16.905933 38.97886,17.24107 39.211116,17.535874 38.812552,17.715762 38.589063,17.797207 38.622016,18.002044 38.682666,18.28854 38.840595,18.444921 38.9185,18.546074 38.735642,18.645515 38.75838,18.72502 38.857888,19.001118 38.611652,19.281549 38.497029,19.532909 38.529816,19.559537 38.511165,19.613688 38.86954,19.842314 38.698764,19.984923 38.269094,20.396347 38.139051,20.914472 38.247928,20.982814 38.244554,21.028013 38.45733,21.239251 39.001852,21.567453 39.184952,21.654382 38.92291,21.881792 38.961944,21.938854 38.899183,22.029033 39.170176,22.212753 39.467612,22.583024 39.562624,23.47492 39.548327,23.849683 39.62132,23.889352 39.637606,24.007099 40.036384,24.172028 39.878756,24.30056 39.715599,24.570982 39.783576,25.062448 39.745702,26.21447 39.985099,26.344985 40.010812,26.553771 40.982655,27.143481 41.190544,27.236008 40.928293,27.462627 41.027368,27.578878 40.96758,27.678408 41.264275,27.805575 41.485864,28.075282 41.607192,29.342102 41.509085,30.020265 41.662988,30.127588 41.660087,30.361319 41.682396,30.37893 42.334212,30.768806 42.037739,31.02451 41.651463,31.665638 41.806344,31.872892 41.656768,32.090192 42.422603,32.557555 42.902512,33.22837 42.837416,33.813095 42.676132,34.215663 42.775836,34.316472 42.735129,34.459194 43.165028,34.824116 42.933312,35.010055 42.289356,35.872788 41.686736,35.40124 41.127068,34.681268 41.156315,34.636348 41.213798,34.583917 41.19942,34.569295 41.235148,34.502214 41.083752,34.414988 41.148628,34.212979 41.667338,32.133418 41.557747,32.065053 41.462136,31.967308 41.489546,31.736965 40.847156,31.3865 40.247576,30.831348 40.297756,30.730677 40.414953,30.607587 40.370236,30.570162 40.45374,30.382869 40.049864,30.200608 40.136912,29.100069 40.171878,28.250018 39.917131,28.048579 39.912639,27.911202 39.51302,27.744292 39.074424,27.43935 39.224779,27.122036 39.572601,26.722015 39.41998,26.596622 39.559303,26.317592 39.595296,26.27324 38.543588,25.32231 38.187452,25.103685 38.173174,24.593582 38.104808,24.549804 38.104185,24.528069 38.040015,24.502449 37.956532,24.453638 38.095149,24.213049 38.046568,22.519347 37.793723,22.35454 37.798094,22.264494 37.542647,22.145029 37.198471,21.927258 37.451283,21.567046 37.778316,21.218316 37.693104,21.086022 37.785571,20.98529 37.584243,20.441797 37.37812,20.322994 36.899312,19.96801 37.07696,19.76754 37.271796,19.598334 37.24402,19.52335 37.321671,19.463659 37.202163,18.675093 36.909212,18.428132 37.024064,18.322729 37.136719,18.243271 37.131236,18.207092 37.143303,18.200558 37.153652,17.387956 37.148493,17.23537 37.084192,17.177864 37.115191,17.154354 37.143219,17.137263 37.165188,16.746954 37.462333,16.34663 37.350415,16.259842 37.294812,16.215498 37.594647,16.097042 37.727997,15.601553 37.479172,15.449995 37.372136,15.390383 37.844545,15.142572 37.802593,14.826866 37.468531,14.669146 37.326704,14.612946 37.80725,14.26586 37.745842,14.051087 37.356095,13.915389 37.173116,13.865634 37.592623,13.465328 37.643815,13.405895 37.640305,13.3325 37.608831,13.252092 37.138348,13.137179 36.914628,13.096132 37.258428,12.672263 37.375939,12.504191 37.353528,12.380142 36.832272,12.315201 36.568548,12.290458 36.839544,11.845961 37.044618,11.487328 36.413928,11.509972 36.122184,11.520213 36.305663,11.051622 36.487494,10.610384 35.841783,10.766283 35.556072,10.825238 35.63832,10.33093 35.724092,9.954069 35.594692,9.849968 35.042728,10.120133 34.831136,10.209289 34.803792,9.698284 34.815939,9.33609 34.525386,9.182751 33.899868,9.588301 33.818232,9.639503 33.737147,9.158057 33.695941,8.827529 33.227675,8.66046 32.671856,9.057354 32.609398,9.105382 32.533938,8.71428 32.481018,8.47467 32.354257,8.450609 31.711652,8.301621 31.553225,8.418014 31.340362,8.60542 31.298528,8.387289 31.258711,8.247167 30.168925,8.137333 30.095769,8.127083 30.065686,8.155533 30.059707,8.126602 29.974698,8.122165 29.832714,7.908612 29.443698,7.285073 29.027214,7.570144 28.822174,7.75336 28.754723,7.4484 28.683968,7.227997 28.292756,7.213438 27.827909,7.187485 27.797946,7.20404 27.748048,7.203011 27.653182,7.282012 27.64412,7.200866 27.494845,7.197787 27.405036,6.923148 27.275061,6.414001 26.828922,6.584636 26.607126,6.750499 26.62793,6.427128 26.591952,6.246057 25.974069,6.280378 25.994684,6.494189 25.618514,6.421366 25.472427,6.376582 25.454601,6.498072 25.394992,6.918046 24.93,6.703256 24.793119,6.622371 24.703905,6.837241 24.580558,7.15582 24.13195,6.749555 24.077361,6.695909 24.025295,6.699792 23.862754,6.988647 23.723449,7.252274 23.351961,6.793945 23.350309,6.794295 23.317965,6.752529 23.155355,6.764654 23.146678,6.779454 23.133212,6.779593 22.967296,7.040037 22.818922,7.282437 22.490363,6.810355 22.472078,6.81155 22.455064,6.786615 22.239367,6.788849 22.236452,6.79341 22.217499,6.793214 22.051848,7.044957 21.895064,7.283159 21.57272,6.793318 21.553675,6.79341 21.549143,6.786316 21.336838,6.784125 21.318048,6.811552 21.300661,6.810259 21.134608,7.048719 20.971191,7.28244 20.649002,6.779483 20.643463,6.779456 20.632152,6.760585 20.474548,6.748873 20.439815,6.794297 20.43264,6.79282 20.24954,7.019429 20.066688,7.252276 19.774689,6.73804 19.753417,6.698865 19.74827,6.698525 19.725393,6.654818 19.438091,6.917489 19.209566,7.155829 19.003544,6.66443 18.967423,6.57386 18.715687,6.691844 18.395144,6.918065 18.332148,6.490758 18.304593,6.299258 18.244873,6.310886 17.795468,6.494207 17.83673,6.264517 17.765939,6.236123 17.70357,6.242815 17.691812,6.248522 17.691009,6.244164 17.655004,6.248027 17.639943,6.16567 17.525758,6.209867 17.538429,6.139425 17.298436,6.144637 17.288046,6.285416 17.183002,6.750499 16.712258,6.604897 16.445851,6.450956 16.380198,6.641085 16.295307,7.197787 16.163102,7.188461 16.136972,7.282011 16.075207,7.252451 16.006428,7.203061 15.992208,7.20404 15.929342,7.17345 15.417727,7.164945 15.146011,7.186625 15.08357,7.411055 14.967934,7.753368 14.627123,7.55129 14.296666,7.286711 14.103116,7.563169 13.81552,8.122117 13.735153,8.122958 13.724443,8.155516 13.704485,8.143719 13.682197,8.124907 12.807159,8.179428 12.564757,8.21672 12.44975,8.605432 12.219168,8.464182 11.99916,8.285007 11.82591,8.313641 11.323961,8.433802 11.20167,9.012145 11.180735,9.105371 10.829046,8.874047 10.533173,8.652587 10.087222,8.812755 9.984158,9.536444 9.971893,9.639477 9.598136,9.388304 9.267709,9.179129 8.953948,9.3448 8.948416,9.974456 8.958991,10.209292 8.573405,9.995051 8.218488,9.839928 8.055449,9.970735 8.165993,10.537809 8.234048,10.825248 7.79096,10.70681 7.371832,10.616875 7.324081,10.672063 7.554986,11.248298 7.667959,11.520205 7.177222,11.502339 6.751735,11.487334 7.089738,12.057378 7.221586,12.290441 6.690704,12.366283 6.441652,12.391419 6.412574,12.468098 6.745576,12.905869 6.875495,13.096132 6.309048,13.255024 6.160583,13.284138 6.142166,13.352912 6.492565,13.717422 6.616998,13.865636 6.020426,14.101818 5.911381,14.132909 5.976143,14.186487 5.973054,14.212097 6.345043,14.506393 6.463419,14.612973 5.888492,14.913082 5.877726,15.002315 5.899188,15.085014 6.306669,15.318798 6.417993,15.39039 6.041389,15.632984 6.117714,15.927105 6.170005,16.081847 6.422667,16.184768 6.495316,16.215527 6.350919,16.325513 6.420851,16.409132 6.624938,16.747001 6.64815,17.081161 6.649669,17.144211 6.705935,17.177924 6.672732,17.201718 6.649229,17.221809 6.683614,18.030207 6.669359,18.284594 6.880891,18.428116 6.746708,18.514013 6.652342,18.588263 6.651841,18.597205 6.639628,18.60681 6.614025,19.139486 6.54061,19.51931 6.546135,19.523335 6.51347,19.656908 6.890817,19.967994 6.635016,20.109175 6.356611,20.298352 6.352203,20.316375 6.033472,21.020117 6.097045,21.085978 6.009043,21.266046 6.285352,21.621548 6.591636,21.927286 6.103512,22.147394 6.010965,22.199641 5.996407,22.354536 5.84733,22.437343 5.897516,23.135915 5.721191,24.311151 5.766383,24.379706 5.833596,24.45368 5.691555,24.508677 5.685385,24.549802 5.648944,24.569214 5.658884,24.734212 5.602779,25.103446 4.92535,25.911189 4.202001,26.318343 4.370198,26.596568 4.183878,26.795251 4.359744,27.089794 4.715703,27.43932 4.18078,27.662863 3.901715,27.82024 3.872972,28.04858 3.694082,28.163176 3.801222,28.931267 3.740371,30.200326 3.584461,30.358755 3.356362,30.462641 3.419859,30.570052 3.344859,30.650766 3.542566,30.831378 3.375779,30.922667 2.310753,31.712151 2.319645,31.7542 2.32817,31.9672 2.12696,32.136001 2.496114,33.148022 2.706363,34.415096 2.655608,34.475008 2.563228,34.529761 2.590742,34.569332 2.566895,34.600126 2.663065,34.681256 2.593777,34.735611 1.500658,35.872812 0.979736,35.408612 0.625114,34.823996 0.819763,34.572244 1.042155,34.386622 1.014257,34.316452 1.183012,34.106409 0.887604,33.228435 1.310797,32.975618 2.12498,32.09068 2.087008,32.054472 1.983942,31.872797 2.141387,31.71416 1.670785,31.228046 1.4559,30.768872 1.798967,30.441892 2.141145,30.239871 2.127173,30.127609 2.396242,29.895692 2.391749,29.501151 2.304225,28.075328 2.887357,27.840332 2.762733,27.578876 2.81003,27.539062 2.65802,27.371768 2.599557,27.236011 3.211028,26.776276 3.801317,26.513034 3.805098,26.34497 3.956145,26.240639 4.060477,26.198123 4.123655,24.851853 4.012561,24.734257 3.753742,24.172072 3.956146,24.028047 4.166466,23.939603 4.168822,23.889404 4.28892,23.807442 4.322557,22.58294 4.932037,22.130749 4.828164,21.938786 4.838323,21.926842 4.681532,21.769426 4.605191,21.654368 5.017729,21.357138 5.552778,21.085226 5.54223,20.982794 5.638256,20.925033 5.490498,20.391212 5.186421,20.123175 4.920588,19.842306 5.055961,19.739096 5.265876,19.600245 4.93222,19.001134 5.05203,18.620529 4.958187,18.572324 4.871598,18.54605 5.082485,18.363543 5.187471,17.750549 4.87812,17.616158 4.578991,17.53583 4.780494,17.341661 5.163615,16.902538 4.702158,16.672011 4.269743,16.508077 4.41469,16.38619 4.948861,15.901615 4.625054,15.685187 4.173034,15.417433 4.329629,15.3146 4.928094,14.919787 4.683626,14.700086 4.279976,14.363987 4.47544,14.266531 5.075182,13.973837 4.873796,13.736387 4.529806,13.367358 4.75532,13.288625 5.37866,13.067415 5.185078,12.782835 4.885261,12.396117 5.114124,12.342831 5.725904,12.185337 5.75744,12.099258 5.59786,11.799007 5.334192,11.37939 5.527717,11.355476 6.087232,11.267373 6.194068,11.022235 6.167157,10.953835 6.184644,10.914895 6.146766,10.810819 5.933342,10.332807 6.066597,10.335278 6.447336,10.32992 6.634249,9.913692 6.788212,9.613175 6.781999,9.584414 6.791817,9.568694 6.726949,9.312218 6.77504,9.321741 6.924159,9.34782 6.925856,9.344508 6.931279,9.345388 7.243797,8.844993 7.764242,8.449301 7.763567,8.439615 7.765988,8.438368 7.76284,8.376831 7.834232,8.40324 7.904036,8.367309 9.011603,7.795321 9.01259,7.780804 9.015676,7.779694 9.024423,7.719658 9.035378,7.633542 9.171003,7.713 9.173969,7.711468 9.185508,7.71859 9.387707,7.64584 10.343092,7.297313 10.344479,7.288514 10.345075,7.288368 10.368315,7.195959 10.40117,7.058057 10.599417,7.203805 10.616949,7.197409 10.641255,7.215678 11.05819,7.113352 11.677452,6.960959 11.72306,6.814133 11.78645,6.594594 12.102092,6.85646 12.162145,6.841682 12.210106,6.881199 12.949268,6.768402 13.018864,6.553207 13.11098,6.201952 13.40231,6.453285 13.640767,6.645509 14.19732,6.111274 14.250019,6.032235 14.288776,5.810999 14.358847,5.869014 14.438396,5.749706 15.272355,5.743669 15.299911,5.627899 15.310338,5.406565 15.719518,5.702662 15.784494,5.739962 15.984323,5.738515 16.115365,5.819566 16.219843,5.596733 16.234729,5.496257 16.211656,4.943189 16.335389,5.014242 16.463786,5.076449 16.650767,4.677649 17.097728,4.681784 17.116938,4.536119 17.210908,4.400186 17.437377,4.595616 17.677416,4.381447 17.822378,4.450787 18.138894,4.26948" slic3r:type="contour"/>
    <polygon style="fill: white" points="42.328704,36.206004 42.336316,36.217803 42.326095,36.229444 42.322216,36.226136 42.317336,36.219712 42.323628,36.201992" slic3r:type="contour"/>
    <polygon style="fill: white" points="42.9619,37.055108 43.374832,37.680871 43.192732,38.132267 42.891206,38.549616 42.985532,38.68352 42.925584,38.786303 43.399012,39.325136 43.077471,39.55858 42.385996,40.275244 41.8317,39.676556 41.400755,38.97626 41.502263,38.861276 41.686528,38.716678 41.663984,38.691084 41.764994,38.544998 41.390811,38.266348 41.581127,37.960128 42.325196,36.519796" slic3r:type="contour"/>
    <polygon style="fill: white" points="42.412611,40.541727 42.430212,40.569316 42.398473,40.597401 42.378364,40.568144 42.401908,40.5305" slic3r:type="contour"/>
    <polygon style="fill: white" points="42.983319,41.321283 43.298016,41.757356 42.974788,42.221891 42.414418,42.787342 42.51664,42.963671 42.497728,42.985921 42.649855,43.198675 43.141611,43.827352 42.669604,44.134703 42.0596,44.616692 41.511684,43.925624 41.17066,43.376924 41.404447,43.187344 41.916204,42.848261 42.022536,42.735469 41.85574,42.522216 41.274508,42.005319 41.676551,41.54336 42.353916,40.669828" slic3r:type="contour"/>
    <polygon style="fill: white" points="42.097972,44.724372 42.122468,44.758528 42.06349,44.800527 42.632215,45.474111 42.919163,45.835568 42.54926,46.243259 41.979462,46.782467 42.014143,46.836895 42.009063,46.842923 42.224672,47.120564 42.687612,47.687816 42.234587,47.951284 41.580376,48.334251 41.093299,47.695651 40.729476,47.199776 40.971347,47.05274 41.573715,46.736157 41.41568,46.525927 40.886804,45.940832 41.352152,45.471771 42.027948,44.758432 42.035068,44.766865 42.085012,44.709016" slic3r:type="contour"/>
    <polygon style="fill: white" points="41.875799,49.543227 42.293856,50.165328 42.188375,50.279728 42.075684,50.396092 42.222176,50.56582 42.121144,50.617567 41.842773,50.738373 41.566684,51.169335 41.114836,51.790558 41.13306,51.81852 41.110729,51.863216 41.341335,52.190223 41.724844,52.671068 41.347815,52.801156 40.561676,53.055735 40.187952,52.5143 39.822228,51.999924 40.034252,51.925287 40.638447,51.760738 40.359528,50.893312 40.191335,50.42904 40.372833,50.144746 40.309659,50.057595 40.281299,50.018548 40.637159,49.837041 41.479268,48.923476" slic3r:type="contour"/>
    <polygon style="fill: white" points="40.7621,54.066568 41.041252,54.523436 40.618907,54.576224 39.834772,54.715088 39.519023,54.146231 39.23882,53.602712 39.527124,53.549759 40.440976,53.44412" slic3r:type="contour"/>
    <polygon style="fill: white" points="38.682036,54.999524 39.647415,55.058547 39.831488,55.674012 40.03956,56.21628 39.667264,56.185912 38.810604,56.184552 38.620656,55.639819 38.427388,54.997636" slic3r:type="contour"/>
    <polygon style="fill: white" points="37.479823,56.271283 38.43701,56.510947 38.484523,56.46756 38.484524,56.46756 38.448426,56.513805 38.509736,56.529156 38.51165,56.550029 38.550992,56.55984 38.562988,56.664372 38.525404,56.699932 38.55832,57.058712 38.661548,57.733752 38.389219,57.653215 37.672032,57.508433 37.642892,57.545764 37.603107,57.533386 36.957789,58.110921 36.952064,58.241528 36.906711,58.27414 36.89146,59.033096 36.71846,58.949552 36.235901,58.756984 36.204016,58.78552 36.198942,58.783086 35.996904,58.928367 34.970766,59.632705 34.96184,59.687736 34.931969,59.705205 34.873324,60.129408 34.788243,60.076023 34.535262,59.93722 32.887971,60.90064 32.728652,60.989819 32.727036,60.996203 32.722246,60.998594 32.710042,61.053792 32.69998,61.046332 32.668476,61.025441 32.385201,61.166872 30.618837,61.415915 30.521021,61.717712 30.499146,61.796376 30.126224,61.485371 30.05478,61.495444 29.998836,61.453461 28.638883,61.594315 28.385958,62.239607 28.329006,62.401212 27.743805,61.848791 27.573747,61.702104 27.424434,61.715376 27.366932,61.667331 27.370254,61.658047 27.386656,61.619524 27.407012,61.610987 27.749236,60.663931 27.84174,60.444504 28.447452,60.93988 28.627007,61.099403 29.633386,60.677393 29.648654,60.634864 29.664416,60.627389 29.845221,60.017768 29.895714,59.86968 30.436988,60.261024 31.190559,59.903668 31.890517,59.552722 31.894485,59.538976 31.903506,59.533963 31.969872,59.241863 31.989292,59.166284 32.257022,59.337514 32.612002,59.140251 34.000856,58.342031 34.00214,58.333812 34.008225,58.337052 34.046872,58.309984 35.300391,57.937068 35.784132,57.75704 35.815176,57.345004 35.889327,57.374059 36.413718,57.597119 36.491939,57.5637 37.396574,57.055998 37.388696,56.998944 37.317068,56.236724" slic3r:type="contour"/>
    <polygon style="fill: white" points="26.341957,61.356355 26.703668,61.727608 26.277742,62.629299 26.176802,62.855796 25.672116,62.308388 25.325665,61.96288 25.690721,61.145456 25.83163,60.869379" slic3r:type="contour"/>
    <polygon style="fill: white" points="24.275899,61.617863 24.64548,62.059972 24.183004,62.876387 24.034664,63.140796 23.598025,62.589271 23.253308,62.182748 23.666884,61.439227 23.853558,61.13204" slic3r:type="contour"/>
    <polygon style="fill: white" points="18.223515,61.477167 18.464452,61.962856 17.794761,62.676428 17.613318,62.855796 17.279748,62.157916 17.08648,61.7276 17.75507,61.082339 17.958508,60.869379" slic3r:type="contour"/>
    <polygon style="fill: white" points="20.233754,61.674388 20.536778,62.182735 19.955473,62.9066 19.755462,63.140792 19.400934,62.516148 19.144664,62.059908 19.715021,61.399748 19.936568,61.13204" slic3r:type="contour"/>
    <polygon style="fill: white" points="22.242052,61.722776 22.593538,62.217556 22.083223,62.972572 21.895064,63.2404 21.510497,62.666499 21.19657,62.217616 21.67711,61.528059 21.895064,61.22294" slic3r:type="contour"/>
  </g></svg>