<svg width="43.790126" height="63.590156" xmlns="http://www.w3.org/2000/svg" xmlns:svg="http://www.w3.org/2000/svg" xmlns:xlink="http://www.w3.org/1999/xlink" xmlns:slic3r="http://slic3r.org/namespaces/slic3r"><g xmlns="http://www.w3.org/2000/svg" slic3r:z="3.69649999999999e-005" id="layer111">
    <polygon style="fill: white" points="24.120431,60.043996 24.691768,60.742116 24.489429,61.134712 24.108206,61.910732 24.00801,61.782388 23.290368,60.909679 23.524551,60.44406 23.888324,59.76038" slic3r:type="contour"/>
    <polygon style="fill: white" points="26.21386,59.69196 26.79608,60.288804 26.589612,60.781159 26.317008,61.507548 26.14788,61.324456 25.417252,60.59636 25.640572,60.030007 25.914994,59.396484" slic3r:type="contour"/>
    <polygon style="fill: white" points="28.412648,59.177292 28.935884,59.642956 28.716688,60.274679 28.536398,60.89422 28.258166,60.63192 27.584048,60.059887 27.808425,59.34152 27.99287,58.83" slic3r:type="contour"/>
    <polygon style="fill: white" points="30.719465,58.504959 31.132719,58.834635 30.895583,59.643536 30.787518,60.109152 30.361434,59.748784 29.805472,59.331296 30.038165,58.412216 30.138132,58.089048" slic3r:type="contour"/>
    <polygon style="fill: white" points="34.639548,56.189684 35.240578,56.547269 35.252764,56.544968 35.264796,56.551054 36.12668,56.301892 35.916868,57.425011 35.83528,57.777152 35.429763,57.886827 35.411724,58.000767 35.40668,58.047304 35.228757,57.94119 35.195444,57.9502 35.158936,57.931086 33.318305,58.242646 33.160471,58.901016 33.112024,59.1711 32.488788,58.709876 32.101374,58.454168 32.334402,57.274267 32.353055,57.200724 32.730062,57.434402 32.848763,57.142064 32.897784,56.934512 33.80518,56.818439 34.401314,56.705821 34.479912,56.109828" slic3r:type="contour"/>
    <polygon style="fill: white" points="36.741319,54.951392 37.498728,55.268052 37.509632,55.798244 37.525788,56.631508 37.337904,56.563112 36.373908,56.210015 36.356336,55.660624 36.363892,54.817612" slic3r:type="contour"/>
    <polygon style="fill: white" points="38.556064,53.41564 39.125231,53.533192 39.258135,54.302291 39.354299,54.892988 38.920104,54.804468 38.168576,54.6748 37.985947,53.853659 37.908672,53.325824" slic3r:type="contour"/>
    <polygon style="fill: white" points="40.992247,51.236015 41.265268,51.669084 40.588493,52.080234 40.730544,52.530472 40.797808,52.74242 40.015416,52.768707 39.59112,52.786256 39.118372,51.505175 39.115016,51.494508 39.149821,51.491635 39.130256,51.459375 39.818031,51.082856 40.556888,50.600392" slic3r:type="contour"/>
    <polygon style="fill: white" points="41.627743,49.244519 41.89664,49.886 41.5597,50.027335 40.712836,50.303408 40.35724,49.482112 40.063768,48.812276 40.710007,48.574536 41.261632,48.380448" slic3r:type="contour"/>
    <polygon style="fill: white" points="42.26954,45.328964 42.671828,46.377703 42.578503,46.460516 42.334973,46.612295 42.387376,46.670392 42.363572,46.6862 42.579892,46.913291 42.413499,47.035452 41.322708,47.914004 40.817864,47.38266 40.488272,46.955144 40.748075,46.74566 41.216212,46.381668 40.755168,45.397392 41.130964,45.159327 41.900144,44.556564" slic3r:type="contour"/>
    <polygon style="fill: white" points="42.92954,37.855472 43.313748,38.095824 42.783967,38.523316 42.416241,38.903663 42.473428,39.111904 42.369528,39.214208 42.842075,40.239855 43.197388,41.3322 43.036944,41.584244 42.716655,41.910487 42.82042,42.010884 42.765032,42.074583 43.129864,42.36578 42.950623,42.506028 42.013552,43.378688 41.48788,42.967608 41.083308,42.513643 41.317147,42.273704 41.727092,41.934641 41.710652,41.89742 41.833921,41.766198 41.225288,40.337884 41.802955,39.733228 42.214334,39.165741 42.123948,39.081612 42.185445,38.960374 41.502971,38.537567 41.297256,38.34074 41.757244,37.80998 42.30614,37.337788" slic3r:type="contour"/>
    <polygon style="fill: white" points="38.983824,20.26073 39.510072,20.360756 39.317632,20.574133 38.951125,21.164094 39.921164,22.297341 40.066904,22.337832 40.088873,22.371954 40.30608,22.40681 40.2741,22.444121 40.207532,22.556247 40.585268,23.142924 40.916469,24.656756 41.088972,24.711208 41.194072,24.723866 40.98736,24.980774 41.013552,25.10049 40.987769,25.142731 41.260676,25.918076 41.628714,27.254925 41.914507,27.369773 42.069132,27.39945 41.765987,27.753551 41.809008,27.909818 41.760282,27.983072 42.068631,28.767793 42.550452,30.405603 42.722723,30.499165 42.803372,30.525324 42.636246,30.697237 42.658532,30.77299 42.627375,30.813922 42.755192,31.124396 42.97388,31.88945 42.833588,32.989624 42.567995,33.635606 42.792088,33.79292 42.755474,33.905246 43.216468,34.125324 43.084192,34.241116 42.267324,35.175852 41.753588,34.92362 41.210012,34.500972 41.399259,34.264288 41.817454,33.876026 41.79396,33.812232 41.950824,33.597239 41.104894,31.237652 40.845124,31.08377 40.889591,31.022322 40.990006,30.917187 40.983864,30.900056 41.035201,30.819311 40.213572,28.285548 40.204249,28.133984 40.195071,28.129869 40.194934,28.129347 40.175196,28.120536 40.186998,28.099258 40.174356,28.051324 40.061028,27.766136 39.493387,25.739823 39.417067,25.535339 39.333423,25.504812 39.34746,25.482053 39.380983,25.438662 39.378099,25.430934 39.403151,25.382548 39.140407,24.039137 38.910311,23.317319 38.448148,23.16438 38.528288,23.032323 38.73202,22.758018 38.714556,22.703232 38.893418,22.360986 38.694521,21.360757 38.202152,21.251684 37.638496,21.053024 37.841124,20.725063 38.345772,20.061164" slic3r:type="contour"/>
    <polygon style="fill: white" points="37.751408,16.683773 37.855879,16.774007 38.3756,16.91746 38.317876,16.990644 38.239743,17.10556 38.526384,17.353137 38.369007,18.412978 38.665664,18.514814 38.898744,18.568514 38.49278,19.000113 38.208954,19.419865 38.195212,19.501654 38.168979,19.478985 38.142548,19.518074 37.223684,19.278636 37.005356,19.189308 37.299773,18.727878 37.094639,18.550616 36.742344,18.329034 36.861044,17.967313 36.892431,17.68015 36.456356,17.501268 36.566124,17.313749 37.022456,16.731397 37.152652,16.53445 37.205,16.476374" slic3r:type="contour"/>
    <polygon style="fill: white" points="23.505632,6.904431 23.632545,7.08428 23.909216,6.733641 24.094734,6.546323 24.413666,7.001596 24.48796,7.133683 24.714684,7.149424 25.041005,6.810579 25.212608,6.646056 25.487849,7.175223 25.513107,7.175449 25.597641,7.323763 26.029808,7.435359 26.369449,7.124894 26.603688,6.922063 26.785603,7.385701 26.887377,7.649861 26.947532,7.664328 26.999936,7.781122 27.074949,7.804718 27.404537,7.846842 27.473314,7.788137 27.54791,7.807484 27.800441,7.587762 28.123596,7.325655 28.244828,7.692116 28.355885,8.006609 29.12514,8.18233 29.156022,8.155082 29.183231,8.16652 29.325792,8.047294 29.676174,7.772887 29.780018,8.121477 29.884763,8.44809 30.230909,8.571059 30.684311,8.611997 30.738213,8.616413 30.996058,8.413134 31.230614,8.241186 31.330079,8.607715 31.612992,8.576748 32.065822,8.497985 32.386862,8.760922 32.579785,8.888249 32.593701,8.877825 32.603546,8.889501 32.806147,8.766324 32.85099,8.974124 32.87957,9.086103 32.890571,9.093364 32.940169,9.288726 32.980134,9.336124 33.038949,9.388947 33.460421,9.323924 34.136728,9.259211 34.221408,9.413146 34.318963,9.567001 34.344236,9.552919 34.35632,9.587059 34.577627,9.502984 34.668344,9.963367 34.764196,9.981818 34.770022,10.01342 35.073944,10.014759 35.465968,10.081669 35.4235,10.557126 35.391109,10.727859 35.524624,10.75882 36.202024,11.035843 36.062623,11.272619 35.80708,11.559093 36.592348,11.94243 36.495671,12.059843 36.06159,12.424579 36.2032,12.472228 36.138723,12.543584 36.938616,12.903087 36.900197,12.954984 36.970847,12.978854 37.000868,13.891657 37.177804,13.958507 37.310952,14.011425 37.017407,14.39455 37.0204,14.485553 36.998625,14.514136 36.974135,15.085085 37.424156,15.231489 37.81962,15.356749 37.536292,15.740487 37.07464,16.370922 36.192335,16.085367 35.891279,15.954028 36.252826,15.337357 35.991508,15.247253 35.578896,15.136845 35.63254,14.836637 35.646645,14.659856 35.64262,14.658202 35.643714,14.645757 35.2489,14.514987 35.349724,14.337178 35.700247,13.814251 35.704409,13.689991 35.663068,13.669404 35.662495,13.596234 35.159404,13.397138 34.6216,13.196311 34.945171,12.821213 35.156403,12.562139 34.260992,12.188691 34.136316,12.141445 34.504451,11.819558 34.476544,11.772941 34.538762,11.698611 34.448099,11.669492 34.23532,11.780824 33.971088,11.814335 33.907856,11.541037 33.89915,11.480648 33.729444,11.435965 33.785264,11.387792 33.822279,11.332904 33.796435,11.27892 33.772298,11.17586 33.46701,11.144068 33.518581,10.931603 33.121268,10.985498 32.861979,10.489893 32.665532,10.57377 32.325062,10.707288 32.183582,10.562547 32.146784,10.587709 32.077854,10.640336 32.027469,10.422743 31.157987,9.784159 31.07278,9.807742 30.906173,9.929414 30.586638,10.174737 30.568755,10.106033 30.520563,9.958905 29.422473,9.820797 29.116591,9.704542 29.093134,9.723755 29.084211,9.69361 29.052459,9.685991 28.826654,9.640896 28.008608,9.198585 27.804896,9.095895 27.570864,9.270092 27.537264,9.183994 27.398939,8.78921 27.251728,8.643473 26.793255,8.312108 26.458554,8.614109 26.12287,8.864271 25.973144,8.542226 25.811142,8.083187 25.460052,8.054773 25.107389,8.43195 24.897166,8.608115 24.595752,8.098932 24.581918,8.061881 24.375886,8.058606 24.13305,8.388003 24.002337,8.532269 23.708089,8.125025 23.551664,8.133987 23.377519,8.429914 23.289104,8.556101 23.020438,8.228737 22.844304,8.250286 22.820599,8.293188 22.816277,8.293509 22.688324,8.525081 22.62293,8.633503 22.391422,8.354651 22.37611,8.358514 22.349407,8.328227 22.152812,8.342846 22.110199,8.402237 22.092064,8.40089 21.958582,8.597969 21.895064,8.690424 21.699742,8.399769 21.679918,8.402237 21.655754,8.368488 21.495546,8.356591 21.423251,8.347878 21.414026,8.358489 21.386087,8.355081 21.239156,8.537875 21.167169,8.633503 20.995995,8.307491 20.758172,8.278478 20.708029,8.267175 20.577315,8.438065 20.50102,8.55611 20.317777,8.212192 19.977258,8.193082 19.854827,8.382261 19.787758,8.532274 19.517999,8.12804 19.089864,8.133103 18.947844,8.40668 18.89293,8.608116 18.582058,8.238748 18.421618,8.092664 17.936189,8.126948 17.757432,8.547986 17.667262,8.86427 17.455761,8.656949 17.052007,8.331531 16.347613,8.889337 16.33808,8.918093 16.332185,8.921193 16.219265,9.270098 16.15645,9.216285 16.001296,9.095185 14.963499,9.640889 14.707629,9.694263 14.696992,9.723754 14.673475,9.704719 14.367729,9.820779 13.498509,9.908336 13.288847,9.943719 13.203571,10.174739 13.133645,10.124477 12.66055,9.772377 12.334423,10.0141 11.789738,10.40569 11.75262,10.534127 11.712257,10.640356 11.602679,10.567315 11.56476,10.606273 11.464871,10.707355 10.969253,10.467549 10.941678,10.521045 10.668871,10.985498 10.388686,10.936879 10.317563,10.927863 10.323114,11.144068 10.14883,11.163027 10.01072,11.177198 10.006476,11.188737 9.969299,11.190872 9.951377,11.260178 10.060682,11.435965 9.965805,11.467006 9.893315,11.484733 9.891147,11.493118 9.881083,11.496704 9.819021,11.81435 9.663487,11.653586 9.548941,11.615057 9.268136,11.715117 9.313638,11.772987 9.301461,11.791374 9.609537,12.089781 9.653781,12.141472 8.98254,12.453203 8.65369,12.576104 8.988568,12.972293 9.168548,13.196311 8.712302,13.388411 8.127805,13.605728 8.127063,13.66942 8.101298,13.682312 8.110744,13.881802 8.213436,14.054153 8.541225,14.515015 8.378777,14.56388 8.158335,14.636939 8.211223,15.136885 7.600075,15.346625 7.494716,15.378682 7.766149,15.80813 7.898858,15.954018 7.419166,16.07222 6.715492,16.370917 6.252199,15.742133 5.970496,15.356758 6.567285,15.162345 6.80545,15.086159 6.769644,14.529709 6.769189,14.457214 6.767219,14.353245 6.580478,14.11849 6.479178,14.01139 6.758735,13.905781 6.754913,13.704216 6.819281,12.97888 6.88929,12.93445 6.851512,12.903117 6.876576,12.894523 7.013966,12.839879 7.309029,12.573889 7.604441,12.490796 7.586888,12.472196 7.792922,12.353278 7.197758,11.942444 7.446823,11.854885 8.104048,11.57918 8.016229,11.441437 7.588102,11.035844 8.112293,10.902813 8.444726,10.79314 8.406692,10.481947 8.324171,10.081677 9.00739,10.067876 9.02594,9.98181 9.083852,9.975592 9.21251,9.503002 9.3788,9.578233 9.429143,9.597577 9.44589,9.552956 9.464081,9.563989 9.653401,9.259235 10.298973,9.351927 10.669915,9.398767 10.861449,9.20927 10.983961,8.766325 11.115611,8.855768 11.179233,8.894863 11.196424,8.877858 11.197243,8.878533 11.724471,8.497929 12.459978,8.592002 12.493292,8.471757 12.559461,8.241202 12.898316,8.525457 13.019197,8.615383 13.462315,8.576286 13.908705,8.415873 13.980443,8.183105 14.113952,7.772869 14.376935,8.002434 14.588966,8.171417 14.634193,8.155164 14.643052,8.163543 15.434846,7.985956 15.521832,7.730405 15.66653,7.325652 15.945003,7.577261 16.22465,7.808816 16.316824,7.788143 16.366838,7.833485 16.787537,7.784015 16.8425,7.664366 16.905335,7.647961 17.075671,7.210887 17.18645,6.922059 17.531998,7.245512 17.741134,7.429748 18.20101,7.309682 18.277042,7.1755 18.33052,7.171689 18.494075,6.842695 18.577538,6.646056 18.935581,7.028903 19.029793,7.121861 19.325792,7.100768 19.36949,7.037796 19.404404,7.040355 19.604936,6.734579 19.695422,6.546321 19.968917,6.923334 20.122297,7.092964 20.188988,7.097852 20.201539,7.082372 20.203735,7.082655 20.463358,6.763695 20.595608,6.545168 20.798114,6.893351 20.94534,7.088506 21.152379,6.844691 21.329122,6.603186 21.516829,6.944525 21.597917,7.071373 21.706959,6.912582 21.895064,6.6453 22.122064,6.977854 22.171432,7.048843 22.271077,6.876926 22.461018,6.603191 22.739544,6.920482 22.829976,7.035085 22.988358,6.788494 23.194502,6.545155" slic3r:type="contour"/>
    <polygon style="fill: white" points="6.799112,16.779016 6.808762,16.83918 6.94338,17.053864 7.333747,17.501298 7.181992,17.532551 6.935564,17.629741 7.047741,18.329126 6.484144,18.790229 6.660799,19.050638 6.784769,19.189276 6.206821,19.30329 5.647526,19.518092 5.618377,19.484014 5.594958,19.501624 5.588964,19.449625 5.056061,18.826593 4.891374,18.568544 5.463655,18.362513 5.419394,17.978532 5.263768,17.353032 5.422658,17.263586 5.558774,17.13546 5.414518,16.917441 5.527387,16.881778 5.961376,16.756494 6.03865,16.683756 6.503722,16.501705 6.585071,16.476332" slic3r:type="contour"/>
    <polygon style="fill: white" points="5.823902,20.642792 6.151619,21.053022 5.822012,21.109726 5.125254,21.338349 4.945259,22.471986 5.075611,22.703178 5.054069,22.790863 5.342002,23.164328 5.201279,23.187074 4.936885,23.267881 4.484181,25.110682 4.395747,25.402357 4.412064,25.430956 4.408248,25.444005 4.456698,25.504762 4.432125,25.508992 4.384593,25.524893 3.729794,27.763992 3.60358,28.106493 3.614933,28.120568 3.597847,28.123334 3.57632,28.286601 2.927235,30.495302 2.774867,30.855755 2.806349,30.900084 2.797462,30.932655 2.945019,31.08369 2.879714,31.103544 2.72863,31.18492 2.354045,32.557755 1.873962,33.662219 1.996187,33.812172 1.960286,33.936779 2.580122,34.500944 2.329277,34.608528 1.522824,35.175888 1.114846,34.810719 0.57365,34.125284 0.692642,34.036764 1.02812,33.863361 0.998038,33.792884 1.33458,33.53482 1.303513,33.403791 0.816161,31.890154 1.179127,30.842273 1.131698,30.773041 1.148838,30.72557 1.035927,30.60476 0.986777,30.525198 1.285742,30.346403 1.689233,29.228899 2.06306,28.04706 1.981153,27.909822 2.013127,27.817034 1.804476,27.559565 1.721017,27.39933 2.236584,27.168555 2.576305,26.182677 2.831009,25.199693 2.776609,25.10058 2.795931,25.033821 2.649153,24.836786 2.596052,24.723884 2.918809,24.609267 3.036514,24.202591 3.205029,23.142488 3.454837,22.884157 3.591448,22.605974 3.484042,22.406824 3.538332,22.388502 3.716059,22.352227 3.723106,22.337876 4.164345,22.200354 4.205604,22.170969 4.85704,21.239374 4.612172,20.939166 4.28005,20.36073 4.612393,20.24987 5.444424,20.061212" slic3r:type="contour"/>
    <polygon style="fill: white" points="2.222339,38.111463 2.492877,38.340784 1.924784,38.658203 1.605421,38.933164 1.666159,39.081692 1.58714,39.148646 2.242777,39.82122 2.56484,40.337815 2.336851,41.070263 1.994225,41.814327 2.079458,41.897436 2.050691,41.970904 2.706813,42.513632 2.437938,42.708407 1.776616,43.378616 1.250775,42.967663 0.660271,42.36584 0.767227,42.258092 1.012996,42.056517 0.969724,42.010904 1.107172,41.86905 0.59274,41.332152 0.928081,40.549187 1.42724,39.231441 1.316717,39.111996 1.376126,38.931426 0.781362,38.44396 0.47638,38.095888 0.881035,37.734103 1.483987,37.337788" slic3r:type="contour"/>
    <polygon style="fill: white" points="2.513988,44.95604 3.034937,45.397356 2.881617,45.804092 2.593038,46.40292 3.301836,46.955064 3.034401,47.226607 2.467428,47.914028 1.874153,47.483184 1.210272,46.913372 1.284133,46.832672 1.424945,46.684297 1.40281,46.670352 1.469737,46.593805 1.118295,46.37756 1.232952,46.130648 1.88998,44.556552" slic3r:type="contour"/>
    <polygon style="fill: white" points="3.362738,48.686091 3.726355,48.81224 3.481236,49.382363 3.077218,50.303396 2.556602,50.096279 1.893486,49.885964 2.15839,49.260192 2.528496,48.380447" slic3r:type="contour"/>
    <polygon style="fill: white" points="4.626599,51.438072 4.659848,51.459351 4.639837,51.493708 4.675106,51.494523 4.333976,52.357255 4.199005,52.786255 3.211214,52.751756 2.992341,52.742456 3.19808,52.090363 2.892939,51.907043 2.52486,51.669084 2.817526,51.255568 3.233236,50.600392" slic3r:type="contour"/>
    <polygon style="fill: white" points="5.736403,53.892775 5.621551,54.6748 5.006198,54.797524 4.435809,54.892964 4.533311,54.328936 4.66488,53.533188 5.516182,53.405087 5.881463,53.325824" slic3r:type="contour"/>
    <polygon style="fill: white" points="7.407889,55.201064 7.416198,56.210035 7.030905,56.35038 6.264276,56.631476 6.269216,56.391628 6.29135,55.26802 6.85158,55.062788 7.426247,54.817628" slic3r:type="contour"/>
    <polygon style="fill: white" points="9.325782,56.279339 9.378856,56.68415 10.892276,56.93448 11.086926,57.428666 11.386172,57.237659 11.437071,57.200736 11.586437,58.04508 11.688689,58.454048 10.92178,59.014015 10.678053,59.171075 10.461078,58.272115 10.452017,58.225561 9.532856,58.057384 8.640387,57.92647 8.594774,57.950224 8.565958,57.942111 8.42672,58.024235 8.383505,58.047348 8.357329,57.883368 8.215804,57.843519 7.954815,57.777136 7.844604,57.060952 7.663477,56.301952 8.589497,56.547675 9.310192,56.109808" slic3r:type="contour"/>
    <polygon style="fill: white" points="13.803663,58.739319 13.984605,59.331296 13.410657,59.810355 13.00261,60.10914 12.816514,59.478432 12.657362,58.834672 13.427607,58.270447 13.651964,58.089044" slic3r:type="contour"/>
    <polygon style="fill: white" points="15.944763,59.328399 16.20613,60.059684 15.775463,60.461376 15.253748,60.89422 15.108523,60.477683 14.854271,59.642892 15.441986,59.148764 15.79727,58.830004" slic3r:type="contour"/>
    <polygon style="fill: white" points="18.020766,59.778424 18.372826,60.596544 18.04877,60.944731 17.473093,61.507532 17.365326,61.251488 16.994048,60.288816 17.43747,59.846727 17.875134,59.396492" slic3r:type="contour"/>
    <polygon style="fill: white" points="20.051756,60.064196 20.49976,60.909687 20.246723,61.232524 19.681922,61.91074 19.602547,61.757035 19.09836,60.742188 19.435873,60.329728 19.901792,59.760376" slic3r:type="contour"/>
    <polygon style="fill: white" points="22.064715,60.156755 22.600724,60.965892 22.386645,61.300332 21.895064,62.05874 21.823369,61.946663 21.189403,60.96588 21.457713,60.549952 21.895064,59.891372" slic3r:type="contour"/>
  </g></svg>