<svg width="43.790126" height="63.590156" xmlns="http://www.w3.org/2000/svg" xmlns:svg="http://www.w3.org/2000/svg" xmlns:xlink="http://www.w3.org/1999/xlink" xmlns:slic3r="http://slic3r.org/namespaces/slic3r"><g xmlns="http://www.w3.org/2000/svg" slic3r:z="8.585e-006" id="layer25">
    <polygon style="fill: white" points="22.136007,0.732315 22.491278,1.227034 22.919246,0.758306 23.188584,0.470624 23.383739,0.830651 23.682875,1.375938 24.166606,0.966676 24.47781,0.717397 24.624471,1.094399 24.855879,1.693745 25.405823,1.343077 25.746456,1.147733 25.84522,1.547931 25.993213,2.196559 26.635786,1.902786 26.976406,1.774953 27.025172,2.216885 27.068854,2.822633 27.173247,2.801161 27.238951,2.853373 27.852501,2.67125 28.144408,2.609273 28.134876,3.123485 28.100453,3.537975 28.33721,3.726118 28.58597,3.707509 28.626453,3.749434 29.043566,3.680792 29.255974,3.663593 29.172996,4.26208 29.163406,4.305517 29.539131,4.694628 29.79497,4.926862 29.95409,4.931256 29.973249,4.956843 30.201623,4.94283 30.327272,4.945628 30.239099,5.311891 30.47544,5.627527 31.176851,6.440484 31.238792,6.447269 31.245193,6.458264 31.331728,6.459669 31.384278,6.465214 31.336511,6.615142 31.448372,6.807311 32.416947,8.230571 32.430086,8.232874 32.430311,8.233406 32.458866,8.238473 32.446643,8.271966 32.476179,8.341704 33.38497,10.150088 33.435436,10.16182 33.437515,10.169703 33.494107,10.177438 33.539466,10.188566 33.482046,10.338547 33.687523,11.117643 33.987273,12.104643 34.203984,12.167595 34.206202,12.193096 34.43064,12.238601 34.636392,12.303403 34.433651,12.841932 34.285053,13.099626 34.351009,13.857908 34.911298,14.373012 35.192516,14.455223 35.751596,14.674435 35.696228,14.829057 35.594414,15.005254 36.003404,15.304908 35.872471,15.727165 35.658926,16.857542 36.269847,17.113399 36.679184,17.30499 36.512543,17.599742 36.310815,17.885175 36.962856,18.6201 36.569967,19.25309 36.453631,19.489344 36.8626,19.740026 37.116064,19.896061 36.674075,20.281146 36.135406,20.739797 36.141688,20.756278 35.509419,20.385399 35.120788,20.076438 35.578875,19.63146 35.747613,19.505562 35.382424,19.106214 34.968856,18.751612 35.14648,18.565578 35.353269,18.112214 34.765612,17.84215 35.019571,17.463912 35.404453,16.945252 34.731239,16.489645 34.170076,16.075718 34.231724,15.849442 34.295653,15.571098 34.290896,15.504183 33.902008,15.411497 34.033688,15.164161 34.238828,14.743913 34.225651,13.883909 33.594092,13.46724 33.356795,13.248355 32.972138,13.148788 32.819638,13.12603 32.959679,12.882051 32.933664,12.858053 32.974183,12.764098 32.710172,12.515262 32.042352,11.630071 31.892124,11.214453 31.871832,11.127056 31.846847,11.080793 31.749733,11.074248 31.774656,11.034137 31.79591,10.986476 30.950398,9.420896 30.872804,9.233722 30.862713,9.232303 30.845673,9.208262 30.714856,9.205007 30.742612,9.157108 30.767711,9.098262 29.975441,7.980431 29.753501,7.535331 29.706564,7.536661 29.729714,7.487624 29.725831,7.479839 29.728537,7.472639 29.666057,7.371892 29.029216,6.134628 28.865348,6.136788 28.743324,6.150126 28.868232,5.821868 28.842608,5.772084 28.850393,5.745792 28.437282,5.149671 28.3176,4.94556 28.035504,4.979652 27.806856,5.028813 27.953623,4.485591 27.976209,4.363334 27.927733,4.280662 27.93014,4.268148 27.638542,3.928881 27.20518,4.040787 26.881924,4.152609 26.944984,3.696456 26.978175,3.144533 26.881496,3.062122 26.338068,3.295326 25.948516,3.488794 25.943299,3.106628 25.889647,2.405393 25.38238,2.724441 24.978554,2.997197 24.917487,2.656261 24.767731,1.967448 24.35494,2.321671 23.974902,2.658612 23.865328,2.340081 23.627898,1.686172 23.279348,2.079502 22.944564,2.462456 22.788992,2.159002 22.474852,1.550726 22.177283,1.98441 21.895064,2.400137 21.699066,2.115218 21.315243,1.551903 21.079073,2.011688 20.845562,2.462443 20.619529,2.208255 20.163894,1.689497 19.993192,2.178023 19.815234,2.658618 19.556524,2.438457 19.026406,1.973675 18.924901,2.506793 18.811572,2.997197 18.506582,2.809071 17.906951,2.413745 17.886586,3.026231 17.841609,3.488796 17.461775,3.332491 16.893228,3.063585 16.821107,3.124027 16.89477,3.777403 16.9082,4.152609 16.413763,4.036228 16.092182,3.934981 15.850697,4.208748 15.862349,4.280667 15.83342,4.321278 15.943001,4.775212 15.983283,5.028806 15.370744,4.970798 14.989432,5.506097 14.91604,5.652581 14.947535,5.772143 14.933564,5.794264 15.013272,6.022419 15.046804,6.150124 14.705304,6.155695 14.478122,6.515416 14.057084,7.458482 14.064295,7.479842 14.062134,7.483335 14.076932,7.51721 14.08356,7.536661 14.025325,7.542848 13.976872,7.621187 13.814691,7.980411 13.129409,8.891248 13.023956,9.069283 13.075269,9.20498 13.016077,9.217907 12.932397,9.223858 12.92741,9.232278 12.893046,9.23861 12.090826,10.739096 11.995417,10.956749 12.040393,11.074221 11.993066,11.088238 11.934816,11.094995 11.931479,11.102607 11.909745,11.108128 11.747772,11.630046 10.799735,12.696675 10.85646,12.85801 10.842976,12.868544 10.921877,13.013023 10.970492,13.126005 10.36676,13.320009 10.235292,13.343296 9.561503,13.869691 9.529695,14.668635 9.678426,14.952434 9.888092,15.411494 9.707987,15.481462 9.493108,15.536909 9.620022,16.075726 9.144886,16.400264 8.376226,16.945178 8.770684,17.526206 9.0245,17.842124 8.778153,17.944148 8.485895,18.076944 8.821247,18.751637 8.206175,19.405538 8.037863,19.568081 8.400094,19.91174 8.669341,20.07644 8.339471,20.242041 7.645189,20.761141 7.653046,20.73825 6.939826,20.121816 6.674063,19.896052 7.209815,19.567936 7.285339,19.521498 7.03414,19.123988 6.827274,18.620099 7.149907,18.269568 7.507669,17.862906 7.452706,17.7744 7.110943,17.305 7.502326,17.143512 8.102856,16.874475 7.863357,16.162568 7.786754,15.304895 7.977088,15.129258 8.2193,14.96004 8.038556,14.674444 8.249999,14.614584 8.703659,14.457244 8.829064,14.323941 9.42662,13.851377 9.409902,13.034247 9.444051,12.866304 9.278315,12.496413 9.153739,12.303373 9.574413,12.225188 9.586134,12.167545 9.715619,12.135516 9.828886,11.586891 10.305127,10.296132 10.275656,10.229138 10.25066,10.188567 10.348972,10.177299 10.354683,10.16182 10.386943,10.155634 10.449943,9.998491 11.344675,8.262715 11.331261,8.238503 11.357895,8.237069 11.360042,8.232904 11.368847,8.231673 11.396379,8.184171 12.455752,6.591008 12.427832,6.512072 12.405846,6.465213 12.538493,6.466578 12.551332,6.447268 12.593413,6.443935 12.759165,6.224639 13.560156,5.262615 13.505022,5.059404 13.462879,4.945623 13.799123,4.975604 13.836041,4.931265 13.94706,4.931037 14.419399,4.448824 14.645458,4.235268 14.583556,3.861852 14.534151,3.663617 15.097392,3.773573 15.130406,3.77714 15.204131,3.707492 15.410358,3.72764 15.699924,3.500868 15.675307,2.895012 15.645719,2.609253 16.109339,2.762592 16.531754,2.86324 16.61678,2.801143 16.724824,2.825672 16.79192,2.13097 16.813734,1.774942 17.197428,1.963723 17.796858,2.203226 17.95816,1.530867 18.04367,1.147736 18.38009,1.371448 18.93256,1.698728 19.167505,1.093262 19.312334,0.717393 19.61644,0.980438 20.105272,1.378493 20.409487,0.819635 20.601544,0.470621 20.876531,0.774757 21.297522,1.227767 21.666704,0.71009 21.895064,0.393039" slic3r:type="contour"/>
    <polygon style="fill: white" points="8.444042,21.419103 8.725265,21.723938 8.621218,21.962886 8.708561,22.014845 8.772131,22.037104 8.5241,22.204103 8.248337,23.24846 8.752158,23.563549 8.98918,23.714876 8.44361,24.020414 8.183788,24.219724 8.197545,24.412636 8.221822,24.441839 8.263228,24.697443 8.67181,25.033875 8.801375,25.186186 8.375304,25.389305 8.399605,25.539321 8.517906,25.999608 8.243236,26.041082 8.042705,26.116003 8.332875,26.531216 8.100822,26.629036 7.101521,26.93003 7.185401,27.019327 7.227484,27.238031 7.656301,27.67701 7.84521,27.90718 7.395986,28.113699 7.457396,28.43284 7.595287,28.989436 7.38183,29.026202 6.950195,29.229831 7.43948,29.570806 7.099013,29.782258 6.434208,30.178861 6.626804,31.285094 6.634633,31.390484 6.865661,31.543671 7.158846,31.687896 6.68146,32.020842 6.685916,32.080824 6.586668,32.167437 6.705661,33.003581 6.728227,33.853042 6.857384,33.926984 7.071687,34.010768 6.739043,34.260231 6.74132,34.345936 6.657936,34.427774 6.764805,35.200152 6.799429,36.279468 6.928983,36.344155 7.155518,36.417939 6.81278,36.695591 6.816528,36.812424 6.733764,36.902008 6.892506,37.807963 6.958282,38.669699 7.125362,38.739296 7.397268,38.811684 6.996788,39.174167 7.00827,39.324596 6.938176,39.409061 7.202858,40.397343 7.29814,40.974799 7.505305,41.040112 7.800426,41.091936 7.390455,41.534274 7.414959,41.682784 7.364438,41.753283 7.727032,42.71502 7.844734,43.152388 8.074056,43.196968 8.375264,43.216044 7.99738,43.719601 8.034382,43.857096 8.004506,43.907565 8.448122,44.773676 8.5975,45.150438 8.831822,45.162279 9.127288,45.141192 8.811267,45.6896 8.858909,45.809764 8.846292,45.837304 9.357284,46.577271 9.550068,46.919042 9.776825,46.891344 10.058868,46.825696 9.825233,47.406859 9.889129,47.520135 10.450182,48.113391 10.697486,48.419063 10.921011,48.350452 11.182724,48.242608 11.04025,48.842726 11.091041,48.905505 11.712499,49.397779 12.020091,49.674989 12.235349,49.569135 12.474811,49.42566 12.416456,50.032203 12.453909,50.065956 13.126049,50.47026 13.472309,50.704062 13.678781,50.563712 13.900725,50.38686 13.917659,51.004772 13.94787,51.025171 14.68063,51.361031 15.004998,51.5273 15.207663,51.350343 15.421366,51.135204 15.510987,51.786665 15.546457,51.804847 16.371768,52.091759 16.569685,52.168636 16.775643,51.94554 16.994684,51.680128 17.165179,52.400638 18.165313,52.64394 18.378113,52.363396 18.605244,52.04186 18.852897,52.783883 18.868657,52.826921 19.794272,52.960004 20.011834,52.614479 20.241898,52.24214 20.516157,52.880143 20.599545,53.063751 21.464046,53.104932 21.672792,52.706615 21.895064,52.30186 22.20001,52.88276 22.321389,53.108653 23.174639,53.068084 23.35398,52.649139 23.548228,52.24214 23.918326,52.83032 24.005878,52.970754 24.89382,52.843562 25.030963,52.429424 25.184866,52.041864 25.65266,52.660069 26.558566,52.440343 26.563752,52.423716 26.597636,52.411935 26.685143,52.036832 26.795444,51.680144 27.25771,52.182459 28.061725,51.90294 28.217085,51.841924 28.222748,51.815572 28.253495,51.801412 28.298834,51.462687 28.368772,51.135192 28.827734,51.536962 29.587155,51.187232 29.813437,51.070706 29.816578,51.042528 29.847241,51.023923 29.854814,50.702167 29.889402,50.38686 30.36468,50.709979 31.106143,50.260112 31.316123,50.118343 31.316126,50.084084 31.348467,50.058133 31.316792,49.741331 31.315312,49.425644 31.825329,49.6755 32.561704,49.084635 32.697287,48.962826 32.691482,48.914904 32.72537,48.878384 32.649602,48.563563 32.607402,48.2426 33.16004,48.409945 33.882351,47.63152 33.927677,47.575765 33.90966,47.504752 33.943135,47.454909 33.819219,47.148243 33.73126,46.825696 34.320246,46.893401 34.973703,45.92042 34.931208,45.809776 34.96192,45.74758 34.794792,45.457512 34.66284,45.141224 35.280146,45.103126 35.826201,43.997285 35.755731,43.857096 35.782004,43.784185 35.583515,43.518447 35.414864,43.216056 36.033337,43.086672 36.4782,41.852064 36.375164,41.682792 36.395778,41.601556 36.183472,41.370783 35.989708,41.091988 36.574552,40.897043 36.911108,39.570735 36.918996,39.520824 36.781852,39.324588 36.795902,39.239329 36.593791,39.054823 36.392868,38.811692 36.903133,38.588605 37.098576,37.40258 37.123433,37.004312 36.97358,36.812404 36.982039,36.743202 36.817235,36.609231 36.634616,36.417952 37.048249,36.201577 37.180296,35.121379 37.19697,34.515131 37.0488,34.34594 37.054864,34.292766 36.903144,34.179316 36.718439,34.010768 37.114013,33.774116 37.270084,32.405588 37.277547,32.249822 37.104224,32.080842 37.109993,32.039942 36.9015,31.895244 36.63128,31.687913 37.115803,31.35359 37.214582,31.298441 37.372348,30.179923 36.855147,29.855801 36.350644,29.570812 36.50922,29.438245 36.752619,29.258059 36.194828,28.989438 36.385599,28.072406 36.169124,27.971294 35.944892,27.907182 36.3843,27.475273 36.549758,27.283298 36.604672,27.019326 36.69437,26.926294 36.079675,26.661798 35.457248,26.531208 35.56202,26.432257 35.753296,26.180013 35.27222,25.999609 35.393386,25.362234 35.161284,25.252632 34.988756,25.186186 35.501867,24.791589 35.568351,24.441854 35.590701,24.417048 35.602906,24.248039 35.03654,23.910024 34.800944,23.714865 35.404527,23.3384 35.547451,23.247671 35.421859,22.764467 35.284746,22.264046 35.074112,22.103108 35.017976,22.037106 35.176188,21.940149 35.140408,21.849084 35.06484,21.723986 35.577716,21.483067 36.157416,20.797539 36.479089,21.641469 36.710472,21.847452 36.712223,21.857433 37.074048,22.112364 36.96094,22.195367 36.793845,22.322659 36.973404,23.346078 36.77165,23.595106 36.889788,23.66336 36.930047,23.692808 36.72132,23.80879 36.833752,23.939664 36.974924,24.012848 36.886696,24.500435 36.875259,24.674828 37.0886,24.774654 37.020668,24.860206 36.719794,25.165733 36.705148,25.210902 36.647413,25.671645 36.919299,25.754749 37.520868,26.000992 37.221419,26.43062 36.785414,26.893968 36.870956,26.937234 37.166191,27.091741 37.284799,27.124743 37.933912,27.231108 37.88418,27.36399 37.86438,27.457125 38.054188,27.556458 37.965464,27.655349 37.78737,27.819363 37.785407,27.828596 37.721083,27.909772 37.641207,28.22739 37.504643,28.90311 38.510448,29.579748 38.59656,29.630798 38.285023,29.8664 38.520864,29.919128 38.646152,30.025923 38.531836,31.247126 38.473067,31.644625 38.50034,31.667352 38.49657,31.811928 38.92646,32.141382 38.678963,32.204104 38.483171,32.325717 38.462908,33.102724 38.378696,33.910341 38.447084,33.976304 38.441612,34.203181 38.976812,34.657424 38.663396,34.68874 38.426866,34.814636 38.410936,35.47514 38.313515,36.432264 38.391516,36.516808 38.377373,36.718191 38.824988,37.136888 38.561635,37.146428 38.340055,37.249536 38.271112,38.231191 38.15422,39.045169 38.219424,39.124972 38.197217,39.257173 38.518528,39.598276 38.323803,39.60006 38.126477,39.678299 37.925096,40.87714 37.769133,41.521977 37.821124,41.59598 37.792813,41.695516 38.055868,42.019992 37.882431,42.016836 37.683946,42.078274 37.361196,43.213007 37.147784,43.811045 37.195356,43.893764 37.158167,43.981122 37.404363,44.350892 37.219743,44.335224 36.987611,44.381763 36.606167,45.277784 36.304899,45.88362 36.349368,45.985132 36.300314,46.06571 36.539271,46.533308 36.322312,46.492904 36.028146,46.512792 35.672476,47.097039 35.251519,47.715687 35.287892,47.840276 35.228678,47.908949 35.43712,48.509792 35.17964,48.426515 34.812176,48.391981 34.562403,48.681652 33.992443,49.288574 34.01196,49.41696 33.947271,49.472305 34.089588,50.200764 33.798024,50.061396 33.390132,49.948969 33.284644,50.039219 32.563937,50.611551 32.567268,50.734564 32.50252,50.776349 32.50343,50.813696 32.553782,51.603192 32.243027,51.403783 31.824747,51.212486 31.002343,51.707055 30.992724,51.8187 30.932313,51.848418 30.919332,51.999423 30.880711,52.730752 30.5698,52.476016 30.170336,52.219411 29.3424,52.59831 29.324121,52.694232 29.266251,52.715912 29.23217,52.896255 29.121204,53.597487 28.831443,53.302967 28.478373,53.008313 27.612351,53.309146 27.589012,53.390088 27.541875,53.402553 27.515832,53.493319 27.326966,54.216812 27.078562,53.90986 26.78264,53.603331 26.753975,53.610912 25.828056,53.836383 25.804644,53.897832 25.775691,53.902406 25.516434,54.618676 25.311399,54.319819 25.068574,54.014129 24.867613,54.04588 24.016857,54.168616 23.996574,54.211971 23.989602,54.212339 23.702744,54.834988 23.532894,54.550432 23.331839,54.247042 23.000356,54.264531 22.22634,54.301638 21.895064,54.89718 21.745463,54.615631 21.568774,54.298729 21.218502,54.280176 20.476696,54.24467 20.087384,54.834988 19.941951,54.526483 19.797305,54.212152 19.793554,54.211972 19.767835,54.15788 19.528027,54.119671 18.755389,54.008546 18.273692,54.618656 18.132288,54.263612 18.001374,53.900099 17.985475,53.897812 17.953032,53.817221 17.889842,53.800376 17.04993,53.59631 16.948978,53.710659 16.463155,54.216804 16.335898,53.811723 16.228745,53.396794 16.201063,53.390068 16.167701,53.28527 15.356689,53.003587 15.152303,53.192608 14.668922,53.597472 14.571718,53.157412 14.501933,52.70671 14.466004,52.694232 14.438587,52.572074 13.670853,52.219649 13.427741,52.39762 12.90943,52.730768 12.85642,52.28888 12.834188,51.835581 12.797396,51.818692 12.780163,51.676088 12.029011,51.221955 11.815305,51.339988 11.236354,51.60322 11.230145,51.185355 11.259325,50.756617 11.222863,50.734572 11.220989,50.571474 10.478274,49.977179 10.348671,50.026655 9.700534,50.200764 9.736658,49.8263 9.813057,49.444896 9.778164,49.416976 9.796893,49.240732 9.696953,49.125892 9.070766,48.452058 8.353007,48.509804 8.421891,48.191412 8.533642,47.874062 8.502252,47.840284 8.544079,47.662678 8.303567,47.272655 7.843416,46.586053 7.250864,46.533327 7.338076,46.273076 7.466601,46.023798 7.440733,45.9852 7.497929,45.82917 7.193772,45.124587 6.871635,44.46266 6.385765,44.350868 6.48145,44.13288 6.614349,43.933989 6.594777,43.893771 6.661723,43.756282 6.393834,42.821679 6.168193,42.170733 5.734269,42.020004 5.842027,41.815003 5.984117,41.639696 5.968981,41.596032 6.048988,41.461255 5.89193,40.503992 5.727976,39.800205 5.271571,39.598284 5.41052,39.363264 5.583378,39.17951 5.570672,39.124968 5.678508,38.966599 5.636677,38.252471 5.52239,37.41934 5.495099,37.412823 4.965148,37.136876 5.171438,36.81816 5.409397,36.595634 5.398588,36.516835 5.534945,36.335902 5.528952,36.014788 5.433743,34.971002 5.240071,34.912748 4.813302,34.65744 5.075825,34.294803 5.350986,34.06374 5.343012,33.976316 5.460947,33.836445 5.447938,33.505809 5.359727,32.480145 5.336291,32.470431 4.863669,32.141418 5.084136,31.883278 5.29482,31.725446 5.289825,31.667366 5.332972,31.624131 5.143982,30.025794 5.631774,29.974971 5.239398,29.669145 5.193551,29.630814 5.739446,29.217105 6.273605,28.899115 6.048659,27.880832 6.004666,27.828495 5.99198,27.777429 5.735977,27.556388 5.838167,27.506818 5.914761,27.466626 5.856243,27.231086 6.059287,27.17223 6.743114,27.031967 7.012099,26.890823 6.557925,26.285084 6.269274,26.000976 6.663196,25.911116 7.110132,25.727993 6.991072,25.076857 6.937568,25.020278 6.935596,25.004039 6.70154,24.774628 6.780581,24.760391 6.899219,24.704484 6.815214,24.012736 7.028243,23.791975 6.900909,23.718471 6.860066,23.692806 7.03509,23.603197 6.940986,23.485038 6.816726,23.346162 6.9464,22.638496 6.998713,22.327972 6.71608,22.112362 6.839717,22.035419 7.075427,21.872596 7.079667,21.847436 7.353975,21.609557 7.63271,20.797498" slic3r:type="contour"/>
  </g></svg>