<svg width="43.790126" height="63.590156" xmlns="http://www.w3.org/2000/svg" xmlns:svg="http://www.w3.org/2000/svg" xmlns:xlink="http://www.w3.org/1999/xlink" xmlns:slic3r="http://slic3r.org/namespaces/slic3r"><g xmlns="http://www.w3.org/2000/svg" slic3r:z="4.58749999999998e-005" id="layer138">
    <polygon style="fill: white" points="4.226631,42.666427 4.242062,42.689892 4.582057,42.847172 5.20548,43.085036 5.059829,43.39346 4.675843,44.014523 4.768544,44.081 4.617194,44.480892 4.522681,44.667496 3.5993,44.72668 3.560896,44.750864 3.606485,44.569945 3.528327,44.499627 3.49662,44.47586 3.685141,44.315077 4.213036,42.719079 4.221514,42.668647 4.222878,42.661247" slic3r:type="contour"/>
    <polygon style="fill: white" points="4.450533,39.513708 4.910682,39.870156 4.424269,40.280988 3.957222,40.619864 3.422102,40.105356 2.917428,39.684568 3.205789,39.484072 3.875643,39.053784" slic3r:type="contour"/>
    <polygon style="fill: white" points="6.117145,23.437731 6.182168,23.519376 6.172923,23.584098 6.575182,24.035848 6.431706,24.094657 6.081623,24.223324 5.80246,26.17783 5.628949,27.259412 5.647989,27.280374 5.645351,27.299071 5.795121,27.44334 5.740649,27.473114 5.612586,27.531294 5.180221,30.595726 5.09093,31.143274 5.111049,31.163599 5.109235,31.174008 5.217441,31.269172 5.177037,31.294849 5.078986,31.347571 4.684389,33.611607 4.403753,34.949802 4.480983,35.021992 4.474653,35.04877 4.893342,35.397556 4.73536,35.508487 4.3025,35.777039 4.219092,36.12988 3.89503,37.249332 2.949157,35.680719 2.838389,35.545924 2.927205,35.205832 2.922056,35.201224 2.92372,35.192366 2.867002,35.145344 2.84004,35.116744 2.950669,35.048915 3.091421,34.299692 3.594303,31.33696 3.558634,31.302621 3.564716,31.263034 3.302699,31.02665 3.191242,30.898932 3.658734,30.651115 3.882599,29.194072 4.101106,27.353221 4.068496,27.318192 4.072601,27.292703 3.880673,27.098984 3.806814,27.007528 4.142968,26.855821 4.260103,26.128559 4.530831,23.919726 4.635236,23.708019 4.693417,23.554711 4.635675,23.476818 4.649987,23.470854 4.736014,23.442467 4.737478,23.438608 4.842269,23.400352 5.537522,22.751574 6.251954,21.940336" slic3r:type="contour"/>
    <polygon style="fill: white" points="7.173406,20.639265 7.563225,21.208844 7.310898,21.199089 6.346408,21.414796 6.099845,21.11727 5.723713,20.368991 5.948222,20.33559 6.935795,20.192129" slic3r:type="contour"/>
    <polygon style="fill: white" points="10.451367,15.444026 11.065264,15.821222 10.75663,17.117986 10.668803,17.444298 9.904179,17.008043 10.06131,17.708045 10.120902,17.899558 9.529836,17.936344 8.863787,18.036162 8.835604,19.143918 8.478618,19.176636 7.62324,19.050012 7.616349,18.545672 7.629915,17.292854 7.687664,17.332156 8.105368,17.359099 7.979987,16.934678 8.383775,16.887572 9.610467,16.740255 9.816453,15.809803 10.01627,15.235917" slic3r:type="contour"/>
    <polygon style="fill: white" points="15.273775,13.512975 15.636227,13.938552 15.611939,13.991859 15.663584,13.994907 15.553674,14.610653 15.42085,15.223292 15.187415,15.209347 15.061145,15.200681 15.059155,15.205049 15.052938,15.204752 14.98919,15.350263 14.949898,15.311797 14.834432,15.194334 14.114663,15.160013 13.263148,15.114125 13.250069,15.145923 13.196371,15.145511 12.820664,16.180986 12.499627,15.931833 11.86138,15.396303 12.054336,14.852388 12.484691,13.89825 12.576057,13.961375 12.572758,13.864576 13.510909,13.90217 14.364764,13.935287 14.628209,13.355233 14.807482,13.026765" slic3r:type="contour"/>
    <polygon style="fill: white" points="17.069862,12.746521 17.598972,13.39021 17.106929,14.439623 16.95918,14.759188 16.490301,14.195524 16.143613,13.788722 16.51536,12.993219 16.805974,12.444759" slic3r:type="contour"/>
    <polygon style="fill: white" points="21.915655,11.565323 22.507532,11.564502 22.651218,11.776256 22.73403,11.89102 22.947216,11.587794 22.953303,11.599068 23.475562,12.544618 23.567148,12.4236 24.083734,11.755035 24.132599,11.85356 24.677202,12.917897 24.938422,12.600587 25.395676,12.03575 25.517858,12.29355 26.040592,13.341289 25.533352,13.981362 25.239474,14.341524 24.985993,13.810514 24.658202,13.11332 24.324486,13.572705 23.950996,14.067541 23.737979,13.640266 23.447475,13.052736 23.280144,13.309074 22.870455,13.913678 22.674092,13.547298 22.395658,13.030226 22.305677,13.182728 21.895064,13.865044 21.696862,13.526099 21.39675,13.027226 21.304875,13.198355 20.91967,13.91368 20.701505,13.57424 20.34473,13.046977 20.175767,13.386821 19.839118,14.067531 19.573078,13.695993 19.132621,13.110857 18.813386,13.783047 18.550666,14.341525 18.203578,13.899195 17.749512,13.341222 18.041446,12.724505 18.394445,12.035776 18.5316,12.202126 19.112234,12.916006 19.30478,12.527775 19.706402,11.755031 19.760498,11.82662 20.31177,12.544184 20.391788,12.396068 20.842916,11.587805 20.849365,11.597313 21.051002,11.88694 21.282242,11.564528 21.873293,11.56549 21.895064,11.530488" slic3r:type="contour"/>
    <polygon style="fill: white" points="27.224477,12.956968 27.646502,13.78868 26.991067,14.57171 26.83097,14.759188 26.504236,14.068067 26.191134,13.390199 26.634893,12.878763 26.98415,12.444751" slic3r:type="contour"/>
    <polygon style="fill: white" points="29.392145,13.919944 29.414105,13.918916 29.415907,13.92267 30.056595,13.890199 31.217342,13.864566 31.22908,13.965936 31.305476,13.898266 31.313197,13.919682 31.928636,15.396436 31.440627,15.781313 30.969386,16.18094 30.83236,15.795231 30.596298,15.145598 30.540168,15.145838 30.526465,15.112684 28.954307,15.193533 28.80095,15.350253 28.779059,15.299233 28.737599,15.204677 28.730965,15.205018 28.728605,15.199887 28.369214,15.22326 28.331326,15.004647 28.126566,13.994863 28.177619,13.991508 28.153882,13.938602 28.780502,13.274256 28.982646,13.026767" slic3r:type="contour"/>
    <polygon style="fill: white" points="33.95428,16.019792 34.172704,16.738277 34.920528,16.82427 35.81018,16.934712 35.782311,17.087124 35.719987,17.311805 36.160312,17.292944 36.158988,17.408063 36.166899,19.050002 35.648507,19.00784 34.954528,19.143922 35.069188,18.993498 35.008958,18.068093 34.432784,18.004934 33.669224,17.89958 33.820684,17.182297 33.870133,17.00577 33.25701,17.360458 33.12133,17.444326 32.945547,16.623484 32.724876,15.821267 33.364762,15.500448 33.77384,15.235912" slic3r:type="contour"/>
    <polygon style="fill: white" points="37.271179,20.254037 38.066387,20.368916 37.919456,20.541431 37.444003,21.414788 37.078659,21.406598 36.226912,21.208912 36.386544,20.896635 36.8544,20.192068" slic3r:type="contour"/>
    <polygon style="fill: white" points="38.970631,23.409234 39.053104,23.43873 39.056556,23.446765 39.154443,23.47674 39.145407,23.48952 39.100936,23.550078 39.258791,23.917545 39.661268,26.874589 39.88462,26.972618 39.98332,27.007524 39.715056,27.269782 39.721648,27.318212 39.703593,27.338162 39.891792,28.5605 40.155302,30.68777 40.458628,30.842948 40.598896,30.898916 40.22231,31.228715 40.231468,31.302648 40.214621,31.319443 40.426736,32.36148 40.845902,35.059001 40.917895,35.101519 40.950076,35.11672 40.865538,35.185358 40.870692,35.21853 40.907284,35.345536 40.951724,35.546144 40.35248,36.714844 39.895032,37.249068 39.505301,35.767577 38.896784,35.397532 39.026344,35.289215 39.315984,35.047924 39.309144,35.021924 39.40057,34.933251 38.963668,32.597294 38.714788,31.343665 38.572692,31.269168 38.603932,31.240627 38.680864,31.172791 38.679047,31.163638 38.703132,31.138432 38.300628,28.25412 38.182214,27.526211 37.99502,27.443379 38.034271,27.401064 38.144401,27.293765 38.142216,27.280333 38.168187,27.250825 37.944507,25.533289 37.725184,24.221376 37.214967,24.035902 37.304831,23.907294 37.613177,23.551393 37.60784,23.519469 37.721362,23.372155 37.537596,21.939668" slic3r:type="contour"/>
    <polygon style="fill: white" points="40.348259,39.353547 40.872688,39.684652 40.480116,40.056744 39.832888,40.619896 39.2282,40.115512 38.87944,39.87012 39.301579,39.528684 39.914488,39.053864" slic3r:type="contour"/>
    <polygon style="fill: white" points="39.569076,42.672132 39.57721,42.716181 39.759359,43.230311 40.109093,44.322178 40.264028,44.453216 40.293504,44.475856 40.185079,44.571171 40.210184,44.66464 40.229188,44.751036 39.428415,44.744008 39.267392,44.667432 39.02156,44.08098 39.138869,43.995692 38.584644,43.085007 38.915915,42.934336 39.547885,42.688321 39.564711,42.665104 39.567244,42.661248" slic3r:type="contour"/>
    <polygon style="fill: white" points="25.499679,55.156327 26.272186,55.17744 26.312851,55.222321 26.732083,55.262236 28.489016,55.3257 28.654824,55.409296 28.84215,55.562688 28.780305,55.732697 29.122547,55.948027 29.284748,56.126544 28.639553,56.119612 28.567125,56.318712 28.549728,56.376099 28.227733,56.113532 27.083553,56.093483 26.670021,56.086091 26.372488,56.744055 26.302126,56.92748 25.58468,56.219792 25.443037,56.065152 25.030041,56.058367 25.033052,56.063783 25.006679,56.064628 24.978748,56.065556 25.021358,56.042747 24.680281,55.429171 24.5075,55.098788" slic3r:type="contour"/>
    <polygon style="fill: white" points="24.563978,55.968228 24.692222,56.143912 24.211992,57.005099 24.090216,57.258392 23.491216,56.537464 23.305226,56.291384 23.932954,55.197643 23.944614,55.174872" slic3r:type="contour"/>
    <polygon style="fill: white" points="18.963583,55.662424 18.768382,56.041805 18.81138,56.065555 18.81138,56.065556 18.785183,56.064715 18.757073,56.063784 18.759868,56.058352 18.346909,56.064932 17.620516,56.779103 17.488006,56.92748 17.111287,56.085794 16.444928,56.097152 15.556048,56.11346 15.28468,56.33436 15.240339,56.376084 15.148233,56.119806 14.959265,56.122011 14.505404,56.126547 15.02926,55.788773 14.947992,55.562652 15.301139,55.32562 17.494103,55.203958 17.517939,55.17744 19.282604,55.098788" slic3r:type="contour"/>
    <polygon style="fill: white" points="20.37174,56.070636 20.484928,56.291208 19.867977,57.030344 19.699964,57.258408 19.223762,56.397144 19.097912,56.1439 19.831121,55.194588 19.845482,55.174868" slic3r:type="contour"/>
    <polygon style="fill: white" points="22.454568,56.092524 22.591067,56.314679 22.054791,57.100188 21.895064,57.367384 21.373659,56.598535 21.199072,56.314704 21.865992,55.311107 21.895064,55.263688" slic3r:type="contour"/>
  </g></svg>