<svg width="43.790126" height="63.590156" xmlns="http://www.w3.org/2000/svg" xmlns:svg="http://www.w3.org/2000/svg" xmlns:xlink="http://www.w3.org/1999/xlink" xmlns:slic3r="http://slic3r.org/namespaces/slic3r"><g xmlns="http://www.w3.org/2000/svg" slic3r:z="4.19149999999998e-005" id="layer126">
    <polygon style="fill: white" points="13.698836,55.99612 13.892315,56.656836 15.438412,56.794418 15.453893,56.780536 15.476469,56.781889 15.776186,56.480284 15.814685,56.567612 15.899564,56.807255 17.41527,56.898124 17.630945,57.263672 17.842214,57.037451 17.864452,57.013052 18.199692,57.902148 18.351388,58.262904 17.715807,58.986932 17.495284,59.212428 17.134182,58.3637 17.05341,58.154865 15.91931,58.07879 15.866994,58.12802 15.805819,58.122333 15.402379,58.519651 15.269616,58.633672 15.06445,58.053422 14.467479,57.997932 13.201512,57.92886 13.186435,57.853519 13.137806,57.742339 12.997281,57.855628 12.991565,57.835587 12.745988,56.846521 12.613238,56.543016 12.68122,56.549066 12.946575,56.327007 13.604043,55.747492" slic3r:type="contour"/>
    <polygon style="fill: white" points="11.501622,55.291131 11.682593,56.151248 11.282822,56.370079 10.628201,56.816096 10.557007,56.505036 10.383279,55.522468 10.870758,55.194884 11.359776,54.82214" slic3r:type="contour"/>
    <polygon style="fill: white" points="9.389088,54.3903 9.441238,55.029432 8.842593,55.269908 8.350805,55.530892 8.25314,54.906583 8.198956,54.2189 8.959283,53.889732 9.287563,53.69546" slic3r:type="contour"/>
    <polygon style="fill: white" points="7.501558,53.187751 7.472744,53.679384 6.768886,53.84842 6.366186,53.969988 6.318995,53.107308 6.343539,52.605732 7.342319,52.469979 7.578895,52.37938" slic3r:type="contour"/>
    <polygon style="fill: white" points="5.39717,49.711492 5.842323,49.90002 5.419241,50.577968 5.32015,50.705832 6.035214,50.736156 6.241832,50.70456 5.835079,51.191828 5.727997,51.689999 5.015923,51.989364 4.651842,52.00496 4.877212,51.144607 4.956877,50.834293 4.360499,50.614608 3.843592,50.426208 4.246837,50.077055 4.623463,49.555604" slic3r:type="contour"/>
    <polygon style="fill: white" points="3.811767,45.075148 4.474716,45.530296 4.404767,45.82818 4.295859,46.223455 4.637631,46.426624 4.54576,46.561332 4.085786,47.050729 4.08065,47.06754 3.931874,47.634556 2.842358,47.167524 2.685578,47.120892 2.817524,46.677267 2.638848,46.563156 2.523819,46.472104 2.989798,46.00181 3.292431,44.776644" slic3r:type="contour"/>
    <polygon style="fill: white" points="3.419789,37.509204 3.680164,37.729444 3.099884,38.01558 2.680473,38.306428 2.733876,38.434096 2.669693,38.479365 3.43899,39.204747 3.757754,39.625964 3.517671,40.533615 3.197547,41.462423 3.278682,41.535968 3.263183,41.589047 3.922057,42.087112 3.652514,42.267036 2.95678,42.854987 2.487328,42.512267 1.805417,41.8833 1.846238,41.846752 1.968235,41.757821 1.959169,41.750175 2.034286,41.685909 1.778155,41.474432 1.940499,40.95562 2.652968,38.506962 2.625352,38.485244 2.594283,38.454444 2.626889,38.329044 1.966659,37.785712 1.611006,37.404928 1.987333,37.135359 2.642802,36.768952" slic3r:type="contour"/>
    <polygon style="fill: white" points="4.291678,25.852108 4.459864,26.075022 4.443793,26.156846 4.557815,26.292944 5.044337,26.81222 4.786726,26.889575 4.253574,27.108769 3.709716,29.390623 3.830372,29.540078 3.813748,29.613985 4.328809,30.124282 4.105797,30.19838 3.632117,30.421493 3.579693,30.654561 2.959516,32.79201 3.102594,32.953382 3.084318,33.030574 3.286171,33.236116 3.83162,33.732748 3.514488,33.857252 2.736732,34.297424 2.332968,33.940484 1.79082,33.30993 1.920685,33.232682 2.393729,33.01734 2.377142,32.974336 2.786766,32.734368 2.614511,29.979302 2.330721,29.618354 2.382909,29.592276 2.585523,29.515653 2.584722,29.502844 2.853433,29.375345 3.128442,28.705535 3.541534,26.884071 3.08511,26.262609 3.215402,26.20662 3.734457,26.033406 3.739206,26.012466 4.154493,25.844829 4.363651,25.41031 4.363652,25.41031" slic3r:type="contour"/>
    <polygon style="fill: white" points="5.548671,23.41403 5.867217,23.779214 5.47173,23.881301 4.700771,24.166566 4.294688,23.711081 3.936782,23.192862 4.282369,23.064296 5.093609,22.819738" slic3r:type="contour"/>
    <polygon style="fill: white" points="7.4428,18.252152 7.735514,18.69274 7.480059,18.705952 6.993692,18.822387 7.015468,20.317434 6.465158,20.685677 6.637039,20.940992 6.731176,21.056374 6.112969,21.174838 5.577891,21.356858 5.533139,21.30309 5.492479,21.325278 5.493742,21.255756 5.001523,20.664377 4.831476,20.40014 5.513246,20.181844 5.524888,19.540822 5.483856,18.717324 5.758007,18.577899 6.099843,18.349559 5.854787,17.881472 6.042109,17.846336 7.152987,17.64861" slic3r:type="contour"/>
    <polygon style="fill: white" points="8.311296,15.164815 8.839962,15.259694 8.833443,15.340848 8.89459,15.335506 9.063532,15.951709 9.254142,16.444961 9.039956,16.451605 8.768293,16.483602 8.73896,17.04417 8.411126,17.076628 7.458772,17.043916 7.498242,16.371427 7.508437,16.24513 7.470896,16.141754 7.502869,15.880771 7.369837,15.598213 7.310742,15.473547 7.557446,15.435276 7.57851,15.263325 7.617957,15.061113" slic3r:type="contour"/>
    <polygon style="fill: white" points="17.200628,10.763905 17.072167,11.062103 17.308632,11.765456 17.362838,12.170408 16.754739,12.199974 16.58121,12.20177 16.575899,12.214098 16.548211,12.216381 16.462036,12.411033 16.406261,12.336271 16.325268,12.234764 15.548604,12.298806 14.940044,12.312072 14.919287,12.362157 14.822413,12.373889 14.5412,13.049725 14.329295,12.785615 14.030111,12.446699 13.198084,12.479343 13.159911,12.5815 13.034719,12.602542 12.999598,12.605061 12.638526,13.562994 12.487964,13.97617 11.985123,13.460532 11.830031,13.316558 11.831606,13.497571 11.95045,14.093321 11.974995,14.293185 11.287226,14.333688 10.72073,14.351566 10.712414,14.381491 10.691349,14.383785 10.497091,15.231516 10.120629,15.061752 9.371745,14.692646 9.516085,14.052897 9.629197,13.712158 9.545424,13.405749 9.484889,13.254155 9.791008,13.224715 9.794064,13.215507 9.796411,13.215388 9.841403,13.055363 9.925422,12.869311 10.559854,13.176569 11.541053,13.126676 11.554148,13.097562 11.567579,13.09735 11.886126,12.238731 12.349116,11.389628 14.110244,11.238025 14.155952,11.160591 14.304892,10.792991 14.593827,10.314011 14.859448,10.628267 15.157622,11.123772 15.794698,11.090617 16.109137,10.357898 16.538636,9.631867" slic3r:type="contour"/>
    <polygon style="fill: white" points="22.119487,9.092273 22.24729,9.327264 22.38665,9.067653 22.592205,8.666634 22.85393,9.162288 23.005982,9.439256 23.039664,9.384785 23.056185,9.384573 23.236548,9.069224 23.408526,8.714731 23.735632,9.375857 24.040637,9.371944 24.135314,9.374482 24.278084,9.137625 24.402844,8.862429 24.642946,9.390527 24.92575,9.396599 25.50594,9.440296 25.581377,9.316563 25.644548,9.154668 25.776288,9.460658 25.780131,9.460947 25.783686,9.468164 25.97751,9.47938 27.250102,9.629691 27.955027,11.031977 27.956922,11.03211 27.97932,11.074186 28.70995,11.09917 29.041817,10.691127 29.196334,10.314037 29.57205,11.169727 29.6435,11.176403 29.659993,11.208571 30.131515,11.234019 31.445279,11.391818 31.464443,11.440437 32.22375,13.096825 32.235998,13.097348 32.245966,13.122347 33.074083,13.147921 33.372363,13.169776 33.748704,12.966267 33.8647,12.869286 33.97181,13.213697 33.996056,13.215474 33.996987,13.21873 34.124124,13.229748 34.305248,13.254143 34.16758,13.815449 34.41836,14.692647 33.797784,14.978006 33.293015,15.231503 33.22629,14.857343 33.114315,14.385407 33.077712,14.381491 33.066067,14.340914 31.8152,14.293241 31.952618,13.670559 31.980121,13.484736 31.958732,13.501255 31.966825,13.326351 31.43763,13.851688 31.302162,13.97619 31.014525,13.247293 30.781489,12.597802 30.630072,12.581437 30.586794,12.475912 29.800095,12.423765 29.732611,12.50524 29.248882,13.049701 29.096327,12.712849 28.954555,12.367719 28.870758,12.362164 28.834713,12.281666 28.523924,12.264922 27.477616,12.224317 27.328094,12.411039 27.284823,12.320507 27.238536,12.215039 27.214224,12.214095 27.205897,12.195806 26.427274,12.170409 26.586498,11.809722 26.722627,11.090336 26.589394,10.763737 26.987063,10.227745 27.208158,9.729897 27.153158,9.681467 26.179456,10.271491 26.410142,10.739734 25.748629,11.781821 25.652616,11.931412 25.342988,11.225904 25.092511,10.62636 24.974678,10.619701 24.604969,11.180545 24.358554,11.569666 24.140113,11.046444 23.929312,10.567611 23.85413,10.566548 23.714998,10.781649 23.368568,11.352341 23.203454,10.961196 23.025398,10.59071 22.960607,10.593613 22.583076,11.245261 22.440493,10.937021 22.252441,10.58159 21.895064,11.216176 21.746342,10.939728 21.549906,10.591613 21.207032,11.245265 21.022074,10.947681 20.797902,10.560308 20.421572,11.352338 20.177714,10.991087 19.889088,10.515586 19.718995,10.912604 19.431492,11.569682 19.115599,11.102866 18.810522,10.620894 18.738868,10.626958 18.693276,10.629265 18.254059,11.65433 18.137492,11.931412 17.747494,11.311996 17.379994,10.739568 17.635241,10.158706 17.341844,9.91835 16.553824,9.627952 17.993224,9.481362 18.052216,9.338689 18.14553,9.15468 18.322673,9.451383 18.633216,9.44195 19.123043,9.412024 19.23253,9.166331 19.387296,8.862413 19.703332,9.392007 20.029352,9.394515 20.179485,9.087808 20.38157,8.71473 20.691068,9.258065 20.779134,9.423551 20.964614,9.07021 21.197934,8.666604 21.437193,9.112788 21.54023,9.308835 21.66052,9.07948 21.895064,8.665253" slic3r:type="contour"/>
    <polygon style="fill: white" points="36.222685,15.432318 36.350996,15.452171 36.479424,15.473628 36.284714,15.887802 36.319288,16.141683 36.275762,16.264801 36.331448,17.043759 35.702152,16.98505 35.051304,17.044366 35.07266,16.832046 35.046907,16.501817 34.535936,16.444935 34.603792,16.174768 34.895668,15.335457 34.960185,15.340622 34.95014,15.259808 35.982087,15.096068 36.172132,15.061098" slic3r:type="contour"/>
    <polygon style="fill: white" points="37.193215,17.752683 37.935316,17.88146 37.852968,18.007831 37.685216,18.315964 38.306303,18.717416 38.303771,20.209291 38.695403,20.332029 38.958648,20.400118 38.548824,20.862785 38.298994,21.229543 38.297664,21.325426 38.254531,21.294816 38.21228,21.356842 37.230792,21.117592 37.058952,21.0564 37.327189,20.636705 37.026224,20.42312 36.774632,20.317385 36.863476,19.622222 36.848227,18.888437 36.054644,18.692794 36.200916,18.362662 36.637,17.648678" slic3r:type="contour"/>
    <polygon style="fill: white" points="39.327136,23.046996 39.853328,23.19288 39.631056,23.429141 39.089212,24.166629 38.415767,23.969125 37.922919,23.779216 38.190368,23.415646 38.696432,22.819768" slic3r:type="contour"/>
    <polygon style="fill: white" points="39.687573,25.874278 40.050828,26.012382 40.069879,26.070543 40.705024,26.262666 40.612204,26.355698 40.295202,26.758447 40.800455,28.300965 41.053832,29.435395 41.20536,29.50284 41.206593,29.531872 41.459424,29.618344 41.416728,29.65814 41.22172,29.887646 41.289576,31.483692 41.057841,32.779421 41.412896,32.974362 41.390289,33.054873 41.999296,33.309874 41.871383,33.420398 41.053392,34.297424 40.484448,34.047751 39.95852,33.732743 40.204047,33.469602 40.703776,33.010482 40.68742,32.953412 40.835217,32.774687 40.215814,30.486535 40.128067,30.453963 39.461312,30.124276 39.622003,29.938152 39.972151,29.586413 39.959652,29.540239 40.108084,29.345075 39.587034,27.154133 39.3952,27.090274 38.745792,26.812202 38.923283,26.591828 39.344376,26.133795 39.330376,26.074924 39.46462,25.887687 39.503678,25.841696 39.4267,25.410966" slic3r:type="contour"/>
    <polygon style="fill: white" points="41.75796,37.184412 42.179124,37.404896 41.72368,37.775624 41.164881,38.325853 41.174208,38.357528 41.195844,38.454444 41.138792,38.50686 41.61158,39.899928 42.011956,41.474699 41.945476,41.566483 41.776047,41.705636 41.831048,41.750236 41.815085,41.765376 41.984715,41.88324 41.921175,41.929684 40.833576,42.855068 40.323892,42.493804 39.868068,42.087164 40.117032,41.870291 40.5209,41.565687 40.511372,41.536048 40.614965,41.435589 40.032372,39.625932 40.667692,39.020968 41.120252,38.481581 41.056256,38.434088 41.114053,38.31525 40.316352,37.881988 40.109976,37.729376 40.590135,37.242772 41.147264,36.768976" slic3r:type="contour"/>
    <polygon style="fill: white" points="40.721704,45.53096 40.835386,46.060192 41.160143,46.378831 41.266308,46.472096 40.967951,46.663573 41.052579,46.948907 41.104548,47.120884 40.28772,47.501511 39.858224,47.634528 39.652215,46.918942 39.152504,46.426616 39.26164,46.364595 39.46336,46.244445 39.499165,46.218709 39.315416,45.53034 39.559648,45.390723 40.497652,44.7767" slic3r:type="contour"/>
    <polygon style="fill: white" points="39.644592,49.986696 39.946516,50.426208 39.249368,50.682863 38.834088,50.834624 39.041959,51.627979 39.138264,52.004972 38.511224,51.725436 38.062148,51.69 37.614727,51.003839 37.548295,50.70456 38.460638,50.647541 38.119167,50.112607 37.947804,49.90002 38.510052,49.843011 39.166704,49.555595" slic3r:type="contour"/>
    <polygon style="fill: white" points="37.102184,52.48324 37.446596,52.605724 37.387528,53.531659 37.423916,53.969999 36.786523,53.816591 36.31738,53.679384 36.230824,52.713524 36.211236,52.379376" slic3r:type="contour"/>
    <polygon style="fill: white" points="35.154227,53.967843 35.591216,54.218904 35.469088,54.959107 35.439276,55.530919 34.957028,55.337256 34.348784,55.029328 34.46404,54.172263 34.502596,53.695452" slic3r:type="contour"/>
    <polygon style="fill: white" points="32.818665,55.078999 33.406834,55.522464 33.286138,56.036807 33.16184,56.816128 32.920555,56.684195 32.10752,56.151068 32.275278,55.561695 32.430388,54.822116" slic3r:type="contour"/>
    <polygon style="fill: white" points="30.37666,55.9058 31.110045,56.549865 31.177376,56.543052 31.176729,56.54532 31.009884,56.937865 30.792814,57.85564 30.777662,57.8453 30.662492,57.755195 30.58869,57.928832 28.709466,58.06924 28.56695,58.473187 28.520482,58.633692 28.006162,58.121787 27.923078,58.127996 27.885452,58.093528 26.725849,58.163309 26.401612,58.927063 26.294864,59.212428 25.76088,58.600012 25.438864,58.263088 25.91145,57.046743 25.925646,57.013068 26.180447,57.284033 26.314088,57.063519 26.37504,56.898088 27.48358,56.845179 27.896011,56.813919 28.013998,56.480288 28.078487,56.541867 28.31773,56.781953 28.336216,56.780552 28.365855,56.806732 28.866592,56.77688 29.916229,56.670667 30.186106,55.747488" slic3r:type="contour"/>
    <polygon style="fill: white" points="24.433858,58.040552 24.695662,58.380952 24.26351,59.224075 24.091906,59.578612 23.651674,58.985036 23.304104,58.541648 23.834009,57.460016 23.896668,57.338188" slic3r:type="contour"/>
    <polygon style="fill: white" points="20.275686,58.1319 20.486024,58.541652 19.948175,59.264524 19.69824,59.57862 19.336152,58.873204 19.094486,58.381028 19.814225,57.441128 19.893428,57.338172" slic3r:type="contour"/>
    <polygon style="fill: white" points="22.341384,58.182248 22.594479,58.58294 22.122675,59.343828 21.895064,59.707132 21.510509,59.086731 21.195605,58.582876 21.805511,57.591316 21.895064,57.449748" slic3r:type="contour"/>
  </g></svg>