<svg width="43.790126" height="63.590156" xmlns="http://www.w3.org/2000/svg" xmlns:svg="http://www.w3.org/2000/svg" xmlns:xlink="http://www.w3.org/1999/xlink" xmlns:slic3r="http://slic3r.org/namespaces/slic3r"><g xmlns="http://www.w3.org/2000/svg" slic3r:z="3.96049999999998e-005" id="layer119">
    <polygon style="fill: white" points="28.28553,57.892308 28.932694,58.504184 28.771835,58.96012 28.534356,59.78042 28.4277,59.674264 27.573778,58.919848 27.731444,58.406839 27.999832,57.639944" slic3r:type="contour"/>
    <polygon style="fill: white" points="30.594391,57.222539 31.133282,57.673744 30.943296,58.318796 30.795344,58.974516 30.535002,58.74522 29.802564,58.18292 29.981388,57.447043 30.146526,56.886299" slic3r:type="contour"/>
    <polygon style="fill: white" points="33.03587,56.384744 33.416056,56.664052 33.21221,57.544271 33.138678,57.988304 32.659895,57.636359 32.11016,57.274671 32.300441,56.241952 32.364908,55.960252" slic3r:type="contour"/>
    <polygon style="fill: white" points="36.511268,53.524723 37.284663,53.799772 37.555723,53.66122 37.707176,54.942992 37.723708,55.08096 37.548588,55.166434 37.549936,55.231988 37.550396,55.255708 37.444592,55.217192 37.434644,55.222048 37.418476,55.217318 36.310984,55.640231 35.543913,55.93274 35.464671,56.5501 35.4455,56.770892 34.682532,56.361572 34.571623,56.303505 34.522368,56.322288 34.331471,56.225643 34.04402,56.282428 34.21494,55.680307 34.311503,54.930916 34.409436,54.915135 34.476058,54.901071 34.480972,54.840308 34.497136,54.847064 34.554352,54.879936 35.587111,54.515904 36.351448,54.218942 36.309372,53.501188" slic3r:type="contour"/>
    <polygon style="fill: white" points="38.959704,52.00954 39.07164,52.43676 39.30976,53.368888 39.158355,53.301391 38.151816,53.221972 37.989871,52.973615 37.75562,51.918296 38.106151,51.896388" slic3r:type="contour"/>
    <polygon style="fill: white" points="41.037603,48.939595 41.285672,49.226072 40.657886,49.606961 40.804459,50.113591 40.88946,50.385468 40.13714,50.522171 39.667828,50.586236 39.152591,49.147911 39.145564,49.125128 39.200776,49.1124 39.16472,49.068636 39.868828,48.705907 40.449392,48.330648" slic3r:type="contour"/>
    <polygon style="fill: white" points="41.992539,44.437379 42.28836,44.678368 41.579631,45.208268 41.598194,45.274212 41.851619,45.928331 42.000424,46.36272 41.434096,46.725964 40.816444,46.994211 40.201244,45.30832 40.139228,45.147668 40.411916,45.015544 40.244431,44.877943 40.194272,44.823703 40.815395,44.26942 41.359788,43.843364" slic3r:type="contour"/>
    <polygon style="fill: white" points="42.12244,39.162595 42.298911,39.83291 42.60656,40.082172 42.72782,40.15806 42.444426,40.385646 42.462855,40.455648 42.442066,40.474841 42.572163,40.785959 42.665507,41.08604 42.066167,41.810936 41.54254,42.209148 41.020223,40.739724 40.664152,40.41896 40.732064,40.3531 40.849079,40.258252 40.845563,40.24836 40.881577,40.209777 40.690268,39.64526 40.902532,39.396383 41.743852,38.116487" slic3r:type="contour"/>
    <polygon style="fill: white" points="42.240576,35.686284 42.759764,35.940476 42.41734,36.230587 41.769692,36.917924 41.042007,36.545359 40.721396,36.303764 41.095771,35.882672 41.716216,35.331588" slic3r:type="contour"/>
    <polygon style="fill: white" points="39.565352,22.79958 40.131492,22.928154 39.957112,23.120133 39.491536,23.810754 40.380481,25.441065 40.616832,25.522882 40.633418,25.5688 41.007708,25.658224 40.950424,25.719241 40.7769,25.966018 41.642068,28.361176 41.701717,28.63898 41.753928,28.660898 41.755042,28.672865 41.832568,28.694698 41.819008,28.708342 41.764985,28.779666 41.969891,30.980747 41.851841,31.75923 42.097576,31.892748 42.084387,31.962341 42.46782,32.104218 42.384536,32.181078 41.944158,32.702241 41.882436,33.02791 41.572368,33.646512 41.394551,33.080855 41.050388,32.94356 40.457864,32.594425 40.646371,32.366474 41.046902,31.974941 41.029808,31.920564 41.177292,31.716759 40.494085,29.58514 39.868384,29.292892 39.989048,29.134237 40.256361,28.843436 40.243048,28.8019 40.386179,28.582783 40.361059,28.476029 39.78535,26.580707 39.083784,26.302548 39.218143,26.115156 39.531762,25.745858 39.515792,25.693282 39.684189,25.420284 39.310514,23.916074 38.784876,23.779182 38.230244,23.577562 38.4438,23.265295 38.979443,22.599454" slic3r:type="contour"/>
    <polygon style="fill: white" points="38.237973,18.181757 38.403551,18.23406 38.421466,18.249911 38.546332,18.279728 38.509497,18.327801 38.591496,18.400354 38.573804,18.935481 38.517624,20.240581 38.990167,20.392839 39.302296,20.467702 38.949396,20.860953 38.566228,21.436916 37.683476,21.210313 37.409164,21.10976 37.768175,20.557604 37.841772,20.463781 37.426108,20.081628 36.94406,19.753602 36.996336,19.388467 36.996798,19.066856 36.643768,18.95 36.719508,18.810215 37.039392,18.356637 37.155653,18.167369 37.1912,17.576553" slic3r:type="contour"/>
    <polygon style="fill: white" points="35.761936,14.179504 36.582208,14.344868 36.55294,14.422586 36.490576,14.556372 36.762812,14.597889 36.777692,15.075905 36.817092,16.026953 37.247676,16.12958 37.644935,16.224992 37.389043,16.633645 37.00404,17.292032 36.043424,17.08101 35.766676,16.99454 36.012511,16.48188 35.723643,16.428455 35.455828,16.412112 35.508032,15.879188 35.497593,15.357827 35.476899,15.352732 35.476986,15.346336 35.320131,15.319245 34.557424,15.170681 34.727351,14.689044 34.995944,14.063088" slic3r:type="contour"/>
    <polygon style="fill: white" points="24.131805,7.008144 24.143833,7.006649 24.145487,7.009298 24.26936,7.006739 25.131025,7.005353 25.134331,6.999488 25.157901,7.001575 25.180944,6.971583 25.226924,6.909031 25.281965,7.005111 25.297211,7.005086 25.301716,7.01432 25.443071,7.026844 26.596206,7.183306 26.663106,7.110358 26.699306,7.197294 26.717675,7.199787 26.721657,7.210015 26.853624,7.227231 28.241286,7.510569 28.269514,7.484352 28.280715,7.518618 28.28808,7.520122 28.289706,7.525016 28.338172,7.531408 28.67514,7.60965 29.240235,8.112398 29.491011,8.440018 29.63255,8.325081 29.70105,8.448428 30.016091,8.112853 30.182883,8.689872 30.2562,8.708277 30.282131,8.785558 30.741452,8.857657 31.821024,9.169722 31.908878,9.095329 31.936406,9.203075 31.9502,9.207062 31.954279,9.220787 32.021545,9.232013 32.178263,9.283876 32.04582,9.528786 32.171872,9.952896 32.267441,9.980434 32.289732,10.045591 32.60064,10.110997 33.284496,10.353115 32.920716,10.769258 32.676173,10.946666 32.701665,11.015159 33.230432,11.116356 34.288236,11.44088 34.262287,11.481315 34.140054,11.602286 34.227158,11.697876 34.390512,11.54182 34.659739,12.558107 34.74398,12.576205 34.747182,12.589977 34.983224,12.636022 35.306552,12.725792 35.03446,13.348292 34.952977,13.475132 35.055324,13.915345 34.291531,14.148245 33.840696,14.289408 33.784648,13.895707 33.741165,13.62117 33.694324,13.610109 33.680572,13.541345 32.839576,13.413609 33.020453,13.042145 33.266113,12.343009 32.495686,12.15921 32.425468,12.227136 31.98132,12.599848 31.845498,12.184075 31.792095,11.991353 31.733146,11.977291 31.703036,11.893742 30.581198,11.688862 31.014722,11.405212 31.291883,10.949331 31.266221,10.890052 30.399058,10.70302 30.297652,10.88323 30.028148,11.29513 29.804547,10.76279 29.73953,10.560771 29.684222,10.548842 29.645909,10.467832 28.681609,10.27062 28.268598,10.200611 28.178942,10.358005 28.12347,10.231117 28.103038,10.172546 28.087909,10.169983 28.080329,10.153823 27.222156,10.018079 27.222156,10.018078 27.753306,9.917196 27.92299,9.818361 27.862372,9.689121 27.766633,9.397302 27.744532,9.393011 27.716562,9.348102 27.498537,9.309855 26.850499,9.209336 26.709748,9.473752 26.53206,9.776385 26.339914,9.342224 26.260226,9.117776 26.249506,9.116113 26.246298,9.110437 25.764026,9.065693 25.37513,9.028742 25.146978,9.441258 25.033722,9.158136 24.974793,9.012845 24.442251,9.038709 24.231998,9.041457 24.106124,9.291742 24.050106,9.141356 24.012388,9.066817 23.417898,9.171697 23.348159,9.179322 23.304192,9.274598 23.272625,9.193983 22.703562,9.318046 22.663768,9.209751 22.606276,9.329383 22.413658,9.009583 22.264956,8.836648 21.928363,9.333924 21.895064,9.381765 21.686104,9.060482 21.548313,8.860805 21.196126,9.315797 21.175329,9.338868 20.537701,9.189226 20.48597,9.274599 20.450722,9.219489 20.427393,9.169103 19.900636,9.064466 19.801015,9.053867 19.68398,9.291708 19.590897,9.139517 19.535853,9.029706 19.064948,9.001902 18.822066,8.999321 18.643132,9.44127 18.503157,9.171783 18.422788,9.026888 17.958883,9.069721 17.543758,9.109246 17.540632,9.116079 17.501961,9.123101 17.258114,9.776368 17.098886,9.380541 16.998761,9.214456 16.652333,9.277349 16.056515,9.367332 16.04568,9.393001 15.980998,9.408532 15.87182,9.706728 16.567718,10.018143 15.832112,10.146005 15.70554,10.160881 15.702196,10.170015 15.679517,10.17544 15.611208,10.357957 15.566504,10.248242 15.542874,10.208124 14.560081,10.443202 14.120067,10.507772 14.105838,10.548859 14.017825,10.575401 13.762005,11.295103 13.576847,10.859507 13.492089,10.733947 13.330293,10.78274 12.56225,10.917987 13.067042,11.426123 13.208816,11.688945 12.434121,11.888013 12.06939,11.935299 12.056955,11.977322 11.9837,12.000738 11.808798,12.599884 11.54995,12.325241 11.388606,12.187368 10.527797,12.347591 10.842038,13.067023 10.950576,13.413588 10.488134,13.516626 10.103673,13.568226 10.095817,13.610079 10.052967,13.621074 9.949477,14.289354 9.51172,14.156739 8.7348,13.915345 8.831652,13.333876 8.649667,12.952764 8.483553,12.725796 9.035272,12.610648 9.046149,12.576209 9.052133,12.575175 9.110569,12.271221 9.399723,11.541704 9.455036,11.550581 9.622443,11.647355 9.674183,11.568508 9.501848,11.440918 9.804933,11.371538 11.047584,11.068754 11.122998,10.922361 11.161821,10.915394 11.182733,10.839908 10.939275,10.562593 10.50557,10.353135 11.460979,10.102212 11.522655,9.980476 11.558116,9.972926 11.606229,9.787383 11.750574,9.428969 11.69961,9.344364 11.611861,9.283902 11.829141,9.233888 11.839931,9.207096 11.850392,9.205002 11.881241,9.09536 11.975679,9.179926 12.61992,9.050983 13.471507,8.856162 13.533872,8.708291 13.596279,8.697628 13.622596,8.604995 13.774033,8.112859 13.954061,8.306657 14.09643,8.459101 14.157576,8.325092 14.362865,8.492202 15.114984,7.60965 15.498474,7.530559 15.502044,7.520125 15.507415,7.519375 15.520614,7.484352 15.551886,7.513164 15.646902,7.499893 17.063868,7.221499 17.072454,7.199787 17.086734,7.198481 17.12702,7.110358 17.200449,7.188085 17.377017,7.171943 18.484355,7.022657 18.492898,7.005136 18.507031,7.005416 18.523574,6.976603 18.563202,6.909051 18.635257,7.002313 18.655808,6.999542 18.661293,7.008466 18.790674,7.011025 19.642386,7.012719 19.646202,7.006708 19.65862,7.008142 19.687413,6.970263 19.73735,6.90422 19.800579,7.013034 19.824136,7.013081 19.831794,7.028137 19.94224,7.040891 20.575707,7.119462 20.612264,7.07881 20.670264,7.013279 20.727636,7.138305 20.75408,7.141585 20.759357,7.153682 20.859703,7.169215 21.284761,7.247922 21.31877,7.208668 21.379998,7.13829 21.442893,7.277436 21.570308,7.288684 21.816607,7.31843 21.840999,7.279399 21.895064,7.198097 21.973345,7.324707 22.097667,7.313747 22.316871,7.287194 22.318959,7.282442 22.342214,7.278855 22.367942,7.222743 22.410132,7.13829 22.509495,7.253049 22.627969,7.234773 23.028444,7.160321 23.036102,7.141571 23.05982,7.138838 23.081205,7.092598 23.119864,7.013294 23.216714,7.120757 23.338847,7.106682 23.95827,7.029708 23.96602,7.013006 23.990057,7.012509 24.011435,6.975691 24.052748,6.904214" slic3r:type="contour"/>
    <polygon style="fill: black" points="28.486941,9.8173 28.69797,9.773076 28.898812,9.617113 28.630633,9.565046" slic3r:type="hole"/>
    <polygon style="fill: white" points="9.098387,14.879307 9.232707,15.170706 8.834399,15.228357 8.331073,15.327824 8.334287,16.412133 7.752771,16.520359 7.924323,16.853671 8.023411,16.994606 7.507597,17.071376 6.786152,17.29205 6.376505,16.625941 6.145223,16.224946 6.784388,16.072699 6.960596,16.030504 6.972844,15.450833 7.027327,14.597898 7.128965,14.58331 7.3112,14.555576 7.207967,14.344822 7.366639,14.319889 8.79415,14.063084" slic3r:type="contour"/>
    <polygon style="fill: white" points="6.686101,18.261563 6.792405,18.424478 6.795033,18.489577 7.146357,18.949968 7.031088,18.966667 6.817037,19.034704 6.846057,19.753612 5.956354,20.527346 6.22394,20.91882 6.380955,21.109768 5.836899,21.22389 5.224028,21.437008 4.693506,20.79736 4.487826,20.467702 5.090857,20.266085 5.301678,20.21018 5.2965,19.454981 5.1987,18.400176 5.238388,18.373646 5.277946,18.336355 5.243807,18.279708 5.268041,18.273067 5.372819,18.24692 5.386418,18.234099 5.688421,18.136448 5.981993,17.991192 6.599168,17.57655" slic3r:type="contour"/>
    <polygon style="fill: white" points="5.205621,23.150687 5.559885,23.577566 5.221681,23.652927 4.495505,23.902792 4.129966,25.474799 4.274325,25.693296 4.252806,25.781325 4.706337,26.302548 4.494631,26.353128 4.074681,26.50997 3.939736,27.061987 3.44639,28.659473 3.547098,28.801888 3.528733,28.873559 3.921733,29.292884 3.741157,29.342406 3.366626,29.506206 3.196431,30.170415 2.638153,31.765972 2.760316,31.9205 2.735659,32.020343 3.332273,32.594411 3.073866,32.68393 2.447821,33.026719 2.217788,33.646392 2.007575,32.94443 1.867168,32.81134 1.322312,32.104212 1.410382,32.052618 1.704226,31.931454 1.69262,31.892694 2.110904,31.646165 2.110835,31.600209 2.04007,28.814047 1.957535,28.694728 1.974926,28.686475 2.036323,28.666544 2.03618,28.660924 2.139107,28.613841 2.767798,27.223685 3.044272,26.063923 2.782414,25.658238 2.867147,25.624033 3.169202,25.539855 3.173243,25.52291 3.618705,25.354607 4.322879,23.865799 4.024287,23.513449 3.658609,22.928192 3.941768,22.826303 4.810775,22.59943" slic3r:type="contour"/>
    <polygon style="fill: white" points="2.689276,35.970523 3.06874,36.30374 2.596685,36.518008 2.020255,36.917868 1.443405,36.421288 1.030368,35.940456 1.325664,35.727335 2.073963,35.331535" slic3r:type="contour"/>
    <polygon style="fill: white" points="2.578437,38.723144 3.09987,39.645191 3.018314,39.954004 2.918124,40.222409 2.944544,40.248392 2.938729,40.267207 3.125985,40.419004 3.048338,40.466539 2.817389,40.659788 2.580724,41.42548 2.247609,42.209352 1.354422,41.260788 1.124639,41.086404 1.359924,40.488624 1.327355,40.455824 1.341091,40.411122 1.163794,40.267764 1.062301,40.158076 1.547848,39.738314 2.046119,38.116876" slic3r:type="contour"/>
    <polygon style="fill: white" points="3.498332,44.747092 3.595864,44.8237 3.361556,45.004607 3.589365,45.115388 3.650899,45.147588 3.278783,46.214564 2.973635,46.994136 2.176037,46.525004 1.789663,46.362516 2.180792,45.335054 2.175854,45.331144 2.201181,45.250413 1.781164,44.938219 1.501763,44.678416 1.916087,44.272951 2.430295,43.843316" slic3r:type="contour"/>
    <polygon style="fill: white" points="4.594671,49.049059 4.625404,49.06864 4.584986,49.118826 4.64456,49.125136 4.28146,50.062355 4.122389,50.586268 3.161962,50.419795 2.900671,50.385508 3.124685,49.617561 2.806643,49.425783 2.504453,49.226064 2.919876,48.809551 3.340795,48.330696" slic3r:type="contour"/>
    <polygon style="fill: white" points="5.878327,52.105388 5.638318,53.221972 5.380584,53.330328 4.48036,53.368884 4.534776,53.161151 4.83042,52.00954 5.305931,52.029704 6.034505,51.918296" slic3r:type="contour"/>
    <polygon style="fill: white" points="7.463252,53.684392 7.432921,54.201911 8.402471,54.563728 9.241822,54.880202 9.309187,54.840336 9.311702,54.857552 9.315128,54.899557 9.478489,54.930852 9.512266,55.051904 9.746154,56.282472 9.468772,56.225195 9.39487,56.254876 9.267639,56.322396 9.221363,56.30464 8.544099,56.666995 8.344618,56.77088 8.23588,55.926517 7.528407,55.655063 6.371956,55.217031 6.355429,55.22202 6.345478,55.217085 6.261493,55.247676 6.239671,55.255679 6.241528,55.165528 6.179685,55.134856 6.066363,55.080936 6.164623,54.2432 6.234403,53.66122 6.587187,53.832619 6.630877,53.82668 7.480778,53.501204" slic3r:type="contour"/>
    <polygon style="fill: white" points="11.547902,56.694844 11.679863,57.274788 11.047385,57.734271 10.651372,57.988272 10.486965,57.279559 10.374172,56.663948 11.239023,56.099388 11.42529,55.96028" slic3r:type="contour"/>
    <polygon style="fill: white" points="13.759414,57.404167 13.987582,58.182948 13.563123,58.551715 12.994773,58.9745 12.875416,58.570288 12.656797,57.6737 13.270829,57.201748 13.643604,56.886304" slic3r:type="contour"/>
    <polygon style="fill: white" points="15.893732,57.994228 16.216395,58.919896 15.934288,59.19772 15.255766,59.78044 15.196445,59.612667 14.857493,58.504011 15.279888,58.125232 15.790316,57.639956" slic3r:type="contour"/>
    <polygon style="fill: white" points="17.957007,58.438995 18.231917,59.09277 19.436669,59.162105 19.897374,58.563248 19.973122,58.720532 20.207908,59.177913 20.464343,59.182544 21.56844,59.205841 21.895064,58.689492 21.97231,58.816268 22.21982,59.208116 22.586956,59.201667 23.575232,59.180546 23.892724,58.563247 23.999174,58.702432 24.35956,59.17101 25.544056,59.099996 25.921124,58.205584 26.094571,58.390035 26.699652,59.052634 27.302792,58.997484 26.343602,60.376687 26.329569,60.394328 26.312466,60.395516 26.311089,60.399188 26.307986,60.395827 26.307516,60.39586 26.307429,60.395769 24.248586,60.485898 24.139534,60.697491 24.102442,60.772996 23.890547,60.501572 23.865868,60.502652 23.858029,60.492653 23.221838,60.504095 22.161705,60.520168 22.156688,60.528176 22.138743,60.527848 21.957522,60.810959 21.895064,60.907316 21.652346,60.527888 21.633439,60.528175 21.627402,60.518515 20.98774,60.50684 19.93325,60.491355 19.924264,60.502648 19.903668,60.501561 19.742639,60.707008 19.687684,60.772996 19.539254,60.48557 19.534234,60.485496 19.532506,60.481977 19.139806,60.461256 17.482822,60.395643 17.482606,60.395863 17.482449,60.395851 17.479036,60.399188 17.47741,60.395325 17.460574,60.394332 17.013978,59.624616 16.487383,58.997456 17.094159,59.049178 17.117266,59.026141 17.277161,58.854928 17.868996,58.20558" slic3r:type="contour"/>
  </g></svg>