<svg width="43.790126" height="63.590156" xmlns="http://www.w3.org/2000/svg" xmlns:svg="http://www.w3.org/2000/svg" xmlns:xlink="http://www.w3.org/1999/xlink" xmlns:slic3r="http://slic3r.org/namespaces/slic3r"><g xmlns="http://www.w3.org/2000/svg" slic3r:z="2.60749999999999e-005" id="layer78">
    <polygon style="fill: white" points="11.798833,59.49442 12.054752,60.413031 11.636627,60.716088 11.03043,61.112372 10.937189,60.778028 10.740361,59.920064 11.194912,59.632827 11.743066,59.253276" slic3r:type="contour"/>
    <polygon style="fill: white" points="9.763496,58.741864 9.923186,59.588228 9.386187,59.915712 8.851194,60.204368 8.762569,59.755975 8.650428,58.992288 9.218853,58.690236 9.712965,58.40556" slic3r:type="contour"/>
    <polygon style="fill: white" points="7.893211,57.875059 7.944323,58.642044 7.261063,58.958096 6.815804,59.131532 6.767839,58.560352 6.748674,57.902164 7.450477,57.622948 7.879188,57.436208" slic3r:type="contour"/>
    <polygon style="fill: white" points="6.281884,56.895479 6.211045,57.5673 5.357865,57.799088 5.02895,57.862036 5.082959,57.175448 5.160039,56.634712 6.011336,56.447943 6.361652,56.355792" slic3r:type="contour"/>
    <polygon style="fill: white" points="2.915396,52.010606 3.678862,52.265052 3.888533,52.316936 3.472292,52.921868 3.483192,52.938404 3.470941,52.953189 3.757101,53.715694 4.247763,53.799056 4.442034,53.81692 4.067983,54.482801 4.379554,55.183826 4.988669,55.173184 5.245301,55.152564 5.020687,55.779683 4.88111,56.223543 4.984099,56.390384 4.912245,56.345854 4.874658,56.46852 4.850653,56.46956 4.724363,56.46972 4.600992,56.334724 3.832241,56.381452 3.640496,56.379728 3.855261,55.610848 3.879491,55.54523 3.430494,55.053919 3.297128,54.908366 3.131443,54.879488 3.103647,54.809181 2.739149,54.758824 2.641849,54.740684 2.882561,54.249982 2.676027,53.727583 2.486143,53.187214 2.395856,53.162916 2.403701,53.121809 2.088593,53.014504 1.984606,52.981412 2.43527,52.314784 2.597221,52.107811 2.689639,51.62356" slic3r:type="contour"/>
    <polygon style="fill: white" points="3.041114,50.350492 3.474396,50.519804 3.111678,51.017475 2.670069,51.578992 1.836875,51.161003 1.535118,51.038936 1.86658,50.604951 2.356196,50.031548" slic3r:type="contour"/>
    <polygon style="fill: white" points="2.889221,47.904556 3.036249,47.980276 2.788829,48.30461 2.988302,48.519068 3.149517,48.695447 2.804889,49.272952 2.353485,49.955412 1.211496,48.744131 1.104458,48.632788 1.179529,48.515713 1.170886,48.510992 1.173273,48.507862 1.106252,48.468859 1.075541,48.450836 1.605073,47.750859 1.933649,47.34776" slic3r:type="contour"/>
    <polygon style="fill: white" points="1.912153,43.772252 2.284901,44.230478 2.559542,44.438899 2.599169,44.464712 2.537911,44.542237 2.58967,44.594063 2.616767,44.62366 2.078614,45.401112 1.750257,45.768912 1.475711,45.482653 1.313715,45.376159 0.63124,44.872432 0.6757,44.814712 0.724036,44.756032 0.763196,44.697877 0.59806,44.526548 0.679328,44.430056 1.502294,43.342396" slic3r:type="contour"/>
    <polygon style="fill: white" points="1.684438,39.442968 2.020448,40.044928 2.239808,40.262252 2.290993,40.301044 2.205587,40.393974 2.270248,40.467 2.299625,40.508128 1.738674,41.340151 1.371349,41.679332 1.134418,41.378257 0.946246,41.24346 0.302857,40.619299 0.349355,40.556472 0.423863,40.475337 0.416886,40.466472 0.448344,40.417707 0.290086,40.215252 0.387324,40.112151 1.275939,38.893568" slic3r:type="contour"/>
    <polygon style="fill: white" points="1.935026,34.970412 2.157004,35.761512 2.304466,35.946711 2.370415,36.002348 2.250892,36.096116 2.263394,36.140671 2.252794,36.152446 2.309537,36.23972 2.346699,36.324708 1.75399,37.172148 1.284287,37.536044 0.992706,36.960269 0.892119,36.877684 0.348696,36.16134 0.413897,36.078627 0.505258,35.997725 0.493436,35.97438 0.550733,35.900273 0.40195,35.576888 0.558222,35.4515 1.57096,34.189728" slic3r:type="contour"/>
    <polygon style="fill: white" points="18.203502,4.073325 18.219612,4.060066 18.291798,4.131142 18.564595,4.309764 18.940708,4.202001 19.101827,4.524508 19.311744,4.471289 19.347184,4.715189 19.459646,4.641479 19.51762,4.607362 19.548495,4.737106 19.621943,4.741974 19.662032,4.637369 19.773237,4.726787 19.830976,4.665453 19.850048,4.712305 19.863321,4.752665 20.22335,4.827315 20.295798,4.841046 20.390152,4.713416 20.425388,4.787614 20.461634,4.85933 20.89601,4.883695 20.997042,4.89065 21.101712,4.731837 21.148522,4.813639 21.197969,4.896322 21.679055,4.898575 21.788058,4.899658 21.895064,4.73171 21.947391,4.813756 22.002824,4.900755 22.483371,4.89852 22.588899,4.897474 22.688444,4.731834 22.74437,4.811108 22.798514,4.89278 23.232072,4.868119 23.324411,4.861792 23.400002,4.713418 23.455037,4.780496 23.497791,4.837849 23.878487,4.760114 23.932631,4.749814 23.959172,4.66544 24.006709,4.712548 24.128,4.637379 24.274545,4.715308 24.272505,4.607363 24.551208,4.809249 24.552588,4.657288 24.478382,4.471263 24.765389,4.681386 24.98131,4.528174 24.849373,4.202014 24.849374,4.202014 24.941026,4.384194 25.116066,4.432555 25.493592,4.164672 25.570412,4.060107 25.578744,4.075317 25.650702,4.060831 25.653997,4.029207 25.653998,4.029208 25.653476,4.191403 25.657565,4.219202 25.873965,4.614241 26.339779,4.652199 26.312867,4.565841 26.485203,4.381473 26.34732,4.676398 26.410032,4.877638 26.751164,4.711318 26.741718,5.373742 27.110922,5.432042 27.482192,5.281275 27.509869,5.28414 27.555605,5.259258 27.591172,5.243039 27.59999,5.301793 27.673685,5.284055 27.629262,5.496848 27.711224,6.042973 27.737913,6.100847 27.80939,6.106359 28.115115,5.891647 28.454042,5.698773 28.565623,6.164677 28.845982,6.186298 29.463092,6.098578 29.46811,6.094765 29.469559,6.094914 29.47899,6.088498 29.481526,6.09678 29.50407,6.096473 29.684594,6.650062 29.945624,6.953093 29.994236,6.95928 30.056489,6.897519 30.200019,6.925585 30.362275,6.789728 30.670758,6.533642 30.805518,7.043985 31.285543,7.137849 31.654413,7.211512 31.67322,7.192534 31.722761,7.206959 31.805251,7.140919 31.965842,7.004661 32.032605,7.287037 32.035026,7.28752 32.036544,7.298335 32.342819,7.387522 33.119906,7.628416 33.123516,7.625013 33.132447,7.628697 33.181656,7.593048 33.27198,7.522456 33.30276,7.685099 33.307478,7.686561 33.308961,7.701502 33.501879,7.781071 34.429089,8.164562 34.48032,8.133191 34.557844,8.084973 34.574304,8.224621 34.583704,8.228509 34.585007,8.250305 34.722616,8.321948 35.676341,8.801722 35.726768,8.780685 35.780656,8.759404 35.779978,8.853855 35.784636,8.856198 35.785127,8.885818 35.847091,8.929586 36.787725,9.582666 36.78697,9.592639 37.19776,10.375741 37.273536,10.479641 37.559584,10.486853 37.544996,10.539834 37.450648,10.82135 37.602492,11.18428 37.696636,11.356547 38.135844,11.445099 38.099824,11.524379 37.8939,11.909513 37.928204,12.004078 38.033179,12.234711 38.553804,12.408353 38.501011,12.491252 38.286212,12.790624 38.287284,12.792979 38.224707,12.887413 38.324754,13.118441 38.860168,13.360655 38.805508,13.425498 38.569223,13.682967 38.57294,13.691549 38.483503,13.798853 38.580326,14.072951 39.05,14.350731 39.003875,14.392715 38.764593,14.594605 38.766563,14.600181 38.634316,14.72041 38.643616,14.796687 38.691513,15.069192 39.106748,15.388136 39.063543,15.420321 38.4492,15.831293 38.417826,15.932626 38.52522,16.002833 39.03008,16.477067 38.937112,16.540058 38.154682,16.998013 38.580595,17.349121 38.856356,17.615836 38.457039,17.942864 38.289128,18.057981 38.409987,18.261941 38.801654,18.826307 38.793451,18.83465 38.585963,19.610882 38.492817,19.979535 38.562396,20.028592 38.559842,20.141253 39.111796,20.410524 38.874087,20.60388 38.506831,21.057751 38.446901,21.582136 38.604724,21.677262 38.620732,21.827523 39.434927,22.300259 39.702691,22.4166 39.282207,22.732141 39.412804,22.902045 39.285483,23.090657 39.762476,23.28583 40.21776,23.830934 40.348332,24.567892 40.346615,24.833821 40.399288,24.86394 40.412047,24.945339 40.67488,25.064578 40.573268,25.144761 40.469456,25.311603 40.618751,26.264096 40.566256,27.307193 40.780184,27.437003 40.801898,27.663715 41.373155,28.048225 41.81076,28.269078 41.41222,28.602518 41.26244,28.851859 41.426572,29.062488 41.295769,29.259846 41.941452,29.596236 42.386652,30.191979 42.401772,30.980594 42.293993,31.446809 42.394732,31.526332 42.378613,31.671111 42.821604,31.965894 42.625972,32.130705 42.197657,32.752951 42.044088,33.136262 41.753682,32.862759 41.430084,32.660896 40.768796,31.98483 40.799973,31.931707 40.749432,31.905054 40.76648,31.799941 41.043933,29.468215 40.989264,29.439544 40.813216,29.285074 40.816796,29.092639 40.22836,28.817815 39.685604,28.38863 39.79144,28.173723 40.081564,27.867906 39.967632,27.778296 40.157412,27.377776 39.783931,27.089882 39.119384,26.814412 39.099228,25.645391 38.948652,25.536702 38.944355,25.471209 38.750012,25.39303 38.535684,25.255784 38.83044,24.690815 38.888859,24.625325 38.812681,23.464203 38.565768,23.29017 38.557564,23.14394 38.09632,22.94598 37.588616,22.615051 37.741499,22.356842 38.039502,22.049822 37.924688,21.927629 38.087614,21.695491 37.556498,20.926245 37.048784,20.575718 37.105252,20.49192 37.197088,20.405692 37.171732,20.368966 37.255589,20.274336 36.869272,19.446697 36.912609,19.030344 36.869016,18.999612 36.821999,18.959978 36.930275,18.860613 36.932136,18.842733 36.942318,18.833479 37.263378,17.95798 37.015924,17.772794 36.840324,17.615746 37.374919,17.2103 37.58441,17.082554 37.632852,16.95046 37.677492,17.025794 37.797095,16.95286 37.680103,16.882093 37.64526,16.916621 37.661949,16.871112 37.425788,16.728261 36.97396,16.369828 37.354112,16.176335 37.797931,15.924482 37.799472,15.853514 37.478555,15.645144 37.016552,15.344497 37.395764,15.109677 37.722153,14.897641 37.459708,14.756652 36.979212,14.525111 37.319712,14.275361 37.596466,14.049611 37.359011,13.955343 36.850696,13.787145 37.13824,13.513042 37.389689,13.242874 37.165784,13.185982 36.628452,13.073457 36.859279,12.775262 37.107169,12.433073 36.882091,12.411916 36.318992,12.361015 36.493268,12.036252 36.67462,11.708436 36.6422,11.655411 36.485976,11.671045 35.9172,11.707271 36.024251,11.345943 36.17311,10.939082 35.961668,11.014271 35.428484,11.158569 35.432996,10.731632 35.506367,10.279407 35.185448,10.558098 34.836503,10.746809 34.628003,10.204748 34.597152,9.683573 34.523379,9.640563 34.480951,9.676518 34.327048,9.871668 34.31244,9.917831 34.341348,10.546524 34.115975,10.244119 34.061402,10.20851 33.905612,10.406053 33.883361,10.444745 33.974596,10.670181 33.974595,10.670182 33.80908,10.573905 33.61972,10.903174 33.546408,10.565953 33.557324,10.437118 32.905456,10.116319 32.759678,10.056376 32.602071,10.332902 32.61801,10.334409 32.549517,10.440616 33.1352,10.878896 32.510416,10.613923 32.451631,10.592398 32.3349,10.773404 32.315541,10.586594 32.314661,10.542247 32.29773,10.536048 32.297168,10.52768 31.205302,10.132511 32.149753,10.290126 32.282049,10.302638 32.26513,10.050782 32.274435,9.84712 31.680125,9.620875 31.446928,9.537057 31.149156,10.094822 31.117924,9.536165 31.117954,9.418816 31.110767,9.416232 31.110603,9.414339 30.282696,9.1617 30.878534,9.082794 31.080728,9.045776 31.07225,8.897294 30.276655,8.703005 30.116116,8.66175 29.956806,8.876071 29.942536,8.675823 29.937281,8.624605 29.671614,8.581017 29.81069,8.476652 29.912339,8.397782 29.867597,8.20228 28.890678,8.117243 28.815066,8.108916 28.81321,8.110218 28.806894,8.10994 28.778014,8.138948 28.775043,8.108538 28.721674,8.10619 28.728907,8.061983 28.743512,7.98578 28.70955,7.846972 28.71299,7.754418 28.708144,7.726817 28.630271,7.474827 27.955866,7.451384 27.904062,7.481091 27.807276,7.479659 27.631808,7.637961 27.624344,7.5349 27.609184,7.476733 27.352854,7.472944 27.331745,7.15848 27.324739,6.665293 26.825786,6.85722 26.561398,7.063581 26.579388,6.801763 26.551663,6.644169 26.02382,6.630021 26.019982,6.179795 25.763857,6.2161 25.767436,6.244546 25.749844,6.250782 25.749848,6.259402 25.72651,6.252058 25.653662,6.376872 25.717589,6.249173 25.56957,6.184285 25.262886,6.130723 25.180328,6.602988 24.929445,6.473083 24.625328,6.273613 24.590494,6.358515 24.42203,6.7994 24.112321,6.509799 23.915385,6.308748 23.809249,6.503749 23.618176,6.881124 23.330064,6.514869 23.14454,6.275311 22.973,6.554192 22.766418,6.906562 22.50087,6.515258 22.317265,6.24618 22.116298,6.56074 21.895063,6.906941 21.645421,6.516174 21.473549,6.247185 21.255984,6.56751 21.023694,6.906565 20.784765,6.520014 20.639277,6.277266 20.426751,6.547873 20.171938,6.881127 19.968144,6.509514 19.854167,6.291764 19.668299,6.466092 19.3681,6.799419 19.234144,6.475265 19.129103,6.209157 18.999788,6.274648 18.609826,6.603011 18.575419,6.396399 18.53318,6.150054 18.179447,6.215582 18.136446,6.376873 17.725457,6.363299 17.76629,6.630021 17.388665,6.609687 17.313463,6.613585 17.228746,7.063565 16.839926,6.954832 16.438424,6.714185 16.42416,6.946213 16.437243,7.472947 16.245592,7.462826 16.204343,7.464922 16.158311,7.63795 16.021283,7.576455 15.894646,7.480656 15.886105,7.48109 15.771288,7.426141 15.499921,7.41713 15.194748,7.43481 15.052375,7.967135 15.045894,7.994778 15.06849,8.106177 15.019809,8.106028 15.012085,8.138971 14.987817,8.125699 14.966878,8.106914 14.174139,8.147303 13.942699,8.176338 13.893523,8.407245 14.118563,8.580969 13.907293,8.610503 13.856368,8.6202 13.833266,8.876124 13.725464,8.71758 13.679368,8.656323 12.966152,8.822816 12.711988,8.889383 12.70323,9.030705 13.507495,9.161623 12.81941,9.374144 12.660145,9.421845 12.640972,10.094821 12.640971,10.094822 12.415734,9.631079 12.363228,9.538184 11.769504,9.767266 11.510375,9.85962 11.477519,9.875117 11.486843,10.289462 12.584825,10.132514 11.569382,10.507292 11.492321,10.532838 11.492394,10.5361 11.466667,10.546632 11.455229,10.773464 11.455228,10.773465 11.343904,10.596891 10.655023,10.878915 11.119411,10.49281 11.22939,10.422229 11.172101,10.334453 11.216046,10.328171 11.145322,10.17128 11.079986,10.062623 10.383201,10.391275 10.172866,10.479357 10.170429,10.903188 10.036654,10.611359 10.007224,10.568474 9.815557,10.670189 9.864595,10.486311 9.89831,10.409763 9.793324,10.256773 9.448738,10.546558 9.213135,10.074752 9.230853,9.689991 9.126854,9.750869 8.958328,10.438486 8.953602,10.746821 8.782967,10.475344 8.429366,10.273715 8.253048,10.416282 8.270262,10.670219 8.361627,11.15859 8.053095,11.030351 7.719743,10.935315 7.629071,11.039086 7.68079,11.200164 7.87294,11.707271 7.535409,11.667098 7.155606,11.640068 7.112046,11.711322 7.203198,11.879397 7.471121,12.361016 7.116255,12.394987 6.695484,12.433367 6.843062,12.628378 7.161687,13.073457 6.789468,13.175324 6.438028,13.252023 6.575239,13.388349 6.939425,13.787146 6.55403,13.951561 6.23615,14.060436 6.399806,14.185005 6.810915,14.525127 6.428116,14.740627 6.092639,14.905145 6.315161,15.045172 6.773575,15.344499 6.407564,15.581905 5.990006,15.853541 5.99128,15.911306 6.288014,16.068102 6.81616,16.369854 6.461921,16.56068 6.159882,16.791407 6.013169,16.90348 6.014946,16.98406 6.099406,17.043288 6.157243,16.950462 6.256581,17.153505 6.716223,17.47583 6.949806,17.615784 6.603991,17.863605 6.747157,18.156233 6.891019,18.901593 6.929167,18.933521 6.968121,18.95995 6.909523,18.997461 6.911271,19.006519 6.904704,19.010716 6.921961,19.072751 6.920845,19.446743 6.692642,20.215138 6.601057,20.351133 6.618404,20.369016 6.583036,20.446488 6.741356,20.575726 6.625535,20.630669 6.45067,20.736429 6.173433,21.343704 5.748139,21.776787 5.865421,21.927684 5.716217,22.142942 5.789957,22.249211 6.201495,22.615082 5.811706,22.780294 5.261014,23.086182 5.224298,23.290224 5.023489,23.405743 5.037864,24.380102 4.952788,24.881105 5.086213,25.093454 5.254454,25.25578 4.862453,25.413074 4.841458,25.536709 4.75219,25.589257 4.77417,25.992424 4.670689,26.814526 4.230852,27.268224 3.659545,27.505394 3.822522,27.778351 3.633886,27.970036 4.104503,28.388634 3.749761,28.554467 2.992789,29.039379 2.976919,29.285082 2.769278,29.434931 2.982071,30.441143 3.040666,31.90519 3.00036,31.949028 3.022805,31.983838 3.003496,31.995751 2.875087,32.103479 2.255875,32.834412 1.745946,33.136644 1.706181,32.954003 1.320295,32.586037 0.968513,31.96595 1.172648,31.758138 1.411385,31.599987 1.395371,31.526434 1.581668,31.348871 1.403538,30.191784 1.947849,29.914209 2.51714,29.340609 2.363511,29.06246 2.489074,28.945837 2.12147,28.567331 1.979338,28.26914 2.488407,27.857882 3.01173,27.596165 3.009918,27.437046 3.265426,27.244939 3.355079,25.542732 3.115244,25.064578 3.24833,24.9674 3.388708,24.904232 3.39083,24.86394 3.491326,24.792431 3.572312,23.831068 4.147108,23.60175 4.570063,23.251025 4.377339,22.902112 4.444009,22.842524 4.179046,22.585852 4.08744,22.416562 4.603936,22.049941 5.183071,21.790501 5.185394,21.677274 5.356789,21.553784 5.322999,21.15455 4.912571,20.763212 4.678334,20.410516 4.926067,20.235926 5.232098,20.080542 5.227702,20.0286 5.292073,19.979522 5.006962,18.875031 4.99695,18.836034 4.988837,18.826277 5.039971,18.743645 5.49928,18.00647 5.176438,17.750342 4.933772,17.61579 5.150109,17.453489 5.65143,16.99873 5.271844,16.750897 4.760048,16.477067 4.829554,16.438665 5.210362,16.120967 5.208623,16.119346 5.316655,16.028502 5.21528,15.739693 5.005461,15.599452 5.006438,15.590881 4.68336,15.388105 4.727568,15.355979 5.061907,15.104163 5.081824,14.929412 5.125063,14.691424 5.023348,14.600014 5.028702,14.584192 4.740106,14.350708 4.798212,14.316802 5.19899,14.080996 5.215113,14.033351 5.301274,13.790721 5.217164,13.691549 5.225902,13.669137 4.929955,13.360655 5.014605,13.325211 5.43057,13.142242 5.551668,12.864749 5.502822,12.792942 5.511651,12.769258 5.236322,12.408353 5.334591,12.382611 5.697475,12.270797 5.758794,12.106308 5.873499,11.854911 5.847676,11.806325 5.854958,11.790057 5.654275,11.445155 5.738814,11.435718 6.036359,11.384797 6.238335,10.933571 6.331248,10.762198 6.324318,10.743156 6.325435,10.741258 6.230564,10.486824 6.281776,10.489786 6.47318,10.490326 7.003443,9.589713 7.002325,9.582712 8.00754,8.882936 8.005505,8.856175 8.013638,8.851934 8.013169,8.812411 8.009475,8.759415 8.110065,8.801645 8.192246,8.758785 9.207155,8.24679 9.20641,8.228504 9.220409,8.222729 9.226385,8.171404 9.232261,8.084986 9.361948,8.164345 9.526566,8.096439 10.481665,7.701518 10.48264,7.686589 10.491061,7.684118 10.500543,7.634045 10.518145,7.522485 10.662424,7.626775 10.6666,7.625048 10.673039,7.630724 10.963086,7.545619 11.752994,7.303906 11.755093,7.28753 11.760444,7.286479 11.779237,7.207047 11.824285,7.004657 12.07564,7.205176 12.116986,7.192524 12.138075,7.21233 12.888169,7.065045 12.994944,7.043881 13.034479,6.894527 13.119337,6.533634 13.457352,6.816893 13.588537,6.926231 13.768385,6.890584 14.233127,6.167704 14.286084,6.096471 14.309969,6.095337 14.311168,6.088497 14.318916,6.094912 14.322049,6.094763 14.32332,6.09576 14.387611,6.093987 15.290994,6.093249 15.316103,5.988287 15.336054,5.698809 15.680036,5.954045 15.927007,6.106799 16.043274,5.469587 16.116437,5.284058 16.200614,5.282835 16.198954,5.243039 16.266587,5.281877 16.307937,5.281276 16.332406,5.292308 17.034161,5.279525 17.031594,5.113143 17.038966,4.711312 17.169273,4.759842 17.30492,4.381474 17.914405,4.348487 18.089067,4.056135 18.136102,4.029194" slic3r:type="contour"/>
    <polygon style="fill: white" points="42.778052,34.631644 43.388176,35.576935 43.34276,35.775544 43.260713,35.935458 43.296664,35.974452 43.279309,36.017469 43.441436,36.161468 43.355463,36.227876 43.057654,36.566909 42.87012,37.031767 42.505824,37.536004 41.517364,36.379588 41.443432,36.324532 41.543737,36.163142 41.526664,36.140668 41.534776,36.117815 41.470016,36.06714 41.419736,36.002464 41.76269,35.475729 42.219192,34.18966" slic3r:type="contour"/>
    <polygon style="fill: white" points="42.945403,39.345831 43.50004,40.215204 43.44412,40.320044 43.350495,40.435592 43.373236,40.466444 43.361978,40.482624 43.487268,40.619264 43.411191,40.672344 42.9396,41.089651 42.789791,41.304952 42.418736,41.679376 41.53022,40.54338 41.490516,40.508068 41.570348,40.416339 41.56592,40.409896 41.573599,40.397616 41.528576,40.348988 41.49914,40.301152 41.96144,39.777472 42.514228,38.893584" slic3r:type="contour"/>
    <polygon style="fill: white" points="42.652832,43.774864 43.192064,44.526612 43.131652,44.601079 43.030614,44.704513 43.043492,44.722524 43.03925,44.7272 43.158888,44.872488 43.079632,44.924171 42.460418,45.365153 42.423012,45.406379 42.039872,45.768951 41.206148,44.659872 41.17336,44.6236 41.249948,44.5464 41.2121,44.498664 41.19096,44.464648 41.617775,44.118541 42.287883,43.342412" slic3r:type="contour"/>
    <polygon style="fill: white" points="42.680576,48.409072 42.714588,48.450748 42.616729,48.50766 42.619228,48.510935 42.609663,48.516295 42.654944,48.587068 42.68566,48.632776 42.051932,49.320111 41.436672,49.955424 40.851359,49.014771 40.640604,48.695528 41.000317,48.307793 40.838791,48.096019 40.753884,47.980296 41.39878,47.588255 41.856379,47.347756" slic3r:type="contour"/>
    <polygon style="fill: white" points="41.972828,50.712024 42.254996,51.038952 41.647995,51.349872 41.120148,51.57894 40.577679,50.837848 40.315732,50.519828 40.703756,50.330307 41.433912,50.031548" slic3r:type="contour"/>
    <polygon style="fill: white" points="41.170078,52.0931 41.727764,52.883916 41.805524,52.981412 41.384559,53.126659 41.394272,53.162916 41.277922,53.195434 40.999276,53.901783 40.881602,54.239572 41.096008,54.655168 41.148276,54.740708 40.686939,54.798366 40.658672,54.879508 40.49472,54.907482 39.892129,55.566486 40.084887,56.210999 40.149632,56.379732 39.420948,56.320296 39.203002,56.31995 39.0659,56.46976 38.915536,56.468568 38.907911,56.445475 38.878371,56.346741 38.805828,56.39076 38.805827,56.39076 38.907605,56.228801 38.623499,55.414043 38.544808,55.152567 39.248771,55.157788 39.425378,55.168586 39.723111,54.505382 39.441292,53.99766 39.348104,53.816896 40.038577,53.690076 40.316434,52.949572 40.306944,52.938416 40.319651,52.917362 40.02512,52.490656 39.901592,52.316924 40.566684,52.082803 40.873807,51.999157 41.100488,51.623559" slic3r:type="contour"/>
    <polygon style="fill: white" points="38.0053,56.478268 38.630023,56.634684 38.714796,57.55866 38.761188,57.862032 38.164067,57.685439 37.579052,57.56734 37.464064,56.734603 37.428464,56.355776" slic3r:type="contour"/>
    <polygon style="fill: white" points="36.352148,57.609064 37.041532,57.902304 36.9831,58.694751 36.974324,59.131528 36.506647,58.905679 35.845772,58.641952 35.874568,57.919108 35.910952,57.436192" slic3r:type="contour"/>
    <polygon style="fill: white" points="34.40254,58.576128 35.139684,58.992256 35.015727,59.649096 34.938964,60.204355 34.585895,59.982831 33.866984,59.588384 33.962596,58.985808 34.077124,58.405592" slic3r:type="contour"/>
    <polygon style="fill: white" points="32.274904,59.395032 33.049766,59.920075 32.905409,60.453356 32.759694,61.112384 32.50315,60.922196 31.735354,60.413031 31.853417,59.924184 32.047092,59.253256" slic3r:type="contour"/>
    <polygon style="fill: white" points="30.080107,60.078375 30.887197,60.699808 30.880403,60.720439 30.939982,60.763516 30.945512,60.767804 30.935778,60.797836 30.841149,60.839632 30.747424,61.124219 30.537552,61.87502 30.361893,61.729295 29.773415,61.287665 28.693634,61.740873 28.655082,61.839232 28.581368,61.865226 28.359018,62.510156 28.253595,62.412983 27.889862,62.109075 27.413919,62.276908 26.395377,62.615969 26.37021,62.669248 26.336742,62.677062 26.198348,62.99524 26.148233,62.942611 25.962799,62.76437 24.398334,63.129639 24.116711,63.191139 24.108029,63.206464 24.100462,63.207119 24.046418,63.304492 24.031576,63.286284 23.975363,63.222004 23.973574,63.222395 23.970389,63.218373 21.949479,63.393224 21.908448,63.396509 21.907073,63.398544 21.906549,63.398498 21.895064,63.414631 21.884093,63.39846 21.883051,63.398543 21.881556,63.396313 19.999513,63.231747 19.820473,63.217502 19.816521,63.222424 19.816193,63.222345 19.743708,63.304488 19.731941,63.283535 19.689447,63.207078 19.682126,63.206495 19.671379,63.18756 18.310601,62.860699 17.839835,62.759502 17.59178,62.99524 17.559642,62.926516 17.449423,62.675579 17.419934,62.66924 17.385763,62.597749 16.771056,62.37224 15.93032,62.098322 15.43111,62.510156 15.375336,62.368507 15.196323,61.85918 15.135035,61.839212 15.084348,61.712596 14.038941,61.283733 13.918926,61.381384 13.252567,61.875011 13.174146,61.642347 12.941463,60.833508 12.854332,60.797764 12.846321,60.77378 12.844613,60.76778 12.909011,60.720701 12.902987,60.69976 13.260855,60.446535 13.853505,59.978676 13.897872,60.132736 14.155715,60.875442 15.433137,61.012951 15.479465,60.974572 15.921438,60.582844 15.946866,60.656827 16.093152,61.011396 17.67706,61.073312 17.894741,61.086358 17.942792,61.037872 17.946085,61.045567 17.965352,61.08451 18.275767,61.085916 19.802052,61.456459 19.90262,61.340055 19.930168,61.306768 20.036765,61.501302 20.451527,61.535919 21.718335,61.651727 21.857262,61.452371 21.895064,61.399452 22.072338,61.654817 22.540533,61.616008 23.748273,61.504019 23.836743,61.344968 23.859958,61.306767 23.99336,61.460222 24.254462,61.402115 25.514358,61.085916 25.755307,61.088492 25.822716,61.086384 25.847334,61.037872 25.854003,61.043935 25.900116,61.089586 27.110157,61.07446 27.676814,61.033592 27.868722,60.582844 27.936014,60.635284 28.405453,61.041325 28.490771,61.03624 29.615879,60.899122 29.665598,60.7336 29.93662,59.978648" slic3r:type="contour"/>
  </g></svg>