<svg width="43.790126" height="63.590156" xmlns="http://www.w3.org/2000/svg" xmlns:svg="http://www.w3.org/2000/svg" xmlns:xlink="http://www.w3.org/1999/xlink" xmlns:slic3r="http://slic3r.org/namespaces/slic3r"><g xmlns="http://www.w3.org/2000/svg" slic3r:z="9.245e-006" id="layer27">
    <polygon style="fill: white" points="36.804,21.583098 37.245284,21.894016 36.900643,22.146934 36.38403,22.540488 36.496032,23.190846 37.162847,23.616333 37.013631,23.723744 36.562606,24.096346 36.540085,24.439772 36.605719,24.459226 37.373756,24.818606 37.108528,25.152625 36.557318,25.712364 37.705376,26.06328 37.819696,26.110073 37.687742,26.299394 37.774836,26.323628 37.898188,26.343842 37.671404,26.949798 37.579446,27.38234 38.074664,27.632806 38.44666,27.827484 38.042067,28.278448 37.943129,28.369565 38.336052,28.444434 38.631995,28.540908 38.483464,29.178837 38.371828,29.662485 38.469379,29.737567 39.05914,30.133748 38.686163,30.34825 38.256255,30.669859 38.152353,31.372606 38.225056,31.433186 38.220513,31.607384 38.336853,31.716939 38.671715,31.734801 39.3184,32.303306 39.297832,32.541973 39.285547,32.61031 39.293484,32.617783 39.292509,32.647755 39.359572,32.704954 39.290231,32.717772 39.22432,34.743979 39.192716,34.980187 39.218375,35.008171 39.215659,35.084099 39.355484,35.21658 39.265504,35.219384 39.20989,35.245337 39.12816,37.529651 39.119411,37.597548 39.12564,37.605159 39.124354,37.621029 39.15236,37.650216 39.122089,37.648973 39.085968,38.094663 38.397291,39.559785 38.683863,39.949787 38.801896,40.075092 38.268931,40.079984 38.126166,40.136589 38.021124,40.360059 37.591252,40.507191 37.466885,41.021391 37.61944,41.23854 37.573958,41.398449 38.135908,42.270144 38.30828,42.48276 37.79934,42.4735 37.132542,42.679899 36.911998,43.297918 37.045656,43.530328 36.986532,43.669212 37.470648,44.571008 37.632908,44.814708 37.114179,44.770691 36.377161,44.918449 36.099719,45.476376 36.204164,45.478524 36.267124,45.622252 36.198243,45.735404 36.632607,46.783639 36.747039,47.007564 36.198752,46.905463 35.521516,46.951248 35.455876,46.833747 35.412692,46.897212 35.416931,46.764032 35.161712,46.307172 34.87454,45.559472 34.960892,45.556028 35.454526,45.582909 35.456644,45.516351 36.050077,45.479727 36.05978,44.397238 36.00392,44.319392 35.64314,43.601668 35.718156,43.587992 36.067251,43.563905 36.067788,43.503948 36.679591,43.375959 36.663232,42.146386 36.646044,42.126664 36.235288,41.451864 36.317408,41.427416 36.652929,41.371993 36.651968,41.299752 37.288676,41.087521 37.254363,39.937067 37.092964,39.778568 36.661156,39.160692 36.779796,39.114828 37.226723,39.010316 37.22314,38.8902 37.740616,38.663959 37.819344,38.638337 37.917054,38.109336 37.819231,38.013415 37.714612,37.84652 37.740568,37.662925 37.357448,37.320284 36.93846,36.783703 37.137048,36.693607 37.860147,36.496306 37.85088,36.25458 37.946768,36.204419 38.032966,35.594732 37.983516,35.549099 37.81846,35.310308 37.836316,35.171955 37.484188,34.877308 37.061524,34.39468 37.291535,34.275092 37.980557,34.054419 38.092373,33.188098 38.050612,33.151738 37.892676,32.954764 37.907061,32.859299 37.509896,32.547286 36.993864,32.044176 37.09778,31.979721 37.473851,31.825026 37.404508,31.720412 37.612127,31.577153 36.909636,31.40374 37.068568,30.087434 37.041637,30.067418 36.88426,29.968792 36.723572,29.87802 37.110486,29.554569 37.330788,28.540201 36.832964,28.282366 36.24324,28.06683 36.306803,28.005644 36.374515,27.935415 36.168588,27.866311 36.292704,27.326733 36.4181,26.83711 36.110435,26.704726 35.7525,26.629628 36.086736,26.313973 36.479014,25.796656 36.419504,25.768554 36.317772,25.654404 36.029544,25.516224 35.265776,25.226293 35.324363,25.18042 35.611407,24.861818 35.137467,24.330028 35.175406,23.816077 35.092271,23.766462 35.0576,23.737738 35.16752,23.669178 35.148984,23.597862 35.097016,23.408198 35.588327,23.01379 35.941639,22.554322 35.789964,22.463006 35.19798,21.947548 35.423664,21.747779 36.205276,21.201366" slic3r:type="contour"/>
    <polygon style="fill: white" points="36.838938,19.424306 37.183196,19.609816 37.152111,19.656922 37.122683,19.695882 37.210228,19.817658 37.148824,19.881371 36.295788,20.956148 35.85756,20.415784 35.686429,20.23195 35.281628,19.9945 35.204076,19.932846 35.325488,19.814908 35.256287,19.739233 35.173756,19.66847 35.598076,19.224059 35.954432,18.442786" slic3r:type="contour"/>
    <polygon style="fill: white" points="21.903764,0.317007 21.903789,0.317005 21.904803,0.318433 23.165717,0.405454 23.168011,0.403004 23.181384,0.388721 23.182921,0.387079 23.187295,0.382407 23.202374,0.410223 23.228597,0.415731 24.44136,0.656589 24.44572,0.653085 24.445745,0.653094 24.47471,0.629892 24.489565,0.668077 24.520539,0.678667 25.735429,1.065093 25.736247,1.064624 25.736271,1.064635 25.740167,1.0624 25.741344,1.067164 25.789881,1.088024 26.835598,1.695336 26.886958,1.723535 26.965166,1.694561 26.967483,1.723049 26.969912,1.76908 26.973125,1.770844 26.975921,1.796171 27.744267,2.478815 27.876535,2.58796 28.124444,2.536971 28.119658,2.626969 28.104073,2.775719 28.117936,2.787158 28.116149,2.883503 28.504681,3.367691 28.741205,3.63197 29.221912,3.59601 29.192202,3.768164 29.122173,4.057642 29.14945,4.08812 29.122649,4.281424 29.157028,4.336311 29.541286,4.86719 29.720078,4.858596 30.273002,4.873864 30.202546,5.132573 30.047933,5.567159 30.086236,5.620077 30.032948,5.84143 30.335684,6.311424 30.845346,6.324507 31.301106,6.374427 31.184066,6.709108 30.941104,7.251334 30.988764,7.325325 30.938871,7.481922 30.916524,7.534204 31.102402,7.835763 31.221621,7.848745 31.408838,7.881511 31.462048,7.995868 31.950041,8.037225 32.332566,8.104274 32.178368,8.491746 31.921572,8.983458 32.237939,9.663381 32.293142,9.671962 32.54126,9.724963 32.576064,9.83431 32.978087,9.889241 33.360143,9.978057 33.207051,10.347288 32.933916,10.827204 33.000294,10.919749 32.957295,11.03206 32.977835,11.096595 33.576848,11.763893 33.901748,11.827342 34.411504,11.975416 34.324816,12.197104 34.183943,12.440192 34.230252,12.49178 34.190532,12.597284 35.09826,13.318525 35.137865,14.063285 35.263615,14.108875 35.262911,14.114322 35.391407,14.151886 35.523544,14.203698 35.303287,14.818782 35.134064,15.111639 35.078914,15.538516 36.416304,16.631905 36.525224,16.711709 36.49079,16.822761 36.544927,16.845433 36.575195,16.8596 36.362974,17.234977 36.341248,17.305047 36.189484,17.583703 35.921972,18.209398 35.412176,17.847494 35.290508,17.758694 34.787683,17.541587 34.688236,17.495886 34.78726,17.348402 34.682692,17.277633 34.592136,17.21084 34.798139,16.454714 35.005069,15.553722 34.461527,15.280641 34.311685,15.182522 33.814479,15.019412 33.69634,14.991256 33.779904,14.834298 33.77022,14.827957 33.792777,14.768752 33.64574,14.671745 33.461926,14.502194 33.331082,13.566363 33.316386,13.032982 33.274848,13.022231 33.226874,12.889506 33.027405,12.835171 32.580726,12.784365 32.770671,12.470171 32.950929,12.052188 32.782001,11.324625 32.446361,10.990654 31.827582,10.85522 31.554778,10.836834 31.807538,10.430026 31.888512,10.248446 31.839164,10.175201 31.929346,9.982373 31.395687,9.139075 30.872163,9.054622 30.57544,9.047239 30.799898,8.659893 30.960525,8.283297 30.923448,8.203291 30.998508,8.037136 30.839764,7.723515 30.734195,7.54416 30.674902,7.539919 30.615384,7.473596 30.008802,7.417991 29.612416,7.428582 29.772386,7.11101 29.946816,6.646979 29.510542,6.076321 29.482622,6.076689 29.410979,6.015043 29.183019,6.013486 28.679196,6.064953 28.77223,5.834916 28.859427,5.540452 28.778856,5.471124 28.217933,4.906224 28.209004,4.907303 28.152374,4.870706 27.762582,4.950002 27.799042,4.824536 27.830211,4.662511 26.990205,4.119664 26.905273,4.054255 26.851988,4.071945 26.857988,4.033436 26.685034,3.95059 26.068431,3.340108 25.994949,3.371641 25.929632,3.40408 25.926971,3.209201 25.693977,3.078551 25.19904,2.760364 25.071037,2.840872 24.967914,2.910524 24.911668,2.596499 24.548854,2.470212 24.22878,2.345411 24.078701,2.474195 23.969532,2.570986 23.850112,2.223843 23.447777,2.149908 23.186485,2.097612 23.040464,2.262394 22.94241,2.374555 22.770847,2.039911 22.366079,2.018532 22.105746,2.003945 21.977066,2.191486 21.895064,2.312281 21.682103,2.002703 21.2718,2.024385 21.020949,2.038428 20.916113,2.242527 20.847716,2.374556 20.596348,2.091878 20.186198,2.16731 19.947854,2.215111 19.871741,2.432931 19.820622,2.570988 19.543127,2.334842 19.172099,2.463949 18.891186,2.575024 18.851152,2.78529 18.822212,2.910523 18.561974,2.750003 18.287143,2.90329 17.881998,3.17559 17.881388,3.181962 17.872598,3.189329 17.868038,3.326507 17.860494,3.404084 17.696753,3.336704 17.565649,3.44658 17.105058,3.950615 16.972882,4.002176 16.936256,4.024357 16.938135,4.071945 16.919717,4.068174 16.882138,4.057133 16.880181,4.058318 16.863783,4.054458 16.229076,4.391418 15.970415,4.597343 16.027548,4.949989 15.880936,4.940065 15.598195,4.893676 15.581079,4.907302 15.461915,4.896017 15.414,4.931627 14.933863,5.428506 14.968016,5.522412 15.110932,6.064949 14.833384,6.076482 14.337705,6.045452 14.307503,6.076707 14.216663,6.078188 13.839207,6.579094 14.040927,7.023445 14.177697,7.428581 13.785104,7.481277 13.152323,7.490627 13.115198,7.539894 13.037696,7.548129 12.883225,7.808917 12.785259,7.997626 12.866667,8.203292 12.840091,8.247133 13.106569,8.761362 13.214666,9.047228 12.736007,9.151767 12.271689,9.18479 11.841961,9.893686 11.950961,10.175161 11.926788,10.203038 12.142958,10.595529 12.235349,10.836842 11.755367,10.978996 11.197821,11.043674 11.134065,11.117197 11.130759,11.124739 11.126611,11.125792 10.995252,11.277275 10.836412,11.85474 10.858404,11.925157 10.824471,11.948789 11.086043,12.433492 11.209403,12.784349 10.885492,12.905375 10.531835,12.96203 10.515281,13.022216 10.421723,13.05228 10.328143,14.502263 9.993985,14.74145 10.028745,14.857482 10.059315,14.915815 10.093765,14.991242 9.49192,15.225051 9.217983,15.295737 8.785116,15.548225 9.127187,16.910349 9.197971,17.210862 8.995816,17.348943 9.060943,17.444875 9.101893,17.495844 8.528524,17.733304 7.868166,18.209395 7.573926,17.747884 7.363845,17.09344 7.24021,16.894349 7.214927,16.859622 7.288775,16.829152 7.270592,16.775103 7.264925,16.711651 8.022071,16.01297 8.702335,15.537711 8.53241,14.977945 8.530801,14.740605 8.355374,14.344017 8.266588,14.203725 8.526662,14.130098 8.526518,14.108909 8.596236,14.086558 8.590702,13.816068 8.69187,13.318533 9.230871,12.750666 9.569673,12.513622 9.559879,12.491762 9.641075,12.381547 9.378624,11.975409 9.683944,11.918848 10.04835,11.828711 10.118909,11.732934 10.796353,11.067876 10.819137,10.986348 10.789856,10.919782 10.865679,10.793654 10.645349,10.319553 10.429998,9.978042 10.883732,9.923777 11.189315,9.865177 11.248916,9.724909 11.51887,9.674324 11.861239,8.923566 11.650426,8.441292 11.457558,8.104291 11.89231,8.076924 12.305267,8.019213 12.381298,7.881509 12.670932,7.838721 12.871288,7.523067 12.801338,7.325302 12.85655,7.22812 12.685395,6.778415 12.48902,6.374415 12.84063,6.373994 13.407594,6.329074 13.75039,5.791368 13.703922,5.620097 13.758698,5.53628 13.70991,5.372923 13.517156,4.873853 13.77626,4.892726 14.179629,4.891898 14.661897,4.216094 14.64068,4.0881 14.684716,4.03484 14.568213,3.596028 14.73367,3.624642 15.002187,3.650876 15.426962,3.137132 15.675016,2.85681 15.672185,2.78712 15.693604,2.768386 15.665682,2.536943 15.748882,2.562217 15.892137,2.594741 16.739023,1.854015 16.815076,1.790866 16.817013,1.770811 16.821664,1.768127 16.824962,1.694564 16.850189,1.706373 16.896998,1.724651 17.998836,1.088758 18.048959,1.066891 18.049956,1.062409 18.054122,1.065179 19.301101,0.666927 19.311699,0.639614 19.315445,0.629892 19.342849,0.653595 19.344436,0.653088 19.348209,0.656166 19.380092,0.649461 20.587914,0.409734 20.599068,0.389243 20.602832,0.382405 20.621513,0.403066 20.621986,0.402972 20.62409,0.405253 20.648956,0.403417 21.885324,0.318277 21.895064,0.304754" slic3r:type="contour"/>
    <polygon style="fill: white" points="8.485147,19.404475 8.616366,19.668476 8.461664,19.832944 8.532323,19.899979 8.586053,19.932846 8.230719,20.111232 7.494375,20.956148 7.087354,20.526399 6.579898,19.817662 6.624227,19.765792 6.672338,19.696015 6.606934,19.609816 6.668054,19.580366 6.888016,19.465917 6.958159,19.42296 7.303327,19.047944 7.83569,18.442818" slic3r:type="contour"/>
    <polygon style="fill: white" points="8.098808,21.6508 8.592135,21.947548 8.435978,22.028911 7.926493,22.441818 7.950235,22.460008 7.887201,22.502449 8.259544,22.891917 8.693105,23.408182 8.623705,23.669228 8.697642,23.715468 8.732526,23.73774 8.613448,23.804428 8.619465,23.888804 8.652657,24.330028 8.336912,24.72185 8.214877,24.854029 8.524353,25.226296 8.42622,25.273307 7.458342,25.673442 7.337675,25.804138 7.76864,26.244773 8.037615,26.629658 7.342145,26.922828 7.407754,27.251603 7.621509,27.866324 7.535366,27.861946 7.395249,27.905436 7.54686,28.066834 7.373135,28.154137 6.46574,28.557362 6.644228,29.346655 6.6945,29.594091 6.90556,29.765804 7.066554,29.877998 6.747186,30.076347 6.807713,30.424005 6.880492,31.40371 6.694369,31.552151 6.314353,31.673133 6.38563,31.720394 6.330766,31.911317 6.796262,32.044154 6.615508,32.189312 5.889052,32.823284 5.897381,32.954841 5.714418,33.145036 5.871603,34.130756 6.207659,34.293736 6.728602,34.394688 6.416609,34.660843 5.965444,35.103647 5.971658,35.310396 5.781149,35.532174 5.889717,36.229864 5.939361,36.254652 6.016053,36.576655 6.295684,36.694948 6.851682,36.783684 6.622769,36.990504 6.06466,37.594602 6.075511,37.846548 5.875222,38.100883 5.980159,38.645761 6.566981,38.890199 6.616402,39.087908 7.128982,39.16068 7.008566,39.279128 6.743918,39.598039 6.933259,40.355508 6.664699,41.150484 7.138226,41.299772 7.173174,41.419115 7.55485,41.451808 7.48171,41.535768 7.286926,41.807579 7.575398,42.792708 7.313014,43.424372 7.722351,43.503947 7.758688,43.602052 8.146991,43.601668 8.089832,43.68148 7.904235,43.995004 8.189872,44.766172 7.790654,45.488932 8.333456,45.516364 8.384968,45.621169 8.915586,45.559444 8.861874,45.656123 8.640102,46.140257 8.770666,46.4059 8.377388,46.897244 8.327464,46.822751 8.268596,46.95126 7.230182,47.0242 7.043106,47.007556 7.263511,46.349844 7.588321,45.719862 7.522947,45.622316 7.552627,45.541348 7.585904,45.478584 7.695334,45.484114 7.416362,44.910886 6.373212,44.864388 6.157206,44.814688 6.426063,44.202184 6.799488,43.643335 6.744494,43.530332 6.798931,43.418528 6.883859,43.296162 6.671063,42.682273 5.681183,42.552008 5.481858,42.482768 5.79808,41.881188 6.21505,41.366736 6.170634,41.238599 6.239695,41.12226 6.328403,41.018449 6.211339,40.515945 6.161671,40.510148 5.768938,40.360044 5.76959,40.25488 5.111312,40.129572 4.988214,40.075112 5.36852,39.431871 5.777387,38.997229 5.782839,38.117707 5.635157,38.094456 4.861881,37.750035 4.704166,38.094744 4.682664,37.717628 4.674405,37.666532 4.637765,37.650212 4.650961,37.62748 4.66566,37.612426 4.664485,37.605159 4.676087,37.587235 4.636956,35.562224 4.606819,35.306153 4.434646,35.216596 4.50526,35.108464 4.575899,35.043429 4.571752,35.008196 4.617629,34.944823 4.529706,32.917836 4.511934,32.756563 4.430555,32.704954 4.466108,32.658457 4.498223,32.632138 4.496641,32.617783 4.509539,32.602681 4.471723,32.303328 4.592285,32.326682 4.884713,32.163403 5.016792,32.008757 5.578417,31.588018 5.565101,31.43319 5.644263,31.353866 5.560402,30.707142 4.994771,30.344199 4.730972,30.133744 5.092187,29.80533 5.403619,29.601491 5.15813,28.540808 5.785964,28.43779 5.917701,28.400546 5.500143,27.96271 5.343464,27.827428 5.809533,27.601351 6.166834,27.413865 6.074245,27.077495 5.891965,26.343812 6.112229,26.279964 6.025309,26.164037 5.970456,26.110048 6.63545,25.958349 7.237859,25.711525 6.83,25.224002 6.416378,24.818588 6.724952,24.763008 7.23402,24.523115 7.198339,24.090172 6.62727,23.616336 6.770179,23.590383 7.284838,23.270415 7.407058,22.544932 7.059403,22.286551 6.54484,21.894012 6.921567,21.659566 7.584862,21.201378" slic3r:type="contour"/>
    <polygon style="fill: white" points="9.816796,47.404259 9.393495,48.750624 8.289652,48.989656 8.166499,48.999564 8.322256,48.279643 8.574938,47.562071 8.50396,47.485692 8.511349,47.454316 8.52058,47.428764 8.911355,47.381032 8.979964,47.482484 9.213852,47.449231 9.866157,47.277336" slic3r:type="contour"/>
    <polygon style="fill: white" points="10.977527,48.885811 10.752272,50.202887 10.803767,50.256056 10.83519,50.29378 10.828619,50.335315 10.800871,50.346391 10.310052,50.486203 10.359155,50.39852 9.583338,50.694695 9.538536,50.706732 9.61375,49.927071 9.759884,49.197528 10.402928,48.988724 11.01435,48.72412" slic3r:type="contour"/>
    <polygon style="fill: white" points="34.030672,47.291716 34.876291,47.469438 34.878972,47.381068 35.229544,47.421368 35.269588,47.428784 35.286196,47.485676 35.236019,47.543872 35.214649,47.566628 35.569659,48.843975 35.623628,48.999536 35.041432,48.81124 34.396628,48.750644 34.11772,48.041004 33.923972,47.277336" slic3r:type="contour"/>
    <polygon style="fill: white" points="32.902785,48.764839 34.030212,49.197516 34.240068,50.647832 34.251584,50.706768 33.644528,50.416592 33.477305,50.3705 33.47957,50.486052 32.961466,50.335264 32.957388,50.316592 32.954902,50.293763 33.036109,50.208282 32.867682,49.48276 32.775782,48.72412" slic3r:type="contour"/>
    <polygon style="fill: white" points="31.597424,50.004908 32.653654,50.598544 32.66312,50.986979 33.080534,51.057356 33.316778,51.555647 32.725423,52.050268 32.689706,52.077836 32.689845,52.083547 32.68685,52.085427 32.689038,52.12514 32.656767,52.104303 31.115862,53.071155 31.003912,53.136398 31.002738,53.150056 30.994995,53.153735 30.988274,53.266476 30.9481,53.233872 30.896697,53.200446 29.392677,53.915144 29.237614,53.983622 29.234823,53.998392 29.225362,54.001786 29.201996,54.143796 29.154453,54.096303 29.096825,54.047896 27.559922,54.599239 27.423809,54.644555 27.420732,54.65528 27.414339,54.656881 27.384222,54.769448 27.349119,54.726923 27.307521,54.683635 25.647196,55.099499 25.576382,55.115874 25.574701,55.1203 25.572599,55.120611 25.552784,55.174416 25.520579,55.128296 23.816648,55.380068 24.766057,54.87492 25.217407,54.747968 25.111787,54.614503 25.151739,54.585743 24.698434,54.01508 24.930319,53.328632 25.165359,52.741239 24.663563,52.984436 23.942982,53.389853 24.170745,53.751827 24.162586,53.753448 24.345662,54.048868 23.743268,55.341938 23.721676,55.388287 23.720218,55.391452 23.346648,54.7656 22.943314,54.156976 23.019784,53.980532 22.552179,54.073449 22.598929,54.160536 21.912875,55.42092 21.895064,55.452944 21.556092,54.814992 21.191196,54.160536 21.235004,54.077187 20.772327,53.993866 20.846802,54.156912 20.071851,55.388512 20.069912,55.391451 19.750047,54.712927 19.444466,54.048868 19.628563,53.754719 19.619382,53.751827 19.767743,53.516207 19.045939,53.245472 18.795849,52.986707 18.727265,53.029831 19.091704,54.015148 18.655438,54.605872 18.678722,54.61404 18.532885,54.799185 19.972363,55.37994 18.335842,55.136572 18.273738,55.128181 18.237342,55.174388 18.215845,55.120358 18.215444,55.120304 18.213165,55.114585 16.61369,54.711676 16.488754,54.682819 16.405873,54.76944 16.388356,54.713367 16.373172,54.656124 16.369347,54.65524 16.364881,54.641026 14.86147,54.100411 14.702511,54.047427 14.588129,54.143767 14.572576,54.072815 14.560843,54.000206 14.555301,53.998359 14.550898,53.978425 13.0363,53.260439 12.902444,53.201068 12.801877,53.2665 12.795132,53.210011 12.791872,53.152025 12.787407,53.150044 12.785184,53.131519 11.1882,52.135103 11.140202,52.10694 11.101105,52.125192 11.100371,52.083568 11.100295,52.083523 11.100178,52.075637 10.47242,51.55482 10.47242,51.554819 10.895784,51.67034 11.091122,51.466112 11.088665,51.300775 11.136461,50.598532 11.774464,50.275479 12.334568,49.933356 12.317496,50.124955 12.263035,51.389849 12.339641,51.456528 12.336668,51.542908 12.278922,51.57532 11.60576,51.88959 12.022352,52.0023 12.656832,51.627268 12.757093,51.685814 13.280742,51.323755 13.78987,50.915688 13.796452,51.114939 13.885806,52.345954 14.394114,52.571265 14.871207,52.149628 15.338127,51.67878 15.362138,51.846508 15.586163,53.099465 16.049352,53.254233 16.490549,52.771099 16.934716,52.230728 16.955807,52.317519 17.334089,53.68274 17.389188,53.703112 17.397316,53.73178 17.378878,53.752531 17.088387,54.05613 17.909933,54.344339 17.706302,53.778911 18.136351,53.206484 18.503073,52.683779 18.50033,52.68094 18.519915,52.655122 18.45128,52.625556 18.42472,52.562736 18.561814,52.600076 18.565922,52.594255 18.568373,52.6016 20.179887,52.861654 20.200359,52.82914 20.2222,52.793791 20.25572,52.871768 20.366385,52.877039 21.839678,52.955576 21.866444,52.904503 21.895064,52.852388 21.949604,52.956283 22.092196,52.949504 23.532399,52.872347 23.549486,52.832431 23.567926,52.793792 23.611442,52.862952 23.706861,52.849284 25.221089,52.602032 25.224174,52.59426 25.22885,52.60044 25.36538,52.56274 25.258994,52.640275 25.289768,52.680944 25.287696,52.681948 26.08386,53.778972 25.936436,54.167346 26.607876,53.955567 26.392774,53.731724 26.396236,53.717879 26.400894,53.703096 26.454633,53.685113 26.630086,52.953283 26.85541,52.230728 26.912179,52.293067 27.743633,53.253778 28.199891,53.1011 28.298741,52.391912 28.452,51.678779 28.565899,51.779647 29.401487,52.570616 29.899264,52.348698 29.919811,51.637415 30.00025,50.915691 30.140875,51.012899 31.037342,51.683854 31.13352,51.627172 31.507888,51.659316 31.529546,51.578594 31.453462,51.542904 31.450188,51.502952 31.450486,51.456524 31.523326,51.399603 31.455478,50.673875 31.455549,49.933336" slic3r:type="contour"/>
  </g></svg>