<svg width="43.790126" height="63.590156" xmlns="http://www.w3.org/2000/svg" xmlns:svg="http://www.w3.org/2000/svg" xmlns:xlink="http://www.w3.org/1999/xlink" xmlns:slic3r="http://slic3r.org/namespaces/slic3r"><g xmlns="http://www.w3.org/2000/svg" slic3r:z="3.635e-006" id="layer10">
    <polygon style="fill: white" points="22.131397,0.624432 22.504212,0.648008 23.004023,0.679089 23.172755,0.490272 23.284112,0.363495 23.495308,0.740971 23.884092,0.816856 24.330628,0.902953 24.540193,0.722011 24.677566,0.602612 24.852205,1.036896 25.246024,1.170325 25.644543,1.302443 25.67003,1.286966 25.893969,1.144378 26.05453,1.043361 26.16826,1.510061 26.534057,1.692546 26.955932,1.895677 27.014344,1.872505 27.015552,1.873324 27.221812,1.783561 27.387546,1.714963 27.424576,2.150816 27.723909,2.35389 28.285671,2.716857 28.339157,2.704701 28.340211,2.705646 28.502359,2.662505 28.636076,2.630383 28.615414,2.952481 28.840305,3.154191 29.627165,3.818499 29.68504,3.812696 29.751251,3.803503 29.8298,3.794593 29.795914,3.971901 29.935231,4.131625 30.952346,5.226615 30.976231,5.226451 30.991908,5.225671 31.018156,5.225036 31.001734,5.281886 31.05486,5.357391 32.247166,6.954457 32.255134,6.954754 32.252475,6.962191 33.526335,9.032648 33.554717,9.036229 33.572792,9.037508 33.605556,9.040718 33.575943,9.112493 33.662756,9.302392 34.647423,11.328964 34.813788,11.355443 34.933024,11.376875 34.794557,11.655666 35.103324,12.655404 35.442178,13.669443 35.812,13.779803 36.069284,13.85685 35.78562,14.29702 35.621844,14.518047 35.755406,15.839499 35.861225,15.898396 35.881616,15.824013 35.8935,15.814085 35.901308,15.808043 35.923564,15.822842 35.934642,15.939261 36.360008,16.176018 36.780487,16.402547 36.538243,16.652968 36.075636,17.073421 36.222422,18.256397 36.411484,18.470342 36.403673,18.529186 36.721984,18.823938 36.576028,18.908279 36.336034,19.038733 36.104759,20.781016 36.092825,20.889128 36.097371,20.895873 36.096801,20.898071 36.112248,20.917708 36.089701,20.92544 36.059392,21.042252 35.00212,22.080177 35.265339,22.443025 35.354612,22.579956 34.646148,22.725235 34.288925,22.782573 34.193439,22.876672 34.180771,22.869857 34.17674,22.875419 34.190593,22.798356 34.032996,22.823652 33.599132,22.215352 33.350364,21.825542 33.805867,21.712504 34.449555,21.575602 34.592298,20.850467 34.301216,20.43923 34.166464,20.210716 34.695139,20.069852 34.73472,19.552868 34.667304,18.82491 34.782711,18.750826 34.866587,18.626094 34.756308,18.511912 34.816608,18.471673 35.082208,18.337085 35.26658,18.067579 35.546431,17.046721 35.174675,16.868559 34.800716,16.653469 35.133448,16.31788 35.45005,16.038194 34.853647,15.114673 34.402753,14.588725 34.223347,14.539671 34.158888,14.521503 34.25693,14.386091 34.117488,14.210322 33.852515,13.860662 33.484052,12.682204 33.355832,12.269633 33.089566,12.23578 33.156114,12.124005 33.221859,12.001798 32.601617,10.769521 32.268407,10.051652 31.836566,10.030422 31.928561,9.852679 32.015062,9.661285 31.464644,8.802976 31.015306,8.046538 30.561108,8.051213 30.642179,7.866077 30.722494,7.659193 30.235716,7.010436 29.804046,6.405571 29.40586,6.435364 29.464233,6.271188 29.521761,6.091081 28.986842,5.503942 28.635163,5.10401 28.337542,5.154059 28.369507,5.027695 28.399791,4.89209 27.747124,4.326993 27.508921,4.113964 27.321812,4.169719 27.332438,4.085892 27.341226,3.996772 26.557252,3.485388 26.420911,3.392988 26.32004,3.44003 26.318972,3.391186 26.316292,3.338053 25.425359,2.918709 25.337545,2.875175 25.275986,2.916526 25.269803,2.883708 25.262028,2.846539 24.317208,2.547788 24.236833,2.520883 24.185374,2.567461 24.174811,2.537645 24.161919,2.502554 23.199728,2.32932 23.107317,2.311601 23.055126,2.372776 23.038226,2.340262 23.017529,2.30077 22.050221,2.246086 21.945704,2.239636 21.895064,2.31451 21.872105,2.280955 21.843746,2.239123 20.871809,2.294158 20.773087,2.300243 20.735,2.372775 20.711062,2.34515 20.681602,2.310726 19.714799,2.485034 19.629233,2.501419 19.604754,2.56746 19.581002,2.54641 19.551629,2.51993 18.615952,2.815625 18.529567,2.844521 18.514144,2.916525 18.485734,2.898 18.450136,2.874221 17.591853,3.276574 17.476137,3.333964 17.470086,3.44003 17.423978,3.419517 17.365317,3.392404 16.627438,3.870498 16.451769,3.989773 16.468318,4.169694 16.382982,4.147065 16.273384,4.115148 15.649452,4.651824 15.393634,4.881102 15.452589,5.154061 15.317482,5.137144 15.14102,5.109054 14.617789,5.680024 14.272215,6.073708 14.384268,6.435365 14.203387,6.431928 13.970681,6.417218 13.956089,6.433841 13.950431,6.433724 13.503763,7.026445 13.071828,7.631552 13.22902,8.051205 13.021078,8.06398 12.762406,8.065025 12.748089,8.085082 12.729118,8.086109 12.264278,8.811851 11.777934,9.625202 11.953542,10.030415 11.752883,10.055813 11.51132,10.071082 11.4986,10.092354 11.486486,10.093757 10.908321,11.25878 10.568217,11.98151 10.700551,12.235763 10.577821,12.258866 10.431036,12.278983 9.937641,13.860584 9.531716,14.383519 9.598771,14.476321 9.63124,14.521503 9.421843,14.57771 8.354654,16.074194 8.739908,16.447491 8.98941,16.653453 8.659865,16.795512 8.324426,16.978479 8.837257,18.429074 9.033822,18.511912 8.99434,18.539524 8.93457,18.596892 9.122823,18.824909 9.143219,20.107763 9.400011,20.173421 9.623665,20.210716 9.318507,20.620177 9.215968,20.782248 9.36206,21.585858 10.020449,21.746335 10.439781,21.825542 10.227852,22.116387 9.757043,22.823682 9.598799,22.793904 9.613388,22.875768 9.613387,22.875768 9.609286,22.869849 9.596718,22.87664 9.487626,22.772983 8.597668,22.605509 8.435514,22.579984 8.79252,22.112504 8.422772,21.761176 7.730733,21.042226 7.698115,20.924492 7.677875,20.917678 7.693583,20.899519 7.692751,20.895846 7.695993,20.891275 7.462248,19.404526 7.427505,19.016326 7.06814,18.823942 7.1896,18.715595 7.38456,18.536478 7.378641,18.470342 7.518058,18.316987 7.546807,17.870717 7.678946,17.024438 7.342676,16.690651 7.009637,16.402547 7.314653,16.231446 7.848176,15.940615 7.866565,15.822842 7.880954,15.813241 7.888818,15.808043 7.908512,15.824012 7.934898,15.89334 8.012202,15.851201 8.093108,14.755917 8.137225,14.463597 8.099449,14.413101 8.105541,14.392315 7.881856,14.060972 7.720842,13.85685 8.256649,13.697057 8.314376,13.679797 8.536247,12.922795 8.994293,11.620626 8.920641,11.479783 8.85711,11.376878 9.092884,11.340342 9.093333,11.339065 9.130088,11.332453 9.301267,10.950768 10.214698,9.105515 10.199541,9.070473 10.184598,9.04069 10.24884,9.036541 10.249912,9.034375 10.260727,9.033238 10.322239,8.926983 11.53764,6.96107 11.534994,6.954754 11.542049,6.954737 12.789074,5.277989 12.780421,5.249296 12.771971,5.225038 12.826163,5.228119 12.827333,5.226545 12.834848,5.226743 12.893585,5.159548 13.997487,3.960176 13.97884,3.868442 13.960323,3.79459 14.127411,3.819016 14.130861,3.815267 14.154346,3.818089 14.333969,3.657483 15.182875,2.933412 15.169906,2.761662 15.154028,2.630404 15.444894,2.709925 15.450974,2.704739 15.492712,2.715075 15.793543,2.511393 16.377139,2.131805 16.395507,1.889761 16.40259,1.714963 16.769333,1.876709 16.775789,1.872511 16.824548,1.892718 17.192069,1.709413 17.632514,1.497041 17.69634,1.227971 17.735618,1.043356 18.096013,1.273552 18.097135,1.273011 18.141288,1.300219 18.52896,1.168815 18.945323,1.030845 19.047512,0.773699 19.11256,0.602604 19.4596,0.901727 19.839301,0.82759 20.299492,0.738918 20.425068,0.512914 20.506014,0.363494 20.788719,0.678429 21.155647,0.65522 21.66274,0.623702 21.802819,0.426547 21.895064,0.293783" slic3r:type="contour"/>
    <polygon style="fill: white" points="34.699931,23.572747 34.902412,23.733902 34.270311,24.008204 33.896904,24.160999 34.776383,24.440229 34.986547,24.502008 34.488356,24.990823 34.440965,25.039955 34.794169,25.288162 34.808352,25.296318 35.34934,25.369954 35.424368,25.377092 35.299386,25.57874 35.431,25.654438 35.671084,25.805785 35.846196,26.387387 35.882212,26.530471 36.093743,26.577672 36.043315,26.654968 35.950177,26.800468 35.952564,26.809948 35.941078,26.829052 36.101212,27.551446 36.177305,27.966818 36.184931,27.969506 36.188273,28.004547 36.727092,28.204614 36.571168,28.385575 36.309708,28.689569 36.311612,28.699964 36.260596,28.762951 36.274296,28.90661 36.350306,29.834778 36.38744,29.855174 36.388322,29.909042 36.621019,30.048473 37.089512,30.300984 36.834935,30.513536 36.401119,30.889632 36.407709,32.002429 36.47802,32.051728 36.4742,32.121227 36.851108,32.397456 37.22766,32.64784 36.906252,32.859653 36.40863,33.214316 36.336975,34.332835 36.43698,34.41736 36.426271,34.496553 36.84088,34.85496 37.1708,35.115296 36.803603,35.307304 36.265578,35.626445 36.116005,36.652105 36.234904,36.77302 36.215411,36.853391 36.626844,37.276476 36.922028,37.556268 36.515936,37.715875 35.925976,37.995826 35.727384,38.767855 35.8482,38.919956 35.817514,39.003287 36.234311,39.529591 36.479872,39.815428 36.024504,39.934379 35.373428,40.158866 35.175363,40.669666 35.290592,40.8564 35.246908,40.940377 35.6632,41.611428 35.847784,41.884932 35.338547,41.94496 34.621522,42.092782 34.413191,42.475003 34.527832,42.479596 34.57352,42.58106 34.517214,42.66012 34.907292,43.515444 35.026508,43.754164 34.467264,43.731851 33.842565,43.766183 33.822251,43.862648 33.77246,43.866796 33.769652,43.861816 33.7665,43.854308 33.793913,43.80015 33.742274,43.704103 33.541452,43.974324 33.671219,43.571935 33.442833,43.147131 33.185176,42.498816 33.312124,42.491944 34.016468,42.501359 34.021959,42.484332 34.216788,42.480273 34.398887,41.764071 34.231043,41.528311 33.901668,40.939756 34.039839,40.910556 34.637647,40.825015 34.641996,40.807912 34.810533,40.777432 34.988322,39.819863 34.860156,39.676904 34.473364,39.149448 34.618491,39.098108 35.150656,38.945531 35.15388,38.928168 35.285915,38.885123 35.428553,37.703497 35.316543,37.601255 34.886936,37.133484 35.038272,37.059839 35.531289,36.852423 35.533532,36.833844 35.629408,36.789663 35.711074,35.403165 35.583516,35.304672 35.129236,34.897107 35.288327,34.800092 35.761811,34.541757 35.763112,34.519663 35.808842,34.492831 35.761863,33.029279 35.676895,32.973091 35.189204,32.61292 35.332732,32.509467 35.731616,32.24164 35.689396,31.965986 35.475681,30.708395 35.060884,30.470486 35.147,30.397731 35.352748,30.227085 34.785151,28.92378 34.77079,28.693632 34.74074,28.683786 34.765159,28.655264 34.746895,28.544045 34.580709,27.446356 34.367956,27.407672 34.180168,27.377754 34.471164,26.908625 34.351833,26.376268 33.843324,26.285758 33.48598,26.226496 33.709047,25.851746 33.96858,25.402986 33.319105,25.147669 32.861097,24.96717 33.072402,24.732633 33.559928,24.203213 33.116896,23.812806 32.71835,23.451476 32.985432,23.310817 33.821584,22.899216" slic3r:type="contour"/>
    <polygon style="fill: white" points="10.602444,23.230069 11.071785,23.451484 10.858573,23.638733 10.228583,24.203468 10.595774,24.609227 10.929034,24.967169 10.567987,25.109086 9.823641,25.402135 10.117941,25.900268 10.304152,26.226512 9.710773,26.332547 9.427507,26.381048 9.312966,26.878108 9.509094,27.199952 9.609959,27.377784 9.196448,27.453764 9.134017,27.817071 9.024032,28.652967 9.039212,28.670966 9.049387,28.683786 9.018958,28.693942 9.015921,28.736783 9.004976,28.92378 8.606798,29.797549 8.429327,30.223767 8.729246,30.47049 8.617173,30.532163 8.329206,30.694863 8.241036,31.299832 8.071338,32.267797 8.102137,32.289588 8.600924,32.61292 8.444084,32.714702 8.072596,32.976998 8.079898,33.282501 8.028555,34.530536 8.033598,34.565811 8.148005,34.633672 8.660894,34.897084 8.508476,35.011759 8.141624,35.321345 8.17773,35.573876 8.234566,36.824028 8.256583,36.833844 8.268035,36.880903 8.355551,36.922079 8.903166,37.133484 8.774484,37.247787 8.43978,37.586543 8.498443,37.827568 8.59724,38.916034 8.63625,38.928168 8.654102,38.976806 8.740901,39.006207 9.316767,39.149452 9.208171,39.26764 8.901611,39.651135 8.962276,39.816416 9.082614,40.796985 9.148134,40.807924 9.17383,40.856223 9.291965,40.879596 9.888458,40.939788 9.799966,41.061495 9.521131,41.509014 9.546854,41.557364 9.660937,42.483337 9.768156,42.484344 9.800938,42.52675 9.995792,42.535132 10.604927,42.498844 10.538688,42.620071 10.221894,43.312313 10.248676,43.974323 10.044855,43.69917 9.997944,43.801675 10.01673,43.837988 10.023655,43.854328 10.017711,43.866784 10.009807,43.866688 9.968043,43.862644 9.959196,43.769659 8.980244,43.768252 8.763588,43.754136 8.992252,43.211903 9.270062,42.653219 9.216607,42.581056 9.237428,42.531591 9.262295,42.479595 9.381454,42.480713 9.170734,42.092611 8.212115,41.943871 7.942345,41.884904 8.210221,41.424327 8.540214,40.931316 8.499538,40.8564 8.541249,40.785067 8.617047,40.668392 8.42211,40.163539 7.617279,39.925608 7.310254,39.815408 7.600749,39.427611 7.970021,38.992713 7.941928,38.919956 8.007419,38.833852 8.065242,38.764221 7.870579,38.004225 7.194299,37.716203 6.868099,37.556268 7.171756,37.227839 7.572879,36.841943 7.555225,36.77302 7.643431,36.680091 7.676897,36.647343 7.53004,35.635842 6.947949,35.315288 6.619338,35.115328 6.932365,34.830355 7.362799,34.483943 7.353133,34.417364 7.456429,34.327027 7.386427,33.223414 6.903509,32.895164 6.562463,32.647853 6.871705,32.409213 7.315628,32.107247 7.312107,32.051736 7.387516,31.996993 7.395298,30.899687 7.077771,30.630796 6.700612,30.30097 6.981528,30.123444 7.402451,29.890975 7.402705,29.855173 7.448519,29.828914 7.537408,28.773983 7.478517,28.699964 7.480538,28.690242 7.063036,28.204614 7.274449,28.108364 7.604107,27.98242 7.605195,27.969506 7.632557,27.959127 7.737729,27.453311 7.855583,26.84115 7.837566,26.809948 7.839671,26.802437 7.696386,26.577672 7.780378,26.555715 7.917543,26.524631 8.119045,25.805786 8.488011,25.588583 8.397958,25.437023 8.365763,25.377092 8.989901,25.276655 9.335972,25.040613 8.942709,24.647039 8.803576,24.502008 9.465879,24.282176 9.891727,24.156309 9.122264,23.829543 8.887716,23.733902 9.425644,23.329992 9.968565,22.899246" slic3r:type="contour"/>
    <polygon style="fill: white" points="11.41144,43.935652 11.025252,45.22281 11.041516,45.245935 11.059273,45.275868 11.050215,45.304396 11.032023,45.307256 10.898118,45.317292 10.889664,45.225697 9.928997,45.388904 9.774914,45.40524 9.941783,44.781768 10.149015,44.154793 10.086111,44.092164 10.09229,44.069036 10.100309,44.043531 10.278045,44.013972 10.44835,43.985648 10.482696,44.014338 10.84141,43.967328 11.453512,43.823092" slic3r:type="contour"/>
    <polygon style="fill: white" points="12.40991,45.009668 12.197271,46.400309 12.22314,46.427404 12.238999,46.446567 12.235195,46.469336 12.2207,46.474264 12.048078,46.519456 12.045019,46.427834 11.065692,46.775083 10.968468,46.8035 11.054248,46.113747 11.186078,45.37486 11.829329,45.171396 12.429748,44.917252" slic3r:type="contour"/>
    <polygon style="fill: white" points="13.5242,45.882316 13.490432,47.316507 12.366281,47.928747 12.31001,47.955908 12.308393,47.223212 12.342493,46.483615 12.951096,46.176771 13.528937,45.820459" slic3r:type="contour"/>
    <polygon style="fill: white" points="14.743927,46.582335 14.8756,48.065936 13.805291,48.856059 13.766612,48.882107 13.680641,48.131019 13.631213,47.394904 14.192438,47.006904 14.742972,46.55982" slic3r:type="contour"/>
    <polygon style="fill: white" points="32.445111,43.836447 33.335499,44.002813 33.341775,43.985648 33.512883,44.012764 33.642891,44.033368 33.689816,44.043532 33.704016,44.092164 33.664347,44.1332 33.638823,44.158544 33.954819,45.222507 34.015212,45.405268 33.421467,45.276756 32.916552,45.2195 32.891831,45.317268 32.739902,45.304384 32.735308,45.292644 32.730854,45.275887 32.766787,45.223912 32.508052,44.524868 32.336612,43.823087" slic3r:type="contour"/>
    <polygon style="fill: white" points="31.442429,44.942839 32.604044,45.374864 32.799958,46.68102 32.821652,46.803484 32.219056,46.559228 31.769641,46.425989 31.741706,46.519356 31.554892,46.469319 31.552665,46.459667 31.551094,46.446588 31.594607,46.400458 31.435605,45.658655 31.360378,44.91728" slic3r:type="contour"/>
    <polygon style="fill: white" points="30.312086,45.845996 31.447671,46.483636 31.476826,47.881264 31.480126,47.955928 30.893471,47.603887 30.299712,47.31652 30.242668,46.587831 30.261196,45.820452" slic3r:type="contour"/>
    <polygon style="fill: white" points="29.064416,46.571752 30.158917,47.394848 30.027249,48.828296 30.023514,48.882076 29.47307,48.44146 28.914555,48.065995 28.943259,47.343408 29.047156,46.55982" slic3r:type="contour"/>
    <polygon style="fill: white" points="27.860582,47.277321 28.024297,47.426919 28.017232,47.428928 28.762197,48.126575 28.495162,49.538347 28.48395,49.606328 27.98365,49.104815 27.453408,48.651796 27.551606,47.953244 27.645419,47.534653 27.308707,47.630396 26.691129,48.029648 27.008506,48.377552 26.994161,48.381764 27.286178,48.708204 26.914714,50.042683 26.88524,50.15834 26.443435,49.625639 25.933802,49.099912 26.033953,48.663692 25.516628,48.815583 25.781132,49.161272 25.783102,49.1639 25.782262,49.166348 25.77943,49.166811 25.743482,49.172174 25.303404,50.374235 25.243616,50.546248 24.855684,49.998996 24.352774,49.379649 24.165726,49.407554 24.1948,49.453256 24.18045,49.48654 24.1599,49.487717 23.67099,50.562451 23.575414,50.776192 23.232419,50.218387 22.785087,49.559331 22.59888,49.569018 22.019978,50.627967 21.895064,50.852055 21.585877,50.275655 21.230967,49.640172 21.230508,49.640196 21.224463,49.628526 21.191084,49.56876 21.005178,49.559093 20.344118,50.584731 20.214713,50.77622 19.930342,50.161116 19.629689,49.48758 19.609678,49.48654 19.60268,49.470552 19.595328,49.453256 19.624535,49.407336 19.436302,49.379273 18.656865,50.409592 18.546512,50.546248 18.291568,49.882672 18.045969,49.171997 18.007864,49.166316 18.007445,49.165147 18.007024,49.163868 18.211491,48.89722 17.768557,48.774197 17.856358,49.099935 16.982355,50.077968 16.904888,50.15832 16.690254,49.44694 16.503966,48.708152 16.800763,48.393437 16.781504,48.377672 16.970083,48.171707 16.205168,47.938407 16.336698,48.651836 15.35322,49.565996 15.306171,49.606352 15.147047,48.86122 15.027902,48.126532 15.535613,47.683807 15.776795,47.442439 15.765588,47.427136 15.855393,47.345414 15.405805,47.227724 15.387091,46.85272 16.045578,47.173134 16.060689,47.157483 16.064133,47.181111 17.415438,47.687292 17.460114,47.63378 17.477491,47.710056 17.563243,47.730871 18.841741,48.075303 18.873148,48.034343 18.912358,47.980616 18.950741,48.102792 19.093575,48.124027 20.312874,48.325124 20.35045,48.266047 20.39692,48.193028 20.458862,48.344574 20.640781,48.353959 21.812622,48.420752 21.849324,48.349371 21.895064,48.265692 21.975547,48.421774 22.165253,48.411992 23.327021,48.345615 23.356256,48.273631 23.393208,48.193027 23.478677,48.327399 23.644148,48.302815 24.834577,48.105505 24.853091,48.04588 24.87777,47.98064 24.951916,48.077544 25.07405,48.047907 26.30902,47.712883 26.31748,47.674999 26.329988,47.633772 26.379541,47.68809 26.450748,47.664059 27.723357,47.183915 27.729438,47.157483 27.747467,47.173958 28.403035,46.85272" slic3r:type="contour"/>
  </g></svg>