<svg width="43.790126" height="63.590156" xmlns="http://www.w3.org/2000/svg" xmlns:svg="http://www.w3.org/2000/svg" xmlns:xlink="http://www.w3.org/1999/xlink" xmlns:slic3r="http://slic3r.org/namespaces/slic3r"><g xmlns="http://www.w3.org/2000/svg" slic3r:z="1.4525e-005" id="layer43">
    <polygon style="fill: white" points="21.968943,0.62138 22.141465,0.878456 22.153052,0.87775 22.174608,0.909067 22.429812,0.923936 22.777079,0.945099 22.805904,0.913817 22.823324,0.917747 23.104948,0.60033 23.159002,0.711739 23.285055,0.976055 23.296076,0.976727 23.32244,1.03034 23.589459,1.090574 23.930059,1.167903 23.969656,1.13602 23.983914,1.142791 24.310236,0.871384 24.347252,0.99044 24.436101,1.282794 24.446126,1.28507 24.474985,1.376018 24.640118,1.454445 24.996408,1.618085 25.05628,1.583182 25.067612,1.592965 25.493309,1.338105 25.517716,1.49068 25.576291,1.88442 25.584988,1.888414 25.61151,2.054731 25.905353,2.2862 26.002088,2.247633 26.011006,2.261085 26.191295,2.186272 26.636104,2.006006 26.642802,2.24243 26.648189,2.871355 26.6523,2.874593 26.653253,2.938674 26.894985,3.085099 27.35786,2.963126 27.728312,2.874436 27.691763,3.262909 27.653066,3.587627 28.031972,3.865168 28.218401,3.99557 28.286628,3.988947 28.532109,3.959335 28.755026,3.939064 28.665152,4.343232 28.861833,4.517821 29.653746,5.202616 29.672409,5.203701 29.676392,5.203772 29.690766,5.20448 29.681924,5.228733 29.738444,5.292919 29.819187,6.187855 29.860717,6.55652 30.228211,6.625239 30.506446,6.687338 30.35369,6.992309 30.281677,7.128449 30.45179,7.333373 30.949956,7.98196 30.936484,8.211646 30.932414,8.296423 31.095866,8.360201 31.038206,8.459894 30.858686,8.730426 30.841359,8.853221 30.991998,8.984134 31.393734,9.350977 31.372752,9.701303 31.370966,9.836609 31.632024,9.9318 31.520438,10.114304 31.462154,10.202441 31.608603,10.232739 31.786004,10.28864 31.850179,10.981817 31.871485,11.282118 32.385735,11.397229 32.42967,11.406088 32.396449,11.445389 32.461392,11.453109 32.789106,12.318208 32.866656,12.618357 33.333766,12.62755 33.15729,12.830063 33.118156,12.918006 33.307407,13.142554 33.476717,13.510246 33.535919,13.561161 33.96124,13.574593 34.2165,13.533141 34.005208,13.776176 33.983815,13.945216 34.195067,14.309681 34.239628,14.30836 34.311011,14.379926 34.380395,14.381971 34.506344,14.346289 34.552607,14.387047 34.979208,14.399621 35.141595,14.348824 34.93268,14.583751 34.936519,14.725278 35.103292,14.872206 35.079051,14.98929 35.392559,15.025976 35.678721,15.276326 36.031028,15.318421 36.148875,15.291603 35.94681,15.510864 36.111184,15.654668 36.093752,15.725233 36.2695,15.77918 36.993915,16.381421 37.110544,16.563378 37.136384,16.571451 37.141827,16.572321 37.120237,16.589995 37.46186,17.788384 37.494452,18.035224 37.558252,18.06829 37.558715,18.081685 37.916736,18.21459 37.774032,18.32928 37.576873,18.606731 37.589835,18.98155 37.528855,19.593012 38.299359,20.036127 38.495808,20.140954 38.12544,20.441059 38.43722,20.54199 38.595852,20.58558 38.494439,21.477934 38.435666,21.870107 39.0144,22.154896 38.729172,22.421153 38.313283,22.805263 38.915503,22.891163 39.236124,22.905478 39.139352,23.497783 39.095179,23.901661 39.650608,24.174189 39.339987,24.455116 39.149704,24.634022 39.645956,24.67832 39.869784,24.719006 39.751664,25.405231 39.632887,26.05047 40.317323,26.503627 40.511768,26.629466 40.371006,26.744515 40.514659,26.779367 40.5675,26.809104 40.382708,27.807019 40.143902,28.546311 40.191168,28.581568 40.163199,28.714968 40.883208,29.349506 41.152123,29.558081 40.790565,29.813727 40.86846,29.892567 40.789923,29.96578 41.088216,30.145976 41.274636,30.385738 41.10776,31.298228 40.933393,31.755244 40.98968,31.809018 40.963797,31.97664 41.476108,32.363488 41.220843,32.50921 40.760713,32.909772 40.534103,33.55462 39.425504,32.134422 39.404864,32.119576 39.414012,32.081869 39.400672,32.067205 39.42076,32.045672 39.948875,30.256685 39.810672,30.108836 39.837969,30.015103 39.39832,29.691162 38.987204,29.295382 39.135616,29.123039 39.49274,28.818022 39.444076,28.793916 39.514263,28.711559 38.825528,28.519996 39.109896,27.609023 39.220989,27.227768 39.134059,27.151545 39.137523,27.136677 38.759959,26.915327 38.374444,26.669243 38.275576,26.658616 38.241892,26.652838 38.25758,26.594959 38.210708,26.57461 38.274441,26.507797 38.563321,25.127808 37.963848,25.135322 37.618779,25.082848 37.721492,24.577797 37.594304,24.521422 37.36476,24.429884 37.776524,24.072354 37.837227,24.00871 37.843523,23.977753 37.936768,23.304326 37.2553,23.082088 36.933732,22.96351 37.038534,22.461456 36.937288,22.402824 36.792696,22.308059 37.121797,22.049515 37.278766,20.770707 36.884424,20.582144 36.32926,20.277442 36.420631,20.197294 36.492015,20.130979 36.662821,19.950716 36.16,19.74262 36.194099,18.809997 36.174517,18.703908 36.006567,18.649125 35.81116,18.56788 36.080807,18.196206 35.969552,17.593461 35.937812,17.587416 35.845366,17.385713 35.584164,17.362814 35.200872,17.302138 35.385604,16.907775 35.527755,16.602901 35.361192,16.599481 35.208939,16.366512 34.929351,16.3978 34.445827,16.42475 34.518019,16.12452 34.575247,15.894129 34.448779,15.845495 34.451954,15.578329 34.241147,15.531886 34.07996,15.558452 33.490146,15.629507 33.513804,15.481259 33.535687,15.376464 33.462884,15.360424 33.452551,15.147199 32.85842,15.134483 32.608007,14.741351 32.53817,14.7457 32.518825,14.706181 32.46908,14.711909 32.361478,14.722826 32.38233,14.427348 32.128833,13.909507 32.025976,13.701569 31.856668,13.694511 31.831165,13.605295 31.656806,13.588247 31.205612,13.557071 31.283986,13.332066 31.322188,13.245671 31.253578,13.234118 31.328698,12.962843 30.784155,12.93704 30.666808,12.202786 30.635362,12.197109 30.629738,12.144987 30.568543,12.128009 30.327327,12.075788 30.565255,11.711128 30.580257,11.686442 30.561372,11.511433 30.522958,11.489951 30.559547,11.43833 30.280307,11.188671 29.735114,10.689218 29.739266,10.574105 29.695878,10.562297 29.741794,10.504042 29.742783,10.47662 29.754501,9.221359 29.695552,9.130444 29.661528,9.12098 29.230444,9.010934 29.373167,8.82283 29.416039,8.76462 28.871696,8.087298 28.894529,7.594952 28.838058,7.585864 28.698534,7.568655 28.895642,7.250674 28.785724,6.587546 28.5825,6.353744 28.469532,6.354161 28.034168,6.360569 28.133922,6.112815 28.191892,5.963224 27.837149,5.637875 27.465742,5.293259 27.2445,5.327112 27.270275,5.219213 27.287512,5.14567 26.429248,4.483331 26.402593,4.462982 26.384408,4.468355 26.386175,4.451729 26.243186,4.360417 25.686737,3.694122 25.559934,3.749889 25.4918,3.778947 25.492225,3.504147 25.163696,3.24163 24.924862,3.056106 24.701166,3.194507 24.594856,3.259615 24.536568,2.821654 24.06312,2.595748 23.807989,2.81018 23.69708,2.903305 23.561276,2.429992 23.12682,2.325932 22.894321,2.588301 22.797824,2.697475 22.593537,2.25496 22.160035,2.227493 21.972399,2.513335 21.895064,2.631699 21.630439,2.230021 21.196132,2.25752 21.054267,2.564011 20.992274,2.697456 20.666864,2.330939 20.229824,2.435683 20.135397,2.760174 20.093014,2.903314 19.733782,2.60105 19.342009,2.788382 19.25561,2.828124 19.214107,3.128844 19.195262,3.25961 18.874504,3.059645 18.619023,3.265077 18.299256,3.510204 18.298876,3.697965 18.29835,3.778937 18.112996,3.695688 18.008374,3.828045 17.546897,4.360453 17.404047,4.452133 17.40572,4.468355 17.388078,4.462767 16.650999,5.034697 16.503561,5.146962 16.545652,5.327112 16.425699,5.307734 16.322116,5.291675 15.92049,5.656135 15.59988,5.954995 15.75596,6.360569 15.445812,6.360903 15.166523,6.357998 14.983482,6.574192 14.897905,7.027794 14.878684,7.205457 14.997629,7.404341 15.091592,7.568656 14.87128,7.607391 14.870044,7.817857 14.91843,8.087299 14.570481,8.465426 14.363924,8.74316 14.559683,9.010934 14.259057,9.096104 14.062598,9.148319 14.02394,9.200297 14.00481,9.206201 13.997307,9.721293 14.041882,10.470054 14.047401,10.47747 14.047919,10.501174 14.063558,10.521403 14.094247,10.562276 14.04809,10.576748 14.055038,10.689115 13.523439,11.091253 13.240505,11.367865 13.232777,11.437755 13.267197,11.48997 13.224164,11.517626 13.212928,11.627633 13.214833,11.630126 13.210182,11.658908 13.27462,11.760581 13.462818,12.075788 13.158605,12.159507 13.154762,12.197133 13.122218,12.20339 13.089038,12.408762 13.005959,12.937083 12.695667,13.023996 12.480071,13.036369 12.536569,13.234128 12.44132,13.259937 12.584514,13.557071 11.956325,13.616291 11.933458,13.694511 11.771985,13.703479 11.616912,14.023787 11.394386,14.46396 11.403827,14.559064 11.42865,14.722827 11.27257,14.704922 11.251957,14.745696 11.197609,14.74176 11.150531,14.823558 10.931756,15.134451 10.508716,15.227093 10.33131,15.22354 10.327272,15.360396 10.247468,15.395211 10.299992,15.62951 10.015869,15.583036 9.866028,15.561621 9.771354,15.602925 9.336972,15.654104 9.341336,15.845495 9.220385,15.929631 9.344279,16.424741 8.824806,16.366056 8.633454,16.350372 8.428962,16.599443 8.342907,16.598932 8.303865,16.690169 8.390754,16.875943 8.589257,17.302138 7.995271,17.353252 7.854046,17.584577 7.761297,18.143892 7.738367,18.236156 7.830605,18.363291 7.978984,18.567884 7.62747,18.682364 7.602693,18.782054 7.617802,19.089834 7.630139,19.74262 7.434568,19.902175 7.180551,20.011645 7.460873,20.277444 7.262682,20.372596 6.500989,20.763039 6.603335,21.727791 6.64724,22.010753 6.848034,22.1734 6.997441,22.308078 6.742225,22.456756 6.786177,22.689422 6.856392,22.963572 6.281372,23.139728 5.844048,23.299234 5.903506,23.785122 5.908559,23.790734 5.937784,23.941031 6.227025,24.206485 6.425385,24.429846 6.063793,24.589065 6.102834,24.789846 6.171365,25.082794 5.589004,25.045134 5.220619,25.090996 5.342665,25.665584 5.514354,26.499666 5.554227,26.543503 5.579422,26.574598 5.534004,26.596754 5.548261,26.652772 5.418064,26.663915 4.651341,27.128157 4.656088,27.151556 4.587302,27.203712 4.780084,27.791761 4.964601,28.519954 4.747014,28.598313 4.288345,28.730659 4.346034,28.793874 4.25325,28.847246 4.333772,28.931164 4.802915,29.295379 4.411317,29.588882 3.948825,29.977276 3.9794,30.108814 3.868093,30.209775 4.122859,30.918122 4.374663,32.058532 4.389454,32.067206 4.37857,32.076017 4.385261,32.11958 3.870613,33.089074 3.255968,33.554468 3.117976,33.025682 2.755087,32.791735 2.314003,32.363476 2.537692,32.106745 2.821813,31.890783 2.800466,31.808981 2.921783,31.674435 2.515465,30.385852 3.083706,30.062933 2.921671,29.892606 2.974638,29.851931 2.748654,29.676154 2.638005,29.558058 3.167856,29.026044 3.627228,28.680123 3.598991,28.581512 3.665313,28.52751 3.28613,27.026948 3.222656,26.809016 3.415687,26.774414 3.386,26.742449 3.395181,26.739162 3.323216,26.675978 3.278363,26.629463 3.833755,26.241361 4.158519,26.034773 4.129146,25.870547 3.920348,24.719026 4.670457,24.669176 4.347558,24.371633 4.139508,24.17423 4.495532,24.021084 4.68345,23.926972 4.553989,22.905484 5.173163,22.80792 5.457816,22.786506 5.009057,22.369812 4.77573,22.154868 5.096749,22.018255 5.370381,21.882608 5.194284,20.585558 5.603451,20.45197 5.373918,20.236133 5.294321,20.140954 5.744835,19.855715 6.301268,19.5596 6.265471,18.790635 6.152989,18.66843 5.873369,18.214603 6.069134,18.103684 6.319404,18.009733 6.360931,17.981947 6.650453,16.710924 6.666037,16.625633 6.648272,16.572305 6.664636,16.564954 6.690078,16.560477 6.796376,16.38117 7.710849,15.928588 7.678948,15.654595 7.692565,15.649028 7.618249,15.416728 7.641279,15.29158 8.24551,15.087288 8.709966,15.133704 8.686785,14.872143 8.695395,14.870167 8.606055,14.521655 8.648478,14.348834 9.19525,14.212575 9.632791,14.2904 9.756757,14.263358 9.564534,13.730052 9.573641,13.533137 10.067462,13.423384 10.416375,13.464522 10.473003,13.448894 10.662945,13.109533 10.579676,12.969232 10.456362,12.627533 10.789956,12.555153 10.975899,12.553265 11.34211,11.411341 11.729081,11.300485 11.926724,11.260602 12.004123,10.288638 12.348905,10.218084 12.231154,10.035793 12.15811,9.931802 12.306397,9.898262 12.412435,9.862248 12.39642,9.350949 12.951817,8.861784 12.926865,8.689081 12.872785,8.609456 12.87239,8.601858 12.853119,8.571175 12.69426,8.360203 12.771441,8.341295 12.857313,8.31155 12.840192,7.981901 13.521147,7.132704 13.402282,6.900763 13.283682,6.687322 13.539152,6.644548 13.9191,6.567117 14.051687,5.29291 14.109052,5.228526 14.099361,5.20448 14.130649,5.204287 14.131905,5.202877 14.135681,5.202731 14.183201,5.160779 15.132431,4.331249 15.086777,4.131951 15.0351,3.939083 15.510257,4.001069 15.522045,3.990767 15.556243,3.994726 16.145086,3.566577 16.110041,3.217738 16.061813,2.874431 16.373368,2.958674 16.879962,3.085746 17.137276,2.930555 17.137834,2.874457 17.147962,2.865972 17.15751,2.45883 17.15404,2.005973 17.346311,2.086197 17.776502,2.26261 17.788028,2.247601 17.863129,2.277789 18.18429,2.021588 18.205137,1.888398 18.220216,1.881269 18.225854,1.845384 18.296815,1.338107 18.42259,1.411555 18.724646,1.59053 18.733844,1.583193 18.786157,1.613662 18.922481,1.549201 19.318121,1.367097 19.34406,1.28492 19.357316,1.28193 19.479915,0.87136 19.576262,0.947867 19.811766,1.139883 19.820375,1.13592 19.860821,1.168356 20.124634,1.108847 20.467435,1.031023 20.494111,0.976609 20.508508,0.975774 20.685174,0.600337 20.770228,0.691272 20.974269,0.915958 20.984124,0.913721 21.014398,0.946415 21.272666,0.931426 21.614579,0.910581 21.637076,0.87775 21.655326,0.878813 21.895064,0.51414" slic3r:type="contour"/>
    <polygon style="fill: white" points="3.948653,40.855572 4.109813,41.188229 4.141684,41.203832 4.74691,41.236488 4.62239,41.359024 4.374927,41.735463 5.143772,43.322472 5.142843,43.367116 5.171328,43.367528 5.166982,43.372322 5.179018,43.397172 5.573214,45.473707 5.648705,45.493216 5.731068,45.486976 5.607088,45.652146 5.622796,45.734891 5.606085,45.766686 5.744992,46.092235 6.179507,47.546881 6.307423,47.56412 6.440418,47.54758 6.264179,47.830342 6.294913,47.933232 6.279692,47.967403 6.534732,48.411744 7.020372,49.508611 7.172783,49.506872 7.324744,49.476436 7.158238,49.819994 7.196655,49.906763 7.190177,49.925182 7.519078,50.348328 8.121241,51.277845 8.26755,51.250747 8.407924,51.207248 8.295368,51.546634 8.327706,51.596552 8.673266,51.91432 9.515093,52.783372 9.630354,52.741595 9.730715,52.69672 9.68397,52.960283 9.979974,53.162012 11.152189,54.023889 11.210392,53.993092 11.257973,53.964908 11.25204,54.096021 11.406141,54.175384 12.934798,55.007821 12.938743,55.004846 13.378357,55.80556 13.225848,56.445136 13.131751,56.408315 12.403981,56.922944 12.004297,57.182792 11.931163,56.636088 11.858838,55.91022 11.82076,55.895319 11.813348,55.834496 11.808305,55.772015 11.210562,55.463679 10.597917,55.804404 10.103554,56.044116 10.087382,55.543808 10.095158,54.888317 10.060028,54.870196 10.056739,54.7204 9.39734,54.268402 8.947096,54.453699 8.351286,54.641376 8.382681,54.197648 8.460757,53.626402 8.421944,53.599796 8.436869,53.410408 7.778702,52.798629 7.48845,52.876052 6.812703,52.964776 6.881779,52.576552 7.018115,52.091647 6.972048,52.048828 7.016943,51.803737 6.427876,51.032789 6.273179,51.053456 5.562103,51.023312 5.659098,50.675631 5.839758,50.263083 5.78597,50.192688 5.865609,49.908643 5.373295,49.031529 5.27419,49.033472 4.570683,48.897004 4.691442,48.569703 4.906448,48.199784 4.849389,48.098128 4.969021,47.766723 4.59522,46.875601 4.457668,46.865256 3.796196,46.650311 3.947053,46.316632 4.208047,45.952601 4.14857,45.810812 4.314215,45.423761 4.072363,44.652398 3.781314,44.609644 3.201242,44.357648 3.399931,43.977371 3.735622,43.578392 3.672142,43.375927 3.818338,43.072828 3.899233,42.972221 3.777883,42.444675 3.193341,42.310612 2.746274,42.069628 3.022367,41.59988 3.476506,41.134499 3.407928,40.836368 3.472236,40.716331 3.522247,40.661884" slic3r:type="contour"/>
    <polygon style="fill: white" points="3.955916,39.02392 4.454693,39.085912 4.200941,39.315104 3.534643,40.223503 2.754216,39.967539 2.429557,39.756588 2.789653,39.211871 3.37527,38.684251" slic3r:type="contour"/>
    <polygon style="fill: white" points="3.300369,38.258112 3.302051,38.297948 3.284198,38.317223 3.275497,38.312879 3.248553,38.292992 3.279492,38.1348" slic3r:type="contour"/>
    <polygon style="fill: white" points="3.339946,33.821392 3.315008,34.038947 3.764459,34.390284 4.258714,34.565904 3.957627,34.811883 3.217659,35.612796 2.489799,35.211396 2.201862,34.960192 2.590585,34.477824 3.16706,34.040979 3.118281,33.790432 3.163891,33.7327 3.197084,33.706836" slic3r:type="contour"/>
    <polygon style="fill: white" points="3.19317,35.933396 3.193868,35.939748 3.189922,35.94368 3.188049,35.942608 3.183136,35.93858 3.190317,35.921996" slic3r:type="contour"/>
    <polygon style="fill: white" points="3.842824,36.780319 4.29098,36.879504 3.954946,37.164176 3.310224,37.949732 2.510243,37.603375 2.248072,37.402944 2.660641,36.840836 3.2408,36.369536" slic3r:type="contour"/>
    <polygon style="fill: white" points="40.671835,33.790304 40.660303,33.930152 40.625614,34.06657 41.208559,34.680591 41.588268,34.96024 41.120648,35.182687 40.572556,35.612775 39.942659,35.089219 39.5314,34.565916 39.757208,34.364024 40.517796,33.997128 40.45032,33.821248 40.551991,33.726204 40.593096,33.706764" slic3r:type="contour"/>
    <polygon style="fill: white" points="40.604488,35.929551 40.606852,35.938712 40.60016,35.94374 40.598575,35.942495 40.596268,35.939864 40.599772,35.922364" slic3r:type="contour"/>
    <polygon style="fill: white" points="41.238443,37.164187 41.54204,37.402916 41.012384,37.584551 40.479936,37.949639 39.859868,37.406588 39.499144,36.879507 39.799191,36.644892 40.549268,36.369532" slic3r:type="contour"/>
    <polygon style="fill: white" points="40.539264,38.224856 40.541424,38.293076 40.505828,38.317268 40.498943,38.311539 40.488004,38.29802 40.51054,38.135108" slic3r:type="contour"/>
    <polygon style="fill: white" points="41.023548,39.461712 41.360576,39.756616 40.861764,39.870176 40.255544,40.223404 39.712571,39.711827 39.335436,39.085928 39.595563,38.911812 40.414796,38.684316" slic3r:type="contour"/>
    <polygon style="fill: white" points="40.382264,40.83638 40.333046,41.23138 40.624071,41.648347 41.043852,42.069608 40.626939,42.11966 40.059549,42.393215 39.910438,43.023755 40.118016,43.375956 40.047904,43.701878 40.092251,43.773423 40.588883,44.357696 40.258692,44.368795 39.841042,44.530396 39.507364,45.555038 39.641576,45.810856 39.562623,46.050209 39.993924,46.650324 39.70798,46.641168 39.332113,46.749015 39.297732,46.853243 38.84796,47.889432 38.940724,48.098136 38.857568,48.272017 39.21944,48.896996 38.944735,48.863404 38.54294,48.929914 38.473004,49.076151 37.93836,50.003412 38.004156,50.19274 37.920319,50.315131 38.228024,51.023351 37.94142,50.9579 37.47415,50.968812 36.775665,51.865248 36.81808,52.048836 36.74331,52.124057 36.977424,52.964788 36.660348,52.854968 36.081899,52.77274 35.350671,53.44262 35.368215,53.599764 35.313736,53.639606 35.339547,53.906523 35.438864,54.641356 35.080124,54.472732 34.426079,54.26292 33.730025,54.734798 33.730152,54.8702 33.687514,54.893494 33.679696,55.416363 33.686583,56.044088 33.290883,55.806739 32.589527,55.464267 31.981899,55.775066 31.969366,55.895324 31.928074,55.912424 31.838343,56.657887 31.78585,57.182792 31.368705,56.873287 30.657124,56.409024 30.564279,56.445136 30.849584,55.013736 30.848124,55.01084 30.855044,55.007995 30.85509,55.007624 30.855389,55.007831 32.534546,54.100717 32.531014,54.025032 32.532158,53.964904 32.644816,54.024217 32.84787,53.884483 34.08402,52.985833 34.083644,52.980955 34.096825,52.968639 34.070132,52.81982 34.059388,52.696748 34.29685,52.781734 34.664971,52.437756 35.46377,51.623886 35.45948,51.601092 35.481078,51.572577 35.415843,51.377279 35.382208,51.207239 35.71348,51.265747 36.121019,50.727688 36.612763,49.974275 36.593492,49.906804 36.617663,49.863125 36.51996,49.662168 36.465396,49.476404 36.832667,49.474598 37.17302,48.859559 37.532134,48.035296 37.49522,47.933228 37.515701,47.883051 37.410288,47.713548 37.349704,47.54758 37.674143,47.494886 37.891027,46.96354 38.206364,45.826651 38.167328,45.734891 38.179145,45.695293 38.103035,45.592831 38.059055,45.48698 38.259247,45.426863 38.349759,45.123544 38.615323,43.369114 38.620212,43.366911 38.621398,43.366738 39.511429,42.992457 39.634084,42.198601 39.461603,42.021187 39.043216,41.236488 39.185963,41.156564 39.814912,41.02823 39.841588,40.85558 40.183432,40.674248 40.267984,40.661936" slic3r:type="contour"/>
    <polygon style="fill: white" points="29.132807,55.849251 30.102721,56.687504 29.896331,57.614416 29.805194,58.065716 29.39096,57.691424 28.783033,57.192564 28.905959,56.58778 29.090628,55.814172" slic3r:type="contour"/>
    <polygon style="fill: white" points="27.355976,56.441292 28.239394,57.363244 27.947389,58.270852 27.817374,58.698468 27.435424,58.28098 26.876562,57.723152 27.052796,57.138555 27.308308,56.393356" slic3r:type="contour"/>
    <polygon style="fill: white" points="25.548195,56.813263 26.364272,57.825068 26.00696,58.681319 25.832432,59.111356 25.492467,58.669951 24.974126,58.04878 25.192851,57.50174 25.514438,56.772607" slic3r:type="contour"/>
    <polygon style="fill: white" points="23.726988,57.002748 24.483056,58.098156 24.078726,58.896399 23.857264,59.334575 23.557149,58.880499 23.078972,58.200868 23.331305,57.6937 23.710232,56.978776" slic3r:type="contour"/>
    <polygon style="fill: white" points="14.711319,55.872531 15.00704,57.19262 14.317294,57.793559 13.984931,58.065708 13.850245,57.494704 13.687378,56.687464 14.127977,56.319907 14.699499,55.814168" slic3r:type="contour"/>
    <polygon style="fill: white" points="16.502027,56.460703 16.913596,57.72312 16.277141,58.395031 15.97277,58.698476 15.786327,58.138316 15.550684,57.363352 15.965245,56.945387 16.481817,56.393388" slic3r:type="contour"/>
    <polygon style="fill: white" points="18.295435,56.822155 18.816026,58.048844 18.250472,58.760767 17.957694,59.111376 17.73309,58.58188 17.425882,57.825019 17.797396,57.376763 18.275688,56.77258" slic3r:type="contour"/>
    <polygon style="fill: white" points="20.092858,57.004896 20.711132,58.200812 20.214782,58.934027 19.932876,59.334584 19.682315,58.840539 19.307084,58.0982 19.631586,57.633479 20.079894,56.978776" slic3r:type="contour"/>
    <polygon style="fill: white" points="21.902999,57.051815 22.599074,58.209332 22.57646,58.247866 22.58627,58.265028 22.585094,58.267103 22.565659,58.266271 22.156462,58.963547 21.895082,59.398916 21.624848,58.932016 21.225214,58.266304 21.205032,58.267104 21.204366,58.265908 21.203856,58.265028 21.213836,58.247349 21.191054,58.2094 21.474206,57.731983 21.895064,57.038424" slic3r:type="contour"/>
  </g></svg>