<svg width="43.790126" height="63.590156" xmlns="http://www.w3.org/2000/svg" xmlns:svg="http://www.w3.org/2000/svg" xmlns:xlink="http://www.w3.org/1999/xlink" xmlns:slic3r="http://slic3r.org/namespaces/slic3r"><g xmlns="http://www.w3.org/2000/svg" slic3r:z="5.11549999999998e-005" id="layer154">
    <polygon style="fill: white" points="31.624725,17.679026 32.146789,17.609798 32.931766,17.540568 32.769546,17.772045 32.316796,18.342332 31.068799,18.685796 30.968844,18.711246 31.010043,18.500048 30.849617,18.631292 30.832656,18.647746 30.372263,17.711367 30.225895,17.35805 30.933582,16.817592 31.131788,16.629163" slic3r:type="contour"/>
    <polygon style="fill: white" points="28.98289,16.352501 29.33069,17.067346 28.77444,17.635415 28.51736,17.919424 28.183188,17.305564 27.871476,16.655356 28.29615,16.24678 28.703912,15.799304" slic3r:type="contour"/>
    <polygon style="fill: white" points="26.830552,15.532962 27.33539,16.514512 26.936581,16.963002 26.541454,17.444098 26.298417,17.011175 25.891454,16.203537 26.171996,15.891886 26.684664,15.266382" slic3r:type="contour"/>
    <polygon style="fill: white" points="25.010656,15.044276 25.618576,16.150793 25.313372,16.530609 24.851618,17.156202 24.655643,16.824409 24.18851,15.950629 24.39711,15.686278 24.94496,14.934322" slic3r:type="contour"/>
    <polygon style="fill: white" points="21.907256,14.723812 22.464982,15.627923 22.712846,15.746888 22.990594,15.332751 22.996896,15.341943 23.377668,14.756751 23.401386,14.79348 24.07139,15.936027 23.817047,16.284668 23.335906,17.007852 23.156814,16.725149 22.692895,15.913192 22.556182,15.913109 22.367328,16.193277 21.895064,16.967402 21.712172,16.701715 21.229855,15.913166 21.093726,15.913225 20.913359,16.203554 20.454192,17.007866 20.257699,16.743204 19.718744,15.93581 19.914492,15.635452 20.41249,14.75675 20.435331,14.788764 20.798215,15.334799 20.799564,15.33275 21.077834,15.748234 21.330034,15.629766 21.581596,15.217888 21.587692,15.220628 21.895064,14.705881" slic3r:type="contour"/>
    <polygon style="fill: white" points="18.910084,15.016668 19.601604,15.95069 19.362022,16.364517 18.938515,17.156208 18.70234,16.866496 18.171578,16.150845 18.393385,15.783042 18.8452,14.934302" slic3r:type="contour"/>
    <polygon style="fill: white" points="17.259716,15.437699 17.898676,16.203546 17.602163,16.744017 17.248664,17.444116 16.930098,17.089882 16.454741,16.514514 16.723311,16.027894 17.105462,15.266383" slic3r:type="contour"/>
    <polygon style="fill: white" points="15.405016,16.105027 15.918657,16.655346 15.502065,17.443119 15.27277,17.919418 14.802835,17.443948 14.459437,17.067357 14.804155,16.38785 15.086191,15.799315" slic3r:type="contour"/>
    <polygon style="fill: white" points="13.287337,17.10501 13.564256,17.358021 12.971292,18.614644 12.95748,18.64773 12.774094,18.499948 12.804933,18.656236 12.821234,18.711256 12.171903,18.517949 11.473308,18.342336 11.16182,17.903704 10.858357,17.54056 12.165818,17.691004 12.536656,16.910124 12.658346,16.629142" slic3r:type="contour"/>
  </g></svg>