<svg width="43.790126" height="63.590156" xmlns="http://www.w3.org/2000/svg" xmlns:svg="http://www.w3.org/2000/svg" xmlns:xlink="http://www.w3.org/1999/xlink" xmlns:slic3r="http://slic3r.org/namespaces/slic3r"><g xmlns="http://www.w3.org/2000/svg" slic3r:z="1.325e-006" id="layer3">
    <polygon style="fill: white" points="22.129627,0.317062 22.643808,0.341457 23.076745,0.363337 23.095326,0.336418 23.336358,0.376458 23.536114,0.386553 23.545868,0.411261 24.071687,0.498607 24.492178,0.570691 24.517752,0.542386 24.740646,0.613286 24.944484,0.64823 24.952629,0.680716 25.476738,0.84743 25.88145,0.977266 25.91433,0.950455 26.106018,1.049311 26.320122,1.117997 26.324164,1.161809 26.822991,1.419057 27.21447,1.618842 27.25466,1.5961 27.416084,1.721733 27.634054,1.83297 27.629643,1.88794 28.064428,2.226324 28.449042,2.517973 28.489716,2.502744 28.648188,2.668983 28.84308,2.816767 28.831898,2.861695 29.226303,3.27543 29.627559,3.68773 29.666815,3.678147 29.871924,3.938821 29.994762,4.06504 29.986984,4.085052 30.389171,4.596196 30.819185,5.147458 30.85812,5.141228 31.638394,6.240163 32.099718,6.924508 32.139178,6.920251 33.064316,8.281453 33.547751,9.060107 33.599528,9.057805 34.518032,10.642409 34.932371,11.428928 34.995696,11.433059 35.69636,13.14853 35.984156,13.905955 36.063063,13.92613 36.107727,14.231172 36.157916,14.363261 36.130756,14.38846 36.317424,15.66338 36.429302,16.380596 36.51824,16.435453 36.469743,16.639839 36.50452,16.862784 36.406077,16.908153 36.135148,18.049956 36.013512,18.708886 36.039652,18.736384 35.990441,18.833868 35.937864,19.11869 35.839092,19.13368 35.311452,20.178902 34.951452,21.031998 34.875273,21.035155 34.318768,21.932602 33.974052,22.610796 33.930943,22.614101 33.646888,23.169485 33.477394,23.62063 33.536686,24.041537 33.56279,24.361439 33.948228,24.985604 34.040656,25.197056 34.668779,26.114013 34.812452,26.373939 34.844984,26.374041 35.43274,27.533624 35.599954,27.906677 35.650392,27.915088 35.699888,28.129628 35.781876,28.312542 35.749981,28.346756 35.981167,29.348831 36.106306,29.912605 36.133472,29.922394 36.143438,30.079894 36.206644,30.36465 36.163507,30.397055 36.229332,31.437309 36.282174,32.158692 36.30476,32.170411 36.295326,32.338251 36.317428,32.63998 36.277095,32.66261 36.220504,33.669455 36.186174,34.483605 36.215604,34.503176 36.174187,34.767888 36.16452,34.997136 36.136505,35.008716 35.99728,35.898555 35.873935,36.729576 35.913348,36.762204 35.811203,37.152225 35.792832,37.276 35.777689,37.280191 35.597688,37.967495 35.394161,38.734273 35.442008,38.784323 35.251947,39.27005 35.240976,39.311387 35.235476,39.312148 35.042196,39.806103 34.758494,40.505141 34.810492,40.575932 34.342984,41.418079 33.978608,42.047477 34.028156,42.139152 33.51195,42.810447 33.065823,43.368592 33.105416,43.47558 32.560807,43.990376 32.030872,44.475631 32.055106,44.581476 31.497193,44.972256 31.463221,44.995419 31.453048,45.004735 31.451207,45.003611 30.881777,45.391876 30.892556,45.484739 30.32615,45.784299 30.244614,45.826323 30.213064,45.847835 30.209198,45.844576 29.629957,46.143119 29.631958,46.217688 29.570536,46.242863 29.527728,47.068276 28.117254,47.676463 28.103175,47.682248 27.706132,47.240576 27.530643,47.06085 26.867336,47.268381 26.861364,47.320672 26.234086,47.474291 26.140586,47.495761 26.076052,47.515951 26.073035,47.511271 25.383131,47.669684 25.373884,47.718136 24.757117,47.813425 24.583703,47.853244 24.576363,47.839679 23.855445,47.94283 23.843144,47.987436 23.356481,48.014223 23.053572,48.057564 23.041702,48.030925 22.303586,48.068192 22.28856,48.108684 21.912124,48.087956 21.501568,48.108684 21.486219,48.065152 20.750395,48.028 20.736556,48.057563 20.445889,48.012626 19.946982,47.987436 19.933169,47.935228 19.217957,47.832872 19.206412,47.85326 18.99015,47.80027 18.416242,47.718136 18.405568,47.659893 17.722732,47.503046 17.714073,47.515951 17.563705,47.466517 16.928762,47.320672 16.922116,47.258818 16.280391,47.057964 16.274943,47.064856 16.272469,47.063843 15.686951,47.682248 14.263457,47.068707 14.2624,47.068276 14.227748,46.469235 14.216679,46.240915 14.158155,46.217696 14.161588,46.136522 13.586705,45.840088 13.577063,45.847836 13.507877,45.79944 12.89757,45.48474 12.911282,45.384068 12.346983,44.999033 12.337078,45.004736 12.289332,44.959696 11.735021,44.581476 11.764295,44.465252 11.200192,43.948129 11.190372,43.951683 11.157338,43.908845 10.684711,43.47558 10.731619,43.356767 10.674479,43.282668 10.169867,42.650342 10.161397,42.651796 10.139178,42.611886 9.761975,42.139216 9.819561,42.037782 9.691468,41.8077 9.284872,41.104123 9.274756,41.104176 9.253325,41.049532 8.979636,40.575936 9.037876,40.500166 8.869403,40.070588 8.562471,39.313243 8.549152,39.311336 8.526187,39.223713 8.348127,38.784355 8.397967,38.734495 8.22553,38.076567 8.014362,37.280771 7.997276,37.276 7.974681,37.131233 7.876758,36.762204 7.912646,36.733752 7.770977,35.826051 7.64934,35.006983 7.625611,34.997164 7.612246,34.75721 7.574519,34.503168 7.597284,34.488592 7.538857,33.43965 7.505941,32.658709 7.472684,32.639964 7.492197,32.332634 7.48536,32.170424 7.503058,32.161583 7.570622,31.097438 7.622124,30.394141 7.583508,30.364632 7.64327,30.105379 7.656667,29.922432 7.687875,29.911881 7.912306,28.938279 8.042751,28.351412 8.008235,28.31253 8.085637,28.158468 8.139737,27.915072 8.212784,27.90539 8.603938,27.126831 8.795675,26.703817 8.795482,26.703528 8.796473,26.70206 8.945156,26.374032 9.017051,26.374734 9.426391,25.767295 9.747537,25.199876 9.799496,25.199475 10.035695,24.816412 10.240902,24.360262 10.288411,24.024226 10.31757,23.671049 9.921104,22.895326 9.817099,22.612434 9.040421,21.372882 8.873187,21.033496 8.838672,21.031998 8.091774,19.57094 7.911281,19.129592 7.852259,19.118702 7.775582,18.797778 7.750475,18.736384 7.758893,18.727925 7.450946,17.43903 7.354486,16.898346 7.285646,16.862792 7.313822,16.670414 7.271901,16.435435 7.355067,16.388806 7.548834,15.065816 7.655305,14.38502 7.632188,14.363137 7.67515,14.25812 7.727074,13.926108 7.819363,13.905608 8.31177,12.701975 8.622944,11.883955 8.62007,11.880125 8.63257,11.858651 8.794463,11.433067 8.881925,11.430306 9.470456,10.419319 10.190612,9.057776 10.267891,9.063894 10.809443,8.269607 11.650939,6.920244 11.704943,6.927592 12.128304,6.331185 12.630908,5.587044 12.629809,5.584802 12.648306,5.561286 12.932051,5.141182 12.972908,5.148595 13.361199,4.654929 13.803801,4.087643 13.795285,4.065105 13.938385,3.915145 14.123271,3.678175 14.15628,3.686805 14.559026,3.264751 14.956187,2.85654 14.947045,2.816783 15.143508,2.664006 15.300458,2.50269 15.334021,2.515857 15.782809,2.166864 16.158897,1.881637 16.156083,1.832951 16.365408,1.725018 16.535407,1.596089 16.572733,1.618116 17.077268,1.357965 17.465322,1.159929 17.470006,1.11796 17.675864,1.052482 17.875768,0.950465 17.908796,0.978393 18.429736,0.812696 18.836574,0.682186 18.845642,0.64823 19.046351,0.614891 19.272374,0.542386 19.299031,0.572922 19.817762,0.48676 20.242816,0.413898 20.254012,0.386553 20.459086,0.376824 20.6948,0.336418 20.713746,0.364744 21.223968,0.340538 21.659393,0.318533 21.671899,0.295345 21.902109,0.306267 22.118227,0.295345" slic3r:type="contour"/>
  </g></svg>