<svg width="43.790126" height="63.590156" xmlns="http://www.w3.org/2000/svg" xmlns:svg="http://www.w3.org/2000/svg" xmlns:xlink="http://www.w3.org/1999/xlink" xmlns:slic3r="http://slic3r.org/namespaces/slic3r"><g xmlns="http://www.w3.org/2000/svg" slic3r:z="1.94749999999999e-005" id="layer58">
    <polygon style="fill: white" points="21.897691,2.051152 22.867237,2.139053 22.904811,2.141573 22.91326,2.131174 22.921439,2.13368 22.944156,2.095929 22.950894,2.110964 22.965844,2.145664 22.97186,2.146067 22.973748,2.149708 23.708424,2.374812 23.843627,2.396348 23.889566,2.351732 23.915979,2.365132 24.00311,2.25105 24.028045,2.313486 24.070922,2.432554 24.084746,2.434756 24.092835,2.454858 24.532822,2.678079 24.801357,2.740775 24.914172,2.654422 24.927924,2.671451 25.099019,2.520718 25.144598,2.643964 25.196848,2.833111 25.21066,2.836336 25.284381,3.102655 25.613934,3.295008 26.248686,2.968223 26.315362,3.225101 26.404474,3.756425 26.432146,3.772576 26.48188,4.070354 26.668199,3.992634 26.749639,4.011506 27.236748,3.77823 27.557632,3.66674 27.625696,4.21451 27.923332,4.28348 28.500504,4.307428 28.550035,4.476579 28.604457,4.563536 28.79528,4.505601 28.808854,4.62479 28.806873,4.886961 28.82767,4.920191 28.84701,5.26509 29.106945,5.682122 29.635713,5.462258 29.977304,5.361257 30.060249,5.991854 30.530324,6.131834 31.143003,6.009043 31.144433,6.013855 32.163405,6.492218 32.287948,6.532626 32.34669,6.489201 32.35964,6.526349 32.367696,6.560553 32.791374,6.658748 33.331803,7.222486 33.510134,7.086441 33.606072,7.020631 33.744608,7.653093 33.747236,7.655836 33.830575,8.019801 34.111264,8.078628 34.436011,7.866545 34.774416,7.677821 34.82084,8.113956 34.83479,8.315015 35.19532,8.404103 35.604715,8.318964 35.560023,8.510355 35.546801,8.634362 35.709396,8.97477 35.756081,9.11172 36.334072,9.090958 36.133915,9.426051 36.002937,9.686875 36.161192,10.146359 36.199227,10.149816 36.199996,10.151861 37.053515,10.191442 37.177168,10.196816 36.980617,10.476127 37.015952,10.525792 36.98168,10.58994 37.193492,10.508327 37.343836,10.451805 37.668843,11.246637 37.723141,11.38759 37.729404,11.388036 37.731032,11.392008 37.927172,11.405285 37.859496,11.51047 37.811253,11.587608 38.070924,12.220759 38.185181,12.522585 38.585396,12.544552 38.451007,12.750901 38.361883,12.89166 38.467248,13.108776 38.614344,13.447894 38.623783,13.448418 38.63398,13.47018 39.161972,13.505117 38.988031,13.762845 38.865521,13.962355 39.041233,14.382397 39.069151,14.385214 39.074029,14.398918 39.69986,14.482917 39.480015,14.775876 39.311001,15.027281 39.327424,15.06654 39.312409,15.085143 39.428729,15.445176 39.467152,15.452359 39.467757,15.455305 39.726951,15.514391 40.209784,15.629105 39.915084,15.970426 39.689151,16.251238 39.705484,16.301787 39.648454,16.365206 39.725303,16.76779 39.771752,16.781676 39.773007,16.799445 40.553768,17.063132 40.709052,17.117804 40.480701,17.343265 40.664039,17.484485 40.840696,17.621558 40.838048,18.617991 40.835501,19.016369 40.858764,19.02716 40.856887,19.063191 41.178632,19.226548 40.976204,19.389098 40.833383,19.514433 40.832168,19.53779 40.832112,19.546521 40.831695,19.546855 40.806016,20.039889 40.768382,20.41284 41.072856,20.762242 41.631152,21.78303 41.615756,21.868847 41.600272,21.929536 41.609188,21.935425 41.607048,21.951146 41.644508,21.97545 41.598018,22.017463 41.411443,23.387742 41.306974,23.710435 41.477012,24.145064 41.628781,24.940496 41.820492,25.069253 41.678683,25.202045 41.702316,25.325902 41.623919,25.388575 41.752852,25.775674 41.907376,26.545843 41.701275,27.188734 41.32978,27.601308 41.561672,27.759006 41.541987,27.858264 41.831364,27.980546 41.455919,28.29225 41.426207,28.442063 41.436424,28.49665 41.412825,28.509546 41.403206,28.55805 41.491708,29.6515 41.684906,30.227137 41.819299,30.290405 41.94504,30.353654 41.803851,30.476515 41.80904,31.237688 42.154335,32.463281 42.179843,32.476595 42.189452,32.482022 42.172867,32.497004 42.136119,32.783392 42.073277,34.34913 42.14444,34.410474 42.326807,34.511687 42.39766,34.555748 42.186159,34.750095 41.758574,36.221509 42.30276,36.53898 42.508332,36.67936 42.106027,37.045416 41.565605,37.47594 41.534439,37.550813 41.546036,38.256627 42.165319,38.646991 42.511647,38.903348 42.206311,39.17416 41.75574,39.513849 41.809377,40.855912 41.890196,40.911736 42.397288,41.319128 42.222572,41.467859 41.953389,41.661118 42.154,43.917816 42.09442,44.008513 42.130656,44.042012 42.140368,44.049984 42.066924,44.085126 40.894264,45.594419 40.679947,44.703887 40.616842,44.229289 40.264071,43.903847 40.123987,43.747648 40.5905,43.501068 40.4982,43.020135 40.344784,41.60862 40.400976,41.530532 40.446096,41.404404 40.368948,41.347012 40.396895,41.328316 40.580028,41.197817 40.876284,40.564552 41.113829,39.42061 40.994619,39.328331 40.493528,38.980096 40.719216,38.823531 41.441845,38.295426 41.501166,37.499352 40.839588,37.027684 40.506712,36.805908 40.876464,36.534559 41.290281,36.222659 40.927819,35.605139 40.695573,34.917886 40.528676,34.805884 40.417268,34.7323 40.675948,34.52435 40.552292,34.340636 40.346244,33.867096 40.476596,33.225244 40.490594,32.905427 40.485903,32.902392 40.498226,32.755144 40.159164,32.570962 40.367496,32.391777 40.543469,32.214511 40.569032,31.909038 40.521202,31.365703 40.400336,31.33053 39.845236,30.89386 39.870608,30.614783 39.87416,30.514272 39.842492,30.49611 39.840592,30.410117 39.698292,30.322722 39.836751,30.236334 39.80866,28.96515 39.767585,28.54695 39.717472,28.524446 39.706205,28.360529 39.282128,28.117702 39.678484,27.95724 39.568776,26.361132 39.517988,25.916937 39.269436,25.835962 39.461464,25.723341 39.50445,25.702456 39.449572,25.053082 39.590804,25.364635 39.715874,25.542587 39.765831,25.502444 39.910363,25.415158 39.928419,25.329661 39.776472,24.090268 39.787615,24.10759 40.203977,23.806578 39.768668,23.367132 40.007924,22.373444 39.975494,22.28729 39.76742,22.154922 39.53234,21.919331 39.6273,21.776236 39.861119,21.589883 39.853048,21.585093 39.997554,21.44516 39.402788,21.221276 39.507388,19.66066 39.278075,19.552233 38.981376,19.40216 39.204207,19.200242 39.507425,18.937914 39.505978,18.142956 38.893016,18.075234 38.622124,18.04021 38.596442,17.6174 38.553979,17.604827 38.488503,17.586506 38.581253,17.496712 38.545371,17.303383 38.392404,16.415502 38.235584,16.386582 38.005836,16.346984 38.292686,16.011097 38.150231,15.567458 38.113831,15.448699 37.851516,15.42348 37.508155,15.386612 37.792351,14.985719 37.887752,14.85147 37.767892,14.569567 37.766883,14.569469 37.763878,14.562784 37.390616,14.540786 36.95518,14.50423 37.143895,14.207257 37.419893,13.797629 37.34262,13.625746 36.85446,13.588384 36.31612,13.538939 36.3974,13.412907 36.926923,12.651896 36.86391,12.493763 36.332337,12.450167 36.142108,12.672974 35.980224,12.999761 35.741773,12.3874 35.737611,12.386949 35.736624,12.38425 35.661415,12.377554 35.559408,12.366384 35.675445,12.216918 35.587495,11.976365 35.313487,11.23405 35.075104,11.213422 34.725399,11.173594 35.093925,10.688251 34.894377,10.198784 34.510823,10.168129 34.226832,10.137942 34.12934,10.231683 34.04682,10.335415 33.981545,10.111868 33.977963,10.111487 33.977413,10.108553 33.927659,10.099832 33.827072,10.084244 33.945045,9.935719 33.813018,9.230779 33.434856,9.136603 33.07211,9.074181 32.956509,9.160155 32.868982,9.23359 32.828916,9.03233 32.821582,9.031069 32.821289,9.029541 32.751379,9.01576 32.562826,8.989518 32.726637,8.535192 32.631101,8.036231 32.518725,8.014513 31.966678,8.352123 31.66107,8.526572 31.527334,8.0212 31.468303,7.761787 30.91601,7.5904 30.863348,7.578463 30.42996,7.783964 30.282562,7.86632 30.193949,7.355496 30.155306,7.196481 29.590912,6.763436 29.157003,6.923014 28.888954,7.022276 28.881692,6.537579 28.871237,6.237934 28.808338,6.193481 28.788905,6.055206 28.332563,5.944866 28.197634,5.986139 28.108162,5.964009 27.661368,6.148893 27.662842,5.993235 27.655823,5.852126 26.977435,5.684334 26.76492,5.311974 26.661793,5.356022 26.560926,5.400612 26.521872,4.88612 26.467904,4.79156 26.459873,4.737402 26.240447,4.420467 25.889793,4.751799 25.660866,4.885663 25.413004,4.48805 25.337811,4.165546 25.263892,4.160755 25.188379,4.362283 25.284476,4.7524 25.19791,4.801884 25.305502,4.917135 25.070047,4.850513 25.062776,5.040852 25.020612,5.259685 25.215356,5.397318 24.999224,5.403518 24.945408,6.015876 24.935067,6.090957 25.009896,6.144452 24.926786,6.151344 24.915552,6.285434 24.841397,6.194992 24.82532,6.166091 24.783917,6.171917 24.783787,6.171257 24.215612,6.224442 24.09757,6.238145 24.095322,6.268102 24.064346,6.26871 23.942928,6.988371 23.702467,6.386974 23.667094,6.288114 23.581114,6.298094 23.579482,6.278227 23.457841,6.280615 23.169048,6.288692 23.168392,6.299701 23.103146,6.298823 22.899398,7.172986 22.899397,7.172987 22.692402,6.400273 22.666638,6.302744 22.584116,6.305052 22.583414,6.291742 22.104542,6.288598 21.895064,7.143999 21.708531,6.377234 21.687537,6.292054 21.592211,6.293355 21.206461,6.295885 21.205958,6.305078 21.12204,6.303343 20.89073,7.172988 20.890729,7.172988 20.711826,6.390317 20.690199,6.29927 20.621733,6.299719 20.621459,6.292992 20.534445,6.291192 20.209867,6.282276 20.208925,6.298121 20.110378,6.288001 19.847198,6.98837 19.74777,6.330866 19.736235,6.269264 19.694842,6.268127 19.694218,6.245273 19.085423,6.182763 18.947695,6.167334 18.874498,6.285404 18.868283,6.158436 18.864208,6.157979 18.863961,6.15466 18.78018,6.144476 18.857592,6.074115 18.854966,6.052365 18.85631,6.05185 18.81513,5.498453 18.804351,5.422433 18.800874,5.422277 18.800878,5.414477 18.574763,5.397314 18.736803,5.267696 18.778462,5.23984 18.773322,5.203583 18.800978,5.193974 18.801072,4.988483 18.775105,4.860885 18.48464,4.917106 18.55435,4.812829 18.51175,4.766777 18.311074,4.299539 18.166688,4.651294 18.129216,4.885658 18.021058,4.670663 17.625932,4.406083 17.414,4.852546 17.261961,4.990061 17.239774,5.272479 17.229202,5.400612 17.01666,5.311145 16.940356,5.440878 16.812674,5.684353 16.331986,5.798988 16.148246,5.845495 16.128791,6.148881 15.962082,6.088522 15.660941,5.968836 15.592576,5.98614 15.466717,5.948712 15.002467,6.058426 14.981783,6.193548 14.924596,6.23893 14.913711,6.729397 14.901172,7.022277 14.450332,6.856798 14.242632,6.780115 13.832325,7.105721 13.621566,7.248787 13.577861,7.430864 13.551455,7.438867 13.50534,7.736626 13.507564,7.866319 12.962056,7.617506 12.470491,7.766492 12.305553,7.807952 12.291885,7.859155 12.278419,7.861559 12.17626,8.254307 12.129056,8.526572 11.859355,8.358342 11.310658,8.034322 11.146465,8.063633 11.042979,8.537523 11.154255,8.830175 11.227302,8.989518 10.960134,9.035262 10.943662,9.117431 10.92115,9.233584 10.7219,9.088503 10.408408,9.161496 9.97321,9.254912 9.908869,9.599383 9.843489,9.945723 9.900566,10.017151 9.963048,10.084221 9.812551,10.10961 9.812202,10.111457 9.808663,10.111768 9.790655,10.17348 9.74338,10.335298 9.53292,10.135998 8.900296,10.191587 8.686569,10.716856 8.847153,10.927489 9.064697,11.173643 8.481544,11.226894 8.364349,11.548714 8.112442,12.225844 8.166663,12.295598 8.230716,12.366358 8.054109,12.382646 8.05252,12.386918 8.049521,12.387195 8.013597,12.481272 7.809903,12.999746 7.415195,12.543269 7.353513,12.451432 6.928114,12.490695 6.860068,12.661628 7.162416,13.126584 7.474002,13.538939 7.242739,13.556878 6.477362,13.620152 6.47647,13.622376 6.446999,13.625264 6.364222,13.809307 6.591129,14.163746 6.834941,14.504266 6.319855,14.53523 6.029682,14.555337 6.023375,14.569434 6.018605,14.569909 5.899766,14.848932 6.082996,15.107318 6.281958,15.38664 5.667291,15.445919 5.546844,15.818486 5.495505,15.989393 5.635774,16.155181 5.784305,16.346954 5.389656,16.41967 5.337056,16.697627 5.207504,17.489025 5.252598,17.533253 5.301621,17.586534 5.19332,17.618571 5.187589,17.709559 5.168004,18.040233 4.596414,18.098034 4.280557,18.137817 4.277722,18.821831 4.27828,18.944493 4.544652,19.181879 4.808748,19.402148 4.344928,19.621218 4.295501,19.645196 4.336115,20.11089 4.387338,21.221267 4.195016,21.342292 3.825144,21.487145 3.937079,21.585094 3.854287,21.647579 3.995347,21.79443 4.257788,21.919332 3.999129,22.072928 3.831097,22.198379 3.836374,22.229576 3.796779,22.266889 3.909809,22.652828 4.02146,23.367132 3.778625,23.790952 3.931633,24.056349 3.908966,24.160799 4.013665,24.090318 3.947764,25.08156 3.878658,25.453216 4.028374,25.549126 4.340554,25.053082 4.321153,25.544311 4.296206,25.719963 4.520689,25.835962 4.332401,25.873565 4.285862,25.890405 4.198995,27.570574 4.149034,27.947549 4.190149,27.965963 4.508008,28.11768 4.201186,28.319719 4.091717,28.38003 4.072574,28.524474 4.051319,28.530593 3.987211,30.071617 3.975476,30.197779 4.091854,30.322732 3.9942,30.41176 3.95345,30.434566 3.94773,30.496056 3.9215,30.511838 3.944965,30.89364 3.661228,30.964138 3.380016,31.121809 3.39044,31.853199 3.356144,32.269964 3.399417,32.309671 3.63096,32.570996 3.475057,32.688098 3.316007,32.777265 3.443855,33.867436 3.072677,34.497581 3.284345,34.66548 3.372855,34.73234 3.037886,34.95894 2.45885,36.181605 2.489393,36.211856 3.007754,36.594919 3.28341,36.805916 2.980541,37.027708 2.295066,37.495765 2.370316,38.308572 2.859615,38.651319 3.296589,38.980092 3.122962,39.119372 2.739128,39.395728 3.121734,40.646932 3.27428,41.238701 3.421179,41.347044 3.401421,41.364487 3.352076,41.402644 3.445343,41.608647 3.154919,43.507366 3.500721,43.684024 3.666137,43.747656 3.152242,44.204519 2.895844,45.59434 2.38885,45.196308 1.713414,44.082596 1.661075,44.056347 1.649759,44.049984 1.679949,44.020927 1.636127,43.917808 1.827064,42.528183 1.861795,41.649769 1.392847,41.319124 1.582438,41.193619 2.031538,40.84728 2.067868,39.520806 1.688738,39.205003 1.278481,38.903308 1.621257,38.698768 2.249602,38.254816 2.257703,37.553524 2.152926,37.4112 1.501056,36.849231 1.281796,36.679332 1.745312,36.424912 1.933135,36.302898 1.652535,35.801276 1.550065,34.68888 1.459003,34.608804 1.392462,34.555736 1.564032,34.464769 1.509032,34.292231 1.613896,32.492503 1.600652,32.48204 1.609988,32.47731 1.965764,30.445936 1.936438,30.420694 1.845077,30.353658 2.01154,30.276808 2.047643,29.802934 2.361431,28.269129 2.293057,28.210465 1.958761,27.98054 2.260615,27.858627 2.228456,27.759006 2.477098,27.58733 2.510129,27.343876 2.437109,27.200422 1.882751,26.545844 2.194376,25.401904 2.087808,25.325894 2.124458,25.201957 1.969635,25.069254 2.210205,24.912001 2.576874,23.672094 2.20067,22.021883 2.145616,21.975468 2.184516,21.951029 2.180958,21.935417 2.192269,21.927626 2.158982,21.782906 2.267128,21.648449 3.051829,20.482887 2.975561,19.561028 2.958042,19.546544 2.958,19.537126 2.611502,19.226552 2.821638,19.114641 2.933911,19.057599 2.931392,19.027156 2.95567,19.015919 2.949438,17.621526 3.307443,17.345487 3.167855,17.205971 3.081071,17.117806 3.640704,16.9382 4.016796,16.80551 4.018372,16.781706 4.068823,16.767064 4.144869,16.373686 4.084653,16.301706 4.098333,16.262548 3.836035,15.948491 3.580352,15.629104 4.016187,15.534207 4.321177,15.461665 4.32298,15.452336 4.375185,15.442269 4.487182,15.099901 4.462715,15.066505 4.471457,15.047508 4.405946,14.955579 4.090275,14.482899 4.459201,14.431278 4.717226,14.39667 4.720968,14.38523 4.772247,14.378835 4.931781,14.002214 4.628185,13.505088 4.944701,13.476924 5.160291,13.462758 5.166372,13.448404 5.200911,13.445343 5.221983,13.40098 5.43695,12.911998 5.204716,12.54455 5.450829,12.526032 5.610434,12.517375 5.615524,12.505796 5.622066,12.505242 5.85268,11.930754 5.981397,11.595025 5.86296,11.405282 5.985668,11.397473 6.059046,11.392493 6.060759,11.388025 6.070884,11.387185 6.446313,10.451772 6.809725,10.592618 6.780147,10.536986 6.855891,10.557482 6.649822,10.253407 6.612963,10.196816 7.258779,10.16322 7.599791,10.148839 7.647181,10.143614 7.791727,9.739284 7.628161,9.438727 7.456023,9.090997 7.862177,9.103222 8.084691,9.111408 8.23098,8.715428 8.185405,8.318988 8.358531,8.389396 8.4692,8.411319 8.81703,8.269408 8.974267,8.238548 9.015703,7.677831 9.335474,7.915628 9.582861,8.05778 9.967732,7.992246 10.042912,7.655696 10.074574,7.617725 10.15362,7.203224 10.184051,7.020632 10.415315,7.209083 10.574523,7.018148 10.998753,6.658747 11.370672,6.560075 11.4302,6.550826 11.443437,6.489201 11.490167,6.528477 12.646307,6.012869 12.646494,6.010117 13.82548,5.834775 13.84521,5.600477 13.812823,5.361259 14.198146,5.549119 14.616462,5.684042 14.960406,4.995361 14.962452,4.920214 15.020992,4.810583 14.994847,4.505604 15.067795,4.541986 15.149594,4.569744 15.289683,4.307391 16.202241,4.150646 16.227642,3.921243 16.232505,3.666729 16.600967,3.86703 16.985218,4.016158 17.121934,3.992675 17.310317,4.079547 17.357998,3.772545 17.433516,3.710845 17.486674,3.498755 17.54146,2.968216 17.657238,3.102654 17.927052,3.27391 17.954248,3.239357 17.985625,3.259759 18.182442,3.098953 18.57681,2.846168 18.579458,2.836369 18.614053,2.822296 18.641241,2.80487 18.691106,2.520718 18.770164,2.604493 18.843891,2.674973 18.875954,2.654422 18.926961,2.695008 19.610523,2.41694 19.746183,2.386439 19.787016,2.25105 19.822283,2.299088 19.867219,2.359227 19.900561,2.351732 19.925273,2.375926 20.785911,2.14567 20.828742,2.138844 20.84597,2.09593 20.868393,2.132525 20.876865,2.131174 20.884215,2.140226 21.892654,2.050894 21.895064,2.046073" slic3r:type="contour"/>
    <polygon style="fill: black" points="24.158268,5.429339 24.137325,5.708409 24.158612,5.709983 24.141213,5.81311 24.482573,5.922024 24.729023,5.992982 24.683468,5.911089 24.72494,5.874056 24.671526,5.604286 24.668551,5.476524 24.656632,5.421784 24.307237,5.421264" slic3r:type="hole"/>
    <polygon style="fill: black" points="19.022313,5.815098 19.015154,5.972617 19.10652,5.911139 19.13983,5.943228 19.483225,5.811668 19.642831,5.77046 19.631506,5.70998 19.679564,5.70585 19.659692,5.452818 19.348223,5.446756 19.129596,5.436978 19.129606,5.439432 19.073914,5.435204" slic3r:type="hole"/>
    <polygon style="fill: black" points="23.219483,5.442291 23.210065,5.600337 23.26592,5.600456 23.25595,5.643232 23.441248,5.656934 23.414122,5.581124 23.529862,5.618052 23.521087,5.46388 23.499298,5.465061 23.497159,5.441484" slic3r:type="hole"/>
    <polygon style="fill: black" points="20.290783,5.4651 20.258507,5.464472 20.249626,5.613791 20.37599,5.581165 20.349797,5.650867 20.533006,5.637514 20.524206,5.600469 20.589583,5.600571 20.580525,5.452242 20.291202,5.451733" slic3r:type="hole"/>
    <polygon style="fill: black" points="21.276145,5.437011 21.275801,5.44431 21.253034,5.444634 21.245322,5.585594 21.314286,5.580567 21.308992,5.600471 21.516967,5.600034 21.516576,5.598446 21.577211,5.598342 21.56787,5.433626" slic3r:type="hole"/>
    <polygon style="fill: black" points="22.21702,5.598241 22.480674,5.598798 22.475871,5.580616 22.545788,5.586467 22.537985,5.444271 22.514373,5.44434 22.51375,5.432993 22.226469,5.42966" slic3r:type="hole"/>
    <polygon style="fill: black" points="19.373135,4.794636 19.12701,4.812334 19.127812,5.006235 19.132616,5.003023 19.121822,5.082494 19.415115,4.980588 19.618115,4.923426 19.605674,4.764999" slic3r:type="hole"/>
    <polygon style="fill: black" points="24.184382,4.954127 24.332818,5.001671 24.581779,5.075156 24.591024,4.769978 24.345058,4.730475 24.207131,4.722143" slic3r:type="hole"/>
    <polygon style="fill: black" points="23.263161,4.773974 23.460678,4.792253 23.457425,4.668211 23.27068,4.659981" slic3r:type="hole"/>
    <polygon style="fill: white" points="3.660885,46.30112 4.085811,46.414484 3.735677,46.727331 3.234299,47.365968 2.40647,47.114375 2.089352,46.961219 2.50609,46.497 2.965917,46.029176" slic3r:type="contour"/>
    <polygon style="fill: white" points="4.340053,50.903371 5.021591,51.01926 5.369866,51.011748 5.010877,51.61356 4.850508,51.959015 4.904526,52.098231 4.875416,52.159297 5.293542,52.82295 5.888618,52.81706 6.237386,52.768116 5.954581,53.420423 5.842878,53.749905 5.910444,53.881872 5.906724,53.893067 6.406346,54.480985 6.991179,54.362651 7.338058,54.271115 7.161626,54.960199 7.092684,55.308578 7.856256,55.931277 8.438898,55.711783 8.754284,55.586276 8.69325,56.318919 8.677812,56.595393 9.604248,57.155133 10.156256,56.866108 10.430173,56.72168 10.470432,57.478639 10.483529,57.674688 11.528118,58.164722 12.045703,57.826187 12.283917,57.6688 12.408746,58.427336 12.436292,58.58391 13.507363,58.989762 14.009308,58.600839 14.226153,58.425896 14.414834,59.158695 14.470036,59.358248 15.433935,59.665781 15.944474,59.2014 16.160094,58.99344 16.390579,59.668491 16.517013,60.005977 17.325852,60.204487 17.858438,59.632751 18.079368,59.382208 18.34403,59.992359 18.577495,60.48623 19.22418,60.588105 19.765271,59.897828 19.988582,59.60494 20.28514,60.157368 20.60264,60.713772 19.930676,61.617495 19.832734,61.743356 19.443531,61.037179 19.282664,60.74265 18.532361,60.727338 18.41443,60.849516 18.337822,60.842201 17.839642,61.414387 17.75996,61.501039 17.41263,60.753858 16.40994,60.658116 16.178755,60.649013 16.07124,60.744424 16.031287,60.736049 15.724898,61.035088 15.67463,61.081412 15.502934,60.6253 14.87429,60.493527 13.776516,60.326558 13.736842,60.35706 13.725309,60.352762 13.597528,60.45824 13.5764,60.474752 13.519294,60.276001 13.20887,60.160335 11.524654,59.62862 11.51482,59.634996 11.511866,59.63336 11.467114,59.664268 11.459936,59.66888 11.447538,59.604273 11.44729,59.604195 11.445903,59.596836 11.327647,59.531355 9.462506,58.624382 9.453953,58.62876 9.451803,58.627038 9.413633,58.648268 9.407796,58.651164 9.402807,58.595351 9.402685,58.595292 9.401971,58.587151 9.298735,58.504515 7.647205,57.360201 7.613538,57.37208 7.60858,57.366091 7.520968,57.40254 7.508014,57.40686 7.511622,57.248952 7.284907,56.975056 6.173682,55.869788 6.03992,55.891156 6.030524,55.872445 5.873332,55.913772 5.84905,55.91728 5.895819,55.604219 5.578851,54.973068 5.081607,54.207343 4.77857,54.195484 4.772107,54.161104 4.573076,54.180964 4.535854,54.179228 4.679415,53.668065 4.436538,52.376166 3.95034,52.267652 3.953281,52.198684 3.604319,52.177912 3.523426,52.159972 3.862294,51.337724 3.9999,51.105283 4.033468,50.317964 4.033469,50.317964" slic3r:type="contour"/>
    <polygon style="fill: white" points="4.299865,48.901628 4.674499,48.941736 4.288643,49.462747 3.991542,49.979388 4.022419,50.066236 3.902164,50.270596 3.822698,50.248312 3.507415,50.128112 3.53101,50.023587 2.913704,49.892556 2.742662,49.82832 3.129539,49.124367 3.493728,48.638832" slic3r:type="contour"/>
    <polygon style="fill: white" points="41.438207,46.695859 41.700783,46.961188 41.124567,47.105992 40.555876,47.365964 40.014768,46.8533 39.704316,46.414512 40.149748,46.231507 40.824187,46.029168" slic3r:type="contour"/>
    <polygon style="fill: white" points="40.915908,49.655056 41.047464,49.828316 40.329775,49.94652 40.265627,49.96882 40.282712,50.128112 39.887964,50.270596 39.844524,50.206272 39.767708,50.066236 39.796273,50.002739 39.331936,49.364588 39.115628,48.94174 39.640976,48.751804 40.296396,48.638832" slic3r:type="contour"/>
    <polygon style="fill: white" points="39.93084,51.298408 39.917631,51.438979 40.21568,52.074568 40.266724,52.159928 39.849845,52.160449 39.839772,52.267656 39.501493,52.335663 39.457408,52.910864 39.137804,53.831643 39.237599,54.139239 39.254296,54.179204 39.029793,54.142827 39.01152,54.195472 38.832858,54.199476 38.698735,54.519492 37.897317,55.678594 37.934888,55.890936 37.941084,55.917296 37.769909,55.862864 37.750323,55.891192 37.675639,55.878385 37.526348,56.076423 36.27627,57.276398 36.280972,57.392475 36.282112,57.40686 36.185862,57.36318 36.176587,57.372084 36.15876,57.365649 36.043159,57.461884 34.387585,58.593611 34.387444,58.595291 34.386382,58.595887 34.382652,58.644464 34.382332,58.651164 34.339706,58.626341 34.336168,58.62876 34.331876,58.626536 34.263408,58.665031 32.343296,59.601849 32.342862,59.604196 32.341616,59.604659 32.331538,59.660323 32.330219,59.668879 32.279605,59.632923 32.27534,59.635004 32.269802,59.631383 32.158588,59.672767 30.265919,60.287947 30.265853,60.288196 30.264328,60.288505 30.220156,60.448599 30.213728,60.474752 30.068313,60.352176 30.053286,60.35706 30.026787,60.336548 29.555517,60.431864 28.271757,60.650344 28.137403,61.016904 28.115498,61.081412 27.769114,60.735888 27.718888,60.744436 27.644135,60.677641 26.354453,60.788733 26.077194,61.393963 26.030136,61.50104 25.500458,60.879908 25.467615,60.84403 25.37569,60.849516 25.269304,60.73859 24.503373,60.749285 24.033355,61.60416 23.957392,61.743324 23.490244,61.104188 23.18748,60.713792 23.611278,59.930923 23.801546,59.604944 24.197403,60.108595 24.566818,60.588896 25.209941,60.488174 25.558917,59.693264 25.71079,59.382204 26.176956,59.879972 26.470621,60.207229 27.265214,60.013165 27.518092,59.281795 27.630032,58.993436 28.165543,59.477723 28.367028,59.668387 29.306577,59.369279 29.308662,59.362636 29.314311,59.360495 29.486498,58.697799 29.563973,58.425896 30.152354,58.879924 30.291085,58.990389 31.34919,58.589466 31.4554,57.949039 31.5062,57.668796 32.117377,58.068099 32.264738,58.165147 33.301915,57.678486 33.33729,57.030247 33.35995,56.721672 33.979564,57.045824 34.190158,57.156598 35.104635,56.603612 35.0505,55.933835 35.035852,55.586272 35.655968,55.818496 35.947175,55.93232 36.686231,55.327608 36.516955,54.653928 36.452067,54.271112 37.072671,54.392571 37.412654,54.475249 37.888258,53.910407 37.8797,53.881844 37.936386,53.789249 37.668447,53.161095 37.552736,52.76814 38.174956,52.764904 38.54189,52.800178 38.921292,52.180438 38.885636,52.09828 38.931403,52.004739 38.581383,51.408631 38.420247,51.011776 39.012927,50.895456 39.483604,50.876122 39.756684,50.317988" slic3r:type="contour"/>
    <polygon style="fill: white" points="22.230486,60.188908 22.593084,60.733048 21.992935,61.671208 21.895064,61.819908 21.475494,61.157164 21.197004,60.733127 21.678371,59.997292 21.895064,59.674744" slic3r:type="contour"/>
  </g></svg>