<svg width="43.790126" height="63.590156" xmlns="http://www.w3.org/2000/svg" xmlns:svg="http://www.w3.org/2000/svg" xmlns:xlink="http://www.w3.org/1999/xlink" xmlns:slic3r="http://slic3r.org/namespaces/slic3r"><g xmlns="http://www.w3.org/2000/svg" slic3r:z="4.68649999999998e-005" id="layer141">
    <polygon style="fill: white" points="40.292551,40.071431 40.48318,40.191788 39.838396,40.802928 40.078491,41.480615 40.257863,42.040616 39.73412,42.058024 39.323928,41.903728 38.594739,40.488087 38.575268,40.456092 38.663469,40.415976 38.596131,40.359807 38.584824,40.351852 39.297624,39.775327 39.564596,39.568508" slic3r:type="contour"/>
    <polygon style="fill: white" points="40.068108,35.1933 40.61548,35.489192 40.285992,35.819415 39.653672,36.403672 39.042151,35.980355 38.642012,35.737032 39.033076,35.410083 39.60868,34.930564" slic3r:type="contour"/>
    <polygon style="fill: white" points="39.674984,30.854944 40.331256,31.15868 40.147652,31.361677 39.426459,32.08068 38.920611,31.76609 38.360923,31.472658 38.638403,31.219196 39.27998,30.653476" slic3r:type="contour"/>
    <polygon style="fill: white" points="39.110295,26.896276 39.746512,27.147667 39.556835,27.378346 38.921352,28.080538 38.39808,27.801602 37.816068,27.544068 38.084687,27.254486 38.666528,26.68761" slic3r:type="contour"/>
    <polygon style="fill: white" points="38.325044,23.368766 38.913136,23.54885 38.682527,23.87502 38.1973,24.535758 37.611083,24.298959 37.043408,24.092598 37.325816,23.688431 37.793983,23.148056" slic3r:type="contour"/>
    <polygon style="fill: white" points="37.270816,20.367562 37.805316,20.444776 37.471051,20.837242 37.139056,21.447086 36.525952,21.433344 36.011772,21.314006 36.29866,20.752789 36.618835,20.27062" slic3r:type="contour"/>
    <polygon style="fill: white" points="36.516784,19.018844 36.521776,20.055154 35.662604,19.985273 35.243668,20.067424 35.48078,19.756358 35.408603,18.647442 35.792395,18.408605 36.524148,18.377262" slic3r:type="contour"/>
    <polygon style="fill: white" points="32.051498,15.377412 32.381893,16.170202 33.306603,16.236184 33.928606,16.309845 33.937275,16.306623 34.008166,16.314775 34.251919,16.192565 34.3056,16.157852 34.350791,16.354174 34.456067,16.36628 34.572812,16.380772 34.477235,16.903489 34.554972,17.241194 34.552622,17.261993 34.670836,17.819134 34.231556,17.872358 33.505156,18.221004 33.488261,18.000723 33.414797,17.547015 33.38862,17.544146 33.37827,17.495816 32.209185,17.405514 32.217983,16.755553 32.227362,16.311581 32.186988,16.341293 32.178009,16.269513 31.516918,16.790897 31.383366,16.904154 31.10308,16.115192 30.841378,15.394992 31.432225,14.973856 31.79132,14.655773" slic3r:type="contour"/>
    <polygon style="fill: white" points="22.155772,12.56923 22.444637,13.036919 22.716565,12.636867 23.027636,12.194414 23.293984,12.687631 23.590348,13.2242 23.957025,12.739698 24.24505,12.366935 24.550599,12.98298 24.867582,13.602471 25.416613,12.935548 25.63783,12.662284 26.023709,13.476477 26.115225,13.659905 26.863904,13.621858 27.198247,13.236526 27.307898,13.100264 27.540138,13.595243 27.926747,13.569834 28.73876,13.531819 28.788082,13.78986 28.842883,14.297076 29.391862,13.724578 29.44609,13.846594 30.053984,15.112732 29.585069,15.575615 29.171852,15.997892 28.994649,15.584876 28.659007,14.819403 28.605314,14.822165 28.588655,14.785941 27.620221,14.849461 27.137824,15.389386 27.062916,15.226541 26.906908,14.896246 26.892527,14.897189 26.883582,14.87827 25.634768,14.934121 25.498092,14.940608 25.476696,14.966297 25.464955,14.94218 25.464614,14.942196 25.464258,14.941452 25.363832,14.943426 25.331656,14.855999 24.858914,13.662154 24.195313,14.575646 24.11633,14.680293 23.730998,13.90738 23.571756,13.585325 23.077858,14.341938 22.956574,14.520923 22.579962,13.818231 22.438236,13.555036 22.025163,14.255114 21.895064,14.4713 21.506762,13.807264 21.353666,13.552775 20.947586,14.309161 20.833552,14.520924 20.41513,13.869905 20.219824,13.581273 19.744988,14.536335 19.673794,14.680291 19.192538,14.008194 18.930861,13.66056 18.671763,14.358036 18.42644,14.943389 18.325644,14.941961 18.325551,14.942157 18.325211,14.942144 18.313454,14.966284 18.308396,14.959858 18.292666,14.940901 17.321902,14.903816 16.904466,14.882585 16.897617,14.89719 16.884963,14.896434 16.652329,15.389382 16.536911,15.258569 16.175486,14.853627 15.200923,14.786733 15.184807,14.822103 15.132639,14.819615 14.990813,15.147575 14.618292,15.997894 14.300147,15.686441 13.736167,15.112705 13.979909,14.561206 14.398294,13.72458 14.462298,13.786282 14.971388,14.308232 14.987631,14.208919 15.051415,13.531818 16.237837,13.600184 16.390984,13.272465 16.482219,13.100281 16.945255,13.629773 17.654749,13.663056 17.655871,13.660875 17.666387,13.661194 17.9815,12.995508 18.152282,12.662301 18.585448,13.187674 18.922355,13.601895 19.321156,12.797789 19.545084,12.366937 19.883414,12.81468 20.197788,13.223883 20.49611,12.671689 20.762494,12.19442 21.045093,12.610918 21.342079,13.037504 21.596286,12.61752 21.895064,12.138115" slic3r:type="contour"/>
    <polygon style="fill: white" points="12.398005,14.931574 12.948769,15.394944 12.514185,16.607996 12.406717,16.904188 11.750051,16.394557 11.610972,16.277863 11.603133,16.34125 11.561868,16.312448 11.57355,17.103822 11.580922,17.40552 10.986812,17.449734 10.413326,17.494519 10.401516,17.54414 10.390118,17.544849 10.284973,18.220974 10.00345,18.187678 9.119318,17.819204 9.236059,17.393536 9.247421,17.332635 9.235231,17.240802 9.322611,16.846103 9.247697,16.483599 9.217319,16.38077 9.43115,16.355823 9.458305,16.233161 9.484525,16.157854 9.806801,16.312 9.852877,16.306625 9.884515,16.317978 11.409757,16.173641 11.761819,15.181235 11.998823,14.655775" slic3r:type="contour"/>
    <polygon style="fill: white" points="7.587956,18.596244 8.381758,18.647448 8.571285,19.091924 8.546467,20.067408 7.808248,20.135066 7.268373,20.055148 7.256951,19.219266 7.266069,18.37718" slic3r:type="contour"/>
    <polygon style="fill: white" points="7.543031,20.97012 7.778357,21.313964 7.324868,21.296434 6.651389,21.447056 6.237628,20.947774 5.98481,20.444818 6.495491,20.36884 7.171335,20.270664" slic3r:type="contour"/>
    <polygon style="fill: white" points="6.378667,23.679218 6.746732,24.092564 6.295817,24.277396 5.592885,24.535744 5.268086,24.076487 4.876986,23.548901 5.240476,23.397401 5.996256,23.148009" slic3r:type="contour"/>
    <polygon style="fill: white" points="5.507333,27.094455 5.974066,27.544043 5.601115,27.747898 4.86886,28.08057 4.540548,27.681472 4.043623,27.147672 4.298226,27.027578 5.123602,26.68761" slic3r:type="contour"/>
    <polygon style="fill: white" points="4.904345,31.011063 5.429205,31.472662 5.07043,31.700664 4.363668,32.08068 4.015828,31.694854 3.458881,31.15869 3.667734,31.051858 4.510148,30.653476" slic3r:type="contour"/>
    <polygon style="fill: white" points="4.708512,35.370836 5.148108,35.73704 4.671256,36.071875 4.136455,36.403672 3.666608,35.929484 3.17464,35.489204 3.481685,35.313107 4.181503,34.930591" slic3r:type="contour"/>
    <polygon style="fill: white" points="5.190379,40.340327 5.2053,40.351884 5.123259,40.421177 5.214859,40.456124 4.741377,41.458743 4.466223,41.903784 3.797158,41.912036 3.532271,42.040552 3.959321,40.795518 3.490409,40.344668 3.306956,40.191708 3.933787,39.75588 4.225565,39.568452" slic3r:type="contour"/>
    <polygon style="fill: white" points="22.073629,56.489237 22.415672,56.530848 23.402385,56.682683 21.95009,56.670189 21.90496,56.736295 21.895064,56.752848 21.838984,56.670155 21.747797,56.670868 20.38734,56.682676 21.720765,56.495833 21.68416,56.441856 21.909946,56.469324 22.105976,56.441856" slic3r:type="contour"/>
  </g></svg>