<svg width="43.790126" height="63.590156" xmlns="http://www.w3.org/2000/svg" xmlns:svg="http://www.w3.org/2000/svg" xmlns:xlink="http://www.w3.org/1999/xlink" xmlns:slic3r="http://slic3r.org/namespaces/slic3r"><g xmlns="http://www.w3.org/2000/svg" slic3r:z="4.625e-006" id="layer13">
    <polygon style="fill: white" points="22.182083,0.842956 22.39081,1.134852 22.672261,1.154336 23.056436,0.734657 23.250208,0.519539 23.482337,0.930822 23.682542,1.291066 23.920476,1.340015 24.377071,0.954478 24.609346,0.758607 24.781458,1.181459 24.951714,1.613855 25.160819,1.686119 25.686413,1.355434 25.953568,1.193224 26.065359,1.633233 26.168954,2.082355 26.414046,2.202908 26.485732,2.175679 26.97737,1.959075 27.25783,1.84782 27.307779,2.323996 27.331217,2.675885 27.718205,2.925729 27.858403,2.895658 28.238888,2.790094 28.487432,2.733605 28.467729,3.278617 28.456298,3.40799 28.887435,3.774951 29.085023,3.930005 29.224078,3.917872 29.478634,3.880055 29.666454,3.861226 29.587659,4.345773 29.927451,4.721361 30.454477,5.257851 30.531114,5.258584 30.532529,5.260579 30.707956,5.251294 30.83567,5.250418 30.751082,5.568874 31.01751,5.944702 31.76371,6.920149 31.81833,6.924786 31.81979,6.927375 31.944565,6.929276 32.042026,6.935353 31.959771,7.175509 32.209893,7.618881 33.003057,8.932381 33.093452,8.946178 33.219674,8.956173 33.342882,8.971722 33.21756,9.28503 33.589511,10.153269 34.051651,11.158139 34.421388,11.216302 34.641496,11.259878 34.402036,11.770573 34.354424,11.853678 34.796882,13.428533 35.419568,13.594648 35.811796,13.706066 35.624743,14.031147 35.176113,14.678216 35.940399,15.848606 36.206547,15.996742 36.231686,16.056765 36.652312,16.237971 36.57482,16.336404 36.419513,16.505232 36.748712,17.291246 36.483474,18.385533 36.685947,18.567695 36.805784,18.678662 36.348353,18.942994 36.312836,19.089528 35.903496,19.401836 35.849566,19.369699 35.594284,19.767784 35.46238,19.090002 34.981319,18.708419 34.819851,18.541232 35.181456,18.299942 35.030976,17.93134 34.794096,17.63354 35.003956,17.303459 35.120686,16.806813 34.683588,16.6057 34.857735,16.396523 35.174996,16.064369 35.041913,14.74742 34.970509,14.667767 34.185447,14.47122 33.910896,14.404384 34.244282,13.913299 34.240255,13.909428 34.310567,13.79556 33.714232,13.169786 32.842855,12.132268 32.814621,12.127573 32.80228,12.126004 32.818894,12.094235 32.786653,12.057263 32.666533,11.886632 31.867068,10.237234 31.747111,9.960339 31.574818,9.951755 31.610662,9.883465 31.645484,9.806569 30.706888,8.326431 30.532455,8.022571 30.350378,8.025143 30.381945,7.954743 30.41337,7.873857 29.419344,6.595596 29.319772,6.457297 29.231523,6.46507 29.243858,6.430943 29.255745,6.392745 28.616724,5.740713 28.261264,5.219884 28.217877,5.225886 28.187474,5.230999 28.209479,5.144007 28.192883,5.119692 28.094781,5.012487 27.43892,4.207644 27.295107,4.247204 27.189844,4.278571 27.231192,3.952406 26.813542,3.61392 26.575638,3.39786 26.35969,3.495361 26.203034,3.568418 26.192349,3.079883 25.599954,2.775176 25.345388,2.942681 25.178794,3.054589 25.077296,2.515735 24.52004,2.346704 24.266062,2.573234 24.114856,2.710097 23.931395,2.19222 23.368419,2.108239 23.144413,2.367989 23.017544,2.516694 22.772269,2.044835 22.191084,2.02276 22.000388,2.302363 21.895064,2.458091 21.596491,2.021723 21.01984,2.043637 20.862869,2.344705 20.77256,2.516692 20.413619,2.102459 19.866232,2.184363 19.74569,2.520096 19.675266,2.71009 19.252173,2.335136 18.724591,2.495601 18.653324,2.858655 18.611358,3.054566 18.15658,2.75801 17.608737,3.039381 17.597026,3.394356 17.587096,3.568421 17.174657,3.384934 16.760584,3.716733 16.575954,3.893707 16.578492,3.928745 16.564251,3.944068 16.590103,4.167614 16.600308,4.278568 16.321958,4.20476 16.083154,4.461699 15.581472,5.120932 15.584819,5.137891 15.581876,5.141656 15.596086,5.200599 15.602652,5.230999 15.520109,5.220664 15.449071,5.311531 15.173404,5.740713 14.608913,6.305347 14.535141,6.386326 14.558605,6.46507 14.520461,6.464467 14.467467,6.460612 14.462165,6.466431 14.457891,6.46635 13.546015,7.625045 13.377824,7.858697 13.439755,8.025115 13.360003,8.030688 13.253816,8.030971 13.244966,8.043265 13.233412,8.043975 12.335456,9.461008 12.145115,9.789298 12.215318,9.951728 12.138303,9.962472 12.040993,9.968885 12.033658,9.981535 12.024995,9.982631 11.123784,11.88631 10.969335,12.090661 10.987758,12.12605 10.94312,12.134453 9.463637,13.76755 9.549856,13.909443 9.547075,13.912355 9.753492,14.217182 9.879232,14.404384 9.37446,14.532725 8.826531,14.667024 8.756671,14.740192 8.649366,16.140056 8.748684,16.255213 9.10654,16.605679 8.913848,16.674453 8.718727,16.760976 8.996029,17.633526 8.640205,18.36534 8.81638,18.476377 8.970275,18.541232 8.546376,18.837707 8.420115,18.958896 8.19593,19.767706 7.923123,19.374785 7.88666,19.401866 7.785505,19.321278 7.477284,19.089536 7.429526,18.926815 7.117076,18.749743 6.984339,18.678684 7.27944,18.415443 7.193523,18.122705 7.04141,17.291322 7.247363,16.735199 7.366528,16.473468 7.137816,16.237971 7.261476,16.181879 7.558521,16.051777 7.583578,15.996743 7.798808,15.876007 7.955,15.617002 8.610883,14.668465 8.217459,14.025703 7.97833,13.706054 8.384277,13.59898 8.960625,13.439469 9.250781,12.31056 9.429053,11.772197 9.266324,11.448036 9.14866,11.259855 9.62221,11.188881 9.623852,11.183923 9.706827,11.168055 10.006043,10.447736 10.5752,9.246666 10.504601,9.08121 10.44724,8.97172 10.714256,8.953219 10.719225,8.942734 10.770333,8.936423 11.006883,8.512894 11.833415,7.152562 11.7866,7.023445 11.748127,6.935353 11.965873,6.934558 11.971817,6.924775 12.011389,6.922492 12.235003,6.606726 13.045054,5.540265 12.995602,5.366187 12.954457,5.250418 13.250485,5.26981 13.259012,5.258584 13.313288,5.259493 13.642949,4.89656 14.215696,4.304494 14.167062,4.034562 14.123672,3.861226 14.573718,3.934396 14.587862,3.919776 14.671607,3.92935 15.177916,3.500795 15.350794,3.362762 15.330449,2.973133 15.302682,2.733636 15.795027,2.87759 15.919757,2.908476 15.934946,2.89635 16.044054,2.922737 16.471181,2.647989 16.518419,2.138746 16.532299,1.847821 16.953034,2.038645 17.253003,2.162961 17.259874,2.158762 17.361514,2.199812 17.628962,2.068329 17.770121,1.495839 17.836586,1.193223 18.219826,1.436709 18.621886,1.684469 18.843023,1.608005 19.070224,1.043806 19.180781,0.75859 19.536121,1.05871 19.868569,1.339193 20.110113,1.28948 20.398693,0.775467 20.539902,0.519543 20.865601,0.873688 21.119616,1.153785 21.402183,1.134216 21.731648,0.678921 21.895064,0.448478" slic3r:type="contour"/>
    <polygon style="fill: white" points="36.085183,20.454145 36.370408,20.816744 35.915635,20.972662 35.233519,21.2028 35.115708,21.696821 35.157631,21.754612 35.144942,21.803723 35.300752,21.984612 35.738624,22.54543 35.430575,22.632576 34.921608,22.779936 34.800341,23.327927 35.33996,23.751366 35.108431,23.862072 34.744111,24.043682 34.748623,24.316942 35.426356,24.56436 35.214019,24.777306 34.843975,25.155378 34.872598,25.292404 35.220395,25.359099 35.838831,25.480316 35.607732,25.835631 35.238621,26.417434 36.130616,26.638764 36.448364,26.709666 36.122732,27.208793 35.885673,27.579119 36.304663,27.905257 36.601883,28.161124 36.784391,28.242465 36.791533,28.255142 36.964395,28.328843 37.001912,28.342772 36.904561,28.455754 36.957227,28.549231 37.074272,28.80699 37.0768,29.997302 37.075692,30.283861 37.0803,30.286622 37.079995,30.315144 37.32574,30.45454 37.237011,30.523054 37.076342,30.656403 37.0639,31.818982 37.045002,32.485295 37.0772,32.508894 37.074248,32.570024 37.458872,32.825358 37.302764,32.920511 37.048545,33.102324 37.008063,33.940652 36.944217,34.869299 37.002068,34.919308 36.993332,34.99573 37.41618,35.321912 37.224351,35.414892 36.924478,35.598151 36.850899,36.241888 36.711815,37.264266 36.785616,37.340156 36.768878,37.416075 37.189436,37.804188 36.972064,37.883883 36.627991,38.055086 36.536055,38.472076 36.292134,39.467675 36.36974,39.565672 36.342022,39.646454 36.76614,40.125284 36.508639,40.188896 36.10467,40.338207 36.053443,40.487504 35.692087,41.461046 35.770288,41.587104 35.729468,41.670482 35.751208,41.70544 36.146732,42.27036 35.839963,42.305012 35.360473,42.416775 34.929243,43.242547 35.000356,43.398476 34.948363,43.475585 35.02544,43.642464 35.328612,44.222704 34.971272,44.208972 34.410073,44.25574 34.013162,44.812863 34.06682,44.993532 34.007489,45.058012 34.106056,45.383156 34.307008,45.95798 33.90914,45.873916 33.28449,45.820942 32.942592,46.174341 32.969832,46.355952 32.906524,46.407564 32.979214,46.875828 33.086526,47.432504 32.669404,47.266832 32.032245,47.096177 31.722875,47.336004 31.726372,47.50366 31.662246,47.543495 31.67618,48.112875 31.706724,48.650136 31.292942,48.40636 30.68151,48.128859 30.369463,48.31241 30.356172,48.457104 30.293025,48.487409 30.237364,49.098595 30.205232,49.628427 29.814829,49.320623 29.255958,48.962252 28.902931,49.121253 28.88073,49.238624 28.819737,49.261486 28.7069,49.844776 28.61893,50.38922 28.267653,50.039747 27.775425,49.633071 27.345251,49.782821 27.317494,49.882536 27.266324,49.89647 27.129115,50.373492 26.978354,50.958936 26.67629,50.594476 26.246496,50.160206 25.718382,50.292409 25.688856,50.37306 25.653832,50.378942 25.524305,50.721556 25.300822,51.351332 25.04416,50.987723 24.672795,50.536204 24.049694,50.631514 24.020992,50.694608 24.007743,50.695381 23.901856,50.922335 23.601946,51.578968 23.380989,51.219195 23.058294,50.748661 22.383391,50.784353 22.263122,51.001667 21.895063,51.652007 21.69655,51.286184 21.410382,50.781334 20.748115,50.746338 20.59332,50.985967 20.188181,51.57898 20.000198,51.18326 19.777549,50.695051 19.769168,50.694608 19.735888,50.622625 19.140914,50.531787 18.902631,50.846432 18.489306,51.351332 18.313802,50.910516 18.125306,50.376729 18.101272,50.37306 18.065794,50.280717 17.568398,50.156391 17.213402,50.551335 16.811778,50.958912 16.658149,50.469676 16.51076,49.89203 16.47268,49.882512 16.439011,49.770921 16.036499,49.630849 15.557062,50.069607 15.171176,50.389228 15.054502,49.86256 14.957966,49.255526 14.90936,49.238611 14.881895,49.109999 14.553375,48.961861 13.974453,49.378728 13.584899,49.628424 13.521468,49.090875 13.48582,48.480472 13.433953,48.457084 13.41607,48.300841 13.127693,48.130846 12.495942,48.464112 12.083406,48.650128 12.081517,48.125984 12.116234,47.534604 12.06381,47.5037 12.06341,47.322509 11.779656,47.101877 11.15266,47.314952 10.703617,47.432512 10.764023,46.945368 10.870718,46.395134 10.820291,46.355924 10.844967,46.157509 10.532642,45.833408 9.973558,45.921216 9.483116,45.957976 9.5977,45.528903 9.768381,45.040327 9.723286,44.993532 9.77729,44.791757 9.413983,44.27914 8.992192,44.274092 8.461485,44.222692 8.611479,43.864592 8.826645,43.450416 8.789797,43.398424 8.865914,43.217925 8.469207,42.453222 8.202826,42.41026 7.643396,42.270344 7.808609,41.981324 8.046337,41.638088 8.019871,41.587072 8.108616,41.43449 7.722423,40.385813 7.596262,40.348548 7.023985,40.125264 7.19141,39.894752 7.437585,39.612359 7.420395,39.56568 7.510688,39.445142 7.458482,39.210948 7.191407,38.110342 7.167701,38.10044 6.60069,37.804196 6.765549,37.617171 7.014709,37.382176 7.004512,37.340156 7.09116,37.24644 7.031571,36.731635 6.88607,35.648867 6.373947,35.32194 6.538316,35.162128 6.793414,34.959362 6.788034,34.919324 6.857856,34.855759 6.822136,34.146476 6.754941,33.138908 6.331255,32.825348 6.479289,32.700869 6.714938,32.539096 6.712924,32.508894 6.753326,32.477717 6.73748,31.367878 6.719639,30.670016 6.464385,30.454512 6.557572,30.388626 6.710164,30.29935 6.709838,30.286599 6.715821,30.282818 6.715853,28.806983 6.892182,28.463555 6.812582,28.371118 6.788213,28.342772 7.004833,28.244151 7.005693,28.242476 7.232417,28.139078 7.908551,27.58759 7.498172,26.955014 7.341765,26.709665 7.884137,26.567884 8.549802,26.417032 8.240647,25.938444 7.951295,25.48033 8.333642,25.407884 8.923915,25.292396 8.951494,25.165177 8.888049,25.101191 8.363771,24.56436 8.629666,24.483709 9.042851,24.333878 9.047643,24.050021 8.450171,23.751366 8.655881,23.614921 8.978391,23.36424 8.852222,22.777121 8.743542,22.746142 8.051499,22.545462 8.261942,22.309679 8.647258,21.823316 8.632495,21.754618 8.66834,21.70768 8.553801,21.201623 7.844969,20.959918 7.419716,20.816748 7.726645,20.461971 8.210144,19.856386 8.900954,20.158967 9.377947,20.272186 9.21035,20.430756 8.698523,21.103707 8.718314,21.126716 8.704801,21.144849 9.540244,21.77785 9.591016,21.790226 9.594686,21.793882 10.048521,21.901246 10.024741,21.924779 9.918787,22.064666 9.923134,22.067959 9.900708,22.098734 10.218088,22.414902 10.388838,23.408793 10.536392,23.485802 10.60524,23.518282 10.412095,23.687908 10.410645,23.798392 10.3938,24.933116 10.444767,24.989438 10.465334,25.011528 10.384784,25.043189 10.378487,25.07808 10.34571,25.265972 9.805085,25.501715 9.541736,25.651634 9.900006,26.258368 9.731713,26.307183 8.68178,26.53456 8.99374,26.955548 9.282607,27.41826 8.824948,27.554177 8.218359,27.692547 8.213621,28.129504 8.597188,28.538778 8.79037,28.758926 8.219567,28.997856 8.230257,29.73368 8.247647,30.370181 8.402965,30.500768 8.502819,30.582912 8.257153,30.718106 8.257212,30.720277 8.243178,30.728707 8.262606,31.184171 8.273439,32.690323 8.332791,32.732317 8.379853,32.762824 8.274451,32.831225 8.274501,32.838192 8.268384,32.842604 8.287185,33.077587 8.340966,35.042673 8.385067,35.068832 8.424437,35.089052 8.343894,35.149651 8.344135,35.158459 8.340723,35.161338 8.368055,35.352268 8.531281,37.329309 8.588137,37.356059 8.643036,37.377252 8.53965,37.469085 8.597795,37.703192 8.906106,39.423882 8.971648,39.446084 9.037784,39.462536 8.931309,39.578413 9.018919,39.814899 9.454665,41.314211 9.524237,41.327976 9.598271,41.335448 9.498847,41.472189 9.614191,41.695155 10.160808,42.984931 10.232765,42.988027 10.313773,42.983199 10.226816,43.142344 10.371835,43.348536 11.010414,44.424925 11.085323,44.415108 11.173817,44.394256 11.103983,44.581087 11.285082,44.770763 11.998528,45.632982 12.080493,45.607056 12.176696,45.566336 12.129005,45.788514 12.354082,45.965248 13.118412,46.646202 13.209412,46.600323 13.312977,46.53646 13.292834,46.799506 13.571588,46.965444 14.354992,47.489625 14.457143,47.419003 14.568747,47.328372 14.581983,47.640354 14.929102,47.798168 15.689049,48.185012 15.80516,48.083763 15.926756,47.962076 15.98018,48.334104 16.41825,48.487276 17.096478,48.752308 17.226862,48.614052 17.361376,48.456116 17.463332,48.894916 18.007995,49.031127 18.559857,49.185418 18.70225,49.003687 18.846664,48.808196 19.00724,49.304388 19.64487,49.401328 20.070106,49.473673 20.216758,49.247595 20.363574,49.019291 20.585236,49.545754 21.271357,49.581627 21.618004,49.601837 21.756438,49.339243 21.895064,49.089624 22.167473,49.605582 22.835501,49.570688 23.191654,49.549852 23.308468,49.271403 23.426534,49.019287 23.727086,49.482717 24.331022,49.391107 24.764677,49.316698 24.851498,49.046567 24.943464,48.808228 25.246669,49.195815 25.76648,49.066063 26.290275,48.917933 26.293096,48.908807 26.309951,48.902915 26.363552,48.669451 26.428748,48.456108 26.71565,48.761095 27.148989,48.609612 27.778637,48.360809 27.781534,48.347676 27.794621,48.34171 27.822106,48.146192 27.86337,47.962076 28.125293,48.190972 28.484505,48.027224 29.181859,47.669032 29.183182,47.658219 29.19377,47.651883 29.200311,47.487216 29.221374,47.328351 29.459383,47.492922 29.759245,47.313464 30.475933,46.830477 30.476022,46.820571 30.484755,46.813656 30.473824,46.674016 30.477146,46.536464 30.696063,46.646346 30.947296,46.447423 31.645238,45.8218 31.643986,45.811388 31.650959,45.803995 31.625479,45.685123 31.613424,45.566324 31.815711,45.62934 32.025902,45.406515 32.676411,44.615971 32.67331,44.604303 32.678504,44.596788 32.641094,44.495712 32.616304,44.39424 32.802675,44.417185 32.975849,44.1667 33.55969,43.177809 33.553654,43.16344 33.557298,43.156241 33.510616,43.069411 33.476358,42.983208 33.649631,42.973831 33.789564,42.697383 34.292655,41.505308 34.284167,41.490676 34.286555,41.48406 34.232735,41.408463 34.191856,41.335416 34.35244,41.301481 34.460872,41.000991 34.863725,39.607352 34.853575,39.593791 34.854966,39.588004 34.796764,39.523084 34.752344,39.462504 34.89749,39.411159 34.972916,39.097475 35.257127,37.492484 35.246336,37.480816 35.246992,37.476024 35.190156,37.424144 35.147088,37.377252 35.268622,37.318112 35.3095,37.019668 35.456987,35.168393 35.445987,35.158459 35.446199,35.155575 35.400559,35.120335 35.365688,35.089052 35.455095,35.034533 35.473459,34.784624 35.52994,32.849054 35.515623,32.838191 35.5157,32.836096 35.456287,32.796807 35.410272,32.762824 35.52131,32.682789 35.534776,32.314784 35.55753,30.73457 35.395543,30.644963 35.287308,30.582886 35.538965,30.370289 35.558183,29.257522 35.564327,28.978333 35.246008,28.84667 34.999752,28.758944 35.398908,28.339501 35.558614,28.161653 35.563979,27.676874 34.965803,27.502213 34.50752,27.418252 34.706076,27.161189 35.119031,26.534142 34.559091,26.373789 33.890132,26.258374 33.962336,26.165579 34.221556,25.754411 34.201528,25.7444 34.234188,25.689532 34.118199,25.630107 33.444376,25.265856 33.404952,25.043063 33.353061,25.022663 33.324807,25.01153 33.396457,24.932002 33.395544,24.86325 33.378464,23.6903 33.243378,23.57126 33.184914,23.518256 33.404441,23.402642 33.427963,23.271782 33.572048,22.414892 33.800611,22.251808 33.90299,22.133223 33.741604,21.901246 33.785464,21.88344 34.621152,21.638112 35.102672,21.170242 35.07184,21.126685 35.083713,21.119064 34.780192,20.800612 34.412184,20.272206 34.736412,20.12342 35.58002,19.85637" slic3r:type="contour"/>
  </g></svg>