<svg width="43.790126" height="63.590156" xmlns="http://www.w3.org/2000/svg" xmlns:svg="http://www.w3.org/2000/svg" xmlns:xlink="http://www.w3.org/1999/xlink" xmlns:slic3r="http://slic3r.org/namespaces/slic3r"><g xmlns="http://www.w3.org/2000/svg" slic3r:z="3.63049999999999e-005" id="layer109">
    <polygon style="fill: white" points="13.763277,58.812888 14.003201,59.597832 13.580744,59.950447 13.006428,60.37098 12.89304,59.986695 12.67393,59.1004 13.259788,58.671247 13.655579,58.351232" slic3r:type="contour"/>
    <polygon style="fill: white" points="11.558742,58.1099 11.711108,58.719312 11.107461,59.160068 10.687937,59.43042 10.532708,58.787275 10.406863,58.140752 11.214038,57.625539 11.443595,57.458996" slic3r:type="contour"/>
    <polygon style="fill: white" points="7.408688,55.33542 7.412594,55.809753 9.019183,56.233492 9.099656,56.531023 9.279763,56.436711 9.311814,56.41716 9.402027,57.290011 9.47033,57.691772 9.421274,57.720706 9.430816,57.767584 9.370559,57.750618 8.62979,58.187531 8.39988,58.310492 8.260622,57.438105 7.507686,57.226108 6.373526,56.937622 6.354964,56.944428 6.343153,56.939747 6.28784,56.963319 6.271569,56.969752 6.269019,56.910374 6.226402,56.893487 6.147641,56.863884 6.144416,56.023436 6.113853,55.39282 6.48861,55.536297 6.649712,55.477279 7.41758,55.149691" slic3r:type="contour"/>
    <polygon style="fill: white" points="5.770449,54.066515 5.624705,55.05888 5.207321,55.14212 4.439286,55.270632 4.491325,54.969603 4.667818,53.90214 5.302216,53.806676 5.868365,53.683824" slic3r:type="contour"/>
    <polygon style="fill: white" points="3.119669,49.30064 3.744917,49.517556 3.623999,49.798795 3.400516,50.30827 4.205409,50.823372 3.937057,51.284079 3.602505,51.842853 4.447193,51.906384 4.677449,51.91168 4.415812,52.573368 4.210803,53.224988 3.452966,53.19852 3.005864,53.17952 3.250124,52.405335 3.426772,51.847848 2.802815,51.472996 2.050923,50.986904 2.112437,50.899988 2.205351,50.753552 2.20335,50.752979 2.233863,50.712226 1.918217,50.612116 1.973897,50.480587 2.557017,49.0945" slic3r:type="contour"/>
    <polygon style="fill: white" points="2.964443,46.265439 3.025997,46.317279 2.916789,46.418833 3.019821,46.473595 3.052972,46.494864 2.609098,47.431671 2.302942,47.989935 1.390875,47.415316 1.146527,47.284199 1.448337,46.731277 1.438783,46.723076 1.465089,46.660052 1.186817,46.445631 0.989673,46.255784 1.42308,45.760092 1.885658,45.279932" slic3r:type="contour"/>
    <polygon style="fill: white" points="1.844508,40.986327 2.256882,41.647779 2.502028,41.886815 2.529674,41.909376 2.444774,41.969323 2.51558,42.02742 2.541383,42.057599 2.096818,43.19296 1.713415,43.921264 0.863373,43.025235 0.594076,42.789272 0.902709,42.206965 0.85547,42.15882 0.878397,42.098294 0.642544,41.916704 0.514559,41.783112 1.065798,41.214203 1.279026,41.040662 1.452093,40.583775" slic3r:type="contour"/>
    <polygon style="fill: white" points="2.722931,30.465967 2.902478,30.65877 2.264873,30.834176 2.05518,30.947344 2.023409,31.188308 1.880677,31.265186 2.265156,32.356587 2.446459,33.988648 2.474983,34.023643 2.482601,34.03076 2.453845,34.042836 2.478228,34.120984 2.010119,35.745791 1.497632,36.843265 1.637307,36.996848 1.602042,37.102771 1.800573,37.310799 2.382162,37.80378 2.07785,37.973812 1.383571,38.571564 0.882833,38.161159 0.365778,37.571052 0.540986,37.414404 0.998804,37.113486 0.940426,37.016348 1.214215,36.764417 0.914027,36.06112 0.427503,35.204548 0.853035,34.141042 0.774722,34.041856 0.802589,33.963001 0.598011,33.774388 0.503608,33.645996 1.067419,33.213659 1.726775,31.347983 1.67961,31.300141 1.58256,31.158478 1.656363,30.954072 1.17019,30.433888 0.958558,30.091314 1.48065,29.779078 2.078792,29.558996" slic3r:type="contour"/>
    <polygon style="fill: white" points="3.380277,27.49835 3.596656,27.766612 3.030414,27.858286 2.434627,28.092596 1.930789,27.470878 1.705197,27.03775 2.179339,26.825518 2.862794,26.660448" slic3r:type="contour"/>
    <polygon style="fill: white" points="6.428916,18.865129 6.738032,19.210823 6.40643,19.276239 5.755413,19.526267 5.811267,20.506297 5.936314,20.715496 5.927272,20.782338 6.111804,21.013332 6.034024,21.026711 5.887721,21.074718 5.782705,21.851052 5.102339,22.688218 5.226747,22.908868 5.30944,23.026304 4.789139,23.073599 4.634949,23.263324 4.461388,23.31637 3.895323,24.365068 4.26361,25.010562 4.438649,25.248338 3.849317,25.309689 3.257348,25.488852 2.773345,24.839128 2.588326,24.445738 3.121998,24.256224 3.680076,24.15983 3.956305,23.205438 3.889146,23.080912 3.916573,22.928872 3.581908,22.469928 3.470524,22.231108 4.076517,22.042235 4.177909,21.480182 4.17394,20.488718 4.239839,20.441786 4.285534,20.376436 4.245401,20.306538 4.270231,20.298256 4.353389,20.2794 4.358515,20.27207 4.589325,20.19811 4.895403,20.01928 5.422173,19.40741 5.186837,19.132274 4.843194,18.593814 5.222298,18.457329 6.010291,18.248032" slic3r:type="contour"/>
    <polygon style="fill: white" points="20.596573,6.505113 20.647612,6.508682 21.188356,6.576592 21.251999,6.48974 21.293286,6.422333 21.400496,6.596146 21.490124,6.600701 21.779638,6.62442 21.842667,6.529758 21.895064,6.453013 22.01329,6.631311 22.102294,6.626787 22.369612,6.604474 22.441718,6.492428 22.496844,6.422347 22.620926,6.587218 22.682591,6.582964 23.169173,6.515492 23.222846,6.449345 23.256481,6.419496 23.315621,6.507838 23.665144,6.471894 23.95068,6.630005 24.0063,6.65009 24.146228,6.508804 24.180366,6.557537 24.269242,6.715551 24.676783,6.885774 24.880819,6.950643 24.953478,6.895416 25.002056,6.903376 25.238894,6.676308 25.30474,6.802901 25.378057,6.96499 26.143202,7.09037 26.446783,7.130519 26.464726,7.116052 26.497128,7.120884 26.624694,7.010424 26.65247,7.081213 26.678152,7.147876 27.522914,7.273838 28.004719,7.577701 28.074311,7.5183 28.13508,7.470965 28.203371,7.70327 28.610297,7.877879 29.361176,8.178621 29.527642,8.031737 29.645558,7.935839 29.745129,8.269382 30.073466,8.312311 31.02055,8.338229 31.118612,8.379452 31.119876,8.378362 31.120027,8.378466 31.129531,8.371498 31.134432,8.388404 31.868801,8.895065 32.233688,9.086055 32.589596,8.839652 32.67138,9.161803 32.718931,9.340041 32.739798,9.350963 32.750838,9.390186 33.097469,9.271039 33.502952,9.088853 33.691956,9.313009 33.876196,9.478479 33.889655,9.468813 33.897004,9.480244 34.171532,9.336809 34.247911,9.678718 34.279463,9.792992 34.6266,9.69919 34.970203,9.629862 35.11142,10.028811 35.207335,10.269009 35.274951,10.269307 36.158752,10.420153 36.149902,10.519182 36.160887,10.517139 36.15381,10.548077 36.26284,10.559689 36.358884,11.174704 36.414088,11.197281 36.416101,11.222438 36.570103,11.266687 36.724908,11.334214 36.457084,11.734496 36.47303,11.933729 36.548228,11.970439 36.54959,12.002598 36.782227,12.09965 37.008975,12.222174 36.579034,12.697984 36.585109,12.841441 36.636655,12.864607 36.636772,12.875325 36.95778,13.012779 37.256472,13.165122 36.806888,13.674869 36.647028,13.817173 36.647936,13.900599 37.138959,14.086117 37.575924,14.259786 37.292159,14.630142 36.877711,15.088733 37.128441,15.284564 37.336999,15.352412 38.02554,15.570503 37.9432,15.682018 37.83191,15.833998 38.224172,16.14037 38.076885,16.898078 38.290276,16.979074 38.469248,17.029118 38.010296,17.509899 37.939465,17.605029 37.843275,18.099868 37.82834,18.121832 37.822751,18.120249 37.783216,18.104034 37.545971,17.92605 36.694412,17.659184 36.559108,17.59493 36.739954,17.321366 36.637019,17.244143 36.4324,17.130512 36.61166,16.675305 36.667715,16.35941 36.071788,16.099427 36.23192,15.826303 36.729081,15.206657 35.808387,14.828411 35.56884,14.716024 35.965872,14.13398 36.019494,14.072798 35.750428,13.992582 35.294843,13.852341 35.314523,13.628536 35.317144,13.55026 35.309599,13.546503 35.309478,13.531093 35.119528,13.460162 35.17858,13.391705 35.30715,13.234016 35.304808,12.93542 35.302027,12.712386 35.283152,12.702762 35.275936,12.644808 34.711832,12.431042 34.903136,12.263769 35.162345,11.974564 34.409116,11.751667 34.646474,11.507576 34.220776,11.477572 34.274574,11.294306 33.99494,11.366335 33.867611,10.971968 33.616603,11.15423 33.520362,11.214692 33.462354,11.135244 33.39381,11.192031 33.348331,10.996935 32.969249,10.609714 32.501737,10.956172 32.105224,10.651972 32.040568,10.701656 31.90079,10.829242 31.838264,10.518251 31.809826,10.428789 31.033372,9.983319 30.841881,10.134599 30.515614,10.415406 30.508881,10.386892 30.476352,10.283226 29.450642,10.089416 29.083246,9.967684 29.07447,9.975654 29.071236,9.963662 29.009438,9.952256 28.465665,9.333272 28.188748,9.004868 27.914016,9.224242 27.559986,9.477113 27.487312,9.261855 27.329931,8.769037 26.73594,8.692253 26.475496,8.690574 26.220694,8.874996 26.066687,8.959127 25.96251,8.692532 25.775566,8.676996 25.376426,8.753041 25.1376,8.529179 24.996517,8.446908 24.796044,8.614903 24.731473,8.505821 24.629212,8.231937 24.228407,8.122809 23.906426,8.47817 23.757938,8.272663 23.630325,8.021797 23.519256,8.015412 23.220082,8.442398 23.042514,8.226036 22.885549,7.993566 22.590332,8.483033 22.409233,8.264901 22.261089,8.071091 22.209428,8.069488 21.895064,8.527067 21.740422,8.296946 21.58447,8.069264 21.509291,8.071887 21.199782,8.483037 21.076327,8.247909 20.949468,8.033706 20.836035,8.030881 20.570044,8.44242 20.45508,8.226652 20.343507,8.060897 20.064266,8.074272 19.883676,8.478187 19.76642,8.30248 19.653425,8.170434 19.398601,8.276588 19.061601,8.367121 18.994052,8.614904 18.927456,8.535778 18.839338,8.455545 18.413748,8.753025 17.780741,8.733741 17.741138,8.845302 17.72345,8.959125 17.444123,8.726293 16.666164,8.811034 16.435294,8.826372 16.336331,9.124873 16.23014,9.477094 16.096127,9.365388 15.602615,8.992012 14.967437,9.733326 14.780876,9.952193 14.71962,9.963991 14.715625,9.975672 14.706419,9.967774 14.338486,10.089725 13.4726,10.223576 13.332865,10.263207 13.274517,10.415406 13.248221,10.395018 12.74586,9.985692 12.38311,10.193122 12.034715,10.395243 11.97904,10.61087 11.889295,10.829266 11.667245,10.662179 11.587175,10.722921 11.288406,10.956169 10.990439,10.673855 10.858388,10.576478 10.49368,10.945539 10.44231,11.093862 10.396286,11.192041 10.319226,11.143039 10.269708,11.214707 9.934352,10.940175 9.88179,11.102979 9.795189,11.366335 9.53347,11.276654 9.569349,11.47758 9.211573,11.498121 9.380996,11.751667 8.999234,11.8877 8.690011,11.977441 9.078265,12.431053 8.817252,12.55227 8.509944,12.66712 8.506954,12.702763 8.489746,12.712082 8.486832,13.007376 8.484256,13.228224 8.670587,13.460147 8.587335,13.495199 8.48068,13.534854 8.480544,13.546476 8.478402,13.547548 8.495296,13.852278 8.094005,13.971828 7.73158,14.081594 8.110357,14.601373 8.221284,14.716055 7.709522,14.905162 7.054651,15.207983 7.389785,15.738216 7.718351,16.099415 7.501134,16.152939 7.169042,16.293905 7.35768,17.130634 7.041137,17.358696 7.154864,17.519522 7.230996,17.59495 6.622563,17.738639 6.332905,17.868963 6.006511,18.104124 5.96165,18.121818 5.958501,18.117657 5.946813,18.099991 5.877891,17.693889 5.459988,17.223508 5.320872,17.029094 5.737392,16.866049 5.694393,16.612694 5.566006,16.140199 5.7872,16.023981 5.979381,15.864345 5.764586,15.570502 5.937974,15.514019 6.691197,15.27307 6.921186,15.082028 6.546666,14.611214 6.214221,14.259735 6.799999,14.038444 7.13158,13.909125 7.128482,13.745762 6.774954,13.362141 6.53366,13.165148 7.150285,12.90041 7.153463,12.864606 7.166496,12.859422 7.170525,12.579005 6.96456,12.360762 6.781144,12.22217 7.232778,12.032737 7.241911,11.970434 7.274638,11.956705 7.288105,11.73243 7.304649,11.631753 7.172235,11.444608 7.065219,11.334214 7.367925,11.24669 7.376046,11.197273 7.416403,11.183959 7.424962,11.119483 7.527309,10.559689 7.639204,10.557035 7.629265,10.517143 7.652543,10.522686 7.631404,10.420153 7.708986,10.418586 8.540586,10.337826 8.57577,10.244077 8.819908,9.629887 9.477519,9.805445 9.495674,9.72896 9.618576,9.33682 9.812,9.454138 9.874473,9.486668 10.287197,9.088835 11.059976,9.363577 11.090995,9.244131 11.200544,8.839634 11.410124,9.012573 11.503956,9.077852 12.619786,8.406208 12.656326,8.385993 12.656985,8.383671 12.657204,8.383582 12.660643,8.371601 12.669265,8.378833 12.670141,8.37835 12.670145,8.378354 12.769233,8.338313 14.051333,8.242097 14.097536,8.089258 14.144574,7.935813 14.399226,8.176661 14.798272,8.002694 15.58765,7.69363 15.628508,7.557409 15.655047,7.470955 15.776102,7.5807 15.912767,7.492617 16.267094,7.273873 16.987521,7.155785 17.115477,7.140739 17.16546,7.010422 17.218218,7.059806 17.287171,7.12055 17.325427,7.116051 17.333588,7.123401 18.214393,6.970617 18.437831,6.943606 18.551284,6.676309 18.638736,6.769819 18.773716,6.903001 18.836643,6.895394 18.877441,6.931813 19.41576,6.727115 19.561395,6.680525 19.64393,6.508806 19.673216,6.549176 19.740247,6.623308 19.747464,6.620999 19.762718,6.636275 20.125057,6.471889 20.490508,6.498859 20.520662,6.451207 20.533614,6.419495" slic3r:type="contour"/>
    <polygon style="fill: white" points="38.460555,18.481731 38.946912,18.593784 38.725803,18.828852 38.378254,19.342848 39.367203,20.253247 39.431432,20.272042 39.444644,20.287552 39.54472,20.306574 39.53032,20.322543 39.506757,20.36047 39.616307,20.489077 39.795788,22.122896 40.103152,22.208292 40.319612,22.231112 39.926,22.717895 39.87235,22.819841 39.901016,23.080788 39.861477,23.147385 40.141234,24.182444 40.835564,24.401616 41.2018,24.445722 40.873492,24.853754 40.53274,25.488838 39.625048,25.342578 39.351468,25.248374 39.651703,24.668498 39.907181,24.305638 39.43033,23.354398 39.15506,23.263306 39.060557,23.131607 38.623644,23.068888 38.480712,23.026366 38.693237,22.619708 38.474251,22.314529 38.007431,21.851088 37.983612,21.36817 37.930748,21.102322 37.67832,21.013354 37.726132,20.935969 37.862098,20.757095 37.853832,20.715522 38.07198,20.328102 38.06574,19.555864 37.596468,19.43358 37.052092,19.210853 37.281816,18.850815 37.779848,18.24806" slic3r:type="contour"/>
    <polygon style="fill: white" points="41.666927,26.957605 42.084944,27.037832 41.744652,27.435323 41.355548,28.09263 40.488328,27.898194 40.193472,27.766606 40.504816,27.205309 40.927376,26.66041" slic3r:type="contour"/>
    <polygon style="fill: white" points="42.484132,29.978726 42.831592,30.09142 42.372784,30.563367 42.133636,30.907178 42.207555,31.158456 42.073328,31.334797 42.624012,32.672422 42.816698,33.34652 43.14956,33.580192 43.286512,33.64604 42.980478,33.919491 43.015444,34.041815 42.963003,34.101823 43.159491,34.534975 43.362612,35.204392 43.080232,36.070691 42.614132,36.816801 42.84964,37.016327 42.774072,37.164207 43.424348,37.571004 43.194964,37.756103 42.406556,38.571564 41.850175,38.226876 41.407968,37.803772 41.654372,37.519455 42.181016,37.066407 42.152795,36.996852 42.307227,36.808425 41.373044,34.271764 41.311908,34.120752 41.344275,34.060367 41.307552,34.030808 41.355187,33.96552 41.929446,31.284764 41.7666,31.188298 41.762516,31.010767 41.091339,30.782878 40.887676,30.65885 41.287059,30.03068 41.711376,29.559032" slic3r:type="contour"/>
    <polygon style="fill: white" points="42.603464,41.159784 43.120655,41.660187 43.275572,41.78306 42.904427,42.065838 42.934664,42.158795 42.90314,42.188152 43.083008,42.51538 43.196052,42.7893 42.629971,43.440328 42.076696,43.921252 41.285876,42.130796 41.248744,42.0576 41.344057,41.979438 41.278495,41.929671 41.260452,41.909376 41.771385,41.365484 42.338072,40.583756" slic3r:type="contour"/>
    <polygon style="fill: white" points="42.571659,46.019731 42.800472,46.2557 42.316157,46.631433 42.355692,46.734497 42.535532,47.060812 42.643588,47.28432 41.999024,47.712371 41.487092,47.990059 40.770487,46.556307 40.737124,46.494952 40.866482,46.427022 40.792704,46.35516 40.7641,46.317364 41.377192,45.721859 41.904396,45.279968" slic3r:type="contour"/>
    <polygon style="fill: white" points="41.480032,49.677268 41.871904,50.612124 41.801084,50.641831 41.569291,50.717395 41.7392,50.986904 41.50384,51.129887 40.362484,51.845174 40.646867,52.746535 40.78428,53.179504 40.2238,53.198336 39.57932,53.224988 39.216627,52.242135 39.112668,51.911668 39.928616,51.844332 40.184624,51.835817 39.800308,51.178804 39.584704,50.823384 39.923984,50.637647 40.399809,50.326941 40.045208,49.517572 40.363996,49.400295 41.233108,49.0945" slic3r:type="contour"/>
    <polygon style="fill: white" points="38.358767,53.744448 39.122292,53.902144 39.221331,54.475287 39.350815,55.270668 39.119084,55.223424 38.16542,55.05888 38.041548,54.501916 37.921776,53.683824" slic3r:type="contour"/>
    <polygon style="fill: white" points="36.555363,55.214475 37.326423,55.536844 37.676156,55.392836 37.647563,56.750852 37.642436,56.863907 37.520362,56.911331 37.518616,56.952832 37.518496,56.969788 37.447988,56.939447 37.435096,56.944456 37.41917,56.938623 35.513388,57.454922 35.417143,58.062844 35.390284,58.310464 34.704215,57.901288 34.425793,57.749564 34.35922,57.7676 34.372378,57.720455 34.319836,57.691824 34.470295,56.463292 34.47828,56.417192 34.704227,56.531497 34.753352,56.355491 34.770932,56.233508 35.71896,56.024335 36.366391,55.837169 36.372556,55.14968" slic3r:type="contour"/>
    <polygon style="fill: white" points="32.957822,57.837888 33.383254,58.140816 33.185542,58.965539 33.102145,59.430432 32.656267,59.100459 32.078968,58.719424 32.262385,57.790716 32.346524,57.458988" slic3r:type="contour"/>
    <polygon style="fill: white" points="30.547228,58.646504 31.11617,59.100384 30.935802,59.715643 30.7837,60.370988 30.524089,60.151415 29.786888,59.597832 29.958164,58.921339 30.134518,58.351232" slic3r:type="contour"/>
    <polygon style="fill: white" points="28.253755,59.317475 28.924382,59.914316 28.77055,60.357659 28.536222,61.162888 28.416885,61.050383 27.60347,60.360151 26.530495,61.30237 26.463182,61.460128 26.434287,61.476074 26.318488,61.784636 26.299943,61.764559 26.161394,61.62649 26.158254,61.629248 26.157725,61.6287 25.65177,61.90792 24.20792,61.978697 24.133576,62.119523 24.108874,62.168036 23.964292,61.990639 23.9403,61.991816 23.933748,61.983848 23.480921,61.99296 22.108666,62.017052 22.103864,62.02446 22.082072,62.024015 21.941913,62.23528 21.895064,62.304592 21.709238,62.024065 21.68627,62.024468 21.680697,62.015846 21.177211,62.005595 19.85717,61.983004 19.849845,61.9918 19.828699,61.99058 19.717772,62.125963 19.681254,62.168044 19.580829,61.978274 19.573864,61.978155 19.572702,61.975816 19.29804,61.959976 18.138105,61.907867 17.839984,61.722904 17.640255,61.620625 17.631723,61.629388 17.631067,61.628723 17.471608,61.784616 17.459795,61.756551 17.350059,61.472019 17.326956,61.460188 17.220573,61.212307 17.052124,61.041428 16.187594,60.361917 15.932011,60.600307 15.253929,61.16288 15.19164,60.984216 14.865766,59.914268 15.278225,59.567491 15.799541,59.099768 15.892001,59.412196 16.23329,60.367101 17.121586,60.446615 17.280191,60.288488 17.876774,59.674768 17.952933,59.874503 18.217988,60.490439 19.475915,60.567426 19.90289,60.04566 19.965889,60.173291 20.183315,60.583629 20.660457,60.592847 21.606424,60.614442 21.895064,60.179792 21.958136,60.278456 22.182233,60.616743 22.732593,60.606444 23.599518,60.586397 23.887232,60.045664 23.978447,60.157123 24.32179,60.576657 24.47489,60.56944 25.555764,60.500278 25.913352,59.67476 26.069649,59.829283 26.677159,60.452051 27.558551,60.367115 27.719967,59.850332 27.990606,59.099767" slic3r:type="contour"/>
  </g></svg>