<svg width="43.790126" height="63.590156" xmlns="http://www.w3.org/2000/svg" xmlns:svg="http://www.w3.org/2000/svg" xmlns:xlink="http://www.w3.org/1999/xlink" xmlns:slic3r="http://slic3r.org/namespaces/slic3r"><g xmlns="http://www.w3.org/2000/svg" slic3r:z="1.0235e-005" id="layer30">
    <polygon style="fill: white" points="7.800362,24.986229 8.086586,25.330526 7.417129,25.651231 7.333505,25.685802 7.398381,25.979226 7.63906,26.644384 7.56952,26.64135 7.487491,26.664042 7.582031,26.790616 7.459712,26.84331 6.483781,27.185912 6.625228,27.808082 6.735097,28.177494 6.757344,28.1981 6.76723,28.241818 6.899422,28.371668 6.96884,28.445566 6.829177,28.515754 6.851067,28.612554 6.883923,28.77427 6.279233,28.85443 6.115723,28.891315 5.713627,29.115931 5.946363,30.016653 5.984091,30.238683 6.207916,30.405744 6.41497,30.5112 6.072356,30.75813 6.074149,30.768679 6.025911,30.811098 6.10219,31.20079 6.184247,32.496883 6.102203,32.572797 5.962279,32.581327 5.933246,32.760622 6.154796,32.786352 6.087643,32.846964 5.885184,33.057425 5.735109,33.984212 5.21127,33.935606 4.983488,34.208264 5.03933,34.534875 5.531522,34.77358 5.620186,35.108239 6.158667,35.122164 6.017975,35.2556 5.743792,35.574788 6.093469,36.894636 5.127807,36.718576 5.113521,36.597195 5.051008,36.68126 4.849481,36.638412 3.897716,36.140299 3.897866,36.140007 3.878656,36.130016 3.989612,35.960104 4.843101,34.286521 4.681589,34.23132 3.898223,33.722187 3.919745,33.703682 3.827131,33.672263 3.800017,33.655064 4.350842,32.934731 4.848387,32.526955 4.823881,32.304569 4.915774,32.196976 4.958195,32.165196 4.898619,31.759741 4.868791,31.735668 4.893382,31.724105 4.868513,31.554842 4.322612,31.246792 4.031488,31.019373 4.396962,30.633308 4.700945,30.414415 4.686167,30.313842 4.722492,30.280816 4.455311,29.179959 5.057682,29.138056 5.376123,29.045636 4.839677,28.55721 4.662405,28.403212 5.104327,28.123637 5.393344,27.953794 5.164381,27.06165 5.765729,26.959134 5.936153,26.936232 5.624094,26.549629 5.419243,26.367514 5.846311,26.244996 6.130929,26.110607 5.89172,25.166504 6.164325,25.077769 6.066558,24.960905 5.988635,24.88453 6.641507,24.766934 7.216906,24.495784" slic3r:type="contour"/>
    <polygon style="fill: white" points="7.877553,23.275282 8.377425,23.703796 8.119675,23.791793 7.323506,24.301611 6.719077,23.847698 6.284226,23.486888 6.679009,23.4152 7.385172,22.97617" slic3r:type="contour"/>
    <polygon style="fill: white" points="22.202631,0.612668 22.409653,0.90449 22.434696,0.902877 22.485339,0.974922 22.553784,0.901145 22.587516,0.907957 22.996071,0.45593 23.18691,0.250719 23.436864,0.72131 23.617848,1.057507 23.636048,1.05868 23.666241,1.115904 23.759,1.041585 23.806134,1.057448 24.256347,0.675527 24.473918,0.500751 24.661266,1.000241 24.791961,1.350052 24.796872,1.35099 24.823754,1.42599 24.990464,1.331557 25.049583,1.359744 25.507569,1.0711 25.737721,0.939422 25.85867,1.473969 25.923001,1.776167 26.1057,1.863273 26.27061,1.803632 26.332621,1.842431 26.74316,1.661742 26.957482,1.582342 27.005028,2.166796 27.010283,2.266422 27.427522,2.527475 27.459705,2.546064 27.615365,2.515586 27.658432,2.550513 27.947396,2.470557 28.10336,2.43848 28.079246,2.8918 28.338366,3.101951 28.898613,3.514206 28.971056,3.509419 28.987569,3.526453 29.109177,3.508554 29.1774,3.50345 29.145342,3.689205 29.253857,3.801145 29.881144,4.37959 30.0671,4.709856 30.109402,4.772776 30.194958,4.775828 30.184661,4.807626 30.165893,4.8568 30.170482,4.863624 30.15991,4.902444 30.623546,5.88981 30.812283,6.214141 31.175888,6.256789 31.122124,6.387362 31.027607,6.584161 31.046421,6.616492 30.988037,6.783447 31.142585,7.138835 31.527251,7.83252 31.598574,7.840286 32.136774,7.934478 32.034418,8.148381 31.866597,8.444477 31.90237,8.508989 31.814026,8.73098 32.354658,9.56512 32.57343,9.599126 33.074566,9.706177 32.954142,9.939398 32.778795,10.219519 32.82838,10.296024 32.746241,10.494131 33.552306,11.400341 34.03528,11.517241 33.969475,11.648095 33.887079,11.776706 33.923516,11.81767 33.882578,11.922364 34.504004,12.341791 34.666696,13.306417 34.810948,13.346993 34.810614,13.375996 34.931184,13.409094 35.093556,13.467962 34.903752,14.067137 34.800446,14.259247 34.795103,14.723343 35.992744,15.563059 36.169091,15.664198 36.113737,15.859614 36.216364,15.897969 36.2761,15.927071 36.027615,16.627921 35.722531,17.188097 36.742751,18.066985 37.051736,18.311282 36.821549,18.661013 37.046067,18.770739 37.169732,18.837376 36.791436,19.410699 36.40232,19.925869 37.342695,21.149899 37.498771,21.367004 37.38266,21.487478 37.45974,21.536622 37.50214,21.566494 36.833776,22.056985 36.751404,22.142451 36.602832,22.329639 36.582131,22.304113 36.548724,22.337849 36.514169,22.2998 36.404316,22.383486 35.666415,21.939239 35.454068,21.754338 35.851196,21.402818 35.690667,21.204875 35.447764,20.943944 35.803351,20.717602 36.331208,19.986792 35.569224,19.586294 35.235976,19.388766 35.584815,18.910997 35.296143,18.706069 35.044308,18.522266 35.315432,18.078152 35.652806,17.340653 35.678584,17.228423 34.59666,16.775649 34.448803,16.721983 34.52927,16.563377 34.547794,16.503599 34.417976,16.438377 34.304235,16.363898 34.425091,15.566167 34.583284,14.823311 34.551456,14.81287 34.550141,14.803465 34.090756,14.657613 33.257699,14.24669 33.256507,14.246476 32.95014,13.005421 32.898008,12.511609 32.849954,12.498519 32.802316,12.390934 32.426629,12.279184 32.123044,12.250422 32.335586,11.980388 32.476865,11.653066 32.212625,10.756914 32.14421,10.74194 32.103594,10.674394 31.460646,10.511851 31.21016,10.495576 31.438612,10.192199 31.618616,9.807309 31.241636,8.99837 31.1822,8.988782 31.134367,8.92523 30.70703,8.841947 30.34271,8.829773 30.510881,8.575239 30.645932,8.276287 30.568471,8.173371 30.044788,7.342136 30.011022,7.339041 29.95239,7.275026 29.463374,7.280384 29.551614,7.119591 29.629943,6.922974 28.972769,6.205463 28.76832,5.945655 28.761344,5.945607 28.743846,5.930268 28.581603,5.943225 28.604046,5.890708 28.624557,5.825692 28.184991,5.440344 27.850513,4.81072 27.763074,4.819333 27.69641,4.832894 27.755064,4.631048 27.738336,4.599558 27.501576,4.299945 27.190022,3.844427 26.976395,3.894115 26.805546,3.950832 26.889547,3.411632 26.468417,3.026481 26.144801,3.156698 25.898718,3.275983 25.897962,2.776964 25.877733,2.493822 25.635398,2.34862 25.226274,2.595534 24.94983,2.779581 24.871854,2.328715 24.776136,1.888912 24.657989,1.845036 24.231905,2.200503 23.960242,2.438704 23.816541,2.020508 23.638139,1.535176 23.582152,1.524167 23.183986,1.964408 22.938764,2.241818 22.735559,1.849186 22.47241,1.347154 22.104294,1.875703 21.895064,2.179588 21.639871,1.814353 21.317841,1.348647 21.024538,1.913131 20.851362,2.241821 20.552705,1.91373 20.172873,1.487684 19.959972,2.093828 19.8299,2.438704 19.481566,2.152274 19.118666,1.839909 19.026163,1.874198 18.919939,2.440318 18.840296,2.77958 18.426084,2.536852 18.122462,2.341906 17.933341,2.45438 17.919824,2.979372 17.891408,3.275988 17.382914,3.0831 17.251964,3.023768 16.941222,3.30263 16.943566,3.342307 16.928389,3.360948 16.97661,3.749024 16.984578,3.950836 16.524779,3.856699 16.265247,4.175477 16.041816,4.552209 16.050792,4.601341 16.044337,4.61137 16.081475,4.75731 16.093716,4.832869 15.909812,4.820421 15.816446,4.965511 15.605084,5.440391 15.265819,5.698351 15.168018,5.800361 15.20852,5.943221 15.143009,5.947796 15.030722,5.943566 15.028776,5.945595 14.980407,5.947605 14.468751,6.441321 14.167059,6.834021 14.32674,7.280384 14.113625,7.317175 13.786279,7.329663 13.779064,7.339055 13.62271,7.360041 13.129354,8.151877 13.30058,8.458851 13.447401,8.829773 13.092275,8.926478 12.619218,8.970643 12.607916,8.988783 12.476183,9.017552 12.15847,9.677433 12.17102,9.703257 12.161462,9.716398 12.488666,10.259771 12.579981,10.495572 12.146108,10.654391 11.656989,10.718989 11.645935,10.741947 11.517015,10.780129 11.290002,11.456378 11.310544,11.506974 11.299867,11.512324 11.589281,12.001384 11.667066,12.250442 11.297034,12.419807 10.947623,12.476288 10.940155,12.498534 10.814748,12.545392 10.533758,14.246356 9.896127,14.5321 9.779397,14.557487 9.2412,14.779707 9.238634,14.812923 9.200704,14.827658 9.419276,16.038765 9.485863,16.363974 9.242772,16.488828 9.257895,16.553827 9.300619,16.63815 9.34133,16.72198 8.795693,16.974412 8.093429,17.235974 8.477758,17.94789 8.745797,18.522322 8.182199,18.923122 8.398193,19.218319 8.55415,19.388744 8.15149,19.584216 7.476858,19.97546 7.890741,20.349496 8.342371,20.943902 7.928246,21.446005 8.159093,21.64787 8.33606,21.754322 7.849337,22.007927 7.385947,22.383476 7.272724,22.299328 7.241404,22.33785 7.205483,22.308775 7.1873,22.32964 7.042915,22.177193 6.952478,22.103993 6.840151,21.977835 6.337403,21.604187 6.287978,21.566484 6.39904,21.497367 6.340088,21.435122 6.291346,21.367046 6.83088,20.735735 7.390503,19.924079 6.749846,19.007977 6.620396,18.837372 6.922561,18.691781 6.79771,18.495954 6.738407,18.31121 7.330909,17.755719 8.061345,17.192892 7.806245,16.748634 7.739705,16.421681 7.560901,16.010374 7.514036,15.926992 7.630363,15.884423 7.629188,15.878649 7.651093,15.86956 7.621745,15.772884 7.621008,15.664206 8.359282,15.038697 8.966736,14.711604 8.868462,14.159924 8.903768,13.900734 8.800813,13.643722 8.696563,13.467988 8.972958,13.392795 8.979197,13.346998 9.059009,13.325255 9.08151,13.030981 9.286186,12.341683 9.662031,11.96347 9.877148,11.840849 9.866579,11.817672 9.915844,11.746889 9.754834,11.517278 9.973071,11.473227 10.130797,11.438058 10.53068,10.863531 11.008273,10.396055 10.961777,10.296007 11.028834,10.168633 10.715588,9.706159 11.036353,9.658428 11.326021,9.604147 11.428556,9.409389 11.94528,8.64059 11.887744,8.508964 11.937529,8.402401 11.653347,7.934481 11.909286,7.909956 12.186737,7.86897 12.424823,7.359347 12.779927,6.71165 12.743712,6.616499 12.770556,6.56332 12.614239,6.256759 12.756582,6.25228 12.935863,6.235851 13.539446,5.040154 13.626684,4.887063 13.619688,4.863637 13.626313,4.852552 13.595203,4.775796 13.627844,4.777195 13.671734,4.776564 13.909143,4.379384 14.649915,3.671118 14.62964,3.567132 14.612726,3.503424 14.792744,3.534557 14.819063,3.509393 14.873345,3.513978 15.137301,3.302622 15.723968,2.857537 15.705265,2.591816 15.686766,2.438473 16.107771,2.56636 16.174681,2.515597 16.29752,2.541687 16.791994,2.235026 16.822554,1.807504 16.832646,1.582342 17.350536,1.824775 17.430626,1.856047 17.519496,1.803626 17.665211,1.858554 17.873921,1.759505 17.997986,1.199242 18.052404,0.93941 18.504899,1.235223 18.725162,1.364875 18.79965,1.331504 18.928187,1.405959 18.979796,1.388615 18.993304,1.351056 18.998514,1.350003 19.217802,0.764417 19.31622,0.500761 19.71754,0.848554 19.975547,1.05909 20.031116,1.041454 20.123459,1.116401 20.154078,1.058681 20.171076,1.05751 20.468957,0.499334 20.603216,0.250718 20.958339,0.648133 21.198418,0.908413 21.236264,0.901179 21.304359,0.975169 21.35543,0.902877 21.378638,0.904475 21.733456,0.399528 21.895064,0.17262" slic3r:type="contour"/>
    <polygon style="fill: white" points="37.013084,23.172416 37.505896,23.486874 37.09368,23.783603 36.466639,24.301612 35.998376,24.116792 35.4127,23.703796 35.694084,23.54119 36.404972,22.976184" slic3r:type="contour"/>
    <polygon style="fill: white" points="37.656799,24.816828 37.801492,24.884532 37.609779,25.12597 37.734155,25.163216 37.898412,25.16651 37.66856,25.645787 37.59178,26.026587 37.824175,26.115519 38.370892,26.367544 38.02674,26.835733 37.902965,26.957901 38.282812,27.019794 38.625744,27.061708 38.465436,27.533679 38.367666,27.949563 38.583036,28.08042 39.127728,28.403282 38.721504,28.779269 38.466904,29.00393 39.053319,29.078587 39.334804,29.179942 39.190188,29.903731 39.086195,30.300211 39.103944,30.313872 39.086906,30.511596 39.109352,30.531298 39.758636,31.019384 39.360644,31.210789 38.968531,31.492089 38.843278,32.188798 38.96622,32.30457 38.957377,32.576391 39.237153,32.87094 39.313235,32.886064 39.478795,33.125341 39.947199,33.618479 39.990092,33.65506 39.861735,33.678794 39.891796,33.72224 39.536543,33.929135 39.560175,34.005036 39.863632,33.98184 39.891972,36.107735 39.906404,36.125276 39.91242,36.130974 38.73908,36.681267 38.675164,36.618897 38.66232,36.718576 38.633113,36.577862 38.619584,36.56466 38.50844,36.371104 38.533392,36.192865 38.086519,35.780487 37.631459,35.122144 37.740864,35.06672 38.294452,34.946256 38.258608,34.773563 38.717192,34.535136 38.767726,34.518951 38.807861,34.232257 38.741355,34.17116 38.608292,33.970876 38.628259,33.847907 38.158724,33.439088 37.635319,32.786318 37.675407,32.76115 37.875525,32.698836 37.839132,32.65032 38.143272,32.461677 38.111393,32.383596 37.605851,32.496692 37.801433,30.852304 37.715959,30.768695 37.717465,30.761898 37.573719,30.658817 37.375155,30.51123 37.857971,30.127868 38.082652,29.113987 37.775235,28.931309 37.073111,28.814579 36.906176,28.774249 36.964655,28.508081 36.898199,28.473661 36.821252,28.44554 37.020542,28.253713 37.032763,28.198084 37.038284,28.192905 37.304055,27.158747 36.84158,26.9516 36.20808,26.790565 36.30954,26.691905 36.151036,26.644292 36.243055,26.277714 36.421584,25.636663 36.085132,25.475361 35.70354,25.330508 36.103224,25.017554 36.573384,24.495702" slic3r:type="contour"/>
    <polygon style="fill: white" points="39.171209,37.930917 39.474364,38.343932 39.63392,38.510215 39.088176,38.487928 38.921081,38.554809 38.7906,38.880264 38.567826,38.966792 38.468661,39.559077 38.623808,39.77022 38.581396,40.015262 38.899136,40.493896 39.220624,40.868668 38.793264,40.838736 38.385444,40.978318 38.094856,42.092405 38.213636,42.276656 38.153996,42.484937 38.300028,42.732116 38.681432,43.238184 38.307224,43.2051 37.909125,43.312594 37.489114,44.441935 37.585855,44.622144 37.513206,44.792311 37.606311,44.979051 37.970167,45.55824 37.607372,45.506512 37.16701,45.581944 36.660164,46.574708 36.73898,46.764912 36.659288,46.894898 36.760552,47.155292 37.052584,47.755236 36.672775,47.667672 36.150284,47.691359 35.615139,48.46093 35.672544,48.667472 35.595515,48.75536 35.709752,49.19216 35.896808,49.758764 35.485403,49.612919 34.86929,49.543853 34.351535,50.081233 34.379752,50.276244 34.31027,50.334359 34.398679,50.991915 34.487932,51.478376 34.044204,51.25854 33.385602,51.066861 32.907269,51.436073 32.911604,51.613912 32.849217,51.653058 32.865267,52.524983 32.886418,52.908928 32.421561,52.608807 31.759201,52.2981 31.327833,52.549499 31.314174,52.708388 31.255981,52.73604 31.163046,53.775319 31.145918,54.062619 30.678585,53.683384 30.048972,53.273956 29.655277,53.447813 29.629088,53.586392 29.572587,53.606661 29.358074,54.725731 29.321046,54.950772 28.874957,54.505143 28.309176,54.029889 27.920471,54.159299 27.885394,54.28156 27.837837,54.293471 27.529033,55.35944 27.469307,55.582667 27.069272,55.098032 26.578441,54.587263 26.131136,54.690691 26.093854,54.788908 26.061667,54.793664 25.701187,55.735328 25.607308,55.990236 25.257858,55.489736 24.840034,54.961758 24.308119,55.033778 24.274136,55.106724 24.262096,55.107308 23.882244,55.916539 23.74671,56.207556 23.441198,55.702284 23.083011,55.16079 22.490643,55.187017 22.065218,55.964203 21.895064,56.269003 21.619329,55.754539 21.301142,55.185664 20.71307,55.15966 20.219467,55.940352 20.043416,56.207536 19.784771,55.660987 19.527075,55.107217 19.515995,55.106727 19.479756,55.029854 18.957813,54.95933 18.346336,55.782555 18.18277,55.990208 17.946773,55.396939 17.72512,54.792771 17.696384,54.788888 17.655374,54.68592 17.217988,54.584897 16.469916,55.426799 16.320791,55.582652 16.121227,54.943819 15.948224,54.29162 15.904635,54.281552 15.882574,54.211331 15.868129,54.155389 15.484905,54.027655 14.623645,54.820551 14.46906,54.950751 14.323134,54.285031 14.21304,53.603723 14.16104,53.586392 14.146603,53.521035 14.134695,53.444125 13.745656,53.271571 12.846995,53.930696 12.644217,54.062628 12.565781,53.405752 12.527886,52.731441 12.475946,52.708404 12.464851,52.615927 12.461257,52.542627 12.04184,52.296522 11.18384,52.778163 10.903713,52.908939 10.892717,52.285303 10.930717,51.644537 10.878525,51.613912 10.876445,51.473907 10.88003,51.421241 10.429556,51.070273 9.66948,51.373719 9.302191,51.478343 9.352962,50.90304 9.463517,50.317624 9.410293,50.276156 9.429387,50.078232 9.434662,50.051896 8.968001,49.561371 8.336088,49.714571 7.893318,49.758756 7.997673,49.238692 8.171085,48.723701 8.117541,48.66742 8.173591,48.40835 7.714392,47.736025 7.228241,47.787372 6.737551,47.755228 6.883251,47.28376 7.102465,46.840089 7.051146,46.764951 7.13966,46.500816 6.719273,45.656505 6.316937,45.657356 5.819947,45.558232 5.999164,45.110735 6.250569,44.715152 6.204268,44.62216 6.323367,44.350831 5.983476,43.406968 5.562616,43.376672 5.108701,43.238184 5.329155,42.773496 5.618472,42.393369 5.576453,42.276684 5.724886,41.994302 5.492459,41.068828 4.917605,41.001724 4.569506,40.86868 4.856204,40.32726 5.20527,39.9253 5.166321,39.770215 5.305516,39.534784 5.344132,39.493735 5.263497,38.99486 4.999377,38.880256 5.017558,38.69078 4.312354,38.57974 4.156207,38.510192 4.555564,37.822236 5.000329,37.366699 4.964792,37.146836 5.047579,37.018932 5.140871,36.931688 6.226058,37.390764 6.250768,37.451076 6.35241,37.452016 6.328557,37.475756 6.28404,37.532287 6.41026,37.840368 6.583235,39.775161 6.621459,39.788928 6.692147,39.798964 6.593994,39.895514 6.59816,39.942108 6.578784,39.968897 6.648834,40.216695 6.970444,42.061734 7.045534,42.082416 7.163759,42.092544 7.007152,42.272321 7.019331,42.342192 6.99683,42.377255 7.143974,42.754984 7.555407,44.244804 7.653336,44.260972 7.791936,44.260832 7.624428,44.494731 7.644449,44.567228 7.628621,44.596419 7.835204,44.990811 8.347672,46.259846 8.452826,46.262756 8.592501,46.246508 8.447605,46.507315 8.473026,46.570264 8.465839,46.58711 8.70997,46.933767 9.349082,48.043803 9.448278,48.029699 9.5758,47.996096 9.473324,48.259593 9.50705,48.318169 9.759098,48.578416 10.567057,49.548411 10.656439,49.519388 10.762477,49.473496 10.707123,49.716567 10.729503,49.743435 10.979504,49.936219 11.970418,50.7987 12.04361,50.76164 12.12551,50.711616 12.106862,50.920898 12.346617,51.0609 13.502031,51.810901 13.561118,51.770047 13.625032,51.71882 13.630873,51.89562 13.845021,51.990543 15.102032,52.607295 15.156627,52.559048 15.214895,52.500288 15.239994,52.675624 15.466675,52.751367 16.715909,53.21328 16.778628,53.144599 16.84667,53.06182 16.899786,53.280398 17.198757,53.349715 18.351306,53.646232 18.426397,53.54628 18.508844,53.428767 18.60358,53.707125 18.996615,53.760399 20.01632,53.914216 20.100521,53.77968 20.193722,53.62784 20.335301,53.953216 20.795636,53.973584 21.715989,54.018728 21.800712,53.857531 21.895064,53.685247 22.07161,54.020645 22.534119,54.000212 23.446965,53.955262 23.51717,53.793275 23.596428,53.627839 23.778441,53.918876 24.1862,53.863743 25.176444,53.713083 25.224866,53.569743 25.281274,53.428772 25.44794,53.651137 25.778521,53.5746 26.872874,53.2904 26.873818,53.287404 26.882051,53.284649 26.908932,53.172523 26.943454,53.061824 27.084639,53.216856 27.342144,53.130687 28.535537,52.686717 28.536647,52.681608 28.543674,52.678476 28.556106,52.589279 28.575232,52.500288 28.698499,52.609452 28.914963,52.512948 30.143716,51.910145 30.1444,51.904168 30.152342,51.899487 30.154944,51.809448 30.16504,51.718844 30.300259,51.812314 30.52471,51.680035 31.663787,50.943806 31.663848,50.934336 31.674499,50.926013 31.664578,50.819896 31.664588,50.711612 31.837342,50.798761 32.101082,50.592664 33.060646,49.763214 33.058741,49.745716 33.072824,49.730893 33.043614,49.605068 33.027676,49.473496 33.249716,49.544689 33.551943,49.226552 34.297204,48.338502 34.289772,48.3065 34.306139,48.282596 34.252203,48.145367 34.214332,47.996088 34.477979,48.031624 34.78356,47.585327 35.337534,46.62902 35.317108,46.570296 35.333372,46.538087 35.257308,46.401928 35.197628,46.24654 35.486409,46.235015 35.758176,45.696811 36.181261,44.647223 36.145676,44.567216 36.159601,44.529865 36.072207,44.408075 35.998192,44.260832 36.278988,44.209627 36.484879,43.657356 36.81603,42.428921 36.770772,42.342255 36.780555,42.30597 36.699843,42.213355 36.626344,42.092604 36.856561,42.024066 36.979428,41.568352 37.228893,40.005959 37.191976,39.942124 37.19649,39.917684 37.146959,39.869043 37.097967,39.798948 37.227684,39.7488 37.273123,39.502788 37.379828,37.8407 37.559572,38.048207 37.562381,37.650889 37.437732,37.45204 37.459528,37.442692 37.563983,37.424278 37.56422,37.390719 38.465419,36.981852 38.64926,36.931692 38.791246,37.105181 39.823824,36.303112" slic3r:type="contour"/>
  </g></svg>