<svg width="43.790126" height="63.590156" xmlns="http://www.w3.org/2000/svg" xmlns:svg="http://www.w3.org/2000/svg" xmlns:xlink="http://www.w3.org/1999/xlink" xmlns:slic3r="http://slic3r.org/namespaces/slic3r"><g xmlns="http://www.w3.org/2000/svg" slic3r:z="1.84849999999999e-005" id="layer55">
    <polygon style="fill: white" points="21.966392,1.779927 22.104461,1.995351 22.132282,1.993788 22.157434,2.029992 22.363812,2.044947 22.663231,2.061799 22.709893,2.010151 22.740789,2.019007 22.975604,1.732003 23.039171,1.854565 23.15738,2.089611 23.172077,2.090439 23.203931,2.151763 23.342925,2.191604 23.66997,2.26404 23.742911,2.202274 23.764952,2.214748 24.07061,1.935621 24.134121,2.093443 24.244808,2.391361 24.24959,2.39242 24.290918,2.50479 24.634231,2.649963 24.685635,2.610615 25.186052,2.289206 25.248544,2.514961 25.398388,3.126135 25.43119,3.149567 25.500652,3.16509 25.596887,3.1831 25.894623,3.00798 26.333206,2.815014 26.393492,3.175976 26.443444,3.577722 26.522225,3.592961 26.537616,3.684724 26.849785,3.766182 26.938786,3.735259 26.982485,3.747801 27.327107,3.605549 27.540486,3.540854 27.568948,3.916114 27.764253,3.972166 28.188254,4.022656 28.314393,4.359368 28.416342,4.520216 28.762316,4.43581 28.774458,4.652337 28.754641,5.053967 28.76865,5.07607 28.76917,5.379029 28.835372,5.503416 29.237794,5.616636 29.877619,5.440701 30.005858,5.42028 30.011779,5.622653 30.150322,5.659536 30.217,5.597707 30.435967,6.266951 30.69828,6.673633 31.274496,6.384148 31.367852,6.824359 31.349353,7.128582 32.147867,7.317487 32.544654,7.052273 32.616234,7.311174 32.64356,7.478123 33.761148,7.702834 33.934284,8.544291 34.001891,8.916928 34.643383,9.018749 34.970052,8.742403 35.020272,9.000746 35.035115,9.084052 35.34044,9.109804 35.214748,9.268688 35.122103,9.390267 35.24694,9.808934 35.339911,10.161865 35.353065,10.200457 35.768376,10.2382 36.29352,10.282664 35.917956,10.71435 35.631309,11.06902 35.727803,11.391508 36.075926,11.42079 36.319727,11.133679 36.643172,10.783414 36.863244,11.368739 36.904044,11.490443 36.906423,11.490643 36.908699,11.496157 37.113528,11.509336 37.037607,11.609045 36.985262,11.681691 37.252904,12.330259 37.366966,12.644708 37.829512,12.661916 37.665387,12.881591 37.56485,13.026376 37.662467,13.21233 37.817598,13.558573 37.824756,13.558831 37.846684,13.59905 38.455304,13.617863 38.247488,13.894063 38.11703,14.098208 38.29326,14.473661 38.32072,14.475397 38.336528,14.510573 39.040012,14.56896 38.792128,14.876076 38.61338,15.144432 38.753277,15.495553 38.791052,15.500699 38.795755,15.516918 39.122711,15.578032 39.597112,15.664683 39.288127,16.008272 39.069214,16.28851 39.071496,16.294238 39.027847,16.341967 39.136905,16.74861 39.1746,16.757774 39.176483,16.772444 40.012668,17.022408 40.134508,17.059532 39.864248,17.320162 40.0878,17.361694 40.23842,17.412837 40.314428,18.488844 40.334971,18.80621 40.348979,18.812005 40.349063,18.829255 40.648988,18.968592 40.482372,19.102147 40.350951,19.214617 40.354244,19.887139 40.331936,20.780304 40.457439,20.853407 40.783687,21.157067 41.126135,21.365473 41.211148,21.415518 41.121748,21.471722 41.136232,21.485204 41.110767,21.506187 41.201644,21.538958 41.248252,21.591578 41.165787,23.030886 41.039087,23.745004 41.125776,23.810146 41.116599,23.952649 41.230988,24.042968 41.678068,24.377858 41.396739,24.567618 41.456152,24.697925 41.295983,24.84099 41.624976,25.13749 41.84998,25.707047 41.743952,26.638316 41.595046,27.067354 41.678616,27.13997 41.668515,27.239818 41.94296,27.42208 41.620461,27.714853 41.583466,28.080563 41.597272,28.149374 41.574705,28.167172 41.563576,28.277182 41.454269,28.606236 41.679984,29.46034 41.78077,29.902786 41.869747,29.963975 42.111116,30.1186 41.874558,30.314511 41.911324,30.475908 41.821879,30.547705 41.919151,31.198221 42.176809,32.485462 42.222079,32.517305 42.257324,32.539382 42.196623,32.584451 42.203284,32.617728 42.18952,32.629132 42.191432,32.819638 42.336388,34.475224 42.338906,34.773562 42.348363,34.779444 42.34029,34.78687 42.351972,35.003007 42.231526,36.85368 42.339895,36.935375 42.375932,36.958616 42.236905,37.045894 41.913559,38.333644 41.823346,38.761619 42.218327,39.074419 42.330116,39.1504 41.777925,39.474773 41.286618,40.716215 41.958343,41.283063 42.187899,41.450224 41.674491,41.72602 41.110644,42.072828 40.491492,41.543204 40.170675,41.217584 40.577276,40.980343 41.180684,40.69631 40.981139,39.559435 40.533788,39.202172 40.31436,38.994543 40.828063,38.663436 40.97134,38.588561 40.845252,37.80446 40.7862,37.208979 40.508587,37.000331 40.364212,36.869212 40.781551,36.568437 40.704423,36.046971 40.585713,34.95524 40.428943,34.841567 40.344364,34.764452 40.589604,34.559771 40.555719,34.204071 40.409862,32.72356 40.316772,32.657262 40.267548,32.60814 40.425377,32.443208 40.429104,32.119991 40.356553,30.473932 40.317958,30.43614 40.214515,30.363473 40.148376,30.279172 40.414456,29.852932 40.458308,29.819379 40.684656,28.610237 40.246717,27.876346 40.208708,27.84994 40.098736,27.628362 40.000571,27.463859 39.972988,27.43134 39.981231,27.392636 39.966552,27.373094 39.989909,27.335405 40.449887,25.254567 39.833232,24.82107 39.612744,24.749152 39.702679,24.279789 39.66178,24.226572 39.594179,24.183263 39.478763,24.075994 39.723749,23.80841 39.932254,22.197717 39.319003,22.07005 39.046116,22.05773 39.097737,21.458227 38.997375,21.410071 38.860099,21.334544 39.086249,21.141836 39.113336,19.797891 39.116768,19.553419 38.787595,19.422267 38.298304,19.221762 38.342976,19.183055 38.594277,18.963613 38.22388,18.97494 38.087929,17.68842 37.984304,17.665816 37.791343,17.623222 38.029632,17.378386 37.911212,16.904626 37.824271,16.543187 37.614847,16.520511 37.270304,16.478055 37.603712,16.061676 37.644315,16.009937 37.480905,15.588947 37.154335,15.576802 36.700395,15.542461 36.920568,15.220649 37.153533,14.895182 37.072245,14.723057 37.032676,14.719735 37.021131,14.694802 36.610024,14.68426 36.055228,14.644696 36.185247,14.444624 36.623263,13.835558 36.589729,13.763139 36.523592,13.757064 36.516563,13.738742 36.000576,13.705008 35.379892,13.648441 35.368856,13.715543 35.368855,13.715544 35.331928,13.64407 35.330139,13.643907 35.330043,13.643651 35.312763,13.642104 35.323897,13.626614 34.874267,12.466093 34.852468,12.463706 34.850025,12.456026 34.687756,12.440275 34.43876,12.413055 34.726661,12.06822 34.470198,11.26201 34.446476,11.259308 34.440567,11.239064 34.0757,11.195751 33.46414,11.120831 33.574243,10.992511 34.1757,10.331686 34.103168,10.083207 33.672164,10.50133 33.297124,10.931125 33.052982,9.911321 33.024014,9.906833 33.022051,9.896937 32.774034,9.854005 32.223162,9.772324 32.431296,9.513817 32.850007,9.029569 32.817279,8.864572 32.29999,9.184353 31.883337,9.498057 31.725798,8.756714 31.671009,8.502258 31.63385,8.497086 31.615109,8.414727 31.199984,8.305154 30.350118,8.18486 30.382738,8.051813 30.244946,8.1288 30.23858,8.092103 30.229846,7.972126 30.043078,7.980139 29.121089,6.883639 28.93943,6.926957 28.742594,6.966682 28.79842,6.499896 28.769408,6.465392 28.758478,6.152105 28.611512,5.91238 28.298749,5.82187 28.154679,5.858503 28.078644,5.836148 28.023286,5.85308 27.547792,6.011633 27.558836,5.836323 27.560852,5.683915 26.777095,5.453487 26.595076,5.156926 26.527419,5.182613 26.45141,5.212214 26.453461,4.925164 25.930455,4.354702 25.67031,4.501581 25.450216,4.613882 25.37325,4.18121 25.312174,3.741479 25.221388,3.701583 24.736687,4.081361 24.543622,4.20955 24.379284,3.805322 24.26595,3.378006 23.761487,3.879968 23.664896,3.964038 23.43108,3.548386 23.321942,3.273338 23.241651,3.267465 22.815975,3.781031 22.779696,3.822676 22.521797,3.422046 22.266745,3.409762 22.135045,3.429251 21.914479,3.749207 21.895064,3.77845 21.700464,3.506552 21.504786,3.516192 21.198837,3.487799 21.034314,3.775028 21.010432,3.822676 20.730272,3.466232 20.378051,3.486116 20.339648,3.478669 20.165907,3.850286 20.125236,3.964038 19.867376,3.670072 19.591299,3.418285 19.484372,3.424586 19.297308,3.989787 19.246504,4.209552 18.980757,3.970296 18.64259,3.732291 18.458717,3.81761 18.373766,4.353043 18.339888,4.613886 17.975563,4.396075 17.872747,4.341636 17.602564,4.636714 17.343526,4.918333 17.341856,5.118468 17.33872,5.212213 17.18998,5.156307 17.129902,5.251251 17.013045,5.453479 16.473576,5.600994 16.242493,5.671984 16.242318,6.011657 16.043825,5.952629 15.69424,5.840406 15.635326,5.858505 15.504135,5.825362 15.159351,5.922191 15.035649,6.116674 15.020722,6.465352 14.996665,6.495473 15.025939,6.751896 15.047544,6.966674 14.690786,6.878468 14.465389,7.16069 13.747031,7.980154 13.594556,8.033693 13.543477,8.029559 13.545179,8.128799 13.518431,8.1166 13.401886,8.055763 13.440006,8.18486 12.163022,8.458184 12.156277,8.497086 12.12337,8.503117 12.025887,8.96711 11.90679,9.498057 11.740833,9.399757 10.971315,8.869741 10.936193,9.044942 11.233835,9.412637 11.566972,9.772316 10.766715,9.903872 10.766143,9.906822 10.740359,9.91119 10.660577,10.250363 10.493018,10.931093 10.355595,10.798776 9.684481,10.091846 9.610947,10.343852 9.930853,10.717149 10.325941,11.12087 9.532977,11.215713 9.349996,11.237671 9.34368,11.25929 9.3265,11.260944 9.175879,11.738917 9.059441,12.093133 9.190388,12.250672 9.35134,12.413056 8.940842,12.453925 8.937627,12.463706 8.921546,12.465264 8.842206,12.67886 8.465524,13.62993 8.477366,13.642103 8.460269,13.6432 8.459989,13.643907 8.458953,13.643985 8.421264,13.715558 8.390804,13.649141 7.275796,13.733492 7.266535,13.757064 7.204779,13.76217 7.16061,13.857909 7.416653,14.250423 7.734925,14.644705 7.330435,14.657157 6.775524,14.681801 6.757426,14.719786 6.72339,14.722143 6.634057,14.911812 6.830933,15.198633 7.089712,15.542468 6.482963,15.566947 6.313857,15.575929 6.14833,16.00228 6.308021,16.202137 6.519852,16.478044 5.960319,16.53913 5.861639,16.930766 5.759993,17.361931 5.862271,17.467757 5.99878,17.62321 5.699647,17.6885 5.671413,17.938707 5.566251,18.974942 5.446599,18.942232 5.261945,18.929235 5.234322,18.995342 5.491824,19.22179 5.397743,19.259315 4.688852,19.544798 4.709433,20.248456 4.709869,21.163774 4.801439,21.239932 4.930025,21.334552 4.710001,21.44122 4.710003,21.446384 4.700179,21.452462 4.72197,21.645748 4.744009,22.057739 4.132866,22.219408 3.904819,22.237875 4.014452,22.893698 4.097472,23.932448 4.183732,24.010813 4.31137,24.076024 4.119083,24.202846 4.121677,24.235298 4.098118,24.256132 4.138328,24.42564 4.177411,24.749082 3.575769,25.293953 3.446131,25.343443 3.577188,25.777888 3.808582,27.366667 3.823545,27.373123 3.810708,27.382106 3.81711,27.43137 3.303239,28.714269 3.335645,28.827714 3.425561,30.096061 3.557497,30.237838 3.641749,30.279178 3.44802,30.381236 3.449188,30.429364 3.451129,30.456739 3.449876,30.457642 3.45779,30.783551 3.37971,32.499612 3.465801,32.575842 3.522574,32.608136 3.383101,32.698332 3.344412,33.103647 3.198432,34.594397 3.352893,34.712604 3.445765,34.76444 3.20002,34.933574 3.063028,35.911052 2.981514,36.592117 3.270048,36.788399 3.425921,36.869204 2.988197,37.185433 2.782967,38.602086 3.237267,38.881844 3.475768,38.994564 2.990925,39.368872 2.776353,39.560288 2.604181,40.698081 3.261158,41.066276 3.619465,41.217616 3.269416,41.506952 2.679423,42.072768 1.852034,41.607416 1.602231,41.450192 2.051597,41.050775 2.486815,40.723896 2.084883,39.9354 1.954282,39.462453 1.571605,39.227304 1.460008,39.15038 1.866406,38.809626 1.738269,38.407668 1.540162,37.044359 1.446866,36.983012 1.414191,36.958592 1.532324,36.863757 1.509229,36.725248 1.43814,35.002251 1.45193,34.787584 1.441734,34.779451 1.453756,34.773078 1.453669,34.476327 1.593964,32.623362 1.586831,32.617727 1.591693,32.586626 1.557859,32.560798 1.532802,32.539379 1.607835,32.483375 1.642894,32.259122 1.95452,30.531464 1.878806,30.475908 1.917177,30.324783 1.828222,30.250542 1.679013,30.118606 2.034142,29.864113 2.39516,28.44224 2.35578,28.261432 2.192854,28.149374 2.270768,27.871115 2.250377,27.777491 2.229176,27.75826 1.847164,27.422094 2.054761,27.278757 2.130737,27.228183 2.111524,27.139968 2.266121,26.989915 1.940148,25.706991 2.666688,24.983106 2.333975,24.697926 2.390189,24.611094 2.292436,24.539969 2.112058,24.377866 2.501474,24.046479 2.680757,23.913914 2.664347,23.810162 2.804591,23.693108 2.541876,21.59158 2.719814,21.541733 2.653895,21.485203 2.65943,21.480864 2.578979,21.415518 3.115309,21.069174 3.383889,20.912823 3.408779,20.893307 3.40367,20.824948 3.471965,20.78735 3.447694,19.233294 3.141135,18.968589 3.327867,18.882164 3.441386,18.829408 3.441114,18.812022 3.45659,18.80569 3.551693,17.412892 3.939752,17.34579 3.719788,17.126014 3.655616,17.059564 4.22225,16.895116 4.613142,16.775646 4.615479,16.75775 4.661159,16.746401 4.763885,16.367725 4.424474,15.962004 4.193015,15.664682 4.663648,15.573926 4.995615,15.513505 4.999089,15.500699 5.059153,15.490652 5.178333,15.195708 5.049256,15.019522 4.750112,14.56896 5.169275,14.516685 5.462182,14.493243 5.469409,14.475358 5.531064,14.468184 5.679128,14.158168 5.334836,13.617847 5.705291,13.585028 5.95597,13.578519 5.965388,13.558799 6.010831,13.554447 6.237018,13.060499 5.960602,12.661933 6.248135,12.637589 6.433408,12.631624 6.439514,12.618289 6.45027,12.617192 6.680136,12.038688 6.808637,11.692816 6.676579,11.50938 6.805718,11.498671 6.882532,11.493921 6.883737,11.490677 6.892114,11.489754 7.14698,10.783414 7.410025,11.11505 7.679613,11.409685 8.071498,11.384249 8.164013,11.085102 7.617846,10.432774 7.496647,10.282664 8.116545,10.214329 8.441156,10.188968 8.443193,10.18238 8.46007,10.179835 8.672329,9.402868 8.449675,9.109823 8.67177,9.084566 8.758477,9.078075 8.820063,8.742436 8.990007,8.898335 9.116673,9.006249 9.380574,8.95155 9.798534,8.895469 9.80924,8.850556 10.024432,7.726383 10.028764,7.703383 10.898325,7.465795 11.182676,7.426063 11.245472,7.052273 11.432625,7.203373 11.546285,7.281156 11.831273,7.170012 12.540251,7.059842 12.571259,6.843393 12.515644,6.384135 12.82114,6.5774 12.98296,6.66136 13.573127,5.597708 13.803304,5.569307 13.801721,5.496858 13.784272,5.420282 14.082571,5.53485 14.130225,5.52897 14.1951,5.549895 14.934846,5.434584 15.025934,5.228694 15.02146,5.076089 15.082651,4.965028 15.083937,4.917789 15.027834,4.435787 15.162293,4.493002 15.318953,4.53614 15.601868,4.02265 16.245563,3.874616 16.25456,3.715973 16.249671,3.540822 16.67933,3.743489 16.734331,3.76221 16.851466,3.735272 16.880167,3.746411 17.261635,3.653702 17.267906,3.592968 17.362369,3.567751 17.418282,3.207736 17.456932,2.815012 17.70082,2.973591 18.124133,3.18158 18.128203,3.176715 18.221411,3.227125 18.230357,3.176154 18.265269,3.168314 18.411843,3.059225 18.43598,2.954495 18.449112,2.9477 18.492129,2.788481 18.604052,2.289206 18.760372,2.413586 19.029947,2.599195 19.051668,2.583029 19.096525,2.613336 19.527961,2.426827 19.540538,2.392335 19.562468,2.386303 19.719516,1.935623 19.829128,2.042938 20.014319,2.216576 20.047248,2.202341 20.09196,2.240699 20.288404,2.186679 20.604731,2.116151 20.618012,2.09051 20.639379,2.08897 20.814498,1.732012 20.897088,1.833715 21.047023,2.017538 21.080216,2.010138 21.120057,2.054333 21.350861,2.037702 21.638616,2.021531 21.657844,1.993788 21.687842,1.995961 21.895064,1.669877" slic3r:type="contour"/>
    <polygon style="fill: black" points="35.592324,12.993826 35.500813,13.260444 35.577733,13.306747 36.120638,12.611798 36.054459,12.604626 36.045729,12.580748 35.857377,12.563979" slic3r:type="hole"/>
    <polygon style="fill: black" points="7.745129,12.579255 7.735703,12.604592 7.664553,12.611159 8.058711,13.171746 8.137838,13.261019 8.210237,13.212589 7.894183,12.564812" slic3r:type="hole"/>
    <polygon style="fill: white" points="41.0563,43.172344 41.059316,43.171484 41.071644,43.186529 41.527148,43.607612 41.921132,43.93102 41.542188,44.112339 40.848946,44.494625 40.668197,45.557796 40.920548,45.917104 40.892133,46.031323 40.912279,46.053199 41.4833,46.630204 41.229652,46.693943 40.624431,46.970618 40.249333,48.068979 40.4108,48.34744 40.335454,48.541542 40.380516,48.61546 40.862704,49.250508 40.544771,49.302872 39.895093,49.528739 39.545879,50.241159 39.66946,50.511596 39.583171,50.674176 39.710695,50.946123 40.080744,51.564952 39.714923,51.565407 38.958174,51.71409 38.661226,52.189163 38.750796,52.459131 38.672936,52.56261 38.811739,52.990443 39.070704,53.61026 38.683212,53.547472 37.83845,53.571567 37.474956,54.002716 37.547044,54.020608 37.578296,54.176152 37.526552,54.223188 37.624192,54.77502 37.769536,55.393528 37.375908,55.26836 36.542775,55.138356 36.525199,55.068406 36.360432,55.206108 36.360432,55.206107 36.488797,54.923532 36.406767,54.597075 36.265511,53.763715 36.346079,53.779483 36.942601,53.924548 36.951532,53.904888 37.302919,53.970405 37.602471,53.00918 37.365544,52.204564 37.431928,52.20422 37.841069,52.243552 37.851228,52.210952 38.305014,52.207394 38.504939,51.058751 38.239244,50.404388 38.301268,50.392212 38.623254,50.378986 38.630052,50.339927 39.09642,50.252266 39.193089,48.832885 38.938836,48.335856 38.990472,48.317187 39.231036,48.275724 39.233392,48.241132 39.731761,48.068586 39.877249,46.592429 39.492772,46.049016 39.564271,46.01964 39.944958,45.90543 39.946759,45.887152 40.513937,45.626254 40.759812,44.47217 40.354884,44.098608 39.90678,43.598968 40.140052,43.475667 40.990928,43.111912" slic3r:type="contour"/>
    <polygon style="fill: white" points="34.982275,55.165023 35.980492,55.555201 35.983215,55.551091 36.0753,55.584708 36.087768,55.589624 36.089716,55.616031 36.058469,55.63673 36.086804,56.336183 36.133448,56.924648 35.727904,56.740608 34.9445,56.473728 34.89794,55.89764 34.86522,55.121188" slic3r:type="contour"/>
    <polygon style="fill: white" points="33.373899,56.369287 34.346136,56.880688 34.286792,57.653268 34.260676,58.203379 33.850311,57.964407 33.130808,57.603852 33.163549,57.003856 33.216208,56.286792" slic3r:type="contour"/>
    <polygon style="fill: white" points="31.580714,57.37586 32.455927,57.952248 32.315584,58.727432 32.235532,59.246652 31.831694,58.959768 31.172068,58.532992 31.27292,57.924871 31.39449,57.254192" slic3r:type="contour"/>
    <polygon style="fill: white" points="29.677998,58.172192 30.475526,58.80722 30.267249,59.562092 30.142676,60.06886 29.760428,59.746648 29.145798,59.264032 29.300273,58.6695 29.484518,58.022892" slic3r:type="contour"/>
    <polygon style="fill: white" points="27.749185,58.749375 28.498088,59.458056 28.240018,60.162163 28.063386,60.682312 27.722689,60.342463 27.134201,59.797492 27.325679,59.2437 27.577758,58.594347" slic3r:type="contour"/>
    <polygon style="fill: white" points="25.816134,59.128288 26.526874,59.920328 26.232811,60.562236 25.99534,61.102588 25.700572,60.756924 25.138552,60.14296 25.359774,59.639052 25.68008,58.983012" slic3r:type="contour"/>
    <polygon style="fill: white" points="23.890351,59.334315 24.561742,60.207236 24.24079,60.790987 23.939596,61.342756 23.685444,60.995036 23.158438,60.315487 23.406197,59.857812 23.787862,59.20392" slic3r:type="contour"/>
    <polygon style="fill: white" points="3.354209,43.395448 3.883342,43.598995 3.700449,43.761591 3.079194,44.414554 3.39041,45.69983 3.84332,45.887152 3.857558,45.931665 4.297349,46.048996 4.241138,46.099224 4.006675,46.397875 4.397341,47.61928 4.369153,48.183683 4.55665,48.241096 4.578225,48.306615 4.851289,48.335848 4.813353,48.387072 4.68069,48.617765 5.069439,49.798271 4.966318,50.308963 5.160076,50.339928 5.194709,50.412065 5.550884,50.404384 5.513315,50.467363 5.36974,50.776643 5.763327,51.596456 5.698262,52.213077 5.938988,52.210944 5.974395,52.267706 6.424567,52.204532 6.394406,52.274096 6.247915,52.706189 6.505239,53.118708 6.572564,53.956595 6.838663,53.90488 6.862198,53.938507 7.524621,53.763704 7.501721,53.853143 7.313295,54.805297 7.42982,55.206251 7.26203,55.064348 7.247386,55.138348 6.589888,55.311204 6.020577,55.39352 6.090036,54.92858 6.256539,54.213986 6.211827,54.176172 6.228587,54.076496 6.243088,54.020628 6.321907,54.00531 5.961574,53.57093 5.296933,53.637252 4.719432,53.61028 4.842944,53.170508 5.105002,52.538334 5.039308,52.45914 5.083471,52.30218 5.135781,52.179383 4.861484,51.728725 4.295932,51.69506 3.709392,51.564972 3.870253,51.174648 4.19271,50.629962 4.120666,50.511596 4.203149,50.301292 4.254352,50.214111 3.952663,49.57051 3.554334,49.48596 2.927424,49.250524 3.098809,48.938675 3.44201,48.481123 3.379335,48.347416 3.51743,48.073928 3.556864,48.021103 3.234969,47.035775 2.996475,46.963291 2.306848,46.630232 2.490295,46.425883 2.899664,46.009396 2.869535,45.917168 3.018261,45.678424 3.132278,45.551497 2.949997,44.501071 2.328052,44.189143 1.868995,43.93102 2.184518,43.627348 2.7992,43.111912" slic3r:type="contour"/>
    <polygon style="fill: white" points="8.913408,55.259511 8.845606,56.47376 8.186694,56.747887 7.656667,56.924648 7.667845,56.435448 7.729929,55.63449 7.700609,55.616176 7.701517,55.599127 7.702576,55.589544 7.807911,55.550724 7.81179,55.555501 8.220363,55.401584 8.92493,55.1212" slic3r:type="contour"/>
    <polygon style="fill: white" points="10.584158,56.479483 10.659266,57.603816 10.008818,57.965576 9.529451,58.20338 9.484147,57.696579 9.443969,56.88078 9.937381,56.622436 10.573911,56.286812" slic3r:type="contour"/>
    <polygon style="fill: white" points="12.433689,57.485336 12.618018,58.533048 11.990231,58.966643 11.554597,59.246656 11.456092,58.733312 11.334198,57.952248 11.825556,57.630867 12.395652,57.2542" slic3r:type="contour"/>
    <polygon style="fill: white" points="14.367651,58.263859 14.644329,59.264032 14.056901,59.748931 13.647451,60.06886 13.502814,59.565464 13.3146,58.80722 13.789932,58.438915 14.305607,58.022892" slic3r:type="contour"/>
    <polygon style="fill: white" points="16.286152,58.810464 16.655924,59.797492 16.13208,60.308767 15.72674,60.68232 15.5501,60.213071 15.292034,59.458132 15.726813,59.06266 16.212367,58.594356" slic3r:type="contour"/>
    <polygon style="fill: white" points="18.187319,59.161071 18.65154,60.143076 18.196866,60.665295 17.794754,61.10258 17.597033,60.677235 17.263256,59.92028 17.644118,59.511419 18.11008,58.983004" slic3r:type="contour"/>
    <polygon style="fill: white" points="20.07904,59.346928 20.631698,60.315428 20.238866,60.843747 19.850531,61.342784 19.63879,60.958596 19.228396,60.207199 19.554316,59.791419 20.002265,59.203908" slic3r:type="contour"/>
    <polygon style="fill: white" points="21.975994,59.39634 22.599538,60.332072 22.252049,60.875268 21.895064,61.417648 21.669486,61.061328 21.190568,60.33212 21.469279,59.906068 21.895064,59.272284" slic3r:type="contour"/>
  </g></svg>