<svg width="43.790126" height="63.590156" xmlns="http://www.w3.org/2000/svg" xmlns:svg="http://www.w3.org/2000/svg" xmlns:xlink="http://www.w3.org/1999/xlink" xmlns:slic3r="http://slic3r.org/namespaces/slic3r"><g xmlns="http://www.w3.org/2000/svg" slic3r:z="2.34349999999999e-005" id="layer70">
    <polygon style="fill: white" points="26.758057,4.587549 26.792494,4.590046 27.372653,4.647549 27.419086,4.622625 27.442425,4.626085 27.525999,4.569661 27.584092,4.539064 27.617406,4.652025 27.659832,4.658314 27.813882,4.65686 27.974822,5.102498 28.100321,5.282967 28.574852,5.049529 28.646706,5.347087 28.719786,5.953149 28.844724,5.969685 28.982403,5.88454 29.036258,5.891832 29.358837,5.662468 29.608824,5.52052 29.748209,5.988225 30.081443,6.033343 30.615334,6.009474 30.6521,5.982143 30.661317,5.983502 30.709788,5.943378 30.748864,5.91541 30.78025,6.001042 30.860342,6.012853 31.206667,6.031 31.674832,6.320748 31.86607,6.408472 32.054804,6.251957 32.09379,6.357169 32.157197,6.542016 32.176412,6.550831 32.183887,6.569581 32.660075,6.763788 33.093802,6.932451 33.469802,6.634013 33.529425,6.825608 33.624566,7.138848 33.662427,7.153571 33.67113,7.178841 33.79404,7.231117 34.318884,7.474955 34.398568,7.425781 34.428897,7.445651 34.479099,7.414964 34.900088,7.144418 34.949028,7.398203 35.025899,7.803426 35.076216,7.826804 35.089226,7.887316 35.441679,8.139777 35.64668,8.067354 35.680947,8.109123 35.828324,8.055147 36.26012,7.887306 36.262412,8.221539 36.261105,8.680974 36.286172,8.693262 36.284424,8.743433 36.317524,8.767143 36.318025,8.836057 36.503634,8.98063 36.594916,8.968407 36.6142,9.003357 36.667004,8.994971 36.689,9.019886 36.995523,8.974273 37.384371,8.915065 37.292183,9.35697 37.248229,9.55298 37.273524,9.572201 37.252935,9.658652 37.577988,10.026838 37.68696,10.028453 37.70703,10.059742 37.944167,10.060074 38.256104,10.061955 38.066019,10.558517 38.081412,10.575159 38.064062,10.616338 38.34022,11.046858 38.398907,11.132347 38.494544,11.145367 38.51243,11.181803 38.688379,11.199326 38.930972,11.224505 38.730163,11.614879 38.738176,11.626551 38.734164,11.633499 38.919172,12.010381 39.028622,12.214594 39.106428,12.23048 39.122128,12.269663 39.258964,12.29005 39.458076,12.318575 39.26867,12.635398 39.399336,12.961512 39.4986,13.188011 39.57592,13.208663 39.588646,13.251086 39.712796,13.276702 39.901044,13.312447 39.69681,13.611612 39.788016,13.915618 39.871127,14.172194 39.95126,14.202995 39.96087,14.255773 40.080599,14.292732 40.26554,14.346534 40.027902,14.623919 40.082531,14.923948 40.149585,15.281154 40.240819,15.334487 40.239416,15.389987 40.352367,15.446617 40.523268,15.52511 40.229868,15.767688 40.222867,16.044585 40.188987,16.468267 40.25056,16.527742 40.220868,16.616919 40.394275,16.799705 40.55216,16.929768 40.05062,17.12824 39.994284,17.297443 39.881289,17.586676 39.88548,17.593461 39.852052,17.669691 40.022088,17.969105 40.163748,18.312134 39.568544,18.316198 39.530523,18.402898 39.412516,18.680082 39.557396,18.941601 39.654324,19.327446 39.207976,19.296528 39.108876,19.773439 39.205044,19.913586 39.268396,20.160416 39.088299,20.180168 39.141568,20.560423 38.90532,20.200236 38.664924,20.2266 38.544897,20.421285 38.567499,20.538645 38.594955,20.619642 38.873787,20.826277 39.067872,21.059556 38.858696,21.222291 38.803181,21.254245 38.883096,21.422114 39.130236,21.840372 38.934356,22.168683 38.821692,22.64442 38.88068,22.677732 38.868679,22.748578 38.930459,22.781459 39.355088,22.971604 39.137335,23.18985 38.906168,23.484836 38.932363,23.52258 38.824921,23.686179 39.339727,24.106181 39.887676,24.781687 39.903748,25.2251 39.883297,25.484643 39.936667,25.512749 39.942851,25.586202 40.202528,25.688 40.092103,25.790712 39.976519,25.986136 40.039752,26.737263 39.934484,27.766967 40.470944,28.010188 40.997234,28.611291 41.257539,28.768293 41.351936,28.809526 41.251004,28.901135 41.290644,28.94641 41.270321,28.982873 41.377428,29.030676 41.463012,29.132306 41.541596,30.513532 41.389877,31.279481 41.589816,31.431054 41.571441,31.672831 42.1079,32.15414 42.451584,32.393634 42.109286,32.683641 42.253404,32.86835 42.197239,32.95658 42.470644,33.107302 42.648752,33.351169 42.467148,34.380563 42.120402,35.062042 42.303839,35.294812 42.222255,35.512563 42.909379,36.469819 43.094012,36.681536 42.912487,36.822743 42.979827,36.919903 42.96144,36.942749 43.065888,37.014872 43.120484,37.087503 42.650435,38.072692 42.175512,38.618692 41.405571,37.847408 41.122932,37.689516 41.545223,37.142023 41.480268,37.03012 41.529703,36.911919 41.283764,36.680472 41.029836,36.253676 41.248608,35.846276 41.59076,35.509099 41.463864,35.396976 41.64179,34.985133 41.395711,34.765404 40.795248,34.483968 41.224059,33.490028 41.269542,33.352445 41.098851,33.148983 41.122554,32.998331 40.764747,32.785077 40.355703,32.358472 40.478759,32.08507 40.715478,31.825964 40.604708,31.738308 40.755845,31.369411 40.695244,31.321466 39.933556,30.96367 40.114797,29.682874 39.895588,29.504438 39.895038,29.417094 39.618276,29.30159 39.277948,29.063814 39.446207,28.682834 39.756009,28.306057 39.619084,28.198152 39.736048,27.942501 39.806308,27.851995 38.69894,26.833724 38.391348,26.649347 38.402113,26.189939 38.341388,26.152524 38.341387,26.134015 38.278995,26.109087 38.190808,26.060102 38.341374,25.791661 38.341303,23.908389 38.129128,23.784336 38.133328,23.722194 37.840563,23.5988 37.41134,23.37466 37.577279,23.134302 37.746711,22.934399 37.70326,22.868776 37.7559,22.809109 37.360315,21.746241 37.113564,21.109098 37.029868,21.05868 37.052744,21.033761 37.071671,21.015513 37.046292,20.599448 37.478405,19.650642 37.288615,19.474023 37.159703,19.343376 37.709832,19.142487 37.871343,18.787852 38.033373,18.678609 37.734043,18.319519 37.527596,18.058286 38.089696,17.965633 38.393189,17.910427 38.501967,17.732005 38.208519,17.383813 37.940768,17.072666 38.45922,17.01376 38.747959,16.967486 38.820329,16.795327 38.574835,16.579439 38.225555,16.315274 38.661384,16.216319 38.88189,16.136979 38.886577,15.887122 38.719499,15.786045 38.280624,15.570942 38.591531,15.422287 38.765235,15.300208 38.686064,14.949352 38.160348,14.77904 38.36618,14.625912 38.491492,14.493803 38.45916,14.424164 38.336437,14.070422 37.916764,13.979406 38.054967,13.841114 38.151188,13.710137 37.998315,13.427683 37.882369,13.166632 37.560672,13.116696 37.651236,13.003518 37.722828,12.888606 37.409715,12.347823 37.317823,12.171781 37.11842,12.152713 37.167011,12.075252 37.206394,12.002024 36.694963,11.2593 36.650275,11.191548 36.576208,11.192187 36.602376,11.131218 36.138475,10.607069 35.97689,10.296197 35.932104,10.302223 35.908068,10.304808 35.926745,10.21356 35.831455,10.091844 35.357951,9.469465 35.187287,9.531841 35.095952,9.563197 35.098105,9.199023 34.608367,8.806195 34.524423,8.734121 34.222463,8.910755 34.0697,9.004176 34.003971,8.605811 33.944219,8.29367 33.642167,8.110262 33.502462,8.06977 33.072737,8.381281 32.852526,8.560683 32.766822,8.240699 32.65696,7.898192 32.04891,7.782946 32.038152,7.79158 31.992297,7.787025 31.830822,7.913529 31.527238,8.195077 31.454742,7.965459 31.363113,7.724545 30.978534,7.686355 30.475459,7.61824 30.44062,7.643557 30.383516,7.637843 30.164054,7.838342 30.129516,7.723361 30.087884,7.608262 29.239172,7.523343 28.981296,7.318093 28.907934,7.363427 28.865746,7.394929 28.827788,7.195911 28.795154,7.169937 28.73856,6.980023 28.364361,6.492127 27.945397,6.71441 27.70033,6.883666 27.664318,6.492851 27.596407,6.169483 27.252177,6.132003 27.219195,6.151233 27.08168,6.164311 26.750068,6.393817 26.752452,6.258497 26.738432,6.196952 26.591514,6.210925 26.599806,6.228277 26.53178,6.23182 26.513054,6.374398 26.25682,6.503432 26.297582,6.685949 26.198659,6.678416 26.047643,6.656595 25.968156,6.713188 25.787906,6.718335 25.743287,6.742396 25.703891,6.761885 25.664206,7.26069 25.48148,7.189699 25.156153,7.03283 25.021792,7.099294 24.959185,7.080469 24.772496,7.582691 24.575521,7.412243 24.198959,7.064727 24.095109,7.245791 23.845782,7.708656 23.662365,7.487099 23.315813,7.061571 23.155797,7.306586 22.877846,7.747562 22.709067,7.509286 22.373952,7.036095 22.188735,7.311426 21.895064,7.748687 21.733746,7.508958 21.416077,7.036274 21.21474,7.320499 20.912269,7.747568 20.752965,7.505254 20.469996,7.062703 20.274768,7.299388 19.944352,7.708664 19.803325,7.46564 19.578813,7.059305 19.412706,7.204896 19.01763,7.582693 18.921909,7.353638 18.817532,7.083823 18.768418,7.099243 18.594219,7.008279 18.125922,7.260691 18.105079,7.078587 18.074291,6.739141 18.032215,6.717932 17.822002,6.713191 17.712919,6.64538 17.492546,6.685951 17.514354,6.602451 17.530792,6.532159 17.277106,6.374455 17.242255,6.231992 17.19032,6.228275 17.242027,6.12074 17.109126,6.126775 17.084827,6.220723 17.040058,6.39382 16.85694,6.318234 16.578118,6.150895 16.570916,6.151222 16.447891,6.083839 16.233738,6.115606 16.175817,6.509936 16.089796,6.883667 15.651682,6.672799 15.369739,6.495617 15.133361,6.77425 15.104512,6.820675 14.994999,7.169901 14.974589,7.185117 14.940777,7.336578 14.924404,7.394902 14.793681,7.319995 14.732924,7.365292 14.550974,7.523315 13.874446,7.572261 13.718501,7.593426 13.626097,7.838316 13.510504,7.759823 13.369465,7.640797 13.349496,7.643507 13.281813,7.59752 12.887131,7.627453 12.460616,7.689119 12.434432,7.764241 12.262871,8.195096 12.036604,8.032499 11.757531,7.790771 11.751925,7.791581 11.709569,7.759041 11.154726,7.866834 11.037113,8.264211 10.937631,8.560664 10.626548,8.349899 10.260549,8.065751 10.014728,8.137527 9.86406,8.224917 9.757983,8.815409 9.720427,9.00416 9.338149,8.78687 9.230371,8.722196 8.845217,9.025293 8.690614,9.166661 8.693017,9.461076 8.694144,9.563199 8.42887,9.462311 8.266811,9.667703 7.862235,10.211298 7.876673,10.279957 7.882093,10.304813 7.811467,10.294061 7.780156,10.350358 7.652027,10.606602 7.225208,11.08898 7.188913,11.129918 7.213904,11.192196 7.177256,11.192678 7.136756,11.192507 6.659235,11.878757 6.58673,11.989016 6.671714,12.152703 6.574516,12.169108 6.453264,12.182444 6.157817,12.680216 6.070749,12.847609 6.229461,13.11665 6.072327,13.161015 5.885764,13.194291 5.851597,13.204034 5.727162,13.423884 5.633658,13.634292 5.873353,13.97941 5.660624,14.059028 5.391498,14.124026 5.363431,14.134255 5.275064,14.388081 5.629783,14.779004 5.359449,14.916095 5.0175,15.03479 4.980134,15.200021 5.073415,15.255004 5.509496,15.570963 5.178512,15.802172 4.850522,15.969058 4.851783,16.073736 5.116364,16.15133 5.564577,16.315307 5.20956,16.665922 4.959345,16.857657 4.995355,16.94643 5.445789,17.008069 5.849355,17.072694 5.509509,17.484011 5.268991,17.763331 5.349103,17.897525 5.964676,18.004113 6.262547,18.058282 5.906621,18.461794 5.808207,18.586709 6.061261,18.807974 6.232861,19.19704 6.477522,19.28686 6.630422,19.34335 6.424476,19.519026 6.524805,19.664032 6.743834,20.599442 6.723644,20.949561 6.718763,21.019423 6.760257,21.058682 6.729,21.074111 6.686104,21.09864 6.283353,22.3233 6.062788,22.843626 6.086877,22.868826 6.03042,22.979795 6.37877,23.374662 6.058767,23.503819 5.667697,23.691369 5.661018,23.784334 5.516237,23.85704 5.618279,24.714938 5.478221,25.902415 5.524171,25.972955 5.599296,26.060154 5.452981,26.116417 5.448716,26.152573 5.418567,26.167921 5.435388,26.328051 5.398763,26.649384 4.726204,27.47883 3.990637,27.887948 4.17105,28.198154 4.003724,28.379461 4.224667,28.76255 4.512173,29.063828 3.915634,29.309444 3.894521,29.50444 3.76685,29.586695 3.872976,30.104855 3.856619,30.963538 3.525535,31.304412 3.062311,31.524612 3.185334,31.73835 2.99674,31.93715 3.43439,32.358596 2.952118,32.651452 2.67396,32.875565 2.691265,33.148986 2.582511,33.250514 2.83299,33.77872 2.994859,34.484028 2.694958,34.835431 2.154525,35.115372 2.326241,35.397024 2.151153,35.594709 2.344854,35.866375 2.760296,36.253636 2.228242,36.781266 2.30983,37.030192 2.271084,37.082844 2.504122,37.376567 2.667201,37.689648 2.231882,38.23076 1.614454,38.618452 0.752189,37.18446 0.669639,37.08734 0.845432,36.975005 0.810264,36.919796 0.843346,36.88199 0.75263,36.800575 0.696111,36.681472 1.153126,35.87038 1.558392,35.437285 1.486269,35.294812 1.690005,34.957789 1.35247,33.816784 1.141382,33.35118 1.646967,33.097983 1.536703,32.868372 1.602708,32.804374 1.428869,32.621903 1.33854,32.393672 1.820416,31.852739 2.229606,31.577338 2.200257,31.431116 2.467353,31.171204 2.378383,29.559272 2.326964,29.132749 2.539269,29.042884 2.499574,28.94659 2.515316,28.933131 2.462226,28.871588 2.4382,28.80949 3.059728,28.333973 3.384822,28.189706 3.60638,28.000274 3.604961,27.967746 3.749583,27.852552 3.806582,27.829101 3.872947,27.77236 3.860097,26.280513 3.839723,26.256854 3.587586,25.688002 3.722604,25.594743 3.853731,25.541307 3.853485,25.512734 3.927663,25.462653 3.902485,24.781556 4.57835,24.184348 4.983505,23.768811 4.845422,23.498432 4.606122,23.233705 4.435039,22.971594 4.645443,22.843811 4.916216,22.714583 4.909435,22.677742 4.916192,22.673883 4.659882,21.840406 4.998642,21.18063 4.886107,21.103746 4.722246,21.059564 4.862552,20.986691 5.028885,20.838219 4.648562,20.560476 4.665704,20.080593 4.521718,20.160415 4.670682,19.94126 4.674924,19.822526 4.578017,19.507561 4.501753,19.185302 4.390408,19.193353 4.135809,19.327461 4.410684,18.800487 4.392805,18.724941 4.202149,18.290201 4.175081,18.226799 3.934537,18.226302 3.62636,18.312104 3.955223,17.711845 3.904637,17.59336 3.927495,17.561086 3.820654,17.239372 3.766774,17.102946 3.466774,16.987334 3.237967,16.929768 3.56468,16.591238 3.539595,16.527722 3.626403,16.444178 3.61822,16.132456 3.589393,15.798756 3.42385,15.661138 3.266856,15.525086 3.55331,15.381069 3.549283,15.334449 3.637894,15.281456 3.689997,14.99548 3.759644,14.624666 3.657249,14.504769 3.52456,14.346595 3.82969,14.251731 3.838838,14.203023 3.906667,14.176351 3.985512,13.913358 4.086236,13.602954 4.002839,13.480584 3.889091,13.312426 4.201697,13.247126 4.214185,13.208645 4.272841,13.192809 4.386005,12.910313 4.513997,12.618061 4.440142,12.49509 4.332036,12.318605 4.66719,12.268272 4.683736,12.230492 4.739709,12.219377 4.918622,11.855668 5.056876,11.595151 4.974066,11.435802 4.859152,11.224474 5.275363,11.183452 5.295576,11.145365 5.367654,11.136181 5.667336,10.670767 5.718029,10.596054 5.708695,10.575215 5.73042,10.550694 5.647646,10.337292 5.53402,10.061951 6.049366,10.061844 6.080573,10.06171 6.103113,10.02849 6.193733,10.02777 6.534937,9.642666 6.5166,9.572133 6.547792,9.547895 6.490466,9.277865 6.405769,8.915048 6.808346,8.974594 7.101212,9.018762 7.123017,8.99496 7.175221,9.003325 7.195024,8.968431 7.27824,8.98029 7.472125,8.829629 7.472525,8.76706 7.506562,8.744334 7.503951,8.693301 7.532433,8.679293 7.533971,8.339129 7.529984,7.887303 7.819912,7.991967 8.114047,8.103501 8.143466,8.06736 8.370019,8.148202 8.69428,7.918837 8.713883,7.826765 8.765318,7.804548 8.79665,7.64139 8.890007,7.144421 9.10442,7.274044 9.369884,7.440952 9.391465,7.425687 9.492199,7.48754 10.111032,7.202902 10.1277,7.153571 10.169839,7.136617 10.320323,6.634019 10.474923,6.754707 10.692475,6.926352 11.135182,6.748243 11.609091,6.562829 11.613676,6.550871 11.642647,6.535342 11.735287,6.251986 11.814323,6.321492 11.902484,6.396064 12.583534,6.031006 13.019619,5.99258 13.032367,5.955304 13.041238,5.915439 13.120055,5.983731 13.137969,5.982152 13.146888,5.989159 13.434991,5.958817 14.110269,5.922271 14.158673,5.744319 14.181296,5.520521 14.58405,5.828456 14.685661,5.891131 14.807714,5.884525 14.8757,5.930211 15.112944,5.909809 15.201174,5.510331 15.215248,5.049542 15.395027,5.172647 15.595739,5.280881 15.976328,4.656825 16.187601,4.638518 16.19987,4.593387 16.206033,4.539073 16.325353,4.626583 16.371028,4.622626 16.422851,4.651513 16.613919,4.636412 17.004475,4.60106 17.200063,4.329152 17.309186,4.190097 17.568445,4.55001 17.642738,4.543286 17.731283,4.629301 17.824324,4.606522 17.861923,4.615773 18.169712,4.487779 18.271602,4.476815 18.321619,4.741142 18.614922,4.870803 18.698421,5.046416 18.803984,5.057883 18.805294,5.119614 18.759226,5.260343 18.734603,5.383934 19.027172,5.38692 19.017955,5.576098 19.164466,5.520468 19.220057,5.826912 19.486989,5.599623 19.670072,5.998966 19.726797,6.154593 19.946326,5.891339 20.128636,5.675012 20.356952,6.061734 20.506031,6.32563 20.805401,5.919257 20.961642,5.704984 21.20723,6.076876 21.415181,6.387506 21.74223,5.921523 21.895064,5.705613 22.147522,6.067152 22.373453,6.38721 22.682071,5.922861 22.828486,5.704986 23.09405,6.063319 23.288126,6.328595 23.530595,5.909732 23.661472,5.675011 23.938639,6.009446 24.083569,6.181984 24.210344,5.878983 24.303156,5.599627 24.660877,5.950292 24.625676,5.520468 24.803598,5.629153 24.858977,5.578197 24.762961,5.386919 24.90733,5.43843 24.998214,5.442337 25.004314,5.390002 25.032349,5.261132 25.027404,5.242802 25.047145,5.193115 25.05219,5.169918 24.986146,5.057881 25.014736,5.071996 25.096474,5.068957 25.175204,4.870804 25.496417,4.763413 25.52395,4.553924 25.518524,4.476815 25.793097,4.664227 25.965758,4.606502 26.055008,4.636961 26.147389,4.543286 26.200344,4.547124 26.368104,4.323853 26.48094,4.190096" slic3r:type="contour"/>
    <polygon style="fill: white" points="2.100017,39.968299 2.673527,40.910424 2.657576,40.932271 2.615103,40.963854 2.652829,41.009984 2.678871,41.029692 2.643698,41.080215 1.771437,42.588528 1.161816,42.143967 0.702293,41.61338 0.836419,41.349355 0.993102,41.119176 0.973475,41.097728 1.040906,40.927108 0.65323,40.513408 0.866055,40.338775 1.636209,39.419548" slic3r:type="contour"/>
    <polygon style="fill: white" points="1.778699,42.964879 1.788376,42.978427 1.790385,42.980421 1.776295,42.971039 1.77317,42.968372 1.777238,42.963228" slic3r:type="contour"/>
    <polygon style="fill: white" points="2.510526,43.694979 2.95084,44.192036 2.741757,44.476232 2.137629,44.998505 2.476413,45.226368 3.106444,45.598772 2.771793,46.086936 2.257,46.908492 2.31447,46.971264 2.298068,46.993293 2.995703,47.765391 3.522536,48.397936 3.424807,48.559839 3.215046,48.827431 3.614677,48.966108 3.513615,49.105539 2.798654,50.09072 2.233402,49.821219 1.672175,49.569072 1.839017,49.331439 2.165273,48.94345 2.116457,48.869543 1.443468,48.162916 1.849879,47.60808 2.240609,47.057837 2.1294,46.992572 2.218556,46.882485 1.482598,46.437203 1.150454,46.1964 1.434486,45.730264 1.941742,44.989348 1.447564,44.467723 0.908118,44.005736 1.375274,43.532912 1.828681,43.018419" slic3r:type="contour"/>
    <polygon style="fill: white" points="3.653435,51.15648 4.126403,51.247656 3.832651,51.67856 3.383531,52.383444 2.543693,52.123815 2.218515,52.009044 2.530377,51.494532 2.968082,50.924" slic3r:type="contour"/>
    <polygon style="fill: white" points="4.348802,53.034231 4.755406,53.055248 4.475214,53.55332 4.141018,54.225004 3.194271,54.110744 2.939983,54.057396 3.233337,53.414727 3.54199,52.897139" slic3r:type="contour"/>
    <polygon style="fill: white" points="5.397038,55.045528 5.161025,55.775776 4.233495,55.844124 3.947987,55.837024 4.134724,55.159076 4.346321,54.6112 5.161803,54.59614 5.584772,54.553476" slic3r:type="contour"/>
    <polygon style="fill: white" points="6.611923,56.287048 6.501445,57.095724 5.678988,57.322439 5.311648,57.387308 5.373047,56.748452 5.478191,56.128728 6.221099,55.965552 6.692139,55.842012" slic3r:type="contour"/>
    <polygon style="fill: white" points="8.173539,57.382519 8.196343,58.226728 7.48817,58.547388 7.055244,58.70898 7.022117,58.132835 7.0224,57.452944 7.675779,57.193223 8.172426,56.985124" slic3r:type="contour"/>
    <polygon style="fill: white" points="9.995961,58.338183 10.127111,59.20562 9.52405,59.565227 9.044708,59.818512 8.957244,59.314268 8.867424,58.583488 9.439099,58.277476 9.950952,57.993724" slic3r:type="contour"/>
    <polygon style="fill: white" points="11.985137,59.148703 12.207791,60.041268 11.695289,60.408236 11.180302,60.74462 11.066303,60.311471 10.899199,59.534092 11.398032,59.212788 11.920721,58.858948" slic3r:type="contour"/>
    <polygon style="fill: white" points="14.041356,59.812652 14.346916,60.737796 13.913156,61.092403 13.365781,61.505932 13.244098,61.141639 13.009789,60.317996 13.442253,60.001832 13.974234,59.580608" slic3r:type="contour"/>
    <polygon style="fill: white" points="16.056687,60.329236 16.450544,61.295264 16.09328,61.626 15.516538,62.118684 15.398854,61.824704 15.088394,60.956932 15.451157,60.656416 15.997246,60.160012" slic3r:type="contour"/>
    <polygon style="fill: white" points="42.650596,39.838915 43.136896,40.513456 42.998264,40.751144 42.765728,40.994178 42.816644,41.097768 42.779037,41.144795 43.087836,41.6134 42.810727,41.808384 42.018716,42.588548 41.543683,41.927259 41.111259,41.029816 41.132019,41.007792 41.191798,40.961836 41.116612,40.91036 41.146795,40.873756 42.153936,39.419528" slic3r:type="contour"/>
    <polygon style="fill: white" points="42.014304,42.964696 42.016956,42.968371 41.996192,42.984779 42.012888,42.963228" slic3r:type="contour"/>
    <polygon style="fill: white" points="41.966276,43.023395 42.588967,43.657279 42.882016,44.00574 42.50182,44.453004 41.853755,45.003953 42.221435,45.580979 42.6397,46.196312 42.083816,46.527636 41.570965,46.8796 41.66064,46.992568 41.550533,47.057022 42.057492,47.748356 42.346664,48.162939 42.019147,48.551516 41.610326,48.97187 42.11794,49.569104 41.816136,49.714011 40.9916,50.090816 40.626523,49.587175 40.175448,48.966108 40.282492,48.911511 40.583689,48.798189 40.267592,48.39794 40.591052,48.035695 41.492035,46.993694 41.475576,46.97126 41.534048,46.90954 40.99554,46.12928 40.683712,45.598688 40.960756,45.402699 41.665681,44.980404 41.356019,44.611035 40.839292,44.192088 41.2757,43.755267 41.961411,43.018444" slic3r:type="contour"/>
    <polygon style="fill: white" points="41.316959,51.683355 41.571612,52.009056 40.982363,52.186052 40.406576,52.383444 39.935032,51.68808 39.663724,51.247664 40.057436,51.102427 40.82206,50.924031" slic3r:type="contour"/>
    <polygon style="fill: white" points="40.703035,53.816263 40.850152,54.057404 40.188756,54.120483 39.649136,54.224983 39.225071,53.459523 39.034728,53.055276 39.543291,52.959036 40.248104,52.897112" slic3r:type="contour"/>
    <polygon style="fill: white" points="38.719996,54.557012 39.443976,54.611347 39.735739,55.569283 39.842148,55.837031 39.209995,55.769452 38.629039,55.775828 38.337404,54.992048 38.205328,54.553484" slic3r:type="contour"/>
    <polygon style="fill: white" points="37.544691,55.937435 38.311936,56.12876 38.415744,57.033236 38.478496,57.387284 37.927911,57.215968 37.288711,57.095776 37.158876,56.3433 37.09796,55.842012" slic3r:type="contour"/>
    <polygon style="fill: white" points="35.993192,57.133216 36.767772,57.452947 36.731844,58.272604 36.734896,58.708984 36.261591,58.481919 35.593812,58.2267 35.59882,57.525819 35.617719,56.985112" slic3r:type="contour"/>
    <polygon style="fill: white" points="34.153668,58.161164 34.9227,58.583411 34.804759,59.310504 34.745436,59.818512 34.344459,59.571063 33.663032,59.205712 33.748228,58.571447 33.839184,57.993716" slic3r:type="contour"/>
    <polygon style="fill: white" points="32.129253,59.025127 32.890942,59.534048 32.729217,60.173028 32.60984,60.74462 32.27387,60.498048 31.582398,60.041224 31.710567,59.477104 31.869416,58.858944" slic3r:type="contour"/>
    <polygon style="fill: white" points="30.022618,59.730056 30.780338,60.317944 30.59996,60.874479 30.424364,61.505928 30.147316,61.274876 29.443219,60.737756 29.589467,60.244652 29.815892,59.580596" slic3r:type="contour"/>
    <polygon style="fill: white" points="27.941166,60.2813 28.701694,60.95698 28.516319,61.429932 28.273588,62.118684 28.055016,61.912352 27.339558,61.295228 27.491182,60.875627 27.792862,60.160012" slic3r:type="contour"/>
    <polygon style="fill: white" points="25.899046,60.67222 26.614749,61.4068 27.165339,61.362376 26.702495,61.491114 26.645226,61.612804 26.564993,61.628343 26.46439,61.841323 26.138968,62.571524 25.971702,62.3901 25.426225,61.846106 25.417374,61.848568 25.408999,61.839144 24.543821,61.995629 24.491024,62.089412 24.44001,62.093023 24.014748,62.851028 23.885765,62.688107 23.464156,62.190907 23.453844,62.192772 23.430301,62.161919 22.413737,62.228835 22.370468,62.294271 22.354399,62.293125 21.895064,62.946952 21.787653,62.786659 21.442261,62.292784 21.419658,62.294272 21.374616,62.225499 20.364501,62.159269 20.338198,62.192023 19.77538,62.851028 19.670652,62.666508 19.348313,62.092644 19.299086,62.089416 19.242184,61.988594 18.384987,61.835032 18.372778,61.848511 18.372126,61.848314 18.236097,61.993256 17.651136,62.571524 17.540582,62.340228 17.219944,61.626319 17.144944,61.612884 17.109821,61.539251 17.087463,61.48954 16.624817,61.362316 17.183984,61.400823 17.43248,61.160995 17.984954,60.582668 18.033683,60.694431 18.370851,61.374106 19.489663,61.393736 19.947234,60.840828 19.985337,60.910363 20.2572,61.366435 20.61158,61.360648 21.589352,61.356723 21.895064,60.928748 21.93057,60.979896 22.204603,61.365646 22.63247,61.373908 23.517484,61.376316 23.842894,60.840828 23.897045,60.903115 24.330959,61.422183 25.394277,61.395695 25.422542,61.332403 25.805202,60.582668" slic3r:type="contour"/>
  </g></svg>