<svg width="43.790126" height="63.590156" xmlns="http://www.w3.org/2000/svg" xmlns:svg="http://www.w3.org/2000/svg" xmlns:xlink="http://www.w3.org/1999/xlink" xmlns:slic3r="http://slic3r.org/namespaces/slic3r"><g xmlns="http://www.w3.org/2000/svg" slic3r:z="5.04949999999998e-005" id="layer152">
    <polygon style="fill: white" points="33.625016,17.930614 33.815652,17.953264 34.145872,18.009668 33.772604,18.515537 33.475356,18.753438 32.836242,18.770598 32.09313,18.95981 32.155873,18.638174 32.337578,18.018801 32.330673,17.999563 32.329514,17.996918 32.338773,17.997621 32.370581,17.999374 32.472548,17.985853 33.355654,17.519284 33.441476,17.457242" slic3r:type="contour"/>
    <polygon style="fill: white" points="31.21455,16.916136 31.46942,17.489336 30.762629,18.06756 30.57335,18.25118 30.216434,17.525258 29.96866,16.927166 30.506476,16.516437 30.866278,16.174383" slic3r:type="contour"/>
    <polygon style="fill: white" points="28.616892,15.633153 29.12238,16.672103 28.713819,17.089344 28.299446,17.547124 28.069153,17.124089 27.652199,16.254354 27.935247,15.982037 28.487312,15.376205" slic3r:type="contour"/>
    <polygon style="fill: white" points="22.284134,14.951812 22.928866,14.950564 23.214299,14.524967 23.324122,14.365511 23.648547,14.949463 23.666497,14.949436 23.667656,14.951414 24.192125,14.941639 24.541129,14.936356 24.760166,14.641253 24.838456,14.539183 25.038549,14.929053 25.366361,14.914369 26.517219,14.867453 26.5245,14.858773 26.528447,14.866893 26.550134,14.865351 26.574354,14.955712 27.178752,16.130838 26.92056,16.421197 26.376092,17.084126 26.23498,16.832764 25.898593,16.165189 25.189807,16.19135 24.740884,16.799562 24.648456,16.643079 24.413588,16.203756 23.571687,16.213652 23.57037,16.215701 23.569846,16.215699 23.281008,16.64984 23.209937,16.537651 23.024667,16.213389 22.72699,16.212128 22.136545,16.21177 21.895064,16.607604 21.826398,16.507853 21.646487,16.213713 21.311747,16.215235 20.76145,16.215478 20.7589,16.220032 20.754473,16.220024 20.509092,16.649851 20.431119,16.544828 20.213641,16.21903 20.019741,16.218673 19.36958,16.210054 19.364632,16.219561 19.359587,16.219417 19.049245,16.799562 18.937858,16.662926 18.591037,16.195293 17.886311,16.167687 17.87767,16.185428 17.868143,16.184776 17.414028,17.084142 17.22906,16.878464 16.611387,16.13084 16.785262,15.815795 17.214943,14.959573 17.236181,14.879857 17.240004,14.865351 17.261434,14.866913 17.265625,14.858776 17.272704,14.86748 17.298371,14.868605 18.737046,14.929647 18.737592,14.928621 18.748951,14.928826 18.88925,14.65553 18.951704,14.539167 19.246893,14.937868 19.927707,14.950228 20.121375,14.953328 20.12362,14.949366 20.138213,14.949394 20.368353,14.535432 20.466028,14.36551 20.858024,14.950798 21.503738,14.952056 21.783068,14.494715 21.895064,14.314489" slic3r:type="contour"/>
    <polygon style="fill: white" points="15.450874,15.518221 16.137934,16.254341 15.860275,16.779391 15.490687,17.547114 15.166838,17.219451 14.667747,16.672119 14.920939,16.173027 15.302782,15.37622" slic3r:type="contour"/>
    <polygon style="fill: white" points="13.352738,16.498837 13.821501,16.927127 13.370876,17.882103 13.21679,18.251166 12.59366,17.749013 12.320697,17.489372 12.702961,16.684434 12.923864,16.174369" slic3r:type="contour"/>
    <polygon style="fill: white" points="11.192973,17.895542 11.3328,17.991366 11.416768,18.000151 11.455685,17.997187 11.460614,17.996918 11.458867,18.001776 11.450812,18.020185 11.515114,18.346062 11.696959,18.959814 11.464559,18.890628 11.009571,18.776253 10.692319,18.78145 10.314764,18.753452 9.802669,18.107162 9.644252,18.009668 10.166151,17.936399 10.309075,17.576717 10.348647,17.457246" slic3r:type="contour"/>
  </g></svg>