<svg width="43.790126" height="63.590156" xmlns="http://www.w3.org/2000/svg" xmlns:svg="http://www.w3.org/2000/svg" xmlns:xlink="http://www.w3.org/1999/xlink" xmlns:slic3r="http://slic3r.org/namespaces/slic3r"><g xmlns="http://www.w3.org/2000/svg" slic3r:z="1.985e-006" id="layer5">
    <polygon style="fill: white" points="21.955543,0.10462 22.012016,0.186893 22.027949,0.18618 22.035717,0.197805 22.948083,0.236573 23.183889,0.247118 23.194492,0.234431 23.210903,0.237013 23.33813,0.087583 23.386339,0.174544 23.431446,0.258187 23.448095,0.258932 23.456905,0.275717 24.404904,0.424869 24.621108,0.459257 24.634978,0.446488 24.648894,0.450823 24.784118,0.329012 24.817791,0.413643 24.849072,0.495515 24.864958,0.498042 24.8734,0.520786 25.834528,0.820297 26.033204,0.88171 26.051515,0.869428 26.063695,0.875765 26.208878,0.780822 26.228883,0.86572 26.246682,0.9477 26.261306,0.952221 26.267467,0.981792 27.173296,1.453114 27.373019,1.554503 27.398464,1.543131 27.410061,1.552494 27.581032,1.478644 27.587688,1.574821 27.591904,1.665621 27.605955,1.672754 27.607414,1.711823 28.351819,2.312805 28.581477,2.48989 28.610854,2.481981 28.623714,2.496044 28.850988,2.438202 28.839861,2.565257 28.826948,2.679168 28.842182,2.690914 28.837315,2.729622 29.434799,3.382983 29.720167,3.680066 29.747607,3.676033 29.761495,3.694259 30.056292,3.655996 30.020874,3.820146 29.987634,3.958512 30.00568,3.977299 29.998474,4.005255 30.524823,4.696006 30.878357,5.144723 30.89651,5.143437 30.909288,5.161725 31.2607,5.144553 31.201229,5.336368 31.150433,5.490051 31.172806,5.518446 31.168027,5.532025 31.719429,6.32118 32.140948,6.919302 32.144235,6.919209 32.152962,6.931963 32.53161,6.931833 32.45839,7.12882 32.398047,7.28412 32.424717,7.321964 32.422881,7.326451 33.140202,8.374818 33.593485,9.048897 33.596227,9.048972 33.601533,9.057763 33.950136,9.07642 33.878696,9.244755 33.816918,9.381166 33.843716,9.421016 33.833796,9.442514 34.664248,10.818193 35.025871,11.420888 35.044416,11.423367 35.049124,11.433768 35.311156,11.472353 35.249239,11.591083 35.190253,11.694853 35.208508,11.725278 35.193188,11.752021 35.99282,13.518496 36.186685,13.934525 36.223856,13.946686 36.2268,13.960666 36.378536,14.00784 36.331116,14.074669 36.281542,14.13808 36.288668,14.153373 36.271767,14.174234 36.72064,16.306094 36.773174,16.520395 36.806903,16.544545 36.805435,16.554914 36.871855,16.598698 36.839839,16.626145 36.805555,16.65248 36.806424,16.656025 36.789458,16.667759 36.461904,18.981084 36.45988,18.983783 36.46062,18.984762 36.458366,18.985435 35.361727,20.658059 35.363832,20.661544 35.354573,20.670695 35.481896,20.874508 35.542,20.979806 35.110445,21.041319 35.09244,21.068782 34.919635,21.100557 34.127918,21.883035 34.472439,22.375119 34.604548,22.576774 34.020328,22.666123 33.692454,22.693969 33.647328,22.78275 33.619562,22.784879 33.45561,23.221274 33.821835,23.493181 34.078836,23.680534 33.523866,23.902253 33.34378,23.962421 33.362994,24.197888 33.868872,24.33354 34.16994,24.40298 33.752672,24.804495 33.624582,24.928759 33.678961,25.053163 33.779191,25.199482 34.449407,25.249274 34.668564,25.257326 34.376529,25.727351 34.752335,25.955266 35.278402,26.41676 35.415227,26.429845 35.467108,26.433506 35.408488,26.530879 35.415392,26.536935 35.407513,26.551608 35.47516,26.618728 35.716911,26.934485 36.109576,27.910456 36.141155,28.003193 36.151728,28.006118 36.15345,28.015686 36.24956,28.045302 36.218364,28.083819 36.18381,28.128456 36.184524,28.130554 36.175994,28.140981 36.469004,29.769334 36.510344,30.026615 36.525592,30.034008 36.526438,30.053021 36.69254,30.137932 36.621831,30.199276 36.548501,30.264086 36.548959,30.266938 36.536427,30.277626 36.606975,31.863811 36.623457,32.285556 36.643916,32.298822 36.642404,32.325314 36.842412,32.458084 36.739551,32.527406 36.635714,32.599226 36.635723,32.59946 36.626411,32.605516 36.54146,34.093927 36.509732,34.639014 36.53812,34.661692 36.53325,34.694107 36.753312,34.871112 36.620591,34.941052 36.484763,35.016838 36.288948,36.320179 36.195429,36.928663 36.232252,36.964428 36.222828,37.000989 36.456135,37.22746 36.292027,37.291412 36.129755,37.362062 35.868219,38.376684 35.705587,38.984237 35.748572,39.036208 35.7322,39.078582 35.974764,39.368808 35.77236,39.419563 35.577466,39.479067 35.293627,40.2137 35.053842,40.808815 35.099896,40.880796 35.074194,40.927972 35.315652,41.298164 35.070031,41.323076 34.838027,41.361455 34.577887,41.83894 34.254993,42.407701 34.298255,42.5003 34.262116,42.548663 34.484364,43.013196 34.195624,42.995523 33.925695,42.99888 33.730564,43.260015 33.321044,43.787598 33.354502,43.896388 33.309567,43.940579 33.486528,44.505996 33.162904,44.428072 32.862102,44.380644 32.759595,44.481456 32.261467,44.954347 32.27978,45.0644 32.228573,45.10202 32.335835,45.75688 31.994115,45.609156 31.683835,45.502576 31.083305,45.928534 31.088,46.02828 31.033391,46.058705 31.058966,46.78088 30.71702,46.565468 30.413608,46.402926 29.797412,46.733309 29.793108,46.816288 29.737407,46.840306 29.732237,46.901008 29.681274,47.603464 29.35436,47.331776 29.071472,47.125808 28.417733,47.394418 28.409142,47.45928 28.351882,47.478882 28.340052,47.546367 28.226028,48.254992 27.924843,47.945091 27.668326,47.711474 26.955651,47.940403 26.943734,47.99758 26.890929,48.010925 26.882977,48.041712 26.705216,48.770808 26.436646,48.441752 26.199986,48.185028 25.429206,48.365445 25.414795,48.415368 25.372141,48.422117 25.131858,49.148272 24.895454,48.81008 24.684827,48.539683 24.684804,48.539688 24.679751,48.531903 23.85941,48.650876 23.843162,48.69408 23.815209,48.695643 23.523062,49.381124 23.315181,49.036411 23.132216,48.75634 23.124883,48.757403 23.112506,48.73496 23.068745,48.737408 22.268101,48.778168 22.250528,48.815255 22.240672,48.814703 21.895064,49.46162 21.710526,49.105384 21.554689,48.814488 21.539598,48.815256 21.520734,48.774387 21.483094,48.77228 20.688591,48.731834 20.267066,49.381124 20.101008,49.00176 19.970725,48.69529 19.946964,48.69408 19.926745,48.640376 19.138026,48.525985 19.113591,48.558992 18.65827,49.148272 18.512416,48.740976 18.407058,48.419969 18.375332,48.415368 18.356305,48.351113 17.621937,48.179166 17.547286,48.264931 17.084893,48.770824 16.964428,48.337768 16.884832,48.00658 16.846392,47.99758 16.830558,47.925206 16.153995,47.707743 16.028671,47.828683 15.564081,48.254976 15.476459,47.806695 15.423946,47.473087 15.380986,47.45928 15.369836,47.380848 14.750691,47.126229 14.588241,47.252272 14.108857,47.603472 14.063126,47.158856 14.040491,46.834166 13.997018,46.816288 13.991466,46.720313 13.410331,46.408398 13.238896,46.507851 12.73118,46.78088 12.73288,46.357172 12.744486,46.051015 12.702126,46.028279 12.706826,45.914236 12.143686,45.514252 11.998717,45.570247 11.454297,45.756872 11.503243,45.370832 11.549483,45.092203 11.510349,45.064408 11.530223,44.938461 11.49442,44.903347 10.965634,44.400442 10.885469,44.41638 10.303596,44.505996 10.392816,44.172092 10.469397,43.928493 10.43564,43.896388 10.4723,43.771989 10.337478,43.592211 9.897534,43.024128 9.30575,43.013184 9.420993,42.739416 9.518747,42.535015 9.491871,42.500312 9.539584,42.394357 9.32216,41.996868 8.975641,41.384806 8.47447,41.29814 8.600814,41.08208 8.70952,40.914753 8.69026,40.880732 8.740761,40.799615 8.478916,40.124564 8.227041,39.497784 7.815363,39.368808 7.94203,39.202276 8.054071,39.067351 8.041551,39.036195 8.087705,38.979425 7.832483,37.992335 7.667652,37.375339 7.33399,37.22746 7.454745,37.100235 7.565266,36.992088 7.557876,36.964428 7.595855,36.927247 7.398784,35.617572 7.307625,35.023827 7.036822,34.87112 7.148985,34.773028 7.25579,34.686225 7.252026,34.6617 7.280781,34.638632 7.194463,33.128208 7.164227,32.608625 6.947717,32.458088 7.047653,32.385541 7.147345,32.318528 7.146198,32.298818 7.168299,32.28443 7.239513,30.66966 7.254916,30.27869 7.241184,30.266962 7.241437,30.265543 7.097579,30.137934 7.178942,30.091302 7.26404,30.047084 7.264556,30.033992 7.284363,30.024286 7.584291,28.33863 7.616012,28.143684 7.605602,28.130527 7.605734,28.130189 7.540567,28.045274 7.587036,28.027647 7.637491,28.011674 7.638399,28.006092 7.656262,28.000953 8.073217,26.934478 8.3906,26.567097 8.374737,26.536936 8.378383,26.534398 8.343251,26.472332 8.323017,26.433506 8.527426,26.408715 8.532215,26.403172 8.574953,26.397547 9.408883,25.816968 9.376372,25.756448 9.398804,25.738137 9.209096,25.416645 9.121568,25.257326 9.715009,25.190793 10.038733,25.178888 10.103753,25.064006 10.132978,25.06378 10.184595,24.949042 9.817429,24.594387 9.620188,24.402986 10.19009,24.228776 10.435988,24.172314 10.454841,23.943971 10.015222,23.782177 9.711287,23.68054 10.178749,23.327685 10.309684,23.23222 10.146764,22.789079 10.074657,22.673998 9.4502,22.599288 9.185578,22.576774 9.517668,22.127342 9.647439,21.930431 9.037282,21.39093 8.779763,21.083517 8.697631,21.068772 8.664497,21.026354 8.379028,20.992207 8.248127,20.979806 8.423543,20.717877 8.205532,20.438774 7.331099,18.985199 7.328863,18.984583 6.997386,16.766596 6.990636,16.660775 6.983702,16.656025 6.985313,16.648242 6.918271,16.598697 6.951411,16.576587 6.983897,16.55511 6.983223,16.544544 7.010818,16.52506 7.446591,14.420303 7.511047,14.165133 7.501429,14.153308 7.511611,14.130723 7.411586,14.007815 7.490642,13.981598 7.563225,13.958569 7.566227,13.946685 7.599634,13.935488 8.377302,12.210604 8.594135,11.747275 8.581623,11.725325 8.605208,11.686288 8.478972,11.472383 8.620537,11.449876 8.741914,11.4315 8.745709,11.42339 8.765778,11.420519 9.572385,10.085449 9.956963,9.444156 9.946427,9.421024 9.978651,9.373982 9.84002,9.076397 10.035852,9.064878 10.189513,9.056373 10.193952,9.04897 10.201457,9.048712 10.897304,8.032865 11.369068,7.331075 11.365416,7.322024 11.395886,7.278427 11.258519,6.931834 11.475609,6.931998 11.637288,6.932073 11.64595,6.919187 11.646938,6.919211 12.204516,6.121409 12.621327,5.529859 12.61734,5.518449 12.644592,5.482792 12.529457,5.144555 12.727998,5.154707 12.880339,5.162261 12.893617,5.143417 12.903437,5.144102 13.454928,4.422496 13.789607,3.997307 13.784446,3.977289 13.808411,3.951223 13.733834,3.655994 13.894346,3.677511 14.027575,3.694985 14.042495,3.67603 14.059155,3.678496 14.697554,2.984126 14.951567,2.719313 14.947968,2.690901 14.968989,2.673996 14.93914,2.4382 15.057744,2.468897 15.165354,2.496435 15.179221,2.481978 15.200561,2.487772 15.985231,1.856761 16.183018,1.70412 16.184201,1.672663 16.202662,1.663065 16.20912,1.478636 16.296013,1.516119 16.379765,1.552281 16.391623,1.543129 16.414013,1.553187 17.336399,1.073651 17.523248,0.978799 17.52881,0.952273 17.546751,0.946681 17.581254,0.780823 17.655234,0.828302 17.727368,0.875179 17.738652,0.86945 17.756363,0.881338 18.716361,0.582086 18.916977,0.520074 18.925212,0.497999 18.943829,0.495071 19.006036,0.329005 19.075833,0.390135 19.143115,0.450174 19.155138,0.446457 19.169418,0.459589 20.109444,0.311732 20.332957,0.276178 20.342052,0.258894 20.361298,0.258076 20.451994,0.087579 20.518735,0.163359 20.581806,0.236592 20.595604,0.234397 20.606709,0.247666 21.513251,0.209205 21.753995,0.198436 21.762178,0.186181 21.780938,0.186977 21.895064,0.018649" slic3r:type="contour"/>
    <polygon style="fill: black" points="21.917314,46.618409 21.968884,46.753456 22.025641,46.899979 22.282612,46.886995 23.199644,46.837373 23.223035,46.753164 23.298631,46.545293" slic3r:type="hole"/>
    <polygon style="fill: black" points="20.527338,46.677744 20.574592,46.835619 20.837737,46.848911 21.756354,46.898615 21.78541,46.821191 21.871447,46.618519 20.48905,46.545349" slic3r:type="hole"/>
    <polygon style="fill: black" points="23.346195,46.540189 23.41069,46.67372 23.475272,46.807415 23.719132,46.772463 24.633559,46.631289 24.650435,46.543684 24.714978,46.331885" slic3r:type="hole"/>
    <polygon style="fill: black" points="19.09709,46.453064 19.135249,46.625414 19.394299,46.662523 20.31605,46.804724 20.350474,46.733439 20.443569,46.540903 19.072011,46.332147" slic3r:type="hole"/>
    <polygon style="fill: black" points="11.074045,41.518026 11.155686,41.583388 11.135968,41.624789 11.1717,41.670835 11.913323,42.767262 11.971071,42.711032 11.94043,42.812078 12.023892,42.890708 12.773568,43.693397 12.807288,43.729502 12.8969,43.629424 12.869286,43.797704 13.000222,43.88918 13.817969,44.530434 13.938511,44.382024 13.938512,44.382024 13.925202,44.612669 14.094885,44.70172 14.939462,45.193128 14.972441,45.159987 15.091573,44.9996 15.098462,45.282026 15.298368,45.362208 16.176777,45.748657 16.215332,45.70214 16.324998,45.539058 15.146498,45.022019 16.336348,45.521544 16.34543,45.480544 16.346064,45.525223 17.664099,45.95917 17.677928,45.900372 17.680377,45.963928 19.044449,46.294095 19.058822,46.226148 19.064938,46.298298 20.457147,46.508878 20.47028,46.437368 20.480278,46.511422 21.882859,46.586294 21.895064,46.514276 21.907838,46.586371 23.308228,46.511621 23.319824,46.437368 23.335763,46.508802 24.722216,46.299077 24.731304,46.226148 24.749868,46.293624 26.106174,45.965262 26.112199,45.900348 26.1122,45.900348 26.130877,45.958235 27.440606,45.526816 27.444686,45.480588 27.458362,45.520269 28.643628,45.022019 27.465422,45.53661 27.516887,45.600211 27.634057,45.748344 27.80928,45.677907 28.660602,45.30224 28.658924,45.230127 28.698552,44.9996 28.876524,45.189423 29.018425,45.114712 29.830619,44.639948 29.823741,44.580528 29.851642,44.382023 30.009018,44.515524 30.112837,44.442656 30.888304,43.830442 30.87798,43.785584 30.893226,43.629423 31.018619,43.70652 31.085731,43.6429 31.82627,42.842887 31.8157,42.814332 31.819042,42.711032 31.902441,42.742538 31.939201,42.694812 32.638194,41.651478 32.63442,41.583396 32.661798,41.587645 32.686905,41.504601 31.131063,40.785032 31.016582,43.539832 31.00872,43.543556 30.883203,43.623261 29.896802,44.249651 29.896982,44.251248 29.886595,44.255728 29.868153,44.26455 28.731433,44.808319 28.662121,44.841476 28.65449,44.826192 27.754243,42.849095 26.157252,45.759243 26.15352,45.759479 24.76791,46.054045 24.767388,46.055507 24.758386,46.055895 23.343788,46.247958 23.343565,46.24912 23.33127,46.249327 21.898432,46.317734 21.898432,46.318056 21.89345,46.317972 21.890674,46.318104 20.44647,46.249115 19.022738,46.055508 19.022731,46.055488 17.632876,45.759244 17.629991,45.754003 16.035545,42.848452 15.128006,44.841476 15.116152,44.836367 13.944637,44.275869 13.893175,44.251248 13.893185,44.251199 12.898567,43.619264 12.773546,43.539832 12.773544,43.526476 12.659549,40.784789" slic3r:type="hole"/>
    <polygon style="fill: black" points="24.76084,46.322748 24.830962,46.442784 24.906519,46.573343 25.132149,46.521336 26.037288,46.295755 26.047549,46.20858 26.101514,45.993974" slic3r:type="hole"/>
    <polygon style="fill: black" points="17.698944,46.095556 17.727884,46.285436 17.974292,46.34218 18.892695,46.570841 18.930504,46.506803 19.029641,46.324159 17.685265,45.994301" slic3r:type="hole"/>
    <polygon style="fill: black" points="28.005747,46.183151 28.088337,46.269271 28.289245,46.185261 28.254196,46.094658" slic3r:type="hole"/>
    <polygon style="fill: black" points="26.141125,45.98269 26.207935,46.079479 26.299725,46.214712 26.502202,46.150907 27.389302,45.847061 27.39357,45.764084 27.438459,45.546646" slic3r:type="hole"/>
    <polygon style="fill: black" points="16.373516,45.832304 16.599723,45.903487 17.505887,46.213336 17.54516,46.157464 17.649659,45.98473 16.347482,45.546488" slic3r:type="hole"/>
    <polygon style="fill: black" points="29.242561,45.553056 29.350766,45.6465 29.678268,45.466632 29.636161,45.38103" slic3r:type="hole"/>
    <polygon style="fill: black" points="30.493274,44.705451 30.379178,44.812133 30.504974,44.896225 30.941244,44.577412 30.892603,44.498833" slic3r:type="hole"/>
    <polygon style="fill: black" points="31.58894,43.634724 31.377395,43.920988 31.539875,43.997118 31.991577,43.553195 31.951966,43.43504" slic3r:type="hole"/>
    <polygon style="fill: black" points="32.554948,42.2104 32.234071,42.86796 32.451625,42.927083 32.901458,42.324873 32.796696,42.112564" slic3r:type="hole"/>
    <polygon style="fill: black" points="33.160077,40.793561 32.925596,41.628788 33.246119,41.656605 33.644308,40.927075 33.677977,40.854508 33.521288,40.617728 33.40001,40.353993" slic3r:type="hole"/>
    <polygon style="fill: black" points="9.918584,40.205801 10.316306,40.219373 10.269281,40.133223 10.269287,40.133218 10.238,40.054623 9.802696,39.852615" slic3r:type="hole"/>
    <polygon style="fill: black" points="33.51975,40.132072 33.520816,40.133223 33.475178,40.212604 33.919841,40.176389 34.234024,39.366695 34.307046,39.141456 34.13352,38.935092 34.049739,38.803423" slic3r:type="hole"/>
    <polygon style="fill: black" points="9.527009,39.038933 9.986952,39.658903 10.063489,39.616236 9.729405,38.776986" slic3r:type="hole"/>
    <polygon style="fill: black" points="8.73464,34.951218 8.8624,35.789759 8.951213,36.572876 9.120263,36.641599 9.419656,36.740716 9.345823,36.809692 9.031795,37.134912 9.239242,37.92588 9.362378,38.506651 9.531024,38.551808 9.612705,38.565185 9.633308,38.530179 10.671609,36.311699 8.939158,34.778203" slic3r:type="hole"/>
    <polygon style="fill: black" points="33.118905,36.309414 34.164955,38.547015 34.463906,38.476073 34.691987,37.595228 34.777293,37.187218 34.5943,37.009756 34.370468,36.740715 34.460103,36.702976 34.86406,36.547722 35.005203,35.607984 35.073949,34.989506 34.888447,34.840139 34.835554,34.790058" slic3r:type="hole"/>
    <polygon style="fill: black" points="8.622282,32.717762 8.673652,33.555803 8.702071,34.404409 8.896299,34.50942 8.842555,32.568525" slic3r:type="hole"/>
    <polygon style="fill: black" points="34.895278,34.499644 35.103452,34.38927 35.159612,33.448955 35.182934,32.741841 34.948653,32.588412" slic3r:type="hole"/>
    <polygon style="fill: black" points="34.928474,32.325841 35.164126,32.163046 35.132972,31.207514 35.108039,30.639918 34.897607,30.537597 34.763194,30.466273" slic3r:type="hole"/>
    <polygon style="fill: black" points="8.690339,30.627327 8.663314,31.479747 8.632626,32.164442 8.862313,32.321912 9.027818,30.458764" slic3r:type="hole"/>
    <polygon style="fill: black" points="33.425267,20.176654 33.23963,20.499136 33.239511,20.499132 32.368774,21.843061 32.167468,22.153766 32.152891,22.155564 29.716838,22.734119 29.392938,25.043371 29.395781,25.055019 29.836919,27.754793 29.842752,27.763732 31.037778,29.870447 32.746441,30.523058 34.566823,30.434605 34.707552,30.312251 35.026572,30.023779 34.982751,29.734499 34.895051,29.527771 34.59233,28.781462 34.226876,28.666828 34.259055,28.626446 34.40646,28.436868 33.879912,28.023998 33.566601,27.368182 33.545037,27.367693 33.497142,27.3413 33.521793,27.2923 33.503205,27.259833 32.862792,26.214166 32.759066,26.21036 32.594706,26.113334 32.695732,25.907898 32.675465,25.862579 32.305453,25.045834 32.078722,24.980738 32.031341,24.946199 31.972213,24.991046 32.001644,25.069978 31.87865,24.834116 31.868542,24.8328 31.866905,24.756681 31.747614,23.469064 31.722212,23.500287 31.715086,23.418845 31.755242,23.399104 31.770173,23.36271 32.187701,22.348826 31.874757,23.340347 32.085112,23.236931 32.084522,23.228538 32.193726,23.17554 32.303359,22.890416 32.642518,21.988936 32.563556,21.874554 32.416633,21.836194 32.644958,21.803429 32.717499,21.789636 32.756286,21.686544 32.792633,21.679744 32.925514,21.427137 33.611033,20.176307 33.506725,20.169444 33.620304,20.15939 33.656635,20.093098 33.660518,20.092462 33.715511,19.966894 33.927113,19.494819 33.842596,19.451689" slic3r:type="hole"/>
    <polygon style="fill: black" points="11.33008,21.903689 11.184703,22.079353 11.237745,22.217461 11.58782,23.145115 11.902551,23.286183 11.602665,22.349358 11.602666,22.349358 12.033017,23.394719 12.068171,23.40596 12.067917,23.500288 12.038937,23.500282 11.923092,24.755429 11.924824,24.808289 11.925204,24.819869 11.920803,24.816749 11.788489,25.069971 11.871797,24.847117 11.581854,24.949086 11.578496,24.997105 11.494528,25.028942 11.413542,25.210333 11.052127,26.005644 11.09717,26.08571 11.195443,26.113314 10.997456,26.12595 10.961344,26.205414 10.938505,26.208687 10.864803,26.338621 10.252435,27.323624 10.292984,27.3413 10.236796,27.342126 10.203968,27.415491 9.910217,28.023982 9.559148,28.296156 9.386051,28.432751 9.56325,28.6668 9.501872,28.682535 9.190108,28.769851 8.960798,29.290615 8.815119,29.655998 8.804185,29.727955 8.762402,30.012688 8.936389,30.166619 9.218557,30.434255 11.045186,30.522999 12.752597,29.870534 13.952839,27.756349 13.957841,27.735863 14.397332,25.045975 14.396204,25.025982 14.075103,22.736619 11.622661,22.153766 11.617241,22.142401 11.396136,21.800972" slic3r:type="hole"/>
    <polygon style="fill: black" points="11.666366,23.750606 11.656134,23.886748 11.607614,24.580664 11.770812,24.759022 11.891311,24.807848 11.956571,23.521103" slic3r:type="hole"/>
    <polygon style="fill: black" points="31.901013,24.789675 32.175904,24.520735 32.166728,24.398368 32.118777,23.716001 31.840835,23.482383" slic3r:type="hole"/>
    <polygon style="fill: black" points="9.852212,19.472611 10.127411,20.089451 10.177413,20.093178 10.263532,20.155159 10.317545,20.106365 10.227894,20.271883 10.266839,20.345634 10.990971,21.676173 11.14595,21.692346 11.292315,21.784869 11.348755,21.727807 10.553209,20.499325 10.550499,20.499164 10.543382,20.483354 10.321806,20.098499 9.936689,19.429591" slic3r:type="hole"/>
    <polygon style="fill: black" points="34.365798,18.431537 34.299964,18.657792 34.299614,18.657778 34.105382,18.995188 34.15785,19.049225 34.452675,18.890884 34.700566,18.726577 34.466516,18.400435 34.548952,18.374979 35.013888,18.228686 35.06338,17.465026 35.02887,16.740721 34.953636,16.687868 34.890525,16.628211" slic3r:type="hole"/>
    <polygon style="fill: black" points="8.780009,16.694749 8.807565,17.226761 8.815218,18.132516 8.885051,18.260261 9.013714,18.300303 9.323616,18.400461 9.283402,18.448968 9.088831,18.701617 9.625434,19.041018 9.681827,18.986923 9.492342,18.657806 9.490159,18.657791 9.486406,18.642135 9.425667,18.433444 8.898889,16.623529" slic3r:type="hole"/>
    <polygon style="fill: black" points="8.798228,16.534909 8.902558,16.607565 8.921876,16.444709 8.83329,16.425453" slic3r:type="hole"/>
    <polygon style="fill: black" points="34.854909,16.334049 34.887202,16.606242 35.001257,16.526082 34.946421,16.316722" slic3r:type="hole"/>
    <polygon style="fill: black" points="17.626163,2.659855 17.299647,2.825834 17.272284,3.18079 17.115802,3.113054 16.944251,3.041179 16.540038,3.342603 16.224612,3.574002 16.255356,3.94784 16.08127,3.903856 15.886355,3.857345 15.460585,4.28311 15.138899,4.595743 15.146854,4.630568 15.155809,4.674495 16.737244,4.580186 16.738676,4.577719 17.504409,3.406453 18.01115,2.547184 17.960243,2.492649" slic3r:type="hole"/>
    <polygon style="fill: black" points="25.781285,2.55191 26.287735,3.413397 26.290606,3.413914 26.295852,3.426345 27.049011,4.578409 28.643262,4.674438 28.66034,4.595652 28.261789,4.197323 27.914595,3.859647 27.534776,3.947814 27.556105,3.772047 27.574557,3.576561 27.184681,3.28594 26.852874,3.042461 26.517848,3.180792 26.512687,3.012532 26.501446,2.834171 26.072874,2.619607 25.83253,2.497431" slic3r:type="hole"/>
  </g></svg>