<svg width="43.790126" height="63.590156" xmlns="http://www.w3.org/2000/svg" xmlns:svg="http://www.w3.org/2000/svg" xmlns:xlink="http://www.w3.org/1999/xlink" xmlns:slic3r="http://slic3r.org/namespaces/slic3r"><g xmlns="http://www.w3.org/2000/svg" slic3r:z="4.85149999999998e-005" id="layer146">
    <polygon style="fill: white" points="7.083058,20.47254 7.407606,20.424255 7.563902,20.40155 7.632689,20.530995 7.664053,20.505152 7.662239,20.514264 7.653173,20.545553 7.664444,20.590749 7.789288,20.825682 8.338008,21.209006 8.21219,21.267736 7.968431,21.355663 7.943472,21.419915 7.970253,21.48272 7.919833,21.480771 7.135019,23.501152 6.833092,24.139717 6.279401,27.357884 6.221839,27.657585 6.227915,27.664027 5.755074,31.33386 5.688331,31.726269 5.712683,31.74836 5.271883,33.770663 4.715331,35.586194 4.950156,35.78236 4.795264,36.145836 4.699127,36.321208 3.968285,36.282029 3.949639,36.308328 3.921072,36.279498 3.775393,36.271688 3.747792,36.285927 3.791285,36.148513 3.754301,36.111188 3.741544,36.099772 3.811429,36.059691 3.912519,35.463875 4.465132,32.106869 4.06032,31.657851 3.946388,31.54817 4.590082,31.218909 4.844587,29.110426 4.968173,27.958627 4.561754,27.464585 4.466769,27.362552 5.098239,27.06469 5.377418,25.546314 5.626023,24.155649 5.338177,23.748642 5.27917,23.669044 5.85885,23.427435 6.493315,22.061622 6.675554,21.629734 6.665645,20.904663 6.467266,20.665282 6.41997,20.571192 6.660598,20.535392 6.657954,20.341923 6.659659,20.184392" slic3r:type="contour"/>
    <polygon style="fill: white" points="9.336394,17.792848 9.856675,17.979552 9.75627,19.001247 9.687199,19.445392 8.669695,19.325054 8.403697,19.214196 8.688681,18.17508 8.787408,17.645864" slic3r:type="contour"/>
    <polygon style="fill: white" points="14.3119,15.389926 14.422104,15.502914 14.450535,15.504074 14.498143,15.547573 15.048482,15.600342 14.891638,16.320417 14.790036,16.824472 14.404788,16.783811 14.121993,16.756634 13.99472,17.061474 13.913576,16.996083 13.63453,16.730656 13.354744,16.715193 12.208545,16.659106 12.131749,16.665108 11.998676,17.086699 11.728881,18.026743 11.272263,17.805903 10.685957,17.396686 10.917679,16.813533 11.212765,15.92263 11.365274,16.001798 12.167572,16.55162 12.156488,16.586733 12.259428,16.657858 12.270598,16.519524 12.313885,15.983448 12.313511,15.4168 13.429108,15.46236 13.617215,15.036743 13.724012,14.823187" slic3r:type="contour"/>
    <polygon style="fill: white" points="16.273996,14.512106 16.760616,15.061878 16.267709,16.12408 16.135634,16.403948 15.624902,15.825096 15.304015,15.465573 15.700155,14.623719 15.946451,14.139705" slic3r:type="contour"/>
    <polygon style="fill: white" points="17.935196,13.908518 18.544248,14.639894 18.163756,15.421186 17.906164,15.95005 17.548115,15.495255 17.106786,14.963334 17.416536,14.325785 17.749016,13.679576" slic3r:type="contour"/>
    <polygon style="fill: white" points="21.93563,13.211262 22.513982,14.1465 22.66198,13.925827 23.161829,13.200074 23.214073,13.294111 23.797421,14.318881 24.018409,14.02115 24.514234,13.37471 24.606927,13.555319 25.168364,14.615429 24.769883,15.174632 24.400802,15.661041 24.170691,15.221325 23.787132,14.475138 23.50412,14.915426 23.104686,15.503328 22.89006,15.121517 22.510892,14.438337 22.29006,14.807269 21.895064,15.455987 21.682236,15.098087 21.279529,14.436413 21.06043,14.827631 20.685428,15.503331 20.461035,15.146738 20.00395,14.472234 19.721362,15.015188 19.389324,15.66104 19.120493,15.275554 18.621776,14.61541 18.8804,14.111625 19.275904,13.374717 19.376212,13.5102 19.991582,14.319105 20.183738,13.973467 20.628298,13.200075 20.68278,13.281423 21.274748,14.147044 21.417789,13.912844 21.895064,13.144814" slic3r:type="contour"/>
    <polygon style="fill: white" points="26.209524,14.02603 26.683358,14.963197 26.173991,15.601833 25.883968,15.950043 25.618187,15.404206 25.245886,14.639842 25.59496,14.21175 26.041092,13.679567" slic3r:type="contour"/>
    <polygon style="fill: white" points="28.140254,14.7688 28.4861,15.465518 27.800226,16.240865 27.654506,16.403964 27.323043,15.68337 27.029508,15.06191 27.508732,14.517436 27.843652,14.139686" slic3r:type="contour"/>
    <polygon style="fill: white" points="30.343278,15.44676 30.345393,15.446566 30.348392,15.45331 30.797216,15.430739 31.476668,15.416805 31.519642,15.818143 31.530341,16.600294 31.937367,16.385249 32.577352,15.92261 32.682882,16.194788 33.104172,17.396716 32.535836,17.677451 32.061214,18.026728 31.916681,17.583989 31.654793,16.664688 31.580951,16.659034 30.133399,16.733619 29.79543,17.06148 29.748943,16.966933 29.662676,16.758695 28.999976,16.824442 28.915612,16.440377 28.741606,15.600338 29.29595,15.545672 29.33975,15.504033 29.378578,15.50208 29.919315,14.976304 30.066144,14.823185" slic3r:type="contour"/>
    <polygon style="fill: white" points="35.274071,18.684639 35.386424,19.214156 34.314059,19.344084 34.102935,19.445416 34.04188,18.649268 33.93344,17.979544 34.580728,17.802739 35.00272,17.645862" slic3r:type="contour"/>
    <polygon style="fill: white" points="37.126515,20.535402 37.270215,20.556767 37.3702,20.57121 37.12277,20.861723 37.114989,21.539572 37.494439,22.331403 37.958051,23.448952 38.422227,23.641866 38.510956,23.669036 38.165996,24.156941 38.459975,25.761177 38.696019,27.076698 39.201747,27.314498 39.32336,27.362552 38.828589,27.964271 39.079044,30.041118 39.20739,31.229946 39.709488,31.486034 39.84374,31.548168 39.331266,32.114768 39.558483,33.400859 39.979474,36.060691 40.034388,36.092096 40.048584,36.099772 39.999393,36.149071 40.021876,36.217804 40.042336,36.285928 39.840652,36.308164 39.840488,36.308328 39.840333,36.308199 39.231164,36.37536 39.090992,36.321192 38.839976,35.782352 39.044296,35.611535 39.078932,35.58268 38.077444,31.74836 38.107436,31.720964 37.62842,28.068405 37.562212,27.664027 37.570341,27.655264 37.142907,25.071313 36.950584,24.084262 36.331088,22.458938 35.887649,21.484261 35.819972,21.482744 35.861922,21.427709 35.82535,21.347324 35.452068,21.208948 35.531252,20.986992 36.132699,20.528049 36.126072,20.505152 36.145978,20.522404 36.226236,20.401542 36.571705,20.452909 36.993659,20.190324 37.130544,20.18446" slic3r:type="contour"/>
  </g></svg>