<svg width="43.790126" height="63.590156" xmlns="http://www.w3.org/2000/svg" xmlns:svg="http://www.w3.org/2000/svg" xmlns:xlink="http://www.w3.org/1999/xlink" xmlns:slic3r="http://slic3r.org/namespaces/slic3r"><g xmlns="http://www.w3.org/2000/svg" slic3r:z="4.88449999999998e-005" id="layer147">
    <polygon style="fill: white" points="8.400214,19.668105 8.389596,19.704758 8.55503,20.368154 8.876994,20.593072 8.45882,20.788269 7.648657,21.080506 7.565707,21.29405 7.654715,21.50279 7.48468,21.496217 6.267657,24.070173 5.693661,27.058709 5.770504,27.140179 5.641164,28.144016 5.119499,31.211075 5.309829,31.383728 5.14799,32.12621 4.931111,32.833696 4.155363,32.528179 3.993612,32.756319 4.159221,31.750281 4.06922,31.650452 4.043888,31.626066 4.187001,31.552862 4.243584,31.084084 4.628455,27.497132 4.565995,27.421207 4.551399,27.405528 4.648443,27.359752 4.691347,27.126406 5.052278,25.107408 5.337512,25.258676 6.144451,23.720024 6.143045,23.684063 5.84833,22.37532 6.540458,20.735032 6.53916,20.64012 6.513192,20.608783 6.507001,20.596468 6.53788,20.591874 6.538378,20.545833 6.593803,20.583554 6.71477,20.565557 8.367318,19.693294 8.388015,19.675354 8.400882,19.664752" slic3r:type="contour"/>
    <polygon style="fill: white" points="9.32148,18.12181 9.720718,18.265076 9.603002,19.462918 9.567646,19.690276 8.520234,19.566401 8.402946,19.55253 8.260574,19.493194 8.579205,18.331387 8.651754,17.942495" slic3r:type="contour"/>
    <polygon style="fill: white" points="11.336558,16.317423 12.031176,16.79345 11.808632,17.498488 11.594066,18.246106 11.017713,17.967356 10.540621,17.634366 10.816244,16.940732 11.068746,16.1784" slic3r:type="contour"/>
    <polygon style="fill: white" points="16.257433,14.818639 16.654653,15.267409 16.080051,16.505665 16.032295,16.606861 15.666268,16.192014 15.582485,16.576658 15.545749,16.758915 14.731633,16.672993 14.183713,16.620336 14.133193,16.617544 13.865065,17.259756 13.693591,17.121572 13.107707,16.564282 12.918776,16.555037 13.001856,15.526141 13.0017,15.29014 13.466331,15.309115 13.544675,15.131851 13.589155,15.042908 13.882945,15.32613 13.891742,15.326489 13.91157,15.344605 15.292063,15.476973 15.651036,14.714105 15.839587,14.34357" slic3r:type="contour"/>
    <polygon style="fill: white" points="17.93971,14.209672 18.462426,14.837372 18.002572,15.781623 17.824704,16.146803 17.396059,15.602334 17.02917,15.160131 17.391168,14.415037 17.668452,13.87611" slic3r:type="contour"/>
    <polygon style="fill: white" points="22.015614,13.537229 22.527009,14.364191 22.754034,14.025684 23.18888,13.394314 23.31861,13.627824 23.836028,14.536776 24.142035,14.124501 24.56827,13.568789 24.736975,13.897501 25.220258,14.810041 24.739552,15.484633 24.458038,15.855637 24.173081,15.311112 23.829618,14.642934 23.448778,15.235413 23.134616,15.697805 22.86258,15.213863 22.52551,14.606535 22.207729,15.137436 21.895064,15.65094 21.623257,15.193859 21.264845,14.604966 20.950439,15.166361 20.655494,15.697812 20.37108,15.245833 19.961163,14.640936 19.585346,15.363019 19.332088,15.855636 18.99918,15.378269 18.569886,14.810017 18.881874,14.202276 19.22187,13.568792 19.40444,13.815382 19.953335,14.536905 20.214505,14.067128 20.601252,13.394314 20.736542,13.596315 21.261966,14.364628 21.478669,14.009823 21.895064,13.33976" slic3r:type="contour"/>
    <polygon style="fill: white" points="26.36706,14.380882 26.760974,15.159985 26.165686,15.90635 25.965422,16.146793 25.647238,15.493329 25.32771,14.837315 25.749594,14.319934 26.12166,13.876102" slic3r:type="contour"/>
    <polygon style="fill: white" points="28.328887,15.146113 28.492682,15.476078 29.366505,15.38991 29.88152,15.342583 29.898468,15.326471 29.914636,15.325658 30.139848,15.106677 30.201002,15.042906 30.316425,15.302618 30.317304,15.302537 30.318553,15.305345 30.505484,15.295945 30.788466,15.290142 30.863932,15.994929 30.871592,16.555019 30.657858,16.566033 30.545162,16.658229 29.925084,17.259764 29.826859,17.059987 29.644575,16.619978 28.24429,16.7589 28.120877,16.197075 27.810526,16.547911 27.757842,16.606878 27.375069,15.774736 27.135464,15.267453 27.694114,14.632738 27.950511,14.343551" slic3r:type="contour"/>
    <polygon style="fill: white" points="32.906694,16.656353 33.249508,17.63439 32.573496,17.968311 32.196029,18.246092 32.0136,17.687258 31.758958,16.793402 32.17375,16.574254 32.721372,16.178382" slic3r:type="contour"/>
    <polygon style="fill: white" points="35.469407,19.209733 35.529543,19.49316 34.330563,19.638428 34.222492,19.690298 34.152603,18.778975 34.069392,18.265062 34.828276,18.057775 35.138372,17.942496" slic3r:type="contour"/>
    <polygon style="fill: white" points="35.393872,19.668762 35.449426,19.714566 36.176904,20.19098 37.030517,20.558986 37.178707,20.58102 37.233912,20.546666 37.25182,20.5459 37.251292,20.59189 37.283176,20.596498 37.250803,20.634508 37.249785,20.723188 37.299428,20.826782 37.94164,22.374845 38.016996,23.101508 37.787348,23.791882 38.737848,25.107408 39.142316,27.361598 39.22004,27.398144 39.238728,27.405528 39.16269,27.498002 39.201179,27.817173 39.604756,31.555316 39.716388,31.612252 39.746236,31.626066 39.632298,31.752038 39.682816,32.037974 39.796512,32.75632 39.243016,33.15426 38.859016,32.833696 38.4803,31.383728 38.683965,31.197688 38.01962,27.14018 38.105227,27.047894 37.524093,24.065349 36.360559,21.507905 36.135664,21.502864 36.275064,21.319984 36.159644,21.066293 35.870623,20.947979 34.913088,20.593016 35.176212,19.855437 35.395926,19.687781 35.389243,19.664752" slic3r:type="contour"/>
  </g></svg>