<svg width="43.790126" height="63.590156" xmlns="http://www.w3.org/2000/svg" xmlns:svg="http://www.w3.org/2000/svg" xmlns:xlink="http://www.w3.org/1999/xlink" xmlns:slic3r="http://slic3r.org/namespaces/slic3r"><g xmlns="http://www.w3.org/2000/svg" slic3r:z="3.305e-006" id="layer9">
    <polygon style="fill: white" points="22.11383,0.538685 22.428247,0.986742 22.67483,1.002335 23.048981,0.58365 23.296262,0.302121 23.47396,0.619723 23.758456,1.139037 23.965064,1.179364 24.4094,0.795719 24.701644,0.541712 24.832299,0.866621 25.063212,1.462227 25.239798,1.522056 25.287723,1.492957 25.754772,1.195572 26.089624,0.984899 26.171532,1.321014 26.312343,1.950997 26.508889,2.049048 26.623874,2.003433 26.62649,2.005208 27.073083,1.810853 27.431926,1.662324 27.4627,2.024521 27.494755,2.594259 27.805552,2.805111 27.928832,2.777092 27.931517,2.779501 28.345012,2.669485 28.686,2.587572 28.659442,3.001582 28.619768,3.396808 29.128331,3.852951 29.244355,3.84132 29.24725,3.844639 29.588855,3.797207 29.883146,3.763825 29.793861,4.231001 29.750277,4.421349 30.278154,5.026551 30.460007,5.222326 30.557775,5.221656 30.561438,5.226862 30.830179,5.213498 31.075779,5.207543 30.930581,5.710222 30.921366,5.738402 31.41923,6.445979 31.77855,6.92728 31.86584,6.932724 31.870255,6.940299 32.098587,6.942441 32.32075,6.950727 32.151807,7.423367 32.695578,8.35633 33.085178,8.989562 33.190747,9.002885 33.193625,9.009182 33.437809,9.026457 33.68648,9.050817 33.49534,9.514104 33.459379,9.590512 34.120644,11.037021 34.233435,11.269161 34.693199,11.342338 35.022732,11.401569 34.837696,11.774118 34.629096,12.13656 35.062896,13.541138 35.244904,13.600621 35.255728,13.628214 35.691056,13.758122 36.147704,13.89487 35.991704,14.136946 35.676906,14.561782 35.698143,14.597038 35.663899,14.6453 36.262189,16.077861 36.47802,16.221392 36.482737,16.270949 36.819308,16.452272 36.722828,16.552006 36.532467,16.725021 36.532776,16.725762 36.526539,16.731109 36.709444,18.652603 36.664632,18.839228 36.682052,18.85894 36.692076,18.87104 36.653093,18.887289 36.651164,18.895321 36.612619,18.916274 35.91748,19.936453 35.631168,20.361678 35.891252,20.747434 36.002784,20.93211 35.367096,21.071513 35.123,21.116398 35.00196,21.296163 34.906527,21.328362 34.898064,21.319482 34.879492,21.292818 34.889715,21.159295 34.736195,21.187524 34.304815,20.578075 34.072859,20.18472 34.506464,20.069187 34.980726,19.970598 35.051032,19.05233 35.031316,18.839437 34.815196,18.614293 34.719524,18.491578 34.975906,18.372198 34.930843,18.062549 34.798368,17.732496 35.061304,17.348152 35.193841,16.864677 34.833808,16.657595 34.996292,16.493715 35.26355,16.25762 35.262747,16.159686 35.116816,14.785135 34.549528,14.630027 34.23074,14.540171 34.514464,14.148303 34.715031,13.869796 34.026,13.001265 33.507599,12.317175 33.287426,12.280892 33.182572,12.266682 33.309328,12.055533 33.302706,12.046794 33.322971,12.009123 33.046872,11.668046 31.94204,10.055083 31.924436,10.054227 31.932766,10.037775 31.912778,10.011756 30.842823,8.38334 30.634107,8.057871 30.632186,8.057891 30.632956,8.056134 30.590043,7.99894 29.54591,6.419771 29.496729,6.421451 29.46417,6.423371 29.493169,6.340007 29.491398,6.337326 29.493338,6.331252 29.392024,6.201603 28.599562,5.096234 28.473336,5.112749 28.387448,5.125311 28.447633,4.884314 28.441978,4.876425 28.443261,4.870674 28.157875,4.561091 27.708883,4.035051 27.506169,4.088996 27.36653,4.127516 27.419006,3.70762 26.91531,3.301436 26.793069,3.194758 26.535524,3.309537 26.360906,3.388608 26.347301,2.850244 25.771066,2.555813 25.486754,2.742772 25.31073,2.860302 25.210793,2.344913 25.198936,2.288979 24.64091,2.122591 24.368676,2.366079 24.210844,2.509146 24.032136,2.013906 24.01337,1.963876 23.440491,1.881049 23.202076,2.157876 23.068692,2.314118 22.820888,1.842811 22.8057,1.814336 22.212394,1.79279 22.007368,2.09192 21.895064,2.256166 21.591708,1.81412 21.575956,1.791099 20.987964,1.812487 20.817845,2.134046 20.721434,2.314116 20.373288,1.911738 20.341597,1.874722 19.784925,1.95547 19.654259,2.311403 19.57929,2.509142 19.184284,2.158343 19.133826,2.112796 18.601225,2.271991 18.524023,2.654448 18.479398,2.860301 18.034732,2.570317 17.995051,2.543957 17.451945,2.821295 17.43899,3.196999 17.429222,3.388605 16.967967,3.184798 16.497458,3.562007 16.38132,3.665905 16.382779,3.681763 16.374473,3.690704 16.408704,3.982966 16.423597,4.127493 16.057412,4.031983 15.733676,4.380446 15.34281,4.851734 15.348145,4.876433 15.344989,4.880448 15.383652,5.040857 15.402684,5.125314 15.174576,5.097332 14.970124,5.357534 14.294643,6.324137 14.298729,6.337323 14.298115,6.338154 14.316357,6.392593 14.325958,6.423373 14.236514,6.421529 14.141021,6.550771 13.200082,7.99894 13.15718,8.055869 13.157937,8.057891 13.155658,8.058032 12.947303,8.383331 11.85744,10.0347 11.86566,10.054229 11.845524,10.05656 11.795485,10.121326 10.455566,11.985583 10.487383,12.046713 10.486296,12.048105 10.563579,12.18255 10.607546,12.266653 10.266967,12.328948 9.06999,13.861642 9.398821,14.316734 9.559387,14.540171 9.150933,14.64981 8.708917,14.773263 8.570479,16.33908 8.956319,16.657587 8.795391,16.726958 8.641081,16.811128 8.991759,17.732496 8.84176,18.404278 8.952466,18.453185 9.070604,18.491578 8.813862,18.736809 8.865112,20.001076 9.332281,20.120525 9.717267,20.18472 9.526247,20.441031 9.053941,21.18754 8.908536,21.157594 8.910685,21.292778 8.883623,21.32836 8.867441,21.322841 8.788092,21.296126 8.645317,21.103385 7.991668,20.968768 7.78734,20.932086 8.144848,20.427776 7.824347,19.995116 7.168929,18.911365 7.138961,18.895322 7.136025,18.885898 7.111329,18.875953 7.098052,18.87104 7.122887,18.843721 7.112741,18.811144 7.080683,18.652605 7.184756,17.037 7.239734,16.684904 6.970818,16.452272 7.092297,16.384127 7.304783,16.268299 7.312107,16.221393 7.487129,16.104625 7.721628,15.470704 8.100978,14.609285 8.091935,14.596984 8.121624,14.543678 7.928202,14.257162 7.64242,13.89487 7.937092,13.806991 8.532722,13.62889 8.545161,13.600643 8.662605,13.561698 8.705395,13.548121 9.089664,12.23704 9.146563,12.075284 8.942997,11.686005 8.767399,11.401582 9.219698,11.331495 9.394085,11.301789 9.521891,11.278796 9.995015,10.223849 10.332127,9.542838 10.217092,9.276869 10.103663,9.050799 10.591282,9.01931 10.599421,9.002868 10.681512,8.994235 11.148409,8.187724 11.642068,7.389231 11.555511,7.156125 11.469376,6.950727 11.913777,6.949741 11.924298,6.932723 11.988859,6.930027 12.453543,6.268878 12.874381,5.703021 12.793411,5.434525 12.714358,5.207545 13.221434,5.236374 13.232378,5.221658 13.30269,5.223513 13.852289,4.594763 14.046191,4.384093 13.976345,4.040469 13.906977,3.763823 14.356577,3.829546 14.53601,3.851911 14.545798,3.841277 14.633768,3.851846 15.178054,3.36519 15.144608,2.922274 15.104121,2.587583 15.484515,2.69158 15.852948,2.784249 15.861298,2.777127 15.96773,2.803482 16.302185,2.577034 16.342877,2.040813 16.358214,1.662321 16.682025,1.805133 17.160162,2.007456 17.166307,2.003459 17.271887,2.047215 17.482904,1.941968 17.618606,1.369892 17.700516,0.984894 17.993538,1.172058 18.469755,1.473264 18.546506,1.520561 18.730538,1.458183 18.950102,0.90568 19.088484,0.541695 19.35922,0.77505 19.824694,1.178449 20.034292,1.137525 20.314109,0.63393 20.493864,0.302121 20.741557,0.578053 21.116629,1.001795 21.364449,0.98612 21.684568,0.535569 21.895063,0.232613" slic3r:type="contour"/>
    <polygon style="fill: white" points="10.000566,21.69197 10.571822,21.799872 10.473025,21.935456 9.953093,22.716548 9.963566,22.72394 9.913579,22.807411 9.892464,22.839104 9.847892,22.83377 9.833308,22.80478 8.964998,22.64138 8.579426,22.580682 8.902781,22.157265 9.320441,21.526194" slic3r:type="contour"/>
    <polygon style="fill: white" points="34.998428,22.255068 35.2107,22.58066 34.664932,22.692578 33.953593,22.806754 33.942231,22.83377 33.919484,22.837249 33.89766,22.839104 33.82656,22.72394 33.834575,22.719766 33.557224,22.330908 33.21833,21.799872 33.430674,21.747175 34.469688,21.526194" slic3r:type="contour"/>
    <polygon style="fill: white" points="34.357268,23.414838 34.744928,23.723378 34.262435,23.932758 33.741957,24.145735 34.385096,24.349928 34.829512,24.480564 34.447684,24.855203 34.110276,25.20501 34.959451,25.320591 35.27712,25.350814 34.965635,25.853372 34.767212,26.215686 34.9046,26.294704 35.2877,26.38019 35.353806,26.441347 35.861672,26.527108 35.972396,26.540988 35.789798,26.844698 35.956852,26.999246 36.34468,27.428907 36.46758,27.983338 36.487993,28.094769 36.49004,28.09549 36.490936,28.10489 36.635484,28.158562 36.593656,28.207107 36.523513,28.28866 36.524024,28.291447 36.510338,28.308345 36.634215,29.607381 36.66955,30.038863 36.686816,30.048346 36.687332,30.079958 37.013192,30.25559 36.894844,30.354399 36.694664,30.527945 36.710416,31.490433 36.714932,32.252999 36.75258,32.279398 36.749807,32.329843 37.154012,32.598616 36.981899,32.71204 36.718482,32.899783 36.678492,33.627351 36.615504,34.61056 36.672608,34.658824 36.664315,34.720163 37.091612,35.05734 36.881944,35.166971 36.579658,35.34628 36.506776,35.885328 36.352432,36.943711 36.423464,37.015948 36.407918,37.080047 36.833968,37.48388 36.59136,37.579235 36.247243,37.742528 36.172148,38.052152 35.911795,39.064283 35.987627,39.159752 35.961709,39.230136 36.384124,39.721828 36.098292,39.796496 35.70295,39.932806 35.676795,40.003828 35.303849,40.965645 35.37968,41.088532 35.34247,41.160065 35.395127,41.244947 35.746352,41.765384 35.411236,41.804888 34.954404,41.899066 34.544433,42.651232 34.612072,42.801448 34.563787,42.86925 34.657631,43.075023 34.922564,43.605536 34.539239,43.590244 34.020279,43.618764 33.643238,44.126095 33.693164,44.297112 33.63718,44.355029 33.741219,44.705331 33.9134,45.226396 33.493205,45.135447 32.928319,45.071392 32.602076,45.39536 32.627208,45.565607 32.566806,45.612485 32.639375,46.096295 32.727936,46.596256 32.292166,46.419624 31.721447,46.250421 31.423727,46.471851 31.427158,46.626636 31.365604,46.662987 31.37775,47.245204 31.39891,47.723876 30.969075,47.465939 30.422676,47.201494 30.120033,47.371913 30.10889,47.502764 30.048184,47.53049 29.990342,48.160211 29.9577,48.630004 29.551999,48.305251 29.050148,47.967879 28.708351,48.115218 28.690084,48.219416 28.630993,48.240653 28.514095,48.858668 28.434656,49.34034 28.066199,48.970987 27.617427,48.587571 27.207173,48.724937 27.183966,48.814796 27.133403,48.828101 26.982786,49.369195 26.851142,49.885744 26.528044,49.496172 26.124743,49.080136 25.638367,49.198012 25.612516,49.273496 25.575854,49.27949 25.41512,49.718527 25.22268,50.272176 24.941919,49.876107 24.582769,49.433804 24.026064,49.516856 23.999258,49.579028 23.981183,49.580065 23.822504,49.928879 23.56571,50.503152 23.319931,50.103447 23.001045,49.633629 22.401525,49.664813 22.210108,50.014963 21.895064,50.580128 21.674547,50.169031 21.421417,49.715794 21.421091,49.715811 21.416801,49.707529 21.391511,49.662248 20.802241,49.631611 20.572093,49.988684 20.224418,50.503168 20.020645,50.062407 19.805207,49.579773 19.79087,49.579028 19.76041,49.509442 19.227056,49.429927 18.922639,49.832328 18.567448,50.272176 18.382935,49.791923 18.205188,49.277583 18.17761,49.273472 18.14703,49.18808 17.68725,49.076698 17.284888,49.526951 16.938975,49.885735 16.782012,49.365492 16.64556,48.82435 16.606154,48.814804 16.578257,48.714517 16.193235,48.585563 15.688974,49.054283 15.355459,49.340348 15.238268,48.791584 15.148092,48.235519 15.100083,48.21944 15.077799,48.105434 14.759032,47.967877 14.170304,48.402488 13.832429,48.630032 13.769066,48.076456 13.732016,47.524689 13.68128,47.502795 13.666799,47.362011 13.386701,47.204033 12.751819,47.549803 12.391232,47.72386 12.390047,47.187024 12.414543,46.655725 12.362976,46.62664 12.363643,46.460516 12.089988,46.256559 11.459183,46.480228 11.062186,46.596272 11.124218,46.097471 11.212516,45.602572 11.16292,45.565607 11.186245,45.381636 10.886225,45.082927 10.316023,45.179796 9.876727,45.226376 9.994821,44.785143 10.141478,44.341434 10.096961,44.297112 10.147066,44.109591 9.797377,43.63752 9.349007,43.636876 8.86753,43.605508 9.024264,43.233844 9.214686,42.850903 9.178046,42.80144 9.24898,42.632929 8.864775,41.925298 8.557103,41.877559 8.043773,41.765356 8.220057,41.46226 8.437217,41.137821 8.41045,41.08852 8.492844,40.947618 8.113234,39.964494 7.936789,39.912331 7.406005,39.721816 7.588345,39.4784 7.820133,39.205419 7.8025,39.159752 7.885758,39.050295 7.846112,38.887807 7.561319,37.77592 7.488728,37.745004 6.956158,37.48388 7.13757,37.287667 7.377211,37.057125 7.366664,37.015947 7.443865,36.934613 7.383491,36.490728 7.221596,35.375654 6.698536,35.057368 6.877271,34.894656 7.123044,34.696858 7.117524,34.65884 7.180124,34.604094 7.144436,33.964576 7.078124,32.919164 6.636113,32.598636 6.801712,32.470845 7.039431,32.309143 7.037546,32.279416 7.080837,32.247989 7.093984,31.364789 7.099848,30.537972 6.776935,30.255584 6.907526,30.173055 7.103202,30.064987 7.10332,30.048345 7.125733,30.0355 7.25162,28.670688 7.281902,28.311305 7.266102,28.291447 7.266644,28.288839 7.154643,28.158562 7.211359,28.132739 7.299795,28.098952 7.300087,28.095489 7.307427,28.092706 7.445448,27.428907 8.005107,26.873624 7.865777,26.632331 7.817735,26.540988 8.468307,26.414044 8.502429,26.38019 8.91028,26.287761 9.017327,26.223918 8.649328,25.604569 8.513009,25.350814 9.095534,25.257074 9.667607,25.200355 9.254824,24.787249 8.960613,24.480564 9.46822,24.312078 10.046708,24.141097 9.494256,23.906488 9.0452,23.723378 9.455808,23.415067 10.124988,22.884147 10.624462,23.144825 11.2273,23.429218 11.170042,23.479503 10.519952,24.062256 10.528215,24.067933 10.417562,24.171939 10.475282,24.24059 10.439908,24.25463 10.64611,24.482491 11.0836,24.952382 10.949101,25.005249 9.964029,25.393072 10.171734,25.744634 10.441446,26.21717 10.115161,26.275476 9.168481,26.437565 9.530261,27.031241 9.723205,27.37141 9.18806,27.469742 8.932839,27.513093 8.812789,28.211711 8.805299,28.268638 9.005428,28.505946 9.139586,28.67496 8.738384,28.808875 8.698344,29.373723 8.644172,30.299315 8.734273,30.377837 8.806514,30.441442 8.629254,30.532703 8.630462,30.858862 8.599808,32.514043 8.639164,32.54172 8.67565,32.566228 8.59715,32.617024 8.609094,32.78838 8.669839,34.796581 8.704862,34.816667 8.741004,34.835264 8.672257,34.888296 8.69583,35.048212 8.887444,37.01143 8.93655,37.033324 8.992214,37.054024 8.900605,37.138309 8.952861,37.342979 9.278435,39.01028 9.33889,39.029083 9.4129,39.045759 9.309341,39.162699 9.395831,39.389151 9.828393,40.788921 9.897271,40.80042 9.988779,40.806776 9.882477,40.959298 10.007821,41.193668 10.520869,42.343803 10.596845,42.344515 10.705684,42.333868 10.605091,42.527696 10.775685,42.761972 11.342338,43.674944 11.425053,43.661188 11.550363,43.626272 11.465827,43.867539 11.688677,44.09322 12.28696,44.788912 12.379154,44.75628 12.517771,44.691196 12.460374,44.984187 12.739944,45.195992 13.354527,45.722701 13.456993,45.666876 13.604882,45.568688 13.583459,45.912961 13.922957,46.10732 14.5383,46.501983 14.651154,46.419239 14.805475,46.287112 14.825775,46.681973 15.229657,46.858315 15.826427,47.148699 15.949898,47.036339 16.10972,46.870804 16.174732,47.316702 16.651917,47.477608 17.199903,47.682877 17.330601,47.540128 17.496552,47.341344 17.608522,47.83284 18.161083,47.966971 18.633044,48.09412 18.768072,47.918027 18.936642,47.687048 19.101656,48.2123 19.715728,48.3036 20.111252,48.368834 20.24446,48.159403 20.409204,47.900536 20.628792,48.437784 21.27372,48.471056 21.620427,48.490817 21.742692,48.253023 21.895064,47.974268 22.163175,48.494216 22.795145,48.461628 23.146245,48.441568 23.249904,48.186339 23.380924,47.900536 23.683971,48.376976 24.270683,48.289812 24.667748,48.224 24.747364,47.967599 24.853484,47.687064 25.172324,48.103764 25.69752,47.976316 26.148376,47.854007 26.150327,47.847624 26.159936,47.844382 26.212928,47.607087 26.293547,47.34134 26.612978,47.691493 27.072009,47.536584 27.583667,47.34354 27.586165,47.332396 27.593971,47.328979 27.623964,47.116216 27.680406,46.870804 27.99139,47.154974 28.38985,46.980515 28.934737,46.713517 28.935919,46.7046 28.942658,46.700723 28.951552,46.511127 28.984652,46.287112 29.28189,46.505604 29.626689,46.30728 30.180328,45.949708 30.180532,45.941276 30.1866,45.936647 30.175692,45.770004 30.185252,45.568688 30.467585,45.722277 30.761974,45.497683 31.308963,45.02548 31.30799,45.015895 31.313091,45.010677 31.28491,44.867308 31.272356,44.691228 31.535454,44.783267 31.781431,44.531704 32.311239,43.910479 32.308516,43.899331 32.312176,43.894237 32.270568,43.77422 32.239762,43.626272 32.477631,43.663967 32.675843,43.388104 33.179955,42.568438 33.174799,42.555467 33.177025,42.551236 33.127026,42.452984 33.08442,42.333836 33.293714,42.329477 33.445871,42.040312 33.9086,40.993099 33.902175,40.981619 33.903255,40.978739 33.849384,40.899408 33.801352,40.806744 33.97983,40.774467 34.089316,40.482399 34.485796,39.185603 34.425283,39.115195 34.377228,39.045764 34.524004,38.997914 34.5944,38.716199 34.894861,37.154189 34.840599,37.102636 34.797884,37.054024 34.910286,37.002227 34.946151,36.752164 35.122108,34.897459 35.080864,34.864648 35.049124,34.835292 35.124104,34.791297 35.136552,34.602996 35.197038,32.623942 35.150616,32.593154 35.11448,32.566228 35.192392,32.510846 35.19262,32.288911 35.165671,30.539463 35.065811,30.487384 34.983611,30.441442 35.143722,30.302266 35.106423,29.761359 35.046801,28.805909 34.842204,28.737762 34.650532,28.67496 34.972475,28.298922 34.841965,27.504221 34.426136,27.428612 34.066924,27.37138 34.27684,27.032963 34.624234,26.437894 33.866267,26.302981 33.348684,26.217146 33.471342,26.011081 33.828256,25.393941 33.307788,25.189338 32.706528,24.952382 32.785243,24.865012 33.346461,24.255569 33.314764,24.240694 33.372015,24.170446 33.261911,24.067933 33.26913,24.064623 33.074736,23.89332 32.562828,23.429215 32.634553,23.391442 33.665163,22.884118" slic3r:type="contour"/>
  </g></svg>