<svg width="43.790126" height="63.590156" xmlns="http://www.w3.org/2000/svg" xmlns:svg="http://www.w3.org/2000/svg" xmlns:xlink="http://www.w3.org/1999/xlink" xmlns:slic3r="http://slic3r.org/namespaces/slic3r"><g xmlns="http://www.w3.org/2000/svg" slic3r:z="5.14849999999998e-005" id="layer155">
    <polygon style="fill: white" points="31.556536,17.478443 31.865784,17.437435 32.330766,17.396425 32.017046,17.84408 31.835552,18.072691 31.856575,18.117467 31.859013,18.122952 31.827787,18.148498 31.756475,18.172296 31.721128,18.21682 31.161803,18.370754 30.339298,18.645244 30.377293,18.395538 30.483196,17.871573 30.45018,17.804422 30.354512,17.573492 31.147135,16.96817 31.264542,16.856552" slic3r:type="contour"/>
    <polygon style="fill: white" points="29.16589,16.712174 29.434846,17.264968 28.804749,17.90845 28.626316,18.105574 28.240204,17.3963 27.981114,16.855856 28.476599,16.379153 28.812214,16.010854" slic3r:type="contour"/>
    <polygon style="fill: white" points="26.984439,15.871729 27.413708,16.706349 26.944593,17.233906 26.624136,17.624086 26.330138,17.100384 25.975252,16.396098 26.317942,16.015409 26.76474,15.470272" slic3r:type="contour"/>
    <polygon style="fill: white" points="25.13798,15.371997 25.67052,16.34131 25.296812,16.806379 24.906986,17.334524 24.659238,16.915076 24.245214,16.140638 24.510085,15.804976 24.997204,15.136379" slic3r:type="contour"/>
    <polygon style="fill: white" points="23.503031,15.114883 24.096679,16.127222 23.77476,16.568495 23.363356,17.186859 23.130252,16.818897 22.682126,16.03458 22.917276,15.706284 23.402942,14.959884" slic3r:type="contour"/>
    <polygon style="fill: white" points="21.983284,15.039928 22.599636,16.039071 22.299673,16.484073 21.895064,17.147302 21.65506,16.798646 21.19047,16.039079 21.428093,15.6922 21.895064,14.910179" slic3r:type="contour"/>
    <polygon style="fill: white" points="20.483617,15.094991 21.108006,16.034515 20.819358,16.499138 20.426742,17.186874 20.170989,16.842391 19.693456,16.127008 19.941215,15.746841 20.38722,14.959881" slic3r:type="contour"/>
    <polygon style="fill: white" points="18.931997,15.312871 19.544898,16.140701 19.240685,16.666163 18.883151,17.33453 18.58458,16.96828 18.119632,16.341369 18.391226,15.891011 18.792954,15.136362" slic3r:type="contour"/>
    <polygon style="fill: white" points="17.257685,15.728266 17.814877,16.396107 17.452679,17.056308 17.165984,17.624101 16.780615,17.195589 16.376418,16.70635 16.692334,16.133943 17.025386,15.470274" slic3r:type="contour"/>
    <polygon style="fill: white" points="15.382087,16.398431 15.809019,16.855848 15.32296,17.774983 15.163812,18.10557 14.620833,17.556195 14.355282,17.264976 14.745762,16.495261 14.977895,16.010863" slic3r:type="contour"/>
    <polygon style="fill: white" points="13.254637,17.408096 13.435634,17.573468 13.296269,17.868815 13.300782,17.898139 13.450787,18.645246 13.259693,18.568468 12.555705,18.340579 12.525576,18.331609 12.068966,18.216828 12.037788,18.172924 11.962228,18.148464 11.933702,18.125477 11.9311,18.123002 11.959648,18.062888 11.639114,17.611517 11.459358,17.39641 12.233836,17.485526 12.453503,17.022968 12.525586,16.856528" slic3r:type="contour"/>
  </g></svg>