<svg width="43.790126" height="63.590156" xmlns="http://www.w3.org/2000/svg" xmlns:svg="http://www.w3.org/2000/svg" xmlns:xlink="http://www.w3.org/1999/xlink" xmlns:slic3r="http://slic3r.org/namespaces/slic3r"><g xmlns="http://www.w3.org/2000/svg" slic3r:z="4.71949999999998e-005" id="layer142">
    <polygon style="fill: white" points="4.331681,38.609099 4.345071,38.641838 4.653456,38.870744 5.276338,39.268464 5.138084,39.5929 4.839388,40.137766 4.922934,40.204604 4.635226,40.81384 4.478918,41.066656 3.640889,41.076996 3.530606,41.1305 3.708403,40.612145 3.513177,40.42444 3.436799,40.360756 3.890126,40.045562 4.329108,38.629988 4.323734,38.625999 4.326418,38.611363 4.328315,38.601612 4.328316,38.601612" slic3r:type="contour"/>
    <polygon style="fill: white" points="4.91694,35.58688 5.23303,35.8502 4.649888,36.259672 4.23212,36.51886 3.684146,35.965824 3.288021,35.611316 3.707496,35.37074 4.282177,35.05662" slic3r:type="contour"/>
    <polygon style="fill: white" points="5.083079,31.174004 5.499793,31.540492 5.034895,31.835934 4.444691,32.15328 4.024725,31.687453 3.556382,31.236586 3.88177,31.070143 4.59616,30.732306" slic3r:type="contour"/>
    <polygon style="fill: white" points="5.661958,27.219513 6.033714,27.577612 5.554604,27.839491 4.940121,28.118659 4.544788,27.638095 4.128253,27.190648 4.502107,27.014303 5.198043,26.727652" slic3r:type="contour"/>
    <polygon style="fill: white" points="6.514734,23.786712 6.803915,24.11147 6.25052,24.338308 5.665663,24.553262 5.282105,24.01092 4.957423,23.57293 5.437306,23.372917 6.067214,23.165062" slic3r:type="contour"/>
    <polygon style="fill: white" points="7.55472,19.017608 8.234189,19.061436 8.469474,19.613223 8.450088,20.37524 7.584793,20.454544 7.31221,20.414193 7.66624,21.080406 7.850068,21.349004 7.329526,21.328882 6.753049,21.457807 6.283555,20.891275 6.071842,20.470092 6.677915,20.379923 7.149008,20.311489 7.137151,19.443797 7.144787,18.738622" slic3r:type="contour"/>
    <polygon style="fill: white" points="12.365165,15.27329 12.806552,15.64464 12.285623,17.098707 12.268735,17.145256 12.135817,17.042099 12.137804,17.176628 12.138962,17.224038 11.23422,17.291367 10.360883,17.359568 10.342897,17.435138 10.325539,17.436218 10.165419,18.465858 9.7367,18.415154 8.976194,18.098204 9.126584,17.549843 9.330024,16.459327 9.396053,16.477006 9.802569,16.622885 9.743277,16.176208 10.65267,16.098915 11.402831,16.027927 11.664313,15.290851 11.836866,14.908284" slic3r:type="contour"/>
    <polygon style="fill: white" points="14.432218,14.10701 15.1092,14.801092 14.776359,15.570761 14.49466,16.213772 14.083563,15.811322 13.609874,15.32944 13.907371,14.656313 14.263438,13.944301" slic3r:type="contour"/>
    <polygon style="fill: white" points="22.245616,12.919858 22.457577,13.263036 22.815284,12.736789 23.054442,12.39662 23.407544,13.050486 23.628612,13.45073 24.086983,12.845063 24.298822,12.570902 24.689932,13.359454 24.786335,13.547858 24.807562,13.547662 24.808338,13.549127 25.172478,13.537383 25.576012,13.0472 25.718548,12.871129 26.023266,13.514073 26.502979,13.489695 27.295188,13.460478 27.386031,13.35578 27.415816,13.318769 27.478897,13.453215 27.583905,13.446313 27.804466,13.435988 27.934527,14.116448 27.968873,14.434336 28.077337,14.652841 27.759021,15.012681 27.24116,15.592301 27.114941,15.317906 26.852067,14.761359 26.827836,14.762948 26.81417,14.734042 25.878484,14.778447 25.55815,15.163047 25.501993,15.047716 25.382309,14.801994 25.377271,14.802233 25.371947,14.79108 24.405904,14.810069 24.223448,14.814667 24.171858,14.882657 24.161137,14.862174 24.137827,14.816824 24.137682,14.816828 24.136909,14.815277 23.661266,14.815404 23.301234,14.240733 23.010428,14.686227 22.985282,14.723338 22.548584,13.908542 22.452428,13.729972 21.931657,14.612576 21.895064,14.673386 21.443396,13.900986 21.339307,13.727959 20.828487,14.679432 20.804844,14.723338 20.504649,14.256265 20.342983,14.515596 20.12886,14.815404 19.71265,14.816519 19.652861,14.815993 19.652446,14.816828 19.652115,14.816823 19.61827,14.882657 19.60575,14.864701 19.568687,14.815641 18.725445,14.803694 18.416291,14.795063 18.412894,14.802216 18.407835,14.802023 18.231996,15.163038 18.156339,15.066937 17.921116,14.78343 17.677226,14.774113 16.973841,14.738337 16.962302,14.762948 16.940979,14.761674 16.54899,15.592295 16.354509,15.371875 15.712783,14.652883 15.845643,14.370537 15.968419,13.619859 15.98574,13.43598 16.307934,13.454546 16.349523,13.365549 16.374301,13.318789 16.500046,13.462581 17.165306,13.49379 17.749229,13.519372 17.751701,13.514567 17.758476,13.514772 17.961518,13.085842 18.07156,12.871144 18.603398,13.516189 18.623563,13.540981 18.980353,13.55179 18.982563,13.547673 18.999227,13.547905 19.326614,12.887794 19.491312,12.570906 19.924388,13.144034 20.159794,13.45045 20.530883,12.763563 20.735686,12.396626 21.110336,12.948788 21.329475,13.263554 21.662787,12.712878 21.895064,12.340176" slic3r:type="contour"/>
    <polygon style="fill: white" points="29.669717,14.266059 30.180286,15.329484 29.607955,15.89445 29.295486,16.213771 29.066513,15.68009 28.681078,14.801058 29.03718,14.454807 29.526718,13.944299" slic3r:type="contour"/>
    <polygon style="fill: white" points="32.297597,15.863321 32.33882,15.962235 32.353154,15.961941 32.369978,16.00994 33.0565,16.058926 34.046856,16.17621 34.048372,16.339488 34.016188,16.624351 34.4601,16.459325 34.49274,16.584264 34.813952,18.09814 34.248056,18.166702 33.624712,18.465886 33.598988,18.130434 33.48711,17.4395 33.447246,17.43513 33.431263,17.360498 31.966592,17.24838 31.651136,17.224012 31.653631,17.039657 31.542346,17.127425 31.52136,17.145224 31.19332,16.221845 30.983588,15.644667 31.691824,15.139861 31.953268,14.908276" slic3r:type="contour"/>
    <polygon style="fill: white" points="36.636048,19.555771 36.639689,20.311579 37.270696,20.405402 37.718292,20.470062 37.321584,20.935845 37.037408,21.457853 36.341715,21.44226 35.94006,21.349036 36.269368,20.704841 36.486585,20.377721 35.667304,20.311086 35.340048,20.375258 35.617976,20.010644 35.556196,19.061448 36.032648,18.76495 36.645428,18.738702" slic3r:type="contour"/>
    <polygon style="fill: white" points="38.344479,23.423385 38.8327,23.572888 38.528231,24.003522 38.124512,24.553272 37.432236,24.273632 36.98622,24.111496 37.332812,23.615477 37.723007,23.165099" slic3r:type="contour"/>
    <polygon style="fill: white" points="39.128588,26.979922 39.661884,27.190644 39.383356,27.529375 38.85008,28.118632 38.219996,27.782758 37.75642,27.577632 38.101496,27.205628 38.592084,26.727652" slic3r:type="contour"/>
    <polygon style="fill: white" points="39.681883,30.981161 40.233756,31.236578 39.947692,31.552853 39.345435,32.15328 38.7347,31.77346 38.290335,31.540488 38.649895,31.212052 39.193968,30.732305" slic3r:type="contour"/>
    <polygon style="fill: white" points="40.061364,35.37306 40.502099,35.611308 40.051955,36.062456 39.558008,36.518859 38.844803,36.025159 38.557092,35.850196 39.035319,35.450376 39.507996,35.0566" slic3r:type="contour"/>
    <polygon style="fill: white" points="39.464491,38.616239 39.466392,38.626 39.461106,38.62944 39.672752,39.276452 39.907323,40.05741 40.273984,40.310728 40.353344,40.360832 40.084914,40.615256 40.184867,40.897383 40.259544,41.130515 39.544267,41.154288 39.311248,41.066636 38.867216,40.2046 38.967709,40.12332 38.513784,39.268416 38.803907,39.0571 39.444744,38.640087 39.459596,38.607031 39.461808,38.601612" slic3r:type="contour"/>
  </g></svg>