<svg width="43.790126" height="63.590156" xmlns="http://www.w3.org/2000/svg" xmlns:svg="http://www.w3.org/2000/svg" xmlns:xlink="http://www.w3.org/1999/xlink" xmlns:slic3r="http://slic3r.org/namespaces/slic3r"><g xmlns="http://www.w3.org/2000/svg" slic3r:z="2.11249999999999e-005" id="layer63">
    <polygon style="fill: white" points="17.809734,3.75826 18.117061,4.181398 18.370695,4.147538 18.3653,4.129712 18.623292,4.109323 18.592904,3.920477 18.760665,4.098466 18.906468,4.086944 19.185516,4.130126 18.934898,4.428017 19.157772,4.945586 19.302702,4.967578 19.570517,5.051834 19.278792,5.265516 19.372704,5.524961 19.488061,5.545975 19.663895,5.621307 19.598998,5.155566 19.698716,5.633916 19.776749,5.649799 19.705,5.667288 19.726363,5.823059 19.88782,5.841633 19.770693,5.935352 19.796276,6.003193 20.043079,5.991737 20.104608,5.923896 20.166666,5.904577 20.204682,5.982526 20.259695,5.984812 20.895363,5.982902 20.917013,5.953016 20.937326,5.939645 20.962364,5.982154 21.00492,5.982535 21.850776,5.982717 21.873572,5.949804 21.895064,5.933434 21.925186,5.982172 21.971351,5.981757 22.817473,5.981669 22.835594,5.953762 22.8528,5.939645 22.878969,5.980566 22.922109,5.978803 23.590492,5.977654 23.612783,5.931393 23.623446,5.904577 23.674104,5.976376 23.787995,5.962933 24.039036,5.958509 23.902342,5.841624 24.068715,5.819548 24.087952,5.662609 24.013402,5.649806 24.090675,5.635178 24.191125,5.155582 24.191126,5.155582 24.137282,5.626583 24.356242,5.580235 24.398292,5.570415 24.448303,5.424552 24.524042,5.215152 24.438135,5.146675 24.219612,5.051806 24.609092,4.980009 24.61476,4.964337 24.623548,4.962559 24.657904,4.881381 24.882431,4.360549 24.792526,4.241438 24.6046,4.130098 24.981854,4.129918 24.994124,4.101454 25.023965,4.105141 25.197188,3.920466 25.259413,4.129785 25.424856,4.129706 25.42568,4.154785 25.664884,4.184346 25.979488,3.732784 26.179233,3.466349 26.635988,3.931664 26.754905,4.09267 27.543984,3.986547 27.566376,4.029283 27.609742,4.007832 27.616448,4.030705 27.636154,4.139477 27.642692,4.149895 27.714714,4.467407 27.781595,4.672932 27.994396,5.004506 28.289545,4.851766 28.738945,4.686571 28.822662,5.151091 28.836293,5.454825 29.295437,5.557456 29.50564,5.453291 29.530747,5.459072 29.711925,5.358553 29.83136,5.310305 29.877996,5.53902 30.050612,5.578763 30.391503,5.556402 30.578168,5.817481 30.748993,5.937482 30.949184,5.804487 30.992122,5.930768 31.038309,6.140721 31.056102,6.15322 31.057565,6.158154 31.288933,6.271397 31.825188,6.451717 32.175158,6.169512 32.253882,6.372948 32.333069,6.622927 32.477997,6.662786 33.076006,6.797949 33.109715,6.772226 33.177874,6.794951 33.503434,6.544834 33.568172,6.741255 33.629162,6.94541 33.996591,7.06791 34.453026,7.207501 34.531448,7.162643 34.575971,7.190346 34.8354,7.041356 34.866744,7.213225 34.897991,7.390723 35.367195,7.682682 35.690333,7.871859 35.801256,7.838368 35.819631,7.860912 36.089344,7.783198 36.079996,7.97025 36.072525,8.171172 36.36356,8.528226 36.637425,8.850479 36.7374,8.84126 36.748725,8.86222 37.150608,8.828939 37.072499,9.098813 37.017011,9.297133 37.02596,9.307663 37.010351,9.346426 37.081788,9.478639 37.354047,9.976255 37.43248,9.977954 37.441408,9.99856 37.491152,9.999083 38.031948,10.014059 37.864211,10.381976 37.734353,10.671353 37.761776,10.721474 37.757073,10.729815 37.935511,11.146004 37.975236,11.14862 37.985265,11.173052 38.416752,11.202408 38.77572,11.230987 38.524144,11.688242 38.41039,11.895737 38.47836,11.961107 38.471911,11.97373 38.690647,12.264391 38.82822,12.279751 38.853064,12.318444 39.177528,12.344341 39.394976,12.361794 39.151419,12.783104 39.405296,13.178493 39.465775,13.259818 39.570756,13.275352 39.588085,13.306237 39.789636,13.327224 39.929272,13.341951 39.761566,13.615427 39.906647,13.874002 40.187281,14.305956 40.247152,14.320123 40.25667,14.339677 40.350159,14.355935 40.419316,14.368757 40.331597,14.493614 40.394115,14.622057 40.68804,15.085664 40.791163,15.516149 40.80325,15.566613 40.857908,15.58642 40.835748,15.611087 40.818627,15.630818 40.822728,15.647936 40.809971,15.663224 40.847812,16.671474 40.869888,17.071257 40.882684,17.076052 40.877876,17.107762 41.194984,17.251818 41.023239,17.373944 40.892945,17.488773 40.90178,17.648768 40.776966,17.773351 40.762483,17.868872 40.70749,18.293677 41.081208,18.858554 41.370271,19.831088 41.472068,19.891552 41.404837,19.947384 41.412244,19.972304 41.373815,20.007626 41.452496,20.174025 41.509972,20.4426 41.066424,21.19694 40.831285,21.383953 40.934548,21.790841 41.023486,23.065167 41.104992,23.096336 41.030044,23.15915 41.031468,23.179538 41.015748,23.19082 41.03602,23.307408 41.057348,23.522848 40.707334,23.412671 40.413349,23.627178 40.415828,23.683874 40.358435,23.724212 40.426228,24.25866 40.549652,25.213098 40.053527,24.66099 39.985315,24.69553 39.999191,24.762137 40.258578,25.956393 40.348928,25.984864 40.265819,26.023076 40.280472,26.113258 40.330616,26.216464 40.190936,26.089598 40.124533,26.142357 40.146999,26.182581 40.360712,26.719156 40.179754,26.900064 40.600408,27.723962 40.580448,28.006808 40.474151,28.122237 40.558503,28.203756 40.509983,28.524214 40.847579,28.518338 40.661392,28.762472 40.631741,28.894718 40.861664,29.226806 40.850913,29.255515 40.990884,29.353 41.218636,29.692154 41.220256,30.456501 41.048071,30.784517 41.154364,30.905585 41.115174,31.088225 41.587915,31.568407 41.87362,31.739324 41.674475,31.967752 41.838912,32.184128 41.831906,32.200191 41.938124,32.258862 42.051632,32.398016 41.893244,33.224411 41.599398,33.713304 41.716396,33.895032 41.651622,34.005287 41.86853,34.364714 42.004684,34.434164 42.581868,35.142088 42.542872,35.284695 42.481467,35.38038 42.504368,35.418328 42.473725,35.468608 42.653932,35.800667 42.474515,35.972832 42.003728,36.921121 42.22822,37.206264 42.204322,37.243849 42.561179,37.454243 42.771796,37.662431 42.410188,38.201115 41.844551,38.742344 41.921027,39.047188 41.887185,39.077204 42.015372,39.595331 42.288784,39.781336 42.760804,40.289263 42.590083,40.519972 42.306323,40.771338 42.34196,40.915379 42.30917,40.943292 42.649436,42.184344 42.058969,42.711573 42.142871,42.808538 42.478076,43.076996 42.570348,43.156752 41.955272,43.662031 41.458676,44.00708 40.768284,43.364204 40.530728,43.17146 41.220447,42.690148 41.257035,42.663822 40.978392,42.041988 40.715336,40.898587 40.777064,40.797972 40.824472,40.732825 40.860744,40.649683 40.734444,40.573248 40.788156,40.524075 41.033643,40.253373 41.22722,39.809667 41.620147,39.052402 41.57032,39.013832 41.642168,38.799031 41.687654,38.667518 41.214292,38.274416 40.767188,38.028128 41.191711,37.632464 41.44654,37.341797 41.406376,37.2392 41.546362,36.986373 41.130684,36.503364 40.829141,35.829823 40.712432,35.743076 40.635348,35.70222 40.730731,35.610008 40.721676,35.589784 40.741626,35.54959 40.676948,35.49116 40.593188,35.354979 40.840127,34.605868 41.067707,34.144908 40.906896,34.037088 40.998736,33.634899 41.009141,33.594799 40.60002,33.312 40.1759,33.123418 40.423051,32.702258 40.33094,32.597918 40.359845,32.453369 40.176543,32.358427 39.915624,32.121222 40.053772,31.622226 40.190221,31.365842 40.023728,31.25264 40.096296,30.724111 39.844956,30.533544 39.317504,30.272036 39.482081,29.827446 39.35694,29.735054 39.368676,29.609961 39.267444,29.568234 39.060528,29.424813 39.205876,28.898011 39.289921,28.731112 39.141936,28.609524 39.228204,28.235077 39.27673,28.029834 39.194059,27.982073 39.178131,27.924993 38.308888,26.921764 38.285396,26.899508 38.29562,26.884544 38.579814,25.657301 38.264567,24.6346 37.912244,24.496894 38.114924,24.257093 38.139739,24.229643 38.112692,24.141896 38.179539,24.083665 37.873331,22.90099 38.439039,22.873104 38.581503,22.807351 38.467091,22.114036 38.057892,22.02186 38.359599,21.745214 38.400357,21.709642 38.393848,21.67019 38.444977,21.60903 38.320543,21.16731 38.320544,21.16731 38.498728,21.335106 38.636394,21.380063 38.813152,21.16863 38.966942,21.031233 38.958624,20.964094 39.022511,20.867255 38.839824,20.110568 39.126972,20.390374 39.313246,20.476444 39.493779,20.318127 39.490524,20.297287 39.513482,20.220153 39.266008,19.306894 39.608336,19.542526 39.791774,19.594163 39.46116,18.798534 39.805115,18.67562 40.041718,18.49702 39.34286,17.60685 39.328924,17.600094 39.314289,17.579151 39.270508,17.568614 39.298328,17.556312 39.252792,17.49115 39.249235,16.283266 39.069032,16.218894 38.872704,16.175619 39.123056,15.90225 39.221358,15.77181 39.10424,15.285785 38.786271,15.210298 38.472364,15.161371 38.619711,14.950897 38.912261,14.484414 38.875191,14.385981 38.419272,14.312682 38.026712,14.270452 38.107855,14.129575 38.462305,13.483924 38.364315,13.432742 37.960548,13.376013 37.502128,13.330773 37.529471,13.279063 37.662438,13.027179 37.243376,12.856301 36.984142,12.228187 36.931652,12.223425 36.874208,12.217121 36.934647,12.112134 36.878375,11.988443 36.470534,11.11276 36.334675,11.108567 36.173427,11.09385 36.309901,10.810551 36.139471,10.516821 35.878115,10.097077 35.695664,10.115221 35.452452,10.111624 35.573837,9.713575 35.322256,9.43 35.163799,9.275719 34.989496,9.33151 34.750136,9.375462 34.775566,9.011461 34.536084,8.874393 34.183052,8.729911 34.04988,8.803385 33.932292,8.853187 33.898181,8.643371 33.747104,8.596489 32.870775,8.425878 32.869657,8.42266 32.011455,7.991168 31.828614,7.902166 31.61553,8.073166 31.584599,7.989516 31.52256,7.817925 30.776539,7.58004 30.535794,7.497289 30.495408,7.521088 30.458174,7.512517 30.260352,7.668264 30.23613,7.583942 30.195253,7.451992 29.299866,7.245869 29.013538,7.045033 28.961672,7.069546 28.934098,7.085108 28.923367,6.981786 28.910034,6.972434 28.894059,6.898834 28.283406,6.175483 27.964104,6.320621 27.744874,6.431912 27.71978,5.959832 27.673173,5.54386 27.372127,5.479875 27.18749,5.590054 26.763792,5.862011 26.73107,5.61907 26.695145,5.436586 26.530332,5.429735 26.474948,5.469823 26.513814,5.631855 26.449343,5.610254 26.386168,5.727379 26.4732,5.867619 26.353373,5.88311 26.298003,5.89083 26.288424,5.908591 26.279634,5.909648 26.179164,6.114892 26.127604,6.222249 26.134633,6.231456 26.125745,6.241705 26.230206,6.459785 26.069128,6.475389 26.002831,6.482046 25.992858,6.502812 25.888454,6.515317 25.77036,6.651488 25.692539,6.745597 25.729136,7.16576 25.510172,7.110851 25.408394,7.089211 25.366084,7.140378 25.198569,7.089006 25.163417,7.106913 25.004575,7.175356 24.992218,7.256077 24.976562,7.25848 24.87862,7.650037 24.651315,7.479154 24.520588,7.3839 24.36834,7.449502 24.235899,7.337146 24.214499,7.391825 24.13544,7.39437 23.91343,7.854578 23.686135,7.594343 23.564723,7.450511 23.408564,7.470254 23.371822,7.42302 23.303338,7.42594 23.293378,7.445031 23.190563,7.445149 23.175621,7.468593 22.902542,7.907951 22.692164,7.610976 22.585242,7.456545 22.481358,7.460974 22.474078,7.448605 22.289324,7.450058 22.28596,7.456231 22.191631,7.456131 21.895064,7.905647 21.695729,7.604826 21.59714,7.4555 21.504166,7.456231 21.502406,7.452987 21.314305,7.451499 21.308754,7.460974 21.198403,7.457354 21.180364,7.483032 20.887568,7.907951 20.689836,7.601034 20.592752,7.445791 20.496736,7.445031 20.489053,7.430491 20.414943,7.427355 20.381458,7.470252 20.218844,7.446067 19.876696,7.854575 19.708592,7.545137 19.634283,7.394318 19.575633,7.391836 19.55522,7.343509 19.421682,7.449558 19.283134,7.380947 18.911506,7.650039 18.820113,7.363043 18.759513,7.130478 18.687084,7.098409 18.424134,7.140404 18.387964,7.098267 18.060984,7.165751 18.081069,6.932512 18.096221,6.758393 17.998334,6.644359 17.888948,6.512588 17.79732,6.502812 17.787538,6.482778 17.559938,6.459784 17.631796,6.327379 17.669948,6.248773 17.655512,6.231383 17.661304,6.224233 17.558888,6.014471 17.508376,5.909377 17.501698,5.908577 17.500457,5.893497 17.316956,5.86764 17.375461,5.774447 17.413836,5.712679 17.401134,5.686252 17.418574,5.664475 17.378788,5.603886 17.276312,5.631868 17.308362,5.465168 17.10683,5.4698 17.026334,5.862014 16.770933,5.713557 16.406784,5.48589 16.348158,5.487238 16.129254,5.535404 16.081009,6.144914 16.045244,6.43192 15.558272,6.219312 15.476038,6.179245 15.244278,6.445434 14.901221,6.882224 14.88009,6.972436 14.869581,6.979986 14.861031,7.052429 14.856028,7.08511 14.773969,7.048672 14.73337,7.077838 14.490254,7.24587 13.728419,7.415555 13.600441,7.446693 13.529741,7.668267 13.452668,7.619454 13.31324,7.516569 13.294702,7.521079 13.243562,7.492489 12.524493,7.722397 12.268524,7.81035 12.174569,8.073165 12.104198,8.01952 11.960413,7.90598 10.920284,8.422817 10.919443,8.425679 9.874946,8.666934 9.863064,8.750803 9.85783,8.853181 9.668202,8.738438 9.465278,8.854242 8.990819,9.069382 9.000217,9.168425 9.040008,9.375431 8.698071,9.250565 8.467594,9.51384 8.201517,9.774985 8.245669,9.908396 8.337672,10.111634 7.948976,10.065884 7.780753,10.359451 7.47752,10.839096 7.537209,10.959026 7.616695,11.093841 7.328216,11.101474 7.234678,11.308036 6.854743,12.117239 6.884876,12.168806 6.915918,12.217121 6.80597,12.227008 6.776476,12.297617 6.546838,12.856165 6.272976,13.010934 6.144531,13.058618 6.288021,13.330767 6.220686,13.340764 5.40809,13.441319 5.330998,13.481624 5.563449,13.892931 5.7634,14.270518 5.575067,14.302856 4.838964,14.405079 5.137779,14.852069 5.317732,15.161389 5.014709,15.238768 4.629109,15.317266 4.538171,15.683307 4.783878,15.976615 4.917424,16.175618 4.511828,16.33346 4.496392,16.617085 4.537361,17.491028 4.49647,17.538394 4.519616,17.568608 4.50912,17.58004 4.435406,17.618536 3.884682,18.286744 3.828592,18.361189 4.328961,18.798574 4.114935,19.256928 4.038598,19.449033 4.524129,19.306926 4.387212,19.931164 4.284133,20.278791 4.299605,20.297288 4.283905,20.448521 4.950305,20.110584 4.864294,20.646873 4.787289,20.921342 4.831504,20.964114 4.822101,21.126039 4.848617,21.155114 5.023182,21.319285 5.469607,21.167338 5.415698,21.50232 5.367242,21.642861 5.396301,21.67019 5.392181,21.718442 5.732248,22.02186 5.360308,22.091763 5.30903,22.692374 5.669241,22.750199 5.916796,22.901 5.764155,23.813478 5.655713,24.123551 5.677435,24.141916 5.651561,24.244353 5.877892,24.496902 5.556404,24.621088 5.421043,25.156992 5.33371,25.41816 5.41659,25.593845 5.496564,26.887282 5.502804,26.896873 4.905321,27.984546 4.562581,28.244838 4.648211,28.60956 4.458261,28.852156 4.729632,29.4247 4.439065,29.542224 4.433135,29.735052 4.361349,29.777727 4.432636,29.951172 4.472586,30.272149 4.028604,30.77285 3.697964,30.927149 3.766432,31.252608 3.540738,31.467755 3.874485,32.121316 3.436803,32.353534 3.459258,32.597897 3.403198,32.646269 3.513115,32.829295 3.614258,33.12329 3.219449,33.492931 2.797779,33.690707 2.883315,34.036996 2.693129,34.189813 2.998336,34.925487 3.196952,35.35484 3.038697,35.51071 3.075104,35.607455 3.111857,35.643856 3.154779,35.702188 2.792962,36.020059 2.232312,36.895917 2.38379,37.239259 2.355176,37.290763 2.727897,37.642668 3.022936,38.028152 2.744556,38.298952 2.109259,38.690328 2.219772,39.01384 2.161393,39.060672 2.644042,40.062696 3.055679,40.573216 3.023082,40.608468 2.935375,40.66753 2.954389,40.707007 2.945362,40.714976 3.07479,40.898572 2.861352,41.459036 2.472893,42.614079 3.031646,43.004688 3.259415,43.171448 2.827004,43.590312 2.331451,44.00708 1.352504,43.24792 1.219777,43.156752 1.633303,42.830347 1.34661,42.577531 1.140689,42.184308 1.328142,41.373995 1.462739,40.92705 1.448104,40.915347 1.491945,40.694791 1.029323,40.289268 1.257743,40.147116 1.716106,39.713832 1.894588,39.068436 1.869069,39.04718 1.909262,38.843628 1.941341,38.728083 1.298854,37.924988 1.018325,37.662356 1.547591,37.3902 1.615307,37.332847 1.561898,37.20628 1.728549,37.039701 1.374892,36.665888 1.136169,35.800839 1.233123,35.537996 1.298955,35.436228 1.28579,35.418311 1.324207,35.327548 1.208274,35.141952 1.322019,35.094748 1.487236,34.942375 1.708649,34.419264 2.100986,33.933174 2.073792,33.89496 2.19692,33.581755 1.843493,32.565103 1.738538,32.397798 1.972284,32.281571 1.951087,32.184084 1.98432,32.152917 1.912626,32.039856 1.916422,31.739577 2.334888,31.102441 2.63017,30.918266 2.835827,30.455395 2.741284,29.964215 2.571488,29.692142 2.948019,29.395478 2.928474,29.22681 2.958866,29.194191 2.883876,29.056595 2.942567,28.518234 3.114626,28.252754 3.232722,28.200477 3.36649,27.8231 3.189701,27.72398 3.58322,27.195381 3.429411,26.719208 3.612078,26.320375 3.459523,26.21643 3.517545,26.016752 3.441202,25.98487 3.53335,25.946207 3.60314,25.615163 3.816586,24.611774 3.74934,24.576703 3.682393,24.6483 3.240469,25.213146 3.429963,23.732605 3.374295,23.683848 3.380358,23.63966 3.261608,23.555353 3.002076,23.361417 2.822771,23.418912 2.732793,23.523078 2.778638,23.194453 2.758683,23.179541 2.76288,23.154931 2.685118,23.096294 2.778429,23.063791 3.068674,21.362339 2.464859,20.58587 2.280161,20.442516 2.442028,20.024082 2.37787,19.972301 2.387172,19.95142 2.318061,19.891568 2.450719,19.808792 3.087171,18.380274 3.002132,17.763054 2.888348,17.648768 2.893675,17.530147 2.595144,17.251818 2.793499,17.150638 2.910281,17.096388 2.907474,17.076015 2.914175,17.073642 2.967662,15.882559 2.97895,15.661932 2.967403,15.647933 2.971264,15.631813 2.932221,15.586418 2.986273,15.569152 3.102085,15.085662 3.44861,14.483904 3.406746,14.423014 3.370809,14.368753 3.530161,14.342288 3.54291,14.320148 3.582236,14.310984 3.687823,14.125437 4.015084,13.602074 3.925975,13.453891 3.86085,13.341914 4.199615,13.306968 4.219403,13.275322 4.281931,13.266147 4.532866,12.880642 4.622336,12.755299 4.492309,12.530246 4.395116,12.361815 4.933778,12.31898 4.961799,12.279724 5.061516,12.268731 5.366461,11.872496 5.16034,11.49725 5.014427,11.230965 5.508317,11.201897 5.802838,11.178784 5.814859,11.148643 5.856068,11.146021 6.034012,10.731644 6.028318,10.721284 6.054503,10.672992 5.936076,10.411488 5.758205,10.014011 6.13154,10.015321 6.343974,10.009836 6.357686,9.977905 6.432327,9.976891 6.777881,9.344299 6.764172,9.30767 6.770315,9.300202 6.639507,8.828959 6.889855,8.860815 7.035122,8.87338 7.05265,8.841292 7.139829,8.850981 7.426252,8.502775 7.713672,8.163359 7.700749,7.78323 7.859481,7.837257 7.963797,7.867983 7.988858,7.838388 8.079809,7.870796 8.618804,7.536036 8.896718,7.373878 8.954689,7.041382 9.094173,7.124866 9.209298,7.191492 9.258741,7.162642 9.319084,7.200125 9.806127,7.035784 10.173295,6.925095 10.174647,6.919912 10.178265,6.918908 10.286713,6.544832 10.440409,6.667454 10.604961,6.794964 10.680444,6.772209 10.687308,6.777667 11.016612,6.686296 11.494123,6.581694 11.614963,6.16951 11.76612,6.302865 11.911864,6.422979 12.377796,6.219299 12.795279,6.079114 12.840925,5.80448 12.928909,5.87657 12.992521,5.921095 13.398653,5.556382 13.94809,5.492441 13.96266,5.403926 13.958766,5.310307 14.203578,5.462708 14.284479,5.453293 14.322559,5.473903 15.01751,5.359683 15.067072,5.03335 15.05118,4.686554 15.332784,4.851929 15.709198,5.006975 16.141877,4.175932 16.14747,4.149736 16.170521,4.111589 16.180386,4.007823 16.21746,4.033905 16.246065,3.986567 17.171845,4.039835 17.230343,3.958612 17.242147,3.966015 17.505486,3.697873 17.610902,3.466348" slic3r:type="contour"/>
    <polygon style="fill: black" points="3.309883,22.800016 3.352872,22.863694 3.493548,22.814692 3.512534,22.676322 3.444925,22.645532" slic3r:type="hole"/>
    <polygon style="fill: white" points="41.725147,46.091567 42.156504,46.471928 41.862148,46.756687 41.295627,47.137898 41.387624,47.27282 41.94754,47.87194 41.623155,48.021008 40.822732,48.370664 40.470112,47.858064 40.009208,47.16822 40.137715,47.098972 40.637308,46.963391 40.097636,46.574268 40.307952,46.389511 41.239664,45.604388" slic3r:type="contour"/>
    <polygon style="fill: white" points="40.986359,50.379979 41.296132,50.78556 40.764148,50.922936 40.124579,51.153784 39.699484,50.5243 39.380516,49.942832 39.691399,49.827268 40.538072,49.65678" slic3r:type="contour"/>
    <polygon style="fill: white" points="40.342839,52.731671 40.531192,53.044976 39.928856,53.075655 39.329424,53.196164 38.932747,52.496708 38.70042,51.961404 39.099788,51.883292 39.912784,51.831352" slic3r:type="contour"/>
    <polygon style="fill: white" points="38.267456,53.624628 39.089288,53.695268 39.394555,54.669059 39.518048,54.97232 38.914467,54.890912 38.30398,54.904592 38.008043,54.164151 37.846204,53.623988" slic3r:type="contour"/>
    <polygon style="fill: white" points="37.141491,55.113927 37.971588,55.317623 38.112188,56.284348 38.182088,56.624164 37.617316,56.444976 36.985856,56.336696 36.826644,55.586943 36.74346,55.031524" slic3r:type="contour"/>
    <polygon style="fill: white" points="35.677299,56.415175 36.471552,56.731804 36.469412,57.663804 36.485032,58.033916 35.953672,57.785696 35.331256,57.561048 35.304292,56.813015 35.299504,56.268916" slic3r:type="contour"/>
    <polygon style="fill: white" points="33.939452,57.536516 34.684768,57.933724 34.577664,58.816983 34.544468,59.212276 34.04988,58.916264 33.448552,58.604632 33.518969,57.877068 33.578284,57.34496" slic3r:type="contour"/>
    <polygon style="fill: white" points="32.013939,58.472931 32.71478,58.934268 32.532324,59.762587 32.45462,60.18326 31.999634,59.855724 31.41849,59.475728 31.55749,58.781591 31.672662,58.251692" slic3r:type="contour"/>
    <polygon style="fill: white" points="29.993065,59.223007 30.661046,59.745208 30.427299,60.512624 30.307186,60.964332 29.896333,60.620995 29.326894,60.180188 29.510097,59.531736 29.680374,58.989064" slic3r:type="contour"/>
    <polygon style="fill: white" points="27.972294,59.787616 28.624998,60.384087 28.35806,61.078211 28.18552,61.570363 27.829197,61.225523 27.262314,60.71898 27.472633,60.130844 27.70611,59.55866" slic3r:type="contour"/>
    <polygon style="fill: white" points="25.968606,60.174984 26.606032,60.855196 26.314093,61.475504 26.078256,62.00262 25.775482,61.661964 25.220212,61.083 25.455181,60.556664 25.755554,59.960148" slic3r:type="contour"/>
    <polygon style="fill: white" points="23.98756,60.397536 24.599782,61.159139 24.286312,61.715971 23.982682,62.260164 23.724828,61.92224 23.197998,61.274324 23.459388,60.800691 23.821525,60.197127" slic3r:type="contour"/>
    <polygon style="fill: white" points="3.103327,46.091903 3.692501,46.57426 3.588135,46.701991 3.165526,47.037602 3.780921,47.168172 3.662481,47.340423 2.967411,48.370664 2.421545,48.121303 1.842587,47.871952 2.019853,47.579048 2.485107,47.071706 2.336746,46.942648 1.633629,46.471948 1.947555,46.15464 2.550491,45.604375" slic3r:type="contour"/>
    <polygon style="fill: white" points="3.85388,49.860048 4.409613,49.942828 4.175196,50.287708 3.665548,51.153784 2.887883,50.935728 2.493995,50.78556 2.771464,50.295303 3.252014,49.656788" slic3r:type="contour"/>
    <polygon style="fill: white" points="4.589282,51.95384 5.089681,51.961344 4.855725,52.367487 4.460719,53.1961 3.567707,53.113939 3.258962,53.045032 3.52255,52.431012 3.877386,51.831404" slic3r:type="contour"/>
    <polygon style="fill: white" points="5.769904,54.050344 5.48608,54.904556 4.572653,54.98412 4.272106,54.97236 4.456405,54.306104 4.700788,53.695364 5.442029,53.684215 5.943905,53.623968" slic3r:type="contour"/>
    <polygon style="fill: white" points="6.954442,55.45346 6.804209,56.336656 5.940022,56.57114 5.608036,56.624172 5.689019,55.961519 5.818505,55.317632 6.528896,55.166367 7.046657,55.031524" slic3r:type="contour"/>
    <polygon style="fill: white" points="8.474103,56.694104 8.458891,57.561091 7.656148,57.910056 7.305116,58.033916 7.293441,57.389415 7.31861,56.73186 7.986877,56.471964 8.490636,56.268924" slic3r:type="contour"/>
    <polygon style="fill: white" points="10.251757,57.764547 10.341564,58.604592 9.605762,59.027952 9.245661,59.212276 9.163382,58.596043 9.105324,57.933751 9.733029,57.600608 10.211854,57.344972" slic3r:type="contour"/>
    <polygon style="fill: white" points="12.197117,58.653844 12.371609,59.475704 11.702679,59.945204 11.335537,60.18326 11.201187,59.601924 11.075315,58.934284 11.662151,58.552979 12.117446,58.251688" slic3r:type="contour"/>
    <polygon style="fill: white" points="14.212616,59.358467 14.463189,60.1802 13.861976,60.67294 13.482958,60.964336 13.312903,60.425615 13.129065,59.745208 13.671629,59.336708 14.109751,58.989064" slic3r:type="contour"/>
    <polygon style="fill: white" points="16.195766,59.87714 16.527813,60.719007 16.003036,61.216788 15.604607,61.570364 15.414299,61.087263 15.165157,60.384048 15.648818,59.964471 16.084009,59.558659" slic3r:type="contour"/>
    <polygon style="fill: white" points="18.150928,60.225236 18.56993,61.082976 18.119823,61.579944 17.71184,62.00262 17.508696,61.576716 17.184142,60.855267 17.600993,60.431568 18.034604,59.960156" slic3r:type="contour"/>
    <polygon style="fill: white" points="20.089388,60.418548 20.592108,61.274432 20.205864,61.772763 19.807444,62.260184 19.594448,61.88278 19.190362,61.159143 19.542691,60.732036 19.968602,60.197132" slic3r:type="contour"/>
    <polygon style="fill: white" points="22.02842,60.471884 22.599316,61.29794 22.259701,61.811536 21.895064,62.344876 21.668284,61.998611 21.190792,61.297952 21.488032,60.859299 21.895064,60.274404" slic3r:type="contour"/>
  </g></svg>