<svg width="43.790126" height="63.590156" xmlns="http://www.w3.org/2000/svg" xmlns:svg="http://www.w3.org/2000/svg" xmlns:xlink="http://www.w3.org/1999/xlink" xmlns:slic3r="http://slic3r.org/namespaces/slic3r"><g xmlns="http://www.w3.org/2000/svg" slic3r:z="6.935e-006" id="layer20">
    <polygon style="fill: white" points="36.106212,21.935818 36.5553,22.372184 36.197608,22.519397 35.579906,22.812456 35.560278,23.210229 36.289488,23.743578 36.055568,23.873561 35.551486,24.188428 35.547878,24.338272 35.646535,24.367847 36.40446,24.69368 36.151139,24.967612 35.667418,25.448637 36.377556,25.623068 36.799224,25.754332 36.441988,26.2791 36.18608,26.606943 36.710689,26.842322 37.260276,26.976042 37.235166,27.077642 37.309024,27.110779 37.2834,27.143113 37.223807,27.203764 37.22176,27.220369 37.199083,27.251653 37.082008,27.967869 37.016269,28.485676 37.288876,28.646444 37.766008,28.894245 37.471852,29.172179 36.840711,29.736199 36.812992,30.096763 36.318099,29.388718 36.277516,29.366178 35.67588,29.08231 35.745224,29.020169 35.854022,28.92485 35.588152,28.746354 35.736263,27.756806 35.500383,27.662661 35.287444,27.613826 35.709535,27.158304 35.854512,26.966773 35.8806,26.792476 35.93782,26.726085 35.302035,26.48096 34.788056,26.381738 34.990528,26.172847 35.385526,25.606813 35.340562,25.532857 35.06262,25.401608 34.309056,25.111398 34.365044,25.068344 34.783278,24.616239 34.570184,24.265742 34.23743,23.722401 34.159299,23.657681 34.16272,23.655547 34.433738,23.483505 34.822399,23.1902 35.183599,22.757236 35.049359,22.654669 34.511568,22.02234 34.693988,21.910548 35.626056,21.50837" slic3r:type="contour"/>
    <polygon style="fill: white" points="36.064872,17.61682 36.133275,17.745411 36.269544,17.814236 36.828772,18.095526 36.689964,18.257726 36.507229,18.448408 36.90756,19.200992 36.406869,20.021987 36.705284,20.281558 36.881696,20.438556 36.281316,20.763153 35.751656,21.055358 35.147823,20.596463 34.872256,20.29401 35.492916,19.857179 35.270899,19.421119 34.915924,19.021972 35.083588,18.895391 35.240644,18.589877 34.861288,18.365706 35.029439,18.170814 35.613783,17.616749 35.633724,17.517966 35.66884,17.564545 35.705796,17.529504 35.8081,17.581175 35.863924,17.530459 35.900056,17.50536" slic3r:type="contour"/>
    <polygon style="fill: white" points="22.061032,0.789883 22.49667,1.384254 22.856979,0.997033 23.197952,0.637508 23.330368,0.876285 23.680385,1.496946 23.7318,1.505018 24.102302,1.19653 24.499308,0.881994 24.596906,1.124932 24.861654,1.785812 24.942708,1.811329 25.339528,1.561366 25.783676,1.30994 25.849941,1.563702 26.027765,2.299498 26.081775,2.327956 26.569987,2.10528 27.032688,1.93481 27.069409,2.221266 27.13984,3.051375 27.798548,2.854247 28.224366,2.766265 28.224506,3.121592 28.167585,3.940255 28.278266,3.931294 28.316359,3.971177 29.015193,3.854463 29.369584,3.826767 29.315864,4.264306 29.187867,4.883634 29.416127,5.12262 29.682786,5.128558 29.706334,5.160912 30.211451,5.129368 30.489211,5.135609 30.372835,5.644216 30.276466,5.944263 30.781462,6.638118 31.006945,6.661909 31.021505,6.688146 31.391673,6.694434 31.614622,6.717598 31.444428,7.265768 31.400758,7.371571 31.961798,8.382581 32.027656,8.486725 32.245024,8.525282 32.253711,8.547159 32.572568,8.573627 32.786816,8.611535 32.591798,9.150447 32.537438,9.261721 33.041852,10.532077 33.291926,10.593425 33.296262,10.611748 33.683755,10.668829 33.973008,10.740451 33.798287,11.184805 33.542137,11.650757 33.741084,12.491462 33.996474,12.770711 34.029294,12.781047 34.655484,12.92009 35.141684,13.073547 35.046964,13.299664 34.822676,13.674095 34.854939,13.709372 34.849466,13.72049 35.793028,14.605354 35.830386,15.445248 36.070599,15.533519 36.198408,15.581222 35.844904,16.155799 35.81254,16.197743 35.74595,16.29975 35.579176,17.108982 35.001996,16.577728 34.669859,16.319257 34.369072,16.216261 34.295728,16.189302 34.391336,16.056923 34.273823,15.955235 34.149348,15.839362 34.119835,14.882275 34.074013,14.07625 34.050427,13.995038 33.820656,13.937092 33.295364,13.838163 33.512258,13.475171 33.772834,13.001874 33.729044,12.960554 33.761301,12.892994 33.658117,12.470567 32.916956,11.780788 32.874927,11.728223 32.41803,11.642152 32.17549,11.61541 32.429642,11.171318 32.390762,11.122691 32.456386,10.980347 31.895868,10.309059 31.459637,9.624405 31.202961,9.591922 31.04392,9.584797 31.220133,9.248508 31.192814,9.205631 31.228143,9.122975 30.780297,8.483927 30.401914,7.81171 30.129438,7.796104 29.941642,7.800057 30.14412,7.353726 30.11187,7.296432 30.137589,7.227239 29.557115,6.375742 29.521551,6.313022 29.174398,6.322569 28.911948,6.349417 29.101879,5.827852 29.151814,5.660958 29.109234,5.585865 29.127357,5.523368 28.780017,5.056185 28.282712,5.123921 27.928584,5.197424 28.043549,4.747181 28.151862,4.187899 28.096692,4.100286 28.101749,4.072907 28.005002,4.021557 27.976883,4.004458 27.408556,4.160676 26.970374,4.309008 27.017128,3.936119 27.050761,3.44134 26.780116,3.276777 26.505035,3.399404 26.012482,3.641496 26.005568,3.333437 25.975044,2.90189 25.634202,2.738793 25.512872,2.816912 25.022892,3.148141 24.972095,2.872761 24.884393,2.461094 24.531825,2.339164 24.452277,2.408518 24.003238,2.809811 23.912756,2.54924 23.764219,2.136548 23.433231,2.066665 23.348109,2.16373 22.958598,2.614621 22.829204,2.362536 22.618654,1.951993 22.314917,1.929796 22.221661,2.0664 21.895064,2.552999 21.731632,2.31465 21.47136,1.928901 21.17197,1.95076 21.101952,2.087199 20.831528,2.614614 20.645264,2.403076 20.350755,2.063707 20.032573,2.130766 19.992904,2.243836 19.786886,2.809811 19.577734,2.628702 19.244384,2.333006 18.919766,2.445103 18.897202,2.562146 18.767234,3.148142 18.525196,2.994478 18.130901,2.731793 17.833089,2.874719 17.82569,3.072921 17.777644,3.641498 17.478472,3.511985 16.990604,3.279044 16.928802,3.308706 16.751324,3.41807 16.79427,3.819602 16.81975,4.309008 16.42594,4.207843 15.795464,4.007083 15.689073,4.072642 15.693457,4.10024 15.641717,4.168399 15.795137,4.821169 15.861559,5.197423 15.362259,5.140055 14.960554,5.065716 14.651298,5.473108 14.680905,5.585866 14.64898,5.632407 14.804319,6.086288 14.878176,6.349419 14.286665,6.347626 14.164997,6.337984 13.621593,7.130188 13.678256,7.296472 13.657578,7.32671 13.784728,7.623061 13.848489,7.800054 13.301661,7.847168 12.687109,8.745831 12.530818,9.035272 12.597311,9.205641 12.579898,9.228168 12.688018,9.445701 12.746206,9.584802 12.241442,9.666053 11.299914,10.884174 11.39933,11.122665 11.374193,11.149155 11.524847,11.423875 11.614639,11.615394 11.040761,11.745286 10.775925,11.77961 10.13448,12.455566 10.025214,12.877164 10.061086,12.960534 10.021212,12.994054 10.301872,13.473854 10.494762,13.838164 10.151672,13.936709 9.729086,14.022257 9.640781,15.839364 9.393145,16.057206 9.460319,16.148314 9.494401,16.189304 9.17214,16.295324 8.210973,17.109028 7.996977,16.42326 7.965705,16.175275 7.929527,16.124149 7.929004,16.061251 7.680731,15.689006 7.591718,15.581224 7.924,15.459432 7.9216,15.170817 7.997116,14.605309 8.530519,14.040831 8.996427,13.626176 8.942054,13.513537 8.648436,13.073548 8.930593,13.015274 9.730045,12.795789 9.730817,12.790516 9.747273,12.786146 10.046051,12.485301 10.217468,11.539974 9.974263,10.995742 9.817105,10.740465 10.340132,10.674198 10.481271,10.645342 10.498155,10.593424 10.681608,10.556749 11.049268,9.56512 11.247208,9.150015 11.106177,8.801036 11.003309,8.611536 11.518684,8.580697 11.545102,8.525294 11.693173,8.504759 12.156667,7.657401 12.392296,7.282998 12.266179,6.916425 12.175503,6.717591 12.745294,6.722099 12.783166,6.661924 12.94667,6.650002 13.516247,5.869939 13.390778,5.385357 13.300916,5.135587 13.800578,5.180486 14.063542,5.182829 14.107343,5.128565 14.337835,5.130052 14.6045,4.853897 14.498942,4.152555 14.420545,3.826764 14.827151,3.907601 15.463667,3.977322 15.511928,3.931298 15.623164,3.943313 15.605046,3.174915 15.565744,2.766265 15.881177,2.872038 16.650304,3.055226 16.670556,2.874742 16.672013,2.873945 16.724263,2.410103 16.757452,1.934798 17.004504,2.056371 17.691258,2.329481 17.766853,2.28961 17.890232,1.803829 18.006452,1.30994 18.221666,1.450996 18.835322,1.811566 18.930222,1.781705 19.10058,1.357304 19.290818,0.881993 19.490601,1.051455 20.053048,1.504744 20.109255,1.495927 20.344587,1.07419 20.592174,0.637506 20.778804,0.83948 21.292532,1.384668 21.604456,0.956304 21.895064,0.561118" slic3r:type="contour"/>
    <polygon style="fill: white" points="7.979145,17.582483 8.08433,17.5295 8.117718,17.567019 8.156434,17.518026 8.202073,17.661811 8.542791,18.044681 8.928833,18.365704 8.777504,18.428858 8.587795,18.536211 8.874204,19.021956 8.332486,19.975802 8.655077,20.19462 8.917878,20.293986 8.559875,20.528186 8.038543,21.055358 7.120982,20.556086 6.908429,20.438542 7.358954,20.048914 7.151686,19.720492 6.882564,19.200978 7.119278,18.772584 7.295497,18.436495 6.961356,18.095526 7.174576,17.987753 7.658618,17.743936 7.725282,17.616794 7.850571,17.53187 7.890105,17.50533" slic3r:type="contour"/>
    <polygon style="fill: white" points="8.669602,21.809116 9.278532,22.02234 9.164711,22.098974 8.71024,22.585826 8.71434,22.588817 8.617955,22.684199 9.524173,23.589628 9.630814,23.657712 9.627713,23.65945 9.564595,23.707868 9.165423,24.413928 9.046366,24.600381 9.481069,25.111398 9.396428,25.151748 8.403058,25.561824 8.657353,25.844986 9.002069,26.381718 8.561487,26.551379 7.864106,26.737199 7.909447,26.792442 7.923714,26.914473 8.344125,27.391746 8.502668,27.613816 8.027689,27.803798 8.066658,28.137106 8.201968,28.746341 8.070948,28.786511 7.906687,28.902066 8.114245,29.082282 7.992268,29.149865 7.411898,29.44536 6.97705,30.096659 6.945712,29.682716 6.909965,29.700917 6.334451,29.167184 6.024116,28.894246 6.347632,28.687325 6.757378,28.470476 6.585873,27.243823 6.568342,27.220312 6.563499,27.189584 6.481121,27.11077 6.546927,27.084455 6.529846,26.976086 6.649939,26.92798 7.462163,26.673652 7.615448,26.605117 7.200732,26.015701 6.9909,25.754344 7.508465,25.646925 8.136826,25.45334 7.858977,25.159519 7.38567,24.693668 7.687549,24.624849 8.237364,24.390567 8.232031,24.203179 7.500637,23.743578 7.720686,23.630918 8.23003,23.26418 8.209213,22.820679 7.833003,22.658522 7.234826,22.372202 7.52862,22.117423 8.16405,21.50837" slic3r:type="contour"/>
    <polygon style="fill: white" points="7.4349,30.780439 7.857674,31.058078 7.459354,31.305752 7.051438,31.570659 7.05587,31.618424 6.902174,31.730809 7.043551,32.908991 7.392062,33.13988 7.74649,33.331006 7.267165,33.655443 7.100784,33.781245 7.103744,33.89046 6.961264,34.00924 7.126371,35.393953 7.431316,35.568719 7.784663,35.726228 7.324006,36.071084 7.163217,36.210558 7.166689,36.352696 7.043112,36.468535 7.2554,37.80137 7.601042,37.963076 7.984658,38.098216 7.5748,38.450335 7.344129,38.683983 7.354503,38.837472 7.271202,38.92678 7.566745,40.082132 7.960495,40.219647 8.36105,40.314516 7.984708,40.706956 7.751821,40.992574 7.774469,41.133804 7.721,41.201958 8.095345,42.21748 8.506968,42.307052 8.912893,42.350212 8.56693,42.801112 8.372245,43.100925 8.407529,43.232876 8.378823,43.278139 8.827605,44.164532 9.23453,44.192144 9.63744,44.175451 9.331754,44.698696 9.191579,44.985963 9.239939,45.108144 9.22988,45.128977 9.747825,45.885396 10.136937,45.843888 10.530873,45.760788 10.287513,46.360555 10.200454,46.625527 10.254143,46.721115 10.841109,47.349567 11.221741,47.238259 11.599332,47.089164 11.440905,47.750139 11.396578,48.000681 11.439047,48.053862 12.095825,48.58174 12.466012,48.404551 12.823826,48.194956 12.756676,48.886972 12.74553,49.145287 12.778437,49.175491 13.476278,49.602194 13.837586,49.361195 14.17751,49.094488 14.196189,49.779311 14.219334,50.086954 14.252424,50.109781 14.943356,50.432729 15.301491,50.125679 15.629645,49.801036 15.71645,50.436312 15.791128,50.850299 15.843083,50.877597 16.458462,51.097148 16.817448,50.716055 17.144962,50.32792 17.272421,50.872447 17.433828,51.457948 18.015744,51.604556 18.375882,51.139612 18.703752,50.687068 18.85155,51.133704 19.12366,51.874563 19.618061,51.949014 19.969196,51.401363 20.2914,50.892364 20.449077,51.259935 20.831561,52.097196 21.26454,52.119124 21.589638,51.504115 21.895064,50.956564 22.068097,51.283415 22.523817,52.119747 22.95396,52.098006 23.230336,51.451484 23.498726,50.892364 23.714638,51.229236 24.174529,51.951626 24.656482,51.879363 24.867815,51.236504 25.086376,50.687068 25.371278,51.055576 25.785292,51.610071 26.298715,51.481219 26.340009,51.466503 26.481735,50.85378 26.645166,50.327952 27.016018,50.72264 27.354929,51.104805 27.919847,50.903478 27.922641,50.890396 27.976602,50.865086 28.052147,50.299484 28.160508,49.801032 28.616784,50.193056 28.882896,50.439993 29.492598,50.154016 29.494155,50.13982 29.544553,50.108772 29.557482,49.575151 29.612616,49.094487 30.130905,49.440091 30.359177,49.606937 30.969049,49.231235 30.968971,49.214696 31.017488,49.175239 30.966644,48.664655 30.96629,48.194964 31.522974,48.4602 31.747886,48.581235 32.325594,48.111408 32.322698,48.089384 32.368935,48.039002 32.250878,47.549415 32.190794,47.089152 32.760674,47.253292 33.009834,47.34066 33.537402,46.765807 33.528734,46.734024 33.570543,46.671355 33.382506,46.207163 33.259254,45.760788 33.818003,45.816324 34.10853,45.864966 34.574538,45.166466 34.550224,45.108184 34.586295,45.03444 34.334783,44.600775 34.152687,44.175468 34.679103,44.134132 35.027117,44.133245 35.427846,43.314012 35.3826,43.232884 35.412288,43.148751 35.109663,42.749551 34.877232,42.350228 35.365875,42.237276 35.754422,42.179159 36.087044,41.236526 36.015676,41.13384 36.038381,41.039969 35.701339,40.682839 35.42908,40.314564 35.886452,40.147579 36.280882,40.037404 36.540441,38.964316 36.43558,38.837428 36.45087,38.733951 36.103292,38.429464 35.805468,38.098216 36.245567,37.88444 36.596909,37.745645 36.77871,36.515317 36.623456,36.352696 36.633105,36.259328 36.308284,36.011992 36.005464,35.726244 36.446296,35.464555 36.729661,35.325053 36.861416,34.050181 36.686384,33.890459 36.693605,33.816269 36.369399,33.594476 36.043636,33.331006 36.449628,33.053515 36.787026,32.856629 36.895741,31.739872 36.862139,31.716551 36.73428,31.618448 36.73927,31.579905 36.345719,31.334633 35.932452,31.058098 36.221619,30.83452 36.951876,30.329664 37.880799,31.015057 38.029467,31.10456 37.547539,31.42109 37.214592,31.683066 37.661768,32.218575 37.98772,33.418135 38.109311,33.522191 38.132972,33.538206 38.033673,33.587255 38.035595,33.594328 37.953149,33.646506 38.02662,33.815692 38.033187,36.026017 38.073939,36.065591 38.084616,36.073844 38.033386,36.093528 38.033407,36.100532 37.987366,36.125997 38.01214,36.231987 37.735326,38.465437 37.839431,38.58174 37.868004,38.607976 37.712069,38.653078 37.708872,38.678876 37.586905,38.735238 37.649984,38.987592 37.377398,40.92705 37.443443,41.014767 37.459096,41.03224 37.359921,41.0514 37.357692,41.06726 37.27802,41.095449 37.315272,41.22924 37.183172,42.062932 36.842603,43.21608 36.822918,43.272293 36.827436,43.279751 36.824318,43.286882 36.848704,43.321784 36.809155,43.321557 36.037356,45.086647 35.952242,45.25925 35.965191,45.287692 35.952329,45.308495 36.023676,45.44308 35.960939,45.435156 35.868962,45.443334 35.060408,46.751099 34.883668,47.01258 34.899484,47.065124 34.875649,47.0927 34.96786,47.349787 34.857244,47.318935 34.691205,47.30609 33.908155,48.212028 33.626387,48.515554 33.636548,48.58094 33.604661,48.608357 33.679268,48.97654 33.532379,48.910788 33.317984,48.854845 32.595448,49.476091 32.213741,49.783542 32.21552,49.851628 32.17952,49.875112 32.209872,50.322552 32.043686,50.218896 31.811186,50.115384 31.131397,50.558824 30.673623,50.838697 30.667986,50.901556 30.631235,50.919955 30.606844,51.402748 30.44021,51.267368 30.217968,51.12685 29.523487,51.474532 29.034037,51.703139 29.023946,51.755004 28.989304,51.768345 28.916586,52.234272 28.768126,52.083224 28.578105,51.926707 27.778073,52.234816 27.32058,52.39826 27.309016,52.43788 27.284535,52.444612 27.183545,52.835755 27.068844,52.69368 26.922483,52.544186 25.925253,52.818448 25.553578,52.912481 25.543703,52.93818 25.531785,52.940165 25.426664,53.232679 25.34652,53.115728 25.24365,52.98815 24.040013,53.1886 23.763892,53.230507 23.756869,53.245392 23.754996,53.245498 23.660256,53.451348 23.606436,53.361344 23.536897,53.257841 22.209798,53.332947 21.991799,53.344126 21.895064,53.516656 21.853379,53.438655 21.799738,53.343185 20.496336,53.269092 20.259826,53.256988 20.12987,53.451348 20.083271,53.353339 20.042303,53.264196 20.024239,53.226652 18.862533,53.031367 18.561318,52.985807 18.363462,53.23266 18.307175,53.092839 18.252198,52.939051 18.246435,52.938179 18.232595,52.90414 17.27115,52.637196 16.89285,52.541766 16.606614,52.835755 16.546549,52.647075 16.493938,52.441136 16.481144,52.437908 16.464035,52.384687 15.691461,52.085288 15.24619,51.926355 14.873521,52.23428 14.822611,52.007444 14.785067,51.761763 14.766198,51.755028 14.750427,51.685468 14.091951,51.355363 13.612934,51.131216 13.183283,51.402748 13.154703,51.16624 13.142665,50.911162 13.122145,50.90156 13.112095,50.818881 12.473989,50.403572 12.023211,50.126933 11.580256,50.322551 11.577718,50.101703 11.594666,49.863938 11.574608,49.851628 11.573899,49.762716 10.885885,49.174111 10.515584,48.874178 10.110856,48.976568 10.13042,48.792472 10.171071,48.595132 10.153579,48.580964 10.163552,48.495335 9.389575,47.606756 9.134669,47.330037 8.822265,47.349788 8.853211,47.218384 8.903526,47.079113 8.890639,47.065124 8.908528,46.994881 8.072223,45.657616 7.94174,45.462404 7.766481,45.443084 7.792592,45.371852 7.831794,45.297914 7.824961,45.287691 7.840839,45.247821 7.020223,43.398247 6.989111,43.334146 6.941425,43.321751 6.954071,43.295782 6.968583,43.268733 6.607114,42.063511 6.619067,41.140469 6.432544,41.067308 6.432868,41.062177 6.349541,41.039784 6.331038,41.03226 6.445564,40.860912 6.500476,39.990459 6.394926,38.839593 6.081313,38.67894 6.081771,38.672966 5.952132,38.624148 5.922101,38.608 6.104445,38.376927 6.166344,37.568783 5.886612,36.180701 5.753139,36.098322 5.715636,36.080443 5.705509,36.073843 5.77982,35.990871 5.889793,35.468839 5.972357,33.748677 5.781797,33.613647 5.67744,33.55332 5.657158,33.538204 5.898924,33.299759 6.657605,31.751994 5.874077,31.197547 5.760661,31.104558 6.240631,30.703224 6.838147,30.329656" slic3r:type="contour"/>
  </g></svg>