<svg width="43.790126" height="63.590156" xmlns="http://www.w3.org/2000/svg" xmlns:svg="http://www.w3.org/2000/svg" xmlns:xlink="http://www.w3.org/1999/xlink" xmlns:slic3r="http://slic3r.org/namespaces/slic3r"><g xmlns="http://www.w3.org/2000/svg" slic3r:z="5.615e-006" id="layer16">
    <polygon style="fill: white" points="35.499779,23.558511 35.757488,23.760736 35.161651,24.04564 34.741339,24.255162 35.612708,24.538216 35.852804,24.625868 35.337539,25.142614 35.246404,25.235726 35.400504,25.321437 36.007459,25.510381 36.108454,25.559114 36.237903,25.583937 36.250164,25.586342 36.228949,25.618959 36.27344,25.636192 36.285003,26.400907 36.299043,26.690865 36.810708,26.865134 36.663583,27.068096 36.336925,27.473259 36.340656,27.550312 36.25637,27.679504 36.261076,28.039507 36.932035,28.378331 37.303948,28.544086 36.963467,28.90477 36.462084,29.411346 35.76698,29.06802 35.273672,28.867914 35.461047,28.688646 35.824152,28.327233 35.208243,27.894239 34.883216,27.634784 34.8867,27.48185 34.827752,27.47105 34.888747,27.392081 34.889036,27.379403 34.889708,27.378515 34.884324,26.511309 34.884428,26.446788 34.535224,26.346784 34.271868,26.301348 34.625383,25.847018 34.836909,25.511501 34.177432,25.220936 33.749276,25.05422 34.056532,24.770236 34.493452,24.302069 34.010864,23.93945 33.607808,23.578846 33.964128,23.376163 34.686104,22.988338" slic3r:type="contour"/>
    <polygon style="fill: white" points="22.071169,0.787557 22.508851,1.387941 22.910797,0.959536 23.221892,0.6235 23.362288,0.869428 23.736601,1.532779 24.184936,1.162938 24.550834,0.864438 24.653754,1.112648 24.948635,1.848367 25.449208,1.537679 25.864892,1.294809 25.933927,1.551718 26.126434,2.356566 26.701639,2.100894 27.141986,1.933637 27.17937,2.221724 27.246774,3.079142 27.943325,2.878801 28.35373,2.790775 28.352316,3.14769 28.284974,4.034604 28.368548,4.020647 28.553292,4.006209 28.557543,4.010765 29.172933,3.91367 29.518402,3.883526 29.461514,4.319973 29.348369,4.858272 29.710136,5.24597 29.928072,5.250867 29.93225,5.25672 30.390259,5.230759 30.667578,5.233412 30.548822,5.732747 30.463034,6.000324 31.047815,6.819573 31.240323,6.839575 31.243921,6.846136 31.604103,6.852967 31.840726,6.873057 31.673009,7.396605 31.618743,7.529562 32.242824,8.667472 32.292012,8.748908 32.511975,8.787828 32.836806,8.815319 33.087692,8.853615 32.902754,9.34457 32.796666,9.562651 33.33105,10.899776 33.399066,10.916617 33.998824,11.009084 34.3454,11.085316 34.18356,11.464446 33.829786,12.093285 33.943788,12.556249 34.535761,13.23314 34.9902,13.342256 35.531884,13.497629 35.446359,13.671374 35.226121,14.013321 36.104508,14.985241 36.188155,15.886163 36.370727,15.96833 36.479983,16.015399 36.229675,16.333355 36.231588,16.353956 36.101731,16.522249 35.828892,17.788086 36.417815,18.186351 36.839108,18.468292 36.546968,18.705717 36.109969,19.039133 36.353637,20.395369 36.449176,20.508422 36.450438,20.550509 36.618592,20.70016 36.552824,20.735717 36.457566,20.78827 36.472832,21.297472 35.712951,22.029165 35.995164,22.3568 36.107412,22.500562 35.393003,22.702666 34.839764,22.862844 34.321587,22.313605 34.076908,21.961904 34.669316,21.721393 35.029509,21.615655 34.983216,20.919099 34.928175,20.659474 34.691787,20.411459 34.627759,20.319526 34.832245,20.22569 34.799559,20.057735 34.715892,19.883524 35.146356,19.60986 35.513066,18.99722 35.334411,18.890759 34.855083,18.511229 35.170479,18.224698 35.737109,17.831049 35.160232,17.02374 34.595357,16.527072 34.589047,16.524752 34.588986,16.524683 34.549575,16.509234 34.539568,16.504631 34.555875,16.485044 34.519492,16.450067 34.504328,15.343315 34.420696,14.391364 34.181323,14.33323 33.6501,14.219849 33.870432,13.877101 34.154989,13.416258 33.949517,12.684806 33.296653,12.070449 32.770787,11.979077 32.520969,11.948912 32.795219,11.483193 32.762912,11.44464 32.832465,11.304477 32.213835,10.605266 31.707058,9.863038 31.467449,9.836402 31.327518,9.82943 31.482501,9.534151 31.461644,9.503604 31.492847,9.433275 31.08478,8.893251 30.521436,7.968089 30.301196,7.958137 30.1558,7.960191 30.308828,7.618927 30.287548,7.583979 30.308434,7.529231 29.851407,6.896012 29.563154,6.419837 29.281939,6.429873 29.076766,6.447945 29.264971,5.927257 29.231718,5.872325 29.248018,5.817843 28.728371,5.143294 28.348082,5.197321 28.06028,5.251304 28.191013,4.73865 28.249818,4.457281 28.200734,4.382904 28.207699,4.346936 27.953126,4.071649 27.446039,4.213776 27.080234,4.329723 27.137951,3.875834 27.183786,3.324387 27.017298,3.217372 26.520945,3.442501 26.10664,3.639811 26.098541,3.236016 26.067388,2.726039 25.865378,2.627532 25.508127,2.861444 25.099144,3.135633 25.029603,2.757078 24.924702,2.260184 24.731013,2.19422 24.427671,2.462734 24.057426,2.794414 23.930903,2.430448 23.751362,1.936583 23.58884,1.903835 23.305112,2.231171 22.98708,2.6006 22.80701,2.249885 22.555795,1.765325 22.4264,1.756612 22.162174,2.145161 21.895064,2.540771 21.669783,2.210256 21.362644,1.756202 21.235628,1.764747 21.026544,2.170724 20.803029,2.600599 20.54547,2.30413 20.198933,1.902405 20.043186,1.933745 19.903523,2.32986 19.732698,2.794412 19.442921,2.538952 19.054196,2.191909 18.87328,2.253453 18.796423,2.652532 18.691,3.135618 18.362074,2.922015 17.917053,2.625538 17.732183,2.715793 17.716683,3.17279 17.683486,3.639811 17.298212,3.468088 16.766161,3.218095 16.612267,3.317576 16.681298,3.934787 16.709905,4.329723 16.240439,4.204064 15.811301,4.072615 15.578196,4.31961 15.58937,4.382905 15.547523,4.436363 15.671605,4.956281 15.729848,5.251304 15.172112,5.18106 14.989481,5.149248 14.522808,5.745411 14.55844,5.872356 14.535643,5.903975 14.653951,6.248572 14.713361,6.447945 14.149856,6.439044 13.597086,7.205709 13.456065,7.454823 13.502606,7.584017 13.489072,7.602556 13.584485,7.826235 13.634335,7.960187 13.206142,7.990109 12.597822,8.823375 12.271023,9.36624 12.328493,9.503626 12.315814,9.519195 12.410582,9.709071 12.462611,9.829451 12.011952,9.892321 10.925117,11.226895 11.027199,11.44463 11.007534,11.465127 11.171614,11.75467 11.269142,11.948951 10.700766,12.063006 10.394838,12.103741 9.840724,12.681297 9.633487,13.406892 9.920517,13.858603 10.140025,14.219849 9.797184,14.308546 9.397486,14.396391 9.270636,16.450069 9.234482,16.488888 9.250559,16.504632 9.212059,16.518373 8.054513,17.845411 8.587886,18.307584 8.935043,18.511229 8.69159,18.635697 8.358963,18.882732 9.074232,19.88343 8.977464,20.255133 9.079373,20.299769 9.162373,20.31947 8.915404,20.553137 8.797083,21.656267 9.36279,21.879005 9.713202,21.961904 9.391988,22.27978 8.950384,22.862812 7.860116,22.552036 7.682714,22.500592 8.097292,22.036096 7.782248,21.730002 7.317294,21.297499 7.328202,20.938805 7.332632,20.789273 7.171534,20.700184 7.228961,20.650519 7.339645,20.552527 7.34095,20.508456 7.426694,20.409346 7.534017,19.739958 7.672099,19.024927 7.349241,18.76772 6.951016,18.468306 7.272617,18.250318 7.954209,17.792724 7.720655,16.955459 7.643236,16.456512 7.558538,16.353956 7.560948,16.304246 7.390144,16.097778 7.31014,16.0154 7.580908,15.892582 7.593525,15.632362 7.685616,14.985229 8.191883,14.374733 8.585,13.95869 8.258239,13.497608 8.475777,13.447083 9.188685,13.256881 9.838857,12.561 9.944445,12.047356 9.631123,11.383168 9.444748,11.085295 9.901057,11.020762 10.240284,10.955888 10.240938,10.95381 10.415102,10.918204 10.85166,9.76513 10.986182,9.473742 10.821235,9.074255 10.702431,8.853618 11.261327,8.814986 11.292054,8.811192 11.305035,8.783074 11.44254,8.764055 11.937408,7.848015 12.174597,7.45745 12.044271,7.083955 11.949408,6.873041 12.530003,6.87222 12.549836,6.839562 12.685451,6.830053 13.282245,5.99361 13.330887,5.931305 13.21197,5.481565 13.122548,5.233412 13.616747,5.271238 13.843253,5.27503 13.862089,5.250903 14.037629,5.252467 14.446405,4.817446 14.349839,4.198171 14.271725,3.883526 14.677134,3.956894 15.223453,4.019355 15.236811,4.006209 15.502422,4.035302 15.478834,3.180921 15.436383,2.790792 15.752977,2.889962 16.544208,3.081317 16.551049,3.020348 16.55489,2.978944 16.555748,2.978476 16.622425,2.384272 16.648142,1.933637 16.898866,2.05091 17.664375,2.360078 17.819545,1.759378 17.925256,1.294811 18.147712,1.435653 18.841575,1.850635 19.064068,1.307573 19.239292,0.864418 19.448726,1.037815 20.053739,1.533454 20.341155,1.027878 20.568216,0.623503 20.765536,0.832898 21.28212,1.388022 21.630024,0.916207 21.895064,0.550163" slic3r:type="contour"/>
    <polygon style="fill: white" points="9.734081,23.343884 10.182335,23.578876 9.880906,23.799674 9.299424,24.293719 9.723048,24.696802 10.04086,25.05422 9.557502,25.26876 8.969906,25.507994 9.364196,26.040416 9.518261,26.301328 8.864683,26.490908 8.853961,26.814031 8.891831,27.366407 8.901085,27.379368 8.901035,27.383964 8.945424,27.443866 8.962377,27.471022 8.899889,27.48958 8.899372,27.537299 8.906912,27.634744 8.399347,27.873764 7.930373,28.282927 8.085446,28.432702 8.516444,28.867888 8.198678,29.02596 7.328026,29.411332 6.737158,28.794556 6.486176,28.544086 6.899314,28.321849 7.529481,28.034462 7.534313,27.681098 7.449451,27.55029 7.453173,27.444356 7.402454,27.376338 6.979426,26.865134 7.188763,26.79583 7.479424,26.697004 7.516685,25.636222 7.558847,25.616275 7.539961,25.586372 7.676901,25.560425 7.782652,25.510394 7.935998,25.46315 8.515973,25.211883 8.09458,24.78689 7.937323,24.625868 8.582558,24.430153 9.052693,24.25967 8.317858,23.903305 8.032639,23.760736 8.562036,23.409599 9.10404,22.988308" slic3r:type="contour"/>
    <polygon style="fill: white" points="7.420216,30.097883 7.926946,30.506204 8.2506,30.750624 7.770847,31.031323 7.51605,31.18438 7.517228,31.198281 7.431521,31.253941 7.540133,32.580157 7.865214,32.807916 8.132871,32.971732 7.605379,33.317121 7.561174,33.349002 7.562597,33.408474 7.489387,33.463827 7.615024,34.780943 7.621102,35.030374 7.904822,35.200396 8.169555,35.33194 7.658372,35.709984 7.63808,35.727109 7.640169,35.812816 7.582927,35.86247 7.774996,37.184528 7.790803,37.408191 8.084891,37.550064 8.373672,37.660832 7.902789,38.067035 7.841686,38.128154 7.848638,38.226508 7.817665,38.257878 8.119764,39.481595 8.142558,39.618935 8.451726,39.728592 8.755788,39.806156 8.316809,40.268991 8.261667,40.336577 8.277971,40.434812 8.261239,40.455332 8.658272,41.5445 8.687257,41.64974 8.99768,41.717119 9.309088,41.752724 8.905866,42.287336 8.875774,42.334185 8.90325,42.433944 8.897221,42.443229 9.374877,43.386588 9.410324,43.47395 9.712597,43.493296 10.025958,43.480516 9.667714,44.108303 9.70268,44.194476 10.263369,45.010203 10.297004,45.068977 10.58701,45.036968 10.898619,44.970244 10.630273,45.651336 10.649182,45.684379 11.337174,46.419852 11.623638,46.335119 11.928581,46.213135 11.758527,46.951098 12.517033,47.559616 12.806666,47.419843 13.102088,47.244784 13.032091,48.029952 13.818591,48.509426 14.112879,48.312179 14.399512,48.0856 14.425928,48.877995 14.429789,48.925057 15.21301,49.290102 15.515702,49.031056 15.797683,48.752576 15.901922,49.500051 15.930079,49.653642 15.966003,49.672442 16.670386,49.924062 16.982124,49.596047 17.266964,49.262039 17.422545,49.928587 17.508819,50.242929 18.179294,50.413221 18.497623,50.007568 18.784124,49.617996 18.974021,50.196475 19.141148,50.655934 19.738134,50.747388 20.050953,50.265296 20.331916,49.827076 20.547434,50.331884 20.797615,50.882912 21.342142,50.911326 21.631018,50.367027 21.895064,49.894915 22.140775,50.357303 22.444723,50.913279 22.983255,50.885228 23.228058,50.310107 23.45819,49.827075 23.756399,50.286767 24.057108,50.753257 24.632277,50.665465 24.819176,50.092811 25.006003,49.618012 25.376648,50.091068 25.627731,50.422646 26.20952,50.275374 26.210862,50.271055 26.258605,50.254019 26.383021,49.715336 26.523166,49.262048 26.979991,49.743763 27.151612,49.935365 27.785781,49.709074 27.789844,49.690383 27.831083,49.671109 27.89836,49.179188 27.992456,48.75258 28.534904,49.217636 28.624274,49.300379 29.287779,48.990261 29.290039,48.97056 29.3269,48.947949 29.340988,48.491131 29.390612,48.085592 30.000038,48.493804 30.030619,48.516275 30.689677,48.111998 30.68966,48.08978 30.723498,48.062363 30.684524,47.6335 30.688026,47.244796 31.343904,47.559698 31.972587,47.050324 31.969028,47.023052 31.999542,46.989951 31.906346,46.585743 31.861546,46.213124 32.535009,46.40908 33.117694,45.77699 33.108012,45.741928 33.133979,45.703331 32.985494,45.323884 32.891506,44.970236 33.579666,45.040858 34.104345,44.260972 34.081816,44.208352 34.102841,44.165648 33.903011,43.811071 33.764171,43.48052 34.405007,43.432496 34.463881,43.432349 34.924024,42.497766 34.886876,42.433944 34.902961,42.388246 34.658108,42.057928 34.481036,41.752712 35.08118,41.614275 35.18083,41.598809 35.565255,40.506646 35.512151,40.434816 35.523492,40.386772 35.241992,40.083588 35.034344,39.806168 35.595688,39.598311 35.718085,39.562396 36.014307,38.307482 35.94146,38.22646 35.948326,38.176149 35.644356,37.907256 35.416452,37.660832 35.947644,37.395323 36.061412,37.347461 36.257052,35.913827 36.149984,35.812796 36.153633,35.769659 35.853875,35.542659 35.620572,35.33196 36.1339,35.014328 36.22149,34.967494 36.345312,33.503746 36.227524,33.408481 36.229734,33.376677 35.913247,33.165983 35.657252,32.971732 36.125523,32.6353 36.288557,32.530337 36.376328,31.267487 36.27292,31.19829 36.273705,31.18942 35.873112,30.954166 35.539528,30.750623 35.903483,30.453424 36.370754,30.092289 36.39242,29.847352 36.502079,29.990792 36.516216,29.979866 37.447807,30.591117 37.588124,30.670714 37.090904,31.054659 37.027143,31.107578 37.270584,31.718988 37.538833,32.928344 37.673268,33.03256 37.708288,33.055808 37.583919,33.131616 37.584911,33.136086 37.534105,33.171564 37.580672,33.410448 37.66679,35.56821 37.671972,35.572208 37.666342,35.574936 37.649796,35.835348 37.447368,38.026219 37.442251,38.065981 37.445291,38.069175 37.444508,38.073143 37.461076,38.088356 37.440327,38.09435 37.019019,40.23088 36.986153,40.370703 36.997363,40.384983 36.992834,40.399245 37.053023,40.466432 37.017808,40.473235 36.962735,40.494017 36.416087,42.21518 36.325283,42.469237 36.345899,42.502388 36.333615,42.52905 36.443712,42.683472 36.367075,42.689236 36.24619,42.718803 35.654387,44.003272 35.478862,44.351804 35.505456,44.409384 35.482121,44.445742 35.626599,44.715336 35.501088,44.707224 35.301881,44.726573 34.737291,45.606252 34.458471,46.011078 34.483376,46.093232 34.449057,46.13201 34.592952,46.530568 34.421436,46.491051 34.148477,46.471657 33.660383,47.023188 33.269272,47.439304 33.283574,47.531436 33.241372,47.567088 33.344572,48.076332 33.142462,47.993408 32.830767,47.913958 32.427739,48.254428 31.932177,48.649541 31.934398,48.740264 31.888141,48.770014 31.92654,49.35408 31.712732,49.226576 31.395451,49.086904 31.045014,49.312299 30.46816,49.66167 30.460786,49.74264 30.413796,49.765937 30.380984,50.380044 30.174292,50.216288 29.879086,50.031038 29.518126,50.209999 28.900892,50.496166 28.888156,50.562 28.843157,50.579304 28.749216,51.173928 28.566276,50.991 28.312069,50.78354 27.85434,50.959563 27.252296,51.17431 27.237214,51.226744 27.203107,51.236199 27.068104,51.758907 26.92122,51.580048 26.714371,51.371688 26.079042,51.547816 25.543032,51.684332 25.52884,51.721872 25.509752,51.725108 25.35585,52.154152 25.243793,51.993639 25.082892,51.797473 24.259424,51.937075 23.803515,52.007435 23.791636,52.032895 23.786616,52.033188 23.627422,52.378415 23.541574,52.237596 23.416663,52.054757 22.473737,52.109728 22.075073,52.130788 21.895064,52.448271 21.822286,52.314272 21.717049,52.128954 20.781882,52.074216 20.384015,52.053233 20.162706,52.378416 20.088445,52.224067 20.000478,52.033005 19.998486,52.0329 19.983196,52.000714 19.172356,51.862064 18.728455,51.793758 18.434278,52.154144 18.355505,51.960419 18.270891,51.723349 18.26129,51.721872 18.241333,51.671747 17.615421,51.496663 17.108525,51.367895 16.722036,51.758892 16.644948,51.51908 16.571352,51.231433 16.552923,51.226751 16.530714,51.156027 16.084915,50.983539 15.519884,50.782185 15.040882,51.173932 14.978092,50.896999 14.927489,50.571078 14.901957,50.56198 14.882525,50.474259 14.555764,50.311995 13.959409,50.035136 13.409147,50.380028 13.374043,50.091248 13.356961,49.75545 13.329359,49.742636 13.317028,49.638136 13.019448,49.447047 12.447018,49.099368 11.863587,49.35408 11.861379,49.077147 11.883187,48.756911 11.855746,48.740244 11.855331,48.625213 11.512898,48.337091 11.012063,47.93612 10.445576,48.076339 10.473965,47.832583 10.53145,47.551339 10.506585,47.531432 10.520956,47.41554 10.082157,46.922847 9.688499,46.501656 9.19717,46.53058 9.246364,46.337408 9.326848,46.114709 9.306752,46.093208 9.334495,45.989326 8.790046,45.14896 8.521778,44.756377 8.163506,44.715336 8.216463,44.58236 8.298151,44.42912 8.284656,44.409371 8.315866,44.334861 7.710439,43.036608 7.563388,42.741517 7.346414,42.683468 7.387956,42.606035 7.451162,42.51631 7.444224,42.502388 7.469303,42.458516 6.891573,40.665252 6.835597,40.50648 6.737103,40.466432 6.760106,40.432015 6.795243,40.392023 6.792763,40.384988 6.806843,40.365604 6.36182,38.142768 6.352127,38.100797 6.329048,38.088384 6.338617,38.076255 6.348754,38.064756 6.140328,35.835376 6.126929,35.577831 6.118154,35.572235 6.124337,35.566224 6.128017,35.540612 6.289008,33.198498 6.233017,33.156769 6.112846,33.078715 6.081846,33.055772 6.287418,32.882911 6.839404,31.18189 6.313791,30.765078 6.202008,30.670702 6.724225,30.301485 7.273834,29.979927 7.296199,29.997949 7.397707,29.84735" slic3r:type="contour"/>
  </g></svg>