<svg width="43.790126" height="63.590156" xmlns="http://www.w3.org/2000/svg" xmlns:svg="http://www.w3.org/2000/svg" xmlns:xlink="http://www.w3.org/1999/xlink" xmlns:slic3r="http://slic3r.org/namespaces/slic3r"><g xmlns="http://www.w3.org/2000/svg" slic3r:z="8.255e-006" id="layer24">
    <polygon style="fill: white" points="22.034179,0.63307 22.336717,1.054357 22.672055,1.070273 22.787868,0.943431 23.189226,0.514732 23.300785,0.720539 23.548028,1.171229 23.899203,1.23115 24.016577,1.131845 24.47936,0.76115 24.562007,0.973599 24.749696,1.459713 25.097029,1.573755 25.239204,1.483098 25.7496,1.190398 25.805469,1.41679 25.899453,1.828705 25.936623,1.971041 26.218969,2.121353 26.457169,2.012452 26.982281,1.815382 27.011019,2.075829 27.046056,2.561664 27.060876,2.569554 27.087238,2.775187 27.220784,2.88302 27.672148,2.749038 28.155306,2.646453 28.149252,2.973089 28.097913,3.591262 28.136052,3.622057 28.136142,3.853298 28.869752,3.732573 29.27479,3.699778 29.218199,4.107942 29.049267,4.873096 29.121955,4.948374 29.214412,4.94393 29.414977,4.949468 29.463338,5.014054 30.039796,4.978683 30.356952,4.985746 30.239963,5.471709 30.105716,5.871959 30.506239,6.406862 30.755126,6.434125 30.78475,6.485016 31.185248,6.491515 31.428464,6.517177 31.25533,7.060595 31.197943,7.194847 31.725101,8.10046 31.775017,8.173808 32.009432,8.214896 32.026691,8.255644 32.319605,8.278719 32.522936,8.314785 32.316117,8.88151 32.302932,8.907853 32.807423,10.098957 33.071128,10.16026 33.082204,10.202258 33.383722,10.243476 33.625368,10.302756 33.429636,10.814004 33.303784,11.042402 33.587799,12.119283 33.634564,12.128416 33.880412,12.19983 33.884828,12.250597 34.331619,12.341184 34.741211,12.470188 34.619607,12.793205 34.378656,13.211053 34.43302,13.271051 34.405403,13.33698 34.955924,13.843103 35.661056,14.452862 35.66753,14.827731 35.793583,14.8686 35.8571,14.893111 35.613533,15.416558 35.402524,16.533521 34.755515,16.095651 34.180365,15.671406 34.038872,15.624398 34.000756,15.612822 34.0422,15.545642 33.986519,15.503925 33.927192,15.447944 33.850356,14.366916 33.838708,13.606722 33.810764,13.599676 33.766722,13.456919 33.335072,13.345188 32.91965,13.283193 33.161739,12.861426 33.284858,12.603566 33.230262,12.553206 33.340639,12.297262 32.621456,11.619418 32.359059,11.271614 32.018512,11.20355 31.837328,11.187847 32.035939,10.84332 31.99953,10.79506 32.051352,10.678852 31.63185,10.126968 31.171658,9.321742 30.931321,9.287958 30.78117,9.283122 30.960029,8.95144 30.93008,8.899036 30.965463,8.816077 30.532273,8.120947 30.276238,7.607469 29.966716,7.585324 29.75261,7.591387 30.003369,7.060231 29.961314,6.97589 29.990632,6.897897 29.529302,6.154017 29.081709,6.159917 28.77551,6.193388 28.948192,5.739578 29.067527,5.328052 29.02465,5.24475 29.044185,5.178779 28.855333,4.906264 28.233947,4.98136 27.829036,5.068419 27.927996,4.702143 28.031544,4.14163 27.829626,3.986042 27.725868,3.935682 27.389308,4.022592 26.896868,4.192939 26.934708,3.919216 26.958915,3.516692 26.562871,3.284051 26.502546,3.260688 25.957958,3.53115 25.955295,3.336062 25.932436,3.03729 25.375799,2.775817 24.983874,3.040534 24.9567,2.888828 24.89899,2.623394 24.776365,2.587011 24.295065,2.420951 23.977588,2.702426 23.93162,2.568799 23.837402,2.30931 23.699932,2.282659 23.229278,2.18196 22.94564,2.506406 22.879925,2.378225 22.744462,2.115923 22.645234,2.108964 22.14801,2.071459 21.895064,2.444064 21.810845,2.321637 21.638659,2.068929 21.565275,2.074092 21.048259,2.113038 20.844486,2.506386 20.749021,2.399031 20.551014,2.173592 20.460917,2.191082 19.962494,2.297469 19.812542,2.702433 19.704025,2.610086 19.467972,2.403126 19.404178,2.421718 18.9099,2.592029 18.806252,3.040534 18.670541,2.956823 18.389302,2.771407 18.370854,2.777764 18.339497,2.757856 17.886536,2.971993 17.832168,3.53115 17.638269,3.45136 17.255492,3.270319 17.22296,3.285699 17.167403,3.261648 16.853517,3.450356 16.872796,3.621359 16.893256,4.192939 16.596559,4.123103 16.030796,3.944977 15.970832,3.981027 15.940094,3.973131 15.766892,4.110285 15.889768,4.6193 15.96111,5.068413 15.543843,5.028898 14.913089,4.914043 14.741729,5.154603 14.765494,5.244823 14.730434,5.300337 14.930466,5.872906 15.014616,6.193387 14.485411,6.20202 14.175973,6.178277 13.774273,6.814333 13.828813,6.975891 13.80541,7.013727 13.965721,7.380691 14.037518,7.591386 13.40666,7.65842 12.881797,8.507013 12.789294,8.711907 12.860046,8.899016 12.843569,8.922176 12.955217,9.14541 13.008955,9.283097 12.523089,9.372626 11.838324,10.335099 11.703444,10.567444 11.790587,10.79505 11.771149,10.816043 11.889738,11.036529 11.952802,11.187813 11.349727,11.340987 11.277099,11.349623 10.445446,12.247819 10.465679,12.285313 10.559847,12.55314 10.523119,12.581833 10.738052,12.975408 10.870478,13.283178 10.474702,13.410357 10.005622,13.493445 9.979381,13.599678 9.931478,13.613437 9.882013,14.855896 9.862906,15.447946 9.744541,15.541498 9.774911,15.590471 9.789339,15.612824 9.586295,15.683764 8.387578,16.533548 8.159741,15.856303 8.099787,15.185041 7.976874,14.955034 7.933058,14.893113 8.099871,14.840346 8.093594,14.695297 8.129097,14.452858 8.854172,13.682121 9.361781,13.280689 9.357123,13.27104 9.437253,13.167659 9.296914,12.854447 9.048916,12.470159 9.457338,12.39425 9.893715,12.278359 9.909697,12.199761 10.167467,12.136 10.392952,11.043838 10.454934,10.875849 10.297927,10.518921 10.16475,10.302766 10.688528,10.242734 10.718958,10.160259 10.89083,10.127301 11.226478,9.290091 11.486206,8.786221 11.366957,8.494894 11.267192,8.314807 11.74239,8.289224 11.780694,8.214914 11.937795,8.192959 12.429022,7.345435 12.592635,7.099381 12.463415,6.734048 12.361663,6.517177 12.924384,6.522966 12.978549,6.519016 13.034998,6.434125 13.229754,6.418693 13.686485,5.814429 13.539568,5.272935 13.433193,4.985732 13.912217,5.028444 14.307255,5.030994 14.375116,4.94949 14.655348,4.948914 14.739677,4.862822 14.609542,4.077788 14.515336,3.699792 14.899467,3.774782 15.659611,3.856894 15.654073,3.622058 15.702548,3.580951 15.683794,3.119423 15.63482,2.646442 15.929319,2.743845 16.542305,2.889899 16.708356,2.755118 16.729264,2.569524 16.755837,2.554743 16.774238,2.364216 16.807866,1.815363 17.033991,1.926618 17.536203,2.127278 17.858401,1.955512 17.888242,1.838018 17.895336,1.835604 17.912403,1.764459 18.040526,1.190401 18.230839,1.316955 18.666833,1.575234 19.044504,1.451271 19.095409,1.320086 19.310778,0.761144 19.48216,0.909386 19.876593,1.230572 20.242064,1.168263 20.314697,1.03483 20.6009,0.514729 20.758099,0.68859 21.112106,1.069523 21.452241,1.053393 21.553721,0.911093 21.895064,0.43718" slic3r:type="contour"/>
    <polygon style="fill: white" points="8.64821,17.595068 8.985804,18.015264 8.910517,18.046442 8.821201,18.087026 8.923688,18.293219 8.735715,18.493058 7.792521,19.403924 8.333979,19.91762 8.710985,20.148238 8.503669,20.252313 8.138684,20.525206 8.746132,21.183654 8.463563,21.832588 8.70077,21.9737 8.87341,22.034152 8.375032,22.369707 8.174135,22.58492 8.055353,23.034762 8.779416,23.487591 9.117507,23.703442 8.68043,23.948222 8.092489,24.399231 8.720484,24.916334 8.937314,25.171228 8.224269,25.511155 8.264937,25.762213 8.432153,26.412808 8.447284,26.434459 8.448824,26.447154 8.471721,26.47265 8.479041,26.484048 8.452829,26.494141 8.462455,26.527716 8.351786,26.533051 7.200598,26.976352 7.67913,27.466225 7.984329,27.838086 7.303695,28.150988 7.257811,28.167797 7.357782,28.687334 7.520375,29.343641 7.524116,29.346248 7.525471,29.35552 7.581734,29.405683 7.612193,29.432129 7.542319,29.470844 7.554383,29.55342 7.574376,29.768978 7.088693,30.248861 6.46648,30.81209 6.446899,30.882438 6.391233,30.981585 6.859429,31.292032 7.332675,31.524832 6.930026,31.805653 6.562974,32.074049 6.569291,32.159078 6.409089,32.298884 6.587305,33.551176 6.836261,33.6937 7.230345,33.847772 6.719126,34.23116 6.618859,34.31475 6.622828,34.464124 6.469492,34.614618 6.662386,36.008729 6.89589,36.12532 7.299235,36.256692 6.841494,36.627504 6.689592,36.769894 6.695662,36.959072 6.548299,37.118578 6.772965,38.400752 7.081313,38.529195 7.528125,38.648148 7.158251,38.982931 6.873432,39.288296 6.888903,39.490992 6.773723,39.62979 7.063897,40.713256 7.452194,40.835672 7.921831,40.918144 7.59994,41.265448 7.278245,41.675496 7.308422,41.85838 7.228026,41.970569 7.583705,42.913966 8.012852,42.997392 8.488727,43.027532 8.198464,43.414324 7.905863,43.875681 7.950171,44.040324 7.902969,44.12006 8.32658,44.947115 8.763048,44.969172 9.232807,44.935644 8.975617,45.381959 8.74829,45.85277 8.806111,45.998608 8.786055,46.042392 9.281509,46.759859 9.700963,46.708623 10.155129,46.602912 9.94783,47.11856 9.798425,47.573331 9.867829,47.696375 9.865469,47.70388 10.433872,48.304907 10.83958,48.180376 11.266972,48.00426 11.130054,48.580972 11.053493,49.008008 11.11724,49.086802 11.764772,49.59973 12.149302,49.410636 12.545066,49.173512 12.486034,49.787087 12.466808,50.192344 12.510528,50.231746 13.226561,50.662455 13.589382,50.415827 13.9563,50.123456 13.973103,50.736611 14.002687,51.15741 14.034224,51.178705 14.769568,51.51575 15.116714,51.212644 15.463116,50.863908 15.54094,51.429612 15.629437,51.93069 15.665901,51.949381 16.344776,52.185385 16.683708,51.818251 17.024738,51.405024 17.135144,51.871592 17.316312,52.533172 17.950729,52.687505 18.285301,52.246424 18.624906,51.76566 18.743714,52.121639 19.044544,52.943191 19.593333,53.022095 19.917569,52.507152 20.251746,51.966316 20.366293,52.232787 20.787626,53.160509 21.274097,53.183682 21.575966,52.607675 21.895064,52.026596 22.012672,52.250632 22.514461,53.184496 22.997659,53.161521 23.256228,52.557495 23.53838,51.966315 23.692956,52.211976 24.199899,53.02511 24.735321,52.948414 24.935096,52.345144 25.165212,51.765664 25.388394,52.060608 25.850831,52.693359 26.456962,52.546343 26.593658,51.960391 26.765388,51.405048 27.075931,51.742495 27.468165,52.193011 28.088016,51.977519 28.090329,51.966756 28.140169,51.943804 28.213662,51.394748 28.327028,50.863892 28.721084,51.208844 29.054421,51.52277 29.712036,51.219926 29.713431,51.207408 29.764128,51.176649 29.776648,50.644724 29.833826,50.123456 30.280279,50.426975 30.604064,50.66704 31.246403,50.277317 31.246404,50.261687 31.299854,50.2188 31.247506,49.695228 31.245058,49.173504 31.716374,49.4044 32.071484,49.599647 32.663209,49.124847 32.66046,49.102155 32.715799,49.042516 32.592066,48.5284 32.52315,48.004247 32.995149,48.147171 33.406998,48.29762 33.931428,47.73245 33.922276,47.696376 33.976176,47.616119 33.77664,47.122304 33.635,46.602912 34.088463,46.655036 34.562654,46.742866 35.012558,46.072971 34.983996,45.998608 35.032827,45.899717 34.767112,45.43854 34.55732,44.935676 34.977548,44.90974 35.516198,44.92082 35.89595,44.151765 35.839932,44.040324 35.881439,43.925132 35.567848,43.5053 35.301404,43.027551 35.689211,42.946424 36.257954,42.88021 36.572436,42.007443 36.481704,41.858384 36.514508,41.729108 36.176651,41.361863 35.8683,40.9182 36.236824,40.795359 36.783521,40.668975 37.034169,39.681224 36.901224,39.490988 36.924311,39.350886 36.592184,39.047688 36.262008,38.648156 36.634296,38.485391 37.09145,38.33661 37.279418,37.195934 37.094444,36.959048 37.109506,36.835832 36.81606,36.597288 36.490896,36.256696 36.897851,36.043816 37.221948,35.916006 37.370994,34.696737 37.167288,34.464128 37.178439,34.366346 36.899436,34.15772 36.55978,33.847772 36.954131,33.611852 37.281765,33.460322 37.409218,32.342731 37.220856,32.159088 37.230168,32.093072 36.893627,31.859505 36.457452,31.524842 36.71334,31.348274 37.398306,30.96585 37.337231,30.821811 36.461747,29.993497 36.215748,29.768982 36.251272,29.470183 36.210047,29.447285 36.177928,29.43213 36.262975,29.355919 36.52725,28.109444 36.168044,27.941666 35.805776,27.838088 36.115831,27.53332 36.59526,26.977059 35.616442,26.599678 35.374764,26.547368 35.327668,26.527715 35.334052,26.488483 35.311084,26.484048 35.339554,26.454675 35.342844,26.434455 35.351278,26.423333 35.537628,25.46946 35.141552,25.282426 34.852816,25.171228 35.324884,24.808193 35.704948,24.397348 35.008676,23.981804 34.672616,23.703428 35.156168,23.401829 35.73651,23.033426 35.635937,22.646475 35.069159,22.213419 34.916696,22.034152 35.346409,21.77081 35.249232,21.523475 35.043984,21.183704 35.36632,21.032288 35.706706,20.629763 35.623316,20.580848 35.079144,20.148234 35.367051,19.868568 36.000125,19.396215 35.445491,18.789705 34.866404,18.293182 34.92068,18.236336 34.983868,18.097804 34.8043,18.015282 34.8819,17.899705 35.268111,17.379257 35.406632,16.67938 35.897553,17.149066 36.132304,17.247382 36.731176,17.527684 36.670247,17.63546 36.596485,17.739829 36.8349,18.008552 36.691244,18.240003 36.107154,19.426155 36.67674,19.775292 37.076596,20.021448 36.75764,20.299338 36.386113,20.615676 36.969315,22.145749 36.995493,22.216782 36.963499,22.229949 36.926551,22.267758 36.089339,23.264315 36.626547,23.574679 36.801936,23.702962 36.149016,24.065771 35.902545,24.219725 36.150713,24.508602 36.893359,24.731233 36.948096,24.754766 36.838772,24.872984 36.912148,24.903374 37.00392,24.911567 36.836395,25.428206 36.800729,25.712834 37.371452,25.946452 37.175036,26.228257 36.668715,26.766331 36.649155,26.922426 37.772187,27.394905 37.881255,27.44384 37.70406,27.667453 37.817799,27.711465 37.958988,27.776848 37.771139,28.523832 37.675077,28.999142 37.956107,29.188199 38.404255,29.453878 38.049891,29.721868 37.482812,30.185213 37.423709,30.680265 37.446948,30.697412 37.4448,30.769107 37.440209,30.826956 38.010316,30.95442 38.66234,31.510208 38.643244,31.714229 38.633424,31.780638 38.637979,31.784434 38.637349,31.808585 38.709172,31.863628 38.667823,31.874106 38.635112,31.894425 38.585944,33.779739 38.553125,34.094479 38.57978,34.120188 38.577648,34.208607 38.786224,34.385632 38.66408,34.397839 38.5719,34.446903 38.526231,36.340456 38.494494,36.652286 38.519904,36.679828 38.515296,36.745436 38.661128,36.881848 38.575331,36.884956 38.503138,36.91855 38.344308,39.180092 38.328936,39.287132 38.337511,39.297628 38.334591,39.315012 38.376844,39.359868 38.326981,39.360319 37.925376,41.751119 37.920258,41.772273 37.921963,41.774699 37.921034,41.777964 37.929663,41.788608 37.918069,41.788395 37.285988,44.010695 37.265677,44.067607 37.270204,44.07548 37.266665,44.083793 37.290095,44.118984 37.253024,44.115836 36.451208,45.999328 36.379977,46.14257 36.390492,46.166572 36.378895,46.185622 36.435392,46.296176 36.384091,46.286624 36.314546,46.291326 35.430816,47.742995 35.275298,47.971548 35.288736,48.017576 35.266861,48.042945 35.343868,48.26492 35.248744,48.234156 35.112988,48.221398 34.225595,49.250544 33.964005,49.529097 33.972964,49.588024 33.943273,49.613426 34.008592,49.947764 33.874771,49.883799 33.687563,49.8322 32.861407,50.53902 32.491273,50.832954 32.492984,50.896128 32.459005,50.918057 32.486058,51.342232 32.326461,51.239823 32.112238,51.141849 31.353049,51.631804 30.892519,51.908751 30.887316,51.969144 30.851857,51.986587 30.826726,52.462484 30.658551,52.324691 30.444312,52.18707 29.710648,52.547979 29.200652,52.781376 29.190736,52.833411 29.156143,52.846371 29.080652,53.323427 28.923459,53.163651 28.733158,53.004835 27.9409,53.301639 27.444685,53.474011 27.432712,53.515532 27.407238,53.522268 27.298294,53.939608 27.170873,53.782155 27.019078,53.624917 26.067938,53.876448 25.641707,53.980238 25.63093,54.008524 25.617605,54.010629 25.49826,54.340352 25.403875,54.202779 25.292095,54.062059 24.160297,54.24088 23.819746,54.290011 23.811626,54.307367 23.808834,54.307514 23.694008,54.556756 23.626017,54.442847 23.545538,54.321406 22.300778,54.387075 22.016664,54.400697 21.895064,54.6193 21.840152,54.515952 21.775296,54.399629 20.5489,54.334668 20.251959,54.320456 20.096119,54.556756 20.037906,54.433264 19.980005,54.30744 19.978502,54.307368 19.968205,54.285711 18.869311,54.110627 18.513621,54.05947 18.291868,54.34034 18.226769,54.176891 18.166502,54.009545 18.159184,54.008492 18.144248,53.971392 17.223709,53.725979 16.796512,53.622188 16.491844,53.9396 16.426563,53.731804 16.371594,53.51895 16.357395,53.5155 16.339726,53.459998 15.578335,53.17342 15.090753,53.004072 14.709474,53.32342 14.656741,53.084688 14.618883,52.840181 14.59939,52.833411 14.583637,52.763221 13.896752,52.425404 13.385929,52.190914 12.963407,52.462492 12.934734,52.223468 12.922709,51.978275 12.902807,51.969139 12.893021,51.888156 12.184682,51.432724 11.721278,51.152559 11.304074,51.342248 11.300885,51.127643 11.315871,50.907457 11.297146,50.896136 11.296166,50.81086 10.506233,50.139416 10.144786,49.8502 9.781532,49.94778 9.798112,49.775912 9.833176,49.600863 9.817162,49.588048 9.825758,49.507156 8.942765,48.492531 8.711429,48.24359 8.446261,48.264924 8.471709,48.147299 8.512994,48.030056 8.501397,48.017576 8.516849,47.951962 7.603583,46.470975 7.494812,46.308675 7.354744,46.296211 7.37536,46.234691 7.40574,46.175768 7.399626,46.166644 7.413145,46.129763 6.576876,44.192528 6.546244,44.129586 6.500044,44.118956 6.511836,44.092089 6.526284,44.062418 5.876092,41.794045 5.860475,41.788619 5.864762,41.78046 5.870772,41.770338 5.494827,39.478971 5.473267,39.386421 5.413249,39.359868 5.431521,39.328964 5.454254,39.304799 5.452582,39.297624 5.466763,39.276797 5.347765,37.24524 5.310906,36.976541 5.129011,36.881828 5.19621,36.778004 5.273727,36.705515 5.270206,36.679848 5.314625,36.620907 5.282781,34.914624 5.247841,34.531588 5.003878,34.38564 5.106189,34.244316 5.213425,34.154266 5.210317,34.120196 5.256278,34.065685 5.178612,32.091712 5.16397,31.921467 5.080962,31.863682 5.117809,31.82054 5.153021,31.794161 5.152186,31.784454 5.159398,31.777228 5.127812,31.5101 5.254084,31.496944 5.91887,31.097488 6.237754,30.879818 6.258371,30.893489 6.352706,30.836807 6.343137,30.697398 6.366986,30.677455 6.310893,30.188397 5.624538,29.653439 5.385861,29.453888 5.747629,29.179721 6.092325,28.97452 5.831161,27.776848 6.110565,27.670121 5.967107,27.499456 5.908913,27.443778 6.535506,27.193204 7.139455,26.923173 7.103424,26.717968 6.824232,26.345605 6.418683,25.94644 6.67707,25.887498 6.938776,25.78027 6.786232,24.911502 6.93358,24.849033 6.876216,24.788373 6.842044,24.754738 7.429404,24.620841 7.869245,24.220654 7.166151,23.814796 6.98818,23.70296 7.602383,23.388502 7.735191,23.292878 7.340776,22.797638 6.876064,22.278267 6.867398,22.271656 6.827714,22.231055 6.805636,22.221539 6.79406,22.215999 7.186549,21.309319 7.420891,20.626596 7.132784,20.377585 6.713529,20.021432 7.100147,19.784652 7.677341,19.429748 7.28157,18.803462 6.955228,18.008552 7.073198,17.880379 7.205909,17.729529 7.058951,17.527688 7.202059,17.46864 7.753614,17.221545 7.824253,17.18584 7.832336,17.177724 8.383562,16.67933" slic3r:type="contour"/>
  </g></svg>