<svg width="43.790126" height="63.590156" xmlns="http://www.w3.org/2000/svg" xmlns:svg="http://www.w3.org/2000/svg" xmlns:xlink="http://www.w3.org/1999/xlink" xmlns:slic3r="http://slic3r.org/namespaces/slic3r"><g xmlns="http://www.w3.org/2000/svg" slic3r:z="3.26749999999999e-005" id="layer98">
    <polygon style="fill: white" points="30.382401,59.722595 31.065568,60.247128 30.917832,60.735964 30.73599,61.475724 30.552642,61.324796 29.734382,60.718424 29.869594,60.220779 30.102976,59.53126" slic3r:type="contour"/>
    <polygon style="fill: white" points="32.739739,58.967399 33.30818,59.359544 33.139525,60.025108 33.026216,60.603564 32.693914,60.35874 32.001018,59.900376 32.153322,59.203779 32.296928,58.698696" slic3r:type="contour"/>
    <polygon style="fill: white" points="35.063548,58.074136 35.490648,58.322364 35.332956,59.194283 35.283856,59.5848 34.764652,59.263712 34.221967,58.96246 34.358291,58.028548 34.416436,57.74608" slic3r:type="contour"/>
    <polygon style="fill: white" points="38.10838,55.433572 38.963905,55.635211 39.121415,55.54284 39.09996,55.726284 39.145448,55.737224 39.185776,56.209447 39.155405,56.306108 39.247076,56.975388 39.19476,56.963544 38.961051,56.913885 38.958972,56.931724 38.958841,56.931692 38.839272,57.312236 37.433386,57.795308 37.401764,58.218239 37.397476,58.396343 36.664647,58.059451 36.49126,58.119028 36.31944,58.050143 35.814064,58.164264 36.173348,57.453459 36.317388,57.083293 36.333432,56.699251 36.335776,56.673656 36.443004,56.713934 36.469535,56.635204 36.490632,56.558152 37.372472,56.303743 37.976101,56.077408 37.903748,55.396076" slic3r:type="contour"/>
    <polygon style="fill: white" points="40.460067,54.573443 40.660839,55.2203 40.365172,55.220176 39.450224,55.221932 39.248564,54.614912 39.051096,53.963288 39.505272,53.951452 40.275164,53.951123" slic3r:type="contour"/>
    <polygon style="fill: white" points="41.947864,50.21922 42.413352,51.04242 42.372615,51.063704 42.271127,51.113862 42.279536,51.127119 42.265762,51.13283 42.34094,51.296 42.127887,51.464584 41.187072,52.232988 41.528416,52.926956 41.689176,53.256876 41.129464,53.382447 40.492508,53.518419 40.033711,52.619599 39.894248,52.343544 40.644584,52.176499 40.762324,52.149649 40.504531,51.601263 40.300976,51.110888 40.504999,50.941292 40.731864,50.7463 40.509772,50.375044 40.66288,50.304835 41.679948,49.783052" slic3r:type="contour"/>
    <polygon style="fill: white" points="42.830704,46.667004 43.103768,46.985636 42.498079,47.42867 42.526876,47.481688 42.514669,47.491997 42.792687,47.876783 42.948496,48.116444 42.406412,48.499379 41.810952,48.926036 41.18804,47.963516 41.001036,47.67972 41.538284,47.340608 41.251527,47.020599 41.116416,46.837604 41.624887,46.403076 42.222856,45.939264" slic3r:type="contour"/>
    <polygon style="fill: white" points="43.308152,42.564115 43.540212,42.788608 42.959584,43.208012 43.009676,43.320708 42.981276,43.345668 43.268591,43.757191 43.432792,44.038716 42.927911,44.5743 42.32064,45.13292 41.695971,44.062115 41.46498,43.709972 42.002338,43.243926 41.986003,43.223252 42.012649,43.18938 41.679195,42.886199 41.549724,42.724748 42.091392,42.208276 42.606196,41.80232" slic3r:type="contour"/>
    <polygon style="fill: white" points="43.281763,36.977675 43.759748,38.186724 43.704684,38.319063 43.616183,38.450605 43.647804,38.481516 43.633,38.506528 43.757692,38.6051 43.706192,38.643931 43.340931,38.999969 43.090528,39.42302 42.715344,39.883244 42.464099,39.401871 42.356576,39.320536 41.761932,38.649712 41.826716,38.579259 41.972324,38.459648 41.963864,38.443439 42.019635,38.380148 41.765576,37.923452 41.986008,37.572851 42.740008,36.078636" slic3r:type="contour"/>
    <polygon style="fill: white" points="42.796319,35.715019 42.80666,35.744436 42.788428,35.764116 42.781936,35.760104 42.766644,35.745132 42.784372,35.693179" slic3r:type="contour"/>
    <polygon style="fill: white" points="43.228875,34.285655 43.667284,34.563852 43.212992,34.935319 42.720496,35.493956 41.992964,35.045564 41.684924,34.73982 42.023984,34.299075 42.617404,33.766248" slic3r:type="contour"/>
    <polygon style="fill: white" points="21.947422,3.313071 21.95498,3.31313 21.955405,3.314036 22.006395,3.31442 22.518628,3.310297 22.520598,3.306808 22.530943,3.307261 22.550444,3.274235 22.586662,3.21576 22.630152,3.3094 22.636822,3.309346 22.638158,3.312565 23.21018,3.326122 22.791707,3.657239 22.901539,3.893715 23.392614,3.366204 23.414168,3.443547 23.623013,4.235095 23.816544,4.095566 24.244572,3.911314 24.310766,4.605899 24.349962,4.613306 24.869857,4.702971 24.740181,4.888353 25.047212,4.910507 25.032804,5.354269 24.992955,5.888942 25.557297,6.019883 25.428951,6.231194 25.294573,6.434912 25.86538,6.762232 25.839061,7.08221 25.890556,7.097245 25.98612,7.128467 25.820575,7.306944 25.817073,7.349519 25.888858,7.483948 26.073382,7.79621 26.170324,7.812306 26.225418,7.83231 26.17901,7.927888 26.292366,7.965155 26.263557,8.233807 26.286731,8.315855 26.571514,8.330789 26.552644,8.542808 26.4733,8.838403 27.008749,8.707125 27.010183,8.706559 27.010237,8.70678 27.010528,8.706758 27.010568,8.707735 27.096138,8.955197 27.185395,9.092979 27.41516,9.129199 27.48725,9.145028 27.66729,9.020076 27.692869,9.116286 27.71753,9.193438 28.458552,9.320431 28.534093,9.401041 28.584698,9.36395 28.612137,9.447862 28.709668,9.500002 29.490495,9.886785 29.652881,9.761477 29.70722,9.722274 29.789703,9.960843 29.96259,10.005512 30.855112,10.164357 30.895919,10.135228 30.906266,10.128679 30.918859,10.16678 30.987351,10.161594 31.671012,10.607075 31.761469,10.65902 31.97725,10.530986 32.032035,10.665813 32.073616,10.842161 32.124697,10.993281 32.184745,11.052314 32.360779,11.175345 32.588028,10.967279 32.801552,10.825789 32.926143,11.04758 32.979364,10.869324 33.125634,11.09 33.180246,11.123943 33.361342,10.898307 33.366843,10.903683 33.423378,10.881183 33.586682,11.118512 33.609864,11.141164 33.83162,11.225731 33.875168,11.152206 33.886943,11.106841 33.827359,10.695802 33.82736,10.695802 33.910404,10.787684 34.061636,10.837383 34.233636,10.546986 34.410423,10.665368 34.4784,10.490423 34.494608,10.388163 34.834988,10.673539 34.969164,10.738564 35.15488,10.509618 35.371072,10.204169 35.560352,10.468132 35.752507,10.685366 36.288076,10.347547 36.350236,10.523853 36.495187,10.90853 36.569596,10.919492 37.120144,10.816185 37.121024,10.874008 37.120576,11.015282 37.467528,11.222667 37.575912,11.537534 37.697464,11.55419 37.742228,11.565631 37.650279,11.753574 37.663908,11.793169 37.644969,11.838258 37.656932,11.936354 37.704213,12.286571 37.764376,12.314827 37.764161,12.325602 37.953248,12.401602 38.050384,12.449383 37.771474,12.784792 37.773311,12.798395 37.754326,12.819411 37.748965,13.088555 37.809368,13.123727 37.808606,13.12973 38.05326,13.267148 38.18178,13.345463 37.750145,13.748223 37.750164,13.751916 37.727211,13.771231 37.705517,13.942205 38.074988,14.169167 38.255039,14.274958 37.709544,14.74297 37.572602,14.852176 38.052304,15.132482 38.340556,15.261088 37.92156,15.6264 37.577417,15.942934 37.999376,16.157288 38.49616,16.327366 38.284752,16.513644 38.060879,16.765239 38.454436,17.093114 38.716512,17.343113 38.673408,17.455778 38.743024,17.47243 38.627171,17.576635 38.583192,17.691588 38.542701,17.74521 38.314197,18.478682 38.727296,18.616372 39.11874,18.68612 38.893268,18.920352 38.655348,19.311767 39.585846,19.861201 39.611252,19.867148 39.615227,19.871336 39.63606,19.873866 39.627367,19.884128 39.656192,19.914504 39.889305,21.053452 40.037167,21.08862 40.24368,21.102026 39.973044,21.462585 40.031064,21.746062 40.012398,21.784656 40.381612,22.51047 40.426298,22.625328 40.75518,22.723994 41.004416,22.753142 40.661046,23.228707 40.760488,23.484304 40.689144,23.628644 41.181236,24.505652 41.261682,24.699815 41.632,24.850174 41.8645,24.901372 41.520041,25.323386 41.61992,25.564454 41.533091,25.723852 41.957191,26.424473 42.3793,27.432626 42.594195,27.551319 42.70254,27.591632 42.523647,27.777381 42.569444,27.886762 42.523718,27.957248 42.699828,28.226344 42.9694,28.88112 42.948424,29.942379 42.818024,30.451712 42.967072,30.555976 42.947285,30.670267 43.320864,30.854688 43.199776,30.964435 42.809187,31.467916 42.785884,31.602516 42.504252,32.278742 42.265419,31.839001 41.984903,31.703695 41.355608,31.178328 41.450559,31.03584 41.696339,30.79121 41.67376,30.749638 41.818629,30.50822 40.964252,28.979664 41.060329,28.286709 40.993256,28.243438 40.990282,28.206572 40.8473,28.157412 40.785736,28.113819 40.954993,27.769054 40.81276,26.00565 40.558716,25.884902 40.533808,25.786062 40.166964,25.70602 40.010652,25.619434 40.305892,24.881652 40.065546,23.927914 39.790592,23.830324 39.748156,23.724361 39.367316,23.672062 39.203036,23.602716 39.438318,22.950699 39.201683,22.359828 39.117433,22.22427 38.915635,22.166618 38.844161,22.066096 38.586972,22.051148 38.470916,22.015236 38.584978,21.70158 38.503559,21.587073 38.090172,21.244302 38.064488,20.917887 38.016856,20.773642 37.832264,20.721776 37.864216,20.660149 37.938872,20.53748 37.930524,20.5122 38.10318,20.165896 38.118004,20.093224 38.150774,19.633361 37.749824,19.54666 37.252064,19.371453 37.485248,18.979089 37.777178,18.572685 37.484993,18.297769 36.978564,18.043816 36.949518,18.014646 36.846179,17.980981 36.81568,17.966184 36.852931,17.911952 36.796579,17.874114 37.123951,17.323958 37.217557,17.070219 37.123388,17.02965 36.53694,16.677643 36.772979,16.379402 37.214249,15.985852 36.638948,15.666626 36.363128,15.487739 36.832036,14.982498 36.977463,14.868084 36.383916,14.494823 36.268152,14.4216 36.634901,14.086787 36.545376,13.906912 36.443531,13.679286 36.239927,13.556222 36.197816,13.532818 36.335891,13.411423 36.297948,13.333414 36.15253,12.896632 36.117656,12.881236 36.106976,12.876935 36.131191,12.85101 36.058728,12.721155 36.0293,12.508513 35.987132,12.503674 35.993503,12.488169 36.028059,12.411779 36.026208,12.366303 35.994564,12.280906 35.817964,12.319721 35.814211,12.22462 35.823709,12.086148 35.609884,12.215159 35.532899,12.027012 35.398336,12.193286 35.277175,12.049403 35.22282,12.242977 34.965588,12.084784 34.976928,12.194784 34.979724,12.429578 34.717144,12.347667 34.685096,12.402254 34.580612,12.741141 34.51299,12.684818 34.49666,12.77705 34.379647,12.722071 33.861784,12.46722 33.802591,12.65148 33.62456,12.995929 33.377256,12.834394 33.23333,13.007107 33.130907,12.673483 32.801576,12.458369 32.566002,12.618631 32.455629,12.634199 32.25026,12.815384 32.234264,12.726563 32.215463,12.668077 31.933465,12.707855 31.44144,12.314022 31.378146,12.354978 31.268907,12.434627 31.230181,12.144925 31.141036,12.073571 31.138345,12.062204 30.693875,11.81124 30.594084,11.746011 30.452657,11.847925 30.234106,12.018343 30.133918,11.485556 30.119277,11.432397 29.610225,11.242046 29.384405,11.422088 29.116189,11.653814 29.001562,11.203176 28.925443,10.967738 28.528063,10.868935 28.279956,11.070211 28.002312,11.314754 27.887104,10.886036 27.820676,10.68306 27.452388,10.630193 27.242098,10.788756 27.014584,10.983465 26.91638,10.555803 26.825968,10.553831 26.628761,10.516842 26.484511,10.57191 26.309278,10.675187 26.199905,10.159503 26.192404,10.102525 26.098379,10.125073 25.61559,10.224508 25.625186,10.047199 25.644267,9.901858 24.997548,9.608864 24.96229,9.526203 24.925332,9.521578 24.942733,9.480348 24.932498,9.456351 24.935646,9.445604 24.91342,9.363569 24.691151,8.777678 24.560276,8.758929 24.461294,8.727127 24.563713,8.561284 24.481929,8.422802 24.280896,8.276563 24.29053,7.989799 24.276621,7.942952 24.14364,7.904548 24.157354,7.837631 24.214182,7.732654 24.209822,7.717968 24.320698,7.535891 24.42534,7.342588 24.447588,7.017326 23.771594,6.903952 23.680378,6.872007 23.702242,6.798231 23.653428,6.809666 23.800202,6.1545 23.806281,6.017415 23.656091,6.13423 23.29072,6.4055 23.258517,5.912703 23.237834,5.761872 22.908514,6.203929 22.807314,5.825761 22.742511,5.604981 22.46307,6.131313 22.335009,5.81781 22.243906,5.605823 22.149979,5.605245 21.895064,6.137873 21.754373,5.834963 21.642487,5.602127 21.638118,5.6021 21.63652,5.598696 21.554053,5.599212 21.327086,6.131287 21.175503,5.832575 21.054288,5.605605 20.881644,6.203928 20.665951,5.896804 20.575553,5.775912 20.499388,6.4055 20.060169,6.052881 20.115309,6.54692 20.136598,6.809792 20.04181,6.798913 20.109679,6.872067 19.755568,6.794389 19.415725,6.914327 19.528151,7.640346 19.580389,7.718088 19.571115,7.790949 19.646522,7.904495 19.646521,7.904496 19.628592,7.879749 19.557653,7.896701 19.509329,8.276311 19.242217,8.597442 19.279891,8.656515 19.328802,8.727176 19.173785,8.735363 19.157604,8.813595 18.848633,9.488266 18.864792,9.52161 18.837445,9.521851 18.792652,9.608803 18.293061,9.809077 18.11991,9.894797 18.17455,10.224494 17.869635,10.151362 17.685087,10.11006 17.670872,10.117097 17.60752,10.10672 17.592195,10.148571 17.534336,10.238523 17.49484,10.450489 17.480842,10.675192 17.000309,10.495964 16.911156,10.500753 16.870032,10.671979 16.775556,10.983457 16.440668,10.739982 16.278489,10.60938 16.003833,10.652112 15.921864,10.941604 15.787813,11.314761 15.456845,11.051437 15.22227,10.851888 14.935702,10.924663 14.898852,10.938323 14.803982,11.286238 14.673968,11.653811 14.289955,11.352733 14.133651,11.221979 13.784323,11.351473 13.780777,11.363776 13.71638,11.39867 13.648223,11.717617 13.55601,12.01835 13.130316,11.71623 12.739825,11.927819 12.677077,11.974615 12.649092,12.073584 12.592657,12.111364 12.56392,12.281558 12.5212,12.434646 12.309843,12.3007 12.190636,12.380504 11.856616,12.707882 11.684658,12.648724 11.605344,12.643544 11.539814,12.81541 11.441463,12.73845 11.304266,12.623887 11.224097,12.618653 10.977041,12.454711 10.794507,12.567359 10.727523,12.736846 10.55679,13.007113 10.374998,12.824658 10.165602,12.995926 10.064937,12.557559 10.022097,12.467376 9.619609,12.602972 9.293468,12.777049 9.2918,12.713411 9.209504,12.741136 9.012445,12.354437 8.810397,12.429577 8.865183,12.016675 8.567285,12.242977 8.549071,12.058662 8.477855,12.043381 8.39178,12.193284 8.294691,11.984088 8.222523,11.993018 8.180196,12.215155 8.075597,12.105226 7.93635,12.016376 7.972162,12.319693 7.915907,12.294203 7.830797,12.273734 7.798597,12.395511 7.778762,12.451614 7.802997,12.503673 7.762676,12.50549 7.73136,12.721277 7.652922,12.843157 7.683155,12.876929 7.628758,12.901735 7.601957,12.959494 7.434502,13.394482 7.559089,13.503836 7.592314,13.532816 7.327495,13.697688 7.135331,14.091891 7.430132,14.352556 7.521974,14.421604 6.923691,14.797004 6.775049,14.890916 7.225604,15.349358 7.42701,15.487722 6.950657,15.734487 6.541371,15.992641 6.872151,16.384878 7.253208,16.677585 6.992096,16.770983 6.603828,16.993525 6.896894,17.638027 6.993559,17.874056 6.935311,17.928373 6.974442,17.96619 6.865553,17.993425 6.811467,18.043862 6.67463,18.108647 6.023587,18.623306 6.288768,19.048313 6.538051,19.371494 6.179844,19.425482 5.66407,19.594681 5.746157,20.276364 5.859528,20.51208 5.850562,20.553196 5.957837,20.721814 5.898082,20.725483 5.808111,20.747873 5.699793,21.24461 5.202663,21.799987 5.252166,21.913246 5.319211,22.015242 5.018922,22.005257 4.874499,22.166602 4.828333,22.177569 4.625791,22.70523 4.360018,23.182661 4.48763,23.468474 4.587106,23.602714 4.111086,23.629838 3.99947,23.830344 3.875489,23.866839 3.719113,24.657396 3.515116,25.170828 3.674548,25.493556 3.779479,25.619426 3.311173,25.684121 3.231397,25.884904 3.129687,25.925723 3.136215,26.613722 2.866055,27.910937 2.955466,28.062268 3.004404,28.113804 2.812779,28.166752 2.796801,28.243472 2.767455,28.259743 2.820163,28.496372 2.825833,28.979874 2.365898,30.142053 2.03219,30.629896 2.116386,30.749531 2.077636,30.840217 2.434522,31.178286 2.285774,31.24122 1.735638,31.640606 1.723343,31.66938 1.286137,32.278212 1.142188,31.742826 0.96831,31.578113 0.469264,30.854666 0.5894,30.760922 0.842633,30.628705 0.823071,30.555948 1.065732,30.367156 0.82066,28.881464 1.294039,28.015563 1.220724,27.886794 1.257328,27.817606 1.139352,27.68608 1.087597,27.591594 1.518072,27.324761 2.301789,25.843417 2.170234,25.564451 2.250067,25.412122 2.023443,25.113497 1.925631,24.901326 2.606181,24.582976 2.696484,24.560304 3.132912,23.727549 3.029643,23.484332 3.109051,23.325015 2.883094,22.986968 2.785707,22.753136 3.445192,22.518278 3.516749,22.507054 3.821543,21.895547 3.759032,21.746068 3.812866,21.574397 3.625619,21.294743 3.546437,21.102026 4.002757,20.96886 4.075837,20.735816 4.134013,19.914368 4.165163,19.897359 4.154095,19.873834 4.169707,19.869349 4.35652,19.823987 4.741167,19.702164 5.129646,19.401092 4.958702,19.190488 4.671404,18.686104 5.112643,18.527241 5.529602,18.429011 5.461877,18.045628 5.206933,17.691596 5.188977,17.634794 5.078802,17.518455 5.047102,17.47243 5.138525,17.429614 5.073618,17.3431 5.521205,17.102979 5.752648,16.860538 5.293974,16.327337 5.620787,16.155365 6.190677,15.929304 5.734299,15.525664 5.449585,15.261075 6.035241,14.910939 6.203818,14.828161 5.713099,14.414445 5.53509,14.274979 6.075816,13.941075 6.052204,13.761656 6.039927,13.751844 6.039197,13.723608 5.728036,13.441293 5.608346,13.345455 5.982235,13.137926 5.980758,13.123727 6.023111,13.100227 6.01702,12.864197 6.018041,12.79971 6.016796,12.798394 6.020502,12.766846 5.81495,12.526967 5.739712,12.449385 6.025341,12.338787 6.02572,12.314827 6.076165,12.293112 6.088539,12.187805 6.140476,11.826318 6.126221,11.793169 6.140276,11.745344 6.069938,11.605497 6.047904,11.565629 6.180081,11.550658 6.181107,11.543519 6.198578,11.540838 6.322611,11.222667 6.638976,11.04111 6.671248,11.020916 6.670005,10.816187 6.733611,10.835796 6.906406,10.873757 6.907619,10.872998 7.23545,10.934899 7.281538,10.927569 7.502024,10.347552 7.689899,10.475967 8.002284,10.677693 8.08785,10.56943 8.419069,10.204152 8.700716,10.541509 8.801049,10.675924 9.151249,10.453852 9.295512,10.388164 9.408248,10.640018 9.556526,10.547 9.6829,10.795005 9.962768,10.695787 10.054327,10.932453 10.057481,11.011421 10.366801,10.881183 10.371908,10.892766 10.428838,10.898307 10.464574,11.140869 10.810734,10.869334 10.955379,11.005758 10.988559,10.82579 11.124192,11.053971 11.307997,11.185432 11.701776,10.893749 11.718206,10.837274 11.761735,10.810157 11.812953,10.530961 11.885762,10.608788 11.983981,10.671706 12.802791,10.161614 12.875423,10.160967 12.883863,10.128706 12.9267,10.161838 12.982531,10.147748 14.010791,9.94213 14.063162,9.78495 14.082855,9.722273 14.280573,9.881587 14.423924,9.803336 15.180513,9.442108 15.199259,9.383621 15.2054,9.363964 15.24938,9.399346 15.33127,9.320541 15.947611,9.223864 16.057308,9.201777 16.058009,9.198801 16.065687,9.197987 16.122838,9.020078 16.218701,9.094942 16.324272,9.170562 16.378833,9.164777 16.549114,9.12579 16.779605,8.70725 16.77963,8.706727 16.779882,8.706763 16.779973,8.706527 16.780223,8.706622 17.181674,8.861963 17.306563,8.884224 17.358101,8.744434 17.332894,8.598333 17.218668,8.330739 17.325904,8.368491 17.441438,8.366734 17.49774,7.965175 17.617048,7.903349 17.564704,7.832287 17.691946,7.82826 17.746161,7.7266 17.96755,7.34037 17.869746,7.22469 17.804024,7.128444 17.966582,7.082591 17.963908,7.014267 17.92479,6.762109 18.25914,6.565074 18.506449,6.423756 18.232828,6.019875 18.640186,5.94309 18.848291,5.899318 18.846014,5.473156 18.742922,4.91052 18.839838,4.954311 19.075019,4.951543 18.920296,4.702959 19.512445,4.594085 19.543832,4.321443 19.545526,3.911344 19.873162,4.16351 20.162118,4.31708 20.238846,4.050362 20.397512,3.366239 20.423807,3.400515 20.871878,3.929627 20.980123,3.69685 20.884223,3.626605 20.580118,3.326113 21.15304,3.310074 21.153333,3.309347 21.16034,3.309295 21.175129,3.277491 21.203492,3.215762 21.25759,3.307147 21.269549,3.306812 21.270462,3.308476 21.313744,3.308155 21.844159,3.31227 21.861609,3.279193 21.895064,3.21355" slic3r:type="contour"/>
    <polygon style="fill: white" points="1.742295,34.426104 2.105218,34.739772 1.618908,35.01556 1.069574,35.493908 0.425509,34.946632 0.122843,34.56388 0.5154,34.198328 1.172663,33.766092" slic3r:type="contour"/>
    <polygon style="fill: white" points="1.015671,35.713387 1.023481,35.745132 1.001698,35.764116 0.995857,35.759268 0.983464,35.744436 1.005755,35.693184" slic3r:type="contour"/>
    <polygon style="fill: white" points="1.598737,36.902308 2.024551,37.923515 1.929978,38.172108 1.789399,38.40545 1.826294,38.44346 1.812067,38.475068 2.028192,38.649688 1.948319,38.706496 1.507264,39.152243 1.408183,39.372368 1.074819,39.883391 0.700976,39.321397 0.032433,38.60508 0.069016,38.566636 0.15346,38.498323 0.142291,38.481532 0.186687,38.434372 0.030375,38.1868 0.180139,37.918076 1.05004,36.078648" slic3r:type="contour"/>
    <polygon style="fill: white" points="2.031644,42.561439 2.240422,42.72476 1.754261,43.152066 1.80149,43.219536 2.151024,43.521868 2.325178,43.710108 1.935109,44.431735 1.469369,45.133092 0.714768,44.369624 0.357334,44.038712 0.824566,43.362711 0.780448,43.320708 0.817438,43.246655 0.438995,42.969343 0.249908,42.788616 0.714846,42.259432 1.183898,41.802352" slic3r:type="contour"/>
    <polygon style="fill: white" points="2.405219,46.629523 2.673716,46.837628 2.24232,47.312324 2.619741,47.552575 2.789095,47.6797 2.390775,48.301724 1.979042,48.926024 1.176914,48.356687 0.84163,48.116448 1.285358,47.501619 1.263241,47.481788 1.282261,47.448998 0.915913,47.180783 0.686358,46.985632 1.077361,46.511183 1.56706,45.939156" slic3r:type="contour"/>
    <polygon style="fill: white" points="2.570604,49.996892 3.280346,50.375012 3.209953,50.498087 3.061827,50.74559 3.489182,51.110996 3.282348,51.550976 3.02005,52.146321 3.66379,52.290267 3.895868,52.343536 3.595593,52.929176 3.297623,53.518476 2.495243,53.340504 2.100966,53.256892 2.442951,52.561911 2.599701,52.241124 2.106533,51.857356 1.449153,51.295876 1.487704,51.220904 1.527283,51.134248 1.510528,51.127088 1.519836,51.112916 1.376782,51.04244 1.414122,50.981564 2.11015,49.783084" slic3r:type="contour"/>
    <polygon style="fill: white" points="4.218418,53.966236 4.739014,53.963272 4.609017,54.340447 4.339805,55.221832 3.836684,55.221828 3.129307,55.220304 3.239391,54.849468 3.51495,53.951132" slic3r:type="contour"/>
    <polygon style="fill: white" points="5.855577,55.579863 5.804942,56.043583 7.299458,56.558112 7.350914,56.714993 7.434648,56.682528 7.45438,56.673663 7.46253,57.015431 7.976094,58.164236 7.483491,58.046059 7.298823,58.119056 7.145523,58.064925 6.570626,58.324519 6.392621,58.396328 6.344857,57.782207 5.867115,57.613516 4.950869,57.312248 4.900967,57.112187 4.840909,56.929401 4.831157,56.93174 4.829802,56.915153 4.543051,56.975388 4.550456,56.908583 4.630976,56.290484 4.604349,56.209447 4.640144,55.775044 4.644678,55.737228 4.696536,55.726472 4.668641,55.5428 4.838035,55.637759 5.146947,55.578096 5.886382,55.396076" slic3r:type="contour"/>
    <polygon style="fill: white" points="9.454329,58.389156 9.568156,58.962479 8.877113,59.382928 8.506253,59.584784 8.377766,58.886876 8.299477,58.322363 9.162826,57.871883 9.373714,57.746088" slic3r:type="contour"/>
    <polygon style="fill: white" points="11.583534,59.157155 11.789108,59.900376 11.292897,60.260463 10.763878,60.603552 10.645973,60.144424 10.481988,59.359488 11.122745,58.960059 11.493183,58.698695" slic3r:type="contour"/>
    <polygon style="fill: white" points="13.762367,59.831572 14.055723,60.718312 13.711012,60.99818 13.054137,61.475724 12.975444,61.218155 12.724524,60.247244 13.184496,59.924611 13.687118,59.531256" slic3r:type="contour"/>
    <polygon style="fill: white" points="15.872009,60.415664 16.099071,61.009191 17.555389,61.124638 17.88814,60.798596 17.916983,60.871735 18.037199,61.134535 19.699324,61.202284 19.863798,61.210944 19.908392,61.159444 19.913999,61.170351 19.937348,61.211917 20.899356,61.225248 21.837122,61.364332 21.887232,61.294127 21.895064,61.283339 21.953669,61.365759 22.091601,61.346972 22.891122,61.225232 23.767044,61.21396 23.851779,61.212309 23.881734,61.159452 23.890036,61.168916 23.927628,61.212274 25.293263,61.167672 25.742656,61.142256 25.902016,60.798592 25.962811,60.854679 26.253763,61.137663 26.754503,61.113092 27.663642,61.033011 27.971044,60.244199 28.123247,60.362699 28.848377,60.979177 29.413129,60.915416 28.867329,61.316554 28.788046,61.5308 28.701652,61.580938 28.50704,62.223224 28.440784,62.163044 28.134405,61.910139 26.81106,62.67814 26.340196,62.709945 26.310266,62.777359 26.300838,62.80004 26.221097,62.717989 26.199807,62.719428 26.193309,62.713197 25.845075,62.73024 24.291584,62.795107 24.14544,63.063207 24.100326,63.146956 23.82587,62.814554 23.762204,62.817212 23.746455,62.798872 22.832826,62.814504 22.254518,62.82279 22.247671,62.83292 22.198393,62.832062 21.96569,63.174811 21.895064,63.274836 21.59597,62.832228 21.542402,62.832996 21.533978,62.820491 20.700921,62.805983 20.045492,62.796941 20.027912,62.8172 19.97133,62.814271 19.754691,63.074248 19.689802,63.146956 19.494641,62.789343 19.474686,62.789068 19.474426,62.788562 18.933467,62.760571 17.598759,62.71144 17.590292,62.719436 17.571688,62.717897 17.508038,62.782567 17.489258,62.80004 17.447965,62.707662 17.320388,62.697108 16.978972,62.67812 16.195109,62.168868 15.686026,61.896619 15.283146,62.22324 15.24967,62.129376 15.073787,61.569203 15.002127,61.53088 14.905678,61.273396 14.376998,60.915416 14.952972,60.972726 15.214277,60.765376 15.819064,60.244188" slic3r:type="contour"/>
  </g></svg>