<svg width="43.790126" height="63.590156" xmlns="http://www.w3.org/2000/svg" xmlns:svg="http://www.w3.org/2000/svg" xmlns:xlink="http://www.w3.org/1999/xlink" xmlns:slic3r="http://slic3r.org/namespaces/slic3r"><g xmlns="http://www.w3.org/2000/svg" slic3r:z="2.17849999999999e-005" id="layer65">
    <polygon style="fill: white" points="26.45077,3.877694 26.984284,4.537147 27.31875,4.323494 27.618924,4.17501 27.788117,4.75212 28.01584,4.794075 28.630149,4.799156 28.653695,4.788684 28.655559,4.789101 28.679843,4.776534 28.696662,4.770351 28.702732,4.804036 28.752984,4.801284 28.963811,5.347424 29.212466,5.621846 29.257085,5.593086 29.76388,5.341947 29.853355,5.686793 29.925569,6.284601 30.094602,6.314813 30.185252,6.249927 30.256541,6.263134 30.618992,5.981229 30.885104,5.804439 31.07706,6.369 31.087645,6.417115 31.62725,6.517089 31.714868,6.444007 31.758921,6.454538 31.971113,6.271658 32.131772,6.142108 32.303004,6.584603 32.800735,6.703586 33.112697,6.763687 33.149766,6.733962 33.179836,6.744137 33.351275,6.60881 33.49226,6.500498 33.610622,6.859614 33.615768,6.860605 33.627031,6.895458 34.045403,7.037024 34.504035,7.18415 34.519132,7.174698 34.53776,7.183838 34.717768,7.077513 34.8755,6.986928 34.936791,7.322974 34.963336,7.33149 34.977512,7.399609 35.294176,7.554985 35.861758,7.818251 35.875424,7.813544 35.884202,7.819671 36.057819,7.764174 36.202312,7.72254 36.189922,7.970466 36.221976,7.985334 36.22227,8.055609 36.396244,8.177026 37.306767,8.773059 37.308632,8.772845 37.308951,8.773134 37.336856,8.770823 37.331519,8.789262 37.33404,8.790912 37.332893,8.795938 37.396003,8.847323 37.934724,9.805208 38.023843,9.959367 38.049739,9.959639 38.054219,9.96973 38.227856,9.973321 38.184883,10.082572 38.148197,10.174476 38.159552,10.194117 38.156663,10.200453 38.434644,10.826523 38.578722,11.142894 38.595787,11.144055 38.601785,11.158803 38.945908,11.191112 38.845016,11.390997 38.76396,11.549644 38.789939,11.60669 38.786479,11.612978 38.867376,11.811907 39.055421,12.267196 39.530184,12.320202 39.384607,12.58262 39.274784,12.779759 39.459215,13.208049 39.467275,13.208888 39.474006,13.226385 40.034787,13.309367 39.859567,13.59884 39.725548,13.826535 39.774852,13.941029 39.75539,13.972765 39.835111,14.19006 39.86038,14.194455 39.862369,14.202759 39.995832,14.232551 40.487608,14.34892 40.265979,14.657996 40.09637,14.902164 40.150984,15.051024 40.114536,15.102901 40.264912,15.171968 40.287995,15.364792 40.460056,15.421348 40.88036,15.573661 40.574196,15.914468 40.380518,16.137696 40.451083,16.727166 40.69202,16.981136 40.973291,17.212845 40.961201,17.233016 41.190468,17.337168 40.82062,17.600169 41.137888,18.07972 41.33834,18.754132 40.995448,18.95977 40.565805,19.402761 40.683252,19.72501 40.780306,20.354544 41.030196,20.466212 40.826372,20.653355 40.831711,20.687988 40.781612,20.737005 40.84858,21.000879 40.87998,21.450796 40.198476,21.313848 40.204644,21.400416 40.120598,21.488768 40.224816,21.996175 40.26516,22.918912 39.676609,22.449741 39.728956,22.694351 39.859,23.805924 39.66244,23.681492 39.571603,23.610536 39.511342,23.651793 39.67922,24.208247 39.763104,24.155298 39.68721,24.23473 39.690863,24.246839 39.68865,24.249781 39.699732,24.277588 39.72862,24.352913 39.574588,24.40138 39.497971,24.503208 39.53842,24.582064 39.519126,24.611774 39.643704,24.795586 39.881064,25.236016 39.721668,25.865615 39.590948,26.138254 39.628932,26.173052 40.124681,26.874551 40.272388,26.968558 40.369732,26.985236 40.272291,27.083423 40.32616,27.15965 40.315434,27.181051 40.39078,27.236914 40.494604,27.386871 40.54754,28.56244 40.353853,29.112171 40.551084,29.27903 40.551282,29.37243 40.630972,29.413892 40.733267,29.535467 41.232264,29.901554 41.413796,29.97806 41.237901,30.135205 41.34938,30.267692 41.331536,30.303056 41.461288,30.371002 41.599452,30.55281 41.599868,31.607574 41.41193,32.123635 41.555236,32.269198 41.518962,32.458456 42.042431,33.016171 42.348912,33.264966 42.107924,33.472036 42.239964,33.643916 42.220706,33.678831 42.366512,33.753204 42.47556,33.886952 42.231168,34.78074 41.846309,35.380442 41.989844,35.618283 41.89328,35.776728 41.976173,35.939971 42.301127,36.127883 42.829748,36.799312 42.744872,37.025851 42.61432,37.196685 42.655252,37.277292 42.603026,37.355092 42.883887,37.895028 42.579111,38.149412 42.162603,38.804499 42.375256,39.087408 42.341798,39.129249 42.709552,39.379436 42.895532,39.579563 42.462187,40.165176 41.868356,40.691216 41.272223,40.135215 40.867915,39.890536 41.381263,39.420568 41.606745,39.171927 41.569604,39.079192 41.707854,38.856431 41.3004,38.31148 40.96967,37.466646 40.894724,37.404408 40.856864,37.383552 40.91568,37.328733 40.910987,37.316744 40.922841,37.295335 40.887644,37.254436 40.842924,37.154547 41.159819,36.331876 41.503369,35.810112 41.324916,35.677472 41.433896,35.346879 41.476623,35.260336 41.02788,34.91228 40.573916,34.703384 40.964282,34.095752 40.851768,33.929971 40.886392,33.79355 40.618727,33.621291 40.277068,33.234276 40.406984,32.885253 40.588609,32.643499 40.465196,32.558192 40.591715,32.101205 39.886496,31.822995 40.128514,30.917337 39.959048,30.773042 39.965297,30.643814 39.736664,30.53913 39.398164,30.289212 39.533536,29.917252 39.679202,29.715011 39.547264,29.614976 39.663188,29.19481 39.709187,29.103463 39.21406,28.657202 38.731464,28.404643 38.827847,27.789134 38.71086,27.715384 38.714808,27.645782 38.62918,27.609846 38.463636,27.520434 38.706512,27.022749 38.754248,26.950494 38.765811,26.746654 38.680844,26.64859 38.779571,26.504093 38.792003,26.284923 38.054425,25.068141 37.779955,24.936052 37.851547,24.828678 37.884686,24.788121 37.864564,24.754926 37.910407,24.700687 37.632064,24.067442 38.088278,23.060782 38.020227,22.814256 37.907376,22.75915 37.557448,22.562188 37.873063,22.281127 37.87022,22.270828 38.018238,22.135105 37.73346,20.997028 37.888804,20.941408 37.875181,20.859215 37.775727,20.857692 38.08074,20.201365 38.100837,20.172067 38.092115,20.139171 38.097215,20.129822 38.038256,20.03328 38.14021,20.051009 38.546044,19.307064 38.607013,19.232019 38.598252,19.193086 38.604286,19.181511 38.518063,19.011745 38.630644,19.044233 38.673312,19.049122 38.988947,18.443752 39.072682,18.350429 38.964304,18.159548 39.106883,18.194065 39.29558,17.494204 39.354139,17.414376 39.257968,17.35709 39.3285,17.35439 39.242936,17.138554 39.483834,16.234325 39.197051,16.088538 38.983308,16.045736 39.132396,15.920165 39.400306,15.551055 39.15848,15.174934 38.996319,15.119384 38.649632,15.064627 38.720107,14.978072 38.849037,14.764189 38.552643,14.386635 38.418726,14.197419 38.252852,14.179369 38.273244,14.147024 38.315481,14.064661 37.994728,13.680926 37.822039,13.257905 37.787276,13.253022 37.757572,13.250091 37.793149,13.18281 37.765016,13.117454 37.382465,12.188224 37.267799,12.174978 37.161916,12.163204 37.275441,11.934021 37.15506,11.683419 36.86652,11.090648 36.677324,11.082994 36.4928,11.066494 36.64089,10.679111 36.396892,10.284137 36.243909,10.055554 35.999704,10.07925 35.759436,10.080047 35.831572,9.734109 35.868445,9.603973 35.476795,9.178236 35.216511,9.263672 34.97536,9.313396 34.96972,8.9566 34.975713,8.847696 34.554271,8.597026 34.477735,8.561835 34.220476,8.71066 34.041432,8.794205 33.945498,8.376221 33.535004,8.226742 33.252575,8.141793 33.029792,8.306331 32.898258,8.396287 32.761739,8.003652 32.318567,7.870729 31.967219,7.771957 31.726599,7.958043 31.603816,8.056577 31.422425,7.566006 30.766302,7.307973 30.401693,7.552746 30.235998,7.6832 30.097924,7.202514 30.04238,7.023218 30.005154,7.008575 29.899515,6.703923 29.79815,6.630574 29.217896,6.953658 28.917416,7.154133 28.862162,6.801018 28.7775,6.410946 28.313257,6.310941 28.229104,6.349193 28.11416,6.332515 27.750016,6.55455 27.737524,6.399559 27.71624,6.274782 27.048386,6.177882 26.920739,5.985512 26.866333,6.017978 26.816538,6.049941 26.779417,5.774342 26.648518,5.640712 26.582062,5.677472 26.615929,5.818661 26.443293,5.76082 26.59092,5.9987 26.188314,6.050748 26.206798,6.101741 26.154734,6.204632 26.24948,6.387808 26.341238,6.579366 25.945727,6.617682 25.905197,6.697779 25.795727,6.913684 25.795862,7.120725 25.766321,7.139806 25.772482,7.211054 25.780602,7.304271 25.586901,7.255696 25.54513,7.282678 24.906667,7.659988 24.89699,7.688679 24.885418,7.691502 24.869862,7.753697 24.816271,7.713409 24.814164,7.714654 24.808863,7.710177 24.769966,7.719665 23.91151,7.916031 23.910452,7.918013 23.90873,7.918123 23.90338,7.929215 23.895136,7.919776 23.894342,7.919958 23.893644,7.919121 22.902121,7.978736 22.90196,7.978996 22.901784,7.978747 21.898808,7.972623 21.895064,7.978299 21.891264,7.972565 20.888338,7.978743 20.888165,7.978996 20.887995,7.978731 19.896583,7.918992 19.895817,7.919923 19.894748,7.919662 19.886748,7.929212 19.880674,7.918033 19.879649,7.917971 19.878327,7.915543 18.982297,7.709172 18.975998,7.714624 18.975052,7.714021 18.920266,7.753693 18.900057,7.690231 18.893119,7.688633 18.880954,7.653933 18.840795,7.628288 18.221565,7.257011 18.102282,7.285125 18.009524,7.304269 18.023805,7.138437 17.994264,7.120725 17.992078,6.908527 17.943947,6.813446 17.845326,6.618857 17.647835,6.599452 17.448884,6.579354 17.643533,6.220701 17.583289,6.101837 17.600586,6.054598 17.514405,6.043128 17.199209,5.998715 17.34082,5.773145 17.174178,5.818648 17.217269,5.594526 17.116724,5.416973 17.043276,5.723511 17.026562,5.745864 16.989123,5.974244 16.973586,6.049949 16.852023,5.979287 16.800452,6.048257 16.741792,6.177863 16.233961,6.226536 16.09701,6.251503 16.040089,6.554573 15.873772,6.476124 15.629425,6.336748 15.561041,6.349216 15.443206,6.29777 15.426079,6.300879 15.031958,6.390277 14.963483,6.76647 14.872679,7.154148 14.524648,6.973149 13.979259,6.633204 13.900713,6.689309 13.785048,7.008635 13.755067,7.020423 13.618828,7.480275 13.554073,7.683218 13.114712,7.404957 12.997335,7.318345 12.581748,7.481743 12.366265,7.566539 12.347188,7.614116 12.236034,7.917458 12.186301,8.056575 11.825276,7.781355 11.440449,7.897076 11.012916,8.016803 10.931902,8.260108 10.89188,8.396289 10.578248,8.156996 10.190647,8.298505 9.813799,8.413914 9.771254,8.62431 9.74873,8.794181 9.404235,8.576069 9.012138,8.811567 8.788494,8.918545 8.791797,9.094094 8.814809,9.313364 8.493751,9.190452 8.397808,9.164249 8.082122,9.51337 7.910753,9.673523 7.958039,9.867791 8.030683,10.08006 7.666298,10.0336 7.589136,10.029106 7.369361,10.389306 7.144541,10.72089 7.218617,10.903335 7.29731,11.066534 6.932916,11.076882 6.799072,11.35607 6.513451,11.940681 6.576744,12.066395 6.628212,12.163228 6.402462,12.189488 6.337364,12.339961 5.996031,13.180835 6.017828,13.222079 6.032583,13.250063 5.96442,13.260184 5.947541,13.29774 5.795195,13.681316 5.516308,13.999208 5.477771,14.049103 5.537254,14.179384 5.494009,14.192381 5.329804,14.223086 5.044612,14.552628 4.947398,14.693905 5.140481,15.064611 5.009837,15.120901 4.504077,15.255304 4.373425,15.469812 4.653941,15.793918 4.806836,16.045741 4.562826,16.210368 4.129367,16.374467 4.16188,17.02309 4.54719,17.138576 4.452617,17.307144 4.532159,17.357088 4.491146,17.415602 4.414199,17.470478 4.411301,17.48133 4.375421,17.520414 4.321364,17.636182 4.622767,18.166197 4.825831,18.159584 4.767551,18.282945 4.71839,18.366843 4.700855,18.446792 4.911255,18.853483 5.063221,19.03739 5.272064,19.011746 5.21645,19.132269 5.194992,19.17365 5.175812,19.293245 5.544864,19.941519 5.613458,20.030041 5.75188,20.033328 5.710931,20.106896 5.70055,20.123584 5.68648,20.211011 6.014392,20.85767 5.920076,20.877244 5.914698,20.952515 6.031995,20.994971 6.056668,20.997027 5.975359,22.010525 5.884132,22.239194 5.919905,22.270828 5.912178,22.317022 6.23268,22.562168 5.872175,22.718949 5.842206,22.735316 5.811231,22.920486 6.011122,23.280864 6.158094,24.06722 5.997179,24.562672 5.904744,24.731138 5.925533,24.754862 5.902479,24.806544 6.010166,24.936034 5.85946,24.997112 5.80678,25.021083 5.439521,25.844401 5.106768,26.280409 5.154197,26.533112 5.112477,27.190956 5.139553,27.238454 5.3265,27.520422 5.085317,27.619226 5.079216,27.715419 5.020417,27.746213 5.07199,27.969204 5.058593,28.40489 4.563622,29.063975 4.113124,29.287213 4.242868,29.615008 4.045121,29.838017 4.391979,30.289157 3.844421,30.540958 3.831094,30.773025 3.732,30.839258 3.846655,31.20222 3.903682,31.822813 3.582964,32.14789 3.220724,32.298579 3.324886,32.558146 3.129345,32.741221 3.513045,33.234376 2.896894,33.645342 2.938391,33.929971 2.870859,34.003738 3.061298,34.291608 3.21623,34.703308 2.860169,35.06266 2.323193,35.335218 2.465167,35.677432 2.2606,35.857154 2.827503,36.960791 2.947205,37.154592 2.858894,37.270915 2.884169,37.328203 2.908281,37.350968 2.933264,37.383612 2.734724,37.576745 2.065468,38.781347 2.220568,39.079107 2.195346,39.12647 2.620475,39.516304 2.922208,39.89052 2.610659,40.22746 1.921863,40.691292 1.169775,39.820744 0.894595,39.579532 1.489352,39.209399 1.414944,39.087312 1.576686,38.910373 1.184993,38.555688 0.906231,37.895092 1.049255,37.495764 1.160524,37.309287 1.134906,37.277264 1.195,37.114349 0.960384,36.799192 1.142328,36.70824 1.463056,36.387652 1.470277,36.368076 1.882715,35.730507 1.800235,35.61826 1.935963,35.297592 1.440276,34.088052 1.3146,33.886859 1.594566,33.770679 1.550151,33.643891 1.592596,33.60358 1.489057,33.485128 1.441205,33.26505 1.902504,32.605464 2.257841,32.33507 2.234942,32.2692 2.450705,31.940691 2.299211,30.908902 2.19071,30.55269 2.483024,30.402395 2.440709,30.267702 2.469048,30.242572 2.395624,30.144794 2.376311,29.978129 2.858398,29.477128 3.224454,29.301485 3.478175,28.910002 3.51423,28.894041 3.37043,27.642148 3.295523,27.386874 3.482819,27.226632 3.454982,27.127764 3.433586,27.097318 3.42039,26.985248 3.778153,26.612978 4.026668,26.51258 4.315818,26.180075 4.24858,25.990778 3.909094,25.235952 4.280199,24.636514 4.154197,24.497072 4.132253,24.3971 4.061508,24.352884 4.098164,24.259136 4.027022,24.155268 4.153748,24.052933 4.186999,23.934612 4.303032,23.528042 4.235382,23.489159 3.931128,23.805896 4.202069,22.235833 4.160606,22.165045 3.880005,22.359952 3.524962,22.918939 3.713935,21.579641 3.585486,21.400394 3.596436,21.34732 3.433778,21.191103 3.407865,21.163678 3.100268,21.233362 2.910149,21.450852 3.034688,20.768714 2.958415,20.687988 2.971743,20.637162 2.759938,20.466224 3.042771,20.366318 3.226123,19.667149 3.209638,19.64595 3.235996,19.629503 3.267787,19.508274 3.009558,19.319641 2.451788,18.754092 3.049716,17.719868 2.855833,17.576009 2.599656,17.337168 2.784205,17.24303 3.28525,16.779513 3.372593,16.105441 3.207873,15.920264 2.909769,15.573659 3.368088,15.42727 3.482069,15.386969 3.525187,15.171968 3.673564,15.101197 3.639069,15.051025 3.692619,14.910852 3.595912,14.774634 3.302515,14.348946 3.681658,14.26599 3.926278,14.208987 3.929765,14.194428 3.961659,14.189131 4.038725,13.979946 4.015285,13.940968 4.06276,13.83402 4.034164,13.786334 3.75534,13.309348 4.093773,13.261433 4.315411,13.228914 4.322785,13.208896 4.337729,13.207354 4.519697,12.786019 4.259908,12.320231 4.553551,12.289811 4.730408,12.270316 4.774177,12.16307 5.002137,11.610217 5.000183,11.60666 5.026786,11.547161 4.844242,11.191082 5.056077,11.175794 5.186093,11.164084 5.19436,11.144034 5.207379,11.143268 5.487734,10.516254 5.632283,10.197815 5.630601,10.1941 5.642461,10.173182 5.562298,9.973269 5.669316,9.974009 5.73434,9.972988 5.740423,9.959586 5.763513,9.959667 6.394286,8.847097 6.456759,8.793842 6.45607,8.790854 6.458378,8.789258 6.45326,8.77082 6.479805,8.774198 6.481402,8.772836 6.482029,8.772911 6.514522,8.750454 7.567893,8.045597 7.568069,7.985366 7.597531,7.970952 7.592095,7.850312 7.587752,7.722568 7.894572,7.827 7.914657,7.813562 7.917352,7.814498 8.216076,7.668363 8.81514,7.387985 8.826718,7.331527 8.855229,7.321888 8.885189,7.155471 8.914571,6.986958 9.246941,7.18589 9.270887,7.174683 9.277841,7.179013 9.681018,7.042709 10.16616,6.886577 10.174323,6.860573 10.189048,6.857078 10.249171,6.668478 10.297872,6.500496 10.604836,6.745399 10.640426,6.733945 10.655803,6.746289 11.15791,6.627109 11.52133,6.554522 11.603449,6.329316 11.658335,6.142105 12.014224,6.456077 12.075169,6.443905 12.100266,6.465291 12.775099,6.348079 12.861226,6.067996 12.905035,5.804418 13.298337,6.126672 13.491904,6.262154 13.604939,6.250076 13.654662,6.287659 13.899495,6.252189 14.008912,5.771693 14.026259,5.341948 14.249694,5.499233 14.443853,5.60432 15.037141,4.801252 15.094548,4.793968 15.093464,4.77032 15.12677,4.78988 15.136427,4.788654 15.143956,4.792348 15.298888,4.770078 16.078591,4.681097 16.14694,4.430047 16.171187,4.175006 16.509957,4.413303 16.790645,4.565519 17.184235,4.123101 17.438122,3.770588 17.502225,3.870948 17.877111,4.381507 17.980296,4.367732 18.078615,4.346466 18.559788,4.289571 18.559307,4.299194 18.511354,4.97014 18.583576,4.978538 19.019406,5.107423 18.98317,5.194576 18.834751,5.486018 19.211298,5.585672 19.145592,5.780199 19.30598,5.769728 19.30707,6.000605 19.454694,5.892231 19.530366,5.857431 19.581433,5.988638 19.641137,5.995207 20.09247,5.961868 20.104228,5.951828 20.109524,5.960748 20.332372,5.962456 20.917375,6.010287 20.934562,5.98785 20.950356,6.011095 21.881292,6.006079 21.895064,5.987495 21.908402,6.006105 22.839272,6.011161 22.855566,5.98788 22.87195,6.009598 23.456915,5.962503 23.681708,5.960203 23.685894,5.951826 23.691586,5.958658 24.236275,5.964519 24.253142,5.913176 24.259762,5.857425 24.370273,5.958596 24.530975,5.911394 24.484152,5.769714 24.674025,5.851537 24.721685,5.793527 24.578844,5.585696 24.717856,5.595005 25.025037,5.550408 24.970833,5.429956 24.770699,5.107454 24.83518,5.105267 25.146449,5.044736 25.245684,4.459006 25.230322,4.289585 25.23785,4.291482 25.30759,4.303519 25.308874,4.300878 25.894757,4.380986 26.036164,4.171392 26.352006,3.770569" slic3r:type="contour"/>
    <polygon style="fill: white" points="2.515581,42.107318 3.090138,42.788192 3.071815,42.810572 3.011827,42.854985 3.103609,42.938404 3.051618,43.042631 2.282289,44.816228 1.58905,44.31374 1.164115,43.822912 1.310751,43.434003 1.497289,43.006617 1.513028,42.938582 1.049751,42.55048 1.253105,42.389731 1.812898,41.802441 1.968086,41.28712" slic3r:type="contour"/>
    <polygon style="fill: white" points="3.111498,45.647224 3.472095,45.942444 3.164401,46.319023 2.578845,46.78404 1.772415,46.082523 1.412404,45.841516 1.983009,45.264768 2.143572,45.11823 2.284471,44.958347 2.300897,44.974648 2.324451,44.953152" slic3r:type="contour"/>
    <polygon style="fill: white" points="3.244378,47.589816 3.732778,47.693444 3.383591,48.201276 2.918,48.89138 2.140879,48.536376 1.792215,48.386212 2.114421,47.853815 2.629072,47.292611" slic3r:type="contour"/>
    <polygon style="fill: white" points="4.021144,50.293764 4.320442,50.338348 3.860072,51.015655 3.778393,51.154457 3.805212,51.20328 3.751801,51.287106 4.271764,52.228163 4.750946,52.310575 4.986897,52.314116 4.613708,52.961964 4.657798,53.061384 4.6422,53.092733 5.187863,53.966248 5.597563,53.960088 5.834182,53.931684 5.548793,54.631014 5.60117,54.729223 6.212824,55.466966 6.67945,55.367608 6.938223,55.300212 6.770764,56.06644 6.757453,56.144689 7.580767,56.826577 8.130961,56.612603 8.393036,56.506972 8.363631,57.263184 8.360095,57.464812 9.261389,58.02328 9.873582,57.698368 10.13157,57.560632 10.200667,58.287164 10.23621,58.619625 11.128038,59.058699 11.80095,58.621467 12.056835,58.452136 12.192481,59.136832 12.298616,59.636735 13.060822,59.949803 13.808633,59.386772 14.068133,59.180864 14.243872,59.811968 14.414631,60.371956 13.608331,61.032784 13.445919,61.157647 13.205546,60.396167 13.093516,59.981529 12.275718,59.780371 12.173335,59.847248 12.102075,59.822196 11.412942,60.305876 11.285912,60.388244 11.097276,59.572011 11.076467,59.461632 9.938359,59.061518 9.826212,59.120775 9.779306,59.097653 9.271797,59.389655 9.180929,59.436171 9.090385,58.758038 8.278991,58.358047 7.690954,58.122739 7.588828,58.160859 7.561484,58.141147 7.274241,58.266016 7.22423,58.283664 7.217152,57.892916 6.830323,57.614048 5.569912,56.896258 5.549403,56.899879 5.546392,56.896383 5.517291,56.90428 5.512124,56.905104 5.517316,56.86262 5.486557,56.826903 5.317443,56.670248 4.318526,55.360448 4.250987,55.28047 4.168867,55.278428 4.17559,55.254023 4.192242,55.210906 4.189322,55.207448 4.195954,55.183477 3.183929,53.416895 3.170787,53.396359 3.155402,53.393132 3.1625,53.37759 3.125136,53.305968 3.161716,52.232275 3.18347,51.468848 2.862625,51.355608 2.879339,51.313146 2.513955,51.210691 2.401416,51.167788 2.822116,50.424452 3.143534,49.99738" slic3r:type="contour"/>
    <polygon style="fill: white" points="41.942269,41.731348 42.250344,41.984152 42.740375,42.550487 42.578655,42.752716 42.28557,42.998864 42.299562,43.050525 42.626024,43.822848 42.23774,44.099271 41.507872,44.816188 41.054604,43.956116 40.686552,42.93834 40.716604,42.907603 40.785385,42.845558 40.700016,42.788224 40.733552,42.756539 41.036271,42.427928 41.275235,42.038392 41.821952,41.28712" slic3r:type="contour"/>
    <polygon style="fill: white" points="41.488846,44.976398 41.505644,44.958348 41.552051,45.005591 41.651575,45.123931 41.642246,45.130334 42.15686,45.646744 42.377732,45.841504 41.842699,46.359096 41.211288,46.783972 40.692672,46.212584 40.318044,45.94246 40.938064,45.397791 41.465699,44.953172" slic3r:type="contour"/>
    <polygon style="fill: white" points="41.660716,48.025407 41.997907,48.386215 41.408299,48.657164 40.872135,48.89138 40.370128,48.161616 40.057348,47.693476 40.436195,47.489324 41.161056,47.292612" slic3r:type="contour"/>
    <polygon style="fill: white" points="41.300203,51.051903 41.388712,51.167787 40.90492,51.292719 40.9275,51.355608 40.670961,51.443556 40.722019,52.036732 40.66502,53.305908 40.627778,53.381636 40.634751,53.393068 40.621606,53.394328 39.647112,55.113619 39.595993,55.191985 39.600836,55.207436 39.595722,55.214067 39.621284,55.278388 39.598535,55.275956 39.547562,55.276515 38.473279,56.669508 38.272347,56.868429 38.276907,56.899779 38.278,56.905088 38.245678,56.894833 38.240612,56.899848 38.228192,56.897513 38.161255,56.944848 36.565755,57.934821 36.565763,57.936 36.564375,57.936669 36.5637,58.230931 36.565924,58.283664 36.245088,58.133788 36.2014,58.160896 36.144127,58.139007 35.338347,58.526968 34.689893,58.80712 34.688879,58.815799 34.680352,58.818715 34.617576,59.336423 34.6092,59.436172 34.03262,59.091083 33.963872,59.120784 33.898909,59.085954 32.704636,59.494371 32.701618,59.50882 32.692296,59.511022 32.53113,60.242691 32.504244,60.388244 31.865415,59.928363 31.701621,59.821262 31.617054,59.847343 31.525276,59.78671 30.694539,59.982958 30.395704,60.964072 30.344232,61.15764 29.763492,60.672336 29.375438,60.37194 29.621137,59.502288 29.721992,59.18086 30.256209,59.580539 30.728933,59.950097 31.466442,59.648042 31.491146,59.635891 31.668554,58.749951 31.733282,58.452144 32.31433,58.82882 32.664034,59.059013 33.551593,58.622472 33.626619,57.847308 33.658576,57.560612 34.283968,57.892308 34.531652,58.024309 35.424175,57.471637 35.399604,56.790016 35.397112,56.50696 36.069048,56.767096 36.22214,56.828126 37.018993,56.168943 36.89346,55.577804 36.851888,55.300224 37.574716,55.449872 37.618583,55.460635 38.195944,54.764827 38.186544,54.733616 38.225578,54.670191 38.032203,54.186363 37.955908,53.931708 38.67938,53.93281 39.16847,53.138092 39.132316,53.061308 39.161656,53.005471 38.912747,52.566571 38.803208,52.314184 39.534796,52.171096 39.602344,52.16678 40.051671,51.311649 39.984908,51.203272 39.998789,51.180634 39.641472,50.651512 39.469688,50.338359 40.080232,50.111404 40.646532,49.997371" slic3r:type="contour"/>
    <polygon style="fill: white" points="28.203132,60.152792 28.661326,60.571516 28.299583,61.512156 28.212904,61.759404 27.700822,61.26382 27.300262,60.905896 27.58581,60.107391 27.732474,59.74796" slic3r:type="contour"/>
    <polygon style="fill: white" points="26.169154,60.552188 26.630172,61.044152 26.228334,61.897983 26.096816,62.191936 25.651848,61.691296 25.247949,61.270164 25.572341,60.54352 25.770431,60.150132" slic3r:type="contour"/>
    <polygon style="fill: white" points="24.158457,60.788011 24.610614,61.350496 24.172149,62.129356 23.992354,62.4516 23.60519,61.944212 23.214756,61.46404 23.581322,60.799832 23.827846,60.388956" slic3r:type="contour"/>
    <polygon style="fill: white" points="16.255242,60.311079 16.489865,60.905944 15.777386,61.581771 15.577222,61.759403 15.303726,61.065123 15.128828,60.571468 15.78426,60.002884 16.057637,59.74796" slic3r:type="contour"/>
    <polygon style="fill: white" points="18.237417,60.64622 18.542196,61.270127 17.920795,61.956228 17.69328,62.191936 17.394732,61.566012 17.159996,61.04422 17.733768,60.461023 18.019726,60.150135" slic3r:type="contour"/>
    <polygon style="fill: white" points="20.20279,60.829844 20.575356,61.46414 20.033695,62.162984 19.797772,62.451612 19.477962,61.884944 19.179524,61.350508 19.672343,60.753092 19.962281,60.38896" slic3r:type="contour"/>
    <polygon style="fill: white" points="22.169464,60.873852 22.595228,61.489908 22.115641,62.215184 21.895064,62.537812 21.550987,62.012455 21.194884,61.489916 21.614636,60.870471 21.895064,60.4675" slic3r:type="contour"/>
  </g></svg>