<svg width="43.790126" height="63.590156" xmlns="http://www.w3.org/2000/svg" xmlns:svg="http://www.w3.org/2000/svg" xmlns:xlink="http://www.w3.org/1999/xlink" xmlns:slic3r="http://slic3r.org/namespaces/slic3r"><g xmlns="http://www.w3.org/2000/svg" slic3r:z="5.945e-006" id="layer17">
    <polygon style="fill: white" points="35.896315,19.795939 35.941128,19.781754 36.170676,20.053386 36.174501,20.180997 36.684368,20.634758 36.484948,20.742575 36.196114,20.90192 36.242399,22.4459 36.217819,22.469569 36.23034,22.485606 36.189026,22.497293 36.170191,22.51543 36.162039,22.519298 35.422541,23.42223 35.784816,23.676088 35.896668,23.763857 35.238222,24.0787 35.447482,24.466386 35.941644,24.626908 35.994952,24.64637 35.860066,24.781644 35.958556,24.836424 36.08748,24.870404 36.069812,25.34708 36.076352,25.531196 36.387424,25.628032 36.302239,25.753162 36.093724,26.020289 36.0955,26.070288 36.046652,26.14539 36.070251,26.632803 36.3593,26.729482 36.934231,26.925299 36.685784,27.268047 36.180488,27.89478 35.552947,27.644318 34.941468,27.504082 35.031464,27.406959 35.201938,27.181744 34.696284,26.94566 34.697194,26.386446 34.527264,26.337782 34.399112,26.315672 34.697934,25.931635 34.698092,25.834275 34.730534,25.787787 34.733995,25.424748 34.19432,25.186968 33.889844,25.068412 34.306723,24.683104 34.646712,24.318804 34.047315,23.868419 33.745748,23.598614 34.245504,23.314345 34.851867,22.988624 34.849638,22.742266 34.346472,22.208936 34.188676,21.982124 34.801317,21.733401 34.773152,21.309622 34.625724,20.6142 34.737151,20.56817 34.828811,20.47256 34.694928,20.325614 34.759107,20.280442 35.441947,19.944994 35.812016,19.326738" slic3r:type="contour"/>
    <polygon style="fill: white" points="22.187335,0.964054 22.471678,1.354096 22.544919,1.359618 23.028184,0.84454 23.214056,0.643766 23.449884,1.056857 23.727322,1.548526 24.311818,1.066365 24.534408,0.884776 24.711104,1.310908 24.933864,1.866688 25.585381,1.462315 25.83949,1.313848 25.959219,1.759412 26.08857,2.300209 26.173302,2.341344 26.253993,2.311614 26.846097,2.048432 27.10784,1.949015 27.171054,2.436138 27.202072,2.830703 27.485741,3.005759 27.682356,2.965135 28.091323,2.847509 28.312836,2.799998 28.310596,3.365535 28.30164,3.483486 28.689965,3.799264 28.897602,3.950389 29.046538,3.938749 29.048409,3.940754 29.319351,3.898006 29.471454,3.884734 29.413196,4.331688 29.688892,4.627144 30.314688,5.227588 30.414041,5.229819 30.529643,5.223267 30.612866,5.224063 30.55647,5.461194 30.731186,5.705962 31.628702,6.839709 31.678321,6.844865 31.731003,6.845864 31.774388,6.849548 31.735039,6.972382 31.848112,7.178553 32.818968,8.785916 32.869945,8.794936 32.945224,8.801308 33.003366,8.810182 32.938777,8.981646 33.1323,9.465872 33.777368,10.930719 33.823775,10.942211 34.091895,10.983547 34.246832,11.017627 34.030286,11.524923 34.42981,13.147394 35.079883,13.303486 35.43424,13.405126 35.254427,13.770416 34.815513,14.451881 35.946285,15.725657 36.078092,15.784978 36.094179,15.805856 36.416928,15.926312 36.378604,15.9886 36.30675,16.081723 36.511483,16.347422 36.290299,17.271422 36.149967,17.922504 36.571399,18.207503 36.843652,18.389702 36.416128,18.737155 35.870912,19.153137 35.177399,18.739877 34.861255,18.489556 35.34384,18.051139 35.414979,18.001718 35.06252,17.508471 34.648028,17.14403 34.76634,16.922105 34.839459,16.559889 34.479072,16.427421 34.610035,16.246088 34.872952,15.914376 34.872348,15.8703 34.748225,14.457446 34.697059,14.413169 33.852487,14.208057 33.561192,14.145885 33.867283,13.66973 33.851404,13.65495 33.935617,13.501987 33.343254,12.944566 32.463908,11.895251 32.439194,11.890957 32.426827,11.889464 32.442154,11.858583 32.412463,11.825025 32.289764,11.645317 31.537135,10.062887 31.441705,9.826423 31.416435,9.786829 31.25033,9.779387 31.285507,9.712251 31.319679,9.635231 30.396729,8.189131 30.265978,7.955257 30.243862,7.928144 30.095418,7.931269 30.121035,7.874797 30.146307,7.808554 29.030996,6.441324 29.025365,6.441901 29.027126,6.437067 28.99562,6.407453 28.215381,5.225171 28.106275,5.240672 28.018237,5.257185 28.079073,5.018627 28.061204,4.991549 28.063335,4.980547 27.744109,4.635348 27.421063,4.231268 27.220192,4.287568 27.04514,4.343055 27.108993,3.840918 27.087188,3.813644 26.592756,3.417768 26.311129,3.545504 26.076876,3.657066 26.065145,3.07232 26.059307,2.976744 25.658131,2.76894 25.319672,2.990547 25.075098,3.154514 24.972454,2.595766 24.936374,2.424863 24.59727,2.318426 24.264173,2.613277 24.040216,2.813908 23.852835,2.274877 23.792812,2.109771 23.464492,2.057275 23.168847,2.398362 22.977926,2.620138 22.712535,2.103248 22.642739,1.96862 22.306026,1.954134 22.054159,2.324506 21.895064,2.560141 21.564391,2.075002 21.482275,1.953608 21.149356,1.967941 20.946375,2.362067 20.812192,2.620137 20.432591,2.183189 20.321306,2.054181 20.004103,2.105019 19.853242,2.532902 19.74991,2.813907 19.32074,2.435562 19.181801,2.311522 18.86564,2.410978 18.778083,2.865619 18.71504,3.154504 18.229543,2.839224 18.106611,2.757326 17.747281,2.943031 17.73202,3.392996 17.71325,3.657065 17.142167,3.402524 16.724924,3.731926 16.727574,3.782831 16.693789,3.81863 16.731304,4.154061 16.744994,4.343055 16.308994,4.226353 15.933896,4.623802 15.717319,4.92586 15.728917,4.991549 15.716116,5.007902 15.754071,5.166939 15.771888,5.257185 15.543495,5.22842 15.351173,5.474106 14.79451,6.407448 14.762979,6.435549 14.764761,6.441901 14.757114,6.441877 13.779473,7.60501 13.644155,7.790918 13.694715,7.931268 13.630302,7.936818 13.537815,7.937014 13.527993,7.950508 13.511534,7.951658 12.653132,9.290343 12.470207,9.613053 12.539798,9.779415 12.464652,9.791511 12.36526,9.798196 12.355672,9.815111 12.339663,9.817343 11.50079,11.644571 11.345883,11.853811 11.358908,11.881589 11.362905,11.88955 11.319619,11.898236 9.830428,13.450425 9.938709,13.654935 9.928365,13.664206 10.108567,13.947797 10.228933,14.145884 9.702704,14.282028 9.088347,14.417049 9.044131,14.456675 8.94713,15.987439 8.962033,16.007653 9.311054,16.427423 9.151848,16.479799 8.984814,16.540299 9.142098,17.144032 8.401039,18.096274 8.6999,18.35524 8.92887,18.489556 8.556365,18.680003 7.919262,19.153166 7.20382,18.5832 6.946476,18.389709 7.417105,18.070706 7.594369,17.951699 7.443838,17.412063 7.278642,16.347424 7.392816,16.188923 7.489273,16.066862 7.373198,15.926313 7.453079,15.897033 7.694128,15.807629 7.712034,15.784969 7.808313,15.741297 8.216371,15.249231 8.972291,14.449225 8.568854,13.705632 8.355883,13.405115 8.813246,13.298889 9.313197,13.165504 9.517826,12.170066 9.753857,11.420486 9.626621,11.15077 9.543307,11.017615 9.896439,10.967673 9.899221,10.958838 9.977076,10.942921 10.172226,10.427473 10.852517,8.953893 10.814291,8.861314 10.786759,8.810183 10.923216,8.800751 10.92641,8.793835 10.958276,8.789427 11.07296,8.577138 12.057037,6.956712 12.033134,6.888209 12.015736,6.849525 12.122223,6.849375 12.12586,6.843385 12.150733,6.841641 12.26019,6.688229 13.23978,5.433496 13.204093,5.298531 13.177259,5.224062 13.390542,5.240388 13.399189,5.229312 13.451868,5.229781 13.699642,4.966099 14.393592,4.283175 14.353064,4.023265 14.318672,3.884734 14.723938,3.958076 14.743578,3.938749 14.847676,3.950151 15.333352,3.558888 15.511633,3.42538 15.500181,3.010576 15.477268,2.800007 15.978913,2.957143 16.098328,2.986023 16.122228,2.968126 16.267946,3.002832 16.60177,2.798193 16.667001,2.21687 16.682286,1.949015 17.106234,2.14731 17.462067,2.291021 17.469176,2.286946 17.598628,2.338427 17.708484,2.285159 17.886031,1.597833 17.950652,1.31385 18.336462,1.558115 18.856319,1.869028 19.149124,1.154352 19.255718,0.884764 19.615278,1.182456 20.062994,1.549234 20.440393,0.885375 20.576058,0.643768 20.907492,0.995485 21.245604,1.358823 21.320494,1.353176 21.738561,0.786209 21.895064,0.570064" slic3r:type="contour"/>
    <polygon style="fill: white" points="8.703197,20.177338 9.095207,20.325558 9.056088,20.35115 8.970827,20.437367 9.164387,20.61409 9.031303,21.793161 9.375449,21.928664 9.601429,21.982124 9.181071,22.398111 8.946456,22.707866 8.94275,22.990374 9.709001,23.422823 10.044386,23.598646 9.62162,23.90832 9.146471,24.312024 9.674282,24.814239 9.900289,25.068412 9.244467,25.359499 9.043039,25.44151 9.042779,25.75758 9.092009,25.834231 9.09036,25.883936 9.316044,26.188684 9.391014,26.315648 9.072973,26.407901 9.067756,26.565136 9.093842,26.94563 8.805704,26.996942 8.570585,27.114568 8.848654,27.504056 8.653741,27.582017 7.609602,27.89478 7.167147,27.301421 6.855902,26.925298 7.209419,26.808264 7.710626,26.637852 7.730452,26.125736 7.694652,26.070318 7.695171,25.992344 7.402703,25.628058 7.526115,25.602443 7.698122,25.549452 7.702644,24.870412 7.907945,24.760644 7.830089,24.682123 7.795172,24.64637 8.237997,24.512052 8.510273,24.064831 8.017256,23.825738 7.893463,23.763858 8.416613,23.416867 8.097067,22.985827 7.64566,22.527771 7.619947,22.515464 7.601522,22.497562 7.565639,22.487333 7.559784,22.485636 7.573678,22.470069 7.547724,22.445928 7.580798,21.358314 7.594231,20.904903 7.105758,20.634774 7.279886,20.484181 7.615496,20.187053 7.619455,20.053423 7.783923,19.863316 7.84904,19.781758 7.886978,19.798374 7.97807,19.326676" slic3r:type="contour"/>
    <polygon style="fill: white" points="8.109197,28.604443 8.419009,28.917262 7.867496,29.191612 7.587371,29.315602 7.678719,30.332347 7.687679,30.438091 7.977325,30.67149 8.163822,30.812328 7.740373,31.060085 7.741237,31.070277 7.69185,31.10235 7.7566,31.892984 7.779851,32.865544 7.9272,32.96878 8.049539,33.043656 7.7882,33.214775 7.788881,33.24328 7.755418,33.268581 7.812844,33.870599 7.847294,35.284269 7.969764,35.357659 8.084037,35.41444 7.854602,35.584119 7.855525,35.622012 7.830815,35.643446 7.913723,36.214123 8.014528,37.640439 8.150237,37.705907 8.283498,37.75702 8.03775,37.969013 8.041216,38.018056 8.026924,38.032533 8.166329,38.597231 8.371541,39.833649 8.517799,39.885524 8.66164,39.922216 8.427255,40.169337 8.4356,40.219612 8.427684,40.22932 8.615508,40.744571 8.918392,41.844256 9.065338,41.876152 9.21275,41.893008 9.006966,42.165845 9.026695,42.237471 9.243892,42.666431 9.640535,43.64398 9.782769,43.653084 9.930221,43.647072 9.76165,43.942474 9.778104,43.983027 10.041934,44.366863 10.523903,45.209059 10.660462,45.193988 10.807192,45.162568 10.679157,45.48753 11.006636,45.837608 11.562601,46.527663 11.700415,46.486899 11.846265,46.428556 11.76493,46.781511 12.138975,47.081591 12.744866,47.634888 12.886676,47.566452 13.032264,47.48018 12.997768,47.867119 13.429597,48.130376 14.046247,48.553871 14.195616,48.453756 14.343667,48.336724 14.358103,48.769757 14.869648,49.00818 15.43843,49.305841 15.600234,49.167368 15.755321,49.014208 15.824718,49.511845 16.451576,49.735772 16.890956,49.911755 17.068045,49.72542 17.23618,49.52826 17.370846,50.1052 18.13862,50.300204 18.393142,50.37277 18.584604,50.128787 18.763848,49.885055 18.976477,50.532783 19.864923,50.668887 19.941749,50.682125 20.139157,50.377896 20.321706,50.093172 20.614362,50.778662 21.532458,50.826566 21.721025,50.471268 21.895064,50.160092 22.251902,50.831597 23.158252,50.784384 23.318883,50.407012 23.468406,50.093172 23.858671,50.694764 24.6669,50.571399 24.749586,50.556982 24.79042,50.546644 24.909392,50.182119 25.02628,49.885068 25.419805,50.387324 26.117497,50.210712 26.364862,50.13913 26.369604,50.123872 26.397785,50.113816 26.471226,49.795843 26.55395,49.528279 26.929354,49.924134 27.521808,49.712727 27.918711,49.551516 27.923386,49.530011 27.946068,49.51941 27.98307,49.248851 28.034823,49.014216 28.384869,49.31432 28.895935,49.075452 29.3923,48.813088 29.39451,48.79382 29.41355,48.782141 29.420826,48.546187 29.446455,48.33672 29.777831,48.558684 30.227617,48.282776 30.758666,47.91569 30.758652,47.896567 30.775327,47.883057 30.756122,47.671732 30.757846,47.480188 31.081039,47.635362 31.484815,47.308212 31.998106,46.837626 31.99527,46.8159 32.009863,46.800069 31.965292,46.606756 31.943866,46.428548 32.265954,46.522265 32.632748,46.124371 33.092281,45.552729 33.084884,45.52594 33.097111,45.507766 33.027192,45.329092 32.982934,45.162564 33.306977,45.195818 33.637008,44.705255 34.025281,44.026702 34.009376,43.989552 34.019269,43.969458 33.92524,43.802611 33.859908,43.647072 34.190184,43.62232 34.480879,43.031896 34.794861,42.259071 34.769488,42.21548 34.777103,42.193846 34.661195,42.037483 34.577376,41.893 34.910002,41.816272 35.152688,41.126787 35.389474,40.266906 35.354516,40.21962 35.359881,40.196893 35.22672,40.053476 35.128496,39.922244 35.453082,39.802054 35.633507,39.037696 35.792914,38.066995 35.748896,38.018036 35.752064,37.994822 35.611791,37.870735 35.506623,37.75702 35.804857,37.607954 35.911464,36.826731 35.988449,35.672826 35.934611,35.622024 35.936186,35.603401 35.806796,35.505416 35.706088,35.414468 35.965763,35.253789 36.032084,34.469812 36.064293,33.294279 36.00124,33.243284 36.00225,33.228745 35.857591,33.132441 35.740584,33.043656 36.029544,32.836051 36.105616,31.741547 36.128924,31.123846 36.0489,31.070298 36.049352,31.065185 35.818524,30.929628 35.626304,30.812342 36.106396,30.420311 36.205658,29.298185 35.725712,29.06113 35.371112,28.91729 35.696323,28.606144 36.260408,28.04469 37.23274,28.535704 37.405223,28.612578 36.916329,29.130484 37.185476,29.48254 37.611756,30.215824 37.58646,30.563211 37.576633,30.69102 37.683492,30.755352 37.641852,30.782701 37.573912,30.83616 37.529244,32.427998 37.502186,32.89094 37.526032,32.909426 37.523533,32.975433 37.811152,33.170126 37.688995,33.230466 37.509119,33.356077 37.460844,34.630915 37.409864,35.32148 37.456384,35.363148 37.44879,35.445338 37.775044,35.697412 37.625736,35.754779 37.40799,35.886912 37.301859,37.035544 37.204467,37.792429 37.26232,37.853212 37.247438,37.928682 37.562808,38.21826 37.402852,38.264523 37.156956,38.387531 36.970508,39.333039 36.792627,40.089786 36.8533,40.167076 36.828787,40.244258 37.154544,40.607884 36.963935,40.644708 36.665881,40.757179 36.459976,41.405483 36.181431,42.184814 36.244676,42.286511 36.206992,42.368302 36.544716,42.841996 36.309628,42.859676 35.938811,42.950372 35.788624,43.276343 35.389819,44.068225 35.450244,44.199052 35.39723,44.281652 35.725492,44.894184 35.440323,44.875756 34.98771,44.919718 34.963568,44.957331 34.428541,45.73415 34.476332,45.891796 34.413407,45.962899 34.434076,46.031564 34.686596,46.731 34.357476,46.655176 33.825039,46.617346 33.296499,47.179674 33.32158,47.34124 33.256286,47.396399 33.28985,47.612384 33.428548,48.296788 33.074119,48.151371 32.513544,48.008481 32.00732,48.412094 32.011038,48.56404 31.945831,48.60598 31.954262,48.92866 31.99788,49.592095 31.639779,49.378547 31.093138,49.137908 30.581676,49.447672 30.569514,49.581207 30.505685,49.612852 30.472768,49.979935 30.437908,50.632388 30.097038,50.362324 29.596469,50.048205 29.044733,50.304004 29.023454,50.414 28.961317,50.437895 28.896156,50.772779 28.791312,51.436408 28.485657,51.130775 28.051084,50.776114 27.419914,51.00125 27.393476,51.093164 27.34134,51.107618 27.279587,51.319192 27.097018,52.026072 26.839524,51.712528 26.47214,51.342459 25.728214,51.531928 25.701321,51.603064 25.666692,51.608935 25.644919,51.6656 25.373526,52.422187 25.161189,52.118031 24.855322,51.745127 24.000307,51.877081 23.975706,51.929811 23.96531,51.930417 23.635604,52.64542 23.457805,52.353763 23.199105,51.975087 23.154156,51.977708 22.286731,52.02353 21.895064,52.714316 21.736711,52.422755 21.507734,52.019538 21.436894,52.015392 20.612873,51.971934 20.154524,52.64542 20.000725,52.325747 19.818538,51.930042 19.814412,51.929824 19.78303,51.863764 18.970007,51.73866 18.916417,51.809868 18.416602,52.422176 18.267338,52.055088 18.107002,51.605864 18.088806,51.603064 18.05336,51.514034 17.356286,51.336951 17.181406,51.532091 16.693128,52.026064 16.557984,51.605647 16.428965,51.101376 16.396656,51.093168 16.361886,50.982442 15.774698,50.77319 15.471667,51.049671 14.998786,51.436412 14.893877,50.973716 14.809329,50.429169 14.766671,50.413968 14.738267,50.285748 14.22767,50.048702 13.832804,50.33116 13.352222,50.632376 13.294328,50.156115 13.266156,49.602317 13.220636,49.581184 13.202632,49.428614 12.732879,49.143299 12.301326,49.369844 11.792248,49.592096 11.78855,49.128279 11.825076,48.591923 11.779116,48.564007 11.778487,48.389954 11.318686,48.021834 10.911377,48.16072 10.361593,48.296808 10.411377,47.869348 10.512185,47.376146 10.468581,47.341236 10.492,47.152378 10.017091,46.644253 9.695503,46.69616 9.103526,46.731012 9.197924,46.360343 9.352356,45.933026 9.313798,45.891772 9.365167,45.699415 8.864596,44.966879 8.694241,44.966308 8.064628,44.894184 8.184952,44.592056 8.370548,44.24389 8.339887,44.19902 8.410797,44.029728 8.362075,43.925251 7.910991,43.020054 7.24541,42.841984 7.372844,42.604455 7.566731,42.329219 7.545449,42.286511 7.62238,42.151931 7.471609,41.683943 7.168657,40.824638 6.635586,40.607887 6.760086,40.42162 6.95026,40.205171 6.936835,40.167092 7.013035,40.06218 6.851143,39.253552 6.666645,38.454575 6.227311,38.218288 6.348725,38.064428 6.535744,37.887702 6.527786,37.85324 6.602423,37.76857 6.505683,36.733816 6.407784,35.953464 6.01508,35.697432 6.141962,35.55576 6.338088,35.397915 6.333729,35.363172 6.396598,35.302046 6.348448,34.124836 6.298729,33.408398 5.978981,33.170094 6.091865,33.05876 6.26591,32.935492 6.264101,32.909418 6.297674,32.881188 6.237291,31.162647 6.220815,30.84895 6.106644,30.755342 6.148102,30.720676 6.211978,30.680741 6.211631,30.674126 6.212471,30.673533 6.178361,30.215946 6.921316,29.167175 6.501298,28.728741 6.384899,28.612578 6.944825,28.31138 7.529634,28.044678" slic3r:type="contour"/>
  </g></svg>