<svg width="43.790126" height="63.590156" xmlns="http://www.w3.org/2000/svg" xmlns:svg="http://www.w3.org/2000/svg" xmlns:xlink="http://www.w3.org/1999/xlink" xmlns:slic3r="http://slic3r.org/namespaces/slic3r"><g xmlns="http://www.w3.org/2000/svg" slic3r:z="3.53149999999999e-005" id="layer106">
    <polygon style="fill: white" points="13.702697,58.92324 13.860672,59.440077 14.696848,59.523631 15.664619,59.628515 15.802948,59.504408 15.812855,59.537887 15.848348,59.637192 16.443354,59.68462 17.39662,60.508379 17.818491,60.114628 17.879452,60.054896 18.186211,60.832763 18.350528,61.191972 17.674408,61.886435 17.475814,62.073979 17.130968,61.270452 17.081073,61.144557 15.890146,61.038258 15.837669,61.081796 15.747413,61.071508 15.376061,61.40488 15.258652,61.500064 15.078625,60.995286 14.473891,60.926363 13.177268,60.822368 13.135526,60.765028 13.082944,60.711909 13.012154,60.763744 13.00783,60.749091 12.970574,60.59839 12.954825,60.58248 12.89785,60.395992 12.63293,59.957435 12.078135,59.289128 12.846288,59.382098 12.900427,59.344124 12.909031,59.344984 13.008058,59.272443 13.661002,58.744508" slic3r:type="contour"/>
    <polygon style="fill: white" points="11.517198,58.207132 11.744736,59.117203 11.385985,59.379148 10.702763,59.819428 10.640151,59.56002 10.440843,58.536076 10.955838,58.207359 11.453382,57.846391" slic3r:type="contour"/>
    <polygon style="fill: white" points="9.384531,57.379751 9.506172,58.09524 8.934395,58.432479 8.424443,58.705212 8.337145,58.158331 8.245065,57.399296 9.01022,56.998628 9.325275,56.806416" slic3r:type="contour"/>
    <polygon style="fill: white" points="5.189331,54.363911 5.848718,54.220823 5.821518,54.327131 5.778236,54.621837 6.636567,54.951936 6.711762,55.795147 6.715836,55.886256 7.302643,55.662696 7.414739,55.611752 7.407533,56.406276 7.435813,56.908396 6.615104,57.258148 6.301634,57.38206 6.265035,56.529964 6.26035,56.24121 5.431485,55.912788 4.988182,55.746166 4.881394,55.764036 4.811998,55.726993 4.527319,55.790803 4.451408,55.806748 4.4799,55.54972 4.336819,55.473343 4.082174,55.337644 4.214506,54.695799 4.341212,53.911608" slic3r:type="contour"/>
    <polygon style="fill: white" points="4.116487,52.524431 4.680964,52.537416 4.538569,52.897535 4.2285,53.883088 3.815593,53.868664 3.026149,53.835116 3.125342,53.520716 3.456753,52.474811" slic3r:type="contour"/>
    <polygon style="fill: white" points="2.651215,47.418955 3.103847,47.709348 2.894669,48.150824 2.472401,48.920812 3.132262,49.441656 3.589572,49.805163 3.227617,50.314775 3.64492,50.433243 3.776775,50.469508 3.420713,51.207351 3.154471,51.769735 2.300698,51.5254 1.961799,51.439207 2.370099,50.5383 1.95577,50.231491 1.516536,49.86858 1.73335,49.579008 2.04905,49.135585 1.977398,49.098712 2.073391,48.974041 1.966375,48.906619 1.196593,48.49356 1.440089,48.047467 1.947301,47.044815" slic3r:type="contour"/>
    <polygon style="fill: white" points="2.07317,43.359143 2.584517,43.957232 2.445983,44.311028 2.198159,44.781789 2.247311,44.826235 2.230285,44.859112 2.735532,45.284624 2.518628,45.486323 1.864629,46.268712 1.323524,45.851768 0.702446,45.253672 0.777878,45.1674 0.921058,45.018778 0.892446,44.994884 0.950977,44.928449 0.633596,44.650352 0.7768,44.380164 1.474259,42.867723" slic3r:type="contour"/>
    <polygon style="fill: white" points="1.610811,36.256427 1.645326,36.36705 2.135491,36.90602 2.23582,36.991776 1.899237,37.180862 1.928214,37.273736 1.89517,37.302185 2.11851,37.582907 2.242855,37.831855 1.873724,38.940632 1.329134,39.995945 1.468024,40.134084 1.435445,40.212828 1.804647,40.572828 2.352487,41.019828 1.998602,41.269704 1.405308,41.869592 0.813372,41.413844 0.338654,40.918336 0.559484,40.690428 1.083486,40.26395 1.004886,40.163408 1.178348,39.981128 1.223685,39.944452 0.766188,39.183183 0.255813,38.512724 0.771494,37.436182 0.670024,37.320375 0.709436,37.214071 0.392412,36.950904 0.241596,36.770408 0.810602,36.246824 1.151468,36.021801 1.275423,35.687464" slic3r:type="contour"/>
    <polygon style="fill: white" points="2.013611,32.89367 2.421301,33.274606 2.00055,33.451319 1.356443,33.912116 0.814382,33.412361 0.441199,32.904816 0.752862,32.665828 1.509214,32.274842" slic3r:type="contour"/>
    <polygon style="fill: white" points="1.468802,32.068526 1.468032,32.070796 1.467074,32.072506 1.4656,32.068276 1.467009,32.067177 1.46756,32.06689" slic3r:type="contour"/>
    <polygon style="fill: white" points="4.810736,21.848196 4.765796,21.99778 4.925623,22.281249 5.281951,22.787284 4.992989,22.81355 4.431569,22.961933 4.003562,24.057644 4.113772,24.279206 4.075384,24.3918 4.417471,24.856498 4.230561,24.875954 3.873468,24.984031 3.662243,25.603567 3.194449,26.584471 3.27876,26.739286 3.246265,26.835261 3.569242,27.23568 3.404686,27.262322 3.055127,27.399795 2.845633,28.018547 2.271091,29.132915 2.386127,29.311716 2.34263,29.447905 2.860483,30.003992 2.625325,30.068684 1.966157,30.424426 1.696893,30.932134 1.604066,30.426325 1.371584,30.177581 0.91623,29.440486 1.046984,29.362288 1.385905,29.237585 1.371078,29.156792 1.799637,28.895982 1.857042,26.832478 1.681467,26.495382 1.732059,26.472736 1.867962,26.439911 1.868732,26.412252 2.160296,26.281392 2.497863,25.540276 2.77165,24.44295 2.576736,24.028522 2.660782,23.998675 2.892482,23.958655 2.901513,23.92246 3.406497,23.749189 3.873455,22.770805 3.773061,22.633129 3.457664,21.95688 3.688716,21.884866 4.345165,21.78247 4.381664,21.705998 4.620415,21.637765 4.700641,21.6275" slic3r:type="contour"/>
    <polygon style="fill: white" points="6.77281,17.335382 7.136111,17.695327 6.891002,17.753212 6.488703,17.934215 6.551273,18.197268 6.72753,19.044864 6.606267,19.156229 6.641389,19.209115 6.670625,19.242434 6.475007,19.276774 6.386024,19.358492 6.289768,19.39546 5.54191,20.116687 5.852952,20.637046 6.069156,20.930684 5.602378,20.985363 4.892011,21.193074 4.44376,20.618529 4.219621,20.185606 4.721001,20.024945 5.170696,19.939266 5.176293,19.266896 5.036371,19.04765 5.020571,18.933385 4.834738,18.718733 4.777987,18.625386 4.968037,18.553486 4.952182,18.43882 4.88076,18.2669 5.314305,18.028611 5.608072,17.717844 5.214195,17.167404 5.50064,17.055276 6.380639,16.7808" slic3r:type="contour"/>
    <polygon style="fill: white" points="22.697548,6.16935 22.754997,6.169457 23.21479,6.156339 23.295652,6.063258 23.351336,6.006129 23.419782,6.165498 23.769916,6.171537 23.792716,6.561308 24.281152,6.296816 24.341274,6.408373 24.606556,7.224413 24.963503,6.953097 25.381414,6.7594 25.571686,7.266168 25.569549,7.575071 26.268435,7.571325 26.311672,7.541571 26.404571,7.552522 26.78526,7.308175 26.842939,7.491561 26.875203,7.608 27.956908,7.735512 28.092837,7.941314 28.151177,7.890673 28.209246,7.843787 28.305025,8.205341 28.973614,8.786181 29.120237,8.815307 29.418483,8.537272 29.637472,8.349066 29.754272,8.756462 29.810861,8.952492 29.821914,8.954688 29.852509,9.054852 30.490136,9.250318 30.875534,8.887276 31.017026,8.766092 31.110714,9.087848 31.274671,9.022484 31.392992,8.868152 31.929319,9.203374 32.124937,9.291522 32.307102,9.147679 32.355865,9.320943 32.378179,9.405637 32.392602,9.412136 32.437273,9.560324 32.536507,9.648326 32.972956,9.885351 33.07921,9.823058 33.496264,9.396549 33.535805,9.435339 33.568188,9.457072 33.610812,9.428281 33.623551,9.474525 33.631255,9.499398 33.63638,9.502836 33.655681,9.561751 33.937068,9.902846 34.127497,10.05227 34.32936,9.937097 34.758548,9.652456 34.858507,9.807953 34.997599,9.971792 35.002719,9.968394 35.004407,9.971734 35.303292,9.852844 35.40604,10.215443 35.686056,10.123081 35.89104,10.072112 35.995363,10.625258 36.012525,10.711203 36.268508,10.713685 36.792256,10.797899 36.714115,11.139517 36.630133,11.421281 37.291124,11.70961 37.158043,11.90851 36.860342,12.244689 37.530948,12.607053 37.416987,12.733169 37.076673,13.01959 37.141516,13.105674 37.104602,13.142592 37.215939,13.295988 37.723172,13.554695 37.674107,13.610324 37.554993,13.716357 37.831916,14.002903 37.773298,14.536863 37.87052,14.584236 37.936616,14.612996 37.7431,14.811933 37.735176,14.884116 37.701437,14.921449 37.579498,15.567015 37.936643,15.718349 38.21698,15.814604 37.818524,16.231952 37.382192,16.749525 36.512712,16.412796 36.27932,16.286928 36.637603,15.779515 36.475544,15.663225 36.078648,15.420721 36.153927,15.207021 36.176892,15.092858 35.931156,14.977564 36.001908,14.873842 36.322968,14.507529 36.372464,14.155456 36.226755,14.082896 35.610252,13.777855 35.840044,13.525936 36.162738,13.191684 35.814347,13.014037 35.372332,12.80678 35.694855,12.508619 35.819401,12.379813 35.560088,12.282604 35.180756,12.151472 35.405089,11.900855 35.04018,11.874048 35.094083,11.717165 34.875476,11.781094 34.823194,11.479004 34.614875,11.666243 34.571848,11.696629 34.545319,11.64887 34.503236,11.692615 34.46774,11.519088 34.281852,11.259295 33.985528,11.603257 33.446206,11.098586 33.365451,11.374969 33.286942,11.565806 33.100758,11.436057 32.989968,11.590462 32.926591,11.314684 32.809366,11.232991 32.802052,11.21574 32.36376,10.940914 32.323627,11.136611 32.184978,11.470101 31.803134,11.251215 31.675184,11.384737 31.633739,11.154111 31.571884,11.118654 31.569074,11.108793 31.302064,10.988044 30.728537,10.713636 30.650038,10.784482 30.41923,11.009067 30.332572,10.58166 30.316247,10.516372 30.257269,10.488154 29.791929,10.343942 29.443192,10.229812 29.326538,10.335879 29.081658,10.566769 28.974477,10.133229 28.957594,10.072382 28.562284,9.992686 27.862754,9.844547 27.787315,9.909764 27.660174,10.023236 27.596069,9.791331 27.45666,9.775722 27.067118,9.734779 27.023384,9.257246 27.039338,8.960933 26.741434,8.924323 26.356173,9.157757 26.10567,9.301879 25.993306,8.910475 25.787554,8.901294 25.639055,8.964181 25.563646,8.266573 25.487067,7.924567 24.996294,8.314164 24.557758,8.520395 24.324024,7.973647 24.335318,7.696705 24.08354,7.964813 23.723226,8.242363 23.463741,7.704566 23.413241,7.777286 23.1145,8.147417 22.837616,7.66819 22.54242,8.145561 22.265514,7.72901 22.219418,7.654328 22.140958,7.781753 21.895064,8.175245 21.642278,7.760481 21.564555,7.635999 21.495084,7.743685 21.247694,8.145568 21.021231,7.72868 20.941352,7.598916 20.87892,7.715285 20.675638,8.147434 20.426434,7.752027 20.289925,7.580202 20.188848,7.819212 20.066866,8.24238 19.77622,7.880705 19.394064,7.568707 19.158558,8.265863 19.232338,8.52041 18.945855,8.248605 18.330251,7.918382 18.224541,8.630305 18.151122,8.964151 17.79078,8.950447 17.751334,9.087288 17.684472,9.301879 17.453446,9.157505 17.140703,8.97296 16.704961,9.014999 16.692591,9.376668 16.722958,9.734817 16.204964,9.791067 16.183559,9.868751 16.129989,10.023231 15.920389,9.843535 15.560925,9.916594 14.858224,10.063301 14.813053,10.243851 14.70846,10.566778 14.458311,10.340587 14.332995,10.224962 13.879983,10.365413 13.552525,10.472647 13.549964,10.47996 13.511873,10.496954 13.473091,10.681638 13.370953,11.009055 13.036591,10.709005 12.783798,10.821791 12.227092,11.095774 12.218212,11.118636 12.186916,11.135651 12.169298,11.226074 12.11494,11.384739 11.970786,11.253147 11.909858,11.286271 11.605078,11.470106 11.51127,10.873827 11.329247,10.986267 10.997954,11.201926 10.980738,11.232996 10.950815,11.253429 10.902731,11.409525 10.800131,11.590453 10.65875,11.452005 10.503186,11.565806 10.412408,11.210773 10.3093,11.109805 10.188632,11.220586 9.804649,11.603246 9.677392,11.403637 9.536768,11.236138 9.360656,11.584128 9.286906,11.692617 9.233903,11.660262 9.218308,11.696628 9.113242,11.586607 9.101459,11.579414 8.948276,11.512503 8.930384,11.619627 8.914649,11.781094 8.686962,11.67582 8.749935,11.874063 8.414452,11.882835 8.60935,12.151472 8.128448,12.343311 8.005761,12.386033 8.182804,12.556767 8.417777,12.806767 8.024358,13.019829 7.631245,13.205956 7.863877,13.456305 8.179886,13.777828 7.903878,13.915941 7.445522,14.142924 7.524362,14.631661 7.858967,14.977594 7.76777,15.011292 7.62807,15.075892 7.71147,15.420779 7.123079,15.834417 7.376293,16.16842 7.510812,16.286919 6.994165,16.446772 6.407985,16.749454 5.808037,16.099238 5.573161,15.814558 6.215328,15.537942 6.146056,15.145088 6.10044,14.932146 6.055015,14.88412 6.045128,14.805087 5.912417,14.670131 5.853554,14.612922 6.011403,14.535517 5.997433,14.423843 5.958237,14.002855 6.124556,13.822836 6.24485,13.699939 6.066968,13.554716 6.155955,13.51651 6.449927,13.375639 6.47573,13.329016 6.62996,13.136196 6.734162,12.965911 6.259193,12.607018 6.462429,12.521772 7.006048,12.253246 6.952132,12.177044 6.499003,11.70961 6.812747,11.618894 7.198701,11.472074 7.163287,11.32994 6.997883,10.797899 7.510605,10.794782 7.762554,10.768324 7.841572,10.359072 7.899064,10.072128 8.333433,10.21786 8.486886,9.852836 8.713587,9.962654 8.761982,9.981167 9.031573,9.652467 9.3423,9.829227 9.622529,10.002839 10.146648,9.524739 10.153844,9.50273 10.155707,9.501317 10.179373,9.428262 10.214432,9.456768 10.293784,9.39657 10.400414,9.460575 10.829998,9.795232 11.385158,9.457159 11.397481,9.412191 11.416806,9.401675 11.483026,9.147679 11.590237,9.253522 11.630757,9.285242 12.397275,8.8681 12.705841,9.015757 12.729819,8.929073 12.773105,8.766072 13.070154,9.092401 13.224208,9.224594 13.281798,9.214208 13.952179,9.009742 13.968208,8.95471 13.97879,8.952104 14.055467,8.685778 14.152677,8.349062 14.437558,8.641009 14.617107,8.797365 14.770704,8.768353 15.119863,8.438159 15.48922,8.166087 15.54718,7.959711 15.580877,7.843785 15.693243,7.947439 15.761859,7.843549 15.833213,7.735518 16.666224,7.605207 16.929153,7.584601 17.00485,7.308199 17.134334,7.424808 17.271336,7.518818 17.674248,7.452513 18.309337,7.563322 18.472884,7.002568 18.408742,6.759402 18.698375,7.017949 19.178898,7.27854 19.461164,6.693116 19.509004,6.296818 19.569834,6.357737 19.894036,6.568887 20.020184,6.171542 20.383576,6.155839 20.418212,6.074969 20.43876,6.006128 20.56267,6.150994 20.606398,6.150959 21.107791,6.162615 21.183318,6.028296 21.240374,5.907496 21.400452,6.167632 21.481226,6.169487 21.750262,6.180216 21.826395,6.047019 21.895064,5.920509 22.046245,6.18466 22.131957,6.182692 22.382003,6.172623 22.473066,6.025089 22.54977,5.907491" slic3r:type="contour"/>
    <polygon style="fill: white" points="38.013463,17.010151 38.575923,17.167426 38.407715,17.343634 38.210746,17.608173 38.909364,18.266956 38.847119,18.579265 38.933248,18.609682 39.012112,18.625358 38.793945,18.846057 38.753795,19.047502 38.723135,19.092846 38.659954,19.975414 39.191287,20.130898 39.570516,20.18566 39.295088,20.495739 38.898076,21.192996 38.112899,21.056675 37.720968,20.93068 37.986096,20.459823 38.256884,20.072246 37.82768,19.596378 37.650848,19.459465 37.404092,19.358506 37.352112,19.306763 37.171143,19.263094 37.1195,19.242462 37.183898,19.139316 37.145512,19.101104 37.06258,19.044834 37.302192,18.417783 37.363619,18.021957 37.299559,18.001881 36.654008,17.69532 36.843256,17.409043 37.409456,16.78089" slic3r:type="contour"/>
    <polygon style="fill: white" points="39.408616,21.70605 39.489254,21.828313 39.719484,21.892278 40.332484,21.956904 40.203344,22.11661 39.970821,22.558456 40.097299,22.750221 40.652211,23.852517 40.888572,23.922434 40.917239,23.99284 41.213388,24.028506 41.161676,24.092773 41.045837,24.308671 41.709748,25.939214 41.787031,26.359223 41.921352,26.412246 41.929023,26.460929 42.108664,26.495406 42.072344,26.537832 41.968729,26.712864 42.203984,28.205588 42.129302,28.998582 42.418996,29.156772 42.408879,29.289736 42.873924,29.440566 42.759,29.558779 42.342889,30.156998 42.34028,30.19129 42.093232,30.931734 41.910566,30.502334 41.542919,30.377504 40.929672,30.004048 41.07698,29.772354 41.432109,29.37761 41.404052,29.311656 41.548862,29.052738 40.862391,27.521998 40.220884,27.235712 40.311368,27.072583 40.532797,26.787047 40.51138,26.73929 40.649375,26.445086 40.038724,25.08586 39.372632,24.856502 39.467848,24.672599 39.703006,24.3386 39.676328,24.279217 39.818554,23.949457 39.446088,23.016794 39.124128,22.970576 38.508184,22.787332 38.656096,22.504309 39.023232,21.957955 38.979448,21.848318 39.048996,21.694146 39.089604,21.62754" slic3r:type="contour"/>
    <polygon style="fill: white" points="42.32464,32.068446 42.323935,32.071236 42.323104,32.072853 42.3213,32.068706 42.322128,32.067463 42.322596,32.067" slic3r:type="contour"/>
    <polygon style="fill: white" points="42.807464,32.644514 43.348924,32.904862 43.017344,33.201139 42.433772,33.912144 41.752032,33.583196 41.368852,33.274666 41.665512,32.868071 42.28098,32.274918" slic3r:type="contour"/>
    <polygon style="fill: white" points="42.699218,36.094218 43.347051,36.643084 43.548528,36.770384 43.070539,37.157022 43.1201,37.320356 43.051229,37.39159 43.325352,37.921164 43.534312,38.512692 43.184975,39.196304 42.577147,39.95992 42.78524,40.1634 42.696726,40.28824 42.8769,40.462564 43.451476,40.918296 43.11748,41.172767 42.384816,41.869592 41.795219,41.422043 41.43764,41.019828 41.737803,40.7003 42.351258,40.195545 42.322104,40.134084 42.462457,39.981439 41.845483,38.460771 41.547272,37.83188 41.926337,37.335398 41.861912,37.273756 41.882505,37.223715 41.635004,37.070808 41.554308,36.991808 42.114419,36.308392 42.340807,36.110035 42.514704,35.687463" slic3r:type="contour"/>
    <polygon style="fill: white" points="42.737263,43.634423 43.156527,44.650384 43.058016,44.763671 42.850856,44.943742 42.897708,44.994864 42.864645,45.023589 43.087688,45.253604 42.935959,45.371316 41.925568,46.268668 41.44514,45.800712 41.054584,45.284652 41.245632,45.099079 41.551765,44.842486 41.542812,44.826235 41.612462,44.759199 41.205608,43.957232 41.531411,43.69006 42.315844,42.867752" slic3r:type="contour"/>
    <polygon style="fill: white" points="42.253148,47.789652 42.593508,48.493696 42.355487,48.651764 41.729777,48.991168 41.81278,49.098744 41.747432,49.13289 41.837736,49.255608 42.2736,49.868536 41.588776,50.382191 41.412564,50.521166 41.69178,51.137204 41.828328,51.439204 41.206079,51.622324 40.63564,51.7697 40.103115,50.659111 40.013348,50.469504 40.543038,50.318626 40.323624,50.005676 40.200552,49.805144 40.662951,49.44332 41.325885,48.915499 41.141803,48.547195 40.686247,47.709427 41.165047,47.458 41.842656,47.044824" slic3r:type="contour"/>
    <polygon style="fill: white" points="40.521356,53.070632 40.763984,53.835128 40.536372,53.842775 39.561628,53.883088 39.364015,53.347579 39.109144,52.537407 39.553219,52.50076 40.333372,52.474812" slic3r:type="contour"/>
    <polygon style="fill: white" points="39.640516,54.926636 39.707968,55.337636 39.308262,55.55088 39.328424,55.731824 39.338692,55.806788 38.980557,55.725711 38.908676,55.76406 38.813415,55.747624 37.524815,56.247207 37.490792,57.055499 37.48844,57.382087 36.841183,57.103559 36.354264,56.908348 36.365996,55.769808 36.375392,55.611732 37.101245,55.877648 37.152424,55.325967 37.153616,54.951892 37.64354,54.790139 38.003108,54.642081 37.941435,54.220823 38.062827,54.237667 38.656101,54.360199 39.448932,53.911608" slic3r:type="contour"/>
    <polygon style="fill: white" points="35.028399,57.091531 35.54506,57.399295 35.425267,58.15596 35.365692,58.7052 34.968532,58.468332 34.284,58.095304 34.386352,57.259591 34.464843,56.806432" slic3r:type="contour"/>
    <polygon style="fill: white" points="32.675518,58.05638 33.349288,58.53614 33.223143,59.062332 33.087328,59.819436 32.907484,59.686344 32.045358,59.117312 32.154361,58.565388 32.336726,57.846388" slic3r:type="contour"/>
    <polygon style="fill: white" points="30.288874,58.858824 30.958412,59.392954 31.71199,59.289144 30.866661,60.478757 30.83531,60.582495 30.81494,60.604461 30.777972,60.763744 30.768074,60.755372 30.713203,60.714169 30.61287,60.822363 28.698137,61.009109 28.572967,61.36324 28.531508,61.500068 28.059539,61.071392 27.952325,61.081848 27.915902,61.05094 26.698182,61.152288 26.409116,61.829755 26.314282,62.073996 25.754388,61.493652 25.439514,61.191752 25.871548,60.139271 25.910677,60.054888 26.424776,60.529154 26.87033,60.163868 27.34663,59.684668 27.781544,59.65562 27.938131,59.640531 27.98721,59.50442 28.015415,59.527755 28.133802,59.633115 29.14482,59.553187 29.907186,59.461885 30.129094,58.744508" slic3r:type="contour"/>
    <polygon style="fill: white" points="24.410767,60.998219 24.695376,61.326476 24.261753,62.147864 24.10697,62.451832 23.640358,61.879316 23.306056,61.49 23.79901,60.552571 23.885676,60.399652" slic3r:type="contour"/>
    <polygon style="fill: white" points="20.258833,61.089051 20.48404,61.489968 19.911945,62.188196 19.683158,62.451836 19.321699,61.768803 19.094802,61.32636 19.79482,60.526251 19.904449,60.399648" slic3r:type="contour"/>
    <polygon style="fill: white" points="22.321085,61.154119 22.594292,61.542816 22.104126,62.281655 21.895064,62.590956 21.495352,61.98754 21.195824,61.542908 21.778734,60.689447 21.895064,60.5246" slic3r:type="contour"/>
  </g></svg>