<svg width="43.790126" height="63.590156" xmlns="http://www.w3.org/2000/svg" xmlns:svg="http://www.w3.org/2000/svg" xmlns:xlink="http://www.w3.org/1999/xlink" xmlns:slic3r="http://slic3r.org/namespaces/slic3r"><g xmlns="http://www.w3.org/2000/svg" slic3r:z="4.02649999999998e-005" id="layer121">
    <polygon style="fill: white" points="24.123369,58.513323 24.691775,59.252371 24.488997,59.647988 24.099982,60.4517 24.018379,60.341671 23.289408,59.411736 23.529787,58.921076 23.89385,58.213232" slic3r:type="contour"/>
    <polygon style="fill: white" points="26.23507,58.197352 26.79797,58.813764 26.586126,59.312775 26.306466,60.06036 26.154506,59.88608 25.4159,59.11328 25.648578,58.514411 25.922416,57.864864" slic3r:type="contour"/>
    <polygon style="fill: white" points="28.440259,57.698543 28.941956,58.172888 28.713295,58.820996 28.530392,59.452784 28.263003,59.186651 27.586296,58.5888 27.82191,57.822163 28.00097,57.310512" slic3r:type="contour"/>
    <polygon style="fill: white" points="30.762163,57.028067 31.147021,57.350304 30.898991,58.192424 30.794346,58.656212 30.365597,58.278591 29.818664,57.858708 30.060367,56.864072 30.147888,56.566892" slic3r:type="contour"/>
    <polygon style="fill: white" points="34.684876,54.595856 35.365011,54.986616 35.819812,54.809916 35.683947,56.132828 35.665144,56.296656 35.463579,56.37352 35.456503,56.42864 35.454792,56.448352 35.37691,56.406569 35.372372,56.4083 35.355327,56.399671 33.329584,56.799845 33.184638,57.425727 33.143638,57.673316 32.481668,57.186716 32.224354,57.017424 32.1057,57.04074 32.07788,57.022496 32.080135,57.014576 32.246664,56.220539 32.288853,56.071915 32.366065,55.65286 32.367598,55.64616 32.407491,55.671399 32.413896,55.62168 33.61198,55.428631 34.427037,55.256583 34.487152,54.513204" slic3r:type="contour"/>
    <polygon style="fill: white" points="36.680103,53.227156 37.473747,53.509404 37.443128,53.989396 37.51792,54.890388 37.351583,54.850351 36.375856,54.564988 36.337196,54.133592 36.281336,53.180672" slic3r:type="contour"/>
    <polygon style="fill: white" points="38.913136,51.633092 39.063159,52.205679 39.26076,52.9792 38.973464,52.85112 38.1262,52.784264 37.882688,52.410824 37.696384,51.571516 38.207604,51.539564" slic3r:type="contour"/>
    <polygon style="fill: white" points="40.553604,48.55656 40.904921,49.71914 40.913825,49.7321 40.916684,49.73506 40.918948,49.737676 40.913136,49.7412 40.915332,49.748252 40.895607,49.751836 40.876308,49.763543 40.732099,49.808205 39.515312,50.252876 39.297355,49.911431 38.816775,49.31524 38.971252,49.299576 39.437112,49.095669 39.192096,48.181268 39.55882,48.050159 40.346107,47.85696" slic3r:type="contour"/>
    <polygon style="fill: white" points="41.615088,43.840452 41.999191,45.204917 42.027571,45.231559 42.037376,45.239547 42.01455,45.256614 42.027832,45.29538 41.5627,45.593715 40.785588,46.165004 40.357544,45.790076 39.900928,45.30928 40.108107,45.160368 40.47664,44.906093 40.515496,44.871419 40.136452,43.788876 40.523732,43.536947 41.286316,42.937884" slic3r:type="contour"/>
    <polygon style="fill: white" points="41.696759,35.801077 42.347807,36.241471 42.61046,36.370064 41.98496,36.900009 42.023968,37.068268 41.970039,37.12137 42.288044,38.000084 42.584764,39.127151 42.353215,39.541024 41.84494,40.060135 42.04712,40.223943 41.983502,40.300889 42.533264,40.658004 42.325836,40.819447 41.428528,41.647824 40.82872,41.249312 40.447496,40.905892 40.754811,40.607884 41.284315,40.178693 41.2684,40.13392 41.402049,39.990733 40.906216,38.409736 40.565676,37.404864 40.919203,36.990362 40.863076,36.948856 40.87923,36.905401 40.636452,36.781104 40.571935,36.732487 41.151231,36.080908 41.20276,36.035139 41.510616,35.207044" slic3r:type="contour"/>
    <polygon style="fill: white" points="41.845591,32.271277 42.33878,32.453768 42.009623,32.757538 41.434968,33.437612 40.652948,33.125644 40.32754,32.933901 40.699891,32.483634 41.251056,31.944848" slic3r:type="contour"/>
    <polygon style="fill: white" points="41.169063,28.803503 41.727564,28.960792 41.499732,29.190039 40.907184,29.972352 40.199744,29.746554 39.759548,29.54095 40.047364,29.162519 40.607248,28.55344" slic3r:type="contour"/>
    <polygon style="fill: white" points="40.432619,25.718759 40.924868,25.836366 40.673172,26.104453 40.161052,26.83277 39.408615,26.623499 38.995056,26.459532 39.288564,26.050165 39.78054,25.470848" slic3r:type="contour"/>
    <polygon style="fill: white" points="37.175202,17.855468 37.843872,18.036896 38.382476,18.165507 38.189247,18.417744 37.817221,19.010427 38.617411,19.652023 39.098424,20.077618 39.087016,20.422641 39.173004,20.450348 39.231392,20.464352 39.08006,20.632987 39.07702,20.724937 39.065054,20.742503 39.169077,22.74701 39.742136,22.942748 40.062728,23.015556 39.703444,23.411104 39.32196,23.97699 38.408335,23.739057 38.15584,23.64727 38.52812,23.102908 38.664771,22.93304 38.141723,22.237535 37.469,21.523514 37.469524,21.303029 37.454427,21.144923 37.331392,21.10111 37.356544,21.061751 37.436659,20.95885 37.435936,20.951274 37.49921,20.853958 37.588464,20.23053 37.589991,19.168892 37.036443,19.050287 36.49546,18.871216 36.730263,18.437862 37.175463,17.806591" slic3r:type="contour"/>
    <polygon style="fill: white" points="36.948615,15.609227 37.192024,15.646348 37.202297,15.976335 37.304172,16.000616 37.396052,16.022683 37.212848,16.315258 37.218244,16.488587 37.182117,16.564896 37.175552,17.79015 36.401196,17.477936 35.799716,17.360006 35.832116,17.150628 35.83155,16.915137 35.495576,16.846218 35.556224,16.677178 35.884956,16.007386 35.87382,15.451266" slic3r:type="contour"/>
    <polygon style="fill: white" points="19.894155,7.671557 19.942991,7.669929 19.961629,7.708515 20.319219,7.73931 20.319301,7.739145 20.32411,7.739711 20.417307,7.610835 20.618698,7.34878 20.813,7.769325 20.87802,7.773299 20.894295,7.809119 21.052838,7.828413 21.139334,7.708673 21.346106,7.445196 21.543505,7.885144 21.655541,7.897826 21.720737,7.781428 21.895064,7.495963 22.120405,7.899859 22.249848,7.884058 22.313729,7.741618 22.444006,7.44519 22.71908,7.826781 22.899252,7.804788 22.91203,7.773316 22.994079,7.766092 23.053292,7.638041 23.171412,7.348804 23.44465,7.726421 23.761604,7.698513 23.837313,7.694011 23.847122,7.669942 23.919421,7.6692 23.981861,7.55575 24.107856,7.284231 24.341706,7.664009 24.353978,7.663279 24.354706,7.664733 24.69563,7.661235 25.076671,7.675371 25.140016,7.579749 25.277068,7.336591 25.449126,7.689187 25.467214,7.689859 25.475599,7.709356 25.849676,7.738602 26.540848,7.835175 26.58201,7.779839 26.722364,7.575027 26.838807,7.876806 26.868234,7.880917 26.878257,7.906862 27.19672,7.94589 28.254625,8.162636 28.3681,8.020108 28.426441,8.197837 28.447492,8.20215 28.454907,8.22272 28.624765,8.247483 29.585452,8.48865 29.17699,8.856577 28.835764,9.045928 28.84879,9.116492 29.487084,9.207437 29.947352,9.317746 30.02818,9.203497 30.206484,8.784636 30.428721,9.433112 30.491231,9.448093 30.510818,9.497306 30.804119,9.547741 31.705201,9.80738 31.275232,10.164025 30.919948,10.364801 30.986809,10.513768 31.622935,10.604624 32.221494,10.747202 32.353692,10.624266 32.439218,10.342069 32.625304,10.843391 32.680428,10.856522 32.689086,10.879786 32.821594,10.905146 33.08668,10.986471 32.860153,11.339444 33.124504,12.04976 33.195592,12.060731 33.215144,12.114799 33.694123,12.178981 34.517968,12.35597 34.444588,12.565204 34.137096,13.095905 34.500204,13.01116 35.020104,12.802224 35.202555,13.717082 35.244257,13.896445 35.637928,13.956276 36.044132,14.038165 35.8581,14.532139 35.551816,15.189193 34.590885,15.023228 34.211556,15.102583 34.209432,15.033942 34.199702,14.955666 34.195011,14.954856 34.194363,14.950302 34.034096,14.933308 34.05652,14.849233 34.138077,14.554926 34.08684,14.195023 33.985593,13.555779 33.876524,13.530023 33.856389,13.429322 32.762661,13.242359 32.389268,13.475836 32.33885,13.300158 32.301978,13.163609 32.273118,13.158676 32.260959,13.121459 31.694524,13.06285 31.822364,12.837519 31.982399,12.231367 31.910964,11.973575 31.756774,11.93679 31.710478,11.808332 30.86933,11.662516 30.828759,11.717681 30.414258,12.210903 30.236,11.776257 30.153326,11.538393 30.078436,11.525412 30.039735,11.433275 28.981575,11.272967 28.552909,11.219006 28.491432,11.306333 28.464135,11.245371 28.448869,11.205909 28.436682,11.204375 28.431518,11.192562 28.026304,11.145147 28.217578,11.05094 28.318598,10.934269 28.138401,10.522089 28.008084,10.14852 27.911584,10.132162 27.871091,10.045829 27.120278,9.950132 27.015412,10.156993 26.744224,10.653793 26.524127,10.141515 26.420976,9.861 26.355767,9.852689 26.339629,9.816224 26.18768,9.802383 25.516885,9.748654 25.255598,10.230771 25.126445,9.911603 25.049738,9.71513 24.576259,9.719888 24.266703,9.717707 24.123742,9.986956 24.06214,9.825907 24.019746,9.730204 23.382632,9.797862 23.305803,9.802549 23.263864,9.884661 23.235143,9.811279 22.828558,9.872242 22.93095,9.568113 23.076646,9.422962 23.054636,9.366753 22.931962,9.168695 22.597788,9.793954 22.561316,9.869759 22.369492,9.450629 22.252269,9.27727 21.984016,9.736472 21.895064,9.884068 21.675776,9.487058 21.56887,9.309754 21.283763,9.787874 21.228812,9.869757 20.947076,9.41382 20.865829,9.245515 20.696408,9.55987 20.961668,9.872238 20.565888,9.80536 20.52632,9.884661 20.49805,9.840058 20.475858,9.796241 19.926759,9.726504 19.782811,9.71835 19.666368,9.986928 19.573209,9.833973 19.5083,9.710761 19.07716,9.703157 18.804566,9.705729 18.73845,9.71203 18.534562,10.230768 18.378046,9.937286 18.279529,9.755765 17.987162,9.783626 17.444454,9.82589 17.434264,9.852647 17.346437,9.867914 17.04596,10.653765 16.840027,10.194302 16.719252,9.977593 15.899827,10.0739 15.878489,10.132179 15.7491,10.163129 15.490642,10.843293 15.763486,11.14528 15.436645,11.191553 15.356014,11.197579 15.353396,11.204469 15.33821,11.207457 15.298688,11.306354 15.269541,11.255861 15.247913,11.225226 14.212358,11.428999 13.728989,11.47622 13.711603,11.525458 13.616044,11.550013 13.37585,12.2109 13.155486,11.877334 13.010641,11.704413 12.065808,11.826905 12.033282,11.936821 11.862229,11.991497 11.819325,12.136554 11.992076,12.526724 12.095624,13.062839 11.739708,13.122661 11.523064,13.138197 11.517007,13.158677 11.485611,13.165672 11.400846,13.47586 11.252876,13.376039 11.06752,13.258828 10.827121,13.312392 9.931921,13.432543 9.913629,13.529994 9.807072,13.557334 9.653693,14.568981 9.756019,14.93333 9.678032,14.941821 9.595224,14.950565 9.578665,15.1025 9.48692,15.092835 9.110642,15.02499 8.953981,15.047664 8.238281,15.189101 7.925803,14.40511 7.746034,14.038104 8.48605,13.921827 8.563778,13.455176 8.77003,12.80219 8.97442,12.838643 9.717176,13.093999 9.63085,12.873997 9.272119,12.355983 10.227513,12.207228 10.55383,12.150852 10.594521,12.060745 10.615585,12.058349 10.776397,11.503475 10.927955,11.209272 10.852625,11.096952 10.703412,10.986481 11.08809,10.898423 11.109671,10.85653 11.119401,10.854784 11.153516,10.731638 11.350898,10.342046 11.704458,10.639793 11.774409,10.737248 12.764899,10.559511 12.843399,10.42447 12.873252,10.42041 12.935135,10.233858 12.672298,9.998479 12.08483,9.807432 13.249593,9.538446 13.29885,9.448081 13.323548,9.44391 13.367736,9.296567 13.583628,8.784685 13.775187,9.064237 13.939358,9.339896 14.907189,9.176424 14.982638,9.038744 15.01618,9.034425 15.062518,8.893694 14.810555,8.649381 14.204805,8.488614 15.325196,8.243069 15.342606,8.202157 15.361138,8.199641 15.371973,8.166339 15.422002,8.020109 15.54847,8.174206 15.909294,8.125215 16.897834,7.936707 16.921884,7.880888 16.94845,7.878641 16.973987,7.812198 17.067762,7.575044 17.272468,7.851239 17.741619,7.811561 18.301812,7.736489 18.32292,7.689833 18.340759,7.689942 18.384611,7.600066 18.513096,7.336575 18.737447,7.678108 18.769302,7.67384 18.778814,7.692621 19.187709,7.695121 19.423704,7.687249 19.436197,7.663266 19.443518,7.663896 19.511791,7.552807 19.68226,7.28421" slic3r:type="contour"/>
    <polygon style="fill: white" points="7.936631,16.144246 7.998481,16.303179 8.294509,16.84628 8.166864,16.855966 7.977598,16.894925 7.990392,17.360028 7.582932,17.518684 6.614559,17.790152 6.61818,16.885504 6.613621,16.576576 6.571887,16.488532 6.575382,16.323135 6.447601,16.115357 6.394113,16.02262 6.582679,15.977704 6.585514,15.843593 6.598115,15.646337 7.243996,15.553623 7.91631,15.451306" slic3r:type="contour"/>
    <polygon style="fill: white" points="7.052296,18.553564 7.294669,18.871182 6.937319,18.92295 6.217999,19.151586 6.31706,20.896916 6.354198,20.951248 6.353025,20.971535 6.45874,21.101108 6.421395,21.108264 6.343586,21.134733 6.321094,21.523617 5.424506,22.641154 5.138448,22.985845 5.473008,23.452933 5.634287,23.64727 5.044728,23.778644 4.46832,23.976974 3.934462,23.347005 3.727378,23.015572 4.310803,22.805643 4.654495,22.715915 4.751794,21.578487 4.744843,20.774261 4.713119,20.724966 4.712709,20.665287 4.597212,20.526032 4.558729,20.464352 4.710982,20.413448 4.710032,20.274872 4.691734,20.077518 5.321652,19.656428 5.97582,19.039755 5.737189,18.712314 5.407654,18.165498 5.792283,18.060118 6.614299,17.854979 6.61453,17.797261" slic3r:type="contour"/>
    <polygon style="fill: white" points="4.497522,26.117583 4.79507,26.459544 4.332571,26.570041 3.629096,26.832776 3.186717,26.334373 2.86526,25.836354 3.237585,25.68606 4.009612,25.470906" slic3r:type="contour"/>
    <polygon style="fill: white" points="3.666504,29.152496 4.030568,29.540946 3.599831,29.659075 2.883262,29.972462 2.444032,29.512311 2.062552,28.960814 2.354774,28.822161 3.182815,28.553353" slic3r:type="contour"/>
    <polygon style="fill: white" points="3.143197,32.626548 3.462607,32.933888 2.952191,33.11071 2.355158,33.437612 1.814606,32.925235 1.451343,32.453785 1.799381,32.249896 2.538883,31.94497" slic3r:type="contour"/>
    <polygon style="fill: white" points="2.608805,35.855599 2.715707,36.22285 3.141849,36.665388 3.218214,36.732444 2.905374,36.874442 2.92705,36.948907 2.899111,36.968282 3.119543,37.219336 3.224478,37.404888 2.855487,38.802071 2.40219,40.016437 2.521732,40.133996 2.501318,40.200042 2.750257,40.425692 3.34263,40.905896 2.991326,41.120972 2.361538,41.647948 1.82314,41.228328 1.256847,40.658028 1.397038,40.538087 1.787702,40.27169 1.742878,40.224088 2.004805,39.997649 1.933813,39.891611 1.205366,39.127732 1.851801,37.159975 1.766314,37.068448 1.795291,36.963393 1.388639,36.613328 1.179672,36.370064 1.724169,35.977091 2.125967,35.764565 2.279591,35.207624" slic3r:type="contour"/>
    <polygon style="fill: white" points="3.128011,43.346408 3.653675,43.788824 3.514364,44.265928 3.288097,44.886134 3.338126,44.928469 3.889215,45.30928 3.68676,45.479323 3.004577,46.164972 2.550395,45.874908 1.968547,45.414345 1.774971,45.300487 1.76223,45.295128 1.775362,45.260632 1.752736,45.239592 1.794559,45.198664 2.503853,42.937756" slic3r:type="contour"/>
    <polygon style="fill: white" points="4.039762,48.065003 4.598029,48.18126 4.489331,48.537023 4.353966,49.052926 4.97335,49.315244 4.857109,49.501511 4.274829,50.252852 3.931564,50.126408 3.035012,49.79964 2.914016,49.763652 2.893831,49.751481 2.877187,49.748596 2.874791,49.74828 2.876803,49.74138 2.871158,49.737648 2.880676,49.728104 2.881901,49.723904 2.885051,49.719544 3.444018,47.85694" slic3r:type="contour"/>
    <polygon style="fill: white" points="5.86597,51.844371 5.663941,52.784264 5.276394,52.947192 4.529355,52.979191 4.632614,52.584996 4.876989,51.633092 5.514298,51.660116 6.093741,51.571516" slic3r:type="contour"/>
    <polygon style="fill: white" points="7.474196,53.542496 7.414271,54.564988 7.099895,54.640488 6.272154,54.890364 6.259839,54.665231 6.316397,53.509424 6.834147,53.439052 7.508811,53.180684" slic3r:type="contour"/>
    <polygon style="fill: white" points="9.333811,54.724051 9.37578,55.238394 11.376158,55.621624 11.389844,55.670671 11.422619,55.646192 11.481586,55.99946 11.54424,56.224004 11.712281,57.022664 11.706941,57.025588 11.684634,57.040784 11.57427,57.017995 10.86721,57.531663 10.646407,57.673284 10.440065,56.783799 9.634512,56.617464 8.436265,56.398434 8.417642,56.408316 8.413515,56.406732 8.353101,56.439055 8.335306,56.448324 8.325606,56.373002 8.262497,56.348787 8.125137,56.29676 8.045259,55.454608 7.970654,54.810076 8.465841,54.996786 8.540553,54.96444 9.303008,54.513228" slic3r:type="contour"/>
    <polygon style="fill: white" points="13.801096,57.277179 13.971477,57.85872 13.397756,58.357167 12.995765,58.6562 12.799197,57.990512 12.64307,57.350211 13.444703,56.734068 13.642257,56.566896" slic3r:type="contour"/>
    <polygon style="fill: white" points="15.948201,57.855244 16.203899,58.5888 15.782315,59.003983 15.259723,59.452792 15.110991,59.032147 14.848231,58.1727 15.448653,57.634275 15.78919,57.31052" slic3r:type="contour"/>
    <polygon style="fill: white" points="18.026345,58.285611 18.374318,59.11314 18.06139,59.469615 17.483665,60.06036 17.380904,59.818828 16.992144,58.813708 17.438604,58.335651 17.867698,57.864855" slic3r:type="contour"/>
    <polygon style="fill: white" points="20.05957,58.552352 20.50072,59.411747 20.256739,59.739656 19.690148,60.4517 19.62303,60.320944 19.098362,59.252408 19.436084,58.811379 19.896246,58.213224" slic3r:type="contour"/>
    <polygon style="fill: white" points="22.077759,58.635119 22.600409,59.46256 22.390839,59.80054 21.895063,60.591871 21.839997,60.503031 21.189698,59.462532 21.460614,59.022087 21.895064,58.335279" slic3r:type="contour"/>
  </g></svg>