<svg width="43.790126" height="63.590156" xmlns="http://www.w3.org/2000/svg" xmlns:svg="http://www.w3.org/2000/svg" xmlns:xlink="http://www.w3.org/1999/xlink" xmlns:slic3r="http://slic3r.org/namespaces/slic3r"><g xmlns="http://www.w3.org/2000/svg" slic3r:z="2.37649999999999e-005" id="layer71">
    <polygon style="fill: white" points="23.972815,61.046067 24.627114,61.828768 24.382344,62.260863 24.018732,62.908979 23.828218,62.66834 23.223384,61.955063 23.440401,61.564908 23.845028,60.899068" slic3r:type="contour"/>
    <polygon style="fill: white" points="25.987628,60.809044 26.662108,61.501316 26.42706,61.998919 26.146536,62.628379 25.911785,62.373755 25.277096,61.740792 25.476178,61.295011 25.810488,60.640012" slic3r:type="contour"/>
    <polygon style="fill: white" points="28.042422,60.413016 28.717294,61.012595 28.490247,61.591868 28.284672,62.175188 27.992774,61.89964 27.355952,61.350344 27.542792,60.833292 27.802637,60.216908" slic3r:type="contour"/>
    <polygon style="fill: white" points="30.137287,59.859239 30.800983,60.374176 30.584171,61.043124 30.43932,61.564016 30.083122,61.26696 29.46403,60.79468 29.64062,60.199275 29.831855,59.638412" slic3r:type="contour"/>
    <polygon style="fill: white" points="32.259996,59.15488 32.917032,59.593876 32.724871,60.353112 32.62997,60.807516 32.208768,60.498392 31.609632,60.102571 31.76243,59.430055 31.893391,58.920412" slic3r:type="contour"/>
    <polygon style="fill: white" points="34.304327,58.292047 34.955612,58.649644 34.816552,59.506943 34.771884,59.889444 34.2782,59.58478 33.698268,59.273848 33.798955,58.524272 33.871776,58.061736" slic3r:type="contour"/>
    <polygon style="fill: white" points="36.16634,57.26324 36.808244,57.528204 36.766108,58.489571 36.768216,58.791212 36.193511,58.515503 35.63778,58.303104 35.643656,57.480476 35.658256,57.062828" slic3r:type="contour"/>
    <polygon style="fill: white" points="41.458024,51.983256 41.606344,52.172956 40.876799,52.392092 40.821783,52.410953 40.851692,52.500916 40.550559,52.598433 40.48042,53.379687 40.831684,54.089392 40.893232,54.190271 40.385761,54.238671 40.374964,54.331296 40.1287,54.374907 39.641941,55.184284 39.836931,55.824495 39.88632,55.94876 39.197409,55.875114 39.112928,56.005328 38.741959,56.004738 38.368425,56.290582 38.481052,57.271892 38.518547,57.483439 37.85714,57.277644 37.340192,57.18044 37.18882,56.30316 37.143844,55.933072 37.739399,56.060283 38.241104,56.185391 38.615702,55.695982 38.344507,54.967131 38.252456,54.661476 38.927155,54.6661 39.197673,54.686401 39.514793,54.135093 39.498984,54.104427 39.529945,54.044452 39.207396,53.462232 39.078212,53.187864 39.744915,53.0617 40.051161,53.034791 40.346267,52.463133 40.3023,52.401296 40.323568,52.36799 39.893335,51.733547 39.697472,51.4156 40.238876,51.215883 40.862976,51.070272" slic3r:type="contour"/>
    <polygon style="fill: white" points="42.414272,46.19986 42.64998,46.54662 42.03365,46.913971 42.098244,46.99534 42.036193,47.031664 42.321883,47.421255 42.484844,47.654888 41.991247,48.240508 41.399833,48.848602 41.724227,49.284775 42.140136,49.774116 41.685288,49.992503 41.011847,50.300256 40.563152,49.68126 40.19662,49.176596 40.441447,49.05172 41.094499,48.806018 40.851603,48.439559 40.407372,47.877064 41.1472,47.048523 41.256644,46.921952 41.237808,46.89628 41.278006,46.853849 40.907803,46.317451 40.693436,45.952692 41.120668,45.650459 41.803532,45.241384" slic3r:type="contour"/>
    <polygon style="fill: white" points="42.848967,39.508207 43.1975,39.991652 42.927248,40.455015 42.473924,40.928805 42.57318,41.13074 42.507567,41.212789 42.610303,41.390007 43.10186,42.135944 42.561656,42.516059 42.30441,42.769457 42.446052,42.965727 42.40994,42.994261 42.796352,43.38762 42.975816,43.601016 42.464576,44.20244 41.84386,44.730136 41.298476,44.079588 40.93336,43.783568 41.606352,43.109943 41.769853,42.934254 41.760079,42.918528 41.863471,42.785195 41.431075,42.183263 41.125527,41.54914 41.325356,41.337168 41.64599,41.09067 41.619248,41.062388 41.785613,40.815982 41.177044,40.39932 41.467587,40.046984 42.212776,38.970996" slic3r:type="contour"/>
    <polygon style="fill: white" points="42.243847,38.76146 42.251112,38.772464 42.23978,38.784208 42.235863,38.779979 42.231495,38.77288 42.239351,38.757676" slic3r:type="contour"/>
    <polygon style="fill: white" points="41.99241,35.220221 42.553944,35.59816 43.117483,36.411256 43.046619,36.659704 42.926724,36.853016 42.975316,36.920712 42.941002,36.992632 43.178224,37.2697 43.008291,37.39712 42.22344,38.372304 41.702196,37.833804 41.493588,37.474416 41.219844,37.200196 41.160872,37.167252 41.248984,37.053015 41.235431,37.029667 41.245746,37.005003 41.194432,36.956712 41.141448,36.867659 41.527292,36.149132 41.657257,36.021056 41.927501,35.374887 41.906932,35.356712 41.940219,35.27966 41.991983,35.220707 41.992235,35.220104" slic3r:type="contour"/>
    <polygon style="fill: white" points="41.781224,31.517354 42.532216,32.479866 42.530212,32.641231 42.501614,32.738392 42.527412,32.761538 42.520144,32.802733 42.62946,32.888704 42.571324,32.936817 42.4678,33.099447 42.305671,34.018456 41.946808,34.723752 40.989996,33.869396 40.727708,33.74646 40.938886,33.256973 40.860324,33.163327 40.870677,33.097522 40.714383,33.004371 40.535712,32.818026 40.785367,32.263342 41.046965,31.977005 41.104659,31.61028 41.040896,31.559822 41.101448,31.412028 41.143726,31.361973 41.167136,31.213174" slic3r:type="contour"/>
    <polygon style="fill: white" points="26.493906,4.25087 26.493471,4.253611 26.566836,4.358835 27.14725,4.749674 27.209879,4.812866 27.579574,4.614423 27.621327,4.799069 27.692707,5.300035 27.812116,5.420517 27.840724,5.517522 28.215514,5.280509 28.552361,5.114803 28.691597,5.691404 29.01296,5.733936 29.357072,5.700528 29.435669,5.651922 29.448115,5.653607 29.522666,5.600599 29.58044,5.567795 29.612653,5.675885 29.689664,5.686312 29.898604,5.67697 30.163174,6.043319 30.39504,6.209644 30.730636,5.960169 30.806304,6.167627 30.935357,6.597232 30.971418,6.623099 30.982341,6.652902 31.367657,6.829653 31.413513,6.839365 31.72441,6.569204 32.044158,6.304041 32.178217,6.665839 32.302315,7.027608 32.81771,7.136765 32.90872,7.066918 32.967423,7.085807 33.200231,6.903485 33.459538,6.69767 33.60144,7.153664 33.647272,7.304562 34.265172,7.503384 34.336351,7.526304 34.408364,7.481462 34.441893,7.497957 34.643752,7.374571 34.884168,7.220068 34.983406,7.734668 34.98976,7.736714 34.994256,7.769709 35.4538,7.995795 35.738046,8.135123 35.811048,8.106507 35.826711,8.118707 36.00844,8.052149 36.23338,7.964714 36.236224,8.379313 36.246952,8.384572 36.244867,8.444411 36.539723,8.674075 36.993793,9.019106 37.046935,9.010665 37.056165,9.02112 37.18478,9.00198 37.347936,8.977138 37.291921,9.245641 37.301424,9.252862 37.292785,9.289137 37.46202,9.480828 38.029659,10.094542 38.059848,10.09499 38.065222,10.103368 38.128711,10.103456 38.212227,10.10396 38.161335,10.236907 38.165456,10.241362 38.160811,10.252387 38.234747,10.367651 38.834162,11.240809 38.842147,11.241896 38.84361,11.244873 38.878596,11.248505 38.861825,11.281107 38.862496,11.282083 38.862161,11.282664 38.877612,11.314139 39.173176,11.865596 39.313951,12.276161 39.33213,12.319752 39.391164,12.331806 39.38018,12.348676 39.357728,12.381134 39.360908,12.38876 39.354038,12.400252 39.707055,13.241851 39.734337,13.301658 39.819016,13.324275 39.804103,13.343383 39.771607,13.383367 39.77648,13.394047 39.760645,13.417242 40.0861,14.28662 40.102822,14.328619 40.164507,14.352329 40.153923,14.362682 40.126671,14.388521 40.129892,14.39661 40.107559,14.422678 40.365405,15.496214 40.393896,15.51287 40.373408,15.526686 40.374311,15.530241 40.35312,15.54776 40.39104,15.616886 40.3034,16.712837 40.312796,16.721914 40.308263,16.735524 40.334728,16.763419 40.358824,16.783268 40.282281,16.813558 40.273683,16.83938 39.895207,17.808164 39.896183,17.809744 39.888393,17.827507 39.928019,17.897283 39.961032,17.977226 39.822065,17.978174 39.451674,18.848168 39.470684,18.882483 39.4834,18.93311 39.424836,18.929053 39.3738,19.174668 39.325272,18.922157 39.249318,18.916896 38.66273,18.989705 38.656723,19.188876 38.929056,19.470884 39.126584,19.836081 38.951635,19.917944 38.711866,19.984802 38.741784,20.140144 38.985944,20.860445 38.938995,20.880518 38.9132,20.946003 38.914476,20.946948 38.911062,20.95267 38.988692,21.004012 38.953619,21.035514 38.749704,21.22312 38.56964,21.524923 38.439484,22.074518 38.746496,22.436082 39.148197,23.014898 39.328552,23.110888 39.4228,23.15309 39.31741,23.258718 39.328975,23.275382 39.305128,23.311693 39.419391,23.404915 39.541008,23.554848 39.583896,24.737766 39.529336,25.430168 39.67172,25.50515 39.685579,25.669801 39.883204,25.777542 40.380968,25.972676 40.086376,26.246686 39.875609,26.603042 39.984872,26.72858 39.848619,26.967936 40.531808,27.277684 41.101156,27.927964 41.176044,28.536053 41.149021,28.85566 41.221716,28.899506 41.228351,29.016129 41.556144,29.187965 41.411763,29.31606 41.260824,29.586874 41.289904,30.097998 41.103848,31.037292 39.921931,30.102213 39.679248,29.988214 39.736993,29.580133 39.667148,29.52328 39.666973,29.495451 39.578792,29.45865 39.47036,29.382892 39.663517,28.945528 39.652259,27.154189 39.563736,27.117216 39.383924,26.992195 39.377659,26.847823 38.917931,26.669153 38.342471,26.314594 38.412567,26.174208 38.533698,26.024947 38.487544,25.982506 38.591215,25.797671 37.969788,25.225653 37.995862,23.860462 37.830412,23.763728 37.832482,23.733108 37.688223,23.672305 37.476728,23.561864 37.782551,23.118898 37.881929,23.00165 37.934469,22.224419 37.688537,21.589385 37.4923,21.487808 37.02952,21.209032 37.211924,21.010323 37.362853,20.864807 37.317791,20.126035 37.281572,19.58702 37.05384,19.40454 37.160811,19.322312 37.232211,19.274174 37.41184,18.243635 37.43473,18.112298 37.353412,18.03027 37.410008,17.999625 37.447146,17.982804 37.744228,16.994995 37.733244,16.98353 37.74775,16.97769 37.782391,16.838246 38.28061,16.446924 38.069123,16.260942 38.011432,16.21731 38.652248,16.071812 38.679051,16.062168 38.765045,15.899154 38.213035,15.565208 38.078336,15.49919 38.572476,15.262929 38.835423,15.078131 38.196911,14.80551 37.982524,14.736056 38.350027,14.462653 38.608243,14.19043 38.041243,14.015745 37.761408,13.955056 38.043739,13.672547 38.268216,13.366985 38.22494,13.269551 37.76312,13.163074 37.42686,13.110878 37.646863,12.835942 37.829288,12.543134 37.678928,12.255082 37.40778,12.217289 37.005927,12.178861 37.168344,11.919954 37.300849,11.673575 37.022476,11.251534 36.956364,11.251252 36.484348,11.25532 36.585708,11.019127 36.671001,10.809129 36.572683,10.698041 36.248876,10.332823 35.83926,10.400257 35.885196,10.195666 35.924547,10.029163 35.623939,9.792355 35.326525,9.560209 35.047952,9.668307 35.052615,9.511408 35.056336,9.400497 34.379999,9.097657 34.176975,9.000208 34.031704,9.09045 34.021488,9.005958 34.011769,8.943366 32.997534,8.682431 32.859765,8.587792 32.823092,8.617674 32.804936,8.549887 32.66481,8.470701 31.846355,7.954807 31.622936,8.129836 31.501713,8.24226 31.368036,7.818869 31.285212,7.601103 31.28279,7.599577 31.263172,7.543156 31.24994,7.508367 30.954122,7.316457 30.87913,7.370954 30.792908,7.362327 30.400046,7.65557 30.147756,7.886062 30.056419,7.581993 29.944915,7.273716 29.295581,7.193793 29.22877,7.235082 29.135467,7.227161 28.857026,7.456574 28.8253,7.314053 28.790684,7.197889 28.117264,7.140717 27.881169,6.838063 27.761815,6.901387 27.686673,6.953285 27.648582,6.539907 27.54424,6.40615 27.457532,6.043833 27.021417,6.245967 26.717102,6.456582 26.72234,6.159369 26.680168,5.974247 26.514411,6.010942 26.508514,6.123135 26.543478,6.235811 26.306435,6.213843 26.24397,6.207344 26.237738,6.214694 26.133047,6.165468 26.243502,6.660051 25.888167,6.632991 25.670482,6.601538 25.650292,6.786825 25.616876,7.20686 25.202043,7.045695 24.965441,6.931608 24.867176,7.170998 24.740396,7.512064 24.354152,7.177837 24.172734,7.010413 23.985728,7.336462 23.826564,7.631944 23.484722,7.219018 23.387652,7.099827 23.384689,7.100396 23.346935,7.052927 23.287787,7.056968 23.276907,7.074743 23.250661,7.074956 23.044385,7.390804 22.869028,7.669015 22.55768,7.229464 22.471964,7.108431 22.451212,7.109602 22.431681,7.081618 22.317193,7.082549 22.314253,7.087016 22.287126,7.086796 22.080222,7.394362 21.895064,7.670055 21.596754,7.226747 21.502811,7.086963 21.475874,7.087016 21.471368,7.080168 21.360099,7.079265 21.3389,7.109585 21.318326,7.108185 21.111907,7.399583 20.921082,7.669018 20.627198,7.222003 20.533053,7.074765 20.513206,7.074725 20.499374,7.052513 20.445925,7.048879 20.405478,7.100386 20.398576,7.099028 20.174508,7.370678 19.963578,7.631949 19.700731,7.178997 19.604564,7.004947 19.310646,7.262563 19.049729,7.512067 18.862035,7.062917 18.800745,6.904481 18.536746,7.01094 18.17325,7.206863 18.125936,6.793445 18.105095,6.563674 18.039544,6.569306 17.546626,6.660053 17.624964,6.360119 17.664889,6.189389 17.560236,6.201006 17.552389,6.214693 17.538273,6.203444 17.246644,6.235816 17.276577,6.14548 17.266966,6.093293 17.264015,6.052251 17.179587,6.044576 17.073026,6.456584 16.670833,6.290573 16.328723,6.085251 16.245887,6.40615 16.182364,6.481028 16.12983,6.83869 16.103453,6.953285 15.875005,6.843331 15.810187,6.919735 15.672872,7.140706 15.164001,7.156829 15.021303,7.175352 14.933124,7.456544 14.78391,7.367241 14.602434,7.229724 14.561354,7.235056 14.450458,7.171509 14.299154,7.182456 13.872815,7.240319 13.779534,7.522574 13.642387,7.886047 13.336701,7.678472 12.963716,7.363701 12.910908,7.370868 12.803992,7.298225 12.578423,7.434704 12.356905,8.070242 12.288406,8.242269 11.865928,7.938674 11.553406,8.103967 10.993105,8.532019 10.972978,8.600023 10.967065,8.617643 10.921763,8.58695 10.884867,8.608351 10.792657,8.682386 9.922498,8.889777 9.784013,8.932437 9.758429,9.090434 9.679204,9.046076 9.601321,8.998704 8.975263,9.273272 8.732656,9.390442 8.742152,9.668315 8.595473,9.609075 8.467789,9.55914 8.132609,9.823764 7.863332,10.033745 7.950886,10.400261 7.744164,10.362681 7.545018,10.329215 7.387727,10.506979 7.12458,10.803781 7.305768,11.255314 7.040065,11.258806 6.746217,11.257562 6.494648,11.640122 6.588941,11.802716 6.784213,12.178827 6.459341,12.233663 6.071799,12.276283 5.960818,12.489647 6.182668,12.804715 6.363265,13.110853 5.981514,13.218639 5.511919,13.302394 5.856659,13.707331 6.028715,13.955059 5.594076,14.117729 5.248542,14.20118 5.643793,14.555504 5.807607,14.736037 5.324917,14.980818 5.03418,15.081737 5.577901,15.402224 5.71178,15.499226 5.185738,15.866691 4.972051,15.975418 5.704576,16.190246 5.778697,16.217362 5.51266,16.4801 5.641204,16.584997 6.007797,16.838458 6.0421,16.978392 6.056881,16.98356 6.045425,16.993206 6.314694,17.887376 6.345097,17.989215 6.436727,18.030274 6.390828,18.066367 6.353701,18.10265 6.517832,19.044173 6.560244,19.287496 6.736286,19.40451 6.630439,19.471816 6.513464,19.561612 6.468643,20.338871 6.429724,20.895973 6.760607,21.209032 6.511353,21.332077 6.169278,21.527672 6.137528,21.624216 5.927124,22.120574 6.038222,22.671461 6.001429,23.183591 6.126833,23.350421 6.313382,23.561882 5.964125,23.702848 5.959751,23.763726 5.888419,23.799548 5.938694,24.222228 5.820352,25.22559 5.514351,25.688152 5.248473,25.899492 5.302591,25.982574 5.227472,26.075216 5.447638,26.314634 5.229682,26.397389 4.781075,26.625742 4.674299,26.757426 4.420425,26.89863 4.406216,26.992136 4.164881,27.128234 4.2706,28.160095 4.161175,29.170717 4.22818,29.286896 4.319771,29.382874 4.129731,29.461119 4.123005,29.52324 4.082333,29.549444 4.116141,29.714515 4.11093,29.988066 3.439283,30.679574 2.686319,31.037506 2.627238,29.967093 2.4948,29.820634 2.233987,29.187944 2.411257,29.03515 2.571227,28.952294 2.568317,28.89958 2.695846,28.802011 2.688844,27.92831 3.165335,27.71127 3.942354,27.04692 3.805251,26.728554 3.874586,26.668297 3.550845,26.292368 3.40915,25.97269 3.769311,25.723924 4.119095,25.581381 4.118439,25.505162 4.316309,25.371569 4.24915,23.554738 4.493525,23.338803 4.458391,23.270007 4.40529,23.211264 4.367326,23.153099 4.723119,22.937022 5.298639,22.193787 4.938889,21.133503 4.801433,21.004004 4.865557,20.96543 4.804184,20.860544 5.051059,19.881568 4.922112,19.829902 4.663543,19.836088 4.762562,19.754256 5.028859,19.410347 4.416384,19.174796 4.353381,18.908574 4.306739,18.933143 4.34391,18.861878 4.315448,18.796976 3.956958,17.957311 3.900886,17.957196 3.829051,17.977196 3.905709,17.837274 3.893917,17.809655 3.899246,17.802132 3.874341,17.727142 3.512006,16.809698 3.466221,16.792053 3.431304,16.783268 3.481163,16.731604 3.477336,16.721911 3.490584,16.709161 3.489335,16.661588 3.399081,15.616823 3.430689,15.542581 3.395468,15.513302 3.401611,15.509539 3.423922,15.496197 3.668415,14.472783 3.681443,14.421538 3.660207,14.396673 3.663577,14.387632 3.625586,14.352389 3.641906,14.345803 3.685568,14.328635 4.003172,13.476567 4.027817,13.414797 4.013755,13.394164 4.019009,13.381658 3.971132,13.324248 3.9981,13.316867 4.052387,13.302211 4.411331,12.447843 4.434369,12.397368 4.429172,12.388716 4.432723,12.378821 4.398951,12.331834 4.420422,12.327739 4.453406,12.321191 4.6168,11.865908 4.928198,11.279132 4.911526,11.248475 4.946286,11.245049 4.947974,11.241868 4.953994,11.241101 4.97902,11.202233 5.627164,10.246955 5.624665,10.241375 5.630482,10.234809 5.608321,10.177676 5.577899,10.103959 5.724205,10.103928 5.730262,10.095001 5.754524,10.094807 5.887304,9.944943 6.495928,9.280538 6.488721,9.252816 6.501809,9.242646 6.477755,9.129344 6.442218,8.977113 6.734302,9.020316 6.743163,9.010643 6.790592,9.018243 7.100893,8.777118 7.545871,8.43735 7.543172,8.384592 7.55801,8.377294 7.558811,8.200089 7.556733,7.964714 7.969641,8.113775 7.979162,8.106505 8.051929,8.134365 8.562763,7.883115 8.796296,7.768596 8.800347,7.73675 8.808388,7.734162 8.85261,7.503896 8.905925,7.220081 9.357786,7.493253 9.381779,7.481487 9.455184,7.526034 10.146361,7.303624 10.235064,7.016723 10.330588,6.697683 10.69853,6.984919 10.825379,7.085001 10.881418,7.066957 10.96542,7.130286 11.500301,7.018035 11.622777,6.680734 11.745923,6.30407 12.017712,6.543081 12.350487,6.824566 12.893119,6.562387 12.934798,6.442976 13.059467,5.960195 13.200681,6.085151 13.321269,6.179893 13.891513,5.676973 14.193248,5.660643 14.204435,5.619517 14.209664,5.567795 14.321989,5.653676 14.354435,5.65192 14.370147,5.662478 14.980039,5.61003 15.185906,5.600072 15.228855,5.405613 15.237737,5.114813 15.58768,5.354438 15.943748,5.546447 15.977977,5.420546 16.143593,5.284014 16.155718,5.227425 16.210552,4.614431 16.328237,4.687324 16.649897,4.866625 17.006073,4.572998 17.176437,4.421922 17.215778,4.367231 17.29622,4.25087 17.308347,4.261336 17.454118,4.402942 17.74703,4.578844 18.235996,4.459133 18.321886,4.584632 18.422374,4.946452 18.806552,4.988184 18.813307,5.306372 19.033872,5.308623 19.024636,5.498192 19.17194,5.44226 19.231041,5.768047 19.437491,5.576224 19.499294,5.523599 19.610473,5.766104 19.74074,5.762399 20.043787,5.714454 20.122964,5.619507 20.141786,5.597173 20.19952,5.694962 20.270984,5.69296 20.935316,5.672983 20.962039,5.636707 20.969949,5.625861 21.001196,5.673179 21.042243,5.672934 21.864867,5.669402 21.88804,5.636384 21.895064,5.626461 21.925117,5.669499 21.963129,5.669725 22.788577,5.673284 22.812766,5.636888 22.820176,5.62586 22.85501,5.672862 22.899932,5.674123 23.592339,5.694756 23.634799,5.621407 23.648314,5.597173 23.73053,5.696377 23.843931,5.700744 24.206242,5.739561 24.268746,5.590175 24.290862,5.523607 24.538199,5.766066 24.608782,5.766051 24.629812,5.58414 24.618192,5.44226 24.797322,5.551684 24.852702,5.500728 24.756272,5.308622 25.053814,5.414787 25.177517,5.420105 25.168084,5.301137 24.983598,4.988172 25.138516,5.06466 25.46672,5.052457 25.494956,4.83762 25.529331,4.819045 25.55413,4.459133 25.581042,4.523786 25.884237,4.627264 26.394788,4.351376 26.493906,4.250869" slic3r:type="contour"/>
    <polygon style="fill: black" points="39.351535,17.981389 38.972672,18.030667 39.139288,18.243602 39.400784,18.293836 39.476771,17.980533" slic3r:type="hole"/>
    <polygon style="fill: white" points="2.690475,31.457955 2.74914,31.559878 2.725505,31.584791 2.860956,32.075228 2.877428,32.335507 3.061072,32.631974 3.254383,32.818128 2.920796,33.020697 2.929823,33.16333 2.882323,33.207673 2.99172,33.438367 3.062416,33.746412 2.533453,34.366216 1.84318,34.723776 1.524389,33.64613 1.160668,32.888722 1.215628,32.820313 1.268222,32.780181 1.262714,32.76156 1.308639,32.710007 1.257905,32.47991 1.370931,32.42703 2.622866,31.213155" slic3r:type="contour"/>
    <polygon style="fill: white" points="1.883112,35.356743 1.877787,35.362755 2.192205,35.923919 2.401046,36.561096 2.561965,36.786784 2.648697,36.867632 2.537619,36.977785 2.554652,37.029755 2.546564,37.040746 2.595216,37.102068 2.629261,37.167428 2.034601,37.906611 1.801825,38.052775 1.566691,38.3723 1.039065,37.940239 0.611897,37.26964 0.720156,37.082987 0.835099,36.954336 0.814818,36.920608 0.889248,36.788513 0.672645,36.41112 0.863163,36.2883 1.799023,35.218821" slic3r:type="contour"/>
    <polygon style="fill: white" points="1.554581,38.76334 1.558753,38.77288 1.550471,38.784208 1.546151,38.780916 1.539138,38.772464 1.550901,38.75768" slic3r:type="contour"/>
    <polygon style="fill: white" points="2.171471,39.673935 2.613087,40.399392 2.45934,40.609996 2.049946,40.914418 2.170912,41.062336 2.113735,41.132179 2.6646,41.54906 2.325563,42.036059 1.911344,42.752326 2.035401,42.926004 2.545651,43.4323 2.856768,43.783508 2.534349,44.221752 1.946322,44.730108 1.144673,43.883935 0.814316,43.601012 1.397168,43.01109 1.344075,42.965728 1.460409,42.818722 0.969682,42.460864 0.688269,42.135932 0.949741,41.621232 1.255192,41.172504 1.216927,41.130692 1.332985,40.83703 1.182893,40.621484 0.592624,39.991588 1.007516,39.651151 1.577356,38.971012" slic3r:type="contour"/>
    <polygon style="fill: white" points="2.663604,45.696764 3.09672,45.952772 2.580668,46.705552 2.498177,46.837199 2.552277,46.896291 2.541002,46.911435 3.02059,47.442216 3.382761,47.877055 3.159232,48.247367 2.702301,48.830272 2.990305,48.96728 3.593509,49.176596 3.362355,49.495508 2.778408,50.30016 2.083683,49.968932 1.649977,49.774075 1.901422,49.415948 2.39059,48.83422 1.802068,48.176475 1.305294,47.654868 1.759351,47.034985 1.691829,46.995356 1.742071,46.933319 1.327344,46.682396 1.140175,46.546699 1.5221,45.919908 1.986612,45.241424" slic3r:type="contour"/>
    <polygon style="fill: white" points="3.751211,51.349772 4.092655,51.415596 3.688706,52.008148 3.463553,52.361521 3.487801,52.401296 3.447079,52.459178 3.763161,53.059263 4.435963,53.173584 4.711936,53.187848 4.344607,53.840815 4.253376,54.024176 4.291096,54.104536 4.283017,54.119838 4.617945,54.702745 5.242865,54.691204 5.537652,54.661468 5.291543,55.306528 5.170507,55.681025 5.55448,56.187697 6.298495,56.02428 6.646251,55.933072 6.539311,56.526372 6.449962,57.180392 5.491093,57.444708 5.271602,57.483468 5.34536,56.716028 5.419913,56.276611 5.0814,56.008945 4.677341,56.005316 4.61958,55.909059 4.036321,55.952036 3.903812,55.948744 4.126551,55.140084 4.138919,55.108064 3.70526,54.385397 3.415169,54.33132 3.408307,54.261448 3.003281,54.212568 2.896899,54.190248 3.248534,53.4199 3.314756,53.308852 3.244992,52.598483 2.938431,52.50092 2.964151,52.422484 2.373185,52.239791 2.183784,52.172944 2.569901,51.535927 2.927163,51.070248" slic3r:type="contour"/>
    <polygon style="fill: white" points="8.133393,57.600592 8.152372,58.303148 7.321175,58.679512 7.02192,58.791212 6.981696,58.091632 6.981931,57.528196 7.748266,57.223572 8.131887,57.062836" slic3r:type="contour"/>
    <polygon style="fill: white" points="9.980262,58.535516 10.091877,59.273748 9.379178,59.698736 9.018264,59.889444 8.910577,59.268608 8.834509,58.64972 9.508556,58.288908 9.918354,58.061736" slic3r:type="contour"/>
    <polygon style="fill: white" points="11.987637,59.329244 12.180556,60.102615 11.569574,60.540096 11.16017,60.807515 11.017252,60.264483 10.873108,59.593912 11.465816,59.212144 11.896749,58.92042" slic3r:type="contour"/>
    <polygon style="fill: white" points="14.057437,59.981263 14.32611,60.794716 13.802358,61.222896 13.350821,61.56402 13.194377,61.095656 12.989142,60.374216 13.508958,59.994195 13.95827,59.638427" slic3r:type="contour"/>
    <polygon style="fill: white" points="16.083583,60.490523 16.434153,61.350376 15.993913,61.757923 15.505454,62.175188 15.348291,61.782588 15.072798,61.012552 15.517117,60.644476 15.987478,60.216908" slic3r:type="contour"/>
    <polygon style="fill: white" points="18.071652,60.85098 18.51304,61.740751 18.147829,62.129892 17.643572,62.62838 17.488416,62.303768 17.12803,61.50136 17.496998,61.145263 17.979664,60.640012" slic3r:type="contour"/>
    <polygon style="fill: white" points="20.035021,61.063167 20.566692,61.955092 20.261651,62.33494 19.771396,62.90898 19.616708,62.636436 19.163022,61.828732 19.46489,61.479335 19.9451,60.899068" slic3r:type="contour"/>
    <polygon style="fill: white" points="21.992867,61.128471 22.601524,61.985264 22.337825,62.375408 21.895064,63.00564 21.732223,62.762627 21.188594,61.985295 21.436905,61.628976 21.895064,60.987584" slic3r:type="contour"/>
  </g></svg>