<svg width="43.790126" height="63.590156" xmlns="http://www.w3.org/2000/svg" xmlns:svg="http://www.w3.org/2000/svg" xmlns:xlink="http://www.w3.org/1999/xlink" xmlns:slic3r="http://slic3r.org/namespaces/slic3r"><g xmlns="http://www.w3.org/2000/svg" slic3r:z="1.5185e-005" id="layer45">
    <polygon style="fill: white" points="9.528428,53.522291 9.4117,54.60728 8.365202,55.037972 8.217615,55.08446 8.272748,54.305211 8.365394,53.627364 9.040646,53.380823 9.585971,53.14696" slic3r:type="contour"/>
    <polygon style="fill: white" points="8.156495,51.967795 7.883715,53.126864 6.890194,53.39188 6.663318,53.421672 6.792774,52.694091 6.994621,51.976176 7.64777,51.85228 8.24789,51.673928" slic3r:type="contour"/>
    <polygon style="fill: white" points="7.040997,50.215663 6.63022,51.383659 5.682833,51.510232 5.40484,51.498448 5.597588,50.807536 5.913233,50.086744 6.548106,50.079948 7.158746,49.964276" slic3r:type="contour"/>
    <polygon style="fill: white" points="5.68748,48.118772 6.274666,48.056216 6.122041,48.305292 5.623455,49.424572 4.70707,49.442544 4.410614,49.385036 4.65682,48.717723 5.058191,48.027164" slic3r:type="contour"/>
    <polygon style="fill: white" points="5.03344,46.026104 5.569748,46.006144 5.361095,46.281539 4.826094,47.299524 3.920301,47.2314 3.636,47.139016 3.935347,46.476895 4.38794,45.84562" slic3r:type="contour"/>
    <polygon style="fill: white" points="3.797455,32.439434 4.183957,32.644308 3.696272,33.025174 3.383072,33.329677 3.418024,33.54437 3.272441,33.681126 3.536764,34.737303 3.541127,34.776986 3.878223,35.040496 4.083753,35.113528 3.61981,35.492552 3.640952,35.68482 3.539181,35.786205 3.685239,36.64888 3.70865,37.202943 3.954016,37.370364 4.130562,37.40944 3.731653,37.747379 3.740985,37.968219 3.647634,38.069005 3.778033,39.091216 3.7837,39.409455 4.067013,39.575188 4.300989,39.604268 3.795305,40.061008 3.801361,40.401044 3.684902,40.539348 3.811031,41.515537 4.254286,41.732532 4.595231,41.750928 4.167243,42.172091 3.909754,42.563782 3.922444,42.944184 3.786033,43.126114 3.877016,43.604539 4.561762,43.873403 5.01881,43.880008 4.724434,44.20562 4.206627,45.078727 4.155951,45.071283 4.221338,45.415116 4.224027,45.44372 4.216959,45.454476 4.212482,45.453488 4.190328,45.44324 4.124073,45.066602 3.270028,44.941147 3.042307,44.84222 3.406759,44.144688 3.865908,43.598979 3.783356,43.129685 3.723946,43.20892 3.612226,43.172419 3.131543,42.904396 3.107267,42.706609 2.705953,42.614568 2.588994,42.551524 3.001986,41.848854 2.907487,41.07894 2.526309,40.415921 2.333848,40.291035 2.334133,40.26839 2.286881,40.252892 2.272269,40.243396 2.335663,40.147499 2.337527,40.000056 2.214694,39.518387 2.193963,38.123836 2.167739,37.950805 2.089342,37.89294 2.112413,37.866616 2.150585,37.837609 2.148455,37.823551 2.18594,37.77248 2.033387,35.777004 2.057546,35.52483 2.039944,35.510387 2.040466,35.509184 2.026646,35.497128 2.067807,35.446049 2.831783,33.681984 2.548166,33.42704 2.616726,33.319805 2.254959,33.08658 2.108965,32.944832 2.612713,32.366673 3.205805,31.915858" slic3r:type="contour"/>
    <polygon style="fill: white" points="22.010586,0.922276 22.150159,0.933033 22.934901,0.994627 23.008831,0.914973 23.074618,0.840826 23.16672,1.030656 23.309363,1.062637 24.089979,1.241141 24.17506,1.173113 24.25126,1.109736 24.313036,1.30842 24.447112,1.357186 25.263061,1.656105 25.341179,1.610293 25.410324,1.568897 25.436286,1.731203 25.535269,1.77994 26.485892,2.241893 26.513778,2.230322 26.537644,2.220651 26.539069,2.270998 26.567163,2.288015 26.796906,2.421903 27.165739,2.989284 27.286005,3.149033 27.636122,3.062202 27.63055,3.185079 27.586297,3.759024 27.806584,4.207509 28.349853,4.134049 28.68474,4.101544 28.622984,4.462166 28.571037,4.716343 28.843822,4.922616 29.446559,5.345977 29.578801,5.348506 29.647178,5.352483 29.609665,5.469941 29.656439,5.513379 29.81326,5.655639 29.891931,6.408404 29.932294,6.688622 30.279263,6.750612 30.504442,6.806816 30.353884,7.155667 30.475618,7.251084 30.754342,7.454416 30.746572,8.04971 30.761235,8.280094 31.056627,8.354398 31.216718,8.408283 31.112731,8.616168 31.196424,8.638776 31.317828,8.658036 31.329848,9.463729 31.363739,9.837551 31.643325,9.898597 31.94087,9.781486 31.952612,9.902355 31.963327,9.964244 32.091302,9.984923 32.040074,10.055411 31.99151,10.12123 32.12551,10.871162 32.213216,11.354884 32.736836,11.43289 32.965678,11.242503 33.008754,11.40999 33.02568,11.480228 33.16219,11.494856 33.106429,11.554113 33.072369,11.595926 33.397251,12.363548 33.520869,12.737301 34.127564,12.74994 33.896448,12.996335 33.824451,13.115493 33.939851,13.25734 34.168733,13.671866 34.237777,13.735612 34.618671,13.747875 35.011096,13.716626 34.748163,13.989149 34.692178,14.156775 34.95741,14.531425 34.996123,14.532567 35.080299,14.617298 35.621956,14.643578 35.890232,14.609755 35.890232,14.609756 35.635992,14.846006 35.575666,15.137369 35.788517,15.454537 35.904144,15.468352 35.944887,15.531917 36.560279,15.614909 36.789228,15.604164 36.5319,15.822086 36.404609,16.33737 36.493857,16.544059 36.694812,16.606854 36.696767,16.613712 37.530599,16.858566 37.648155,16.877336 37.333547,17.134864 37.305255,17.198152 37.431059,17.307105 37.629064,17.330224 37.933404,17.557459 38.162748,18.348566 38.18194,18.454766 38.33168,18.506938 38.272732,18.558339 38.213131,18.627354 38.213292,18.628247 38.211106,18.630005 38.2852,19.629164 38.282452,20.074154 38.402583,20.129151 38.889144,20.350278 38.614984,20.589371 38.277211,20.922576 38.27706,20.947062 38.236125,20.98023 38.2141,21.127188 38.754459,21.205207 39.125632,21.240964 39.0933,21.876763 39.080037,22.163541 39.442236,22.331494 39.245959,22.498328 38.997272,22.71913 38.965848,22.91147 38.924119,23.292996 39.345203,23.314071 39.786212,23.38237 39.734743,23.90284 39.700928,24.263236 39.701692,24.263599 39.699384,24.277008 40.143644,24.5378 39.879284,24.723985 39.574742,24.995796 39.525893,25.261155 40.15504,25.340826 40.47094,25.488946 40.389768,26.171943 40.270476,26.674582 40.294896,26.69075 40.276946,26.787678 40.922267,27.276876 40.549691,27.531682 40.242219,27.830429 40.35462,27.928654 40.23454,28.04206 40.872744,28.303504 41.204608,28.639402 41.098456,29.311644 40.960227,29.701566 40.999636,29.736297 40.978915,29.849596 41.431336,30.201386 41.187303,30.352146 40.780951,30.730955 40.548816,31.339384 39.538448,30.461792 39.377936,30.371564 39.46701,30.089515 39.440899,30.061582 39.44514,30.047019 39.37684,29.996694 39.312972,29.93521 39.561881,29.646158 39.984294,28.195679 39.920831,28.149907 39.835736,28.060194 39.860881,27.956408 39.343036,27.606352 38.924387,27.465586 38.79024,27.428274 38.866566,27.183765 38.778132,27.13192 38.676868,27.067281 38.942667,26.76583 39.179791,25.747968 38.684488,25.734626 38.208812,25.666894 38.370269,24.901159 38.163039,24.809267 37.800472,24.65508 37.99256,24.475431 38.311616,24.139598 37.586008,23.999044 37.744882,22.830428 37.537072,22.736864 37.161396,22.558309 37.431695,22.333784 37.842795,21.966204 37.849091,21.83644 37.344916,21.635018 36.873828,21.479951 36.969523,20.711097 36.846771,20.652401 36.667008,20.55374 36.979413,20.279715 36.94426,19.139996 36.623552,19.033092 36.151104,18.845574 36.333607,18.651974 36.55858,18.405559 36.517976,18.380798 36.718691,18.104139 35.877806,17.619332 35.546888,17.55631 35.576011,17.514242 35.609383,17.464574 35.594896,17.456221 35.669767,17.29639 35.249552,17.181104 34.945848,16.632611 34.91746,16.632028 34.899551,16.604626 34.866667,16.608307 34.809796,16.611477 34.835142,16.506072 34.7446,16.367534 34.288138,15.76957 34.185632,15.773293 34.144389,15.712939 34.061227,15.726644 33.90512,15.74545 33.954625,15.435244 33.71418,15.083382 33.551491,14.864888 33.376557,14.865466 33.331944,14.784421 33.167711,14.797608 32.845372,14.81768 32.9553,14.358969 33.009104,14.197939 32.871199,13.947419 32.845652,13.945507 32.848434,13.906065 32.80449,13.826233 32.607032,13.814134 32.583038,13.743903 32.299245,13.725669 31.695151,13.700486 31.726761,13.632357 31.783177,13.53425 31.742298,13.540161 31.785241,13.416873 31.57055,13.535289 31.23603,12.372465 31.19259,12.367282 31.186068,12.334209 31.066437,12.310292 30.712914,12.246467 30.933324,11.907634 31.083851,11.697687 30.98662,11.6807 31.040815,11.597637 31.014477,11.464076 30.672046,11.397632 30.202358,11.33309 30.139751,10.747928 30.098906,10.736589 29.935192,10.696149 30.109253,10.462869 30.102168,10.396648 30.10974,10.386732 30.033811,9.658396 29.560655,9.213991 29.540777,9.208462 29.505184,9.176836 29.303922,9.133115 29.362345,9.049913 29.19402,8.900345 29.117983,7.748103 29.042856,7.73733 28.733758,7.696829 28.918619,7.376849 28.989916,7.25052 28.232643,6.508061 28.020718,6.513749 28.054203,6.422176 28.071888,6.372863 27.593178,5.997598 27.400813,5.476153 27.316984,5.489456 27.211066,5.505663 27.283595,5.202061 26.862715,4.502116 26.600055,4.583311 26.33804,4.660727 26.38579,4.211297 26.418842,3.892027 26.089928,3.68584 25.785215,3.826008 25.429532,3.983893 25.425151,3.599092 25.420261,3.313367 25.071713,3.137662 24.915889,3.236148 24.53126,3.474148 24.482094,3.124891 24.444896,2.86311 24.105869,2.737922 24.008727,2.820678 23.646208,3.125551 23.550138,2.795284 23.479293,2.547867 23.163657,2.476432 23.079855,2.572192 22.769764,2.924846 22.624209,2.609491 22.518562,2.375861 22.221973,2.352857 22.14321,2.474374 21.895064,2.860872 21.703336,2.566933 21.565934,2.353441 21.268185,2.376531 21.213431,2.496324 21.020346,2.924843 20.793989,2.665371 20.629056,2.477574 20.308572,2.55011 20.276296,2.66192 20.143902,3.125557 19.884155,2.902338 19.689883,2.738397 19.345319,2.865584 19.325533,3.005475 19.25885,3.474145 18.959271,3.282185 18.726324,3.137227 18.371679,3.315821 18.368179,3.562654 18.360608,3.983871 18.003211,3.815942 17.710081,3.684497 17.372373,3.895663 17.420499,4.354308 17.452087,4.660721 16.998729,4.517133 16.929925,4.496505 16.674028,4.921598 16.507129,5.200118 16.550248,5.382324 16.579065,5.505663 16.386116,5.474494 16.322759,5.641187 16.196947,5.9976 15.841437,6.272307 15.718253,6.370439 15.769408,6.513749 15.65207,6.510868 15.545461,6.508088 15.527672,6.52226 15.197087,6.820316 14.791998,7.227992 14.864798,7.355395 15.056351,7.696846 14.647917,7.756707 14.608274,8.177926 14.596104,8.900348 14.501355,8.976555 14.425431,9.04643 14.486201,9.133118 14.381025,9.156909 14.281378,9.179004 14.249389,9.208444 14.18326,9.227179 13.905547,9.453592 13.755511,9.606335 13.716969,9.959868 13.67705,10.382843 13.687945,10.396624 13.680694,10.462193 13.731414,10.530202 13.85493,10.696143 13.648485,10.753491 13.628522,10.934027 13.58776,11.333132 13.173206,11.43106 12.77739,11.487874 12.755039,11.604224 12.803526,11.68073 12.692483,11.711833 12.731117,11.757181 12.728025,11.768096 12.839191,11.934905 13.077228,12.246482 12.603229,12.339859 12.59751,12.367292 12.55675,12.372685 12.472051,12.671666 12.219576,13.535289 12.127078,13.508013 12.015176,13.453924 12.047827,13.540161 11.984847,13.53628 12.094974,13.700484 11.874053,13.713825 11.206048,13.750922 11.183123,13.814141 11.004269,13.824875 10.943643,13.936999 10.944494,13.945572 10.938269,13.946935 10.761047,14.274693 10.814608,14.476907 10.944768,14.817663 10.464038,14.779952 10.413559,14.865458 10.286707,14.861996 10.102397,15.139709 9.830226,15.486047 9.84237,15.555253 9.885008,15.745451 9.655831,15.707966 9.604495,15.773293 9.548224,15.769614 9.445143,15.934754 8.959122,16.526729 8.980329,16.611476 8.897249,16.60209 8.872674,16.632022 8.862553,16.631962 8.831437,16.704676 8.540575,17.181104 8.282165,17.386016 8.172363,17.407332 8.195229,17.456222 8.184018,17.466927 8.243236,17.55631 8.155754,17.568376 8.061775,17.583653 7.673641,17.95427 7.107486,18.153852 7.272149,18.380814 7.242351,18.405124 7.639045,18.845574 7.19773,18.993252 6.838553,19.123949 6.807299,19.988127 6.803197,20.258923 6.95507,20.394401 7.123129,20.553752 6.811489,20.703374 6.84544,21.02341 6.916293,21.480062 6.510855,21.657918 5.932887,21.853865 5.936226,21.94446 6.289659,22.243771 6.628743,22.558322 6.031553,22.827947 6.087794,23.287538 6.204139,23.999004 5.94344,24.004268 5.455323,24.089959 5.664824,24.294242 5.989676,24.65503 5.422556,24.905598 5.48968,25.221619 5.581326,25.666842 5.11402,25.6624 4.61796,25.722834 4.75497,26.249179 4.866921,26.800985 5.010047,26.959288 5.113239,27.067324 4.941574,27.168957 4.942916,27.175574 4.930215,27.185205 4.965812,27.293789 4.999884,27.428252 4.296446,27.681579 4.262765,27.691298 3.931754,27.942287 3.954349,28.060294 3.813556,28.181978 4.114282,29.050846 4.275471,29.744311 4.40427,29.87854 4.477168,29.935134 4.343171,30.035565 4.349206,30.06153 4.331911,30.077218 4.371497,30.187284 4.41219,30.371578 3.857198,30.973376 3.24128,31.33925 3.109118,30.869358 2.762789,30.626033 2.358781,30.201348 2.580774,29.958362 2.804555,29.786501 2.790438,29.736309 2.882547,29.643825 2.585479,28.639604 3.073422,28.478122 3.582464,28.087209 3.435563,27.928781 3.535435,27.865699 3.099794,27.526589 2.867867,27.276872 3.244417,26.929764 3.50709,26.737397 3.495302,26.690746 3.557247,26.64746 3.3192,25.488854 3.82443,25.470954 4.275457,25.309471 4.227786,25.042947 3.944121,24.818195 3.64647,24.53781 3.935788,24.361758 4.088996,24.27251 4.003913,23.382358 4.444417,23.371138 4.85231,23.320881 4.773664,22.711161 4.720693,22.665047 4.347889,22.331452 4.573065,22.236147 4.709508,22.172308 4.66449,21.240964 5.239596,21.154343 5.585458,21.115507 5.569796,21.000406 5.513067,20.947062 5.513403,20.93831 5.114959,20.566482 4.900981,20.350296 5.22676,20.199221 5.547392,20.053628 5.573607,19.371264 5.587348,18.662752 5.45843,18.506938 5.537311,18.473353 5.625268,18.442782 5.856676,17.557556 6.502514,17.505225 6.376056,17.292588 6.396893,17.286273 6.169439,16.959792 6.14197,16.877334 6.67969,16.63577 7.229592,16.539011 7.374415,16.465849 7.022177,15.786591 7.000931,15.604124 7.520338,15.438352 7.954417,15.445204 8.177986,15.369614 7.918385,14.818562 7.899882,14.609781 8.443308,14.484935 8.823712,14.525174 8.9903,14.48366 9.072918,14.378678 8.842185,13.959883 8.779011,13.71667 9.319527,13.616625 9.64746,13.646173 9.747003,13.62405 9.971001,13.255724 9.895185,13.152679 9.662571,12.749908 10.078931,12.677477 10.320245,12.678081 10.609553,11.924984 10.721114,11.610019 10.627962,11.494829 10.71831,11.479672 10.766647,11.475214 10.824474,11.242473 10.910088,11.333359 11.019907,11.426372 11.268998,11.377888 11.578691,11.338427 11.64881,10.949238 11.798562,10.119717 11.69885,9.984915 11.780202,9.973291 11.822506,9.966313 11.849192,9.781605 11.96323,9.813311 12.20635,9.903003 12.238438,9.89771 12.398421,9.859391 12.472298,8.65801 12.695287,8.598556 12.628953,8.483891 12.573411,8.40826 12.807404,8.382071 13.005971,8.322478 13.035754,7.454482 13.451224,7.135065 13.367872,6.955363 13.285687,6.806794 13.526554,6.778704 13.840739,6.711793 13.976879,5.65566 14.183196,5.466145 14.163538,5.406743 14.142976,5.352483 14.306805,5.3526 14.309318,5.350292 14.330073,5.349637 14.654029,5.108955 15.227512,4.691496 15.171407,4.384126 15.105373,4.101573 15.381681,4.143635 15.953174,4.209797 16.209631,3.657232 16.202188,3.523324 16.154004,3.062195 16.248489,3.090049 16.481477,3.151752 16.992999,2.422059 17.252848,2.269117 17.252478,2.220639 17.303544,2.241946 17.34799,2.22008 18.355951,1.729269 18.36889,1.646926 18.379804,1.568907 18.528759,1.65589 18.651127,1.611371 19.478461,1.308409 19.510578,1.204544 19.538896,1.109708 19.704381,1.241117 19.845801,1.209409 20.624607,1.031339 20.673071,0.931011 20.715508,0.840828 20.859355,0.994621 20.999382,0.983828 21.782403,0.922359 21.842471,0.834587 21.895064,0.754588" slic3r:type="contour"/>
    <polygon style="fill: white" points="41.452955,32.772549 41.68114,32.944854 41.161208,33.241661 41.241912,33.427015 41.041752,33.590359 41.392664,34.125104 41.741088,35.475237 41.758332,35.4934 41.765676,35.498803 41.748322,35.511844 41.756732,35.777303 41.647032,37.690683 41.62274,37.801708 41.641712,37.823583 41.640701,37.849437 41.700771,37.892904 41.672444,37.905143 41.637595,37.92883 41.575428,39.518424 41.471802,40.19069 41.502707,40.230155 41.517864,40.24342 41.461704,40.256205 41.45634,40.291008 41.38906,40.331359 41.359824,40.575896 40.886429,42.147734 41.091296,42.44126 41.201128,42.55148 40.748465,42.605824 40.658544,42.904392 40.06618,43.20892 40.005284,43.149609 39.928914,43.606222 40.552847,44.612815 40.74784,44.84222 40.142183,44.862576 39.689487,45.037739 39.638955,45.33986 39.599731,45.443352 39.573192,45.454552 39.570512,45.45166 39.566144,45.443832 39.639264,45.057171 39.583451,45.078767 39.053772,44.470784 38.771312,43.880011 39.138103,43.715224 39.914548,43.601474 40.000106,43.149042 39.867688,42.944192 39.901955,42.677834 39.430588,42.192992 39.194892,41.750932 39.685544,41.476216 40.066551,41.398471 40.164082,40.640381 39.988736,40.401 40.009397,40.221376 39.666052,39.897884 39.48914,39.604276 40.079088,39.209396 40.12734,39.195996 40.241244,38.205729 40.049136,37.968248 40.065726,37.848308 39.801668,37.617048 39.659552,37.409388 40.183056,37.000049 40.335537,35.897654 40.14922,35.684936 40.171149,35.575335 39.877403,35.331179 39.706376,35.113556 40.233895,34.641912 40.371161,34.575696 40.540719,33.728266 40.372052,33.544355 40.410092,33.38777 39.928323,33.008896 39.606168,32.644272 39.905264,32.343522 40.5844,31.915808" slic3r:type="contour"/>
    <polygon style="fill: white" points="39.934404,46.833252 40.154136,47.138992 39.586744,47.120816 38.96392,47.299524 38.510768,46.68874 38.22038,46.006151 38.505519,45.914268 39.40218,45.845624" slic3r:type="contour"/>
    <polygon style="fill: white" points="38.731908,48.027124 39.184544,49.048308 39.379508,49.38502 38.819436,49.316532 38.166688,49.42458 37.779991,48.787643 37.515463,48.056216 37.755339,48.014348" slic3r:type="contour"/>
    <polygon style="fill: white" points="37.876952,50.086747 38.243316,51.1717 38.38528,51.498452 37.815756,51.368388 37.159864,51.383704 36.842799,50.704427 36.631392,49.964232 36.859128,49.9628" slic3r:type="contour"/>
    <polygon style="fill: white" points="35.790984,51.718976 36.795468,51.976168 37.050647,53.148187 37.126808,53.421692 36.532572,53.215876 35.906408,53.126864 35.676292,52.386172 35.542236,51.673928" slic3r:type="contour"/>
    <polygon style="fill: white" points="34.500868,53.254016 35.424623,53.627312 35.547928,54.90236 35.572532,55.084424 34.942539,54.788295 34.378436,54.607336 34.254099,53.795767 34.204135,53.146984" slic3r:type="contour"/>
    <polygon style="fill: white" points="33.009862,54.5864 33.819368,55.031144 33.798924,56.398304 33.799796,56.4775 33.142786,56.083412 33.0807,56.053096 33.05075,56.120583 32.827216,56.010701 32.666058,56.638532 32.091362,57.483896 31.87861,57.594744 31.878541,57.595315 31.87798,57.59554 31.876327,57.608807 31.865183,57.600799 31.864511,57.601128 31.864336,57.600998 30.019643,58.33886 29.898646,58.384475 29.897174,58.391088 29.892306,58.392605 29.872702,58.480492 29.847153,58.458355 29.80092,58.421317 29.799173,58.421976 29.79889,58.42172 28.045208,58.968295 27.903805,59.009838 27.901396,59.017324 27.895805,59.018575 27.866122,59.110584 27.841288,59.084744 27.796266,59.041431 27.795022,59.041795 27.794513,59.04124 25.988185,59.44542 25.893401,59.465332 25.891522,59.469836 25.888322,59.470268 25.864402,59.526628 25.850248,59.509184 25.824596,59.479787 25.823942,59.479924 25.823266,59.479046 23.880917,59.741162 23.880566,59.741856 23.88002,59.741881 23.873221,59.75478 23.865003,59.742961 23.864512,59.743024 23.864227,59.742593 22.748333,59.792964 21.951905,59.724147 21.898908,59.814455 21.895094,59.820808 21.836695,59.719909 21.697947,59.727188 21.040733,59.792936 19.925962,59.742527 19.925596,59.743067 19.925577,59.743064 19.916906,59.754795 19.910074,59.74192 19.909578,59.7419 19.909032,59.740823 18.056197,59.489703 17.967788,59.478575 17.925724,59.526659 17.916301,59.505499 17.9013,59.470207 17.89861,59.469868 17.896227,59.464251 16.14088,59.070216 15.997516,59.04011 15.92403,59.110588 15.911579,59.075404 15.893058,59.018173 15.888724,59.017263 15.885503,59.007586 14.136207,58.462659 13.992723,58.420417 13.990971,58.421944 13.990828,58.421886 13.917423,58.48048 13.908563,58.446216 13.896433,58.392069 13.892937,58.391039 13.890828,58.382098 11.950117,57.609908 11.926205,57.600844 11.913829,57.608808 11.91171,57.595351 11.911616,57.595316 11.911409,57.59377 11.698733,57.48386 11.618222,57.232707 11.027065,55.980382 10.739799,56.12038 10.729112,56.071099 10.052709,56.447288 9.990356,56.47752 9.963504,55.646827 9.97081,55.031092 10.665404,54.666523 11.135205,54.401 11.125811,54.870883 11.134448,55.779651 11.836515,56.12541 12.443906,55.7133 12.837832,55.431856 12.890931,55.980099 12.972343,56.663989 13.771864,56.967519 14.294369,56.531632 14.627301,56.237024 14.745965,56.822916 14.86911,57.37263 15.663707,57.608035 16.131944,57.135956 16.431655,56.815688 16.601648,57.381872 16.777756,57.922053 17.523619,58.080402 17.963061,57.550184 18.244478,57.194696 18.451996,57.715628 18.702227,58.305261 19.378607,58.391675 19.796641,57.793 20.0651,57.400952 20.299784,57.873812 20.630135,58.512807 21.249561,58.539383 21.64073,57.879843 21.895064,57.460708 22.155854,57.900796 22.540222,58.539968 23.157565,58.5135 23.498105,57.829048 23.725014,57.400936 24.028346,57.834976 24.413824,58.393463 25.082779,58.308143 25.356435,57.623716 25.54565,57.194716 25.900343,57.621911 26.272139,58.082877 27.005467,57.927244 27.210226,57.248028 27.358472,56.815672 27.759402,57.218832 28.134159,57.609937 28.914861,57.378384 29.055247,56.687688 29.162824,56.237028 29.586264,56.589208 30.024824,56.968236 30.813488,56.668101 30.885049,55.9325 30.952312,55.43186 31.354754,55.704092 31.956791,56.12555 32.653746,55.78111 32.637815,54.972728 32.654918,54.401" slic3r:type="contour"/>
  </g></svg>