<svg width="43.790126" height="63.590156" xmlns="http://www.w3.org/2000/svg" xmlns:svg="http://www.w3.org/2000/svg" xmlns:xlink="http://www.w3.org/1999/xlink" xmlns:slic3r="http://slic3r.org/namespaces/slic3r"><g xmlns="http://www.w3.org/2000/svg" slic3r:z="3.92749999999998e-005" id="layer118">
    <polygon style="fill: white" points="13.738571,57.467659 13.995634,58.345064 13.645807,58.648991 12.994278,59.133648 12.913525,58.860179 12.66366,57.835444 13.183893,57.435587 13.644278,57.046008" slic3r:type="contour"/>
    <polygon style="fill: white" points="11.532734,56.753027 11.688047,57.435592 11.137472,57.835576 10.653855,58.145767 10.5209,57.572635 10.383763,56.824152 11.149448,56.324324 11.426625,56.117324" slic3r:type="contour"/>
    <polygon style="fill: white" points="5.884505,52.235896 5.680314,53.185849 7.015198,53.834395 7.466761,53.661464 7.457779,53.75534 7.442237,54.020548 8.494417,54.4132 8.675219,55.335687 9.232024,55.047039 9.309784,54.999795 9.39111,55.884131 9.451724,56.346455 8.639598,56.780963 8.349276,56.932155 8.233757,56.035155 8.201597,55.707334 7.161362,55.308204 6.939403,55.224131 6.852358,55.250408 6.79995,55.224414 6.35767,55.385515 6.242746,55.427652 6.252525,54.952898 5.926849,54.791367 5.330073,54.507419 5.384234,54.045656 5.447108,53.521273 4.455863,53.563732 4.485856,53.449228 4.807137,52.19776 5.201748,52.214496 6.004887,52.091688" slic3r:type="contour"/>
    <polygon style="fill: white" points="4.127117,48.627136 4.448245,48.831755 4.065327,49.307217 4.519751,49.408456 4.6484,49.422044 4.33107,50.241128 4.131402,50.898748 3.30435,50.755395 2.913611,50.70412 3.248604,49.555721 2.773002,49.268932 2.3211,48.970268 2.62199,48.668591 3.150334,48.06752" slic3r:type="contour"/>
    <polygon style="fill: white" points="3.134218,44.280503 3.470599,44.544732 2.942865,44.952192 2.718156,45.177298 2.770044,45.220966 3.448185,45.550739 3.660411,45.661804 3.359578,46.524391 2.980611,47.492548 2.376569,47.137259 1.80338,46.896208 2.204941,45.841343 2.382224,45.347268 2.41387,45.246393 1.790772,44.783247 1.376277,44.397828 1.667236,44.113091 2.305833,43.579524" slic3r:type="contour"/>
    <polygon style="fill: white" points="2.285581,39.449647 2.951783,40.104808 3.0284,40.16894 2.780572,40.3109 2.809873,40.362712 2.793395,40.3765 2.980662,40.528511 3.058645,40.620411 2.671993,41.871364 2.22888,42.914084 1.599663,42.245855 1.111441,41.87534 1.611355,40.605229 1.542156,40.53554 1.571343,40.440563 1.194636,40.135964 0.978991,39.902908 1.479653,39.470079 1.968635,39.147719 1.982077,39.103979" slic3r:type="contour"/>
    <polygon style="fill: white" points="4.871636,22.572411 5.063599,22.870903 5.045692,22.962936 5.071928,22.999564 5.522683,23.542714 5.310155,23.590072 4.895929,23.732599 4.732178,24.574147 4.426994,25.886593 4.485847,25.97567 4.477074,26.011557 4.66197,26.22405 4.575662,26.24467 4.404456,26.308612 3.872849,28.483236 3.721231,28.974188 3.75218,29.017956 3.746536,29.039981 3.867318,29.168852 3.81182,29.184072 3.696717,29.234412 3.197504,31.182668 2.911454,32.000198 2.974047,32.079374 2.961413,32.130532 3.267106,32.424674 3.134704,32.470539 2.837223,32.633424 2.628308,33.479396 2.043435,35.054961 2.194802,35.226952 2.170313,35.319152 2.462991,35.623092 2.994005,36.089384 2.651135,36.245016 1.945874,36.734244 1.470787,36.325263 0.955716,35.725656 1.126411,35.602459 1.641815,35.329845 1.597827,35.246084 1.886914,35.031027 1.967725,34.989257 1.433996,33.206971 1.197595,32.642272 1.367454,32.071745 1.348165,32.04671 1.354637,32.025128 1.292469,31.96207 1.265,31.921976 1.411455,31.835659 1.586484,31.251988 2.186384,28.968436 2.139018,28.899961 2.155216,28.841223 1.988738,28.650476 1.922129,28.53887 2.28428,28.373209 2.496031,27.605351 2.874659,25.776267 2.85316,25.74296 2.859743,25.713116 2.777596,25.611575 2.748127,25.557886 2.907252,25.497767 2.957367,25.270596 3.022715,24.731585 3.575822,24.087117 3.920419,23.358551 3.624224,22.8845 3.757251,22.836633 4.225036,22.714509 4.232231,22.699298 4.657825,22.555669 4.915546,22.174804" slic3r:type="contour"/>
    <polygon style="fill: white" points="8.514865,14.208614 8.546572,14.20291 8.777103,14.82139 8.991844,15.287261 8.774608,15.318703 8.500098,15.372952 8.501851,15.964328 7.9963,16.058415 7.379803,16.126358 7.726313,16.799598 7.913758,17.066208 7.531779,17.12306 6.879351,17.322622 7.075367,18.867188 7.084364,18.959269 7.060856,18.974035 7.073568,18.98905 7.019107,18.999969 5.621222,20.116121 6.094491,20.808507 6.345049,21.113214 5.925203,21.20128 5.17928,21.460666 4.741652,20.933021 4.452374,20.469378 4.897391,20.320592 5.59721,20.135011 5.589746,19.046789 5.503071,18.902964 5.491888,18.727417 5.267817,18.446337 5.190113,18.324436 5.460643,18.236962 5.447572,18.031775 5.411671,17.719392 5.915034,17.470333 6.472794,17.095608 6.340957,16.881234 6.020778,16.326109 6.434848,16.227478 7.149565,16.056334 7.166509,15.254452 7.18299,14.996431 7.180029,14.990385 7.188697,14.820109 7.059788,14.587982 6.998256,14.486804 7.208139,14.438217 7.215314,14.297265 7.256551,14.047984 7.785786,13.993533 8.519394,13.991035" slic3r:type="contour"/>
    <polygon style="fill: white" points="19.964822,7.203871 20.046596,7.204034 20.07318,7.256304 20.360566,7.289487 20.482767,7.153599 20.675594,6.935723 20.866338,7.351397 20.954255,7.362302 20.971801,7.402519 21.071847,7.418006 21.186215,7.285998 21.382596,7.060265 21.60893,7.560997 21.723817,7.377164 21.895064,7.119645 22.167308,7.559967 22.272228,7.33114 22.407544,7.060265 22.726237,7.428341 22.814584,7.414712 22.835972,7.36234 22.91485,7.35325 22.98597,7.199474 23.114534,6.935737 23.436622,7.29312 23.717195,7.260787 23.743556,7.203981 23.827037,7.202256 23.901288,7.074381 24.044768,6.826137 24.319343,7.187094 24.361118,7.181903 24.366862,7.191102 24.797083,7.182213 24.865039,7.182104 24.877152,7.160612 24.963513,7.168266 25.047941,7.058367 25.216416,6.829169 25.41809,7.181215 25.473962,7.181125 25.490468,7.214959 26.008414,7.260855 26.383506,7.311748 26.448512,7.242672 26.646228,7.027084 26.787591,7.366575 26.85933,7.376309 26.87488,7.416253 27.390226,7.483484 28.006336,7.609282 28.043597,7.574909 28.238424,7.393948 28.330442,7.67546 28.39096,7.687817 28.404319,7.728018 28.802485,7.780527 29.827288,8.01848 29.949842,7.919937 29.985807,8.055288 30.01306,8.061616 30.019171,8.082472 30.183204,8.099827 30.786258,8.240536 31.008152,8.640101 31.134023,8.999811 31.202988,9.019747 31.319102,8.938166 31.349362,9.062057 31.408475,9.079145 31.438853,9.052091 31.787513,8.756857 31.906645,9.223148 31.96634,9.240404 31.983992,9.299795 32.2751,9.348381 32.953332,9.572824 32.738784,9.969555 32.556758,10.148598 32.83396,10.206913 33.958071,10.604903 33.963284,10.597525 33.966063,10.607732 33.966936,10.608041 33.966947,10.608086 33.97326,10.610749 33.968334,10.616977 34.227759,11.465219 34.30384,11.48856 34.309803,11.511385 34.469675,11.551517 34.7147,11.644171 34.451079,12.052208 34.60244,12.631637 34.66324,12.644699 34.668843,12.668796 35.081824,12.749355 35.647524,12.906418 35.482955,13.282915 35.030519,13.987198 34.046512,13.754832 33.652368,13.878245 33.633548,13.746049 33.618948,13.653867 33.603219,13.650153 33.598601,13.627062 33.316218,13.584173 33.376952,13.459443 33.496845,13.118233 33.460646,12.93722 33.385643,12.52432 33.276714,12.490702 33.24376,12.360745 31.86949,12.032886 31.769028,12.117191 31.742924,12.037283 31.73266,12.000243 31.72133,11.99754 31.715543,11.981484 31.499938,11.942108 31.583256,11.887593 31.645066,11.785927 31.473993,11.31124 31.40333,11.050159 31.331036,11.030455 31.276221,10.903831 30.789424,10.788443 29.917011,10.600278 29.821086,10.746886 29.765428,10.614379 29.749244,10.564093 29.735477,10.561124 29.725941,10.540959 29.188882,10.431125 29.489986,10.368024 29.602741,10.280464 29.50683,10.077663 29.434623,9.84164 29.41181,9.836537 29.371201,9.774891 28.720047,9.630127 28.219613,9.532969 28.019522,9.855115 27.890436,9.579896 27.8516,9.461521 27.842634,9.45978 27.831288,9.441563 26.630324,9.23089 26.503338,9.211193 26.436976,9.324221 26.398538,9.237366 26.382151,9.191212 25.389162,9.099085 25.985522,8.892174 26.169828,8.791174 26.103915,8.636137 25.854494,8.60871 25.44878,8.562238 25.135839,9.016267 25.110756,9.050328 24.958491,8.745358 24.850893,8.539919 24.704889,8.547136 24.374772,8.554197 24.231929,8.787676 24.118782,8.992097 24.009473,8.766169 23.906216,8.614782 23.770775,8.640566 23.506687,8.677009 23.339584,9.04564 23.251799,8.880363 23.147384,8.754736 22.963721,8.797051 22.797826,8.827347 22.790102,8.841183 22.781487,8.842148 22.635948,9.144918 22.557014,9.013867 22.442052,8.880171 22.188407,8.908584 22.098805,8.917608 21.895064,9.210316 21.811429,9.081723 21.695749,8.914088 21.446835,8.886138 21.392415,8.880664 21.154192,9.144918 21.052933,8.991119 20.957392,8.802501 20.788314,8.762603 20.711355,8.748606 20.450558,9.045638 20.317973,8.850369 20.21676,8.643297 20.100632,8.620185 19.936986,8.597803 19.833573,8.763353 19.671324,8.99207 19.502705,8.748083 19.38174,8.538085 19.256715,8.531443 18.951515,8.525177 18.70406,9.003321 18.679312,9.050313 18.496726,8.756521 18.354409,8.557945 18.142876,8.58113 17.66402,8.636041 17.621488,8.729027 18.401664,9.098945 17.493398,9.182807 17.402697,9.191443 17.35312,9.324262 17.321245,9.245026 17.301203,9.211781 16.193661,9.412855 15.951946,9.449359 15.94755,9.459773 15.912542,9.468179 15.770629,9.855108 15.693134,9.612781 15.641605,9.533234 14.876228,9.717009 14.390537,9.805344 14.3783,9.836533 14.297688,9.859282 14.192937,10.161751 14.600901,10.431272 14.167618,10.53491 14.058141,10.550975 14.054601,10.561197 14.032703,10.567802 13.969054,10.746867 13.908819,10.605161 13.012099,10.875584 12.477618,10.969704 12.459124,11.030474 12.34455,11.071533 12.295346,11.231957 12.157802,11.696771 12.290167,11.942149 12.141278,11.980408 12.071181,11.989496 12.068791,11.997571 12.054712,12.002072 12.021098,12.117222 11.97135,12.064439 11.940929,12.038442 11.211071,12.271741 10.532761,12.397996 10.513526,12.490704 10.396534,12.533371 10.302211,13.035877 10.473918,13.584145 10.318642,13.618742 10.18955,13.636067 10.186912,13.650121 10.172523,13.653813 10.137774,13.878206 9.990786,13.833677 9.755931,13.760706 9.537803,13.816673 8.759702,13.987232 8.433218,13.303507 8.142591,12.906414 9.107855,12.704955 9.126887,12.644702 9.137356,12.642893 9.239592,12.111108 9.32076,11.906327 9.224615,11.766141 9.07541,11.644211 9.467831,11.535276 9.486345,11.488568 9.497356,11.485885 9.531,11.315908 9.821052,10.613273 9.81685,10.610741 9.82294,10.608915 9.826901,10.597416 9.837192,10.604208 11.420452,10.173 11.216541,9.8345 10.836794,9.572837 11.777111,9.356392 11.823808,9.240441 11.871516,9.230892 11.887852,9.164662 12.002585,8.756886 12.266362,8.993089 12.43399,9.138526 12.470964,8.938134 12.684609,9.089951 12.739109,8.970505 13.003914,8.240517 13.763443,8.105889 13.777067,8.061615 13.795394,8.058801 13.840286,7.919937 13.976679,8.030965 14.54445,7.943783 15.369826,7.773558 15.399155,7.687837 15.445646,7.681344 15.461679,7.63286 15.551724,7.393947 15.808632,7.630648 16.589208,7.52163 16.897279,7.461104 16.930808,7.376309 16.989636,7.37093 17.022832,7.29191 17.143898,7.027084 17.430645,7.330613 18.120171,7.267574 18.284847,7.245374 18.316144,7.181189 18.367917,7.182213 18.428522,7.076657 18.573702,6.829179 18.837678,7.170844 18.912966,7.160694 18.933059,7.193388 19.415579,7.202929 19.428917,7.181914 19.472024,7.186891 19.57198,7.055394 19.74533,6.826135" slic3r:type="contour"/>
    <polygon style="fill: white" points="36.267852,14.051625 36.533564,14.047955 36.564616,14.43054 36.684623,14.458227 36.791907,14.486838 36.598202,14.844359 36.610067,14.990557 36.595721,15.021334 36.638567,16.055619 37.219431,16.194061 37.769376,16.326146 37.6036,16.590886 37.325005,17.067306 37.753735,17.315179 38.378516,17.719522 38.337642,18.248667 38.485699,18.295435 38.600028,18.324452 38.305069,18.670334 38.287108,18.902869 38.242947,18.973223 38.192866,20.136642 38.898751,20.364088 39.337752,20.469377 39.07732,20.759584 38.610968,21.46058 37.882792,21.273658 37.445068,21.113202 37.722108,20.687109 38.170862,20.115015 37.472103,19.472591 36.803784,19.017812 36.7935,19.014408 36.783357,19.007756 36.725159,18.992412 36.716556,18.98908 36.728515,18.96961 36.705759,18.959298 36.892311,18.14422 36.940191,17.348418 36.399888,17.229728 35.876332,17.066144 36.11294,16.572721 36.408125,16.108629 35.794924,15.995221 35.288268,15.964302 35.31674,15.673648 35.311046,15.389302 35.26848,15.37882 34.798284,15.287233 34.890959,15.02455 35.243524,14.202905 35.279763,14.208413 35.270724,13.991101" slic3r:type="contour"/>
    <polygon style="fill: white" points="39.219325,22.594015 39.55776,22.699228 39.590187,22.75371 40.165871,22.884452 40.083944,22.974647 39.891546,23.260048 40.767456,24.731734 40.899159,25.517259 40.991227,25.54913 41.041996,25.557866 40.928067,25.689676 40.936988,25.742886 40.92768,25.756123 41.05784,26.224736 41.54575,28.424631 41.759023,28.514163 41.867979,28.538862 41.629031,28.800129 41.651152,28.899868 41.624336,28.935271 41.834979,29.588819 42.395877,31.860202 42.48434,31.908268 42.525132,31.921992 42.433394,32.012131 42.441944,32.046754 42.429495,32.061486 42.49084,32.23731 42.592556,32.642505 42.327296,34.042127 41.844033,35.006266 42.19232,35.246112 42.137995,35.375567 42.186955,35.408687 42.834416,35.72568 42.636487,35.893376 41.844092,36.734324 41.244787,36.427487 40.796124,36.0894 41.06804,35.783555 41.617875,35.295187 41.595308,35.226964 41.746189,35.038259 41.015893,32.715099 40.523027,32.424686 40.619611,32.307894 40.824825,32.107289 40.816068,32.07943 40.908666,31.951469 40.435668,30.258792 40.115126,29.258692 39.922804,29.168864 39.959892,29.120098 40.042056,29.030713 40.037964,29.017944 40.081958,28.950595 39.648919,27.110225 39.41419,26.337463 39.128152,26.224054 39.182932,26.147651 39.3108,25.997082 39.304288,25.975645 39.387272,25.841117 39.255904,25.001876 38.955561,23.792854 38.267448,23.542708 38.40164,23.346487 38.740144,22.925702 38.72652,22.870858 38.885992,22.608077 38.929807,22.549083 38.874696,22.17469" slic3r:type="contour"/>
    <polygon style="fill: white" points="41.825334,39.151695 42.553423,39.741599 42.811132,39.90288 42.20884,40.386566 42.248008,40.53534 42.203821,40.576132 42.480316,41.237352 42.6787,41.875096 42.25782,42.384152 41.561276,42.91386 40.860824,40.943292 40.73148,40.620456 41.012869,40.392049 40.980231,40.362648 40.998487,40.334876 40.815556,40.218983 40.761736,40.168884 41.362264,39.525495 41.739173,39.208074 41.8079,39.10352" slic3r:type="contour"/>
    <polygon style="fill: white" points="41.975024,44.040288 42.413852,44.39778 41.890524,44.789055 41.375784,45.231019 41.390039,45.281659 41.765983,46.252007 41.986716,46.896392 41.576536,47.159483 40.809472,47.492619 40.343571,46.215867 40.129716,45.66188 40.963724,45.257783 41.000968,45.238668 41.056436,45.195093 40.492503,44.731779 40.319532,44.54474 40.808168,44.108683 41.484252,43.579564" slic3r:type="contour"/>
    <polygon style="fill: white" points="41.09806,48.54186 41.469036,48.970272 40.786544,49.384347 40.532236,49.546841 40.749412,50.297504 40.876524,50.70408 40.247899,50.818304 39.658816,50.89872 39.215127,49.660131 39.141724,49.422036 39.714385,49.290024 39.4578,48.972484 39.34188,48.83176 39.911112,48.538515 40.639839,48.067484" slic3r:type="contour"/>
    <polygon style="fill: white" points="38.982988,52.19776 39.075879,52.552299 39.33426,53.563736 39.250804,53.526532 38.334357,53.454217 38.372951,53.780863 38.460019,54.507435 37.537798,54.957548 37.544896,55.302768 37.54732,55.427683 36.990129,55.22485 36.93774,55.25042 36.852608,55.225521 35.584404,55.709803 35.468752,56.610831 35.440852,56.93216 34.779111,56.577147 34.338464,56.34644 34.465008,55.116275 34.480372,54.999772 35.143227,55.331352 35.255927,54.77004 35.295676,54.41322 35.953275,54.181428 36.344953,54.029253 36.323392,53.661448 36.426852,53.673508 36.846184,53.822638 37.0379,53.738372 38.037357,53.2275 37.785236,52.091688 38.055427,52.0748" slic3r:type="contour"/>
    <polygon style="fill: white" points="32.944224,56.48466 33.406468,56.824255 33.225994,57.60354 33.1362,58.145796 32.749012,57.861184 32.101988,57.435488 32.267629,56.5365 32.363564,56.117299" slic3r:type="contour"/>
    <polygon style="fill: white" points="30.510506,57.319776 31.126412,57.835468 30.965448,58.381983 30.795842,59.133664 30.619704,58.978532 29.794514,58.345024 29.941896,57.738531 30.145846,57.046004" slic3r:type="contour"/>
    <polygon style="fill: white" points="28.208166,57.989188 28.924135,58.666117 28.941996,58.664484 28.968773,58.686639 28.976146,58.6932 28.873737,58.98834 28.778369,59.108217 28.536338,59.944236 28.510047,59.918071 28.289265,59.723016 27.99289,60.095556 26.448153,60.203016 26.346236,60.446051 26.31183,60.537732 26.029538,60.232137 25.986775,60.235112 25.97233,60.219998 24.892474,60.274432 24.418789,60.295167 24.183271,60.752144 24.103162,60.915212 23.64553,60.329015 23.592236,60.331348 23.575309,60.309755 22.391044,60.331056 22.381378,60.346484 22.34802,60.345875 22.011162,60.872131 21.895063,61.051244 21.443892,60.345951 21.408748,60.346484 21.397525,60.328526 20.217287,60.306984 20.197906,60.33134 20.153423,60.328993 19.80565,60.772695 19.686964,60.915216 19.3664,60.294458 19.355555,60.294299 19.351822,60.286698 18.50371,60.241948 17.823016,60.214993 17.803368,60.235084 17.769156,60.232241 17.55095,60.466695 17.478294,60.537728 17.334512,60.196121 16.926435,60.162207 15.797014,60.095515 15.686981,59.905872 15.524214,59.712021 15.253788,59.944264 15.239171,59.902927 14.984163,59.068836 14.916393,58.988124 14.817618,58.704815 14.81404,58.693068 14.848152,58.664387 14.866452,58.665786 15.195507,58.370707 15.790879,57.804672 15.866497,58.06372 16.112971,58.770816 17.405743,58.88101 17.416059,58.870724 17.418571,58.87085 17.869646,58.37594 17.922339,58.515687 18.085711,58.90421 18.929992,58.946428 19.703541,58.990947 19.897936,58.738256 19.9299,58.804624 20.028968,58.997617 21.440891,59.023116 21.79138,59.03051 21.895064,58.8666 21.919586,58.906844 21.998156,59.031232 23.341186,59.007639 23.758194,58.998728 23.89216,58.73826 23.937075,58.796987 24.089092,58.994641 24.992057,58.953564 25.694723,58.911437 25.920478,58.375944 26.024321,58.486375 26.396206,58.893611 26.534222,58.884648 27.660871,58.781628 27.686212,58.699175 27.999264,57.80466" slic3r:type="contour"/>
  </g></svg>