<svg width="43.790126" height="63.590156" xmlns="http://www.w3.org/2000/svg" xmlns:svg="http://www.w3.org/2000/svg" xmlns:xlink="http://www.w3.org/1999/xlink" xmlns:slic3r="http://slic3r.org/namespaces/slic3r"><g xmlns="http://www.w3.org/2000/svg" slic3r:z="5.34649999999998e-005" id="layer161">
    <polygon style="fill: white" points="22.439457,16.936627 22.594922,17.188644 21.981569,18.098566 22.915979,17.86249 23.214618,17.76613 22.970884,17.381388 22.854158,17.177091 23.408623,16.402998 23.554584,16.178678 24.112908,17.043308 24.231294,17.24519 24.62314,17.232909 25.187946,16.517157 25.310662,16.34872 25.798734,17.165601 26.324923,17.119312 26.91723,17.063586 27.193616,16.756551 27.245198,16.693617 27.415239,17.004333 27.598935,16.975156 28.045646,16.905308 27.628324,17.393704 27.698954,17.522764 27.379329,17.769726 27.174509,17.802276 26.685938,17.930408 26.659915,17.884054 25.514829,18.066029 25.499996,18.084488 25.332505,18.095004 25.08011,18.135114 25.066291,18.111718 23.742457,18.194834 23.567636,18.207569 23.566546,18.209064 23.545808,18.209159 23.497506,18.212678 23.495424,18.209391 21.90193,18.216713 21.901688,18.217074 21.891288,18.217035 21.888439,18.217074 21.888405,18.217024 20.37514,18.211316 20.294178,18.210143 20.292569,18.212732 20.228524,18.209191 20.223589,18.209119 20.223434,18.20891 19.076966,18.145532 18.72005,18.117842 18.710048,18.135118 18.45632,18.097382 18.290116,18.084488 18.279145,18.071032 17.928489,18.018879 17.127763,17.887438 17.104192,17.930402 16.82698,17.855078 16.639558,17.807297 16.410767,17.76974 16.265124,17.654121 16.091152,17.522764 16.158273,17.401147 15.905743,17.105453 15.744481,16.905308 16.376957,17.004916 16.506478,16.770236 16.544929,16.693617 16.877294,17.06274 17.7691,17.143032 18.001011,17.164396 18.378265,16.538833 18.479472,16.348716 19.06349,17.090096 19.168442,17.231852 19.560976,17.24465 20.101557,16.415172 20.235595,16.178669 20.773332,16.932352 20.93597,17.177076 20.579271,17.751241 21.538792,18.014284 21.701331,18.062706 21.742862,18.005592 21.312384,17.380234 21.1952,17.188645 21.750658,16.377796 21.895064,16.135963" slic3r:type="contour"/>
  </g></svg>