<svg width="43.790126" height="63.590156" xmlns="http://www.w3.org/2000/svg" xmlns:svg="http://www.w3.org/2000/svg" xmlns:xlink="http://www.w3.org/1999/xlink" xmlns:slic3r="http://slic3r.org/namespaces/slic3r"><g xmlns="http://www.w3.org/2000/svg" slic3r:z="9.95e-007" id="layer2">
    <polygon style="fill: white" points="21.923206,0.129219 21.971976,0.131917 23.300517,0.198006 23.3037,0.194188 23.333774,0.199661 23.359196,0.200926 23.361159,0.204645 23.412263,0.213945 24.730721,0.438957 24.73598,0.434106 24.77109,0.445847 24.796554,0.450193 24.798343,0.454961 24.852569,0.473094 26.142763,0.880597 26.14943,0.876131 26.18155,0.892848 26.204574,0.90012 26.205693,0.905413 26.253432,0.930259 27.55517,1.569998 27.57613,2.12404 27.648342,2.161218 27.622516,2.23497 28.131705,2.62037 28.18579,2.583586 28.288488,2.68932 28.79703,2.498919 29.913972,3.670599 29.955637,3.71341 29.959712,3.712415 29.981002,3.739473 29.993766,3.752589 29.992957,3.754668 31.059937,5.110705 31.126766,5.196377 31.132817,5.195408 32.321335,6.869312 32.396273,6.980477 32.402684,6.979786 33.803471,9.040839 33.856575,9.12637 33.862263,9.126117 35.242808,11.507839 35.261684,11.543673 34.961667,11.952377 35.131604,12.378674 35.629799,13.82855 35.77718,13.844053 35.787407,13.920578 36.273424,14.072869 36.278756,14.150749 36.672098,16.667699 36.672928,16.668305 36.672388,16.669552 36.672868,16.672622 36.668399,16.675648 35.978516,18.860134 36.0138,18.906948 35.943149,18.972121 35.91254,19.069046 35.806015,19.098624 34.969362,19.870416 34.728837,20.403467 34.795796,20.520776 34.633524,20.614698 34.413248,21.102874 34.188193,21.074621 33.343498,22.694592 33.224336,22.685933 32.883662,23.603058 32.959865,24.306085 33.132339,24.569725 33.408681,25.142248 33.431332,25.138315 33.866087,25.724279 34.122523,26.140664 34.216948,26.145618 34.837052,26.70995 34.690587,26.987036 34.734507,27.066125 35.139008,27.851625 35.217164,27.84724 35.242062,27.944662 35.839092,28.044216 36.307959,30.076537 36.315592,30.110917 36.317248,30.111514 36.317855,30.121111 36.321712,30.138484 36.319079,30.140461 36.456768,32.316334 36.461979,32.387471 36.464203,32.388625 36.463274,32.405156 36.465456,32.43493 36.461475,32.437163 36.340108,34.596483 36.334714,34.724455 36.33934,34.727532 36.33283,34.769133 36.331312,34.805171 36.326907,34.806992 36.016884,36.788479 35.989474,36.973146 35.998232,36.980396 35.975535,37.067056 35.971452,37.094571 35.968085,37.095503 35.532211,38.759812 35.47435,38.977803 35.487952,38.992032 35.433921,39.130114 35.4308,39.141876 35.429235,39.142092 34.896223,40.504288 34.798555,40.744942 34.816456,40.769311 34.715484,40.951197 34.119704,42.024407 33.973562,42.276845 33.993436,42.313616 33.82689,42.5302 33.214101,43.3271 33.013032,43.578654 33.030876,43.626872 32.800212,43.844909 32.192378,44.419471 31.933648,44.656387 31.94548,44.708064 31.655073,44.911474 31.651537,44.914712 31.650957,44.914357 31.065967,45.324104 30.750068,45.539497 30.755602,45.587168 30.419311,45.765022 30.406814,45.773543 30.40542,45.772369 29.842299,46.070188 29.474811,46.259593 29.475867,46.298956 29.097745,46.453935 29.087561,46.459184 29.086839,46.458405 28.528493,46.687252 28.11985,46.849316 28.118516,46.879676 27.678831,47.024221 27.127775,47.20538 26.690282,47.342259 26.687094,47.370176 26.291085,47.467158 26.267835,47.474432 26.266956,47.473067 25.650827,47.623956 25.199465,47.727595 25.194559,47.753296 24.867418,47.803838 24.775432,47.82496 24.771981,47.818583 24.12262,47.918907 23.666048,47.984235 23.659574,48.007711 23.403431,48.021811 23.243994,48.044624 23.237889,48.030923 22.568243,48.067784 22.109316,48.090954 22.101436,48.112191 21.904007,48.10132 21.688692,48.112192 21.68052,48.089014 21.01527,48.052384 20.553418,48.029063 20.546134,48.044624 20.393142,48.02097 20.130554,48.007712 20.123012,47.979207 19.486601,47.880815 19.020811,47.814154 19.014688,47.824968 18.89998,47.796861 18.595568,47.753296 18.589615,47.720814 17.991131,47.574171 17.526913,47.467541 17.52229,47.474432 17.441999,47.448036 17.103032,47.370176 17.099292,47.335372 16.537962,47.150836 16.086179,47.009432 16.083273,47.013107 16.035849,46.993679 15.671611,46.879675 15.670343,46.84394 15.131966,46.62338 14.706869,46.454726 14.702571,46.459183 14.655776,46.434455 14.314246,46.298956 14.316106,46.254961 13.772176,45.967528 13.388261,45.769567 13.383312,45.773544 13.347808,45.748708 13.034524,45.587167 13.041687,45.534578 12.474275,45.137676 12.143423,44.911927 12.138587,44.914712 12.115272,44.892719 11.844647,44.708064 11.859021,44.650991 11.259977,44.085899 10.991575,43.83985 10.987149,43.841451 10.972262,43.822145 10.759249,43.626872 10.780389,43.573323 10.16268,42.772272 9.960292,42.51866 9.956893,42.519244 9.947976,42.503227 9.796694,42.313656 9.819789,42.272974 9.218757,41.193383 9.078766,40.951141 9.075282,40.95116 9.067901,40.932341 8.973671,40.769283 8.993722,40.743196 8.450344,39.357663 8.363099,39.14239 8.359314,39.141848 8.352786,39.116942 8.302172,38.992056 8.31634,38.977882 7.869368,37.272471 7.822443,37.095632 7.818647,37.094572 7.813626,37.062405 7.791865,36.980396 7.79984,36.974073 7.481667,34.935464 7.462547,34.806719 7.458818,34.805176 7.456717,34.767459 7.450787,34.727528 7.454365,34.725236 7.33118,32.513709 7.327937,32.436759 7.32466,32.434912 7.326582,32.404628 7.325909,32.388643 7.327652,32.387772 7.467631,30.183139 7.470771,30.140253 7.468416,30.138454 7.47206,30.122646 7.472877,30.111488 7.474781,30.110844 7.947376,28.060687 7.951038,28.044214 8.498108,27.971705 8.541467,27.963606 8.572954,27.847204 8.673021,27.859429 8.70456,27.802513 9.11145,27.013827 8.953118,26.710004 9.353156,26.545321 9.462352,26.333662 9.596439,26.366339 10.358782,25.13831 10.447826,25.155809 10.842891,24.346208 10.910794,23.720937 10.758858,23.430913 10.487884,22.691895 10.446629,22.694591 9.935937,21.92893 9.574376,21.223939 9.469603,21.096927 9.376881,21.102902 9.182283,20.748621 8.994331,20.520776 9.026535,20.465071 8.956958,20.3384 8.663543,20.16951 7.89328,19.073388 7.877621,19.069065 7.842143,19.000617 7.776319,18.906945 7.786597,18.893453 7.726033,18.776606 7.118761,16.673615 7.117288,16.672621 7.117455,16.66909 7.11709,16.667828 7.516818,14.072836 8.004037,13.918352 8.012952,13.84405 8.206787,13.84389 8.226143,13.665819 8.267036,13.670044 8.851482,11.973999 8.528453,11.543701 9.848821,9.275552 9.89694,9.184578 9.927874,9.126094 9.936357,9.126765 11.250725,7.198999 11.387415,6.979811 11.396188,6.981004 12.532372,5.380415 12.610516,5.264717 12.610346,5.264368 12.613222,5.260711 12.657338,5.195396 12.66369,5.196548 13.751278,3.813812 13.797237,3.754907 13.796352,3.752567 13.811213,3.736994 13.830409,3.71239 13.833837,3.713285 14.96861,2.524113 14.993126,2.498916 15.495013,2.695802 15.604324,2.58358 15.653828,2.619532 16.163878,2.233451 16.141784,2.16123 16.213904,2.124162 16.234949,1.570209 16.289513,1.541792 17.584752,0.903768 17.585503,0.900226 17.605613,0.893492 17.640749,0.876185 17.646265,0.879881 17.694847,0.863615 18.992267,0.453658 18.993572,0.450193 19.016392,0.446035 19.054146,0.434106 19.05872,0.438323 19.112069,0.428604 20.429342,0.203924 20.430928,0.200925 20.454609,0.199614 20.486425,0.194188 20.489349,0.197692 20.53941,0.194922 21.867131,0.128906 21.868923,0.126218 21.893675,0.127586 21.921204,0.126218" slic3r:type="contour"/>
  </g></svg>