<svg width="43.790126" height="63.590156" xmlns="http://www.w3.org/2000/svg" xmlns:svg="http://www.w3.org/2000/svg" xmlns:xlink="http://www.w3.org/1999/xlink" xmlns:slic3r="http://slic3r.org/namespaces/slic3r"><g xmlns="http://www.w3.org/2000/svg" slic3r:z="1.6835e-005" id="layer50">
    <polygon style="fill: white" points="22.194441,1.677804 22.239874,1.741922 22.605879,1.767713 22.847523,1.513284 23.016554,1.336177 23.259319,1.811909 23.260011,1.811955 23.288207,1.866812 23.684354,1.944653 23.956485,1.728758 24.143272,1.585188 24.311667,2.074722 24.325478,2.114513 24.676114,2.221087 24.827826,2.265068 25.094579,2.105313 25.267922,2.00935 25.359462,2.447985 25.619863,2.548714 26.115537,2.724287 26.285808,2.64749 26.388352,2.60786 26.411215,2.835636 26.534268,2.889496 27.123044,3.113149 27.309242,3.361848 27.367397,3.427252 27.530286,3.383691 27.533344,3.457972 27.530066,3.718708 27.723407,4.119656 27.936288,4.468403 28.308914,4.387718 28.670424,4.341903 28.646898,4.738804 28.620497,4.939496 28.892044,5.048717 29.45648,5.170713 29.517548,5.399373 29.562004,5.49497 29.790815,5.484986 29.77704,5.633655 29.68245,6.08009 29.708082,6.250115 29.814848,6.591645 30.119556,6.655899 30.725696,6.57028 30.751911,6.719176 30.781602,6.790412 30.969484,6.787405 30.952254,6.901966 30.861196,7.219601 30.908502,7.655985 31.069019,8.310308 31.166898,8.322297 31.229363,8.278831 31.861858,7.87743 31.895411,8.179902 31.960909,8.419542 31.995014,8.42372 32.000064,8.449982 32.691122,8.554312 32.448782,8.901273 32.17817,9.342278 32.294933,9.866148 32.845558,9.248857 33.090854,8.998792 33.270512,9.730873 33.350174,10.078493 34.201456,10.186709 33.850151,10.547792 33.572775,10.854917 33.718012,11.408066 34.072445,11.445051 34.263836,11.155542 34.6039,10.701036 34.804667,11.336893 34.862362,11.54602 35.268856,11.578974 35.106052,11.74721 34.998444,11.869791 35.182912,12.297703 35.354772,12.778898 36.143204,12.795604 35.845483,13.115764 35.695774,13.315005 35.88908,13.689001 35.898311,13.689242 35.965237,13.774744 36.436664,13.787215 36.90206,13.775179 36.57048,14.141327 36.412147,14.40776 36.544349,14.624259 36.598199,14.626577 36.642409,14.688879 37.33848,14.719464 37.614672,14.716152 37.277827,15.080923 37.103102,15.402103 37.234981,15.634539 37.3204,15.644679 37.329004,15.66198 38.155648,15.754955 38.295908,15.764937 37.947624,16.128791 37.716624,16.510755 37.837137,16.811976 38.120723,16.875586 38.176092,16.80605 38.682388,16.549228 38.862656,17.008504 38.874714,17.043952 38.927156,17.056542 38.891172,17.092331 38.891759,17.094066 38.888015,17.09778 39.127196,18.34182 39.173649,18.609267 39.48556,18.71781 39.336207,18.84782 39.232083,18.945705 39.232151,18.946096 39.206082,18.969964 39.251096,19.6592 39.295673,20.354284 39.889912,20.611626 40.042731,20.677676 39.876898,20.803459 39.901309,20.872244 40.017696,20.868388 40.1046,20.894048 40.082331,22.06266 40.057165,22.636995 40.076068,22.646774 40.072103,22.712045 40.672936,23.090814 40.307048,23.295909 40.012331,23.524681 40.005072,23.580293 40.050288,23.60814 39.99584,23.651043 39.982947,23.74984 40.634151,23.816769 40.912508,24.034564 40.866736,24.957396 40.772925,25.448843 40.81692,25.481986 40.807453,25.578929 41.29554,25.966484 40.973136,26.138485 40.727991,26.352302 40.658651,26.59565 40.70262,26.655296 40.621272,26.726833 40.55964,26.943129 41.21002,27.226785 41.619424,27.85142 41.569336,28.406568 41.493092,28.656908 41.52476,28.68574 41.51685,28.749758 41.743999,28.922976 41.591132,29.021623 41.469775,29.130818 41.378584,29.868995 41.087891,30.729958 41.200328,30.836104 41.179749,30.990953 41.613851,31.381623 41.973716,31.64225 41.51556,31.92391 41.358748,32.060376 41.432692,32.314796 41.187396,32.515877 41.579739,33.395473 41.656108,33.776152 41.954128,34.049284 42.085572,34.141188 41.765779,34.322842 41.793932,34.46318 41.674704,34.555173 41.80592,35.12566 41.900975,36.319296 42.045552,36.456572 42.102552,36.495768 41.922298,36.587063 41.928744,36.668008 41.855185,36.721104 41.867288,37.187555 41.777967,38.554889 41.957771,38.735695 42.03056,38.788368 41.754937,38.907433 41.746104,39.042644 41.614726,39.130787 41.416823,40.349788 41.362438,40.601417 41.707368,40.977612 41.856616,41.09592 41.205936,41.32552 41.128704,41.68286 40.750027,41.915773 40.707668,42.040963 40.713568,41.837254 40.622159,41.744476 40.630347,41.466905 40.084512,40.978584 39.840092,40.644904 40.336876,40.327715 40.667448,40.209023 40.694461,39.293173 40.581048,39.18586 40.590244,39.008817 40.194344,38.679636 40.006587,38.447532 40.559187,38.045912 40.64212,38.010172 40.697226,36.949339 40.573364,36.836848 40.586188,36.701334 40.246736,36.434932 40.0731,36.236696 40.601987,35.80136 40.674874,35.764199 40.772719,34.730274 40.643668,34.612612 40.66293,34.475712 40.27508,34.184016 40.047696,33.936088 40.453056,33.557784 40.823491,33.334567 40.934352,32.546655 40.789416,32.402016 40.817874,32.245501 40.291908,31.859544 39.92058,31.446809 40.095851,31.257552 40.462216,31.010407 40.427492,30.961408 40.643293,30.721443 40.337924,30.394032 39.795812,30.017622 40.04132,29.095324 39.959608,28.996816 39.970399,28.950502 39.7942,28.823421 39.611028,28.630316 39.944288,28.231008 40.180919,28.046921 40.393793,27.133247 39.631183,26.778147 39.264415,26.667058 39.441473,25.987981 39.381883,25.92612 39.385525,25.903634 39.2284,25.806356 38.996068,25.618422 39.2709,25.321766 39.513079,25.116008 39.628462,24.403535 39.201407,24.365589 38.6615,24.301234 38.807961,23.289563 38.596819,23.19314 38.259164,23.02378 38.460416,22.845819 38.813161,22.542362 38.82731,22.30797 38.701971,22.314576 38.038748,22.260394 38.079934,21.110855 37.941868,21.058794 37.660439,20.948032 38.027587,20.6344 38.070743,20.595847 38.007601,19.461533 37.927484,19.437354 37.254792,19.336604 37.171664,19.322801 37.165099,19.196779 37.13172,19.184926 37.15964,19.158391 37.144204,19.083244 36.900138,17.802306 36.795892,17.785952 36.59478,17.745812 36.796013,17.506124 36.630247,17.099115 36.493476,16.770569 36.48636,16.769908 36.45222,16.709617 36.270064,16.706818 35.958424,16.685637 36.21043,16.282597 35.953224,15.828353 35.874588,15.824261 35.834166,15.758175 35.604223,15.768712 35.210676,15.76029 35.46542,15.276916 35.502272,15.215556 35.310198,14.901534 35.183532,14.893894 35.151448,14.833057 34.852747,14.839653 34.351596,14.819832 34.549347,14.460728 34.775776,14.120706 34.645755,13.87416 34.504776,13.861536 34.488528,13.81798 34.075883,13.794492 33.390954,13.738718 33.433361,13.676798 34.118377,12.825732 34.045482,12.630323 33.953788,12.6203 33.944431,12.587885 33.815416,12.57426 33.521834,12.98735 33.270966,13.582035 32.851303,12.471402 32.814484,12.467439 32.811448,12.456294 32.667106,12.439426 32.381518,12.409394 32.692396,12.019329 32.443581,11.106077 32.397003,11.100368 32.393071,11.083538 32.031772,11.034536 31.660529,10.99057 31.526088,11.106257 31.437728,11.193803 31.378125,10.957124 31.373391,10.956563 31.373065,10.955078 31.26296,10.940256 31.34575,10.83096 31.050665,9.490131 30.807759,9.464268 30.142818,9.384285 30.199582,9.289079 30.073846,9.29978 29.717338,7.97322 29.612975,7.972369 29.218482,7.955916 29.352292,7.644059 29.455637,7.412081 28.869218,7.151883 28.372401,6.934768 28.322431,6.788402 28.26895,6.791495 28.295752,6.704134 27.968413,6.033745 27.803125,5.69577 27.616785,5.734686 27.315264,5.79778 27.378559,5.421432 27.419416,5.145356 26.832784,4.838702 26.822205,4.842094 26.790941,4.828083 26.341908,4.985599 26.351172,4.795723 26.354954,4.632692 25.859903,4.410831 25.545297,4.26646 25.542688,4.267669 25.537518,4.265512 25.373486,4.344146 25.367171,4.268503 25.360337,4.191572 24.573845,3.863358 24.505704,3.835307 24.457906,3.865292 24.451884,3.840131 24.44631,3.813014 23.641312,3.530652 23.610086,3.520455 23.585302,3.540979 23.572895,3.509738 22.814189,3.329562 22.770555,3.320345 22.737284,3.357129 22.712294,3.311505 21.989637,3.249688 21.931752,3.245308 21.895064,3.300046 21.876156,3.272947 21.858006,3.246077 21.121504,3.308786 21.07458,3.312339 21.052844,3.35713 21.021906,3.321268 20.244566,3.504939 20.214604,3.511263 20.204826,3.540988 20.182434,3.520518 19.389508,3.799654 19.342139,3.815074 19.33222,3.865293 19.311511,3.850992 19.286395,3.834911 18.561559,4.138602 18.430324,4.192537 18.41667,4.344142 18.34507,4.308771 18.254228,4.264907 18.247506,4.267669 18.241084,4.264673 17.742649,4.484014 17.442103,4.622942 17.448227,4.985611 17.244576,4.916843 16.99427,4.829955 16.967972,4.842111 16.941492,4.833606 16.375086,5.133555 16.424591,5.445186 16.474865,5.797796 16.03601,5.706197 15.989148,5.696401 15.810123,6.064533 15.494646,6.704295 15.508438,6.749431 15.521183,6.791489 15.468875,6.787631 15.453581,6.8337 15.41767,6.934846 14.821082,7.214878 14.333053,7.423853 14.395166,7.566715 14.571644,7.955916 14.09083,7.959044 13.979508,8.398086 13.716316,9.299731 13.593771,9.307467 13.647276,9.38432 13.509561,9.399369 12.76105,9.483225 12.641304,10.080989 12.446512,10.840465 12.475719,10.878811 12.527165,10.940253 12.416777,10.956399 12.416735,10.956564 12.413715,10.956955 12.39676,11.027863 12.352389,11.193811 12.118569,10.99521 11.395942,11.088873 11.393054,11.10037 11.354204,11.105376 11.187095,11.73253 11.094717,12.053456 11.222894,12.21459 11.408627,12.409379 10.978136,12.458465 10.97555,12.467449 10.946962,12.470489 10.863027,12.705169 10.519085,13.582158 10.415584,13.434558 9.934493,12.578165 9.846172,12.587558 9.836388,12.620189 9.749995,12.628967 9.667804,12.853337 9.972772,13.302032 10.399212,13.73869 10.196319,13.75127 9.305717,13.810471 9.285355,13.861515 9.165422,13.869991 9.000449,14.187604 9.158534,14.47324 9.438584,14.819812 8.654646,14.810466 8.606611,14.893894 8.516382,14.896074 8.282298,15.283608 8.37561,15.458624 8.57947,15.76026 7.974832,15.737426 7.915519,15.824246 7.86971,15.825011 7.655378,16.20687 7.589487,16.312387 7.663422,16.430162 7.831717,16.685635 7.350551,16.695014 7.29903,16.777517 7.155394,17.131281 6.999582,17.502828 7.064667,17.580817 7.195346,17.74581 6.885151,17.795148 6.817873,18.115996 6.629908,19.155833 6.658406,19.184925 6.624239,19.195737 6.621671,19.231017 6.618467,19.32279 5.913185,19.422538 5.884995,19.42715 5.771102,19.462148 5.720336,20.283313 5.709975,20.570581 5.889266,20.725306 6.129677,20.94805 5.706843,21.10786 5.717759,21.469046 5.751347,22.260444 5.446198,22.231706 4.974317,22.258767 4.98568,22.41885 4.991552,22.561481 5.21434,22.756721 5.530942,23.023836 4.99211,23.272019 5.053728,23.657503 5.128642,24.301194 4.716353,24.333846 4.184058,24.394338 4.293312,24.947612 4.324493,25.213027 4.542374,25.426753 4.794036,25.61848 4.401512,25.868638 4.408268,25.926136 4.3636,25.962866 4.44453,26.243081 4.525711,26.667052 4.006758,26.946164 3.413351,27.141191 3.666793,28.001213 3.703708,28.22567 3.957577,28.483807 4.179104,28.630314 3.814256,28.897868 3.830527,28.996803 3.773913,29.049332 3.878829,29.38108 3.994316,30.017624 3.668592,30.474735 3.200873,30.804316 3.362649,30.961392 3.299437,31.088235 3.411585,31.191508 3.869541,31.446774 3.581563,31.651066 2.979891,32.205163 3.000704,32.401992 2.865073,32.517374 3.02157,33.427601 3.470189,33.798612 3.742424,33.936088 3.187049,34.339324 3.130499,34.392447 3.146473,34.612608 3.05912,34.68505 3.182639,35.79978 3.186334,35.912098 3.511989,36.152624 3.717039,36.236652 3.209597,36.619226 3.216758,36.836932 3.146378,36.896508 3.216082,38.148834 3.558595,38.373776 3.783546,38.447596 3.210803,38.902081 3.209152,39.18588 3.13641,39.250772 3.160541,40.286613 3.644736,40.567292 3.950048,40.644928 3.48613,41.039376 3.176169,41.407478 3.167956,41.744364 3.079231,41.829454 3.082495,42.040964 3.045439,41.917162 2.934929,41.855007 2.661215,41.682732 2.623024,41.42073 2.08327,41.193068 1.93351,41.095892 2.432195,40.481367 2.480293,40.441544 2.359833,39.615152 2.242968,39.179805 2.043971,39.042636 2.045502,38.947124 1.826504,38.837847 1.759552,38.788428 2.05343,38.453108 2.062764,37.871323 1.97466,36.752623 1.861412,36.66798 1.871516,36.612506 1.73497,36.534595 1.687575,36.495708 1.943196,36.218979 2.106029,35.325019 2.188758,34.617953 1.996224,34.463168 2.027128,34.37107 1.800778,34.227684 1.704554,34.141188 2.249421,33.571843 2.309968,33.52816 2.638051,32.550419 2.592032,32.51529 2.357415,32.314742 2.441897,32.134868 2.042109,31.861127 1.816426,31.642194 2.211933,31.234786 2.614626,30.938942 2.589802,30.836106 2.728127,30.684701 2.404156,29.285193 2.046125,28.922934 2.175607,28.790952 2.272694,28.717295 2.265375,28.685678 2.33659,28.610585 2.170714,27.851382 2.503504,27.749866 3.25931,26.978228 3.222977,26.788213 3.087519,26.655318 3.18134,26.570454 3.169314,26.507564 2.781343,26.250562 2.494606,25.966484 2.799943,25.667689 2.982036,25.528111 2.973217,25.481986 3.062321,25.408206 2.877625,24.0345 3.397975,24.075564 3.83578,23.840587 3.819012,23.676117 3.739804,23.608144 3.803047,23.581189 3.342844,23.275768 3.117168,23.090842 3.500849,22.821385 3.718191,22.687135 3.714077,22.646776 3.741731,22.632108 3.685555,20.893984 3.934477,20.925958 3.964152,20.856642 3.813444,20.734461 3.747419,20.677614 4.217062,20.473384 4.495116,20.353315 4.516348,20.025799 4.583631,18.981284 4.304559,18.717812 4.492439,18.653807 4.621083,18.608982 4.885494,17.195958 4.902197,17.101619 4.862968,17.056571 4.918005,17.0429 5.107633,16.549452 5.205355,16.815074 5.373562,16.927668 5.46035,16.90551 5.992361,16.796885 6.081824,16.580942 5.549115,15.856711 5.494216,15.76491 6.083251,15.658372 6.529557,15.630156 6.617205,15.608888 6.685244,15.492591 6.269343,14.890304 6.175456,14.716155 6.783859,14.634371 7.181075,14.645079 7.191909,14.62656 7.31207,14.605174 7.378756,14.49982 7.040436,14.032379 6.888068,13.775185 7.488464,13.705193 7.870564,13.722822 7.891807,13.68926 7.957433,13.679588 8.111738,13.393723 7.957479,13.208228 7.646943,12.795604 8.153211,12.732695 8.468754,12.732312 8.483498,12.704995 8.497478,12.702937 8.540591,12.596295 8.801324,11.897456 8.521247,11.578975 8.782451,11.543794 8.939365,11.533216 9.186248,10.701008 9.419261,11.109626 9.65933,11.427479 10.083121,11.396108 10.225359,10.87584 9.796674,10.417242 9.588694,10.186682 10.153789,10.092839 10.449517,10.059298 10.699264,8.998792 11.06536,9.44152 11.487673,9.873095 11.600519,9.341097 11.246842,8.801347 11.099004,8.554312 11.549104,8.473446 11.791789,8.439387 11.795111,8.423729 11.801711,8.423333 11.928269,7.87743 12.159962,8.043579 12.599144,8.326076 12.676654,8.315198 12.917352,7.096537 12.901432,7.04743 12.905946,7.034215 12.820629,6.787428 12.888828,6.812681 12.981292,6.813693 13.064461,6.570273 13.571644,6.49165 13.94398,6.477851 14.089089,5.91811 14.070458,5.833891 14.087772,5.790258 13.999322,5.48496 14.090246,5.509854 14.196017,5.517476 14.333615,5.170724 15.191576,4.874798 15.168995,4.612019 15.119702,4.341919 15.392494,4.417869 15.795303,4.482767 16.263649,3.66705 16.262917,3.607028 16.270072,3.598286 16.259844,3.38369 16.312829,3.405361 16.405052,3.433347 16.6671,3.113142 17.384508,2.823952 17.395354,2.707426 17.401748,2.60788 17.639581,2.72113 17.652872,2.715773 17.663224,2.720364 17.932969,2.61694 18.436022,2.43419 18.485637,2.193977 18.522182,2.009343 18.925161,2.256493 18.933147,2.253592 18.947855,2.262518 19.334662,2.145216 19.465994,2.106861 19.570777,1.803082 19.646856,1.585186 20.033377,1.894383 20.096166,1.943388 20.502195,1.863629 20.661375,1.552608 20.773573,1.336192 21.120576,1.701993 21.181541,1.766023 21.552684,1.739868 21.754585,1.455679 21.895064,1.256901" slic3r:type="contour"/>
    <polygon style="fill: white" points="41.295116,43.228044 41.560336,43.470271 41.007835,43.609752 40.433144,43.905195 39.878548,43.365016 39.557196,42.867912 39.933207,42.661908 40.661112,42.45436" slic3r:type="contour"/>
    <polygon style="fill: white" points="40.775532,45.4882 41.120208,45.864668 40.6463,45.929404 39.95992,46.219011 39.50782,45.731443 39.14246,45.076408 39.400444,44.957739 40.272176,44.771499" slic3r:type="contour"/>
    <polygon style="fill: white" points="39.890568,46.891999 39.878299,46.926788 39.79402,47.111053 40.192127,47.797627 40.52704,48.241476 40.062939,48.263072 39.338252,48.491812 38.942484,47.977303 38.596472,47.23886 38.798748,47.168828 39.804217,47.043869 39.821448,46.886632 39.869019,46.871304 39.879004,46.87054" slic3r:type="contour"/>
    <polygon style="fill: white" points="39.213416,49.07668 39.227464,49.10838 39.205476,49.152063 39.124048,49.287537 39.478191,50.062507 39.749184,50.522256 39.259716,50.494036 38.532999,50.627119 38.190179,50.053751 37.896919,49.280376 38.07956,49.246048 39.091713,49.233091 39.111736,49.091479 39.197723,49.076476" slic3r:type="contour"/>
    <polygon style="fill: white" points="38.253224,51.24846 38.554184,52.155568 38.746652,52.60762 38.241631,52.509144 37.517088,52.528936 37.240316,51.910136 37.017084,51.1335 37.196219,51.132096" slic3r:type="contour"/>
    <polygon style="fill: white" points="36.119279,52.813847 37.16246,53.072748 37.358275,54.047323 37.467024,54.467072 36.944292,54.295412 36.245024,54.192688 36.054707,53.521611 35.920012,52.776696" slic3r:type="contour"/>
    <polygon style="fill: white" points="34.793255,54.289567 35.754944,54.668636 35.832051,55.713883 35.871512,56.070384 35.321032,55.819528 34.68028,55.6095 34.592516,54.879816 34.549232,54.20048" slic3r:type="contour"/>
    <polygon style="fill: white" points="33.244322,55.571128 34.09588,56.025192 34.051343,57.125996 34.047096,57.411464 33.477899,57.079308 32.909334,56.799816 32.92062,56.023235 32.948904,55.417544" slic3r:type="contour"/>
    <polygon style="fill: white" points="31.520118,56.64354 32.263834,57.144696 32.09834,58.275623 32.070078,58.502528 31.499014,58.09212 30.997734,57.768004 31.102148,56.964347 31.185229,56.421887" slic3r:type="contour"/>
    <polygon style="fill: white" points="29.683323,57.490763 30.34038,58.03286 30.062535,59.1586 30.018892,59.354248 29.468915,58.877703 29.017582,58.51614 29.20353,57.713407 29.333632,57.211376" slic3r:type="contour"/>
    <polygon style="fill: white" points="27.80246,58.097204 28.407586,58.6966 28.037799,59.77256 27.972438,59.975164 27.471694,59.454092 27.046432,59.044968 27.296069,58.278456 27.475926,57.786012" slic3r:type="contour"/>
    <polygon style="fill: white" points="25.901678,58.489616 26.471304,59.157964 26.03031,60.163375 25.934384,60.3894 25.490152,59.841892 25.085554,59.378224 25.38787,58.662503 25.618242,58.1681" slic3r:type="contour"/>
    <polygon style="fill: white" points="23.99677,58.700112 24.534066,59.436316 24.038817,60.371748 23.908376,60.619228 23.51597,60.054924 23.135631,59.539387 23.482875,58.874432 23.759236,58.379796" slic3r:type="contour"/>
    <polygon style="fill: white" points="3.799289,42.787596 4.232925,42.867924 3.913818,43.16254 3.356983,43.905196 2.518368,43.631196 2.229787,43.470288 2.622966,42.931196 3.129062,42.454395" slic3r:type="contour"/>
    <polygon style="fill: white" points="4.093068,45.009428 4.647658,45.07642 4.443812,45.28572 3.830276,46.219052 3.077413,46.0532 2.669952,45.864692 2.973087,45.378087 3.517936,44.771556" slic3r:type="contour"/>
    <polygon style="fill: white" points="3.968576,46.886596 4.019942,47.0034 4.008981,47.042616 4.580724,47.217688 5.193652,47.238836 5.047246,47.423495 4.451978,48.491804 3.700369,48.39488 3.263098,48.241512 3.516145,47.740372 3.99226,47.102574 3.899569,46.891956 3.906083,46.877547 3.911114,46.870532" slic3r:type="contour"/>
    <polygon style="fill: white" points="4.678392,49.09148 4.756565,49.243474 5.25086,49.322468 5.893208,49.280376 5.780291,49.466564 5.257165,50.627112 4.461482,50.610652 4.04094,50.522264 4.25634,49.973071 4.663229,49.28028 4.562664,49.10838 4.570266,49.087775 4.576715,49.07668" slic3r:type="contour"/>
    <polygon style="fill: white" points="6.685807,51.326584 6.273033,52.528932 5.443599,52.626096 5.043465,52.60764 5.209916,52.016079 5.536884,51.24848 6.112979,51.243376 6.77304,51.13352" slic3r:type="contour"/>
    <polygon style="fill: white" points="7.804439,53.005919 7.545067,54.192708 6.688152,54.417504 6.323079,54.46706 6.428398,53.840711 6.627734,53.072752 7.220197,52.957607 7.870117,52.776692" slic3r:type="contour"/>
    <polygon style="fill: white" points="9.204357,54.500003 9.109859,55.609472 8.222625,55.972675 7.918605,56.070388 7.954199,55.401743 8.035336,54.66854 8.64659,54.44328 9.240905,54.200488" slic3r:type="contour"/>
    <polygon style="fill: white" points="10.846224,55.794523 10.880828,56.79968 9.979585,57.296184 9.743037,57.411464 9.704571,56.704596 9.694216,56.025192 10.321667,55.698011 10.841206,55.417552" slic3r:type="contour"/>
    <polygon style="fill: white" points="12.661093,56.858296 12.792397,57.768043 11.901538,58.385763 11.720027,58.502539 11.604549,57.769716 11.526334,57.144708 12.158822,56.725252 12.604906,56.421896" slic3r:type="contour"/>
    <polygon style="fill: white" points="14.5622,57.670803 14.772516,58.516168 13.922311,59.233651 13.771235,59.354244 13.580585,58.616971 13.449747,58.03286 14.068911,57.536444 14.456492,57.211364" slic3r:type="contour"/>
    <polygon style="fill: white" points="16.454879,58.221483 16.743696,59.044968 15.968655,59.830392 15.817693,59.975176 15.56681,59.266264 15.382488,58.696688 15.95778,58.146196 16.3142,57.786016" slic3r:type="contour"/>
    <polygon style="fill: white" points="18.336445,58.560611 18.704601,59.37824 18.016649,60.205432 17.855716,60.389396 17.55997,59.72524 17.318824,59.1579 17.832978,58.572739 18.171898,58.168092" slic3r:type="contour"/>
    <polygon style="fill: white" points="20.212515,58.729499 20.654494,59.539428 20.048319,60.3939 19.881752,60.619248 19.553968,60.001308 19.25605,59.4362 19.705554,58.829111 20.03087,58.379812" slic3r:type="contour"/>
    <polygon style="fill: white" points="22.096022,58.76504 22.595878,59.552136 22.053715,60.435812 21.89507,60.688052 21.541642,60.10514 21.194248,59.552267 21.585829,58.925688 21.895064,58.442912" slic3r:type="contour"/>
  </g></svg>