<svg width="43.790126" height="63.590156" xmlns="http://www.w3.org/2000/svg" xmlns:svg="http://www.w3.org/2000/svg" xmlns:xlink="http://www.w3.org/1999/xlink" xmlns:slic3r="http://slic3r.org/namespaces/slic3r"><g xmlns="http://www.w3.org/2000/svg" slic3r:z="5.41249999999998e-005" id="layer163">
    <polygon style="fill: white" points="22.091429,16.833363 22.330021,16.833216 23.433352,16.829369 23.572405,16.635236 23.60513,16.584943 23.759481,16.823973 23.933468,16.818519 25.408569,16.761863 25.41515,16.752834 25.420146,16.761196 25.447723,16.758601 25.427934,16.774231 25.42962,16.777051 25.419636,16.780784 25.349464,16.836208 25.328213,16.814966 24.059883,17.289179 24.10437,17.358072 23.808326,17.383234 23.25223,17.591152 22.946,17.61346 22.917761,17.568883 22.911502,17.55793 22.986606,17.453076 22.538676,17.491147 22.591515,17.568861 22.59335,17.571836 22.585172,17.583968 22.56716,17.5839 22.296287,17.579976 21.903541,17.545131 21.493505,17.579982 21.204954,17.583968 21.198158,17.574096 21.196776,17.571836 21.254515,17.487548 20.8003,17.44725 20.869904,17.544806 20.878626,17.557928 20.844124,17.613462 20.77894,17.60986 20.537931,17.591161 20.002717,17.378591 19.685627,17.358172 19.740256,17.274349 19.247124,17.078492 18.464544,16.812422 18.440662,16.836216 18.370345,16.780395 18.360509,16.777052 18.362489,16.773769 18.342404,16.758601 18.370529,16.761192 18.374978,16.752834 18.382032,16.761789 20.03429,16.823177 20.155005,16.63795 20.185054,16.584932 20.359087,16.828853 20.581558,16.829016 21.703018,16.83283 21.85818,16.606328 21.895064,16.544558" slic3r:type="contour"/>
  </g></svg>