<svg width="43.790126" height="63.590156" xmlns="http://www.w3.org/2000/svg" xmlns:svg="http://www.w3.org/2000/svg" xmlns:xlink="http://www.w3.org/1999/xlink" xmlns:slic3r="http://slic3r.org/namespaces/slic3r"><g xmlns="http://www.w3.org/2000/svg" slic3r:z="3.23449999999999e-005" id="layer97">
    <polygon style="fill: white" points="32.640889,58.998143 33.293638,59.448452 33.149944,60.015511 33.01766,60.690828 32.770804,60.508956 31.986184,59.98992 32.113226,59.408864 32.290462,58.785499" slic3r:type="contour"/>
    <polygon style="fill: white" points="34.952911,58.109327 35.472356,58.411227 35.333232,59.180463 35.271464,59.671735 34.844491,59.407687 34.203928,59.0521 34.322488,58.239867 34.406391,57.832267" slic3r:type="contour"/>
    <polygon style="fill: white" points="40.411312,54.622196 40.645832,55.377792 40.464972,55.377716 39.776575,55.379037 39.78004,55.465543 39.74325,55.464679 39.695996,55.868691 39.582684,56.695068 39.211962,56.895978 39.223891,57.035667 39.2312,57.09138 38.969843,57.027192 38.918708,57.054904 38.843014,57.03882 37.438709,57.521008 37.3879,58.200575 37.381084,58.48358 36.73402,58.186116 36.262264,57.991956 36.307116,56.918319 36.32164,56.759868 36.985468,57.009223 37.149716,56.521812 37.280324,56.044812 37.66524,55.933764 37.928721,55.834968 37.89714,55.537572 37.98646,55.55394 38.387794,55.648532 38.550939,55.565908 39.342712,55.101569 39.28108,54.916048 39.038908,54.116912 39.364752,54.10842 40.258543,54.10804" slic3r:type="contour"/>
    <polygon style="fill: white" points="41.45182,52.9897 41.667607,53.432552 41.228544,53.531059 40.47068,53.692839 40.088904,52.944916 39.873328,52.518196 40.480051,52.383124 41.085544,52.245048" slic3r:type="contour"/>
    <polygon style="fill: white" points="42.327836,50.614612 42.47478,50.85696 42.22974,51.045635 42.331167,51.195647 42.383612,51.277708 41.655267,51.579712 41.535296,51.634544 41.10564,51.985464 40.816688,51.3708 40.591053,50.827239 40.49284,50.678788 40.484532,50.665756 40.514638,50.653536 40.494672,50.618588 41.089239,50.12294 41.694468,49.616016" slic3r:type="contour"/>
    <polygon style="fill: white" points="43.195599,42.123935 43.572936,42.48896 43.001488,42.901735 42.648015,43.214116 42.710268,43.354172 42.664086,43.394761 43.131268,44.063908 43.398268,44.521672 43.030568,44.911731 42.334387,45.552138 42.425948,45.659332 42.356742,45.720914 42.726964,46.164164 43.158644,46.667876 42.607023,47.071356 42.21283,47.389796 42.246652,47.452068 42.227355,47.468364 42.666868,48.07666 42.913176,48.455532 42.500287,48.7472 41.774036,49.267572 41.301119,48.536819 40.964608,48.02614 41.59094,47.630799 41.91612,47.39891 41.415359,46.840079 41.172236,46.510788 41.547099,46.190436 42.241963,45.651466 42.232544,45.63732 42.285431,45.593219 41.848167,44.843667 41.429212,44.204968 42.04264,43.672943 42.382131,43.332202 42.374212,43.32218 42.42254,43.260741 41.81774,42.710852 41.582908,42.418016 42.006208,42.014411 42.636612,41.517291" slic3r:type="contour"/>
    <polygon style="fill: white" points="43.146336,37.506943 43.282609,37.851643 43.672468,38.23276 43.770736,38.309292 43.534454,38.488675 43.562188,38.558828 43.534088,38.586219 43.670688,38.790648 43.75572,38.968807 43.222879,39.869032 42.698892,40.511792 41.888596,38.9593 41.77218,38.7738 41.959963,38.54124 41.938968,38.517556 41.950427,38.494848 41.82876,38.403444 41.781884,38.350524 42.346697,37.70955 42.766776,36.877072" slic3r:type="contour"/>
    <polygon style="fill: white" points="42.861344,33.488429 42.801045,33.675656 43.075647,33.908911 43.661599,34.280736 43.34274,34.541463 42.716912,35.25134 42.106824,34.875332 41.678988,34.450692 41.916,34.1426 42.505806,33.613016 42.45486,33.52279 42.568464,33.3608 42.634195,33.299901" slic3r:type="contour"/>
    <polygon style="fill: white" points="41.693905,26.880385 42.352747,27.244283 42.631852,27.348134 42.171001,27.826648 42.288976,28.108419 42.171184,28.289996 42.62486,28.983216 43.281999,30.579367 43.297676,30.590334 43.304012,30.593559 43.292132,30.604343 43.31164,30.650345 43.042963,32.202222 42.613276,33.233932 41.36041,30.927145 41.33966,30.909822 41.349029,30.895738 41.331604,30.86456 41.35286,30.711257 41.612723,28.41846 41.432544,28.302222 41.422195,28.173918 40.924567,28.002821 40.710295,27.851102 41.021755,27.216692 41.317173,26.871853 41.260052,26.163654" slic3r:type="contour"/>
    <polygon style="fill: white" points="41.396323,24.602949 41.796691,24.691112 41.423163,25.148738 41.236716,25.497893 41.375528,25.832934 41.274456,26.018482 41.214363,26.006229 41.05402,25.930018 41.003209,25.728391 40.254863,25.565108 39.935996,25.388476 40.156388,24.837731 40.57582,24.269804" slic3r:type="contour"/>
    <polygon style="fill: white" points="22.118446,3.373186 22.15069,3.373436 22.152504,3.377299 22.277205,3.378239 22.28531,3.363886 22.332168,3.36594 22.420484,3.216359 22.584523,2.95151 22.781505,3.375627 22.811703,3.375384 22.816597,3.387172 22.953634,3.393178 23.035597,3.395121 23.061994,3.366766 23.126637,3.373975 23.22337,3.257976 23.384804,3.094922 23.480149,3.405656 23.487102,3.405821 23.489373,3.414427 23.545485,3.420685 24.102714,3.477544 24.033582,3.579201 24.081242,3.636941 24.242802,3.567395 24.261998,3.768832 24.318799,4.575281 24.49714,4.630073 24.836878,4.562293 25.027298,4.575287 25.006428,4.787357 25.133206,4.818477 24.985642,4.998583 24.957416,5.285407 24.933301,5.322671 24.897239,5.806539 25.572258,6.057288 25.686528,6.076438 25.713517,6.086385 25.708952,6.108488 25.722276,6.111699 25.704845,6.12837 25.699406,6.154701 25.696275,6.159448 25.663839,6.586606 25.629131,7.008577 25.780596,7.052796 26.061672,7.144629 25.78335,7.444693 25.599513,7.694459 25.991238,7.7595 26.28751,7.867071 26.115961,8.220378 26.041055,8.335826 26.414977,8.341471 26.529574,8.371779 26.495267,8.519013 26.635888,8.510959 26.619792,8.700757 26.651374,8.77528 26.891872,8.740066 26.89461,8.959383 26.877469,9.105845 27.20099,8.961688 27.248512,8.942043 27.30078,9.183176 27.386913,9.36761 27.558345,9.248411 27.71383,9.148364 27.801211,9.48523 27.894236,9.906696 27.957906,9.927277 28.349801,9.623443 28.593078,9.445128 28.69643,9.761194 28.838557,10.211941 28.863302,10.219939 28.884492,10.276866 28.996766,10.315489 29.433372,9.978576 29.700686,9.785718 29.815341,10.117336 29.988424,10.656625 30.009703,10.663945 30.045101,10.759028 30.659649,10.320365 30.888746,10.175366 31.022626,10.580416 31.129495,10.964719 31.387056,10.982718 31.490806,10.921158 31.49746,10.920375 31.868287,10.662718 31.965524,10.607869 32.049234,10.855519 32.129164,10.846125 32.326218,10.759153 32.578787,11.00745 32.626946,11.041109 32.800768,10.925927 32.881016,11.06878 32.947601,11.295115 33.013084,11.444001 33.318813,11.052965 33.319197,11.052906 33.319278,11.052834 33.319324,11.052886 33.319571,11.052848 33.319763,11.053381 33.536532,11.297552 33.604112,11.2657 33.560508,10.986378 33.646664,11.111589 33.759546,11.154635 33.900448,10.832039 33.980505,10.868906 33.961432,10.780439 34.3093,11.012661 34.408474,11.033019 34.545292,10.680905 34.590004,10.398798 34.819588,10.591281 35.12414,10.738876 35.169155,10.683381 35.4904,10.229501 35.587404,10.364773 35.829051,10.637958 35.898564,10.619368 36.105418,10.565534 36.313808,10.460941 36.317058,10.461389 36.411936,10.401544 36.420491,10.425809 36.440294,10.478363 36.577987,10.497327 36.849131,10.926404 37.097712,10.885562 37.19788,10.880139 37.126878,11.365933 37.232182,11.532573 37.59486,11.582267 37.78364,11.630517 37.479493,12.252188 37.859703,12.405004 38.085287,12.515972 37.623351,13.071487 37.966443,13.264196 38.214575,13.415397 37.744472,13.854055 37.627199,13.950985 37.988323,14.172819 38.284616,14.346909 37.853344,14.716921 37.586847,14.929444 37.961407,15.148311 38.366248,15.328936 38.056883,15.598663 37.652384,15.970712 37.823323,16.133773 37.900152,16.172803 38.517644,16.384207 38.409547,16.479453 38.306777,16.594948 38.630312,16.903572 38.435202,17.413562 38.59158,17.482594 38.757147,17.52219 38.337115,17.899992 38.149406,18.160596 38.048088,18.425427 38.598048,18.608734 39.133716,18.704178 39.006772,18.836052 38.898115,19.01481 39.429452,19.382356 39.390753,19.802172 39.648408,19.855924 39.392039,20.172837 39.348139,20.264477 39.338108,20.373284 39.47081,20.855575 39.814184,20.937244 40.200655,20.962332 39.928443,21.324986 39.718065,21.753779 39.802759,22.167578 39.767829,22.239799 39.803906,22.310719 40.529072,22.528272 40.946488,22.577088 40.637991,23.004354 40.403132,23.488694 40.458779,23.598087 40.537963,23.801622 40.481012,23.916846 40.442352,23.911954 40.335256,23.873942 40.248837,23.658156 39.473268,23.55165 39.138712,23.410428 39.327032,22.88856 39.712813,22.298649 39.566212,22.256765 39.38282,21.998843 38.722924,21.960488 38.425148,21.868352 38.607932,21.365708 38.754881,21.115709 38.610648,20.912859 38.387416,20.850138 38.319948,20.794735 38.032152,20.75948 37.850376,20.711014 37.957164,20.496825 37.871879,20.426791 37.677664,20.33463 37.78106,19.827761 37.798071,19.58906 37.2729,19.404202 37.40974,19.173951 37.873679,18.528082 37.878021,18.467143 37.777868,18.366565 37.047651,18.128683 36.832143,18.024118 37.079005,17.664736 36.974407,17.559695 36.697164,17.373529 36.874552,17.075422 36.922662,16.945007 36.556472,16.725207 36.684376,16.5636 37.248175,16.060772 36.806864,15.815895 36.387156,15.543686 36.7405,15.162965 37.022358,14.941214 36.551035,14.644815 36.296604,14.48388 36.781036,14.041634 36.866964,13.973698 36.413243,13.699457 36.229595,13.597386 36.704435,13.179912 36.30312,13.002742 36.139864,12.936995 36.445258,12.610058 36.178767,12.575993 36.021624,12.548526 36.151293,12.297501 35.964036,12.34228 35.862144,12.351408 35.887515,12.102322 35.711515,12.267951 35.684418,12.250031 35.681168,12.251993 35.672759,12.23144 35.622781,12.044671 35.480876,12.220019 35.372885,12.091776 35.327508,12.253381 35.098565,12.112585 35.10224,12.420823 34.704137,12.296635 34.634822,12.403045 34.651032,12.593231 34.651364,12.774469 34.434502,12.709512 34.280524,12.96781 34.046689,12.770682 33.89432,13.065477 33.416201,12.753179 33.137946,13.087087 33.082683,12.907079 33.040378,12.829897 32.637734,12.989499 32.351481,12.755273 32.305663,12.786442 32.210846,12.861635 32.175727,12.611462 32.03256,12.494316 32.014319,12.437575 31.659375,12.181484 31.501464,12.283663 31.245647,12.470186 31.182935,12.001064 31.126001,11.768575 30.946196,11.624655 30.939895,11.598035 30.885091,11.56709 30.585086,11.783279 30.22019,12.06781 30.159158,11.743249 30.038973,11.306872 29.755263,11.270803 29.718376,11.300489 29.626649,11.288826 29.531776,11.364466 29.118926,11.721149 29.062046,11.497536 28.965364,11.198502 28.458456,11.097497 28.418746,11.129395 28.34761,11.112817 28.021452,11.400089 27.976256,11.231907 27.903402,11.009293 27.703263,10.96265 27.426943,10.871645 27.403832,10.88714 27.298149,10.862286 27.040614,11.082687 27.003946,10.923003 26.966048,10.784185 26.540604,10.684131 26.442467,10.649629 26.421214,10.658427 26.371653,10.647352 26.226051,10.733167 26.206887,10.642814 26.202508,10.609555 25.957535,10.554815 25.653563,10.175482 25.576239,10.187838 25.482456,10.201283 25.513579,10.000789 25.467042,9.942716 25.479398,9.848602 25.355225,9.522917 25.171387,9.516096 24.905064,9.482769 25.124906,8.961878 25.067755,8.827884 24.824353,8.793015 24.483764,8.683584 24.78251,8.199834 24.838604,8.117038 24.766514,7.99497 24.343904,7.920835 24.169952,7.850631 24.302558,7.63287 24.230905,7.593197 24.07445,7.561691 24.233126,7.14299 24.242031,7.012802 23.780108,6.851028 23.922273,6.371315 23.60487,6.445663 23.703402,6.005829 23.717177,5.695216 23.251248,6.041146 23.235146,5.794723 23.220108,5.685079 23.033699,5.657464 22.892728,5.846695 22.857694,5.715773 22.837872,5.648239 22.617133,5.646198 22.529815,5.641537 22.459184,5.774571 22.426146,5.693695 22.40294,5.639698 22.021341,5.644348 21.960031,5.643971 21.895064,5.779714 21.859208,5.702517 21.830693,5.643177 21.82958,5.64317 21.828812,5.641536 21.452182,5.636864 21.389537,5.637254 21.330972,5.774548 21.29186,5.697471 21.260132,5.638062 21.258441,5.638073 21.256442,5.634267 21.04276,5.633613 20.957536,5.638376 20.897428,5.846694 20.822756,5.740369 20.754957,5.6497 20.747166,5.650135 20.726445,5.62344 20.586638,5.646285 20.53887,6.041145 20.349859,5.889401 20.126624,5.722823 20.18517,6.445758 19.733664,6.393939 19.84893,6.677473 20.009988,6.851064 19.794472,6.803788 19.613859,6.867531 19.715728,7.561562 19.485436,7.677451 19.535748,7.752324 19.620184,7.850599 19.237023,7.844134 19.005046,8.23194 19.138097,8.440559 19.306342,8.683625 18.834564,8.708542 18.769919,8.727189 18.717441,8.980899 18.685525,9.050593 18.778675,9.263249 18.88506,9.482786 18.517822,9.486029 18.478365,9.603962 18.318436,9.914409 18.323118,9.94266 18.272535,10.014009 18.288892,10.111 18.3077,10.20126 18.157255,10.176616 18.130767,10.213977 17.83244,10.554914 17.619069,10.589148 17.572225,10.602135 17.564062,10.733176 17.447487,10.689696 17.375342,10.656715 17.369007,10.658471 17.26745,10.61822 16.999948,10.663523 16.861352,10.714022 16.749538,11.082665 16.638119,11.001659 16.461739,10.859622 16.386283,10.887115 16.297203,10.830145 16.252854,10.839497 15.932167,10.944982 15.768674,11.400091 15.638837,11.296791 15.422391,11.112662 15.371408,11.129432 15.270266,11.051116 14.879454,11.132434 14.671216,11.721164 14.480661,11.571762 14.139531,11.286394 14.071746,11.300498 13.993088,11.239134 13.787199,11.269406 13.723883,11.565707 13.569917,12.067825 13.263882,11.850629 12.865293,11.549251 12.843974,11.624645 12.711818,11.713119 12.644517,12.111687 12.544475,12.470191 12.049513,12.15651 11.830396,12.303204 11.757503,12.494378 11.656693,12.56713 11.626413,12.723167 11.579228,12.861661 11.406968,12.747352 11.361948,12.779841 11.15242,12.989509 10.915152,12.830039 10.831746,12.80283 10.652168,13.087099 10.416869,12.850942 10.305939,12.730075 9.895874,13.065472 9.85567,12.890394 9.813652,12.801942 9.509619,12.967798 9.343065,12.706578 9.279998,12.725422 9.138757,12.774469 9.175863,12.444343 9.07215,12.281682 9.01016,12.300972 8.687892,12.420823 8.737852,12.044283 8.462603,12.253381 8.449016,12.115903 8.377801,12.100623 8.309243,12.220019 8.240499,12.071897 8.12094,12.188817 8.105553,12.269574 7.900342,12.257288 7.927979,12.351383 7.6033,12.249583 7.698079,12.428386 7.768499,12.548536 7.337523,12.595094 7.540181,12.814023 7.650262,12.936993 7.095476,13.189989 7.415599,13.470974 7.560535,13.597396 7.001131,13.945674 6.911823,13.996262 7.291677,14.332132 7.493522,14.483882 7.012275,14.785847 6.732434,14.96265 7.096513,15.333102 7.402985,15.543646 7.044033,15.729593 6.547921,16.042513 6.604706,16.181169 6.750337,16.353857 7.233679,16.725134 7.092197,16.775742 6.894593,16.889001 7.092989,17.373436 6.709097,17.731429 6.836194,17.906424 6.957982,18.024126 6.397287,18.164364 6.095542,18.30359 5.918607,18.468587 5.930972,18.571268 6.169172,18.953033 6.517212,19.404248 6.306987,19.435932 6.031496,19.526307 6.112351,20.33485 5.854333,20.522205 5.874803,20.564767 5.939726,20.711038 5.58599,20.71706 5.402783,20.850092 5.373842,20.857294 5.047103,21.272933 5.192949,21.606618 5.364988,21.868344 4.91153,21.853266 4.504402,21.943312 4.223848,22.256738 4.105382,22.284879 4.088276,22.329445 4.448861,23.13705 4.65143,23.410412 4.170026,23.437842 3.591333,23.628666 3.454792,23.873948 3.309086,23.916836 3.28858,23.887437 3.252156,23.80165 3.385144,23.534836 3.006725,22.968696 2.843628,22.577092 3.340063,22.400299 4.03879,22.290702 3.987291,22.167555 4.088033,21.846303 3.737632,21.322982 3.589456,20.962344 4.067743,20.822768 4.421611,20.782563 4.4894,20.566392 4.464997,20.514522 4.464546,20.452191 4.253791,20.120406 4.141738,19.855902 4.459671,19.778701 4.458504,19.617464 4.360732,19.382262 4.695708,19.27617 4.894498,19.122107 4.656434,18.704158 4.904838,18.614723 5.748656,18.415929 5.711654,18.298873 5.184625,17.742357 5.032979,17.522192 5.410295,17.345492 5.351239,17.158663 5.159824,16.903526 5.388662,16.78076 5.506992,16.656806 5.272485,16.384194 5.439574,16.296271 6.102025,16.033493 6.146973,15.986408 5.823753,15.700538 5.423886,15.328937 5.856294,15.070421 6.190015,14.906553 5.798447,14.576429 5.505515,14.346925 6.051021,14.010069 6.176038,13.935571 5.806632,13.600412 5.57555,13.415383 6.199214,13.069214 5.879544,12.696159 5.704806,12.515978 6.33708,12.271158 6.099427,11.79865 6.006496,11.630509 6.561982,11.567596 6.561733,11.526594 6.66888,11.335252 6.611466,10.975081 6.592275,10.880132 6.889108,10.936179 7.212188,10.497286 7.347687,10.481689 7.378152,10.401549 7.403997,10.419214 7.470091,10.461895 7.476224,10.46092 7.708302,10.583419 7.921911,10.646184 8.299751,10.22949 8.444092,10.402382 8.649118,10.677055 8.802183,10.579993 9.200121,10.398798 9.397573,10.839905 9.417834,10.919622 9.762302,10.79189 9.828692,10.78041 9.846889,10.86642 9.889697,10.832033 9.946231,11.105709 10.229645,10.986378 10.315562,11.181212 10.470145,11.052802 10.47062,11.052822 10.470879,11.052833 10.470959,11.053371 10.721691,11.404091 10.841085,11.30803 10.861558,11.25187 10.941304,11.186641 10.989373,10.925914 11.03818,11.008025 11.102995,11.054381 11.46394,10.759139 11.772327,10.818964 11.80728,10.698824 11.824685,10.607842 12.185678,10.899152 12.299477,10.921228 12.316512,10.932141 12.684887,10.917684 12.839097,10.413501 12.901382,10.175385 13.210379,10.414383 13.743913,10.765551 13.78043,10.663945 13.805521,10.655347 13.992537,10.094069 14.089417,9.785717 14.362017,10.005369 14.786045,10.318507 14.907153,10.276856 14.926848,10.21996 14.95411,10.210648 15.103283,9.745257 15.19703,9.445137 15.471588,9.66601 15.818348,9.925585 15.904366,9.897782 16.037588,9.33263 16.076289,9.148365 16.340362,9.342244 16.529965,9.063518 16.542419,8.976827 16.541591,8.942024 16.964916,9.14336 16.956904,8.992785 16.898262,8.740073 17.010698,8.790762 17.07825,8.802802 17.154251,8.510961 17.326992,8.470993 17.260576,8.371763 17.516139,8.428571 17.776472,8.287739 17.666246,8.089214 17.502606,7.867066 17.778384,7.858338 18.188809,7.743524 17.921734,7.427634 17.728476,7.144613 18.166385,7.021091 18.206441,7.008623 18.198624,6.808866 18.099055,6.167037 18.090744,6.154768 18.087913,6.13713 18.075656,6.123755 18.067842,6.111703 18.084073,6.105555 18.076611,6.086351 18.136634,6.085648 18.922833,5.787878 18.920906,5.42714 18.832702,5.285427 18.81726,5.047627 18.743572,4.952427 18.656936,4.818471 18.799594,4.775575 18.794721,4.700551 18.76282,4.575323 19.101936,4.684665 19.505273,4.563388 19.544594,4.221821 19.547296,3.567424 19.5974,3.605985 19.704556,3.662934 19.75675,3.611259 19.687402,3.477565 20.301555,3.412179 20.303031,3.405816 20.313902,3.405357 20.345051,3.304699 20.40533,3.094945 20.638851,3.376269 20.72812,3.366765 20.745383,3.38715 20.885788,3.381225 20.977122,3.378668 20.978451,3.375375 21.010189,3.375139 21.077172,3.231095 21.205619,2.951516 21.45064,3.365412 21.504806,3.363896 21.50894,3.371433 21.677663,3.370181 21.752336,3.228644 21.895063,2.948585" slic3r:type="contour"/>
    <polygon style="fill: white" points="3.64009,25.131722 3.854135,25.388482 3.33945,25.459583 2.833463,25.685033 2.736125,25.930018 2.515701,26.018482 2.480522,25.97266 2.414628,25.832932 2.552096,25.570626 2.161865,25.056416 1.99344,24.691068 2.522925,24.443385 3.21429,24.269804" slic3r:type="contour"/>
    <polygon style="fill: white" points="2.538425,27.043613 2.909576,27.671792 3.079836,27.851094 2.444657,28.026602 2.41082,28.046419 2.357542,28.30224 2.255441,28.358852 2.438824,29.182134 2.458553,30.864337 2.443264,30.902966 2.450463,30.909786 2.437813,30.915133 1.844215,32.304346 1.177166,33.233249 0.496907,30.703186 0.478462,30.6506 0.499701,30.616272 0.495515,30.610204 0.496176,30.608941 0.486124,30.59354 0.516726,30.569731 1.660245,28.387828 1.501173,28.108438 1.595453,27.930235 1.291588,27.59147 1.158284,27.348108 1.777232,26.964448 2.192916,26.800937 2.530076,26.163654" slic3r:type="contour"/>
    <polygon style="fill: white" points="1.335195,33.522668 1.281734,33.637997 1.607097,34.014983 2.111157,34.45064 1.771213,34.64342 1.073153,35.251276 0.533055,34.792344 0.128525,34.280771 0.404056,34.024196 0.990347,33.638634 0.928759,33.488338 1.082157,33.347137 1.15586,33.299808" slic3r:type="contour"/>
    <polygon style="fill: white" points="1.407713,37.454152 1.620812,37.965215 1.945118,38.299324 2.008241,38.3505 1.83345,38.475172 1.851127,38.517567 1.840128,38.528683 1.953213,38.665019 2.017948,38.773864 1.556866,39.79824 1.091287,40.511936 0.226626,39.212104 0.034407,38.968884 0.269595,38.603448 0.227961,38.55884 0.249123,38.514092 0.092095,38.391036 0.019388,38.309264 0.631819,37.658696 0.666799,37.630905 1.023293,36.877088" slic3r:type="contour"/>
    <polygon style="fill: white" points="1.828575,42.121804 2.207231,42.418012 1.703232,42.860996 1.36308,43.246717 1.411144,43.31538 2.045091,43.863716 2.360952,44.205128 2.073383,44.737127 1.503988,45.594579 1.557596,45.63744 1.547681,45.65278 2.134738,46.136324 2.617902,46.510808 2.182435,46.98998 1.871495,47.384059 2.520773,47.797368 2.825527,48.026132 2.51815,48.506139 2.015976,49.267568 1.407002,48.835328 0.876951,48.455532 1.332867,47.823816 1.568155,47.474336 1.543474,47.452208 1.573544,47.400369 0.994385,46.976347 0.631482,46.667828 0.916239,46.322303 1.432248,45.719543 1.364124,45.65944 1.423092,45.588679 1.457723,45.550099 0.973059,45.059743 0.391863,44.521668 0.883787,43.809944 1.134651,43.406338 1.079858,43.354172 1.140003,43.23376 0.524646,42.782844 0.217187,42.488976 0.579113,42.077036 1.15349,41.51732" slic3r:type="contour"/>
    <polygon style="fill: white" points="3.265073,50.59324 3.295476,50.618696 3.274607,50.651616 3.305589,50.665744 3.191077,50.835571 2.684457,51.985456 2.234118,51.635014 1.518778,51.329356 1.406525,51.277712 1.559312,51.052332 1.43584,50.957944 1.315334,50.856864 1.69869,50.273179 2.095681,49.616016" slic3r:type="contour"/>
    <polygon style="fill: white" points="3.558039,52.435832 3.916784,52.518176 3.673976,52.991732 3.319442,53.692904 2.651768,53.544807 2.122537,53.43258 2.390806,52.8874 2.704701,52.245016" slic3r:type="contour"/>
    <polygon style="fill: white" points="4.11276,54.120528 4.751205,54.116892 4.657936,54.3875 4.44416,55.087395 5.444253,55.648032 5.892988,55.537572 5.879541,55.617796 5.85744,55.820203 6.509784,56.044792 6.828213,57.015636 7.346413,56.81472 7.468518,56.759876 7.486248,57.503447 7.527842,57.991972 6.691873,58.369451 6.409011,58.483564 6.344097,57.648928 6.33905,57.509786 5.573954,57.239628 4.957277,57.036861 4.871347,57.054912 4.824256,57.029482 4.618723,57.078792 4.558927,57.09138 4.575114,56.894939 4.456565,56.830919 4.207467,56.695096 4.150874,56.002483 4.069148,55.46438 4.010112,55.465556 4.016745,55.379679 3.144317,55.377804 3.211657,55.150956 3.531562,54.108048" slic3r:type="contour"/>
    <polygon style="fill: white" points="9.451841,58.37538 9.586199,59.052116 8.985193,59.417784 8.518649,59.671716 8.412986,59.097788 8.317772,58.411228 9.079451,58.013795 9.383757,57.832272" slic3r:type="contour"/>
    <polygon style="fill: white" points="11.571155,59.148312 11.803943,59.98992 11.390034,60.290276 10.772433,60.690816 10.684843,60.349735 10.496538,59.448388 11.042468,59.108068 11.499654,58.7855" slic3r:type="contour"/>
    <polygon style="fill: white" points="13.742909,59.827256 13.977517,60.53642 15.420401,60.67999 15.82112,60.33466 15.846153,60.415736 15.95326,60.695708 17.560294,60.802588 17.810387,60.953391 17.877375,60.893076 17.8894,60.881275 17.952534,61.032718 18.594131,61.279423 19.507664,61.643155 19.851432,61.266203 19.909152,61.20018 20.273817,61.875007 21.385384,62.028576 21.826633,61.410384 21.895064,61.316156 22.371939,61.986807 22.407679,62.03616 23.49887,61.88752 23.834234,61.278859 23.880976,61.200183 24.301964,61.6577 24.926002,61.426139 25.830394,61.041812 25.892757,60.897524 25.900758,60.881276 25.98497,60.955775 26.076303,60.903972 26.229884,60.802584 27.393825,60.745468 27.823649,60.707606 27.968982,60.334672 28.04094,60.390696 28.400792,60.69663 28.773342,60.673099 29.790602,60.558249 29.827648,60.421903 30.099259,59.619436 30.292627,59.751847 31.054564,60.336856 31.029942,60.418324 31.093795,60.411116 31.118744,60.427876 31.124468,60.432248 31.104272,60.495788 30.978774,60.587633 30.935608,60.730464 30.730692,61.564092 30.628023,61.479575 30.196735,61.159967 28.720394,62.240427 28.520473,62.258415 28.507583,62.293244 28.503506,62.305688 28.457538,62.264077 28.444347,62.265264 28.439782,62.261496 28.158396,62.282843 26.48763,62.395701 26.342324,62.722991 26.29655,62.833096 25.909418,62.434758 25.806054,62.44174 25.774501,62.411487 24.481558,62.474757 24.188201,63.012916 24.098134,63.180116 23.550208,62.516504 23.423103,62.521812 23.391662,62.485197 22.537345,62.499813 22.523309,62.52058 22.435511,62.519051 22.020899,63.129732 21.895064,63.307948 21.420902,62.606268 21.359942,62.519382 21.266722,62.52072 21.25171,62.498436 20.400131,62.483606 20.367,62.521784 20.254041,62.51594 19.82154,63.034955 19.691992,63.180116 19.302374,62.46617 19.262536,62.46562 19.26202,62.464613 18.182044,62.408736 18.025155,62.402961 17.984058,62.441772 17.893733,62.434298 17.584721,62.748264 17.49355,62.833096 17.293075,62.384606 16.673686,62.333363 15.352495,62.259893 15.34592,62.265224 15.334496,62.263985 15.297503,62.296968 15.286684,62.305692 15.268375,62.256814 15.205209,62.249963 15.069522,62.240352 14.284255,61.578099 13.640117,61.141938 13.059436,61.564088 13.015369,61.419859 12.795792,60.570225 12.685855,60.495784 12.667686,60.439544 12.665659,60.432248 12.696327,60.411116 12.75604,60.416408 12.735518,60.337 13.10588,60.07722 13.690834,59.619432" slic3r:type="contour"/>
  </g></svg>