<svg width="43.790126" height="63.590156" xmlns="http://www.w3.org/2000/svg" xmlns:svg="http://www.w3.org/2000/svg" xmlns:xlink="http://www.w3.org/1999/xlink" xmlns:slic3r="http://slic3r.org/namespaces/slic3r"><g xmlns="http://www.w3.org/2000/svg" slic3r:z="2.90449999999999e-005" id="layer87">
    <polygon style="fill: white" points="32.445344,59.448564 33.185558,59.953868 33.050218,60.459795 32.899464,61.155012 32.67669,60.990316 31.872266,60.45854 31.988204,59.975083 32.191822,59.295924" slic3r:type="contour"/>
    <polygon style="fill: white" points="34.671704,58.626372 35.325784,59.001744 35.197344,59.668779 35.119116,60.22048 34.761168,59.996536 34.050952,59.603415 34.157663,58.953908 34.27246,58.423484" slic3r:type="contour"/>
    <polygon style="fill: white" points="36.729431,57.658003 37.27732,57.894816 37.207616,58.739587 37.195448,59.12762 36.673391,58.879999 36.073904,58.635332 36.118744,57.801831 36.154068,57.439024" slic3r:type="contour"/>
    <polygon style="fill: white" points="42.790707,47.135835 43.07002,47.475276 42.403088,47.921434 42.413995,47.937176 42.39353,47.951875 42.712623,48.377011 42.907068,48.640956 42.456172,49.003319 41.756365,49.599411 42.34566,50.367128 42.570248,50.672176 42.170994,50.919074 42.291375,51.071427 42.440063,51.314612 42.02032,51.513071 41.372356,51.990833 41.702775,52.435531 42.05806,52.913192 41.799483,52.992436 41.14312,53.214341 41.024391,53.937116 41.043939,53.974311 41.420587,54.660444 41.288311,54.684428 40.926372,54.750942 40.607416,56.06442 40.393366,56.247196 40.417443,56.327759 40.427272,56.35486 40.276844,56.346696 40.246691,56.372444 40.20237,56.372157 38.942398,57.062305 38.99016,57.636184 39.018488,57.84298 38.307783,57.649895 37.991245,57.583298 37.893212,57.636996 37.921212,57.568563 37.840315,57.551544 37.722072,56.538108 37.707692,56.35468 38.362999,56.488833 38.565924,55.992883 38.859492,55.219998 38.843295,55.170935 38.840199,55.1606 38.877052,55.160714 38.899563,55.064652 39.520035,54.55104 39.85936,54.220812 39.630487,53.796644 39.774735,53.769012 40.360746,53.659933 40.72558,53.07755 40.548543,52.857143 40.152655,52.35058 40.439136,52.247355 41.174511,51.974056 40.798052,51.460403 40.481976,50.949868 40.952881,50.694163 40.781427,50.446207 40.627112,50.235232 41.056747,49.99688 41.741757,49.597427 41.274487,48.934659 40.924716,48.432432 41.613967,47.886156 41.657975,47.850037 41.301736,47.412856 41.103836,47.149276 41.552204,46.834563 42.195868,46.41008" slic3r:type="contour"/>
    <polygon style="fill: white" points="43.251975,43.341939 43.487892,43.599864 42.905617,44.006776 42.953272,44.085764 42.922304,44.110471 43.220092,44.494 43.380884,44.722687 42.870143,45.268376 42.25406,45.867932 41.679971,45.020335 41.387796,44.633308 42.031191,44.019611 42.019775,44.004536 42.041258,43.979343 41.680112,43.591584 41.509232,43.359908 42.000751,42.93948 42.570976,42.5283" slic3r:type="contour"/>
    <polygon style="fill: white" points="43.092664,38.689112 43.14324,38.786376 43.653683,39.347247 43.738132,39.424008 43.547508,39.563834 43.573344,39.61352 43.557209,39.628263 43.665375,39.760107 43.724008,39.85464 43.136927,40.736948 42.652564,41.292572 41.874663,40.112223 41.725872,39.930084 41.998672,39.605791 41.980404,39.582892 41.998983,39.550571 41.827964,39.399739 41.74684,39.295608 42.302884,38.702403 42.641483,38.432811 42.749208,38.245404" slic3r:type="contour"/>
    <polygon style="fill: white" points="42.790004,31.059026 43.1709,31.289874 42.69376,31.692975 42.545183,31.893046 42.680456,32.148584 42.555005,32.300459 43.120756,32.876832 43.509532,33.590648 43.38006,34.212867 43.155965,34.701282 43.257172,34.794916 43.218406,34.902739 43.651676,35.228852 43.466836,35.373052 42.697744,36.216504 42.218416,35.865516 41.659796,35.234648 41.744988,35.129379 41.952408,34.951086 41.931784,34.922783 42.038788,34.768497 41.579672,34.294076 41.8648,33.559715 42.245317,32.388042 42.106356,32.249342 42.135773,32.093476 41.503072,31.72796 41.14568,31.387156 41.383128,30.997892 41.984028,30.423224" slic3r:type="contour"/>
    <polygon style="fill: white" points="41.995696,30.188458 41.991476,30.237732 41.980796,30.269354 41.922132,30.208066 41.94132,30.172747 41.9554,30.158758" slic3r:type="contour"/>
    <polygon style="fill: white" points="23.999334,3.001609 24.150146,3.064141 24.39501,2.847336 24.45957,3.157458 24.474169,3.198492 24.614405,3.256639 24.695298,3.247516 25.022436,3.008838 25.018596,3.238232 25.107466,3.364447 25.334089,3.319096 25.274881,3.602213 25.440433,3.837333 25.476334,3.850094 25.785638,3.834844 25.564824,4.0428 25.578658,4.164306 25.62087,4.317021 26.020894,4.393912 25.925798,4.669038 26.016273,4.708746 26.162322,4.698101 25.830786,4.94392 25.709001,5.296259 26.151592,5.448653 26.361104,5.449753 26.488046,5.469493 26.459449,5.574549 26.545102,5.555338 26.442342,5.637398 26.353332,5.964395 26.271387,6.120093 26.227968,6.275042 26.535371,6.38265 26.915129,6.32637 26.958053,6.335594 26.983582,6.32884 27.019147,6.324212 27.030208,6.344693 27.004199,6.370782 26.999957,6.413036 26.994856,6.424244 26.946146,7.063888 27.214104,7.130742 27.699392,7.148142 27.662969,7.18113 27.616071,7.254439 27.675285,7.311187 27.754346,7.255735 27.798388,7.944705 27.973711,7.984267 28.300448,8.049316 27.834912,8.417345 27.866983,8.645285 28.151381,8.708842 28.711474,8.835964 28.770569,9.335791 28.846578,9.34828 29.077822,9.370672 28.812413,9.621803 28.833758,9.7276 28.985012,9.739258 29.620737,9.714311 29.624123,9.722503 29.883907,10.475236 30.051686,10.484794 30.481258,10.158545 30.68899,10.034013 30.837223,10.445477 30.852839,10.492096 31.071079,10.52098 31.591409,10.579705 31.712802,10.493805 31.771608,10.455024 31.814735,10.601703 31.891937,10.616979 32.464796,10.738399 32.590032,10.849595 32.619915,10.878505 32.692678,10.825401 32.702002,10.854937 32.731137,10.949137 33.123144,11.115043 33.214271,11.161058 33.338318,11.034674 33.36152,11.086587 33.421711,11.213751 33.455039,11.215563 33.545263,11.230828 33.613612,11.088094 33.692372,11.174875 33.706568,11.040545 33.771883,11.068987 33.937068,11.146072 33.922884,10.82254 34.027512,10.839953 34.316295,10.910803 34.349872,10.363225 34.458463,10.386331 34.824914,10.509259 34.885756,10.422253 34.901972,10.430028 35.194268,9.913286 35.27914,9.976486 35.67578,10.367489 35.712639,10.351018 35.741721,10.3714 36.245676,10.080972 36.294667,10.220634 36.431366,10.745694 37.053464,10.632848 37.051052,10.761805 37.013829,11.206192 37.108447,11.303551 37.657476,11.34413 37.628492,11.446203 37.508748,11.788662 37.581971,11.91401 37.66722,12.051974 38.094531,12.184173 38.051903,12.258511 37.913203,12.477051 37.891472,12.512132 37.998951,12.808442 38.048599,12.939016 38.349024,13.091282 38.306155,13.140601 38.17676,13.276086 38.180051,13.284741 38.152428,13.316525 38.268708,13.815377 38.297467,13.92871 38.467636,14.038761 38.439016,14.064585 38.350296,14.136905 38.351691,14.142404 38.347185,14.146453 38.491748,14.790211 38.469869,14.991024 38.500196,15.014833 38.456239,15.050009 38.415191,15.184358 38.215728,15.80779 38.439455,15.966401 38.541056,16.022177 38.007963,16.457161 38.00436,16.468425 37.725044,16.715099 38.257067,17.029615 38.677488,17.209838 38.487748,17.376815 38.384285,17.498221 38.821056,17.78108 38.477903,18.460719 38.716516,18.585982 39.130004,18.747706 39.0529,18.884922 38.994462,19.021977 39.283744,19.109114 39.190847,19.30934 38.893305,19.872584 38.869016,20.039247 38.989748,20.099084 39.021968,20.32523 39.379055,20.473143 39.914496,20.62631 39.611631,21.023744 39.349441,21.480484 39.421747,21.539135 39.543684,21.65944 39.407891,21.928965 40.333635,22.382606 40.661584,22.497314 40.216228,22.929061 40.391096,23.188474 40.228811,23.479705 40.769408,23.909542 41.254314,24.701225 41.438971,24.806534 41.518348,24.840642 41.399197,24.937768 41.443824,25.010628 41.407055,25.069308 41.545207,25.159477 41.698703,25.394468 41.8734,26.802956 41.829458,27.346108 41.952108,27.425344 41.956157,27.567799 42.396604,27.79299 42.233388,27.935699 41.977135,28.305914 41.98364,28.534771 41.807628,29.435232 40.377664,27.999284 40.366596,27.991808 40.36891,27.972977 40.358984,27.965142 40.366631,27.950157 40.338439,25.720497 40.134992,25.570126 40.121947,25.464504 39.716895,25.308232 39.417552,25.088648 39.667324,24.552978 39.970889,24.241437 39.896664,23.640449 39.696948,23.514642 39.672717,23.374805 39.063388,23.170628 38.61566,22.869202 38.779619,22.48087 39.341214,21.862941 39.234428,21.808254 39.220757,21.678608 38.486736,21.449768 37.945772,21.134936 38.046672,20.869217 38.361048,20.471307 38.302344,20.410852 38.335766,20.345106 37.736966,19.860807 37.369508,19.69828 37.399282,19.612604 37.318516,19.57603 37.369716,19.437099 37.636787,18.6335 37.253187,18.384163 36.892684,18.237096 37.070516,17.905351 37.135842,17.804472 36.719028,17.547488 36.954996,17.242456 37.452469,16.731858 37.080392,16.479549 37.064342,16.444594 36.653208,16.189732 36.554716,16.126361 36.804481,15.878632 36.7477,15.754965 36.522968,15.405456 36.607884,15.219943 36.633331,15.143671 36.509068,15.063138 36.552872,15.025503 36.682971,14.93138 36.730996,14.573434 36.755266,14.330405 36.480996,14.176591 36.562943,14.107855 36.737104,13.96218 36.730212,13.882337 36.717762,13.599608 36.39528,13.469857 36.476047,13.387544 36.639504,13.214492 36.591211,12.984735 36.242844,12.910507 36.30802,12.80561 36.463194,12.569839 36.420987,12.462953 36.010124,12.456673 36.051612,12.29917 36.156126,12.028027 35.731023,12.116813 35.715113,11.806057 35.562774,11.898335 35.572408,11.976314 35.192199,11.889799 35.28646,12.322812 34.774646,12.244686 34.767184,12.418539 34.747272,12.805299 34.266132,12.613458 34.210268,12.590903 34.0924,12.80011 33.914819,13.119392 33.604739,12.779505 33.418828,12.59822 33.262512,12.736423 32.966586,13.027921 32.839105,12.670187 32.711185,12.367804 32.610159,12.368581 32.591936,12.318799 32.452088,12.415715 32.05596,12.731294 31.993258,12.435002 31.920339,12.153685 31.453165,12.073612 31.087498,12.355411 31.052738,12.176844 31.017192,12.035984 30.309459,11.976143 30.134878,11.956875 30.083206,12.001085 30.072477,11.957562 29.91788,11.958165 29.312915,11.426549 29.198989,11.525247 29.039874,11.671243 28.872394,11.115592 28.839554,11.002502 28.417635,10.961643 28.371444,10.996874 27.967218,11.315567 27.879829,10.982446 27.862485,10.907881 27.432411,10.866231 27.058475,10.831429 27.055816,10.832928 27.026611,10.828464 27.00966,10.826885 26.975208,10.846176 26.971768,10.82008 26.930406,10.813758 26.929168,10.691495 26.951186,10.585778 26.917908,10.209947 26.310344,10.128495 26.580098,9.76526 26.742388,9.572117 26.142984,9.432076 25.89644,9.373391 26.355272,8.96127 26.407919,8.909924 26.37502,8.844625 26.269747,8.86167 26.301756,8.821594 26.059867,8.866159 25.72419,8.934422 25.683189,8.665149 25.678254,8.63455 25.618802,8.615208 25.646179,8.588209 25.66715,8.565688 25.665619,8.556198 25.677101,8.546194 25.686722,8.154314 25.674169,8.005151 25.37505,7.91775 25.520662,7.750382 25.640558,7.60574 25.630426,7.485346 25.761606,7.336264 25.566487,7.296568 25.000178,7.158567 25.21209,6.840465 25.028434,6.80168 24.811832,6.838007 24.954645,6.531735 24.972004,6.402727 24.584082,6.25935 24.783122,5.947861 25.008854,5.662876 24.88108,5.627421 24.491579,5.456488 24.257546,5.459863 24.311913,5.377642 24.213474,5.334442 24.260914,5.250441 24.414821,5.060109 24.318522,5.055841 24.30607,5.014756 24.249057,4.984684 24.246295,4.981091 24.176139,4.956904 23.934863,4.862576 23.862032,5.177881 23.713651,4.825827 23.666327,4.757592 23.51053,4.696683 23.433705,4.845532 23.26556,5.258379 23.132756,5.01639 22.908019,4.665158 22.813107,4.840323 22.589274,5.284834 22.467711,5.070328 22.234456,4.673302 22.139712,4.840675 21.895064,5.285214 21.770523,5.065125 21.559879,4.688527 21.468816,4.849149 21.200852,5.28484 21.080087,5.061892 20.9003,4.719733 20.816595,4.869798 20.524566,5.25838 20.368444,4.954721 20.275911,4.758342 20.204437,4.908008 19.92809,5.177884 19.765845,4.847883 19.644765,4.911861 19.525773,4.995404 19.518424,5.012871 19.423787,5.099672 19.45756,5.211484 19.57666,5.334405 19.49837,5.346594 19.53258,5.459853 19.387623,5.511502 19.041469,5.565941 18.908979,5.627458 18.748439,5.681583 18.893103,5.894712 19.20604,6.259354 18.949219,6.305131 18.884613,6.33025 18.978296,6.83799 18.628042,6.925717 18.789928,7.158573 18.267702,7.227426 18.099051,7.272001 18.102502,7.417032 18.15972,7.485379 18.155922,7.603269 18.415042,7.917775 18.220481,7.950482 18.143969,7.974259 18.129868,8.411954 18.120383,8.55245 18.124505,8.556197 18.123384,8.563433 18.171323,8.615208 18.113189,8.629259 18.065922,8.934434 17.775705,8.882855 17.493951,8.828208 17.520522,8.861898 17.441846,8.852579 17.411372,8.918095 17.802487,9.28454 17.893656,9.373419 17.270155,9.512872 17.025674,9.571734 17.291303,9.907895 17.479742,10.128541 17.02416,10.19419 16.882006,10.212955 16.830367,10.67089 16.823704,10.746332 16.859728,10.813771 16.816657,10.826134 16.814884,10.846221 16.784765,10.828514 16.754022,10.831216 16.110759,10.911228 15.913388,10.92688 15.822874,11.315563 15.522624,11.090084 15.36919,10.970037 14.946485,11.00356 14.830948,11.393339 14.750249,11.671223 14.426239,11.397725 14.179014,11.585025 13.872148,11.958202 13.723561,11.948419 13.70689,12.001111 13.68121,11.982284 13.649951,11.956498 13.634816,11.957288 13.630247,11.953649 13.047283,11.979718 12.792347,12.011459 12.702658,12.35541 12.521208,12.23793 12.298492,12.072949 12.218812,12.08287 12.213621,12.079116 11.892896,12.135875 11.734153,12.731304 11.433627,12.532604 11.221763,12.370405 11.099345,12.364961 11.011881,12.592285 10.82354,13.027921 10.483044,12.739414 10.367255,12.628514 10.164394,12.840505 9.875303,13.119397 9.635236,12.695955 9.576315,12.590279 9.401127,12.660431 9.042822,12.805294 9.024555,12.329334 9.019082,12.220036 8.921027,12.236325 8.503639,12.322803 8.619328,11.828601 8.217724,11.976322 8.238161,11.875793 8.136264,11.755766 7.964877,11.643891 8.059129,12.116787 7.909844,12.041769 7.640218,11.976093 7.601911,12.037042 7.779997,12.456679 7.65273,12.440038 7.391711,12.438309 7.332448,12.589114 7.547274,12.910513 7.437286,12.931366 7.182921,12.984549 7.138203,13.195454 7.394847,13.469858 7.292733,13.517361 7.054157,13.615939 7.051491,13.648117 7.037433,13.949502 7.309133,14.176625 7.223276,14.229865 7.044619,14.331764 7.092919,14.722641 7.116502,14.950903 7.281063,15.063136 7.2394,15.09037 7.165801,15.138134 7.267161,15.405409 6.989634,15.940188 7.155115,16.094097 7.235406,16.126316 6.733786,16.433193 6.709733,16.479543 6.321273,16.736395 6.711402,17.225857 7.0711,17.547467 6.845443,17.648046 6.607401,17.792302 6.897448,18.237068 6.191903,18.678635 6.31461,19.006773 6.471557,19.576186 6.369205,19.628693 6.420611,19.698318 6.359043,19.721392 6.216075,19.780279 5.854941,20.187242 5.487272,20.411742 5.387265,20.577639 5.478198,20.762244 5.844365,21.134914 5.535973,21.222474 4.589398,21.666911 4.555719,21.808336 4.450394,21.850156 4.857667,22.598754 5.174464,22.869202 4.72508,23.00515 4.158554,23.309117 4.093177,23.514641 3.930123,23.595715 3.886146,24.466827 4.144697,24.902564 4.372568,25.088664 3.714009,25.328148 3.65515,25.570126 3.551993,25.631891 3.596998,26.321268 3.424509,27.959643 3.431139,27.965169 3.423192,27.968676 3.423605,27.99156 2.627672,29.017136 1.982676,29.435374 1.921536,28.585717 1.794763,28.46244 1.393546,27.792918 1.585207,27.647245 1.844369,27.513345 1.838037,27.425334 2.06318,27.256554 2.091386,25.394576 2.420532,25.148822 2.346276,25.010682 2.380204,24.971766 2.300885,24.894168 2.271753,24.840704 2.798593,24.491882 3.588641,23.58571 3.39903,23.188474 3.534298,23.039538 3.244855,22.717595 3.128537,22.497318 3.729319,22.150361 4.381723,21.917537 4.315886,21.819088 4.246509,21.659528 4.42772,21.501727 4.053905,20.978393 3.875621,20.626308 4.293192,20.421356 4.793172,20.271032 4.800379,20.099075 4.932831,20.024371 4.912112,19.858507 4.788531,19.594947 4.506409,19.109052 4.639117,19.054881 4.775144,19.012526 4.660143,18.747662 5.059939,18.539064 5.390198,18.38512 5.186808,17.956199 4.969062,17.781086 5.251662,17.648617 5.400302,17.553156 5.112637,17.209787 5.461545,16.999042 6.050822,16.706703 5.78578,16.468417 5.76886,16.410203 5.35605,16.089531 5.249075,16.022196 5.58554,15.779502 5.525615,15.573335 5.336787,15.050237 5.298928,15.020907 5.289904,15.014831 5.320712,14.992178 5.298365,14.790195 5.426072,14.225831 5.443548,14.14683 5.438459,14.142351 5.440729,14.132381 5.322518,14.0387 5.35753,14.017921 5.485184,13.937142 5.599759,13.433954 5.631743,13.309217 5.610082,13.284773 5.615606,13.269414 5.4411,13.091312 5.502929,13.065098 5.728571,12.95533 5.838489,12.649714 5.8942,12.503795 5.868554,12.46355 5.872858,12.456129 5.695592,12.184142 5.77951,12.168477 6.090316,12.081142 6.194666,11.901197 6.284825,11.756104 6.132658,11.34415 6.234907,11.350192 6.624381,11.333018 6.679882,11.27121 6.792131,11.156693 6.736635,10.632871 6.850815,10.670306 7.196101,10.744555 7.214587,10.725696 7.385126,10.75291 7.417475,10.654047 7.544422,10.08097 7.650814,10.160557 8.015199,10.386199 8.077471,10.351013 8.152855,10.386879 8.274328,10.288757 8.595892,9.913271 8.642446,10.010611 8.866482,10.429113 8.90436,10.422212 8.990886,10.551404 9.440253,10.363241 9.437206,10.498419 9.449843,10.94862 9.867237,10.822551 9.849643,10.952676 9.832425,11.163738 10.083557,11.040549 10.092864,11.174045 10.176515,11.088086 10.197425,11.128975 10.260476,11.257126 10.349233,11.242499 10.451839,11.034667 10.486956,11.06784 10.589727,11.169498 10.951733,11.011215 11.056678,10.95918 11.097451,10.825396 11.118371,10.840786 11.172656,10.880513 11.325195,10.738451 11.972688,10.60405 11.998129,10.518435 12.018488,10.455053 12.188498,10.577664 12.468249,10.541629 12.952952,10.483014 13.044863,10.222532 13.101119,10.034028 13.345562,10.234411 13.680868,10.46583 13.930609,10.454239 14.094509,10.035066 14.168673,9.714914 15.050871,9.694211 14.867236,9.520645 14.712294,9.370653 15.033075,9.326875 15.045899,9.249938 15.075426,8.8367 15.502218,8.740962 15.940463,8.642545 15.96699,8.46136 15.734199,8.277337 15.489647,8.049379 16.011082,7.934552 16.021205,7.836226 16.035771,7.255752 16.068166,7.28148 16.130196,7.232473 16.090733,7.14814 16.236367,7.11483 16.890876,6.998485 16.88779,6.917249 16.812047,6.477983 16.791369,6.416536 16.764333,6.373758 16.759926,6.344664 16.785676,6.340564 16.781422,6.325515 16.814147,6.336032 16.875121,6.326325 16.884852,6.32809 17.54336,6.199799 17.436782,5.964366 17.419959,5.892971 17.270013,5.675934 17.245026,5.55534 17.33459,5.527601 17.302084,5.469494 17.469895,5.485698 17.987524,5.325388 17.733256,5.014909 17.627802,4.698105 17.876211,4.593931 17.76922,4.393905 18.09606,4.385808 18.00446,3.834871 18.391547,3.707051 18.486211,3.53133 18.456062,3.31907 18.589931,3.338797 18.767691,3.008824 19.299586,3.095736 19.395136,2.847326 19.576406,3.011465 20.059296,2.742412 20.099576,2.794595 20.126574,2.753215 20.187193,2.908104 20.423304,3.213988 20.678338,2.801909 20.833913,3.167652 20.94483,3.356563 21.262616,2.81925 21.425914,3.143114 21.524993,3.314075 21.611645,3.314675 21.895064,2.82004 22.073464,3.140706 22.175398,3.31857 22.238921,3.319007 22.52751,2.819259 22.708912,3.143878 22.81357,3.320665 23.111788,2.801903 23.330401,3.175134 23.382463,3.259251 23.571292,2.909212 23.66932,2.7435 23.718691,2.730684" slic3r:type="contour"/>
    <polygon style="fill: black" points="28.148621,9.2538 28.299936,9.283882 28.404624,9.29656 28.514447,9.159366 28.707959,8.917147 28.644562,8.854026" slic3r:type="hole"/>
    <polygon style="fill: black" points="15.078138,8.912259 15.269605,9.151438 15.371172,9.278335 15.624611,9.232623 15.521132,9.147941 15.140744,8.84908" slic3r:type="hole"/>
    <polygon style="fill: white" points="1.867789,30.208182 1.833724,30.252083 1.809112,30.269487 1.794221,30.188574 1.81833,30.167927 1.834513,30.158884" slic3r:type="contour"/>
    <polygon style="fill: white" points="2.28547,31.07794 2.644451,31.387142 2.1317,31.670978 1.661288,32.047448 1.683697,32.249522 1.561061,32.354475 1.948724,33.264316 2.210452,34.294176 2.045571,34.567896 1.781738,34.828653 1.858361,34.922824 1.822633,34.981357 2.130336,35.234648 1.999326,35.326492 1.092401,36.216412 0.646055,35.851564 0.138451,35.22882 0.290904,35.067008 0.562105,34.859796 0.532923,34.794932 0.696154,34.623604 0.280569,33.590784 0.833309,32.989313 1.262382,32.356489 1.109697,32.148804 1.229005,31.973778 0.809431,31.585378 0.619208,31.289934 1.127036,30.838018 1.806142,30.423316" slic3r:type="contour"/>
    <polygon style="fill: white" points="1.266928,38.565857 1.924665,39.203799 2.043285,39.295568 1.779476,39.522769 1.809687,39.582887 1.801334,39.592323 1.967019,39.785631 2.064259,39.93016 1.590798,40.742528 1.13742,41.292784 0.187091,39.996556 0.06611,39.854564 0.241473,39.638174 0.21672,39.613528 0.234989,39.5832 0.111289,39.489031 0.051989,39.42408 0.627078,38.731091 0.896685,38.484704 1.040863,38.245351" slic3r:type="contour"/>
    <polygon style="fill: white" points="1.993611,43.155156 2.280895,43.359916 1.726679,43.949155 1.766326,43.999481 2.175673,44.387548 2.402339,44.633404 2.037482,45.205463 1.535971,45.86786 0.761688,45.06772 0.409239,44.72256 0.876753,44.119173 0.836763,44.085668 0.871073,44.032862 0.49025,43.76322 0.302238,43.599832 0.738545,43.054488 1.219153,42.528268" slic3r:type="contour"/>
    <polygon style="fill: white" points="2.32323,46.9109 2.686291,47.149336 2.163675,47.789139 2.128198,47.835012 2.581158,48.193663 2.865407,48.432448 2.565521,48.854184 2.048374,49.59715 2.829631,50.040012 3.163012,50.235184 2.867343,50.662909 3.044972,50.762247 3.30816,50.949888 3.041952,51.256295 2.605811,51.969229 3.086633,52.143544 3.637475,52.350563 3.483946,52.539528 3.071849,53.063467 3.460811,53.667745 4.159636,53.79662 4.098856,53.908391 3.941207,54.200309 4.890619,55.064716 4.913229,55.162614 4.949923,55.160568 4.930669,55.217398 5.442246,56.498603 5.920599,56.39664 6.082459,56.354708 5.992699,57.056095 5.949923,57.551488 5.870813,57.571916 5.89676,57.636899 5.807859,57.588172 4.998895,57.79706 4.771639,57.842984 4.831651,57.0531 4.329053,56.77762 3.588288,56.372272 3.54356,56.372448 3.516023,56.349561 3.394731,56.354824 3.362864,56.354864 3.393771,56.247953 3.337343,56.201055 3.182601,56.064239 3.017754,55.205016 2.914506,54.839523 2.913865,54.839424 2.913568,54.836201 2.891045,54.756472 2.369543,54.660452 2.443649,54.518759 2.791992,53.877128 2.671856,53.227395 2.366327,53.13076 1.732065,52.9132 1.93496,52.640071 2.408989,52.002549 1.826984,51.655812 1.350067,51.314564 1.659123,50.936123 1.41925,50.787979 1.219878,50.672072 1.564743,50.235724 2.033822,49.599604 1.359161,49.0449 0.883045,48.640896 1.398764,47.953826 1.376144,47.937255 1.382661,47.928083 0.958177,47.643435 0.720087,47.475168 1.098963,47.011844 1.594134,46.41004" slic3r:type="contour"/>
    <polygon style="fill: white" points="7.658419,57.986255 7.716143,58.6354 6.991393,58.96936 6.594656,59.127608 6.537457,58.482024 6.512873,57.8948 7.332725,57.574396 7.636092,57.43904" slic3r:type="contour"/>
    <polygon style="fill: white" points="9.576757,58.819215 9.739156,59.603364 9.204059,59.930836 8.67103,60.220484 8.579446,59.758495 8.464344,59.001744 9.091588,58.675003 9.517637,58.423472" slic3r:type="contour"/>
    <polygon style="fill: white" points="11.65618,59.555091 11.917851,60.4585 11.534169,60.73686 10.890652,61.154988 10.810003,60.859467 10.604607,59.953864 11.069505,59.666859 11.598328,59.295924" slic3r:type="contour"/>
    <polygon style="fill: white" points="13.794897,60.196027 13.989141,60.753192 14.299041,60.777707 15.633597,60.902188 15.86138,60.704872 15.874285,60.743856 15.939055,60.903838 16.858554,60.948056 17.739461,61.343842 17.879194,61.214879 17.911158,61.182624 18.033037,61.467562 18.862432,61.70346 19.533791,61.905698 19.848132,61.555187 19.917722,61.473947 20.244491,62.072341 21.452897,62.198241 21.816851,61.686204 21.895064,61.578528 22.339309,62.206151 23.467994,62.089732 23.529062,62.082672 23.814735,61.568984 23.872406,61.473948 24.27413,61.918274 24.978271,61.722816 25.744424,61.480996 25.857114,61.225687 25.878968,61.182624 26.061514,61.348593 26.311196,61.244027 26.931602,60.948044 27.590728,60.931508 27.842573,60.912427 27.928801,60.704848 27.964788,60.732008 28.179684,60.914013 28.938071,60.876412 29.771409,60.786271 30.033816,60.055988 30.167532,60.14582 30.930166,60.728419 31.533752,60.642764 31.003352,60.960848 30.955646,61.105708 30.855057,61.160658 30.642638,61.952028 30.529636,61.859088 30.124805,61.559586 29.55248,61.872239 28.531496,62.411296 28.517078,62.448552 28.494945,62.458221 28.438142,62.63154 28.414213,62.609879 28.321513,62.533981 27.67074,62.818259 26.366184,62.885828 26.276686,63.079063 26.252622,63.134384 26.032416,62.903116 25.976805,62.905996 25.952254,62.882834 24.979481,62.917328 24.364599,62.932926 24.134989,63.342504 24.075,63.450588 23.667464,62.95061 23.577507,62.952892 23.548698,62.92026 22.394295,62.932048 22.389471,62.93888 22.327132,62.938213 21.981415,63.444112 21.895064,63.565399 21.469705,62.938465 21.400654,62.93888 21.393179,62.928226 20.245583,62.915953 20.212618,62.952892 20.133802,62.949781 19.798648,63.355939 19.715126,63.450588 19.418051,62.921532 18.603091,62.889368 17.846022,62.875632 17.813324,62.906056 17.765428,62.902615 17.582928,63.091215 17.537503,63.134384 17.417426,62.877615 17.066761,62.852423 16.119384,62.81826 15.665523,62.606488 15.477084,62.530677 15.351984,62.63154 15.339796,62.599004 15.29184,62.456152 15.273036,62.448587 15.251062,62.392779 14.479444,61.936612 13.705719,61.545743 13.147463,61.952004 13.098301,61.799827 12.917003,61.1473 12.8346,61.105672 12.779949,60.943527 12.256383,60.642744 12.877411,60.719951 13.142078,60.537592 13.756304,60.055984" slic3r:type="contour"/>
  </g></svg>