<svg width="43.790126" height="63.590156" xmlns="http://www.w3.org/2000/svg" xmlns:svg="http://www.w3.org/2000/svg" xmlns:xlink="http://www.w3.org/1999/xlink" xmlns:slic3r="http://slic3r.org/namespaces/slic3r"><g xmlns="http://www.w3.org/2000/svg" slic3r:z="4.38949999999998e-005" id="layer132">
    <polygon style="fill: white" points="24.199002,56.618588 24.687978,57.288448 24.45964,57.697923 24.086723,58.473588 23.933994,58.289768 23.28649,57.433056 23.577204,56.926519 23.918688,56.259528" slic3r:type="contour"/>
    <polygon style="fill: white" points="26.31928,56.340388 26.794486,56.893615 26.568838,57.392612 26.292414,58.113228 26.057925,57.881931 25.410536,57.175124 25.710469,56.567588 25.971014,55.95602" slic3r:type="contour"/>
    <polygon style="fill: white" points="28.534057,55.886219 28.942493,56.296096 28.714406,56.923092 28.53072,57.529024 28.161996,57.228352 27.583874,56.698736 27.908809,55.933208 28.07907,55.451764" slic3r:type="contour"/>
    <polygon style="fill: white" points="30.873369,55.247975 31.15715,55.497192 30.927254,56.292695 30.824388,56.727612 30.265086,56.346024 29.827308,56.00352 30.186222,55.017515 30.266292,54.743616" slic3r:type="contour"/>
    <polygon style="fill: white" points="34.847091,53.968231 35.39346,54.439156 33.401443,54.738074 33.223916,55.494599 33.190765,55.702448 32.365574,55.251243 32.14309,55.105356 32.446084,54.040859 32.39735,53.876904 32.441159,53.883908 32.590316,53.888324 32.597266,53.892922 33.346157,53.8868 34.539264,53.770376" slic3r:type="contour"/>
    <polygon style="fill: white" points="40.027912,47.487308 40.222048,47.693536 39.264351,48.404336 39.278776,49.083687 39.34572,49.93218 39.01952,49.886348 38.404628,49.655504 38.204936,48.221875 38.1721,47.884264 38.536854,47.825445 38.353191,47.559223 38.315203,47.521796 39.089507,47.081764 39.455116,46.863996" slic3r:type="contour"/>
    <polygon style="fill: white" points="40.928088,41.096444 41.279564,42.577328 41.160323,42.714112 40.832067,42.94628 40.914208,43.016464 40.895376,43.031828 41.202756,43.267924 41.09084,43.366311 40.035215,44.205864 39.638956,43.782752 39.13138,43.359171 39.387719,43.1728 39.866169,42.841863 39.852932,42.789364 39.951712,42.703317 39.937607,42.653171 39.348796,40.690872 40.024356,40.126504 40.47354,39.671224" slic3r:type="contour"/>
    <polygon style="fill: white" points="40.510472,39.57538 40.51918,39.614692 40.499403,39.631898 40.460148,39.604276 40.499776,39.538268" slic3r:type="contour"/>
    <polygon style="fill: white" points="41.141939,38.342539 41.576412,38.5897 41.137603,38.932092 40.519139,39.500364 39.698459,39.023447 39.484448,38.864632 39.972259,38.412872 40.561612,37.934964" slic3r:type="contour"/>
    <polygon style="fill: white" points="38.875475,23.144945 39.533151,23.344664 39.393728,23.493091 38.90764,24.132714 40.234981,26.614571 40.280803,26.63348 40.282672,26.6401 40.372612,26.671908 40.360116,26.684121 40.31128,26.741413 40.531932,27.522858 40.910632,30.233445 41.008983,30.280362 41.056456,30.296598 40.935238,30.409574 40.939556,30.440476 40.933461,30.447004 41.011756,30.784456 41.30196,32.402534 41.280244,33.573695 41.174601,34.055225 41.29238,34.121916 41.284282,34.142466 41.5068,34.247576 41.460507,34.28516 41.080616,34.659387 40.838948,35.272756 40.496224,35.739532 40.327225,35.114868 40.03804,34.976856 39.443616,34.608472 39.645588,34.41258 40.04358,34.066438 40.032988,34.027288 40.165972,33.884763 39.495033,30.972633 39.038316,30.73276 39.142359,30.623868 39.3664,30.414316 39.360132,30.387112 39.446044,30.287603 39.269252,29.144873 38.939626,27.404197 38.38926,27.155792 38.511516,27.016879 38.808861,26.713663 38.801508,26.674832 38.919716,26.528068 38.903747,26.356973 38.59661,24.272659 38.235024,24.162724 37.584152,23.910414 37.790507,23.642634 38.378768,22.9673" slic3r:type="contour"/>
    <polygon style="fill: white" points="36.312736,17.427814 37.1774,17.530966 37.142628,17.609973 37.065525,17.790305 37.40086,17.90733 37.429103,18.493571 37.492769,20.065447 38.125903,20.240957 38.546419,20.338946 38.221835,20.709542 37.825328,21.32181 37.007252,21.18083 36.653936,21.067726 36.9843,20.488863 37.191843,20.210065 36.494708,19.89058 36.073088,19.818072 36.132548,19.320859 36.083176,18.592779 35.257552,18.453914 35.386732,18.061621 35.715332,17.355917" slic3r:type="contour"/>
    <polygon style="fill: white" points="32.942545,14.186073 33.129687,14.655431 33.791067,14.681559 34.65716,14.73064 34.631587,14.90792 34.548546,15.25108 35.106452,15.079741 35.136016,15.303056 35.415532,16.867184 34.673675,17.056766 34.223884,17.222064 34.217588,16.772589 34.071166,15.94556 34.067232,15.945258 34.061109,15.910922 32.688995,15.86059 32.419234,15.847962 32.461949,15.587083 32.300551,15.710872 32.2611,15.741341 31.983211,14.871738 31.72772,14.119093 32.319781,13.704858 32.673558,13.389717" slic3r:type="contour"/>
    <polygon style="fill: white" points="21.926587,10.280953 22.780321,10.27896 22.782306,10.275718 22.783946,10.2789 22.80238,10.278967 22.796999,10.302975 23.239166,11.116229 23.292484,11.044918 23.756496,10.418151 23.800996,10.510145 24.287981,11.473258 24.510875,11.195478 24.905238,10.663088 25.026947,10.924623 25.569496,12.009464 26.037838,11.443586 26.326398,11.025861 26.570864,11.550454 26.986816,12.352843 27.513167,12.339242 27.980404,11.799146 28.14964,11.540595 28.516769,12.332433 28.555536,12.332773 28.562267,12.345939 29.125847,12.333953 30.26257,12.358776 30.29592,12.32437 30.30794,12.306598 30.331602,12.360282 30.335023,12.360357 30.335467,12.36129 30.36865,12.36118 30.433554,12.363951 30.427702,12.554905 31.02621,13.811281 30.524404,14.30119 30.124365,14.68946 29.942788,14.250108 29.686965,13.623043 29.60798,13.622785 29.578239,13.557114 28.412934,13.577524 28.060466,13.966386 27.992951,13.819587 27.888466,13.586709 27.859602,13.587216 27.847201,13.561269 26.691002,13.585015 26.67337,12.931025 26.61466,12.999776 26.605528,12.946581 26.273958,13.383378 26.225146,13.446735 25.846763,12.648655 25.561361,12.008761 24.958631,12.807691 24.77472,13.05284 24.482309,12.417493 24.256031,11.920031 23.9041,12.413363 23.633582,12.796306 23.388529,12.273704 23.203421,11.88887 23.027739,12.160716 22.708316,12.654408 22.48006,12.203 22.315252,11.890324 22.23201,12.035089 21.895064,12.609838 21.657333,12.191749 21.481296,11.891581 21.397511,12.054698 21.08181,12.654416 20.809699,12.233092 20.588726,11.891508 20.417848,12.252378 20.15653,12.796291 19.826696,12.335999 19.533039,11.920513 19.192437,12.66391 19.015378,13.052862 18.606983,12.512735 18.22885,12.008809 17.613738,13.337939 17.564978,13.446736 17.186283,12.944791 17.175466,12.999776 17.153989,12.974575 17.132868,13.382512 17.099044,13.58503 16.271377,13.579335 15.939228,13.568244 15.93047,13.58723 15.899977,13.587395 15.729691,13.966358 15.626714,13.85016 15.39149,13.590147 15.121071,13.59161 14.20739,13.565022 14.182333,13.622781 14.101034,13.624866 14.045397,13.760128 13.665699,14.689496 13.338136,14.369041 12.763825,13.811128 12.99698,13.236838 13.377892,12.50811 13.369712,12.407318 13.356772,12.363869 13.45448,12.362475 13.467973,12.330722 13.482216,12.306595 13.536868,12.360741 14.161598,12.364297 15.216383,12.365943 15.233276,12.334992 15.444014,11.87097 15.640482,11.540595 16.074672,12.029535 16.307894,12.34923 16.7984,12.356763 17.173261,11.543938 17.463754,11.025867 17.71953,11.33025 18.220929,12.009032 18.546362,11.306933 18.884896,10.663075 19.018206,10.828111 19.501891,11.462853 19.657053,11.141726 20.033654,10.418171 20.082551,10.483524 20.547605,11.109547 20.586314,11.036019 20.993094,10.302573 20.98756,10.279006 21.005993,10.279017 21.007821,10.275726 21.009878,10.27904 21.862353,10.281578 21.880423,10.249339 21.895064,10.224691" slic3r:type="contour"/>
    <polygon style="fill: white" points="11.480974,13.6345 12.062396,14.119107 11.563249,15.639966 11.529074,15.741335 11.324763,15.585026 11.359373,15.789101 11.370984,15.847926 10.581926,15.859604 9.768788,15.903262 9.761208,15.990776 9.56622,17.222082 9.038969,17.09531 8.374578,16.867204 8.468665,16.102268 8.683687,15.079731 8.787211,15.116032 9.275355,15.268411 9.132939,14.730656 9.773485,14.702797 10.635144,14.661104 10.871738,13.933966 11.116503,13.389739" slic3r:type="contour"/>
    <polygon style="fill: white" points="8.316093,18.031677 8.532599,18.453872 8.240443,18.458322 7.757762,18.541178 7.717148,19.817842 6.829018,20.204326 6.60663,20.265384 6.955978,20.83791 7.136201,21.067652 6.631214,21.118179 5.964636,21.321811 5.492136,20.74847 5.243679,20.339007 5.793354,20.184007 6.302396,20.058988 6.356692,19.088079 6.389196,17.907459 6.504848,17.876672 6.726312,17.798197 6.612718,17.530982 6.742621,17.515374 8.075066,17.355916" slic3r:type="contour"/>
    <polygon style="fill: white" points="5.785898,23.43771 6.205998,23.910386 5.909934,23.99124 5.209164,24.254771 4.898814,26.567629 4.988578,26.674772 4.979416,26.732202 5.400865,27.15578 5.232647,27.215923 4.877338,27.372152 4.666886,28.691506 4.361051,30.310777 4.430019,30.387153 4.422043,30.427505 4.751815,30.732786 4.615885,30.785252 4.321932,30.934047 4.084803,32.13386 3.648903,33.91709 3.757137,34.0273 3.743234,34.086619 4.346511,34.608504 4.09794,34.716715 3.49586,35.072955 3.293939,35.739411 2.861505,34.860918 2.283328,34.247608 2.328398,34.219972 2.50289,34.132385 2.497748,34.121939 2.673876,34.017173 2.488168,32.402552 2.863523,30.455319 2.850569,30.440475 2.853597,30.423186 2.769005,30.341536 2.733673,30.296598 2.889414,30.218779 2.962336,29.802592 3.25838,27.521787 3.432269,27.016546 3.484758,26.755142 3.417505,26.671866 3.434187,26.664336 3.508637,26.636221 3.509186,26.633485 3.58146,26.602427 4.244903,25.622687 4.911333,24.194926 4.704922,23.96596 4.256959,23.344652 4.465285,23.268595 5.411177,22.967203" slic3r:type="contour"/>
    <polygon style="fill: white" points="4.018095,38.631935 4.305673,38.864692 3.738354,39.170648 3.270936,39.500328 2.600075,38.972696 2.21371,38.589684 2.560079,38.336239 3.228681,37.935068" slic3r:type="contour"/>
    <polygon style="fill: white" points="3.305278,39.558459 3.330103,39.604148 3.291289,39.632308 3.28549,39.626735 3.270916,39.614584 3.290372,39.537943" slic3r:type="contour"/>
    <polygon style="fill: white" points="4.123736,40.343287 4.44134,40.690976 4.200687,41.636944 3.857424,42.723566 3.937172,42.789316 3.922945,42.849905 4.658761,43.359152 4.392283,43.646671 3.754816,44.205835 3.336169,43.829176 2.587361,43.267907 2.652263,43.212552 2.889907,43.026834 2.875805,43.016504 2.98921,42.914967 2.510582,42.577592 2.732888,41.824531 3.316553,39.671476" slic3r:type="contour"/>
    <polygon style="fill: white" points="5.39748,47.475731 5.474921,47.521768 5.236945,47.870696 5.516335,47.942984 5.618025,47.884232 5.466908,48.657476 5.385489,49.655475 4.884411,49.742752 4.444386,49.932124 4.51303,48.375528 3.820291,47.844792 3.568103,47.693536 4.063404,47.153487 4.334974,46.863984" slic3r:type="contour"/>
    <polygon style="fill: white" points="11.205449,53.887968 11.392661,53.876884 11.381135,53.922407 11.346251,54.039638 11.597442,54.87016 11.646969,55.105552 10.773878,55.583476 10.599293,55.702424 10.379213,54.740875 9.732807,54.64822 8.396687,54.439188 8.4074,54.432348 9.250741,53.770388" slic3r:type="contour"/>
    <polygon style="fill: white" points="13.825823,55.535672 13.962807,56.003459 13.318839,56.442916 12.965725,56.727592 12.754899,55.988319 12.632951,55.497172 13.343797,54.902311 13.523839,54.743616" slic3r:type="contour"/>
    <polygon style="fill: white" points="15.98269,56.067779 16.206193,56.698796 15.727563,57.088412 15.259361,57.528996 15.079348,57.028127 14.847676,56.295992 15.396508,55.76834 15.711115,55.451752" slic3r:type="contour"/>
    <polygon style="fill: white" points="18.067637,56.444327 18.37959,57.175116 18.018313,57.530312 17.497734,58.113228 17.350893,57.785155 16.99564,56.893616 17.42509,56.415848 17.819096,55.956011" slic3r:type="contour"/>
    <polygon style="fill: white" points="20.109581,56.664923 20.503666,57.432892 20.217937,57.775204 19.703438,58.4736 19.582013,58.253991 19.102168,57.2884 19.450801,56.837012 19.871408,56.259516" slic3r:type="contour"/>
    <polygon style="fill: white" points="22.140879,56.724547 22.59888,57.46996 22.354457,57.827976 21.895064,58.596455 21.777011,58.422379 21.191218,57.470032 21.495176,57.012631 21.895064,56.360404" slic3r:type="contour"/>
  </g></svg>