<svg width="43.790126" height="63.590156" xmlns="http://www.w3.org/2000/svg" xmlns:svg="http://www.w3.org/2000/svg" xmlns:xlink="http://www.w3.org/1999/xlink" xmlns:slic3r="http://slic3r.org/namespaces/slic3r"><g xmlns="http://www.w3.org/2000/svg" slic3r:z="4.62049999999998e-005" id="layer139">
    <polygon style="fill: white" points="4.228383,41.771904 4.245032,41.797221 4.786253,42.047584 5.208606,42.208732 4.953678,42.748555 4.440834,43.57804 4.109698,43.582124 3.535602,43.860655 3.755032,43.220916 4.216059,41.827077 4.223951,41.780187 4.226066,41.768708" slic3r:type="contour"/>
    <polygon style="fill: white" points="4.697148,39.789247 5.008888,40.030732 4.410836,40.535856 4.068211,40.784456 3.44487,40.185127 3.04727,39.853615 3.448455,39.574676 3.992284,39.22534" slic3r:type="contour"/>
    <polygon style="fill: white" points="5.958639,23.16939 5.947984,23.243986 6.106536,23.46423 6.632365,24.054754 6.38641,24.155569 5.774479,24.380473 5.364747,26.934522 5.420895,26.996338 5.413114,27.051478 5.854769,27.476908 5.694138,27.564707 5.316496,27.736276 5.15305,28.894712 4.829228,30.880423 4.902195,30.954135 4.895615,30.991886 5.288029,31.337002 5.141502,31.43012 4.785913,31.621316 4.628727,32.523183 4.15928,34.761713 4.288472,34.882472 4.277882,34.92727 4.978264,35.510715 4.713991,35.696284 3.945128,36.173296 3.631531,35.8568 2.947879,35.244976 3.030059,35.197843 3.399901,34.995691 3.390892,34.980751 3.709692,34.785289 3.191364,31.934715 3.337497,31.073768 3.331361,31.067862 3.332407,31.061052 3.287331,31.020386 3.268156,30.998414 3.348581,30.955781 3.387094,30.705116 3.634954,28.616969 3.902224,27.522496 3.95755,27.15108 3.874365,27.061722 3.890468,27.054125 3.977321,27.018351 3.977728,27.015621 4.03209,26.991088 4.712104,25.612193 5.243419,24.212169 4.716112,23.500846 4.846817,23.446369 5.632424,23.187136 5.645796,23.1519 5.842476,23.080097 5.878405,23.068648" slic3r:type="contour"/>
    <polygon style="fill: white" points="7.296613,20.749551 7.634936,21.243884 7.315555,21.231538 6.448069,21.425548 6.145773,21.060771 5.810745,20.394268 6.130646,20.346673 7.014307,20.218308" slic3r:type="contour"/>
    <polygon style="fill: white" points="10.417931,15.820124 10.909131,16.121931 10.533166,17.701592 10.526106,17.727828 10.458699,17.689369 10.482054,17.76443 9.680586,17.814309 8.735114,17.956004 8.774905,18.049319 8.739225,19.451747 8.255161,19.496112 7.504952,19.385058 7.496549,18.770204 7.508633,17.654296 7.654428,17.753518 8.662657,17.818553 8.556887,17.306737 8.392431,16.750042 9.411841,16.631118 9.550164,16.614506 9.69707,15.950921 9.839022,15.543229" slic3r:type="contour"/>
    <polygon style="fill: white" points="12.463688,14.248144 13.233202,14.895554 13.215749,14.944271 13.274468,14.995315 13.261728,15.026289 13.242292,15.026139 13.186456,15.026035 12.971311,15.626569 12.682682,16.422053 12.249767,16.086074 11.716727,15.638819 11.95683,14.962004 12.322735,14.150759" slic3r:type="contour"/>
    <polygon style="fill: white" points="17.066749,13.084876 17.497928,13.609428 16.909715,14.863955 16.857896,14.976032 16.444395,14.478939 16.364963,14.923938 16.31838,15.1388 15.532717,15.091868 15.107739,15.062698 15.10104,15.0774 15.080109,15.076401 14.865557,15.56614 14.733313,15.436677 14.34416,15.040793 13.333028,14.986304 13.333531,14.979964 13.389327,14.277611 13.371336,13.7498 14.412994,13.791542 14.566455,13.453649 14.670691,13.262664 15.213074,13.828213 16.102668,13.880707 16.473902,13.0863 16.698055,12.663265" slic3r:type="contour"/>
    <polygon style="fill: white" points="21.976085,11.867971 22.418759,12.584685 22.519132,12.437019 22.974022,11.790001 23.066864,11.961923 23.513825,12.771146 23.697108,12.528966 24.137506,11.959002 24.271933,12.230033 24.740663,13.146089 25.09782,12.71224 25.476394,12.244595 25.686476,12.687859 26.1166,13.549977 25.512013,14.31289 25.31849,14.550063 25.008451,13.900572 24.724636,13.296913 24.281427,13.90702 24.006108,14.271792 23.735651,13.729304 23.488902,13.230268 23.212716,13.653362 22.899162,14.116092 22.642713,13.637608 22.409851,13.205164 22.212174,13.540189 21.895064,14.067129 21.633496,13.619821 21.38239,13.202409 21.185779,13.568624 20.890964,14.116094 20.606047,13.672795 20.303096,13.225075 20.032174,13.769992 19.78401,14.271784 19.446229,13.800059 19.066052,13.295001 18.644658,14.182296 18.471654,14.55006 18.047126,14.009038 17.673502,13.549917 18.021464,12.814839 18.313724,12.244618 18.549549,12.530641 19.048941,13.144634 19.310238,12.61778 19.65263,11.958999 19.801469,12.155972 20.273776,12.770751 20.426561,12.487943 20.816107,11.790011 20.91461,11.935183 21.367288,12.585405 21.463284,12.426806 21.895064,11.733992" slic3r:type="contour"/>
    <polygon style="fill: white" points="27.427843,13.378905 27.681135,13.878084 28.615064,13.816703 29.001914,13.406564 29.119448,13.262664 29.357547,13.781994 29.370315,13.781396 29.371363,13.783578 29.743884,13.764698 30.418788,13.749793 30.464592,14.145373 30.457706,14.910468 30.457021,14.986484 29.440651,15.038751 28.924584,15.566132 28.850924,15.394448 28.711402,15.076251 28.689082,15.077399 28.681141,15.060134 27.471744,15.138789 27.356022,14.471098 26.988405,14.91028 26.932258,14.976032 26.547331,14.161822 26.292182,13.609418 26.822679,12.998017 27.092066,12.663254" slic3r:type="contour"/>
    <polygon style="fill: white" points="31.559298,14.405593 32.073292,15.638932 31.466058,16.11784 31.10738,16.42201 30.922599,15.901883 30.604273,15.025856 30.528579,15.026181 30.51622,14.996277 30.574558,14.944085 30.556956,14.895642 30.913032,14.641842 31.467424,14.150768" slic3r:type="contour"/>
    <polygon style="fill: white" points="34.195747,16.606066 34.765707,16.671606 35.397724,16.750065 35.327376,17.134815 35.142482,17.801342 35.311888,17.69592 36.281588,17.654384 36.278256,17.944992 36.285192,19.385052 35.653208,19.33365 35.050908,19.451756 35.206388,19.247784 35.122904,17.965141 33.369461,17.772931 33.308071,17.764462 33.323571,17.691057 33.26402,17.727857 33.057575,16.763839 32.881008,16.121955 33.660479,15.731154 33.951092,15.543225" slic3r:type="contour"/>
    <polygon style="fill: white" points="37.27106,20.29188 37.979364,20.394202 37.769987,20.640036 37.342356,21.425554 36.894423,21.415513 36.155196,21.243944 36.357247,20.848688 36.775876,20.218252" slic3r:type="contour"/>
    <polygon style="fill: white" points="38.144212,23.152048 38.169565,23.211065 38.286168,23.259526 39.074008,23.500778 38.991115,23.61802 38.583073,24.173656 39.260175,25.749855 39.773994,26.998754 39.812536,27.01567 39.813764,27.021406 39.915775,27.061714 39.903795,27.076284 39.840486,27.14624 40.154864,28.614868 40.445615,30.962044 40.497835,30.988759 40.521984,30.998396 40.457151,31.055173 40.458728,31.067901 40.455826,31.070793 40.492343,31.250191 40.598836,31.935518 40.441692,33.826875 40.17204,34.846546 40.399224,34.98072 40.389284,35.000106 40.84224,35.24496 40.754068,35.333327 39.844999,36.173296 39.436844,35.890756 38.81186,35.5107 39.028587,35.329504 39.513097,34.92587 39.501656,34.88238 39.640908,34.747317 39.017515,31.607219 38.502104,31.336998 38.615423,31.233484 38.894471,30.987428 38.88788,30.954229 38.975234,30.862806 38.836252,29.866859 38.487185,27.721113 37.935368,27.476941 38.051075,27.352204 38.375717,27.03591 38.369276,26.996315 38.445832,26.90933 38.408364,26.621632 38.03286,24.3755 37.968784,24.349618 37.15778,24.054799 37.311823,23.83434 37.840395,23.22425 37.831248,23.169532 37.889104,23.094453 37.911448,23.0688" slic3r:type="contour"/>
    <polygon style="fill: white" points="40.329688,39.59284 40.742851,39.8537 40.196696,40.371359 39.721896,40.784484 39.017508,40.196944 38.781236,40.030696 39.300263,39.6109 39.797856,39.225412" slic3r:type="contour"/>
    <polygon style="fill: white" points="39.565188,41.775424 39.574156,41.824067 39.865735,42.647079 40.254503,43.860816 40.113823,43.865492 39.349288,43.577908 38.988367,42.877227 38.58152,42.208704 39.161332,41.944983 39.544929,41.795657 39.560127,41.774688 39.564056,41.768707" slic3r:type="contour"/>
    <polygon style="fill: white" points="22.076507,55.349689 23.02005,55.368528 24.252409,55.382824 24.279201,55.417143 24.59525,55.435472 26.726527,55.493715 26.80023,55.575056 26.831691,55.61169 27.508079,55.952703 27.963277,56.325452 26.492068,56.299153 26.339762,56.635959 26.303744,56.729856 25.856105,56.288304 24.839418,56.2716 24.518464,56.266018 24.170715,56.889628 24.090798,57.05586 23.423325,56.252524 22.505714,56.24525 22.004847,56.978892 21.895064,57.16254 21.306434,56.29456 21.275972,56.245039 20.355493,56.252256 19.809651,56.9062 19.699386,57.055876 19.262331,56.265421 18.551213,56.276752 17.926463,56.28792 17.554215,56.653904 17.486384,56.729856 17.293544,56.299001 16.952438,56.304816 15.826901,56.325464 16.281467,56.081908 16.985167,55.60958 16.977268,55.58976 17.063598,55.493716 17.536592,55.472632 19.521549,55.403731 19.537697,55.382824 21.003633,55.355856 21.715503,55.346981 21.718454,55.34254 21.854234,55.345251 22.071681,55.34254" slic3r:type="contour"/>
  </g></svg>