<svg width="43.790126" height="63.590156" xmlns="http://www.w3.org/2000/svg" xmlns:svg="http://www.w3.org/2000/svg" xmlns:xlink="http://www.w3.org/1999/xlink" xmlns:slic3r="http://slic3r.org/namespaces/slic3r"><g xmlns="http://www.w3.org/2000/svg" slic3r:z="3.59749999999999e-005" id="layer108">
    <polygon style="fill: white" points="30.461109,58.717275 31.107895,59.233256 30.955912,59.751695 30.78179,60.501908 30.605418,60.352736 29.777598,59.7311 29.918164,59.175903 30.13271,58.482324" slic3r:type="contour"/>
    <polygon style="fill: white" points="32.863719,57.910716 33.371932,58.272592 33.198076,58.997803 33.097206,59.5601 32.740006,59.295756 32.067764,58.852052 32.226378,58.04894 32.343258,57.58812" slic3r:type="contour"/>
    <polygon style="fill: white" points="38.26012,53.908856 39.12082,54.08662 39.202927,54.561783 39.349076,55.459508 39.218576,55.432904 38.473293,55.304313 38.475112,55.313948 38.428633,55.303426 38.423328,55.555379 38.386999,56.356744 37.521722,56.692883 37.50934,56.987056 37.508476,57.107219 37.008729,56.89217 36.917332,56.927676 36.804463,56.886334 35.557545,57.22414 35.419852,58.093883 35.382088,58.44204 34.792324,58.090304 34.307892,57.82632 34.442316,56.728723 34.473804,56.546936 35.233632,56.931332 35.361944,57.007763 35.558472,56.303643 35.627796,55.822628 36.071196,55.724795 36.374005,55.637256 36.376888,55.315712 36.462388,55.34602 36.847349,55.506965 37.114115,55.418888 38.109999,55.008817 38.069348,54.826044 37.928328,53.862824" slic3r:type="contour"/>
    <polygon style="fill: white" points="40.605032,52.854568 40.777516,53.398044 40.327988,53.413147 39.573424,53.444356 39.26576,52.61062 39.111492,52.120248 39.803484,52.063144 40.349603,52.044975" slic3r:type="contour"/>
    <polygon style="fill: white" points="41.407289,49.896271 41.860095,50.511607 41.942712,50.627788 41.779067,50.75053 41.832427,50.868259 41.858312,50.925503 41.343986,51.076865 41.201155,51.183996 41.039814,51.236592 40.462652,51.5983 40.131856,51.032784 39.811932,50.505392 39.976959,50.415044 40.208411,50.26391 40.035928,49.87022 40.190988,49.813175 41.218848,49.451524" slic3r:type="contour"/>
    <polygon style="fill: white" points="42.50342,45.516596 42.896212,45.921668 42.264371,46.411852 42.07123,46.583384 42.132683,46.74359 42.441404,47.30376 42.626892,47.687444 42.117844,48.025499 41.471987,48.375832 40.89426,47.219936 40.720164,46.899776 41.395157,46.545323 41.010183,46.170343 40.860928,45.973128 41.333339,45.514268 41.998464,44.956772" slic3r:type="contour"/>
    <polygon style="fill: white" points="42.105068,44.844196 42.089104,44.858067 42.081532,44.863852 42.068172,44.839604 42.07924,44.828955 42.086048,44.823444" slic3r:type="contour"/>
    <polygon style="fill: white" points="43.039404,41.26098 43.334208,41.494808 42.667059,42.003112 42.629761,42.038586 42.68546,42.20982 42.625472,42.265684 42.96776,42.888392 43.182876,43.40966 42.772652,43.881443 42.066356,44.49538 41.504416,43.22312 41.234364,42.690812 41.86372,42.174716 41.806856,42.110908 41.844323,42.059223 41.45074,41.76046 41.319516,41.61286 41.851559,41.046492 42.373692,40.61688" slic3r:type="contour"/>
    <polygon style="fill: white" points="42.261337,32.72481 43.035528,33.2683 43.307316,33.398982 42.699978,33.94166 42.769368,34.184416 42.665296,34.303505 43.055236,35.163116 43.458335,36.4916 43.360851,36.79066 43.199947,37.048231 43.281248,37.117112 43.255161,37.168162 43.479648,37.308596 43.40046,37.372495 42.870781,37.920349 42.801883,38.055176 42.457368,38.487992 42.377245,38.290512 42.02378,38.071532 41.463324,37.535284 41.602936,37.374195 41.901326,37.117505 41.885336,37.078092 42.007989,36.928439 41.4089,35.448523 42.018925,34.310469 41.864544,34.190432 41.885906,34.090711 41.460467,33.885431 41.327984,33.77876 41.813443,33.113406 42.168575,32.77115 42.206852,32.592464" slic3r:type="contour"/>
    <polygon style="fill: white" points="42.364831,29.718506 42.845704,29.87447 42.501524,30.228505 42.024956,30.913642 41.241864,30.647753 40.901672,30.440581 41.217031,29.944572 41.7304,29.373936" slic3r:type="contour"/>
    <polygon style="fill: white" points="41.543136,26.751522 42.092852,26.857024 41.853884,27.13616 41.372328,27.949634 40.642708,27.786048 40.202608,27.589642 40.440335,27.161068 40.944488,26.51095" slic3r:type="contour"/>
    <polygon style="fill: white" points="40.708856,24.246817 41.205664,24.30665 40.969552,24.600094 40.547276,25.38712 39.783312,25.264022 39.358524,25.11775 39.590416,24.669865 40.03748,24.034892" slic3r:type="contour"/>
    <polygon style="fill: white" points="37.877772,18.201248 38.027949,18.351893 38.358003,18.465191 38.970996,18.606418 38.84232,18.743219 38.670855,18.996801 39.343456,19.671498 39.311385,20.21329 39.442315,20.251603 39.554316,20.267776 39.290584,20.564681 39.278208,20.773752 39.264868,20.795226 39.416644,21.94775 39.975264,22.102954 40.3239,22.13971 40.018448,22.517467 39.678424,23.163582 38.790472,23.036118 38.489868,22.946687 38.776468,22.398296 38.960506,22.124419 38.47628,21.449602 38.19226,21.167636 38.007396,21.102482 37.954751,21.044113 37.758392,21.010022 37.695492,20.9898 37.776309,20.84627 37.712615,20.775653 37.584524,20.676476 37.716668,19.944398 37.712936,19.482445 37.075464,19.221628 37.219852,18.995327 37.704262,18.409055 37.702932,18.244276 37.744432,18.17781 37.7593,18.159408" slic3r:type="contour"/>
    <polygon style="fill: white" points="21.492986,6.633606 21.585019,6.763466 21.731001,6.544221 21.895064,6.303913 22.13999,6.673289 22.185345,6.740638 22.332453,6.512041 22.516326,6.278285 22.792457,6.645189 22.865932,6.753363 23.092379,6.474285 23.290492,6.298468 23.591352,6.747889 23.621976,6.805041 23.7071,6.80418 24.026194,6.534702 24.187862,6.447158 24.397265,6.835706 24.614701,6.871369 25.023001,6.864339 25.204748,6.726194 25.267522,6.697099 25.353565,6.926264 25.362068,6.945061 25.817464,7.159196 26.31479,7.354388 26.521711,7.18755 26.666469,7.094637 26.809199,7.548434 26.827302,7.555539 26.901178,7.747292 27.442022,8.091588 27.482886,8.056117 27.564207,8.075272 27.849143,7.832064 28.158616,7.591005 28.271234,7.974096 28.356086,8.251316 29.196528,8.418793 29.21626,8.400397 29.222107,8.40265 29.641258,8.061768 29.73304,8.369213 29.784001,8.53586 29.790373,8.53713 29.817587,8.632052 29.855132,8.646516 30.613317,8.883276 30.747413,8.767389 31.09088,8.495309 31.203384,8.883576 31.259514,9.085065 31.283556,9.092572 31.296477,9.136946 31.695224,9.055588 32.209688,8.814041 32.353758,8.913439 32.421429,8.94886 32.487436,8.903162 32.502604,8.962908 32.511423,8.995964 32.515292,8.997989 32.53019,9.050926 32.898569,9.4123 33.297392,9.679962 33.37184,9.654372 33.688692,9.51201 33.87986,9.374723 33.97408,9.311082 33.988817,9.364592 34.047796,9.32548 34.395991,9.867132 34.492845,9.981216 34.744535,9.913206 35.328184,9.795445 35.395419,9.985399 35.496622,10.23884 35.528268,10.225516 35.536548,10.26942 35.944468,10.206162 36.009368,10.504777 36.075204,10.516014 36.076438,10.524486 36.229951,10.525974 36.385028,10.550909 36.244499,11.165283 36.267744,11.17479 36.271928,11.227068 36.591955,11.319023 36.913648,11.459346 36.531021,12.031204 36.799067,12.143026 37.182963,12.350467 36.790459,12.784851 36.627515,12.921992 36.95922,13.064027 37.41204,13.294979 37.09596,13.653353 36.711369,13.995709 37.119536,14.149924 37.708408,14.383966 37.538996,14.605075 37.253943,14.920487 37.877388,15.374637 38.087584,15.539557 38.066316,15.653028 38.118763,15.671038 38.049305,15.74379 38.03874,15.800157 38.02138,15.823864 37.809025,16.841789 38.198004,16.989434 38.504807,17.07522 38.142771,17.454478 37.714368,18.029839 36.896128,17.773416 36.590743,17.628394 36.967015,17.059208 37.005837,17.016137 36.766591,16.836653 36.304756,16.580178 36.3757,16.400029 36.397883,16.275015 36.162044,16.172126 36.225416,16.064037 36.634179,15.554571 36.696579,15.24436 36.160359,15.024066 35.689612,14.803204 35.977883,14.380601 36.267558,14.050098 35.446599,13.641282 35.312964,13.575162 35.746569,13.099807 35.502012,13.052837 35.128384,12.913481 35.126583,12.68386 35.125987,12.636093 35.121948,12.634033 35.120403,12.621623 34.999588,12.575841 35.04056,12.540017 35.101743,12.471753 35.061347,12.147298 35.049712,11.998601 34.723328,11.902017 34.821327,11.801235 34.925371,11.65483 34.54752,11.628199 34.598438,11.454741 34.334772,11.522655 34.219827,11.16664 33.880932,11.379544 33.595965,10.989253 33.493253,11.056349 33.241388,11.265022 33.23324,11.230067 33.200617,11.254242 32.293232,10.558111 32.093014,10.732403 32.003422,10.910022 31.948774,10.99246 31.858081,10.935048 31.822626,10.973572 31.808891,10.901578 31.704345,10.850324 30.736051,10.365403 30.657879,10.43312 30.48354,10.60435 30.39297,10.195029 29.940976,10.045873 29.405455,9.868436 29.28025,9.97696 29.074714,10.163641 28.967213,9.765019 28.956015,9.727707 28.582932,9.648809 27.730167,9.491409 27.657961,9.550151 27.57225,9.618947 27.524678,9.457886 27.415759,9.4445 27.176942,9.441445 26.969072,8.892548 26.807778,8.556184 26.445288,8.818548 26.046925,9.036164 25.907376,8.679051 25.819302,8.350051 25.293894,8.306387 25.079606,8.347213 24.810679,8.560699 24.72944,8.598902 24.642708,8.396021 24.483278,8.373785 24.107686,8.494143 23.974939,8.416093 23.906973,8.397589 23.85847,8.45112 23.836101,8.420162 23.811446,8.371693 23.39594,8.284269 23.261931,8.276566 23.185572,8.385547 23.14025,8.330324 23.101283,8.272612 22.77977,8.26485 22.666741,8.267535 22.665551,8.26961 22.657223,8.269867 22.574032,8.407798 22.519404,8.341997 22.468712,8.27568 22.109644,8.286749 22.010019,8.290225 22.005187,8.298073 21.996459,8.297802 21.895064,8.445389 21.845186,8.371166 21.794885,8.297729 21.784948,8.298076 21.780699,8.291106 21.42293,8.280002 21.315129,8.276238 21.216088,8.407804 21.178842,8.336865 21.142737,8.275902 20.772378,8.283027 20.672444,8.280539 20.604556,8.385573 20.575214,8.330505 20.549461,8.292245 20.021082,8.387373 19.958815,8.390356 19.931636,8.451145 19.89991,8.403607 19.682618,8.494128 19.079413,8.455766 19.046988,8.551751 19.060656,8.598906 18.897599,8.444203 18.83188,8.440024 18.824286,8.433111 18.171599,8.461759 17.891401,8.453222 17.788973,8.741762 17.743222,9.036153 17.553906,8.87835 17.01425,8.548737 16.823564,8.994133 16.613215,9.441408 16.265579,9.466952 16.248549,9.524188 16.217889,9.61892 16.06632,9.495045 15.821551,9.54592 14.851888,9.732674 14.804774,9.902433 14.715417,10.163649 14.46424,9.948183 14.376243,9.87054 14.020452,9.987923 13.435444,10.181823 13.394315,10.353862 13.306587,10.604357 13.031926,10.370509 12.860364,10.453992 11.992369,10.894937 11.984613,10.929495 11.967481,10.973608 11.925676,10.93752 11.841192,10.992518 11.751361,10.787039 11.680403,10.725783 11.480168,10.563466 11.275028,10.719085 10.589564,11.254223 10.564747,11.230711 10.548654,11.265041 10.519408,11.246443 10.172908,11.005412 10.089418,11.118681 9.90917,11.379553 9.588684,11.117195 9.455353,11.522655 9.20866,11.438123 9.242605,11.628212 9.044703,11.639574 8.898453,11.650119 9.066775,11.902017 8.911427,11.957371 8.740899,12.006861 8.737124,12.024654 8.727814,12.028368 8.68888,12.386923 8.683519,12.450844 8.790508,12.575843 8.734607,12.601803 8.668792,12.6264 8.668152,12.634034 8.664467,12.63603 8.661729,12.913435 8.32676,12.969956 7.993923,13.059124 8.408649,13.505436 8.477156,13.575139 7.906641,13.860622 7.504846,14.059595 7.882524,14.577867 8.100512,14.803234 7.728938,14.94054 7.118525,15.222802 7.230901,15.675004 7.302548,15.76951 7.315952,15.828966 7.628098,16.172113 7.542119,16.193299 7.41067,16.249097 7.485337,16.580291 6.919984,16.987615 6.766313,17.08877 7.027513,17.458142 7.199367,17.62841 6.712042,17.743498 6.075777,18.029766 5.523779,17.408452 5.285313,17.075198 5.901874,16.833847 6.000539,16.803074 5.925583,16.361425 5.785908,15.847389 5.751509,15.80033 5.742798,15.750928 5.690865,15.694644 5.671376,15.671023 5.725791,15.647582 5.702606,15.53935 6.172207,15.253221 6.580345,14.921168 6.529761,14.857577 6.081742,14.383907 6.431447,14.251798 7.107457,13.988149 6.7439,13.593646 6.378096,13.295004 6.951276,13.048918 7.229564,12.915563 6.917686,12.58509 6.607161,12.350453 7.347374,12.039977 7.098868,11.688754 6.87648,11.459346 7.505524,11.277466 7.522399,11.174774 7.566652,11.160175 7.454097,10.70844 7.405123,10.550909 7.708893,10.549062 7.714936,10.516014 7.751895,10.512424 7.845691,10.206149 8.173225,10.284147 8.248437,10.295028 8.261858,10.225515 8.286275,10.237343 8.461919,9.795465 8.876259,9.906078 9.234197,9.989323 9.669915,9.41374 9.742303,9.325481 9.800613,9.358651 9.816024,9.311081 9.986078,9.449344 10.449714,9.631369 11.269054,9.019339 11.274888,8.997916 11.277481,8.996355 11.302727,8.90314 11.357396,8.948252 11.580328,8.814065 12.540809,9.061614 12.598301,8.85912 12.699189,8.495311 12.962518,8.746485 13.112706,8.866565 13.26738,8.808893 13.98624,8.584133 13.999772,8.537131 14.003441,8.536219 14.148883,8.061753 14.372673,8.27341 14.531764,8.404959 14.736864,8.354002 15.439537,8.220711 15.496309,8.031428 15.631512,7.590998 15.923223,7.855456 16.200317,8.076399 16.307239,8.056117 16.32256,8.07025 16.378904,8.065834 16.894594,7.733464 16.962826,7.555565 16.995753,7.538831 17.07104,7.28684 17.123676,7.094642 17.392834,7.337039 17.725907,7.167774 18.445086,6.910706 18.466943,6.859211 18.497132,6.854196 18.532294,6.733636 18.522656,6.697102 18.667024,6.825975 18.850778,6.795451 19.483152,6.770989 19.49273,6.751061 19.495201,6.751097 19.589122,6.556305 19.602298,6.447164 19.911876,6.757193 20.181051,6.761131 20.245715,6.765902 20.423311,6.485243 20.499604,6.298465 20.748723,6.637252 20.912758,6.807902 21.136134,6.503073 21.273816,6.278277" slic3r:type="contour"/>
    <polygon style="fill: white" points="6.08716,18.244098 6.097408,18.454606 6.312976,18.772376 6.714664,19.221596 6.506234,19.262714 6.143532,19.402013 6.20558,20.676509 6.015375,20.868101 6.059941,20.942657 6.094636,20.989776 5.868253,21.016296 5.782729,21.102443 5.699737,21.129676 4.842466,22.196125 5.126372,22.699661 5.300277,22.94663 4.740365,22.997526 4.111823,23.16365 3.645626,22.524327 3.466237,22.139698 4.012837,21.969338 4.429808,21.904298 4.60462,20.935242 4.511947,20.77384 4.512845,20.665836 4.302026,20.395618 4.235814,20.26773 4.516911,20.177656 4.518603,19.974379 4.446714,19.671326 4.849488,19.436 5.136075,19.103114 4.819106,18.60645 5.039724,18.527022 5.807642,18.323056 5.91259,18.201152 6.007904,18.165093 6.030892,18.159372" slic3r:type="contour"/>
    <polygon style="fill: white" points="4.159815,24.748539 4.43159,25.117724 3.976398,25.165112 3.2428,25.387138 2.835441,24.8403 2.584462,24.306666 2.968259,24.170374 3.752643,24.034892" slic3r:type="contour"/>
    <polygon style="fill: white" points="3.264561,27.18924 3.587518,27.589636 3.155171,27.659632 2.417842,27.949606 1.993946,27.426534 1.697287,26.85696 2.030245,26.707924 2.845672,26.51098" slic3r:type="contour"/>
    <polygon style="fill: white" points="2.588596,30.118486 2.88848,30.44051 2.385025,30.579012 1.765364,30.913432 1.237322,30.348452 0.944449,29.874369 1.336095,29.640147 2.059768,29.373878" slic3r:type="contour"/>
    <polygon style="fill: white" points="1.675564,32.854883 2.321193,33.646984 2.462168,33.778708 1.905782,34.012389 1.925565,34.190476 1.848713,34.244544 2.181909,34.809787 2.381233,35.448644 2.116007,36.36924 1.825638,36.991058 1.904776,37.078076 1.878949,37.155655 2.326803,37.535275 2.154383,37.631616 1.47108,38.21992 1.332718,38.48804 1.165574,38.209912 0.933569,38.01976 0.310476,37.308632 0.370961,37.254555 0.529008,37.150674 0.508855,37.11714 0.625879,37.009458 0.331784,36.491676 0.904654,35.05994 1.162634,34.364108 1.020796,34.184468 1.076096,34.027991 0.670135,33.653712 0.482805,33.398936 1.036049,32.974701 1.540504,32.71393 1.583275,32.592908" slic3r:type="contour"/>
    <polygon style="fill: white" points="2.269567,41.448819 2.470612,41.61286 1.91665,42.004009 1.983301,42.110919 1.958946,42.135602 2.368109,42.471328 2.555761,42.690812 2.213207,43.565651 1.723762,44.495388 1.11974,43.858688 0.607249,43.409632 1.194597,42.301466 1.104698,42.209843 1.148329,42.09466 0.699486,41.749084 0.455924,41.494852 0.897027,41.039611 1.416391,40.616908" slic3r:type="contour"/>
    <polygon style="fill: white" points="1.72195,44.839604 1.713833,44.85528 1.708592,44.863852 1.685056,44.8442 1.697943,44.829568 1.704077,44.823444" slic3r:type="contour"/>
    <polygon style="fill: white" points="2.607991,45.702563 2.929176,45.973064 2.359328,46.502961 2.896952,46.788715 3.069929,46.899692 2.704288,47.671388 2.318043,48.375692 1.582709,47.912416 1.163216,47.68732 1.68136,46.738065 1.664957,46.723988 1.710118,46.615791 1.232387,46.24768 0.893931,45.921748 1.208012,45.562528 1.791598,44.95676" slic3r:type="contour"/>
    <polygon style="fill: white" points="2.998133,49.607912 3.754197,49.870212 3.695381,50.007011 3.586674,50.254829 3.978187,50.505384 3.847657,50.72948 3.3275,51.598256 2.757751,51.255971 2.701781,51.219786 2.588857,51.183972 2.429326,51.06584 1.996049,50.941844 1.931812,50.925504 2.009204,50.754738 1.930668,50.696583 1.847413,50.627796 2.311071,50.008547 2.374306,49.91973 2.571278,49.451524" slic3r:type="contour"/>
    <polygon style="fill: white" points="4.336959,52.1124 4.678621,52.12026 4.456731,52.681424 4.216702,53.444356 3.573841,53.4219 3.012626,53.398052 3.20853,52.777127 3.440522,52.044976" slic3r:type="contour"/>
    <polygon style="fill: white" points="5.787472,54.153387 5.664126,54.993251 6.984346,55.498704 7.413246,55.315728 7.409087,55.402596 7.410913,55.624463 8.162377,55.82266 8.35023,56.517204 8.450752,57.011075 9.189915,56.624019 9.3163,56.546912 9.396196,57.319928 9.482278,57.826259 8.731324,58.269184 8.408068,58.442064 8.278435,57.629979 8.228714,57.220104 7.153626,56.917403 7.004335,56.879429 6.872743,56.92768 6.789014,56.894504 6.396927,57.061596 6.28159,57.107188 6.263512,56.686283 5.96143,56.566588 5.40312,56.35674 5.401304,55.883423 5.373073,55.300925 5.315026,55.313936 5.315178,55.313199 4.441025,55.459467 4.470331,55.289935 4.669287,54.086612 5.195235,54.007472 5.861816,53.862824" slic3r:type="contour"/>
    <polygon style="fill: white" points="11.544894,58.142312 11.722317,58.85194 11.200304,59.233095 10.692879,59.560087 10.568522,59.04486 10.41819,58.272528 11.127971,57.819479 11.446858,57.588128" slic3r:type="contour"/>
    <polygon style="fill: white" points="13.743083,58.849671 14.012499,59.731104 13.665786,60.020492 13.008336,60.5019 12.931304,60.240828 12.682214,59.233268 13.175878,58.871647 13.657387,58.482324" slic3r:type="contour"/>
    <polygon style="fill: white" points="15.865618,59.454095 16.100551,60.111419 17.469294,60.233938 17.877596,59.813908 17.91902,59.922544 18.062409,60.255755 19.265467,60.318995 19.771164,60.349945 19.90344,60.188304 19.922955,60.227843 19.990313,60.354963 21.703573,60.388067 21.850295,60.391418 21.895064,60.324003 21.904846,60.339304 21.939606,60.391776 23.528987,60.362028 23.797555,60.355819 23.886686,60.188304 23.914943,60.222835 24.021306,60.352801 25.130119,60.300532 25.718032,60.262913 25.91253,59.813895 25.997545,59.897947 26.336898,60.245822 26.641762,60.225459 27.667861,60.12658 27.989474,59.234652 28.17431,59.387568 28.916207,60.047837 29.074824,60.02884 28.94087,60.184955 28.803486,60.573648 28.728245,60.637063 28.536134,61.297219 28.496246,61.259616 28.24378,61.045383 27.64955,61.546216 26.421228,61.639427 26.343425,61.821768 26.31747,61.88862 26.100538,61.663763 26.0573,61.667044 26.044112,61.653901 25.168087,61.702368 24.381147,61.740945 24.176301,62.128972 24.10824,62.262636 23.709871,61.773851 23.643766,61.777092 23.625714,61.755139 22.355153,61.7807 22.344848,61.7966 22.297905,61.795644 21.995984,62.250739 21.895064,62.400048 21.494766,61.795747 21.445294,61.796616 21.43329,61.778045 20.348712,61.755968 20.166553,61.75285 20.146372,61.777084 20.088101,61.773723 19.782495,62.146708 19.681888,62.26264 19.405213,61.73982 19.386022,61.739492 19.38282,61.733047 18.626114,61.689404 17.750218,61.650056 17.732826,61.66706 17.695902,61.663764 17.526988,61.837259 17.472625,61.888596 17.363398,61.634084 17.035687,61.604831 16.140625,61.546212 15.855139,61.256607 15.571586,61.033738 15.25402,61.297208 15.233196,61.237483 15.04511,60.619934 14.986755,60.574067 14.835487,60.149929 14.715533,60.028748 14.876048,60.046143 15.196344,59.776852 15.800677,59.234648" slic3r:type="contour"/>
  </g></svg>