<svg width="43.790126" height="63.590156" xmlns="http://www.w3.org/2000/svg" xmlns:svg="http://www.w3.org/2000/svg" xmlns:xlink="http://www.w3.org/1999/xlink" xmlns:slic3r="http://slic3r.org/namespaces/slic3r"><g xmlns="http://www.w3.org/2000/svg" slic3r:z="1.4855e-005" id="layer44">
    <polygon style="fill: white" points="23.877668,57.418864 24.49162,58.308372 23.973788,59.330691 23.865262,59.545415 23.479999,58.962515 23.091688,58.410608 23.414705,57.761376 23.717624,57.189856" slic3r:type="contour"/>
    <polygon style="fill: white" points="25.724269,57.217587 26.3835,58.034928 25.928035,59.126396 25.848596,59.322136 25.414636,58.758692 24.996708,58.257856 25.274643,57.562728 25.530044,56.983664" slic3r:type="contour"/>
    <polygon style="fill: white" points="27.557687,56.830059 28.26914,57.572544 27.897469,58.727768 27.842214,58.9095 27.356221,58.378287 26.908884,57.93178 27.131509,57.193292 27.33339,56.604516" slic3r:type="contour"/>
    <polygon style="fill: white" points="29.359535,56.219227 30.143092,56.89642 29.878824,58.083275 29.839574,58.277632 29.310664,57.79972 28.825366,57.401488 28.980604,56.637732 29.126726,56.025599" slic3r:type="contour"/>
    <polygon style="fill: white" points="31.104835,55.355811 31.996458,55.979995 31.856971,57.138824 31.831208,57.396432 31.29045,56.995216 30.741138,56.63682 30.814152,55.886292 30.903702,55.219756" slic3r:type="contour"/>
    <polygon style="fill: white" points="32.737648,54.261904 33.755552,54.821139 33.739312,55.907332 33.743192,56.260796 33.216835,55.945075 32.585996,55.637039 32.572036,54.928652 32.59422,54.186984" slic3r:type="contour"/>
    <polygon style="fill: white" points="34.210276,52.956552 35.146606,53.334924 35.146932,53.298388 35.382931,53.382851 35.40434,53.391672 35.40834,53.427508 35.353165,53.467859 35.443736,54.40444 35.5057,54.862888 35.011331,54.630511 34.296364,54.401159 34.196844,53.751564 34.133484,52.928852" slic3r:type="contour"/>
    <polygon style="fill: white" points="39.54828,45.642056 39.456887,45.919121 39.708552,46.386128 40.074032,46.894656 39.64736,46.880992 38.966753,47.076279 38.735039,47.6101 38.875988,47.927208 38.776538,48.135162 38.970676,48.573148 39.299472,49.141008 38.882088,49.089968 38.180431,49.206114 37.874017,49.737541 37.972288,50.020316 37.877967,50.15801 38.054111,50.679647 38.306652,51.2609 37.878587,51.163144 37.098615,51.181358 36.714444,51.674403 36.780275,51.691471 36.823128,51.876968 36.748773,51.95177 36.900616,52.649176 37.052116,53.19324 36.596459,53.035419 35.814812,52.924308 35.788723,52.840332 35.649416,52.967952 35.67268,52.466817 35.632763,52.338335 35.465252,51.448324 35.489888,51.452788 35.717054,51.510952 35.717808,51.494708 36.446391,51.623384 36.595421,49.875925 36.552764,49.726571 36.559516,49.726531 36.562696,49.726919 37.437503,49.722622 37.593131,48.237467 37.437468,47.807052 37.466863,47.801924 37.638536,47.80417 37.641504,47.775844 38.462859,47.642443 38.573452,46.698656 38.509483,46.612435 38.143308,45.751708 38.23282,45.722864 38.691912,45.687716 38.702876,45.59416 39.302084,45.414219 39.425236,45.407532" slic3r:type="contour"/>
    <polygon style="fill: white" points="40.001084,43.208704 39.971776,43.344939 39.911513,43.529993 40.322552,44.19312 40.668364,44.599956 40.200436,44.615688 39.495792,44.888332 39.061108,44.389387 38.695056,43.62378 38.87916,43.541068 39.747063,43.413919 39.774244,43.20694 39.925583,43.143296 39.960335,43.139568" slic3r:type="contour"/>
    <polygon style="fill: white" points="40.857684,42.044804 41.122488,42.310544 40.568424,42.37706 39.982976,42.659324 39.446096,42.107088 39.119052,41.493712 39.435752,41.316388 40.2354,41.153224" slic3r:type="contour"/>
    <polygon style="fill: white" points="41.483448,35.086996 41.675872,35.228716 41.118921,35.493657 41.178516,35.72458 40.851992,35.969952 41.144264,36.883148 41.153127,37.163017 41.488927,37.550211 41.622972,37.65562 41.173606,37.809719 41.181172,38.048647 40.800991,38.307057 40.872851,39.347536 41.263128,39.845932 41.43922,40.000016 40.786758,40.148557 40.724424,40.552964 40.350176,40.77742 40.291419,40.724855 40.194596,40.592672 40.226948,40.311405 39.689312,39.804855 39.412288,39.345104 39.837328,39.060603 40.388422,38.907567 40.45149,38.35926 40.268572,38.133136 40.297922,37.920947 39.830768,37.511816 39.579348,37.144448 40.03548,36.787783 40.477083,36.625669 40.560001,36.026189 40.372744,35.8124 40.410075,35.625825 39.910032,35.2102 39.618888,34.839736 39.995551,34.502968 40.635772,34.194136" slic3r:type="contour"/>
    <polygon style="fill: white" points="40.664388,33.552306 40.69546,33.623668 40.6334,33.674312 40.615855,33.661116 40.594055,33.637344 40.624383,33.512508" slic3r:type="contour"/>
    <polygon style="fill: white" points="40.628967,28.853463 41.245072,29.477055 41.217363,29.652518 41.181284,29.754292 41.191572,29.763358 41.186164,29.792927 41.304252,29.88475 41.240556,29.924099 41.146066,30.012185 40.979676,30.922018 40.696148,31.665145 40.787672,31.752581 40.757185,31.950027 41.119804,32.307716 41.578624,32.654172 41.163552,32.891117 40.603104,33.379012 39.962495,32.875219 39.503972,32.356246 39.651152,32.20825 40.057675,31.952226 40.00616,31.886231 40.159478,31.721881 39.98852,31.57339 39.39166,31.237871 39.722882,30.189081 39.625788,30.08521 39.641557,30.031063 39.387579,29.843927 39.150087,29.615296 39.464203,29.25052 40.002846,28.790473 40.053192,28.617593" slic3r:type="contour"/>
    <polygon style="fill: white" points="22.157374,1.015125 22.270252,1.183327 22.643288,1.212078 22.879601,0.957472 23.089784,0.720578 23.287528,1.128149 23.382199,1.326662 23.763341,1.412115 24.036445,1.193751 24.280748,0.99056 24.415743,1.424737 24.477205,1.626972 24.899513,1.780571 25.192503,1.608748 25.451818,1.453501 25.528946,1.935671 25.547657,2.061442 25.920394,2.244973 26.078728,2.321916 26.352536,2.208296 26.586874,2.113328 26.600881,2.607695 26.876734,2.774788 27.353352,3.052548 27.536191,3.004368 27.680068,2.969922 27.653805,3.249077 27.798003,3.3547 28.617042,3.927596 28.657021,4.028615 28.712928,4.023189 28.709208,4.044915 28.690664,4.135652 28.86085,4.87462 28.973458,5.252104 29.33019,5.258929 29.668384,5.278592 29.567835,5.593425 29.476575,5.853732 29.714193,6.074397 30.4713,6.761205 30.481988,6.763593 30.479401,6.768755 30.487264,6.778989 30.429366,7.766022 30.423878,7.88036 31.103536,8.376177 31.103239,8.398738 31.116662,8.403256 31.112149,8.412275 31.102099,8.428204 31.045398,9.374824 31.541876,9.453585 31.546486,9.762534 31.558757,9.897899 31.827462,9.962009 31.716903,10.135302 31.594555,10.314359 31.630482,10.702411 31.637264,10.798006 31.835587,10.71776 32.18694,10.590849 32.286051,11.145522 32.330655,11.391524 32.78699,11.453875 32.597107,11.676019 32.487686,11.830845 32.580385,12.075553 32.720097,12.616291 32.99841,12.640858 33.486762,12.406421 33.58386,12.635835 33.606862,12.705381 33.719752,12.707733 33.659912,12.771529 34.237884,13.481962 34.318216,13.627452 34.357356,13.663589 34.613872,13.643162 34.521588,13.738812 34.502084,13.79721 35.084423,14.33486 35.181372,14.471803 35.195344,14.472215 35.255865,14.533137 35.518091,14.500078 35.42632,14.585357 35.405869,14.684131 35.972903,15.254911 36.074399,15.406149 36.120032,15.411601 36.163585,15.479551 36.469335,15.4652 36.367779,15.551206 36.323752,15.729433 36.69418,16.307354 36.800303,16.553125 36.903836,16.585478 36.922032,16.649308 37.394992,16.724828 37.232908,16.857506 37.079319,17.201065 37.156552,17.471996 37.225344,17.992981 37.817135,18.263103 38.12144,18.376068 37.818735,18.619352 37.510594,19.052984 38.02802,19.20175 38.423155,19.402888 38.467548,20.001518 38.466548,20.163454 38.687127,20.263702 38.587447,20.350632 38.464643,20.471776 38.464588,20.480682 38.451877,20.490982 38.376508,21.154167 38.278895,21.805496 39.189708,22.232047 39.210284,22.23403 39.209912,22.241306 39.21278,22.242635 39.209284,22.245612 39.052599,23.204628 38.97859,23.881296 39.384489,24.073966 39.83506,24.143746 39.827012,24.225143 39.821723,24.28151 39.82184,24.281566 39.821479,24.283661 39.89096,24.324448 39.849616,24.353567 39.802154,24.395928 39.670272,25.162123 39.548506,25.823595 39.912888,25.869738 40.520788,26.154768 40.484795,26.457608 40.431903,26.680475 40.442732,26.687646 40.434774,26.730622 40.720908,26.947532 40.555708,27.060511 40.333749,27.276171 40.284996,27.539449 40.020908,28.357002 39.238143,28.093805 38.807884,27.974136 39.045816,27.211927 38.990639,27.163545 38.992691,27.154737 38.769048,27.023624 38.44426,26.816304 38.618492,26.618703 38.94641,26.26825 38.91516,26.264891 38.918307,26.261592 38.225904,26.163 38.44798,25.109771 38.486511,24.925706 38.151952,24.777354 38.126398,24.766487 38.083831,24.758242 37.806563,24.635344 37.659971,24.637182 37.608748,24.629392 37.624152,24.553645 37.571039,24.532466 37.64126,24.471494 37.861108,22.883721 37.536639,22.737631 36.962455,22.464732 37.001512,22.432287 37.080675,22.361505 36.920904,22.308914 37.11652,20.737257 36.8656,20.617274 36.498132,20.41559 36.780052,20.168307 37.120256,19.852263 37.111028,19.846843 37.135669,19.820839 37.124634,19.463056 35.990816,18.77165 35.975907,18.765481 35.976605,18.746426 35.969356,18.743414 35.97442,18.736434 35.970055,18.712783 35.726719,17.568885 35.703724,17.564506 35.662027,17.473531 35.54422,17.463204 35.371344,17.435838 35.509539,17.140827 35.270112,16.61844 35.139324,16.615754 35.054244,16.485569 34.898007,16.503053 34.627812,16.518113 34.74823,16.017329 34.571303,15.746606 34.367808,15.753996 34.269273,15.609803 34.070596,15.642547 33.697632,15.687479 33.761464,15.287515 33.820505,15.004785 33.624079,14.96151 33.619638,14.869836 33.508438,14.870203 33.431547,14.730522 33.148495,14.75325 32.592944,14.787844 32.631332,14.627659 32.677463,14.489595 32.593042,14.483278 32.611397,14.223166 32.133654,14.346294 31.813499,13.699065 31.737284,13.695888 31.725803,13.655727 31.647315,13.648052 31.444208,13.634019 31.595465,13.199773 31.367407,12.401974 31.292843,12.393077 31.281485,12.335476 31.168496,12.312887 30.469844,12.190829 30.463,12.190505 30.461875,12.183465 30.461573,12.183411 30.461515,12.182874 30.458621,12.182249 30.461046,12.178531 30.456873,12.139855 30.308866,10.756485 30.208691,10.728676 29.807188,10.629496 29.968797,10.412901 30.026293,10.335711 29.474318,9.803599 29.48279,9.131795 29.442729,9.12065 29.256314,9.073063 29.487372,8.768538 29.488884,8.648663 29.491345,8.645153 29.468719,8.323482 28.952552,7.6676 28.700936,7.63463 28.760897,7.530842 28.784045,7.489827 28.382204,7.104107 28.275108,6.438074 28.1803,6.438423 28.018648,6.440803 28.18726,6.022034 27.936573,5.349877 27.896268,5.312479 27.610927,5.357761 27.227782,5.416387 27.305839,5.089641 27.357921,4.86742 26.793778,4.436737 26.361224,4.56454 26.385611,4.335002 26.402819,4.168791 26.130985,3.9952 25.747425,3.754757 25.459178,3.882707 25.457279,3.715909 25.45514,3.590868 25.028996,3.372618 24.767848,3.240971 24.560978,3.368978 24.542221,3.235745 24.527947,3.135286 24.050854,2.95638 23.83582,2.876977 23.669826,3.016575 23.635198,2.897535 23.609548,2.807956 23.129874,2.697409 22.925163,2.651079 22.782773,2.813013 22.730202,2.699111 22.692001,2.614633 22.223261,2.577845 22.014651,2.561666 21.895064,2.747928 21.824776,2.640168 21.774465,2.561995 21.307096,2.598688 21.096534,2.615019 21.007326,2.812999 20.925586,2.7193 20.866308,2.651806 20.387904,2.762074 20.179478,2.809248 20.120272,3.016585 20.026669,2.936145 19.957076,2.877418 19.481249,3.05596 19.262173,3.136826 19.229142,3.368972 19.114871,3.295751 19.026789,3.24094 18.592342,3.46393 18.336178,3.59293 18.33097,3.882692 18.176061,3.809905 18.051069,3.753857 17.720978,3.965705 17.388598,4.173541 17.428904,4.564538 17.197358,4.491203 17.006322,4.433929 16.88138,4.530876 16.434645,4.871041 16.458119,4.97023 16.562359,5.416387 16.199111,5.357708 15.889767,5.309748 15.846875,5.34973 15.635212,5.906624 15.60086,6.003941 15.698821,6.252 15.771479,6.440803 15.499563,6.441096 15.45288,6.688547 15.407922,7.104106 15.134831,7.350325 15.003713,7.482282 15.089182,7.634636 14.937362,7.656887 14.813374,7.673836 14.792048,7.695297 14.782293,7.697012 14.556187,7.942729 14.294047,8.295199 14.273827,8.510047 14.27219,8.607244 14.301278,8.648738 14.299721,8.755619 14.38658,8.871666 14.533813,9.073064 14.294107,9.140975 14.290621,9.380249 14.315821,9.803542 14.006297,10.05589 13.750111,10.316697 13.982931,10.629481 13.548208,10.750241 13.476737,10.769074 13.427664,11.212893 13.3291,12.177931 13.329117,12.177955 13.32908,12.178186 13.331518,12.182269 13.328574,12.183079 13.328537,12.183444 13.328213,12.183506 13.327097,12.190605 12.604698,12.39295 12.426042,12.403203 12.278729,12.923208 12.180562,13.259 12.236903,13.407807 12.345918,13.634019 12.063135,13.660677 12.052841,13.695888 11.980154,13.699925 11.910345,13.844115 11.656473,14.346294 11.362276,14.328166 11.177218,14.283114 11.197092,14.4833 11.089835,14.506789 11.197188,14.787838 10.812683,14.757676 10.367163,14.725407 10.281677,14.87021 10.168875,14.867132 10.166091,14.961497 9.958847,15.051912 9.990636,15.233074 10.0925,15.687481 9.544969,15.597923 9.422318,15.753997 9.28788,15.745207 9.060569,16.109375 9.079263,16.18626 9.162304,16.518109 8.76758,16.473516 8.650818,16.615733 8.60273,16.615447 8.454896,16.960919 8.308891,17.200074 8.329253,17.243611 8.418784,17.435838 8.150881,17.458892 8.087184,17.563227 8.045352,17.815491 7.816281,18.73718 7.8208,18.743413 7.813873,18.74567 7.814247,18.765482 7.210842,19.257765 6.661517,19.494501 6.649908,19.815542 6.693464,19.862387 6.948481,20.089874 7.292001,20.415598 6.654989,20.721432 6.724387,21.375601 6.869216,22.309022 6.81066,22.334709 6.720464,22.365288 6.827686,22.464752 6.744817,22.502165 5.915919,22.884771 6.000905,23.579277 6.141003,24.435994 6.142394,24.437539 6.146732,24.459849 6.189667,24.499253 6.219112,24.53241 6.16437,24.556513 6.181405,24.629332 6.022356,24.619047 5.706513,24.758122 5.688111,24.761352 5.306624,24.927849 5.416172,25.443601 5.564242,26.162936 5.346224,26.160863 4.836856,26.222918 4.875044,26.264902 4.832878,26.268511 5.01484,26.469767 5.345859,26.81632 4.795196,27.142339 4.799503,27.163565 4.758758,27.19446 4.872948,27.542775 4.982242,27.974104 4.521729,28.139946 3.769305,28.357054 3.537733,27.440645 3.499769,27.411093 3.069228,26.94753 3.2362,26.793611 3.352676,26.70831 3.347449,26.687626 3.374916,26.668431 3.269361,26.154676 3.493392,26.146738 4.25322,25.874694 3.991507,24.411465 3.899164,24.324478 3.968316,24.282397 3.955066,24.143772 4.023957,24.142016 4.400675,24.095599 4.483831,24.05983 4.794637,23.904174 4.580705,22.245613 4.577343,22.242605 4.580199,22.241397 4.579841,22.234 4.58438,22.233317 4.604784,22.231027 5.093733,22.022946 5.524343,21.809479 5.347634,20.51087 5.102996,20.26371 5.221443,20.208781 5.33802,20.155846 5.366945,19.402946 5.935038,19.243509 6.281868,19.101333 5.778748,18.554725 5.668669,18.376065 6.083929,18.140778 6.614813,17.941487 6.641839,17.923404 6.732343,17.428076 6.535064,17.144908 6.395121,16.72482 6.672163,16.600362 6.955482,16.55051 7.143986,16.455282 7.235875,16.300276 7.383,15.999181 7.320821,15.465166 7.52581,15.399743 7.697122,15.402447 7.87429,15.342546 8.18257,15.025645 8.304103,14.862475 8.271987,14.500094 8.468168,14.455023 8.6055,14.46955 8.74403,14.435027 9.098308,14.10565 9.247225,13.916422 9.176251,13.643178 9.365962,13.608064 9.481057,13.618435 9.538737,13.605616 10.045425,12.937221 10.126213,12.804381 10.070378,12.707702 10.147852,12.694224 10.192755,12.694335 10.303373,12.40639 10.378505,12.545137 10.504789,12.626102 10.770724,12.568402 11.126097,12.564794 11.319805,11.902045 11.221025,11.772528 11.003168,11.453856 11.309977,11.394137 11.461912,11.374777 11.603131,10.59097 12.039301,10.774213 12.161907,10.820057 12.201771,10.307578 12.135373,10.20797 11.962669,9.962008 12.126948,9.936523 12.219921,9.914255 12.24825,9.453574 12.714689,9.329211 12.693654,8.657637 12.686978,8.421643 12.673475,8.403255 12.685682,8.401889 12.686562,8.376256 12.782005,8.302879 13.359135,7.863339 13.30207,6.764601 13.317947,6.761943 13.343899,6.738007 14.320679,5.840769 14.223457,5.546973 14.121758,5.278592 14.370198,5.278768 14.78551,5.262723 14.933418,4.71724 15.099322,4.118279 15.094873,4.098859 15.077195,4.023218 15.126669,4.030749 15.173071,3.927636 16.142404,3.238791 16.128788,3.103259 16.110056,2.969915 16.40756,3.050358 16.410623,3.048183 16.426972,3.052513 16.736183,2.86602 17.199425,2.593366 17.205088,2.351893 17.20326,2.113306 17.670567,2.308289 17.704567,2.322232 18.140386,2.107825 18.248841,2.055016 18.297371,1.746156 18.338309,1.453507 18.735786,1.685619 18.895587,1.780305 19.315681,1.627466 19.418616,1.294583 19.509406,0.990535 19.860891,1.269641 20.036296,1.412656 20.410116,1.328841 20.564757,1.008714 20.700342,0.720582 21.01161,1.053373 21.155895,1.212256 21.526167,1.183719 21.722817,0.896373 21.895064,0.634364" slic3r:type="contour"/>
    <polygon style="fill: white" points="3.806383,28.818493 4.36902,29.404851 4.640041,29.615256 4.141865,29.988639 4.164303,30.085172 4.100002,30.143496 4.247177,30.552703 4.398465,31.23788 4.125361,31.534017 3.686733,31.794576 3.783939,31.886206 3.69949,32.04529 4.286155,32.356264 4.04617,32.543684 3.187113,33.378887 2.505023,32.939158 2.211484,32.654154 2.575202,32.23671 3.037183,31.885554 3.002474,31.752546 3.120992,31.621104 2.694215,30.10373 2.485867,29.88472 2.543787,29.821322 2.602174,29.776482 2.598491,29.763387 2.622523,29.739257 2.545015,29.477248 2.672324,29.435116 3.736857,28.617618" slic3r:type="contour"/>
    <polygon style="fill: white" points="3.187419,33.584935 3.195957,33.637376 3.156606,33.674339 3.137262,33.662088 3.094556,33.6237 3.165622,33.512543" slic3r:type="contour"/>
    <polygon style="fill: white" points="3.821342,34.715392 4.171233,34.839716 3.668985,35.250036 3.388918,35.553171 3.41741,35.812284 3.244156,35.984882 3.367437,36.713035 3.898421,37.075344 4.210771,37.144472 3.699924,37.577239 3.507917,37.811188 3.521518,38.133084 3.35636,38.311394 3.439752,38.965112 4.011464,39.299556 4.377841,39.345092 3.963213,39.719587 3.589022,40.229741 3.595485,40.59274 3.439934,40.777472 3.359075,40.743367 3.065748,40.553032 3.069072,40.290118 2.520548,40.110215 2.350913,39.999992 2.810653,39.30454 3.084659,39.057674 3.092974,38.400088 3.068498,38.387875 2.60882,38.048588 2.63827,37.898009 2.282878,37.744139 2.167138,37.655656 2.688916,36.944756 2.850357,36.813606 3.000888,36.043935 2.611541,35.724484 2.67263,35.583426 2.260173,35.355964 2.114254,35.22866 2.624695,34.595251 3.154275,34.193944" slic3r:type="contour"/>
    <polygon style="fill: white" points="4.197985,41.46818 4.67107,41.493708 4.394816,41.76556 3.807296,42.659288 2.949647,42.462592 2.667634,42.310576 3.034559,41.686284 3.554706,41.153264" slic3r:type="contour"/>
    <polygon style="fill: white" points="4.016148,43.206935 4.146033,43.47514 4.502753,43.615208 5.09507,43.623768 4.94732,43.787195 4.294293,44.888299 3.525671,44.775395 3.121774,44.599936 3.403345,44.061032 3.879068,43.49562 3.789107,43.2087 3.811369,43.162543 3.829903,43.139496" slic3r:type="contour"/>
    <polygon style="fill: white" points="5.087274,45.594132 5.175791,45.769234 5.64682,45.751704 5.581318,45.838159 5.392376,46.197674 5.977182,47.354516 5.789627,47.727471 6.148597,47.775848 6.175486,47.825928 6.352659,47.807052 6.333956,47.837575 6.264934,47.992524 7.152423,49.645468 7.095892,49.727719 7.181665,49.72674 7.186841,49.736192 7.237376,49.72662 7.233865,49.734111 7.21503,49.787667 7.998706,51.218748 7.755074,51.55347 8.072278,51.494719 8.084593,51.519734 8.324877,51.448324 8.315825,51.477431 8.2343,51.82384 8.518242,52.40062 8.140591,52.967832 7.996573,52.833965 7.975312,52.924307 7.189322,53.133968 6.738011,53.193224 6.837277,52.635319 7.033198,51.938487 6.966997,51.876952 6.987064,51.767404 7.00984,51.691496 7.084269,51.677711 6.707341,51.184404 5.978007,51.281844 5.483472,51.26088 5.628343,50.741583 5.898176,50.125403 5.817839,50.02026 5.865477,49.850347 5.922618,49.723956 5.642683,49.225219 4.990629,49.238008 4.490649,49.14102 4.67413,48.643712 5.000813,48.081655 4.914118,47.927195 4.982123,47.738808 5.063302,47.600193 4.85275,47.098249 4.188984,47.048328 3.716098,46.894663 3.9412,46.396763 4.330643,45.853573 4.241894,45.642 4.306946,45.49 4.364957,45.407472" slic3r:type="contour"/>
    <polygon style="fill: white" points="9.641724,53.025955 9.493781,54.401103 8.656149,54.745836 8.28445,54.86292 8.327714,54.251427 8.435309,53.464215 8.381822,53.427552 8.38346,53.406763 8.385827,53.39168 8.643427,53.298312 8.65757,53.337659 8.965105,53.225375 9.656616,52.928819" slic3r:type="contour"/>
    <polygon style="fill: white" points="11.192111,54.376848 11.204088,55.637108 10.325313,56.125844 10.046955,56.260816 10.025442,55.595315 10.034629,54.821072 10.586471,54.531428 11.195907,54.186992" slic3r:type="contour"/>
    <polygon style="fill: white" points="12.912985,55.493751 13.049051,56.636768 12.155097,57.268904 11.958944,57.396432 11.864137,56.687723 11.793628,55.980084 12.361989,55.594456 12.886447,55.219752" slic3r:type="contour"/>
    <polygon style="fill: white" points="14.728643,56.347724 14.964712,57.401536 14.093676,58.160423 13.95055,58.277619 13.778576,57.548539 13.647005,56.896412 14.211172,56.425768 14.6634,56.025596" slic3r:type="contour"/>
    <polygon style="fill: white" points="16.551838,56.921288 16.881272,57.931772 16.077268,58.780567 15.947934,58.909508 15.710704,58.19676 15.520935,57.57266 16.048595,57.040671 16.456736,56.60454" slic3r:type="contour"/>
    <polygon style="fill: white" points="18.373715,57.268891 18.79345,58.257931 18.074795,59.162576 17.941532,59.322164 17.654828,58.646272 17.406662,58.034867 17.880229,57.463476 18.260082,56.983636" slic3r:type="contour"/>
    <polygon style="fill: white" points="20.196322,57.439352 20.69841,58.410532 20.063026,59.349127 19.924872,59.545428 19.603223,58.911215 19.298522,58.308412 19.714113,57.71324 20.072498,57.189864" slic3r:type="contour"/>
    <polygon style="fill: white" points="22.029426,57.476304 22.596625,58.419512 22.027683,59.389004 21.895088,59.609863 21.546978,59.008412 21.1935,58.419587 21.557468,57.805915 21.895064,57.249568" slic3r:type="contour"/>
  </g></svg>