<svg width="43.790126" height="63.590156" xmlns="http://www.w3.org/2000/svg" xmlns:svg="http://www.w3.org/2000/svg" xmlns:xlink="http://www.w3.org/1999/xlink" xmlns:slic3r="http://slic3r.org/namespaces/slic3r"><g xmlns="http://www.w3.org/2000/svg" slic3r:z="1.2215e-005" id="layer36">
    <polygon style="fill: white" points="37.473606,24.587444 38.080592,24.728896 38.66048,24.72245 38.586219,24.927716 38.552265,25.096366 38.86604,25.244572 38.704267,25.446428 38.432704,25.714295 38.228289,25.991999 38.183355,26.208602 38.827116,26.28207 39.321496,26.319424 39.217096,26.671603 39.1382,27.031087 39.73808,27.392678 39.400272,27.719963 39.140515,27.974014 39.141904,27.974369 39.077047,28.037703 39.739475,28.159135 40.027956,28.2678 39.876691,28.920794 39.728146,29.396821 39.74872,29.411791 39.721515,29.561285 39.908588,29.719532 40.491367,30.160288 40.048856,30.46828 39.817986,30.672431 39.948736,30.768082 39.712303,30.979238 40.356079,31.292901 40.734328,31.712612 40.634672,32.284618 40.547991,32.535354 40.584464,32.571002 40.571391,32.717284 40.85232,32.937198 40.699564,33.011058 40.53364,33.139686 40.466128,33.895127 40.293278,34.601757 40.418664,34.745064 40.400707,35.087947 40.883992,35.502144 40.601156,35.582579 40.366878,35.733888 40.354992,35.960848 40.170934,36.952685 40.32112,37.149296 40.298434,37.500009 40.728144,37.91264 40.460887,37.949152 40.262582,38.054252 40.21916,38.725519 40.069433,39.573841 40.17068,39.722711 40.145724,39.941433 40.41542,40.235192 40.241332,40.240024 40.104944,40.298847 39.917072,41.945419 39.84473,42.281174 39.878124,42.335499 39.864487,42.403176 39.961128,42.523924 39.896972,42.521016 39.836524,42.541951 39.388548,44.76518 39.361392,44.820663 39.370796,44.833856 39.351662,44.831673 38.460405,46.82044 38.572051,47.059711 38.604628,47.114208 38.348215,47.070781 38.303932,47.169596 37.329192,47.318564 37.277779,47.235895 37.22488,47.090976 37.293441,46.919566 36.92662,46.35388 36.677964,45.726136 36.980816,45.678832 37.786919,45.685818 38.040895,45.050852 37.947616,44.82634 38.00182,44.643063 37.628048,44.159992 37.367468,43.585584 37.718359,43.4873 38.355876,43.445914 38.576818,42.698855 38.44034,42.394664 38.476507,42.222637 38.146364,41.849255 37.911384,41.369344 38.362491,41.19696 38.699937,41.159895 38.898563,40.215132 38.71798,39.841736 38.735918,39.7301 38.507716,39.49214 38.339632,39.170372 38.865653,38.922699 38.983336,38.190312 38.981162,37.569727 38.851328,37.328495 38.858765,37.2776 38.733419,37.155287 38.636044,36.985711 38.925923,36.81796 38.999396,36.315108 39.019453,35.117472 38.934552,34.980835 38.939378,34.953138 38.845175,34.866595 38.765736,34.74702 39.005491,34.573691 39.147371,33.759384 39.22837,33.041743 39.081588,32.84636 39.09134,32.808169 38.870872,32.61804 38.663584,32.36782 39.100759,31.969304 39.333688,31.859151 39.545942,31.02798 39.503187,30.99381 39.40326,30.883964 39.42266,30.819526 38.844376,30.377191 38.623722,30.169648 38.363008,30.066124 38.282848,30.057254 38.325836,29.885367 38.275684,29.85085 38.227868,29.816548 38.368938,29.672206 38.782054,28.180157 38.633907,28.094122 37.876255,28.050449 37.635928,28.013783 37.738267,27.61899 37.614036,27.557212 37.439636,27.494672 37.83958,27.085457 37.883917,27.032325 38.044849,26.38934 37.371304,26.414168 36.946824,26.328494 37.074252,25.797759 36.929524,25.733522 36.68534,25.659585 37.133684,25.261206 37.230246,25.148056 37.354768,24.62943 37.410579,24.560992" slic3r:type="contour"/>
    <polygon style="fill: white" points="37.659352,22.356322 38.059428,22.41462 37.830443,22.864744 37.682205,23.155238 38.28816,23.498568 38.015392,23.807349 37.402256,24.286404 36.854596,23.998368 36.121092,23.6343 36.173645,23.593803 36.10716,23.56806 36.140428,23.494775 36.917131,22.02757" slic3r:type="contour"/>
    <polygon style="fill: white" points="21.942926,0.108747 22.003631,0.196673 22.017442,0.195854 22.027958,0.211071 22.839147,0.259561 23.025505,0.270615 23.037298,0.257569 23.049388,0.260092 23.176868,0.120416 23.21379,0.193107 23.260174,0.284534 23.27503,0.285415 23.287671,0.309829 24.083969,0.476038 24.274445,0.514742 24.287523,0.503806 24.297432,0.507802 24.453936,0.381017 24.48115,0.461859 24.515031,0.563627 24.531723,0.56702 24.546299,0.608185 25.239083,0.887626 25.45959,0.972117 25.474422,0.963089 25.482613,0.968585 25.704408,0.841726 25.722875,0.947184 25.744992,1.081472 25.766072,1.089549 25.78178,1.169327 26.238299,1.475653 26.522536,1.65104 26.537822,1.64475 26.543267,1.650589 26.902532,1.519133 26.90592,1.678702 26.905995,1.887653 26.93445,1.905211 26.941948,2.078107 27.042418,2.185843 27.416137,2.535838 27.461261,2.52538 28.015284,2.415911 27.98449,2.669328 27.931185,3.018193 27.968356,3.053004 27.943488,3.30593 28.157443,3.584419 28.598529,3.53829 29.04368,3.50933 28.951169,3.881698 28.814364,4.360446 29.153847,4.702413 29.271068,4.70791 29.326139,4.776073 29.694054,4.775229 29.997778,4.788004 29.815379,5.289621 29.790571,5.350912 30.122496,5.761744 30.444078,6.15535 30.52229,6.167518 30.552867,6.214749 30.722168,6.228702 30.87688,6.248918 30.748879,6.517519 30.904773,6.758321 31.603852,7.86165 31.613428,7.863721 31.616548,7.869854 31.654477,7.87682 31.63619,7.908466 31.654959,7.94536 31.826084,8.287608 31.946276,9.161055 32.016001,9.465159 32.324218,9.535487 32.25238,9.631039 32.097867,9.822218 32.107436,9.863954 31.889859,10.198174 32.412924,10.946244 32.46507,10.956537 32.9616,11.065081 32.885941,11.162313 32.706536,11.366158 32.735584,11.407702 32.534248,11.710481 32.858442,11.775901 33.278468,11.625072 33.55508,12.360827 33.584388,12.366777 33.588972,12.382348 33.627375,12.389878 33.716708,12.406232 33.639406,12.553663 33.91487,13.489365 34.089812,13.53559 34.10808,13.606315 34.310543,13.652164 34.877112,13.795743 34.84262,14.000745 34.801977,14.098886 34.890484,14.123434 34.870677,14.236604 35.26746,14.196425 35.223848,14.463159 35.28221,15.3677 35.471248,15.443789 35.461002,15.593991 35.745084,15.710466 36.45154,16.101715 36.456374,16.20026 36.464159,16.204157 36.463083,16.213451 36.530988,16.235419 36.510536,16.259871 36.430495,16.495015 36.364955,17.061254 36.205315,17.574068 36.89222,18.067145 37.339912,18.330258 36.96422,18.71529 36.808423,19.008933 37.293016,19.257474 37.610052,19.47277 37.464043,19.979504 37.335534,20.284215 37.883796,20.772738 37.639911,20.971094 37.029203,21.653788 36.432647,21.214663 35.80092,20.694868 35.837479,20.664898 35.910329,20.58749 35.7608,20.507922 35.861356,20.247531 36.254699,19.228344 36.268425,19.124411 35.750891,18.861977 35.318891,18.596904 35.510803,18.310808 35.766457,17.918841 35.725388,17.897416 35.802226,17.713201 34.914139,17.252505 34.766096,17.194784 34.793451,17.088442 34.793929,17.021045 34.73226,17.00446 34.67628,16.982226 34.797856,16.466864 34.801098,16.009355 34.724396,16.001401 34.678288,15.761838 34.3096,15.773195 33.936244,15.746142 33.941048,15.251539 33.969009,14.929868 33.898403,14.902219 33.886963,14.841474 33.687904,14.789149 33.102994,14.929093 33.062424,14.716017 33.050356,14.621563 33.018672,14.613234 32.990271,14.531095 32.481826,14.444618 32.67678,14.121118 32.701291,13.959261 32.45172,14.027996 32.511123,13.702798 32.249416,13.855026 31.980958,13.909822 31.75192,13.286227 31.718354,13.154593 31.696974,13.149812 31.64503,13.032692 31.212686,12.939722 31.444353,12.717056 31.480743,12.662275 31.253686,12.150323 31.145069,11.821619 31.139743,11.820171 31.100212,11.742046 30.659458,11.645242 30.871115,11.455142 30.923557,11.392927 30.440344,10.437969 30.354266,10.227318 30.209302,10.195925 30.290194,10.117495 30.07506,9.751708 30.311075,8.776306 29.967091,8.693537 29.707568,8.660784 29.924268,8.405359 30.042555,8.2176 29.682245,7.731481 29.338483,7.205987 29.074596,7.189415 29.13435,7.094068 29.173217,7.018217 28.597438,6.359525 28.499518,5.902018 28.395813,5.898606 28.323776,5.901828 28.440286,5.639503 28.083972,4.74646 27.730292,4.77463 27.50884,4.804533 27.631212,4.403385 27.743428,3.926568 27.719245,3.885431 27.50312,3.704236 26.98837,3.812795 26.658234,3.896692 26.709378,3.588946 26.748371,3.223614 26.346403,2.959456 26.180516,3.020916 25.78094,3.18452 25.784804,2.957711 25.773935,2.690588 25.688913,2.654167 25.241487,2.43451 24.863772,2.661312 24.838848,2.493967 24.796368,2.2816 24.506505,2.197192 24.173419,2.084501 23.905072,2.304605 23.863226,2.175675 23.799113,1.99947 23.400165,1.932229 23.119191,1.876603 22.912132,2.100161 22.857148,1.992901 22.773208,1.835993 22.333319,1.81209 22.068005,1.794746 21.895064,2.03608 21.826135,1.940184 21.719212,1.791101 21.293822,1.814089 21.023817,1.83173 20.877998,2.100166 20.792719,2.011699 20.658007,1.867839 20.295174,1.928063 20.005612,1.985417 19.885046,2.304606 19.772833,2.21911 19.58932,2.071582 19.349216,2.139251 19.014951,2.252677 18.926343,2.661309 18.768397,2.57629 18.498156,2.418724 18.449239,2.438604 18.037677,2.642142 18.036856,2.709369 18.009196,3.184519 17.779076,3.103859 17.390791,2.951253 17.051581,3.177057 17.09756,3.514314 17.131892,3.896692 16.798058,3.833325 16.249404,3.703782 16.082176,3.846575 16.050184,3.899815 16.227103,4.554421 16.281268,4.804548 15.815097,4.779377 15.657091,4.76164 15.465732,5.215405 15.350084,5.577426 15.3564,5.594473 15.353972,5.602967 15.440516,5.821806 15.466377,5.901801 15.26461,5.915623 15.221597,6.066118 15.192693,6.359539 14.747149,6.823173 14.617612,6.990737 14.715551,7.189383 14.580249,7.215037 14.380635,7.233999 14.062861,7.602908 13.734356,8.127232 13.905434,8.366224 14.082549,8.660794 13.668906,8.788895 13.298045,8.851349 13.365606,9.403458 13.715121,9.751547 13.548775,9.989942 13.499102,10.092481 13.580842,10.19589 13.486326,10.229288 13.40176,10.24952 12.98519,10.987041 12.855268,11.310345 13.13063,11.645265 12.812064,11.766166 12.65809,11.801011 12.650396,11.820157 12.578953,11.849126 12.416787,12.220372 12.310063,12.526872 12.384354,12.617401 12.577441,12.939722 12.232696,13.087514 12.106595,13.11121 12.093147,13.149831 12.036117,13.171539 11.809125,13.909891 11.438841,13.608377 11.314481,13.56827 11.338414,14.028042 11.253128,14.000693 11.328333,14.205617 11.308342,14.444595 10.91244,14.581279 10.776103,14.596407 10.771454,14.613203 10.727972,14.633864 10.687114,14.929102 10.464414,14.844179 10.351629,14.812682 10.31119,14.831898 9.897861,14.898316 9.791501,14.966149 9.85389,15.746128 9.217761,15.719251 9.054444,16.022326 9.09586,16.433146 9.045951,16.743869 9.082309,16.879788 9.113846,16.982225 9.00292,17.011761 8.99606,17.054468 9.011217,17.11016 9.024031,17.194788 8.516681,17.538206 8.00054,17.744862 8.064761,17.897426 8.028268,17.917983 8.072897,17.985218 8.471237,18.596936 7.907314,18.883551 7.532275,19.096045 7.543804,19.249525 7.777239,19.853863 8.029328,20.507952 7.973324,20.546156 7.892242,20.590112 7.989205,20.694898 7.910748,20.753006 6.760945,21.653792 6.230453,21.176612 5.906339,20.772713 6.137004,20.552534 6.486735,20.243524 6.180109,19.472705 6.785627,19.165354 6.85544,19.122922 6.845516,19.106804 6.927327,19.053767 6.565842,18.617712 6.450225,18.33027 6.917335,17.938544 7.607824,17.540248 7.549875,17.265555 7.415786,17.055974 7.259137,16.235419 7.291559,16.213885 7.349872,16.194295 7.338585,16.101715 7.531512,16.017205 7.814991,15.882207 8.084573,15.704727 8.295817,15.639036 8.318888,15.443819 8.436642,15.403726 8.358796,14.843809 8.522645,14.196459 8.708913,14.116022 8.915599,14.115697 9.041357,14.05444 8.91305,13.795715 9.656409,13.622342 9.700349,13.535552 9.775639,13.519837 9.869298,13.078023 10.145347,12.494473 10.073446,12.406205 10.198584,12.381934 10.20577,12.366743 10.22498,12.363181 10.263326,12.241529 10.511602,11.62521 10.813202,11.455932 11.115549,11.496585 11.054603,11.407827 11.092767,11.32679 10.82852,11.065137 11.016499,11.027847 11.256803,10.978484 11.494359,10.47407 11.817058,10.065227 11.682713,9.864023 11.694319,9.798986 11.465886,9.535517 11.596448,9.507576 11.75247,9.47314 11.964038,8.287613 12.155381,7.906209 12.135649,7.876819 12.17273,7.871627 12.176697,7.86372 12.186764,7.861649 12.241894,7.776131 13.048715,6.511075 12.985372,6.381394 12.913224,6.248911 13.230162,6.226576 13.267838,6.167502 13.341954,6.157255 13.832531,5.55137 14.010289,5.332992 13.904238,5.0502 13.792345,4.788022 14.294404,4.795483 14.450977,4.791602 14.519134,4.707871 14.625311,4.704578 14.981544,4.347444 14.867087,3.904758 14.746443,3.509341 15.099124,3.550303 15.591921,3.589634 15.843501,3.253635 15.82177,3.053003 15.871017,3.002249 15.862494,2.936597 15.774842,2.415919 16.006639,2.471871 16.321458,2.538016 16.427757,2.428463 16.851026,2.026155 16.855678,1.905211 16.89099,1.881865 16.887588,1.519139 17.030478,1.575978 17.236658,1.653327 17.747234,1.315759 18.011897,1.15156 18.024024,1.089549 18.04753,1.080106 18.08569,0.841726 18.177506,0.895717 18.305392,0.969471 18.31568,0.963088 18.324756,0.968739 19.046022,0.678992 19.245861,0.602315 19.25841,0.567009 19.275762,0.563387 19.336192,0.381016 19.403205,0.435523 19.492277,0.507765 19.502599,0.503805 19.514182,0.513625 20.319366,0.345565 20.503254,0.308201 20.515146,0.28537 20.530061,0.284479 20.613258,0.12041 20.66911,0.181192 20.741069,0.259879 20.75277,0.257501 20.76441,0.270488 21.575627,0.222052 21.762134,0.210993 21.772686,0.195811 21.787021,0.196668 21.895064,0.039809" slic3r:type="contour"/>
    <polygon style="fill: white" points="7.226952,22.869504 7.682963,23.56806 7.6281,23.598397 7.669034,23.6343 7.636699,23.651272 6.387827,24.286408 5.862868,23.752645 5.501971,23.498586 5.789828,23.399504 6.132711,23.202721 5.730698,22.414606 6.263316,22.16799 6.872999,22.027558" slic3r:type="contour"/>
    <polygon style="fill: white" points="6.399193,24.58154 6.435388,24.629464 6.528987,25.051278 6.915175,25.419502 7.104773,25.659602 6.702789,25.834534 6.743269,26.01696 6.843286,26.328472 6.355748,26.268502 5.737537,26.37007 5.852086,26.861722 5.856939,26.86714 5.881327,26.960875 6.199046,27.3038 6.350478,27.49473 6.056867,27.635519 6.098113,27.794043 6.154193,28.013872 5.554707,28.028436 5.1982,28.075057 5.013494,28.17883 5.263653,28.991062 5.436273,29.70495 5.513723,29.779133 5.562259,29.816582 5.469933,29.880499 5.489632,29.94764 5.507278,30.057272 4.874948,30.383612 4.368793,30.809146 4.386909,30.88394 4.248119,31.015497 4.56968,32.005078 4.578749,32.060011 4.891971,32.302586 5.126555,32.36784 4.693139,32.752895 4.708566,32.846338 4.632778,32.93042 4.75512,33.463338 4.83606,34.686363 4.927253,34.742032 5.024404,34.747032 4.850856,34.909936 4.855551,34.98088 4.817082,35.030433 4.873458,35.347955 4.926131,36.944307 5.023197,36.992152 5.154079,36.985652 4.934615,37.201391 4.938808,37.328452 4.882699,37.41003 4.979577,37.970424 5.036533,39.121644 5.201568,39.188536 5.450528,39.170396 5.059094,39.57766 5.07216,39.841768 4.973158,40.00023 5.223839,41.159791 5.238558,41.304085 5.49564,41.389416 5.87872,41.369312 5.472216,41.826603 5.316839,42.071524 5.349798,42.394644 5.23436,42.594177 5.517283,43.509747 5.951237,43.61548 6.422644,43.58554 6.137117,43.954312 5.791674,44.555224 5.842495,44.826379 5.745117,45.010872 6.037452,45.710689 6.589683,45.783396 7.112169,45.726156 6.897919,46.057728 6.498853,46.863653 6.56522,47.090975 6.460908,47.318564 6.336976,47.323492 5.486184,47.169596 5.485822,47.114418 5.231772,47.122587 5.185498,47.114208 5.480653,46.325883 5.472928,45.147264 4.41928,44.834028 4.44648,44.772524 4.401576,44.765252 4.052827,42.812851 3.985633,42.585201 3.828985,42.523896 3.867123,42.444828 3.923503,42.374709 3.911949,42.335568 3.973391,42.211451 3.884406,40.970288 3.768855,40.426258 3.374706,40.235188 3.487691,40.024292 3.646708,39.851175 3.619424,39.72272 3.813319,39.36823 3.808033,39.17268 3.655955,38.265106 3.061987,37.912623 3.251121,37.59998 3.5038,37.357083 3.468979,37.149272 3.692823,36.787435 3.558326,35.932748 3.440282,35.887167 2.906116,35.502116 3.124106,35.185691 3.40312,34.946459 3.371435,34.745107 3.565912,34.473646 3.340152,33.281286 2.937821,32.937146 3.065697,32.775272 3.221378,32.65398 3.205662,32.570976 3.274682,32.490039 3.055801,31.712618 3.485494,31.528471 4.093426,31.014932 3.841446,30.768078 3.957994,30.698775 3.522979,30.37303 3.298749,30.160316 3.721318,29.752632 4.063889,29.502346 4.041434,29.41178 4.08759,29.374595 3.762188,28.267766 4.356506,28.183491 4.734424,28.063561 4.645641,27.971733 4.282022,27.618256 4.052067,27.392632 4.426337,27.161538 4.635996,27.035772 4.468662,26.31932 4.889232,26.267961 5.592017,26.207311 5.501286,25.89324 5.364076,25.723296 5.343361,25.634858 5.312724,25.599717 4.924099,25.244558 5.117341,25.18333 5.225149,25.130178 5.12965,24.722466 5.43188,24.642734 6.33295,24.58401 6.379579,24.561022" slic3r:type="contour"/>
    <polygon style="fill: white" points="6.831952,47.821263 7.428702,47.817556 7.969818,47.715032 7.798015,48.054683 7.446111,48.945738 7.524868,49.12982 7.497764,49.203554 7.905567,49.748402 8.483277,49.646836 9.013167,49.484344 8.876699,49.872228 8.637814,50.74631 8.735467,50.904379 9.249212,51.398331 9.787017,51.20784 10.272253,50.9887 10.179941,51.457024 10.072273,52.211171 10.111332,52.253995 10.822132,52.761402 11.294062,52.512879 11.717278,52.256396 11.681683,52.816331 11.668635,53.381075 12.541027,53.850823 12.942085,53.570179 13.302315,53.291108 13.337439,53.926776 13.370728,54.305466 14.323087,54.693588 14.664933,54.392688 14.973949,54.09468 15.08354,54.763052 15.135387,55.031801 16.091047,55.324778 16.394629,54.99656 16.675447,54.66962 16.843347,55.304683 16.923895,55.579737 17.851197,55.775986 18.133678,55.407123 18.3987,55.043892 18.60643,55.61694 18.736646,55.95281 19.618998,56.061051 19.886146,55.645444 20.139526,55.245872 20.372667,55.755819 20.562122,56.153809 21.404866,56.187081 21.654927,55.72936 21.895064,55.303528 22.152012,55.773643 22.382687,56.188824 23.219084,56.155818 23.436376,55.679979 23.65062,55.24588 23.951811,55.714539 24.17625,56.066215 25.038478,55.96051 25.212868,55.478183 25.391456,55.0439 25.750946,55.513608 25.952209,55.783191 26.84719,55.593696 26.975456,55.105739 27.114706,54.6696 27.531388,55.12026 27.719629,55.331902 28.635218,55.050456 28.717058,54.545327 28.81619,54.09466 29.267478,54.491752 29.491615,54.699034 30.401101,54.326304 30.429858,53.782511 30.487813,53.291136 30.929883,53.599915 31.273438,53.854253 32.105728,53.402463 32.065858,52.803568 32.072854,52.25642 32.478696,52.469188 32.991677,52.761858 33.651903,52.284966 33.705219,52.232777 33.576451,51.591515 33.517872,50.9887 33.876452,51.114156 34.561657,51.39443 35.070634,50.896206 35.067992,50.882848 35.145158,50.776919 34.913332,50.125672 34.776992,49.484316 35.09486,49.537612 35.900812,49.739612 36.288179,49.207861 36.265256,49.12982 36.342435,48.985991 36.025351,48.363903 35.820328,47.715044 36.11568,47.712408 36.974207,47.808659 37.218364,47.353664 37.28685,47.385692 37.309416,47.360269 37.304566,47.393977 37.993456,47.71614 37.50961,48.95792 37.61646,49.250096 37.634799,49.289612 37.403131,49.231195 37.37596,49.300928 36.617449,49.317763 36.60289,49.397889 37.172883,49.62666 36.996888,50.340339 36.443987,51.186344 36.411818,51.229487 36.413995,51.238368 36.41007,51.242524 36.422132,51.283372 36.384417,51.269678 35.073375,52.65748 34.928215,52.797028 34.931556,52.824232 34.919527,52.833499 34.944963,52.999011 34.88322,52.968848 34.784243,52.937717 33.568467,53.874312 33.276906,54.081808 33.277286,54.120076 33.260332,54.129811 33.269258,54.430072 33.161705,54.363127 32.99501,54.282159 31.956401,54.878528 31.510882,55.117125 31.506718,55.160376 31.486276,55.16922 31.451914,55.587588 31.308901,55.477152 31.096739,55.337747 30.25132,55.703503 29.677373,55.935811 29.668736,55.979372 29.644193,55.987357 29.552538,56.481292 29.393598,56.331216 29.16762,56.142408 28.458257,56.373196 27.815181,56.569025 27.802726,56.610964 27.780122,56.616062 27.635336,57.118075 27.485291,56.946303 27.274467,56.730103 26.581471,56.886396 25.926491,57.024134 25.912918,57.05886 25.896964,57.060957 25.714324,57.529868 25.583771,57.352479 25.400916,57.126159 24.655484,57.224143 24.024593,57.301107 24.012228,57.326967 24.004893,57.327277 23.799052,57.75008 23.688465,57.575335 23.533525,57.347222 22.733643,57.381064 22.130897,57.404731 21.895064,57.812556 21.797941,57.638075 21.673306,57.422698 21.671532,57.422768 21.660926,57.40337 20.862297,57.369519 20.265168,57.346087 19.991106,57.75008 19.898674,57.5608 19.784964,57.327244 19.77792,57.326968 19.763055,57.296059 19.029326,57.19932 18.404079,57.123084 18.075804,57.529868 17.989706,57.31874 17.889131,57.060296 17.877214,57.058843 17.859652,57.015244 17.195634,56.865228 16.536413,56.7265 16.154791,57.118076 16.082217,56.890115 16.002864,56.614218 15.987418,56.610968 15.970319,56.556748 15.31601,56.344179 14.646598,56.139763 14.23759,56.481311 14.187269,56.255215 14.137284,55.984235 14.121395,55.979383 14.108585,55.921359 13.333061,55.587759 12.719146,55.337794 12.338213,55.587588 12.314736,55.394964 12.296225,55.165595 12.283397,55.160372 12.276328,55.101947 11.26807,54.527919 10.819703,54.285778 10.520893,54.430076 10.517832,54.290704 10.523077,54.125583 10.512863,54.120067 10.511761,54.067118 9.260916,53.11376 9.024462,52.94363 8.845162,52.99904 8.85132,52.920904 8.86568,52.829385 8.858562,52.824263 8.861739,52.78544 7.468609,51.328547 7.416068,51.277311 7.367998,51.283372 7.376226,51.238458 7.376133,51.238368 7.378667,51.224975 6.79323,50.340312 7.227732,50.535183 7.524037,49.314132 7.345091,49.339152 6.414163,49.3009 6.417369,49.261284 6.187589,49.29114 6.155325,49.28958 6.398461,48.452608 6.500276,48.23677 6.57174,47.35366 6.571741,47.353659" slic3r:type="contour"/>
  </g></svg>