<svg width="43.790126" height="63.590156" xmlns="http://www.w3.org/2000/svg" xmlns:svg="http://www.w3.org/2000/svg" xmlns:xlink="http://www.w3.org/1999/xlink" xmlns:slic3r="http://slic3r.org/namespaces/slic3r"><g xmlns="http://www.w3.org/2000/svg" slic3r:z="1.655e-006" id="layer4">
    <polygon style="fill: white" points="22.051585,0.254783 22.087031,0.252907 22.102227,0.275045 22.467471,0.295303 23.100393,0.328818 23.122666,0.302658 23.157832,0.309047 23.20349,0.254412 23.340122,0.090456 23.475671,0.34869 23.513722,0.350705 23.52747,0.376199 23.896156,0.443178 24.502958,0.550222 24.535122,0.521248 24.570623,0.533 24.624442,0.483455 24.786928,0.333553 24.892883,0.619008 24.932334,0.625967 24.944043,0.656614 25.308335,0.777205 25.88509,0.963171 25.926622,0.936011 25.961409,0.95381 26.023895,0.911895 26.211374,0.786288 26.274376,1.08869 26.31224,1.100899 26.320157,1.137364 26.661983,1.312259 27.238234,1.59894 27.284574,1.578924 27.315723,1.601735 27.383366,1.571502 27.583214,1.482986 27.594157,1.776009 27.626778,1.792238 27.62857,1.830833 27.926053,2.04868 28.549031,2.490361 28.586575,2.480807 28.610384,2.503972 28.671134,2.487617 28.854468,2.438984 28.82354,2.684984 28.848724,2.702839 28.84535,2.732592 29.099505,2.97988 29.832325,3.665775 29.857788,3.66247 29.873549,3.681571 29.918467,3.674971 30.0636,3.6539 30.016179,3.837856 30.034952,3.855427 30.030902,3.872282 30.239094,4.124609 31.110867,5.139548 31.128555,5.138684 31.208978,5.253773 31.241092,5.29116 31.239169,5.296977 31.409488,5.540712 32.413533,6.926433 32.43012,6.926427 32.687817,7.344 33.789452,9.067982 33.819912,9.069612 33.827132,9.083979 33.972276,9.086048 33.903298,9.235536 34.135407,9.697391 35.056181,11.438791 35.104516,11.445909 35.110674,11.463795 35.155504,11.469788 35.325728,11.48961 35.199535,11.709907 35.217832,11.744511 35.211286,11.756027 35.448639,12.445435 36.000704,13.899207 36.05954,13.917499 36.07916,14.105809 36.1707,14.346864 36.112088,14.421834 36.21488,15.408402 36.334455,16.184145 36.359984,16.199892 36.341499,16.277791 36.419612,16.329282 36.378191,16.467883 36.452304,16.948696 36.330446,17.042298 36.332512,17.055534 36.284272,17.077766 36.169598,17.165851 36.089017,17.435482 35.91493,18.378566 35.969068,18.435516 35.867148,18.637415 35.758252,19.227336 35.578996,19.25454 35.56242,19.324248 35.526804,19.337727 34.780468,21.106332 34.615613,21.113164 33.810688,22.696774 33.736435,22.702467 33.405968,23.582075 33.467868,24.340634 33.635707,24.612427 33.859804,25.125102 34.276912,25.73401 34.589156,26.298917 34.659859,26.299138 35.029892,27.029174 35.361627,27.769273 35.461692,27.78596 35.55989,28.2116 35.72254,28.574469 35.710602,28.587275 35.713436,28.590977 35.662333,28.65699 35.74031,29.008294 35.922852,29.444862 36.039241,29.820509 36.057431,29.829808 36.075674,29.938097 36.233648,30.447962 36.170904,30.503416 36.291704,31.22053 36.459832,32.639296 36.398838,32.681482 36.423268,33.286616 36.439436,34.95804 36.378826,34.991858 36.362655,35.417964 36.237124,37.221767 35.57419,37.510394 35.313972,38.490739 35.396064,38.576612 35.360288,38.668045 35.8561,39.267504 35.197863,40.971152 35.150821,41.087904 35.159856,41.102024 34.397064,42.502127 34.297071,42.678257 34.310468,42.706932 33.46826,43.834019 33.307213,44.041497 33.32037,44.08428 32.419793,44.969964 32.196336,45.182099 32.204551,45.231468 31.260652,45.924923 30.977518,46.125751 30.979784,46.173888 29.996952,46.721479 29.662571,46.900762 29.660418,46.94228 28.634896,47.384479 28.263996,47.536877 28.25966,47.569616 27.177331,47.940148 26.788494,48.065053 26.782554,48.093556 25.63871,48.382639 25.250383,48.473537 25.243376,48.497812 24.944983,48.545022 24.888412,48.558264 24.88589,48.554372 24.050291,48.686576 23.67016,48.741705 23.66246,48.76218 23.445149,48.774338 23.322042,48.792192 23.316176,48.781553 22.444472,48.830323 22.069686,48.849404 22.06146,48.866764 21.902986,48.85789 21.728668,48.866764 21.719838,48.847634 20.855689,48.799243 20.475181,48.779871 20.468084,48.792192 20.350246,48.773512 20.127666,48.76218 20.118076,48.736707 19.302693,48.607447 18.90729,48.550101 18.901715,48.558263 18.818775,48.537263 18.546752,48.497812 18.537334,48.466006 17.788265,48.276347 17.379342,48.180602 17.375653,48.185199 17.325312,48.167951 17.007572,48.093556 16.99942,48.056293 16.31455,47.82164 15.903355,47.689471 15.901718,47.6912 15.881143,47.682332 15.530468,47.569616 15.524647,47.528679 14.880147,47.250891 14.48626,47.088909 14.483268,47.09148 14.457081,47.076909 14.129709,46.94228 14.126868,46.89317 13.484155,46.535548 13.129002,46.344924 13.125155,46.34744 13.101835,46.330343 12.810343,46.173888 12.812633,46.118309 12.144991,45.628815 11.846396,45.416731 11.842691,45.418399 11.82679,45.402805 11.58558,45.23148 11.594495,45.174986 10.886137,44.480275 10.658715,44.263985 10.65613,44.264643 10.647979,44.253774 10.469762,44.08428 10.48418,44.035357 9.741516,43.045064 9.593371,42.85377 9.592722,42.853819 9.591072,42.850803 9.479656,42.706936 9.494431,42.674124 8.754285,41.321 8.681669,41.192739 8.681569,41.192731 8.681362,41.192196 8.630281,41.101972 8.640191,41.086053 7.956296,39.322932 7.934022,39.267504 8.283186,38.838023 8.429268,38.663479 8.39408,38.576652 8.478588,38.492109 8.219931,37.51735 7.553003,37.221767 7.531317,36.715708 7.42155,34.997992 7.350704,34.95804 7.385891,33.981352 7.404386,32.690809 7.330297,32.639296 7.556503,31.223146 7.644622,30.526159 7.556444,30.44794 7.701685,30.074814 7.732657,29.829834 7.81337,29.787894 7.976745,29.368181 8.133147,28.66453 8.07669,28.590965 8.079494,28.587902 8.067548,28.574446 8.221106,28.268803 8.328436,27.785928 8.464547,27.767888 8.80542,27.015847 8.805001,27.015221 8.807148,27.012035 9.13029,26.299114 9.26431,26.300423 9.925645,25.13194 9.998284,25.13138 10.339532,24.372824 10.394943,23.701684 10.234524,23.38781 9.981933,22.70076 9.46555,21.876628 9.087654,21.109718 9.009659,21.106332 8.527943,20.164017 8.154113,19.249914 8.031868,19.227358 7.873058,18.562668 7.821058,18.435515 7.838492,18.417996 7.788643,18.209354 7.7046,17.738272 7.644531,17.556151 7.542512,17.099374 7.457663,17.055552 7.460081,17.039043 7.337823,16.948696 7.387085,16.403475 7.370515,16.329282 7.395267,16.312918 7.457532,15.623794 7.654914,14.390454 7.619425,14.346848 7.700257,14.107127 7.730608,13.917477 7.768229,13.905541 7.971698,13.302111 8.586163,11.704482 8.553084,11.646457 8.464398,11.489633 8.680696,11.458691 8.685609,11.445918 8.724164,11.440081 8.953777,10.979708 9.88353,9.232468 9.868908,9.200363 9.817883,9.086016 9.964141,9.080982 9.970204,9.069588 9.995888,9.068166 10.185202,8.760552 11.359962,6.926424 11.372854,6.92643 11.516148,6.721221 12.549749,5.293202 12.549053,5.291158 12.566704,5.269775 12.66159,5.138681 12.6744,5.139316 12.838651,4.940349 13.757912,3.866259 13.755174,3.85542 13.773818,3.837295 13.762531,3.793517 13.726527,3.653893 13.915704,3.681891 13.932328,3.662467 13.951126,3.664933 14.172943,3.449302 14.944148,2.724602 14.941397,2.702869 14.96701,2.684124 14.95948,2.624682 14.935661,2.438986 15.178063,2.504794 15.203578,2.480817 15.234118,2.488632 15.516539,2.281934 16.162288,1.822977 16.163363,1.792296 16.195848,1.775674 16.19863,1.701673 16.206937,1.482991 16.472682,1.602369 16.505637,1.578947 16.546152,1.59644 16.874379,1.428501 17.471599,1.131133 17.477896,1.100865 17.514792,1.088646 17.531345,1.009699 17.578746,0.786284 17.828068,0.95364 17.863498,0.935999 17.901387,0.960621 18.252069,0.844488 18.84783,0.652499 18.857756,0.626 18.89602,0.619045 18.924167,0.543591 19.003222,0.333556 19.219726,0.532652 19.255052,0.521268 19.28533,0.548286 19.64336,0.483212 20.264124,0.373785 20.276386,0.350734 20.313682,0.348665 20.349283,0.281006 20.450004,0.090458 20.632751,0.308803 20.667508,0.302676 20.689172,0.32783 21.048969,0.307867 21.688798,0.27399 21.703093,0.252907 21.738755,0.254884 21.778644,0.195146 21.895064,0.020554" slic3r:type="contour"/>
  </g></svg>