<svg width="43.790126" height="63.590156" xmlns="http://www.w3.org/2000/svg" xmlns:svg="http://www.w3.org/2000/svg" xmlns:xlink="http://www.w3.org/1999/xlink" xmlns:slic3r="http://slic3r.org/namespaces/slic3r"><g xmlns="http://www.w3.org/2000/svg" slic3r:z="3.43249999999999e-005" id="layer103">
    <polygon style="fill: white" points="24.215494,61.062232 24.689438,61.608863 24.389931,62.176208 24.105064,62.735628 23.838531,62.408599 23.293215,61.773548 23.629919,61.13326 23.884198,60.684576" slic3r:type="contour"/>
    <polygon style="fill: white" points="26.334338,60.727608 26.79278,61.173496 26.507652,61.841735 26.309502,62.352064 25.966605,61.996639 25.419134,61.471727 25.722905,60.731708 25.90743,60.33378" slic3r:type="contour"/>
    <polygon style="fill: white" points="28.534789,60.222707 28.930142,60.55882 28.646825,61.360388 28.522334,61.771252 28.072112,61.362327 27.581494,60.957336 27.869218,60.079591 27.981358,59.791835" slic3r:type="contour"/>
    <polygon style="fill: white" points="34.720555,57.331835 35.504664,57.798908 35.433391,58.249072 35.341104,59.099936 35.232848,59.035372 34.724311,58.758249 34.12278,59.695412 33.14488,59.846401 33.087437,60.073084 33.068996,60.167228 32.722128,59.911675 32.633238,59.9254 32.587116,59.894959 31.035656,60.079525 30.828958,60.763463 30.762482,61.0339 30.175738,60.550904 29.79338,60.267556 30.079324,59.215159 30.121562,59.090372 30.783008,59.543298 31.155988,59.071103 31.449922,58.5925 31.970859,58.548276 32.257168,58.508833 32.32693,58.233784 32.393213,58.274871 32.665031,58.468419 32.68489,58.480471 33.234698,58.417515 34.280957,58.231046 34.302407,58.055896 34.451404,57.195672" slic3r:type="contour"/>
    <polygon style="fill: white" points="36.867319,56.198807 37.491748,56.47436 37.462963,57.158164 37.458388,57.794392 37.119235,57.648447 36.319128,57.327668 36.326684,56.59438 36.361216,56.0134" slic3r:type="contour"/>
    <polygon style="fill: white" points="41.480804,51.54062 41.783348,52.209752 41.528667,52.2847 40.683011,52.503182 40.738196,52.616024 40.656336,52.634388 40.900208,53.309704 41.064116,53.800936 40.633804,54.093918 40.703855,54.329687 40.735872,54.43284 40.136393,54.432584 40.004888,54.52212 39.858649,54.528168 39.14543,54.908583 39.250736,55.853688 39.304336,56.245016 38.710439,56.110563 38.119271,55.984952 37.965148,54.9556 37.936796,54.688592 38.717988,54.831732 39.022065,54.9034 38.925864,54.112271 38.827668,53.558748 39.015756,53.468703 39.173641,53.379371 39.10562,53.163148 39.177827,53.157188 39.566899,53.144246 39.7455,53.027307 40.55279,52.441556 40.319599,51.955235 39.974063,51.225384 40.443812,51.091579 41.184256,50.886336" slic3r:type="contour"/>
    <polygon style="fill: white" points="42.459144,48.449032 42.686596,48.742752 42.24546,49.085365 42.441431,49.404407 42.534144,49.568372 41.858596,49.921363 41.373476,50.16112 40.672019,48.954227 40.632872,48.888792 40.786619,48.818288 40.712275,48.726571 40.673396,48.66802 41.255223,48.141856 41.842643,47.650016" slic3r:type="contour"/>
    <polygon style="fill: white" points="42.934927,43.964155 43.287612,44.31402 42.660103,44.776328 42.469928,44.943469 42.522964,45.071984 42.489134,45.102029 42.872424,45.686312 43.089948,46.086808 42.644884,46.473479 41.9612,46.995904 41.421408,46.01616 41.1436,45.557024 41.874176,45.055207 41.92262,45.015083 41.903636,44.99 41.93456,44.957583 41.464332,44.52502 41.284012,44.296804 41.754139,43.84432 42.369016,43.346664" slic3r:type="contour"/>
    <polygon style="fill: white" points="42.944718,39.437331 43.461095,39.942259 43.600348,40.052344 43.255923,40.312047 43.289271,40.406452 43.253664,40.440318 43.435416,40.743184 43.550692,41.002532 43.021711,41.748596 42.4587,42.345956 41.690039,40.725499 41.582528,40.532216 41.785563,40.322334 41.765544,40.299816 41.777879,40.279081 41.648736,40.181392 41.603568,40.130436 42.22366,39.456051 42.309355,39.385657 42.634792,38.838592" slic3r:type="contour"/>
    <polygon style="fill: white" points="41.844795,28.275112 42.551564,28.66105 42.843908,28.759426 42.346652,29.283612 42.302411,29.351809 42.398988,29.627002 42.276108,29.803659 42.750687,30.743347 43.182051,32.019585 43.334583,32.127519 43.396276,32.157976 43.268094,32.274153 43.28762,32.331922 43.262011,32.363123 43.355664,32.534283 43.45086,32.805111 43.135412,34.060108 42.640819,35.019072 42.90834,35.246311 42.837456,35.416671 43.017568,35.569268 43.629444,35.955876 43.345523,36.185532 42.6474,36.93904 42.065104,36.579296 41.63492,36.158159 41.885495,35.85242 42.468457,35.341643 42.428976,35.256844 42.563903,35.081452 42.59679,35.051924 41.533144,32.601453 41.430152,32.518526 41.44362,32.50007 41.459238,32.485017 41.49034,32.438345 41.383904,32.188824 41.531736,31.467247 41.796917,29.851808 41.610227,29.738117 41.603204,29.6034 41.102151,29.436772 40.924752,29.322326 41.300143,28.651132 41.539097,28.373891 41.49624,27.551928" slic3r:type="contour"/>
    <polygon style="fill: white" points="40.854942,25.516652 41.665879,25.83677 42.046864,25.9079 41.677735,26.359176 41.42847,26.816766 41.528124,27.113225 41.456244,27.234648 41.414619,27.225315 41.281996,27.166128 41.222,26.943756 40.45596,26.787588 40.186492,26.659506 40.468964,26.057279 40.845023,25.546501 40.808444,25.41092" slic3r:type="contour"/>
    <polygon style="fill: white" points="22.749744,5.383089 22.842475,5.386738 23.170455,5.394737 23.281104,5.255113 23.382459,5.143645 23.466782,5.41551 23.50887,5.420954 23.941564,5.451188 23.657074,5.823509 23.706977,5.884581 24.285512,5.603798 24.326296,5.769574 24.51996,6.794012 25.288366,6.656371 25.461414,6.666946 25.456677,6.83931 25.56571,6.865155 25.508185,7.027812 25.663892,6.995452 25.622634,7.470675 25.713932,7.742247 25.778259,7.865181 25.882142,7.862246 25.895737,7.964305 26.819482,7.964328 26.822086,7.96237 26.842246,7.964569 27.043222,7.833914 27.062128,7.931626 27.078185,7.990319 27.504974,8.036895 27.550798,8.404173 27.623044,8.786378 27.912297,8.814226 28.060599,8.681046 28.348958,8.442017 28.431252,8.727299 28.474352,8.868336 28.478183,8.868705 28.493888,8.91743 29.047748,9.044781 29.44241,9.126966 29.659822,8.941249 29.708417,9.100344 29.725306,9.159898 29.747727,9.227253 30.433146,9.486883 30.696156,9.571355 30.943674,9.364213 31.009348,9.565065 31.037235,9.672813 31.073312,9.772707 31.353521,9.941465 31.66939,10.085355 31.881518,9.875625 32.07877,9.701804 32.153388,9.901103 32.233319,9.889111 32.24295,9.729904 32.627548,10.06487 32.842965,10.172501 33.131622,9.870498 33.267326,10.219893 33.384189,10.030922 33.425886,9.848547 33.676899,10.121183 33.975871,10.287268 34.387188,9.904915 34.436238,10.00439 34.49076,9.939165 34.521584,9.890209 34.837908,10.30832 34.958795,10.416641 35.172148,10.266667 35.525412,10.006351 35.648332,10.249561 35.85974,10.589163 36.54402,10.419015 36.557592,10.490996 36.560547,10.49044 36.5606,10.493921 36.651108,10.509829 36.800551,11.0715 36.899727,11.087447 37.126851,11.099702 37.287796,11.131325 37.062193,11.738158 37.094372,11.752195 37.094834,11.792236 37.425267,11.906115 37.6689,12.020536 37.238071,12.587354 37.564383,12.749601 37.842368,12.911471 37.37722,13.37667 37.268993,13.467736 37.633968,13.660707 37.965932,13.845215 37.5519,14.24317 37.268405,14.481457 37.672836,14.678523 38.121367,14.873693 37.839035,15.163934 37.443149,15.552705 37.704645,15.80346 38.364304,16.029952 38.273583,16.124975 38.169135,16.24887 38.50236,16.568406 38.325518,17.175091 38.50056,17.250034 38.65906,17.292082 38.192256,17.725193 38.14814,17.783616 38.015872,18.237384 37.955831,18.318025 38.581455,18.53897 39.04956,18.632026 38.835052,18.849023 38.55972,19.272445 39.520418,20.041723 39.548403,20.048928 39.555786,20.056849 39.59482,20.062486 39.578341,20.081049 39.625764,20.131928 39.843139,21.583715 40.092719,21.645138 40.325743,21.663252 39.965495,22.134306 39.935016,22.197328 39.976384,22.473612 39.937353,22.547779 40.228077,23.359834 40.812352,23.532666 41.164256,23.567078 40.829716,24.00868 40.610153,24.452891 40.692208,24.743888 40.619964,24.878538 40.57464,24.871234 40.420764,24.81825 40.315217,24.603151 39.606336,24.513436 39.349036,24.422111 39.61068,23.81547 39.793137,23.539178 39.438759,22.816972 39.146788,22.73011 39.060555,22.613808 38.675156,22.576512 38.523144,22.533084 38.70379,22.132636 38.521555,21.886855 38.036816,21.46513 38.007596,21.087679 37.962306,20.907295 37.759188,20.841998 37.795724,20.777109 37.894221,20.63613 37.884172,20.5961 38.07449,20.229041 38.085272,20.168786 38.08567,19.578186 37.718111,19.489489 37.16332,19.267842 37.379955,18.920856 37.861986,18.324291 37.765104,18.278284 37.585808,18.102656 36.895735,17.87668 36.733976,17.795564 36.95226,17.482062 36.854972,17.386764 36.60792,17.21541 36.786028,16.860462 36.838025,16.668129 36.409052,16.436783 36.538732,16.253122 37.094038,15.691988 36.53762,15.414056 36.142639,15.184007 36.484715,14.764859 36.75429,14.517657 36.150875,14.162547 35.964508,14.053297 36.447216,13.569985 36.509759,13.514534 35.919064,13.168882 35.837068,13.125573 36.138798,12.846323 36.026547,12.74099 35.922036,12.566389 35.747556,12.492621 35.713891,12.47976 35.784208,12.399683 35.601321,12.176149 35.593812,12.177257 35.564228,12.0893 35.543648,12.034047 35.427928,12.067888 35.414023,11.987555 35.390549,11.801338 35.141348,11.977335 34.967179,11.663785 34.758412,11.94335 34.454678,11.619662 34.426888,11.758279 34.3519,11.998174 34.145943,11.858988 34.103428,11.90638 34.002928,12.139372 33.964528,12.033007 33.878885,11.932301 33.829964,12.154809 33.135672,11.758179 32.887365,11.991107 32.861565,12.115484 32.8146,12.235855 32.698632,12.167291 32.64146,12.227809 32.617188,12.119138 32.553086,12.081238 32.54396,12.057052 32.314069,11.926197 31.822762,11.630401 31.757614,11.68499 31.478058,11.936392 31.41495,11.553068 31.367288,11.356179 31.198328,11.254455 31.189012,11.218063 30.954396,11.110819 30.910555,11.117398 30.658274,11.311242 30.608307,11.30203 30.330726,11.54631 30.30777,11.425785 30.262465,11.238272 29.426698,11.084197 29.234435,11.022327 29.195326,11.054759 29.187549,11.048592 29.097476,11.129778 29.085654,11.080422 29.046279,10.93656 28.592832,10.576965 28.328096,10.291683 28.199519,10.399367 28.186772,10.363283 27.836986,10.66923 27.761526,10.387196 27.662022,10.051047 27.308982,10.020836 26.768177,9.952696 26.700705,10.002561 26.561168,10.100538 26.508107,9.923548 26.440827,9.926543 26.277426,9.929113 26.322512,9.427278 26.252364,9.217711 25.981157,9.218814 25.30369,9.227774 25.319896,9.016874 25.354845,8.776928 25.219561,8.735294 25.218138,8.73537 25.218248,8.734889 25.121014,8.704965 24.396554,8.498273 24.392613,8.377983 24.326911,8.403046 24.293739,8.393466 24.304276,8.303474 23.835809,7.712395 23.778886,7.650832 23.592708,7.807818 23.520944,7.860597 23.421563,7.291793 23.358258,7.228421 23.110391,7.570064 23.0123,7.696291 22.801208,7.099614 22.597812,7.474627 22.49838,7.650553 22.212395,7.060428 21.984924,7.499006 21.895064,7.668714 21.582169,7.052053 21.385122,7.458208 21.291721,7.650547 20.992695,7.07478 20.846894,7.494461 20.777858,7.696287 20.484087,7.267164 20.348619,7.42633 20.302344,7.681979 20.269126,7.860621 20.125338,7.730371 20.015485,7.90841 19.495735,8.321816 19.493943,8.390424 19.44496,8.424415 19.393568,8.498282 18.83379,8.759661 18.425752,8.849062 18.486362,9.227828 17.562997,9.221563 17.487235,9.478598 17.459569,9.544684 17.483001,9.75206 17.512574,9.929196 17.296001,9.921259 17.28216,9.969117 17.228952,10.100552 17.022293,9.944502 16.377839,10.006844 16.155375,10.030502 16.100832,10.234603 15.953131,10.669225 15.819729,10.553271 15.602897,10.364113 15.590602,10.399354 15.41645,10.254018 14.769638,10.884426 14.69268,11.129776 14.661609,11.102333 14.6013,11.048495 14.594854,11.054777 14.514364,10.988396 13.933707,11.050141 13.569219,11.168861 13.459465,11.546279 13.366073,11.467053 13.171042,11.298554 13.131973,11.31128 12.830362,11.080786 12.6189,11.175409 12.591819,11.254456 12.473745,11.318596 12.434798,11.535089 12.312133,11.936378 11.927831,11.615155 11.727053,11.724225 11.262005,12.031497 11.237081,12.081256 11.19419,12.104954 11.183326,12.147692 11.148715,12.227793 11.082073,12.16493 10.975621,12.235835 10.943624,12.034334 10.638801,11.746801 10.558792,11.791109 9.960134,12.15478 9.94985,11.991638 9.787174,12.139348 9.584363,11.889293 9.438221,11.998174 9.378307,11.635237 9.330056,11.575747 9.273248,11.635232 9.031733,11.943342 8.834367,11.54456 8.64879,11.977322 8.53449,11.857633 8.392721,11.754682 8.362201,12.067888 8.318381,12.047627 8.250893,12.027521 8.195208,12.180291 8.180633,12.180948 8.127964,12.214021 7.953712,12.336442 8.056558,12.45572 8.076234,12.479759 7.747264,12.625984 7.593009,12.789439 7.895699,13.071195 7.953061,13.125544 7.35281,13.494378 7.275761,13.535942 7.69686,13.943666 7.825642,14.053275 7.310858,14.356817 7.008949,14.533913 7.398614,14.981319 7.647484,15.184036 7.268043,15.357788 6.692594,15.684537 6.71168,15.744218 6.946488,16.053941 7.38108,16.436777 7.227026,16.484442 6.987899,16.607919 7.182197,17.215466 6.833433,17.535762 6.959386,17.705452 7.056151,17.795562 6.453381,17.94714 6.313249,18.013484 6.025025,18.278182 5.923503,18.323859 6.312659,18.909837 6.62681,19.267846 6.304013,19.324512 5.744077,19.532511 5.798605,20.399215 5.906039,20.596314 5.895244,20.657754 6.030936,20.842044 5.966643,20.849575 5.85585,20.881972 5.753436,21.464864 5.091462,22.219265 5.1846,22.405972 5.26698,22.533052 4.805762,22.544856 4.643118,22.730208 4.489085,22.770919 4.022495,23.674835 4.283846,24.200248 4.441068,24.422126 3.862456,24.454308 3.537605,24.54993 3.369138,24.818319 3.170068,24.87857 3.145921,24.846156 3.09789,24.74403 3.184317,24.510627 2.780942,23.932297 2.625873,23.56708 3.177333,23.377859 3.628566,23.310922 3.883336,22.622912 3.813836,22.473898 3.849144,22.325861 3.568911,21.91312 3.464405,21.663222 4.046895,21.496752 4.153752,21.048732 4.164485,20.131646 4.215215,20.100823 4.195331,20.062416 4.206009,20.058996 4.23875,20.052758 4.241609,20.048906 4.384677,20.007813 4.80987,19.813449 5.238534,19.372195 5.077364,19.18603 4.740556,18.632037 5.118611,18.489012 5.827915,18.312461 5.774116,18.237275 5.701845,17.932359 5.265289,17.478461 5.131062,17.292064 5.509694,17.121652 5.460797,16.915349 5.287807,16.568199 5.505885,16.440259 5.644222,16.294553 5.425838,16.029862 5.577855,15.96438 6.163277,15.747847 6.351345,15.549762 6.068124,15.261751 5.668788,14.873634 6.112725,14.655942 6.53009,14.467002 6.128936,14.092022 5.8242,13.845242 6.409816,13.536619 6.554999,13.457211 6.194607,13.108719 5.947765,12.911445 6.601155,12.590741 6.302157,12.211829 6.121217,12.020537 6.689787,11.831072 6.695753,11.752196 6.741478,11.734801 6.568485,11.28516 6.502334,11.131325 6.874655,11.118205 6.879218,11.089245 6.931305,11.083775 7.138992,10.509856 7.229454,10.500757 7.229547,10.490469 7.231653,10.491019 7.246075,10.419044 7.283644,10.431648 7.893568,10.602127 8.264728,10.006361 8.606685,10.245315 8.791548,10.378943 9.171378,9.978067 9.268506,9.890221 9.355871,9.989673 9.402994,9.904937 9.72347,10.257573 10.364214,9.848547 10.571095,10.137768 10.658486,9.870498 10.837459,10.11927 10.872342,10.153662 11.547283,9.729879 11.666248,9.891742 11.71139,9.701787 11.91087,9.983178 12.024305,10.080849 12.34485,9.905513 12.73792,9.721251 12.749564,9.681978 12.766741,9.675553 12.84646,9.36421 12.963139,9.503725 13.043887,9.571895 13.791229,9.29237 14.048779,9.209971 14.055562,9.187761 14.060719,9.186525 14.130304,8.941235 14.238099,9.056659 14.316816,9.125154 14.930471,8.978098 15.30086,8.903027 15.441157,8.442005 15.661534,8.656873 15.838016,8.8066 15.870252,8.802797 16.139184,8.778763 16.182505,8.45855 16.285413,8.036772 16.590936,7.992248 16.707461,7.982991 16.746788,7.83397 16.840667,7.900505 16.937638,7.964703 16.967756,7.962311 16.979368,7.971498 17.238454,7.978807 17.874208,7.970315 17.907861,7.86224 17.913718,7.864597 18.126216,6.995467 18.216118,7.003865 18.303969,6.992551 18.224418,6.865154 18.325649,6.937896 18.322748,6.784367 18.328724,6.666932 18.802638,6.849157 19.271841,6.832702 19.282332,6.789759 19.282568,6.787807 19.282814,6.787787 19.443513,6.130017 19.50462,5.603775 19.579762,5.651054 19.998294,5.87039 20.050205,5.817387 19.848492,5.451209 20.333343,5.405413 20.371817,5.284402 20.407636,5.14367 20.603863,5.391408 20.697086,5.387819 21.048262,5.378319 21.129964,5.197439 21.215274,4.993014 21.425356,5.373183 21.554368,5.373716 21.711097,5.376401 21.796708,5.201974 21.895064,4.995589 22.083724,5.381042 22.219316,5.380488 22.357278,5.378101 22.462065,5.187799 22.574822,4.992988" slic3r:type="contour"/>
    <polygon style="fill: white" points="2.947014,25.559215 3.416284,26.420904 3.603641,26.659466 3.026546,26.735381 2.614863,26.900602 2.508194,27.16612 2.333916,27.234658 2.309729,27.204812 2.262018,27.113207 2.366172,26.866844 1.923761,26.29061 1.743265,25.907868 2.268526,25.672121 2.93646,25.517888 2.981791,25.410662" slic3r:type="contour"/>
    <polygon style="fill: white" points="2.333936,28.564039 2.717068,29.159546 2.865401,29.322286 2.222856,29.492386 2.17991,29.738103 2.072342,29.796156 2.314111,30.626395 2.406189,32.189173 2.346726,32.37535 2.306821,32.450593 2.316816,32.46377 2.313132,32.474657 2.36,32.51845 2.340924,32.526462 2.281132,32.569237 1.811723,33.956639 1.191913,35.060758 1.361103,35.256791 1.318422,35.368982 1.620371,35.700996 2.155205,36.158128 1.827841,36.342035 1.142726,36.93904 0.618704,36.50404 0.16068,35.955884 0.390233,35.744655 0.947429,35.376819 0.88174,35.246268 1.072115,35.068988 1.157469,35.012858 0.550175,33.26994 0.33925,32.805305 0.541679,32.385172 0.502561,32.33197 0.518156,32.295098 0.432508,32.213963 0.393855,32.15793 0.666007,31.945563 1.542877,29.872547 1.391169,29.626971 1.470672,29.444219 1.104903,29.038028 0.946243,28.75936 1.532666,28.40248 1.999394,28.228853 2.293924,27.551822" slic3r:type="contour"/>
    <polygon style="fill: white" points="1.529856,39.30934 1.708468,39.666935 2.122216,40.078448 2.186558,40.130432 2.004612,40.259837 2.043884,40.338462 2.141589,40.437927 2.2076,40.532228 1.77183,41.585476 1.331426,42.345956 0.510496,41.295859 0.239434,41.002556 0.552832,40.460724 0.500857,40.406472 0.526577,40.344857 0.299916,40.170375 0.189778,40.052364 0.762349,39.450695 0.969916,39.282779 1.155332,38.838592" slic3r:type="contour"/>
    <polygon style="fill: white" points="2.185782,44.037963 2.506118,44.296812 1.963541,44.775472 1.832148,44.926413 1.873283,44.974528 2.414086,45.349447 2.646525,45.557012 2.30228,46.221751 1.828945,46.995904 1.177359,46.451748 0.700173,46.086796 1.236467,45.260323 1.317566,45.120516 1.267201,45.072015 1.311529,44.975892 0.798128,44.595495 0.502513,44.314056 0.867392,43.899911 1.421203,43.346596" slic3r:type="contour"/>
    <polygon style="fill: white" points="3.013748,48.58152 3.116722,48.668088 2.998196,48.811925 3.113755,48.865583 3.157223,48.888744 2.706479,49.676811 2.416627,50.161124 1.459828,49.668724 1.255955,49.568284 1.540712,49.104042 1.297457,48.916696 1.103532,48.74282 1.494321,48.235295 1.947527,47.65006" slic3r:type="contour"/>
    <polygon style="fill: white" points="3.308516,51.085811 3.816062,51.225392 3.633186,51.604356 3.237264,52.440665 4.259704,53.153377 4.684478,53.163148 4.661325,53.221703 4.614608,53.370192 4.962442,53.558748 4.918136,53.920896 4.769225,54.908556 5.653963,54.737675 5.853355,54.688592 5.735755,55.390215 5.670814,55.984943 4.882083,56.16174 4.485774,56.244988 4.569837,55.48664 4.645118,54.908762 3.932495,54.528366 3.785236,54.522108 3.652693,54.433061 3.167062,54.433055 3.054258,54.432812 3.1537,54.097825 2.988995,53.987172 2.725992,53.800872 2.937548,53.247611 3.139941,52.63557 3.052016,52.616068 3.110774,52.501793 2.757671,52.400739 2.00678,52.209764 2.178525,51.830812 2.605871,50.886335" slic3r:type="contour"/>
    <polygon style="fill: white" points="7.424487,56.502635 7.470957,57.327712 6.942369,57.552972 6.331699,57.794368 6.312521,57.347879 6.298347,56.47442 7.0169,56.200668 7.428925,56.013412" slic3r:type="contour"/>
    <polygon style="fill: white" points="9.367036,57.469488 9.492985,58.210321 11.128198,58.466822 11.146257,58.455564 11.155948,58.456676 11.463169,58.233788 11.475655,58.304363 11.524299,58.498923 12.340173,58.5925 13.050923,59.530963 13.577569,59.16156 13.668535,59.090372 13.859656,59.853131 13.996735,60.267488 13.267778,60.859324 13.027646,61.0339 12.775818,60.209632 12.738971,60.067057 11.612411,59.91734 11.224481,59.88179 11.15682,59.925392 11.081352,59.912444 10.8072,60.111387 10.7211,60.167224 10.636055,59.83605 10.284833,59.775796 9.667366,59.695428 9.441968,59.240544 9.108772,58.747076 8.449006,59.099928 8.42521,58.95086 8.285464,57.798908 8.740678,57.56054 9.338736,57.195672" slic3r:type="contour"/>
    <polygon style="fill: white" points="16.001293,60.4153 16.208656,60.95734 15.620406,61.485424 15.267837,61.771256 15.040325,61.133332 14.859986,60.558967 15.599804,59.971911 15.808784,59.79182" slic3r:type="contour"/>
    <polygon style="fill: white" points="18.085251,60.847379 18.370932,61.4719 17.895535,61.960196 17.480594,62.352052 17.269397,61.859943 16.997348,61.173496 17.595272,60.615427 17.88271,60.333784" slic3r:type="contour"/>
    <polygon style="fill: white" points="20.129522,61.11954 20.49688,61.773515 20.106121,62.250428 19.685064,62.735628 19.478596,62.345476 19.10075,61.608688 19.584267,61.05604 19.905928,60.684572" slic3r:type="contour"/>
    <polygon style="fill: white" points="22.158704,61.201756 22.598462,61.827412 22.26634,62.328031 21.895064,62.877315 21.673774,62.543252 21.191646,61.827564 21.586606,61.249287 21.895063,60.812184" slic3r:type="contour"/>
  </g></svg>