<svg width="43.790126" height="63.590156" xmlns="http://www.w3.org/2000/svg" xmlns:svg="http://www.w3.org/2000/svg" xmlns:xlink="http://www.w3.org/1999/xlink" xmlns:slic3r="http://slic3r.org/namespaces/slic3r"><g xmlns="http://www.w3.org/2000/svg" slic3r:z="2.21149999999999e-005" id="layer66">
    <polygon style="fill: white" points="3.600462,50.340309 4.104776,50.510624 4.275856,50.536108 3.962782,50.996709 3.981348,51.030508 3.950818,51.078424 4.295875,51.702928 4.628989,52.454067 4.831779,52.488944 4.935505,52.4905 4.771448,52.7753 4.79083,52.819004 4.783973,52.832786 5.043079,53.247571 5.498065,54.100689 5.675331,54.098024 5.779321,54.085544 5.653898,54.392885 5.676917,54.436046 6.036054,54.869215 6.528815,55.516328 6.754728,55.468224 6.884006,55.434556 6.792094,55.855113 7.41681,56.37252 7.911647,56.796234 8.203002,56.682924 8.344237,56.625995 8.32422,57.140779 9.177664,57.669599 9.596069,57.931833 9.943859,57.747247 10.091428,57.668464 10.148927,58.273047 11.253897,58.81706 11.462416,58.920772 11.870348,58.655712 12.026529,58.55236 12.169383,59.273442 13.393245,59.776131 13.877135,59.411804 14.047324,59.276764 14.2595,60.038715 14.29425,60.152676 14.314962,60.161376 14.318501,60.172091 15.281287,60.517165 15.851982,60.022087 16.044451,59.842611 16.28498,60.528052 16.445315,60.934566 17.151645,61.134913 17.800154,60.475751 18.012288,60.245124 18.280664,60.856708 18.528328,61.363703 17.821281,62.144368 17.684,62.286592 17.33775,61.56066 17.180671,61.21149 16.425507,61.154045 16.296946,61.263867 16.206442,61.250257 15.66456,61.764263 15.563529,61.85392 15.270267,61.109465 14.288529,60.961819 13.889329,60.923255 13.807743,60.984892 13.770614,60.975758 13.48151,61.212703 13.427399,61.254303 13.303179,60.860783 12.76231,60.727743 11.31853,60.455343 11.309821,60.461031 11.305909,60.459656 11.268074,60.486211 11.2611,60.490736 11.24932,60.439762 11.181547,60.415935 10.941123,60.347328 9.467901,59.568584 9.274213,59.473045 9.268201,59.476503 9.264927,59.474317 9.150487,59.534788 9.143914,59.496895 9.132385,59.403086 9.128973,59.401403 9.126358,59.381818 7.820181,58.509896 7.454351,58.282691 7.438356,58.289644 7.436129,58.287648 7.18854,58.380064 7.183801,58.297643 7.183877,58.114708 7.178403,58.111308 7.177398,58.055818 6.32945,57.296031 5.885336,56.929649 5.471828,57.002668 5.483796,56.878147 5.525432,56.632739 5.51561,56.624636 5.529997,56.506913 5.075832,55.9114 4.646611,55.403128 4.124692,55.390148 4.167417,55.235031 4.27325,54.961003 4.254696,54.939032 4.296836,54.786692 3.996508,54.26244 3.589244,53.626043 3.112319,53.525984 3.172544,53.394047 3.301929,53.17708 3.283744,53.148664 3.330247,53.040337 2.607073,51.654128 2.459227,51.389383 2.357438,51.353456 2.372287,51.32896 2.403074,51.28883 2.398956,51.281456 2.403691,51.27309 2.306179,51.127163 2.389465,50.931799 2.988228,49.410623" slic3r:type="contour"/>
    <polygon style="fill: white" points="3.335955,47.876988 3.708706,47.95608 3.244146,48.6317 2.929475,49.098112 2.962894,49.138236 2.879645,49.252948 2.832282,49.230368 2.708086,49.174568 2.76569,49.093447 2.000546,48.743916 1.767029,48.64334 2.161704,47.991203 2.594758,47.518976" slic3r:type="contour"/>
    <polygon style="fill: white" points="2.502424,41.818768 3.006273,42.415848 2.864927,42.588504 2.416805,42.92028 2.457723,42.981581 3.110195,43.574596 2.709129,44.37864 2.493331,44.876139 3.115582,45.424883 3.361893,45.626536 2.952533,46.127544 2.473601,46.507884 1.490249,45.652464 1.301792,45.5263 1.751096,45.072155 1.797863,45.01909 1.394261,44.726543 1.171818,44.469604 1.436412,43.767851 1.773007,42.996661 1.790192,42.922378 1.563196,42.674339 0.965456,42.173596 1.332394,41.883535 1.917135,41.270072" slic3r:type="contour"/>
    <polygon style="fill: white" points="2.723335,32.109696 2.800622,32.061489 2.966733,32.475433 2.892474,32.544959 3.026321,32.889398 3.105173,33.430253 3.218358,33.642092 3.331993,33.788144 3.172829,33.894305 3.183548,33.967827 3.166101,33.986883 3.215298,34.061248 3.255319,34.167599 2.688462,34.739696 2.293269,34.940288 2.168124,35.076985 2.198067,35.140128 2.256535,35.394888 2.147371,35.532946 2.588964,36.136459 2.920654,36.88828 2.770386,37.057944 2.478098,37.218013 2.561154,37.379704 2.437176,37.500307 2.86467,38.025244 2.327109,38.834265 2.463194,39.095524 2.449094,39.122001 2.686777,39.339951 2.855473,39.549172 2.404447,40.036955 1.860736,40.403092 0.8908,39.280384 0.827231,39.22466 0.964626,39.139156 0.947437,39.110952 0.9848,39.070079 0.894315,38.988144 0.829919,38.83554 1.171928,37.880648 1.438002,37.434733 1.376739,37.358156 1.505146,37.010043 1.407064,36.816292 0.959416,36.214968 1.394489,35.997475 1.85779,35.534373 1.759972,35.328232 1.941264,35.139724 1.506513,34.705212 1.249635,33.971935 1.379774,33.756656 1.481947,33.658906 1.467136,33.622764 1.550624,33.503389 1.423614,33.113634 1.637419,33.02529 2.69048,32.025148" slic3r:type="contour"/>
    <polygon style="fill: white" points="26.685902,4.19523 26.90893,4.470905 27.261672,4.460399 27.400087,4.387496 27.527591,4.306048 27.623515,4.258599 27.677583,4.44302 27.750353,4.456427 27.986482,4.45838 28.158106,4.861825 28.258672,5.006803 28.67202,4.822983 28.726652,5.067526 28.793872,5.778358 28.833825,5.835953 28.926715,5.783208 28.994,5.795233 29.419811,5.520761 29.73041,5.366845 29.882784,5.954093 30.31724,6.031746 30.519469,6.024481 30.616857,5.954772 30.640919,5.95923 30.763249,5.864084 30.853064,5.804415 30.923503,6.011584 31.131044,6.050036 32.012889,6.103996 32.090717,6.146589 32.110394,6.130177 32.120562,6.155689 33.233807,6.528869 33.371998,6.569767 33.378401,6.564713 33.389614,6.568884 33.48727,6.490575 33.506098,6.545248 33.529043,6.616247 33.532464,6.617259 33.534255,6.622692 34.549211,7.000266 34.72088,7.06403 34.754264,7.044312 34.769799,7.05413 34.891644,6.977844 34.907904,7.053468 34.925954,7.140202 34.928652,7.141204 34.931399,7.156268 35.742667,7.669023 35.945128,7.79725 36.029408,7.770311 36.04467,7.788608 36.239052,7.721655 36.240004,7.851974 36.240557,7.98436 36.244088,7.986596 36.24215,8.025365 36.660107,8.526449 36.900247,8.80723 37.000295,8.796437 37.015975,8.824316 37.368428,8.783775 37.315984,9.019626 37.266659,9.235652 37.281888,9.253458 37.273544,9.282288 37.376176,9.464775 37.646706,9.932747 37.725316,9.933573 37.738918,9.964206 38.26602,9.975109 38.135572,10.306756 38.024202,10.585749 38.058668,10.645369 38.051154,10.66185 38.243788,11.084842 38.278323,11.087191 38.292168,11.121238 38.561156,11.14245 38.986776,11.182409 38.782627,11.586871 38.649271,11.847878 38.68141,11.905628 38.702864,11.933265 38.699889,11.938834 38.810977,12.138451 38.947876,12.158063 38.987529,12.24204 39.225135,12.267182 39.568571,12.305527 39.314887,12.762809 39.2708,12.841949 39.398242,13.111844 39.536136,13.138027 39.569091,13.224043 39.763947,13.251964 40.067376,13.296864 39.779315,13.772757 39.906515,14.104766 40.064004,14.150583 40.089486,14.242708 40.242212,14.2768 40.510892,14.340377 40.226286,14.737271 40.373264,15.268629 40.578268,15.362785 40.590019,15.460948 40.677612,15.489741 40.891584,15.567281 40.636712,15.850997 40.706976,16.43795 40.857507,17.130232 41.126452,17.351787 41.188212,17.379844 41.033579,17.489805 41.166228,17.690304 41.25004,17.972274 40.685504,18.310833 40.499883,18.502222 40.505439,18.515674 40.352873,18.734189 40.618572,19.463204 40.783564,20.533438 40.6724,20.524195 40.01488,20.256199 40.071912,20.429496 40.122209,21.135419 40.576007,20.963416 40.576008,20.963416 40.141621,21.407854 40.143704,21.43709 40.115906,21.466313 40.150376,21.634137 40.16372,21.939334 39.880618,21.713657 39.84706,21.748936 39.644595,22.011751 39.652604,22.098646 39.622854,22.129426 39.674647,22.371451 39.732395,22.865077 39.308784,22.596911 39.380979,22.862457 39.560316,23.456896 39.264593,23.47481 39.618116,24.164026 39.532663,24.289076 39.435692,24.448534 39.48152,24.473805 39.467689,24.528437 39.709976,24.598164 39.595203,24.709352 39.362829,25.067177 39.415268,25.143472 39.352575,25.244022 39.705144,25.567022 40.150516,26.197238 40.146784,26.752067 40.0703,27.081518 40.1657,27.142234 40.1708,27.255517 40.556996,27.396118 40.374808,27.564204 40.200373,27.91225 40.211992,28.170283 40.184352,28.248732 40.215328,28.284682 40.110934,28.475268 40.712628,28.788324 41.295695,29.481278 41.331115,29.93528 41.285494,30.171577 41.35036,30.219166 41.350398,30.316987 41.643576,30.4795 41.501712,30.599928 41.350627,30.899361 41.350776,31.280056 41.089267,31.998134 40.972244,31.913719 39.859655,31.111154 39.699848,31.048108 39.756431,30.836369 39.716808,30.802632 39.718269,30.772416 39.664816,30.747942 39.585676,30.689512 39.743209,30.256661 39.817174,28.727059 39.69334,28.615449 39.588272,28.542042 39.588126,28.520618 39.293355,28.254939 39.173544,28.20543 38.578128,27.83007 38.61846,27.741917 38.66197,27.685868 38.63542,27.661938 38.705597,27.518135 38.388288,27.258798 38.523156,25.877387 38.53988,25.582572 38.324632,25.463008 38.332637,25.385127 38.150908,25.30919 37.81864,25.149282 38.03,24.832283 38.127832,24.71255 38.068424,24.614544 38.201154,24.457507 37.454441,22.785071 37.44628,22.781086 37.444592,22.772724 37.405052,22.751502 37.427893,22.725609 37.427244,22.724155 37.433636,22.718463 37.399756,22.550655 37.586764,22.274617 37.937062,21.674129 37.814873,21.226419 37.52624,20.918426 37.803979,20.827154 37.871384,20.804342 38.024336,20.475221 38.109266,20.351408 38.072407,20.212394 38.093964,20.172878 37.844808,19.764902 38.168592,19.821206 38.287291,19.818483 38.400828,19.610357 38.588641,19.379191 38.561652,19.25926 38.580243,19.223605 38.31464,18.700654 38.661436,18.800734 38.792874,18.815792 38.841688,18.72217 39.095035,18.439816 39.086327,18.406093 39.088426,18.398308 38.76406,17.827014 39.101552,17.90872 39.219398,17.91255 39.253936,17.784454 39.541091,17.393012 39.464675,17.309807 39.05714,17.067054 39.31338,17.05724 39.40828,17.007761 39.008588,15.999537 38.997989,15.963768 38.9819,15.957975 38.992134,15.952668 38.969504,15.907975 38.953053,15.081793 38.783964,15.02387 38.661592,15.004542 38.870327,14.748183 38.924231,14.658763 38.802012,14.310171 38.78372,14.226236 38.478596,14.152528 38.274724,14.130344 38.421951,13.896815 38.610579,13.528985 38.522169,13.326989 38.069296,13.237065 37.802448,13.211641 37.906267,13.021472 38.143861,12.524769 37.881584,12.221862 37.595607,12.178911 37.246832,12.142796 37.306247,12.017013 37.445254,11.711351 37.178295,11.410194 36.865363,11.080587 36.606856,11.063393 36.627144,11.002657 36.678434,10.864467 36.025604,10.154752 35.945797,10.080591 35.876224,10.083891 35.879504,10.063309 35.889124,10.020406 35.205868,9.354047 35.130394,9.297285 35.063623,9.315742 35.062572,9.289722 35.062992,9.246563 34.356959,8.80014 34.210998,8.724253 34.083932,8.794781 34.071275,8.738041 34.053713,8.651563 33.258137,8.34931 33.059613,8.278398 32.906518,8.396827 32.883664,8.326418 32.8488,8.222958 31.894087,7.997594 31.722094,7.953599 31.716448,7.957965 31.710082,7.956918 31.595864,8.058255 31.576999,8.004722 31.548097,7.93027 30.443183,7.748503 30.247916,7.671696 30.223822,7.690667 30.214608,7.658594 30.212573,7.657793 30.207426,7.642948 30.114311,7.57557 29.284594,6.966726 29.038844,7.103558 28.90837,7.190609 28.823063,6.64546 28.81857,6.624758 28.738436,6.565956 28.62556,6.137497 28.067543,6.419544 27.742904,6.61749 27.715512,6.27762 27.666367,5.989513 27.200306,5.913573 27.110894,5.918373 26.814916,6.125109 26.804775,6.000147 26.790527,5.935575 26.625805,5.944418 26.612607,6.004583 26.633801,6.038492 26.64978,6.064241 26.594449,6.071394 26.588112,6.205381 26.355528,6.479765 26.33181,6.508636 26.374519,6.626459 26.302523,6.628514 26.233001,6.628917 26.209704,6.657277 26.149212,6.663137 25.8162,6.95567 25.773356,6.990664 25.774874,7.008222 25.773354,7.008794 25.773558,7.322327 25.627766,7.27849 25.483144,7.227692 25.422452,7.277262 25.204721,7.222662 25.158082,7.240202 25.029541,7.288257 25.020032,7.320311 24.994423,7.323411 24.854926,7.736979 24.699883,7.613791 24.533868,7.473561 24.460428,7.501016 24.334589,7.406413 24.190966,7.427041 24.177678,7.45237 24.130158,7.454115 23.89426,7.896299 23.748186,7.726346 23.572723,7.515842 23.512289,7.524522 23.473955,7.480633 23.237822,7.492546 23.225961,7.511156 23.174259,7.511463 22.898378,7.942749 22.764021,7.75633 22.598954,7.524777 22.556262,7.526931 22.548506,7.515983 22.222992,7.519727 22.218038,7.527213 22.177228,7.526974 21.895064,7.943196 21.767459,7.755723 21.61206,7.526754 21.57209,7.527214 21.56914,7.522762 21.239445,7.518951 21.233848,7.52692 21.188097,7.525224 20.891748,7.94275 20.764714,7.750952 20.610121,7.511675 20.564166,7.511145 20.556947,7.49994 20.309719,7.487494 20.277814,7.524487 20.208892,7.51598 19.895866,7.896303 19.784542,7.701988 19.649625,7.454265 19.612464,7.452394 19.605323,7.439249 19.443852,7.416246 19.329674,7.501045 19.244668,7.469098 18.9352,7.736981 18.863939,7.55227 18.78326,7.322138 18.770118,7.320266 18.759443,7.286746 18.696114,7.262946 18.592644,7.224236 18.367674,7.277261 18.298627,7.217741 18.016568,7.322326 18.010166,7.171014 18.008067,6.967265 17.729684,6.727289 17.653712,6.664466 17.580538,6.657277 17.554402,6.626066 17.415612,6.626434 17.439293,6.564063 17.458516,6.511564 17.201874,6.205095 17.184193,6.070432 17.140336,6.064253 17.176792,6.006182 17.141013,5.907148 17.019485,5.940335 16.975212,6.125114 16.833266,6.047368 16.62417,5.909975 16.547011,5.91129 16.517068,5.893886 16.472338,5.898173 16.157715,5.955532 16.132869,6.161418 16.047207,6.617506 15.682499,6.44548 15.16785,6.151924 15.051629,6.565922 14.997119,6.604858 14.92114,7.022281 14.881708,7.19063 14.473933,6.978561 14.278715,7.118 13.583635,7.640857 13.570433,7.677303 13.569417,7.680735 13.566238,7.690694 13.538327,7.673016 13.345536,7.748883 12.365363,7.899809 12.248445,7.923113 12.194257,8.058256 12.145556,8.020841 12.063474,7.950993 11.137732,8.16836 10.944829,8.217793 10.883638,8.396828 10.820712,8.349964 10.731979,8.282084 9.890512,8.600008 9.73319,8.656172 9.706248,8.794753 9.655423,8.763399 9.594733,8.728572 8.78735,9.22329 8.724542,9.255633 8.726556,9.315713 8.675141,9.295772 7.941171,10.005209 7.900978,10.034194 7.913905,10.08389 7.893017,10.080997 7.856618,10.078054 7.221993,10.804419 7.11769,10.896642 7.183251,11.063445 7.116041,11.066306 6.948907,11.075816 6.556093,11.542688 6.36304,11.73976 6.390042,11.798119 6.543296,12.142826 6.392754,12.168452 5.913761,12.231309 5.657155,12.525269 5.865777,12.935548 5.987709,13.21161 5.748169,13.269605 5.202576,13.355252 5.158613,13.455275 5.416414,13.913578 5.515392,14.130367 5.202687,14.224355 4.902171,14.280549 4.818136,14.518458 5.058407,14.869836 5.128546,15.004496 4.747161,15.168825 4.705385,15.383496 4.820608,15.90812 4.797954,15.945613 4.808242,15.957986 4.801393,15.963318 4.785264,15.970749 4.368802,16.713068 4.340141,16.820377 4.732994,17.067042 4.518413,17.373194 4.232424,17.57715 4.386387,17.84789 5.026068,17.82706 4.842475,18.215666 4.687617,18.479948 4.665992,18.57855 4.832163,18.77965 5.475487,18.700654 5.304174,19.071918 5.215295,19.243314 5.228472,19.25926 5.185721,19.525824 5.360232,19.751036 5.945326,19.76493 5.772241,20.075893 5.700863,20.190631 5.717738,20.21241 5.672317,20.494655 5.859945,20.781692 6.263897,20.918424 6.063615,21.066875 6.020765,21.113648 5.980729,21.612675 6.010138,21.650372 6.390372,22.550609 6.365554,22.677992 6.356864,22.719254 6.362885,22.724123 6.361229,22.729224 6.385076,22.75147 6.349036,22.766763 5.933156,24.047253 5.660324,24.5445 5.721685,24.614524 5.653639,24.76707 5.971487,25.149276 5.526662,25.329558 5.468212,25.356154 5.465451,25.463096 5.371371,25.508574 5.477073,26.07176 5.401776,27.259048 5.250755,27.496947 5.115586,27.593294 5.154751,27.661998 5.11426,27.715912 5.212021,27.830058 5.068365,27.888218 4.930724,27.960303 4.507917,28.523295 4.023235,28.763474 4.14644,29.529808 4.089671,30.518234 4.123837,30.584664 4.204442,30.689504 4.076453,30.74836 4.073339,30.802606 4.050176,30.818088 4.076976,30.902927 4.090306,31.04799 3.467724,31.679031 2.785843,31.962689 2.70096,31.998 2.686618,31.900317 2.679877,31.893242 2.621041,31.744585 2.658847,31.711174 2.616046,31.419666 2.346703,31.116742 2.146533,30.479574 2.309154,30.321326 2.443893,30.247171 2.439786,30.219201 2.563896,30.090221 2.494424,29.48129 2.919322,29.249776 3.685347,28.57049 3.574782,28.28472 3.653081,28.213516 3.36023,27.847497 3.233132,27.396096 3.440823,27.230668 3.603924,27.163563 3.775188,26.985356 3.639585,26.197312 4.467635,25.351879 4.365108,25.121641 4.197338,24.920082 4.080142,24.598238 4.179168,24.52387 4.34839,24.450803 4.172029,24.164006 4.510885,23.459561 4.229809,23.45688 4.475086,22.597452 4.433241,22.538191 4.294271,22.618821 4.05773,22.865066 4.178049,22.167834 4.137523,22.098646 4.141468,22.082931 4.028723,21.970548 3.830646,21.694138 3.743837,21.754435 3.626407,21.939321 3.68891,21.496348 3.646425,21.437062 3.650047,21.419507 3.596248,21.36784 3.21412,20.963404 3.731166,21.026341 3.925181,20.085992 3.633455,20.114984 3.006564,20.533432 3.150374,20.059563 3.478029,18.81014 3.368725,18.643666 2.773291,18.208712 2.540088,17.972256 2.79008,17.53985 2.709018,17.479703 2.601912,17.379843 2.679067,17.340487 2.888557,17.146687 2.951495,16.660963 3.119781,15.821837 3.050303,15.743731 2.898542,15.56728 3.189467,15.474359 3.211843,15.362784 3.364387,15.290026 3.491668,14.834582 3.535157,14.707688 3.439529,14.572991 3.279234,14.34042 3.691976,14.250112 3.726098,14.15055 3.851192,14.11323 3.990553,13.75021 3.879757,13.565442 3.722752,13.296854 4.214682,13.227208 4.254033,13.138022 4.363591,13.116496 4.505759,12.815989 4.386783,12.601859 4.221522,12.305557 4.733204,12.25255 4.79534,12.245701 4.842228,12.15805 4.955532,12.141555 5.132015,11.826701 4.985476,11.537611 4.803365,11.18238 5.232007,11.151444 5.495087,11.127752 5.511816,11.087181 5.541916,11.085409 5.736552,10.656629 5.731444,10.645352 5.766893,10.582827 5.702127,10.418978 5.524127,9.975074 5.848956,9.977321 6.046318,9.974221 6.064783,9.933542 6.134769,9.933788 6.514305,9.274804 6.508235,9.253538 6.525346,9.23316 6.421696,8.783776 6.632137,8.813764 6.770262,8.83039 6.789822,8.796428 6.882192,8.808182 7.29531,8.316187 7.547521,8.020371 7.546,7.98661 7.55025,7.983923 7.551015,7.721683 7.659621,7.760437 7.744123,7.789779 7.760701,7.770335 7.843485,7.798511 8.683707,7.267244 8.858668,7.156473 8.861418,7.1412 8.865218,7.139786 8.898422,6.977867 8.959601,7.015432 9.021026,7.053682 9.035815,7.04432 9.068796,7.06406 10.107274,6.677762 10.255983,6.622523 10.257677,6.617209 10.263727,6.615222 10.302856,6.490569 10.345604,6.524991 10.400317,6.56891 10.411692,6.564685 10.41343,6.566071 11.638478,6.163858 11.672034,6.153894 11.679705,6.130181 11.694387,6.143369 11.777643,6.103883 12.894247,5.984576 12.922307,5.893325 12.937089,5.804387 13.126693,5.95974 13.173257,5.954765 13.190035,5.967447 13.886557,5.866541 13.997448,5.857072 14.049107,5.630219 14.059737,5.366847 14.440544,5.634911 14.734683,5.794111 14.863337,5.783124 14.951471,5.837485 15.040082,5.694079 15.114706,5.31803 15.118101,4.822961 15.269459,4.92078 15.460099,5.014329 15.803625,4.458369 16.136998,4.420324 16.158839,4.340097 16.166587,4.258598 16.360278,4.394843 16.396188,4.390745 16.492976,4.446485 16.809685,4.444437 16.926785,4.445603 17.248984,4.083434 17.39777,3.876851 17.588316,4.175176 17.809549,4.476473 18.208534,4.390174 18.485429,4.357434 18.469325,4.679807 18.444,5.034159 18.741812,5.068784 18.943855,5.128533 18.789314,5.500245 18.816178,5.530237 18.842451,5.549395 19.036028,5.559899 19.12301,5.582919 19.076668,5.720116 19.171543,5.686195 19.157775,5.701422 19.194616,5.764503 19.22473,5.757721 19.232216,5.830099 19.221934,6.022188 19.49799,5.83177 19.572224,6.001603 19.692097,6.364056 19.799314,6.241135 20.102504,5.914329 20.220035,6.110678 20.408075,6.443333 20.553272,6.452769 20.678807,6.287218 20.937668,5.949279 21.068638,6.142022 21.301509,6.477591 21.5072,6.476624 21.639556,6.294067 21.895064,5.949269 22.027954,6.134702 22.279231,6.476974 22.484945,6.477943 22.609507,6.296453 22.85246,5.949299 22.992696,6.135224 23.229918,6.446266 23.39563,6.435478 23.486537,6.279591 23.687624,5.91433 23.828768,6.081505 24.0215,6.294834 24.17694,6.253244 24.292138,5.831773 24.40793,5.940807 24.474372,5.990841 24.590631,5.90498 24.565402,5.757721 24.607089,5.779264 24.618595,5.686181 24.709428,5.644471 24.667128,5.582926 24.821016,5.593231 24.856422,5.576972 24.976289,5.447327 25.003718,5.421784 24.939039,5.278053 24.84626,5.128547 25.163358,5.117799 25.355333,5.080466 25.329002,4.625624 25.304686,4.357442 25.555454,4.420623 25.952613,4.489171 26.207259,4.111737 26.392356,3.876836" slic3r:type="contour"/>
    <polygon style="fill: white" points="41.777728,32.347214 42.366548,33.113701 42.344311,33.4063 42.278431,33.575273 42.323036,33.622796 42.29702,33.717942 42.540512,33.971928 42.381795,34.101368 41.844984,35.074625 42.030188,35.328208 41.938122,35.466735 42.495184,35.788868 42.830728,36.215064 42.627735,36.756859 42.315508,37.165423 42.413396,37.358196 42.304479,37.520449 42.603216,38.149292 42.960204,38.83558 42.76078,39.002029 42.865665,39.141566 42.919931,39.178483 42.962896,39.224716 42.398239,39.98778 41.929488,40.403016 41.160695,39.685976 40.934651,39.54918 41.354638,39.164684 41.326956,39.095568 41.40425,38.971025 41.176448,38.666352 40.92546,38.025208 41.096196,37.680996 41.300368,37.438961 41.228988,37.379684 41.33292,37.109867 40.869468,36.888196 41.108543,36.551356 41.645111,35.582265 41.533596,35.394828 41.624857,35.11877 41.099591,34.694164 40.919847,34.429324 40.652155,34.221695 40.53484,34.167712 40.63572,34.010685 40.606644,33.967844 40.615591,33.932592 40.54642,33.888076 40.458128,33.788063 40.710355,33.110448 40.882357,32.881503 40.961225,32.570756 40.823376,32.47547 40.882143,32.263196 40.989476,32.06152 41.069769,32.143078 41.099715,32.025083" slic3r:type="contour"/>
    <polygon style="fill: white" points="42.458799,41.750767 42.824667,42.173608 42.53286,42.538512 42.004002,42.982673 42.018492,43.036173 42.157639,43.379619 42.618332,44.469488 41.940925,44.951739 42.108187,45.150631 42.103306,45.153981 42.372716,45.424332 42.488348,45.526291 41.832975,46.1603 41.316536,46.507808 40.684147,45.811072 40.428244,45.626556 41.260937,44.895068 40.931372,44.269728 40.679968,43.574508 40.911932,43.337288 41.350885,42.94132 41.413732,42.838874 40.783876,42.415868 41.042736,42.171336 41.872992,41.27006" slic3r:type="contour"/>
    <polygon style="fill: white" points="41.79726,48.401704 42.023096,48.643352 41.300871,48.97524 41.026622,49.095044 41.082148,49.174651 40.910608,49.253044 40.880015,49.210839 40.827344,49.13832 40.860906,49.099504 40.320135,48.313391 40.08142,47.956104 40.585435,47.6845 41.195368,47.518976" slic3r:type="contour"/>
    <polygon style="fill: white" points="41.167388,50.245515 41.483948,51.127163 41.423992,51.226251 41.388292,51.276819 41.391168,51.281459 41.385465,51.293058 41.432688,51.353456 41.404632,51.361883 41.340872,51.383742 40.692248,52.702799 40.472746,53.078153 40.506388,53.148583 40.478081,53.198523 40.677832,53.525936 40.542047,53.538888 40.253491,53.594768 39.829688,54.342479 39.50464,54.840768 39.535432,54.938992 39.502925,54.981144 39.665456,55.390116 39.520827,55.374656 39.196705,55.378212 38.644196,56.094639 38.262907,56.544964 38.2745,56.624672 38.25445,56.642425 38.3183,57.002652 38.210995,56.969263 37.945863,56.919411 37.94216,56.923784 37.938136,56.922508 36.974395,57.77586 36.61185,58.075053 36.611768,58.111276 36.599789,58.119179 36.601612,58.380064 36.533908,58.34758 36.361474,58.281677 36.351835,58.289632 36.345741,58.286785 34.885192,59.250371 34.662665,59.388895 34.661148,59.401404 34.654836,59.404699 34.639644,59.534788 34.609511,59.516195 34.528199,59.472599 34.521919,59.476508 34.519753,59.475212 32.848996,60.347343 32.539318,60.442854 32.530532,60.482743 32.529056,60.490736 32.48557,60.459431 32.480354,60.46104 32.475316,60.457711 32.319657,60.494484 30.473733,60.881748 30.379906,61.189796 30.362756,61.254296 30.028678,60.975119 29.98236,60.984836 29.928794,60.943973 28.495406,61.1439 28.270346,61.729123 28.226596,61.85392 27.636635,61.282967 27.600807,61.250953 27.49305,61.263724 27.377362,61.163938 26.606262,61.215088 26.185452,62.109223 26.106096,62.286591 25.590032,61.70596 25.26182,61.363743 25.630923,60.536952 25.777872,60.24512 26.269427,60.740791 26.639505,61.135709 27.340866,60.938867 27.642398,60.095663 27.745656,59.842612 28.318549,60.335379 28.520971,60.520363 29.467581,60.183573 29.475162,60.16134 29.487754,60.156183 29.676656,59.487563 29.742802,59.276755 30.387781,59.759303 30.411507,59.77785 31.540543,59.315444 31.599415,59.290581 31.60167,59.281808 31.615807,59.274855 31.724085,58.734132 31.763592,58.552368 32.333536,58.921845 33.266727,58.46286 33.637293,58.278261 33.680444,57.832427 33.698724,57.66844 34.198439,57.933478 34.943508,57.472115 35.460566,57.147636 35.44726,56.778516 35.445916,56.62598 35.891297,56.798405 36.454359,56.33262 36.9903,55.871938 36.926868,55.573232 36.906104,55.434572 37.28969,55.513986 37.66198,55.065319 38.118238,54.458304 38.112108,54.437947 38.129261,54.410075 38.044288,54.197468 38.01076,54.085568 38.328673,54.086052 38.619116,53.614111 39.019867,52.862733 38.999252,52.818952 39.012148,52.794408 38.902748,52.601503 38.8546,52.490572 39.20813,52.421427 39.678708,51.525855 39.867525,51.12588 39.808768,51.030499 39.816702,51.017559 39.612463,50.715115 39.514272,50.536123 40.288333,50.248383 40.802088,49.410507" slic3r:type="contour"/>
    <polygon style="fill: white" points="24.243906,60.983248 24.61603,61.446172 24.115068,62.336047 23.99719,62.547315 23.545371,61.9552 23.223136,61.5589 23.64229,60.799399 23.831008,60.484872" slic3r:type="contour"/>
    <polygon style="fill: white" points="20.25949,61.035491 20.566978,61.558996 19.947614,62.358095 19.792936,62.547324 19.419717,61.886027 19.174105,61.446188 19.737169,60.763624 19.95912,60.484872" slic3r:type="contour"/>
    <polygon style="fill: white" points="22.239986,61.074836 22.593183,61.585892 22.043611,62.417008 21.895064,62.63428 21.492342,62.019376 21.19693,61.585899 21.677935,60.876056 21.895064,60.564048" slic3r:type="contour"/>
  </g></svg>