<svg width="43.790126" height="63.590156" xmlns="http://www.w3.org/2000/svg" xmlns:svg="http://www.w3.org/2000/svg" xmlns:xlink="http://www.w3.org/1999/xlink" xmlns:slic3r="http://slic3r.org/namespaces/slic3r"><g xmlns="http://www.w3.org/2000/svg" slic3r:z="4.295e-006" id="layer12">
    <polygon style="fill: white" points="35.582576,19.936327 35.652675,19.921754 35.755452,20.074186 35.732569,20.16237 35.8854,20.343218 36.284356,20.850398 35.978304,20.955327 35.497366,21.11759 35.266685,22.084926 35.290172,22.117302 35.285094,22.136955 35.615696,22.560386 35.443099,22.609214 35.140425,22.696846 35.083852,22.915797 34.944194,23.546896 35.200784,23.748242 35.090691,23.800884 34.919109,23.886416 34.922203,24.016593 34.928769,24.4141 35.284204,24.543858 35.172848,24.655537 34.991336,24.840987 35.000056,24.87441 35.094373,25.325929 35.70172,25.444974 35.556507,25.668242 35.267664,26.123525 35.34595,26.434528 35.807155,26.548965 36.330156,26.665668 36.096259,27.024186 35.661544,27.703288 35.002856,27.51096 34.40078,27.400653 34.49508,27.278564 34.727394,26.925808 33.89596,26.47792 33.84908,26.2605 33.797428,26.251306 33.760572,26.245194 33.825033,26.136902 33.792928,25.95787 33.656721,25.188155 33.341743,25.064331 33.170238,24.996742 33.605162,24.514001 33.599619,24.096679 33.598236,24.001635 33.201218,23.651776 33.029394,23.495996 33.674584,23.156206 33.743716,22.771613 33.839259,22.203403 33.682939,21.984235 33.614432,21.876882 33.918449,21.801438 33.966612,21.556765 34.036492,20.983668 34.357767,20.83618 34.588172,20.612305 34.340324,20.256432 34.463631,20.199848 35.244296,19.952721 35.646852,19.35408" slic3r:type="contour"/>
    <polygon style="fill: white" points="22.052791,0.617067 22.485094,1.221625 22.57645,1.22475 22.940671,0.826869 23.26119,0.47104 23.386876,0.693727 23.743753,1.335887 23.869278,1.353552 24.254528,1.028256 24.631526,0.710346 24.722183,0.933076 24.990963,1.615692 25.151021,1.663285 25.55635,1.408267 25.986584,1.14704 26.044597,1.375382 26.183381,1.977065 26.21985,2.126716 26.361638,2.200335 26.839509,1.989795 27.30061,1.806881 27.327237,2.060729 27.371458,2.724649 27.375816,2.726912 27.393597,2.936204 27.448075,2.981443 28.09554,2.801807 28.536876,2.7015 28.525542,3.015072 28.454656,3.817321 28.465028,3.825934 28.46144,3.881848 28.573821,3.9775 28.764211,3.960888 28.766408,3.963317 29.333898,3.879009 29.721056,3.840197 29.658986,4.22189 29.530306,4.80769 29.941105,5.261767 30.111194,5.263393 30.114844,5.268542 30.567261,5.244593 30.896632,5.242332 30.781692,5.675052 30.662832,6.041546 31.268551,6.895985 31.427695,6.909497 31.432169,6.917428 31.814476,6.923254 32.11309,6.941873 31.960123,7.388478 31.850608,7.65916 32.54683,8.893301 32.718365,8.919485 32.720287,8.923971 33.108031,8.954673 33.430794,8.995408 33.268512,9.401111 33.086494,9.778801 33.658995,11.115179 34.324511,11.219871 34.740412,11.302211 34.599376,11.603001 34.250091,12.212654 34.288804,12.263335 34.247386,12.346726 35.160237,13.556491 35.186936,13.564459 35.323587,13.600912 35.90322,13.765569 35.825588,13.900483 35.631278,14.180741 35.643916,14.19749 35.640635,14.202581 36.441315,15.434894 36.534132,16.210362 36.637127,16.267688 36.702852,16.303097 36.562586,16.448096 36.564248,16.461978 36.475594,16.55835 36.098478,18.108971 36.515716,18.484354 36.777852,18.727088 36.319312,18.992058 35.706032,19.325417 35.654526,19.284562 35.105147,18.848787 34.798667,18.531457 35.250395,18.230034 35.497755,18.104688 35.199396,17.373852 34.749788,16.808612 34.78434,16.754268 34.803558,16.6725 34.731596,16.63939 34.760264,16.604951 34.815003,16.547642 34.808824,15.604 34.709459,14.620705 34.511967,14.57126 33.994556,14.445303 34.207823,14.13116 34.470717,13.740894 34.132356,12.652159 33.798648,12.301976 33.163473,12.196343 32.898096,12.162604 33.179674,11.68966 33.212462,11.628712 33.189666,11.601568 33.255945,11.474823 32.558168,10.674643 32.09597,10.018086 31.812128,9.98979 31.660622,9.982342 31.834419,9.64655 31.81729,9.622218 31.847497,9.555512 31.38834,8.962933 30.800556,8.045371 30.562516,8.036379 30.41895,8.037857 30.57194,7.688488 30.557156,7.66541 30.576539,7.615518 30.120345,6.995263 29.763837,6.432736 29.47689,6.443237 29.288738,6.457314 29.465085,5.961343 29.44456,5.928956 29.45946,5.88108 28.864229,5.111011 28.493656,5.162274 28.237496,5.205352 28.365117,4.700849 28.417801,4.464935 28.387734,4.42088 28.394361,4.389167 28.048214,4.010899 27.555639,4.146395 27.233832,4.242287 27.292616,3.778594 27.343517,3.262372 27.131488,3.118679 26.60254,3.357501 26.242036,3.525622 26.232688,3.098257 26.208128,2.611374 25.979637,2.498099 25.563057,2.772208 25.21119,3.008568 25.13452,2.601516 25.034589,2.123868 24.818678,2.051592 24.453745,2.377084 24.138362,2.662551 23.999523,2.270637 23.826015,1.798376 23.63658,1.762052 23.299575,2.152831 23.030072,2.468721 22.834678,2.092825 22.59279,1.631246 22.431236,1.621277 22.122509,2.07394 21.895064,2.410231 21.653102,2.056599 21.35744,1.620476 21.19855,1.630271 20.951875,2.103395 20.76004,2.46872 20.483284,2.14933 20.150565,1.760542 19.967648,1.79557 19.798637,2.266299 19.651762,2.662547 19.339537,2.385846 18.966704,2.049744 18.761072,2.118527 18.667587,2.594766 18.578954,3.008552 18.226585,2.778776 17.804368,2.496739 17.588135,2.603981 17.570946,3.125033 17.548092,3.525624 17.144662,3.346145 16.653296,3.119035 16.450374,3.256812 16.525111,3.903075 16.556312,4.242276 16.08428,4.117112 15.712584,4.008867 15.389648,4.356326 15.402392,4.42088 15.377592,4.452601 15.497308,4.949213 15.552631,5.205353 15.013282,5.137819 14.860865,5.113557 14.311852,5.815811 14.345567,5.928956 14.332793,5.946378 14.445808,6.277922 14.50139,6.457315 13.965638,6.447133 13.413595,7.20005 13.193881,7.560344 13.232979,7.665408 13.225491,7.675393 13.322046,7.906655 13.371182,8.037831 12.933524,8.06472 12.269849,8.949705 11.918632,9.496758 11.97286,9.622225 11.964947,9.631932 12.073,9.851928 12.129508,9.982315 11.627544,10.04585 10.50857,11.418576 10.600428,11.601563 10.588677,11.614534 10.784037,11.955151 10.892022,12.16262 10.372664,12.26039 9.951253,12.318142 9.662066,12.637354 9.31923,13.739013 9.558607,14.092511 9.79557,14.445303 9.474583,14.526916 9.117659,14.6144 9.048936,15.705972 8.983054,16.565443 9.058533,16.639362 8.993891,16.662433 9.040339,16.808584 8.621594,17.669805 8.351595,18.189177 8.699359,18.408362 8.991456,18.531458 8.695697,18.738314 8.136234,19.2753 8.084047,19.325389 7.302649,18.882556 7.012273,18.727104 7.393854,18.386719 7.656206,18.145689 7.469884,17.510853 7.290072,16.528081 7.225879,16.461984 7.227802,16.435947 7.13933,16.348128 7.087274,16.303097 7.244115,16.215115 7.256628,16.045718 7.348811,15.434894 7.877226,14.558651 8.16686,14.139781 7.886908,13.765563 8.055384,13.721125 8.551238,13.583892 8.554684,13.578909 8.579221,13.571591 8.754436,13.318337 9.536896,12.331307 9.501356,12.263344 9.545075,12.201608 9.272079,11.65779 9.049735,11.302195 9.417697,11.247047 10.106811,11.12307 10.669867,9.767597 10.694515,9.715584 10.509588,9.282192 10.35934,8.995396 10.832615,8.962604 11.062804,8.938398 11.071774,8.919469 11.205644,8.902938 11.825258,7.793554 11.938372,7.607387 11.794935,7.211781 11.677055,6.941873 12.163421,6.940098 12.348511,6.932367 12.362427,6.909463 12.483673,6.902467 13.127952,5.992683 12.999607,5.540898 12.893495,5.242333 13.330842,5.270983 13.666441,5.279837 13.678933,5.263394 13.818905,5.265737 14.262908,4.776924 14.158512,4.197499 14.069069,3.840196 14.430438,3.898948 15.017591,3.969493 15.025915,3.960888 15.198541,3.980624 15.328498,3.870623 15.325149,3.826257 15.338448,3.814588 15.302533,3.126803 15.253228,2.70153 15.536491,2.784352 16.330158,2.980884 16.39943,2.923032 16.414311,2.726933 16.426323,2.720457 16.466699,2.285187 16.489518,1.806884 16.71382,1.908615 17.415931,2.199589 17.573409,2.117769 17.608526,1.969726 17.614277,1.967981 17.696534,1.634378 17.803572,1.147037 18.002446,1.273389 18.633807,1.66245 18.802335,1.612367 18.979159,1.173265 19.158602,0.710337 19.345771,0.86842 19.921004,1.353738 20.047447,1.335936 20.295349,0.894377 20.528927,0.471042 20.705276,0.662793 21.215427,1.225326 21.305874,1.222229 21.621531,0.786015 21.895064,0.400289" slic3r:type="contour"/>
    <polygon style="fill: white" points="8.767238,20.079514 8.841481,20.112033 9.449804,20.256426 9.386065,20.316732 9.216525,20.539643 9.753634,20.983668 9.887288,21.81292 10.060217,21.85507 10.1757,21.876882 9.951421,22.184678 10.043999,22.704193 10.124752,23.17423 10.55841,23.400558 10.760756,23.496015 10.235636,23.957191 10.193093,23.995328 10.188844,24.319251 10.185849,24.520965 10.495102,24.862701 10.619901,24.996742 10.131149,25.188855 10.09294,25.400553 9.964888,26.13458 10.010353,26.211534 10.029565,26.245194 9.939064,26.261367 9.926644,26.315261 9.894133,26.477999 9.384966,26.658948 9.049853,26.856858 9.38935,27.400672 9.171988,27.465226 8.128547,27.703244 7.717412,27.069502 7.459972,26.665668 7.84955,26.563828 8.45667,26.426241 8.525826,26.163259 8.522126,26.157032 8.526878,26.137268 8.472297,26.052774 8.088406,25.444982 8.328659,25.399459 8.71329,25.324206 8.81406,24.859376 8.505921,24.543858 8.645368,24.50156 8.864062,24.422256 8.865693,24.349538 8.873446,23.890253 8.589347,23.748242 8.687162,23.683364 8.833736,23.569435 8.730183,23.1887 8.623131,22.690534 8.174428,22.560418 8.292336,22.428313 8.508222,22.155811 8.499951,22.11732 8.506766,22.108396 8.442986,21.878188 8.268655,21.107956 8.100587,21.050648 7.505768,20.850392 7.712324,20.611636 8.058254,20.178358 8.034675,20.074182 8.10205,19.979141 8.137447,19.921755 8.195417,19.936577 8.143286,19.354094" slic3r:type="contour"/>
    <polygon style="fill: white" points="8.565663,28.379084 8.876601,28.733422 8.422743,28.923402 7.957609,29.100417 7.971249,30.039386 8.339398,30.348914 8.578295,30.545437 8.038301,30.842603 7.990567,30.869572 7.99069,30.874079 7.957117,30.894246 8.003596,31.983925 8.006649,32.408383 8.255906,32.584741 8.453543,32.712856 8.010905,33.000111 8.011115,33.029361 7.98542,33.047892 8.064382,34.034724 8.085126,34.792739 8.306047,34.92378 8.503256,35.025064 8.099794,35.32862 8.101001,35.37274 8.083915,35.387159 8.220824,36.343579 8.283656,37.104615 8.51061,37.2114 8.729746,37.295996 8.328856,37.652089 8.333587,37.709392 8.329661,37.713319 8.549153,38.597059 8.660812,39.220221 8.894732,39.299459 9.130779,39.358176 8.758187,39.763671 8.76795,39.818163 9.063451,40.615792 9.213585,41.132371 9.446813,41.178516 9.695,41.20356 9.365843,41.656266 9.37495,41.687596 9.74837,42.409435 9.92544,42.827241 10.153773,42.837064 10.410825,42.821748 10.1349,43.326731 10.595061,43.980999 10.781362,44.295028 11.004019,44.265848 11.267049,44.203868 11.05948,44.759196 11.597768,45.322975 11.771602,45.533059 11.996772,45.461836 12.261047,45.349972 12.130035,45.96032 12.748341,46.445824 12.893394,46.575055 13.123305,46.45914 13.384964,46.297796 13.334074,46.962373 14.03834,47.381608 14.132843,47.444841 14.368908,47.281639 14.626822,47.072188 14.65741,47.793168 15.471322,48.163201 15.715311,47.950443 15.971313,47.694244 16.083792,48.477498 16.88129,48.756343 17.135472,48.486815 17.394058,48.183199 17.561502,48.903844 17.594957,49.027963 18.349367,49.216631 18.609747,48.88432 18.868294,48.534328 19.076756,49.178492 19.163975,49.423913 19.867831,49.530922 20.123303,49.137084 20.374512,48.746444 20.617775,49.324211 20.761839,49.647675 21.427388,49.682473 21.661832,49.237755 21.895064,48.81778 22.177103,49.351975 22.357977,49.685613 23.014954,49.651297 23.213582,49.177823 23.415602,48.74644 23.753774,49.267876 23.929163,49.539504 24.604183,49.437112 24.757185,48.96106 24.921834,48.534356 25.330298,49.056492 25.461417,49.229069 26.132796,49.061485 26.13527,49.053483 26.167676,49.042156 26.27072,48.593335 26.396056,48.183192 26.884498,48.702424 26.945252,48.77034 27.64195,48.526797 27.64652,48.506076 27.674074,48.493516 27.73194,48.081875 27.818814,47.694244 28.370257,48.176158 29.072396,47.856085 29.075046,47.834431 29.099512,47.819789 29.114627,47.43928 29.163302,47.072176 29.713293,47.452462 30.402103,47.040232 30.402326,47.015527 30.424387,46.99806 30.396772,46.645287 30.405162,46.297792 30.95821,46.575386 31.592892,46.072851 31.616461,46.051725 31.613022,46.02312 31.632175,46.002816 31.562188,45.6763 31.529076,45.349976 32.084718,45.523069 32.662066,44.911015 32.701708,44.862841 32.692492,44.828163 32.707931,44.805831 32.596745,44.505431 32.523073,44.203856 33.076968,44.272048 33.591635,43.52762 33.643756,43.43934 33.6246,43.393732 33.636169,43.370877 33.488022,43.09532 33.379296,42.821744 33.929195,42.791986 34.373279,41.914668 34.433042,41.773061 34.404588,41.724016 34.412591,41.701837 34.232172,41.448412 34.095128,41.203528 34.63346,41.089764 34.996956,40.082439 35.056883,39.875124 35.020659,39.826728 35.025627,39.806066 34.817895,39.574355 34.659348,39.358152 35.177396,39.174896 35.4466,38.055327 35.499607,37.755984 35.456527,37.709404 35.459149,37.690259 35.232288,37.48318 35.060372,37.295996 35.545491,37.059929 35.708671,35.868616 35.744211,35.422514 35.689108,35.372748 35.690169,35.358314 35.461543,35.181783 35.286872,35.025072 35.734725,34.751976 35.826719,33.5001 35.839125,33.074977 35.77902,33.02937 35.779342,33.02057 35.529823,32.855567 35.336584,32.712856 35.802895,32.376743 35.856589,30.909007 35.827639,30.891344 35.47078,30.693938 35.211832,30.545418 35.626775,30.194882 35.813855,30.039718 35.83026,29.089874 35.30988,28.874632 34.913524,28.733434 35.175887,28.457738 35.752076,27.816092 36.670571,28.207705 36.910304,28.29672 36.526188,28.742511 36.288364,29.019026 36.624772,29.616108 36.880647,30.179622 36.898179,30.189565 36.89827,30.189899 37.17266,30.354312 37.242159,30.391772 37.00714,30.587991 37.093844,30.905034 37.349944,32.299371 37.345947,32.67265 37.344523,32.722896 37.346951,32.724675 37.346728,32.729288 37.375732,32.748542 37.344891,32.767341 37.240363,34.932012 37.226199,35.138055 37.239036,35.149152 37.237098,35.166106 37.330915,35.238476 37.288355,35.259108 37.221821,35.299769 36.999084,37.248556 36.95799,37.550613 36.979792,37.573031 36.974846,37.595459 37.0991,37.710128 37.034879,37.733672 36.933223,37.784254 36.582247,39.37618 36.488164,39.760189 36.5181,39.797988 36.507408,39.829147 36.670992,40.013832 36.571672,40.038372 36.41586,40.095961 36.004132,41.295927 35.83373,41.755014 35.870608,41.81446 35.850827,41.854865 36.048124,42.13666 35.903464,42.152999 35.679281,42.205255 35.277799,43.0253 35.012796,43.53276 35.051316,43.617224 35.020064,43.663572 35.229124,44.063692 35.035559,44.056252 34.738601,44.081 34.407591,44.571908 34.036355,45.092989 34.0682,45.200208 34.026496,45.245531 34.21074,45.772564 33.974624,45.722676 33.615477,45.692219 33.391692,45.935423 32.908754,46.434608 32.925814,46.548344 32.876653,46.588423 32.998892,47.222532 32.737669,47.118783 32.35262,47.015651 32.230324,47.115355 31.641977,47.571447 31.644232,47.679548 31.591405,47.712365 31.631563,48.418775 31.364763,48.261595 30.984846,48.089168 30.92687,48.125183 30.251916,48.522201 30.243256,48.616492 30.189625,48.64223 30.144896,49.379792 29.890488,49.179208 29.539585,48.954196 29.487801,48.979048 28.758034,49.30773 28.743662,49.383712 28.691368,49.403313 28.574186,50.128548 28.346788,49.902316 28.038841,49.647891 27.919766,49.692523 27.179228,49.950315 27.161707,50.013256 27.119655,50.024707 26.947639,50.69268 26.756978,50.462632 26.49256,50.195462 26.243046,50.263403 25.535848,50.440439 25.517904,50.489452 25.491485,50.493888 25.282084,51.083979 25.126101,50.863003 24.903694,50.592592 24.511493,50.658452 23.855055,50.758863 23.838275,50.795748 23.829192,50.796278 23.593314,51.312716 23.464149,51.102403 23.276343,50.828556 22.786287,50.857168 22.17658,50.889412 21.895064,51.386835 21.781276,51.177148 21.616554,50.88655 21.12162,50.857572 20.529166,50.826264 20.196814,51.31274 20.086924,51.081412 19.95677,50.796019 19.951872,50.79576 19.930326,50.749155 19.530226,50.681516 18.914475,50.587507 18.508044,51.08398 18.401385,50.816079 18.286831,50.491682 18.272224,50.489452 18.247078,50.424001 17.992093,50.354091 17.337372,50.190443 16.84249,50.692656 16.745521,50.383856 16.652491,50.019256 16.628455,50.013248 16.602901,49.928551 16.49036,49.886171 15.799027,49.645592 15.215926,50.128559 15.140396,49.787615 15.077903,49.394646 15.046437,49.383696 15.02493,49.282987 14.303675,48.957755 13.645234,49.3798 13.603899,49.029504 13.580668,48.631732 13.54687,48.616491 13.533236,48.497378 12.861895,48.101631 12.158567,48.418764 12.157348,48.080812 12.179734,47.699505 12.145932,47.679579 12.145638,47.546323 12.096963,47.506767 11.494604,47.038404 10.791243,47.222544 10.829073,46.917467 10.895892,46.572874 10.864311,46.548319 10.881504,46.410072 10.731441,46.247788 10.226719,45.724033 9.579384,45.772548 9.647384,45.517912 9.748676,45.227963 9.721914,45.200192 9.756672,45.070321 9.482318,44.66626 9.091678,44.115074 8.560971,44.063672 8.642219,43.869696 8.75877,43.645347 8.73881,43.617184 8.782287,43.514086 8.406724,42.753548 8.138075,42.235693 7.742004,42.136636 7.819912,42.000344 7.932016,41.838488 7.919536,41.814432 7.961915,41.741565 7.549249,40.55074 7.390508,40.119691 7.119132,40.013808 7.183709,39.924895 7.27866,39.815975 7.27203,39.797972 7.306856,39.751481 6.944455,38.125744 6.865754,37.801417 6.691026,37.710128 6.739733,37.654875 6.813346,37.585446 6.810333,37.573031 6.835933,37.545344 6.605122,35.55128 6.572838,35.311041 6.459212,35.238504 6.49568,35.203048 6.552281,35.15806 6.551087,35.149175 6.566579,35.135072 6.451409,32.848168 6.446342,32.772185 6.414391,32.748539 6.438315,32.728423 6.44622,32.722325 6.440181,32.299366 6.802166,30.608554 6.603915,30.440671 6.547965,30.391742 6.957514,30.132928 7.523135,29.044079 7.035547,28.477856 6.879821,28.29672 7.400631,28.059609 8.038034,27.816091" slic3r:type="contour"/>
  </g></svg>