<svg width="43.790126" height="63.590156" xmlns="http://www.w3.org/2000/svg" xmlns:svg="http://www.w3.org/2000/svg" xmlns:xlink="http://www.w3.org/1999/xlink" xmlns:slic3r="http://slic3r.org/namespaces/slic3r"><g xmlns="http://www.w3.org/2000/svg" slic3r:z="5.18149999999998e-005" id="layer156">
    <polygon style="fill: white" points="31.488346,17.277859 31.584776,17.265071 31.729766,17.252286 31.578011,17.468828 31.58641,17.486716 31.199821,18.072336 30.566842,18.301979 29.69323,18.593526 29.778536,18.032907 29.860557,17.627102 29.851767,17.610327 29.849525,17.606352 29.856332,17.606057 29.895129,17.604047 30.457772,17.477133 31.047144,17.3582 31.360687,17.118748 31.397298,17.083942" slic3r:type="contour"/>
    <polygon style="fill: white" points="29.348889,17.071847 29.539,17.46259 28.835059,18.181486 28.735274,18.291725 28.297219,17.487037 28.09075,17.056358 28.657049,16.511525 28.920514,16.222402" slic3r:type="contour"/>
    <polygon style="fill: white" points="27.13833,16.210498 27.492026,16.898186 26.952606,17.504807 26.706818,17.804072 26.361856,17.18959 26.059052,16.588661 26.463888,16.138933 26.844816,15.674162" slic3r:type="contour"/>
    <polygon style="fill: white" points="25.265306,15.699718 25.722466,16.531827 25.280251,17.082148 24.962354,17.512844 24.662831,17.005741 24.301916,16.330647 24.623063,15.923673 25.049446,15.338436" slic3r:type="contour"/>
    <polygon style="fill: white" points="23.604677,15.436287 24.121968,16.318416 23.73247,16.852321 23.390806,17.365866 23.103691,16.912645 22.710798,16.224998 22.999165,15.822404 23.428216,15.163017" slic3r:type="contour"/>
    <polygon style="fill: white" points="22.059314,15.356045 22.59885,16.230667 22.23202,16.774868 21.895064,17.3272 21.597947,16.895577 21.191258,16.230674 21.481855,15.806466 21.895064,15.114476" slic3r:type="contour"/>
    <polygon style="fill: white" points="20.531903,15.401218 21.079334,16.224942 20.725356,16.794723 20.399292,17.36588 20.084282,16.94158 19.668166,16.318207 19.96794,15.85823 20.361948,15.163012" slic3r:type="contour"/>
    <polygon style="fill: white" points="18.953913,15.609076 19.488192,16.330714 19.119352,16.967807 18.827785,17.512852 18.466822,17.070064 18.067686,16.531892 18.389066,15.998981 18.740706,15.338421" slic3r:type="contour"/>
    <polygon style="fill: white" points="17.255656,16.018835 17.731078,16.588668 17.303193,17.3686 17.083302,17.804088 16.631136,17.301298 16.298095,16.898188 16.661359,16.239992 16.94531,15.674165" slic3r:type="contour"/>
    <polygon style="fill: white" points="15.359158,16.691834 15.699381,17.05635 15.143854,18.106848 15.054854,18.291722 14.438831,17.668443 14.251127,17.462596 14.68737,16.602672 14.869599,16.22241" slic3r:type="contour"/>
    <polygon style="fill: white" points="12.765651,17.365976 13.892966,17.604211 13.932079,17.605911 13.940602,17.606352 13.938969,17.609465 13.92864,17.627791 14.012985,18.175719 14.096873,18.593528 13.667819,18.421137 12.590358,18.072354 12.462369,17.890831 12.203724,17.486684 12.216359,17.460079 12.11641,17.319333 12.06036,17.252258 12.301856,17.280046 12.370351,17.135814 12.392828,17.083914" slic3r:type="contour"/>
  </g></svg>