<svg width="43.790126" height="63.590156" xmlns="http://www.w3.org/2000/svg" xmlns:svg="http://www.w3.org/2000/svg" xmlns:xlink="http://www.w3.org/1999/xlink" xmlns:slic3r="http://slic3r.org/namespaces/slic3r"><g xmlns="http://www.w3.org/2000/svg" slic3r:z="4.09249999999998e-005" id="layer123">
    <polygon style="fill: white" points="24.247566,58.324216 24.69333,58.903804 24.398802,59.478423 24.096752,60.102463 23.871696,59.79902 23.295286,59.0637 23.651477,58.336652 23.894978,57.863216" slic3r:type="contour"/>
    <polygon style="fill: white" points="26.375568,58.004672 26.803304,58.473068 26.51232,59.158491 26.301826,59.721188 25.997056,59.371652 25.425086,58.773204 25.753725,57.927344 25.923708,57.524148" slic3r:type="contour"/>
    <polygon style="fill: white" points="28.59499,57.504784 28.951218,57.841592 28.654758,58.681872 28.526428,59.125148 28.098308,58.699036 27.598812,58.257748 27.912373,57.237488 28.002108,56.98108" slic3r:type="contour"/>
    <polygon style="fill: white" points="32.545402,55.418008 33.131689,55.860053 33.192746,55.852404 33.204467,55.859818 33.862464,55.720924 33.728731,56.7573 33.666332,57.0838 33.186985,57.177996 33.157065,57.307188 33.148598,57.358327 32.963119,57.221987 32.93421,57.227668 32.901668,57.20633 31.051385,57.398221 30.854687,58.066052 30.793348,58.337911 30.196194,57.811968 29.834764,57.534492 30.139348,56.281099 30.149248,56.247484 30.338126,56.389286 30.392242,56.235727 30.405876,56.141052 31.532991,56.06036 32.255416,55.969845 32.392382,55.316772" slic3r:type="contour"/>
    <polygon style="fill: white" points="34.872615,54.344651 35.573184,54.747148 35.494311,55.225176 35.449536,56.0841 35.268448,56.011376 34.355847,55.549368 34.424175,55.041292 34.493332,54.186103" slic3r:type="contour"/>
    <polygon style="fill: white" points="36.848936,52.929588 37.462888,53.147932 37.420888,53.8063 37.48032,54.522232 37.125559,54.436847 36.352464,54.210748 36.294648,53.565564 36.253296,52.860152" slic3r:type="contour"/>
    <polygon style="fill: white" points="38.866568,51.256648 39.054679,51.974599 39.211764,52.589508 38.788568,52.400844 38.10058,52.34656 37.775504,51.848031 37.637148,51.224732 38.309056,51.18274" slic3r:type="contour"/>
    <polygon style="fill: white" points="40.753191,47.913499 40.990743,48.699596 40.665823,48.851004 39.82971,49.109949 40.037628,49.297512 40.5301,50.014396 40.252783,50.116488 39.160432,50.515684 38.82608,49.991904 38.469188,49.549152 38.786771,49.516952 39.762565,49.089844 39.471435,48.078603 39.2408,47.217856 39.994731,46.948312 40.434888,46.8403" slic3r:type="contour"/>
    <polygon style="fill: white" points="40.92196,44.954932 40.899837,44.969121 41.244883,45.307671 41.730148,45.733988 41.315095,46.00036 40.49466,46.603496 39.825783,46.017615 39.596588,45.776284 40.064124,45.440247 40.836716,44.907188 40.843015,44.913369 40.861924,44.898572" slic3r:type="contour"/>
    <polygon style="fill: white" points="41.952816,40.913464 42.316376,41.149628 41.735644,41.601607 41.455935,41.85983 41.489608,41.992276 41.447401,42.028187 41.790864,42.97108 42.027652,43.812248 41.677587,44.14428 40.876688,44.612924 40.367999,43.030499 40.12808,42.345303 40.80421,41.905478 40.746376,41.853884 40.794192,41.796895 40.356791,41.506287 40.230844,41.392827 40.777556,40.862664 41.333979,40.411652" slic3r:type="contour"/>
    <polygon style="fill: white" points="38.495759,20.278497 39.128104,20.442056 38.989099,20.598982 38.682499,21.049082 39.7576,22.372098 39.790579,23.04208 39.918923,23.085917 39.993964,23.10296 39.803876,23.312233 39.808028,23.396574 39.797201,23.411309 40.043304,25.135038 40.120736,25.775697 40.591347,25.954615 40.842028,26.014508 40.395924,26.489665 40.234736,26.718897 40.25592,26.894156 40.220338,26.939363 40.630848,28.837216 41.306044,29.137746 41.62256,29.226886 41.180456,29.671739 40.880669,30.067534 40.909692,30.234568 40.853983,30.300132 41.427564,32.418023 41.963084,32.71205 42.20974,32.803316 41.62121,33.346459 41.657632,33.520434 41.606097,33.575688 41.95292,34.682496 42.441513,36.790038 42.461152,36.799652 42.446856,36.811763 42.460556,36.863792 41.812299,38.022484 41.395508,38.448164 41.149673,37.664304 40.989463,37.577287 40.393092,37.13628 40.552871,36.974356 40.853191,36.718955 40.843408,36.68776 40.947319,36.570883 40.251316,34.136332 40.549461,33.488445 40.488244,33.451778 40.491052,33.401695 40.255504,33.307728 40.197212,33.27338 40.520151,32.882865 40.66469,30.305716 40.518612,30.233486 40.482558,30.078578 39.813428,29.865006 39.650712,29.789008 40.10568,29.190802 40.241531,29.043013 39.765041,26.995777 39.607612,26.928368 39.549238,26.810234 39.0323,26.666462 38.906324,26.616516 39.230263,26.164711 38.902263,25.500926 38.304723,24.518287 38.247847,24.000285 38.205319,23.762318 38.076803,23.712798 38.103207,23.676908 38.174955,23.592426 38.173228,23.582756 38.217934,23.517384 38.220252,22.541814 38.108712,21.373785 37.88568,21.319418 37.222416,21.083226 37.40412,20.798921 37.943944,20.105558" slic3r:type="contour"/>
    <polygon style="fill: white" points="20.739231,8.20191 20.87981,8.511319 21.013747,8.283049 21.29716,7.848203 21.452684,8.179463 21.57825,8.452973 21.63941,8.33471 21.895064,7.88418 22.052291,8.187334 22.208849,8.477479 22.289688,8.305715 22.492946,7.848207 22.680514,8.165918 22.915824,8.548401 23.067273,8.239681 23.246336,7.798624 23.487298,8.224681 23.627262,8.465565 23.857482,8.455201 23.863311,8.442342 23.905205,8.442865 24.028048,8.21411 24.192804,7.809832 24.508119,8.450391 24.894344,8.455212 25.129135,8.47164 25.228164,8.299081 25.369202,7.953388 25.602891,8.504788 25.606058,8.50501 25.613938,8.522505 26.00433,8.551734 26.683591,8.646969 26.744923,8.54299 26.850576,8.285001 27.00483,8.692008 27.024652,8.694787 27.03403,8.716035 27.308682,8.746916 28.548484,8.986465 28.5914,8.880783 28.635218,9.003223 28.64472,9.00506 28.648303,9.013451 28.719262,9.023562 29.043056,9.101164 28.751277,9.254643 29.070577,10.00252 29.137063,10.012874 29.164639,10.069242 29.732672,10.131559 30.512142,10.282522 30.601564,10.165857 30.662854,9.923359 30.832531,10.344572 30.877768,10.353334 30.887909,10.375927 31.048998,10.398935 31.472204,10.499744 31.137411,10.931824 31.446711,11.620951 31.495414,11.626801 31.524789,11.690881 32.202901,11.747982 32.834458,11.845441 33.024601,11.718749 33.103288,11.585685 33.216067,11.90433 33.248811,11.909384 33.252758,11.920298 33.349443,11.933253 33.515744,11.96898 33.394934,12.313465 33.832377,13.523151 33.844076,13.524009 33.849063,13.541453 34.530419,13.6005 35.501127,13.731246 35.494208,13.759427 35.524488,13.753854 35.528304,13.781878 35.821842,15.608145 36.414507,15.699843 37.053572,15.806615 36.94326,16.041264 36.740342,16.469889 37.62418,16.777051 37.623409,17.898533 37.94996,17.987134 38.218616,18.051288 37.844352,18.53985 37.621035,18.895624 37.620844,18.931266 37.603143,18.924129 37.517452,19.060646 36.496723,18.841941 36.347152,18.792432 36.513778,18.484905 36.321092,18.407216 36.154792,18.374612 36.260939,17.688658 36.258999,16.88154 35.718012,16.806166 35.158379,16.691367 35.357083,16.137566 35.562939,15.718134 34.923259,15.792006 34.553112,15.869439 34.5381,15.384825 34.469405,14.832178 34.436316,14.826463 34.431792,14.794688 34.066535,14.755594 33.300212,14.674331 33.458522,14.080758 33.568487,13.683932 32.991969,14.065324 32.769737,14.204281 32.585624,13.562756 32.45098,13.064122 32.345586,13.046106 32.313277,12.947204 30.99881,12.805134 30.782056,13.004342 30.73362,12.8816 30.694378,12.772229 30.668879,12.769473 30.656754,12.73991 30.063912,12.695155 30.204278,12.468025 30.332228,11.929104 30.184421,11.503849 30.010258,11.473657 29.958502,11.350438 29.333728,11.27179 29.069932,11.689223 28.798282,12.075096 28.548273,11.516749 28.408452,11.155311 28.296813,11.141258 28.254225,11.043844 27.270814,10.955666 26.972748,11.412298 26.842031,11.125181 26.753974,10.909322 26.692167,10.903781 26.674653,10.863017 25.931118,10.808296 25.518511,10.78498 25.396952,10.974369 25.349231,10.865635 25.310628,10.773233 25.288039,10.771957 25.285626,10.765993 24.458036,10.753139 24.771688,10.372337 25.006068,10.071713 24.812654,9.576318 24.232052,10.601269 24.188674,10.68297 23.947433,10.05229 23.761218,9.631903 23.459897,10.162603 23.283388,10.508194 23.098784,10.036512 22.935098,9.717923 22.826642,9.913971 22.55621,10.440652 22.391738,10.067632 22.243543,9.806882 21.895064,10.430599 21.716201,10.089462 21.572454,9.833171 21.233898,10.440648 21.005425,10.060867 20.86214,9.780037 20.765616,9.989444 20.506776,10.508192 20.210497,10.040747 20.024946,9.674379 19.664883,10.536528 19.601398,10.682959 19.236621,10.084035 18.972846,9.583333 18.783821,10.060601 19.101732,10.458849 19.33181,10.753194 18.635808,10.764673 18.504247,10.766495 18.50205,10.772041 18.47746,10.774123 18.393216,10.974369 18.333135,10.878944 18.276744,10.791109 17.507813,10.85618 17.108667,10.876384 17.097943,10.903791 17.024645,10.914169 16.817414,11.412292 16.674615,11.164243 16.554468,10.980736 16.256193,11.022966 15.51721,11.078184 15.493217,11.141323 15.354034,11.168712 14.991801,12.075125 14.724671,11.612335 14.499122,11.292828 13.82011,11.359162 13.779675,11.473677 13.586867,11.523221 13.483179,11.800705 13.635552,12.135438 13.726164,12.695163 13.315293,12.744917 13.127599,12.752281 13.121171,12.769483 13.091801,12.774421 13.008017,13.004342 12.923339,12.917509 12.818656,12.82033 12.257712,12.914613 11.466654,12.971341 11.444536,13.046121 11.331374,13.071335 11.248239,13.370482 11.020385,14.204289 10.480086,13.839799 10.217818,13.673952 10.430439,14.462575 10.489912,14.674338 9.939033,14.734323 9.358524,14.795616 9.353856,14.826403 9.350749,14.826853 9.237135,15.869303 8.589067,15.801033 8.219348,15.73437 8.492152,16.43537 8.631715,16.691416 8.213495,16.723151 7.567887,16.856046 7.611606,17.513195 7.635303,18.374656 7.267828,18.517743 7.37598,18.704594 7.442981,18.792394 6.843551,18.879234 6.272711,19.060674 6.17682,18.929096 6.169273,18.931212 6.169323,18.918808 5.735884,18.324058 5.571501,18.051288 6.173456,17.886365 6.175352,17.412784 6.165972,16.776997 6.515504,16.681892 7.060622,16.490527 7.030719,16.427012 6.7366,15.806542 7.13629,15.744537 7.965181,15.610101 8.069296,14.760256 8.269678,13.733031 8.318237,13.728362 9.938168,13.547648 9.946002,13.52405 9.958583,13.52341 10.199707,12.665789 10.402736,12.216195 10.346762,12.073548 10.27435,11.968983 10.532526,11.928785 10.552763,11.88397 10.577998,11.796898 10.686806,11.585685 11.151483,11.839966 12.246243,11.715417 12.294571,11.626785 12.313726,11.625296 12.546779,10.982141 12.665593,10.777753 12.556915,10.63721 12.317938,10.499726 12.889031,10.393384 12.912326,10.35331 12.919885,10.352282 12.960981,10.228389 13.127223,9.923408 13.405115,10.286286 14.358997,10.15655 14.588203,10.120354 14.653073,10.012817 14.663284,10.011782 14.801224,9.633096 15.043907,9.190239 14.971759,9.143533 14.746919,9.101224 15.136432,9.021399 15.154199,8.988975 15.159455,8.973011 15.198707,8.880769 15.263955,8.989817 15.426668,8.968867 16.740894,8.740927 16.76542,8.694808 16.771208,8.694317 16.81355,8.577349 16.939492,8.285044 17.153067,8.661934 17.592212,8.624693 18.158012,8.551941 18.249279,8.332804 18.420946,7.953372 18.720355,8.49438 19.254778,8.483807 19.376929,8.232909 19.597316,7.809821 19.882218,8.353112 19.91196,8.414689 19.94423,8.474928 20.139294,8.482844 20.279388,8.232905 20.543756,7.798622" slic3r:type="contour"/>
    <polygon style="fill: black" points="15.598815,9.549466 15.546861,9.599615 15.698027,9.906883 16.233575,9.85259 16.255909,9.814836 16.384889,9.482527 15.974804,9.289167 15.4055,9.22638" slic3r:type="hole"/>
    <polygon style="fill: black" points="27.423435,9.598352 27.498672,9.768825 27.507728,9.769895 27.537084,9.828292 28.157751,9.880015 28.384079,9.532124 28.332122,9.475122 28.191586,9.549046 28.343608,9.305428" slic3r:type="hole"/>
    <polygon style="fill: white" points="6.204337,20.63783 6.567714,21.083214 6.298024,21.134894 5.722637,21.330625 5.585686,23.539186 5.616912,23.582781 5.614552,23.599568 5.713321,23.712797 5.674281,23.722875 5.592991,23.752954 5.485413,24.518268 4.568405,26.214473 4.793166,26.512372 4.883804,26.61654 4.272018,26.762704 4.182411,26.928452 4.092169,26.965552 3.584968,29.125337 4.004848,29.645442 4.139402,29.789008 3.458504,29.975743 3.329277,30.032259 3.271509,30.233372 3.156126,30.287719 3.324031,31.78819 3.308388,32.961911 3.535712,33.2183 3.592939,33.273366 3.302897,33.373844 3.301859,33.451792 3.272962,33.468146 3.439965,33.796848 3.538825,34.136476 3.165501,35.713279 2.870967,36.608964 2.946827,36.687744 2.932213,36.743081 3.397058,37.136272 3.203967,37.231488 2.713378,37.571693 2.69266,37.65014 2.394878,38.447892 1.346647,36.882183 1.329579,36.864284 1.344726,36.818176 1.342723,36.816031 1.342798,36.815758 1.328977,36.799667 1.351775,36.783213 1.682223,35.585215 2.218607,33.62062 2.132465,33.52043 2.159015,33.41541 1.762045,33.03913 1.580377,32.803358 2.188381,32.447172 2.428867,32.348011 2.943024,30.314261 2.880294,30.234476 2.911232,30.092042 2.383771,29.539457 2.167571,29.2269 2.734621,28.957846 3.189683,28.810118 3.589496,26.969474 3.534268,26.894275 3.55485,26.767242 3.111824,26.268111 2.948105,26.01447 3.608024,25.748083 3.725266,25.71541 3.929153,24.45699 4.012869,23.441179 3.982111,23.396644 3.986296,23.347721 3.844638,23.18056 3.796149,23.102954 4.013938,23.024589 4.036019,22.766453 4.032608,22.371806 4.604427,21.851349 5.123987,21.141059 5.070491,21.076787 4.662017,20.442066 4.89901,20.366182 5.845997,20.105546" slic3r:type="contour"/>
    <polygon style="fill: white" points="3.363554,41.234131 3.559276,41.392792 2.968572,41.754428 3.043813,41.853852 3.007658,41.884405 3.488366,42.199136 3.662045,42.345312 3.347684,43.421924 2.913204,44.612844 2.390403,44.171919 1.762425,43.811968 2.239132,42.433695 2.360334,42.047362 2.300575,41.992244 2.33007,41.890873 1.797844,41.476064 1.473743,41.149668 1.866329,40.813796 2.456136,40.4116" slic3r:type="contour"/>
    <polygon style="fill: white" points="2.946136,44.913707 2.953357,44.907228 3.71057,45.442547 4.193552,45.776296 3.736701,46.160012 3.295487,46.603468 2.585777,46.150208 2.059977,45.734012 2.285081,45.506819 2.887554,44.966268 2.868119,44.954836 2.911492,44.912392 2.92814,44.89848" slic3r:type="contour"/>
    <polygon style="fill: white" points="4.269116,47.159475 4.549327,47.217832 4.325858,47.949232 4.028406,49.082886 4.393838,49.156511 5.320939,49.549156 5.081962,49.932095 4.629709,50.515656 4.103137,50.321687 3.260006,50.014388 3.420405,49.875508 3.973967,49.109089 3.516027,48.912788 2.799383,48.699632 3.036014,47.904035 3.355239,46.840308" slic3r:type="contour"/>
    <polygon style="fill: white" points="5.853614,51.583352 5.689563,52.34656 5.172206,52.56406 4.578349,52.5895 4.730454,52.008839 4.923559,51.256647 5.722664,51.290532 6.152977,51.224732" slic3r:type="contour"/>
    <polygon style="fill: white" points="7.485141,53.4006 7.437659,54.210748 6.967491,54.32366 6.309767,54.522212 6.283501,54.042063 6.327255,53.147944 7.037416,53.051424 7.536845,52.86016" slic3r:type="contour"/>
    <polygon style="fill: white" points="9.355922,54.590552 9.434167,55.54948 9.079283,55.692035 8.340556,56.084068 8.30388,55.849616 8.217013,54.74714 8.708045,54.53456 9.29683,54.18612" slic3r:type="contour"/>
    <polygon style="fill: white" points="11.453713,55.50162 11.54823,55.950837 13.384443,56.141124 13.468208,56.381963 13.618577,56.266388 13.640909,56.247488 13.84278,57.150196 13.955372,57.534496 13.232388,58.16262 12.996756,58.3379 12.713511,57.378681 11.778367,57.26776 10.896925,57.199689 10.855825,57.227692 10.833034,57.222986 10.687034,57.329052 10.641441,57.358296 10.598834,57.174627 10.432494,57.14028 10.123913,57.083872 10.057027,56.390268 9.92721,55.720972 10.615146,55.854141 10.683556,55.861231 11.397815,55.3168" slic3r:type="contour"/>
    <polygon style="fill: white" points="16.002669,57.716259 16.191403,58.257703 15.630339,58.810252 15.26368,59.125144 15.025539,58.451632 14.838968,57.841392 15.617417,57.143319 15.788065,56.98108" slic3r:type="contour"/>
    <polygon style="fill: white" points="18.095683,58.132227 18.365146,58.773047 17.923155,59.276544 17.488312,59.721184 17.282214,59.236776 16.986808,58.473012 17.600048,57.816371 17.8664,57.524136" slic3r:type="contour"/>
    <polygon style="fill: white" points="20.146016,58.384172 20.494842,59.063711 20.133313,59.549604 19.693384,60.102468 19.508277,59.741847 19.096812,58.903856 19.587339,58.26328 19.895118,57.863204" slic3r:type="contour"/>
    <polygon style="fill: white" points="22.18321,58.453972 22.598038,59.110712 22.283573,59.617856 21.895064,60.237976 21.708201,59.936511 21.19206,59.110668 21.598571,58.44978 21.895064,57.981068" slic3r:type="contour"/>
  </g></svg>