<svg width="43.790126" height="63.590156" xmlns="http://www.w3.org/2000/svg" xmlns:svg="http://www.w3.org/2000/svg" xmlns:xlink="http://www.w3.org/1999/xlink" xmlns:slic3r="http://slic3r.org/namespaces/slic3r"><g xmlns="http://www.w3.org/2000/svg" slic3r:z="5.28049999999998e-005" id="layer159">
    <polygon style="fill: white" points="17.249564,16.890538 17.479679,17.16635 16.854736,18.305473 16.835258,18.344048 16.539141,18.014777 16.471488,18.04781 16.51002,18.264445 16.538074,18.415464 15.80299,18.215726 15.161884,18.052284 15.146521,18.081336 14.922024,17.991135 14.561242,17.899158 14.433427,17.749495 14.225067,17.490894 14.278254,17.386051 14.115174,17.15476 14.037899,17.034016 14.41558,17.115355 14.512196,16.924905 14.544712,16.857052 14.90428,17.201831 16.108409,17.391648 16.56843,16.558138 16.70508,16.285836" slic3r:type="contour"/>
    <polygon style="fill: white" points="19.01966,16.497688 19.318076,16.900752 18.755346,17.872741 18.661691,18.047818 18.113545,17.375417 17.91185,17.103464 18.382586,16.322892 18.583965,15.944598" slic3r:type="contour"/>
    <polygon style="fill: white" points="20.676761,16.319898 20.993315,16.796221 20.443349,17.68148 20.316943,17.902902 19.824152,17.239144 19.592296,16.891806 20.048111,16.192395 20.286136,15.772407" slic3r:type="contour"/>
    <polygon style="fill: white" points="22.287399,16.304394 22.596494,16.805454 22.02906,17.647255 21.895064,17.866898 21.426608,17.186372 21.193624,16.805458 21.643135,16.149265 21.895064,15.727369" slic3r:type="contour"/>
    <polygon style="fill: white" points="23.909615,16.400499 24.197838,16.892 23.605603,17.703806 23.473154,17.902886 23.024007,17.193889 22.796814,16.796254 23.244839,16.17076 23.504036,15.772414" slic3r:type="contour"/>
    <polygon style="fill: white" points="25.647282,16.68288 25.878302,17.103376 25.230574,17.909453 25.128456,18.047804 24.673613,17.277739 24.472028,16.900672 24.961992,16.279763 25.206176,15.944607" slic3r:type="contour"/>
    <polygon style="fill: white" points="27.599996,17.226802 27.684397,17.390903 28.342222,17.286417 28.895691,17.199877 29.198402,16.908641 29.245414,16.857052 29.374807,17.113629 29.519717,17.080942 29.752228,17.034022 29.508237,17.378213 29.565062,17.490894 29.228883,17.899158 28.928891,17.977833 28.643606,18.081336 28.629942,18.056237 27.910186,18.244999 27.252122,18.415468 27.318228,18.042681 27.250295,18.009768 26.97664,18.317517 26.954862,18.344034 26.457012,17.45721 26.310448,17.166346 26.901723,16.509505 27.085046,16.285836" slic3r:type="contour"/>
  </g></svg>