<svg width="43.790126" height="63.590156" xmlns="http://www.w3.org/2000/svg" xmlns:svg="http://www.w3.org/2000/svg" xmlns:xlink="http://www.w3.org/1999/xlink" xmlns:slic3r="http://slic3r.org/namespaces/slic3r"><g xmlns="http://www.w3.org/2000/svg" slic3r:z="3.06949999999999e-005" id="layer92">
    <polygon style="fill: white" points="24.134753,61.643967 24.676114,62.258604 24.402004,62.761451 24.087176,63.345908 23.851285,63.060211 23.277544,62.410332 23.562075,61.893928 23.876988,61.363835" slic3r:type="contour"/>
    <polygon style="fill: white" points="26.229047,61.342979 26.764886,61.860404 26.502614,62.451155 26.275112,62.998384 25.974133,62.688691 25.388168,62.135872 25.64653,61.538115 25.890188,61.043203" slic3r:type="contour"/>
    <polygon style="fill: white" points="28.395018,60.882056 28.884732,61.29682 28.623531,62.00266 28.470824,62.468612 28.080501,62.115287 27.532004,61.666208 27.779042,60.957287 27.949854,60.546092" slic3r:type="contour"/>
    <polygon style="fill: white" points="30.643138,60.286848 31.051816,60.599052 30.783163,61.444216 30.689222,61.7942 30.188347,61.382251 29.719427,61.035336 29.967651,60.188832 30.070636,59.902228" slic3r:type="contour"/>
    <polygon style="fill: white" points="36.480675,57.277219 37.352608,57.657048 37.343173,57.783231 37.3927,57.77076 37.339249,57.835712 37.318571,58.112236 37.299124,58.919772 37.156775,58.854331 36.658016,58.649059 35.643372,59.859456 35.231657,59.948997 35.212939,60.0462 35.20754,60.084288 35.053298,59.987789 35.009179,59.997384 34.98261,59.982635 33.154007,60.260988 33.009944,60.799519 32.965192,61.0059 32.329546,60.535972 32.145719,60.414452 31.926206,60.447016 31.912012,60.437623 31.912742,60.434279 31.919879,60.409176 32.008195,60.32354 31.968463,60.297276 32.211929,59.282044 32.25152,59.149988 32.848059,59.509151 33.26751,59.102424 33.800855,58.515604 34.130184,58.479895 34.318374,58.446748 34.356156,58.263204 34.399732,58.285296 34.622558,58.414803 35.3015,58.297316 36.172848,58.077914 36.175532,58.013671 36.250952,57.190931" slic3r:type="contour"/>
    <polygon style="fill: white" points="38.257919,56.103159 38.997208,56.280928 39.053176,56.936279 39.131164,57.530808 38.782919,57.445283 37.938491,57.263364 37.861275,56.599736 37.813731,56.01472" slic3r:type="contour"/>
    <polygon style="fill: white" points="40.173992,54.734911 40.419872,55.559632 40.543628,55.92966 39.987816,55.916608 39.325044,55.912308 39.052403,55.058939 38.952856,54.724556 39.61078,54.722876" slic3r:type="contour"/>
    <polygon style="fill: white" points="41.783176,51.627364 42.22172,52.313548 42.122168,52.354827 41.88712,52.462254 41.902172,52.493632 41.877151,52.5013 41.972864,53.063892 41.284505,53.693315 41.472484,54.051008 41.553064,54.1978 40.816279,54.331376 40.528951,54.38418 40.457895,54.449152 40.374443,54.526704 40.365191,54.481978 40.180403,54.621616 40.160733,54.059797 39.818079,53.428471 39.764211,53.328632 40.112804,53.261857 40.064139,53.026595 40.004315,52.674344 40.322735,52.370808 40.570927,52.108883 40.319888,51.7151 40.483343,51.648764 41.494824,51.200892" slic3r:type="contour"/>
    <polygon style="fill: white" points="42.580155,48.574163 42.885044,48.977332 42.255145,49.414627 42.537779,49.782315 42.710212,50.0256 42.212707,50.315244 41.556144,50.770424 41.006211,50.009167 40.759196,49.6424 41.368033,49.283265 41.093859,48.926035 40.918792,48.68152 41.354388,48.367467 42.03894,47.878728" slic3r:type="contour"/>
    <polygon style="fill: white" points="43.021936,44.728236 43.372552,45.118212 42.750772,45.561075 42.527369,45.739309 42.570112,45.812592 42.541613,45.835614 42.957188,46.39316 43.191372,46.731172 42.769499,47.106576 42.061184,47.721304 41.586907,47.008935 41.217892,46.48174 41.866587,45.956628 42.108048,45.744721 41.619283,45.214339 41.393668,44.916412 41.816548,44.563787 42.470135,44.082216" slic3r:type="contour"/>
    <polygon style="fill: white" points="43.474623,40.763839 43.702239,40.97804 43.136585,41.384919 43.195344,41.508032 43.158968,41.54018 43.457351,41.940223 43.62422,42.216808 43.138723,42.82856 42.527672,43.46566 41.926335,42.485163 41.639304,42.084548 42.227203,41.480865 42.201124,41.448344 42.235367,41.397462 41.868164,41.067164 41.715624,40.875944 42.22508,40.375847 42.745644,39.968387" slic3r:type="contour"/>
    <polygon style="fill: white" points="43.276951,35.065851 43.766004,36.135244 43.690448,36.369839 43.571428,36.579248 43.617096,36.623076 43.596948,36.664773 43.788232,36.81374 43.709456,36.873548 43.289619,37.300781 43.149991,37.589736 42.797964,38.080012 42.507864,37.595491 42.408928,37.521164 41.799611,36.833259 41.847755,36.778624 41.961884,36.683597 41.953472,36.669547 42.002976,36.608374 41.782092,36.290999 41.950424,35.96244 42.67352,34.247992" slic3r:type="contour"/>
    <polygon style="fill: white" points="42.720927,33.864947 42.76342,33.965184 42.698992,34.038263 42.676123,34.024167 42.62826,33.97666 42.676172,33.801052" slic3r:type="contour"/>
    <polygon style="fill: white" points="43.069404,32.541196 43.520972,32.82464 43.081896,33.190789 42.631038,33.736616 42.662525,33.781569 41.882904,33.309385 41.535083,32.962213 41.810591,32.56936 42.421448,32.00341" slic3r:type="contour"/>
    <polygon style="fill: white" points="21.992963,2.402859 22.016094,2.439462 22.080699,2.439449 22.084297,2.445277 22.178506,2.446742 22.364555,2.446788 22.375109,2.430188 22.416583,2.439586 22.555044,2.25025 22.64658,2.413659 22.666337,2.446862 22.73053,2.446878 22.77288,2.521638 23.014764,2.555909 23.029691,2.534641 23.046895,2.546565 23.274134,2.318417 23.374802,2.57171 23.392042,2.609365 23.501448,2.624866 23.607693,2.84886 23.660646,2.810947 24.07471,2.548241 24.157019,2.977033 24.305397,2.995041 24.913982,3.061971 24.901111,3.113587 24.959116,3.11198 24.948076,3.202753 24.925208,3.347293 24.95027,3.645772 24.937861,4.054156 25.51758,4.211163 25.431613,4.308017 25.581268,4.356809 25.474014,4.756322 25.354295,5.131468 25.498154,5.192654 25.904304,5.28012 25.73555,5.438695 25.623325,5.605179 26.069198,5.772742 25.945023,6.217067 26.048776,6.261028 26.264054,6.287276 25.956005,6.533611 25.779576,6.809068 25.744282,6.935358 26.045928,7.052394 26.567726,7.189435 26.5366,7.21635 26.467158,7.308921 26.620614,7.380401 26.610653,7.923674 26.708287,7.954718 26.837056,7.995577 26.629936,8.209483 26.671281,8.378419 26.713513,8.549661 26.875286,8.580949 27.050678,8.643887 26.872965,8.907352 26.909863,8.974709 26.9481,8.980808 26.971644,9.000155 27.100872,8.993544 27.226478,9.024826 27.183807,9.163013 27.322842,9.152298 27.346937,9.230674 27.396895,9.223847 27.406856,9.304147 27.384883,9.665468 27.567325,9.548852 27.842524,9.435487 27.962254,9.798835 27.980965,9.909574 28.199825,9.942871 28.286539,9.937691 28.532906,9.742795 28.624316,9.688174 28.707903,9.890279 28.817189,9.901154 29.43858,9.910731 29.603091,9.998322 29.649312,9.96463 29.656827,9.98482 29.672731,10.031344 29.675401,10.03265 29.679942,10.043562 30.315364,10.405357 30.469357,10.492554 30.787754,10.283926 30.831399,10.415505 30.933331,10.755271 30.948694,10.76397 30.994136,10.890145 31.245967,11.07651 31.452789,10.936044 31.872576,10.687475 31.957061,10.966957 32.096495,11.530211 32.504645,11.221797 32.774206,11.053452 32.931368,11.50014 32.974048,11.65844 33.065591,11.586806 33.075794,11.585458 33.30557,11.364281 33.409126,11.27667 33.548391,11.555649 33.651615,11.382731 33.690632,11.309382 33.931803,11.441671 33.929272,11.320864 33.893372,11.148876 34.298442,11.303017 34.304672,11.07723 34.25696,10.763306 34.530056,10.862158 34.771281,10.910199 34.82394,10.774032 34.962764,10.292926 35.127984,10.410349 35.460852,10.615753 35.48328,10.599732 35.535469,10.608277 35.944228,10.22038 36.012679,10.338169 36.226579,10.720128 36.298597,10.730862 36.551495,10.655564 36.555962,10.658135 36.802672,10.561492 36.81422,10.628958 36.838837,10.820976 37.411111,11.150414 37.431252,11.161854 37.488216,11.158771 37.486888,11.167858 37.481801,11.194391 37.581835,11.305379 37.829002,11.913563 37.94784,11.938526 37.985548,11.950191 37.902644,12.094767 37.907208,12.105998 37.890779,12.136376 37.90446,12.224987 37.984816,12.713646 38.030384,12.736061 38.030342,12.738854 38.185107,12.806624 38.25184,12.840449 38.024839,13.101601 38.021244,13.338742 38.0215,13.541964 38.27598,13.695039 38.368532,13.754894 37.991896,14.094765 37.948326,14.387267 38.278443,14.609936 38.416428,14.696653 37.832218,15.16851 37.830804,15.178035 37.745775,15.245842 38.224539,15.556325 38.467752,15.663477 38.02174,16.022557 37.697441,16.308956 38.119503,16.543324 38.592392,16.696223 38.390011,16.861686 38.246176,17.023757 38.752571,17.438803 38.608468,17.749005 38.705328,17.791956 38.84388,17.828276 38.490807,18.18547 38.246735,18.558644 39.237511,18.989177 39.303132,19.020272 39.276071,19.099682 39.353247,19.129816 39.192707,19.612182 39.07234,19.991893 39.29654,20.05396 39.85006,20.141172 39.636903,20.514056 39.335683,21.103826 39.477007,21.288229 39.543354,21.370263 40.13428,21.573294 40.547984,21.651662 40.206964,22.126079 40.087878,22.362445 40.26174,22.645804 40.13222,22.912911 40.377803,23.23586 41.04816,23.53133 41.364624,23.62196 40.949744,24.088985 41.109436,24.39505 40.979706,24.63799 41.512411,25.286595 41.830403,25.917387 42.095644,26.06584 42.234,26.122808 42.030608,26.314528 42.101092,26.454346 42.04255,26.547607 42.268696,26.7878 42.56816,27.366788 42.622876,28.413931 42.54776,28.866125 42.6632,28.944016 42.654787,29.055905 42.989984,29.226544 42.870608,29.334911 42.606949,29.692176 42.575911,30.104972 42.319484,30.938944 41.649561,30.026321 41.0164,29.478123 41.047824,29.425762 41.140004,29.332161 41.129096,29.317301 41.19214,29.198817 40.865272,28.809646 40.975531,26.99239 40.81792,26.880788 40.808447,26.795106 40.448563,26.663103 40.246644,26.513862 40.532964,25.867039 40.687037,25.697025 40.588039,24.801649 40.381068,24.686999 40.350577,24.549239 39.763724,24.390964 39.437296,24.185332 39.634719,23.647694 40.039593,23.144185 39.995849,22.946548 39.785648,22.85782 39.746036,22.70107 39.065272,22.559424 38.68574,22.365062 38.836007,21.90069 39.250223,21.308166 39.233271,21.244675 38.4718,21.113638 38.03964,20.96048 38.139084,20.632833 38.341641,20.289511 37.663916,19.988194 37.541548,19.938145 37.562185,19.853918 37.519531,19.831112 37.488456,19.821124 37.72914,19.059007 37.878341,18.744032 37.824639,18.698916 37.155551,18.477553 36.935608,18.384772 37.111326,18.099653 37.009864,18.014414 36.824004,17.916584 37.093644,17.496213 37.165019,17.353192 36.62964,17.023452 36.859316,16.742706 37.322941,16.345052 36.752027,16.008749 36.485427,15.827968 36.998487,15.306338 37.106308,15.230656 36.544636,14.864308 36.427996,14.788714 36.788417,14.479059 36.715747,14.265486 36.651895,14.075213 36.440312,13.947051 36.383392,13.91513 36.557716,13.768914 36.516439,13.643712 36.433351,13.291958 36.337584,13.248864 36.300812,13.234069 36.391284,13.141867 36.355375,13.071472 36.239085,12.77452 36.191023,12.765114 36.168612,12.76034 36.20402,12.703352 36.076972,12.613437 36.042456,12.43654 35.968532,12.443163 35.971536,12.413657 36.02159,12.205735 35.984793,12.150075 35.745172,12.24396 35.701476,12.071647 35.592554,12.170914 35.590948,12.175861 35.510741,12.126189 35.524668,12.282721 35.122624,12.194934 35.146023,12.323657 35.191936,12.638695 34.760745,12.562771 34.744792,12.661392 34.652865,12.719903 34.622631,12.938206 34.613324,13.081739 34.294717,12.950779 33.98595,13.101477 33.883703,13.25021 33.851708,13.313834 33.633981,13.094242 33.507431,13.054502 33.257549,12.9784 33.08727,13.118201 32.985246,13.218084 32.862915,12.858214 32.761958,12.827467 32.663584,12.599442 32.610622,12.55864 32.343496,12.733193 32.098994,12.92129 32.027447,12.474463 31.901308,12.019004 31.531374,12.255646 31.15101,12.537388 31.103048,12.232765 31.015951,11.891486 30.65413,11.856775 30.538828,11.855675 30.156364,12.167399 30.121891,12.007538 30.074695,11.851247 29.324986,11.844094 29.179043,11.835834 29.176441,11.837989 29.160983,11.837887 29.113884,11.880921 29.101581,11.837497 28.938176,11.836424 28.225102,11.442873 28.144811,11.506082 28.05298,11.5892 27.967426,11.300658 27.932306,11.281276 27.915922,11.234996 27.530028,11.035378 27.45147,10.989768 27.286917,11.092992 27.05279,11.252904 26.952845,10.761952 26.937157,10.691165 26.891979,10.664936 26.768695,10.688287 26.675491,10.605406 26.598895,10.630841 26.161518,10.783056 26.170474,10.415363 26.167465,10.165758 25.920212,10.147267 25.904359,10.115079 25.491122,10.122961 25.593929,9.853151 25.664904,9.618448 25.607723,9.488775 25.488238,9.460267 25.486367,9.450844 25.060934,9.357051 25.221611,9.128549 25.35509,8.915854 25.342168,8.886551 25.367698,8.859103 25.347216,8.759098 24.784704,8.557633 24.999582,8.308927 25.204459,8.062078 25.190875,7.995756 25.052239,7.958133 24.555094,7.769016 24.87525,7.370426 24.981794,7.247833 24.722802,7.096186 24.308246,7.04875 24.360434,6.911466 24.256714,6.86813 24.299078,6.796389 24.375479,6.70813 24.38181,6.652474 24.636035,6.29123 24.670811,6.119923 24.17443,5.959903 23.91179,5.843768 24.046628,5.620827 23.834501,5.620648 24.048518,5.232104 24.09333,5.038921 23.769555,4.930034 23.510018,4.823874 23.556599,4.714321 23.479764,4.742748 23.651986,4.429437 23.664126,4.248181 23.467866,4.23128 23.224912,4.392835 23.240506,4.296376 23.232306,4.24356 23.012196,4.256993 22.977166,4.147584 22.931202,4.238966 22.948611,4.144143 22.862988,4.000638 22.698646,4.037161 22.600725,4.047534 22.576342,4.075086 22.482658,4.205986 22.457102,4.158011 22.393421,4.072784 22.005591,4.098549 21.981389,4.098402 21.895064,4.203643 21.867403,4.167987 21.801458,4.085859 21.433157,4.057638 21.307468,4.205985 21.256499,4.159193 21.1067,3.98199 21.026658,3.95604 20.930672,4.149709 20.85893,4.238985 20.767355,4.198008 20.777864,4.257036 20.588699,4.209109 20.565226,4.392814 20.437057,4.339035 20.24392,4.225936 20.272722,4.383786 20.310356,4.742743 20.200771,4.744608 20.28008,4.823918 19.939508,4.84905 19.762423,4.927753 19.955616,5.620684 19.741776,5.685056 19.789756,5.756107 19.878334,5.843794 19.426872,5.91244 19.168256,6.030617 19.325522,6.541711 19.408383,6.652563 19.42881,6.762615 19.533426,6.868133 19.44942,6.873663 19.481906,7.048689 19.137549,7.23479 18.864622,7.338664 19.00567,7.509106 19.235022,7.769015 18.828637,7.834407 18.560138,7.938146 18.602176,7.981222 18.587762,8.053351 18.647049,8.12312 19.00544,8.557635 18.713624,8.619759 18.454847,8.711369 18.42458,8.859533 18.447974,8.886518 18.444312,8.893998 18.729213,9.357022 18.462013,9.400499 18.307243,9.433901 18.301862,9.460242 18.160022,9.492203 18.133285,9.552574 18.144705,9.585314 18.299,10.122971 18.017924,10.113427 17.886132,10.110665 17.86993,10.147252 17.636246,10.169016 17.637884,10.331975 17.62858,10.783059 17.289108,10.672835 17.10158,10.60844 17.021402,10.688286 16.91025,10.655651 16.862667,10.679477 16.804964,10.953579 16.737337,11.252917 16.276353,10.973059 15.988155,11.117368 15.897647,11.175375 15.857831,11.281293 15.833914,11.292209 15.784309,11.451688 15.737147,11.589195 15.528094,11.431791 15.358787,11.509065 14.852039,11.836393 14.73132,11.828063 14.695148,11.831103 14.676212,11.88092 14.656099,11.865229 14.623836,11.837096 14.613609,11.837955 14.597014,11.824737 14.027722,11.785983 13.749827,11.808309 13.633732,12.167405 13.477042,12.056879 13.214311,11.851331 13.148182,11.856644 13.09773,11.819656 12.816943,11.852755 12.790382,11.990887 12.639147,12.537375 12.319905,12.34021 11.903661,12.047098 11.796632,12.571955 11.691122,12.921302 11.212924,12.621189 11.152784,12.577429 11.028187,12.827466 10.950746,12.851991 10.869485,13.071629 10.804901,13.218084 10.514497,12.990142 10.448555,13.011025 10.141964,13.102744 9.98895,13.259272 9.938418,13.313833 9.726326,13.027745 9.660659,12.987841 9.543077,12.925461 9.30379,13.024984 9.176753,13.081717 9.1132,12.697396 9.045305,12.661376 9.028117,12.550361 8.870576,12.57889 8.59816,12.638693 8.694542,12.148485 8.265473,12.282719 8.28382,12.191663 8.220647,12.156076 8.199157,12.175841 8.198701,12.169698 8.115258,12.015092 8.039082,12.035481 8.04495,12.24396 7.978561,12.188949 7.898292,12.154305 7.849765,12.271534 7.796422,12.3576 7.821563,12.443192 7.766312,12.425869 7.713119,12.613486 7.590709,12.714358 7.621482,12.7604 7.542077,12.775455 7.506226,12.846963 7.38859,13.129388 7.462836,13.205775 7.489308,13.23408 7.339832,13.303616 7.291874,13.453586 7.214521,13.754152 7.359156,13.875425 7.40673,13.915193 7.133941,14.084351 6.993709,14.497365 7.26297,14.721081 7.362131,14.788709 6.744633,15.192364 6.636805,15.26234 7.097677,15.705481 7.304718,15.82787 6.812712,16.102218 6.430941,16.354649 6.755406,16.729633 7.160499,17.023422 6.917318,17.11573 6.636501,17.28166 6.669102,17.339438 6.966106,17.91668 6.682972,18.140299 6.75861,18.260166 6.854526,18.38477 6.331853,18.527844 6.042334,18.646272 5.893144,18.764103 6.075862,19.242883 6.082328,19.259179 6.082818,19.261111 6.27695,19.769798 6.301691,19.821152 6.236641,19.854301 6.24862,19.938122 5.751651,20.186972 5.385457,20.33599 5.473958,20.557234 5.750504,20.960442 5.404945,21.007672 4.562385,21.240106 4.539925,21.327605 4.866541,22.085138 5.104398,22.365024 4.647691,22.432206 4.08454,22.655817 4.004632,22.85778 3.817698,22.919422 3.771083,23.214812 4.132547,23.962559 4.352823,24.185366 3.819743,24.29502 3.493091,24.457434 3.409036,24.687009 3.262061,24.752497 3.229691,25.775666 3.177927,25.997852 3.388916,26.371323 3.543466,26.513888 3.018884,26.680505 2.972223,26.880786 2.899459,26.923401 2.980881,27.510068 2.924833,28.809681 2.761606,29.120932 2.623526,29.259981 2.66107,29.31727 2.640142,29.35338 2.773731,29.47804 2.716467,29.502783 2.433753,29.70949 2.046929,30.376928 1.470772,30.939048 1.306147,29.984087 1.274798,29.953769 0.80014,29.22643 0.927432,29.127395 1.139254,29.015971 1.12685,28.94402 1.326139,28.79255 1.221898,27.367048 1.792257,26.642814 1.689034,26.45437 1.74592,26.369019 1.612806,26.228289 1.556126,26.122842 2.168421,25.735117 2.836409,24.732897 2.680654,24.395036 2.811145,24.201612 2.54361,23.869379 2.4255,23.621938 3.047066,23.304057 3.511293,23.163795 3.66453,22.936656 3.624883,22.877341 3.528429,22.645748 3.686958,22.431271 3.384294,21.978679 3.242116,21.651688 3.760059,21.439234 4.279806,21.327952 4.449719,21.107883 4.122226,20.522406 3.940073,20.14115 4.287555,20.026166 4.701176,19.950308 4.487424,19.288514 4.43691,19.129724 4.538288,19.081795 4.486975,19.020291 5.131853,18.761814 5.520973,18.577964 5.085374,18.046878 4.946246,17.828288 5.222002,17.700949 5.164499,17.559738 5.037557,17.438794 5.396686,17.273524 5.56675,17.127195 5.197733,16.696222 5.516956,16.510861 6.059826,16.291635 5.578475,15.89376 5.322376,15.663514 5.925654,15.259081 6.008632,15.216689 5.959334,15.178065 5.955267,15.150801 5.514608,14.801001 5.373697,14.696648 5.840141,14.379012 5.79489,14.075656 5.508536,13.823746 5.421601,13.75485 5.721055,13.577131 5.720963,13.576508 5.758969,13.553893 5.75537,13.356013 5.757269,13.083007 5.746327,13.071725 5.746723,13.069131 5.590431,12.893721 5.538258,12.840472 5.759608,12.746627 5.759681,12.736109 5.800436,12.717118 5.816129,12.614274 5.897184,12.131731 5.882906,12.105897 5.888883,12.089691 5.825356,11.981986 5.804612,11.950157 5.931668,11.926441 5.932601,11.920886 5.952794,11.916384 5.964809,11.883807 6.208199,11.305555 6.308997,11.193456 6.301974,11.158705 6.311311,11.160468 6.355735,11.163094 6.920622,10.835323 6.95771,10.814351 6.98745,10.561463 7.049043,10.593974 7.219538,10.666292 7.238566,10.655532 7.450607,10.725054 7.5785,10.702756 7.845884,10.22038 7.947297,10.326488 8.23755,10.609605 8.319411,10.598007 8.36523,10.567233 8.827382,10.292944 8.927609,10.539038 9.031901,10.857379 9.140294,10.82665 9.533169,10.763277 9.56047,11.208628 9.668558,11.178862 9.896755,11.148892 9.900558,11.404821 9.997606,11.355564 10.079657,11.320263 10.089328,11.36904 10.115228,11.339016 10.189881,11.460559 10.298456,11.476621 10.339887,11.388574 10.381003,11.276646 10.668908,11.571901 10.724534,11.586785 10.743408,11.604088 10.859732,11.616677 10.955888,11.319074 11.015951,11.053453 11.296111,11.286971 11.697338,11.555965 11.825203,11.103387 11.917541,10.687476 12.118977,10.833751 12.52282,11.084718 12.8025,10.876069 12.841434,10.763957 12.869248,10.748159 13.002374,10.283926 13.104242,10.361046 13.307836,10.499044 13.997487,10.107326 14.110607,10.043208 14.114731,10.032704 14.119139,10.030435 14.140844,9.964628 14.156933,9.977914 14.183046,9.997535 14.351758,9.910682 15.109848,9.873384 15.14989,9.763739 15.165843,9.688175 15.355615,9.861292 15.390618,9.85957 15.412014,9.875225 15.766649,9.829422 15.891215,9.823944 15.941495,9.628765 15.947589,9.435488 16.17742,9.622058 16.326989,9.699009 16.411767,9.52752 16.408017,9.459471 16.427214,9.360005 16.393263,9.223818 16.447692,9.253895 16.467305,9.152278 16.612119,9.086013 16.563652,9.024823 16.703086,9.044388 16.783629,9.007533 16.851549,8.882787 16.895904,8.825575 16.856404,8.770395 16.73945,8.643907 17.066262,8.589197 17.11519,8.389209 17.154521,8.229843 17.04788,8.114917 16.953064,7.995578 17.197309,7.917884 17.200588,7.83124 17.169536,7.380338 17.311235,7.327711 17.222421,7.189406 17.2792,7.166368 18.003778,6.92769 17.696202,6.604425 17.526072,6.287263 17.882932,6.133092 17.868621,6.068112 17.720928,5.772745 17.999598,5.744901 18.138751,5.69407 17.885838,5.280097 18.320932,5.0971 18.493027,5.040981 18.447304,4.835661 18.208862,4.356806 18.355046,4.360321 18.272544,4.211167 18.487631,4.136456 18.850148,4.020482 18.83985,3.646256 18.864235,3.254108 18.831009,3.112007 18.872434,3.122265 18.876186,3.061949 19.517047,2.986335 19.595739,2.977099 19.715398,2.548242 20.069256,2.811615 20.118753,2.843871 20.193127,2.808031 20.288665,2.624866 20.375565,2.607199 20.515998,2.318412 20.676837,2.503024 20.711528,2.538897 20.804597,2.519975 21.036511,2.48586 21.059566,2.446872 21.11563,2.446027 21.235058,2.250254 21.337087,2.400432 21.363816,2.437714 21.41501,2.430183 21.421874,2.441412 21.544685,2.439561 21.70938,2.439527 21.709428,2.439448 21.714352,2.439525 21.774121,2.439513 21.895064,2.248064" slic3r:type="contour"/>
    <polygon style="fill: white" points="1.872131,32.629129 2.255058,32.962152 1.794568,33.222665 1.11518,33.804095 1.142912,33.874608 1.161815,33.976476 1.09104,34.038104 1.070785,34.020891 1.02659,33.965004 1.149737,33.73328 0.544918,33.199822 0.269139,32.8247 0.683531,32.443263 1.368564,32.00334" slic3r:type="contour"/>
    <polygon style="fill: white" points="1.623029,35.167752 2.008039,36.290951 1.926866,36.46606 1.803087,36.632574 1.836662,36.66952 1.822578,36.697082 1.990516,36.833231 1.926144,36.879143 1.523165,37.283011 1.358232,37.605775 0.992266,38.0799 0.713668,37.58451 0.626473,37.51618 0.001895,36.813716 0.061763,36.75012 0.188012,36.649813 0.172992,36.623104 0.240665,36.551277 0.024118,36.135412 0.263152,35.786324 1.11655,34.248328" slic3r:type="contour"/>
    <polygon style="fill: white" points="1.842142,40.696792 2.074503,40.875888 1.531044,41.35091 1.588986,41.448332 1.582236,41.455986 1.949347,41.828843 2.150828,42.084592 1.77582,42.757855 1.262479,43.46566 0.525484,42.596595 0.165907,42.21684 0.649778,41.560614 0.594798,41.508064 0.637847,41.428753 0.264111,41.153556 0.087885,40.978088 0.563939,40.423968 1.044447,39.968368" slic3r:type="contour"/>
    <polygon style="fill: white" points="1.999597,44.625524 2.396473,44.916432 1.897545,45.451628 1.676353,45.725095 2.272284,46.206951 2.572263,46.481896 2.264798,46.957588 1.728923,47.721428 1.110091,47.17546 0.59875,46.731151 1.117292,46.034312 1.254261,45.84153 1.220193,45.812568 1.256284,45.754503 0.70803,45.361464 0.417574,45.118099 0.773034,44.691548 1.320031,44.0822" slic3r:type="contour"/>
    <polygon style="fill: white" points="2.494505,48.412572 2.871356,48.681612 2.423143,49.264222 2.800178,49.488364 3.03095,49.64244 2.684234,50.101523 2.234018,50.770384 1.472939,50.297216 1.07992,50.025575 1.54042,49.428312 1.163093,49.166259 0.905065,48.977244 1.243892,48.549376 1.751251,47.878696" slic3r:type="contour"/>
    <polygon style="fill: white" points="2.783028,51.401544 3.47024,51.715092 3.391373,51.832051 3.222454,52.096307 3.785827,52.674404 3.668336,53.261081 3.927494,53.310439 4.025883,53.328584 3.662574,53.996683 3.623348,54.069318 3.609893,54.621896 3.423558,54.485062 3.415599,54.526704 3.254519,54.383253 2.419597,54.231447 2.237088,54.197844 2.494232,53.706174 2.257124,53.495015 1.817284,53.06392 1.894208,52.751492 1.929931,52.506815 1.887897,52.49352 1.9023,52.467135 1.56841,52.31352 1.652988,52.188759 2.295284,51.20096" slic3r:type="contour"/>
    <polygon style="fill: white" points="4.657251,55.2744 4.465109,55.91228 3.675647,55.927996 3.246516,55.92968 3.43311,55.297615 3.61615,54.734952 3.64783,54.734881 4.540388,54.732892 4.837265,54.724532" slic3r:type="contour"/>
    <polygon style="fill: white" points="5.925105,56.411972 5.851638,57.26344 5.297067,57.396491 4.658962,57.530816 4.69385,57.107416 4.792931,56.280988 5.499296,56.13448 5.97641,56.014736" slic3r:type="contour"/>
    <polygon style="fill: white" points="7.544393,57.408443 7.598438,58.043226 9.195384,58.405526 9.433972,58.263204 9.439401,58.306508 9.465578,58.438359 9.989273,58.515604 10.974168,59.507095 11.435788,59.222111 11.538613,59.149988 11.704184,59.891707 11.82164,60.297223 11.785258,60.323618 11.870245,60.409176 11.878115,60.437624 11.875732,60.439352 11.863918,60.447016 11.661963,60.413071 11.015929,60.881771 10.824907,61.005888 10.615106,60.237115 9.722902,60.087152 8.819053,59.976619 8.780947,59.99736 8.743199,59.988488 8.619389,60.064259 8.58259,60.084256 8.55483,59.944222 8.411796,59.910608 8.146747,59.859428 7.638863,59.167043 7.174009,58.644194 6.490971,58.919748 6.476689,58.736135 6.443556,57.822608 6.397459,57.77076 6.442041,57.780875 6.43755,57.657027 6.905235,57.475696 7.539207,57.19094" slic3r:type="contour"/>
    <polygon style="fill: white" points="13.884699,60.501783 14.070698,61.0353 13.414702,61.56582 13.100894,61.794188 12.882993,61.119683 12.738322,60.598984 13.501365,60.073236 13.719468,59.902228" slic3r:type="contour"/>
    <polygon style="fill: white" points="15.999918,61.028364 16.258121,61.666131 15.723975,62.142371 15.319334,62.468615 15.120528,61.937876 14.905365,61.296956 15.532455,60.812748 15.84028,60.546096" slic3r:type="contour"/>
    <polygon style="fill: white" points="18.061723,61.431247 18.401941,62.136008 17.968148,62.576759 17.515002,62.998384 17.329002,62.582276 17.025242,61.860404 17.533652,61.402643 17.899954,61.043204" slic3r:type="contour"/>
    <polygon style="fill: white" points="20.08655,61.684732 20.512584,62.410332 20.155786,62.838504 19.70295,63.345908 19.520271,63.011163 19.114011,62.258504 19.524216,61.808699 19.91314,61.363832" slic3r:type="contour"/>
    <polygon style="fill: white" points="22.097203,61.764507 22.599706,62.458416 22.296951,62.904344 21.895064,63.473516 21.69909,63.183508 21.190432,62.458512 21.523648,61.991679 21.895064,61.480228" slic3r:type="contour"/>
  </g></svg>