<svg width="43.790126" height="63.590156" xmlns="http://www.w3.org/2000/svg" xmlns:svg="http://www.w3.org/2000/svg" xmlns:xlink="http://www.w3.org/1999/xlink" xmlns:slic3r="http://slic3r.org/namespaces/slic3r"><g xmlns="http://www.w3.org/2000/svg" slic3r:z="4.65349999999998e-005" id="layer140">
    <polygon style="fill: white" points="40.31112,39.832136 40.613016,40.022744 39.913271,40.685976 39.585114,40.971507 39.972112,42.063848 40.256184,42.950716 39.923972,42.961756 39.336608,42.740819 38.791552,41.68266 38.578392,41.332399 39.406743,40.955635 39.551306,40.899363 38.806819,40.278375 38.683028,40.191276 39.298944,39.693115 39.681228,39.39696" slic3r:type="contour"/>
    <polygon style="fill: white" points="40.074852,35.01354 40.72886,35.367075 40.520031,35.576372 39.749336,36.288484 39.239496,35.935556 38.726936,35.623864 39.030832,35.369795 39.709364,34.804524" slic3r:type="contour"/>
    <polygon style="fill: white" points="38.962324,26.717204 38.970523,26.755508 39.092008,26.812632 39.831144,27.10469 39.730316,27.227313 39.197536,27.816019 39.223556,27.937576 39.621468,30.66618 39.880684,30.798789 39.878417,30.826072 40.42876,31.080782 40.347612,31.170501 39.804842,31.711622 39.780184,32.008407 39.533071,32.942838 39.324964,31.894572 39.10652,31.758719 38.431516,31.404828 38.626916,31.226339 39.108073,30.802068 39.096708,30.74482 39.229696,30.605635 38.795639,27.937438 38.576168,27.820446 37.87572,27.510506 38.067883,27.303346 38.607033,26.778058 38.596336,26.712296 38.666879,26.632144 38.69746,26.600958" slic3r:type="contour"/>
    <polygon style="fill: white" points="38.305603,23.314145 38.993572,23.524814 38.83682,23.746519 38.270092,24.518244 37.789935,24.324289 37.100596,24.073698 37.31882,23.761385 37.864963,23.131014" slic3r:type="contour"/>
    <polygon style="fill: white" points="37.270939,20.329719 37.89234,20.419488 37.62052,20.73864 37.240708,21.43632 36.710187,21.424428 36.083484,21.278974 36.327956,20.800739 36.697356,20.244436" slic3r:type="contour"/>
    <polygon style="fill: white" points="36.39752,18.481917 36.403484,19.720104 35.657904,19.659462 35.147288,19.75959 35.343584,19.50207 35.261012,18.233436 35.552144,18.052262 36.402868,18.015824" slic3r:type="contour"/>
    <polygon style="fill: white" points="34.273266,16.48012 34.610887,16.518943 34.985268,16.565419 34.872439,17.182506 34.700216,17.803364 33.923033,17.71817 33.3856,17.97612 33.377539,17.871016 33.342486,17.65453 33.329996,17.653161 33.325058,17.630103 32.767236,17.587016 32.771434,17.276891 32.790828,16.358794 33.117939,16.382135 33.9562,15.961859 34.128344,15.850538" slic3r:type="contour"/>
    <polygon style="fill: white" points="31.805398,14.891502 32.21795,15.881429 31.491488,16.454369 31.245372,16.663082 31.01284,16.008538 30.699168,15.145317 31.17263,14.807849 31.629372,14.403271" slic3r:type="contour"/>
    <polygon style="fill: white" points="22.065929,12.2186 22.431698,12.8108 22.617848,12.536942 23.000828,11.992207 23.180424,12.324777 23.552086,12.997673 23.827066,12.634331 24.191278,12.162969 24.411266,12.606508 24.804123,13.374282 25.257217,12.823894 25.557112,12.45344 25.855092,13.082169 26.215872,13.805295 26.422597,13.79479 27.010464,13.11727 27.199982,12.88176 27.601382,13.737272 28.26959,13.693355 29.114942,13.65378 29.223323,13.538873 29.25625,13.498562 29.322947,13.64404 29.326524,13.643873 29.326818,13.644486 29.431171,13.639197 29.620234,13.635021 29.707992,14.392935 29.70759,14.437568 29.927682,14.895982 29.562182,15.256778 29.048218,15.782012 28.922787,15.489661 28.685205,14.947828 28.647198,14.949782 28.634164,14.921441 27.186439,15.016397 27.034486,15.18647 27.010891,15.135174 26.96175,15.031134 26.95722,15.031431 26.954402,15.025472 26.484782,15.046475 26.397923,14.706585 26.150425,13.811894 25.490675,14.644417 25.397506,14.758602 25.03091,13.99063 24.79107,13.480503 24.238371,14.241333 24.061218,14.476042 23.733323,13.818342 23.530328,13.407796 23.145286,13.99765 22.927868,14.318508 22.611338,13.72792 22.424043,13.3801 22.118668,13.897651 21.895064,14.269215 21.570128,13.713542 21.368027,13.377594 21.066682,13.938893 20.862258,14.318509 20.510587,13.771349 20.261461,13.403173 19.888582,14.153163 19.728902,14.476037 19.319384,13.904127 18.999482,13.479143 18.47593,14.581545 18.392642,14.758594 17.890672,14.11888 17.640029,13.81088 17.445249,14.562947 17.305406,15.046462 16.966579,15.033517 16.835089,15.02683 16.832931,15.031431 16.828946,15.031193 16.755668,15.186469 16.719311,15.145263 16.60559,15.017851 15.878019,14.974389 15.154331,14.924716 15.142923,14.949752 15.107281,14.948053 14.741925,15.782017 14.516729,15.561559 13.862461,14.895973 14.05245,14.466097 14.133564,14.303897 14.174954,13.782879 14.169915,13.635025 14.461714,13.646718 14.504703,13.552064 14.533903,13.498563 14.685841,13.656991 16.166383,13.744356 16.168776,13.739652 16.170583,13.739737 16.432443,13.179383 16.590137,12.881774 17.063638,13.423232 17.370057,13.796007 17.575236,13.805632 18.001481,12.905174 18.233004,12.45346 18.5675,12.859158 18.985648,13.373266 19.315696,12.707785 19.598858,12.162968 19.842441,12.485326 20.235782,12.997318 20.461335,12.579816 20.7893,11.992216 20.979851,12.27305 21.354684,12.811454 21.529785,12.522164 21.895064,11.936053" slic3r:type="contour"/>
    <polygon style="fill: white" points="12.430847,14.58986 13.090985,15.14525 12.742748,16.117282 12.5447,16.663121 11.999909,16.240317 11.572074,15.881335 11.859325,15.07162 12.160779,14.403267" slic3r:type="contour"/>
    <polygon style="fill: white" points="10.384498,16.196225 10.695909,16.387564 10.999374,16.358847 11.009295,17.031017 11.022881,17.587002 10.739406,17.608097 10.465771,17.629467 10.460135,17.653144 10.454696,17.653483 10.404528,17.97609 10.270201,17.960204 9.681284,17.714765 9.08998,17.80338 8.902291,16.895167 8.804874,16.565406 9.490604,16.485409 9.577688,16.092042 9.661773,15.850542" slic3r:type="contour"/>
    <polygon style="fill: white" points="7.621192,18.174882 8.529327,18.233459 8.673095,18.570622 8.642846,19.759578 8.031704,19.81559 7.386663,19.720104 7.37675,18.994735 7.387351,18.015738" slic3r:type="contour"/>
    <polygon style="fill: white" points="7.419822,20.859835 7.706647,21.278924 7.320212,21.263986 6.549728,21.436302 6.1917,21.004274 5.897778,20.419542 6.313069,20.357755 7.092822,20.244486" slic3r:type="contour"/>
    <polygon style="fill: white" points="6.242602,23.571724 6.689549,24.073657 6.341113,24.216484 5.520107,24.518228 5.254068,24.142057 4.796549,23.524874 5.043646,23.421886 5.925299,23.130958" slic3r:type="contour"/>
    <polygon style="fill: white" points="5.193801,26.712302 5.182924,26.789388 5.352708,26.969399 5.914418,27.510476 5.647627,27.656303 5.002656,27.949322 4.567528,30.617574 4.69334,30.744671 4.682176,30.808722 4.725612,30.848123 5.358617,31.404832 5.105966,31.565391 4.474462,31.904943 4.257047,32.941672 4.066851,31.768722 4.006929,31.702256 3.36138,31.080794 3.4537,31.033572 3.912465,30.816618 3.909554,30.798664 4.24647,30.620067 4.656055,27.870418 4.536305,27.724849 3.958994,27.104696 4.094347,27.040851 4.824421,26.740138 4.827839,26.717191 5.04811,26.617782 5.092665,26.600958" slic3r:type="contour"/>
    <polygon style="fill: white" points="4.500084,35.154788 5.063186,35.62388 4.692624,35.884079 4.040792,36.288484 3.649069,35.89314 3.06126,35.367092 3.255871,35.255476 4.08083,34.80456" slic3r:type="contour"/>
    <polygon style="fill: white" points="4.943764,40.064788 5.107094,40.191308 4.397404,40.790728 4.243435,40.902442 4.990448,41.247999 5.211733,41.332428 4.847528,42.103648 4.453528,42.740912 3.953427,42.74708 3.533936,42.950604 4.052035,41.440123 4.205955,40.974772 3.46764,40.264896 3.177113,40.02266 3.691121,39.665276 4.108924,39.396896" slic3r:type="contour"/>
    <polygon style="fill: white" points="22.415854,55.6696 24.641901,55.69542 24.685636,55.75144 24.693636,55.7624 24.676141,55.793772 25.53221,56.079052 26.334308,56.467564 26.332187,56.472252 26.382487,56.513436 26.31304,56.512194 26.305364,56.532232 26.284559,56.51171 26.23731,56.510936 24.295061,56.477155 24.129441,56.774156 24.091378,56.853328 23.773487,56.470728 23.204428,56.466216 22.227839,56.457812 21.954904,56.857592 21.895064,56.957692 21.555924,56.457608 21.004487,56.461932 20.011335,56.470553 19.751326,56.782056 19.698806,56.853344 19.490644,56.47686 19.151943,56.482256 17.505218,56.511692 17.487915,56.528704 17.484764,56.532232 17.475792,56.512189 17.40764,56.51344 17.46306,56.483745 17.455817,56.467564 17.60291,56.408812 17.618176,56.400632 17.61936,56.402241 19.117161,55.803981 19.096492,55.7624 19.148224,55.69542 19.320381,55.692252 21.376446,55.666614 21.384969,55.653788 21.777106,55.661619 22.40518,55.653788" slic3r:type="contour"/>
  </g></svg>